<?xml version="1.0" ?>
<svg xmlns="http://www.w3.org/2000/svg" version="1.1" width="600" height="600">
  <defs/>
  <g>
    <path d="M 567.9348754882812 505.54583740234375 C 565.1900024414062 515.8153686523438 557.7612915039062 523.0315551757812 546.5032348632812 525.7001342773438 C 536.1566162109375 523.1541137695312 528.782958984375 515.8656616210938 526.0559692382812 505.4195251464844 C 528.78955078125 494.1336669921875 536.1414184570312 486.8100280761719 546.270751953125 484.205078125 C 557.4283447265625 487.40728759765625 565.0961303710938 494.3794860839844 567.9348754882812 505.54583740234375" stroke-width="0.0" fill="rgb(104, 43, 62)" opacity="1.0"/>
    <path d="M 388.5774230957031 292.41650390625 C 385.12091064453125 303.0024108886719 378.12945556640625 310.5206604003906 367.885009765625 313.4861755371094 C 357.6505432128906 310.6727600097656 350.2647399902344 303.3695373535156 347.5482177734375 293.012939453125 C 350.3551940917969 282.73126220703125 357.73736572265625 275.37115478515625 368.0948791503906 272.34088134765625 C 378.5654296875 275.1324462890625 385.9923095703125 282.3934020996094 388.5774230957031 292.41650390625" stroke-width="0.0" fill="rgb(255, 252, 238)" opacity="0.9907767"/>
    <path d="M 237.1311492919922 141.13775634765625 C 234.6353759765625 151.29017639160156 227.29208374023438 158.64537048339844 217.12367248535156 161.6092987060547 C 206.8220672607422 158.5658416748047 199.56735229492188 151.13636779785156 196.2940216064453 140.5703582763672 C 199.1531982421875 130.63327026367188 206.84934997558594 123.8946762084961 217.25486755371094 121.44570922851562 C 227.0 123.67948913574219 234.3205108642578 131.0 237.1311492919922 141.13775634765625" stroke-width="0.0" fill="rgb(252, 248, 233)" opacity="1.0"/>
    <path d="M 545.552001953125 242.82533264160156 C 542.5608520507812 253.2041473388672 535.1788330078125 260.4764099121094 525.0491333007812 263.0379333496094 C 515.0 260.32049560546875 507.67950439453125 253.0 504.62066650390625 242.64166259765625 C 507.06109619140625 232.3760223388672 514.3455200195312 224.9702911376953 524.9766235351562 222.1750030517578 C 535.4119873046875 225.12477111816406 542.702392578125 232.6544647216797 545.552001953125 242.82533264160156" stroke-width="0.0" fill="rgb(251, 230, 199)" opacity="1.0"/>
    <path d="M 427.0758361816406 282.1702880859375 C 424.43426513671875 292.13922119140625 417.13671875 299.4287109375 407.3868408203125 302.045166015625 C 398.2029724121094 299.55419921875 389.84130859375 293.6877136230469 387.0561828613281 282.4466857910156 C 389.7755432128906 272.1119689941406 397.1105041503906 264.7723083496094 407.18048095703125 262.1166076660156 C 418.4474182128906 265.3375244140625 425.9369201660156 272.46710205078125 427.0758361816406 282.1702880859375" stroke-width="0.0" fill="rgb(176, 34, 31)" opacity="0.99002284"/>
    <path d="M 490.0 138.0 C 487.32049560546875 148.0 480.0 155.3205108642578 470.37640380859375 157.63571166992188 C 460.70111083984375 154.6544647216797 453.49853515625 147.24525451660156 450.92510986328125 137.40243530273438 C 452.9190979003906 127.43286895751953 459.29876708984375 119.91566467285156 469.4210205078125 117.3594741821289 C 480.0 120.67948913574219 487.32049560546875 128.0 490.0 138.0" stroke-width="0.0" fill="rgb(202, 74, 28)" opacity="0.99001914"/>
    <path d="M 23.941387176513672 226.4600067138672 C 21.202783584594727 236.8628692626953 13.86971664428711 244.2183837890625 3.7800369262695312 246.93038940429688 C -7.2632317543029785 243.82012939453125 -14.35144329071045 236.08103942871094 -17.001636505126953 226.00094604492188 C -14.3414306640625 215.94384765625 -7.199115753173828 208.26719665527344 2.932774305343628 205.15760803222656 C 13.598855972290039 208.11036682128906 21.14444923400879 215.2880859375 23.941387176513672 226.4600067138672" stroke-width="0.0" fill="rgb(100, 44, 59)" opacity="1.0"/>
    <path d="M 509.7886657714844 106.2778091430664 C 506.8317565917969 117.46161651611328 499.4497375488281 124.79885864257812 489.2930603027344 127.39310455322266 C 479.0 124.32051086425781 471.67950439453125 117.0 468.946533203125 106.9319839477539 C 471.4570617675781 96.71640014648438 478.63739013671875 89.21267700195312 489.3681640625 86.59410095214844 C 499.7502746582031 88.90150451660156 507.119384765625 96.24279022216797 509.7886657714844 106.2778091430664" stroke-width="0.0" fill="rgb(252, 234, 169)" opacity="1.0"/>
    <path d="M 176.8926544189453 29.75948715209961 C 174.1989288330078 39.85880661010742 166.86058044433594 47.203853607177734 156.80474853515625 49.899436950683594 C 145.9673614501953 46.41486740112305 138.6776885986328 39.00556564331055 135.99996948242188 29.000099182128906 C 138.6794891357422 19.0 146.0 11.679491996765137 156.00013732910156 8.999954223632812 C 166.0078125 11.676953315734863 173.46775817871094 18.948354721069336 176.8926544189453 29.75948715209961" stroke-width="0.0" fill="rgb(105, 45, 63)" opacity="1.0"/>
    <path d="M 557.122314453125 373.0542297363281 C 554.6459350585938 382.41217041015625 547.4752807617188 389.8302917480469 537.7437744140625 392.80206298828125 C 527.950439453125 390.3955078125 520.65771484375 383.03350830078125 518.7518310546875 373.6018371582031 C 521.3722534179688 363.55206298828125 528.4091186523438 355.96588134765625 538.5214233398438 352.37127685546875 C 548.353515625 355.05792236328125 554.7069091796875 363.2869567871094 557.122314453125 373.0542297363281" stroke-width="0.0" fill="rgb(207, 75, 32)" opacity="0.9900154"/>
    <path d="M 499.0 154.0 C 496.32049560546875 164.0 489.0 171.3205108642578 479.2857971191406 173.6636962890625 C 469.4849853515625 170.81402587890625 462.2673645019531 163.48745727539062 458.5846862792969 153.2652130126953 C 460.92657470703125 143.32850646972656 468.3984069824219 136.131103515625 478.7412109375 133.76072692871094 C 489.0 136.6794891357422 496.32049560546875 144.0 499.0 154.0" stroke-width="0.0" fill="rgb(200, 137, 108)" opacity="0.9903643"/>
    <path d="M 81.53678131103516 153.37786865234375 C 78.88480377197266 163.52125549316406 71.51760864257812 170.8764190673828 61.16204833984375 173.70248413085938 C 50.44980239868164 170.87911987304688 43.01719284057617 163.58729553222656 40.166683197021484 152.70187377929688 C 43.00025939941406 142.46160888671875 50.59815979003906 135.3867950439453 60.91761016845703 132.94351196289062 C 71.0003890991211 135.6793670654297 78.3302001953125 142.99697875976562 81.53678131103516 153.37786865234375" stroke-width="0.0" fill="rgb(248, 233, 165)" opacity="1.0"/>
    <path d="M 216.93467712402344 526.2377319335938 C 214.13560485839844 536.7059326171875 206.57460021972656 543.7628784179688 196.13754272460938 546.085205078125 C 186.0 543.3204956054688 178.6794891357422 536.0 176.0 526.0 C 178.6794891357422 516.0 186.0 508.67950439453125 196.0547637939453 505.9718933105469 C 206.4134979248047 508.41864013671875 214.08956909179688 515.390869140625 216.93467712402344 526.2377319335938" stroke-width="0.0" fill="rgb(196, 68, 24)" opacity="0.9928054"/>
    <path d="M 166.1089630126953 32.1085319519043 C 163.65899658203125 42.465736389160156 156.63885498046875 50.104923248291016 145.28155517578125 52.9473876953125 C 135.10943603515625 50.23346710205078 127.77787017822266 42.88578414916992 125.05349731445312 32.224639892578125 C 127.79861450195312 21.149810791015625 135.15682983398438 13.816024780273438 145.25457763671875 11.178375244140625 C 156.0 14.679491996765137 163.3205108642578 22.0 166.1089630126953 32.1085319519043" stroke-width="0.0" fill="rgb(100, 48, 61)" opacity="1.0"/>
    <path d="M 80.09400177001953 353.8349609375 C 79.13776397705078 363.81842041015625 71.83346557617188 371.18182373046875 61.465660095214844 373.91192626953125 C 51.25741958618164 370.8542175292969 44.288944244384766 362.47161865234375 41.46284866333008 352.6028747558594 C 43.71751403808594 343.0906982421875 51.25687026977539 336.15814208984375 60.257022857666016 333.9317932128906 C 70.15186309814453 336.5547790527344 77.4467544555664 343.8475341796875 80.09400177001953 353.8349609375" stroke-width="0.0" fill="rgb(202, 73, 25)" opacity="0.9900116"/>
    <path d="M 489.5205993652344 253.3430633544922 C 486.66937255859375 263.28955078125 479.24609375 270.5282287597656 468.6041564941406 273.7192687988281 C 458.5428466796875 270.8648681640625 451.2602844238281 263.4139099121094 448.7117614746094 253.363037109375 C 451.5758056640625 242.64088439941406 458.46337890625 234.99513244628906 468.4100341796875 233.5635528564453 C 479.0258483886719 235.5875701904297 486.11700439453125 243.07191467285156 489.5205993652344 253.3430633544922" stroke-width="0.0" fill="rgb(251, 248, 232)" opacity="1.0"/>
    <path d="M 181.94610595703125 15.961012840270996 C 179.1856689453125 26.787874221801758 171.69464111328125 33.91617202758789 161.25242614746094 36.16676330566406 C 150.9998779296875 33.318729400634766 143.67811584472656 26.000993728637695 140.1059112548828 15.173884391784668 C 142.78195190429688 5.137450695037842 150.16531372070312 -2.1399519443511963 160.86715698242188 -4.742082118988037 C 171.82455444335938 -2.126832962036133 179.2092742919922 5.146732807159424 181.94610595703125 15.961012840270996" stroke-width="0.0" fill="rgb(103, 41, 62)" opacity="1.0"/>
    <path d="M 42.063846588134766 197.2625732421875 C 39.47751998901367 207.25135803222656 32.48141860961914 215.8686065673828 23.35015106201172 218.91110229492188 C 12.547060012817383 215.8782196044922 4.929574966430664 208.5720977783203 2.0824451446533203 197.58218383789062 C 4.8118896484375 187.15370178222656 12.146954536437988 179.79568481445312 23.39946937561035 177.0481414794922 C 33.85173797607422 179.7817840576172 40.955352783203125 187.21237182617188 42.063846588134766 197.2625732421875" stroke-width="0.0" fill="rgb(15, 150, 28)" opacity="0.9900213"/>
    <path d="M 489.0005187988281 549.0014038085938 C 486.3380126953125 559.0478515625 479.178955078125 566.7039184570312 468.25921630859375 569.9094848632812 C 458.14715576171875 567.19384765625 450.79156494140625 559.8590087890625 448.0588073730469 549.6282348632812 C 450.9283142089844 538.5517578125 459.37353515625 532.3289794921875 469.55889892578125 529.7096557617188 C 479.0 531.6795043945312 486.32049560546875 539.0 489.0005187988281 549.0014038085938" stroke-width="0.0" fill="rgb(106, 48, 62)" opacity="1.0"/>
    <path d="M 581.9457397460938 574.6306762695312 C 579.222412109375 584.8779907226562 571.8753051757812 592.2162475585938 561.1835327148438 594.9469604492188 C 550.13134765625 592.2085571289062 542.784423828125 584.8717651367188 540.0557250976562 574.3836669921875 C 542.8441162109375 563.2642211914062 550.384521484375 556.1819458007812 560.9832763671875 553.7847290039062 C 571.5961303710938 556.2022094726562 579.1436157226562 563.2808837890625 581.9457397460938 574.6306762695312" stroke-width="0.0" fill="rgb(106, 43, 63)" opacity="1.0"/>
    <path d="M 196.00070190429688 531.998046875 C 193.3205108642578 542.0 185.99998474121094 549.3204345703125 175.54583740234375 552.6127319335938 C 165.45233154296875 549.918212890625 158.09825134277344 542.5425415039062 155.31707763671875 531.94970703125 C 158.10540771484375 521.4268798828125 165.3675079345703 513.952880859375 175.4385528564453 511.160888671875 C 186.19973754882812 514.2736206054688 193.34349060058594 521.9386596679688 196.00070190429688 531.998046875" stroke-width="0.0" fill="rgb(251, 233, 166)" opacity="1.0"/>
    <path d="M 58.05715560913086 428.5814514160156 C 55.62489318847656 438.23956298828125 49.73268508911133 446.17877197265625 39.34584045410156 448.941650390625 C 28.166189193725586 446.1878662109375 20.8343505859375 438.82476806640625 18.072303771972656 427.3222351074219 C 20.789274215698242 417.1501770019531 28.187381744384766 409.8978576660156 38.24591827392578 408.6626281738281 C 48.184898376464844 411.50640869140625 55.452911376953125 418.8310241699219 58.05715560913086 428.5814514160156" stroke-width="0.0" fill="rgb(17, 125, 25)" opacity="0.9900093"/>
    <path d="M 506.9375305175781 524.345458984375 C 504.1568908691406 535.78076171875 496.7364807128906 543.031494140625 486.43780517578125 545.4324340820312 C 476.130126953125 542.2634887695312 469.2390441894531 534.6715087890625 466.946044921875 525.7854614257812 C 469.57928466796875 515.87646484375 476.87652587890625 508.5795593261719 486.8657531738281 505.9435119628906 C 496.86083984375 506.8326416015625 504.224609375 514.1204833984375 506.9375305175781 524.345458984375" stroke-width="0.0" fill="rgb(13, 47, 14)" opacity="0.99000776"/>
    <path d="M 341.9645690917969 209.84817504882812 C 339.3857421875 220.13552856445312 332.1575012207031 227.47007751464844 321.8306579589844 230.3473663330078 C 311.8348693847656 227.5352783203125 304.5140380859375 220.14842224121094 301.8075256347656 210.08306884765625 C 304.7119445800781 200.01596069335938 312.0152893066406 192.705810546875 322.0914611816406 189.44277954101562 C 332.2266540527344 192.39479064941406 339.5588073730469 199.78900146484375 341.9645690917969 209.84817504882812" stroke-width="0.0" fill="rgb(250, 249, 226)" opacity="0.99125993"/>
    <path d="M 125.95184326171875 52.33774948120117 C 123.23316955566406 62.897708892822266 115.90143585205078 70.24197387695312 105.6368179321289 72.9552993774414 C 94.12090301513672 70.21916198730469 86.77680969238281 62.88079071044922 84.05674743652344 52.549095153808594 C 86.79741668701172 41.1336784362793 94.1248550415039 33.77643966674805 104.40325927734375 31.053667068481445 C 115.87196350097656 33.79116439819336 123.21977996826172 41.12361526489258 125.95184326171875 52.33774948120117" stroke-width="0.0" fill="rgb(105, 42, 64)" opacity="1.0"/>
    <path d="M 327.99951171875 27.001264572143555 C 325.32049560546875 37.0 318.0 44.32050704956055 308.0 47.0 C 298.0 44.32050704956055 290.67950439453125 37.0 287.96905517578125 26.953332901000977 C 290.49224853515625 16.724130630493164 297.58807373046875 9.107008934020996 307.3724060058594 7.170599937438965 C 317.9237060546875 9.852336883544922 325.3096008300781 17.026168823242188 327.99951171875 27.001264572143555" stroke-width="0.0" fill="rgb(252, 235, 169)" opacity="1.0"/>
    <path d="M 216.95111083984375 588.3046264648438 C 214.1700897216797 599.7660522460938 206.66709899902344 606.8838500976562 196.00460815429688 609.2825317382812 C 185.3257293701172 606.88623046875 177.81838989257812 599.7774047851562 175.0555419921875 589.2136840820312 C 177.7942657470703 578.1334228515625 185.13267517089844 570.7927856445312 195.91659545898438 568.0830688476562 C 206.88121032714844 570.7893676757812 214.23638916015625 578.1083984375 216.95111083984375 588.3046264648438" stroke-width="0.0" fill="rgb(105, 45, 62)" opacity="1.0"/>
    <path d="M 392.8471374511719 546.3796997070312 C 389.8487243652344 557.4801635742188 382.4756774902344 564.832275390625 372.3079528808594 567.4501342773438 C 362.00567626953125 564.3052368164062 354.6800231933594 556.9984741210938 351.6360168457031 546.6314697265625 C 354.0276184082031 536.3189697265625 361.2760009765625 528.8998413085938 372.44842529296875 526.154296875 C 382.78778076171875 528.8626708984375 390.1444091796875 536.2092895507812 392.8471374511719 546.3796997070312" stroke-width="0.0" fill="rgb(244, 214, 155)" opacity="1.0"/>
    <path d="M 247.13540649414062 111.86978912353516 C 244.3205108642578 122.0 237.0 129.3205108642578 227.0199432373047 131.97947692871094 C 217.04644775390625 129.2670135498047 209.90719604492188 121.89948272705078 207.42811584472656 111.29295349121094 C 208.976806640625 101.4384536743164 216.58450317382812 94.39292907714844 227.17567443847656 91.6114501953125 C 237.32981872558594 94.2879638671875 244.62411499023438 101.69756317138672 247.13540649414062 111.86978912353516" stroke-width="0.0" fill="rgb(252, 248, 230)" opacity="1.0"/>
    <path d="M 540.0003051757812 185.00067138671875 C 537.3287963867188 195.02247619628906 530.0737915039062 202.49411010742188 520.2301025390625 204.35191345214844 C 509.9284973144531 202.43692016601562 502.6509094238281 195.04417419433594 499.6374816894531 184.571533203125 C 501.9974365234375 174.36705017089844 509.3975830078125 167.0907440185547 519.700927734375 164.6773223876953 C 530.0068969726562 167.66055297851562 537.3211059570312 174.998291015625 540.0003051757812 185.00067138671875" stroke-width="0.0" fill="rgb(251, 232, 164)" opacity="1.0"/>
    <path d="M 513.563232421875 203.9816131591797 C 510.7084655761719 214.3105010986328 503.3033447265625 221.6913604736328 492.82025146484375 224.73983764648438 C 482.6136779785156 221.8118133544922 475.4106750488281 214.31283569335938 472.8952331542969 204.1010284423828 C 475.67425537109375 193.98036193847656 482.9053649902344 186.4427490234375 492.4926452636719 184.0447998046875 C 502.8788146972656 187.02906799316406 510.5832824707031 193.89340209960938 513.563232421875 203.9816131591797" stroke-width="0.0" fill="rgb(252, 249, 234)" opacity="1.0"/>
    <path d="M 304.2301940917969 23.774946212768555 C 301.3239440917969 34.004737854003906 294.00390625 41.3196907043457 283.34832763671875 44.64509963989258 C 273.4043884277344 42.039527893066406 266.2109375 34.497379302978516 263.4298095703125 23.943178176879883 C 266.0980224609375 13.406131744384766 273.3390808105469 5.922410488128662 283.3081359863281 3.135185956954956 C 294.4990539550781 6.121086120605469 301.7863464355469 13.52994155883789 304.2301940917969 23.774946212768555" stroke-width="0.0" fill="rgb(251, 236, 169)" opacity="1.0"/>
    <path d="M 392.0583190917969 235.49786376953125 C 389.72674560546875 245.6592254638672 382.8900451660156 253.27700805664062 372.4354553222656 256.5972595214844 C 362.29327392578125 254.08648681640625 356.3335876464844 246.47727966308594 353.96392822265625 236.79554748535156 C 356.60882568359375 226.91165161132812 363.90667724609375 219.59654235839844 373.9203186035156 215.14273071289062 C 383.88385009765625 217.7609405517578 391.04693603515625 225.16322326660156 392.0583190917969 235.49786376953125" stroke-width="0.0" fill="rgb(24, 29, 31)" opacity="0.9900088"/>
    <path d="M 467.93621826171875 401.1424560546875 C 463.59295654296875 411.22723388671875 456.1851501464844 418.4595031738281 447.1692199707031 421.0520324707031 C 437.8407287597656 418.448974609375 430.5509948730469 411.15936279296875 427.94915771484375 401.5491638183594 C 430.4999694824219 392.63787841796875 436.59161376953125 383.88427734375 447.62933349609375 381.0464172363281 C 457.88958740234375 383.7734375 465.23779296875 391.1054382324219 467.93621826171875 401.1424560546875" stroke-width="0.0" fill="rgb(172, 42, 36)" opacity="0.990007"/>
    <path d="M 83.94042205810547 391.8405456542969 C 81.2064437866211 402.864501953125 73.86410522460938 410.2052307128906 63.837703704833984 412.59130859375 C 53.596256256103516 408.630859375 46.15448760986328 401.4770812988281 43.54124069213867 392.3122863769531 C 46.304847717285156 382.53753662109375 53.365028381347656 374.4302673339844 63.79909896850586 371.0881652832031 C 73.8700180053711 373.7860107421875 81.20970916748047 381.1317443847656 83.94042205810547 391.8405456542969" stroke-width="0.0" fill="rgb(206, 72, 25)" opacity="0.9900186"/>
    <path d="M 615.008544921875 292.9948425292969 C 612.3817749023438 303.13763427734375 605.3368530273438 310.88665771484375 594.2258911132812 313.9359436035156 C 584.13427734375 311.2114562988281 576.7897338867188 303.8653869628906 574.0611572265625 293.5088806152344 C 576.8203735351562 282.1677551269531 584.1597900390625 274.80230712890625 594.3495483398438 272.0543518066406 C 605.4701538085938 274.98443603515625 612.4215698242188 282.782470703125 615.008544921875 292.9948425292969" stroke-width="0.0" fill="rgb(88, 39, 41)" opacity="0.9901564"/>
    <path d="M 401.8059387207031 435.0068054199219 C 399.5570068359375 445.2218017578125 392.2003479003906 452.4886169433594 381.8592224121094 455.2536926269531 C 371.68914794921875 452.66802978515625 364.45159912109375 445.27655029296875 362.0923767089844 435.03192138671875 C 364.6791076660156 424.9989318847656 371.9990234375 417.679931640625 382.3487548828125 414.8929138183594 C 392.3955078125 417.15478515625 399.5298767089844 424.7071838378906 401.8059387207031 435.0068054199219" stroke-width="0.0" fill="rgb(255, 251, 235)" opacity="0.9912771"/>
    <path d="M 529.553955078125 41.457096099853516 C 526.3204956054688 52.0 519.0 59.32050704956055 509.0 62.0 C 499.0 59.32050704956055 491.67950439453125 52.0 489.0 42.0 C 491.67950439453125 32.0 499.0 24.67949104309082 509.648681640625 21.29957389831543 C 519.8014526367188 23.85638427734375 527.10107421875 31.21226692199707 529.553955078125 41.457096099853516" stroke-width="0.0" fill="rgb(105, 43, 63)" opacity="1.0"/>
    <path d="M 445.62890625 336.4248046875 C 442.9647216796875 346.6299133300781 435.6411437988281 353.9979248046875 424.5245666503906 356.782958984375 C 414.4626159667969 353.997802734375 407.3246765136719 346.419677734375 404.98046875 336.1070251464844 C 407.53912353515625 325.83953857421875 414.8368225097656 318.5217590332031 424.9353332519531 315.52996826171875 C 434.85107421875 318.8398132324219 442.2189025878906 326.1321105957031 445.62890625 336.4248046875" stroke-width="0.0" fill="rgb(244, 217, 192)" opacity="1.0"/>
    <path d="M 91.94713592529297 516.4044799804688 C 89.21282958984375 527.8707885742188 81.87049865722656 535.212158203125 70.97401428222656 537.9404907226562 C 60.13521194458008 535.2093505859375 52.80065155029297 527.8607177734375 50.055965423583984 516.405029296875 C 52.77751541137695 506.1200256347656 60.12320327758789 498.78533935546875 71.60857391357422 496.052490234375 C 81.90351104736328 498.7611083984375 89.23924255371094 506.09637451171875 91.94713592529297 516.4044799804688" stroke-width="0.0" fill="rgb(103, 42, 62)" opacity="1.0"/>
    <path d="M 104.9002685546875 2.805370807647705 C 102.20896911621094 12.867486953735352 94.87198638916016 20.21929931640625 84.39652252197266 22.950780868530273 C 73.13015747070312 20.213781356811523 65.79263305664062 12.867142677307129 63.09534454345703 2.7910633087158203 C 66.5177230834961 -8.058218955993652 73.99036407470703 -15.323655128479004 83.99989318847656 -18.00008201599121 C 94.0039291381836 -15.321784973144531 101.39671325683594 -8.025529861450195 104.9002685546875 2.805370807647705" stroke-width="0.0" fill="rgb(105, 42, 62)" opacity="1.0"/>
    <path d="M 560.9484252929688 21.549768447875977 C 558.2078857421875 32.863040924072266 550.8641967773438 40.210548400878906 540.7256469726562 42.93196487426758 C 529.3143920898438 40.033203125 521.84814453125 32.74345397949219 519.0536499023438 21.465742111206055 C 521.77734375 11.118400573730469 529.11865234375 3.7778306007385254 539.574951171875 1.0492665767669678 C 550.8777465820312 3.78294038772583 558.2225341796875 11.1200532913208 560.9484252929688 21.549768447875977" stroke-width="0.0" fill="rgb(107, 42, 62)" opacity="1.0"/>
    <path d="M 612.0337524414062 441.0611572265625 C 609.5940551757812 451.4216613769531 602.606689453125 459.08270263671875 592.735107421875 461.8674621582031 C 582.0 458.32049560546875 574.6795043945312 451.0 571.2617797851562 440.32098388671875 C 573.8449096679688 430.1965026855469 581.2225952148438 422.9267883300781 591.5204467773438 420.5401306152344 C 602.0 423.67950439453125 609.3204956054688 431.0 612.0337524414062 441.0611572265625" stroke-width="0.0" fill="rgb(107, 44, 64)" opacity="1.0"/>
    <path d="M 459.9004821777344 104.75855255126953 C 457.18560791015625 114.82848358154297 449.7913513183594 122.05603790283203 439.77398681640625 123.07638549804688 C 429.8277893066406 120.46031951904297 422.53485107421875 113.17430114746094 419.89703369140625 103.17538452148438 C 420.8416748046875 93.15851593017578 428.1393737792969 85.7878646850586 438.14385986328125 83.11792755126953 C 448.3659973144531 87.36487579345703 455.8802185058594 94.5721435546875 459.9004821777344 104.75855255126953" stroke-width="0.0" fill="rgb(199, 69, 26)" opacity="0.99001396"/>
    <path d="M 394.20086669921875 489.45831298828125 C 391.757568359375 499.46441650390625 384.47747802734375 506.80230712890625 374.6455993652344 510.0468444824219 C 364.6446838378906 507.6790771484375 357.3241882324219 500.3557434082031 355.4745788574219 489.742431640625 C 357.1094970703125 479.4983215332031 364.5313720703125 472.207763671875 374.7445068359375 469.68646240234375 C 385.0404052734375 472.663330078125 392.54052734375 479.8946838378906 394.20086669921875 489.45831298828125" stroke-width="0.0" fill="rgb(249, 246, 227)" opacity="1.0"/>
    <path d="M 499.8758544921875 544.406494140625 C 496.6391906738281 555.1429443359375 489.0390625 562.3348999023438 479.001220703125 565.0004272460938 C 469.00006103515625 562.3204956054688 461.6806945800781 554.9996337890625 459.0585632324219 545.0298461914062 C 461.7596740722656 535.097900390625 469.1515808105469 527.928955078125 479.1680603027344 525.6013793945312 C 489.38177490234375 527.4507446289062 497.0220947265625 534.453857421875 499.8758544921875 544.406494140625" stroke-width="0.0" fill="rgb(107, 46, 63)" opacity="0.99036115"/>
    <path d="M 441.48065185546875 253.73358154296875 C 438.56304931640625 264.1779479980469 430.94134521484375 270.9205322265625 421.75250244140625 273.065185546875 C 411.8485412597656 270.4380798339844 404.5053405761719 263.1723327636719 401.7209167480469 253.34970092773438 C 403.67950439453125 244.0 411.0 236.6794891357422 421.0400695800781 233.97642517089844 C 431.26165771484375 236.50706481933594 438.81231689453125 243.6333465576172 441.48065185546875 253.73358154296875" stroke-width="0.0" fill="rgb(251, 247, 232)" opacity="0.9900569"/>
    <path d="M 173.83163452148438 73.61992645263672 C 171.1036834716797 83.71954345703125 163.68032836914062 90.9990005493164 153.29183959960938 93.56026458740234 C 142.49009704589844 90.9059829711914 135.2282257080078 83.46578216552734 132.38658142089844 72.34573364257812 C 134.91586303710938 62.279052734375 142.2692108154297 54.89533615112305 152.58184814453125 52.18791961669922 C 163.61196899414062 54.98644256591797 170.8857421875 62.4337043762207 173.83163452148438 73.61992645263672" stroke-width="0.0" fill="rgb(251, 234, 166)" opacity="1.0"/>
    <path d="M 489.6915588378906 193.2393798828125 C 487.3074951171875 202.97018432617188 479.9196472167969 210.14456176757812 469.5517578125 213.32855224609375 C 459.6650390625 210.79379272460938 452.638671875 203.20034790039062 449.4707336425781 192.8692626953125 C 452.36981201171875 182.65065002441406 459.6053161621094 175.22479248046875 469.5285339355469 172.70489501953125 C 479.5033264160156 176.252197265625 486.877685546875 183.45077514648438 489.6915588378906 193.2393798828125" stroke-width="0.0" fill="rgb(251, 248, 231)" opacity="1.0"/>
    <path d="M 29.94862174987793 149.22891235351562 C 27.220531463623047 159.8758544921875 19.873462677001953 167.2152099609375 9.682596206665039 169.93844604492188 C -1.6639671325683594 167.10911560058594 -8.699653625488281 159.51712036132812 -11.157942771911621 148.93096923828125 C -8.81477165222168 138.370849609375 -1.7535042762756348 130.82977294921875 9.352882385253906 128.0562286376953 C 19.867780685424805 130.7892608642578 27.214345932006836 138.13063049316406 29.94862174987793 149.22891235351562" stroke-width="0.0" fill="rgb(105, 41, 63)" opacity="1.0"/>
    <path d="M 570.9136352539062 534.1760864257812 C 567.4305419921875 545.0380249023438 560.0061645507812 552.3224487304688 549.4055786132812 555.6026000976562 C 539.1651611328125 553.1399536132812 531.77783203125 545.8646240234375 529.0414428710938 535.4822998046875 C 531.7913818359375 524.1593017578125 539.2049560546875 516.9223022460938 550.3493041992188 514.3020629882812 C 560.8246459960938 516.8677368164062 568.2119140625 524.146484375 570.9136352539062 534.1760864257812" stroke-width="0.0" fill="rgb(105, 43, 63)" opacity="1.0"/>
    <path d="M 436.30914306640625 243.42938232421875 C 434.17572021484375 253.94757080078125 426.9803771972656 261.2844543457031 417.0390625 263.78668212890625 C 407.08306884765625 261.2076416015625 399.71539306640625 253.9388885498047 396.6075744628906 244.12525939941406 C 399.89227294921875 234.1512451171875 407.1139221191406 226.76739501953125 417.0832824707031 223.8539581298828 C 427.31005859375 226.38375854492188 434.6594543457031 233.6768035888672 436.30914306640625 243.42938232421875" stroke-width="0.0" fill="rgb(251, 249, 234)" opacity="0.9937978"/>
    <path d="M 52.891510009765625 395.132080078125 C 50.093563079833984 405.7290954589844 42.715797424316406 413.0527038574219 31.826597213745117 414.2325744628906 C 21.26506996154785 413.08135986328125 13.940162658691406 405.72625732421875 12.566132545471191 395.1978759765625 C 13.894603729248047 384.236328125 21.252342224121094 376.9434509277344 31.917835235595703 374.2554626464844 C 42.59149932861328 377.06549072265625 50.046146392822266 384.36309814453125 52.891510009765625 395.132080078125" stroke-width="0.0" fill="rgb(247, 233, 156)" opacity="1.0"/>
    <path d="M 96.82556915283203 446.81817626953125 C 93.93024444580078 457.53570556640625 86.52854919433594 464.9085388183594 75.82878112792969 467.7541198730469 C 65.31507110595703 465.0028991699219 57.895538330078125 457.72283935546875 55.178680419921875 447.6316833496094 C 58.20634460449219 436.56195068359375 65.56682586669922 429.2230529785156 76.6550521850586 426.2187805175781 C 86.66051483154297 428.95111083984375 94.01829528808594 436.3516540527344 96.82556915283203 446.81817626953125" stroke-width="0.0" fill="rgb(252, 231, 166)" opacity="1.0"/>
    <path d="M 109.06495666503906 225.19427490234375 C 106.61079406738281 235.19168090820312 100.7127914428711 243.16030883789062 89.49221801757812 245.9351806640625 C 79.13069152832031 243.21104431152344 71.78555297851562 235.8708038330078 69.10403442382812 225.82212829589844 C 72.67948913574219 215.0 80.0 207.6794891357422 90.37679290771484 204.45591735839844 C 99.6353530883789 207.3115234375 106.52947235107422 215.64942932128906 109.06495666503906 225.19427490234375" stroke-width="0.0" fill="rgb(199, 71, 25)" opacity="0.99001807"/>
    <path d="M 574.87060546875 181.33815002441406 C 572.0396118164062 192.69180297851562 564.6837768554688 200.01507568359375 554.4581298828125 202.50323486328125 C 544.0 199.3205108642578 536.6795043945312 192.0 534.0 182.0 C 536.6795043945312 172.0 544.0 164.6794891357422 554.6162109375 161.2628936767578 C 564.7515258789062 163.91268920898438 572.1535034179688 171.22152709960938 574.87060546875 181.33815002441406" stroke-width="0.0" fill="rgb(243, 243, 169)" opacity="1.0"/>
    <path d="M 450.13812255859375 515.31005859375 C 447.5752258300781 525.3031616210938 440.30511474609375 532.58056640625 430.69476318359375 535.1085815429688 C 420.39678955078125 533.1761474609375 412.8330993652344 526.7603759765625 410.0649719238281 515.8331298828125 C 412.8088073730469 505.1604309082031 420.1630859375 497.81463623046875 431.4845886230469 495.0562744140625 C 441.8457336425781 497.7951354980469 449.1022644042969 505.18804931640625 450.13812255859375 515.31005859375" stroke-width="0.0" fill="rgb(203, 71, 25)" opacity="0.99001414"/>
    <path d="M 581.9434814453125 552.3561401367188 C 579.1488647460938 563.7355346679688 571.6284790039062 570.8408813476562 560.9728393554688 573.2584838867188 C 550.341552734375 570.8705444335938 542.8298950195312 563.7628173828125 540.10302734375 553.782470703125 C 543.5758056640625 542.9644165039062 550.9944458007812 535.677978515625 561.6295776367188 532.3554077148438 C 571.8477172851562 534.8426513671875 579.2220458984375 542.1292724609375 581.9434814453125 552.3561401367188" stroke-width="0.0" fill="rgb(107, 43, 65)" opacity="1.0"/>
    <path d="M 528.0675659179688 55.10591506958008 C 525.6935424804688 65.50919342041016 518.6644287109375 73.11492156982422 508.0224609375 75.93695068359375 C 497.41009521484375 73.08356475830078 490.4544982910156 65.37604522705078 487.9773864746094 55.043609619140625 C 490.67950439453125 45.0 498.0 37.67949295043945 508.0 35.0 C 518.0 37.67949295043945 525.3204956054688 45.0 528.0675659179688 55.10591506958008" stroke-width="0.0" fill="rgb(106, 42, 64)" opacity="1.0"/>
    <path d="M 216.69053649902344 550.9471435546875 C 213.83970642089844 561.4923706054688 206.4707794189453 568.7542114257812 196.12362670898438 570.1298828125 C 185.4278564453125 568.7373046875 177.9767303466797 561.64453125 175.42010498046875 551.505126953125 C 178.6794891357422 541.0 186.0 533.6795043945312 195.90011596679688 531.334716796875 C 206.34494018554688 533.4773559570312 213.80746459960938 540.5794677734375 216.69053649902344 550.9471435546875" stroke-width="0.0" fill="rgb(252, 233, 169)" opacity="1.0"/>
    <path d="M 323.0000305175781 51.999942779541016 C 320.32049560546875 62.0 313.0 69.32051086425781 302.9984130859375 71.9046859741211 C 292.7817687988281 69.47193145751953 285.3873291015625 62.257896423339844 282.573486328125 52.262001037597656 C 286.08953857421875 42.443092346191406 293.4570617675781 35.14570236206055 303.2502746582031 32.34563064575195 C 313.00177001953125 34.67686462402344 320.3209533691406 41.998924255371094 323.0000305175781 51.999942779541016" stroke-width="0.0" fill="rgb(251, 247, 217)" opacity="0.9979334"/>
    <path d="M 546.6202392578125 424.4378662109375 C 543.88427734375 434.5284729003906 536.5402221679688 441.9145812988281 525.7597045898438 444.748779296875 C 515.3990478515625 441.9564514160156 507.9682922363281 434.6312255859375 505.2811584472656 424.43621826171875 C 507.9290771484375 413.2761535644531 515.2908935546875 405.9734191894531 525.5400390625 403.50408935546875 C 536.0 406.67950439453125 543.3207397460938 413.99993896484375 546.6202392578125 424.4378662109375" stroke-width="0.0" fill="rgb(251, 233, 166)" opacity="1.0"/>
    <path d="M 221.3250732421875 486.6788024902344 C 219.17938232421875 496.9869079589844 212.05419921875 504.3961181640625 202.02980041503906 507.0274963378906 C 192.00865173339844 504.3158264160156 184.6721649169922 496.99395751953125 181.91221618652344 487.1063537597656 C 184.66946411132812 477.03741455078125 192.10255432128906 469.87384033203125 202.1189727783203 467.1952209472656 C 211.9547882080078 469.70556640625 219.22776794433594 477.06591796875 221.3250732421875 486.6788024902344" stroke-width="0.0" fill="rgb(252, 248, 235)" opacity="1.0"/>
    <path d="M 402.2945251464844 254.8420867919922 C 399.6512145996094 265.42138671875 392.5357971191406 272.983154296875 382.644775390625 274.8433837890625 C 371.6260070800781 272.7098388671875 364.4576416015625 265.3327941894531 362.9410095214844 255.8221893310547 C 365.6017150878906 245.90904235839844 372.9114074707031 238.60765075683594 382.8831481933594 235.95533752441406 C 392.6463317871094 236.99252319335938 399.8515625 244.40127563476562 402.2945251464844 254.8420867919922" stroke-width="0.0" fill="rgb(252, 250, 230)" opacity="0.99001306"/>
    <path d="M 311.62969970703125 166.0865020751953 C 308.62652587890625 176.1837921142578 301.06146240234375 183.2294158935547 291.1278991699219 186.2969512939453 C 281.03955078125 183.1736297607422 273.4822082519531 176.0732879638672 270.4322814941406 166.28822326660156 C 273.8067321777344 156.0733184814453 281.0410461425781 148.70120239257812 291.0041198730469 146.00186157226562 C 301.0097961425781 148.67587280273438 308.4334411621094 155.95770263671875 311.62969970703125 166.0865020751953" stroke-width="0.0" fill="rgb(254, 252, 234)" opacity="0.9903527"/>
    <path d="M 92.94123840332031 101.72969055175781 C 90.21269989013672 112.86402893066406 82.85357666015625 120.1871566772461 71.62081909179688 122.92820739746094 C 61.13090133666992 120.21040344238281 53.79188919067383 112.86811828613281 51.064598083496094 102.2043228149414 C 53.79957580566406 91.14151763916016 61.13736343383789 83.78996276855469 72.5291519165039 81.04747009277344 C 82.88994598388672 83.77175903320312 90.2315673828125 91.10833740234375 92.94123840332031 101.72969055175781" stroke-width="0.0" fill="rgb(103, 43, 64)" opacity="1.0"/>
    <path d="M 505.139892578125 145.427490234375 C 502.86517333984375 154.7209930419922 495.8531188964844 162.24166870117188 486.0086669921875 164.9812469482422 C 476.21337890625 162.2005157470703 469.2452087402344 154.6229705810547 466.8543701171875 144.69430541992188 C 469.0646057128906 135.19631958007812 476.07037353515625 127.70645904541016 485.4801330566406 125.60932159423828 C 495.3095397949219 128.39669799804688 502.58929443359375 135.6952667236328 505.139892578125 145.427490234375" stroke-width="0.0" fill="rgb(196, 70, 26)" opacity="0.9900229"/>
    <path d="M 605.69873046875 514.7896728515625 C 603.0943603515625 525.7999267578125 595.8399047851562 533.2060546875 584.9426879882812 535.9510498046875 C 574.1248779296875 533.2179565429688 566.7911987304688 525.8714599609375 564.0684814453125 514.9155883789062 C 566.7938842773438 504.1352233886719 574.1351318359375 496.7934875488281 585.215576171875 494.0560607910156 C 595.852294921875 496.79302978515625 603.1278686523438 504.17486572265625 605.69873046875 514.7896728515625" stroke-width="0.0" fill="rgb(105, 44, 64)" opacity="1.0"/>
    <path d="M 408.6626281738281 466.24383544921875 C 405.6661071777344 476.29071044921875 398.2575378417969 483.5566101074219 388.1958923339844 485.6168518066406 C 378.0658874511719 483.169677734375 370.6186218261719 475.99847412109375 367.4801330566406 465.8711242675781 C 370.4058532714844 455.7752380371094 377.8059387207031 448.5069885253906 387.8951110839844 445.9164123535156 C 397.70965576171875 448.9231262207031 405.1138916015625 456.28277587890625 408.6626281738281 466.24383544921875" stroke-width="0.0" fill="rgb(251, 249, 241)" opacity="0.99118584"/>
    <path d="M 373.96337890625 555.2285766601562 C 371.5545959472656 565.2360229492188 364.25677490234375 572.6220092773438 353.77252197265625 575.6537475585938 C 343.5404968261719 572.8331909179688 336.1711730957031 565.4581298828125 333.2049560546875 554.517333984375 C 335.931640625 544.2951049804688 343.2980041503906 536.9370727539062 353.42877197265625 534.2213745117188 C 363.6875915527344 537.9149169921875 370.97686767578125 545.33837890625 373.96337890625 555.2285766601562" stroke-width="0.0" fill="rgb(252, 234, 170)" opacity="1.0"/>
    <path d="M 561.5469970703125 199.4156494140625 C 558.899658203125 209.51544189453125 551.50048828125 216.85934448242188 541.28564453125 219.62606811523438 C 530.6829223632812 216.63912963867188 523.2374267578125 209.3592529296875 520.6482543945312 199.2871551513672 C 523.6932983398438 189.005615234375 531.001953125 181.6803436279297 541.0003662109375 178.9998016357422 C 551.0003662109375 181.67884826660156 558.318115234375 189.00050354003906 561.5469970703125 199.4156494140625" stroke-width="0.0" fill="rgb(251, 234, 165)" opacity="1.0"/>
    <path d="M 559.2664794921875 335.44500732421875 C 556.6324462890625 345.50946044921875 550.1978149414062 353.9809875488281 540.6287841796875 356.7867431640625 C 530.0 353.32049560546875 522.6795043945312 346.0 519.417236328125 335.4205322265625 C 521.8732299804688 325.1889953613281 529.1781616210938 317.8387451171875 539.638671875 315.0859069824219 C 550.303466796875 318.0348205566406 557.0482177734375 326.1563720703125 559.2664794921875 335.44500732421875" stroke-width="0.0" fill="rgb(207, 69, 26)" opacity="0.9900228"/>
    <path d="M 94.9401626586914 593.3472290039062 C 92.04377746582031 604.519775390625 84.28083801269531 611.4657592773438 74.0061264038086 614.0172119140625 C 63.78792190551758 611.4271240234375 56.05186462402344 604.41650390625 53.07233810424805 593.2779541015625 C 55.79337692260742 583.1373901367188 63.137046813964844 575.7924194335938 74.27149200439453 573.0527954101562 C 84.88179016113281 575.77978515625 92.22126007080078 583.11767578125 94.9401626586914 593.3472290039062" stroke-width="0.0" fill="rgb(106, 42, 63)" opacity="1.0"/>
    <path d="M 499.9264831542969 551.6917724609375 C 497.2080383300781 561.8696899414062 489.8743591308594 569.2190551757812 479.69366455078125 571.9389038085938 C 468.4637451171875 569.044677734375 461.4949951171875 561.3212280273438 458.9399719238281 551.0079956054688 C 461.6272888183594 540.9549560546875 468.95306396484375 533.6209106445312 478.9787902832031 530.90673828125 C 489.0921325683594 533.6380615234375 496.8530578613281 540.7110595703125 499.9264831542969 551.6917724609375" stroke-width="0.0" fill="rgb(105, 43, 60)" opacity="1.0"/>
    <path d="M 376.33538818359375 103.28510284423828 C 373.67987060546875 113.4299545288086 366.4228820800781 120.66458129882812 357.17156982421875 123.14423370361328 C 347.6733093261719 120.60302734375 340.38055419921875 113.33247375488281 337.6174621582031 103.482421875 C 339.599609375 93.84819793701172 346.70703125 86.20308685302734 357.4560546875 83.17294311523438 C 367.7519836425781 85.90081024169922 375.0881652832031 93.25141143798828 376.33538818359375 103.28510284423828" stroke-width="0.0" fill="rgb(202, 138, 109)" opacity="0.99002093"/>
    <path d="M 258.4559020996094 124.42340850830078 C 257.0347595214844 134.58172607421875 249.44168090820312 141.6366729736328 239.220458984375 144.53793334960938 C 228.99937438964844 141.32861328125 221.680419921875 133.99832153320312 219.00051879882812 123.99984741210938 C 221.67958068847656 114.00006103515625 229.0000457763672 106.67953491210938 239.1577911376953 103.85746765136719 C 249.4151153564453 106.29572296142578 256.8475646972656 113.5392074584961 258.4559020996094 124.42340850830078" stroke-width="0.0" fill="rgb(252, 247, 230)" opacity="1.0"/>
    <path d="M 335.6170349121094 397.32763671875 C 332.5934143066406 406.8288879394531 324.5595703125 413.70025634765625 314.505126953125 416.1589660644531 C 304.8475036621094 414.5234069824219 297.4851989746094 407.1519775390625 294.4800109863281 396.8195495605469 C 297.3259582519531 386.76983642578125 304.8905029296875 379.73577880859375 315.2420349121094 377.02703857421875 C 325.2094421386719 379.4404602050781 332.5706481933594 386.7891540527344 335.6170349121094 397.32763671875" stroke-width="0.0" fill="rgb(252, 248, 233)" opacity="1.0"/>
    <path d="M 173.94735717773438 585.1650390625 C 171.212646484375 595.857666015625 163.8295440673828 603.1309814453125 153.01568603515625 605.71923828125 C 142.1676788330078 603.1307983398438 134.78121948242188 595.8628540039062 132.0886993408203 585.811767578125 C 135.18385314941406 574.427734375 142.3064727783203 566.8732299804688 153.65518188476562 564.0584716796875 C 163.87936401367188 566.7785034179688 171.21612548828125 574.1228637695312 173.94735717773438 585.1650390625" stroke-width="0.0" fill="rgb(104, 43, 63)" opacity="1.0"/>
    <path d="M 138.50799560546875 509.79278564453125 C 135.76046752929688 520.5111694335938 128.62315368652344 528.0637817382812 118.48356628417969 530.8621826171875 C 107.33196258544922 528.08056640625 100.39319610595703 520.5469360351562 98.74862670898438 509.3920593261719 C 99.99898529052734 499.40631103515625 107.45954895019531 492.1460266113281 118.2537612915039 489.2970275878906 C 128.50697326660156 492.1008605957031 135.8218536376953 499.51971435546875 138.50799560546875 509.79278564453125" stroke-width="0.0" fill="rgb(249, 232, 167)" opacity="1.0"/>
    <path d="M 492.1501159667969 442.5235595703125 C 490.9259338378906 452.5331115722656 483.4395751953125 459.56011962890625 472.8958740234375 461.1631164550781 C 463.2845458984375 458.9400939941406 455.9808654785156 451.7434387207031 453.41717529296875 441.9713439941406 C 455.7011413574219 431.84844970703125 462.7233581542969 424.27239990234375 472.5220642089844 422.6750183105469 C 483.3621520996094 424.4263000488281 490.549072265625 431.63848876953125 492.1501159667969 442.5235595703125" stroke-width="0.0" fill="rgb(252, 250, 235)" opacity="1.0"/>
    <path d="M 343.9016418457031 41.802528381347656 C 341.1516418457031 51.65850067138672 332.7893981933594 57.595577239990234 322.43084716796875 60.12831497192383 C 313.6973876953125 57.583213806152344 306.038330078125 50.377079010009766 302.1809997558594 41.43328094482422 C 306.3384704589844 31.658905029296875 313.64764404296875 24.304330825805664 323.3423156738281 21.33230972290039 C 333.0 23.67949104309082 340.32049560546875 31.0 343.9016418457031 41.802528381347656" stroke-width="0.0" fill="rgb(203, 68, 27)" opacity="0.990021"/>
    <path d="M 503.7127685546875 66.70126342773438 C 501.1813049316406 76.85704040527344 493.8699951171875 84.21656036376953 483.4387512207031 86.94279479980469 C 472.1399230957031 84.20489501953125 464.8000183105469 76.85812377929688 462.0550231933594 65.32866668701172 C 464.76788330078125 55.1116943359375 472.1203308105469 47.789222717285156 482.20361328125 45.1302375793457 C 492.999755859375 48.6795654296875 500.3091735839844 56.00332260131836 503.7127685546875 66.70126342773438" stroke-width="0.0" fill="rgb(36, 11, 19)" opacity="0.9900148"/>
    <path d="M 595.7247314453125 454.67950439453125 C 593.1712036132812 464.8502502441406 585.8674926757812 472.2174987792969 575.8245849609375 474.8948059082031 C 564.8010864257812 471.41998291015625 557.0726928710938 464.3958435058594 554.0582885742188 453.170166015625 C 556.75927734375 443.1007080078125 564.1036987304688 435.7657775878906 574.1414184570312 433.07781982421875 C 585.0 436.67950439453125 592.3204956054688 444.0 595.7247314453125 454.67950439453125" stroke-width="0.0" fill="rgb(105, 43, 63)" opacity="1.0"/>
    <path d="M 59.82187271118164 340.3548889160156 C 55.85097885131836 350.94671630859375 49.42383575439453 358.96124267578125 39.336273193359375 361.7474060058594 C 28.32172203063965 358.9735107421875 20.89611053466797 351.7238464355469 18.25285530090332 340.7874755859375 C 20.938331604003906 330.3632507324219 28.471006393432617 323.26885986328125 38.91973876953125 320.6693420410156 C 49.321937561035156 323.3741760253906 56.924678802490234 330.5625305175781 59.82187271118164 340.3548889160156" stroke-width="0.0" fill="rgb(250, 233, 163)" opacity="0.9903418"/>
    <path d="M 350.0946960449219 90.30386352539062 C 347.441162109375 100.12551879882812 340.1102294921875 107.40314483642578 331.42327880859375 110.02969360351562 C 321.9163513183594 107.38880920410156 314.6008605957031 100.08758544921875 311.8728332519531 90.16932678222656 C 313.67950439453125 81.0 321.0 73.67948913574219 330.172119140625 71.90190124511719 C 340.16754150390625 74.56733703613281 347.5832214355469 81.77648162841797 350.0946960449219 90.30386352539062" stroke-width="0.0" fill="rgb(22, 22, 19)" opacity="0.99000454"/>
    <path d="M 518.9254760742188 19.307430267333984 C 515.9171752929688 30.36098289489746 508.1445007324219 37.38363265991211 497.5116882324219 40.46988296508789 C 487.20068359375 38.086753845214844 479.7931213378906 30.841209411621094 477.0491027832031 19.658674240112305 C 479.7708740234375 9.111357688903809 487.1122741699219 1.7730276584625244 498.2214050292969 -0.9532575011253357 C 508.8714294433594 1.779930591583252 516.2069091796875 9.134284019470215 518.9254760742188 19.307430267333984" stroke-width="0.0" fill="rgb(105, 43, 63)" opacity="1.0"/>
    <path d="M 86.29560852050781 140.58889770507812 C 83.10298919677734 150.76303100585938 75.71929931640625 157.96517944335938 65.6991958618164 160.4783477783203 C 55.4537467956543 158.78305053710938 47.977020263671875 151.62139892578125 45.1330680847168 140.35354614257812 C 47.83039474487305 130.16595458984375 55.15144348144531 122.79554748535156 65.64599609375 120.06316375732422 C 76.79703521728516 122.81796264648438 83.9895248413086 130.27017211914062 86.29560852050781 140.58889770507812" stroke-width="0.0" fill="rgb(178, 216, 129)" opacity="1.0"/>
    <path d="M 522.0 45.0 C 519.3204956054688 55.0 512.0 62.3205451965332 501.7054443359375 65.45650482177734 C 491.6502380371094 62.730140686035156 484.28955078125 55.34313201904297 481.0998229980469 44.21479415893555 C 483.8289794921875 34.241050720214844 491.3548889160156 27.15333366394043 501.8081359863281 24.86699104309082 C 511.9999694824219 27.679576873779297 519.3204956054688 35.00000762939453 522.0 45.0" stroke-width="0.0" fill="rgb(108, 43, 67)" opacity="1.0"/>
    <path d="M 538.9177856445312 249.91983032226562 C 536.0990600585938 260.5794677734375 528.015625 266.80224609375 517.1827392578125 270.9118957519531 C 507.16827392578125 268.2010192871094 500.1206359863281 260.7610168457031 498.935302734375 250.71792602539062 C 501.5504150390625 240.83505249023438 508.8103332519531 233.4794921875 518.5473022460938 230.81724548339844 C 528.7365112304688 231.9627685546875 536.1357421875 239.23150634765625 538.9177856445312 249.91983032226562" stroke-width="0.0" fill="rgb(184, 62, 16)" opacity="0.9900079"/>
    <path d="M 529.1885375976562 388.5780029296875 C 527.5650634765625 398.4192199707031 520.5838623046875 406.04827880859375 510.4595031738281 408.8779602050781 C 499.77642822265625 405.7643737792969 492.6536865234375 398.06793212890625 489.90716552734375 387.96197509765625 C 492.6365051269531 377.9842529296875 500.0413818359375 370.82244873046875 509.80609130859375 368.5394592285156 C 519.41552734375 371.2501220703125 526.6201171875 378.6296081542969 529.1885375976562 388.5780029296875" stroke-width="0.0" fill="rgb(236, 187, 147)" opacity="1.0"/>
    <path d="M 199.2082977294922 533.6272583007812 C 197.3198699951172 542.9995727539062 189.9995880126953 550.3199462890625 180.0004119873047 552.9971313476562 C 170.00119018554688 550.3189697265625 162.68064880371094 542.9989013671875 160.00360107421875 533.0028076171875 C 162.69503784179688 523.02587890625 170.0531005859375 515.7866821289062 180.14767456054688 513.6652221679688 C 189.60205078125 515.9758911132812 196.63734436035156 523.5380859375 199.2082977294922 533.6272583007812" stroke-width="0.0" fill="rgb(252, 235, 170)" opacity="0.9901934"/>
    <path d="M 592.8353881835938 325.4531555175781 C 590.1278686523438 336.7811584472656 582.7781982421875 344.1208801269531 572.5802001953125 346.7892761230469 C 561.3790283203125 343.9220275878906 553.9340209960938 336.6720275878906 551.1423950195312 326.3861083984375 C 554.03564453125 315.42279052734375 561.4537963867188 308.1247253417969 572.75439453125 305.11053466796875 C 582.8017578125 307.82489013671875 590.1250610351562 315.220947265625 592.8353881835938 325.4531555175781" stroke-width="0.0" fill="rgb(221, 244, 168)" opacity="1.0"/>
    <path d="M 136.9024200439453 161.1163330078125 C 134.6986541748047 171.27452087402344 126.58351135253906 177.55819702148438 116.48107147216797 180.04702758789062 C 107.0842514038086 177.6229705810547 98.9301528930664 171.5890655517578 96.11249542236328 160.70947265625 C 98.87109375 150.24722290039062 106.2880859375 142.98728942871094 116.57080841064453 140.54653930664062 C 127.0 143.6794891357422 134.3205108642578 151.0 136.9024200439453 161.1163330078125" stroke-width="0.0" fill="rgb(26, 32, 36)" opacity="0.99000967"/>
    <path d="M 380.5316467285156 416.7455139160156 C 377.3209228515625 427.0019836425781 370.0126953125 434.35888671875 359.5069274902344 437.6732177734375 C 349.4018859863281 434.9890441894531 342.1004638671875 427.56427001953125 340.5929870605469 417.5793151855469 C 343.23028564453125 407.4613952636719 350.3413391113281 399.7667236328125 359.6171569824219 396.6839904785156 C 369.7879333496094 399.9740295410156 377.3578186035156 407.12652587890625 380.5316467285156 416.7455139160156" stroke-width="0.0" fill="rgb(252, 249, 233)" opacity="1.0"/>
    <path d="M 348.9634094238281 18.049428939819336 C 346.3153076171875 27.984487533569336 338.91314697265625 35.09326934814453 328.7064208984375 37.17515182495117 C 318.3712463378906 35.88981246948242 311.00518798828125 28.655582427978516 308.38653564453125 18.183490753173828 C 311.10418701171875 7.469188690185547 318.5323486328125 0.35158467292785645 328.850830078125 -1.5176141262054443 C 338.71807861328125 1.0351743698120117 346.14703369140625 8.225154876708984 348.9634094238281 18.049428939819336" stroke-width="0.0" fill="rgb(244, 243, 167)" opacity="1.0"/>
    <path d="M 263.92889404296875 536.2423706054688 C 260.2901611328125 546.48974609375 252.3563232421875 553.5889282226562 243.19229125976562 556.0953979492188 C 233.72552490234375 553.5437622070312 226.39581298828125 546.2962036132812 222.11264038085938 536.18310546875 C 224.8231658935547 526.2066650390625 232.29933166503906 519.2527465820312 243.4125213623047 517.8905639648438 C 253.75103759765625 519.0792236328125 261.1973571777344 526.1770629882812 263.92889404296875 536.2423706054688" stroke-width="0.0" fill="rgb(201, 69, 29)" opacity="0.9900124"/>
    <path d="M 43.938873291015625 556.3607788085938 C 41.11977767944336 567.6875610351562 33.559444427490234 574.7578735351562 22.218006134033203 577.8556518554688 C 12.123047828674316 575.2124633789062 4.778971195220947 567.8803100585938 2.0540919303894043 557.1118774414062 C 4.7959418296813965 546.1426391601562 12.140417098999023 538.7911987304688 22.90971565246582 536.0516967773438 C 33.867610931396484 538.7877197265625 41.211307525634766 546.1328735351562 43.938873291015625 556.3607788085938" stroke-width="0.0" fill="rgb(104, 42, 63)" opacity="1.0"/>
    <path d="M 499.1023864746094 113.11625671386719 C 496.6496887207031 123.3680191040039 489.34716796875 130.53488159179688 479.64495849609375 132.10679626464844 C 469.73602294921875 129.5185089111328 462.2498474121094 122.33290100097656 458.2532043457031 112.34284210205078 C 460.9487609863281 102.3913803100586 468.4986267089844 95.23320770263672 478.7976989746094 92.76309204101562 C 489.01373291015625 95.66468048095703 496.3350524902344 102.98634338378906 499.1023864746094 113.11625671386719" stroke-width="0.0" fill="rgb(250, 234, 167)" opacity="0.99004996"/>
    <path d="M 349.05902099609375 470.813232421875 C 346.7990417480469 479.3711853027344 339.2431945800781 486.4637756347656 329.1646423339844 489.0614929199219 C 319.56414794921875 488.0673828125 313.5392150878906 479.34283447265625 310.9569396972656 469.28582763671875 C 313.3570556640625 460.4490051269531 320.20220947265625 452.7728271484375 329.88897705078125 450.0756530761719 C 339.4178771972656 453.1075744628906 346.46966552734375 460.7382507324219 349.05902099609375 470.813232421875" stroke-width="0.0" fill="rgb(24, 30, 35)" opacity="0.99000764"/>
    <path d="M 109.59380340576172 265.76348876953125 C 106.72612762451172 276.3752136230469 99.34781646728516 283.63543701171875 89.1107177734375 286.07318115234375 C 79.0 283.32049560546875 71.67955780029297 275.9999694824219 69.78717803955078 266.5107116699219 C 71.7298812866211 255.81309509277344 78.82477569580078 248.79296875 89.1953353881836 246.814208984375 C 99.38522338867188 248.45884704589844 106.80818939208984 255.55178833007812 109.59380340576172 265.76348876953125" stroke-width="0.0" fill="rgb(252, 249, 233)" opacity="1.0"/>
    <path d="M 280.8330078125 581.5059204101562 C 278.0985412597656 591.7063598632812 270.639404296875 598.8939208984375 259.4054870605469 601.7182006835938 C 249.27130126953125 599.0985107421875 241.95545959472656 591.7080688476562 240.10888671875 581.4170532226562 C 242.16867065429688 570.5427856445312 249.5355224609375 563.1474609375 259.7865905761719 560.3318481445312 C 270.491943359375 563.1756591796875 277.898681640625 570.4834594726562 280.8330078125 581.5059204101562" stroke-width="0.0" fill="rgb(231, 240, 169)" opacity="1.0"/>
    <path d="M 144.90293884277344 566.2353515625 C 141.7976837158203 577.524169921875 134.64483642578125 585.0911254882812 123.27863311767578 587.9407958984375 C 113.12303161621094 585.2206420898438 105.78407287597656 577.8748779296875 103.0489501953125 567.0042114257812 C 105.7944107055664 556.1503295898438 113.15696716308594 548.8088989257812 124.26944732666016 546.057861328125 C 134.85589599609375 548.7974243164062 142.19754028320312 556.1461791992188 144.90293884277344 566.2353515625" stroke-width="0.0" fill="rgb(105, 43, 63)" opacity="1.0"/>
    <path d="M 546.0554809570312 344.8629150390625 C 543.4518432617188 354.15936279296875 536.1590576171875 361.4511413574219 526.2021484375 364.0951232910156 C 516.7069091796875 362.5986328125 509.1825866699219 355.37066650390625 506.2601318359375 344.6622009277344 C 508.9935302734375 334.40716552734375 516.477783203125 327.19476318359375 527.5231323242188 324.5494079589844 C 536.3385009765625 327.99365234375 543.4796142578125 335.7698669433594 546.0554809570312 344.8629150390625" stroke-width="0.0" fill="rgb(252, 245, 225)" opacity="0.990014"/>
    <path d="M 560.666259765625 405.2019348144531 C 557.785888671875 415.35491943359375 550.288330078125 422.58917236328125 540.1171264648438 425.14361572265625 C 530.0035400390625 422.31915283203125 522.787109375 414.96533203125 520.8579711914062 405.4790344238281 C 523.2761840820312 395.42169189453125 530.0076293945312 387.1708679199219 540.29736328125 384.1238098144531 C 550.6094970703125 386.96759033203125 557.8224487304688 394.4672546386719 560.666259765625 405.2019348144531" stroke-width="0.0" fill="rgb(251, 234, 168)" opacity="1.0"/>
    <path d="M 347.0415344238281 457.8049011230469 C 344.6921691894531 466.5879211425781 337.7920837402344 474.201171875 328.09332275390625 476.9061584472656 C 318.5421142578125 473.9232482910156 311.5126953125 466.291748046875 308.9669494628906 457.72161865234375 C 311.5962219238281 447.88800048828125 318.8639221191406 440.5249328613281 328.7409362792969 436.1349182128906 C 337.38629150390625 439.1027526855469 344.4228820800781 447.8195495605469 347.0415344238281 457.8049011230469" stroke-width="0.0" fill="rgb(25, 28, 33)" opacity="0.9900079"/>
    <path d="M 326.57421875 560.9140625 C 323.71435546875 571.3626708984375 316.37738037109375 578.7597045898438 305.9815673828125 581.6708984375 C 295.4852600097656 578.89208984375 288.2022705078125 571.4832153320312 285.3870544433594 560.7056274414062 C 288.0580749511719 550.377685546875 295.3391418457031 542.9523315429688 305.496337890625 540.8142700195312 C 316.42462158203125 543.18798828125 323.7904052734375 550.583251953125 326.57421875 560.9140625" stroke-width="0.0" fill="rgb(252, 234, 170)" opacity="1.0"/>
    <path d="M 174.61184692382812 144.46502685546875 C 171.9808349609375 154.6371612548828 164.62203979492188 161.93048095703125 154.263671875 164.39369201660156 C 143.91342163085938 161.4237518310547 136.60031127929688 154.0802459716797 133.65623474121094 143.75042724609375 C 136.2166290283203 133.56907653808594 143.56680297851562 126.20861053466797 153.80026245117188 123.35923767089844 C 164.11495971679688 126.49213409423828 171.30662536621094 133.94143676757812 174.61184692382812 144.46502685546875" stroke-width="0.0" fill="rgb(249, 247, 236)" opacity="1.0"/>
    <path d="M 364.9238586425781 517.01416015625 C 362.64849853515625 527.461669921875 355.59246826171875 535.0390625 345.6393127441406 537.4376831054688 C 334.4446105957031 534.8629150390625 327.09356689453125 527.5682983398438 324.53399658203125 517.2614135742188 C 327.5834655761719 506.8877868652344 334.8585510253906 499.48602294921875 345.22564697265625 496.57135009765625 C 355.3247375488281 499.21844482421875 362.4284973144531 506.7906799316406 364.9238586425781 517.01416015625" stroke-width="0.0" fill="rgb(252, 247, 227)" opacity="1.0"/>
    <path d="M 139.73117065429688 94.16094970703125 C 136.99754333496094 104.65371704101562 129.6665802001953 112.0328598022461 119.44683837890625 114.71514892578125 C 108.4659652709961 111.84255981445312 101.0031967163086 104.58950805664062 99.28717803955078 94.10448455810547 C 100.95458221435547 83.29670715332031 108.29854583740234 75.9585952758789 118.5149917602539 73.80130767822266 C 129.59791564941406 76.07325744628906 136.94822692871094 83.39633178710938 139.73117065429688 94.16094970703125" stroke-width="0.0" fill="rgb(250, 234, 162)" opacity="1.0"/>
    <path d="M 334.19708251953125 77.78730773925781 C 332.5276794433594 87.11796569824219 325.0880432128906 94.43814849853516 315.82366943359375 96.11019134521484 C 305.7795715332031 93.44290924072266 296.9247131347656 86.65020751953125 295.9073181152344 77.90009307861328 C 298.6011657714844 67.90443420410156 305.90338134765625 60.598934173583984 315.7378234863281 57.954647064208984 C 324.1244201660156 60.568817138671875 331.42864990234375 67.876708984375 334.19708251953125 77.78730773925781" stroke-width="0.0" fill="rgb(25, 28, 31)" opacity="0.9900055"/>
    <path d="M 506.8269348144531 160.59262084960938 C 504.09088134765625 170.7252960205078 496.7205810546875 178.07894897460938 486.44989013671875 180.82293701171875 C 475.4457092285156 177.93157958984375 468.1708679199219 170.52149963378906 465.4570617675781 159.77552795410156 C 468.0939025878906 149.50216674804688 475.6165771484375 142.53895568847656 485.9578552246094 140.6549072265625 C 496.14556884765625 142.8124542236328 503.7423400878906 149.70045471191406 506.8269348144531 160.59262084960938" stroke-width="0.0" fill="rgb(200, 131, 103)" opacity="0.99029183"/>
    <path d="M 54.95033645629883 586.465576171875 C 52.214210510253906 596.84912109375 44.806636810302734 604.0928344726562 34.1954460144043 606.6072387695312 C 23.22960090637207 604.0454711914062 15.797486305236816 596.8262939453125 13.051362037658691 586.5841064453125 C 15.858488082885742 575.2930297851562 23.433305740356445 568.2455444335938 34.78618621826172 565.1429443359375 C 44.872955322265625 567.7866821289062 52.213829040527344 575.1271362304688 54.95033645629883 586.465576171875" stroke-width="0.0" fill="rgb(106, 42, 63)" opacity="1.0"/>
    <path d="M 155.9752655029297 229.99179077148438 C 153.21343994140625 240.07701110839844 146.17230224609375 247.54354858398438 135.84278869628906 250.2031707763672 C 125.68700408935547 247.63168334960938 118.28911590576172 240.33839416503906 115.95924377441406 230.2736053466797 C 118.5321044921875 219.77455139160156 125.7158432006836 212.32667541503906 135.89002990722656 209.38638305664062 C 146.2342987060547 212.39816284179688 153.4459228515625 219.810546875 155.9752655029297 229.99179077148438" stroke-width="0.0" fill="rgb(252, 249, 236)" opacity="0.99058086"/>
    <path d="M 390.7182922363281 142.34588623046875 C 388.718994140625 152.30709838867188 381.2477111816406 159.5355224609375 370.8529052734375 162.39317321777344 C 360.7232666015625 159.64320373535156 353.75 152.18133544921875 351.8215637207031 142.1657257080078 C 353.4172058105469 131.70838928222656 360.72882080078125 124.48707580566406 371.1131286621094 121.62118530273438 C 381.02740478515625 124.56241607666016 388.21588134765625 132.04530334472656 390.7182922363281 142.34588623046875" stroke-width="0.0" fill="rgb(252, 249, 232)" opacity="1.0"/>
    <path d="M 94.05769348144531 283.71197509765625 C 91.44584655761719 293.15472412109375 84.16012573242188 300.45880126953125 74.42221069335938 303.0656433105469 C 64.43801879882812 300.8217468261719 56.8333625793457 294.76025390625 54.07402038574219 283.7610778808594 C 56.804595947265625 273.14752197265625 64.1472396850586 265.80389404296875 74.25188446044922 263.08319091796875 C 84.24516296386719 267.3291320800781 91.46233367919922 274.8106689453125 94.05769348144531 283.71197509765625" stroke-width="0.0" fill="rgb(205, 76, 29)" opacity="0.9900105"/>
    <path d="M 146.9534454345703 151.29364013671875 C 143.9311981201172 161.40106201171875 135.22637939453125 168.48660278320312 125.3150863647461 171.2509307861328 C 116.10517120361328 169.22142028808594 108.81761932373047 161.88319396972656 105.65164947509766 151.57398986816406 C 107.9999771118164 141.2910614013672 115.23910522460938 133.8549041748047 125.12061309814453 132.84381103515625 C 135.39476013183594 135.5211181640625 144.17991638183594 141.35826110839844 146.9534454345703 151.29364013671875" stroke-width="0.0" fill="rgb(24, 28, 31)" opacity="0.9900229"/>
    <path d="M 579.9347534179688 479.68701171875 C 577.2085571289062 489.8630065917969 569.8572998046875 497.193603515625 559.7452392578125 499.8122863769531 C 548.6519165039062 496.5320739746094 540.9638061523438 489.541015625 538.0609130859375 478.25494384765625 C 540.7811889648438 468.1251220703125 548.125732421875 460.7825927734375 558.172119140625 458.0992126464844 C 569.2225341796875 461.570068359375 576.9867553710938 468.55072021484375 579.9347534179688 479.68701171875" stroke-width="0.0" fill="rgb(105, 43, 63)" opacity="1.0"/>
    <path d="M 540.9506225585938 51.53594207763672 C 538.2210083007812 61.87855911254883 530.87744140625 69.21815490722656 520.814208984375 71.90665435791016 C 509.94720458984375 68.46588897705078 502.6764221191406 61.00965881347656 500.0003356933594 51.00017547607422 C 502.67962646484375 41.00011444091797 510.0001220703125 33.679656982421875 520.3309936523438 30.572431564331055 C 530.6355590820312 33.10560989379883 538.1602783203125 40.25843811035156 540.9506225585938 51.53594207763672" stroke-width="0.0" fill="rgb(105, 43, 65)" opacity="1.0"/>
    <path d="M 313.91302490234375 154.20489501953125 C 309.57647705078125 164.2136688232422 302.17645263671875 171.4562530517578 293.43463134765625 174.05372619628906 C 283.8651428222656 171.4312286376953 276.5662536621094 164.13597106933594 273.95098876953125 154.9800262451172 C 276.5606384277344 145.85610961914062 283.8559265136719 138.56005859375 293.56024169921875 135.9415740966797 C 302.9727478027344 138.40304565429688 311.1531982421875 144.31439208984375 313.91302490234375 154.20489501953125" stroke-width="0.0" fill="rgb(196, 60, 24)" opacity="0.990006"/>
    <path d="M 560.1883544921875 171.6476287841797 C 557.2477416992188 181.9619903564453 549.980224609375 189.3092803955078 539.9992065429688 191.99444580078125 C 530.002685546875 189.3173828125 522.6832885742188 181.99713134765625 519.6984252929688 171.7471160888672 C 522.2219848632812 161.5699005126953 529.576416015625 154.2419891357422 540.5299072265625 151.26626586914062 C 550.6582641601562 153.96856689453125 557.9284057617188 161.37518310546875 560.1883544921875 171.6476287841797" stroke-width="0.0" fill="rgb(251, 233, 170)" opacity="1.0"/>
    <path d="M 361.79107666015625 21.420650482177734 C 358.7783508300781 32.48197937011719 351.5584716796875 39.98679733276367 341.75201416015625 41.208229064941406 C 331.570556640625 38.611270904541016 323.99468994140625 31.569644927978516 321.1375732421875 21.980932235717773 C 323.841796875 12.157635688781738 331.225341796875 5.04342794418335 341.697509765625 2.779731273651123 C 351.6935729980469 3.9373834133148193 359.07647705078125 11.300697326660156 361.79107666015625 21.420650482177734" stroke-width="0.0" fill="rgb(251, 233, 172)" opacity="1.0"/>
    <path d="M 615.005126953125 437.98834228515625 C 612.3204956054688 448.0 605.0 455.32049560546875 594.9999389648438 458.0001220703125 C 584.9999389648438 455.3205871582031 577.6793823242188 448.00006103515625 574.4864501953125 437.4726257324219 C 576.8919067382812 427.18536376953125 584.1484375 419.78662109375 594.2196655273438 417.06536865234375 C 605.3782958984375 420.0829162597656 612.4050903320312 427.8223571777344 615.005126953125 437.98834228515625" stroke-width="0.0" fill="rgb(108, 44, 64)" opacity="1.0"/>
    <path d="M 612.0774536132812 237.01747131347656 C 609.6549072265625 247.49403381347656 602.6774291992188 255.13592529296875 591.7246704101562 257.9482727050781 C 581.1512451171875 255.19598388671875 573.8017578125 247.849853515625 571.0591430664062 237.11599731445312 C 573.802978515625 226.1445770263672 581.1361083984375 218.7835693359375 591.2747802734375 216.05516052246094 C 602.6109619140625 218.9155731201172 609.6024169921875 226.57061767578125 612.0774536132812 237.01747131347656" stroke-width="0.0" fill="rgb(94, 43, 49)" opacity="0.9903496"/>
    <path d="M 217.28768920898438 503.77398681640625 C 213.7909698486328 513.36083984375 206.26783752441406 520.504638671875 196.45675659179688 523.078125 C 187.56004333496094 520.6515502929688 179.70982360839844 513.5863647460938 176.96627807617188 504.11285400390625 C 179.74107360839844 493.9731140136719 186.9351043701172 486.6048278808594 196.97897338867188 483.9731750488281 C 207.0469970703125 486.6512756347656 214.47984313964844 493.91290283203125 217.28768920898438 503.77398681640625" stroke-width="0.0" fill="rgb(252, 246, 230)" opacity="0.9900201"/>
    <path d="M 507.2095642089844 404.3569030761719 C 505.7685546875 414.442138671875 498.4086608886719 421.6388854980469 487.9615783691406 423.1475524902344 C 477.46002197265625 421.8411865234375 470.2044677734375 414.5269470214844 468.8428039550781 404.47747802734375 C 470.35107421875 393.4797668457031 477.41424560546875 386.0580749511719 487.7118225097656 383.4618835449219 C 498.33953857421875 386.27935791015625 505.26092529296875 393.7650451660156 507.2095642089844 404.3569030761719" stroke-width="0.0" fill="rgb(251, 248, 235)" opacity="1.0"/>
    <path d="M 233.2234344482422 463.92218017578125 C 232.1060791015625 473.3409729003906 223.4716033935547 479.64886474609375 214.80612182617188 482.0771484375 C 204.90065002441406 479.40625 197.59947204589844 472.0970458984375 194.9440460205078 462.11492919921875 C 195.8498992919922 452.2530517578125 203.68685913085938 446.4622802734375 213.33447265625 443.9659729003906 C 223.09823608398438 446.59930419921875 230.4011688232422 453.9015197753906 233.2234344482422 463.92218017578125" stroke-width="0.0" fill="rgb(28, 29, 30)" opacity="0.9900031"/>
    <path d="M 81.00646209716797 208.01516723632812 C 78.38597106933594 218.11106872558594 71.18647766113281 225.6204376220703 61.09380340576172 228.4704132080078 C 50.62799835205078 225.7003631591797 43.26326370239258 218.38290405273438 40.3974609375 207.91896057128906 C 43.20943069458008 197.58827209472656 50.59878158569336 190.24058532714844 60.6964111328125 187.67474365234375 C 70.96581268310547 190.744384765625 78.31028747558594 198.0180206298828 81.00646209716797 208.01516723632812" stroke-width="0.0" fill="rgb(255, 237, 167)" opacity="0.9905517"/>
    <path d="M 97.8608169555664 207.22897338867188 C 94.31396484375 217.99537658691406 86.99602508544922 225.31622314453125 77.47545623779297 227.49053955078125 C 67.7311782836914 224.59767150878906 60.495140075683594 217.23565673828125 57.91518020629883 207.8114776611328 C 60.49238204956055 198.77735900878906 67.77383422851562 191.48373413085938 77.8284683227539 188.63677978515625 C 87.8260726928711 189.83189392089844 95.18146514892578 197.16867065429688 97.8608169555664 207.22897338867188" stroke-width="0.0" fill="rgb(193, 66, 23)" opacity="0.99001306"/>
  </g>
</svg>
