<?xml version="1.0" ?>
<svg xmlns="http://www.w3.org/2000/svg" version="1.1" width="600" height="600">
  <defs/>
  <g>
    <path d="M 105.71884155273438 367.9901428222656 C 103.11619567871094 378.8135986328125 95.84452819824219 386.2040100097656 84.81827545166016 388.9488220214844 C 74.13387298583984 386.212890625 66.79191589355469 378.8639831542969 64.05598449707031 367.8527526855469 C 66.78108215332031 357.1202697753906 74.11784362792969 349.7751770019531 84.4316635131836 347.05230712890625 C 95.83129119873047 349.8080139160156 103.11061096191406 357.19769287109375 105.71884155273438 367.9901428222656" stroke-width="0.0" fill="rgb(59, 67, 80)" opacity="1.0"/>
    <path d="M 433.9373474121094 87.75821685791016 C 431.21844482421875 97.874755859375 423.8734130859375 105.21528625488281 413.3521423339844 107.94631958007812 C 402.2382507324219 105.16873931884766 395.12603759765625 97.65898895263672 392.8404846191406 87.21826934814453 C 395.67950439453125 77.0 403.0 69.67948913574219 413.0270690917969 66.98617553710938 C 423.270263671875 69.52839660644531 430.9878234863281 76.52873229980469 433.9373474121094 87.75821685791016" stroke-width="0.0" fill="rgb(56, 63, 76)" opacity="1.0"/>
    <path d="M 432.9220275878906 74.26748657226562 C 429.8931884765625 85.3499984741211 422.15362548828125 92.39088439941406 412.0091552734375 95.00404357910156 C 402.0 92.32051086425781 394.67950439453125 85.0 391.4922180175781 74.48738861083984 C 393.909912109375 64.21143341064453 401.18072509765625 56.82012939453125 412.47625732421875 54.06394577026367 C 422.8635559082031 56.79191589355469 430.2041015625 64.13810729980469 432.9220275878906 74.26748657226562" stroke-width="0.0" fill="rgb(57, 64, 77)" opacity="1.0"/>
    <path d="M 105.91179656982422 20.7675724029541 C 103.2094955444336 30.867570877075195 95.8670425415039 38.20817565917969 85.16394805908203 40.93910217285156 C 74.14417266845703 38.1955680847168 66.78938293457031 30.86208152770996 64.07942962646484 20.802854537963867 C 67.35975646972656 9.857933044433594 74.96255493164062 2.665719747543335 85.00692749023438 -0.0040768845938146114 C 95.12504577636719 2.6211371421813965 102.81169128417969 9.714982032775879 105.91179656982422 20.7675724029541" stroke-width="0.0" fill="rgb(125, 71, 65)" opacity="1.0"/>
    <path d="M 499.86700439453125 440.44171142578125 C 497.14569091796875 451.8211669921875 489.83123779296875 459.1747131347656 479.7126770019531 461.7823486328125 C 468.645751953125 458.5302734375 460.9416198730469 451.5609130859375 458.0547180175781 440.2709655761719 C 460.793701171875 430.2169494628906 468.62847900390625 424.40069580078125 479.87274169921875 421.8011779785156 C 489.87841796875 422.7779541015625 497.19744873046875 430.1311340332031 499.86700439453125 440.44171142578125" stroke-width="0.0" fill="rgb(64, 66, 75)" opacity="1.0"/>
    <path d="M 28.947994232177734 323.41522216796875 C 26.213336944580078 333.8668212890625 18.867904663085938 341.2156982421875 8.642525672912598 343.9463195800781 C -2.619823932647705 341.0970458984375 -9.597138404846191 333.4267578125 -12.066071510314941 323.0008544921875 C -9.594404220581055 312.5772705078125 -2.610388994216919 304.9129943847656 8.48497486114502 302.0655822753906 C 18.852615356445312 304.8052673339844 26.203062057495117 312.1438293457031 28.947994232177734 323.41522216796875" stroke-width="0.0" fill="rgb(58, 67, 81)" opacity="1.0"/>
    <path d="M 438.9617614746094 428.6421203613281 C 436.2257080078125 438.8812255859375 428.8802795410156 446.2232971191406 418.4088134765625 448.94805908203125 C 407.1319885253906 446.21295166015625 399.80328369140625 438.86163330078125 397.09027099609375 427.5450134277344 C 399.77276611328125 417.10760498046875 407.1155700683594 409.79620361328125 417.2546081542969 407.25445556640625 C 427.732666015625 411.05999755859375 436.0788269042969 417.5915222167969 438.9617614746094 428.6421203613281" stroke-width="0.0" fill="rgb(58, 64, 76)" opacity="1.0"/>
    <path d="M 324.9521789550781 137.6403350830078 C 322.22064208984375 148.87953186035156 314.88006591796875 156.2218017578125 304.541259765625 158.94654846191406 C 293.284912109375 156.14645385742188 286.23370361328125 148.57797241210938 283.33544921875 137.40000915527344 C 285.8515930175781 127.16563415527344 293.1424560546875 119.7879638671875 304.2558898925781 117.04939270019531 C 314.8863830566406 119.77335357666016 322.2262268066406 127.11392211914062 324.9521789550781 137.6403350830078" stroke-width="0.0" fill="rgb(59, 65, 77)" opacity="1.0"/>
    <path d="M 511.94268798828125 63.669376373291016 C 509.20989990234375 74.8666000366211 501.8634948730469 82.2022933959961 490.53631591796875 84.9383544921875 C 480.1228332519531 82.2178726196289 472.7777404785156 74.87902069091797 470.0524597167969 64.3076171875 C 472.7829895019531 53.122581481933594 480.1192321777344 45.77485656738281 490.381103515625 43.05393600463867 C 501.87261962890625 45.79203414916992 509.2217712402344 53.121768951416016 511.94268798828125 63.669376373291016" stroke-width="0.0" fill="rgb(57, 62, 75)" opacity="0.9902311"/>
    <path d="M 279.9472351074219 566.1210327148438 C 277.21282958984375 576.8659057617188 269.8540954589844 584.1810913085938 258.88702392578125 586.8591918945312 C 248.14356994628906 584.1834106445312 240.78567504882812 576.8679809570312 238.05101013183594 565.9027709960938 C 240.78855895996094 555.136474609375 248.140869140625 547.7987060546875 259.6059265136719 545.0511474609375 C 269.8863830566406 547.772216796875 277.2213439941406 555.1162109375 279.9472351074219 566.1210327148438" stroke-width="0.0" fill="rgb(61, 68, 76)" opacity="0.99575984"/>
    <path d="M 400.8642272949219 98.79740142822266 C 398.21026611328125 108.86101531982422 390.8403625488281 116.15050506591797 379.3491516113281 118.87620544433594 C 369.12908935546875 116.20584869384766 361.7827453613281 108.87533569335938 359.0469970703125 97.44229125976562 C 361.77178955078125 87.11624908447266 369.1185302734375 79.77684783935547 379.2177734375 77.05825805664062 C 390.3074645996094 80.12799835205078 397.36029052734375 87.89861297607422 400.8642272949219 98.79740142822266" stroke-width="0.0" fill="rgb(59, 65, 77)" opacity="1.0"/>
    <path d="M 294.2366943359375 357.3359069824219 C 291.4855651855469 367.1834716796875 284.17486572265625 374.4629211425781 274.6210632324219 377.0647888183594 C 265.8304748535156 374.4669189453125 258.5451354980469 367.1646728515625 255.88150024414062 357.1477966308594 C 256.82073974609375 347.164794921875 264.1944274902344 339.935791015625 274.83203125 338.82562255859375 C 284.41815185546875 341.3300476074219 291.8940124511719 348.51251220703125 294.2366943359375 357.3359069824219" stroke-width="0.0" fill="rgb(214, 29, 17)" opacity="0.99000657"/>
    <path d="M 253.01602172851562 327.0243835449219 C 250.4053955078125 337.11370849609375 243.1560821533203 344.54327392578125 232.3690185546875 347.81671142578125 C 222.3503875732422 345.0737609863281 215.2105255126953 337.5501708984375 212.7620391845703 327.0850524902344 C 215.3549041748047 316.6196594238281 222.524169921875 309.0792236328125 232.42239379882812 306.6239929199219 C 243.02645874023438 309.5943603515625 250.31631469726562 316.99993896484375 253.01602172851562 327.0243835449219" stroke-width="0.0" fill="rgb(252, 238, 193)" opacity="1.0"/>
    <path d="M 214.9345245361328 459.6021728515625 C 212.19517517089844 469.8227233886719 204.77171325683594 477.04718017578125 194.4273223876953 479.39471435546875 C 183.99966430664062 476.3205871582031 176.67115783691406 469.0025939941406 173.35452270507812 458.63714599609375 C 176.4266815185547 448.8971862792969 183.9772491455078 441.67156982421875 194.02354431152344 438.9886779785156 C 204.29090881347656 441.52581787109375 212.04141235351562 448.47802734375 214.9345245361328 459.6021728515625" stroke-width="0.0" fill="rgb(57, 64, 76)" opacity="1.0"/>
    <path d="M 121.94652557373047 156.41334533691406 C 119.21027374267578 166.8599090576172 111.85779571533203 174.20565795898438 100.5432357788086 176.94964599609375 C 90.1191635131836 174.2239227294922 82.7799301147461 166.87918090820312 80.05361938476562 156.0476531982422 C 82.77518463134766 145.1150665283203 90.11581420898438 137.77676391601562 100.90264129638672 135.0494842529297 C 111.86832427978516 137.78541564941406 119.204833984375 145.13583374023438 121.94652557373047 156.41334533691406" stroke-width="0.0" fill="rgb(58, 65, 78)" opacity="1.0"/>
    <path d="M 417.7906494140625 353.46337890625 C 415.04571533203125 363.65576171875 407.61279296875 370.9298400878906 397.40753173828125 373.5732421875 C 386.7818603515625 370.5281982421875 379.4918518066406 363.214599609375 376.3103942871094 352.3822326660156 C 378.9349365234375 342.332275390625 386.4141845703125 335.2093505859375 397.193115234375 333.74267578125 C 407.3711242675781 335.2716979980469 414.7760925292969 342.6119689941406 417.7906494140625 353.46337890625" stroke-width="0.0" fill="rgb(252, 237, 193)" opacity="1.0"/>
    <path d="M 576.547119140625 74.61392211914062 C 573.91357421875 85.67850494384766 566.7677001953125 93.16834259033203 555.7095336914062 95.94345092773438 C 545.123779296875 93.21475219726562 537.7823486328125 85.87741088867188 535.0519409179688 74.65432739257812 C 537.7803344726562 64.12205505371094 545.1226196289062 56.78178024291992 555.9782104492188 54.05025100708008 C 566.8355102539062 56.79737091064453 574.085693359375 64.20596313476562 576.547119140625 74.61392211914062" stroke-width="0.0" fill="rgb(56, 63, 76)" opacity="1.0"/>
    <path d="M 53.92961883544922 120.21793365478516 C 50.799373626708984 131.2495574951172 43.07857131958008 138.35122680664062 32.68071365356445 141.26564025878906 C 22.27505874633789 138.97276306152344 14.815343856811523 131.79769897460938 12.051589965820312 120.68059539794922 C 14.78557300567627 110.13414001464844 22.13944435119629 102.79755401611328 33.35650634765625 100.05280303955078 C 43.878108978271484 102.78219604492188 51.22132110595703 110.12031555175781 53.92961883544922 120.21793365478516" stroke-width="0.0" fill="rgb(60, 66, 79)" opacity="1.0"/>
    <path d="M 251.95510864257812 530.6703491210938 C 249.2212371826172 541.8797607421875 241.8824462890625 549.2273559570312 231.1265411376953 551.9580688476562 C 220.11558532714844 549.2275390625 212.7806396484375 541.8809814453125 210.0580291748047 531.33154296875 C 212.7974090576172 520.1416015625 220.14111328125 512.7964477539062 231.5235137939453 510.05572509765625 C 241.88352966308594 512.7772216796875 249.2285919189453 520.1139526367188 251.95510864257812 530.6703491210938" stroke-width="0.0" fill="rgb(59, 66, 79)" opacity="1.0"/>
    <path d="M 228.53973388671875 396.9057922363281 C 225.5431365966797 407.22955322265625 218.2894744873047 414.71728515625 208.08282470703125 417.5346984863281 C 197.6533966064453 414.7203063964844 190.36407470703125 407.31939697265625 188.31747436523438 396.5854187011719 C 189.982177734375 386.31500244140625 197.30128479003906 378.9450988769531 207.49746704101562 376.3691101074219 C 218.1740264892578 379.5809020996094 225.65447998046875 386.75494384765625 228.53973388671875 396.9057922363281" stroke-width="0.0" fill="rgb(251, 242, 197)" opacity="1.0"/>
    <path d="M 391.86090087890625 12.77529239654541 C 389.1896667480469 22.84764862060547 381.8515625 30.199237823486328 371.2648620605469 32.93410110473633 C 360.1377868652344 30.205848693847656 352.80230712890625 22.85881233215332 350.10504150390625 12.772174835205078 C 353.4459228515625 1.9023454189300537 360.9745788574219 -5.329860210418701 370.99920654296875 -8.00029468536377 C 381.0 -5.320508003234863 388.3205261230469 1.9999887943267822 391.86090087890625 12.77529239654541" stroke-width="0.0" fill="rgb(247, 111, 37)" opacity="1.0"/>
    <path d="M 59.51520538330078 228.50071716308594 C 57.09939193725586 238.8047637939453 49.84181213378906 246.2050018310547 39.30073928833008 248.94593811035156 C 28.176067352294922 246.18707275390625 20.896757125854492 238.7938690185547 18.44095230102539 228.5450897216797 C 21.67949104309082 218.0 29.0 210.6794891357422 39.75316619873047 207.12548828125 C 49.6378059387207 209.89198303222656 56.612457275390625 217.5510711669922 59.51520538330078 228.50071716308594" stroke-width="0.0" fill="rgb(58, 66, 80)" opacity="1.0"/>
    <path d="M 568.9559326171875 399.2004699707031 C 566.2247924804688 409.87237548828125 558.8531494140625 417.17462158203125 548.6843872070312 419.7273864746094 C 537.918212890625 416.3515930175781 530.1761474609375 409.2659606933594 527.0698852539062 398.219970703125 C 529.7801513671875 388.1241149902344 537.1277465820312 380.788818359375 548.5201416015625 378.0521240234375 C 558.891845703125 380.7710266113281 566.2332153320312 388.1063232421875 568.9559326171875 399.2004699707031" stroke-width="0.0" fill="rgb(59, 65, 78)" opacity="0.9917983"/>
    <path d="M 237.7652587890625 247.59732055664062 C 234.88473510742188 258.4724426269531 227.44012451171875 265.7939758300781 217.06666564941406 268.5364990234375 C 206.465576171875 265.8229064941406 198.9828643798828 258.6033020019531 196.15771484375 247.60165405273438 C 198.90846252441406 237.27101135253906 206.27484130859375 229.9180145263672 217.28819274902344 227.12998962402344 C 227.79283142089844 229.87269592285156 235.15342712402344 237.19703674316406 237.7652587890625 247.59732055664062" stroke-width="0.0" fill="rgb(252, 222, 160)" opacity="1.0"/>
    <path d="M 206.85293579101562 474.6974792480469 C 204.01641845703125 484.4920654296875 196.26754760742188 491.4602966308594 185.94329833984375 494.0537414550781 C 175.5447235107422 491.63092041015625 167.910888671875 484.62469482421875 165.06813049316406 473.4062805175781 C 167.80596923828125 463.17333984375 175.21678161621094 455.93316650390625 185.5411376953125 453.56951904296875 C 196.00015258789062 456.6793518066406 203.32080078125 463.99981689453125 206.85293579101562 474.6974792480469" stroke-width="0.0" fill="rgb(58, 64, 77)" opacity="1.0"/>
    <path d="M 159.95736694335938 168.41278076171875 C 157.2294921875 178.87808227539062 149.85728454589844 186.1739044189453 139.671630859375 188.70330810546875 C 128.86827087402344 185.37815856933594 121.11571502685547 178.33213806152344 118.068603515625 167.2379913330078 C 120.78350067138672 157.1250457763672 128.12525939941406 149.7841796875 139.4829864501953 147.05140686035156 C 149.88668823242188 149.77159118652344 157.22640991210938 157.11422729492188 159.95736694335938 168.41278076171875" stroke-width="0.0" fill="rgb(60, 66, 79)" opacity="1.0"/>
    <path d="M 297.6458435058594 145.58282470703125 C 295.1572570800781 155.85723876953125 287.890380859375 163.24618530273438 277.696533203125 165.96778869628906 C 266.1153869628906 163.22775268554688 258.77496337890625 155.88356018066406 256.0501708984375 145.32110595703125 C 258.7786560058594 134.12057495117188 266.1234436035156 126.78555297851562 276.5474548339844 124.06275177001953 C 287.7260437011719 126.85501098632812 294.8186340332031 134.3885498046875 297.6458435058594 145.58282470703125" stroke-width="0.0" fill="rgb(60, 66, 79)" opacity="1.0"/>
    <path d="M 392.860595703125 6.531595230102539 C 389.6229248046875 17.128250122070312 382.0233154296875 24.311681747436523 372.0014953613281 26.933578491210938 C 362.01348876953125 24.297929763793945 354.66473388671875 16.996980667114258 351.1640319824219 6.3607497215271 C 354.0097351074219 -3.480708360671997 361.7137145996094 -10.483342170715332 371.9941101074219 -13.027167320251465 C 382.246337890625 -10.456880569458008 389.9464111328125 -3.431859016418457 392.860595703125 6.531595230102539" stroke-width="0.0" fill="rgb(248, 112, 38)" opacity="1.0"/>
    <path d="M 609.1336059570312 91.19076538085938 C 606.8425903320312 101.63937377929688 599.7518310546875 109.16452026367188 588.5693359375 111.94207000732422 C 578.1362915039062 109.21044158935547 570.7982177734375 101.85997009277344 568.1056518554688 91.80020141601562 C 571.64892578125 80.99070739746094 578.9991455078125 73.67922973632812 589.0 71.0 C 599.0 73.67948913574219 606.3204956054688 81.0 609.1336059570312 91.19076538085938" stroke-width="0.0" fill="rgb(56, 63, 76)" opacity="1.0"/>
    <path d="M 162.5416259765625 203.51170349121094 C 160.09481811523438 213.79270935058594 152.8275146484375 221.1922149658203 141.92430114746094 223.94236755371094 C 131.15296936035156 221.2019805908203 123.86310577392578 213.82379150390625 121.3760986328125 203.60226440429688 C 124.67948913574219 193.0 132.00003051757812 185.67959594726562 142.47586059570312 182.3806915283203 C 152.4688720703125 185.07150268554688 159.55075073242188 192.65982055664062 162.5416259765625 203.51170349121094" stroke-width="0.0" fill="rgb(61, 68, 80)" opacity="1.0"/>
    <path d="M 446.487548828125 396.7265625 C 443.5516662597656 407.2480773925781 436.2413024902344 414.5201110839844 426.5680236816406 416.1402282714844 C 416.4977722167969 413.635498046875 408.1867980957031 406.9350280761719 405.2331848144531 397.1643981933594 C 408.0679626464844 386.3950500488281 415.369873046875 378.9952392578125 425.6022033691406 376.236328125 C 436.3911437988281 379.23095703125 443.79486083984375 386.59637451171875 446.487548828125 396.7265625" stroke-width="0.0" fill="rgb(252, 240, 194)" opacity="0.9906692"/>
    <path d="M 396.7272644042969 183.13929748535156 C 394.3143615722656 192.98826599121094 386.96356201171875 200.22984313964844 376.46563720703125 202.67787170410156 C 366.4783630371094 200.8870391845703 359.13031005859375 193.51527404785156 356.3643798828125 183.1468963623047 C 359.2269287109375 172.5248565673828 366.45733642578125 165.03775024414062 376.5769958496094 163.6976776123047 C 386.9214782714844 165.90505981445312 394.1728210449219 173.04757690429688 396.7272644042969 183.13929748535156" stroke-width="0.0" fill="rgb(252, 251, 238)" opacity="1.0"/>
    <path d="M 35.95215606689453 490.33856201171875 C 33.22594451904297 500.8819274902344 25.878170013427734 508.21728515625 14.702882766723633 510.9505920410156 C 4.150697708129883 508.21136474609375 -3.113354206085205 500.8142395019531 -5.697931289672852 490.0392761230469 C -3.1071724891662598 479.19256591796875 4.160566329956055 471.80072021484375 15.554723739624023 469.05499267578125 C 25.880565643310547 471.7751159667969 33.218265533447266 479.1224060058594 35.95215606689453 490.33856201171875" stroke-width="0.0" fill="rgb(57, 63, 76)" opacity="1.0"/>
    <path d="M 130.92869567871094 519.6549682617188 C 128.19931030273438 529.8554077148438 120.8577880859375 537.205078125 109.82008361816406 539.9409790039062 C 99.11286163330078 537.2230224609375 91.77384948730469 529.8883666992188 89.05329132080078 519.2927856445312 C 91.79471588134766 508.14990234375 99.17487335205078 500.8657531738281 109.41251373291016 498.4034118652344 C 120.13224792480469 501.62457275390625 127.9194107055664 508.6436767578125 130.92869567871094 519.6549682617188" stroke-width="0.0" fill="rgb(59, 66, 80)" opacity="1.0"/>
    <path d="M 418.9053649902344 555.8355102539062 C 416.2237854003906 565.8848266601562 408.88507080078125 573.2240600585938 398.2503356933594 575.944091796875 C 387.1315002441406 573.2108154296875 379.7855224609375 565.8699340820312 377.0540771484375 555.645263671875 C 379.9207763671875 544.411865234375 387.6178894042969 537.4439086914062 397.9515075683594 534.9738159179688 C 408.0002136230469 537.679443359375 415.3258361816406 544.9983520507812 418.9053649902344 555.8355102539062" stroke-width="0.0" fill="rgb(58, 64, 77)" opacity="1.0"/>
    <path d="M 139.84300231933594 499.7658386230469 C 137.1883087158203 509.8312683105469 129.80368041992188 517.1083984375 119.54632568359375 519.5560302734375 C 108.92626953125 516.349365234375 101.23294067382812 509.228759765625 98.09271240234375 498.30218505859375 C 100.83821868896484 488.24481201171875 108.34613037109375 481.13330078125 118.7881088256836 478.84686279296875 C 129.0 481.67950439453125 136.3205108642578 489.0 139.84300231933594 499.7658386230469" stroke-width="0.0" fill="rgb(59, 64, 78)" opacity="1.0"/>
    <path d="M 552.913330078125 197.56898498535156 C 550.1912231445312 208.8612518310547 542.8699951171875 216.2147979736328 531.5781860351562 218.9518280029297 C 521.1138916015625 216.230224609375 513.7853393554688 208.87962341308594 511.0521240234375 197.4605712890625 C 513.7777709960938 187.12368774414062 521.1282958984375 179.78863525390625 531.19873046875 177.10581970214844 C 542.6759033203125 180.08612060546875 550.1602783203125 187.2388153076172 552.913330078125 197.56898498535156" stroke-width="0.0" fill="rgb(59, 66, 79)" opacity="1.0"/>
    <path d="M 129.89190673828125 92.66105651855469 C 126.86424255371094 103.32780456542969 119.14641571044922 110.38910675048828 109.00938415527344 113.00418853759766 C 99.0 110.32051086425781 91.67948913574219 103.0 89.0 93.0 C 91.67948913574219 83.0 99.0 75.67948913574219 109.01763153076172 72.99185180664062 C 119.22679138183594 75.56396484375 126.964599609375 82.56487274169922 129.89190673828125 92.66105651855469" stroke-width="0.0" fill="rgb(59, 66, 79)" opacity="1.0"/>
    <path d="M 594.9113159179688 436.1648864746094 C 591.3697509765625 447.0157165527344 584.001953125 454.32110595703125 573.9784545898438 457.01025390625 C 563.7474365234375 454.45404052734375 556.01953125 447.4585876464844 553.0704345703125 436.262939453125 C 555.7779541015625 426.1145935058594 563.1121215820312 418.7718811035156 574.1719970703125 416.04876708984375 C 584.8837890625 418.7757568359375 592.2266235351562 426.1151428222656 594.9113159179688 436.1648864746094" stroke-width="0.0" fill="rgb(56, 63, 76)" opacity="1.0"/>
    <path d="M 440.92926025390625 197.44949340820312 C 438.1831970214844 207.75270080566406 429.7698669433594 213.48292541503906 420.7754211425781 216.02676391601562 C 410.879638671875 213.39657592773438 403.4479064941406 206.17413330078125 400.38409423828125 196.5485382080078 C 402.67950439453125 187.0 410.0 179.6794891357422 420.03582763671875 176.98123168945312 C 430.3255310058594 179.4899139404297 438.0487976074219 186.45901489257812 440.92926025390625 197.44949340820312" stroke-width="0.0" fill="rgb(2, 2, 3)" opacity="0.9900081"/>
    <path d="M 208.00146484375 443.9959716796875 C 205.32037353515625 453.9998474121094 197.9998016357422 461.32025146484375 187.67376708984375 464.2651672363281 C 177.2623291015625 461.9830322265625 169.80853271484375 454.80816650390625 167.04989624023438 443.3678283691406 C 169.7595977783203 433.09197998046875 177.08749389648438 425.74896240234375 187.1519012451172 423.0460205078125 C 198.32830810546875 426.102783203125 205.36337280273438 433.891357421875 208.00146484375 443.9959716796875" stroke-width="0.0" fill="rgb(58, 64, 76)" opacity="1.0"/>
    <path d="M 188.28993225097656 320.0235595703125 C 185.7525634765625 330.43853759765625 178.4560546875 337.809326171875 167.37350463867188 340.58197021484375 C 157.42953491210938 337.97418212890625 150.0443878173828 330.5635070800781 147.1671142578125 319.43878173828125 C 149.90232849121094 309.2735900878906 157.29132080078125 301.9512634277344 168.03961181640625 300.6432800292969 C 178.59413146972656 302.0154724121094 185.79617309570312 309.4656066894531 188.28993225097656 320.0235595703125" stroke-width="0.0" fill="rgb(252, 239, 191)" opacity="1.0"/>
    <path d="M 125.95178985595703 445.6296081542969 C 123.22783660888672 455.8857727050781 115.88444519042969 463.2248229980469 105.58872985839844 465.9485778808594 C 94.26252746582031 463.16143798828125 87.20991516113281 455.6051940917969 84.36408233642578 444.5773010253906 C 87.07389068603516 434.5394287109375 94.67447662353516 427.4674072265625 104.9825668334961 424.9582824707031 C 115.35680389404297 427.4826965332031 123.09925842285156 434.402587890625 125.95178985595703 445.6296081542969" stroke-width="0.0" fill="rgb(55, 62, 74)" opacity="1.0"/>
    <path d="M 272.88470458984375 324.7450866699219 C 270.1495666503906 334.7637634277344 262.7294921875 342.0702209472656 252.59402465820312 344.7755432128906 C 241.8775177001953 341.5356140136719 234.6451873779297 334.06561279296875 231.9969482421875 324.00396728515625 C 234.66000366210938 313.953369140625 241.8904266357422 306.46142578125 251.91871643066406 303.5646057128906 C 262.4538879394531 306.3058166503906 269.84344482421875 313.5041809082031 272.88470458984375 324.7450866699219" stroke-width="0.0" fill="rgb(252, 238, 193)" opacity="1.0"/>
    <path d="M 589.8023071289062 539.1190795898438 C 586.6905517578125 550.75390625 579.8428955078125 558.2152709960938 568.6415405273438 560.9536743164062 C 558.121337890625 558.2225341796875 550.7801513671875 550.8775024414062 548.0573120117188 540.5391235351562 C 550.799072265625 529.13671875 558.132080078125 521.7877807617188 569.2772827148438 519.056640625 C 579.8803100585938 521.7813720703125 587.2274169921875 529.1160278320312 589.8023071289062 539.1190795898438" stroke-width="0.0" fill="rgb(62, 67, 80)" opacity="1.0"/>
    <path d="M 58.95417785644531 137.5008087158203 C 56.22373962402344 147.8820343017578 48.88052749633789 155.21995544433594 37.79731369018555 157.9451141357422 C 27.117755889892578 155.22532653808594 19.784162521362305 147.8782196044922 17.085590362548828 137.78329467773438 C 20.286304473876953 126.80683898925781 27.937952041625977 119.6526870727539 38.21443176269531 116.82840728759766 C 48.64436721801758 119.13626098632812 56.16541290283203 126.24732208251953 58.95417785644531 137.5008087158203" stroke-width="0.0" fill="rgb(58, 64, 77)" opacity="1.0"/>
    <path d="M 324.7054748535156 349.36474609375 C 321.8921813964844 359.4814453125 314.4255676269531 366.7288818359375 303.5880126953125 369.7081604003906 C 293.24560546875 367.0562744140625 285.8283996582031 359.7968444824219 283.0724792480469 349.5836181640625 C 285.9558410644531 338.3882141113281 293.4959716796875 331.2851867675781 304.0929260253906 328.8931884765625 C 314.3251953125 331.3856201171875 321.7629699707031 338.6274719238281 324.7054748535156 349.36474609375" stroke-width="0.0" fill="rgb(252, 242, 200)" opacity="0.9914394"/>
    <path d="M 501.9434814453125 212.59669494628906 C 499.2024841308594 223.85435485839844 491.849853515625 231.19207763671875 480.66888427734375 233.94468688964844 C 470.1311340332031 231.2095489501953 462.7830810546875 223.87210083007812 460.05328369140625 213.20361328125 C 462.7830505371094 202.1256866455078 470.1272277832031 194.78652954101562 481.128173828125 192.05703735351562 C 491.8717041015625 194.78736877441406 499.21661376953125 202.1266326904297 501.9434814453125 212.59669494628906" stroke-width="0.0" fill="rgb(57, 63, 76)" opacity="1.0"/>
    <path d="M 492.8459777832031 302.3312072753906 C 489.9634704589844 313.4505310058594 482.2647705078125 320.477783203125 471.9042663574219 323.32196044921875 C 462.3343505859375 320.064208984375 455.2535705566406 312.55963134765625 452.8603210449219 302.3382568359375 C 453.9922180175781 292.3905944824219 461.45025634765625 285.16522216796875 472.4649353027344 282.29193115234375 C 482.7294616699219 284.92181396484375 490.1040954589844 292.26177978515625 492.8459777832031 302.3312072753906" stroke-width="0.0" fill="rgb(251, 250, 235)" opacity="1.0"/>
    <path d="M 312.94952392578125 546.4752807617188 C 310.2191467285156 556.8754272460938 302.87652587890625 564.221435546875 292.4640197753906 566.9464111328125 C 281.1249694824219 564.2141723632812 273.77813720703125 556.878173828125 271.0452575683594 545.9771118164062 C 273.78131103515625 535.12841796875 281.13104248046875 527.787353515625 291.8149108886719 525.0548095703125 C 302.8631896972656 527.7918701171875 310.2070617675781 535.1373291015625 312.94952392578125 546.4752807617188" stroke-width="0.0" fill="rgb(57, 63, 76)" opacity="1.0"/>
    <path d="M 128.84353637695312 90.21688842773438 C 125.32068634033203 101.00011444091797 118.00007629394531 108.32056427001953 107.99185943603516 111.00341033935547 C 97.8413314819336 108.39022064208984 90.05014038085938 101.39147186279297 87.06761169433594 90.32170867919922 C 89.78685760498047 80.1244888305664 97.1219482421875 72.78079223632812 108.01403045654297 70.05743408203125 C 118.8741683959961 72.78524780273438 126.21065521240234 80.12720489501953 128.84353637695312 90.21688842773438" stroke-width="0.0" fill="rgb(57, 64, 77)" opacity="1.0"/>
    <path d="M 556.9229736328125 419.7949523925781 C 554.2166137695312 429.8728332519531 546.8742065429688 437.2195739746094 536.8013305664062 439.92889404296875 C 525.6829223632812 436.7749938964844 518.0947265625 429.38653564453125 515.0677490234375 418.2264404296875 C 517.7794189453125 408.12689208984375 525.1417236328125 400.8196716308594 535.3060302734375 398.2646789550781 C 546.0513916015625 401.6590576171875 553.7110595703125 408.8153991699219 556.9229736328125 419.7949523925781" stroke-width="0.0" fill="rgb(57, 63, 77)" opacity="1.0"/>
    <path d="M 370.7123107910156 377.8584899902344 C 368.2017822265625 387.8705139160156 360.87811279296875 395.2214660644531 350.8782653808594 397.86376953125 C 340.79461669921875 393.51104736328125 333.4833984375 386.20556640625 329.1988525390625 376.52655029296875 C 333.4692687988281 367.8222351074219 340.85076904296875 360.5626525878906 349.50360107421875 357.956787109375 C 359.1163024902344 360.5854187011719 366.4330139160156 367.876708984375 370.7123107910156 377.8584899902344" stroke-width="0.0" fill="rgb(31, 119, 3)" opacity="0.9900073"/>
    <path d="M 421.93780517578125 545.4240112304688 C 419.09356689453125 556.6193237304688 411.4314880371094 563.5989990234375 401.067626953125 566.002197265625 C 391.01007080078125 563.306396484375 383.6911926269531 555.9906616210938 380.1635437011719 545.3228149414062 C 382.9984436035156 535.519287109375 390.7326965332031 528.5377807617188 401.29388427734375 525.7500610351562 C 411.7266540527344 528.0343017578125 419.1904296875 535.19677734375 421.93780517578125 545.4240112304688" stroke-width="0.0" fill="rgb(55, 61, 74)" opacity="0.9919842"/>
    <path d="M 62.84130096435547 516.2169799804688 C 59.32050704956055 527.0 52.0 534.3204956054688 41.41438293457031 537.6033935546875 C 31.177888870239258 535.1300048828125 23.788976669311523 527.8516845703125 21.052066802978516 517.2191162109375 C 23.78196907043457 506.1246643066406 31.124691009521484 498.7817687988281 42.34902572631836 496.0495300292969 C 52.88547897338867 498.7722473144531 60.21306610107422 506.1202697753906 62.84130096435547 516.2169799804688" stroke-width="0.0" fill="rgb(58, 64, 77)" opacity="1.0"/>
    <path d="M 385.41107177734375 256.9681701660156 C 382.3687438964844 267.0156555175781 375.0022277832031 274.3211975097656 365.0000305175781 277.0 C 355.0 274.32049560546875 347.67950439453125 267.0 344.5662536621094 256.5986022949219 C 347.0369873046875 246.38743591308594 354.4190673828125 239.1455841064453 364.7377014160156 236.64111328125 C 375.262451171875 239.452392578125 382.66656494140625 246.7010955810547 385.41107177734375 256.9681701660156" stroke-width="0.0" fill="rgb(252, 238, 192)" opacity="1.0"/>
    <path d="M 527.9287109375 12.45748519897461 C 525.1908569335938 22.84123992919922 517.8296508789062 30.159807205200195 506.57171630859375 32.882713317871094 C 496.16607666015625 30.187524795532227 488.84100341796875 22.822168350219727 486.0824890136719 12.037671089172363 C 488.8741760253906 1.287468671798706 496.3859558105469 -5.841644763946533 506.961669921875 -8.262924194335938 C 517.58154296875 -5.803860187530518 525.1165771484375 1.307690143585205 527.9287109375 12.45748519897461" stroke-width="0.0" fill="rgb(247, 111, 38)" opacity="1.0"/>
    <path d="M 319.9345703125 46.624267578125 C 317.2177734375 56.8773307800293 309.8760986328125 64.21482849121094 299.045166015625 66.9400863647461 C 288.1302185058594 64.20850372314453 280.7732238769531 56.87784957885742 278.044189453125 46.38292694091797 C 280.77264404296875 35.11412048339844 288.1156921386719 27.776172637939453 298.2481689453125 25.0600528717041 C 309.5896301269531 28.003835678100586 317.098876953125 35.34983444213867 319.9345703125 46.624267578125" stroke-width="0.0" fill="rgb(58, 64, 77)" opacity="1.0"/>
    <path d="M 416.6748046875 300.8244323730469 C 413.71051025390625 311.3023986816406 406.2461853027344 318.5355224609375 396.0783386230469 321.080078125 C 386.0 318.32049560546875 378.67950439453125 311.0 375.9636535644531 300.9517517089844 C 378.5124816894531 290.78369140625 385.7177429199219 283.3043212890625 395.8456115722656 280.5506286621094 C 406.4385986328125 283.2440185546875 413.8336181640625 290.5368957519531 416.6748046875 300.8244323730469" stroke-width="0.0" fill="rgb(255, 242, 198)" opacity="0.99116796"/>
    <path d="M 465.1231689453125 241.36859130859375 C 462.8805236816406 251.7249755859375 455.81170654296875 259.1210021972656 445.583740234375 262.4830627441406 C 435.4532775878906 259.8764953613281 428.0193786621094 252.5854034423828 426.4897155761719 242.3394775390625 C 428.2796325683594 231.61898803710938 435.62371826171875 224.29710388183594 445.78228759765625 222.89224243164062 C 455.62115478515625 224.94467163085938 462.989990234375 232.40322875976562 465.1231689453125 241.36859130859375" stroke-width="0.0" fill="rgb(252, 251, 231)" opacity="1.0"/>
    <path d="M 527.9503784179688 542.9790649414062 C 525.21484375 553.8631591796875 517.8416137695312 561.1547241210938 507.63140869140625 563.6529541015625 C 497.0 560.3204956054688 489.67950439453125 553.0 487.0 543.0 C 489.67950439453125 533.0 497.0 525.6795043945312 507.3671875 522.6803588867188 C 517.7515258789062 524.9902954101562 525.1995239257812 532.1820678710938 527.9503784179688 542.9790649414062" stroke-width="0.0" fill="rgb(61, 67, 80)" opacity="1.0"/>
    <path d="M 595.0300903320312 481.9801025390625 C 592.4392700195312 492.22894287109375 585.4310913085938 499.9574279785156 574.2515258789062 502.93292236328125 C 564.1315307617188 500.21337890625 556.7919311523438 492.8661193847656 554.0504760742188 481.6505432128906 C 556.7760009765625 471.11639404296875 564.1181640625 463.7806701660156 574.2296142578125 461.1141052246094 C 585.40283203125 464.1283264160156 592.493408203125 471.7265319824219 595.0300903320312 481.9801025390625" stroke-width="0.0" fill="rgb(56, 63, 76)" opacity="1.0"/>
    <path d="M 516.0028076171875 539.001708984375 C 513.3225708007812 549.001220703125 506.000732421875 556.3209838867188 495.6304626464844 559.3179321289062 C 485.2405700683594 557.015380859375 477.79388427734375 549.8259887695312 475.05157470703125 539.5874633789062 C 477.84478759765625 528.250244140625 485.3415832519531 521.1027221679688 495.7444763183594 518.7899780273438 C 505.99993896484375 521.6795043945312 513.3201904296875 529.0001220703125 516.0028076171875 539.001708984375" stroke-width="0.0" fill="rgb(57, 66, 79)" opacity="1.0"/>
    <path d="M 420.1485290527344 192.6785888671875 C 419.1611633300781 203.87315368652344 411.88824462890625 211.22055053710938 401.75592041015625 213.83531188964844 C 390.551025390625 210.82843017578125 383.3011779785156 203.4078826904297 380.8241271972656 193.15438842773438 C 383.63421630859375 182.93580627441406 390.90509033203125 175.53353881835938 400.8551940917969 172.93409729003906 C 411.0057373046875 175.6161651611328 418.3117980957031 183.01390075683594 420.1485290527344 192.6785888671875" stroke-width="0.0" fill="rgb(252, 250, 237)" opacity="0.99001634"/>
    <path d="M 343.00653076171875 409.01458740234375 C 340.418212890625 419.1976623535156 333.4063720703125 426.9441833496094 322.2021484375 429.9422912597656 C 312.11126708984375 427.2312927246094 304.7745666503906 419.88623046875 302.04766845703125 408.5828552246094 C 304.76080322265625 398.0914001464844 312.08819580078125 390.7530517578125 322.13690185546875 388.1589050292969 C 332.931640625 391.868408203125 340.3169860839844 399.0104675292969 343.00653076171875 409.01458740234375" stroke-width="0.0" fill="rgb(57, 65, 77)" opacity="1.0"/>
    <path d="M 411.1452331542969 306.1366882324219 C 408.6356201171875 316.31524658203125 401.3216247558594 323.6561279296875 390.90313720703125 326.50946044921875 C 380.7178955078125 323.642333984375 373.3329162597656 316.291015625 370.43145751953125 305.920654296875 C 373.2660827636719 295.650390625 380.6835021972656 288.3720397949219 390.8704833984375 285.86492919921875 C 401.0 288.67950439453125 408.32049560546875 296.0 411.1452331542969 306.1366882324219" stroke-width="0.0" fill="rgb(255, 242, 198)" opacity="0.99115396"/>
    <path d="M 544.9514770507812 104.4813461303711 C 542.226806640625 114.8785629272461 534.87060546875 122.20858764648438 523.7185668945312 124.94438934326172 C 513.126708984375 122.21514129638672 505.78216552734375 114.87451171875 503.0509338378906 103.73338317871094 C 505.7707824707031 93.11019897460938 513.1129760742188 85.77774810791016 524.2581176757812 83.05410766601562 C 534.873046875 85.78507232666016 542.2166137695312 93.12612915039062 544.9514770507812 104.4813461303711" stroke-width="0.0" fill="rgb(58, 65, 77)" opacity="1.0"/>
    <path d="M 474.0957336425781 368.7289123535156 C 471.6011657714844 378.48516845703125 465.20184326171875 386.9831848144531 455.5633850097656 389.8359375 C 444.2101745605469 387.0424499511719 436.7926940917969 379.84100341796875 434.0675964355469 369.5162658691406 C 436.8481750488281 358.2698669433594 444.44610595703125 351.7677001953125 455.7757568359375 348.2295227050781 C 465.59735107421875 350.903076171875 471.6938171386719 359.0133361816406 474.0957336425781 368.7289123535156" stroke-width="0.0" fill="rgb(242, 116, 53)" opacity="0.9900245"/>
    <path d="M 253.94580078125 65.75257110595703 C 251.2147674560547 76.87483978271484 243.87948608398438 84.22566986083984 233.425537109375 86.95420837402344 C 222.13699340820312 84.2094497680664 214.78321838378906 76.8663101196289 212.04306030273438 66.3315658569336 C 214.7793731689453 55.117515563964844 222.11306762695312 47.769378662109375 232.41188049316406 45.051395416259766 C 243.87181091308594 47.78945541381836 251.2185821533203 55.1248664855957 253.94580078125 65.75257110595703" stroke-width="0.0" fill="rgb(57, 63, 77)" opacity="1.0"/>
    <path d="M 432.941162109375 148.33267211914062 C 430.04962158203125 159.5469512939453 422.33770751953125 166.518798828125 411.2557067871094 169.82952880859375 C 401.1820068359375 167.1762237548828 393.89886474609375 159.79188537597656 391.4388732910156 149.5355224609375 C 394.486083984375 138.65330505371094 401.4302673339844 130.92816162109375 412.6071472167969 128.06297302246094 C 422.86029052734375 130.7937469482422 430.20751953125 138.13926696777344 432.941162109375 148.33267211914062" stroke-width="0.0" fill="rgb(59, 65, 78)" opacity="1.0"/>
    <path d="M 150.94859313964844 50.08636474609375 C 148.215576171875 60.87808609008789 140.8824920654297 68.22563934326172 130.3338165283203 70.94959259033203 C 119.13561248779297 68.20793914794922 111.7841796875 60.867950439453125 109.05396270751953 50.42649841308594 C 111.78437042236328 39.11834716796875 119.11233520507812 31.769819259643555 129.62217712402344 29.04863739013672 C 140.8736572265625 31.78138542175293 148.21351623535156 39.12856674194336 150.94859313964844 50.08636474609375" stroke-width="0.0" fill="rgb(59, 65, 78)" opacity="1.0"/>
    <path d="M 459.83740234375 478.7573547363281 C 457.1991882324219 488.861328125 449.8657531738281 496.2105407714844 439.286865234375 498.9400329589844 C 428.146484375 496.2003173828125 420.79974365234375 488.8533630371094 418.04669189453125 477.3678283691406 C 420.76409912109375 467.107666015625 428.1152648925781 459.7824401855469 438.6971435546875 457.0605163574219 C 449.71728515625 459.850830078125 456.7643737792969 467.422119140625 459.83740234375 478.7573547363281" stroke-width="0.0" fill="rgb(60, 67, 80)" opacity="1.0"/>
    <path d="M 352.9536437988281 407.7239074707031 C 350.21722412109375 418.8782043457031 342.8818359375 426.22576904296875 332.8131103515625 428.9357604980469 C 321.77911376953125 425.7652893066406 314.6595458984375 418.0621337890625 311.97491455078125 407.9580078125 C 314.49798583984375 397.7006530761719 321.49365234375 389.98028564453125 331.1943054199219 388.8083190917969 C 342.2388610839844 391.2740478515625 350.16790771484375 397.3009948730469 352.9536437988281 407.7239074707031" stroke-width="0.0" fill="rgb(56, 64, 77)" opacity="0.9900402"/>
    <path d="M 104.88954162597656 10.34931755065918 C 101.0752182006836 20.495952606201172 93.37845611572266 27.605907440185547 83.89496612548828 30.125102996826172 C 74.6027603149414 27.61672019958496 66.54969024658203 20.557849884033203 63.12628173828125 10.549348831176758 C 65.9604263305664 0.405392050743103 73.52901458740234 -6.686135768890381 84.03343963623047 -9.170292854309082 C 94.53630065917969 -6.745006084442139 102.0965347290039 0.33920013904571533 104.88954162597656 10.34931755065918" stroke-width="0.0" fill="rgb(246, 108, 38)" opacity="0.9900688"/>
    <path d="M 82.95642852783203 222.06155395507812 C 80.22850036621094 232.88705444335938 72.88469696044922 240.22276306152344 62.571533203125 242.94236755371094 C 51.347869873046875 240.1175537109375 44.36887741088867 232.46697998046875 41.53588104248047 221.59030151367188 C 43.99103927612305 211.3203125 51.32551193237305 204.00794982910156 62.64164733886719 201.2071990966797 C 72.85851287841797 203.8142547607422 80.21998596191406 211.12857055664062 82.95642852783203 222.06155395507812" stroke-width="0.0" fill="rgb(58, 65, 77)" opacity="1.0"/>
    <path d="M 406.8909606933594 132.17538452148438 C 403.3206787109375 143.0000762939453 396.0000305175781 150.3205108642578 385.9965515136719 153.0013885498047 C 375.9245300292969 150.35166931152344 368.258056640625 143.21681213378906 365.0700988769531 132.18508911132812 C 367.77935791015625 122.13629150390625 375.1655578613281 114.86024475097656 386.6968078613281 112.11873626708984 C 396.87823486328125 114.7870101928711 404.2226257324219 122.11796569824219 406.8909606933594 132.17538452148438" stroke-width="0.0" fill="rgb(56, 63, 76)" opacity="1.0"/>
    <path d="M 278.06207275390625 251.16973876953125 C 275.4324951171875 261.1395263671875 268.145263671875 268.44610595703125 258.9708557128906 271.0491027832031 C 249.5184326171875 268.5041809082031 240.83779907226562 262.6390075683594 238.0452880859375 251.3017120361328 C 240.75741577148438 241.09710693359375 248.10107421875 233.7666473388672 258.2303771972656 231.07008361816406 C 269.8286437988281 233.8348388671875 277.12432861328125 241.1829071044922 278.06207275390625 251.16973876953125" stroke-width="0.0" fill="rgb(86, 19, 17)" opacity="0.990006"/>
    <path d="M 500.80548095703125 506.2487487792969 C 497.3302917480469 517.026611328125 490.0995178222656 524.5563354492188 479.20440673828125 527.8999633789062 C 469.125 525.2131958007812 461.77850341796875 517.87841796875 459.04913330078125 506.8619689941406 C 461.78167724609375 496.1279602050781 469.13238525390625 488.79248046875 480.32781982421875 486.0604248046875 C 490.8703918457031 488.7879943847656 498.2000427246094 496.1339111328125 500.80548095703125 506.2487487792969" stroke-width="0.0" fill="rgb(56, 63, 76)" opacity="1.0"/>
    <path d="M 517.92578125 563.776123046875 C 515.2171630859375 573.8751831054688 507.8714904785156 581.2079467773438 496.7652893066406 583.932373046875 C 486.1297302246094 581.2112426757812 478.78985595703125 573.8696899414062 476.0544738769531 563.3922119140625 C 478.8113708496094 552.1967163085938 486.2699279785156 545.0277099609375 496.6875915527344 542.7509155273438 C 507.0727233886719 545.6525268554688 514.7814331054688 552.763916015625 517.92578125 563.776123046875" stroke-width="0.0" fill="rgb(59, 66, 79)" opacity="1.0"/>
    <path d="M 207.9313507080078 489.67962646484375 C 205.21383666992188 499.87255859375 197.87442016601562 507.2182922363281 187.23678588867188 509.95001220703125 C 176.20315551757812 507.18914794921875 169.0522003173828 499.7132873535156 166.49435424804688 489.0116271972656 C 169.29214477539062 478.74676513671875 176.84518432617188 471.5899658203125 187.0370635986328 468.9614562988281 C 197.3824005126953 471.4361267089844 205.05015563964844 478.43426513671875 207.9313507080078 489.67962646484375" stroke-width="0.0" fill="rgb(58, 64, 77)" opacity="1.0"/>
    <path d="M 328.940185546875 451.39111328125 C 326.19317626953125 462.8516845703125 318.85400390625 470.19927978515625 307.7449035644531 472.9433898925781 C 297.1761474609375 470.1954650878906 289.9513854980469 462.7735595703125 287.0927429199219 451.18841552734375 C 289.7737731933594 441.1117248535156 297.1103515625 433.7703552246094 307.60992431640625 431.0472717285156 C 318.8677673339844 433.787353515625 326.21331787109375 441.1318664550781 328.940185546875 451.39111328125" stroke-width="0.0" fill="rgb(57, 66, 79)" opacity="1.0"/>
    <path d="M 228.94715881347656 433.33837890625 C 226.20697021484375 444.8672790527344 218.8665313720703 452.2046203613281 208.77377319335938 454.83795166015625 C 197.99838256835938 451.3224182128906 190.6775665283203 444.0016174316406 187.32821655273438 433.378173828125 C 189.8807830810547 423.2573547363281 197.39268493652344 417.0547180175781 208.81765747070312 414.8621826171875 C 218.90248107910156 415.77337646484375 226.2422637939453 423.0922546386719 228.94715881347656 433.33837890625" stroke-width="0.0" fill="rgb(55, 61, 73)" opacity="1.0"/>
    <path d="M 590.9457397460938 203.42855834960938 C 588.2246704101562 213.8852081298828 580.8862915039062 221.22755432128906 570.540283203125 223.9480438232422 C 559.1204833984375 221.21629333496094 551.7723388671875 213.88418579101562 549.0637817382812 203.7356719970703 C 551.8027954101562 192.13229370117188 559.1241455078125 184.78089904785156 569.83837890625 182.0504913330078 C 580.8548583984375 184.79335021972656 588.1984252929688 192.14889526367188 590.9457397460938 203.42855834960938" stroke-width="0.0" fill="rgb(58, 64, 78)" opacity="0.9903713"/>
    <path d="M 508.9060974121094 390.6476745605469 C 506.189697265625 400.8410339355469 498.8337097167969 408.1709289550781 488.72076416015625 410.7455749511719 C 478.22332763671875 407.0936584472656 471.0010681152344 399.7473449707031 468.5483703613281 390.2181396484375 C 471.0899658203125 380.2867736816406 478.2000427246094 372.8226318359375 488.69915771484375 369.1960144042969 C 498.8048095703125 371.8395690917969 506.11669921875 379.212158203125 508.9060974121094 390.6476745605469" stroke-width="0.0" fill="rgb(192, 192, 182)" opacity="1.0"/>
    <path d="M 139.05479431152344 375.37457275390625 C 136.4349365234375 385.1382751464844 129.1453857421875 392.4546813964844 119.1190185546875 396.9173278808594 C 109.13195037841797 394.2169494628906 101.79637145996094 386.8623352050781 99.122802734375 376.79901123046875 C 102.68243408203125 366.0009765625 110.00018310546875 358.6795654296875 119.95890808105469 356.0210876464844 C 129.64053344726562 358.8931579589844 136.57789611816406 366.5667419433594 139.05479431152344 375.37457275390625" stroke-width="0.0" fill="rgb(65, 67, 63)" opacity="0.9900188"/>
    <path d="M 144.00636291503906 191.99986267089844 C 141.32424926757812 202.00469970703125 134.0157012939453 209.3632354736328 123.20588684082031 212.87973022460938 C 113.1380844116211 210.20411682128906 105.79578399658203 202.86192321777344 103.04924774169922 191.33689880371094 C 105.76387023925781 181.10804748535156 113.11725616455078 173.78675842285156 123.21492004394531 171.1529998779297 C 134.00149536132812 174.6782684326172 141.32371520996094 181.9979248046875 144.00636291503906 191.99986267089844" stroke-width="0.0" fill="rgb(57, 64, 77)" opacity="1.0"/>
    <path d="M 609.2471313476562 483.0367431640625 C 606.8500366210938 493.634521484375 599.7409057617188 501.1535339355469 589.5049438476562 503.9320068359375 C 578.4119262695312 501.06982421875 571.4241333007812 493.4002990722656 568.9631958007812 483.03790283203125 C 571.5494384765625 472.7439880371094 578.51220703125 464.9827575683594 589.5592651367188 462.064453125 C 599.725341796875 464.852783203125 606.815185546875 472.3932800292969 609.2471313476562 483.0367431640625" stroke-width="0.0" fill="rgb(58, 66, 78)" opacity="1.0"/>
    <path d="M 566.9470825195312 165.7283172607422 C 564.213134765625 176.87545776367188 556.8807373046875 184.22525024414062 546.8292846679688 186.90789794921875 C 535.3313598632812 183.90408325195312 527.839599609375 176.7582244873047 525.0529174804688 165.36204528808594 C 527.7796630859375 155.12744140625 535.1323852539062 147.7906951904297 546.1047973632812 145.05313110351562 C 556.8775634765625 147.78103637695312 564.2188720703125 155.1225128173828 566.9470825195312 165.7283172607422" stroke-width="0.0" fill="rgb(59, 66, 79)" opacity="1.0"/>
    <path d="M 95.94754791259766 486.5254211425781 C 93.20750427246094 497.8629150390625 85.86095428466797 505.2029113769531 74.74958801269531 507.9383239746094 C 64.1245346069336 505.2144775390625 56.78022384643555 497.8776550292969 54.05305480957031 487.17138671875 C 56.78038787841797 476.1225891113281 64.13177490234375 468.805908203125 74.41545867919922 466.1861572265625 C 85.81684875488281 468.88482666015625 93.21194458007812 476.1488952636719 95.94754791259766 486.5254211425781" stroke-width="0.0" fill="rgb(58, 65, 78)" opacity="1.0"/>
    <path d="M 445.9464416503906 174.45310974121094 C 443.183837890625 185.8137969970703 435.7749938964844 193.07907104492188 424.20538330078125 195.90121459960938 C 414.0994567871094 193.2379608154297 406.76922607421875 185.8974151611328 404.049560546875 175.6583251953125 C 406.8814392089844 164.3557891845703 414.557861328125 157.39779663085938 425.7688903808594 154.16122436523438 C 435.86590576171875 156.7967071533203 443.2164306640625 164.12896728515625 445.9464416503906 174.45310974121094" stroke-width="0.0" fill="rgb(56, 63, 76)" opacity="1.0"/>
    <path d="M 225.16378784179688 327.0725402832031 C 222.6199951171875 337.3599548339844 215.43093872070312 344.8415832519531 204.81809997558594 347.4988708496094 C 194.3346710205078 345.0187683105469 186.89073181152344 337.7048645019531 184.13111877441406 327.72943115234375 C 187.3561553955078 316.6588134765625 194.63902282714844 309.2918395996094 205.25962829589844 306.3993225097656 C 215.287353515625 309.2818298339844 222.4833526611328 316.78857421875 225.16378784179688 327.0725402832031" stroke-width="0.0" fill="rgb(252, 240, 186)" opacity="1.0"/>
    <path d="M 258.93511962890625 474.7499084472656 C 256.22760009765625 484.8826904296875 248.8792266845703 492.2198181152344 237.79690551757812 494.9527282714844 C 227.11119079589844 492.2298583984375 219.77684020996094 484.8859558105469 217.0575408935547 474.4794616699219 C 219.7996368408203 463.1419677734375 227.13734436035156 455.78900146484375 238.39895629882812 453.0493469238281 C 248.86557006835938 455.7806396484375 256.1696472167969 463.15386962890625 258.93511962890625 474.7499084472656" stroke-width="0.0" fill="rgb(58, 64, 77)" opacity="0.9904582"/>
    <path d="M 55.9433708190918 352.62408447265625 C 53.2042121887207 363.8577880859375 45.857994079589844 371.2050476074219 35.11838150024414 373.9435119628906 C 24.132368087768555 371.2103271484375 16.783885955810547 363.8700256347656 14.050543785095215 353.4831237792969 C 16.792539596557617 342.13336181640625 24.1310977935791 334.7874450683594 35.42829895019531 332.0555725097656 C 45.87889099121094 334.78021240234375 53.21884536743164 342.12152099609375 55.9433708190918 352.62408447265625" stroke-width="0.0" fill="rgb(57, 64, 77)" opacity="0.99028075"/>
    <path d="M 337.9115905761719 201.42442321777344 C 334.9547424316406 212.33583068847656 326.77984619140625 218.8252410888672 317.4635925292969 221.13232421875 C 307.4256286621094 218.64080810546875 298.9722900390625 212.36460876464844 296.08270263671875 201.78506469726562 C 298.88037109375 191.31494140625 306.5641784667969 185.13934326171875 316.7336120605469 182.90834045410156 C 327.27081298828125 185.2620849609375 335.1217346191406 191.33978271484375 337.9115905761719 201.42442321777344" stroke-width="0.0" fill="rgb(253, 106, 48)" opacity="0.99002594"/>
    <path d="M 144.03656005859375 275.1795349121094 C 141.39056396484375 285.08612060546875 134.09165954589844 292.40509033203125 124.20143127441406 295.2668151855469 C 114.80884552001953 293.42852783203125 107.06461334228516 286.3954162597656 104.07139587402344 275.2386779785156 C 106.78956604003906 265.1348876953125 114.13309478759766 257.78570556640625 124.8595199584961 255.0564727783203 C 135.8499755859375 257.7867736816406 142.38287353515625 265.2340087890625 144.03656005859375 275.1795349121094" stroke-width="0.0" fill="rgb(17, 20, 24)" opacity="0.9900074"/>
    <path d="M 152.94898986816406 116.61221313476562 C 150.2171173095703 127.8772964477539 142.8804473876953 135.2244110107422 132.56082153320312 137.95016479492188 C 121.1386947631836 135.2089385986328 113.82242584228516 127.84957885742188 111.2461929321289 117.70060729980469 C 114.60863494873047 106.83866882324219 121.61400604248047 99.05982208251953 132.7722930908203 96.06092071533203 C 142.88621520996094 98.77545928955078 150.22933959960938 106.11165618896484 152.94898986816406 116.61221313476562" stroke-width="0.0" fill="rgb(58, 65, 78)" opacity="0.9905108"/>
    <path d="M 72.94645690917969 529.5484008789062 C 70.21611022949219 539.858642578125 62.82975769042969 547.1360473632812 52.09095001220703 549.743896484375 C 41.18683624267578 547.123046875 33.81821060180664 539.8328247070312 31.194059371948242 529.73681640625 C 34.679866790771484 519.0003662109375 42.00043869018555 511.68017578125 52.64165115356445 508.3301086425781 C 62.83754348754883 510.8438415527344 70.20336151123047 518.145751953125 72.94645690917969 529.5484008789062" stroke-width="0.0" fill="rgb(59, 65, 78)" opacity="1.0"/>
    <path d="M 423.000244140625 81.9996566772461 C 420.3200988769531 91.99970245361328 412.9997863769531 99.32038116455078 402.40850830078125 102.8043212890625 C 392.7293701171875 99.82594299316406 385.64501953125 92.08760070800781 382.1339416503906 81.20526885986328 C 384.79296875 71.13831329345703 392.1469421386719 63.81586837768555 402.2784729003906 61.21903991699219 C 413.0 64.67947387695312 420.3206787109375 71.99994659423828 423.000244140625 81.9996566772461" stroke-width="0.0" fill="rgb(60, 64, 80)" opacity="1.0"/>
    <path d="M 340.9284973144531 18.58831787109375 C 338.1766662597656 29.83246612548828 330.83538818359375 37.18408203125 320.794921875 39.868316650390625 C 310.475341796875 35.78726577758789 302.3223876953125 28.709779739379883 299.0986022949219 18.33972930908203 C 301.84027099609375 8.196763038635254 309.2044372558594 0.8601625561714172 320.3149108886719 -1.8743841648101807 C 330.8326721191406 0.8285160660743713 338.18695068359375 8.161527633666992 340.9284973144531 18.58831787109375" stroke-width="0.0" fill="rgb(217, 112, 55)" opacity="1.0"/>
    <path d="M 127.12462615966797 303.2763977050781 C 125.785888671875 314.7897644042969 118.86823272705078 322.23431396484375 108.70891571044922 324.95068359375 C 97.220947265625 322.16943359375 90.04313659667969 314.7057800292969 87.73645782470703 304.31158447265625 C 90.67948913574219 294.0 98.0 286.67950439453125 108.12242126464844 283.8464050292969 C 118.41484832763672 286.3622131347656 126.00382995605469 293.45281982421875 127.12462615966797 303.2763977050781" stroke-width="0.0" fill="rgb(60, 65, 79)" opacity="1.0"/>
    <path d="M 95.95401763916016 264.3573303222656 C 93.22199249267578 274.87603759765625 85.87220764160156 282.21295166015625 74.71491241455078 284.94830322265625 C 64.13146209716797 282.2112731933594 56.7883186340332 274.8688659667969 54.05101776123047 263.5152893066406 C 56.779354095458984 253.12510681152344 64.1279525756836 245.785888671875 75.04866027832031 243.05252075195312 C 85.86998748779297 245.7893829345703 93.21746826171875 253.12709045410156 95.95401763916016 264.3573303222656" stroke-width="0.0" fill="rgb(56, 63, 76)" opacity="1.0"/>
    <path d="M 417.9339904785156 527.2867431640625 C 414.97894287109375 538.4502563476562 407.238525390625 545.4472045898438 396.7674560546875 548.2086181640625 C 386.3389892578125 545.8916015625 378.8340148925781 538.7589111328125 376.0527038574219 527.9081420898438 C 378.7899169921875 517.1334838867188 386.13360595703125 509.7900085449219 397.22540283203125 507.05255126953125 C 407.8742370605469 509.78253173828125 415.2129211425781 517.127685546875 417.9339904785156 527.2867431640625" stroke-width="0.0" fill="rgb(60, 66, 79)" opacity="1.0"/>
    <path d="M 72.94586944580078 560.5183715820312 C 70.21155548095703 571.8734130859375 62.87939453125 579.2257690429688 51.37761306762695 581.9635009765625 C 41.09099578857422 579.2471313476562 33.75957107543945 571.90625 31.044998168945312 561.5535278320312 C 33.78623580932617 550.1429443359375 41.17192077636719 542.8680419921875 51.908042907714844 540.2672729492188 C 62.81352615356445 542.8823852539062 70.21043395996094 550.1524658203125 72.94586944580078 560.5183715820312" stroke-width="0.0" fill="rgb(57, 64, 76)" opacity="1.0"/>
    <path d="M 144.85902404785156 488.21051025390625 C 141.32034301757812 499.0001525878906 134.0006103515625 506.3218994140625 124.00172424316406 509.0018310546875 C 114.00245666503906 506.3179016113281 106.68260192871094 498.9974060058594 103.0999984741211 488.18109130859375 C 105.79554748535156 478.1427001953125 113.14337921142578 470.79730224609375 124.14344024658203 468.05621337890625 C 134.86740112304688 470.7885437011719 142.20701599121094 478.13433837890625 144.85902404785156 488.21051025390625" stroke-width="0.0" fill="rgb(60, 66, 79)" opacity="1.0"/>
    <path d="M 43.95128631591797 66.81461334228516 C 41.215946197509766 77.8694839477539 33.866153717041016 85.20817565917969 22.818115234375 87.9482650756836 C 12.147453308105469 85.19847869873047 4.789708614349365 77.85812377929688 3.7703518867492676 67.89789581298828 C 6.5609049797058105 57.85346984863281 13.851584434509277 50.556461334228516 23.872560501098633 47.88206481933594 C 33.87413024902344 48.79477310180664 41.22329330444336 56.1191520690918 43.95128631591797 66.81461334228516" stroke-width="0.0" fill="rgb(65, 72, 83)" opacity="0.9900217"/>
    <path d="M 120.3927230834961 111.41812896728516 C 118.03706359863281 121.76203155517578 110.82054901123047 129.19955444335938 100.26892852783203 131.9503173828125 C 89.1346206665039 129.2107391357422 81.79113006591797 121.86446380615234 79.05266571044922 110.80361938476562 C 81.79310607910156 100.1612777709961 89.20629119873047 92.92064666748047 99.51898956298828 90.53585052490234 C 110.00006103515625 93.67951965332031 117.32113647460938 100.99974822998047 120.3927230834961 111.41812896728516" stroke-width="0.0" fill="rgb(58, 64, 77)" opacity="1.0"/>
    <path d="M 186.9533233642578 196.63633728027344 C 184.24993896484375 206.91729736328125 176.91749572753906 214.25059509277344 166.82044982910156 216.9446258544922 C 155.43690490722656 214.04940795898438 148.4412384033203 206.37730407714844 145.36351013183594 195.39453125 C 147.85484313964844 185.1678924560547 155.1463623046875 177.79388427734375 166.31378173828125 175.0554656982422 C 176.88038635253906 177.78021240234375 184.22145080566406 185.1189422607422 186.9533233642578 196.63633728027344" stroke-width="0.0" fill="rgb(58, 65, 77)" opacity="1.0"/>
    <path d="M 98.78748321533203 455.72418212890625 C 96.18858337402344 465.85382080078125 88.85082244873047 473.1795349121094 78.5470199584961 475.7923278808594 C 67.1852798461914 473.1058044433594 59.7859001159668 465.85247802734375 57.057159423828125 455.4881591796875 C 59.7891845703125 444.1267395019531 67.12504577636719 436.7847595214844 77.32469940185547 434.0666198730469 C 88.59046173095703 436.9348449707031 95.60186767578125 444.5829772949219 98.78748321533203 455.72418212890625" stroke-width="0.0" fill="rgb(57, 64, 77)" opacity="1.0"/>
    <path d="M 177.80462646484375 497.7110900878906 C 175.19302368164062 507.8597717285156 167.8671112060547 515.2125244140625 156.56072998046875 517.9522094726562 C 146.11367797851562 515.227783203125 138.7858123779297 507.8811340332031 136.14418029785156 497.73095703125 C 138.92510986328125 486.2062072753906 146.15989685058594 478.7919006347656 156.5695037841797 476.0522766113281 C 167.77346801757812 478.826904296875 174.91636657714844 486.3162536621094 177.80462646484375 497.7110900878906" stroke-width="0.0" fill="rgb(57, 65, 79)" opacity="1.0"/>
    <path d="M 405.126953125 144.1782684326172 C 402.81829833984375 154.61468505859375 395.7361755371094 162.15711975097656 384.59344482421875 164.9449920654297 C 374.1311950683594 162.21250915527344 366.79144287109375 154.8671112060547 364.0564880371094 144.51718139648438 C 366.9190979003906 133.4259796142578 374.6613464355469 126.49220275878906 384.96820068359375 123.98601531982422 C 394.9997253417969 126.67981719970703 402.3201599121094 134.00027465820312 405.126953125 144.1782684326172" stroke-width="0.0" fill="rgb(58, 65, 77)" opacity="1.0"/>
    <path d="M 121.01403045654297 298.9515686035156 C 118.31255340576172 308.99505615234375 110.99662017822266 316.31793212890625 100.26883697509766 319.78802490234375 C 90.14119720458984 317.1899108886719 82.78731536865234 309.8674011230469 80.05278015136719 298.58306884765625 C 82.77533721923828 288.119140625 90.12383270263672 280.7867431640625 100.29379272460938 278.08221435546875 C 111.4572525024414 281.03631591796875 118.5049057006836 288.7176208496094 121.01403045654297 298.9515686035156" stroke-width="0.0" fill="rgb(60, 66, 79)" opacity="1.0"/>
    <path d="M 138.1036834716797 363.74664306640625 C 136.86766052246094 373.6107482910156 129.658203125 381.0317077636719 119.62056732177734 383.29522705078125 C 109.2657241821289 379.9425048828125 101.88904571533203 372.7911682128906 98.19721984863281 362.241943359375 C 100.80142211914062 352.1294860839844 108.11408996582031 344.7640380859375 118.09915924072266 342.0993957519531 C 128.20431518554688 346.50128173828125 135.48233032226562 353.80224609375 138.1036834716797 363.74664306640625" stroke-width="0.0" fill="rgb(99, 101, 97)" opacity="0.9900486"/>
    <path d="M 596.9158935546875 445.70050048828125 C 594.2067260742188 455.8680419921875 586.8668212890625 463.2031555175781 576.344482421875 465.89569091796875 C 565.1356811523438 463.1939392089844 557.7827758789062 455.8730163574219 555.0906372070312 445.8193664550781 C 558.568603515625 434.96331787109375 565.9964599609375 427.6806640625 576.0177001953125 424.9959716796875 C 586.2134399414062 427.5711669921875 593.9366455078125 434.5904541015625 596.9158935546875 445.70050048828125" stroke-width="0.0" fill="rgb(59, 66, 80)" opacity="1.0"/>
    <path d="M 385.3809509277344 261.0698547363281 C 382.62847900390625 271.4024353027344 375.4997253417969 278.927978515625 365.4608459472656 281.60015869140625 C 355.0 278.32049560546875 347.67950439453125 271.0 344.99993896484375 260.9999084472656 C 347.678955078125 250.99900817871094 354.9981689453125 243.67604064941406 364.9977722167969 240.99595642089844 C 375.0025634765625 243.6787872314453 382.3662414550781 250.98468017578125 385.3809509277344 261.0698547363281" stroke-width="0.0" fill="rgb(252, 238, 191)" opacity="1.0"/>
    <path d="M 535.9411010742188 444.70361328125 C 533.219482421875 454.87750244140625 525.8768920898438 462.2179870605469 514.6674194335938 464.94647216796875 C 504.127685546875 462.21917724609375 496.8052978515625 454.8627624511719 494.1122131347656 444.103759765625 C 496.8022766113281 433.1334533691406 504.1271057128906 425.7847595214844 514.1907348632812 423.0887451171875 C 525.3040161132812 426.3866882324219 533.0232543945312 433.50244140625 535.9411010742188 444.70361328125" stroke-width="0.0" fill="rgb(58, 65, 78)" opacity="1.0"/>
    <path d="M 77.9372787475586 189.7254180908203 C 75.18081665039062 200.80735778808594 67.7593765258789 208.04234313964844 56.27954864501953 210.84292602539062 C 46.12664794921875 208.20794677734375 38.7795295715332 200.87803649902344 36.05500030517578 190.44442749023438 C 38.78679656982422 179.1246337890625 46.122127532958984 171.78070068359375 56.96343994140625 169.05360412597656 C 67.87069702148438 171.78717041015625 75.21163940429688 179.12962341308594 77.9372787475586 189.7254180908203" stroke-width="0.0" fill="rgb(59, 65, 79)" opacity="1.0"/>
    <path d="M 459.9493713378906 45.76092529296875 C 457.2184753417969 56.87639617919922 449.8778381347656 64.22200012207031 439.40985107421875 66.95230102539062 C 428.1245422363281 64.21465301513672 420.7762756347656 56.87942123413086 418.0475769042969 45.911983489990234 C 420.7731628417969 35.111820220947266 428.1101379394531 27.769346237182617 438.6183776855469 25.047054290771484 C 449.8657531738281 27.788515090942383 457.2151184082031 35.132633209228516 459.9493713378906 45.76092529296875" stroke-width="0.0" fill="rgb(56, 65, 75)" opacity="1.0"/>
    <path d="M 294.9062805175781 463.8025207519531 C 292.2180480957031 473.87884521484375 284.8802795410156 481.2214660644531 274.0172424316406 483.9471740722656 C 263.1220703125 481.2221984863281 255.803955078125 473.8678894042969 253.0585174560547 462.3840026855469 C 255.78111267089844 452.1307373046875 263.14312744140625 444.81243896484375 274.6546630859375 442.0676574707031 C 284.8245544433594 444.80078125 292.0445861816406 452.2295227050781 294.9062805175781 463.8025207519531" stroke-width="0.0" fill="rgb(59, 65, 78)" opacity="1.0"/>
    <path d="M 401.92401123046875 424.24688720703125 C 399.1929931640625 435.8668212890625 391.8786315917969 443.2243957519531 381.615234375 445.9450988769531 C 370.1545715332031 443.1902160644531 362.8041076660156 435.84783935546875 360.0499572753906 424.3887939453125 C 362.7669372558594 414.10174560546875 370.0978088378906 406.75799560546875 380.20391845703125 404.1022644042969 C 391.89593505859375 406.7915344238281 399.2460021972656 414.0916442871094 401.92401123046875 424.24688720703125" stroke-width="0.0" fill="rgb(54, 61, 74)" opacity="1.0"/>
    <path d="M 185.376953125 254.95753479003906 C 183.4695587158203 265.2845764160156 176.3610076904297 272.7314758300781 165.67034912109375 274.2436218261719 C 155.7769012451172 272.5753479003906 148.69021606445312 265.15606689453125 146.83311462402344 255.23426818847656 C 149.3251495361328 245.52786254882812 156.39056396484375 237.8513641357422 165.89247131347656 234.74647521972656 C 176.2412872314453 237.51820373535156 183.5253143310547 244.7464141845703 185.376953125 254.95753479003906" stroke-width="0.0" fill="rgb(251, 252, 240)" opacity="1.0"/>
    <path d="M 488.9376220703125 466.7668762207031 C 486.2300109863281 476.8922119140625 478.8932800292969 484.2325744628906 468.6846618652344 486.9475402832031 C 457.26739501953125 484.1527404785156 450.19189453125 476.61151123046875 447.11846923828125 465.19207763671875 C 449.7801208496094 455.123046875 457.13287353515625 447.8069763183594 467.2776184082031 445.22821044921875 C 478.2838134765625 448.516357421875 485.99481201171875 455.51776123046875 488.9376220703125 466.7668762207031" stroke-width="0.0" fill="rgb(57, 63, 76)" opacity="1.0"/>
    <path d="M 126.96141052246094 431.25579833984375 C 124.15187072753906 442.70086669921875 116.52034759521484 449.6749572753906 106.06522369384766 452.0542297363281 C 95.72895812988281 449.46148681640625 87.97415924072266 442.50103759765625 85.05975341796875 431.2937927246094 C 87.77925872802734 421.1207275390625 95.12322998046875 413.78533935546875 106.11418914794922 411.05596923828125 C 116.885986328125 413.78082275390625 124.2408447265625 421.1047058105469 126.96141052246094 431.25579833984375" stroke-width="0.0" fill="rgb(57, 65, 76)" opacity="1.0"/>
    <path d="M 205.9015655517578 10.218810081481934 C 203.1347198486328 20.77928924560547 195.7758331298828 28.126066207885742 184.36329650878906 30.902124404907227 C 174.1599884033203 28.188425064086914 166.81863403320312 20.83722686767578 164.0752716064453 10.495843887329102 C 166.9290313720703 -0.6115974187850952 174.5399932861328 -7.655631065368652 184.99884033203125 -10.115976333618164 C 195.45477294921875 -7.652415752410889 203.05458068847656 -0.5984707474708557 205.9015655517578 10.218810081481934" stroke-width="0.0" fill="rgb(246, 111, 36)" opacity="1.0"/>
    <path d="M 45.590492248535156 217.41944885253906 C 42.32042694091797 227.99993896484375 34.999961853027344 235.32049560546875 24.18635368347168 238.88694763183594 C 14.129183769226074 236.21299743652344 6.792616367340088 228.8685760498047 4.0624098777771 217.7224884033203 C 6.789491653442383 207.13121032714844 14.128939628601074 199.78411865234375 25.283008575439453 197.04910278320312 C 35.85765075683594 199.78353881835938 43.130985260009766 207.1732635498047 45.590492248535156 217.41944885253906" stroke-width="0.0" fill="rgb(58, 64, 81)" opacity="1.0"/>
    <path d="M 288.9468078613281 425.3492431640625 C 286.213134765625 435.87109375 278.8672790527344 443.2025146484375 267.38507080078125 445.93182373046875 C 257.1218566894531 443.219970703125 249.78684997558594 435.8753662109375 247.05105590820312 424.41595458984375 C 249.7639617919922 414.0945739746094 257.08685302734375 406.7458801269531 267.3374328613281 404.031982421875 C 278.87744140625 406.77008056640625 286.2042236328125 414.1341552734375 288.9468078613281 425.3492431640625" stroke-width="0.0" fill="rgb(56, 62, 75)" opacity="1.0"/>
    <path d="M 528.9552001953125 516.771484375 C 526.2149047851562 527.8486938476562 518.8031005859375 535.0831909179688 508.47515869140625 537.4366455078125 C 498.0060729980469 534.3131103515625 490.6878662109375 526.99365234375 487.9352722167969 516.868408203125 C 490.2554626464844 506.4408874511719 497.30072021484375 498.8651123046875 508.5862121582031 496.0588684082031 C 518.884765625 498.7760925292969 526.2282104492188 506.1134948730469 528.9552001953125 516.771484375" stroke-width="0.0" fill="rgb(55, 61, 74)" opacity="0.9901861"/>
    <path d="M 603.77978515625 77.25727844238281 C 600.3182983398438 87.99765014648438 592.9970092773438 95.31604766845703 582.8607788085938 98.11262512207031 C 572.6083984375 95.67505645751953 565.216064453125 88.42478942871094 562.583740234375 77.89891052246094 C 565.0387573242188 67.2822265625 572.2061157226562 59.81709671020508 583.391845703125 57.062049865722656 C 593.8870849609375 59.77473831176758 601.2052001953125 67.12000274658203 603.77978515625 77.25727844238281" stroke-width="0.0" fill="rgb(57, 63, 76)" opacity="1.0"/>
    <path d="M 378.0147399902344 264.02679443359375 C 375.4515075683594 274.2174987792969 368.32818603515625 281.78424072265625 357.42974853515625 284.6405944824219 C 347.4580383300781 281.9631042480469 340.2280578613281 274.4756164550781 337.269775390625 263.4248352050781 C 339.9476623535156 253.35777282714844 347.435302734375 246.17530822753906 357.7794189453125 243.80422973632812 C 368.0 246.6794891357422 375.32049560546875 254.0 378.0147399902344 264.02679443359375" stroke-width="0.0" fill="rgb(252, 238, 191)" opacity="1.0"/>
  </g>
</svg>
