<?xml version="1.0" ?>
<svg xmlns="http://www.w3.org/2000/svg" version="1.1" width="600" height="600">
  <defs/>
  <g>
    <path d="M 272.87493896484375 79.93701171875 C 270.11053466796875 90.75785064697266 262.7587585449219 98.11322021484375 252.08615112304688 100.8869400024414 C 241.23101806640625 98.1199951171875 233.88031005859375 90.76881408691406 231.1066436767578 79.73197174072266 C 233.8629608154297 69.2182846069336 241.22317504882812 61.87550354003906 251.87294006347656 59.12052536010742 C 262.7472839355469 61.89707565307617 270.1045837402344 69.25191497802734 272.87493896484375 79.93701171875" stroke-width="0.0" fill="rgb(56, 184, 255)" opacity="1.0"/>
    <path d="M 605.1574096679688 437.09991455078125 C 602.6052856445312 447.2815246582031 595.3012084960938 454.6712646484375 585.2238159179688 457.5267028808594 C 574.948974609375 454.4726867675781 568.1649169921875 446.7914123535156 565.8113403320312 436.34503173828125 C 567.28564453125 426.7706604003906 574.8890991210938 419.631103515625 585.0034790039062 416.9914245605469 C 595.0410766601562 419.6470031738281 602.3839721679688 426.9495544433594 605.1574096679688 437.09991455078125" stroke-width="0.0" fill="rgb(252, 251, 251)" opacity="1.0"/>
    <path d="M 589.9411010742188 237.32237243652344 C 586.9740600585938 248.20925903320312 578.7210083007812 255.06346130371094 568.2592163085938 258.9285583496094 C 558.38330078125 256.10552978515625 551.440185546875 248.39710998535156 548.9760131835938 238.04652404785156 C 551.6795043945312 228.0 559.0 220.6794891357422 569.168212890625 217.8862762451172 C 579.6239013671875 220.1846160888672 587.1728515625 227.2472381591797 589.9411010742188 237.32237243652344" stroke-width="0.0" fill="rgb(129, 128, 126)" opacity="0.9902449"/>
    <path d="M 258.9156799316406 177.2010498046875 C 256.166259765625 187.82154846191406 248.8264617919922 195.17861938476562 238.13778686523438 197.93186950683594 C 227.17173767089844 195.1782989501953 219.82586669921875 187.8265838623047 217.09400939941406 177.63726806640625 C 220.37722778320312 167.33975219726562 228.50709533691406 160.25851440429688 238.3844757080078 157.4848175048828 C 248.51683044433594 159.3555450439453 256.104248046875 166.3346405029297 258.9156799316406 177.2010498046875" stroke-width="0.0" fill="rgb(252, 90, 72)" opacity="0.99008864"/>
    <path d="M 602.01904296875 187.90203857421875 C 599.412109375 198.14524841308594 592.1287841796875 205.33163452148438 581.5592651367188 207.26519775390625 C 571.9293212890625 205.3867950439453 564.592529296875 198.076416015625 561.5255737304688 187.95144653320312 C 564.3218383789062 177.6793975830078 571.7208862304688 170.4582061767578 581.9655151367188 168.0153350830078 C 592.216064453125 170.4905548095703 599.5372314453125 177.77708435058594 602.01904296875 187.90203857421875" stroke-width="0.0" fill="rgb(252, 252, 251)" opacity="0.99143475"/>
    <path d="M 512.0 573.0 C 509.3205261230469 583.0001220703125 502.0023498535156 590.3287963867188 491.7942810058594 593.4254760742188 C 481.5962829589844 590.7655029296875 474.3080749511719 583.3807983398438 471.827392578125 573.1654052734375 C 474.67950439453125 563.0 482.0 555.6795043945312 492.0 553.0 C 502.0 555.6795043945312 509.32049560546875 563.0 512.0 573.0" stroke-width="0.0" fill="rgb(255, 255, 255)" opacity="0.9923994"/>
    <path d="M 345.46490478515625 357.6156005859375 C 342.322021484375 368.00445556640625 335.02288818359375 375.38604736328125 324.4190979003906 378.75238037109375 C 314.26361083984375 376.0842590332031 306.8960266113281 368.7438049316406 304.1117248535156 357.8453674316406 C 306.8995056152344 347.31829833984375 314.4505310058594 340.40460205078125 324.804443359375 338.775146484375 C 335.3937683105469 340.58929443359375 342.9049377441406 347.4928283691406 345.46490478515625 357.6156005859375" stroke-width="0.0" fill="rgb(254, 175, 112)" opacity="0.99153066"/>
    <path d="M 586.2467651367188 95.90438079833984 C 583.1456298828125 105.88983154296875 575.9318237304688 113.28126525878906 565.939453125 116.06470489501953 C 555.86279296875 113.45264434814453 548.4740600585938 106.1598892211914 545.8353881835938 96.11150360107422 C 548.6795043945312 86.0 556.0 78.67948913574219 566.0040283203125 75.99801635742188 C 576.0474243164062 78.65531921386719 583.47802734375 85.91139221191406 586.2467651367188 95.90438079833984" stroke-width="0.0" fill="rgb(255, 255, 255)" opacity="0.9914936"/>
    <path d="M 28.033302307128906 369.5282897949219 C 25.42001724243164 378.1572265625 18.255781173706055 385.90496826171875 9.806806564331055 388.0643005371094 C -0.2673436403274536 385.4770812988281 -7.876193523406982 378.4136047363281 -10.844234466552734 368.9942932128906 C -7.906182289123535 359.533935546875 -0.3800400495529175 352.37567138671875 8.220312118530273 349.37872314453125 C 18.105314254760742 352.5835266113281 25.398914337158203 359.9014587402344 28.033302307128906 369.5282897949219" stroke-width="0.0" fill="rgb(35, 34, 34)" opacity="0.99000406"/>
    <path d="M 319.8741149902344 527.3749389648438 C 317.1087646484375 537.7538452148438 309.7576904296875 545.1188354492188 299.4939270019531 547.88037109375 C 288.26373291015625 545.0738525390625 280.87445068359375 537.7562255859375 278.11236572265625 527.46826171875 C 280.9759521484375 516.4091186523438 288.51275634765625 509.2765808105469 298.9046325683594 506.8524475097656 C 309.35736083984375 509.43450927734375 316.97039794921875 516.499755859375 319.8741149902344 527.3749389648438" stroke-width="0.0" fill="rgb(57, 181, 255)" opacity="1.0"/>
    <path d="M 336.4576110839844 33.91618728637695 C 335.08367919921875 42.8856086730957 326.2857666015625 49.48694610595703 317.166259765625 52.05359649658203 C 307.80792236328125 49.45322799682617 299.4513244628906 42.30848693847656 296.1185607910156 33.86629867553711 C 300.6011047363281 23.917795181274414 307.9250793457031 16.62058448791504 317.63232421875 13.974285125732422 C 326.0797119140625 16.613540649414062 333.3874206542969 23.919937133789062 336.4576110839844 33.91618728637695" stroke-width="0.0" fill="rgb(2, 2, 2)" opacity="0.99000305"/>
    <path d="M 60.675296783447266 464.190185546875 C 58.318809509277344 473.99932861328125 50.99979782104492 481.3204345703125 40.757568359375 484.4235534667969 C 30.80335807800293 481.6075134277344 23.401206970214844 474.19464111328125 20.42152214050293 464.03668212890625 C 23.366239547729492 453.7770080566406 30.81756591796875 446.48602294921875 40.7234001159668 444.8646240234375 C 50.94961166381836 446.7153015136719 58.082252502441406 454.12042236328125 60.675296783447266 464.190185546875" stroke-width="0.0" fill="rgb(251, 251, 250)" opacity="0.99148566"/>
    <path d="M 413.3831481933594 173.62046813964844 C 410.32049560546875 184.0 403.0 191.3205108642578 392.3450927734375 194.78329467773438 C 382.2598571777344 192.09494018554688 374.9040222167969 184.74075317382812 372.2568664550781 174.6309051513672 C 375.6792297363281 163.99917602539062 382.9941711425781 156.6612091064453 393.6918029785156 153.18209838867188 C 403.7360534667969 155.88201904296875 410.979736328125 163.31187438964844 413.3831481933594 173.62046813964844" stroke-width="0.0" fill="rgb(58, 184, 255)" opacity="1.0"/>
    <path d="M 84.88404846191406 255.1739501953125 C 82.1096420288086 265.7503967285156 74.74922180175781 273.1067810058594 64.18262481689453 275.88226318359375 C 53.28042221069336 273.0824279785156 45.92156219482422 265.71807861328125 43.13287353515625 254.80943298339844 C 45.898155212402344 244.25270080566406 53.25680923461914 236.90924072265625 64.37312316894531 234.1198272705078 C 74.7327651977539 236.90159606933594 82.09658813476562 244.26766967773438 84.88404846191406 255.1739501953125" stroke-width="0.0" fill="rgb(56, 182, 255)" opacity="1.0"/>
    <path d="M 61.137638092041016 516.841552734375 C 58.3051872253418 527.0771484375 51.17287063598633 534.6116333007812 41.113216400146484 537.4420166015625 C 30.670122146606445 534.6109008789062 23.19913673400879 527.391357421875 20.513072967529297 517.3416137695312 C 23.677736282348633 506.9964599609375 30.993247985839844 499.6668395996094 41.17445373535156 496.4757080078125 C 51.23573303222656 499.407958984375 58.59988021850586 506.7596740722656 61.137638092041016 516.841552734375" stroke-width="0.0" fill="rgb(255, 255, 255)" opacity="0.99093115"/>
    <path d="M 31.406394958496094 146.15345764160156 C 28.682323455810547 156.30006408691406 21.30231475830078 163.6880340576172 11.17510986328125 166.5220184326172 C 0.9675735235214233 163.3710174560547 -6.354037284851074 156.0286407470703 -9.040667533874512 145.97459411621094 C -6.441779136657715 135.8549346923828 0.8328210115432739 128.485595703125 10.998881340026855 125.84931182861328 C 21.28782844543457 128.4333953857422 28.68429946899414 135.676025390625 31.406394958496094 146.15345764160156" stroke-width="0.0" fill="rgb(255, 255, 255)" opacity="0.99083436"/>
    <path d="M 483.0926513671875 33.01847457885742 C 480.5289611816406 43.27287673950195 473.3335876464844 50.73066329956055 462.86297607421875 53.596343994140625 C 452.41326904296875 50.93452453613281 445.1280212402344 43.56833267211914 442.94061279296875 33.39469909667969 C 445.8520202636719 22.89804458618164 452.7231750488281 15.261658668518066 462.79522705078125 12.341195106506348 C 473.16168212890625 15.398150444030762 480.3926696777344 22.907215118408203 483.0926513671875 33.01847457885742" stroke-width="0.0" fill="rgb(255, 255, 255)" opacity="0.99073267"/>
    <path d="M 148.13449096679688 518.764404296875 C 147.11474609375 528.5364990234375 138.3826446533203 534.4761352539062 128.22291564941406 537.1384887695312 C 119.0 535.3204956054688 111.67948913574219 528.0 109.93087005615234 518.8168334960938 C 112.2939682006836 507.3832092285156 118.25826263427734 499.9465637207031 128.25830078125 498.92230224609375 C 138.24949645996094 501.4866943359375 145.55848693847656 508.7315979003906 148.13449096679688 518.764404296875" stroke-width="0.0" fill="rgb(2, 2, 2)" opacity="0.9900038"/>
    <path d="M 275.8415832519531 376.65960693359375 C 273.16815185546875 386.830322265625 265.8402099609375 394.1929931640625 254.8032684326172 396.94000244140625 C 244.1385040283203 394.2069091796875 236.7971649169922 386.8596496582031 234.06072998046875 376.4146423339844 C 236.8218994140625 365.1880187988281 244.22174072265625 357.91571044921875 254.7171173095703 355.39581298828125 C 265.61688232421875 358.03411865234375 272.95330810546875 365.38787841796875 275.8415832519531 376.65960693359375" stroke-width="0.0" fill="rgb(250, 90, 54)" opacity="0.9901198"/>
    <path d="M 365.9108581542969 370.49737548828125 C 363.1849670410156 380.83746337890625 355.8367004394531 388.1834716796875 345.59576416015625 390.91217041015625 C 334.269775390625 388.106689453125 327.0059509277344 380.69097900390625 324.56231689453125 370.4110107421875 C 327.6680908203125 359.9673767089844 334.87994384765625 352.40411376953125 345.570556640625 349.16741943359375 C 355.7323303222656 351.91131591796875 363.1123962402344 359.2579650878906 365.9108581542969 370.49737548828125" stroke-width="0.0" fill="rgb(252, 178, 106)" opacity="1.0"/>
    <path d="M 335.1878662109375 142.3282012939453 C 332.9519348144531 152.642578125 325.68023681640625 160.05963134765625 315.41522216796875 162.8020782470703 C 304.55413818359375 159.8493194580078 297.2234802246094 152.41864013671875 294.3382568359375 142.1127166748047 C 297.2410583496094 131.61331176757812 304.6589660644531 124.3966064453125 315.2441101074219 122.6648941040039 C 325.3436584472656 124.30664825439453 332.7436218261719 131.63949584960938 335.1878662109375 142.3282012939453" stroke-width="0.0" fill="rgb(252, 232, 170)" opacity="1.0"/>
    <path d="M 523.4583740234375 559.1808471679688 C 521.163330078125 568.865478515625 513.86083984375 576.1526489257812 503.922119140625 578.89990234375 C 494.0 576.3204956054688 486.67950439453125 569.0 483.97418212890625 558.9716186523438 C 486.5921630859375 548.9038696289062 493.8849792480469 541.5276489257812 503.7127990722656 538.8561401367188 C 513.834716796875 541.9386596679688 521.0508422851562 549.166748046875 523.4583740234375 559.1808471679688" stroke-width="0.0" fill="rgb(255, 255, 255)" opacity="0.99104226"/>
    <path d="M 32.120635986328125 186.8843231201172 C 29.53180694580078 196.2215118408203 22.219318389892578 203.52743530273438 12.366254806518555 206.6280059814453 C 2.7194652557373047 204.6787567138672 -4.497663497924805 197.223876953125 -7.0577778816223145 187.0331573486328 C -4.395939350128174 176.9022216796875 2.858762502670288 169.46267700195312 12.937862396240234 166.59291076660156 C 22.818927764892578 169.58621215820312 29.72452163696289 177.40560913085938 32.120635986328125 186.8843231201172" stroke-width="0.0" fill="rgb(252, 252, 251)" opacity="1.0"/>
    <path d="M 436.8955383300781 508.9427185058594 C 434.12249755859375 519.7686157226562 426.7662048339844 527.1159057617188 416.1238098144531 529.8678588867188 C 405.2539367675781 527.09912109375 397.8861389160156 519.7517700195312 395.10577392578125 509.21771240234375 C 397.9136962890625 498.2821350097656 405.2801208496094 490.9089660644531 415.88800048828125 488.11175537109375 C 426.7443542480469 490.89984130859375 434.1115417480469 498.2511901855469 436.8955383300781 508.9427185058594" stroke-width="0.0" fill="rgb(57, 185, 255)" opacity="1.0"/>
    <path d="M 32.44352340698242 101.66832733154297 C 29.22860336303711 111.9592514038086 21.984451293945312 119.31350708007812 11.99902629852295 121.99954986572266 C 2.0 119.32051086425781 -5.320508003234863 112.0 -8.001850128173828 101.99632263183594 C -5.34316349029541 91.95462799072266 1.903421401977539 84.49236297607422 12.087275505065918 81.46865844726562 C 22.212352752685547 84.35906219482422 29.569202423095703 91.81600189208984 32.44352340698242 101.66832733154297" stroke-width="0.0" fill="rgb(255, 255, 255)" opacity="0.99114424"/>
    <path d="M 84.87964630126953 421.09503173828125 C 82.11902618408203 431.772216796875 74.78148651123047 439.142822265625 64.68826293945312 441.8872375488281 C 54.55466079711914 437.9098815917969 47.39701461791992 430.3616027832031 44.719207763671875 420.2499694824219 C 45.899417877197266 410.2560119628906 53.26169204711914 402.9114685058594 63.80946731567383 400.1239318847656 C 74.7411880493164 402.9055480957031 82.10371398925781 410.2552490234375 84.87964630126953 421.09503173828125" stroke-width="0.0" fill="rgb(60, 182, 252)" opacity="1.0"/>
    <path d="M 335.8412780761719 409.2853088378906 C 332.8459167480469 420.4449462890625 325.3756103515625 427.6252136230469 315.09930419921875 430.0747375488281 C 305.0 427.32049560546875 297.67950439453125 420.0 294.86419677734375 409.82440185546875 C 297.20977783203125 399.4331970214844 304.3267517089844 391.9033508300781 315.5933532714844 389.0804748535156 C 325.8443603515625 391.8109436035156 333.1877746582031 399.1558837890625 335.8412780761719 409.2853088378906" stroke-width="0.0" fill="rgb(235, 43, 31)" opacity="0.990226"/>
    <path d="M 519.5634155273438 164.50662231445312 C 516.36572265625 175.0959930419922 509.2218017578125 182.72462463378906 498.4227600097656 185.8585662841797 C 488.246337890625 183.1165313720703 480.89642333984375 175.74844360351562 478.15460205078125 165.4967803955078 C 481.0877990722656 154.41836547851562 488.36846923828125 146.96185302734375 499.2619934082031 144.13597106933594 C 509.7177429199219 146.91525268554688 517.03369140625 154.3004608154297 519.5634155273438 164.50662231445312" stroke-width="0.0" fill="rgb(58, 185, 255)" opacity="1.0"/>
    <path d="M 261.6641845703125 142.69825744628906 C 258.86181640625 153.50697326660156 251.5200958251953 160.9014129638672 240.78038024902344 163.82057189941406 C 230.44029235839844 160.96243286132812 223.13424682617188 153.52439880371094 220.35154724121094 142.71371459960938 C 223.0134735107422 132.4149627685547 230.5263671875 125.4710693359375 241.54742431640625 123.6852798461914 C 251.6989288330078 124.97492980957031 259.02557373046875 132.30162048339844 261.6641845703125 142.69825744628906" stroke-width="0.0" fill="rgb(252, 228, 170)" opacity="1.0"/>
    <path d="M 429.873779296875 185.102294921875 C 427.09466552734375 195.72946166992188 419.7290344238281 203.09413146972656 408.9978332519531 205.88917541503906 C 398.23980712890625 203.1228790283203 390.9512634277344 195.73484802246094 388.4990539550781 185.47882080078125 C 391.67974853515625 175.00010681152344 399.0000305175781 167.67950439453125 409.667724609375 164.21363830566406 C 419.7538146972656 166.8894500732422 427.09429931640625 174.2524871826172 429.873779296875 185.102294921875" stroke-width="0.0" fill="rgb(57, 183, 255)" opacity="1.0"/>
    <path d="M 571.0650024414062 240.09158325195312 C 568.6243896484375 250.39822387695312 561.5081787109375 257.9508361816406 550.5082397460938 260.86431884765625 C 540.2373046875 258.1151428222656 532.8707885742188 250.7683563232422 530.1066284179688 240.297119140625 C 532.8970336914062 229.25772094726562 540.2669067382812 221.92181396484375 550.4149169921875 219.31390380859375 C 561.0 222.6794891357422 568.3204956054688 230.0 571.0650024414062 240.09158325195312" stroke-width="0.0" fill="rgb(59, 188, 255)" opacity="0.9912288"/>
    <path d="M 88.31686401367188 554.7473754882812 C 85.07402801513672 564.8870849609375 77.9871597290039 572.370361328125 68.3051986694336 574.665771484375 C 58.2424201965332 571.9606323242188 50.84804916381836 564.8226928710938 48.33356857299805 555.1547241210938 C 50.92623519897461 545.0767822265625 58.001949310302734 537.7302856445312 68.05272674560547 535.1193237304688 C 78.09285736083984 537.6217041015625 85.43636322021484 544.8915405273438 88.31686401367188 554.7473754882812" stroke-width="0.0" fill="rgb(255, 255, 255)" opacity="0.9905018"/>
    <path d="M 465.00262451171875 569.0072021484375 C 462.35205078125 579.0408935546875 455.0169677734375 586.2604370117188 444.6769714355469 589.3834838867188 C 434.8330383300781 586.6307983398438 428.0397033691406 578.9210205078125 425.86126708984375 569.3536376953125 C 427.8992614746094 559.05615234375 434.9649963378906 551.6215209960938 444.975341796875 548.9723510742188 C 455.0 551.6795043945312 462.32049560546875 559.0 465.00262451171875 569.0072021484375" stroke-width="0.0" fill="rgb(251, 250, 250)" opacity="1.0"/>
    <path d="M 209.76666259765625 490.4680480957031 C 206.5928192138672 501.4001770019531 199.56787109375 509.0443420410156 189.68507385253906 511.83441162109375 C 178.99998474121094 508.3205871582031 171.6794891357422 501.0 169.0 491.0 C 171.6794891357422 481.0 179.0 473.67950439453125 189.0073699951172 470.9967346191406 C 199.1218719482422 473.6239013671875 206.826904296875 480.7084655761719 209.76666259765625 490.4680480957031" stroke-width="0.0" fill="rgb(57, 182, 255)" opacity="1.0"/>
    <path d="M 553.1265869140625 578.8447265625 C 550.5977783203125 589.3035278320312 543.2864990234375 596.5333862304688 532.833251953125 599.2980346679688 C 522.969482421875 596.4085693359375 515.677734375 589.00537109375 513.10595703125 579.0469360351562 C 515.71435546875 568.9761962890625 522.9521484375 561.63037109375 533.0509643554688 558.6112670898438 C 542.91748046875 561.7488403320312 550.2977905273438 569.0687866210938 553.1265869140625 578.8447265625" stroke-width="0.0" fill="rgb(255, 255, 255)" opacity="0.99075794"/>
    <path d="M 137.7413787841797 542.2109375 C 134.0950164794922 553.0718994140625 127.1712646484375 560.4779052734375 117.04932403564453 563.037109375 C 106.99149322509766 560.3243408203125 99.64734649658203 553.0169067382812 97.00885009765625 542.983642578125 C 99.52970886230469 532.7059326171875 106.44762420654297 524.9249877929688 117.83990478515625 522.032470703125 C 127.91307830810547 524.7433471679688 135.21646118164062 532.1023559570312 137.7413787841797 542.2109375" stroke-width="0.0" fill="rgb(252, 252, 250)" opacity="0.99140036"/>
    <path d="M 137.62940979003906 23.914609909057617 C 134.57012939453125 34.191627502441406 127.15284729003906 41.44427490234375 117.10968017578125 44.254661560058594 C 107.0000228881836 41.3204231262207 99.67948913574219 34.0 96.7563247680664 23.800880432128906 C 99.29679870605469 13.648776054382324 106.67645263671875 6.39516019821167 116.89188385009766 4.339858531951904 C 127.02153778076172 6.84736442565918 134.61300659179688 13.832178115844727 137.62940979003906 23.914609909057617" stroke-width="0.0" fill="rgb(255, 255, 255)" opacity="0.99070674"/>
    <path d="M 92.72228240966797 61.583736419677734 C 90.0425796508789 72.03501892089844 83.23028564453125 79.66205596923828 73.21568298339844 82.44157409667969 C 62.75685119628906 79.54110717773438 55.53421401977539 72.22603607177734 52.765567779541016 61.755130767822266 C 55.8385124206543 52.20552062988281 63.22458267211914 44.90678787231445 73.13411712646484 41.6109619140625 C 83.27070617675781 44.403045654296875 90.59526824951172 51.73091506958008 92.72228240966797 61.583736419677734" stroke-width="0.0" fill="rgb(255, 255, 255)" opacity="0.9904688"/>
    <path d="M 543.9083862304688 176.6029815673828 C 541.1362915039062 187.76730346679688 533.7537231445312 195.1034698486328 522.7631225585938 197.8907928466797 C 512.2559814453125 195.11599731445312 504.9578552246094 187.71717834472656 502.44635009765625 177.49342346191406 C 505.62799072265625 166.8877410888672 512.732177734375 159.20526123046875 523.646484375 156.11538696289062 C 533.8151245117188 158.83274841308594 541.1755981445312 166.1814727783203 543.9083862304688 176.6029815673828" stroke-width="0.0" fill="rgb(58, 183, 252)" opacity="1.0"/>
    <path d="M 73.8844223022461 340.1856384277344 C 71.10897064208984 350.7431640625 63.73189163208008 358.0799865722656 52.6868896484375 360.8677978515625 C 42.22669982910156 358.12261962890625 34.84044647216797 350.7888488769531 32.09142303466797 340.637939453125 C 34.87868118286133 329.2323913574219 42.23329544067383 321.8815002441406 53.166812896728516 319.1196594238281 C 63.7678337097168 321.8734130859375 71.10720825195312 329.2398681640625 73.8844223022461 340.1856384277344" stroke-width="0.0" fill="rgb(58, 179, 251)" opacity="1.0"/>
    <path d="M 603.0817260742188 419.01361083984375 C 600.4066772460938 429.0532531738281 593.0333862304688 436.3406677246094 583.0226440429688 438.9901428222656 C 573.1295776367188 436.2381591796875 565.9186401367188 428.8212585449219 563.2073974609375 419.25274658203125 C 565.9713134765625 409.1758117675781 573.1011352539062 401.7392578125 583.1051635742188 398.9009094238281 C 593.2028198242188 401.4570007324219 600.4696655273438 408.818603515625 603.0817260742188 419.01361083984375" stroke-width="0.0" fill="rgb(252, 252, 251)" opacity="0.993259"/>
    <path d="M 560.1156005859375 410.6910095214844 C 557.6122436523438 420.44232177734375 550.98974609375 428.9814758300781 541.249267578125 431.8946838378906 C 530.2260131835938 429.1335144042969 522.8866577148438 421.765869140625 520.1157836914062 411.0832214355469 C 522.9088134765625 400.2768859863281 530.2859497070312 392.93243408203125 540.9481811523438 390.1519775390625 C 551.4380493164062 393.0232238769531 557.7807006835938 401.10137939453125 560.1156005859375 410.6910095214844" stroke-width="0.0" fill="rgb(54, 185, 252)" opacity="1.0"/>
    <path d="M 207.4292755126953 21.40691566467285 C 205.83897399902344 31.40237045288086 198.32920837402344 38.625450134277344 187.66883850097656 41.5119743347168 C 177.40933227539062 38.918270111083984 170.12142944335938 31.579803466796875 167.52345275878906 20.94561195373535 C 170.3734893798828 10.782474517822266 177.87953186035156 3.7230324745178223 188.35910034179688 0.6497268676757812 C 198.33656311035156 3.334038496017456 205.62692260742188 10.672889709472656 207.4292755126953 21.40691566467285" stroke-width="0.0" fill="rgb(251, 250, 251)" opacity="1.0"/>
    <path d="M 163.3150177001953 379.6921691894531 C 160.53172302246094 390.31768798828125 153.4656982421875 397.94622802734375 142.66429138183594 400.8623962402344 C 132.24237060546875 398.1056823730469 124.87034606933594 390.7670593261719 122.10786437988281 380.3945617675781 C 124.90316009521484 369.2585754394531 132.25624084472656 361.89703369140625 143.46710205078125 359.1241149902344 C 153.74691772460938 361.8643493652344 160.95852661132812 369.3139953613281 163.3150177001953 379.6921691894531" stroke-width="0.0" fill="rgb(58, 181, 252)" opacity="1.0"/>
    <path d="M 79.88516235351562 301.00628662109375 C 77.10694122314453 311.7445983886719 69.73776245117188 319.0893249511719 58.57052230834961 321.88262939453125 C 48.22166442871094 319.1361389160156 40.881370544433594 311.7712707519531 38.1196174621582 301.1441955566406 C 40.91497039794922 290.2687683105469 48.26264572143555 282.8997802734375 59.292911529541016 280.1112060546875 C 69.7900161743164 282.8580322265625 77.12935638427734 290.2149658203125 79.88516235351562 301.00628662109375" stroke-width="0.0" fill="rgb(56, 183, 255)" opacity="1.0"/>
    <path d="M 26.999961853027344 105.00003051757812 C 24.32050895690918 115.0 17.0 122.32051086425781 7.0 125.0 C -3.0 122.32051086425781 -10.320508003234863 115.0 -12.999999046325684 104.99999237060547 C -10.32058334350586 94.99978637695312 -3.0005900859832764 87.67810821533203 6.998874664306641 84.99779510498047 C 16.999935150146484 87.67957305908203 24.320444107055664 95.00006103515625 26.999961853027344 105.00003051757812" stroke-width="0.0" fill="rgb(255, 254, 254)" opacity="0.9984904"/>
    <path d="M 112.93022155761719 524.1590576171875 C 109.38722229003906 535.0728149414062 102.14778137207031 542.6107788085938 92.43924713134766 545.5394287109375 C 82.14739227294922 542.11328125 74.80606842041016 534.8768310546875 72.06121826171875 524.9489135742188 C 74.6800308227539 515.00146484375 82.00446319580078 507.6905517578125 91.9896469116211 505.0818176269531 C 102.51228332519531 507.4295654296875 110.16740417480469 514.2826538085938 112.93022155761719 524.1590576171875" stroke-width="0.0" fill="rgb(251, 251, 249)" opacity="1.0"/>
    <path d="M 332.43603515625 473.284912109375 C 329.69842529296875 483.2232360839844 322.0862121582031 490.2720031738281 311.8835144042969 493.0009460449219 C 301.7963562011719 490.51690673828125 294.407958984375 483.226318359375 291.528564453125 472.67364501953125 C 294.20928955078125 462.5700988769531 301.5780334472656 455.23675537109375 311.6567077636719 453.5501708984375 C 322.0341796875 455.6171569824219 329.3277587890625 462.9825744628906 332.43603515625 473.284912109375" stroke-width="0.0" fill="rgb(252, 252, 248)" opacity="1.0"/>
    <path d="M 21.181617736816406 489.85528564453125 C 18.320510864257812 500.0 11.000070571899414 507.32073974609375 0.8748879432678223 510.33819580078125 C -9.007486343383789 507.3457336425781 -16.3206787109375 500.0005798339844 -19.000001907348633 490.0 C -16.320507049560547 480.0 -8.999947547912598 472.6796875 1.1788369417190552 469.67401123046875 C 11.226243019104004 472.4337463378906 18.60772132873535 479.7586364746094 21.181617736816406 489.85528564453125" stroke-width="0.0" fill="rgb(255, 255, 255)" opacity="0.9922092"/>
    <path d="M 93.56245422363281 515.3770141601562 C 91.30882263183594 524.9930419921875 83.98635864257812 532.28515625 73.6372299194336 535.4940185546875 C 63.6295166015625 532.7527465820312 56.32394027709961 525.3460693359375 53.85294723510742 515.2051391601562 C 56.77996826171875 505.0704345703125 64.05036926269531 497.7138671875 74.44756317138672 494.3385925292969 C 83.6278076171875 497.3426513671875 90.70816802978516 505.5462341308594 93.56245422363281 515.3770141601562" stroke-width="0.0" fill="rgb(252, 251, 250)" opacity="1.0"/>
    <path d="M 490.8685302734375 256.09478759765625 C 488.093505859375 266.71063232421875 480.6380920410156 273.82012939453125 469.65380859375 275.2763977050781 C 459.6514892578125 273.677490234375 452.06646728515625 266.4552917480469 449.3762512207031 255.84112548828125 C 451.93511962890625 245.27743530273438 459.2672119140625 237.90725708007812 470.205810546875 235.12754821777344 C 480.7523193359375 237.8909149169922 488.09857177734375 245.25181579589844 490.8685302734375 256.09478759765625" stroke-width="0.0" fill="rgb(61, 182, 252)" opacity="1.0"/>
    <path d="M 272.770751953125 440.91241455078125 C 269.84173583984375 451.3791809082031 262.2008361816406 458.1920166015625 252.1098175048828 460.1902770996094 C 242.44313049316406 457.8406982421875 235.14401245117188 450.5616760253906 232.79774475097656 440.4886169433594 C 234.07879638671875 430.4700622558594 241.50604248046875 423.1830749511719 252.101318359375 420.4311828613281 C 262.5085144042969 423.1626281738281 269.9231262207031 430.4620056152344 272.770751953125 440.91241455078125" stroke-width="0.0" fill="rgb(252, 229, 170)" opacity="1.0"/>
    <path d="M 186.8450164794922 383.87591552734375 C 184.2255859375 393.8691711425781 176.8456268310547 401.1677551269531 166.58566284179688 403.8690185546875 C 155.47291564941406 400.9749450683594 148.6422119140625 393.36383056640625 146.66238403320312 382.80523681640625 C 148.28697204589844 372.4740905761719 155.4298095703125 365.1075134277344 165.3656463623047 363.8740234375 C 175.28941345214844 366.4331970214844 182.57012939453125 373.7096862792969 186.8450164794922 383.87591552734375" stroke-width="0.0" fill="rgb(49, 124, 162)" opacity="0.9900351"/>
    <path d="M 426.8699645996094 437.9200439453125 C 424.09613037109375 448.7398376464844 416.7388916015625 456.0936279296875 405.940673828125 458.866455078125 C 395.2407531738281 456.1094055175781 387.88726806640625 448.7603759765625 385.1272277832031 438.3072204589844 C 387.953857421875 427.36871337890625 395.4541015625 420.2060546875 406.3804626464844 417.4595947265625 C 416.7077941894531 419.9736022949219 424.09844970703125 427.2673645019531 426.8699645996094 437.9200439453125" stroke-width="0.0" fill="rgb(56, 184, 255)" opacity="1.0"/>
    <path d="M 332.9272155761719 426.7237854003906 C 330.21405029296875 436.87420654296875 322.8747253417969 444.21514892578125 312.0214538574219 446.9428405761719 C 301.1261901855469 444.2143249511719 293.7859191894531 436.8737487792969 291.1151428222656 426.8125915527344 C 294.67950439453125 416.0 302.0 408.6795349121094 312.0162658691406 405.9930419921875 C 322.2173156738281 408.5702819824219 329.9583435058594 415.5738525390625 332.9272155761719 426.7237854003906" stroke-width="0.0" fill="rgb(234, 39, 28)" opacity="1.0"/>
    <path d="M 532.1942138671875 595.0900268554688 C 529.414794921875 605.041015625 522.0147705078125 612.32666015625 512.0010375976562 615.0001831054688 C 502.009033203125 612.317138671875 494.75152587890625 604.9708251953125 491.8312072753906 594.9931030273438 C 494.66729736328125 584.9957885742188 501.9991455078125 577.6792602539062 512.1675415039062 574.6112060546875 C 522.02783203125 577.597900390625 529.322021484375 584.995361328125 532.1942138671875 595.0900268554688" stroke-width="0.0" fill="rgb(255, 255, 254)" opacity="0.99300885"/>
    <path d="M 38.27345275878906 500.8263854980469 C 35.3218879699707 511.002685546875 27.999937057495117 518.3109741210938 18.053911209106445 520.743408203125 C 8.060199737548828 518.201416015625 0.7257463335990906 510.96234130859375 -1.9536588191986084 500.973876953125 C 0.6795058846473694 490.9999694824219 7.999940395355225 483.67938232421875 18.17782974243164 480.7648010253906 C 28.287952423095703 483.3479919433594 35.61589431762695 490.7243957519531 38.27345275878906 500.8263854980469" stroke-width="0.0" fill="rgb(255, 255, 255)" opacity="0.99096733"/>
    <path d="M 310.35906982421875 407.61468505859375 C 307.32501220703125 418.0141906738281 300.0697021484375 425.5033874511719 289.2173767089844 428.8934326171875 C 279.13336181640625 426.2057189941406 271.7859802246094 418.8700256347656 269.0542907714844 408.223876953125 C 271.7942810058594 397.1442565917969 279.15325927734375 389.8162536621094 290.1711730957031 387.0736999511719 C 300.7911682128906 389.8276672363281 308.00762939453125 397.26629638671875 310.35906982421875 407.61468505859375" stroke-width="0.0" fill="rgb(237, 45, 33)" opacity="0.9903472"/>
    <path d="M 159.72987365722656 169.3239288330078 C 156.3205108642578 180.0 149.0 187.32049560546875 138.4584197998047 190.50674438476562 C 128.31475830078125 188.08053588867188 121.16503143310547 180.60740661621094 118.85083770751953 170.2011260986328 C 121.67848205566406 159.9969024658203 128.98162841796875 152.62481689453125 139.61483764648438 149.22952270507812 C 149.7639617919922 151.9007568359375 157.14988708496094 159.21578979492188 159.72987365722656 169.3239288330078" stroke-width="0.0" fill="rgb(62, 184, 252)" opacity="1.0"/>
    <path d="M 595.9986572265625 121.00227355957031 C 593.3204956054688 131.00001525878906 586.0000610351562 138.32064819335938 575.8763427734375 141.13966369628906 C 565.7471313476562 138.595703125 558.4686279296875 131.23377990722656 555.4423828125 120.81944274902344 C 558.3988647460938 110.83352661132812 565.9072265625 103.628173828125 575.959228515625 101.0492935180664 C 585.9673461914062 103.73466491699219 593.30908203125 111.01959991455078 595.9986572265625 121.00227355957031" stroke-width="0.0" fill="rgb(255, 255, 254)" opacity="0.99172527"/>
    <path d="M 464.9100341796875 87.70446014404297 C 462.16510009765625 97.78620910644531 454.753662109375 105.08570861816406 444.5733642578125 107.66593170166016 C 433.7796630859375 104.44651794433594 426.1148376464844 97.38020324707031 423.11578369140625 86.40962982177734 C 425.84130859375 76.17388916015625 433.1600036621094 68.8067626953125 443.163818359375 66.55695343017578 C 453.34112548828125 70.42105102539062 461.10723876953125 77.54415130615234 464.9100341796875 87.70446014404297" stroke-width="0.0" fill="rgb(56, 186, 252)" opacity="1.0"/>
    <path d="M 418.1595153808594 577.1231079101562 C 415.41607666015625 587.1142578125 408.11102294921875 594.4087524414062 398.4106140136719 597.0391235351562 C 389.6886291503906 594.4713745117188 381.07537841796875 587.9186401367188 379.9407043457031 578.7649536132812 C 382.2317810058594 567.258544921875 388.1308288574219 559.7576904296875 398.12030029296875 557.0420532226562 C 408.2136535644531 561.435791015625 415.7066955566406 568.763916015625 418.1595153808594 577.1231079101562" stroke-width="0.0" fill="rgb(54, 54, 53)" opacity="0.99000406"/>
    <path d="M 156.87188720703125 216.23924255371094 C 154.93165588378906 226.648193359375 147.69508361816406 234.07460021972656 137.55657958984375 236.73179626464844 C 126.59214782714844 233.70742797851562 119.161865234375 226.44924926757812 116.39185333251953 216.2503662109375 C 119.31234741210938 205.67701721191406 126.69973754882812 198.3880157470703 136.863037109375 195.81796264648438 C 147.0 198.6795196533203 154.3205108642578 206.0 156.87188720703125 216.23924255371094" stroke-width="0.0" fill="rgb(253, 232, 177)" opacity="1.0"/>
    <path d="M 112.90787506103516 204.694091796875 C 110.2095718383789 214.8599090576172 102.84487915039062 222.17117309570312 92.41370391845703 224.9005584716797 C 81.25543212890625 222.10020446777344 73.88336944580078 214.7515106201172 71.1178207397461 204.4541778564453 C 73.95806884765625 193.29525756835938 81.27095794677734 185.8957977294922 92.10823059082031 183.10586547851562 C 102.75092315673828 185.88543701171875 110.09638214111328 193.25621032714844 112.90787506103516 204.694091796875" stroke-width="0.0" fill="rgb(57, 183, 254)" opacity="1.0"/>
    <path d="M 45.437564849853516 27.160703659057617 C 42.70173645019531 37.26742172241211 35.19674301147461 44.49994659423828 24.847843170166016 47.64908981323242 C 14.595792770385742 44.7886848449707 7.335267543792725 37.36447525024414 4.62918758392334 27.064355850219727 C 7.8334641456604 17.150110244750977 15.194618225097656 9.968252182006836 25.167518615722656 7.314084053039551 C 35.090370178222656 9.793752670288086 42.62835693359375 16.787933349609375 45.437564849853516 27.160703659057617" stroke-width="0.0" fill="rgb(255, 255, 255)" opacity="0.99044853"/>
    <path d="M 597.1251831054688 67.7805404663086 C 594.4811401367188 78.19705200195312 587.2044677734375 85.51168060302734 577.0618286132812 88.04044342041016 C 567.0 85.32051849365234 559.6763916015625 78.00086975097656 557.1980590820312 68.23943328857422 C 559.9736938476562 58.09435272216797 566.9293823242188 50.50954818725586 576.9151000976562 47.54645538330078 C 587.2478637695312 50.51569366455078 594.6625366210938 57.70077133178711 597.1251831054688 67.7805404663086" stroke-width="0.0" fill="rgb(255, 255, 255)" opacity="0.9907331"/>
    <path d="M 224.0428009033203 583.8975219726562 C 221.57284545898438 592.1631469726562 214.13055419921875 599.4292602539062 205.3371124267578 602.1005859375 C 195.91151428222656 599.4078979492188 188.6175079345703 592.0790405273438 185.95590209960938 582.10595703125 C 188.46026611328125 573.8657836914062 195.90066528320312 566.605224609375 205.9121856689453 562.1377563476562 C 214.31491088867188 564.9085083007812 221.3964385986328 573.869873046875 224.0428009033203 583.8975219726562" stroke-width="0.0" fill="rgb(2, 2, 2)" opacity="0.9900023"/>
    <path d="M 500.8857116699219 448.3836975097656 C 498.1336669921875 458.7794494628906 490.7759094238281 466.12451171875 479.7378234863281 468.8934326171875 C 469.2329406738281 466.12640380859375 461.8741149902344 458.76666259765625 459.103515625 448.2732238769531 C 461.8924255371094 437.2479553222656 469.24652099609375 429.8891906738281 480.2879333496094 427.10601806640625 C 490.75830078125 429.8785095214844 498.1015319824219 437.24951171875 500.8857116699219 448.3836975097656" stroke-width="0.0" fill="rgb(56, 183, 255)" opacity="1.0"/>
    <path d="M 370.71710205078125 414.70880126953125 C 368.0450134277344 424.62420654296875 360.59857177734375 431.9866943359375 350.4851379394531 434.727783203125 C 339.3847351074219 431.8575744628906 331.95416259765625 424.6719665527344 330.8544616699219 414.67156982421875 C 333.1717224121094 403.7939758300781 339.4699401855469 396.0096130371094 350.3475036621094 393.2231140136719 C 360.65576171875 395.9360046386719 367.8240966796875 403.42388916015625 370.71710205078125 414.70880126953125" stroke-width="0.0" fill="rgb(249, 214, 203)" opacity="1.0"/>
    <path d="M 587.1600341796875 218.4798126220703 C 584.63671875 228.44183349609375 577.5564575195312 235.96530151367188 567.8828125 238.9109344482422 C 558.0267333984375 236.30987548828125 550.8787841796875 228.91392517089844 548.686279296875 218.8979034423828 C 550.6402587890625 209.12472534179688 558.2848510742188 202.11807250976562 568.2213134765625 199.16256713867188 C 577.7994384765625 201.7812957763672 584.8245849609375 209.3350830078125 587.1600341796875 218.4798126220703" stroke-width="0.0" fill="rgb(252, 251, 250)" opacity="0.9920578"/>
    <path d="M 406.1287841796875 403.8250732421875 C 403.3365173339844 414.0406188964844 396.1322937011719 421.6113586425781 385.4366760253906 424.8428955078125 C 375.32562255859375 422.0821838378906 368.4107666015625 414.5555114746094 366.8358154296875 404.5334777832031 C 369.4220886230469 394.7032470703125 376.7127685546875 387.4455261230469 386.7164001464844 384.8318786621094 C 396.62860107421875 385.9900207519531 403.79241943359375 393.4374084472656 406.1287841796875 403.8250732421875" stroke-width="0.0" fill="rgb(61, 181, 252)" opacity="0.9900363"/>
    <path d="M 239.77572631835938 506.6688232421875 C 237.12281799316406 516.77294921875 229.77745056152344 524.134521484375 219.1533660888672 526.9044799804688 C 208.2515106201172 524.1119995117188 200.9070281982422 516.7412109375 198.23428344726562 506.63201904296875 C 201.457763671875 495.67816162109375 208.544677734375 488.0749206542969 218.48489379882812 485.31182861328125 C 229.0 488.67950439453125 236.3205108642578 496.0 239.77572631835938 506.6688232421875" stroke-width="0.0" fill="rgb(56, 183, 255)" opacity="1.0"/>
    <path d="M 332.8926696777344 91.04971313476562 C 330.12493896484375 101.77230834960938 322.7728576660156 109.12622833251953 312.091552734375 111.88915252685547 C 301.2359619140625 109.12232208251953 293.8966064453125 101.7567138671875 291.1292724609375 90.97258758544922 C 293.8844299316406 80.23451232910156 301.2308044433594 72.87413024902344 311.86859130859375 70.09910583496094 C 322.7673034667969 72.87635803222656 330.1165466308594 80.23545837402344 332.8926696777344 91.04971313476562" stroke-width="0.0" fill="rgb(58, 183, 255)" opacity="1.0"/>
    <path d="M 257.88690185546875 487.90557861328125 C 255.10690307617188 498.7543029785156 247.75418090820312 506.1064758300781 237.64657592773438 508.7581787109375 C 227.0 505.3205261230469 219.67953491210938 497.9999694824219 216.24093627929688 487.352783203125 C 218.89268493652344 477.2433166503906 226.24310302734375 469.89208984375 237.24533081054688 467.1094665527344 C 247.74964904785156 469.88629150390625 255.09786987304688 477.25689697265625 257.88690185546875 487.90557861328125" stroke-width="0.0" fill="rgb(56, 184, 255)" opacity="1.0"/>
    <path d="M 582.0338134765625 235.62380981445312 C 579.4119873046875 244.12449645996094 572.1577758789062 251.51829528808594 563.7926635742188 254.13160705566406 C 553.8744506835938 251.4264373779297 546.5751953125 244.12496948242188 543.9539794921875 234.6545867919922 C 546.5453491210938 225.76873779296875 553.3098754882812 216.9022979736328 562.0674438476562 215.8843231201172 C 572.0715942382812 218.62152099609375 579.3833618164062 225.92637634277344 582.0338134765625 235.62380981445312" stroke-width="0.0" fill="rgb(2, 2, 2)" opacity="0.9900038"/>
    <path d="M 79.47748565673828 487.0012512207031 C 76.97510528564453 496.76788330078125 69.85050964355469 504.2309265136719 60.046897888183594 506.8066101074219 C 50.02764129638672 504.29779052734375 42.770103454589844 496.9493713378906 39.63799285888672 486.86004638671875 C 42.662132263183594 477.0052490234375 50.0234260559082 469.72589111328125 59.86323547363281 467.3196105957031 C 69.81224822998047 469.9245910644531 77.04381561279297 477.1980285644531 79.47748565673828 487.0012512207031" stroke-width="0.0" fill="rgb(252, 252, 251)" opacity="0.9913571"/>
    <path d="M 487.87103271484375 147.5092010498047 C 484.9343566894531 158.58692932128906 477.63067626953125 166.0384979248047 466.53887939453125 168.8847198486328 C 456.241455078125 166.12210083007812 448.88128662109375 158.75701904296875 446.09722900390625 148.14883422851562 C 448.8921203613281 137.25381469726562 456.254638671875 129.8939666748047 467.2816467285156 127.09428405761719 C 477.773681640625 129.8653564453125 485.1207580566406 137.23179626464844 487.87103271484375 147.5092010498047" stroke-width="0.0" fill="rgb(57, 185, 255)" opacity="1.0"/>
    <path d="M 572.0679321289062 10.190685272216797 C 569.6262817382812 20.26105499267578 562.1943969726562 27.381196975708008 551.86669921875 30.349830627441406 C 541.842041015625 27.458057403564453 534.5017700195312 20.168651580810547 531.9765014648438 10.325286865234375 C 534.9466552734375 0.17084233462810516 542.1087646484375 -7.250177383422852 552.0192260742188 -9.991960525512695 C 562.0172119140625 -7.333493232727051 569.3204956054688 -0.014212156645953655 572.0679321289062 10.190685272216797" stroke-width="0.0" fill="rgb(255, 255, 255)" opacity="0.990713"/>
    <path d="M 582.2459106445312 531.87158203125 C 579.33837890625 542.0122680664062 572.0078125 549.32421875 561.977783203125 551.87548828125 C 551.6686401367188 549.5725708007812 544.2445068359375 542.3837890625 541.552490234375 532.0728149414062 C 544.43115234375 521.7998046875 551.8155517578125 514.4830932617188 561.912353515625 511.88800048828125 C 572.009765625 514.6751708984375 579.37646484375 521.97509765625 582.2459106445312 531.87158203125" stroke-width="0.0" fill="rgb(255, 255, 255)" opacity="0.99085885"/>
    <path d="M 392.73516845703125 155.3809356689453 C 389.3204345703125 165.99996948242188 382.000244140625 173.32144165039062 371.2942199707031 176.82249450683594 C 361.2320861816406 174.128662109375 353.8793029785156 166.76458740234375 351.1182556152344 156.27870178222656 C 353.894287109375 145.24447631835938 361.2384033203125 137.878662109375 372.2887878417969 135.0924835205078 C 382.77020263671875 137.8595733642578 390.0908508300781 145.24972534179688 392.73516845703125 155.3809356689453" stroke-width="0.0" fill="rgb(57, 182, 255)" opacity="1.0"/>
    <path d="M 371.11151123046875 229.067626953125 C 368.3815002441406 239.07455444335938 361.07464599609375 246.3817596435547 352.44818115234375 249.02609252929688 C 342.92791748046875 246.37936401367188 335.61444091796875 239.07455444335938 332.9439697265625 229.2053680419922 C 335.5105285644531 220.81539916992188 342.8266906738281 213.53965759277344 352.3674621582031 210.94142150878906 C 361.37158203125 213.49305725097656 370.14990234375 219.50140380859375 371.11151123046875 229.067626953125" stroke-width="0.0" fill="rgb(2, 2, 2)" opacity="0.9900026"/>
    <path d="M 151.2538299560547 90.17621612548828 C 148.5355682373047 100.2259521484375 141.20462036132812 107.48184967041016 131.2910614013672 110.07138061523438 C 121.24442291259766 109.01555633544922 115.02044677734375 101.69613647460938 112.97233581542969 91.8317642211914 C 115.61321258544922 81.91893005371094 122.92036437988281 74.61629486083984 132.7414093017578 71.97390747070312 C 141.5081024169922 74.53629302978516 150.16836547851562 80.29193878173828 151.2538299560547 90.17621612548828" stroke-width="0.0" fill="rgb(3, 2, 2)" opacity="0.990003"/>
    <path d="M 353.0943298339844 458.8424987792969 C 350.5749816894531 468.2960205078125 343.279052734375 475.5354309082031 333.6719055175781 478.0696105957031 C 324.8269348144531 475.5184326171875 317.6011047363281 468.12445068359375 314.9704284667969 458.3299560546875 C 317.5838928222656 449.88433837890625 324.8918762207031 442.5994567871094 334.6556701660156 439.9691162109375 C 343.2827453613281 442.51873779296875 350.6788024902344 449.6091003417969 353.0943298339844 458.8424987792969" stroke-width="0.0" fill="rgb(2, 8, 16)" opacity="0.9900025"/>
    <path d="M 455.8681945800781 234.39808654785156 C 453.1078186035156 244.7515106201172 445.7405090332031 252.07521057128906 435.7135314941406 253.20733642578125 C 425.59014892578125 250.6280975341797 418.2156066894531 243.47181701660156 414.846435546875 233.22979736328125 C 416.82293701171875 223.17684936523438 424.19085693359375 215.85877990722656 434.8492736816406 213.119873046875 C 445.72503662109375 215.90524291992188 453.0557861328125 223.29019165039062 455.8681945800781 234.39808654785156" stroke-width="0.0" fill="rgb(75, 186, 250)" opacity="1.0"/>
    <path d="M 177.5502166748047 199.52525329589844 C 175.04476928710938 209.71534729003906 167.7382354736328 217.1060791015625 157.6905517578125 219.55093383789062 C 147.01829528808594 216.25975036621094 139.68026733398438 208.99864196777344 137.00076293945312 198.9996795654297 C 139.6794891357422 189.0 147.0 181.6794891357422 157.0 179.0 C 166.99996948242188 181.67950439453125 174.31651306152344 189.00111389160156 177.5502166748047 199.52525329589844" stroke-width="0.0" fill="rgb(254, 231, 174)" opacity="1.0"/>
    <path d="M 605.891845703125 347.1224060058594 C 603.3204956054688 357.0 596.0 364.32049560546875 586.0000610351562 367.0 C 576.0049438476562 364.31903076171875 568.8651123046875 356.93780517578125 566.909912109375 347.06964111328125 C 568.4810180664062 336.5528259277344 575.48095703125 329.1380615234375 585.651123046875 326.68963623046875 C 595.6992797851562 329.919921875 603.0095825195312 337.3186950683594 605.891845703125 347.1224060058594" stroke-width="0.0" fill="rgb(251, 252, 249)" opacity="1.0"/>
    <path d="M 426.2265930175781 347.4162292480469 C 423.79852294921875 357.6879577636719 417.0832214355469 365.7549133300781 407.3505859375 368.56146240234375 C 396.5064697265625 365.6410217285156 388.98248291015625 358.6026306152344 387.4021911621094 348.28948974609375 C 389.3802795410156 337.76513671875 396.83697509765625 330.6159973144531 406.5311584472656 328.876220703125 C 417.0367126464844 330.9033203125 424.515380859375 337.84521484375 426.2265930175781 347.4162292480469" stroke-width="0.0" fill="rgb(252, 252, 250)" opacity="1.0"/>
    <path d="M 209.87083435058594 478.5605773925781 C 206.8281707763672 489.2949523925781 199.12655639648438 496.37933349609375 189.0077362060547 499.0037841796875 C 178.98756408691406 496.3249206542969 171.53330993652344 489.05548095703125 168.15158081054688 478.32623291015625 C 170.86915588378906 468.2391052246094 178.26004028320312 460.9219665527344 189.37698364257812 458.1291198730469 C 199.76513671875 460.8809509277344 207.11599731445312 468.2359924316406 209.87083435058594 478.5605773925781" stroke-width="0.0" fill="rgb(57, 184, 255)" opacity="1.0"/>
    <path d="M 410.18890380859375 1.6589248180389404 C 407.1085205078125 11.913039207458496 399.9905090332031 19.347936630249023 390.0152587890625 22.017536163330078 C 379.9990234375 19.320804595947266 372.64630126953125 12.01012897491455 369.6529541015625 2.1338107585906982 C 372.67950439453125 -8.0 380.0 -15.320508003234863 390.0000915527344 -18.000024795532227 C 400.0043029785156 -15.321903228759766 407.404052734375 -8.02810001373291 410.18890380859375 1.6589248180389404" stroke-width="0.0" fill="rgb(255, 255, 255)" opacity="0.9924415"/>
    <path d="M 607.0560913085938 124.05039978027344 C 604.4871215820312 134.19219970703125 597.2301025390625 141.61073303222656 587.2708740234375 144.1953887939453 C 577.0838012695312 141.17816162109375 569.7078857421875 133.95101928710938 567.003173828125 123.99441528320312 C 569.6793823242188 113.99960327148438 576.9939575195312 106.65884399414062 586.7156372070312 104.00338745117188 C 596.8392944335938 106.99032592773438 604.3113403320312 114.06014251708984 607.0560913085938 124.05039978027344" stroke-width="0.0" fill="rgb(255, 255, 255)" opacity="0.9912466"/>
    <path d="M 205.00025939941406 492.0007629394531 C 202.32904052734375 502.02301025390625 195.08535766601562 509.52618408203125 184.3433074951172 512.8411865234375 C 174.22531127929688 510.126708984375 166.8632049560547 502.7789001464844 164.11138916015625 492.4722595214844 C 166.9986572265625 481.4512634277344 174.5792694091797 474.3680114746094 184.91049194335938 471.9400329589844 C 194.99993896484375 474.6795959472656 202.32044982910156 482.00006103515625 205.00025939941406 492.0007629394531" stroke-width="0.0" fill="rgb(58, 183, 255)" opacity="1.0"/>
    <path d="M 441.50927734375 28.431846618652344 C 438.6203918457031 38.31327819824219 431.3092956542969 45.60995864868164 421.49212646484375 48.60097885131836 C 411.7989501953125 46.45640182495117 404.399658203125 39.242549896240234 402.7596740722656 29.18722152709961 C 404.5809326171875 18.843841552734375 411.80706787109375 11.456120491027832 421.948486328125 8.98106575012207 C 432.2849426269531 11.525177955627441 439.7713928222656 18.630281448364258 441.50927734375 28.431846618652344" stroke-width="0.0" fill="rgb(250, 251, 249)" opacity="1.0"/>
    <path d="M 170.92657470703125 272.5373229980469 C 168.1888885498047 283.84979248046875 160.85537719726562 291.2031555175781 150.21527099609375 293.94195556640625 C 139.14846801757812 291.1954345703125 131.79444885253906 283.8558349609375 129.0554962158203 273.1471862792969 C 131.79248046875 262.1343078613281 139.13278198242188 254.78880310058594 149.98658752441406 252.0563201904297 C 160.85647583007812 254.79576110839844 168.1991729736328 262.1456298828125 170.92657470703125 272.5373229980469" stroke-width="0.0" fill="rgb(236, 42, 29)" opacity="0.9940374"/>
    <path d="M 404.4921875 15.39244270324707 C 401.92803955078125 25.584474563598633 394.5597839355469 32.84389877319336 384.2358093261719 35.357906341552734 C 373.8252258300781 32.48138427734375 366.3738708496094 25.218692779541016 363.2648620605469 14.357551574707031 C 366.1458435058594 4.773952484130859 374.0566711425781 -2.2104854583740234 383.9856262207031 -4.897913932800293 C 393.8158264160156 -2.153153896331787 401.0570068359375 5.2137837409973145 404.4921875 15.39244270324707" stroke-width="0.0" fill="rgb(211, 211, 211)" opacity="1.0"/>
    <path d="M 227.30870056152344 325.6954040527344 C 224.3205108642578 336.0 217.0 343.32049560546875 206.66148376464844 346.29705810546875 C 196.28485107421875 343.9759826660156 188.8311004638672 336.7818908691406 186.05764770507812 325.86981201171875 C 188.8164520263672 315.1833801269531 196.2139129638672 307.8972473144531 207.53785705566406 305.1427001953125 C 217.72178649902344 307.8749084472656 224.9130096435547 315.3545837402344 227.30870056152344 325.6954040527344" stroke-width="0.0" fill="rgb(252, 77, 52)" opacity="0.99050975"/>
    <path d="M 136.41123962402344 346.817626953125 C 135.12771606445312 356.7679443359375 127.76371765136719 364.1177062988281 116.97425079345703 366.9002685546875 C 106.27008819580078 364.10357666015625 98.90980529785156 356.7239685058594 96.10807800292969 346.0204772949219 C 98.88007354736328 335.22412109375 106.21344757080078 327.853515625 116.18968200683594 325.465087890625 C 126.27607727050781 329.42816162109375 133.53163146972656 336.7398681640625 136.41123962402344 346.817626953125" stroke-width="0.0" fill="rgb(60, 182, 251)" opacity="1.0"/>
    <path d="M 421.8829650878906 408.2062683105469 C 419.0738525390625 418.65374755859375 411.5602722167969 425.8048095703125 400.8945007324219 428.4193420410156 C 390.6408386230469 425.7625427246094 383.450927734375 418.2920227050781 380.9485168457031 408.0674743652344 C 383.66510009765625 397.9625244140625 390.8739318847656 390.39813232421875 401.577880859375 387.17083740234375 C 411.7415466308594 389.89996337890625 419.09063720703125 397.26202392578125 421.8829650878906 408.2062683105469" stroke-width="0.0" fill="rgb(56, 181, 252)" opacity="1.0"/>
    <path d="M 385.89788818359375 480.237548828125 C 383.13836669921875 490.7826232910156 375.77740478515625 498.1247863769531 365.1600646972656 500.8771667480469 C 354.23809814453125 498.1133117675781 346.8746032714844 490.7666320800781 344.11767578125 480.42303466796875 C 346.923828125 469.27288818359375 354.2617492675781 461.8961486816406 365.16009521484375 459.1265869140625 C 375.7791748046875 461.8723449707031 383.1279602050781 469.22076416015625 385.89788818359375 480.237548828125" stroke-width="0.0" fill="rgb(56, 184, 255)" opacity="1.0"/>
    <path d="M 77.09783172607422 188.36248779296875 C 74.49862670898438 198.2237091064453 67.23590850830078 205.5282745361328 57.18838119506836 208.18592834472656 C 47.25048065185547 207.16610717773438 41.494144439697266 199.08522033691406 38.97015380859375 189.75723266601562 C 41.61408615112305 179.92083740234375 48.922176361083984 172.61712646484375 58.92763137817383 169.922119140625 C 68.69490814208984 170.83377075195312 74.89057159423828 178.68136596679688 77.09783172607422 188.36248779296875" stroke-width="0.0" fill="rgb(4, 16, 24)" opacity="0.99000376"/>
    <path d="M 592.456298828125 511.0638732910156 C 589.6869506835938 521.3634033203125 582.3765258789062 528.726806640625 572.2073364257812 531.2418823242188 C 561.9734497070312 528.332275390625 554.522705078125 521.071044921875 551.40478515625 511.031005859375 C 554.4034423828125 500.8494567871094 561.9517822265625 493.729736328125 572.3807373046875 490.5914611816406 C 582.43798828125 493.1908874511719 589.7317504882812 500.5862121582031 592.456298828125 511.0638732910156" stroke-width="0.0" fill="rgb(255, 255, 255)" opacity="0.99071205"/>
    <path d="M 32.506343841552734 112.81549835205078 C 29.364837646484375 122.9808120727539 21.925395965576172 130.18057250976562 11.816935539245605 133.01229858398438 C 1.7990589141845703 130.56134033203125 -5.463976860046387 123.17121124267578 -8.037357330322266 113.04472351074219 C -5.32050085067749 103.00000762939453 2.0000109672546387 95.67950439453125 12.000163078308105 92.99983978271484 C 22.004846572875977 95.6777572631836 29.405519485473633 102.97099304199219 32.506343841552734 112.81549835205078" stroke-width="0.0" fill="rgb(255, 255, 253)" opacity="0.9914841"/>
    <path d="M 133.20982360839844 561.2472534179688 C 130.2243194580078 570.8184814453125 122.76557159423828 578.0386352539062 112.96968841552734 581.2671508789062 C 102.79873657226562 578.538818359375 95.637939453125 571.15576171875 93.35417938232422 560.8646240234375 C 95.6808090209961 551.034423828125 103.04732513427734 543.727783203125 113.01354217529297 541.0149536132812 C 122.9686508178711 543.6943969726562 130.17120361328125 551.072509765625 133.20982360839844 561.2472534179688" stroke-width="0.0" fill="rgb(255, 255, 254)" opacity="0.9906961"/>
    <path d="M 226.5294952392578 379.5448913574219 C 223.720458984375 390.4067687988281 216.4317626953125 397.79925537109375 205.48731994628906 400.774169921875 C 195.31272888183594 398.0603942871094 187.9418182373047 390.6867980957031 185.19427490234375 380.44964599609375 C 188.14453125 369.524658203125 195.5524444580078 362.2310485839844 206.65773010253906 359.2516784667969 C 216.7269287109375 361.90313720703125 224.0729522705078 369.2823181152344 226.5294952392578 379.5448913574219" stroke-width="0.0" fill="rgb(252, 230, 173)" opacity="1.0"/>
    <path d="M 143.8955841064453 136.64268493652344 C 141.0614013671875 147.64410400390625 133.5572967529297 154.81016540527344 122.81257629394531 157.41360473632812 C 112.36514282226562 154.92807006835938 104.93108367919922 147.6827850341797 102.11888122558594 136.63027954101562 C 104.87125396728516 126.22953796386719 112.2361068725586 118.88728332519531 123.28935241699219 116.10748291015625 C 133.79730224609375 118.85121154785156 141.14642333984375 126.20365905761719 143.8955841064453 136.64268493652344" stroke-width="0.0" fill="rgb(56, 184, 255)" opacity="1.0"/>
    <path d="M 322.8509826660156 505.6924743652344 C 320.0103454589844 516.59521484375 312.5137023925781 523.76708984375 302.1572265625 526.1651000976562 C 291.75250244140625 523.4686889648438 284.07659912109375 516.4163818359375 281.1172790527344 505.5851745605469 C 283.865966796875 495.1998596191406 291.18292236328125 487.8234558105469 301.593505859375 485.0903625488281 C 312.7771911621094 487.85577392578125 320.10174560546875 495.23992919921875 322.8509826660156 505.6924743652344" stroke-width="0.0" fill="rgb(57, 180, 251)" opacity="1.0"/>
    <path d="M 589.0866088867188 155.68727111816406 C 586.1373291015625 165.96315002441406 579.0496826171875 173.40310668945312 569.6864624023438 175.1505126953125 C 559.43701171875 172.66793823242188 551.6199340820312 165.82177734375 548.3629150390625 155.8309326171875 C 551.5628051757812 145.9098663330078 558.8995361328125 138.5451202392578 568.960205078125 135.92820739746094 C 579.094970703125 138.60821533203125 586.47119140625 145.88101196289062 589.0866088867188 155.68727111816406" stroke-width="0.0" fill="rgb(251, 250, 250)" opacity="1.0"/>
    <path d="M 578.73779296875 278.516845703125 C 576.1729125976562 288.8329162597656 568.8325805664062 296.1727600097656 558.5170288085938 298.89599609375 C 547.2630615234375 296.089599609375 539.8877563476562 288.7461242675781 537.1069946289062 278.236572265625 C 539.9010620117188 267.2700500488281 547.2852172851562 259.9405212402344 558.6981201171875 257.0978088378906 C 568.8404541015625 259.8052062988281 576.1306762695312 267.1819152832031 578.73779296875 278.516845703125" stroke-width="0.0" fill="rgb(57, 182, 252)" opacity="1.0"/>
    <path d="M 378.8921203613281 315.5461730957031 C 376.1427001953125 325.77056884765625 368.74139404296875 333.0660400390625 358.44342041015625 335.77679443359375 C 348.2574157714844 332.5343322753906 341.3086242675781 324.5216369628906 338.8276672363281 315.0149841308594 C 341.33056640625 305.5805969238281 348.57110595703125 298.30841064453125 358.22882080078125 295.7857360839844 C 367.7097473144531 298.22601318359375 375.9445495605469 304.7018127441406 378.8921203613281 315.5461730957031" stroke-width="0.0" fill="rgb(255, 179, 112)" opacity="0.99002886"/>
    <path d="M 508.00030517578125 563.999267578125 C 505.3204650878906 573.9999389648438 497.99993896484375 581.3203735351562 488.0 583.9996337890625 C 478.0000305175781 581.3204345703125 470.67950439453125 574.0 467.99102783203125 563.9903564453125 C 470.6526184082031 553.9794921875 478.0020446777344 546.7297973632812 488.08447265625 544.1873779296875 C 498.02447509765625 546.63232421875 505.325927734375 553.9879760742188 508.00030517578125 563.999267578125" stroke-width="0.0" fill="rgb(255, 255, 254)" opacity="0.99259764"/>
    <path d="M 605.9698486328125 349.9797058105469 C 603.2680053710938 359.9803771972656 595.9597778320312 367.184814453125 585.4476318359375 369.1199645996094 C 575.6904907226562 367.5015563964844 568.07470703125 360.4482727050781 565.6804809570312 350.65753173828125 C 568.8564453125 340.0973815917969 576.059326171875 332.73046875 585.9879760742188 330.0608825683594 C 595.966064453125 332.7311096191406 603.30419921875 340.0234069824219 605.9698486328125 349.9797058105469" stroke-width="0.0" fill="rgb(252, 252, 251)" opacity="1.0"/>
    <path d="M 452.84375 113.4758529663086 C 450.09423828125 123.74665832519531 442.7606201171875 131.1287384033203 432.3499450683594 133.89889526367188 C 421.23822021484375 131.116943359375 413.8883056640625 123.75953674316406 411.11883544921875 113.15753936767578 C 413.9173889160156 102.27959442138672 421.28216552734375 94.92548370361328 431.4203796386719 92.31829833984375 C 442.1785888671875 95.58086395263672 449.82763671875 102.67516326904297 452.84375 113.4758529663086" stroke-width="0.0" fill="rgb(57, 181, 255)" opacity="1.0"/>
    <path d="M 415.88250732421875 231.34197998046875 C 413.0426940917969 242.68283081054688 405.6849060058594 250.04852294921875 395.67047119140625 251.31744384765625 C 385.5303649902344 248.720947265625 378.28436279296875 241.46694946289062 374.18511962890625 231.20668029785156 C 376.8712158203125 221.24351501464844 384.2395935058594 213.8641815185547 395.3453369140625 211.07774353027344 C 405.84423828125 213.81301879882812 413.1878662109375 221.15524291992188 415.88250732421875 231.34197998046875" stroke-width="0.0" fill="rgb(252, 186, 115)" opacity="1.0"/>
    <path d="M 119.10209655761719 37.06674575805664 C 116.42389678955078 47.005332946777344 108.8927001953125 54.085365295410156 99.2823257446289 56.45809555053711 C 89.19733428955078 53.94413757324219 81.76233673095703 46.91183853149414 78.64100646972656 36.798828125 C 81.45967102050781 26.81118392944336 88.81978607177734 19.49016761779785 98.9181137084961 16.910417556762695 C 108.99993133544922 19.679731369018555 116.32051086425781 27.000003814697266 119.10209655761719 37.06674575805664" stroke-width="0.0" fill="rgb(255, 255, 255)" opacity="0.9907693"/>
    <path d="M 146.0521697998047 164.9796600341797 C 143.3701171875 175.04974365234375 136.0694580078125 182.4377899169922 125.37102508544922 185.8123779296875 C 115.25995635986328 183.0980987548828 107.89551544189453 175.7425537109375 105.11505126953125 165.249755859375 C 107.96269226074219 154.39268493652344 115.49474334716797 147.2589569091797 125.94254302978516 144.77064514160156 C 136.18875122070312 147.45095825195312 143.4495391845703 154.8416290283203 146.0521697998047 164.9796600341797" stroke-width="0.0" fill="rgb(57, 181, 252)" opacity="1.0"/>
    <path d="M 589.0394287109375 388.95318603515625 C 586.3204956054688 399.0 579.0 406.32049560546875 569.5482177734375 408.45074462890625 C 559.800537109375 405.5313720703125 552.5228881835938 398.1817932128906 549.8241577148438 388.36151123046875 C 551.5040283203125 378.6292724609375 558.4322509765625 370.9486999511719 568.3828125 369.5912780761719 C 579.1968383789062 371.4665832519531 586.4691772460938 378.8233947753906 589.0394287109375 388.95318603515625" stroke-width="0.0" fill="rgb(251, 251, 251)" opacity="1.0"/>
    <path d="M 554.0765991210938 92.0296630859375 C 551.4583740234375 102.13187408447266 544.1190185546875 109.41063690185547 533.5684204101562 112.66617584228516 C 523.528564453125 109.85332489013672 516.0858764648438 102.49759674072266 513.2696533203125 92.27494049072266 C 516.441650390625 81.88301849365234 523.9605102539062 74.68511962890625 534.2258911132812 71.51385498046875 C 544.1539306640625 74.45724487304688 551.4092407226562 81.88697052001953 554.0765991210938 92.0296630859375" stroke-width="0.0" fill="rgb(251, 251, 250)" opacity="0.9927821"/>
    <path d="M 179.75228881835938 189.82826232910156 C 176.6633758544922 200.18362426757812 169.08055114746094 207.3582763671875 159.00537109375 210.00247192382812 C 148.99835205078125 207.32102966308594 141.64093017578125 200.01231384277344 138.18675231933594 189.35263061523438 C 140.91293334960938 179.2781982421875 148.27914428710938 171.9154510498047 158.435791015625 169.18722534179688 C 169.46922302246094 172.17086791992188 176.85948181152344 179.52076721191406 179.75228881835938 189.82826232910156" stroke-width="0.0" fill="rgb(255, 236, 176)" opacity="1.0"/>
    <path d="M 85.02730560302734 125.3343505859375 C 82.38484191894531 135.0757598876953 75.07054901123047 142.37344360351562 65.14605712890625 145.0238800048828 C 56.661312103271484 142.52413940429688 49.52401351928711 135.29302978515625 46.970848083496094 126.70742797851562 C 49.61354064941406 116.9202880859375 56.92170715332031 109.61686706542969 66.8631591796875 106.96810913085938 C 75.3104019165039 109.35481262207031 82.42245483398438 116.80872344970703 85.02730560302734 125.3343505859375" stroke-width="0.0" fill="rgb(4, 5, 4)" opacity="0.9900023"/>
    <path d="M 206.8782196044922 73.4837646484375 C 204.07980346679688 84.7354736328125 196.74461364746094 92.10411834716797 185.47622680664062 94.90460205078125 C 175.21791076660156 92.14756774902344 167.8717498779297 84.77404022216797 165.1059112548828 73.39582824707031 C 167.8043212890625 63.16663360595703 175.2035369873047 55.91348648071289 186.7557373046875 53.16191864013672 C 196.8303680419922 55.80856704711914 204.1511993408203 63.18654251098633 206.8782196044922 73.4837646484375" stroke-width="0.0" fill="rgb(56, 180, 251)" opacity="1.0"/>
    <path d="M 597.168701171875 394.4916687011719 C 593.8347778320312 404.5763244628906 586.5994262695312 411.9074401855469 576.4012451171875 415.8338317871094 C 566.5820922851562 412.8719482421875 559.033447265625 405.4713134765625 556.0767211914062 394.4045104980469 C 558.8348388671875 384.20770263671875 566.2537841796875 376.971923828125 577.2821044921875 374.4957580566406 C 587.6668701171875 376.9617004394531 594.9137573242188 384.3739318847656 597.168701171875 394.4916687011719" stroke-width="0.0" fill="rgb(195, 194, 193)" opacity="1.0"/>
    <path d="M 585.2266845703125 85.1054458618164 C 582.4271850585938 95.04603576660156 575.01611328125 102.32709503173828 565.000732421875 105.00030517578125 C 555.0 102.32050323486328 547.6795654296875 94.9999771118164 544.9605712890625 84.95712280273438 C 547.55224609375 74.86097717285156 554.8502197265625 67.51660919189453 564.934326171875 64.92901611328125 C 574.9999389648438 67.6795654296875 582.3204345703125 75.00005340576172 585.2266845703125 85.1054458618164" stroke-width="0.0" fill="rgb(253, 255, 252)" opacity="0.99253774"/>
    <path d="M 176.31752014160156 198.285888671875 C 174.26414489746094 207.9578094482422 166.95913696289062 215.2691650390625 156.97161865234375 217.92906188964844 C 147.0001983642578 215.31959533691406 139.67926025390625 208.0001220703125 136.87954711914062 197.9297332763672 C 139.56881713867188 187.94073486328125 146.96958923339844 180.6641082763672 156.9976043701172 177.9983673095703 C 166.9977264404297 180.67996215820312 174.23297119140625 188.02740478515625 176.31752014160156 198.285888671875" stroke-width="0.0" fill="rgb(252, 232, 175)" opacity="0.9953013"/>
    <path d="M 52.54545593261719 400.9696960449219 C 50.152069091796875 410.9414978027344 43.056922912597656 418.486083984375 33.598636627197266 420.3405456542969 C 23.69514274597168 417.5595703125 16.2358341217041 410.3705139160156 13.679689407348633 401.3818359375 C 16.316247940063477 391.4458923339844 23.207468032836914 383.5893859863281 33.55101776123047 380.20843505859375 C 43.48444747924805 383.0380859375 50.42453384399414 390.6869201660156 52.54545593261719 400.9696960449219" stroke-width="0.0" fill="rgb(252, 252, 252)" opacity="1.0"/>
    <path d="M 231.77255249023438 331.4356384277344 C 229.1243438720703 341.802978515625 221.8242950439453 349.1822814941406 210.4881591796875 351.9382629394531 C 200.13185119628906 349.2138977050781 192.8177947998047 341.8565979003906 190.2600860595703 331.70062255859375 C 193.68325805664062 321.0013427734375 200.99998474121094 313.6785888671875 211.0553741455078 310.95733642578125 C 221.28326416015625 313.4766540527344 228.8680419921875 320.5980224609375 231.77255249023438 331.4356384277344" stroke-width="0.0" fill="rgb(252, 79, 52)" opacity="0.9904162"/>
    <path d="M 488.0074157714844 566.0074462890625 C 485.3751525878906 576.0935668945312 478.16583251953125 583.6005859375 468.0113525390625 586.6686401367188 C 457.9175720214844 583.5269165039062 450.6908264160156 576.0125122070312 448.0186462402344 565.997802734375 C 450.68756103515625 556.0137329101562 458.1059875488281 548.9615478515625 468.3815002441406 546.9157104492188 C 478.11358642578125 548.5130004882812 485.3515319824219 555.9293823242188 488.0074157714844 566.0074462890625" stroke-width="0.0" fill="rgb(252, 251, 250)" opacity="0.9923683"/>
    <path d="M 468.4181213378906 542.2832641601562 C 465.4764404296875 551.9891357421875 457.91864013671875 559.226318359375 448.0309753417969 561.7579956054688 C 438.1018981933594 559.186279296875 430.42657470703125 552.02294921875 428.7046203613281 541.5524291992188 C 430.2435302734375 531.6989135742188 437.78497314453125 524.51220703125 447.5586853027344 522.8175048828125 C 457.4165344238281 525.372802734375 464.895751953125 532.4878540039062 468.4181213378906 542.2832641601562" stroke-width="0.0" fill="rgb(252, 252, 252)" opacity="1.0"/>
    <path d="M 183.88900756835938 137.24464416503906 C 181.1430206298828 147.8079071044922 173.82057189941406 155.1750030517578 163.538818359375 157.89759826660156 C 152.25714111328125 155.09913635253906 144.89712524414062 147.7442169189453 142.11337280273438 136.8756103515625 C 144.8814239501953 126.23404693603516 152.22918701171875 118.86933135986328 162.7581024169922 116.09725189208984 C 173.73727416992188 118.8976058959961 181.09523010253906 126.26567840576172 183.88900756835938 137.24464416503906" stroke-width="0.0" fill="rgb(58, 186, 255)" opacity="1.0"/>
    <path d="M 597.31982421875 557.15234375 C 594.5997314453125 567.2908935546875 587.3355102539062 574.7339477539062 577.1985473632812 577.4947509765625 C 567.0320434570312 574.4205932617188 560.0276489257812 566.8197021484375 557.4644165039062 556.8837280273438 C 559.9044189453125 547.10986328125 567.0444946289062 539.6991577148438 576.9935302734375 537.0717163085938 C 587.0894165039062 539.6163330078125 594.323486328125 546.9263305664062 597.31982421875 557.15234375" stroke-width="0.0" fill="rgb(255, 255, 255)" opacity="0.9906144"/>
  </g>
</svg>
