<?xml version="1.0" ?>
<svg xmlns="http://www.w3.org/2000/svg" version="1.1" width="600" height="600">
  <defs/>
  <g>
    <path d="M 593.7996215820312 294.2149658203125 C 590.9620361328125 304.51849365234375 583.3992309570312 311.5976257324219 573.0571899414062 313.9954833984375 C 563.0 311.32049560546875 555.6795043945312 304.0 552.9949340820312 293.9917907714844 C 555.6419677734375 283.9407958984375 562.911865234375 276.5472106933594 573.0069580078125 273.8174743652344 C 583.2679443359375 276.472900390625 590.8447875976562 283.62115478515625 593.7996215820312 294.2149658203125" stroke-width="0.0" fill="rgb(255, 196, 119)" opacity="0.9911887"/>
    <path d="M 591.0009765625 258.001708984375 C 588.3294677734375 268.0159912109375 581.0280151367188 275.3697509765625 570.6666259765625 278.4862365722656 C 560.8218994140625 275.7828063964844 554.2177124023438 267.7256164550781 551.6646728515625 257.5208740234375 C 553.6795043945312 248.0 561.0 240.6794891357422 571.0 238.0 C 581.0 240.6794891357422 588.3204956054688 248.0 591.0009765625 258.001708984375" stroke-width="0.0" fill="rgb(252, 192, 113)" opacity="1.0"/>
    <path d="M 79.17160034179688 59.853580474853516 C 76.36471557617188 70.07146453857422 69.11738586425781 77.5133285522461 59.01336669921875 80.62390899658203 C 48.887149810791016 77.43489074707031 41.57195281982422 70.1130599975586 38.71281051635742 59.78351974487305 C 41.366519927978516 49.69820785522461 48.70508575439453 42.39064025878906 59.115562438964844 39.69280242919922 C 69.36387634277344 42.283992767333984 76.66361999511719 49.652435302734375 79.17160034179688 59.853580474853516" stroke-width="0.0" fill="rgb(254, 254, 254)" opacity="0.9908249"/>
    <path d="M 393.0 5.0 C 390.32049560546875 15.0 383.0 22.32050895690918 372.99822998046875 25.000633239746094 C 362.939208984375 22.34276008605957 355.2066345214844 15.23466968536377 352.0613098144531 4.331032752990723 C 354.9103088378906 -5.571622371673584 362.6910705566406 -12.477917671203613 372.97772216796875 -15.009716033935547 C 383.0 -12.320508003234863 390.32049560546875 -5.0 393.0 5.0" stroke-width="0.0" fill="rgb(0, 0, 0)" opacity="1.0"/>
    <path d="M 251.11961364746094 546.8766479492188 C 250.20126342773438 556.8704223632812 242.88076782226562 564.2272338867188 232.79212951660156 566.935302734375 C 221.61929321289062 563.9331665039062 214.6078643798828 556.1608276367188 212.34657287597656 546.386474609375 C 215.37046813964844 536.7411499023438 222.7998504638672 529.539306640625 232.14260864257812 526.9476318359375 C 241.1460418701172 529.5545043945312 248.43563842773438 536.8580322265625 251.11961364746094 546.8766479492188" stroke-width="0.0" fill="rgb(244, 45, 28)" opacity="0.99001354"/>
    <path d="M 516.066650390625 528.1222534179688 C 513.382080078125 538.0726318359375 506.0721740722656 545.3807373046875 496.1799621582031 548.0269165039062 C 486.23223876953125 546.1354370117188 478.8182373046875 539.83740234375 476.2646789550781 529.7044067382812 C 479.67950439453125 519.0 487.0 511.67950439453125 497.0 509.0 C 506.9998779296875 511.6795349121094 514.3035888671875 519.0046997070312 516.066650390625 528.1222534179688" stroke-width="0.0" fill="rgb(2, 2, 2)" opacity="0.9900136"/>
    <path d="M 600.9005126953125 38.0599479675293 C 598.3204956054688 48.0 591.0 55.32050704956055 581.0 58.0 C 571.0 55.32050704956055 563.6795043945312 48.0 561.0 38.0 C 563.6795043945312 28.0 571.0 20.67949104309082 580.910888671875 18.14156150817871 C 590.9009399414062 20.831317901611328 598.2136840820312 28.084192276000977 600.9005126953125 38.0599479675293" stroke-width="0.0" fill="rgb(254, 254, 253)" opacity="0.99282604"/>
    <path d="M 78.21456909179688 26.180490493774414 C 75.67922973632812 36.32302474975586 68.29222869873047 43.576351165771484 58.22938919067383 45.805721282958984 C 48.21950149536133 43.01882553100586 40.69355773925781 35.86357879638672 37.823631286621094 26.06747055053711 C 40.67949295043945 16.0 48.0 8.679491996765137 58.0 6.0 C 68.0 8.679491996765137 75.32051086425781 16.0 78.21456909179688 26.180490493774414" stroke-width="0.0" fill="rgb(253, 253, 253)" opacity="0.9916706"/>
    <path d="M 132.0 598.0 C 129.3205108642578 608.0 122.0 615.3204956054688 111.99991607666016 618.0 C 101.99566650390625 615.3218994140625 94.60580444335938 608.0252075195312 91.66986083984375 598.1412963867188 C 94.68012237548828 588.0001831054688 102.0000228881836 580.6795043945312 112.0 578.0 C 122.0 580.6795043945312 129.3205108642578 588.0 132.0 598.0" stroke-width="0.0" fill="rgb(252, 252, 252)" opacity="0.9983697"/>
    <path d="M 95.0 8.0 C 92.32051086425781 18.0 85.0 25.32050895690918 75.0 28.0 C 65.0 25.32050895690918 57.67949295043945 18.0 54.999671936035156 7.999795436859131 C 57.67909622192383 -2.000247001647949 64.99983978271484 -9.32060718536377 74.9999771118164 -12.00001335144043 C 85.0 -9.320508003234863 92.32051086425781 -2.0 95.0 8.0" stroke-width="0.0" fill="rgb(251, 252, 251)" opacity="0.9999338"/>
    <path d="M 187.0 7.0 C 184.3205108642578 17.0 177.0 24.32050895690918 167.0 27.0 C 156.9999542236328 24.320520401000977 149.67471313476562 17.00132942199707 147.3114776611328 7.224923133850098 C 149.81858825683594 -2.933018922805786 157.0302276611328 -10.303192138671875 167.00340270996094 -12.998001098632812 C 177.0 -10.320508003234863 184.3205108642578 -3.0 187.0 7.0" stroke-width="0.0" fill="rgb(253, 254, 253)" opacity="0.9943232"/>
    <path d="M 45.89921188354492 362.7920227050781 C 43.06007385253906 373.6305236816406 35.535648345947266 380.79730224609375 24.492298126220703 383.6806945800781 C 14.254058837890625 381.07513427734375 6.867953300476074 373.76715087890625 4.111310005187988 362.84881591796875 C 6.894080638885498 352.2986755371094 14.348929405212402 345.0159606933594 25.183788299560547 342.216796875 C 35.687477111816406 344.9759216308594 43.128143310546875 352.2686767578125 45.89921188354492 362.7920227050781" stroke-width="0.0" fill="rgb(252, 190, 117)" opacity="1.0"/>
    <path d="M 545.5463256835938 493.5267333984375 C 542.3204956054688 504.0 535.0 511.32049560546875 525.0 514.0 C 515.0 511.32049560546875 507.67950439453125 504.0 504.9406433105469 493.9241943359375 C 507.4347839355469 483.6883239746094 514.599365234375 476.1644592285156 525.3943481445312 473.2037658691406 C 535.649658203125 475.98956298828125 543.0048828125 483.3511657714844 545.5463256835938 493.5267333984375" stroke-width="0.0" fill="rgb(252, 192, 121)" opacity="1.0"/>
    <path d="M 37.31610107421875 434.2196044921875 C 35.349510192871094 444.0128479003906 28.00489044189453 451.322265625 17.999168395996094 454.0005798339844 C 7.990200519561768 451.3258361816406 0.6477518081665039 444.0176086425781 -2.0343480110168457 434.01922607421875 C 0.6794919371604919 424.0 8.0 416.67950439453125 17.99991798400879 414.0000305175781 C 27.997175216674805 416.6805114746094 35.245391845703125 424.0240783691406 37.31610107421875 434.2196044921875" stroke-width="0.0" fill="rgb(250, 250, 249)" opacity="1.0"/>
    <path d="M 537.0076293945312 498.9949951171875 C 534.3204956054688 509.0 527.0 516.3204956054688 517.0 519.0 C 506.99853515625 516.3209838867188 499.647705078125 509.01025390625 496.22991943359375 498.3967590332031 C 498.9491271972656 488.3349304199219 506.3661804199219 481.0332336425781 516.5642700195312 478.468017578125 C 527.0039672851562 481.67767333984375 534.33056640625 488.99359130859375 537.0076293945312 498.9949951171875" stroke-width="0.0" fill="rgb(252, 191, 118)" opacity="0.99178225"/>
    <path d="M 540.0 587.0 C 537.3204956054688 597.0 530.0 604.3204956054688 520.0 607.0 C 510.0 604.3204956054688 502.67950439453125 597.0 500.0 587.0 C 502.67950439453125 577.0 510.0 569.6795043945312 520.0 567.0 C 530.0 569.6795043945312 537.3204956054688 577.0 540.0 587.0" stroke-width="0.0" fill="rgb(252, 252, 251)" opacity="1.0"/>
    <path d="M 411.8819885253906 29.881181716918945 C 409.01690673828125 39.66273880004883 401.6057434082031 46.84080123901367 392.1925048828125 49.28617858886719 C 382.3784484863281 46.809146881103516 374.8753967285156 39.72722244262695 372.0364685058594 29.94746208190918 C 374.67950439453125 20.0 382.0 12.679491996765137 392.0 10.0 C 402.0 12.679491996765137 409.32049560546875 20.0 411.8819885253906 29.881181716918945" stroke-width="0.0" fill="rgb(255, 196, 125)" opacity="0.990076"/>
    <path d="M 95.02367401123047 447.48590087890625 C 92.37599182128906 457.0737609863281 85.08602905273438 464.4088134765625 75.44584655761719 467.05963134765625 C 66.7420654296875 464.50823974609375 59.310672760009766 457.320556640625 56.714481353759766 448.5348815917969 C 59.47294616699219 438.7237548828125 66.4447021484375 429.9703674316406 75.06900787353516 428.8653564453125 C 85.06901550292969 431.62353515625 92.3780288696289 438.93035888671875 95.02367401123047 447.48590087890625" stroke-width="0.0" fill="rgb(2, 2, 2)" opacity="0.990003"/>
    <path d="M 613.9989624023438 532.002197265625 C 611.3204956054688 542.0 604.0 549.3204956054688 594.0 552.0 C 583.9996337890625 549.3206176757812 576.6619873046875 542.0051879882812 573.6536254882812 531.9743041992188 C 576.4020385742188 521.7081909179688 583.7086181640625 514.4097290039062 594.0341186523438 511.61846923828125 C 603.9552001953125 514.748779296875 611.3068237304688 522.027587890625 613.9989624023438 532.002197265625" stroke-width="0.0" fill="rgb(254, 254, 252)" opacity="0.99128485"/>
    <path d="M 45.233299255371094 47.14247131347656 C 42.561622619628906 57.25908660888672 35.30537796020508 64.70171356201172 24.961313247680664 67.24759674072266 C 14.753158569335938 64.64276123046875 7.737755298614502 57.145572662353516 5.190085411071777 46.7650032043457 C 7.406384468078613 36.806705474853516 14.881011009216309 29.652528762817383 25.22648048400879 26.508377075195312 C 35.334266662597656 29.298460006713867 42.5160026550293 36.718360900878906 45.233299255371094 47.14247131347656" stroke-width="0.0" fill="rgb(254, 254, 253)" opacity="0.99056923"/>
    <path d="M 27.00006103515625 533.9998779296875 C 24.320663452148438 544.0005493164062 17.006982803344727 551.3441162109375 6.814015865325928 554.5864868164062 C -3.143178701400757 551.578369140625 -10.359617233276367 544.0731201171875 -13.004904747009277 534.0045776367188 C -10.335500717163086 523.9701538085938 -3.0546886920928955 516.582763671875 7.087894439697266 513.6796264648438 C 17.00053596496582 516.6755981445312 24.320682525634766 524.0003662109375 27.00006103515625 533.9998779296875" stroke-width="0.0" fill="rgb(252, 253, 252)" opacity="0.992209"/>
    <path d="M 550.9600219726562 1.6187994480133057 C 548.0138549804688 11.82894515991211 540.9154663085938 19.277368545532227 530.9928588867188 21.99643325805664 C 521.0 19.32050895690918 513.6795043945312 12.0 511.0 2.0 C 513.6795043945312 -8.0 521.0 -15.320508003234863 531.0000610351562 -18.000024795532227 C 541.004150390625 -15.321861267089844 548.399658203125 -8.026644706726074 550.9600219726562 1.6187994480133057" stroke-width="0.0" fill="rgb(253, 253, 252)" opacity="0.99338865"/>
    <path d="M 546.6011962890625 584.1087036132812 C 543.6732177734375 594.2819213867188 536.2490844726562 601.5687866210938 526.1052856445312 604.1190795898438 C 516.0 601.3204956054688 508.67950439453125 594.0 505.9998779296875 583.999755859375 C 508.6778869628906 573.99658203125 515.9913940429688 566.6597900390625 526.2276611328125 563.6006469726562 C 536.2836303710938 566.3324584960938 543.5498657226562 573.753173828125 546.6011962890625 584.1087036132812" stroke-width="0.0" fill="rgb(254, 254, 253)" opacity="0.9909758"/>
    <path d="M 618.0 59.000003814697266 C 615.3206176757812 69.00033569335938 608.0051879882812 76.33836364746094 597.7205810546875 79.59456634521484 C 587.6530151367188 76.76335906982422 580.446533203125 69.27958679199219 577.551025390625 59.08092498779297 C 580.6680297851562 48.9967155456543 587.9998168945312 41.679447174072266 598.0 39.00003433227539 C 608.0 41.67949295043945 615.3204956054688 49.0 618.0 59.000003814697266" stroke-width="0.0" fill="rgb(253, 254, 252)" opacity="0.9914815"/>
    <path d="M 574.0049438476562 39.99222183227539 C 571.3204956054688 50.0 564.0 57.32050704956055 553.9437255859375 60.043025970458984 C 543.7559814453125 57.51066589355469 536.2764892578125 50.31149673461914 533.6049194335938 40.27022171020508 C 536.6793823242188 29.99958610534668 543.9966430664062 22.668739318847656 554.1428833007812 19.58495330810547 C 564.0703735351562 22.57746696472168 571.3540649414062 29.95033073425293 574.0049438476562 39.99222183227539" stroke-width="0.0" fill="rgb(253, 253, 253)" opacity="0.9920267"/>
    <path d="M 588.9805908203125 295.9906921386719 C 586.2918090820312 305.9738464355469 578.975341796875 313.296875 569.4130859375 315.4573974609375 C 559.5173950195312 312.7342224121094 552.2060546875 305.5048828125 549.6696166992188 295.8534240722656 C 552.1022338867188 286.1937255859375 558.7630615234375 278.1421203613281 568.5298461914062 275.3558654785156 C 578.998046875 278.6817321777344 586.3175048828125 286.002197265625 588.9805908203125 295.9906921386719" stroke-width="0.0" fill="rgb(252, 198, 114)" opacity="0.990089"/>
    <path d="M 154.42095947265625 570.6099243164062 C 151.10946655273438 580.861083984375 143.9190216064453 588.2985229492188 134.0109405517578 591.0321655273438 C 124.0 588.3204956054688 116.67948913574219 581.0 113.94571685791016 570.9381713867188 C 116.49414825439453 560.7864990234375 123.79668426513672 553.5518798828125 134.15235900878906 551.9080810546875 C 144.45086669921875 553.3805541992188 151.8610076904297 560.4913330078125 154.42095947265625 570.6099243164062" stroke-width="0.0" fill="rgb(249, 249, 248)" opacity="1.0"/>
    <path d="M 564.0384521484375 506.02471923828125 C 561.4227294921875 516.1058349609375 554.106201171875 523.423583984375 544.0335083007812 526.0264282226562 C 534.0 523.3204956054688 526.6795043945312 516.0 524.6123657226562 506.5648498535156 C 527.457763671875 496.77557373046875 534.7985229492188 489.52056884765625 544.836669921875 486.89617919921875 C 554.2493896484375 488.23095703125 561.3787231445312 495.89190673828125 564.0384521484375 506.02471923828125" stroke-width="0.0" fill="rgb(248, 249, 249)" opacity="0.9900471"/>
    <path d="M 583.89990234375 171.7820587158203 C 581.1859130859375 181.79388427734375 573.7147827148438 188.9607696533203 563.528076171875 190.4532928466797 C 553.4917602539062 187.77947998046875 546.2496337890625 180.4977569580078 542.4075927734375 170.2943878173828 C 544.9784545898438 160.37615966796875 552.4241333007812 153.11557006835938 562.6911010742188 150.6658477783203 C 573.0232543945312 153.67393493652344 580.584716796875 160.8913116455078 583.89990234375 171.7820587158203" stroke-width="0.0" fill="rgb(252, 193, 125)" opacity="0.9901118"/>
    <path d="M 41.71547317504883 486.2253723144531 C 39.663082122802734 496.3076171875 32.275794982910156 503.55889892578125 22.084747314453125 506.296142578125 C 11.875833511352539 503.4788818359375 4.473426342010498 496.1384582519531 1.5464575290679932 486.2314147949219 C 4.679491996765137 476.0 12.0 468.67950439453125 21.99616813659668 466.0021057128906 C 31.960844039916992 468.7005920410156 39.17002868652344 476.0787048339844 41.71547317504883 486.2253723144531" stroke-width="0.0" fill="rgb(254, 254, 253)" opacity="0.9908156"/>
    <path d="M 514.8772583007812 525.8334350585938 C 512.2423706054688 535.9130249023438 504.9171447753906 543.2529907226562 494.9059753417969 545.93359375 C 484.80328369140625 541.471435546875 477.3818359375 534.2433471679688 473.6638488769531 524.4358520507812 C 476.0802307128906 514.4392700195312 483.4388427734375 507.07843017578125 493.60540771484375 504.39801025390625 C 504.003173828125 507.6685485839844 511.320556640625 514.9998168945312 514.8772583007812 525.8334350585938" stroke-width="0.0" fill="rgb(243, 195, 127)" opacity="0.9900131"/>
    <path d="M 540.9210205078125 104.20829772949219 C 537.876953125 115.34380340576172 530.1610107421875 122.39752960205078 520.4580078125 124.38072967529297 C 510.4927978515625 121.74128723144531 503.2254333496094 114.5208969116211 500.7235412597656 104.68436431884766 C 502.850830078125 95.06717681884766 510.0159912109375 87.6852035522461 520.7201538085938 84.22423553466797 C 530.8614501953125 86.81293487548828 538.2229614257812 94.12483215332031 540.9210205078125 104.20829772949219" stroke-width="0.0" fill="rgb(252, 192, 127)" opacity="1.0"/>
    <path d="M 114.79923248291016 118.81797790527344 C 111.82233428955078 128.98829650878906 103.57798767089844 135.72314453125 93.62462615966797 138.2308349609375 C 83.69205474853516 136.24542236328125 76.11881256103516 129.45565795898438 73.21459197998047 118.66453552246094 C 75.95660400390625 108.3131332397461 83.31401824951172 100.95877838134766 93.90829467773438 98.19927978515625 C 104.65367889404297 100.9886474609375 112.04583740234375 108.33370208740234 114.79923248291016 118.81797790527344" stroke-width="0.0" fill="rgb(252, 192, 127)" opacity="0.9902274"/>
    <path d="M 180.78306579589844 54.59825897216797 C 177.7564239501953 65.28056335449219 170.16506958007812 72.41732788085938 160.01785278320312 75.01189422607422 C 149.9592742919922 72.33660125732422 142.38671875 65.13314819335938 139.2042694091797 54.535179138183594 C 141.9169158935547 44.26894760131836 149.2899169921875 36.983272552490234 159.97915649414062 34.388431549072266 C 170.65283203125 37.02072525024414 178.0342254638672 44.328739166259766 180.78306579589844 54.59825897216797" stroke-width="0.0" fill="rgb(255, 191, 121)" opacity="1.0"/>
    <path d="M 119.0 7.0 C 116.32051086425781 17.0 109.0 24.32050895690918 99.0 27.0 C 89.0 24.32050895690918 81.67948913574219 17.0 79.0 7.0 C 81.67948913574219 -3.0 89.0 -10.320508003234863 99.0 -13.0 C 109.0 -10.320508003234863 116.32051086425781 -3.0 119.0 7.0" stroke-width="0.0" fill="rgb(252, 252, 251)" opacity="0.9999992"/>
    <path d="M 578.7412109375 411.32049560546875 C 575.9976196289062 421.6390380859375 568.6366577148438 428.9917297363281 557.8366088867188 431.7899169921875 C 547.321044921875 429.03692626953125 539.9752197265625 421.6744079589844 537.0928344726562 410.2780456542969 C 539.829345703125 400.2101135253906 547.2540893554688 392.94195556640625 557.483154296875 390.4062194824219 C 568.0967407226562 393.63397216796875 575.6981201171875 400.7893981933594 578.7412109375 411.32049560546875" stroke-width="0.0" fill="rgb(255, 195, 121)" opacity="1.0"/>
    <path d="M 471.0 19.0 C 468.32049560546875 29.0 461.0 36.32050704956055 450.7427062988281 39.34412384033203 C 440.6971740722656 36.732547760009766 433.7069396972656 29.180248260498047 431.2080383300781 18.83729362487793 C 433.643798828125 8.983566284179688 440.9927673339844 1.6756482124328613 450.9992980957031 -1.0003832578659058 C 461.0 1.6794918775558472 468.32049560546875 9.0 471.0 19.0" stroke-width="0.0" fill="rgb(249, 250, 249)" opacity="0.9928906"/>
    <path d="M 25.025344848632812 222.92315673828125 C 22.194534301757812 232.73965454101562 14.469752311706543 239.5762939453125 5.2637128829956055 242.03555297851562 C -4.416834831237793 239.54229736328125 -12.158032417297363 232.68276977539062 -14.98388671875 222.99166870117188 C -12.20332145690918 213.2467803955078 -4.483728408813477 206.4140625 5.886379241943359 203.75711059570312 C 15.681635856628418 204.852783203125 22.6212100982666 212.5259246826172 25.025344848632812 222.92315673828125" stroke-width="0.0" fill="rgb(2, 2, 2)" opacity="0.99003524"/>
    <path d="M 135.00001525878906 584.0 C 132.3205108642578 594.0 125.0 601.3204956054688 114.99999237060547 604.0 C 104.9999771118164 601.3204956054688 97.67945861816406 594.0 94.99998474121094 584.0 C 97.67948913574219 574.0 105.0 566.6795043945312 115.0 564.0 C 125.00000762939453 566.6795043945312 132.32052612304688 574.0 135.00001525878906 584.0" stroke-width="0.0" fill="rgb(252, 252, 251)" opacity="0.9999996"/>
    <path d="M 468.1293640136719 1.023137092590332 C 465.2547912597656 10.97351360321045 457.9918518066406 18.31753158569336 447.9867858886719 21.011892318725586 C 437.96026611328125 18.359777450561523 430.6051025390625 11.04931926727295 427.55816650390625 0.9183854460716248 C 430.6529235839844 -9.007854461669922 437.9994201660156 -16.320674896240234 448.0 -19.000001907348633 C 457.9999694824219 -16.32050323486328 465.3197937011719 -8.999791145324707 468.1293640136719 1.023137092590332" stroke-width="0.0" fill="rgb(254, 254, 253)" opacity="0.99196255"/>
    <path d="M 489.45556640625 26.851245880126953 C 486.240478515625 36.9405517578125 478.9597473144531 44.3026123046875 468.9994201660156 47.00429916381836 C 459.0 44.32050704956055 451.67950439453125 37.0 448.9999694824219 26.999916076660156 C 451.67816162109375 16.995922088623047 458.9777526855469 9.614887237548828 469.01263427734375 6.64267110824585 C 479.2398986816406 9.403087615966797 486.5732727050781 16.767864227294922 489.45556640625 26.851245880126953" stroke-width="0.0" fill="rgb(254, 254, 254)" opacity="0.9909366"/>
    <path d="M 230.8905029296875 7.114721298217773 C 226.44644165039062 17.141769409179688 219.13424682617188 24.42775535583496 209.37728881835938 27.043685913085938 C 199.58282470703125 24.599260330200195 191.7867889404297 18.796051025390625 190.9284210205078 8.92058277130127 C 193.54954528808594 -1.2406340837478638 200.5924530029297 -8.890542984008789 210.1958465576172 -11.988801002502441 C 220.55186462402344 -9.710564613342285 228.16725158691406 -2.724776268005371 230.8905029296875 7.114721298217773" stroke-width="0.0" fill="rgb(2, 2, 2)" opacity="0.990005"/>
    <path d="M 393.97930908203125 27.978317260742188 C 391.2335510253906 37.860992431640625 383.7320861816406 44.87108612060547 373.84613037109375 47.188140869140625 C 364.3244934082031 44.839359283447266 356.8101501464844 37.79598617553711 354.0189208984375 27.97032928466797 C 356.68292236328125 18.0109806060791 364.09259033203125 10.931748390197754 374.0173645019531 8.902242660522461 C 383.8904113769531 10.964025497436523 391.3155517578125 18.01556396484375 393.97930908203125 27.978317260742188" stroke-width="0.0" fill="rgb(252, 193, 124)" opacity="0.9901202"/>
    <path d="M 479.27386474609375 530.7682495117188 C 476.32110595703125 541.0001831054688 469.0000305175781 548.3204956054688 459.0 551.0 C 449.0 548.3204956054688 441.67950439453125 541.0 439.02484130859375 531.0380249023438 C 441.8358154296875 521.2326049804688 449.3473815917969 514.173583984375 459.12689208984375 511.77362060546875 C 469.17877197265625 513.9197998046875 476.7425231933594 520.6570434570312 479.27386474609375 530.7682495117188" stroke-width="0.0" fill="rgb(255, 195, 123)" opacity="0.9902038"/>
    <path d="M 163.00050354003906 79.99971771240234 C 160.3205108642578 90.0 153.0 97.32051086425781 143.0 100.0 C 133.0 97.32051086425781 125.67948913574219 90.0 122.99708557128906 79.99382781982422 C 125.6387710571289 69.91604614257812 132.82083129882812 62.3529052734375 142.7041778564453 59.5047721862793 C 153.00006103515625 62.679603576660156 160.32098388671875 69.99977111816406 163.00050354003906 79.99971771240234" stroke-width="0.0" fill="rgb(255, 194, 122)" opacity="0.9992227"/>
    <path d="M 574.5380249023438 63.13251876831055 C 571.5892333984375 73.22441864013672 564.1982421875 80.50010681152344 554.080810546875 83.46212768554688 C 543.953857421875 80.24629974365234 536.4837036132812 73.12779998779297 534.0896606445312 63.25335693359375 C 536.8058471679688 53.022361755371094 543.9691162109375 45.63380813598633 553.9827880859375 42.98386764526367 C 564.0004272460938 45.67937469482422 571.340087890625 52.9942626953125 574.5380249023438 63.13251876831055" stroke-width="0.0" fill="rgb(254, 254, 254)" opacity="0.99067426"/>
    <path d="M 63.00008773803711 9.9998140335083 C 60.32046890258789 19.999984741210938 53.000003814697266 27.320541381835938 42.82875442504883 30.301179885864258 C 32.82939910888672 27.555997848510742 25.486963272094727 20.158004760742188 22.772939682006836 10.107951164245605 C 25.944869995117188 0.18698057532310486 33.12990951538086 -7.237019062042236 43.01884078979492 -9.988346099853516 C 53.0002326965332 -7.320684432983398 60.320892333984375 -0.00029587832977995276 63.00008773803711 9.9998140335083" stroke-width="0.0" fill="rgb(253, 253, 253)" opacity="0.9912917"/>
    <path d="M 138.5701141357422 64.57978057861328 C 135.3206329345703 75.00037384033203 128.0028533935547 82.32962036132812 117.49488067626953 85.67201232910156 C 107.43818664550781 82.96521759033203 100.242919921875 75.49432373046875 97.85533142089844 65.17471313476562 C 100.67948913574219 55.0 108.0 47.67949295043945 118.06463623046875 44.9554328918457 C 128.32107543945312 47.44535446166992 135.8731689453125 54.572853088378906 138.5701141357422 64.57978057861328" stroke-width="0.0" fill="rgb(252, 188, 116)" opacity="1.0"/>
    <path d="M 35.21148681640625 160.4477996826172 C 33.335906982421875 169.99957275390625 25.99494171142578 177.31765747070312 16.519027709960938 179.20248413085938 C 5.8844404220581055 177.3094940185547 -1.5022804737091064 170.1626434326172 -4.194587707519531 159.98687744140625 C -1.5078506469726562 149.8528594970703 5.881937026977539 142.58737182617188 15.906291007995605 140.143798828125 C 25.976415634155273 142.75050354003906 33.22513198852539 150.02972412109375 35.21148681640625 160.4477996826172" stroke-width="0.0" fill="rgb(249, 249, 249)" opacity="1.0"/>
    <path d="M 472.0 545.0 C 469.32049560546875 555.0 462.0 562.3204956054688 452.0 565.0 C 442.0 562.3204956054688 434.67950439453125 555.0 432.0 545.0 C 434.67950439453125 535.0 442.0 527.6795043945312 452.0 525.0 C 462.0 527.6795043945312 469.32049560546875 535.0 472.0 545.0" stroke-width="0.0" fill="rgb(255, 193, 119)" opacity="1.0"/>
    <path d="M 581.5039672851562 245.49807739257812 C 579.3335571289062 255.0363311767578 572.1486206054688 262.6570739746094 562.6453857421875 265.8184509277344 C 552.8934326171875 261.4471130371094 545.614013671875 254.08692932128906 542.9755859375 245.5499267578125 C 545.620849609375 235.9213104248047 552.9046020507812 228.57183837890625 561.360595703125 225.93988037109375 C 571.1787109375 228.54592895507812 578.5601806640625 235.78416442871094 581.5039672851562 245.49807739257812" stroke-width="0.0" fill="rgb(5, 2, 4)" opacity="0.99000466"/>
    <path d="M 464.9991149902344 534.0018310546875 C 462.32049560546875 544.0 455.0 551.3204956054688 444.96258544921875 554.0445556640625 C 434.9932861328125 551.3924560546875 427.99859619140625 543.8695068359375 425.7058410644531 534.05859375 C 428.237060546875 524.4956665039062 435.4876708984375 517.2160034179688 445.125244140625 514.6641845703125 C 454.9009094238281 516.903564453125 462.3065490722656 524.0320434570312 464.9991149902344 534.0018310546875" stroke-width="0.0" fill="rgb(252, 194, 120)" opacity="0.99006474"/>
    <path d="M 33.33930587768555 534.7626342773438 C 30.309280395507812 545.0025634765625 23.005592346191406 552.3220825195312 12.98488712310791 554.9630737304688 C 2.9797089099884033 552.3607788085938 -4.324766635894775 545.0096435546875 -7.000255107879639 535.0005493164062 C -4.321310520172119 524.9974975585938 2.9846978187561035 517.6334228515625 12.889654159545898 514.8250122070312 C 23.089218139648438 517.6314086914062 30.496871948242188 524.8737182617188 33.33930587768555 534.7626342773438" stroke-width="0.0" fill="rgb(253, 253, 252)" opacity="0.99144393"/>
    <path d="M 31.055849075317383 102.96075439453125 C 28.475736618041992 113.19046020507812 21.201963424682617 120.52265930175781 11.0808744430542 123.08794403076172 C 1.0 120.32051086425781 -6.320508003234863 113.0 -9.018219947814941 102.97900390625 C -6.385402202606201 92.9332275390625 0.9425379037857056 85.6490707397461 11.1145601272583 82.65682220458984 C 21.29698944091797 85.38247680664062 28.549596786499023 92.72091674804688 31.055849075317383 102.96075439453125" stroke-width="0.0" fill="rgb(253, 254, 253)" opacity="0.99085844"/>
    <path d="M 525.687744140625 83.16426086425781 C 522.6307983398438 93.13720703125 515.0362548828125 100.33334350585938 505.23370361328125 102.6778335571289 C 495.37994384765625 99.91381072998047 488.17547607421875 92.58880615234375 485.6242370605469 82.64214324951172 C 487.19580078125 72.4020004272461 494.29998779296875 64.8844223022461 504.2633972167969 62.27507781982422 C 514.7025146484375 66.02931213378906 522.6314086914062 73.12232208251953 525.687744140625 83.16426086425781" stroke-width="0.0" fill="rgb(252, 192, 121)" opacity="1.0"/>
    <path d="M 188.89175415039062 7.454035758972168 C 186.90733337402344 17.57468032836914 179.56626892089844 24.879894256591797 169.28465270996094 27.255504608154297 C 159.0 24.32050895690918 151.6794891357422 17.0 149.00015258789062 7.000043869018555 C 151.67950439453125 -2.9999945163726807 159.0 -10.320507049560547 168.99761962890625 -12.998940467834473 C 178.9589385986328 -10.302404403686523 186.0962677001953 -2.893284559249878 188.89175415039062 7.454035758972168" stroke-width="0.0" fill="rgb(250, 250, 249)" opacity="1.0"/>
    <path d="M 153.7133331298828 530.4495849609375 C 151.0083770751953 541.666748046875 143.69053649902344 549.0716552734375 132.31483459472656 551.897705078125 C 122.13916778564453 549.2075805664062 114.81829833984375 541.85107421875 112.2563247680664 531.6123046875 C 115.03022003173828 520.4632568359375 122.62208557128906 513.7266235351562 133.1910858154297 511.7451477050781 C 143.5166778564453 513.4388427734375 151.09951782226562 520.3327026367188 153.7133331298828 530.4495849609375" stroke-width="0.0" fill="rgb(252, 191, 122)" opacity="1.0"/>
    <path d="M 593.4513549804688 131.0443878173828 C 590.347412109375 141.00804138183594 583.0006713867188 148.32070922851562 573.0 151.0 C 563.0 148.3205108642578 555.6795043945312 141.0 552.9423828125 130.92665100097656 C 555.444091796875 120.70375061035156 562.6170043945312 113.18045043945312 572.623291015625 110.28327941894531 C 583.023681640625 113.61602020263672 590.3639526367188 120.98223876953125 593.4513549804688 131.0443878173828" stroke-width="0.0" fill="rgb(254, 254, 254)" opacity="0.9908376"/>
    <path d="M 204.62100219726562 594.6976318359375 C 201.30972290039062 604.9921875 193.99501037597656 612.3184814453125 184.00155639648438 614.9991455078125 C 174.02980041503906 612.3071899414062 166.8230438232422 604.9302978515625 163.7049102783203 594.8014526367188 C 166.75477600097656 585.07080078125 174.05850219726562 577.718017578125 184.03082275390625 574.9931640625 C 194.1902618408203 577.5671997070312 201.7788848876953 584.6923217773438 204.62100219726562 594.6976318359375" stroke-width="0.0" fill="rgb(254, 254, 254)" opacity="0.99054873"/>
    <path d="M 382.8957214355469 24.148120880126953 C 380.3043518066406 33.97989273071289 372.9665832519531 41.25818634033203 363.4064636230469 43.37510681152344 C 353.4726257324219 40.76993942260742 346.20684814453125 33.53672790527344 343.7737731933594 23.94641876220703 C 346.10052490234375 14.422168731689453 353.5837707519531 7.434452056884766 362.4808349609375 4.952293395996094 C 372.2715759277344 7.514715671539307 379.85595703125 14.594688415527344 382.8957214355469 24.148120880126953" stroke-width="0.0" fill="rgb(252, 193, 122)" opacity="0.9900344"/>
    <path d="M 593.7738037109375 387.6991271972656 C 591.1619873046875 397.79815673828125 583.7733154296875 405.0945129394531 573.5684204101562 407.6358337402344 C 562.9804077148438 404.32867431640625 555.5404052734375 397.059326171875 552.2459716796875 386.4680480957031 C 554.9696044921875 376.32781982421875 562.3269653320312 368.9681091308594 572.5117797851562 366.28106689453125 C 583.51611328125 369.2147521972656 590.980224609375 376.4194030761719 593.7738037109375 387.6991271972656" stroke-width="0.0" fill="rgb(252, 191, 121)" opacity="1.0"/>
    <path d="M 19.999868392944336 591.0003662109375 C 17.32050895690918 601.0 10.0 608.3204956054688 1.2246467996456087e-15 611.0 C -10.0 608.3204956054688 -17.32050895690918 601.0 -20.0 591.0 C -17.32050895690918 581.0 -10.0 573.6795043945312 -0.029671035706996918 570.989990234375 C 9.96370792388916 573.7697143554688 17.31650161743164 581.0108032226562 19.999868392944336 591.0003662109375" stroke-width="0.0" fill="rgb(250, 250, 249)" opacity="0.9957405"/>
    <path d="M 586.4016723632812 502.888427734375 C 583.436767578125 513.1759033203125 576.205810546875 520.5437622070312 565.8658447265625 523.6098022460938 C 555.8442993164062 520.587890625 548.6298828125 513.0860595703125 545.97021484375 502.9774169921875 C 548.5675659179688 492.85882568359375 555.8330078125 485.4834899902344 565.9750366210938 482.7225036621094 C 576.2372436523438 485.4735412597656 583.5873413085938 492.74456787109375 586.4016723632812 502.888427734375" stroke-width="0.0" fill="rgb(254, 254, 253)" opacity="0.9906473"/>
    <path d="M 425.2887878417969 20.120853424072266 C 422.8083190917969 29.55904197692871 415.5738525390625 36.84869384765625 405.6341857910156 39.66048049926758 C 395.947509765625 37.42619323730469 388.6669006347656 30.024580001831055 385.9988708496094 20.00214958190918 C 388.67950439453125 10.0 396.0 2.6794919967651367 405.7743835449219 0.280617892742157 C 415.58294677734375 3.104550361633301 422.7768859863281 10.457878112792969 425.2887878417969 20.120853424072266" stroke-width="0.0" fill="rgb(255, 203, 139)" opacity="0.99008465"/>
    <path d="M 233.33905029296875 552.7035522460938 C 232.03944396972656 562.625732421875 224.45465087890625 569.0968627929688 214.4165496826172 571.0990600585938 C 204.3492889404297 568.7595825195312 196.75791931152344 561.8336791992188 193.0630645751953 551.1348266601562 C 195.78382873535156 541.1700439453125 203.2922821044922 534.7102661132812 213.51614379882812 532.9556274414062 C 223.28717041015625 535.4834594726562 230.62850952148438 542.6621704101562 233.33905029296875 552.7035522460938" stroke-width="0.0" fill="rgb(85, 13, 17)" opacity="0.990013"/>
    <path d="M 193.04397583007812 84.64682006835938 C 190.429931640625 94.14202880859375 183.17445373535156 101.54204559326172 173.18551635742188 105.92678833007812 C 163.11349487304688 103.22344970703125 155.78756713867188 95.88270568847656 153.26678466796875 85.80934143066406 C 157.40052795410156 75.7069320678711 164.7248992919922 68.45075225830078 174.78370666503906 65.63326263427734 C 184.27352905273438 66.94925689697266 190.48382568359375 75.65692138671875 193.04397583007812 84.64682006835938" stroke-width="0.0" fill="rgb(204, 30, 24)" opacity="0.99001485"/>
    <path d="M 81.06681823730469 501.34552001953125 C 78.63092803955078 511.5066833496094 71.70027160644531 519.0905151367188 61.840084075927734 522.2173461914062 C 51.739784240722656 519.54443359375 44.297149658203125 512.3080444335938 41.43756103515625 502.3540344238281 C 44.52533721923828 491.75567626953125 51.61475372314453 484.1257019042969 61.30891799926758 482.82073974609375 C 71.5264663696289 485.2620544433594 79.1218490600586 492.3594970703125 81.06681823730469 501.34552001953125" stroke-width="0.0" fill="rgb(249, 250, 249)" opacity="1.0"/>
    <path d="M 53.159759521484375 559.1641845703125 C 50.44136428833008 569.0913696289062 43.06607437133789 576.3512573242188 32.990272521972656 578.9570922851562 C 23.0 576.3204956054688 15.679491996765137 569.0 13.00177001953125 559.0007934570312 C 15.680083274841309 548.999267578125 22.992162704467773 541.654541015625 32.78297805786133 539.2388305664062 C 42.90487289428711 541.8720092773438 50.28071975708008 549.0468139648438 53.159759521484375 559.1641845703125" stroke-width="0.0" fill="rgb(254, 254, 253)" opacity="0.99119616"/>
    <path d="M 527.0155639648438 580.97802734375 C 524.3204956054688 591.0 517.0 598.3204956054688 506.90472412109375 601.1076049804688 C 496.79827880859375 598.5430297851562 489.65802001953125 591.1494750976562 487.3139343261719 580.8878784179688 C 489.46795654296875 570.7327880859375 496.6871643066406 563.313232421875 507.0672607421875 560.5209350585938 C 517.1961059570312 563.3831176757812 524.409423828125 570.8697509765625 527.0155639648438 580.97802734375" stroke-width="0.0" fill="rgb(254, 254, 254)" opacity="0.9908191"/>
    <path d="M 556.327392578125 532.2173461914062 C 553.5567626953125 542.1935424804688 546.2131958007812 549.6138305664062 536.1294555664062 552.4371948242188 C 525.7054443359375 549.5619506835938 518.2354125976562 542.3588256835938 515.1393432617188 531.4542846679688 C 518.1109619140625 521.6658325195312 525.8395385742188 514.512451171875 535.8794555664062 511.7640075683594 C 545.9835205078125 514.6846923828125 553.1959228515625 522.0526123046875 556.327392578125 532.2173461914062" stroke-width="0.0" fill="rgb(254, 254, 254)" opacity="0.99062103"/>
    <path d="M 134.910888671875 50.147789001464844 C 130.62242126464844 60.32351303100586 123.30567169189453 67.57379150390625 113.27793884277344 70.2377700805664 C 103.40850067138672 69.00767517089844 96.3949203491211 61.47837829589844 94.7616195678711 50.756107330322266 C 96.72077941894531 41.01232147216797 104.00088500976562 33.67974853515625 114.09933471679688 30.94523811340332 C 124.5646743774414 33.28329849243164 132.1746368408203 40.263736724853516 134.910888671875 50.147789001464844" stroke-width="0.0" fill="rgb(98, 95, 95)" opacity="0.9902771"/>
    <path d="M 136.37982177734375 22.861278533935547 C 133.2744598388672 32.93625259399414 125.93965148925781 40.27922439575195 115.9906234741211 42.9947509765625 C 106.0 40.32050704956055 98.67948913574219 33.0 96.0 23.0 C 98.67948913574219 13.0 106.0 5.679491996765137 116.07415008544922 2.937934398651123 C 126.26264953613281 5.456123352050781 133.6749725341797 12.697036743164062 136.37982177734375 22.861278533935547" stroke-width="0.0" fill="rgb(254, 253, 253)" opacity="0.9920932"/>
    <path d="M 104.07182312011719 69.43506622314453 C 101.67927551269531 78.57792663574219 94.85535430908203 86.46717834472656 85.60569763183594 88.1864013671875 C 75.46509552001953 85.6573486328125 67.8113021850586 78.74177551269531 65.03218841552734 68.96529388427734 C 67.64740753173828 58.954036712646484 74.94445037841797 51.61754608154297 85.40924072265625 48.52944564819336 C 95.64469909667969 50.98093795776367 101.7560043334961 58.56253433227539 104.07182312011719 69.43506622314453" stroke-width="0.0" fill="rgb(248, 249, 248)" opacity="0.9902023"/>
    <path d="M 417.7510986328125 16.9943904876709 C 415.273193359375 26.976829528808594 407.9765319824219 34.272239685058594 397.9290771484375 36.90569305419922 C 387.9980773925781 34.3311767578125 380.68487548828125 26.997360229492188 378.017822265625 16.997968673706055 C 380.6816711425781 7.000882148742676 388.00030517578125 -0.3203824758529663 397.988525390625 -2.9899022579193115 C 407.9576721191406 -0.2830292582511902 415.2560729980469 7.050132751464844 417.7510986328125 16.9943904876709" stroke-width="0.0" fill="rgb(245, 189, 125)" opacity="1.0"/>
    <path d="M 613.0348510742188 264.9726867675781 C 610.4365234375 275.21160888671875 603.3795166015625 282.89129638671875 593.4671020507812 285.7923278808594 C 582.9014282226562 282.5299072265625 575.6621704101562 275.0379333496094 572.9984741210938 265.0025634765625 C 575.6795043945312 255.0 583.0 247.6794891357422 593.611083984375 244.23934936523438 C 603.534423828125 246.98373413085938 610.5455322265625 254.6372833251953 613.0348510742188 264.9726867675781" stroke-width="0.0" fill="rgb(252, 194, 115)" opacity="1.0"/>
    <path d="M 131.13888549804688 38.19668960571289 C 128.40603637695312 48.095436096191406 121.09120178222656 55.39479446411133 111.13811492919922 58.04467010498047 C 101.34771728515625 56.91436004638672 94.03723907470703 49.66071701049805 91.64865112304688 39.36125946044922 C 94.67948913574219 29.0 102.0 21.67949104309082 111.99906921386719 19.00046730041504 C 121.98918914794922 21.68501853942871 129.2685089111328 29.02435874938965 131.13888549804688 38.19668960571289" stroke-width="0.0" fill="rgb(249, 249, 249)" opacity="0.9900213"/>
    <path d="M 34.443721771240234 589.861328125 C 31.50279998779297 600.1497802734375 24.122638702392578 607.4143676757812 14.025566101074219 610.0186767578125 C 4.0 607.3204956054688 -3.3205080032348633 600.0 -6.000014305114746 590.0 C -3.320582866668701 579.9998779296875 3.999885082244873 572.6793823242188 14.000470161437988 569.9996948242188 C 24.012548446655273 572.674560546875 31.426408767700195 579.9574584960938 34.443721771240234 589.861328125" stroke-width="0.0" fill="rgb(250, 252, 250)" opacity="0.9930353"/>
    <path d="M 25.789487838745117 129.29722595214844 C 23.6701602935791 139.28997802734375 16.240449905395508 146.51014709472656 6.074090480804443 149.01458740234375 C -3.9799370765686035 146.28294372558594 -11.315354347229004 138.9895477294922 -13.99960994720459 128.99917602539062 C -11.320508003234863 119.0 -4.000000953674316 111.67948150634766 5.974745750427246 109.01814270019531 C 15.861503601074219 111.77766418457031 23.027423858642578 119.19995880126953 25.789487838745117 129.29722595214844" stroke-width="0.0" fill="rgb(252, 253, 253)" opacity="0.9919635"/>
    <path d="M 532.069091796875 509.08782958984375 C 529.3934936523438 519.0899047851562 522.0950927734375 526.4071044921875 512.1572875976562 529.1777954101562 C 502.32330322265625 528.113525390625 496.3500671386719 520.2620239257812 493.92901611328125 510.4859619140625 C 496.5353088378906 500.8292541503906 503.8311462402344 493.5401916503906 513.6190795898438 490.9383544921875 C 523.535400390625 493.2799377441406 531.1910400390625 499.2187194824219 532.069091796875 509.08782958984375" stroke-width="0.0" fill="rgb(49, 33, 19)" opacity="0.99000615"/>
    <path d="M 542.0 587.0 C 539.3204956054688 597.0 532.0 604.3204956054688 522.0 607.0 C 512.0 604.3204956054688 504.6795349121094 597.0 502.0001220703125 587.0 C 504.6795349121094 577.0 511.9999694824219 569.679443359375 522.0 566.9999389648438 C 532.0 569.6795043945312 539.3204956054688 577.0 542.0 587.0" stroke-width="0.0" fill="rgb(252, 252, 252)" opacity="0.9999656"/>
    <path d="M 602.9388427734375 439.1033020019531 C 600.407470703125 449.1053161621094 593.1285400390625 456.48272705078125 582.8935546875 459.3551025390625 C 572.5401000976562 456.808349609375 565.3945922851562 449.4071960449219 563.6309204101562 439.2454528808594 C 565.939208984375 429.39251708984375 573.5443725585938 422.3699951171875 583.7348022460938 419.79998779296875 C 593.0148315429688 421.4310607910156 600.1527709960938 429.1191711425781 602.9388427734375 439.1033020019531" stroke-width="0.0" fill="rgb(249, 248, 248)" opacity="1.0"/>
    <path d="M 552.7400512695312 21.078325271606445 C 550.3206787109375 31.00054168701172 543.0067749023438 38.34326171875 533.1339111328125 41.31216812133789 C 523.0320434570312 38.24004364013672 515.6829833984375 30.9906005859375 513.0001220703125 20.999691009521484 C 515.6795043945312 11.0 523.0 3.6794919967651367 533.0159912109375 0.9868670105934143 C 543.06689453125 3.6242995262145996 550.369873046875 10.933237075805664 552.7400512695312 21.078325271606445" stroke-width="0.0" fill="rgb(253, 253, 252)" opacity="0.99244326"/>
    <path d="M 158.40855407714844 85.87312316894531 C 157.05613708496094 96.73909759521484 149.76736450195312 104.13739776611328 138.5297088623047 106.89591217041016 C 128.234130859375 104.14974975585938 120.93582916259766 96.73062896728516 118.3110580444336 86.56440734863281 C 121.66893768310547 75.9967269897461 128.99969482421875 68.67972564697266 139.0107879638672 65.99598693847656 C 149.13552856445312 68.61186981201172 156.7614288330078 75.73397064208984 158.40855407714844 85.87312316894531" stroke-width="0.0" fill="rgb(252, 193, 120)" opacity="1.0"/>
    <path d="M 597.9871215820312 36.01713562011719 C 595.3206176757812 46.0001106262207 588.0001220703125 53.32065200805664 578.0000610351562 56.0001220703125 C 568.0 53.32050704956055 560.6795043945312 46.0 557.994873046875 35.9935188293457 C 560.6531982421875 25.960498809814453 567.9408569335938 18.588485717773438 578.0377197265625 15.765040397644043 C 587.9132690429688 18.771989822387695 595.2590942382812 26.07684898376465 597.9871215820312 36.01713562011719" stroke-width="0.0" fill="rgb(254, 254, 253)" opacity="0.99181676"/>
    <path d="M 548.0 20.0000057220459 C 545.3206787109375 30.00057029724121 538.0070190429688 37.344173431396484 528.0033569335938 40.37397003173828 C 517.6903076171875 37.61771774291992 510.39996337890625 30.302831649780273 507.63067626953125 20.00320053100586 C 510.7165832519531 10.051385879516602 518.0472412109375 2.709362268447876 528.0064086914062 0.0036922565195709467 C 538.0 2.6794919967651367 545.3204956054688 10.0 548.0 20.0000057220459" stroke-width="0.0" fill="rgb(254, 253, 253)" opacity="0.9913412"/>
    <path d="M 604.0 549.0 C 601.3204956054688 559.0 594.0 566.3204956054688 583.9588012695312 569.0313110351562 C 573.8104858398438 566.4654541015625 566.3466186523438 559.2484741210938 563.5855102539062 549.1868896484375 C 566.7066040039062 539.03515625 574.014892578125 531.6453247070312 583.9725952148438 528.9534301757812 C 593.9999389648438 531.6795654296875 601.3204345703125 539.0000610351562 604.0 549.0" stroke-width="0.0" fill="rgb(254, 253, 252)" opacity="0.9915027"/>
    <path d="M 479.8111877441406 536.68115234375 C 477.10003662109375 546.6932983398438 469.6121520996094 553.8645629882812 459.2436218261719 556.2123413085938 C 449.0 553.3204956054688 441.67950439453125 546.0 439.0382385253906 536.0281982421875 C 441.7433776855469 526.0529174804688 449.0450439453125 518.716552734375 459.0097351074219 515.9823608398438 C 469.0008544921875 518.677734375 476.32635498046875 525.998046875 479.8111877441406 536.68115234375" stroke-width="0.0" fill="rgb(252, 190, 119)" opacity="1.0"/>
    <path d="M 200.99993896484375 571.0001831054688 C 198.3205108642578 581.0 191.0 588.3204956054688 181.6745147705078 590.3298950195312 C 171.88449096679688 587.4508056640625 164.6075897216797 580.0953979492188 160.32008361816406 570.0807495117188 C 162.90377807617188 561.2447509765625 171.75877380371094 554.54296875 181.8037872314453 551.930908203125 C 190.9273681640625 553.87841796875 198.31687927246094 561.0111694335938 200.99993896484375 571.0001831054688" stroke-width="0.0" fill="rgb(6, 2, 5)" opacity="0.9900272"/>
    <path d="M 131.46380615234375 3.646106481552124 C 128.12986755371094 13.91134262084961 120.96661376953125 21.306377410888672 110.99824523925781 23.999128341674805 C 101.0 21.320507049560547 93.67951202392578 13.999990463256836 91.0001449584961 4.000002384185791 C 93.67950439453125 -5.999994277954102 101.0 -13.320507049560547 111.0009765625 -16.000391006469727 C 121.02312469482422 -13.329682350158691 128.50765991210938 -6.078685760498047 131.46380615234375 3.646106481552124" stroke-width="0.0" fill="rgb(253, 253, 252)" opacity="0.9939394"/>
    <path d="M 606.471435546875 353.1976318359375 C 603.9852294921875 363.6959228515625 596.7356567382812 371.10614013671875 586.6065063476562 373.7709045410156 C 575.4852905273438 370.7961120605469 568.0309448242188 363.57183837890625 565.2064208984375 353.12481689453125 C 568.2007446289062 342.7044982910156 575.84521484375 335.595703125 586.3631591796875 332.5918273925781 C 596.58056640625 335.0704040527344 603.8550415039062 342.4422912597656 606.471435546875 353.1976318359375" stroke-width="0.0" fill="rgb(252, 192, 119)" opacity="1.0"/>
    <path d="M 77.54633331298828 103.36304473876953 C 75.827880859375 113.51513671875 68.53343963623047 120.88645935058594 57.420799255371094 123.76927185058594 C 47.663719177246094 120.91360473632812 40.82490921020508 113.04657745361328 37.64388656616211 102.74095916748047 C 40.382850646972656 92.72942352294922 47.719139099121094 85.35696411132812 57.76781463623047 82.85199737548828 C 67.59391784667969 86.01014709472656 74.76383972167969 93.47711181640625 77.54633331298828 103.36304473876953" stroke-width="0.0" fill="rgb(239, 241, 240)" opacity="1.0"/>
    <path d="M 606.009765625 568.0161743164062 C 603.3775634765625 578.0604858398438 596.0225219726562 585.23828125 585.8992309570312 587.8372192382812 C 576.0477294921875 585.1905517578125 568.8204956054688 577.9505615234375 566.2761840820312 567.8690795898438 C 568.6159057617188 557.9422607421875 575.9519653320312 550.6458740234375 585.9920043945312 547.994873046875 C 596.0 550.679443359375 603.3204956054688 558.0 606.009765625 568.0161743164062" stroke-width="0.0" fill="rgb(254, 254, 253)" opacity="0.9910199"/>
    <path d="M 547.9998779296875 4.999992847442627 C 545.3204345703125 14.999970436096191 537.9999389648438 22.32046127319336 527.9999389648438 24.99973487854004 C 517.990234375 22.323490142822266 510.5641174316406 15.043306350708008 507.5990905761719 5.16546106338501 C 510.6673583984375 -5.004226207733154 517.9990844726562 -12.320777893066406 528.0 -14.999998092651367 C 538.0 -12.320508003234863 545.3204956054688 -4.999996185302734 547.9998779296875 4.999992847442627" stroke-width="0.0" fill="rgb(253, 253, 250)" opacity="0.9935778"/>
    <path d="M 383.89971923828125 582.7305908203125 C 381.1943664550781 592.82421875 373.7765808105469 600.0558471679688 363.439208984375 602.4011840820312 C 353.0 599.3204956054688 345.67950439453125 592.0 342.3124084472656 581.4085083007812 C 344.90948486328125 571.2427368164062 352.2344055175781 563.8865356445312 362.48724365234375 561.3433227539062 C 373.64324951171875 564.0302734375 381.01922607421875 571.3408813476562 383.89971923828125 582.7305908203125" stroke-width="0.0" fill="rgb(252, 189, 119)" opacity="1.0"/>
    <path d="M 486.76556396484375 49.69789123535156 C 484.1126403808594 59.688480377197266 476.5451354980469 66.5693359375 466.3336181640625 68.23078155517578 C 456.4513244628906 65.7865982055664 449.15130615234375 58.57119369506836 446.3121337890625 48.544376373291016 C 448.19293212890625 38.62837219238281 455.72509765625 31.490442276000977 465.6759338378906 29.332637786865234 C 475.4918212890625 32.20876693725586 482.82550048828125 39.49829864501953 486.76556396484375 49.69789123535156" stroke-width="0.0" fill="rgb(249, 190, 126)" opacity="1.0"/>
    <path d="M 25.01691436767578 412.9716796875 C 22.32050895690918 423.0 15.0 430.32049560546875 5.000322341918945 432.99920654296875 C -4.999866962432861 430.3201599121094 -12.320489883422852 422.9999694824219 -14.999994277954102 413.0 C -12.320606231689453 402.9996032714844 -5.002263069152832 395.6726989746094 5.471441745758057 392.32073974609375 C 15.357281684875488 395.1513366699219 22.453458786010742 402.78253173828125 25.01691436767578 412.9716796875" stroke-width="0.0" fill="rgb(249, 249, 249)" opacity="1.0"/>
    <path d="M 37.794952392578125 224.22581481933594 C 34.98249435424805 234.58822631835938 27.528135299682617 241.78790283203125 17.640640258789062 243.3064422607422 C 7.82217264175415 240.5076141357422 0.5405551195144653 233.161865234375 -2.49593448638916 223.20260620117188 C -1.0054256916046143 213.73753356933594 7.508281707763672 207.38768005371094 17.56231117248535 203.30560302734375 C 27.610130310058594 206.01980590820312 34.95005798339844 213.40118408203125 37.794952392578125 224.22581481933594" stroke-width="0.0" fill="rgb(252, 193, 117)" opacity="0.99001"/>
    <path d="M 131.0113067626953 572.9866943359375 C 128.3205108642578 583.0 121.0 590.3204956054688 111.0 593.0 C 101.0 590.3204956054688 93.67948913574219 583.0 90.97090148925781 572.9720458984375 C 93.60626220703125 562.938720703125 100.9671401977539 555.7086791992188 111.1168212890625 552.7615356445312 C 121.04078674316406 555.6466674804688 128.3625030517578 562.9566040039062 131.0113067626953 572.9866943359375" stroke-width="0.0" fill="rgb(253, 253, 253)" opacity="0.9917942"/>
    <path d="M 206.82460021972656 576.7488403320312 C 204.150390625 586.4365844726562 195.25062561035156 592.431640625 186.63775634765625 595.029296875 C 176.90432739257812 592.3909912109375 169.55140686035156 585.1162719726562 166.70484924316406 575.3114624023438 C 168.67922973632812 565.99951171875 175.99954223632812 558.6792602539062 185.9999542236328 556.0 C 196.0 558.6795043945312 203.32046508789062 566.0 206.82460021972656 576.7488403320312" stroke-width="0.0" fill="rgb(3, 2, 2)" opacity="0.9900201"/>
    <path d="M 63.04853439331055 140.35910034179688 C 60.42716598510742 150.12844848632812 53.131996154785156 157.4358367919922 43.16299819946289 160.0674285888672 C 33.19380187988281 159.1519317626953 27.23635482788086 151.70143127441406 24.971256256103516 141.83804321289062 C 27.613510131835938 131.91726684570312 34.917144775390625 124.61307525634766 44.93035888671875 121.92721557617188 C 54.804264068603516 122.78489685058594 60.65908432006836 130.48526000976562 63.04853439331055 140.35910034179688" stroke-width="0.0" fill="rgb(7, 5, 3)" opacity="0.9900033"/>
    <path d="M 585.0726928710938 46.08489227294922 C 582.5662231445312 56.28261184692383 575.3202514648438 63.68882369995117 565.1917114257812 66.23057556152344 C 555.0 63.320518493652344 547.6795043945312 56.00002670288086 545.0000610351562 46.000003814697266 C 547.6795043945312 36.000030517578125 555.0000610351562 28.6795597076416 565.0000610351562 25.999980926513672 C 575.0 28.67945098876953 582.3204345703125 36.000003814697266 585.0726928710938 46.08489227294922" stroke-width="0.0" fill="rgb(250, 253, 251)" opacity="0.99618214"/>
    <path d="M 30.961069107055664 454.9309997558594 C 28.259532928466797 464.9700622558594 20.9862117767334 472.3140869140625 10.886648178100586 475.15087890625 C 0.832769513130188 472.5398864746094 -6.416723251342773 465.12939453125 -9.02865982055664 455.01318359375 C -6.364773273468018 444.9464111328125 0.93671715259552 437.6031188964844 10.970037460327148 434.9598083496094 C 21.016584396362305 437.6695556640625 28.36798667907715 444.9722595214844 30.961069107055664 454.9309997558594" stroke-width="0.0" fill="rgb(252, 253, 252)" opacity="0.993112"/>
    <path d="M 87.04719543457031 194.0662384033203 C 84.4278564453125 203.12538146972656 77.12140655517578 210.4182891845703 67.18921661376953 213.05264282226562 C 57.1739387512207 212.0400848388672 49.78057098388672 204.86831665039062 47.139774322509766 194.80892944335938 C 50.90148162841797 184.2445068359375 58.17247772216797 176.54185485839844 68.77865600585938 173.06857299804688 C 78.12360382080078 175.88319396972656 84.46202087402344 184.73374938964844 87.04719543457031 194.0662384033203" stroke-width="0.0" fill="rgb(207, 25, 18)" opacity="0.99000865"/>
    <path d="M 471.84796142578125 550.7526245117188 C 469.0680236816406 560.5596313476562 461.1992492675781 566.9542236328125 450.208251953125 570.7479248046875 C 440.2322082519531 568.1482543945312 432.9466247558594 560.7305297851562 430.29547119140625 550.5429077148438 C 433.6251525878906 539.9791870117188 440.99383544921875 532.6761474609375 450.9986267089844 529.9978637695312 C 461.0003356933594 532.6797485351562 468.3081359863281 540.0028686523438 471.84796142578125 550.7526245117188" stroke-width="0.0" fill="rgb(252, 190, 115)" opacity="1.0"/>
    <path d="M 116.00007629394531 29.999954223632812 C 113.32079315185547 40.0009651184082 106.01222229003906 47.36116027832031 95.87406921386719 50.663150787353516 C 85.71221923828125 47.612098693847656 78.341552734375 40.303565979003906 75.8031234741211 30.166709899902344 C 78.6795425415039 20.00002098083496 86.0 12.679468154907227 96.00005340576172 9.999776840209961 C 106.00011444091797 12.679351806640625 113.32064056396484 19.99988555908203 116.00007629394531 29.999954223632812" stroke-width="0.0" fill="rgb(254, 253, 250)" opacity="0.99209845"/>
    <path d="M 67.94515991210938 451.45794677734375 C 65.15335845947266 462.79730224609375 57.81684494018555 470.1919860839844 47.87752914428711 472.8532409667969 C 37.771854400634766 468.51263427734375 30.4962100982666 461.22442626953125 27.86354637145996 451.18768310546875 C 28.821741104125977 441.14825439453125 36.14989471435547 433.82568359375 46.42722702026367 431.2447509765625 C 57.76442337036133 433.95166015625 65.19445037841797 441.182373046875 67.94515991210938 451.45794677734375" stroke-width="0.0" fill="rgb(159, 122, 80)" opacity="1.0"/>
    <path d="M 599.508056640625 144.90623474121094 C 597.343017578125 155.12576293945312 590.1288452148438 162.3640899658203 580.6840209960938 164.11386108398438 C 570.6824951171875 161.5400390625 563.1928100585938 154.41244506835938 560.1964721679688 144.77882385253906 C 562.6795043945312 135.0 570.0 127.67948913574219 580.0595092773438 124.94622039794922 C 590.1768188476562 127.51024627685547 597.41943359375 134.8404998779297 599.508056640625 144.90623474121094" stroke-width="0.0" fill="rgb(249, 249, 249)" opacity="0.99012005"/>
    <path d="M 600.5723266601562 253.49078369140625 C 597.3311767578125 264.00543212890625 590.0028076171875 271.3221740722656 580.220947265625 273.8438415527344 C 570.679443359375 270.7533874511719 563.5442504882812 263.2174377441406 560.9511108398438 253.289306640625 C 562.7692260742188 243.28372192382812 569.1756591796875 235.79885864257812 579.2529296875 233.09703063964844 C 590.6944580078125 235.96803283691406 598.0474243164062 243.29953002929688 600.5723266601562 253.49078369140625" stroke-width="0.0" fill="rgb(252, 192, 117)" opacity="0.9900508"/>
    <path d="M 450.1264343261719 591.9944458007812 C 447.1968688964844 601.926025390625 439.95611572265625 609.295654296875 429.9952392578125 611.9973754882812 C 420.0 609.3204956054688 412.67950439453125 602.0 410.0123596191406 592.0250244140625 C 412.8244323730469 582.26416015625 420.4649963378906 575.3414916992188 430.5170593261719 572.9102783203125 C 439.6506042480469 575.0567016601562 446.9577941894531 582.3438110351562 450.1264343261719 591.9944458007812" stroke-width="0.0" fill="rgb(249, 248, 248)" opacity="1.0"/>
    <path d="M 208.8887939453125 569.3428344726562 C 204.8934783935547 579.3860473632812 197.41580200195312 587.3214111328125 187.19163513183594 590.9541015625 C 177.11087036132812 588.2377319335938 169.86618041992188 580.8589477539062 168.9229278564453 570.0990600585938 C 169.86907958984375 559.15966796875 177.13609313964844 551.7889404296875 187.21017456054688 549.1005249023438 C 197.44557189941406 553.25927734375 205.9331512451172 560.2671508789062 208.8887939453125 569.3428344726562" stroke-width="0.0" fill="rgb(252, 195, 123)" opacity="0.9900088"/>
    <path d="M 100.57569885253906 549.123779296875 C 98.33177185058594 559.0263671875 91.0335693359375 566.3567504882812 81.07708740234375 568.8953247070312 C 71.0328598022461 566.2236328125 63.70039367675781 558.99267578125 61.35489273071289 549.1680908203125 C 63.77370834350586 538.9034423828125 70.8016128540039 531.403076171875 81.0732421875 528.4688110351562 C 91.18267822265625 531.4439086914062 98.4046630859375 538.8583374023438 100.57569885253906 549.123779296875" stroke-width="0.0" fill="rgb(254, 254, 254)" opacity="0.9905602"/>
    <path d="M 175.89041137695312 24.204275131225586 C 172.9256591796875 34.384639739990234 165.1012725830078 41.11056900024414 154.47032165527344 43.66987991333008 C 144.3095703125 42.028587341308594 137.01329040527344 34.677528381347656 134.56637573242188 24.30073356628418 C 137.3888702392578 13.825545310974121 144.97842407226562 6.86683988571167 155.02740478515625 4.518184661865234 C 164.97369384765625 6.8782501220703125 172.85606384277344 13.7286958694458 175.89041137695312 24.204275131225586" stroke-width="0.0" fill="rgb(207, 209, 208)" opacity="1.0"/>
    <path d="M 108.0053482055664 577.9906005859375 C 105.31832885742188 587.9946899414062 97.98920440673828 595.2998657226562 87.8430404663086 598.4473876953125 C 77.8792724609375 595.4428100585938 70.44046783447266 588.158935546875 67.49302673339844 578.2462158203125 C 70.53206634521484 567.8836669921875 77.90592956542969 560.6049194335938 88.07211303710938 557.8465576171875 C 98.10255432128906 560.5216674804688 105.36254119873047 567.9329833984375 108.0053482055664 577.9906005859375" stroke-width="0.0" fill="rgb(252, 254, 254)" opacity="0.9911035"/>
    <path d="M 39.470035552978516 478.68988037109375 C 36.32051086425781 489.0000305175781 29.00002670288086 496.3205261230469 18.988008499145508 499.0066223144531 C 8.893441200256348 496.3819885253906 1.3968430757522583 489.1772155761719 -1.2374643087387085 479.2294921875 C 1.7549471855163574 469.0358581542969 9.015127182006836 461.6854248046875 19.135547637939453 458.8710021972656 C 29.35936164855957 461.3446350097656 36.76123809814453 468.60791015625 39.470035552978516 478.68988037109375" stroke-width="0.0" fill="rgb(253, 253, 250)" opacity="0.9917757"/>
    <path d="M 431.97625732421875 589.0481567382812 C 429.320068359375 598.999755859375 421.99981689453125 606.3203735351562 411.9605712890625 609.0308837890625 C 401.8306884765625 606.4550170898438 394.46014404296875 599.1958618164062 392.8690490722656 588.7335205078125 C 394.4320983886719 578.936279296875 402.11444091796875 571.9237060546875 411.8176574707031 568.9600830078125 C 421.6719665527344 572.0975341796875 429.13055419921875 579.256591796875 431.97625732421875 589.0481567382812" stroke-width="0.0" fill="rgb(247, 246, 247)" opacity="1.0"/>
    <path d="M 614.9993286132812 109.9986343383789 C 612.3109130859375 119.97921752929688 604.95263671875 127.2223129272461 594.9351806640625 130.22265625 C 584.981201171875 127.3661880493164 577.6307373046875 120.01954650878906 574.8192138671875 110.1163330078125 C 577.6177978515625 99.87271881103516 584.8507080078125 92.5372314453125 594.9540405273438 89.91497802734375 C 605.0023803710938 92.67230224609375 612.3206176757812 99.99957275390625 614.9993286132812 109.9986343383789" stroke-width="0.0" fill="rgb(254, 254, 253)" opacity="0.99117035"/>
    <path d="M 411.62115478515625 -0.4426928162574768 C 408.5954895019531 9.266021728515625 401.2472839355469 16.53668212890625 391.6089172363281 19.164403915405273 C 382.7668762207031 16.59184455871582 375.58221435546875 9.161575317382812 372.9502258300781 -0.8885090947151184 C 374.67950439453125 -10.0 382.0 -17.32050895690918 392.0 -20.0 C 402.0 -17.32050895690918 409.32049560546875 -10.0 411.62115478515625 -0.4426928162574768" stroke-width="0.0" fill="rgb(246, 250, 243)" opacity="0.9900117"/>
    <path d="M 42.970703125 571.0040893554688 C 40.381961822509766 581.090576171875 33.122222900390625 588.485595703125 23.080732345581055 591.1064453125 C 12.999407768249512 588.3206787109375 5.654806137084961 581.00732421875 2.481712579727173 570.7645263671875 C 5.192807197570801 560.5855712890625 12.63128662109375 553.3345947265625 22.854228973388672 550.849609375 C 32.99993896484375 553.6795654296875 40.320430755615234 561.0000610351562 42.970703125 571.0040893554688" stroke-width="0.0" fill="rgb(253, 253, 252)" opacity="0.99146247"/>
    <path d="M 476.96710205078125 22.845117568969727 C 473.8484802246094 32.40212631225586 466.2930908203125 39.518226623535156 456.2907409667969 42.13230895996094 C 446.8767395019531 40.303680419921875 439.4847717285156 33.175331115722656 436.8740539550781 23.08599853515625 C 439.6744384765625 12.997843742370605 446.99920654296875 5.679203510284424 457.0803527832031 2.8915233612060547 C 467.12255859375 5.516604423522949 474.3898010253906 12.905998229980469 476.96710205078125 22.845117568969727" stroke-width="0.0" fill="rgb(248, 248, 248)" opacity="0.99006647"/>
    <path d="M 144.10366821289062 594.0565795898438 C 141.46458435058594 604.081298828125 134.0438995361328 611.3428344726562 124.00369262695312 614.0018310546875 C 114.0 611.3204956054688 106.67948913574219 604.0 104.0001220703125 594.0000610351562 C 106.6795654296875 584.0000610351562 114.00006103515625 576.6795654296875 124.00106048583984 573.9995727539062 C 134.01055908203125 576.673828125 141.35362243652344 583.9813232421875 144.10366821289062 594.0565795898438" stroke-width="0.0" fill="rgb(253, 251, 253)" opacity="0.9930452"/>
    <path d="M 54.86897659301758 185.60281372070312 C 52.112003326416016 195.7366180419922 44.71302032470703 203.05099487304688 33.95406723022461 205.80551147460938 C 23.228368759155273 203.08070373535156 15.811588287353516 195.8136749267578 13.089755058288574 185.6501007080078 C 15.834555625915527 174.17959594726562 23.17786407470703 166.829833984375 33.37836837768555 164.11111450195312 C 44.65209197998047 166.96286010742188 51.967140197753906 174.3745880126953 54.86897659301758 185.60281372070312" stroke-width="0.0" fill="rgb(252, 192, 120)" opacity="1.0"/>
    <path d="M 579.0302124023438 136.73443603515625 C 576.6044311523438 146.57156372070312 570.7655639648438 154.1228790283203 560.83203125 155.06004333496094 C 550.8280029296875 152.44349670410156 543.4332885742188 145.2156982421875 540.4202880859375 135.46218872070312 C 542.1369018554688 125.3327407836914 549.2322387695312 117.8311996459961 559.0887451171875 116.94976043701172 C 569.082275390625 119.6127700805664 576.3875122070312 126.91764831542969 579.0302124023438 136.73443603515625" stroke-width="0.0" fill="rgb(3, 2, 2)" opacity="0.99000436"/>
    <path d="M 555.1171875 131.84317016601562 C 554.1997680664062 141.85267639160156 546.8372192382812 149.15699768066406 536.7279663085938 151.6440887451172 C 526.4830932617188 147.76597595214844 519.2254638671875 140.52093505859375 516.6439208984375 130.58412170410156 C 518.8280639648438 121.07807922363281 526.0383911132812 113.69879913330078 536.7000732421875 110.17259979248047 C 546.58642578125 112.91313171386719 552.5992431640625 121.21981048583984 555.1171875 131.84317016601562" stroke-width="0.0" fill="rgb(252, 196, 126)" opacity="0.9900357"/>
    <path d="M 358.79730224609375 598.5277709960938 C 355.3111267089844 608.9972534179688 347.9997863769531 616.3204345703125 338.0000305175781 619.0 C 328.0027160644531 616.3197021484375 320.7894592285156 608.9652709960938 318.9606628417969 599.9065551757812 C 321.62274169921875 589.9293823242188 328.9278259277344 582.619140625 338.7527770996094 579.9686889648438 C 347.13922119140625 582.5801391601562 354.63720703125 589.8074951171875 358.79730224609375 598.5277709960938" stroke-width="0.0" fill="rgb(2, 2, 2)" opacity="0.9900052"/>
    <path d="M 270.85577392578125 8.478618621826172 C 267.91741943359375 19.53937530517578 260.5439147949219 26.927291870117188 249.7778778076172 29.803421020507812 C 239.407958984375 26.96465492248535 232.01026916503906 19.60239601135254 229.14169311523438 8.55490779876709 C 231.9724884033203 -1.5516636371612549 239.6099853515625 -8.586798667907715 250.03189086914062 -11.093396186828613 C 260.48773193359375 -8.670234680175781 268.07952880859375 -1.6315561532974243 270.85577392578125 8.478618621826172" stroke-width="0.0" fill="rgb(251, 192, 123)" opacity="1.0"/>
    <path d="M 597.4230346679688 329.45892333984375 C 594.698486328125 339.22259521484375 587.115234375 346.38092041015625 576.5418701171875 349.4850158691406 C 566.2539672851562 347.0428466796875 558.835693359375 339.78961181640625 556.1998901367188 329.7784118652344 C 560.0496215820312 319.2425537109375 567.1504516601562 311.7595520019531 576.7272338867188 309.26025390625 C 586.5576782226562 312.15045166015625 593.8397827148438 319.4455261230469 597.4230346679688 329.45892333984375" stroke-width="0.0" fill="rgb(252, 196, 121)" opacity="0.9900429"/>
    <path d="M 39.83760452270508 425.5769348144531 C 37.132904052734375 435.78338623046875 29.764307022094727 443.0727844238281 19.5767822265625 444.5854187011719 C 9.43101692199707 441.83984375 2.158660888671875 434.5691833496094 -0.4040876626968384 424.9929504394531 C 2.1178596019744873 415.28985595703125 8.883849143981934 407.1545104980469 18.42430305480957 404.2174377441406 C 29.136795043945312 407.6036071777344 36.752655029296875 414.7394104003906 39.83760452270508 425.5769348144531" stroke-width="0.0" fill="rgb(187, 186, 186)" opacity="1.0"/>
    <path d="M 54.88249206542969 396.339111328125 C 52.03938293457031 407.63177490234375 44.606327056884766 414.97784423828125 34.49049377441406 417.6914367675781 C 23.78229522705078 414.3778991699219 15.991474151611328 407.4726257324219 13.094772338867188 397.13214111328125 C 15.95766830444336 386.39459228515625 23.49645233154297 379.240478515625 34.59883117675781 376.29302978515625 C 44.834228515625 378.85577392578125 52.20915603637695 386.1426696777344 54.88249206542969 396.339111328125" stroke-width="0.0" fill="rgb(252, 190, 118)" opacity="1.0"/>
  </g>
</svg>
