<?xml version="1.0" ?>
<svg xmlns="http://www.w3.org/2000/svg" version="1.1" width="600" height="600">
  <defs/>
  <g>
    <path d="M 416.9693298339844 402.52276611328125 C 414.2437744140625 413.90399169921875 406.90362548828125 421.2428894042969 395.51043701171875 423.9654235839844 C 385.07861328125 421.2545166015625 377.7377624511719 413.9248046875 375.0269470214844 403.59906005859375 C 377.7496032714844 392.0856628417969 385.08551025390625 384.74932861328125 396.2131042480469 382.0325622558594 C 406.9089660644531 384.75408935546875 414.2516784667969 392.08837890625 416.9693298339844 402.52276611328125" stroke-width="0.0" fill="rgb(14, 13, 16)" opacity="1.0"/>
    <path d="M 442.6973571777344 495.3141784667969 C 439.32049560546875 506.0 432.0 513.3204956054688 421.97137451171875 516.0131225585938 C 411.663330078125 513.5020141601562 403.9081726074219 506.5833435058594 401.0426025390625 495.2146301269531 C 403.7468566894531 485.079833984375 411.077880859375 477.7423095703125 421.4326477050781 475.0318298339844 C 432.8945007324219 477.7598571777344 440.188720703125 485.1238098144531 442.6973571777344 495.3141784667969" stroke-width="0.0" fill="rgb(9, 8, 11)" opacity="0.99004877"/>
    <path d="M 306.2287292480469 589.7470092773438 C 303.26300048828125 599.954833984375 295.9634704589844 607.2918701171875 286.00006103515625 609.9891967773438 C 276.05126953125 607.2870483398438 268.82464599609375 599.9148559570312 266.19403076171875 589.8560180664062 C 268.6886291503906 580.0032958984375 276.0008239746094 572.6798095703125 286.0927734375 569.9229125976562 C 296.3083190917969 572.411865234375 303.711669921875 579.6538696289062 306.2287292480469 589.7470092773438" stroke-width="0.0" fill="rgb(235, 232, 232)" opacity="0.9914907"/>
    <path d="M 30.884180068969727 56.33476257324219 C 28.11033058166504 67.79109954833984 20.81085205078125 75.16634368896484 10.616364479064941 77.90090942382812 C -0.41674715280532837 74.93352508544922 -7.447442054748535 67.23278045654297 -10.011502265930176 57.021236419677734 C -7.331274509429932 46.970584869384766 -0.11044717580080032 39.42127990722656 10.7781400680542 36.09888458251953 C 20.85095977783203 38.803592681884766 28.190876007080078 46.15110778808594 30.884180068969727 56.33476257324219" stroke-width="0.0" fill="rgb(89, 91, 95)" opacity="1.0"/>
    <path d="M 189.8464813232422 429.09527587890625 C 187.08029174804688 439.7255859375 179.72486877441406 447.0783996582031 169.05917358398438 449.83099365234375 C 158.27618408203125 447.0727844238281 150.90394592285156 439.7325439453125 148.11917114257812 429.0773620605469 C 150.91278076171875 418.27655029296875 158.28277587890625 410.928955078125 168.82485961914062 408.1631164550781 C 179.6587371826172 410.96722412109375 187.0205841064453 418.3466491699219 189.8464813232422 429.09527587890625" stroke-width="0.0" fill="rgb(153, 153, 158)" opacity="1.0"/>
    <path d="M 243.88941955566406 115.00192260742188 C 241.11593627929688 125.7524642944336 233.7483367919922 133.1063690185547 223.67674255371094 135.80288696289062 C 212.99993896484375 132.32070922851562 205.6794891357422 125.0 202.9307861328125 114.89797973632812 C 205.33482360839844 104.53977966308594 212.40330505371094 96.95064544677734 223.46533203125 94.09481811523438 C 233.79641723632812 96.84297943115234 241.12637329101562 104.216064453125 243.88941955566406 115.00192260742188" stroke-width="0.0" fill="rgb(147, 147, 152)" opacity="0.993195"/>
    <path d="M 345.6412658691406 577.5219116210938 C 342.2154235839844 587.8680419921875 334.8164978027344 595.0473022460938 324.7471008300781 597.647216796875 C 314.95941162109375 595.4534912109375 307.9444274902344 587.9037475585938 304.4830322265625 577.4505004882812 C 307.0530700683594 567.4380493164062 314.4762878417969 560.1693115234375 325.2609558105469 557.4135131835938 C 335.5774230957031 560.0719604492188 342.9530944824219 567.4141845703125 345.6412658691406 577.5219116210938" stroke-width="0.0" fill="rgb(168, 165, 165)" opacity="0.9900405"/>
    <path d="M 576.9931030273438 589.9469604492188 C 574.36669921875 600.054931640625 567.0517578125 607.3599853515625 557.0192260742188 610.0015869140625 C 547.0569458007812 607.2821044921875 539.7711181640625 599.9263916015625 536.5154418945312 589.6784057617188 C 539.0659790039062 579.3504028320312 546.2957763671875 571.9075317382812 556.3075561523438 569.8970336914062 C 567.3211669921875 572.309814453125 574.5718383789062 579.7164306640625 576.9931030273438 589.9469604492188" stroke-width="0.0" fill="rgb(235, 233, 231)" opacity="1.0"/>
    <path d="M 56.88686752319336 374.0326843261719 C 54.137943267822266 384.7907409667969 46.79419708251953 392.1464538574219 36.46220016479492 394.89080810546875 C 25.64042091369629 391.9007873535156 18.602191925048828 384.1629333496094 15.995141983032227 374.0107421875 C 18.67949104309082 364.0 26.0 356.67950439453125 36.666038513183594 353.2294006347656 C 46.77139663696289 355.8774719238281 54.12797164916992 363.2264709472656 56.88686752319336 374.0326843261719" stroke-width="0.0" fill="rgb(116, 117, 120)" opacity="1.0"/>
    <path d="M 266.06207275390625 561.0776977539062 C 263.5619201660156 571.2947998046875 256.3451843261719 578.7244873046875 245.936279296875 580.9572143554688 C 235.5661163330078 578.6920776367188 228.03318786621094 571.5291748046875 225.19593811035156 561.2940063476562 C 228.05369567871094 550.4161987304688 235.4207763671875 543.06787109375 245.59361267089844 540.4983520507812 C 256.0 543.6795043945312 263.32049560546875 551.0 266.06207275390625 561.0776977539062" stroke-width="0.0" fill="rgb(187, 183, 182)" opacity="0.9905794"/>
    <path d="M 440.5784912109375 574.4029541015625 C 437.8247375488281 583.9519653320312 429.4676513671875 590.5911865234375 419.6772155761719 593.0869140625 C 409.3627014160156 590.93896484375 401.7945861816406 584.8067626953125 399.0699157714844 574.8146362304688 C 402.6675109863281 564.2622680664062 409.96502685546875 556.0948486328125 420.62677001953125 553.0538330078125 C 430.66400146484375 555.865234375 437.61175537109375 563.5428466796875 440.5784912109375 574.4029541015625" stroke-width="0.0" fill="rgb(89, 88, 91)" opacity="1.0"/>
    <path d="M 503.6103515625 477.1864013671875 C 501.32049560546875 487.0 494.0 494.32049560546875 483.98492431640625 496.2388916015625 C 473.13092041015625 495.1420593261719 465.74755859375 487.9024963378906 463.0342102050781 477.7883605957031 C 465.8167419433594 466.2363586425781 473.3722229003906 459.1941223144531 483.84613037109375 456.9036865234375 C 493.98492431640625 459.6849670410156 501.1745910644531 467.05780029296875 503.6103515625 477.1864013671875" stroke-width="0.0" fill="rgb(10, 12, 11)" opacity="0.99002135"/>
    <path d="M 335.7245788574219 379.7566833496094 C 332.8382263183594 390.45623779296875 325.4363708496094 397.78057861328125 315.266845703125 400.3633728027344 C 304.89263916015625 397.3759765625 297.28125 390.2259216308594 294.1982727050781 379.6565246582031 C 297.0380554199219 369.48150634765625 304.5830993652344 362.3257141113281 315.4686279296875 359.2888488769531 C 325.5857238769531 362.02911376953125 332.9219665527344 369.4328918457031 335.7245788574219 379.7566833496094" stroke-width="0.0" fill="rgb(184, 185, 191)" opacity="0.992183"/>
    <path d="M 332.845947265625 63.150962829589844 C 330.08026123046875 73.72124481201172 322.7170715332031 81.0702133178711 312.3241271972656 83.84040832519531 C 301.5101013183594 80.95388793945312 294.4326171875 73.35580444335938 291.9598083496094 63.06259536743164 C 294.6755065917969 52.9918098449707 301.9826965332031 45.6444206237793 312.0369567871094 42.91481018066406 C 322.3476257324219 45.44063949584961 329.9660339355469 52.507789611816406 332.845947265625 63.150962829589844" stroke-width="0.0" fill="rgb(160, 160, 165)" opacity="0.9914165"/>
    <path d="M 492.5370178222656 541.0992431640625 C 489.6255798339844 551.2810668945312 482.2996520996094 558.6767578125 472.1865234375 561.2672119140625 C 461.8583068847656 558.4048461914062 454.2781982421875 551.2488403320312 451.2167053222656 540.5443725585938 C 454.06109619140625 530.5087280273438 461.6014709472656 523.3316040039062 471.7315979003906 521.8510131835938 C 482.07501220703125 523.9135131835938 489.5908508300781 530.7854614257812 492.5370178222656 541.0992431640625" stroke-width="0.0" fill="rgb(233, 231, 236)" opacity="1.0"/>
    <path d="M 371.2823791503906 253.29812622070312 C 368.90325927734375 263.6141052246094 361.6499938964844 271.0166931152344 350.7314453125 273.80694580078125 C 340.4430847167969 270.9782409667969 333.2353820800781 263.48297119140625 330.228759765625 252.44525146484375 C 332.9928283691406 242.41122436523438 340.4632873535156 235.12628173828125 350.63482666015625 232.51251220703125 C 361.0 235.6794891357422 368.32049560546875 243.0 371.2823791503906 253.29812622070312" stroke-width="0.0" fill="rgb(180, 180, 186)" opacity="1.0"/>
    <path d="M 567.9033203125 310.13409423828125 C 563.6251220703125 320.35882568359375 556.4028930664062 327.7730712890625 546.3610229492188 331.874267578125 C 537.5776977539062 328.6837463378906 530.5016479492188 320.2589416503906 527.9287109375 310.95928955078125 C 530.5250244140625 301.8149719238281 537.8060302734375 294.49969482421875 547.633056640625 291.73291015625 C 557.8345947265625 292.8913269042969 565.2258911132812 300.12921142578125 567.9033203125 310.13409423828125" stroke-width="0.0" fill="rgb(98, 98, 103)" opacity="0.990009"/>
    <path d="M 487.2221984863281 572.2898559570312 C 484.5697326660156 582.163818359375 477.0956726074219 589.3287963867188 466.7743225097656 592.224609375 C 456.6808776855469 589.6298828125 449.3414001464844 582.3280029296875 446.8475036621094 572.1527099609375 C 449.7040100097656 562.047607421875 457.0976257324219 554.8648681640625 467.0099792480469 552.5167236328125 C 476.9499816894531 554.8274536132812 484.2459411621094 562.0247802734375 487.2221984863281 572.2898559570312" stroke-width="0.0" fill="rgb(190, 186, 188)" opacity="0.9900973"/>
    <path d="M 517.0596313476562 592.9324340820312 C 514.3204956054688 603.0 507.0 610.3204956054688 496.99884033203125 613.0005493164062 C 486.984619140625 610.3280029296875 479.6180419921875 603.0314331054688 476.7634582519531 593.0549926757812 C 479.5824890136719 582.8235473632812 486.746337890625 575.3319702148438 497.211669921875 572.4965209960938 C 507.30194091796875 575.2761840820312 514.5225219726562 582.7626342773438 517.0596313476562 592.9324340820312" stroke-width="0.0" fill="rgb(235, 232, 229)" opacity="1.0"/>
    <path d="M 526.7318115234375 493.58050537109375 C 523.8057861328125 504.3559265136719 516.2659301757812 511.5382080078125 506.0711669921875 514.0615844726562 C 496.0 511.32049560546875 488.67950439453125 504.0 485.3205261230469 493.3499755859375 C 487.8361511230469 483.1481018066406 495.12530517578125 475.7737731933594 505.19744873046875 473.0900573730469 C 516.6796875 475.9787902832031 524.0508422851562 483.3099365234375 526.7318115234375 493.58050537109375" stroke-width="0.0" fill="rgb(218, 219, 223)" opacity="1.0"/>
    <path d="M 268.9961853027344 173.00392150878906 C 266.32061767578125 183.00003051757812 259.0 190.3205108642578 249.0 193.0 C 239.0 190.3205108642578 231.6794891357422 183.0 229.0 173.0 C 231.6794891357422 163.0 239.0 155.6794891357422 249.0 153.0 C 259.0 155.6794891357422 266.3199768066406 163.00015258789062 268.9961853027344 173.00392150878906" stroke-width="0.0" fill="rgb(161, 160, 166)" opacity="0.9995408"/>
    <path d="M 418.9015197753906 351.1433410644531 C 415.32049560546875 362.0 408.0 369.32049560546875 397.1096496582031 372.9342956542969 C 387.0698547363281 370.26153564453125 379.7355651855469 362.9313659667969 377.0301513671875 352.5639953613281 C 379.7427062988281 341.0759582519531 387.07354736328125 333.7371520996094 397.7655944824219 331.02716064453125 C 408.9271545410156 333.7372131347656 416.25103759765625 341.07763671875 418.9015197753906 351.1433410644531" stroke-width="0.0" fill="rgb(2, 1, 4)" opacity="1.0"/>
    <path d="M 232.03262329101562 120.05728149414062 C 229.54173278808594 130.31768798828125 222.4481201171875 137.9168701171875 212.2462921142578 140.7975616455078 C 201.74105834960938 137.76170349121094 194.61740112304688 130.12510681152344 191.24697875976562 119.36924743652344 C 193.91055297851562 109.2667236328125 201.26133728027344 101.89644622802734 211.3216552734375 99.19497680664062 C 222.00022888183594 102.67863464355469 229.3196563720703 110.00025939941406 232.03262329101562 120.05728149414062" stroke-width="0.0" fill="rgb(141, 141, 149)" opacity="1.0"/>
    <path d="M 423.7510681152344 25.105928421020508 C 421.0223693847656 35.686824798583984 413.7005310058594 43.06089782714844 403.343017578125 45.774105072021484 C 392.3564758300781 42.984310150146484 384.97900390625 35.65646743774414 382.3114318847656 25.452896118164062 C 385.18231201171875 14.463932037353516 392.4034423828125 7.002385139465332 403.2132263183594 4.1592206954956055 C 413.651611328125 6.965126991271973 420.9757080078125 14.37057876586914 423.7510681152344 25.105928421020508" stroke-width="0.0" fill="rgb(169, 169, 176)" opacity="0.99263024"/>
    <path d="M 321.74755859375 532.9193115234375 C 318.8681945800781 543.4613037109375 311.4306945800781 550.7825317382812 301.1099853515625 553.53857421875 C 290.83367919921875 550.6032104492188 283.6302795410156 543.0911254882812 280.977783203125 532.982177734375 C 283.5706787109375 522.8367309570312 290.75714111328125 515.32421875 301.4792175292969 512.2608642578125 C 311.68670654296875 514.9668579101562 319.02178955078125 522.3167114257812 321.74755859375 532.9193115234375" stroke-width="0.0" fill="rgb(199, 198, 201)" opacity="0.9936783"/>
    <path d="M 123.87923431396484 241.21470642089844 C 121.12336730957031 251.7652587890625 113.75645446777344 259.0997619628906 102.78145599365234 261.8616027832031 C 92.24981689453125 259.1048583984375 84.88746643066406 251.75318908691406 82.10148620605469 240.6703338623047 C 84.85122680664062 230.20382690429688 92.20479583740234 222.8538055419922 102.6628189086914 220.11196899414062 C 113.76206970214844 222.8805389404297 121.10790252685547 230.2425537109375 123.87923431396484 241.21470642089844" stroke-width="0.0" fill="rgb(122, 123, 127)" opacity="1.0"/>
    <path d="M 387.7617492675781 13.502760887145996 C 384.8638000488281 24.5775089263916 377.6293640136719 32.01948547363281 366.77264404296875 34.84309005737305 C 356.34130859375 32.023475646972656 348.9332580566406 24.677339553833008 346.1586608886719 14.487871170043945 C 349.0513000488281 3.4423835277557373 356.49462890625 -3.7865748405456543 366.9798889160156 -6.308528423309326 C 377.5065612792969 -3.774930238723755 384.998779296875 3.417423963546753 387.7617492675781 13.502760887145996" stroke-width="0.0" fill="rgb(161, 161, 166)" opacity="1.0"/>
    <path d="M 522.1958618164062 499.1616516113281 C 519.6464233398438 509.2956237792969 512.2821655273438 516.6039428710938 501.72308349609375 519.5678100585938 C 491.51068115234375 516.8433837890625 484.1636962890625 509.4879150390625 481.1414489746094 498.2738037109375 C 483.82830810546875 488.2034912109375 491.25616455078125 480.985107421875 501.6139221191406 478.6540832519531 C 511.998779296875 481.6810607910156 519.3192749023438 489.0011291503906 522.1958618164062 499.1616516113281" stroke-width="0.0" fill="rgb(224, 224, 229)" opacity="0.99200517"/>
    <path d="M 325.2363586425781 196.24081420898438 C 322.8269348144531 206.5421600341797 315.60235595703125 214.00477600097656 304.96246337890625 216.83547973632812 C 294.33673095703125 214.0295867919922 286.99267578125 206.6553497314453 284.22674560546875 195.94873046875 C 286.9844055175781 185.33839416503906 294.34124755859375 177.99267578125 304.4994812011719 175.389404296875 C 314.9999084472656 178.6798095703125 322.32049560546875 186.0 325.2363586425781 196.24081420898438" stroke-width="0.0" fill="rgb(170, 170, 177)" opacity="1.0"/>
    <path d="M 371.5424499511719 507.78704833984375 C 368.6839294433594 518.2614135742188 361.1851501464844 525.4451904296875 350.8388366699219 528.3253784179688 C 340.8631591796875 525.56005859375 333.6399230957031 518.0734252929688 330.9961853027344 508.00714111328125 C 333.67950439453125 498.0 341.0 490.67950439453125 351.3710021972656 487.5396728515625 C 361.5555114746094 490.0977478027344 368.9015808105469 497.4447021484375 371.5424499511719 507.78704833984375" stroke-width="0.0" fill="rgb(204, 205, 210)" opacity="0.9913823"/>
    <path d="M 214.66822814941406 547.7554321289062 C 211.8445587158203 558.46826171875 204.45130920410156 565.794921875 193.79380798339844 568.5886840820312 C 183.45533752441406 565.899658203125 176.1138153076172 558.5402221679688 173.34747314453125 547.9234008789062 C 176.0843048095703 537.4298706054688 183.4150390625 530.04296875 194.22140502929688 527.2476196289062 C 204.66294860839844 529.9750366210938 211.98814392089844 537.35009765625 214.66822814941406 547.7554321289062" stroke-width="0.0" fill="rgb(185, 183, 184)" opacity="0.99097496"/>
    <path d="M 62.87779998779297 513.8648681640625 C 60.09962844848633 524.7340087890625 52.730037689208984 532.0899047851562 42.6087760925293 534.780517578125 C 31.93491554260254 531.466064453125 24.658432006835938 524.0267333984375 21.187664031982422 513.3073120117188 C 23.868253707885742 503.2176208496094 31.207632064819336 495.8441467285156 41.75419235229492 493.0797424316406 C 52.78694152832031 495.8519592285156 60.12464141845703 503.2225341796875 62.87779998779297 513.8648681640625" stroke-width="0.0" fill="rgb(134, 133, 137)" opacity="1.0"/>
    <path d="M 125.54312133789062 595.667236328125 C 122.35086059570312 606.0145874023438 115.00659942626953 613.323486328125 105.00006866455078 616.0003051757812 C 94.99231719970703 613.3235473632812 87.60424041748047 606.0286865234375 84.39652252197266 595.7638549804688 C 87.21338653564453 585.60595703125 94.65628814697266 578.37744140625 105.10419464111328 575.6547241210938 C 115.43663787841797 578.2538452148438 122.84698486328125 585.5314331054688 125.54312133789062 595.667236328125" stroke-width="0.0" fill="rgb(235, 233, 232)" opacity="0.99117815"/>
    <path d="M 109.90763092041016 45.531341552734375 C 107.1364517211914 56.7899284362793 99.79484558105469 64.1491470336914 88.8515853881836 66.91205596923828 C 78.18389892578125 64.16231536865234 70.82333374023438 56.82213592529297 68.07850646972656 46.322322845458984 C 70.8350830078125 35.18601989746094 78.19332885742188 27.854951858520508 88.79823303222656 25.159427642822266 C 99.79161071777344 27.87065315246582 107.15756225585938 35.198036193847656 109.90763092041016 45.531341552734375" stroke-width="0.0" fill="rgb(102, 105, 108)" opacity="1.0"/>
    <path d="M 323.5820007324219 406.22998046875 C 320.91278076171875 416.5779724121094 313.6063232421875 423.9924011230469 303.5287780761719 426.67144775390625 C 293.0 423.32049560546875 285.67950439453125 416.0 282.9970397949219 405.99444580078125 C 285.6484375 395.9418640136719 292.8913269042969 388.4862060546875 302.8678283691406 385.752197265625 C 313.0925598144531 388.62841796875 320.6051025390625 395.83221435546875 323.5820007324219 406.22998046875" stroke-width="0.0" fill="rgb(184, 185, 191)" opacity="0.9918606"/>
    <path d="M 312.7958984375 298.8393859863281 C 309.9755554199219 309.5981750488281 302.5925598144531 316.9631652832031 292.3245849609375 319.7586975097656 C 281.42535400390625 316.9206848144531 274.0291442871094 309.5919494628906 271.21435546875 299.1839294433594 C 274.0408020019531 288.3936767578125 281.38970947265625 281.0301208496094 291.8241271972656 278.2904052734375 C 302.5965881347656 281.07379150390625 309.99798583984375 288.37835693359375 312.7958984375 298.8393859863281" stroke-width="0.0" fill="rgb(178, 177, 183)" opacity="0.9923701"/>
    <path d="M 594.3788452148438 515.296630859375 C 591.68017578125 525.265625 584.2268676757812 532.565185546875 573.9490966796875 535.3997192382812 C 563.5889282226562 532.752197265625 556.3275756835938 525.3854370117188 553.3189697265625 514.2902221679688 C 555.9244384765625 504.3798828125 563.5257568359375 497.3194885253906 573.9452514648438 494.7375793457031 C 584.19921875 497.4216003417969 591.4285278320312 504.8457946777344 594.3788452148438 515.296630859375" stroke-width="0.0" fill="rgb(229, 228, 233)" opacity="1.0"/>
    <path d="M 580.7092895507812 25.15386390686035 C 577.8917236328125 35.4437141418457 570.3328857421875 42.56010055541992 559.9691772460938 45.11250686645508 C 549.6502075195312 42.60068893432617 542.0875244140625 35.45771408081055 539.1710205078125 24.9494686126709 C 542.0458984375 14.419095039367676 549.4021606445312 7.005820274353027 559.6298217773438 4.20869255065918 C 570.5411987304688 7.093897342681885 577.8866577148438 14.465411186218262 580.7092895507812 25.15386390686035" stroke-width="0.0" fill="rgb(176, 177, 184)" opacity="0.99490523"/>
    <path d="M 111.91215515136719 9.296710968017578 C 109.16627502441406 19.82437515258789 101.82728576660156 27.173555374145508 91.6259536743164 29.85866928100586 C 80.4235610961914 26.99785614013672 73.29751586914062 19.47979164123535 70.47561645507812 8.661599159240723 C 73.10807800292969 -1.466127872467041 80.6280746459961 -8.600144386291504 90.99293518066406 -11.095077514648438 C 101.43135070800781 -8.617301940917969 109.0666275024414 -1.5974602699279785 111.91215515136719 9.296710968017578" stroke-width="0.0" fill="rgb(104, 107, 110)" opacity="0.9958785"/>
    <path d="M 594.681396484375 74.99040985107422 C 591.9263305664062 85.56758880615234 584.5565795898438 92.89276123046875 573.6530151367188 95.74308776855469 C 563.37255859375 92.98462677001953 555.9908447265625 85.63715362548828 553.21826171875 75.39229583740234 C 556.330078125 64.81267547607422 563.9171752929688 57.63834762573242 574.40380859375 54.506343841552734 C 584.58251953125 57.06318283081055 591.9318237304688 64.4195327758789 594.681396484375 74.99040985107422" stroke-width="0.0" fill="rgb(185, 185, 193)" opacity="0.99117523"/>
    <path d="M 365.8115539550781 103.36103057861328 C 363.04681396484375 113.68048858642578 355.6767272949219 121.03604125976562 345.05401611328125 123.82158660888672 C 334.50335693359375 120.94477844238281 327.3680725097656 113.38895416259766 324.871337890625 103.03618621826172 C 327.4443359375 92.69490051269531 334.596435546875 85.1502914428711 345.3939514160156 82.19734954833984 C 355.67010498046875 84.96765899658203 363.0075378417969 92.33834838867188 365.8115539550781 103.36103057861328" stroke-width="0.0" fill="rgb(171, 170, 175)" opacity="0.9909645"/>
    <path d="M 299.5561218261719 574.4964599609375 C 295.9715270996094 584.6481323242188 288.6147766113281 591.866943359375 278.8753662109375 594.3338012695312 C 269.12921142578125 592.0388793945312 261.6636962890625 584.9732055664062 259.0584411621094 574.953369140625 C 261.6746520996094 564.9981079101562 268.99908447265625 557.6780395507812 279.3603515625 554.5388793945312 C 289.5673522949219 557.1033325195312 296.9604797363281 564.4109497070312 299.5561218261719 574.4964599609375" stroke-width="0.0" fill="rgb(176, 173, 173)" opacity="0.990072"/>
    <path d="M 20.01571273803711 54.95500946044922 C 17.331247329711914 65.0362777709961 10.143991470336914 72.64513397216797 0.4185620844364166 75.67472839355469 C -10.0 72.32051086425781 -17.32050895690918 65.0 -20.0 55.0 C -17.32050895690918 45.0 -10.0 37.67949295043945 0.7363603115081787 34.12977981567383 C 10.583341598510742 36.92436599731445 17.54709243774414 44.6240348815918 20.01571273803711 54.95500946044922" stroke-width="0.0" fill="rgb(89, 92, 95)" opacity="1.0"/>
    <path d="M 515.7528686523438 458.7127685546875 C 513.1822509765625 468.834716796875 505.8020324707031 476.0635681152344 495.3436279296875 477.8780822753906 C 485.0 475.32049560546875 477.67950439453125 468.0 474.7861328125 457.7134094238281 C 477.0373840332031 447.2621154785156 484.1755676269531 439.7874450683594 494.2618408203125 437.0409240722656 C 505.3893127441406 440.0336608886719 512.3702392578125 447.87261962890625 515.7528686523438 458.7127685546875" stroke-width="0.0" fill="rgb(4, 4, 5)" opacity="1.0"/>
    <path d="M 227.5625457763672 351.1136169433594 C 224.89239501953125 361.5541076660156 217.5701141357422 368.94085693359375 206.76881408691406 371.7771301269531 C 196.325927734375 369.0256042480469 188.92662048339844 361.692626953125 186.22311401367188 351.642333984375 C 189.6794891357422 341.0 197.0 333.67950439453125 207.0416259765625 330.9730224609375 C 217.23805236816406 333.5140686035156 224.7521209716797 340.6763000488281 227.5625457763672 351.1136169433594" stroke-width="0.0" fill="rgb(161, 161, 165)" opacity="1.0"/>
    <path d="M 317.1735534667969 349.1486511230469 C 314.6307373046875 359.2779541015625 307.2630310058594 366.58587646484375 296.54150390625 369.6490783691406 C 286.3732604980469 366.9969482421875 279.03656005859375 359.6141052246094 276.2710266113281 349.0392150878906 C 279.0445556640625 338.4127502441406 286.4430847167969 331.1402587890625 296.7263488769531 328.7281799316406 C 307.0 331.67950439453125 314.32049560546875 339.0 317.1735534667969 349.1486511230469" stroke-width="0.0" fill="rgb(178, 178, 184)" opacity="1.0"/>
    <path d="M 48.591827392578125 105.5553207397461 C 46.0988655090332 115.78131866455078 38.80522155761719 123.16575622558594 27.48247528076172 125.93411254882812 C 17.149934768676758 123.19872283935547 9.807111740112305 115.84771728515625 7.06812858581543 105.25237274169922 C 9.83884334564209 94.22138214111328 17.27819061279297 87.00238037109375 27.62454605102539 84.65227508544922 C 38.0 87.67948913574219 45.32050704956055 95.0 48.591827392578125 105.5553207397461" stroke-width="0.0" fill="rgb(92, 94, 98)" opacity="1.0"/>
    <path d="M 443.0779113769531 505.12591552734375 C 440.75103759765625 515.5772705078125 433.7297668457031 523.1640014648438 423.8913879394531 525.8054809570312 C 413.8692626953125 521.4312744140625 406.5387268066406 514.1406860351562 402.1712341308594 504.2483215332031 C 405.0843811035156 494.5518798828125 412.62591552734375 487.2713317871094 422.7584533691406 484.64288330078125 C 433.0010986328125 487.6752014160156 440.32012939453125 495.00018310546875 443.0779113769531 505.12591552734375" stroke-width="0.0" fill="rgb(17, 16, 19)" opacity="0.9900193"/>
    <path d="M 603.4521484375 300.99554443359375 C 600.7039184570312 310.35400390625 593.3021850585938 317.5545349121094 583.6099243164062 320.1180725097656 C 573.7337036132812 317.7643737792969 565.8421020507812 311.6903076171875 563.0388793945312 300.2539367675781 C 565.7525634765625 290.0946044921875 573.1044311523438 282.7767333984375 583.4261474609375 280.0621337890625 C 594.4257202148438 282.9306640625 600.8047485351562 291.29852294921875 603.4521484375 300.99554443359375" stroke-width="0.0" fill="rgb(82, 82, 89)" opacity="0.990023"/>
    <path d="M 299.0597229003906 534.0066528320312 C 296.51458740234375 544.2700805664062 289.36480712890625 551.8040161132812 279.35614013671875 554.4734497070312 C 269.0007629394531 551.31787109375 261.6795349121094 543.9999389648438 258.5094909667969 533.6154174804688 C 261.0987548828125 523.4539184570312 268.4485168457031 516.083251953125 279.1298522949219 513.259033203125 C 289.3859558105469 516.1441650390625 296.5000305175781 523.7363891601562 299.0597229003906 534.0066528320312" stroke-width="0.0" fill="rgb(193, 193, 197)" opacity="1.0"/>
    <path d="M 254.8926239013672 15.327152252197266 C 252.12777709960938 25.76795768737793 244.76219177246094 33.11312484741211 234.09414672851562 35.876529693603516 C 223.22422790527344 33.1210823059082 215.86843872070312 25.779848098754883 213.10914611816406 14.758883476257324 C 215.87713623046875 4.257543087005615 223.3046112060547 -2.9860801696777344 233.93260192871094 -5.532792091369629 C 244.6538848876953 -2.9514448642730713 252.0792999267578 4.302717208862305 254.8926239013672 15.327152252197266" stroke-width="0.0" fill="rgb(134, 135, 140)" opacity="1.0"/>
    <path d="M 217.18096923828125 335.7892150878906 C 214.31101989746094 345.9934997558594 206.99497985839844 353.31610107421875 196.88046264648438 356.1459655761719 C 186.79266357421875 353.5673522949219 179.53179931640625 346.1770935058594 176.962646484375 336.0456848144531 C 179.6794891357422 326.0 186.99998474121094 318.679443359375 197.42686462402344 315.4710388183594 C 207.55455017089844 318.06292724609375 214.7880401611328 325.4927978515625 217.18096923828125 335.7892150878906" stroke-width="0.0" fill="rgb(158, 158, 163)" opacity="0.9918905"/>
    <path d="M 342.7370300292969 35.15472412109375 C 339.9771423339844 45.624916076660156 332.6230773925781 52.969669342041016 322.4006652832031 55.496131896972656 C 311.6456298828125 52.562992095947266 304.01483154296875 45.50707244873047 301.1347961425781 34.9401969909668 C 303.93511962890625 24.294139862060547 311.2974548339844 16.944660186767578 322.1175537109375 14.16283893585205 C 332.63604736328125 16.974275588989258 339.9514465332031 24.391735076904297 342.7370300292969 35.15472412109375" stroke-width="0.0" fill="rgb(155, 156, 162)" opacity="1.0"/>
    <path d="M 44.995086669921875 374.00927734375 C 42.39952850341797 384.1659851074219 35.33421325683594 391.8548278808594 24.385953903198242 394.8717041015625 C 14.156722068786621 392.1756286621094 6.799139499664307 384.85302734375 4.092240333557129 374.73944091796875 C 7.298133373260498 363.8183898925781 14.946931838989258 356.6590881347656 24.99808120727539 353.999267578125 C 34.999996185302734 356.67950439453125 42.32037353515625 364.0000305175781 44.995086669921875 374.00927734375" stroke-width="0.0" fill="rgb(108, 109, 113)" opacity="1.0"/>
    <path d="M 262.79681396484375 351.2050476074219 C 260.0166015625 361.6475524902344 252.6309814453125 368.9689025878906 241.62899780273438 371.77490234375 C 231.31155395507812 369.0578918457031 224.0240020751953 361.6605224609375 221.5157012939453 351.37322998046875 C 224.5518035888672 340.92218017578125 231.95257568359375 333.6515808105469 242.45823669433594 330.4700622558594 C 252.6512908935547 333.00128173828125 260.0011901855469 340.34832763671875 262.79681396484375 351.2050476074219" stroke-width="0.0" fill="rgb(172, 171, 177)" opacity="0.9915964"/>
    <path d="M 306.7626037597656 87.46621704101562 C 304.0373840332031 97.667724609375 296.65447998046875 105.00164031982422 285.8218688964844 107.796630859375 C 275.3201904296875 105.03208923339844 267.9158630371094 97.70085144042969 265.1235656738281 87.27349853515625 C 267.9364929199219 76.29769134521484 275.3093566894531 68.97124481201172 285.5189514160156 66.4560317993164 C 296.13189697265625 69.6058349609375 303.6973876953125 76.76689910888672 306.7626037597656 87.46621704101562" stroke-width="0.0" fill="rgb(154, 154, 159)" opacity="1.0"/>
    <path d="M 208.38458251953125 500.1744384765625 C 205.89389038085938 510.60107421875 198.64955139160156 518.0381469726562 188.2098846435547 520.8416137695312 C 177.42584228515625 518.0055541992188 170.3100128173828 510.46844482421875 167.900390625 500.0988464355469 C 170.55682373046875 489.79986572265625 177.67947387695312 482.2046813964844 188.2080078125 479.2432556152344 C 198.52223205566406 482.0649108886719 205.73214721679688 489.54571533203125 208.38458251953125 500.1744384765625" stroke-width="0.0" fill="rgb(169, 169, 173)" opacity="0.9914681"/>
    <path d="M 20.89830780029297 479.6269836425781 C 18.134740829467773 490.7955627441406 10.809789657592773 498.1701354980469 0.7695429921150208 500.8674621582031 C -10.0 497.32049560546875 -17.32050895690918 490.0 -20.0 480.0 C -17.32050895690918 470.0 -10.0 462.67950439453125 0.7816504836082458 459.13043212890625 C 10.837646484375 461.81268310546875 18.173004150390625 469.16796875 20.89830780029297 479.6269836425781" stroke-width="0.0" fill="rgb(115, 114, 118)" opacity="0.9914127"/>
    <path d="M 160.8042449951172 118.35221862792969 C 157.37747192382812 129.02000427246094 150.0041046142578 136.32191467285156 140.00009155273438 139.00003051757812 C 130.0 136.3205108642578 122.67948913574219 129.0 119.26651000976562 118.34269714355469 C 121.86150360107422 108.20153045654297 129.1962432861328 100.84687805175781 139.76409912109375 98.10223388671875 C 150.74827575683594 100.88430786132812 158.09426879882812 108.26048278808594 160.8042449951172 118.35221862792969" stroke-width="0.0" fill="rgb(120, 122, 125)" opacity="1.0"/>
    <path d="M 197.61679077148438 319.4639587402344 C 194.31396484375 329.99658203125 186.99813842773438 337.31939697265625 176.99977111816406 339.9998474121094 C 167.0 337.32049560546875 159.6794891357422 330.0 157.0 320.0 C 159.6794891357422 310.0 167.0 302.67950439453125 177.42416381835938 299.550537109375 C 187.6818084716797 302.000244140625 195.05032348632812 309.3017883300781 197.61679077148438 319.4639587402344" stroke-width="0.0" fill="rgb(151, 151, 155)" opacity="0.9933797"/>
    <path d="M 189.36929321289062 312.63885498046875 C 186.3190460205078 322.9992980957031 178.9996795654297 330.3203125 168.99594116210938 333.0029602050781 C 158.9788055419922 330.3362121582031 151.64231872558594 323.02764892578125 148.97726440429688 313.0157775878906 C 151.67010498046875 302.9750671386719 158.9135284423828 295.47528076171875 169.61593627929688 292.1673889160156 C 179.6800994873047 294.9349670410156 186.94906616210938 302.35986328125 189.36929321289062 312.63885498046875" stroke-width="0.0" fill="rgb(149, 149, 154)" opacity="1.0"/>
    <path d="M 61.887962341308594 421.1822204589844 C 59.1336784362793 431.7784118652344 51.783935546875 439.1469421386719 41.298641204833984 441.9095458984375 C 30.204654693603516 439.1449279785156 22.84859848022461 431.79779052734375 20.086570739746094 420.74505615234375 C 22.822912216186523 410.1644287109375 30.16404151916504 402.8223571777344 40.66208267211914 400.1068420410156 C 51.79142379760742 402.8585205078125 59.128639221191406 410.21356201171875 61.887962341308594 421.1822204589844" stroke-width="0.0" fill="rgb(117, 120, 123)" opacity="1.0"/>
    <path d="M 311.7794189453125 127.02351379394531 C 309.0302734375 137.68374633789062 301.6888427734375 145.0448760986328 291.1659240722656 147.80445861816406 C 280.42437744140625 144.98020935058594 273.21923828125 137.5096435546875 270.8132629394531 127.18741607666016 C 273.5914611816406 116.84083557128906 280.7117614746094 109.22100830078125 291.32470703125 106.2206039428711 C 301.6661071777344 108.97562408447266 309.01483154296875 116.33729553222656 311.7794189453125 127.02351379394531" stroke-width="0.0" fill="rgb(164, 164, 169)" opacity="0.9931221"/>
    <path d="M 278.75714111328125 218.95761108398438 C 275.96978759765625 229.61444091796875 268.6144104003906 236.96954345703125 258.0171813964844 239.736083984375 C 247.3647918701172 236.97438049316406 239.9520721435547 229.6627197265625 237.16860961914062 219.3664093017578 C 239.991455078125 208.34410095214844 247.3498992919922 201.00961303710938 258.0306701660156 198.28570556640625 C 268.57501220703125 201.06336975097656 275.9583435058594 208.41677856445312 278.75714111328125 218.95761108398438" stroke-width="0.0" fill="rgb(168, 165, 173)" opacity="1.0"/>
    <path d="M 129.00035095214844 145.9990234375 C 126.32051086425781 156.0 119.0 163.3205108642578 108.99894714355469 166.00038146972656 C 98.9644546508789 163.33343505859375 91.36235809326172 156.1394805908203 88.11742401123047 145.31033325195312 C 90.82698822021484 135.16888427734375 98.16161346435547 127.80935668945312 108.24166107177734 125.1076889038086 C 119.11429595947266 128.41395568847656 126.33182525634766 135.9693603515625 129.00035095214844 145.9990234375" stroke-width="0.0" fill="rgb(115, 117, 120)" opacity="1.0"/>
    <path d="M 341.15008544921875 102.9537582397461 C 338.6136169433594 113.37928771972656 331.501953125 120.96199035644531 320.81134033203125 123.85198211669922 C 310.2996520996094 121.06449127197266 302.959716796875 113.69147491455078 300.17596435546875 102.86314392089844 C 303.0098876953125 92.4059066772461 310.4140930175781 85.030029296875 321.267822265625 82.16011047363281 C 331.5984802246094 84.96588897705078 338.7069091796875 92.5137939453125 341.15008544921875 102.9537582397461" stroke-width="0.0" fill="rgb(165, 166, 171)" opacity="1.0"/>
    <path d="M 386.8910217285156 200.62733459472656 C 384.1588439941406 211.8299560546875 376.8391418457031 219.18441772460938 366.5453796386719 221.90301513671875 C 355.360595703125 219.04287719726562 348.0332946777344 211.60794067382812 345.29547119140625 201.44436645507812 C 348.2137145996094 190.50204467773438 355.4527282714844 183.0621337890625 365.9429016113281 180.2871856689453 C 376.7046813964844 183.007568359375 384.1534423828125 190.2354278564453 386.8910217285156 200.62733459472656" stroke-width="0.0" fill="rgb(183, 185, 191)" opacity="1.0"/>
    <path d="M 163.85641479492188 129.53829956054688 C 160.88980102539062 140.54544067382812 153.6068115234375 148.0335693359375 143.55812072753906 150.8261260986328 C 132.947265625 147.46693420410156 125.6764144897461 140.00927734375 122.99993896484375 130.00018310546875 C 125.67949676513672 120.00001525878906 133.0000457763672 112.67961120605469 143.04209899902344 109.97709655761719 C 153.32257080078125 112.48037719726562 160.99266052246094 119.50138092041016 163.85641479492188 129.53829956054688" stroke-width="0.0" fill="rgb(126, 127, 131)" opacity="0.9917432"/>
    <path d="M 289.14678955078125 122.87999725341797 C 286.5219421386719 133.29934692382812 279.4256286621094 140.8910369873047 269.2493896484375 143.698486328125 C 258.34771728515625 140.9499053955078 250.93467712402344 133.6905975341797 248.19813537597656 123.34508514404297 C 250.9873046875 112.32733917236328 258.314453125 104.95092010498047 268.80670166015625 102.18717956542969 C 279.571533203125 105.01156616210938 286.7353210449219 112.51238250732422 289.14678955078125 122.87999725341797" stroke-width="0.0" fill="rgb(158, 157, 163)" opacity="1.0"/>
    <path d="M 336.7359924316406 264.4827880859375 C 334.0069885253906 274.6272277832031 326.6016845703125 281.934814453125 315.6744689941406 284.76348876953125 C 305.4314880371094 281.95855712890625 298.0928649902344 274.54974365234375 295.3029479980469 263.95623779296875 C 298.0594787597656 253.4047393798828 305.37603759765625 245.98263549804688 315.5973205566406 243.18980407714844 C 326.57147216796875 246.04649353027344 333.8232116699219 253.4708709716797 336.7359924316406 264.4827880859375" stroke-width="0.0" fill="rgb(179, 179, 185)" opacity="0.99309224"/>
    <path d="M 67.93426513671875 64.57207489013672 C 65.17984008789062 75.83934783935547 57.8465576171875 83.19708251953125 47.7115478515625 85.91456604003906 C 36.290061950683594 83.03475952148438 28.853670120239258 75.75619506835938 26.100000381469727 65.57577514648438 C 28.846256256103516 54.171607971191406 36.160484313964844 46.81433868408203 47.32379150390625 44.06728744506836 C 57.835853576660156 46.8140869140625 65.19208526611328 54.161468505859375 67.93426513671875 64.57207489013672" stroke-width="0.0" fill="rgb(94, 97, 101)" opacity="1.0"/>
    <path d="M 151.9888153076172 129.00057983398438 C 149.3188934326172 138.9993133544922 141.99974060058594 146.3203887939453 131.99998474121094 148.99998474121094 C 122.0 146.3205108642578 114.67948913574219 139.0 111.32484436035156 128.39404296875 C 113.89350891113281 118.24684143066406 121.27058410644531 110.96745300292969 131.5589141845703 108.56098175048828 C 141.99925231933594 111.6796646118164 149.3177032470703 119.00149536132812 151.9888153076172 129.00057983398438" stroke-width="0.0" fill="rgb(120, 122, 126)" opacity="1.0"/>
    <path d="M 142.8286895751953 154.6361541748047 C 140.12396240234375 164.7725067138672 132.77407836914062 172.12789916992188 122.67231750488281 174.83212280273438 C 111.94744873046875 171.45578002929688 104.67469787597656 164.0131378173828 102.00157165527344 154.00160217285156 C 104.68217468261719 144.0021209716797 112.0018081665039 136.68113708496094 122.0014877319336 134.00018310546875 C 132.02737426757812 136.6691436767578 139.54409790039062 143.90443420410156 142.8286895751953 154.6361541748047" stroke-width="0.0" fill="rgb(123, 124, 128)" opacity="0.9914065"/>
    <path d="M 534.0487060546875 448.8782653808594 C 533.211181640625 458.8964538574219 525.9093627929688 466.2492370605469 515.8530883789062 468.9511413574219 C 504.7041015625 465.8624267578125 497.6447448730469 458.0918884277344 494.2861633300781 447.3037414550781 C 496.8072204589844 437.119873046875 504.0993957519531 429.7519836425781 514.3543090820312 427.0325927734375 C 525.4195556640625 429.8189697265625 531.4296875 438.7751770019531 534.0487060546875 448.8782653808594" stroke-width="0.0" fill="rgb(14, 13, 16)" opacity="0.99003744"/>
    <path d="M 194.0230255126953 335.0574645996094 C 191.54104614257812 345.3159484863281 184.4342803955078 352.8908996582031 174.4290008544922 355.6228942871094 C 163.9914093017578 352.34613037109375 156.67897033691406 345.0015563964844 153.99998474121094 335.0000305175781 C 156.67950439453125 325.0000305175781 164.00006103515625 317.67962646484375 174.0009765625 314.9989013671875 C 184.00088500976562 317.677978515625 191.31979370117188 324.999755859375 194.0230255126953 335.0574645996094" stroke-width="0.0" fill="rgb(151, 151, 155)" opacity="0.9974794"/>
    <path d="M 284.7997131347656 390.3329162597656 C 282.0115051269531 400.6394958496094 274.6385803222656 408.00933837890625 264.2200622558594 410.80316162109375 C 253.3302764892578 408.0254211425781 245.98593139648438 400.6651611328125 243.1896514892578 389.8722839355469 C 246.0084228515625 379.3931579589844 253.41415405273438 372.0661315917969 264.2933349609375 369.2248840332031 C 274.6050720214844 372.0154724121094 281.9492492675781 379.4078369140625 284.7997131347656 390.3329162597656" stroke-width="0.0" fill="rgb(176, 176, 182)" opacity="0.9950277"/>
    <path d="M 360.9656066894531 462.4674987792969 C 358.2488098144531 472.91046142578125 350.9085388183594 480.2444763183594 340.81231689453125 482.95379638671875 C 329.4923400878906 480.0340270996094 322.53961181640625 472.2712097167969 319.9941711425781 462.0263671875 C 322.7005615234375 452.0284729003906 330.0371398925781 444.7292785644531 340.83721923828125 441.10693359375 C 350.8981628417969 443.7654724121094 358.2387390136719 451.1001892089844 360.9656066894531 462.4674987792969" stroke-width="0.0" fill="rgb(43, 42, 44)" opacity="1.0"/>
    <path d="M 44.902442932128906 275.02874755859375 C 42.149253845214844 285.79656982421875 34.795684814453125 293.1470947265625 23.507211685180664 295.918701171875 C 13.172523498535156 293.1804504394531 5.8326568603515625 285.8220520019531 3.075636148452759 274.60821533203125 C 5.81406307220459 264.156005859375 13.151165008544922 256.802734375 23.622297286987305 254.06809997558594 C 34.82184982299805 256.8275146484375 42.162227630615234 264.1820983886719 44.902442932128906 275.02874755859375" stroke-width="0.0" fill="rgb(103, 104, 108)" opacity="1.0"/>
    <path d="M 46.14641571044922 367.7984924316406 C 43.31660842895508 377.99749755859375 35.99800491333008 385.318359375 25.99852180480957 387.99810791015625 C 15.9954252243042 385.3227844238281 8.612591743469238 378.0231018066406 5.140374660491943 367.24456787109375 C 7.810833930969238 357.1520690917969 15.150569915771484 349.80694580078125 25.501909255981445 347.0794982910156 C 36.696502685546875 349.8876953125 43.82661437988281 357.40234375 46.14641571044922 367.7984924316406" stroke-width="0.0" fill="rgb(111, 111, 112)" opacity="1.0"/>
    <path d="M 385.78619384765625 575.189208984375 C 382.6615905761719 584.8237915039062 374.5721130371094 591.7472534179688 364.8152770996094 594.2034912109375 C 355.4031677246094 591.7950439453125 347.7783203125 584.7183837890625 344.35504150390625 574.8140869140625 C 347.1915588378906 564.578369140625 354.6057434082031 557.2728881835938 364.822509765625 554.6394653320312 C 375.2347412109375 557.4765625 382.7474670410156 564.6912841796875 385.78619384765625 575.189208984375" stroke-width="0.0" fill="rgb(147, 143, 145)" opacity="0.99002576"/>
    <path d="M 150.99481201171875 130.997802734375 C 148.31536865234375 140.99598693847656 140.9963836669922 148.3167266845703 130.9985809326172 150.9969482421875 C 120.99993896484375 148.32044982910156 113.67945861816406 141.00009155273438 110.30131530761719 130.46409606933594 C 113.04994201660156 120.5361099243164 120.69511413574219 113.49333953857422 130.9615020751953 110.97871398925781 C 140.999755859375 113.6796646118164 148.31996154785156 121.00035095214844 150.99481201171875 130.997802734375" stroke-width="0.0" fill="rgb(122, 124, 128)" opacity="1.0"/>
    <path d="M 272.8497314453125 181.3448944091797 C 270.03717041015625 191.64938354492188 262.6103820800781 198.92532348632812 252.1163330078125 201.58779907226562 C 241.72889709472656 198.71958923339844 234.56752014160156 191.1767578125 231.98471069335938 181.02493286132812 C 234.6794891357422 171.0 242.0 163.6794891357422 252.01565551757812 160.99180603027344 C 262.1690368652344 163.58924865722656 269.84100341796875 170.67359924316406 272.8497314453125 181.3448944091797" stroke-width="0.0" fill="rgb(164, 163, 168)" opacity="0.9913349"/>
    <path d="M 466.9600524902344 448.4560241699219 C 464.2330322265625 459.8939208984375 456.8959655761719 467.2378234863281 446.8435363769531 469.9455871582031 C 436.8505859375 465.56280517578125 429.60394287109375 458.107421875 426.971923828125 448.82598876953125 C 429.6087341308594 439.90966796875 436.89752197265625 432.5742492675781 446.88995361328125 428.0790100097656 C 456.89349365234375 430.7673034667969 464.2397766113281 438.10333251953125 466.9600524902344 448.4560241699219" stroke-width="0.0" fill="rgb(20, 19, 21)" opacity="0.9900057"/>
    <path d="M 461.0509948730469 504.8053894042969 C 458.4925231933594 514.3408813476562 452.4233703613281 523.1345825195312 441.4716491699219 525.9591064453125 C 431.214111328125 523.1978759765625 424.16729736328125 515.65576171875 421.80316162109375 505.1969299316406 C 424.72796630859375 494.94970703125 431.6784973144531 487.0864562988281 442.754638671875 484.0489196777344 C 452.7757263183594 486.8006591796875 458.58966064453125 494.6385192871094 461.0509948730469 504.8053894042969" stroke-width="0.0" fill="rgb(42, 40, 41)" opacity="0.9900235"/>
    <path d="M 582.7674560546875 48.30050277709961 C 579.8157958984375 58.30889129638672 572.16357421875 65.4112319946289 561.72509765625 68.32599639892578 C 551.4921875 65.8372573852539 544.1063232421875 58.52605056762695 541.3291015625 48.16242599487305 C 544.2861328125 37.74154281616211 551.8385620117188 30.579193115234375 562.0692138671875 27.914836883544922 C 572.3137817382812 30.417829513549805 579.8012084960938 37.6156005859375 582.7674560546875 48.30050277709961" stroke-width="0.0" fill="rgb(178, 181, 187)" opacity="0.99244803"/>
    <path d="M 169.23513793945312 303.7488708496094 C 166.33729553222656 314.0499267578125 159.1654510498047 321.67034912109375 148.47096252441406 324.8281555175781 C 138.24468994140625 322.10968017578125 130.90911865234375 314.7482604980469 128.15402221679688 303.84588623046875 C 130.89495849609375 293.2364501953125 138.22303771972656 285.8609313964844 148.7589569091797 283.1034851074219 C 159.658203125 285.92718505859375 166.85092163085938 293.4208679199219 169.23513793945312 303.7488708496094" stroke-width="0.0" fill="rgb(139, 139, 144)" opacity="1.0"/>
    <path d="M 120.63197326660156 168.50328063964844 C 117.97052764892578 178.53392028808594 110.42500305175781 185.643798828125 100.09735870361328 188.06771850585938 C 90.0 185.3205108642578 82.67948913574219 178.0 80.0 168.0 C 82.67948913574219 158.0 90.0 150.6794891357422 100.00057983398438 147.9988250732422 C 110.00012969970703 150.67874145507812 117.3191909790039 158.00047302246094 120.63197326660156 168.50328063964844" stroke-width="0.0" fill="rgb(119, 121, 124)" opacity="1.0"/>
    <path d="M 235.87371826171875 217.79550170898438 C 233.0659942626953 228.7124481201172 225.72616577148438 236.0990447998047 215.36402893066406 238.85870361328125 C 204.2566680908203 236.08724975585938 196.8959503173828 228.74945068359375 194.15707397460938 218.27479553222656 C 196.93881225585938 207.29502868652344 204.29905700683594 199.9501495361328 215.36077880859375 197.1597900390625 C 225.72564697265625 199.91775512695312 233.09408569335938 207.2695770263672 235.87371826171875 217.79550170898438" stroke-width="0.0" fill="rgb(157, 154, 159)" opacity="1.0"/>
    <path d="M 545.3193969726562 538.71875 C 544.05908203125 549.6253662109375 536.4884033203125 556.6159057617188 526.0360107421875 559.25732421875 C 516.2017211914062 556.0900268554688 508.8388671875 548.8201293945312 505.92181396484375 538.8948974609375 C 508.4168701171875 528.699951171875 515.653564453125 521.2657470703125 526.34228515625 518.3656005859375 C 536.7841186523438 520.9078979492188 544.1325073242188 528.2036743164062 545.3193969726562 538.71875" stroke-width="0.0" fill="rgb(245, 244, 245)" opacity="1.0"/>
    <path d="M 464.0475158691406 564.5101318359375 C 461.4773254394531 573.21630859375 454.2315673828125 580.5083618164062 444.2878112792969 583.0809936523438 C 434.8138122558594 581.4114990234375 427.5070495605469 574.2009887695312 424.2114562988281 563.2465209960938 C 426.7852478027344 553.1043701171875 434.0902099609375 545.7476196289062 444.1751708984375 543.0369873046875 C 454.31134033203125 546.2166137695312 461.4365539550781 554.8234252929688 464.0475158691406 564.5101318359375" stroke-width="0.0" fill="rgb(40, 35, 40)" opacity="0.9900179"/>
    <path d="M 345.6304016113281 177.50404357910156 C 342.3575134277344 188.0137481689453 335.0035705566406 195.32180786132812 325.00018310546875 198.0 C 315.00042724609375 195.3202362060547 307.68084716796875 187.99925231933594 304.2523193359375 177.39224243164062 C 306.94647216796875 167.31271362304688 314.3230895996094 159.9757080078125 324.8990478515625 157.24923706054688 C 335.6508483886719 160.0048370361328 343.0177307128906 167.34091186523438 345.6304016113281 177.50404357910156" stroke-width="0.0" fill="rgb(171, 171, 177)" opacity="1.0"/>
    <path d="M 127.89041137695312 306.5399169921875 C 125.15465545654297 316.8026428222656 117.80223846435547 324.15301513671875 107.37616729736328 326.8851013183594 C 96.22947692871094 324.12158203125 88.88130950927734 316.7692565917969 86.2433090209961 306.65313720703125 C 89.60245513916016 295.84368896484375 96.68133544921875 288.1615295410156 107.64118194580078 285.11431884765625 C 117.78721618652344 287.84796142578125 125.10021209716797 295.2330017089844 127.89041137695312 306.5399169921875" stroke-width="0.0" fill="rgb(130, 131, 135)" opacity="1.0"/>
    <path d="M 315.9926452636719 409.00537109375 C 313.34765625 419.05328369140625 306.10272216796875 426.5072021484375 295.5836486816406 429.6506652832031 C 285.4057312011719 426.9687805175781 278.08251953125 419.5758361816406 275.2854919433594 408.9085388183594 C 278.0884094238281 398.4732666015625 285.4829406738281 391.1138000488281 295.5888366699219 388.43865966796875 C 305.99871826171875 391.68060302734375 313.317626953125 399.00177001953125 315.9926452636719 409.00537109375" stroke-width="0.0" fill="rgb(182, 182, 189)" opacity="1.0"/>
    <path d="M 265.7996826171875 488.8130187988281 C 262.97503662109375 499.61517333984375 255.6075897216797 506.953369140625 245.3634033203125 509.6198425292969 C 234.88462829589844 506.5372009277344 227.65228271484375 499.0555419921875 224.49053955078125 488.5605773925781 C 227.01901245117188 478.37017822265625 234.373779296875 471.02783203125 244.7696990966797 468.29693603515625 C 255.46701049804688 471.16436767578125 262.9177551269531 478.5013427734375 265.7996826171875 488.8130187988281" stroke-width="0.0" fill="rgb(179, 179, 185)" opacity="1.0"/>
    <path d="M 102.72087097167969 290.3782043457031 C 99.37909698486328 301.12896728515625 92.2835922241211 308.8036193847656 81.35445404052734 311.8779296875 C 71.18418884277344 309.16485595703125 63.837913513183594 301.81463623046875 61.0996208190918 291.30218505859375 C 63.860713958740234 280.2123107910156 71.21188354492188 272.859375 81.87894439697266 270.09930419921875 C 92.7704849243164 272.8670654296875 100.10317993164062 280.2411804199219 102.72087097167969 290.3782043457031" stroke-width="0.0" fill="rgb(122, 122, 126)" opacity="1.0"/>
    <path d="M 91.8750228881836 394.06512451171875 C 89.12434387207031 404.78289794921875 81.787841796875 412.1374206542969 70.6292495727539 414.90130615234375 C 60.201053619384766 412.1521301269531 52.85178756713867 404.7974853515625 50.09634017944336 393.9764709472656 C 52.856266021728516 383.21539306640625 60.21976089477539 375.8665466308594 71.20536804199219 373.092041015625 C 81.76859283447266 375.86724853515625 89.1113052368164 383.2398376464844 91.8750228881836 394.06512451171875" stroke-width="0.0" fill="rgb(123, 126, 129)" opacity="1.0"/>
    <path d="M 186.04690551757812 497.9626159667969 C 183.42474365234375 508.17230224609375 176.2786865234375 515.7426147460938 165.41720581054688 518.832275390625 C 155.27891540527344 516.08544921875 147.92669677734375 508.71661376953125 145.13722229003906 497.74676513671875 C 147.92918395996094 487.304931640625 155.31491088867188 479.955078125 165.67774963378906 477.19464111328125 C 176.41159057617188 480.1244812011719 183.53089904785156 487.70672607421875 186.04690551757812 497.9626159667969" stroke-width="0.0" fill="rgb(159, 160, 164)" opacity="1.0"/>
    <path d="M 53.93278121948242 98.87300109863281 C 51.163761138916016 109.78180694580078 43.72596740722656 117.00357818603516 33.38364028930664 119.35498809814453 C 23.002702713012695 116.31756591796875 15.683675765991211 108.99694061279297 12.349396705627441 98.38655090332031 C 14.866423606872559 88.18993377685547 22.174760818481445 80.8233642578125 32.34276580810547 78.1133804321289 C 43.77450180053711 80.92544555664062 51.18472671508789 88.18521881103516 53.93278121948242 98.87300109863281" stroke-width="0.0" fill="rgb(94, 97, 101)" opacity="1.0"/>
    <path d="M 344.0177917480469 464.1396179199219 C 341.7629089355469 474.5882263183594 334.7290954589844 482.1579284667969 324.7022705078125 484.92913818359375 C 314.5572509765625 481.2430114746094 307.4200134277344 473.3285217285156 304.90753173828125 464.342041015625 C 307.4652404785156 454.7344970703125 314.72039794921875 447.4296569824219 324.37310791015625 444.8816833496094 C 333.73345947265625 447.1438293457031 341.25177001953125 454.1223449707031 344.0177917480469 464.1396179199219" stroke-width="0.0" fill="rgb(56, 55, 61)" opacity="0.99000925"/>
    <path d="M 200.90357971191406 21.35690689086914 C 198.1311798095703 31.724567413330078 190.63511657714844 38.871795654296875 180.19630432128906 41.21500015258789 C 169.62950134277344 38.568626403808594 161.99583435058594 31.5279483795166 159.0979766845703 20.421520233154297 C 161.83975219726562 10.191182136535645 169.1919708251953 2.842151165008545 180.16162109375 0.08662217855453491 C 190.80148315429688 2.8434646129608154 198.1425018310547 10.203936576843262 200.90357971191406 21.35690689086914" stroke-width="0.0" fill="rgb(120, 122, 126)" opacity="1.0"/>
    <path d="M 31.92400550842285 200.43397521972656 C 29.183570861816406 210.83689880371094 21.84071922302246 218.19224548339844 11.557852745056152 220.93197631835938 C 0.3476662039756775 218.09519958496094 -6.720444679260254 210.51783752441406 -9.188017845153809 199.94488525390625 C -6.802811622619629 189.4009246826172 0.28491467237472534 181.8640899658203 11.341776847839355 179.0736541748047 C 21.83319664001465 181.82176208496094 29.17957305908203 189.16595458984375 31.92400550842285 200.43397521972656" stroke-width="0.0" fill="rgb(96, 99, 101)" opacity="1.0"/>
    <path d="M 197.9002227783203 42.6172981262207 C 195.1099853515625 53.76349639892578 187.77210998535156 61.1320915222168 176.78195190429688 63.90538024902344 C 166.2256317138672 61.13493728637695 158.87045288085938 53.772212982177734 156.1154327392578 43.43442916870117 C 158.94140625 32.347984313964844 166.42503356933594 25.17034912109375 176.8462371826172 22.772186279296875 C 187.46568298339844 25.345134735107422 195.07913208007812 32.37958526611328 197.9002227783203 42.6172981262207" stroke-width="0.0" fill="rgb(121, 123, 127)" opacity="1.0"/>
    <path d="M 506.0115661621094 462.95965576171875 C 503.2181701660156 472.85504150390625 495.78521728515625 479.99981689453125 485.76171875 482.5089111328125 C 475.7107238769531 480.43060302734375 467.9183654785156 473.5600280761719 465.0369873046875 462.19219970703125 C 467.747314453125 452.08538818359375 475.0882873535156 444.754150390625 485.13623046875 442.0821228027344 C 496.0126037597656 445.66802978515625 503.343017578125 452.98419189453125 506.0115661621094 462.95965576171875" stroke-width="0.0" fill="rgb(4, 3, 5)" opacity="0.99030614"/>
    <path d="M 43.60210418701172 578.8009643554688 C 40.5904655456543 589.2803955078125 33.32466125488281 596.7227172851562 23.106542587280273 599.5545043945312 C 12.710131645202637 596.6373291015625 5.428046226501465 589.2703247070312 2.4082040786743164 578.6184692382812 C 5.092224597930908 568.4708862304688 12.496129035949707 561.166748046875 23.307430267333984 558.4472045898438 C 33.54069900512695 561.07666015625 40.857601165771484 568.4818725585938 43.60210418701172 578.8009643554688" stroke-width="0.0" fill="rgb(227, 223, 224)" opacity="0.99173623"/>
    <path d="M 314.0978698730469 58.86697006225586 C 311.3163757324219 68.99681854248047 303.99713134765625 76.31747436523438 293.9573974609375 79.02505493164062 C 283.7431945800781 76.49150848388672 276.14190673828125 69.38368225097656 273.1333312988281 58.41460418701172 C 275.8949890136719 48.266422271728516 283.283447265625 40.93901062011719 293.71240234375 38.19599914550781 C 304.53509521484375 41.04331970214844 311.6924133300781 48.55205535888672 314.0978698730469 58.86697006225586" stroke-width="0.0" fill="rgb(152, 152, 157)" opacity="1.0"/>
    <path d="M 431.6900329589844 86.93851470947266 C 428.9135437011719 97.5563735961914 421.5653991699219 104.94049835205078 411.0445861816406 107.75590515136719 C 400.316650390625 105.0179443359375 392.948974609375 97.69474029541016 390.20428466796875 87.0041275024414 C 392.95281982421875 76.30824279785156 400.3129577636719 68.96615600585938 411.19671630859375 66.19036865234375 C 421.6194152832031 68.99678802490234 428.9405517578125 76.40314483642578 431.6900329589844 86.93851470947266" stroke-width="0.0" fill="rgb(180, 180, 187)" opacity="0.9913837"/>
    <path d="M 382.0527648925781 244.986083984375 C 379.5828857421875 255.32150268554688 373.773681640625 263.1996154785156 363.8586120605469 265.8995056152344 C 353.72991943359375 261.5638122558594 346.45263671875 254.26455688476562 343.89581298828125 245.11135864257812 C 346.4629211425781 235.74893188476562 353.7462463378906 228.45509338378906 363.8450927734375 224.1765594482422 C 373.7703552246094 226.8140869140625 379.60113525390625 234.57974243164062 382.0527648925781 244.986083984375" stroke-width="0.0" fill="rgb(62, 64, 71)" opacity="0.99001056"/>
    <path d="M 251.7739715576172 324.4518127441406 C 248.59808349609375 335.1632385253906 241.08966064453125 342.3691101074219 230.9291534423828 345.1317138671875 C 220.91897583007812 342.4520568847656 213.64935302734375 335.0500793457031 210.36778259277344 324.4895935058594 C 212.99081420898438 314.3438415527344 220.335205078125 306.96636962890625 230.9423065185547 304.1538391113281 C 241.67108154296875 306.96820068359375 249.04315185546875 314.32452392578125 251.7739715576172 324.4518127441406" stroke-width="0.0" fill="rgb(166, 165, 171)" opacity="1.0"/>
    <path d="M 194.45103454589844 148.39727783203125 C 191.9542236328125 158.62002563476562 184.63050842285156 165.9861297607422 173.54042053222656 168.822509765625 C 163.2518768310547 166.09396362304688 155.87928771972656 158.75872802734375 153.1784210205078 148.58926391601562 C 156.13613891601562 137.44342041015625 163.4012908935547 130.01644897460938 173.53404235839844 127.44947052001953 C 184.0 130.6794891357422 191.3205108642578 138.0 194.45103454589844 148.39727783203125" stroke-width="0.0" fill="rgb(133, 133, 138)" opacity="1.0"/>
    <path d="M 279.0948486328125 551.0426025390625 C 276.3466796875 560.9930419921875 268.97125244140625 568.27099609375 258.998779296875 570.8598022460938 C 249.03164672851562 568.2723388671875 241.69937133789062 560.9766235351562 238.72113037109375 550.7355346679688 C 241.17649841308594 540.4984741210938 248.4796905517578 533.1163940429688 258.6200256347656 530.4807739257812 C 268.9967346191406 533.6807250976562 276.31402587890625 541.0047607421875 279.0948486328125 551.0426025390625" stroke-width="0.0" fill="rgb(189, 188, 189)" opacity="0.991546"/>
    <path d="M 168.87322998046875 71.25194549560547 C 166.1328582763672 81.79231262207031 158.8037109375 89.16194915771484 148.2520751953125 91.91908264160156 C 137.20648193359375 89.14844512939453 129.85179138183594 81.79360961914062 127.09894561767578 71.3791732788086 C 129.94546508789062 60.39848327636719 137.49391174316406 53.153289794921875 148.5354766845703 50.13324737548828 C 158.74380493164062 52.88972473144531 166.08799743652344 60.2652473449707 168.87322998046875 71.25194549560547" stroke-width="0.0" fill="rgb(117, 119, 125)" opacity="1.0"/>
    <path d="M 184.9923095703125 337.010009765625 C 182.3829803466797 347.1319274902344 175.274658203125 354.78314208984375 164.60911560058594 357.81231689453125 C 154.28729248046875 355.061279296875 146.9103240966797 347.7236328125 144.12741088867188 337.1538391113281 C 146.94869995117188 326.3677062988281 154.45556640625 319.20263671875 164.7995147705078 316.8223876953125 C 174.99813842773438 319.6810302734375 182.31649780273438 327.0025939941406 184.9923095703125 337.010009765625" stroke-width="0.0" fill="rgb(144, 147, 149)" opacity="1.0"/>
    <path d="M 240.50706481933594 500.43585205078125 C 237.97738647460938 510.6286315917969 230.62625122070312 517.971435546875 219.56324768066406 520.8104248046875 C 209.33523559570312 518.0564575195312 202.09970092773438 510.6115417480469 199.5789031982422 500.1138000488281 C 202.19081115722656 489.4851989746094 209.44168090820312 482.0570373535156 219.6702423095703 479.3443298339844 C 230.1373291015625 482.4179382324219 237.34971618652344 489.93768310546875 240.50706481933594 500.43585205078125" stroke-width="0.0" fill="rgb(174, 174, 179)" opacity="1.0"/>
    <path d="M 150.9013214111328 40.485538482666016 C 148.07298278808594 51.647579193115234 140.5468292236328 58.790687561035156 129.28321838378906 61.85987091064453 C 119.18836975097656 59.158451080322266 111.83056640625 51.81623840332031 109.07929992675781 41.130950927734375 C 111.82795715332031 30.174596786499023 119.17406463623047 22.826496124267578 129.8507080078125 20.078937530517578 C 140.80979919433594 22.83962631225586 148.16586303710938 30.187700271606445 150.9013214111328 40.485538482666016" stroke-width="0.0" fill="rgb(110, 112, 116)" opacity="1.0"/>
    <path d="M 354.93719482421875 427.1703186035156 C 352.19769287109375 437.82330322265625 344.7557373046875 444.9515380859375 333.9209289550781 446.1366882324219 C 323.5235900878906 444.67822265625 316.0538024902344 437.5506591796875 313.2583923339844 427.27667236328125 C 316.14593505859375 416.5244445800781 323.5505065917969 409.22412109375 334.6705017089844 406.19952392578125 C 344.8326110839844 408.8369445800781 352.199951171875 416.1531677246094 354.93719482421875 427.1703186035156" stroke-width="0.0" fill="rgb(189, 190, 192)" opacity="1.0"/>
    <path d="M 115.8095474243164 177.6713409423828 C 113.08702850341797 187.72756958007812 105.74065399169922 195.11656188964844 94.78226470947266 197.90589904785156 C 84.1851577758789 195.1619873046875 76.84394073486328 187.81280517578125 74.23297882080078 177.69093322753906 C 77.67948913574219 167.0 85.0 159.6794891357422 95.0000991821289 156.99951171875 C 104.99955749511719 159.67971801757812 112.31929779052734 167.000732421875 115.8095474243164 177.6713409423828" stroke-width="0.0" fill="rgb(118, 119, 123)" opacity="1.0"/>
    <path d="M 363.9981994628906 504.994140625 C 361.3179016113281 514.997802734375 353.9976806640625 522.3175048828125 343.5601501464844 525.5991821289062 C 333.46905517578125 522.904052734375 326.173095703125 515.5064697265625 323.2315673828125 504.33935546875 C 325.84185791015625 494.1800231933594 333.1712341308594 486.81927490234375 343.2395935058594 484.1351318359375 C 354.1458740234375 487.39739990234375 361.3512878417969 494.9362487792969 363.9981994628906 504.994140625" stroke-width="0.0" fill="rgb(197, 197, 204)" opacity="1.0"/>
    <path d="M 350.6927490234375 191.64404296875 C 347.89532470703125 202.59542846679688 340.634033203125 210.0124053955078 330.38165283203125 212.73965454101562 C 319.7139587402344 209.73947143554688 312.5547180175781 202.18862915039062 309.98773193359375 192.03091430664062 C 312.6822509765625 182.0019989013672 320.0018005371094 174.68150329589844 330.09234619140625 171.93753051757812 C 340.4024963378906 174.37362670898438 347.95196533203125 181.48841857910156 350.6927490234375 191.64404296875" stroke-width="0.0" fill="rgb(174, 174, 179)" opacity="0.99183017"/>
    <path d="M 258.99542236328125 177.99832153320312 C 256.3185119628906 188.00100708007812 249.0105438232422 195.3518524169922 238.37088012695312 198.76055908203125 C 228.27159118652344 196.08895874023438 220.9119873046875 188.72799682617188 218.16433715820312 178.3104248046875 C 220.9567413330078 167.3176727294922 228.33013916015625 159.99168395996094 238.5042266845703 157.39222717285156 C 249.0 160.6794891357422 256.3204650878906 168.0 258.99542236328125 177.99832153320312" stroke-width="0.0" fill="rgb(156, 156, 161)" opacity="1.0"/>
    <path d="M 97.21888732910156 161.73194885253906 C 94.31790161132812 171.9982452392578 86.99878692626953 179.31980895996094 76.24610137939453 182.8623504638672 C 66.20584106445312 180.15296936035156 58.84583282470703 172.7947998046875 56.084983825683594 162.4100341796875 C 58.84013748168945 151.1838836669922 66.17993927001953 143.82957458496094 76.98336029052734 141.07212829589844 C 87.74932861328125 143.84963989257812 94.90839385986328 151.33493041992188 97.21888732910156 161.73194885253906" stroke-width="0.0" fill="rgb(108, 110, 114)" opacity="1.0"/>
    <path d="M 521.8240356445312 596.7592163085938 C 519.2468872070312 606.9722290039062 511.9928894042969 614.31787109375 501.9997863769531 616.9999389648438 C 492.0 614.3204956054688 484.6795349121094 607.0 482.0003967285156 596.9998168945312 C 484.6784973144531 586.9983520507812 491.99737548828125 579.6752319335938 502.1585693359375 576.82763671875 C 512.3680419921875 579.3179321289062 519.7252807617188 586.6185302734375 521.8240356445312 596.7592163085938" stroke-width="0.0" fill="rgb(235, 231, 228)" opacity="0.9924947"/>
    <path d="M 323.7778015136719 341.63323974609375 C 320.8384094238281 352.43707275390625 313.3856201171875 359.6799011230469 303.1512756347656 362.1518249511719 C 293.00018310546875 359.32037353515625 285.67999267578125 351.9997253417969 282.7016906738281 341.729248046875 C 285.171142578125 331.49566650390625 292.4745788574219 324.10540771484375 303.3808898925781 321.2051086425781 C 313.60675048828125 324.00921630859375 320.9723815917969 331.4004211425781 323.7778015136719 341.63323974609375" stroke-width="0.0" fill="rgb(178, 178, 187)" opacity="0.99326956"/>
    <path d="M 37.76871109008789 534.5952758789062 C 35.036376953125 544.668701171875 27.668895721435547 552.0345458984375 17.254928588867188 554.747802734375 C 6.347033500671387 551.986572265625 -0.9976071715354919 544.656982421875 -3.6652157306671143 533.87548828125 C -1.0545251369476318 523.2503662109375 6.210300445556641 515.8357543945312 16.337574005126953 513.0885620117188 C 27.321674346923828 516.1333618164062 34.401824951171875 523.862060546875 37.76871109008789 534.5952758789062" stroke-width="0.0" fill="rgb(141, 139, 140)" opacity="1.0"/>
    <path d="M 277.76043701171875 158.05235290527344 C 274.9688720703125 168.5745391845703 267.5157470703125 175.78677368164062 257.20013427734375 178.1766815185547 C 247.0000762939453 175.3201446533203 239.6791534423828 168.0001220703125 236.22642517089844 157.3712615966797 C 238.94357299804688 147.31680297851562 246.31529235839844 139.93972778320312 256.4255676269531 137.19776916503906 C 267.5685119628906 140.12481689453125 274.9779968261719 147.39785766601562 277.76043701171875 158.05235290527344" stroke-width="0.0" fill="rgb(160, 160, 165)" opacity="0.9916269"/>
    <path d="M 83.54874420166016 15.466468811035156 C 81.06880950927734 25.757963180541992 73.78834533691406 33.15471649169922 62.74004364013672 35.917198181152344 C 52.1696891784668 33.176124572753906 44.81903076171875 25.83221435546875 42.07509231567383 15.019105911254883 C 44.81781768798828 4.180939197540283 52.21579360961914 -3.0807044506073 62.59280014038086 -5.568536758422852 C 73.39314270019531 -2.7549803256988525 80.64116668701172 4.641604423522949 83.54874420166016 15.466468811035156" stroke-width="0.0" fill="rgb(95, 98, 102)" opacity="1.0"/>
    <path d="M 205.7830810546875 137.65191650390625 C 203.09288024902344 147.7331085205078 195.72251892089844 155.0620574951172 185.53228759765625 157.5967254638672 C 175.00050354003906 154.32034301757812 167.6809844970703 146.99913024902344 164.44729614257812 136.510986328125 C 166.97012329101562 126.30470275878906 174.28591918945312 118.91747283935547 184.8215789794922 116.12244415283203 C 195.41493225097656 119.0657730102539 202.44468688964844 126.77128601074219 205.7830810546875 137.65191650390625" stroke-width="0.0" fill="rgb(137, 136, 143)" opacity="1.0"/>
    <path d="M 434.0307922363281 368.3184509277344 C 431.3989562988281 377.09637451171875 424.1004943847656 384.4097595214844 414.0837097167969 388.9039611816406 C 404.09283447265625 386.2457275390625 396.7604675292969 378.90472412109375 394.1107482910156 368.84210205078125 C 397.7804870605469 358.068359375 405.0475769042969 350.70965576171875 414.1515197753906 348.90447998046875 C 424.0937194824219 351.5988464355469 431.3922119140625 358.9100341796875 434.0307922363281 368.3184509277344" stroke-width="0.0" fill="rgb(31, 30, 33)" opacity="0.9900052"/>
    <path d="M 385.65008544921875 537.1436767578125 C 382.82244873046875 547.4651489257812 375.46221923828125 554.8131103515625 365.01544189453125 557.5970458984375 C 354.52728271484375 554.8046875 347.08502197265625 547.51220703125 344.32073974609375 537.4077758789062 C 347.4661560058594 526.8765869140625 354.9315490722656 519.6419067382812 365.3449401855469 516.4600219726562 C 375.3722839355469 519.2424926757812 382.7398681640625 526.6334228515625 385.65008544921875 537.1436767578125" stroke-width="0.0" fill="rgb(207, 209, 212)" opacity="0.9925506"/>
  </g>
</svg>
