<?xml version="1.0" ?>
<svg xmlns="http://www.w3.org/2000/svg" version="1.1" width="600" height="600">
  <defs/>
  <g>
    <path d="M 575.3218994140625 258.8644714355469 C 572.596923828125 269.3493347167969 565.4474487304688 276.88934326171875 554.9788818359375 279.75677490234375 C 544.3506469726562 276.9922180175781 536.9893188476562 269.6556701660156 534.3772583007812 259.508544921875 C 537.6795043945312 249.0 545.0 241.6794891357422 555.0381469726562 238.9723663330078 C 565.1906127929688 241.53884887695312 572.6559448242188 248.7481689453125 575.3218994140625 258.8644714355469" stroke-width="0.0" fill="rgb(170, 176, 187)" opacity="1.0"/>
    <path d="M 50.72258377075195 83.54533386230469 C 48.01836395263672 93.63712310791016 40.60137939453125 100.91291046142578 30.335491180419922 103.36384582519531 C 19.991979598999023 100.32363891601562 12.61644458770752 93.02547454833984 9.340593338012695 82.54631042480469 C 12.068109512329102 72.42887115478516 19.416027069091797 65.03407287597656 29.569236755371094 62.26231384277344 C 40.28214645385742 65.29490661621094 47.491355895996094 72.78805541992188 50.72258377075195 83.54533386230469" stroke-width="0.0" fill="rgb(181, 189, 201)" opacity="0.99255687"/>
    <path d="M 78.0035171508789 62.964900970458984 C 75.32051086425781 73.0 68.0 80.32051086425781 57.763938903808594 83.37865447998047 C 47.782257080078125 80.64398193359375 40.40277862548828 73.19817352294922 37.478553771972656 63.28984451293945 C 40.67949295043945 53.0 48.0 45.67949295043945 58.11661148071289 42.86863327026367 C 68.22761535644531 45.42117691040039 75.47234344482422 52.803890228271484 78.0035171508789 62.964900970458984" stroke-width="0.0" fill="rgb(184, 190, 201)" opacity="0.99222994"/>
    <path d="M 436.6997985839844 104.25389862060547 C 433.9674377441406 114.618408203125 426.6360778808594 122.01536560058594 416.1058044433594 124.83262634277344 C 405.3648681640625 122.00105285644531 398.01800537109375 114.6288070678711 395.2849426269531 104.28511047363281 C 398.2686767578125 93.73851776123047 405.84698486328125 86.59036254882812 416.044921875 83.94223022460938 C 426.26422119140625 86.47541046142578 433.7793273925781 93.65271759033203 436.6997985839844 104.25389862060547" stroke-width="0.0" fill="rgb(173, 176, 188)" opacity="0.99343085"/>
    <path d="M 407.3614196777344 141.6584930419922 C 404.32049560546875 152.0 397.0 159.3205108642578 386.893310546875 162.0939483642578 C 376.64947509765625 159.619140625 369.15924072265625 152.42276000976562 366.2810363769531 141.7357635498047 C 369.0052490234375 131.3540802001953 376.3486328125 123.99060821533203 387.1833190917969 121.20687866210938 C 397.6327819824219 123.9935073852539 404.9211730957031 131.3953399658203 407.3614196777344 141.6584930419922" stroke-width="0.0" fill="rgb(176, 180, 191)" opacity="0.99254405"/>
    <path d="M 602.6082763671875 390.6945495605469 C 599.8320922851562 401.5077819824219 592.5390625 408.9244689941406 582.0697021484375 411.71856689453125 C 571.369140625 408.9549255371094 563.9664916992188 401.65869140625 561.1680908203125 390.7036437988281 C 563.9285888671875 380.3001403808594 571.3246459960938 372.9975280761719 582.126220703125 370.2713928222656 C 592.6597900390625 372.9909362792969 599.9991455078125 380.3432312011719 602.6082763671875 390.6945495605469" stroke-width="0.0" fill="rgb(173, 181, 192)" opacity="0.9938277"/>
    <path d="M 68.47804260253906 47.706809997558594 C 65.3201904296875 57.99986267089844 57.99992752075195 65.3204116821289 47.72553634643555 68.28070831298828 C 37.457489013671875 65.85265350341797 30.06478500366211 58.568729400634766 27.219160079956055 47.72553253173828 C 30.04022789001465 37.443443298339844 37.50041198730469 30.211109161376953 47.798763275146484 27.78095245361328 C 58.141536712646484 30.587505340576172 65.67308807373047 37.77332305908203 68.47804260253906 47.706809997558594" stroke-width="0.0" fill="rgb(183, 189, 200)" opacity="0.9930905"/>
    <path d="M 323.5779113769531 151.4772186279297 C 320.98651123046875 161.6443328857422 313.6528015136719 169.0104522705078 303.04620361328125 171.78720092773438 C 292.4622497558594 168.9415740966797 285.23370361328125 161.47972106933594 282.80908203125 151.1981964111328 C 285.6796875 141.0005645751953 293.0037841796875 133.69137573242188 303.3748474121094 130.4446258544922 C 313.2174987792969 133.3032989501953 320.3727111816406 140.89166259765625 323.5779113769531 151.4772186279297" stroke-width="0.0" fill="rgb(180, 183, 196)" opacity="1.0"/>
    <path d="M 493.1729736328125 177.93711853027344 C 490.3972473144531 188.04275512695312 483.02362060546875 195.33335876464844 472.7178039550781 198.28660583496094 C 462.41925048828125 195.8739776611328 454.9862365722656 188.6273651123047 452.24298095703125 178.24745178222656 C 455.0270690917969 167.37315368652344 462.38043212890625 160.05018615722656 472.67803955078125 157.5284423828125 C 483.28680419921875 160.38192749023438 490.5896301269531 167.7218017578125 493.1729736328125 177.93711853027344" stroke-width="0.0" fill="rgb(170, 174, 186)" opacity="1.0"/>
    <path d="M 359.19317626953125 578.1583251953125 C 356.6571350097656 588.3447875976562 349.400634765625 595.8214111328125 339.4229736328125 598.60693359375 C 329.0125427246094 595.2868041992188 321.6806945800781 587.9967041015625 319.0000305175781 577.9998779296875 C 321.67950439453125 568.0 329.0 560.6795043945312 339.0 558.0 C 349.0 560.6795043945312 356.32049560546875 568.0 359.19317626953125 578.1583251953125" stroke-width="0.0" fill="rgb(210, 217, 227)" opacity="0.9925933"/>
    <path d="M 409.00433349609375 574.0057373046875 C 406.3414001464844 584.02587890625 399.0239562988281 591.3323364257812 388.6885070800781 594.4635009765625 C 378.5675354003906 591.7706298828125 371.1263427734375 584.4698486328125 368.3468017578125 574.2904663085938 C 371.3631591796875 563.7680053710938 378.8287353515625 556.556640625 388.9681396484375 553.9779052734375 C 399.0 556.6795043945312 406.32049560546875 564.0 409.00433349609375 574.0057373046875" stroke-width="0.0" fill="rgb(208, 214, 225)" opacity="0.9913453"/>
    <path d="M 345.9920959472656 581.9891967773438 C 343.27862548828125 591.9426879882812 335.9239196777344 599.2164916992188 325.9151611328125 601.9827270507812 C 315.9521179199219 599.3937377929688 308.6593017578125 592.0318603515625 305.99725341796875 582.00439453125 C 308.67950439453125 572.0 316.0 564.6795043945312 326.0 562.0 C 336.0 564.6795043945312 343.32049560546875 572.0 345.9920959472656 581.9891967773438" stroke-width="0.0" fill="rgb(209, 215, 226)" opacity="0.99724174"/>
    <path d="M 563.7767944335938 453.6501770019531 C 560.8944091796875 464.51824951171875 553.4979248046875 471.8329162597656 543.2857055664062 474.3312683105469 C 533.0 471.32049560546875 525.6795043945312 464.0 522.3247680664062 453.49139404296875 C 525.0484008789062 443.43194580078125 532.445556640625 436.0865478515625 543.166748046875 433.2496032714844 C 553.586181640625 436.0606689453125 560.9961547851562 443.39178466796875 563.7767944335938 453.6501770019531" stroke-width="0.0" fill="rgb(177, 182, 194)" opacity="0.99654084"/>
    <path d="M 429.75360107421875 514.39501953125 C 427.0340881347656 524.6649169921875 419.6842956542969 532.0771484375 409.509765625 534.79345703125 C 398.4449157714844 531.9813232421875 391.3010559082031 524.4609375 388.8370361328125 514.0701293945312 C 391.4847412109375 503.7835388183594 398.73138427734375 496.3214416503906 409.3341064453125 493.2962951660156 C 419.5082092285156 496.1158142089844 426.8880615234375 503.4890441894531 429.75360107421875 514.39501953125" stroke-width="0.0" fill="rgb(197, 203, 215)" opacity="1.0"/>
    <path d="M 573.6385498046875 586.4669799804688 C 570.909423828125 596.490966796875 563.4176635742188 603.6882934570312 553.0027465820312 606.23388671875 C 542.6158447265625 603.672119140625 535.191162109375 596.4271240234375 532.4943237304688 586.1927490234375 C 535.4036254882812 575.8049926757812 542.85791015625 568.5724487304688 552.9696655273438 565.9749755859375 C 563.0001220703125 568.679443359375 570.3236083984375 575.9990234375 573.6385498046875 586.4669799804688" stroke-width="0.0" fill="rgb(196, 202, 213)" opacity="0.9917939"/>
    <path d="M 358.6564636230469 239.7875213623047 C 355.8627624511719 250.52359008789062 348.53863525390625 257.9058532714844 337.89239501953125 260.65411376953125 C 327.395263671875 257.9466552734375 320.02117919921875 250.6161346435547 317.2559509277344 239.9503936767578 C 320.0230407714844 229.40724182128906 327.4331359863281 222.09141540527344 338.1278991699219 219.25157165527344 C 348.60736083984375 222.03317260742188 355.9505310058594 229.3982391357422 358.6564636230469 239.7875213623047" stroke-width="0.0" fill="rgb(181, 186, 201)" opacity="0.99498576"/>
    <path d="M 544.58251953125 209.46607971191406 C 541.981689453125 219.61273193359375 534.5996704101562 226.94651794433594 524.2449340820312 229.72047424316406 C 513.8853149414062 226.58297729492188 506.6673278808594 219.0325927734375 503.52618408203125 208.59771728515625 C 506.0516662597656 198.39002990722656 513.3746948242188 191.00698852539062 523.7271728515625 188.24688720703125 C 534.3245239257812 191.20030212402344 541.4441528320312 198.797119140625 544.58251953125 209.46607971191406" stroke-width="0.0" fill="rgb(169, 176, 185)" opacity="1.0"/>
    <path d="M 337.5402526855469 18.43906593322754 C 334.95654296875 28.594898223876953 327.58685302734375 35.93404006958008 317.1180419921875 38.67891311645508 C 306.5391845703125 35.852073669433594 299.2987976074219 28.412689208984375 296.8495178222656 18.158292770385742 C 299.67950439453125 8.0 307.0 0.6794919371604919 317.0 -2.0 C 327.0 0.6794919371604919 334.32049560546875 8.0 337.5402526855469 18.43906593322754" stroke-width="0.0" fill="rgb(176, 181, 191)" opacity="0.99488974"/>
    <path d="M 436.3152770996094 354.3007507324219 C 433.8777160644531 364.56097412109375 426.5813903808594 371.94232177734375 415.9521179199219 374.7178039550781 C 405.4111328125 371.94921875 398.0667724609375 364.5831298828125 395.25616455078125 353.91168212890625 C 398.115966796875 343.5045166015625 405.5180358886719 336.15496826171875 415.64324951171875 333.5074157714844 C 426.0000305175781 336.679443359375 433.32049560546875 344.0 436.3152770996094 354.3007507324219" stroke-width="0.0" fill="rgb(183, 189, 200)" opacity="0.99119663"/>
    <path d="M 502.71368408203125 200.45248413085938 C 499.31976318359375 210.99981689453125 492.00042724609375 218.3219757080078 481.607666015625 221.5067138671875 C 471.44219970703125 218.91220092773438 464.05712890625 211.5679168701172 461.2162170410156 201.25816345214844 C 464.3194274902344 190.81680297851562 471.9306945800781 183.64927673339844 482.2527770996094 180.7332763671875 C 492.52325439453125 183.17279052734375 499.972900390625 190.42730712890625 502.71368408203125 200.45248413085938" stroke-width="0.0" fill="rgb(171, 175, 187)" opacity="0.99689233"/>
    <path d="M 421.32525634765625 569.2803344726562 C 418.82904052734375 579.4991455078125 411.51397705078125 586.8740234375 401.31231689453125 589.4254760742188 C 390.99835205078125 586.326171875 383.6794738769531 579.0001220703125 381.0 569.0 C 383.67950439453125 559.0 391.0 551.6795043945312 401.0 549.0 C 411.0 551.6795043945312 418.32049560546875 559.0 421.32525634765625 569.2803344726562" stroke-width="0.0" fill="rgb(206, 213, 224)" opacity="0.9942125"/>
    <path d="M 95.59822082519531 550.0741577148438 C 91.41015625 560.1063842773438 84.10440063476562 567.4053344726562 74.49012756347656 570.0399169921875 C 65.87751770019531 567.4188842773438 58.52558898925781 560.1403198242188 54.10294723510742 550.3626098632812 C 57.24797439575195 540.7968139648438 64.95219421386719 533.66259765625 75.5369644165039 530.4981689453125 C 85.84207916259766 532.8731689453125 93.24061584472656 540.1180419921875 95.59822082519531 550.0741577148438" stroke-width="0.0" fill="rgb(35, 37, 39)" opacity="0.99000615"/>
    <path d="M 83.0317153930664 322.8286437988281 C 80.40975952148438 332.1408386230469 73.27582550048828 340.9703674316406 63.24737548828125 343.96343994140625 C 53.13420104980469 341.2384033203125 46.75328826904297 333.7603759765625 44.936012268066406 323.22076416015625 C 46.78988265991211 312.3166198730469 53.2136344909668 304.84515380859375 63.1111946105957 303.9516296386719 C 73.09281158447266 306.604248046875 80.3990707397461 313.90582275390625 83.0317153930664 322.8286437988281" stroke-width="0.0" fill="rgb(20, 23, 28)" opacity="0.9900049"/>
    <path d="M 566.8412475585938 27.31142234802246 C 564.0741577148438 37.69805908203125 556.670166015625 44.99757766723633 545.687744140625 47.8032341003418 C 535.34228515625 45.01681137084961 527.9356079101562 37.67753601074219 525.1705322265625 27.372222900390625 C 527.9808349609375 16.326608657836914 535.3117065429688 8.94027328491211 545.6513671875 6.159419059753418 C 556.6564331054688 8.98636245727539 564.0292358398438 16.337621688842773 566.8412475585938 27.31142234802246" stroke-width="0.0" fill="rgb(160, 164, 176)" opacity="1.0"/>
    <path d="M 124.02622985839844 451.28656005859375 C 121.41436004638672 460.1885986328125 115.07884979248047 469.16461181640625 104.2098159790039 471.9690856933594 C 94.07341766357422 469.2627258300781 86.7486343383789 461.9218444824219 84.03704071044922 451.1987609863281 C 86.80018615722656 440.4125671386719 95.77909851074219 434.5860900878906 104.51920318603516 431.9749450683594 C 114.07658386230469 434.6181945800781 121.38751220703125 441.9209899902344 124.02622985839844 451.28656005859375" stroke-width="0.0" fill="rgb(2, 2, 5)" opacity="0.9900033"/>
    <path d="M 527.6897583007812 431.8978576660156 C 524.9296875 442.5922546386719 517.6031494140625 449.9620056152344 507.2125244140625 452.6727294921875 C 496.502197265625 449.86627197265625 489.170654296875 442.4851989746094 486.2493591308594 431.5351257324219 C 488.976806640625 421.35296630859375 496.3755187988281 414.0402526855469 507.136962890625 411.2707824707031 C 517.5836181640625 414.0614318847656 524.953125 421.4104919433594 527.6897583007812 431.8978576660156" stroke-width="0.0" fill="rgb(180, 182, 196)" opacity="0.9919735"/>
    <path d="M 432.58770751953125 559.0576782226562 C 429.8141784667969 569.4815673828125 422.489990234375 576.8397216796875 412.2983703613281 579.3499755859375 C 402.0001525878906 576.3202514648438 394.6795654296875 568.9998779296875 392.0005187988281 559.0008544921875 C 394.68353271484375 549.0064697265625 402.0074462890625 541.6859130859375 412.212158203125 538.6455688476562 C 422.3327331542969 541.2738037109375 429.6367492675781 548.6995239257812 432.58770751953125 559.0576782226562" stroke-width="0.0" fill="rgb(209, 215, 225)" opacity="0.9911365"/>
    <path d="M 497.7911376953125 145.86248779296875 C 494.99737548828125 156.634033203125 487.62054443359375 163.95755004882812 477.21380615234375 166.557861328125 C 466.3988342285156 163.88992309570312 458.9588317871094 156.65185546875 456.2611999511719 146.5978240966797 C 459.6794738769531 135.99998474121094 467.0 128.6794891357422 477.2135009765625 125.799560546875 C 487.51959228515625 128.20265197753906 494.98529052734375 135.41781616210938 497.7911376953125 145.86248779296875" stroke-width="0.0" fill="rgb(171, 175, 186)" opacity="0.99600697"/>
    <path d="M 464.755126953125 39.30806350708008 C 462.0221862792969 49.66216278076172 454.65948486328125 57.015594482421875 444.26031494140625 59.75825881958008 C 433.4278259277344 56.93020248413086 426.0486755371094 49.579708099365234 423.18060302734375 38.67849349975586 C 426.0361633300781 28.498065948486328 433.6233215332031 21.39071273803711 443.99810791015625 18.869380950927734 C 454.33099365234375 21.412233352661133 461.85052490234375 28.582218170166016 464.755126953125 39.30806350708008" stroke-width="0.0" fill="rgb(169, 173, 184)" opacity="0.9916548"/>
    <path d="M 573.802734375 195.69677734375 C 570.9046630859375 206.53561401367188 563.5429077148438 213.9236602783203 553.2639770507812 216.7352752685547 C 542.7591552734375 213.71530151367188 535.606689453125 206.13189697265625 532.4801635742188 195.58837890625 C 535.05712890625 185.39669799804688 542.3772583007812 178.00271606445312 553.0122680664062 175.2148895263672 C 563.6231079101562 178.00184631347656 570.990478515625 185.3806915283203 573.802734375 195.69677734375" stroke-width="0.0" fill="rgb(166, 171, 184)" opacity="1.0"/>
    <path d="M 396.0245361328125 230.0352325439453 C 393.4576110839844 240.1951446533203 386.2745666503906 247.70423889160156 375.544677734375 250.7625274658203 C 365.4272766113281 247.96482849121094 358.0518798828125 240.56626892089844 355.24658203125 230.29483032226562 C 358.0893859863281 219.42401123046875 365.4005126953125 212.02346801757812 375.52288818359375 209.41049194335938 C 385.99993896484375 212.67971801757812 393.32049560546875 220.0 396.0245361328125 230.0352325439453" stroke-width="0.0" fill="rgb(180, 186, 197)" opacity="0.9926274"/>
    <path d="M 614.0042114257812 71.99543762207031 C 611.3419799804688 82.05207061767578 604.154052734375 89.6426773071289 593.5511474609375 92.81098937988281 C 583.3521118164062 90.01993560791016 576.0038452148438 82.63970184326172 573.2132568359375 71.73400115966797 C 575.9556274414062 61.31369400024414 583.3035888671875 53.92959976196289 593.51708984375 51.14939498901367 C 604.2543334960938 54.22761535644531 611.3711547851562 61.890663146972656 614.0042114257812 71.99543762207031" stroke-width="0.0" fill="rgb(161, 165, 178)" opacity="1.0"/>
    <path d="M 217.8553009033203 366.8138427734375 C 215.23500061035156 376.9051513671875 207.90557861328125 384.2362060546875 197.81993103027344 386.8642578125 C 187.0 383.32049560546875 179.6794891357422 376.0 176.05271911621094 365.0978698730469 C 178.74021911621094 355.0826416015625 186.09825134277344 347.7814636230469 196.24179077148438 345.2117004394531 C 207.0 348.67950439453125 214.3205108642578 356.0 217.8553009033203 366.8138427734375" stroke-width="0.0" fill="rgb(9, 13, 22)" opacity="1.0"/>
    <path d="M 274.96343994140625 371.8292236328125 C 272.23828125 382.8962707519531 264.8940734863281 390.2333679199219 253.90823364257812 392.95751953125 C 243.09552001953125 390.24005126953125 235.7584686279297 382.9051208496094 233.0588836669922 372.8097229003906 C 235.94796752929688 361.248291015625 243.18203735351562 353.7940979003906 254.53619384765625 351.03985595703125 C 264.9095764160156 353.7570495605469 272.2476806640625 361.0884704589844 274.96343994140625 371.8292236328125" stroke-width="0.0" fill="rgb(28, 33, 44)" opacity="1.0"/>
    <path d="M 366.67486572265625 567.23583984375 C 363.81671142578125 577.3812255859375 356.2940673828125 584.5513916015625 346.071044921875 587.0547485351562 C 336.0001220703125 584.3202514648438 328.6795349121094 576.9999389648438 325.9547119140625 566.9449462890625 C 328.506103515625 556.7943115234375 335.76409912109375 549.4072875976562 346.3193054199219 546.392822265625 C 356.45465087890625 549.1533813476562 363.7574462890625 556.5760498046875 366.67486572265625 567.23583984375" stroke-width="0.0" fill="rgb(210, 216, 228)" opacity="0.99129856"/>
    <path d="M 278.74908447265625 249.82855224609375 C 275.9469909667969 260.5787658691406 268.5626220703125 267.9012756347656 257.8242492675781 270.72235107421875 C 247.4359588623047 267.91790771484375 239.9799041748047 260.60504150390625 237.1548614501953 250.31427001953125 C 240.03805541992188 239.43539428710938 247.46176147460938 232.11183166503906 257.9274597167969 229.42127990722656 C 268.51519775390625 232.1402130126953 275.9209899902344 239.46424865722656 278.74908447265625 249.82855224609375" stroke-width="0.0" fill="rgb(188, 195, 206)" opacity="0.99188393"/>
    <path d="M 188.96463012695312 510.86566162109375 C 186.25869750976562 521.9235229492188 178.91952514648438 529.2488403320312 167.73109436035156 531.9570922851562 C 157.14402770996094 529.2207641601562 149.7843475341797 521.8529663085938 147.03562927246094 510.2823791503906 C 149.74058532714844 500.0738525390625 157.07200622558594 492.73626708984375 167.33229064941406 490.0286560058594 C 178.91632080078125 492.7489013671875 186.2537078857422 500.0825500488281 188.96463012695312 510.86566162109375" stroke-width="0.0" fill="rgb(0, 2, 1)" opacity="1.0"/>
    <path d="M 456.758544921875 290.26214599609375 C 453.94866943359375 300.5691833496094 446.5585632324219 307.9190979003906 435.85455322265625 310.7264709472656 C 425.40545654296875 307.9737243652344 418.10394287109375 300.56707763671875 415.239990234375 289.6781311035156 C 418.0751647949219 279.47515869140625 425.4884033203125 272.1112365722656 436.1764831542969 269.2681579589844 C 446.5714416503906 272.0441589355469 453.8957214355469 279.45074462890625 456.758544921875 290.26214599609375" stroke-width="0.0" fill="rgb(175, 182, 195)" opacity="1.0"/>
    <path d="M 323.0462951660156 457.5889587402344 C 320.5133361816406 466.3196716308594 313.4764709472656 473.9390563964844 303.6300964355469 477.2173156738281 C 293.2655334472656 474.97711181640625 285.80267333984375 467.8106689453125 283.05487060546875 457.7356872558594 C 286.08319091796875 446.655029296875 293.88604736328125 439.6349792480469 303.60986328125 437.3380432128906 C 313.231689453125 440.38824462890625 320.4363098144531 447.8285827636719 323.0462951660156 457.5889587402344" stroke-width="0.0" fill="rgb(8, 8, 9)" opacity="0.9900148"/>
    <path d="M 579.6524658203125 148.4798126220703 C 576.4646606445312 159.2047119140625 569.2909545898438 166.72947692871094 559.306396484375 169.46697998046875 C 548.9999389648438 166.3207550048828 541.6795043945312 159.00001525878906 538.9747924804688 148.96221923828125 C 541.52490234375 138.7695770263672 548.6563720703125 131.19097900390625 559.3475952148438 128.23667907714844 C 569.678466796875 130.95925903320312 577.0236206054688 138.3281707763672 579.6524658203125 148.4798126220703" stroke-width="0.0" fill="rgb(165, 169, 180)" opacity="1.0"/>
    <path d="M 518.06787109375 60.08577346801758 C 515.5918579101562 70.34538269042969 508.4577941894531 77.91586303710938 498.15667724609375 80.80406951904297 C 487.3747863769531 77.9822006225586 479.98712158203125 70.6363525390625 477.1512451171875 59.87397384643555 C 479.9651794433594 49.34415054321289 487.36126708984375 42.01028823852539 497.4889221191406 39.34489059448242 C 508.0 42.67949295043945 515.3204956054688 50.0 518.06787109375 60.08577346801758" stroke-width="0.0" fill="rgb(167, 170, 182)" opacity="0.9928868"/>
    <path d="M 414.7507629394531 216.4536895751953 C 411.4149169921875 227.03733825683594 404.0106201171875 234.32452392578125 394.0003662109375 237.00013732910156 C 384.0 234.3205108642578 376.67950439453125 227.0 373.7271423339844 216.7808837890625 C 376.2647705078125 206.5960235595703 383.55267333984375 199.13963317871094 393.83251953125 196.26925659179688 C 404.5602722167969 199.103515625 412.0005798339844 206.40074157714844 414.7507629394531 216.4536895751953" stroke-width="0.0" fill="rgb(176, 181, 193)" opacity="1.0"/>
    <path d="M 230.36224365234375 347.5866394042969 C 227.3205108642578 358.0 220.0 365.32049560546875 209.99969482421875 368.0002746582031 C 199.99932861328125 365.3208923339844 192.64231872558594 358.0108642578125 189.06529235839844 347.12469482421875 C 191.74777221679688 337.0804443359375 199.07745361328125 329.74090576171875 209.24122619628906 327.03375244140625 C 220.84095764160156 329.78558349609375 228.04873657226562 337.2165832519531 230.36224365234375 347.5866394042969" stroke-width="0.0" fill="rgb(10, 18, 25)" opacity="1.0"/>
    <path d="M 20.08852767944336 114.104736328125 C 17.623384475708008 124.36439514160156 10.456048965454102 131.89512634277344 0.49023133516311646 134.6761016845703 C -10.0 131.3205108642578 -17.32050895690918 124.0 -20.0 114.0 C -17.32050895690918 104.0 -10.0 96.67948913574219 0.016864009201526642 93.96292114257812 C 10.007732391357422 96.65951538085938 17.321369171142578 103.9977035522461 20.08852767944336 114.104736328125" stroke-width="0.0" fill="rgb(183, 189, 202)" opacity="0.99378055"/>
    <path d="M 523.4288940429688 222.35426330566406 C 520.8883666992188 232.53138732910156 513.5285034179688 239.8819580078125 502.75482177734375 242.7368621826172 C 492.3785400390625 239.98341369628906 484.9915771484375 232.630615234375 482.266357421875 222.5738983154297 C 485.6788024902344 211.99978637695312 492.9997863769531 204.67884826660156 503.0805358886719 201.7903594970703 C 513.0263671875 204.6100616455078 520.3226928710938 211.99319458007812 523.4288940429688 222.35426330566406" stroke-width="0.0" fill="rgb(170, 175, 186)" opacity="0.99804026"/>
    <path d="M 536.6600341796875 505.5629577636719 C 533.407958984375 516.0447998046875 526.021728515625 523.3309936523438 516.0016479492188 526.0007934570312 C 506.0 523.3204956054688 498.67950439453125 516.0 495.4585266113281 505.5760803222656 C 498.0646057128906 495.4149169921875 505.4117431640625 488.05615234375 515.6407470703125 485.4472961425781 C 526.362548828125 488.3419189453125 533.8500366210938 495.5732727050781 536.6600341796875 505.5629577636719" stroke-width="0.0" fill="rgb(192, 199, 210)" opacity="1.0"/>
    <path d="M 574.7490844726562 238.9777069091797 C 571.871826171875 249.39578247070312 564.261962890625 256.4854431152344 554.0361938476562 259.0194396972656 C 544.0000610351562 256.3204040527344 536.6795043945312 249.0 533.961669921875 238.94049072265625 C 536.4498291015625 228.6724853515625 543.55419921875 221.09938049316406 554.0343627929688 218.2490997314453 C 564.6112670898438 221.03302001953125 571.9697875976562 228.38768005371094 574.7490844726562 238.9777069091797" stroke-width="0.0" fill="rgb(168, 173, 184)" opacity="1.0"/>
    <path d="M 73.16239166259766 523.8550415039062 C 70.32051086425781 534.0 63.0 541.3204956054688 53.17173385620117 543.865478515625 C 43.14182662963867 540.9912109375 35.63612747192383 533.9920654296875 33.11137771606445 524.0052490234375 C 35.40871810913086 513.6785888671875 42.616207122802734 506.208251953125 52.67573547363281 503.4711608886719 C 63.257957458496094 506.4680480957031 70.63323211669922 513.7130737304688 73.16239166259766 523.8550415039062" stroke-width="0.0" fill="rgb(227, 232, 239)" opacity="1.0"/>
    <path d="M 33.357975006103516 345.7662658691406 C 30.320512771606445 356.0 23.000146865844727 363.32098388671875 12.50688362121582 366.6587219238281 C 2.4895706176757812 363.9331359863281 -4.686044692993164 356.42840576171875 -7.203436851501465 346.00775146484375 C -4.6658525466918945 335.6057434082031 2.5537848472595215 328.1680603027344 12.6951265335083 325.6133117675781 C 23.133285522460938 328.601806640625 30.656829833984375 335.7828063964844 33.357975006103516 345.7662658691406" stroke-width="0.0" fill="rgb(191, 200, 212)" opacity="0.9938749"/>
    <path d="M 73.6396255493164 21.153350830078125 C 70.88500213623047 31.497772216796875 63.45701599121094 38.75954818725586 53.15903854370117 41.24169158935547 C 42.6897087097168 38.551170349121094 35.17026138305664 31.400537490844727 32.250179290771484 20.67638397216797 C 35.06922149658203 10.46318244934082 42.46553039550781 3.0753092765808105 52.76585006713867 0.24247229099273682 C 63.54966354370117 3.082831382751465 70.860595703125 10.469182968139648 73.6396255493164 21.153350830078125" stroke-width="0.0" fill="rgb(181, 187, 199)" opacity="0.9915277"/>
    <path d="M 324.6275634765625 403.23785400390625 C 321.952392578125 413.5986022949219 314.59149169921875 420.93182373046875 304.400390625 423.4955139160156 C 293.99139404296875 420.3233642578125 286.6138000488281 413.0270690917969 283.2750244140625 402.3183898925781 C 285.9629211425781 392.37445068359375 293.41876220703125 385.0775451660156 303.9696350097656 382.3544616699219 C 314.5451965332031 385.1022033691406 321.8703308105469 392.46343994140625 324.6275634765625 403.23785400390625" stroke-width="0.0" fill="rgb(190, 196, 206)" opacity="1.0"/>
    <path d="M 276.5497741699219 112.85128784179688 C 273.5172119140625 123.09774017333984 266.0423889160156 130.3404998779297 255.68206787109375 133.35482788085938 C 245.43527221679688 130.88641357421875 238.04539489746094 123.58704376220703 235.22186279296875 112.80101776123047 C 238.03860473632812 102.4158706665039 245.4324188232422 95.08731079101562 255.81842041015625 92.4017105102539 C 266.3955383300781 95.24711608886719 273.7621154785156 102.6011734008789 276.5497741699219 112.85128784179688" stroke-width="0.0" fill="rgb(181, 187, 198)" opacity="0.9918172"/>
    <path d="M 357.751953125 181.1448211669922 C 354.94415283203125 191.5840606689453 347.5891418457031 198.95562744140625 337.4520568847656 201.56907653808594 C 327.0 198.3204803466797 319.67950439453125 191.0 316.5314636230469 180.64964294433594 C 319.1490783691406 170.51280212402344 326.502685546875 163.1182098388672 337.0736999511719 160.2362060546875 C 347.640869140625 162.9955596923828 354.96142578125 170.37445068359375 357.751953125 181.1448211669922" stroke-width="0.0" fill="rgb(181, 185, 197)" opacity="0.9919295"/>
    <path d="M 38.679725646972656 105.48479461669922 C 35.92375946044922 115.52342224121094 28.492340087890625 122.83707427978516 18.293550491333008 125.49359893798828 C 7.986335277557373 122.35838317871094 0.6782695055007935 115.00325775146484 -2.2296693325042725 104.7779312133789 C 0.22134068608283997 94.53809356689453 7.524986267089844 87.17868041992188 17.72022819519043 84.67376708984375 C 28.0031681060791 87.67850494384766 35.353660583496094 94.98765563964844 38.679725646972656 105.48479461669922" stroke-width="0.0" fill="rgb(184, 190, 201)" opacity="0.99234"/>
    <path d="M 227.96287536621094 511.7040100097656 C 225.2371063232422 522.8919677734375 217.87686157226562 530.195556640625 206.24090576171875 532.8703002929688 C 196.09681701660156 530.2381591796875 188.76034545898438 522.9036865234375 186.0480499267578 512.3159790039062 C 188.7605438232422 501.09820556640625 196.099365234375 493.762939453125 207.4811553955078 491.0375061035156 C 217.9097137451172 493.75396728515625 225.2468719482422 501.08984375 227.96287536621094 511.7040100097656" stroke-width="0.0" fill="rgb(32, 40, 52)" opacity="1.0"/>
    <path d="M 357.6719055175781 3.497850179672241 C 355.0133972167969 13.63485336303711 347.60736083984375 20.93653678894043 337.38800048828125 23.47298240661621 C 326.9998474121094 20.32161521911621 319.6795959472656 12.999844551086426 317.0 2.9999759197235107 C 319.67950439453125 -7.0 327.0 -14.320508003234863 337.0002746582031 -17.000097274780273 C 347.0079345703125 -14.323445320129395 354.3959655761719 -7.029114246368408 357.6719055175781 3.497850179672241" stroke-width="0.0" fill="rgb(174, 178, 188)" opacity="0.992572"/>
    <path d="M 567.045166015625 154.06448364257812 C 564.5557250976562 164.32656860351562 557.4554443359375 171.92410278320312 547.1748046875 174.79998779296875 C 536.3595581054688 171.98355102539062 528.9874877929688 164.65122985839844 526.2340698242188 153.88250732421875 C 528.9825439453125 143.34080505371094 536.3401489257812 135.98085021972656 546.4686279296875 133.34310913085938 C 557.0000610351562 136.67919921875 564.3204956054688 144.0 567.045166015625 154.06448364257812" stroke-width="0.0" fill="rgb(169, 173, 183)" opacity="0.99292403"/>
    <path d="M 412.07037353515625 161.0835723876953 C 409.5721435546875 171.3050994873047 402.3820495605469 178.80812072753906 391.79962158203125 181.70960998535156 C 381.3785095214844 178.96966552734375 374.0220031738281 171.62432861328125 371.3218078613281 161.36390686035156 C 374.4149475097656 150.8602294921875 381.93572998046875 143.6485595703125 391.99542236328125 140.99818420410156 C 402.0 143.6794891357422 409.32049560546875 151.0 412.07037353515625 161.0835723876953" stroke-width="0.0" fill="rgb(175, 181, 192)" opacity="0.9937542"/>
    <path d="M 326.94049072265625 478.905029296875 C 324.26068115234375 488.92578125 316.9239196777344 496.2562561035156 306.65386962890625 498.9637451171875 C 295.1063537597656 496.2333068847656 287.7596130371094 488.89697265625 285.0404968261719 478.6848449707031 C 287.81842041015625 467.2415466308594 295.3834228515625 460.20819091796875 305.7173767089844 458.0906677246094 C 315.4689636230469 461.1349182128906 322.6125793457031 468.6154479980469 326.94049072265625 478.905029296875" stroke-width="0.0" fill="rgb(2, 2, 2)" opacity="0.99004114"/>
    <path d="M 197.84918212890625 553.3096313476562 C 194.5232391357422 563.8712158203125 186.6497039794922 570.7976684570312 176.8639678955078 573.2476806640625 C 167.2116241455078 570.91650390625 159.34478759765625 564.0667114257812 156.1743621826172 553.417724609375 C 158.90774536132812 543.3165283203125 166.40623474121094 536.1798706054688 177.24461364746094 534.5017700195312 C 187.72634887695312 535.983154296875 195.14227294921875 543.2313232421875 197.84918212890625 553.3096313476562" stroke-width="0.0" fill="rgb(155, 154, 156)" opacity="0.9900921"/>
    <path d="M 273.355712890625 310.29095458984375 C 270.825439453125 320.49365234375 263.5713195800781 328.0157470703125 252.3744659423828 330.90093994140625 C 242.13990783691406 328.1968994140625 234.79148864746094 320.8647766113281 232.07281494140625 310.5009460449219 C 234.8460693359375 299.2546081542969 242.3567657470703 292.1440734863281 252.7946319580078 289.851318359375 C 263.0 292.67950439453125 270.32049560546875 300.0 273.355712890625 310.29095458984375" stroke-width="0.0" fill="rgb(151, 153, 167)" opacity="1.0"/>
    <path d="M 298.23419189453125 424.6224365234375 C 296.32049560546875 434.0 289.0 441.32049560546875 278.1349792480469 444.9238586425781 C 268.0944519042969 442.24127197265625 260.7539978027344 434.9075927734375 258.0346984863281 423.7658996582031 C 260.7535095214844 413.09429931640625 268.0965576171875 405.7582702636719 278.2354431152344 403.0403137207031 C 289.6186828613281 405.86468505859375 295.63568115234375 414.22314453125 298.23419189453125 424.6224365234375" stroke-width="0.0" fill="rgb(27, 30, 38)" opacity="1.0"/>
    <path d="M 306.176513671875 141.8065643310547 C 303.3204040527344 151.99948120117188 295.99676513671875 159.3105926513672 285.5711975097656 162.61221313476562 C 275.63201904296875 159.81507873535156 268.4595642089844 152.27618408203125 265.9432067871094 142.06761169433594 C 268.6682434082031 131.974609375 275.9358825683594 124.54109954833984 286.49420166015625 121.28459167480469 C 296.5727233886719 124.02054595947266 303.7744445800781 131.49525451660156 306.176513671875 141.8065643310547" stroke-width="0.0" fill="rgb(179, 186, 198)" opacity="0.9939003"/>
    <path d="M 596.7047729492188 0.5765393972396851 C 594.0440673828125 10.67327880859375 586.662109375 18.014978408813477 575.8529052734375 20.816455841064453 C 565.358154296875 18.01175308227539 557.9920043945312 10.640938758850098 555.345703125 0.5254408717155457 C 558.6795043945312 -10.0 566.0 -17.32050895690918 576.0 -20.0 C 586.0 -17.32050895690918 593.3204956054688 -10.0 596.7047729492188 0.5765393972396851" stroke-width="0.0" fill="rgb(161, 162, 176)" opacity="0.9943369"/>
    <path d="M 325.0081787109375 586.0078125 C 322.3424987792969 596.0204467773438 315.0189514160156 603.3375244140625 304.93878173828125 606.059326171875 C 294.76641845703125 603.520263671875 287.3738708496094 596.2660522460938 284.7375183105469 586.0506591796875 C 287.57568359375 575.9402465820312 294.9660949707031 568.6609497070312 304.99658203125 565.9981689453125 C 315.0 568.6795043945312 322.32049560546875 576.0 325.0081787109375 586.0078125" stroke-width="0.0" fill="rgb(213, 217, 227)" opacity="0.992826"/>
    <path d="M 97.25843048095703 383.27008056640625 C 94.43052673339844 393.1046447753906 87.09679412841797 400.4065246582031 77.11502838134766 404.9080505371094 C 68.19493103027344 402.12738037109375 61.568878173828125 393.2083740234375 58.961280822753906 383.2482604980469 C 61.39177322387695 374.3742980957031 67.79877471923828 366.3401184082031 77.83216857910156 363.8370056152344 C 88.0 366.67950439453125 95.32051086425781 374.0 97.25843048095703 383.27008056640625" stroke-width="0.0" fill="rgb(2, 2, 2)" opacity="0.9900236"/>
    <path d="M 531.2598876953125 53.73432540893555 C 528.3204956054688 64.0 521.0 71.32051086425781 510.9991149902344 74.00294494628906 C 500.9999084472656 71.3207778930664 493.67950439453125 64.00000762939453 490.88934326171875 53.85993194580078 C 493.28961181640625 43.532161712646484 500.44989013671875 36.036441802978516 511.1130676269531 33.235931396484375 C 521.6082763671875 36.009498596191406 528.8569946289062 43.43519973754883 531.2598876953125 53.73432540893555" stroke-width="0.0" fill="rgb(164, 167, 178)" opacity="1.0"/>
    <path d="M 605.3445434570312 267.86822509765625 C 602.6962890625 278.4112243652344 595.4782104492188 285.8958435058594 584.615234375 288.8073425292969 C 574.34814453125 286.0353088378906 567.0479736328125 278.6214599609375 564.4833984375 268.39617919921875 C 567.4824829101562 257.72119140625 574.607666015625 250.1478271484375 585.11083984375 247.25746154785156 C 595.5775756835938 250.04270935058594 602.8359985351562 257.46160888671875 605.3445434570312 267.86822509765625" stroke-width="0.0" fill="rgb(171, 176, 188)" opacity="0.99363434"/>
    <path d="M 615.0028076171875 564.0057373046875 C 612.36572265625 574.099365234375 605.233154296875 581.74267578125 595.3578491210938 584.692626953125 C 584.8348999023438 581.5714111328125 577.6104736328125 574.1080322265625 574.9899291992188 564.0155639648438 C 577.679443359375 553.9998168945312 584.9982299804688 546.6735229492188 595.0073852539062 543.8488159179688 C 605.01806640625 546.637939453125 612.3233642578125 553.9931640625 615.0028076171875 564.0057373046875" stroke-width="0.0" fill="rgb(194, 200, 211)" opacity="0.9930835"/>
    <path d="M 90.810546875 72.77518463134766 C 88.02179718017578 82.80499267578125 80.80284118652344 90.02015686035156 70.47947692871094 93.37775421142578 C 60.43938446044922 90.93888092041016 53.17776107788086 83.52286529541016 50.751426696777344 73.24742889404297 C 53.682064056396484 63.00152587890625 61.00003433227539 55.67672348022461 70.85614776611328 53.19807052612305 C 80.8972396850586 55.884952545166016 88.34580993652344 63.02723693847656 90.810546875 72.77518463134766" stroke-width="0.0" fill="rgb(189, 194, 206)" opacity="0.99007756"/>
    <path d="M 353.6713562011719 134.10183715820312 C 350.90020751953125 144.5570526123047 343.59027099609375 151.9886016845703 333.3879089355469 154.79690551757812 C 322.7725830078125 151.71168518066406 315.6126708984375 144.1160430908203 312.4309387207031 133.53903198242188 C 315.0010681152344 123.34465026855469 322.3364562988281 115.97801971435547 332.8193359375 113.24821472167969 C 343.5649719238281 116.0550537109375 350.8736267089844 123.45990753173828 353.6713562011719 134.10183715820312" stroke-width="0.0" fill="rgb(179, 183, 195)" opacity="0.99164927"/>
    <path d="M 395.5767517089844 477.8965759277344 C 392.7764892578125 488.4206237792969 385.4170227050781 495.76751708984375 374.967529296875 498.5527038574219 C 364.55029296875 495.8015441894531 357.1843566894531 488.4546203613281 354.2599182128906 477.641845703125 C 357.0437927246094 467.43658447265625 364.46868896484375 460.1332702636719 375.1337890625 457.3357849121094 C 385.498779296875 460.12030029296875 392.82958984375 467.5188293457031 395.5767517089844 477.8965759277344" stroke-width="0.0" fill="rgb(188, 196, 207)" opacity="0.99064255"/>
    <path d="M 100.02350616455078 379.9607238769531 C 97.39389038085938 389.11505126953125 90.16520690917969 396.5396728515625 80.52900695800781 399.5957336425781 C 71.0 397.32049560546875 63.67949295043945 390.0 60.181617736816406 379.21221923828125 C 62.77032470703125 369.0928649902344 70.08289337158203 361.7438049316406 80.05017852783203 360.8392639160156 C 90.07079315185547 363.6241760253906 97.38418579101562 370.9255065917969 100.02350616455078 379.9607238769531" stroke-width="0.0" fill="rgb(2, 2, 2)" opacity="0.99001336"/>
    <path d="M 425.81805419921875 153.8421173095703 C 423.0242004394531 164.657470703125 415.6517028808594 172.01051330566406 405.5567932128906 174.71023559570312 C 395.00042724609375 171.32015991210938 387.68017578125 163.99949645996094 385.0009460449219 153.99972534179688 C 387.6795349121094 143.99993896484375 394.99969482421875 136.67860412597656 405.5703125 133.27670288085938 C 415.64532470703125 135.9821014404297 423.01519775390625 143.35585021972656 425.81805419921875 153.8421173095703" stroke-width="0.0" fill="rgb(176, 180, 191)" opacity="0.99532604"/>
    <path d="M 52.42117691040039 372.2832336425781 C 49.811885833740234 382.4884338378906 42.530765533447266 389.9321594238281 32.33816146850586 392.7340087890625 C 21.595083236694336 389.7733459472656 14.175538063049316 382.42266845703125 11.259592056274414 372.1999206542969 C 14.396305084228516 361.8632507324219 21.949188232421875 354.6570129394531 31.99703598022461 351.9986572265625 C 42.00035858154297 354.67938232421875 49.328765869140625 361.9974060058594 52.42117691040039 372.2832336425781" stroke-width="0.0" fill="rgb(194, 201, 213)" opacity="0.9918695"/>
    <path d="M 610.0142822265625 164.02410888671875 C 607.4338989257812 174.1851043701172 600.2962646484375 181.76351928710938 589.5399780273438 184.77349853515625 C 579.28955078125 182.06961059570312 571.9598388671875 174.6996307373047 569.3519897460938 164.5364227294922 C 572.6778564453125 153.99827575683594 579.998046875 146.67715454101562 589.9990844726562 143.99887084960938 C 600.0 146.6794891357422 607.3204956054688 154.0 610.0142822265625 164.02410888671875" stroke-width="0.0" fill="rgb(166, 171, 182)" opacity="0.9971993"/>
    <path d="M 582.31494140625 570.255615234375 C 579.770263671875 580.39892578125 572.3644409179688 587.6600952148438 562.1394653320312 590.1376953125 C 551.9998168945312 587.320556640625 544.6730346679688 580.0018920898438 541.5579223632812 569.756591796875 C 544.2877197265625 559.65771484375 551.6646118164062 552.3064575195312 561.7809448242188 549.5407104492188 C 572.0069580078125 552.6583251953125 579.3208618164062 559.9988403320312 582.31494140625 570.255615234375" stroke-width="0.0" fill="rgb(197, 203, 214)" opacity="0.9917573"/>
    <path d="M 243.93809509277344 354.16033935546875 C 241.05519104003906 365.7650146484375 233.82220458984375 373.2017822265625 223.16098022460938 375.9548645019531 C 212.335693359375 373.1309814453125 205.37167358398438 365.4691467285156 203.01600646972656 355.0748291015625 C 205.6977996826172 345.01080322265625 213.00515747070312 337.67828369140625 223.86395263671875 334.07879638671875 C 233.9077911376953 336.75701904296875 241.2460479736328 344.09088134765625 243.93809509277344 354.16033935546875" stroke-width="0.0" fill="rgb(19, 25, 35)" opacity="1.0"/>
    <path d="M 44.48685073852539 321.2545471191406 C 41.770957946777344 331.4088439941406 34.39594268798828 338.7290344238281 24.205596923828125 341.23614501953125 C 14.004739761352539 338.3167419433594 6.677737712860107 330.99664306640625 3.520425796508789 320.6806640625 C 6.256134510040283 310.69964599609375 13.792915344238281 303.54119873046875 23.96701431274414 300.9789123535156 C 34.001922607421875 303.6788330078125 41.3486442565918 310.9903564453125 44.48685073852539 321.2545471191406" stroke-width="0.0" fill="rgb(196, 203, 213)" opacity="0.9904537"/>
    <path d="M 389.6082458496094 53.280364990234375 C 386.5909118652344 63.11830139160156 379.0331115722656 70.33271789550781 368.517822265625 73.5804443359375 C 358.3733825683594 70.99468231201172 351.0237121582031 63.61874771118164 348.15692138671875 52.7241325378418 C 351.02264404296875 42.49866485595703 358.6455383300781 35.42980194091797 368.93450927734375 32.954044342041016 C 379.0201416015625 35.67048645019531 386.4237365722656 42.951576232910156 389.6082458496094 53.280364990234375" stroke-width="0.0" fill="rgb(174, 177, 188)" opacity="0.9926697"/>
    <path d="M 404.2641296386719 76.84259796142578 C 401.5680847167969 87.30003356933594 394.3763732910156 94.80200958251953 383.81390380859375 97.70198822021484 C 373.4053955078125 94.94210052490234 365.986572265625 87.62154388427734 363.2210693359375 77.55416870117188 C 366.5092468261719 66.92173767089844 373.970458984375 59.66667938232422 384.3989562988281 56.48654556274414 C 394.5206298828125 59.097503662109375 401.78173828125 66.51822662353516 404.2641296386719 76.84259796142578" stroke-width="0.0" fill="rgb(174, 178, 188)" opacity="0.9919029"/>
    <path d="M 453.7341003417969 342.0116271972656 C 450.9849548339844 352.6239318847656 443.60870361328125 359.9400939941406 433.3951721191406 362.47674560546875 C 423.0003662109375 359.3201904296875 415.68023681640625 351.99951171875 412.6542053222656 341.67694091796875 C 415.10345458984375 331.4246520996094 422.3957214355469 324.0161437988281 432.75860595703125 321.2152404785156 C 443.6109313964844 324.0341491699219 450.9681091308594 331.3883972167969 453.7341003417969 342.0116271972656" stroke-width="0.0" fill="rgb(181, 186, 198)" opacity="0.99292135"/>
    <path d="M 544.6990966796875 526.714599609375 C 541.8026123046875 537.4384765625 534.4263305664062 544.765380859375 523.81787109375 547.5945434570312 C 513.57470703125 544.7951049804688 506.1776123046875 537.4348754882812 503.411865234375 527.3992919921875 C 506.67950439453125 517.0 514.0 509.67950439453125 524.1679077148438 506.8272705078125 C 534.4171142578125 509.292724609375 541.8951416015625 516.5198364257812 544.6990966796875 526.714599609375" stroke-width="0.0" fill="rgb(199, 206, 217)" opacity="0.9916116"/>
    <path d="M 560.99462890625 243.00076293945312 C 558.3200073242188 253.00009155273438 551.0004272460938 260.32110595703125 540.5852661132812 263.4819030761719 C 530.3876953125 260.959228515625 523.0448608398438 253.6106719970703 520.3126220703125 242.9331817626953 C 523.030029296875 232.37281799316406 530.364013671875 225.00416564941406 540.5302124023438 222.33380126953125 C 551.028076171875 225.6021270751953 558.3203125 232.99453735351562 560.99462890625 243.00076293945312" stroke-width="0.0" fill="rgb(170, 175, 186)" opacity="1.0"/>
    <path d="M 238.7415008544922 124.17837524414062 C 236.01466369628906 134.65858459472656 228.66065979003906 142.02154541015625 218.40931701660156 144.758544921875 C 207.51661682128906 141.85130310058594 200.2178192138672 134.46151733398438 197.3331756591797 123.65538787841797 C 200.10130310058594 113.47958374023438 207.47525024414062 106.08950805664062 217.88771057128906 103.24182891845703 C 228.60862731933594 106.03067779541016 235.95791625976562 113.39579772949219 238.7415008544922 124.17837524414062" stroke-width="0.0" fill="rgb(185, 190, 202)" opacity="0.9914293"/>
    <path d="M 592.6085205078125 501.76025390625 C 589.7879028320312 512.4567260742188 582.4847412109375 519.8717651367188 572.1946411132812 522.6854858398438 C 561.516357421875 519.8311157226562 554.1187133789062 512.500732421875 551.2820434570312 502.0238952636719 C 554.0455932617188 491.390625 561.3783569335938 484.0096130371094 571.62939453125 481.25921630859375 C 582.5693969726562 484.0954895019531 589.9313354492188 491.42181396484375 592.6085205078125 501.76025390625" stroke-width="0.0" fill="rgb(187, 195, 207)" opacity="0.9923225"/>
    <path d="M 306.43896484375 23.364147186279297 C 303.91058349609375 33.568260192871094 296.57928466796875 40.942710876464844 285.90960693359375 43.706695556640625 C 275.4085998535156 40.95177459716797 268.0649719238281 33.585567474365234 265.3081970214844 23.041175842285156 C 268.06683349609375 12.402568817138672 275.38165283203125 5.007866382598877 285.6247863769531 2.288424491882324 C 296.18865966796875 5.348971366882324 303.36895751953125 12.90484619140625 306.43896484375 23.364147186279297" stroke-width="0.0" fill="rgb(178, 182, 194)" opacity="0.9918568"/>
    <path d="M 532.9976806640625 512.0023803710938 C 530.3206176757812 521.9999389648438 522.9998779296875 529.3202514648438 512.7462768554688 532.263671875 C 502.48541259765625 529.8238525390625 495.08795166015625 522.5427856445312 492.28271484375 512.0525512695312 C 495.21087646484375 501.6783447265625 502.7922668457031 494.5483703613281 512.9674072265625 492.0075988769531 C 522.9931030273438 494.6893005371094 530.3148803710938 502.00567626953125 532.9976806640625 512.0023803710938" stroke-width="0.0" fill="rgb(195, 201, 213)" opacity="0.9924185"/>
    <path d="M 279.6832580566406 214.41677856445312 C 276.88763427734375 224.47947692871094 269.4383850097656 231.76907348632812 258.87744140625 234.49635314941406 C 248.47201538085938 231.867431640625 241.12806701660156 224.52911376953125 238.38894653320312 213.94190979003906 C 241.14122009277344 203.53579711914062 248.59152221679688 196.3165740966797 258.8638916015625 193.87158203125 C 269.06597900390625 196.6434783935547 276.5233154296875 203.8819122314453 279.6832580566406 214.41677856445312" stroke-width="0.0" fill="rgb(187, 193, 204)" opacity="0.9916294"/>
    <path d="M 337.6004638671875 200.49661254882812 C 335.00421142578125 210.63958740234375 327.6217956542969 217.953125 317.06390380859375 220.69395446777344 C 306.4542541503906 217.9058837890625 299.1004943847656 210.5438232421875 296.26568603515625 199.7846221923828 C 299.0970153808594 189.48524475097656 306.4972229003906 182.1310577392578 316.62872314453125 179.50794982910156 C 326.99957275390625 182.6802215576172 334.3200378417969 190.00035095214844 337.6004638671875 200.49661254882812" stroke-width="0.0" fill="rgb(180, 187, 197)" opacity="0.9925316"/>
    <path d="M 403.1141052246094 517.0108642578125 C 400.45843505859375 527.09521484375 393.04736328125 534.2963256835938 382.70703125 537.1305541992188 C 372.3024597167969 534.9390258789062 364.8350830078125 527.7735595703125 362.123779296875 517.7745971679688 C 365.3055114746094 506.6715087890625 372.6651611328125 499.2890319824219 383.2134094238281 496.3787536621094 C 393.3149108886719 499.2438049316406 400.5004577636719 506.7691345214844 403.1141052246094 517.0108642578125" stroke-width="0.0" fill="rgb(197, 204, 214)" opacity="1.0"/>
    <path d="M 489.5566101074219 131.6094207763672 C 486.320068359375 141.9998016357422 478.9999084472656 149.32046508789062 468.8253479003906 152.1582489013672 C 458.5337829589844 149.74139404296875 451.0762634277344 142.525146484375 448.26580810546875 132.10910034179688 C 451.1717834472656 121.63356018066406 458.7467041015625 114.5060806274414 468.9986877441406 111.94371795654297 C 479.2481689453125 114.5099105834961 486.8160095214844 121.6423110961914 489.5566101074219 131.6094207763672" stroke-width="0.0" fill="rgb(168, 173, 185)" opacity="1.0"/>
    <path d="M 463.81951904296875 14.324516296386719 C 461.04034423828125 24.60816192626953 453.4970703125 31.713420867919922 442.9906921386719 34.196163177490234 C 432.5937805175781 31.677934646606445 425.1193542480469 24.471960067749023 422.1983642578125 13.616905212402344 C 425.0126953125 3.4414474964141846 432.53338623046875 -3.7172226905822754 443.06695556640625 -6.271097660064697 C 453.5064392089844 -3.778364896774292 460.9759216308594 3.4280948638916016 463.81951904296875 14.324516296386719" stroke-width="0.0" fill="rgb(165, 169, 180)" opacity="1.0"/>
    <path d="M 387.5956115722656 324.82171630859375 C 384.8678894042969 335.5228271484375 377.5303955078125 342.8922424316406 366.7861633300781 345.7342834472656 C 356.4487609863281 342.9316711425781 349.1017150878906 335.5394592285156 346.300537109375 325.03173828125 C 349.1896667480469 314.5734558105469 356.594970703125 307.2572326660156 367.3902587890625 304.32421875 C 377.5725402832031 307.0621337890625 384.9325866699219 314.428466796875 387.5956115722656 324.82171630859375" stroke-width="0.0" fill="rgb(182, 190, 200)" opacity="0.99212086"/>
    <path d="M 545.6248168945312 472.4512939453125 C 542.904541015625 482.54791259765625 535.5653686523438 489.9508361816406 525.4706420898438 492.685791015625 C 514.6341552734375 489.63751220703125 507.1272888183594 482.44427490234375 504.23455810546875 471.8514099121094 C 506.9960632324219 461.3654479980469 514.3826904296875 454.0434875488281 524.5614624023438 451.4512023925781 C 534.9970703125 454.6832580566406 542.3178100585938 462.0025939941406 545.6248168945312 472.4512939453125" stroke-width="0.0" fill="rgb(179, 185, 198)" opacity="0.9931913"/>
    <path d="M 540.8057250976562 111.5125732421875 C 538.0556030273438 121.69091796875 530.6842041015625 129.0367431640625 520.2579956054688 131.76499938964844 C 509.4588623046875 128.9257049560547 502.18011474609375 121.5061264038086 499.720458984375 111.25752258300781 C 502.67950439453125 101.0 510.0 93.67948913574219 520.0209350585938 90.9876480102539 C 530.1663208007812 93.57918548583984 537.73974609375 100.72651672363281 540.8057250976562 111.5125732421875" stroke-width="0.0" fill="rgb(167, 171, 182)" opacity="0.99291444"/>
    <path d="M 332.00128173828125 10.000150680541992 C 329.3211669921875 20.00039291381836 322.000244140625 27.32065200805664 312.0001220703125 29.999902725219727 C 302.000244140625 27.320247650146484 294.67987060546875 19.99970817565918 291.638427734375 9.766746520996094 C 294.3484191894531 -0.21313679218292236 301.8689880371094 -7.398054122924805 311.9843444824219 -10.008947372436523 C 322.0002136230469 -7.320644378662109 329.3210754394531 -0.0003509645175654441 332.00128173828125 10.000150680541992" stroke-width="0.0" fill="rgb(175, 181, 191)" opacity="0.9976241"/>
    <path d="M 513.035400390625 105.02721405029297 C 510.4863586425781 115.244140625 503.3537292480469 122.8124771118164 492.7684326171875 125.76488494873047 C 482.59991455078125 122.87327575683594 475.4963684082031 115.2720947265625 472.72381591796875 104.76206970214844 C 475.146240234375 94.43841552734375 482.3933410644531 87.0087890625 492.67156982421875 84.26569366455078 C 503.24267578125 87.28417205810547 510.3969421386719 94.86505126953125 513.035400390625 105.02721405029297" stroke-width="0.0" fill="rgb(168, 172, 183)" opacity="0.99218255"/>
    <path d="M 528.2080078125 596.7265625 C 525.2858276367188 606.9876098632812 517.9971923828125 614.3195190429688 507.99993896484375 616.9999389648438 C 497.9997253417969 614.320556640625 490.66583251953125 607.0040283203125 487.3690490722656 596.60400390625 C 490.1701354980469 586.5888061523438 497.63775634765625 579.3110961914062 508.3069152832031 576.3746337890625 C 518.447265625 579.17138671875 525.7644653320312 586.5731201171875 528.2080078125 596.7265625" stroke-width="0.0" fill="rgb(199, 205, 216)" opacity="0.9912399"/>
    <path d="M 278.74884033203125 299.69927978515625 C 275.8634033203125 310.4512939453125 268.3913269042969 317.6891784667969 258.6295166015625 319.3237609863281 C 248.69078063964844 316.587646484375 241.41221618652344 309.3093566894531 238.48468017578125 299.23492431640625 C 239.8896484375 289.2774963378906 247.33384704589844 282.0512390136719 257.8973083496094 279.44415283203125 C 268.5068054199219 282.166259765625 275.9431457519531 289.45458984375 278.74884033203125 299.69927978515625" stroke-width="0.0" fill="rgb(189, 195, 208)" opacity="0.99010134"/>
    <path d="M 316.0688781738281 440.71856689453125 C 314.5302734375 450.270263671875 307.2596740722656 457.5122375488281 296.5053405761719 460.43377685546875 C 286.17852783203125 458.10577392578125 278.7819519042969 450.859130859375 276.1171875 440.8187561035156 C 279.6748352050781 429.99334716796875 286.99285888671875 422.6744384765625 296.1864929199219 420.9006652832031 C 306.1585693359375 423.557373046875 313.4737548828125 430.828125 316.0688781738281 440.71856689453125" stroke-width="0.0" fill="rgb(21, 25, 32)" opacity="0.99001503"/>
    <path d="M 434.7800598144531 80.34310913085938 C 431.9436950683594 90.48182678222656 424.3548583984375 97.5776138305664 413.96697998046875 100.12574768066406 C 403.69158935546875 97.59586334228516 396.30145263671875 90.3397216796875 393.69659423828125 80.06649017333984 C 396.32940673828125 69.61280059814453 403.54718017578125 62.131046295166016 414.2729797363281 59.22347640991211 C 424.585693359375 62.0312614440918 431.9197692871094 69.43184661865234 434.7800598144531 80.34310913085938" stroke-width="0.0" fill="rgb(173, 176, 187)" opacity="0.99214715"/>
    <path d="M 202.93443298339844 384.8793640136719 C 200.24612426757812 394.90924072265625 192.91123962402344 402.25054931640625 182.44607543945312 404.9687194824219 C 171.10142517089844 402.23760986328125 163.7649383544922 394.89794921875 162.9438934326172 384.9139709472656 C 165.57679748535156 374.7752685546875 171.77854919433594 365.879150390625 181.25901794433594 363.162353515625 C 191.96385192871094 366.7216796875 199.2711944580078 374.0382080078125 202.93443298339844 384.8793640136719" stroke-width="0.0" fill="rgb(2, 4, 6)" opacity="0.9900343"/>
    <path d="M 46.03281021118164 477.9983215332031 C 43.431640625 488.1708679199219 36.26557159423828 495.718505859375 26.102252960205078 498.6329345703125 C 15.573862075805664 495.7716369628906 8.176334381103516 488.44281005859375 5.358375072479248 478.2535400390625 C 8.264727592468262 467.6096496582031 15.608687400817871 460.2613220214844 26.0385799407959 457.4923400878906 C 36.27248001098633 460.2883605957031 43.439857482910156 467.8158874511719 46.03281021118164 477.9983215332031" stroke-width="0.0" fill="rgb(202, 212, 224)" opacity="0.99122375"/>
    <path d="M 602.0469970703125 557.9412841796875 C 599.3196411132812 567.999267578125 591.9990844726562 575.3190307617188 582.0172119140625 577.9252319335938 C 572.0021362304688 575.3131713867188 564.6795654296875 567.9998168945312 561.7905883789062 557.8029174804688 C 564.2521362304688 547.5460815429688 571.487548828125 540.0785522460938 581.5785522460938 537.3213500976562 C 592.2805786132812 540.3309936523438 599.508056640625 547.7694702148438 602.0469970703125 557.9412841796875" stroke-width="0.0" fill="rgb(192, 198, 209)" opacity="0.9921062"/>
    <path d="M 408.15643310546875 549.82177734375 C 405.3183898925781 559.9978637695312 397.9975891113281 567.3173217773438 387.9544677734375 570.0310668945312 C 377.8460388183594 567.4573974609375 370.5430908203125 560.1553344726562 367.5829772949219 549.6959838867188 C 370.3172302246094 539.7393798828125 377.87335205078125 532.81103515625 388.19317626953125 530.6197509765625 C 398.4309997558594 532.300048828125 405.7376708984375 539.5615234375 408.15643310546875 549.82177734375" stroke-width="0.0" fill="rgb(209, 214, 223)" opacity="1.0"/>
    <path d="M 313.42962646484375 559.6757202148438 C 310.32000732421875 569.9993896484375 302.9991455078125 577.3192138671875 292.73773193359375 580.3410034179688 C 282.6166687011719 577.7615966796875 275.3927307128906 570.337158203125 272.9820556640625 559.8751831054688 C 275.23358154296875 549.4508666992188 282.34051513671875 541.9130859375 292.35565185546875 539.2055053710938 C 303.51123046875 542.1053466796875 310.8362731933594 549.5093383789062 313.42962646484375 559.6757202148438" stroke-width="0.0" fill="rgb(213, 219, 228)" opacity="1.0"/>
    <path d="M 324.685546875 68.12298583984375 C 321.92388916015625 78.56594848632812 314.56927490234375 85.9334487915039 303.8918762207031 88.7268295288086 C 293.34490966796875 86.00253295898438 285.982666015625 78.66030883789062 283.2215270996094 68.10191345214844 C 286.09527587890625 57.47798538208008 293.46539306640625 50.0645866394043 304.0476379394531 47.186058044433594 C 314.53729248046875 50.05315017700195 321.85675048828125 57.49728775024414 324.685546875 68.12298583984375" stroke-width="0.0" fill="rgb(177, 182, 193)" opacity="0.99202293"/>
    <path d="M 488.0137023925781 108.98114776611328 C 485.31988525390625 118.99948120117188 477.99957275390625 126.3201675415039 467.8707275390625 129.10060119628906 C 457.5456848144531 126.6925048828125 450.0306396484375 119.54585266113281 447.2164306640625 109.22771453857422 C 450.25537109375 98.75474548339844 457.88177490234375 91.61791229248047 468.0767517089844 88.8775863647461 C 478.1265563964844 91.50967407226562 485.3915710449219 98.90361022949219 488.0137023925781 108.98114776611328" stroke-width="0.0" fill="rgb(168, 173, 184)" opacity="0.9963774"/>
    <path d="M 284.7328186035156 192.7263946533203 C 281.8027648925781 203.40374755859375 274.3523254394531 210.64212036132812 264.124755859375 213.1236114501953 C 253.94932556152344 210.34434509277344 246.4642791748047 203.1111602783203 243.28628540039062 192.5666046142578 C 246.05593872070312 182.42698669433594 253.42938232421875 175.06483459472656 263.9707336425781 172.30697631835938 C 274.5507507324219 175.09178161621094 281.93658447265625 182.4391326904297 284.7328186035156 192.7263946533203" stroke-width="0.0" fill="rgb(185, 188, 203)" opacity="0.9927355"/>
    <path d="M 423.7040100097656 426.7867431640625 C 420.91546630859375 437.5819091796875 413.60369873046875 444.97711181640625 403.2916564941406 447.68463134765625 C 392.4776306152344 444.8690185546875 385.09307861328125 437.5347595214844 382.2935485839844 427.2026672363281 C 385.11102294921875 416.45904541015625 392.44757080078125 409.0762634277344 402.809814453125 406.2668762207031 C 413.5929870605469 409.0722961425781 420.9769592285156 416.3898010253906 423.7040100097656 426.7867431640625" stroke-width="0.0" fill="rgb(185, 191, 203)" opacity="0.9910713"/>
    <path d="M 545.8191528320312 63.045230865478516 C 543.0469360351562 73.69450378417969 535.6926879882812 81.04138946533203 525.4407958984375 83.67376708984375 C 514.4934692382812 80.82868957519531 507.1677551269531 73.50762939453125 504.7288513183594 63.26365661621094 C 507.6795349121094 52.999942779541016 514.9998168945312 45.67919158935547 525.5466918945312 42.34711837768555 C 535.6856079101562 44.95633316040039 543.0332641601562 52.318397521972656 545.8191528320312 63.045230865478516" stroke-width="0.0" fill="rgb(166, 169, 180)" opacity="0.9996671"/>
    <path d="M 88.94900512695312 534.151123046875 C 85.8435287475586 545.261962890625 77.90332794189453 551.9659423828125 67.43370056152344 554.2858276367188 C 57.19269561767578 553.0805053710938 49.788612365722656 545.8497314453125 48.91252136230469 535.919677734375 C 51.61042022705078 525.9164428710938 58.91657638549805 518.6107788085938 68.92987823486328 515.9127807617188 C 78.91158294677734 516.7554931640625 86.24930572509766 524.0865478515625 88.94900512695312 534.151123046875" stroke-width="0.0" fill="rgb(2, 2, 2)" opacity="0.9900113"/>
    <path d="M 416.72265625 229.48255920410156 C 414.0517272949219 239.6949462890625 406.6932678222656 247.0478973388672 396.4471130371094 249.76332092285156 C 385.6428527832031 246.80381774902344 378.50531005859375 239.2552032470703 375.9726867675781 229.0430450439453 C 378.67950439453125 219.0 386.0 211.6794891357422 396.01031494140625 208.99453735351562 C 406.1064453125 211.6219482421875 413.6454162597656 218.805908203125 416.72265625 229.48255920410156" stroke-width="0.0" fill="rgb(176, 181, 193)" opacity="0.99560875"/>
    <path d="M 525.7784423828125 171.74278259277344 C 522.9674682617188 182.59832763671875 515.596923828125 189.9659881591797 504.8804626464844 192.8308868408203 C 494.4393310546875 189.97344970703125 487.2168884277344 182.49583435058594 484.40447998046875 171.62258911132812 C 487.0097961425781 161.3749542236328 494.3908386230469 154.05345153808594 505.2148132324219 151.2593994140625 C 515.676513671875 153.9794921875 523.0430908203125 161.31539916992188 525.7784423828125 171.74278259277344" stroke-width="0.0" fill="rgb(170, 175, 186)" opacity="0.9911314"/>
    <path d="M 476.7713623046875 409.6710510253906 C 473.8786315917969 420.512451171875 466.52325439453125 427.9092102050781 456.144287109375 430.74224853515625 C 445.4429626464844 427.9220275878906 438.0934753417969 420.5513000488281 435.3433532714844 410.0668029785156 C 438.0798645019531 399.4054260253906 445.3857421875 392.0220642089844 455.9367980957031 389.2940979003906 C 466.5754089355469 392.0690612792969 473.9723205566406 399.40948486328125 476.7713623046875 409.6710510253906" stroke-width="0.0" fill="rgb(178, 187, 198)" opacity="0.9921673"/>
    <path d="M 605.3522338867188 216.94256591796875 C 602.780029296875 227.5026092529297 595.5595092773438 234.9550018310547 585.1011352539062 237.7289276123047 C 574.3733520507812 234.9740753173828 567.011962890625 227.63134765625 564.256103515625 217.09735107421875 C 567.0397338867188 206.38734436035156 574.3667602539062 198.9840850830078 584.5742797851562 196.21322631835938 C 595.5262451171875 199.1101531982422 602.8087768554688 206.4990692138672 605.3522338867188 216.94256591796875" stroke-width="0.0" fill="rgb(168, 174, 185)" opacity="0.9925482"/>
    <path d="M 46.04530715942383 308.1860046386719 C 43.417213439941406 318.11907958984375 36.117984771728516 325.4145812988281 26.512575149536133 328.03826904296875 C 17.87694549560547 325.42315673828125 10.578391075134277 318.122314453125 7.959900856018066 308.5521240234375 C 10.474838256835938 299.13836669921875 16.279733657836914 290.8338623046875 27.673784255981445 288.0615234375 C 37.900943756103516 290.7574462890625 45.15761947631836 298.12225341796875 46.04530715942383 308.1860046386719" stroke-width="0.0" fill="rgb(2, 2, 2)" opacity="0.9900049"/>
    <path d="M 393.7140197753906 36.766353607177734 C 390.7648620605469 47.31051254272461 383.21044921875 54.46419143676758 373.035888671875 57.02431106567383 C 362.9922790527344 54.32302474975586 355.60009765625 47.03022003173828 352.2735595703125 36.483577728271484 C 355.0128173828125 26.384807586669922 362.3889465332031 19.025373458862305 372.8153076171875 16.264982223510742 C 383.5500183105469 19.095890045166016 390.945556640625 26.434459686279297 393.7140197753906 36.766353607177734" stroke-width="0.0" fill="rgb(174, 177, 188)" opacity="0.9937949"/>
    <path d="M 226.76197814941406 4.548231601715088 C 223.97604370117188 14.563889503479004 216.53451538085938 21.90094757080078 205.90830993652344 24.718740463256836 C 195.43687438964844 21.937665939331055 188.10569763183594 14.547768592834473 185.4402313232422 4.336565971374512 C 188.5904998779297 -6.035897731781006 195.9891357421875 -13.324687004089355 205.99989318847656 -16.000276565551758 C 216.0091094970703 -13.323917388916016 223.40476989746094 -6.032849311828613 226.76197814941406 4.548231601715088" stroke-width="0.0" fill="rgb(179, 182, 196)" opacity="0.9948552"/>
    <path d="M 345.0003662109375 569.9984130859375 C 342.32012939453125 579.9996337890625 334.99957275390625 587.3198852539062 324.9995422363281 589.9993896484375 C 314.9999694824219 587.320556640625 307.6794128417969 580.0 304.99169921875 569.9909057617188 C 307.6492919921875 559.9655151367188 314.95733642578125 552.6212768554688 324.9501953125 549.8735961914062 C 335.02984619140625 552.6304931640625 342.3293762207031 559.9823608398438 345.0003662109375 569.9984130859375" stroke-width="0.0" fill="rgb(214, 220, 229)" opacity="0.99147964"/>
    <path d="M 480.7305603027344 83.72958374023438 C 477.7607421875 94.2842025756836 470.1676025390625 101.41891479492188 459.7137451171875 104.30648040771484 C 449.41259765625 101.88605499267578 441.9898986816406 94.62849426269531 439.15673828125 83.61797332763672 C 441.9404296875 73.3161849975586 449.332275390625 65.98319244384766 460.0306091308594 63.205814361572266 C 470.6376037597656 65.99665832519531 477.9970703125 73.36416625976562 480.7305603027344 83.72958374023438" stroke-width="0.0" fill="rgb(169, 170, 182)" opacity="1.0"/>
    <path d="M 66.33806610107422 478.8763427734375 C 63.65438461303711 489.3361511230469 56.36548614501953 496.7457275390625 46.246604919433594 499.4548034667969 C 35.98941421508789 496.365478515625 28.689912796020508 488.9942321777344 26.002904891967773 478.9956970214844 C 28.672286987304688 468.98199462890625 35.95246887207031 461.5738220214844 46.37240219116211 458.34832763671875 C 56.476261138916016 461.1275634765625 63.76806640625 468.5589294433594 66.33806610107422 478.8763427734375" stroke-width="0.0" fill="rgb(203, 214, 225)" opacity="0.9910981"/>
    <path d="M 499.47021484375 562.2811279296875 C 496.8664855957031 572.5199584960938 489.5323486328125 579.90185546875 479.1078186035156 582.6452026367188 C 468.48052978515625 579.8700561523438 461.1141357421875 572.5240478515625 458.25823974609375 562.1209106445312 C 461.1798095703125 551.556396484375 468.5581359863281 544.1851806640625 478.803955078125 541.38232421875 C 489.37139892578125 544.2592163085938 496.6687927246094 551.651123046875 499.47021484375 562.2811279296875" stroke-width="0.0" fill="rgb(202, 208, 219)" opacity="0.99054134"/>
    <path d="M 287.071044921875 135.9183349609375 C 284.3269958496094 146.01596069335938 277.04461669921875 153.42298889160156 266.48291015625 156.7151336669922 C 256.36407470703125 154.00169372558594 248.9930419921875 146.63795471191406 246.25369262695312 136.47900390625 C 249.4304962158203 125.87019348144531 256.94110107421875 118.65137481689453 267.2140808105469 115.71842193603516 C 277.3226623535156 118.2954330444336 284.5596923828125 125.72229766845703 287.071044921875 135.9183349609375" stroke-width="0.0" fill="rgb(182, 185, 199)" opacity="0.9923412"/>
    <path d="M 56.71326446533203 360.4310607910156 C 53.44285583496094 371.0794677734375 46.052059173583984 378.3529357910156 36.00716018676758 381.00341796875 C 26.00037956237793 378.3200378417969 18.67995262145996 370.9996032714844 16.001728057861328 360.99932861328125 C 18.668781280517578 350.9703063964844 25.900718688964844 343.4516296386719 36.28525161743164 340.2947692871094 C 46.57653045654297 343.0982666015625 54.04447555541992 350.3671875 56.71326446533203 360.4310607910156" stroke-width="0.0" fill="rgb(195, 199, 210)" opacity="0.9934454"/>
    <path d="M 615.0001831054688 158.9995574951172 C 612.3204956054688 169.0 605.0 176.32049560546875 595.0 178.9998321533203 C 585.0000610351562 176.32041931152344 577.6796264648438 168.99989318847656 574.705322265625 158.70382690429688 C 577.1077270507812 148.39950561523438 584.3543090820312 140.97128295898438 594.4698486328125 138.2698516845703 C 605.0447998046875 141.56695556640625 612.3251953125 148.9873809814453 615.0001831054688 158.9995574951172" stroke-width="0.0" fill="rgb(166, 170, 181)" opacity="1.0"/>
    <path d="M 538.7903442382812 96.8634262084961 C 535.7254028320312 107.2105941772461 528.0783081054688 114.35380554199219 518.0043334960938 117.00040435791016 C 508.00091552734375 114.31946563720703 500.6808166503906 106.9990005493164 497.69921875 96.72601318359375 C 500.163818359375 86.48016357421875 507.44927978515625 79.07040405273438 517.6687622070312 76.40621948242188 C 528.4791870117188 79.23177337646484 535.9419555664062 86.4627456665039 538.7903442382812 96.8634262084961" stroke-width="0.0" fill="rgb(167, 170, 181)" opacity="0.99652004"/>
  </g>
</svg>
