<?xml version="1.0" ?>
<svg xmlns="http://www.w3.org/2000/svg" version="1.1" width="600" height="600">
  <defs/>
  <g>
    <path d="M 526.0 165.0 C 523.3204956054688 175.0 516.0 182.3205108642578 505.99395751953125 185.00335693359375 C 495.9417724609375 182.35281372070312 488.50201416015625 175.10317993164062 485.5274353027344 164.83828735351562 C 488.2826232910156 154.6831817626953 495.74078369140625 147.4656524658203 505.9309997558594 144.94252014160156 C 516.0 147.6794891357422 523.3204956054688 155.0 526.0 165.0" stroke-width="0.0" fill="rgb(207, 207, 210)" opacity="0.9931494"/>
    <path d="M 89.09772491455078 474.1084289550781 C 86.62298583984375 484.3475036621094 79.417236328125 491.8370056152344 68.9138412475586 494.77459716796875 C 58.55824661254883 491.86834716796875 51.29707336425781 484.3825988769531 48.675636291503906 474.2140197753906 C 51.60243606567383 463.8977355957031 58.842010498046875 456.4278259277344 68.81578063964844 453.70355224609375 C 79.02593994140625 456.6412048339844 86.33076477050781 463.9826354980469 89.09772491455078 474.1084289550781" stroke-width="0.0" fill="rgb(206, 206, 209)" opacity="0.9913718"/>
    <path d="M 186.00633239746094 15.992269515991211 C 183.3205108642578 26.0 176.0 33.32050704956055 165.77908325195312 36.32957458496094 C 155.76463317871094 33.657772064208984 148.57228088378906 26.161977767944336 145.9841766357422 16.025144577026367 C 148.67970275878906 6.000321388244629 156.00045776367188 -1.3198493719100952 166.0173797607422 -4.018993854522705 C 176.03741455078125 -1.3643858432769775 183.34744262695312 5.967718124389648 186.00633239746094 15.992269515991211" stroke-width="0.0" fill="rgb(205, 205, 208)" opacity="0.99589664"/>
    <path d="M 29.5056095123291 391.9542541503906 C 26.782024383544922 402.4312744140625 19.424930572509766 409.7621765136719 9.120474815368652 412.4584045410156 C -1.1466727256774902 409.5654602050781 -8.36764907836914 402.08404541015625 -11.006978034973145 392.00543212890625 C -8.337552070617676 381.9717712402344 -1.0432952642440796 374.6127014160156 9.394664764404297 371.44134521484375 C 19.511764526367188 374.100830078125 26.803133010864258 381.52099609375 29.5056095123291 391.9542541503906" stroke-width="0.0" fill="rgb(205, 207, 210)" opacity="0.9917366"/>
    <path d="M 159.1907196044922 21.19098472595215 C 156.7462615966797 31.450679779052734 149.4950408935547 38.883975982666016 139.02313232421875 41.73826599121094 C 128.52821350097656 38.843814849853516 121.1550521850586 31.473434448242188 118.56327056884766 21.33635711669922 C 121.67948913574219 11.0 129.0 3.6794919967651367 139.0 0.9999999403953552 C 149.0 3.6794917583465576 156.3205108642578 11.000000953674316 159.1907196044922 21.19098472595215" stroke-width="0.0" fill="rgb(206, 207, 210)" opacity="0.9915948"/>
    <path d="M 524.0 137.0 C 521.3204956054688 147.0 514.0 154.3205108642578 503.8359375 157.1538848876953 C 493.5615539550781 154.7174072265625 486.10150146484375 147.49732971191406 483.29901123046875 137.06666564941406 C 486.1389465332031 126.50203704833984 493.4994201660156 119.13015747070312 503.5806579589844 116.40669250488281 C 514.0 119.67948913574219 521.3204956054688 127.0 524.0 137.0" stroke-width="0.0" fill="rgb(206, 207, 210)" opacity="0.99248976"/>
    <path d="M 137.2593994140625 197.21456909179688 C 134.72576904296875 207.3729705810547 127.36851501464844 214.7119598388672 117.02055358886719 217.50880432128906 C 106.93244171142578 214.4853057861328 99.67244720458984 207.01893615722656 96.99977111816406 197.00062561035156 C 99.67948913574219 187.0 107.0 179.6794891357422 117.0 177.0 C 127.0 179.6794891357422 134.3205108642578 187.0 137.2593994140625 197.21456909179688" stroke-width="0.0" fill="rgb(206, 206, 209)" opacity="0.99318624"/>
    <path d="M 564.4898071289062 571.602294921875 C 561.3204956054688 582.0 554.0 589.3204956054688 544.0 592.0 C 534.0 589.3204956054688 526.6795043945312 582.0 523.6666259765625 571.7340087890625 C 526.2088012695312 561.5494384765625 533.544189453125 554.193115234375 543.9758911132812 551.5250854492188 C 554.5039672851562 554.1846923828125 561.9163818359375 561.4622802734375 564.4898071289062 571.602294921875" stroke-width="0.0" fill="rgb(206, 206, 210)" opacity="0.99203014"/>
    <path d="M 171.83404541015625 337.3633728027344 C 169.1253662109375 347.7735290527344 161.7698211669922 355.1159362792969 151.52752685546875 357.61224365234375 C 140.54547119140625 354.78643798828125 133.17190551757812 347.46771240234375 130.50486755371094 337.32769775390625 C 133.6705780029297 326.9991455078125 141.0018310546875 319.6807556152344 151.2663116455078 316.68121337890625 C 161.43983459472656 319.20623779296875 168.92230224609375 326.5125427246094 171.83404541015625 337.3633728027344" stroke-width="0.0" fill="rgb(201, 201, 204)" opacity="1.0"/>
    <path d="M 159.68959045410156 107.32244110107422 C 156.88449096679688 117.49842834472656 149.48895263671875 124.85600280761719 139.07546997070312 127.61355590820312 C 128.52928161621094 124.83064270019531 121.18672180175781 117.46485137939453 118.37086486816406 106.94269561767578 C 121.35282135009766 96.8160400390625 128.90753173828125 89.62921142578125 139.45640563964844 86.37931823730469 C 149.5290985107422 89.08307647705078 156.81883239746094 96.5042495727539 159.68959045410156 107.32244110107422" stroke-width="0.0" fill="rgb(206, 207, 210)" opacity="0.99111897"/>
    <path d="M 205.8701629638672 292.0872802734375 C 201.42236328125 302.164794921875 194.37728881835938 311.05908203125 184.28811645507812 313.96124267578125 C 174.23507690429688 311.211669921875 168.5020294189453 302.67431640625 165.96347045898438 293.5281982421875 C 168.5786590576172 283.8757629394531 175.8760528564453 276.57904052734375 185.90382385253906 273.90008544921875 C 195.9042205810547 274.7651062011719 203.246337890625 282.09130859375 205.8701629638672 292.0872802734375" stroke-width="0.0" fill="rgb(2, 4, 5)" opacity="0.9900057"/>
    <path d="M 564.6024169921875 161.87733459472656 C 561.8134765625 172.4910888671875 554.523681640625 179.91061401367188 544.4474487304688 182.6236572265625 C 533.9454345703125 179.42393493652344 526.6663208007812 172.0272674560547 523.9990234375 162.00204467773438 C 526.6795043945312 152.00003051757812 534.0003051757812 144.6804962158203 544.34716796875 141.4578857421875 C 554.3977661132812 144.24546813964844 561.8313598632812 151.5723876953125 564.6024169921875 161.87733459472656" stroke-width="0.0" fill="rgb(206, 207, 210)" opacity="0.99192417"/>
    <path d="M 140.09336853027344 177.8917236328125 C 137.3205108642578 188.0 130.0 195.3205108642578 120.0 198.0 C 110.0 195.3205108642578 102.67948913574219 188.0 99.88357543945312 177.94976806640625 C 102.62915802001953 167.97906494140625 109.9928207397461 160.6765594482422 120.26736450195312 157.66761779785156 C 130.3951416015625 160.22129821777344 137.6212921142578 167.6538848876953 140.09336853027344 177.8917236328125" stroke-width="0.0" fill="rgb(205, 205, 208)" opacity="0.9968006"/>
    <path d="M 33.31283950805664 50.77872848510742 C 30.32817268371582 61.020626068115234 23.074071884155273 68.50003051757812 12.802507400512695 71.67652893066406 C 2.7055296897888184 68.73008728027344 -4.495167255401611 61.21799087524414 -7.131219863891602 50.94401168823242 C -4.602997779846191 40.68404769897461 2.6406731605529785 33.257598876953125 13.000528335571289 30.53490447998047 C 23.404537200927734 33.22015380859375 30.71015167236328 40.61920928955078 33.31283950805664 50.77872848510742" stroke-width="0.0" fill="rgb(207, 207, 210)" opacity="0.99147135"/>
    <path d="M 576.67529296875 514.84423828125 C 573.8563842773438 525.5009765625 566.5018310546875 532.861572265625 556.3935546875 535.5835571289062 C 545.9995727539062 532.3219604492188 538.6795043945312 525.0 536.0 514.9999389648438 C 538.678955078125 504.9986572265625 545.9976196289062 497.67547607421875 556.2981567382812 494.5880126953125 C 566.4472045898438 497.2152404785156 573.856689453125 504.5286865234375 576.67529296875 514.84423828125" stroke-width="0.0" fill="rgb(206, 206, 209)" opacity="0.99167365"/>
    <path d="M 133.31361389160156 149.8651885986328 C 130.45445251464844 160.07537841796875 123.04206085205078 167.34498596191406 113.00502014160156 170.00323486328125 C 103.0 167.3205108642578 95.67948913574219 160.0 92.66442108154297 149.72653198242188 C 95.19096374511719 139.52210998535156 102.49763488769531 132.116943359375 112.84880065917969 129.29200744628906 C 123.51384735107422 132.11151123046875 130.77020263671875 139.52362060546875 133.31361389160156 149.8651885986328" stroke-width="0.0" fill="rgb(206, 207, 210)" opacity="0.9921676"/>
    <path d="M 583.2357788085938 446.2191467285156 C 580.7657470703125 456.4427795410156 573.45263671875 463.7980041503906 562.5731201171875 466.7196350097656 C 552.4166259765625 463.9851989746094 545.1038818359375 456.548583984375 542.3082275390625 446.2511291503906 C 545.1805419921875 435.5435485839844 552.5697021484375 428.2650146484375 562.814208984375 425.8161315917969 C 573.0 428.67950439453125 580.3204956054688 436.0 583.2357788085938 446.2191467285156" stroke-width="0.0" fill="rgb(207, 207, 210)" opacity="0.9913213"/>
    <path d="M 255.83145141601562 224.9934844970703 C 253.17344665527344 235.8514862060547 245.8674774169922 243.21678161621094 235.5117645263672 245.9470977783203 C 224.17674255371094 243.19369506835938 216.9452362060547 235.77557373046875 214.91058349609375 225.58349609375 C 218.35000610351562 215.7064208984375 225.75755310058594 208.49781799316406 235.7974395751953 205.89642333984375 C 245.86056518554688 206.82147216796875 253.1818389892578 214.13893127441406 255.83145141601562 224.9934844970703" stroke-width="0.0" fill="rgb(39, 50, 64)" opacity="0.990025"/>
    <path d="M 142.0011444091797 77.99763488769531 C 139.3205108642578 88.0 132.0 95.32051086425781 121.7973861694336 98.22838592529297 C 111.59890747070312 95.7314224243164 104.255615234375 88.40502166748047 101.82279205322266 78.2258529663086 C 104.70317077636719 68.01016998291016 111.99864959716797 60.662506103515625 122.00244140625 57.776153564453125 C 132.05824279785156 60.57087707519531 139.33529663085938 67.97019958496094 142.0011444091797 77.99763488769531" stroke-width="0.0" fill="rgb(206, 206, 210)" opacity="0.99230546"/>
    <path d="M 134.0 196.0 C 131.3205108642578 206.0 124.0 213.3205108642578 113.68346405029297 216.4922637939453 C 103.60785675048828 213.7515869140625 96.2431869506836 206.39492797851562 93.69196319580078 196.2457733154297 C 96.67948913574219 186.0 104.0 178.6794891357422 114.0 176.0 C 124.0 178.6794891357422 131.3205108642578 186.0 134.0 196.0" stroke-width="0.0" fill="rgb(206, 206, 209)" opacity="0.9933044"/>
    <path d="M 100.56885528564453 227.17086791992188 C 97.90757751464844 237.54159545898438 90.52400207519531 244.8562774658203 80.0609359741211 247.5600128173828 C 69.48640441894531 244.8511199951172 62.103759765625 237.5282440185547 59.3248291015625 227.34832763671875 C 62.43516540527344 216.8418426513672 69.89653015136719 209.61021423339844 80.2987060546875 206.6461181640625 C 90.52034759521484 209.13990783691406 97.84059143066406 216.48570251464844 100.56885528564453 227.17086791992188" stroke-width="0.0" fill="rgb(206, 207, 209)" opacity="0.99080104"/>
    <path d="M 535.5119018554688 44.252777099609375 C 532.837646484375 54.47610092163086 525.4751586914062 61.837310791015625 515.06494140625 64.65339660644531 C 504.52838134765625 61.82915115356445 497.22637939453125 54.454437255859375 494.7513122558594 44.20140838623047 C 497.5526428222656 33.82046127319336 504.7575988769531 26.352670669555664 514.8095092773438 23.732440948486328 C 525.0381469726562 26.660804748535156 532.47314453125 33.92068099975586 535.5119018554688 44.252777099609375" stroke-width="0.0" fill="rgb(206, 206, 209)" opacity="0.9913564"/>
    <path d="M 118.86075592041016 591.1300659179688 C 116.08539581298828 601.646484375 108.5158462524414 608.7100830078125 98.10936737060547 611.0806884765625 C 87.8945541381836 608.3760986328125 80.30792999267578 601.2125854492188 77.341064453125 591.0927124023438 C 80.17085266113281 580.5087890625 87.49453735351562 573.1287841796875 98.00115203857422 570.3560791015625 C 108.47762298583984 573.1958618164062 116.01329803466797 580.436279296875 118.86075592041016 591.1300659179688" stroke-width="0.0" fill="rgb(202, 203, 206)" opacity="1.0"/>
    <path d="M 231.0699920654297 40.08885955810547 C 228.59439086914062 50.33761978149414 221.40745544433594 57.81443786621094 211.320068359375 60.420230865478516 C 201.0 57.320526123046875 193.6794891357422 50.0 190.990234375 39.9869270324707 C 193.62973022460938 29.932979583740234 200.91177368164062 22.559776306152344 210.94126892089844 19.9178409576416 C 221.0 22.67949104309082 228.3205108642578 30.0 231.0699920654297 40.08885955810547" stroke-width="0.0" fill="rgb(205, 205, 208)" opacity="0.9937529"/>
    <path d="M 72.53564453125 510.7923278808594 C 69.58833312988281 521.1663818359375 62.1022834777832 528.38623046875 51.806884765625 531.26806640625 C 41.583526611328125 528.7197875976562 34.13846206665039 521.4639892578125 31.3961181640625 511.2306213378906 C 34.21140670776367 500.5481872558594 41.529842376708984 493.1537780761719 51.811439514160156 490.3589172363281 C 62.5356559753418 493.1424865722656 69.90608215332031 500.4486083984375 72.53564453125 510.7923278808594" stroke-width="0.0" fill="rgb(206, 207, 210)" opacity="0.99109924"/>
    <path d="M 76.0 184.99998474121094 C 73.32035827636719 194.99952697753906 65.99703216552734 202.3113250732422 55.709163665771484 205.36756896972656 C 45.578426361083984 202.77281188964844 38.176700592041016 195.43873596191406 35.398075103759766 185.302001953125 C 38.53755187988281 174.93060302734375 45.969486236572266 167.66494750976562 55.997802734375 164.9989471435547 C 66.0 167.6794891357422 73.32051086425781 175.0 76.0 184.99998474121094" stroke-width="0.0" fill="rgb(205, 206, 208)" opacity="0.9923981"/>
    <path d="M 262.5871887207031 120.60037994384766 C 259.32049560546875 131.0 252.0 138.3205108642578 241.94064331054688 141.05508422851562 C 231.80470275878906 138.49359130859375 224.39828491210938 131.22848510742188 221.45260620117188 120.72042083740234 C 224.15969848632812 110.51729583740234 231.5205078125 103.17089080810547 241.70753479003906 100.57928466796875 C 252.23670959472656 103.51570129394531 259.8024597167969 110.65641784667969 262.5871887207031 120.60037994384766" stroke-width="0.0" fill="rgb(206, 206, 209)" opacity="0.99174917"/>
    <path d="M 320.7220764160156 181.58969116210938 C 318.10882568359375 191.75872802734375 310.757568359375 199.1077117919922 300.6343688964844 201.7975311279297 C 289.9577331542969 198.52452087402344 282.7028503417969 190.9698944091797 280.0013427734375 180.99496459960938 C 282.67950439453125 171.0 290.0 163.6794891357422 300.00201416015625 160.9990234375 C 310.0267639160156 163.66650390625 317.4439392089844 170.93983459472656 320.7220764160156 181.58969116210938" stroke-width="0.0" fill="rgb(203, 204, 207)" opacity="1.0"/>
    <path d="M 294.29364013671875 184.31858825683594 C 291.9444885253906 194.67672729492188 284.73577880859375 202.12086486816406 273.7445373535156 204.77627563476562 C 263.2865295410156 202.11717224121094 256.1338806152344 194.62863159179688 253.80770874023438 184.23301696777344 C 256.6795349121094 174.0001220703125 264.00164794921875 166.6851348876953 274.1197814941406 163.90963745117188 C 284.06475830078125 166.54928588867188 291.3341979980469 173.97067260742188 294.29364013671875 184.31858825683594" stroke-width="0.0" fill="rgb(204, 204, 207)" opacity="1.0"/>
    <path d="M 122.01874542236328 550.0294189453125 C 119.44681549072266 560.1932983398438 112.29756927490234 567.758544921875 101.81353759765625 570.7271728515625 C 91.41549682617188 567.9539184570312 84.1031494140625 560.5650024414062 81.4032211303711 550.1968994140625 C 84.47686004638672 539.9091186523438 91.96870422363281 532.6661376953125 101.99830627441406 529.9992065429688 C 112.0 532.6795043945312 119.32051086425781 540.0 122.01874542236328 550.0294189453125" stroke-width="0.0" fill="rgb(206, 206, 209)" opacity="0.9907688"/>
    <path d="M 115.29065704345703 528.7494506835938 C 112.32051086425781 539.0 105.0000228881836 546.320556640625 94.98384094238281 549.019775390625 C 84.96646881103516 546.3606567382812 77.65560913085938 539.0286254882812 74.76122283935547 528.8446655273438 C 77.38624572753906 518.7293701171875 84.71949005126953 511.3543701171875 95.09349822998047 508.52349853515625 C 105.46170043945312 511.1993408203125 112.79181671142578 518.541015625 115.29065704345703 528.7494506835938" stroke-width="0.0" fill="rgb(207, 207, 210)" opacity="0.9912252"/>
    <path d="M 289.7785949707031 222.09646606445312 C 285.4679260253906 232.1732940673828 278.1681823730469 239.4557342529297 268.7206115722656 242.058349609375 C 259.7460021972656 239.48556518554688 252.1190643310547 232.3718719482422 248.20028686523438 222.2594757080078 C 250.78880310058594 212.1089630126953 258.0941162109375 204.7499237060547 268.5376892089844 202.03379821777344 C 279.9040222167969 204.75454711914062 287.2359619140625 212.1002197265625 289.7785949707031 222.09646606445312" stroke-width="0.0" fill="rgb(69, 87, 112)" opacity="0.9900177"/>
    <path d="M 527.0007934570312 179.0016326904297 C 524.3309326171875 189.02122497558594 517.0407104492188 196.395751953125 506.7103576660156 199.4134979248047 C 496.5450134277344 196.81504821777344 489.2305603027344 189.43997192382812 486.5249328613281 179.16700744628906 C 489.5107116699219 168.91043090820312 496.9559020996094 161.6576690673828 506.9965515136719 158.99839782714844 C 517.0 161.6794891357422 524.3204956054688 169.0 527.0007934570312 179.0016326904297" stroke-width="0.0" fill="rgb(207, 207, 210)" opacity="0.99170744"/>
    <path d="M 356.69293212890625 114.8062973022461 C 354.1635437011719 125.05833435058594 347.17108154296875 132.5580291748047 337.0452880859375 135.40052795410156 C 326.890869140625 132.5172576904297 319.65240478515625 125.05603790283203 316.9457092285156 114.93986511230469 C 319.48162841796875 104.7626953125 326.7144775390625 97.32627868652344 337.0545654296875 94.40271759033203 C 347.0848083496094 97.49907684326172 354.3160705566406 104.96842193603516 356.69293212890625 114.8062973022461" stroke-width="0.0" fill="rgb(208, 209, 211)" opacity="0.99009496"/>
    <path d="M 75.42317962646484 352.9001159667969 C 72.7462387084961 363.4591064453125 65.50285339355469 370.8846740722656 55.10026550292969 373.63653564453125 C 44.495086669921875 370.8340759277344 37.066932678222656 363.53973388671875 34.362693786621094 353.469970703125 C 37.465633392333984 342.7956237792969 44.770931243896484 335.3871765136719 55.31896209716797 332.35296630859375 C 65.4154281616211 335.18670654296875 72.75213623046875 342.6054382324219 75.42317962646484 352.9001159667969" stroke-width="0.0" fill="rgb(207, 207, 210)" opacity="0.99084973"/>
    <path d="M 291.53765869140625 56.094852447509766 C 288.8623046875 66.5135498046875 281.5047912597656 73.83557891845703 271.20904541015625 76.41456604003906 C 260.59722900390625 73.70195770263672 253.19947814941406 66.43315887451172 250.6343231201172 56.28661346435547 C 253.6794891357422 46.0 261.0 38.67949295043945 271.2547607421875 35.71783447265625 C 281.4729919433594 38.194515228271484 288.80792236328125 45.52638626098633 291.53765869140625 56.094852447509766" stroke-width="0.0" fill="rgb(206, 207, 210)" opacity="0.99152"/>
    <path d="M 215.58544921875 124.69222259521484 C 212.6861572265625 135.38967895507812 205.42617797851562 142.80206298828125 194.65098571777344 145.68655395507812 C 184.45266723632812 142.9304962158203 177.1044921875 135.53402709960938 174.34848022460938 125.34412384033203 C 177.25514221191406 114.57967376708984 184.5391082763672 107.13562774658203 194.70346069335938 104.31775665283203 C 205.4190216064453 107.23613739013672 212.8142852783203 114.56463623046875 215.58544921875 124.69222259521484" stroke-width="0.0" fill="rgb(207, 204, 210)" opacity="0.99097866"/>
    <path d="M 591.0631713867188 393.12274169921875 C 588.4235229492188 403.1337890625 581.1538696289062 410.4788513183594 571.4248657226562 413.2365417480469 C 561.3489379882812 411.37078857421875 553.7861328125 404.811279296875 551.0328369140625 393.2641296386719 C 553.7366333007812 383.0696105957031 561.0709228515625 375.73974609375 571.7167358398438 373.03240966796875 C 582.9132690429688 375.7486267089844 590.2178955078125 383.09808349609375 591.0631713867188 393.12274169921875" stroke-width="0.0" fill="rgb(5, 8, 9)" opacity="0.99000674"/>
    <path d="M 552.6000366210938 347.59515380859375 C 550.141357421875 357.8360900878906 542.863037109375 365.21759033203125 531.718994140625 367.950927734375 C 521.1195068359375 365.2231140136719 513.7739868164062 357.88165283203125 511.04522705078125 347.7520751953125 C 514.0704956054688 337.3089294433594 522.6253051757812 330.4122009277344 532.6522216796875 327.83892822265625 C 541.9937744140625 329.7010498046875 549.3203735351562 337.0003356933594 552.6000366210938 347.59515380859375" stroke-width="0.0" fill="rgb(66, 87, 111)" opacity="0.990049"/>
    <path d="M 599.6388549804688 140.9451446533203 C 596.8928833007812 151.5337371826172 589.5267944335938 158.87489318847656 579.197998046875 161.63014221191406 C 568.5618896484375 158.79083251953125 561.1903076171875 151.4434356689453 558.40966796875 141.27731323242188 C 561.3551025390625 130.6982879638672 568.68798828125 123.3228530883789 579.1300659179688 120.52474975585938 C 589.5209350585938 123.1612319946289 596.9056396484375 130.45745849609375 599.6388549804688 140.9451446533203" stroke-width="0.0" fill="rgb(207, 207, 208)" opacity="0.991093"/>
    <path d="M 129.0874481201172 157.03805541992188 C 126.36043548583984 167.016845703125 119.00601959228516 174.32301330566406 108.94208526611328 177.07232666015625 C 98.84813690185547 174.46473693847656 91.40583801269531 167.19293212890625 88.4019546508789 156.78514099121094 C 91.23228454589844 146.67298889160156 98.76573181152344 139.5159149169922 108.95823669433594 136.97171020507812 C 118.99994659423828 139.67950439453125 126.32036590576172 147.00009155273438 129.0874481201172 157.03805541992188" stroke-width="0.0" fill="rgb(206, 206, 210)" opacity="0.9929364"/>
    <path d="M 143.62806701660156 551.6253051757812 C 140.8705291748047 562.6691284179688 133.7811737060547 570.1881713867188 123.7285385131836 572.9464721679688 C 113.7410888671875 568.8258056640625 106.54058074951172 561.186767578125 103.9027099609375 551.2241821289062 C 105.71383666992188 542.0098266601562 113.00035858154297 534.6796264648438 123.04963684082031 531.9712524414062 C 133.3243408203125 534.4659423828125 140.91683959960938 541.5452880859375 143.62806701660156 551.6253051757812" stroke-width="0.0" fill="rgb(26, 30, 43)" opacity="0.9900673"/>
    <path d="M 145.60748291015625 182.08372497558594 C 142.874267578125 192.4724884033203 135.40707397460938 199.6690673828125 125.12752532958984 202.1077423095703 C 115.0 199.3205108642578 107.67948913574219 192.0 105.0 182.0 C 107.67948913574219 172.0 115.0 164.6794891357422 125.17078399658203 161.8244171142578 C 135.41366577148438 164.29029846191406 142.84039306640625 171.54440307617188 145.60748291015625 182.08372497558594" stroke-width="0.0" fill="rgb(206, 206, 209)" opacity="0.9928322"/>
    <path d="M 119.9389419555664 51.98896789550781 C 117.27235412597656 61.97615432739258 110.00297546386719 69.36398315429688 99.87952423095703 72.42374420166016 C 89.82481384277344 69.60388946533203 82.6158218383789 62.10453796386719 79.46246337890625 51.73125457763672 C 82.40065002441406 41.860816955566406 89.94377899169922 34.65385055541992 99.9977035522461 31.997724533081055 C 110.01415252685547 34.67208480834961 117.35518646240234 41.97748565673828 119.9389419555664 51.98896789550781" stroke-width="0.0" fill="rgb(206, 206, 209)" opacity="0.9919599"/>
    <path d="M 532.9200439453125 495.88525390625 C 529.95703125 505.53302001953125 522.4263305664062 512.6365356445312 512.1455078125 516.9017333984375 C 502.537109375 514.150634765625 496.5158386230469 505.3291320800781 493.9457092285156 495.54962158203125 C 496.4595031738281 486.6423034667969 503.479736328125 479.01959228515625 513.090087890625 476.0549011230469 C 523.0 478.67950439453125 530.3204956054688 486.0 532.9200439453125 495.88525390625" stroke-width="0.0" fill="rgb(137, 82, 27)" opacity="0.99002266"/>
    <path d="M 497.1213684082031 220.80172729492188 C 495.3135070800781 229.97817993164062 487.8498840332031 236.95655822753906 478.8533020019531 239.04225158691406 C 468.9186706542969 236.3892364501953 461.6144714355469 229.0797882080078 458.9720764160156 219.66041564941406 C 461.61297607421875 210.91650390625 468.9115905761719 203.6008758544922 478.6213684082031 200.95550537109375 C 487.1441650390625 203.55857849121094 494.43634033203125 210.85804748535156 497.1213684082031 220.80172729492188" stroke-width="0.0" fill="rgb(14, 16, 20)" opacity="0.9900031"/>
    <path d="M 593.39794921875 97.30760955810547 C 590.8524169921875 107.5060806274414 583.5191040039062 114.89251708984375 573.0205078125 117.7468490600586 C 562.4523315429688 114.89649200439453 555.03564453125 107.57334899902344 552.2178344726562 97.34781646728516 C 555.3441162109375 86.82952117919922 562.93310546875 79.6494369506836 572.9959716796875 76.9981689453125 C 583.0 79.67948913574219 590.3214721679688 86.99972534179688 593.39794921875 97.30760955810547" stroke-width="0.0" fill="rgb(206, 207, 210)" opacity="0.9917328"/>
    <path d="M 219.01126098632812 46.014835357666016 C 216.3796844482422 56.08661651611328 209.1508026123047 63.581809997558594 199.1303253173828 66.5420150756836 C 188.86444091796875 63.532718658447266 181.61920166015625 56.08845520019531 178.98910522460938 46.01488494873047 C 181.67965698242188 36.00068283081055 189.0059051513672 28.698514938354492 199.04031372070312 26.116050720214844 C 209.00001525878906 28.67947006225586 216.3205108642578 35.999996185302734 219.01126098632812 46.014835357666016" stroke-width="0.0" fill="rgb(205, 206, 209)" opacity="0.9928678"/>
    <path d="M 595.6259155273438 91.2029800415039 C 592.630615234375 101.1546859741211 585.0599975585938 108.34749603271484 575.0037231445312 111.00184631347656 C 565.0000610351562 108.32041931152344 557.67822265625 101.00027465820312 554.5106811523438 90.63430786132812 C 557.1026000976562 80.45044708251953 564.4449462890625 73.08712005615234 574.7848510742188 70.39787292480469 C 585.3564453125 73.2706527709961 592.6677856445312 80.66336059570312 595.6259155273438 91.2029800415039" stroke-width="0.0" fill="rgb(206, 207, 210)" opacity="0.9915807"/>
    <path d="M 347.04388427734375 9.053461074829102 C 344.4928283691406 19.21123695373535 337.26007080078125 26.649991989135742 326.6491394042969 29.65598487854004 C 316.41741943359375 26.926387786865234 309.0260925292969 19.599655151367188 306.3114318847656 9.492316246032715 C 309.5624694824219 -1.0718839168548584 316.9555969238281 -8.347098350524902 326.9945373535156 -11.003214836120605 C 337.0 -8.320508003234863 344.32049560546875 -1.0 347.04388427734375 9.053461074829102" stroke-width="0.0" fill="rgb(206, 206, 209)" opacity="0.99168825"/>
    <path d="M 112.44790649414062 472.3209533691406 C 109.79370880126953 482.390380859375 102.33550262451172 489.62384033203125 91.88980102539062 492.34588623046875 C 81.8224105834961 489.5910949707031 74.60237121582031 482.1165771484375 71.9878921508789 472.0181884765625 C 74.67948913574219 462.0 82.0 454.67950439453125 92.0 452.0 C 102.0 454.67950439453125 109.32051086425781 462.0 112.44790649414062 472.3209533691406" stroke-width="0.0" fill="rgb(206, 207, 210)" opacity="0.9922161"/>
    <path d="M 571.9434204101562 335.4878234863281 C 569.218017578125 345.8715515136719 561.8575439453125 353.1794128417969 551.68994140625 355.7265625 C 541.0 352.32049560546875 533.6795043945312 345.0 531.0039672851562 335.005615234375 C 533.7064819335938 325.0469665527344 541.1015625 317.8811950683594 550.9713745117188 315.7650451660156 C 561.6851196289062 317.1515808105469 569.1741943359375 324.22015380859375 571.9434204101562 335.4878234863281" stroke-width="0.0" fill="rgb(77, 101, 130)" opacity="0.9902913"/>
    <path d="M 571.5680541992188 581.8345947265625 C 568.689208984375 592.321044921875 561.3018798828125 599.6283569335938 551.1443481445312 602.17578125 C 541.0 599.3204956054688 533.6795043945312 592.0 531.0 582.0 C 533.6795043945312 572.0 541.0 564.6795043945312 551.16796875 561.8375854492188 C 561.410400390625 564.2894897460938 568.811767578125 571.5582275390625 571.5680541992188 581.8345947265625" stroke-width="0.0" fill="rgb(206, 207, 210)" opacity="0.9919089"/>
    <path d="M 159.0001983642578 6.000011444091797 C 156.320556640625 16.000024795532227 149.00001525878906 23.320514678955078 139.0 26.0 C 129.0 23.32050895690918 121.67948913574219 16.0 119.0 6.0 C 121.67948913574219 -4.0 129.0 -11.320508003234863 139.0 -14.0 C 149.0 -11.320510864257812 156.32054138183594 -4.000015735626221 159.0001983642578 6.000011444091797" stroke-width="0.0" fill="rgb(205, 205, 207)" opacity="1.0"/>
    <path d="M 540.9519653320312 398.9053649902344 C 538.2584228515625 408.91766357421875 530.9031982421875 416.2185363769531 519.4625854492188 418.89715576171875 C 509.0923156738281 416.23345947265625 501.74713134765625 408.9150390625 499.0412902832031 398.83404541015625 C 503.1634826660156 388.8236083984375 510.88775634765625 381.60357666015625 519.5667114257812 378.9743347167969 C 529.0928344726562 381.6104736328125 536.4525756835938 388.8865661621094 540.9519653320312 398.9053649902344" stroke-width="0.0" fill="rgb(6, 6, 11)" opacity="0.99000895"/>
    <path d="M 60.568702697753906 256.33636474609375 C 57.90931701660156 266.51885986328125 50.46736526489258 273.7489929199219 40.18411636352539 276.1739196777344 C 30.0 273.32049560546875 22.67949104309082 266.0 19.653226852416992 255.72439575195312 C 22.198976516723633 245.54180908203125 29.53997230529785 238.1934356689453 40.283470153808594 235.28919982910156 C 50.4559440612793 238.120849609375 57.70075607299805 245.60641479492188 60.568702697753906 256.33636474609375" stroke-width="0.0" fill="rgb(206, 206, 209)" opacity="0.9914745"/>
    <path d="M 147.70547485351562 369.43865966796875 C 144.9438934326172 379.5293884277344 137.48394775390625 386.81939697265625 126.81330871582031 389.6382141113281 C 116.43022918701172 386.9206848144531 109.0703125 379.57281494140625 106.29602813720703 368.9590148925781 C 109.10438537597656 358.45880126953125 116.45745849609375 351.1026916503906 126.95211029052734 348.3830261230469 C 137.5189208984375 351.11761474609375 144.82925415039062 358.498779296875 147.70547485351562 369.43865966796875" stroke-width="0.0" fill="rgb(207, 207, 211)" opacity="0.9909775"/>
    <path d="M 241.33056640625 10.866082191467285 C 238.486572265625 21.144962310791016 231.12841796875 28.431987762451172 221.03521728515625 31.029943466186523 C 211.00071716308594 28.31996726989746 203.68069458007812 20.99908447265625 201.00067138671875 10.999485969543457 C 203.6794891357422 1.0 211.0 -6.320508003234863 221.02069091796875 -9.014522552490234 C 231.12718200683594 -6.405773162841797 238.6094512939453 0.8082267045974731 241.33056640625 10.866082191467285" stroke-width="0.0" fill="rgb(206, 205, 208)" opacity="0.99422276"/>
    <path d="M 506.24615478515625 35.809478759765625 C 503.4851379394531 46.235836029052734 496.3400573730469 53.79658508300781 486.2405090332031 56.669189453125 C 475.7265625 53.71193313598633 468.6427917480469 46.16294479370117 465.4977111816406 36.109375 C 468.5033264160156 25.78443717956543 475.711669921875 18.275548934936523 486.0424499511719 15.272692680358887 C 496.4698791503906 18.164846420288086 503.7698669433594 25.55010223388672 506.24615478515625 35.809478759765625" stroke-width="0.0" fill="rgb(207, 207, 210)" opacity="0.99070054"/>
    <path d="M 526.3626708984375 471.4928283691406 C 524.3204956054688 481.0 517.0 488.32049560546875 506.9981384277344 490.8628845214844 C 497.3359069824219 488.28985595703125 490.3516845703125 480.473876953125 487.83343505859375 471.3036804199219 C 490.37957763671875 461.6470642089844 497.6407165527344 454.3612365722656 506.6517333984375 451.8647766113281 C 516.3604736328125 454.395751953125 523.6702880859375 461.61273193359375 526.3626708984375 471.4928283691406" stroke-width="0.0" fill="rgb(160, 100, 48)" opacity="0.99001247"/>
    <path d="M 602.4031982421875 39.06780242919922 C 599.7742919921875 49.44466781616211 592.4678955078125 56.84696578979492 582.0022583007812 59.733299255371094 C 571.5574951171875 56.82380676269531 564.2066040039062 49.43293762207031 561.6082763671875 39.27678680419922 C 564.5572509765625 28.87203025817871 571.846923828125 21.475229263305664 582.1876220703125 18.522653579711914 C 592.3724365234375 21.257543563842773 599.6947631835938 28.64261245727539 602.4031982421875 39.06780242919922" stroke-width="0.0" fill="rgb(207, 207, 209)" opacity="0.9910197"/>
    <path d="M 333.5050048828125 151.06326293945312 C 330.7518310546875 161.36563110351562 323.3333740234375 168.65399169921875 313.161865234375 171.20391845703125 C 303.0 168.3205108642578 295.67950439453125 161.0 292.4876403808594 150.662841796875 C 295.2254638671875 140.59368896484375 302.59356689453125 133.22975158691406 312.8813781738281 130.5933837890625 C 323.38177490234375 133.2996063232422 330.7497863769531 140.6031951904297 333.5050048828125 151.06326293945312" stroke-width="0.0" fill="rgb(207, 207, 210)" opacity="0.9914663"/>
    <path d="M 374.5120849609375 12.120468139648438 C 371.58441162109375 22.256616592407227 364.2334289550781 29.494598388671875 353.591064453125 32.582481384277344 C 343.6029357910156 29.80355453491211 336.3388366699219 22.350934982299805 333.84649658203125 12.147586822509766 C 336.6796875 2.000105619430542 344.00006103515625 -5.320458889007568 354.0441589355469 -8.038164138793945 C 364.15625 -5.457271575927734 371.5304870605469 1.8216843605041504 374.5120849609375 12.120468139648438" stroke-width="0.0" fill="rgb(206, 206, 209)" opacity="0.9900904"/>
    <path d="M 204.04556274414062 40.94611358642578 C 201.32701110839844 51.01750564575195 194.06358337402344 58.47726821899414 184.05718994140625 61.46036148071289 C 173.62098693847656 58.70730972290039 166.26048278808594 51.3890266418457 163.7786865234375 41.215396881103516 C 166.66441345214844 30.992265701293945 173.99623107910156 23.677825927734375 184.12649536132812 20.8483943939209 C 194.2288360595703 23.413047790527344 201.49038696289062 30.80061149597168 204.04556274414062 40.94611358642578" stroke-width="0.0" fill="rgb(205, 206, 209)" opacity="0.9923341"/>
    <path d="M 529.2097778320312 134.803466796875 C 526.3204956054688 145.0 519.0 152.3205108642578 509.0 155.0 C 499.0 152.3205108642578 491.67950439453125 145.0 488.9992370605469 134.99838256835938 C 491.6687927246094 124.97747039794922 498.9472351074219 117.56816864013672 509.2981262207031 114.4290542602539 C 519.4771728515625 117.13990020751953 526.7422485351562 124.5609130859375 529.2097778320312 134.803466796875" stroke-width="0.0" fill="rgb(206, 207, 210)" opacity="0.9928683"/>
    <path d="M 171.09555053710938 563.119140625 C 168.39321899414062 573.087158203125 161.08697509765625 580.3927612304688 151.12423706054688 583.0419311523438 C 141.13241577148438 582.1625366210938 133.77029418945312 574.887451171875 131.11622619628906 564.8273315429688 C 134.6742706298828 553.9945068359375 141.9945831298828 546.6743774414062 151.9987030029297 543.998291015625 C 162.01841735839844 546.6734619140625 169.58163452148438 553.8975219726562 171.09555053710938 563.119140625" stroke-width="0.0" fill="rgb(11, 15, 24)" opacity="0.9900067"/>
    <path d="M 140.94361877441406 543.10546875 C 137.22579956054688 553.92529296875 129.9296112060547 561.2399291992188 119.66641998291016 564.402099609375 C 109.7619400024414 561.7592163085938 103.29161834716797 553.73193359375 100.93379211425781 544.6809692382812 C 103.54776000976562 534.8404541015625 110.84011840820312 527.5469970703125 120.91693878173828 523.3186645507812 C 130.91476440429688 525.7509765625 138.25531005859375 533.0824584960938 140.94361877441406 543.10546875" stroke-width="0.0" fill="rgb(43, 48, 53)" opacity="0.99002457"/>
    <path d="M 543.6446533203125 431.6280517578125 C 540.7614135742188 442.4549865722656 533.4892578125 449.8669738769531 522.7827758789062 452.6930847167969 C 512.4943237304688 449.90118408203125 505.20977783203125 442.4677429199219 502.546875 431.8912658691406 C 505.11724853515625 421.5191650390625 513.0230102539062 415.34967041015625 523.6996459960938 412.9281005859375 C 533.631591796875 414.0754699707031 540.9779052734375 421.3566589355469 543.6446533203125 431.6280517578125" stroke-width="0.0" fill="rgb(204, 203, 205)" opacity="0.99013245"/>
    <path d="M 169.57015991210938 146.1713104248047 C 166.81190490722656 156.42642211914062 159.40452575683594 163.74777221679688 148.76510620117188 166.59030151367188 C 138.47393798828125 163.90921020507812 131.22927856445312 156.48158264160156 128.6071319580078 145.94337463378906 C 131.22897338867188 135.56936645507812 138.5553436279297 128.1856231689453 148.80963134765625 125.46310424804688 C 159.34817504882812 128.28541564941406 166.6981201171875 135.65771484375 169.57015991210938 146.1713104248047" stroke-width="0.0" fill="rgb(207, 207, 210)" opacity="0.9908671"/>
    <path d="M 144.62203979492188 78.61890411376953 C 141.47406005859375 89.08743286132812 134.04844665527344 96.3471450805664 123.8784408569336 99.22079467773438 C 113.89482116699219 96.50094604492188 106.64632415771484 89.05956268310547 103.99657440185547 79.00623321533203 C 106.67948913574219 69.0 114.0 61.67949676513672 124.28414154052734 58.644386291503906 C 134.4674835205078 61.18873977661133 141.8624267578125 68.515869140625 144.62203979492188 78.61890411376953" stroke-width="0.0" fill="rgb(206, 207, 207)" opacity="0.99266136"/>
    <path d="M 277.6756286621094 18.576189041137695 C 274.5040588378906 29.109575271606445 267.06463623046875 36.35877227783203 256.98828125 39.02018737792969 C 246.90463256835938 36.391578674316406 239.48667907714844 29.13271713256836 236.7235107421875 18.967782974243164 C 239.3488006591797 8.654159545898438 246.62493896484375 1.2550833225250244 256.96539306640625 -1.4691112041473389 C 267.4363098144531 1.2612411975860596 274.91204833984375 8.503239631652832 277.6756286621094 18.576189041137695" stroke-width="0.0" fill="rgb(204, 206, 209)" opacity="0.9917551"/>
    <path d="M 43.11656188964844 141.1227569580078 C 40.63644790649414 151.35049438476562 33.41809844970703 158.84103393554688 23.30344009399414 161.67398071289062 C 12.513676643371582 158.80221557617188 5.1322808265686035 151.5074462890625 2.4365272521972656 141.10560607910156 C 5.234982490539551 130.6024932861328 12.629999160766602 123.32412719726562 22.848875045776367 120.85029602050781 C 33.0 123.67948913574219 40.32050704956055 131.0 43.11656188964844 141.1227569580078" stroke-width="0.0" fill="rgb(206, 206, 209)" opacity="0.99159265"/>
    <path d="M 601.4047241210938 246.68438720703125 C 598.3204956054688 257.0 591.0 264.32049560546875 580.8143920898438 267.1938171386719 C 570.5992431640625 264.72076416015625 563.2314453125 257.4151611328125 560.3735961914062 246.81454467773438 C 563.1536254882812 236.52816772460938 570.5498657226562 229.22024536132812 581.0244750976562 226.53016662597656 C 591.4320068359375 229.2347869873047 598.8270874023438 236.54705810546875 601.4047241210938 246.68438720703125" stroke-width="0.0" fill="rgb(204, 207, 210)" opacity="0.9919181"/>
    <path d="M 561.0 588.0 C 558.3204956054688 598.0 551.0 605.3204956054688 540.9825439453125 608.01318359375 C 530.9021606445312 605.388916015625 523.460205078125 598.1446533203125 520.7234497070312 588.15234375 C 523.6871948242188 578.002685546875 531.0006103515625 570.6796875 541.0 567.9999389648438 C 551.0 570.6795043945312 558.3204956054688 578.0 561.0 588.0" stroke-width="0.0" fill="rgb(206, 206, 209)" opacity="0.9939295"/>
    <path d="M 547.7151489257812 20.393325805664062 C 544.8897094726562 30.436542510986328 537.335205078125 37.59954833984375 527.1026000976562 40.11090087890625 C 516.9719848632812 37.33375549316406 509.5601806640625 30.060157775878906 506.4979248046875 19.716354370117188 C 509.1912536621094 9.562586784362793 516.5830078125 2.252549409866333 527.0481567382812 -0.5453112721443176 C 537.3374633789062 2.278900146484375 544.6846313476562 9.674835205078125 547.7151489257812 20.393325805664062" stroke-width="0.0" fill="rgb(207, 204, 207)" opacity="0.9912491"/>
    <path d="M 91.44107055664062 19.85662269592285 C 88.49669647216797 30.169658660888672 81.24029541015625 37.698455810546875 70.78646850585938 40.75375747680664 C 60.477596282958984 37.90500259399414 53.12001419067383 30.512880325317383 50.30432891845703 20.236753463745117 C 53.189369201660156 9.550711631774902 60.562374114990234 2.225486993789673 70.947021484375 -0.4823056757450104 C 81.40181732177734 2.2654318809509277 88.76329803466797 9.588872909545898 91.44107055664062 19.85662269592285" stroke-width="0.0" fill="rgb(207, 207, 210)" opacity="0.99088687"/>
    <path d="M 22.57935905456543 197.17042541503906 C 19.8920955657959 207.54017639160156 12.531529426574707 214.8651885986328 2.2930893898010254 217.39613342285156 C -8.005831718444824 214.33807373046875 -15.32085132598877 207.00103759765625 -18.000001907348633 197.00003051757812 C -15.320225715637207 187.0008544921875 -7.994883060455322 179.69509887695312 2.286839246749878 176.70956420898438 C 12.455327033996582 179.2060546875 19.8093318939209 186.53988647460938 22.57935905456543 197.17042541503906" stroke-width="0.0" fill="rgb(206, 207, 209)" opacity="0.99178827"/>
    <path d="M 94.48310089111328 196.34568786621094 C 91.81169891357422 206.3964385986328 84.3233413696289 213.5840301513672 73.74954986572266 216.3778076171875 C 63.5012321472168 213.8460235595703 56.19778060913086 206.4852294921875 53.75123977661133 196.2395782470703 C 56.67949295043945 186.0 64.0 178.6794891357422 74.0 176.0 C 84.0 178.6794891357422 91.32051086425781 186.0 94.48310089111328 196.34568786621094" stroke-width="0.0" fill="rgb(206, 206, 209)" opacity="0.9929901"/>
    <path d="M 53.24903869628906 543.1251220703125 C 50.71626663208008 553.3944091796875 43.40727233886719 560.75830078125 32.97057342529297 563.4583740234375 C 22.570049285888672 560.7700805664062 15.195693969726562 553.4415893554688 12.471695899963379 542.9574584960938 C 15.17294692993164 532.5317993164062 22.53997039794922 525.197265625 32.845703125 522.5390014648438 C 43.23780059814453 525.3953247070312 50.522579193115234 532.787353515625 53.24903869628906 543.1251220703125" stroke-width="0.0" fill="rgb(207, 207, 210)" opacity="0.99109894"/>
    <path d="M 46.61869812011719 138.2945098876953 C 43.848506927490234 148.4290008544922 36.35894775390625 155.6353759765625 26.118791580200195 158.11041259765625 C 16.0 155.3205108642578 8.679491996765137 148.0 5.842376232147217 137.84066772460938 C 8.307962417602539 127.61046600341797 15.580079078674316 120.21009826660156 26.1163330078125 117.40554809570312 C 36.4794807434082 120.13681030273438 43.77186584472656 127.55133056640625 46.61869812011719 138.2945098876953" stroke-width="0.0" fill="rgb(206, 206, 209)" opacity="0.9917917"/>
    <path d="M 601.2492065429688 277.2225341796875 C 598.7608032226562 287.4304504394531 591.4371948242188 294.7827453613281 580.919921875 297.4730529785156 C 570.5139770507812 294.8085021972656 563.12158203125 287.50946044921875 560.4336547851562 277.0923156738281 C 563.1921997070312 266.5402526855469 570.5576171875 259.2491760253906 580.8030395507812 256.8047790527344 C 591.0 259.67950439453125 598.3204956054688 267.0 601.2492065429688 277.2225341796875" stroke-width="0.0" fill="rgb(207, 207, 210)" opacity="0.9915129"/>
    <path d="M 533.9995727539062 537.34130859375 C 531.6820678710938 547.2531127929688 524.1642456054688 554.392822265625 513.2944946289062 557.7390747070312 C 503.1315612792969 555.1901245117188 495.77667236328125 547.8802490234375 493.0466003417969 536.6882934570312 C 495.7742004394531 526.12158203125 503.13092041015625 518.7964477539062 513.200927734375 516.1332397460938 C 523.7987060546875 519.9115600585938 531.1419067382812 527.1849365234375 533.9995727539062 537.34130859375" stroke-width="0.0" fill="rgb(154, 133, 124)" opacity="1.0"/>
    <path d="M 539.5978393554688 178.42445373535156 C 536.8555908203125 188.4250946044922 529.3543090820312 195.653076171875 519.1798706054688 198.369384765625 C 508.9714660644531 195.3819122314453 501.67425537109375 188.01197814941406 498.99969482421875 178.0006866455078 C 501.67950439453125 168.0 509.0 160.6794891357422 519.0 158.0 C 529.0 160.6794891357422 536.3204956054688 168.0 539.5978393554688 178.42445373535156" stroke-width="0.0" fill="rgb(206, 206, 208)" opacity="0.9929447"/>
    <path d="M 140.49978637695312 283.7662658691406 C 137.48138427734375 294.0888977050781 130.04710388183594 301.34564208984375 119.61847686767578 304.489013671875 C 109.47484588623047 301.8951416015625 102.15132904052734 294.50927734375 99.56668853759766 284.2686767578125 C 102.4512710571289 273.76214599609375 109.74502563476562 266.3954162597656 120.0390396118164 263.7383728027344 C 130.37283325195312 266.3179626464844 137.77085876464844 273.599609375 140.49978637695312 283.7662658691406" stroke-width="0.0" fill="rgb(206, 207, 210)" opacity="0.9910617"/>
    <path d="M 169.03012084960938 446.6215515136719 C 166.3928680419922 456.0947570800781 159.10934448242188 463.43267822265625 149.26564025878906 466.2422790527344 C 140.0 464.32049560546875 132.6794891357422 457.0 129.63885498046875 446.5867614746094 C 131.9491729736328 436.21221923828125 139.15267944335938 428.7791748046875 149.08615112304688 426.1338195800781 C 159.09469604492188 430.5963439941406 166.3937530517578 437.90924072265625 169.03012084960938 446.6215515136719" stroke-width="0.0" fill="rgb(18, 29, 43)" opacity="0.99001265"/>
    <path d="M 180.96591186523438 547.6171264648438 C 178.2410125732422 558.8851318359375 170.84962463378906 566.138916015625 160.568115234375 568.4595336914062 C 150.03005981445312 565.2584838867188 142.68698120117188 557.9859619140625 139.0876922607422 547.1383056640625 C 141.75164794921875 537.0836181640625 149.0806121826172 529.7443237304688 159.71743774414062 527.0316162109375 C 170.9186553955078 529.74560546875 178.2537384033203 537.0816650390625 180.96591186523438 547.6171264648438" stroke-width="0.0" fill="rgb(9, 14, 22)" opacity="1.0"/>
    <path d="M 120.41777038574219 40.71040725708008 C 117.42864990234375 51.05973815917969 110.03177642822266 58.3365364074707 100.00086975097656 61.001853942871094 C 89.97600555419922 58.33194351196289 82.57948303222656 51.050662994384766 79.82514190673828 40.95664978027344 C 82.5146255493164 30.862886428833008 89.82059478759766 23.389217376708984 100.03013610839844 20.42185401916504 C 110.47325134277344 23.193382263183594 117.84734344482422 30.51335906982422 120.41777038574219 40.71040725708008" stroke-width="0.0" fill="rgb(206, 204, 207)" opacity="0.9917075"/>
    <path d="M 528.2894287109375 573.81787109375 C 525.5197143554688 584.2454833984375 518.3041381835938 591.7061157226562 507.6230773925781 594.58935546875 C 497.2591857910156 592.0504150390625 489.86236572265625 584.7711791992188 487.1225891113281 574.528076171875 C 489.9009704589844 563.2660522460938 497.2759094238281 555.9274291992188 507.5693359375 553.2654418945312 C 518.4351196289062 556.1937866210938 525.75439453125 563.5809326171875 528.2894287109375 573.81787109375" stroke-width="0.0" fill="rgb(204, 204, 207)" opacity="1.0"/>
    <path d="M 282.9997863769531 138.9996337890625 C 280.3173828125 148.99302673339844 272.9823913574219 156.28073120117188 262.875 159.08030700683594 C 252.90489196777344 156.47520446777344 245.64517211914062 149.05816650390625 242.99609375 139.00698852539062 C 245.67971801757812 129.0004119873047 253.00221252441406 121.68628692626953 262.96221923828125 119.18592071533203 C 272.9889221191406 121.71116638183594 280.3196716308594 129.0023651123047 282.9997863769531 138.9996337890625" stroke-width="0.0" fill="rgb(205, 205, 208)" opacity="0.9954036"/>
    <path d="M 62.66307067871094 452.8739013671875 C 59.585357666015625 463.1882019042969 52.22838592529297 470.687255859375 41.82738494873047 473.7328796386719 C 31.543224334716797 470.84857177734375 24.19547462463379 463.4410705566406 21.396116256713867 453.19866943359375 C 24.209611892700195 442.5457458496094 31.53973960876465 435.1898193359375 42.241546630859375 432.3274230957031 C 52.52273941040039 435.1004943847656 59.85824203491211 442.4916076660156 62.66307067871094 452.8739013671875" stroke-width="0.0" fill="rgb(207, 207, 207)" opacity="0.9911849"/>
    <path d="M 614.0029907226562 440.00177001953125 C 611.3504638671875 450.0655822753906 604.1617431640625 457.6375732421875 593.9381103515625 460.713623046875 C 583.6302490234375 457.7792053222656 576.3993530273438 450.31268310546875 573.9053344726562 440.103759765625 C 576.6795043945312 430.0 584.0 422.67950439453125 594.2398071289062 419.5514831542969 C 604.1073608398438 422.45184326171875 611.33837890625 429.9595947265625 614.0029907226562 440.00177001953125" stroke-width="0.0" fill="rgb(206, 206, 209)" opacity="0.9929157"/>
    <path d="M 57.39513397216797 69.84199523925781 C 54.68817901611328 80.37290954589844 47.38975524902344 87.74403381347656 37.07612991333008 90.43154907226562 C 26.66265296936035 87.68953704833984 19.246261596679688 80.35777282714844 16.442548751831055 70.35690307617188 C 19.677461624145508 59.99519348144531 26.989648818969727 52.658668518066406 37.34562683105469 49.63689041137695 C 47.51005172729492 52.13241195678711 54.8259391784668 59.503265380859375 57.39513397216797 69.84199523925781" stroke-width="0.0" fill="rgb(206, 206, 207)" opacity="0.9914692"/>
    <path d="M 193.28443908691406 223.99417114257812 C 190.66444396972656 234.34226989746094 183.37521362304688 241.76870727539062 172.9177703857422 244.70803833007812 C 162.54322814941406 241.83331298828125 155.2325439453125 234.4358673095703 152.34156799316406 223.64244079589844 C 155.08416748046875 213.47183227539062 162.51077270507812 206.2017364501953 173.23788452148438 203.3776397705078 C 183.43829345703125 206.16087341308594 190.689208984375 213.61033630371094 193.28443908691406 223.99417114257812" stroke-width="0.0" fill="rgb(206, 207, 211)" opacity="0.99113876"/>
    <path d="M 593.0379028320312 426.9317932128906 C 590.3204956054688 437.0 583.0 444.32049560546875 573.0000610351562 446.9999084472656 C 563.001953125 444.3197326660156 555.7039794921875 436.9913635253906 552.5474853515625 426.65447998046875 C 555.1731567382812 416.4431457519531 562.3148193359375 408.87066650390625 572.6442260742188 406.0602722167969 C 583.6361083984375 408.8952331542969 590.6185302734375 416.5480651855469 593.0379028320312 426.9317932128906" stroke-width="0.0" fill="rgb(208, 208, 210)" opacity="1.0"/>
    <path d="M 320.22210693359375 169.11166381835938 C 317.45465087890625 179.06956481933594 310.0335693359375 186.336669921875 300.0021667480469 189.00042724609375 C 289.9998779296875 186.3206329345703 282.6793212890625 179.00013732910156 279.49859619140625 168.60354614257812 C 282.09344482421875 158.47286987304688 289.5084533691406 151.20230102539062 299.7612609863281 148.73858642578125 C 310.0 151.6794891357422 317.32049560546875 159.0 320.22210693359375 169.11166381835938" stroke-width="0.0" fill="rgb(204, 207, 210)" opacity="0.9945249"/>
    <path d="M 568.2315063476562 337.27301025390625 C 565.9404296875 347.71270751953125 558.7962646484375 355.1872863769531 548.8029174804688 357.8888854980469 C 537.9915771484375 354.3292236328125 530.6334838867188 347.0185241699219 527.5460205078125 337.0278625488281 C 530.9406127929688 327.38507080078125 538.4624633789062 320.2142028808594 548.3222045898438 317.4446716308594 C 557.9725341796875 319.72698974609375 565.3162841796875 327.0147705078125 568.2315063476562 337.27301025390625" stroke-width="0.0" fill="rgb(77, 99, 127)" opacity="0.9922007"/>
    <path d="M 546.6322021484375 249.849853515625 C 543.7522583007812 260.3488464355469 536.3062744140625 267.6282653808594 525.6244506835938 270.6172790527344 C 515.3560180664062 267.9801025390625 507.95477294921875 260.6674499511719 505.2872619628906 250.58316040039062 C 508.6690673828125 239.97531127929688 515.9461669921875 232.5727996826172 526.2349243164062 229.58094787597656 C 536.40283203125 232.24337768554688 543.800048828125 239.58262634277344 546.6322021484375 249.849853515625" stroke-width="0.0" fill="rgb(203, 203, 206)" opacity="1.0"/>
    <path d="M 546.71044921875 488.50091552734375 C 543.7931518554688 499.4835205078125 536.5023803710938 506.8554992675781 525.60888671875 509.7854919433594 C 516.5250854492188 506.5746154785156 509.474365234375 498.3003234863281 506.9156188964844 488.6679382324219 C 509.4096984863281 479.6012878417969 516.3467407226562 471.2777099609375 525.5885620117188 468.1952209472656 C 536.5925903320312 471.0860595703125 544.0142822265625 478.3721008300781 546.71044921875 488.50091552734375" stroke-width="0.0" fill="rgb(207, 203, 206)" opacity="0.9900323"/>
    <path d="M 103.1205825805664 181.92337036132812 C 100.32746124267578 192.00836181640625 93.00984191894531 199.3323516845703 83.00468444824219 202.00563049316406 C 73.0 199.3205108642578 65.67948913574219 192.0 63.00300216674805 182.00296020507812 C 65.68411254882812 171.99386596679688 72.96927642822266 164.60255432128906 83.3031005859375 161.4373016357422 C 93.2001724243164 164.35733032226562 100.47626495361328 171.8556365966797 103.1205825805664 181.92337036132812" stroke-width="0.0" fill="rgb(206, 206, 209)" opacity="0.9933857"/>
    <path d="M 257.2094421386719 151.1143341064453 C 254.47702026367188 161.08834838867188 247.05914306640625 168.3844757080078 236.63916015625 171.55593872070312 C 226.5154266357422 168.86708068847656 219.15756225585938 161.47445678710938 216.34910583496094 151.23486328125 C 219.21536254882812 140.5768585205078 226.599609375 133.288818359375 236.82406616210938 130.81895446777344 C 246.99996948242188 133.67955017089844 254.3205108642578 141.00001525878906 257.2094421386719 151.1143341064453" stroke-width="0.0" fill="rgb(207, 205, 209)" opacity="0.9915748"/>
    <path d="M 47.57320022583008 329.7029724121094 C 44.512901306152344 340.1655578613281 37.223426818847656 347.6775817871094 26.812103271484375 350.7547607421875 C 16.532787322998047 347.8690185546875 9.27845287322998 340.4190368652344 6.815807819366455 330.17242431640625 C 9.632058143615723 319.9163818359375 16.850379943847656 312.4245300292969 27.14459228515625 309.46234130859375 C 37.49325180053711 312.1747131347656 44.88750076293945 319.4855651855469 47.57320022583008 329.7029724121094" stroke-width="0.0" fill="rgb(207, 207, 210)" opacity="0.99095595"/>
    <path d="M 140.0 3.0 C 137.3205108642578 13.0 130.0 20.32050895690918 119.70298767089844 23.381418228149414 C 109.5261459350586 20.818693161010742 102.16155242919922 13.480477333068848 99.57676696777344 3.3275249004364014 C 102.69392395019531 -6.994922161102295 110.00114440917969 -14.320112228393555 120.00003051757812 -16.999990463256836 C 130.0 -14.320508003234863 137.3205108642578 -7.0 140.0 3.0" stroke-width="0.0" fill="rgb(206, 206, 209)" opacity="0.9922843"/>
    <path d="M 279.1073303222656 175.88661193847656 C 276.3205261230469 186.00003051757812 269.00042724609375 193.32200622558594 258.55377197265625 196.63844299316406 C 248.54896545410156 193.8572540283203 241.22242736816406 186.42262268066406 238.4647674560547 176.23793029785156 C 241.5325164794922 165.9174041748047 248.93978881835938 158.60232543945312 259.14678955078125 155.6713409423828 C 269.3414306640625 158.30035400390625 276.613037109375 165.68508911132812 279.1073303222656 175.88661193847656" stroke-width="0.0" fill="rgb(207, 207, 210)" opacity="0.9918198"/>
    <path d="M 605.7694702148438 350.31695556640625 C 602.509765625 360.160888671875 595.126220703125 367.41021728515625 585.3499755859375 370.0372619628906 C 576.567626953125 367.490966796875 567.8977661132812 361.531982421875 565.1361694335938 351.5126037597656 C 567.8311767578125 340.1648864746094 575.1690673828125 332.843994140625 586.7824096679688 330.08349609375 C 596.8299560546875 332.7975158691406 604.0714721679688 340.21746826171875 605.7694702148438 350.31695556640625" stroke-width="0.0" fill="rgb(26, 33, 38)" opacity="0.9900043"/>
    <path d="M 278.40411376953125 41.70387268066406 C 275.32049560546875 52.0 268.0 59.32050704956055 257.7427062988281 62.29959487915039 C 247.52110290527344 59.802833557128906 240.12570190429688 52.5023193359375 237.39183044433594 42.233089447021484 C 240.32394409179688 31.731063842773438 247.79624938964844 24.53091049194336 258.02984619140625 21.922513961791992 C 268.28265380859375 24.458221435546875 275.7731628417969 31.6433162689209 278.40411376953125 41.70387268066406" stroke-width="0.0" fill="rgb(206, 205, 210)" opacity="0.9924586"/>
    <path d="M 165.49368286132812 450.5376892089844 C 161.6220703125 460.2393798828125 154.20004272460938 467.486328125 144.1165008544922 471.9306945800781 C 134.14076232910156 469.2283020019531 127.19303131103516 461.77874755859375 125.93326568603516 451.60821533203125 C 128.48716735839844 441.6517028808594 135.20680236816406 433.11993408203125 144.56300354003906 430.3466796875 C 155.3153839111328 433.3639831542969 162.73590087890625 440.6525573730469 165.49368286132812 450.5376892089844" stroke-width="0.0" fill="rgb(26, 35, 49)" opacity="0.9900417"/>
    <path d="M 545.35498046875 148.71168518066406 C 542.3204956054688 159.0 535.0 166.3205108642578 525.0 169.0 C 515.0 166.3205108642578 507.67950439453125 159.0 505.0 149.0 C 507.67950439453125 139.0 515.0 131.6794891357422 525.38037109375 128.44163513183594 C 535.4542846679688 131.17709350585938 542.8128662109375 138.54771423339844 545.35498046875 148.71168518066406" stroke-width="0.0" fill="rgb(205, 205, 209)" opacity="0.99433964"/>
    <path d="M 92.27306365966797 70.15546417236328 C 89.6964340209961 80.3824234008789 82.42365264892578 87.81915283203125 72.04747009277344 90.58145904541016 C 61.52743911743164 87.83988952636719 54.264244079589844 80.44020080566406 51.64936828613281 69.95686340332031 C 54.26898956298828 59.60114288330078 61.585140228271484 52.21839141845703 71.81031799316406 49.43539047241211 C 82.10932922363281 52.480255126953125 89.36353302001953 59.9400520324707 92.27306365966797 70.15546417236328" stroke-width="0.0" fill="rgb(207, 207, 210)" opacity="0.99115765"/>
    <path d="M 277.3446960449219 89.85083770751953 C 274.6433410644531 100.32674407958984 267.3681335449219 107.77153015136719 257.34771728515625 110.53527069091797 C 246.9049072265625 107.37200164794922 239.32467651367188 100.19751739501953 236.3324432373047 90.07904815673828 C 239.16854858398438 79.52845001220703 246.54342651367188 72.21427917480469 256.79974365234375 69.66288757324219 C 267.2752990722656 72.42745208740234 274.6859436035156 79.69026184082031 277.3446960449219 89.85083770751953" stroke-width="0.0" fill="rgb(206, 207, 210)" opacity="0.9910726"/>
    <path d="M 602.1612548828125 431.83233642578125 C 599.3203125 441.9998779296875 591.9998779296875 449.3204040527344 581.9999389648438 451.9999694824219 C 572.0 449.3205261230469 564.679443359375 442.0000305175781 561.9998779296875 432.0000305175781 C 564.6795043945312 422.0000305175781 572.0000610351562 414.6796875 582.3179321289062 411.6031799316406 C 592.4599609375 414.1634521484375 599.7140502929688 421.5785217285156 602.1612548828125 431.83233642578125" stroke-width="0.0" fill="rgb(204, 206, 207)" opacity="0.9957687"/>
    <path d="M 77.12504577636719 175.88485717773438 C 74.32035064697266 185.9998779296875 66.9998779296875 193.3203582763672 56.99986267089844 195.99972534179688 C 46.99885559082031 193.32098388671875 39.674293518066406 186.0025177001953 36.65202713012695 175.73248291015625 C 39.19356155395508 165.55087280273438 46.567230224609375 158.2442626953125 56.89763641357422 155.6548614501953 C 67.27721405029297 158.37530517578125 74.59061431884766 165.73304748535156 77.12504577636719 175.88485717773438" stroke-width="0.0" fill="rgb(206, 206, 209)" opacity="0.99145544"/>
    <path d="M 572.0003051757812 516.0008544921875 C 569.3295288085938 526.0239868164062 562.084228515625 533.5206909179688 552.07080078125 536.5626220703125 C 541.6198120117188 533.7197875976562 534.1885986328125 526.4109497070312 531.3316040039062 516.2437744140625 C 534.202880859375 505.5428466796875 541.5343627929688 498.1772766113281 551.702392578125 495.63006591796875 C 562.0 498.67950439453125 569.3204956054688 506.0 572.0003051757812 516.0008544921875" stroke-width="0.0" fill="rgb(206, 206, 209)" opacity="0.9915299"/>
    <path d="M 50.0 268.0 C 47.32050704956055 278.0 40.0 285.32049560546875 29.94328498840332 288.04473876953125 C 19.74953842163086 285.5123596191406 12.20552921295166 278.3446044921875 9.262670516967773 267.9857482910156 C 12.152937889099121 257.5415954589844 19.576242446899414 250.26121520996094 29.803606033325195 247.79388427734375 C 40.0 250.6794891357422 47.32050704956055 258.0 50.0 268.0" stroke-width="0.0" fill="rgb(206, 206, 209)" opacity="0.9927651"/>
    <path d="M 195.44189453125 21.22492027282715 C 192.50765991210938 31.077707290649414 185.021728515625 38.32851791381836 174.9701690673828 41.03880310058594 C 164.94422912597656 38.39080810546875 157.64353942871094 31.045387268066406 154.9920196533203 21.009933471679688 C 157.67945861816406 10.999990463256836 165.0 3.679490327835083 175.03219604492188 0.912823498249054 C 185.0066680908203 3.6579666137695312 192.32041931152344 10.99936294555664 195.44189453125 21.22492027282715" stroke-width="0.0" fill="rgb(206, 203, 206)" opacity="0.9955362"/>
    <path d="M 84.33931732177734 542.2407836914062 C 81.73986053466797 552.3884887695312 74.38422393798828 559.725830078125 64.06070709228516 562.4904174804688 C 53.695003509521484 559.660400390625 46.39667892456055 552.2876586914062 43.84019088745117 542.0845947265625 C 46.587669372558594 531.9248657226562 53.93729782104492 524.6287231445312 64.14848327636719 521.7190551757812 C 74.12861633300781 524.4601440429688 81.36276245117188 531.9269409179688 84.33931732177734 542.2407836914062" stroke-width="0.0" fill="rgb(206, 206, 209)" opacity="0.9915869"/>
    <path d="M 619.0 265.0 C 616.3203125 274.9994812011719 608.9934692382812 282.2984619140625 599.1318969726562 284.4085998535156 C 589.0137939453125 282.27545166015625 581.68017578125 274.9986267089844 579.0009765625 264.9999694824219 C 581.6798095703125 255.00022888183594 589.0001831054688 247.67971801757812 599.0001220703125 245.0001983642578 C 609.0 247.6794891357422 616.3204956054688 255.0 619.0 265.0" stroke-width="0.0" fill="rgb(205, 203, 207)" opacity="1.0"/>
    <path d="M 21.2286376953125 321.79315185546875 C 18.372888565063477 332.1002197265625 11.204912185668945 339.68267822265625 1.340736746788025 342.5543518066406 C -9.0 339.32049560546875 -16.32050895690918 332.0 -19.0 322.0 C -16.320512771606445 312.0 -9.000118255615234 304.6791076660156 1.2650187015533447 301.6717529296875 C 11.445164680480957 304.2060241699219 18.757658004760742 311.5658264160156 21.2286376953125 321.79315185546875" stroke-width="0.0" fill="rgb(207, 207, 210)" opacity="0.9928313"/>
    <path d="M 225.07208251953125 226.50352478027344 C 222.88865661621094 237.4998321533203 216.7003173828125 245.11529541015625 206.1903533935547 247.87384033203125 C 195.46823120117188 244.98748779296875 188.26425170898438 237.43576049804688 185.7207489013672 227.11685180664062 C 188.3789825439453 216.637939453125 195.5563201904297 209.13063049316406 206.22280883789062 206.22976684570312 C 216.64405822753906 208.99728393554688 223.68727111816406 216.42066955566406 225.07208251953125 226.50352478027344" stroke-width="0.0" fill="rgb(206, 206, 208)" opacity="0.9900897"/>
    <path d="M 94.45781707763672 405.0836181640625 C 91.79417419433594 415.4585266113281 84.47149658203125 422.83258056640625 74.1031494140625 425.4858093261719 C 63.588863372802734 422.7588195800781 56.24251937866211 415.4107360839844 53.34452819824219 404.7339172363281 C 56.14421081542969 394.52349853515625 63.539398193359375 387.1919860839844 73.80432891845703 384.48944091796875 C 84.32006072998047 387.33367919921875 91.67192077636719 394.67822265625 94.45781707763672 405.0836181640625" stroke-width="0.0" fill="rgb(207, 207, 210)" opacity="0.9909027"/>
    <path d="M 334.07867431640625 118.08973693847656 C 331.5633239746094 128.26365661621094 324.28277587890625 135.6262969970703 313.91741943359375 138.3070068359375 C 303.56707763671875 135.74757385253906 296.1589050292969 128.46238708496094 293.25640869140625 117.89030456542969 C 296.1485595703125 107.5472412109375 303.5816955566406 100.25038146972656 314.1130065917969 97.37367248535156 C 324.1165771484375 100.4124526977539 331.32672119140625 107.96951293945312 334.07867431640625 118.08973693847656" stroke-width="0.0" fill="rgb(204, 207, 210)" opacity="0.9918457"/>
    <path d="M 291.4925842285156 138.11766052246094 C 288.84136962890625 148.49176025390625 281.4892272949219 155.8345947265625 271.320068359375 158.42018127441406 C 261.0058288574219 155.30416870117188 253.67996215820312 147.99862670898438 251.0000762939453 138.0000762939453 C 253.6798553466797 128.00022888183594 260.99542236328125 120.66233825683594 271.2540283203125 117.60037231445312 C 281.43511962890625 120.20964813232422 288.7559814453125 127.5755386352539 291.4925842285156 138.11766052246094" stroke-width="0.0" fill="rgb(207, 205, 209)" opacity="0.9916129"/>
    <path d="M 241.57679748535156 34.20729446411133 C 238.88999938964844 44.53998565673828 231.54269409179688 51.90105438232422 221.42787170410156 54.58547592163086 C 210.99998474121094 51.32052993774414 203.6794891357422 44.000003814697266 200.9999542236328 33.99996566772461 C 203.67941284179688 23.999950408935547 210.99996948242188 16.67946434020996 221.0513916015625 13.95744514465332 C 231.2013397216797 16.514284133911133 238.6446075439453 23.749263763427734 241.57679748535156 34.20729446411133" stroke-width="0.0" fill="rgb(206, 206, 209)" opacity="0.9926784"/>
    <path d="M 57.6246452331543 285.0489196777344 C 54.738765716552734 295.3544006347656 47.34558868408203 302.7087707519531 36.822391510009766 305.5115966796875 C 26.508089065551758 302.8501892089844 19.136919021606445 295.4956359863281 16.430585861206055 285.4205627441406 C 19.688282012939453 275.002197265625 26.999771118164062 267.6793212890625 37.10448455810547 264.91021728515625 C 47.34888458251953 267.3830261230469 54.81068420410156 274.5896301269531 57.6246452331543 285.0489196777344" stroke-width="0.0" fill="rgb(206, 204, 208)" opacity="0.9914669"/>
    <path d="M 518.0380859375 237.33409118652344 C 515.4583740234375 246.2715606689453 508.86053466796875 255.0243682861328 499.9183044433594 256.0400085449219 C 489.9299621582031 253.3762664794922 482.6189880371094 246.07205200195312 479.9400329589844 236.1226348876953 C 482.1955871582031 227.417724609375 489.4350891113281 220.24119567871094 498.20611572265625 217.95387268066406 C 508.11248779296875 220.586669921875 515.4102783203125 227.88897705078125 518.0380859375 237.33409118652344" stroke-width="0.0" fill="rgb(2, 2, 2)" opacity="0.99000335"/>
    <path d="M 154.5711212158203 311.87200927734375 C 151.50596618652344 322.0765075683594 144.02099609375 329.3282470703125 133.5701141357422 332.6008605957031 C 123.49334716796875 329.8819580078125 116.1578598022461 322.49395751953125 113.49147033691406 312.2327880859375 C 116.49797058105469 301.8979797363281 123.94522094726562 294.65020751953125 134.36489868164062 291.5442199707031 C 144.5296173095703 294.1077575683594 151.8453369140625 301.48583984375 154.5711212158203 311.87200927734375" stroke-width="0.0" fill="rgb(207, 207, 210)" opacity="0.99134064"/>
    <path d="M 219.9998016357422 2.999561071395874 C 217.3175048828125 12.993501663208008 209.98487854003906 20.287839889526367 199.7707061767578 23.44024085998535 C 189.93394470214844 20.486709594726562 182.6737060546875 13.016575813293457 180.00840759277344 3.007174015045166 C 182.69236755371094 -6.995378494262695 190.00111389160156 -14.320116996765137 200.00003051757812 -16.999990463256836 C 210.0 -14.320508003234863 217.3205108642578 -7.0 219.9998016357422 2.999561071395874" stroke-width="0.0" fill="rgb(206, 206, 209)" opacity="0.9938474"/>
    <path d="M 106.41177368164062 278.9704895019531 C 103.77426147460938 289.44677734375 96.44930267333984 296.7833251953125 86.1108169555664 299.4844055175781 C 75.72872924804688 296.6632995605469 68.45986938476562 289.23077392578125 65.49093627929688 278.8420715332031 C 68.2634048461914 268.6473388671875 75.67384338378906 261.3437805175781 86.05393981933594 258.6857604980469 C 96.44928741455078 261.22930908203125 103.78412628173828 268.5470275878906 106.41177368164062 278.9704895019531" stroke-width="0.0" fill="rgb(207, 207, 210)" opacity="0.9910572"/>
    <path d="M 112.32733154296875 469.7960510253906 C 109.32599639892578 480.0015869140625 102.0001220703125 487.3205261230469 92.0 490.0 C 82.0 487.32049560546875 74.67948913574219 480.0 71.959716796875 469.952392578125 C 74.52471923828125 459.8072204589844 81.73625183105469 452.3048400878906 92.26427459716797 449.2689208984375 C 102.4594955444336 452.1269226074219 109.74633026123047 459.5854797363281 112.32733154296875 469.7960510253906" stroke-width="0.0" fill="rgb(206, 206, 208)" opacity="0.9922088"/>
  </g>
</svg>
