<?xml version="1.0" ?>
<svg xmlns="http://www.w3.org/2000/svg" version="1.1" width="600" height="600">
  <defs/>
  <g>
    <path d="M 43.584407806396484 373.45098876953125 C 40.94005584716797 383.58740234375 33.60188674926758 390.9794006347656 23.52727508544922 393.68414306640625 C 13.001220703125 390.31890869140625 5.680227756500244 382.9990234375 3.000147819519043 372.99981689453125 C 5.679491996765137 363.0 13.0 355.67950439453125 23.000011444091797 353.0 C 32.999961853027344 355.6794738769531 40.31596755981445 363.00128173828125 43.584407806396484 373.45098876953125" stroke-width="0.0" fill="rgb(179, 175, 178)" opacity="0.9921933"/>
    <path d="M 101.6861801147461 309.81640625 C 98.89395904541016 320.5481872558594 91.55342864990234 327.9098205566406 81.16264343261719 330.6661682128906 C 70.68632507324219 327.758544921875 63.52789306640625 320.21954345703125 60.46752166748047 309.5796203613281 C 63.0421257019043 299.4013671875 70.42107391357422 292.1041259765625 81.226318359375 289.3855285644531 C 91.5953369140625 292.0459899902344 98.9504623413086 299.4062805175781 101.6861801147461 309.81640625" stroke-width="0.0" fill="rgb(186, 181, 185)" opacity="0.9920884"/>
    <path d="M 37.86481857299805 38.328243255615234 C 35.106719970703125 48.76479721069336 27.77383041381836 56.12910461425781 17.369733810424805 58.846153259277344 C 6.275679588317871 56.07096862792969 -1.0483263731002808 48.717185974121094 -3.6651487350463867 38.212100982666016 C -0.9812727570533752 27.346616744995117 6.323485374450684 19.950927734375 17.087669372558594 17.13764190673828 C 27.701168060302734 19.93025779724121 35.0579948425293 27.303436279296875 37.86481857299805 38.328243255615234" stroke-width="0.0" fill="rgb(149, 147, 149)" opacity="0.9920052"/>
    <path d="M 234.4820556640625 309.05859375 C 230.37722778320312 319.0685119628906 223.06808471679688 326.3761291503906 213.1492462158203 329.0271911621094 C 203.44883728027344 326.608642578125 195.85281372070312 320.76904296875 193.28990173339844 310.6808776855469 C 197.0731964111328 300.5365905761719 204.68460083007812 293.4850158691406 214.72129821777344 290.9336853027344 C 224.8668975830078 291.8772277832031 232.2473907470703 299.0999755859375 234.4820556640625 309.05859375" stroke-width="0.0" fill="rgb(3, 3, 4)" opacity="0.99000704"/>
    <path d="M 568.5338745117188 73.52300262451172 C 565.3201293945312 83.9999008178711 558.0 91.32051086425781 548.0 94.0 C 538.0 91.32051086425781 530.6795043945312 84.0 527.9982299804688 73.9959716796875 C 530.6480712890625 63.92850875854492 537.8117065429688 56.311466217041016 548.489013671875 53.176544189453125 C 558.7017211914062 55.933345794677734 566.0208129882812 63.314109802246094 568.5338745117188 73.52300262451172" stroke-width="0.0" fill="rgb(176, 174, 177)" opacity="1.0"/>
    <path d="M 318.4300842285156 123.73133850097656 C 316.0226135253906 133.826904296875 308.9309387207031 141.37521362304688 299.102294921875 144.2329864501953 C 289.0 141.3205108642578 281.67950439453125 134.0 279.0 124.0 C 281.67950439453125 114.0 289.0 106.67948913574219 299.21002197265625 103.76852416992188 C 309.3870544433594 106.26216888427734 316.5481872558594 113.66210174560547 318.4300842285156 123.73133850097656" stroke-width="0.0" fill="rgb(192, 189, 192)" opacity="0.990154"/>
    <path d="M 517.9385986328125 597.1517333984375 C 514.5653686523438 608.09375 507.01568603515625 615.3256225585938 496.99993896484375 618.0001831054688 C 486.98345947265625 615.3259887695312 479.45849609375 608.08544921875 476.07928466796875 597.1654663085938 C 478.76861572265625 587.10693359375 486.10443115234375 579.7628173828125 496.9377746582031 577.0386962890625 C 507.8971252441406 579.763671875 515.2384033203125 587.1019897460938 517.9385986328125 597.1517333984375" stroke-width="0.0" fill="rgb(29, 27, 34)" opacity="1.0"/>
    <path d="M 144.95396423339844 592.2135620117188 C 142.07244873046875 603.5675048828125 134.34156799316406 610.5145874023438 124.03446197509766 613.0171508789062 C 114.0 610.3204956054688 106.67948913574219 603.0 104.0 593.0 C 106.67948913574219 583.0 114.0 575.6795043945312 124.48828887939453 572.5616455078125 C 134.82757568359375 574.8973999023438 142.23538208007812 582.1267700195312 144.95396423339844 592.2135620117188" stroke-width="0.0" fill="rgb(75, 74, 82)" opacity="1.0"/>
    <path d="M 202.0633087158203 156.07766723632812 C 199.56126403808594 166.29469299316406 192.36044311523438 173.76832580566406 182.2894744873047 176.3960723876953 C 172.0 173.3205108642578 164.6794891357422 166.0 162.0 156.0 C 164.6794891357422 146.00001525878906 172.0001678466797 138.68008422851562 182.08740234375 135.80352783203125 C 192.0244140625 138.6145782470703 199.3227081298828 145.99375915527344 202.0633087158203 156.07766723632812" stroke-width="0.0" fill="rgb(182, 181, 183)" opacity="0.9979883"/>
    <path d="M 98.61527252197266 275.46282958984375 C 95.98477172851562 285.6213684082031 88.60725402832031 292.9429931640625 78.1749038696289 295.57208251953125 C 67.49275207519531 292.8455810546875 60.119110107421875 285.5184020996094 57.224327087402344 274.6376647949219 C 60.00918960571289 264.3728942871094 67.36685180664062 256.99554443359375 77.511962890625 254.33538818359375 C 88.0545883178711 257.56622314453125 95.36183166503906 264.96783447265625 98.61527252197266 275.46282958984375" stroke-width="0.0" fill="rgb(184, 180, 183)" opacity="0.9921204"/>
    <path d="M 139.54638671875 330.2171936035156 C 136.90338134765625 340.55609130859375 129.55650329589844 347.9037170410156 119.13859558105469 350.5508117675781 C 108.52332305908203 347.8220520019531 101.13402557373047 340.4903869628906 98.27713012695312 330.0838317871094 C 101.0870361328125 319.4401550292969 108.44417572021484 312.09942626953125 119.0703125 309.3364562988281 C 129.5090789794922 312.1097106933594 136.78964233398438 319.52392578125 139.54638671875 330.2171936035156" stroke-width="0.0" fill="rgb(188, 186, 189)" opacity="0.99302167"/>
    <path d="M 96.0 136.0 C 93.32051086425781 146.0 86.0 153.3205108642578 76.0 156.0 C 66.0 153.3205108642578 58.67949295043945 146.0 55.58331298828125 135.66726684570312 C 58.151851654052734 125.53762817382812 65.5875244140625 118.31051635742188 75.85501861572266 115.87028503417969 C 86.0 118.67948913574219 93.32051086425781 126.0 96.0 136.0" stroke-width="0.0" fill="rgb(170, 167, 170)" opacity="1.0"/>
    <path d="M 32.82075500488281 110.25025177001953 C 29.946565628051758 120.46249389648438 22.312103271484375 127.52916717529297 11.898260116577148 130.1927032470703 C 1.7443287372589111 127.61589813232422 -5.512753009796143 120.22418975830078 -8.099305152893066 109.98761749267578 C -5.584495544433594 99.63572692871094 1.5043421983718872 92.0405044555664 11.81409740447998 89.19615936279297 C 22.635385513305664 92.00070190429688 29.98853302001953 99.36888122558594 32.82075500488281 110.25025177001953" stroke-width="0.0" fill="rgb(156, 152, 155)" opacity="1.0"/>
    <path d="M 130.83331298828125 85.37913513183594 C 128.0641632080078 95.68828582763672 120.66427612304688 102.99850463867188 110.43965911865234 105.65141296386719 C 99.9620132446289 102.41881561279297 92.67581939697266 95.010009765625 89.99988555908203 85.00032043457031 C 92.67948913574219 75.0 100.0 67.67948913574219 110.26961517333984 64.72601318359375 C 120.55744934082031 67.14592742919922 127.98973083496094 74.39752197265625 130.83331298828125 85.37913513183594" stroke-width="0.0" fill="rgb(169, 166, 168)" opacity="0.99523735"/>
    <path d="M 219.04348754882812 151.02210998535156 C 216.35946655273438 161.0410614013672 209.10452270507812 168.55502319335938 199.18756103515625 171.60523986816406 C 188.9677734375 168.40951538085938 181.67755126953125 161.00672912597656 178.9437255859375 150.9269561767578 C 181.4441680908203 140.7013397216797 188.61492919921875 133.18096923828125 198.62747192382812 130.47206115722656 C 209.0 133.6794891357422 216.3205108642578 141.0 219.04348754882812 151.02210998535156" stroke-width="0.0" fill="rgb(183, 182, 183)" opacity="0.9951305"/>
    <path d="M 297.0 16.0 C 294.32049560546875 26.0 287.0 33.32050704956055 276.514404296875 36.61076736450195 C 266.3514709472656 33.988670349121094 258.9521484375 26.67095184326172 256.2842712402344 16.559906005859375 C 259.6182861328125 5.9769978523254395 266.99407958984375 -1.3226553201675415 276.99981689453125 -4.000065803527832 C 287.0 -1.3205081224441528 294.32049560546875 6.0 297.0 16.0" stroke-width="0.0" fill="rgb(175, 172, 175)" opacity="1.0"/>
    <path d="M 309.2561950683594 107.85697174072266 C 306.3211364746094 118.00045013427734 299.000244140625 125.32048797607422 288.9999084472656 127.99977111816406 C 279.0 125.32051086425781 271.67950439453125 118.0 268.83453369140625 107.82828521728516 C 271.2799987792969 97.57432556152344 278.5386962890625 90.16616821289062 288.689453125 87.60991668701172 C 299.0487060546875 90.65318298339844 306.4920959472656 97.90646362304688 309.2561950683594 107.85697174072266" stroke-width="0.0" fill="rgb(186, 183, 186)" opacity="1.0"/>
    <path d="M 148.85360717773438 47.06589126586914 C 146.042236328125 57.66069412231445 138.6441650390625 65.00061798095703 128.3671417236328 67.76155853271484 C 117.79590606689453 64.6881332397461 110.63440704345703 57.094154357910156 107.99691772460938 47.006649017333984 C 110.67948913574219 37.0 118.0 29.67949104309082 128.58995056152344 26.256282806396484 C 138.6443634033203 28.97681999206543 146.0187530517578 36.357627868652344 148.85360717773438 47.06589126586914" stroke-width="0.0" fill="rgb(164, 161, 165)" opacity="1.0"/>
    <path d="M 599.6116333007812 217.01951599121094 C 596.8986206054688 227.55751037597656 589.5697021484375 234.9351043701172 578.6647338867188 237.7854766845703 C 568.3721923828125 235.00540161132812 561.0343017578125 227.61343383789062 558.327392578125 217.2503204345703 C 561.153076171875 206.5084228515625 568.51220703125 199.16241455078125 579.1624755859375 196.3336944580078 C 589.5599365234375 199.07943725585938 596.882568359375 206.45274353027344 599.6116333007812 217.01951599121094" stroke-width="0.0" fill="rgb(192, 189, 193)" opacity="0.99141175"/>
    <path d="M 72.50711059570312 320.391845703125 C 69.94839477539062 330.60369873046875 62.61145782470703 337.9716491699219 52.47685623168945 340.5999755859375 C 42.0001220703125 337.3194580078125 34.67941665649414 330.0001525878906 31.312402725219727 319.4949035644531 C 34.07642364501953 309.46875 41.47834396362305 302.1041259765625 51.9788703918457 299.2890930175781 C 62.40607833862305 302.1466979980469 69.53372192382812 309.7000427246094 72.50711059570312 320.391845703125" stroke-width="0.0" fill="rgb(181, 178, 182)" opacity="0.9924003"/>
    <path d="M 186.1683349609375 245.83755493164062 C 183.35366821289062 256.0647888183594 176.13038635253906 263.55975341796875 166.200439453125 266.36529541015625 C 156.00064086914062 263.3191223144531 148.67959594726562 255.99972534179688 145.9942169189453 245.98941040039062 C 148.62362670898438 235.9007110595703 155.82838439941406 228.39797973632812 166.29310607910156 225.38514709472656 C 176.48098754882812 228.11618041992188 183.71014404296875 235.57603454589844 186.1683349609375 245.83755493164062" stroke-width="0.0" fill="rgb(191, 187, 190)" opacity="0.9939007"/>
    <path d="M 235.00254821777344 222.00360107421875 C 232.35012817382812 232.06114196777344 225.1295166015625 239.56394958496094 214.7227783203125 242.58181762695312 C 204.4187774658203 239.9306640625 197.07550048828125 232.5790557861328 194.3224334716797 221.84603881835938 C 197.02825927734375 211.38023376464844 204.37669372558594 204.0181884765625 214.58303833007812 201.34243774414062 C 225.0540008544922 204.5529022216797 232.32814025878906 211.98187255859375 235.00254821777344 222.00360107421875" stroke-width="0.0" fill="rgb(191, 190, 193)" opacity="0.99323666"/>
    <path d="M 319.7454528808594 80.86302947998047 C 317.6034851074219 91.33740234375 310.36260986328125 98.70061492919922 300.1679992675781 101.23329162597656 C 289.775390625 98.45979309082031 282.1894836425781 91.34339141845703 279.4692687988281 81.37574005126953 C 282.6797180175781 71.00006103515625 290.0 63.67949295043945 300.0943908691406 60.92008590698242 C 310.3172912597656 63.40741729736328 317.72601318359375 70.6414794921875 319.7454528808594 80.86302947998047" stroke-width="0.0" fill="rgb(185, 182, 187)" opacity="0.99207205"/>
    <path d="M 176.62904357910156 327.5619812011719 C 174.0902099609375 337.77032470703125 166.80262756347656 345.1741027832031 156.72744750976562 347.90496826171875 C 145.4253692626953 344.9442138671875 138.06834411621094 337.5718688964844 135.45018005371094 327.2876892089844 C 138.3351287841797 316.6854553222656 145.63099670410156 309.1866760253906 155.58438110351562 306.3450012207031 C 166.01327514648438 309.6447448730469 173.32192993164062 316.9962463378906 176.62904357910156 327.5619812011719" stroke-width="0.0" fill="rgb(210, 196, 202)" opacity="1.0"/>
    <path d="M 93.33197784423828 519.7185668945312 C 91.26008605957031 529.9815673828125 83.99853515625 537.320068359375 73.99998474121094 540.0 C 64.0 537.3204956054688 56.679500579833984 530.0 53.28673553466797 519.4532470703125 C 56.01968765258789 509.39752197265625 63.402915954589844 502.0357360839844 73.98175811767578 499.25909423828125 C 84.55274963378906 502.0591735839844 91.76683807373047 509.5010986328125 93.33197784423828 519.7185668945312" stroke-width="0.0" fill="rgb(180, 176, 180)" opacity="0.9904726"/>
    <path d="M 565.7697143554688 564.7119750976562 C 564.1331787109375 574.8548583984375 556.8952026367188 582.251220703125 546.7218627929688 584.9649047851562 C 535.1083374023438 582.2337646484375 527.7693481445312 574.8901977539062 525.1091918945312 564.9129638671875 C 529.603515625 554.9177856445312 536.9235229492188 547.6187133789062 546.582763671875 544.974853515625 C 555.1160278320312 547.5983276367188 562.4984130859375 554.85009765625 565.7697143554688 564.7119750976562" stroke-width="0.0" fill="rgb(7, 6, 8)" opacity="0.99000543"/>
    <path d="M 302.7801818847656 184.25262451171875 C 299.95428466796875 194.5480499267578 292.49407958984375 201.79803466796875 282.2359313964844 204.2751922607422 C 271.8800354003906 201.38284301757812 264.2630920410156 194.2429656982422 261.24835205078125 183.97056579589844 C 264.1635437011719 173.56382751464844 271.5962219238281 166.25904846191406 282.1791076660156 163.46888732910156 C 292.4754333496094 166.15615844726562 299.8525085449219 173.5225067138672 302.7801818847656 184.25262451171875" stroke-width="0.0" fill="rgb(197, 193, 197)" opacity="0.9911962"/>
    <path d="M 115.79916381835938 144.5606689453125 C 112.91009521484375 155.57472229003906 105.61465454101562 163.01576232910156 95.0758285522461 165.85401916503906 C 84.44583892822266 162.99313354492188 77.3147964477539 155.4482879638672 74.89990234375 145.12603759765625 C 77.67948913574219 135.0 85.0 127.67948913574219 95.32868194580078 124.64164733886719 C 105.59188842773438 127.09620666503906 113.02688598632812 134.36514282226562 115.79916381835938 144.5606689453125" stroke-width="0.0" fill="rgb(175, 172, 174)" opacity="0.99127996"/>
    <path d="M 175.00160217285156 249.00364685058594 C 172.3450927734375 259.0518493652344 165.11105346679688 266.53277587890625 155.1705322265625 269.30767822265625 C 145.0001678466797 266.3204345703125 137.68344116210938 258.998779296875 134.37936401367188 248.4955596923828 C 137.0057830810547 238.36636352539062 144.3628692626953 230.99554443359375 154.44898986816406 228.30490112304688 C 164.9955596923828 231.6922149658203 172.32017517089844 239.0009765625 175.00160217285156 249.00364685058594" stroke-width="0.0" fill="rgb(187, 183, 186)" opacity="1.0"/>
    <path d="M 116.3170166015625 378.2765808105469 C 113.81840515136719 388.4658203125 106.44315338134766 395.7445983886719 95.55280303955078 398.709716796875 C 85.47199249267578 395.9300537109375 78.12773132324219 388.5061950683594 75.20941925048828 377.5684509277344 C 77.96309661865234 367.3349609375 85.34257507324219 359.9820556640625 95.44770050048828 357.2652893066406 C 106.01746368408203 360.6288757324219 113.32123565673828 367.9967956542969 116.3170166015625 378.2765808105469" stroke-width="0.0" fill="rgb(187, 182, 188)" opacity="0.9927662"/>
    <path d="M 57.851802825927734 557.7684936523438 C 55.183658599853516 567.8235473632812 47.79942321777344 575.1195678710938 37.33934020996094 577.7998046875 C 26.317848205566406 575.0269165039062 18.94886589050293 567.6912231445312 16.221195220947266 557.174560546875 C 18.97555923461914 546.3060302734375 26.280094146728516 538.9057006835938 36.34805679321289 536.212158203125 C 47.015846252441406 539.6392211914062 54.32184982299805 546.995361328125 57.851802825927734 557.7684936523438" stroke-width="0.0" fill="rgb(168, 163, 167)" opacity="1.0"/>
    <path d="M 164.71218872070312 287.1072082519531 C 161.90802001953125 297.5544128417969 154.5686798095703 304.9477233886719 144.30877685546875 307.7485656738281 C 133.54638671875 304.84796142578125 126.31852722167969 297.4006652832031 123.87049865722656 287.142578125 C 126.67948913574219 277.0 134.0 269.67950439453125 144.13693237304688 266.8794860839844 C 154.40748596191406 269.3212890625 161.87188720703125 276.5305480957031 164.71218872070312 287.1072082519531" stroke-width="0.0" fill="rgb(192, 188, 191)" opacity="0.99159527"/>
    <path d="M 81.98761749267578 536.9835205078125 C 79.26983642578125 546.9649658203125 72.11524200439453 554.6751098632812 62.35202407836914 557.658935546875 C 51.928253173828125 554.4647827148438 44.66470718383789 547.0320434570312 41.24911880493164 536.398193359375 C 43.96670150756836 526.361328125 51.41014099121094 519.107421875 61.68937683105469 516.6763305664062 C 71.9974365234375 519.6832275390625 79.31886291503906 527.001953125 81.98761749267578 536.9835205078125" stroke-width="0.0" fill="rgb(171, 166, 170)" opacity="1.0"/>
    <path d="M 294.2984313964844 211.80210876464844 C 291.32470703125 222.00543212890625 284.0123596191406 229.3489532470703 273.5137939453125 232.65328979492188 C 263.3904113769531 229.9720916748047 256.0483703613281 222.60275268554688 253.24807739257812 211.8848114013672 C 256.1051025390625 201.4901885986328 263.50390625 194.1475372314453 273.69317626953125 191.60475158691406 C 284.14910888671875 194.5741729736328 291.6164245605469 201.79095458984375 294.2984313964844 211.80210876464844" stroke-width="0.0" fill="rgb(198, 194, 198)" opacity="0.991732"/>
    <path d="M 122.29566955566406 62.162784576416016 C 119.52376556396484 72.10740661621094 112.05159759521484 79.34591674804688 101.82838439941406 82.15006256103516 C 91.48511505126953 79.76255798339844 83.96508026123047 72.60899353027344 81.21977233886719 62.62691116333008 C 84.66963195800781 51.996456146240234 91.99913787841797 44.679195404052734 101.9999771118164 41.999996185302734 C 111.99995422363281 44.67951583862305 119.32032012939453 52.000091552734375 122.29566955566406 62.162784576416016" stroke-width="0.0" fill="rgb(161, 158, 160)" opacity="1.0"/>
    <path d="M 66.85425567626953 92.06444549560547 C 64.03654479980469 102.64900207519531 56.63057327270508 109.989990234375 45.69789505004883 112.82775115966797 C 35.29545974731445 110.05020141601562 27.921140670776367 102.7159652709961 25.16101837158203 91.90660858154297 C 27.921733856201172 81.27057647705078 35.26252365112305 73.90167999267578 45.81486511230469 71.15208435058594 C 56.70687484741211 73.93521881103516 64.068359375 81.2916488647461 66.85425567626953 92.06444549560547" stroke-width="0.0" fill="rgb(160, 157, 159)" opacity="0.9909688"/>
    <path d="M 136.0537109375 265.93548583984375 C 133.3205108642578 276.0 126.0 283.32049560546875 115.74396514892578 286.2745361328125 C 105.51519775390625 283.81396484375 98.18780517578125 276.4842224121094 95.72509765625 266.2549133300781 C 98.67948913574219 256.0 106.0 248.6794891357422 116.28471374511719 245.59942626953125 C 126.33148193359375 248.25015258789062 133.5270538330078 255.74009704589844 136.0537109375 265.93548583984375" stroke-width="0.0" fill="rgb(186, 182, 186)" opacity="0.99781954"/>
    <path d="M 564.7866821289062 20.824811935424805 C 561.9896850585938 31.629894256591797 554.6409301757812 39.01927185058594 543.9904174804688 41.84135818481445 C 533.3065795898438 39.05397415161133 525.952392578125 31.690671920776367 523.1697998046875 21.181163787841797 C 525.9573364257812 10.301046371459961 533.2864990234375 2.9195940494537354 543.7835083007812 0.1603935956954956 C 554.6336059570312 2.995772123336792 562.0118408203125 10.362919807434082 564.7866821289062 20.824811935424805" stroke-width="0.0" fill="rgb(172, 171, 173)" opacity="0.99425143"/>
    <path d="M 89.21047973632812 47.06535720825195 C 86.7315444946289 57.4698371887207 79.55001068115234 64.97003173828125 68.6323471069336 67.84040832519531 C 58.26300048828125 65.09868621826172 50.931640625 57.725364685058594 48.16181564331055 46.856021881103516 C 50.91886520385742 36.2703857421875 58.26409912109375 28.90245246887207 68.54061889648438 26.14374351501465 C 79.48802185058594 29.074146270751953 86.64459991455078 36.606910705566406 89.21047973632812 47.06535720825195" stroke-width="0.0" fill="rgb(157, 152, 154)" opacity="1.0"/>
    <path d="M 458.0 55.0 C 455.32049560546875 65.0 448.0 72.32051086425781 438.0054931640625 74.99642181396484 C 428.0246887207031 72.29972076416016 420.610107421875 65.00032043457031 417.2560119628906 54.45864486694336 C 419.9543762207031 44.286441802978516 427.26788330078125 36.90553665161133 437.3916931152344 34.30144500732422 C 448.0 37.67949295043945 455.32049560546875 45.0 458.0 55.0" stroke-width="0.0" fill="rgb(180, 178, 181)" opacity="1.0"/>
    <path d="M 296.5525207519531 7.636687755584717 C 293.32049560546875 18.0 286.0 25.32050895690918 275.9961242675781 28.001672744750977 C 265.927734375 25.351808547973633 258.3070068359375 18.191030502319336 255.25064086914062 8.067435264587402 C 258.2550964355469 -2.2603392601013184 265.8594970703125 -9.396368026733398 276.00299072265625 -12.0158109664917 C 286.155517578125 -9.407844543457031 293.751708984375 -2.2729618549346924 296.5525207519531 7.636687755584717" stroke-width="0.0" fill="rgb(171, 170, 173)" opacity="1.0"/>
    <path d="M 411.7179870605469 21.042346954345703 C 409.0000305175781 31.648103713989258 401.6448059082031 38.99160385131836 391.4510803222656 41.61930465698242 C 380.62872314453125 38.616737365722656 373.0982971191406 31.46624755859375 370.20458984375 20.691387176513672 C 372.9824523925781 10.355164527893066 380.3718566894531 3.0299158096313477 391.30792236328125 0.24171072244644165 C 401.6518249511719 2.982828140258789 408.9809875488281 10.360846519470215 411.7179870605469 21.042346954345703" stroke-width="0.0" fill="rgb(180, 177, 181)" opacity="0.99202365"/>
    <path d="M 475.00152587890625 41.99673843383789 C 472.32049560546875 52.0 465.0 59.32050704956055 455.0 62.0 C 445.0 59.32050704956055 437.67950439453125 52.0 434.5979309082031 41.650848388671875 C 437.0957946777344 31.43096351623535 444.4185485839844 24.057933807373047 454.6902770996094 21.365877151489258 C 465.11578369140625 24.44738006591797 472.3432312011719 31.951026916503906 475.00152587890625 41.99673843383789" stroke-width="0.0" fill="rgb(178, 176, 180)" opacity="1.0"/>
    <path d="M 197.72557067871094 314.677734375 C 195.1664581298828 324.8382873535156 187.8488006591797 332.1958312988281 177.6659698486328 334.9216613769531 C 166.4463348388672 332.0133972167969 159.35037231445312 324.4227600097656 156.7325439453125 313.8073425292969 C 159.16445922851562 303.48553466796875 166.47689819335938 296.1361389160156 176.6885986328125 293.6435241699219 C 187.0 296.67950439453125 194.3205108642578 304.0 197.72557067871094 314.677734375" stroke-width="0.0" fill="rgb(176, 165, 166)" opacity="1.0"/>
    <path d="M 480.51800537109375 56.399784088134766 C 477.9200439453125 66.57284545898438 470.5792541503906 73.93789672851562 460.4142761230469 76.50955200195312 C 450.0 73.32051086425781 442.67950439453125 66.0 440.00006103515625 56.00007247924805 C 442.67974853515625 46.00027847290039 450.00030517578125 38.67986297607422 460.0001525878906 36.00017166137695 C 470.0000305175781 38.67948532104492 477.3216247558594 45.999671936035156 480.51800537109375 56.399784088134766" stroke-width="0.0" fill="rgb(181, 180, 184)" opacity="0.9957749"/>
    <path d="M 207.13072204589844 302.13037109375 C 204.4482879638672 312.1784362792969 197.22634887695312 319.587646484375 187.83657836914062 322.2441711425781 C 178.32736206054688 319.8408508300781 170.7738800048828 312.80010986328125 167.5850372314453 302.6864929199219 C 170.1402130126953 292.4801940917969 177.46817016601562 285.1031799316406 188.3230743408203 282.2491455078125 C 198.68045043945312 284.9825134277344 206.11849975585938 292.27728271484375 207.13072204589844 302.13037109375" stroke-width="0.0" fill="rgb(193, 188, 191)" opacity="0.9900281"/>
    <path d="M 476.27191162109375 91.7348403930664 C 473.3522033691406 102.07556915283203 466.1914367675781 109.68777465820312 456.58636474609375 112.3145523071289 C 446.4018859863281 108.83778381347656 439.15814208984375 101.60018157958984 436.4176025390625 91.5392074584961 C 438.75323486328125 82.06742095947266 446.05572509765625 74.71749877929688 456.30926513671875 71.67255401611328 C 466.533447265625 74.13072967529297 473.8417053222656 81.4749984741211 476.27191162109375 91.7348403930664" stroke-width="0.0" fill="rgb(186, 184, 188)" opacity="0.99006724"/>
    <path d="M 567.9375610351562 323.5390625 C 565.2048950195312 333.863037109375 557.858154296875 341.1911315917969 547.8685913085938 342.1032409667969 C 537.856689453125 339.4394836425781 530.5654296875 332.1412048339844 527.198974609375 322.110107421875 C 528.8475341796875 312.2724609375 536.40087890625 305.2074279785156 546.7469482421875 303.0658264160156 C 556.9819946289062 305.9085998535156 565.0286865234375 312.5699157714844 567.9375610351562 323.5390625" stroke-width="0.0" fill="rgb(69, 73, 82)" opacity="0.9900286"/>
    <path d="M 161.0284881591797 382.1309814453125 C 158.37991333007812 392.0713195800781 151.07179260253906 399.3813781738281 141.1201934814453 402.1924743652344 C 132.82891845703125 399.5741271972656 125.57499694824219 392.134033203125 122.87709045410156 382.18902587890625 C 124.71050262451172 373.078369140625 132.24838256835938 366.15673828125 142.88893127441406 362.1639404296875 C 152.8944549560547 364.7550354003906 159.9861297607422 372.1534423828125 161.0284881591797 382.1309814453125" stroke-width="0.0" fill="rgb(3, 2, 2)" opacity="0.9900047"/>
    <path d="M 34.000003814697266 140.0 C 31.32050895690918 150.0 24.0 157.3205108642578 14.0 160.0 C 4.0 157.3205108642578 -3.3205080032348633 150.0 -6.199222564697266 139.80300903320312 C -3.7420167922973633 129.58070373535156 3.5821187496185303 122.26266479492188 13.808079719543457 119.80885314941406 C 24.000125885009766 122.67923736572266 31.320537567138672 129.99993896484375 34.000003814697266 140.0" stroke-width="0.0" fill="rgb(161, 157, 160)" opacity="1.0"/>
    <path d="M 158.48812866210938 270.2723083496094 C 155.5423583984375 280.0947570800781 148.0269012451172 287.3299560546875 138.00054931640625 289.9997863769531 C 128.0 287.32049560546875 120.67948913574219 280.0 117.99210357666016 269.9864501953125 C 120.61344909667969 259.889404296875 127.81986999511719 252.3953857421875 137.80551147460938 249.6901092529297 C 147.9996337890625 252.67941284179688 155.3125762939453 260.0025939941406 158.48812866210938 270.2723083496094" stroke-width="0.0" fill="rgb(189, 186, 189)" opacity="0.9947856"/>
    <path d="M 529.0712890625 273.0173645019531 C 526.3272705078125 283.00823974609375 519.0145263671875 290.3484191894531 508.5292053222656 293.5091552734375 C 498.289306640625 291.039794921875 490.9833984375 283.7041320800781 488.3486633300781 273.0530700683594 C 491.2059326171875 262.55145263671875 498.5377197265625 255.1686248779297 508.6925048828125 252.62158203125 C 518.9998168945312 255.67955017089844 526.321044921875 263.0 529.0712890625 273.0173645019531" stroke-width="0.0" fill="rgb(197, 193, 198)" opacity="1.0"/>
    <path d="M 247.14317321777344 220.85313415527344 C 244.3205108642578 231.0 237.0 238.3205108642578 227.00001525878906 240.99998474121094 C 217.00001525878906 238.32049560546875 209.67953491210938 230.99998474121094 206.99900817871094 220.9968719482422 C 209.65689086914062 210.94989013671875 216.86483764648438 203.39845275878906 227.07635498046875 200.32220458984375 C 237.45462036132812 203.148193359375 244.68142700195312 210.60037231445312 247.14317321777344 220.85313415527344" stroke-width="0.0" fill="rgb(192, 188, 192)" opacity="0.9950995"/>
    <path d="M 460.9986877441406 61.00046157836914 C 458.3204650878906 71.00000762939453 451.0008544921875 78.32355499267578 441.4249267578125 80.419677734375 C 431.4443664550781 77.79781341552734 424.1820068359375 70.56301879882812 421.5102844238281 60.642826080322266 C 423.7069396972656 51.0274658203125 431.0275573730469 43.70731735229492 441.00823974609375 41.01350021362305 C 450.9986572265625 43.68144989013672 458.3193054199219 51.00112533569336 460.9986877441406 61.00046157836914" stroke-width="0.0" fill="rgb(186, 184, 187)" opacity="0.99023396"/>
    <path d="M 92.00704193115234 142.0198516845703 C 89.42474365234375 152.18106079101562 82.31952667236328 159.8162384033203 72.162109375 162.7532196044922 C 61.41899871826172 159.9133758544922 54.00128936767578 152.61195373535156 51.18570327758789 142.0545654296875 C 54.10707473754883 131.5673370361328 61.677894592285156 124.42630767822266 71.92042541503906 121.93619537353516 C 81.99999237060547 124.67948913574219 89.32038116455078 132.0000457763672 92.00704193115234 142.0198516845703" stroke-width="0.0" fill="rgb(172, 168, 171)" opacity="0.99480814"/>
    <path d="M 184.68447875976562 128.76263427734375 C 181.632080078125 139.16726684570312 174.07550048828125 146.35504150390625 163.44158935546875 149.71823120117188 C 153.37953186035156 146.99859619140625 146.03115844726562 139.60955810546875 143.2419891357422 128.95599365234375 C 146.00271606445312 118.36112213134766 153.36981201171875 111.02733612060547 164.26177978515625 108.20941162109375 C 174.589599609375 111.01886749267578 181.90187072753906 118.43939208984375 184.68447875976562 128.76263427734375" stroke-width="0.0" fill="rgb(180, 177, 179)" opacity="0.9912189"/>
    <path d="M 127.0 84.00000762939453 C 124.32051086425781 94.0 117.0 101.32051086425781 106.43289947509766 104.67977905273438 C 96.29806518554688 102.0558853149414 88.96319580078125 94.69510650634766 86.23794555664062 84.32064819335938 C 89.20023345947266 73.68233489990234 96.81036376953125 66.57176971435547 106.97926330566406 63.99930953979492 C 116.99940490722656 66.68095397949219 124.32044219970703 74.00019836425781 127.0 84.00000762939453" stroke-width="0.0" fill="rgb(165, 162, 164)" opacity="1.0"/>
    <path d="M 39.75040054321289 270.187744140625 C 36.98708724975586 280.59222412109375 29.5320987701416 287.8019104003906 18.863794326782227 290.40313720703125 C 8.427396774291992 287.8803405761719 1.0251643657684326 280.6033020019531 -1.7486581802368164 269.81512451171875 C 0.9668077826499939 259.320068359375 8.317307472229004 251.9590606689453 18.87325668334961 249.20884704589844 C 29.63237190246582 251.99325561523438 36.95305252075195 259.3872985839844 39.75040054321289 270.187744140625" stroke-width="0.0" fill="rgb(175, 171, 175)" opacity="0.99302644"/>
    <path d="M 501.6528015136719 97.23938751220703 C 498.9548034667969 107.6055908203125 491.61376953125 114.97721862792969 480.9116516113281 117.74266815185547 C 470.3805847167969 114.99823760986328 463.1300048828125 107.57772827148438 460.7228698730469 97.26666259765625 C 463.5943298339844 86.85801696777344 470.757080078125 79.29241943359375 481.1737365722656 76.31718444824219 C 491.53851318359375 79.09202575683594 498.8554992675781 86.4791030883789 501.6528015136719 97.23938751220703" stroke-width="0.0" fill="rgb(186, 181, 188)" opacity="0.99322164"/>
    <path d="M 542.7640991210938 253.106201171875 C 539.9335327148438 263.57513427734375 532.5714111328125 270.9201354980469 522.3743896484375 273.4372253417969 C 512.000244140625 270.3202819824219 504.6757507324219 263.00079345703125 501.4177551269531 252.5511016845703 C 504.0303039550781 242.39019775390625 511.3931884765625 235.03826904296875 521.68212890625 232.3446502685547 C 532.3651123046875 235.26235961914062 539.8092041015625 242.60935974121094 542.7640991210938 253.106201171875" stroke-width="0.0" fill="rgb(195, 192, 197)" opacity="0.99387395"/>
    <path d="M 102.75336456298828 116.37944030761719 C 99.32059478759766 127.0000228881836 92.0 134.3205108642578 81.99826049804688 137.0007781982422 C 71.96886444091797 134.33401489257812 64.48942565917969 127.0863265991211 61.34074020385742 116.59492492675781 C 63.976261138916016 106.30640411376953 71.29014587402344 98.9294662475586 82.09151458740234 96.16514587402344 C 92.72917938232422 98.91337585449219 100.0745620727539 106.27578735351562 102.75336456298828 116.37944030761719" stroke-width="0.0" fill="rgb(166, 162, 164)" opacity="1.0"/>
    <path d="M 562.7540893554688 298.33258056640625 C 559.9277954101562 308.38470458984375 551.8023681640625 314.72967529296875 542.1126708984375 317.1087341308594 C 532.4500122070312 314.6802062988281 524.7267456054688 307.75994873046875 521.9367065429688 298.0331726074219 C 524.6795043945312 288.0 532.0 280.67950439453125 542.3609619140625 277.5858459472656 C 552.5720825195312 280.0858459472656 559.9159545898438 287.42755126953125 562.7540893554688 298.33258056640625" stroke-width="0.0" fill="rgb(195, 190, 193)" opacity="0.9900729"/>
    <path d="M 39.77880859375 432.79669189453125 C 36.997615814208984 443.6397399902344 29.63059425354004 450.97088623046875 18.982667922973633 453.7317810058594 C 8.408822059631348 450.94134521484375 1.024160385131836 443.604248046875 -1.6655280590057373 433.31597900390625 C 1.2391436100006104 422.669921875 8.757598876953125 415.51080322265625 19.245248794555664 412.72412109375 C 29.584941864013672 415.131591796875 37.02448272705078 422.3634948730469 39.77880859375 432.79669189453125" stroke-width="0.0" fill="rgb(176, 172, 176)" opacity="0.9925654"/>
    <path d="M 134.681396484375 410.3185119628906 C 131.88729858398438 420.4057922363281 124.32659149169922 427.70819091796875 114.35958099365234 430.6009826660156 C 103.99895477294922 427.32391357421875 96.67945098876953 420.0001220703125 93.99530029296875 409.9901123046875 C 96.6148452758789 399.869140625 103.73541259765625 392.2350769042969 114.21312713623047 389.22186279296875 C 124.52938842773438 392.0826721191406 131.90713500976562 399.4744567871094 134.681396484375 410.3185119628906" stroke-width="0.0" fill="rgb(191, 188, 191)" opacity="0.99038666"/>
    <path d="M 286.1949462890625 69.20418548583984 C 283.7763366699219 79.4891128540039 276.53961181640625 86.93206787109375 265.71484375 89.79348754882812 C 255.3798828125 86.99486541748047 248.05126953125 79.6038589477539 245.4050750732422 69.39974212646484 C 248.61044311523438 58.97378921508789 255.9931182861328 51.676971435546875 265.9997863769531 48.99991989135742 C 276.0 51.67949295043945 283.32049560546875 59.0 286.1949462890625 69.20418548583984" stroke-width="0.0" fill="rgb(182, 179, 183)" opacity="0.99202514"/>
    <path d="M 56.779781341552734 352.4003601074219 C 53.982574462890625 362.58837890625 46.550743103027344 369.8753356933594 36.32178497314453 372.37872314453125 C 25.99994468688965 369.32061767578125 18.679481506347656 362.0000305175781 16.008678436279297 352.00244140625 C 18.679738998413086 342.00006103515625 26.000001907348633 334.67950439453125 36.044124603271484 331.96807861328125 C 46.233829498291016 334.5133972167969 53.77913284301758 341.6692810058594 56.779781341552734 352.4003601074219" stroke-width="0.0" fill="rgb(180, 176, 180)" opacity="0.9924336"/>
    <path d="M 116.9999008178711 41.99987030029297 C 114.31999969482422 51.99928283691406 106.99895477294922 59.318878173828125 96.9985580444336 61.99845504760742 C 86.99920654296875 59.32143020629883 79.67880249023438 52.0007209777832 76.68427276611328 41.70978927612305 C 79.15294647216797 31.49970817565918 86.52103424072266 24.2229061126709 96.79330444335938 21.805387496948242 C 107.0 24.67949104309082 114.32051086425781 32.0 116.9999008178711 41.99987030029297" stroke-width="0.0" fill="rgb(159, 156, 158)" opacity="1.0"/>
    <path d="M 396.7335510253906 53.17738342285156 C 393.9469909667969 63.50407791137695 386.3573303222656 70.41670227050781 376.3553161621094 72.34913635253906 C 366.4546203613281 69.78076934814453 359.17669677734375 62.562416076660156 355.6091003417969 52.35142517089844 C 357.96771240234375 42.33943176269531 365.3594665527344 35.022708892822266 375.572509765625 32.40974807739258 C 386.3545227050781 35.401710510253906 393.8767395019531 42.554019927978516 396.7335510253906 53.17738342285156" stroke-width="0.0" fill="rgb(185, 182, 186)" opacity="0.9900978"/>
    <path d="M 139.35305786132812 588.4744262695312 C 136.82960510253906 597.6281127929688 129.71878051757812 605.1043701171875 119.9352798461914 607.9492797851562 C 110.0 605.3204956054688 102.67948913574219 598.0 100.03233337402344 588.061767578125 C 102.9713363647461 578.4576416015625 110.66123962402344 571.4904174804688 119.18692779541016 568.9677124023438 C 129.09823608398438 571.6082763671875 136.46678161621094 578.87646484375 139.35305786132812 588.4744262695312" stroke-width="0.0" fill="rgb(10, 10, 11)" opacity="0.99001837"/>
    <path d="M 184.01864624023438 197.0264892578125 C 181.426025390625 207.15252685546875 174.220947265625 214.64109802246094 163.63143920898438 217.66282653808594 C 153.40928649902344 214.9645233154297 146.1249237060547 207.56118774414062 143.56617736816406 197.15086364746094 C 146.24424743652344 186.5637969970703 153.55984497070312 179.23133850097656 163.78024291992188 176.77015686035156 C 174.0 179.6794891357422 181.3205108642578 187.0 184.01864624023438 197.0264892578125" stroke-width="0.0" fill="rgb(187, 184, 186)" opacity="0.9942454"/>
    <path d="M 588.7542724609375 164.17446899414062 C 585.9280395507812 174.56216430664062 578.5658569335938 181.9359893798828 568.3931884765625 184.62451171875 C 557.9718017578125 181.39622497558594 550.677001953125 174.0069122314453 547.724365234375 163.7493896484375 C 550.196044921875 153.52198791503906 557.50830078125 146.15231323242188 568.3388061523438 143.26963806152344 C 578.533203125 146.0823516845703 585.9013061523438 153.47216796875 588.7542724609375 164.17446899414062" stroke-width="0.0" fill="rgb(187, 185, 188)" opacity="0.9925561"/>
    <path d="M 139.94100952148438 366.8544006347656 C 137.23634338378906 376.8912658691406 129.8820343017578 384.2137756347656 119.78362274169922 386.8591613769531 C 108.95272827148438 383.4288635253906 101.67259979248047 376.01690673828125 98.7527847290039 365.7914733886719 C 101.27369689941406 355.616943359375 108.62118530273438 348.2867126464844 119.00678253173828 345.6035461425781 C 129.353759765625 348.2958068847656 136.75653076171875 355.63018798828125 139.94100952148438 366.8544006347656" stroke-width="0.0" fill="rgb(192, 188, 191)" opacity="1.0"/>
    <path d="M 30.034587860107422 324.9796447753906 C 27.32050895690918 335.0 20.000043869018555 342.3206481933594 9.46813678741455 345.7062072753906 C -0.45029813051223755 342.9333190917969 -7.517458438873291 335.3017883300781 -10.041399002075195 325.0257568359375 C -7.416839122772217 314.8490905761719 -0.22538992762565613 307.3502197265625 9.787369728088379 304.68292236328125 C 20.01255226135254 307.67218017578125 27.356151580810547 314.9790344238281 30.034587860107422 324.9796447753906" stroke-width="0.0" fill="rgb(173, 169, 174)" opacity="1.0"/>
    <path d="M 125.29039764404297 29.702438354492188 C 122.32051086425781 40.0 115.0 47.32050704956055 105.0 50.0 C 95.0 47.32050704956055 87.67948913574219 40.0 84.25167083740234 29.399385452270508 C 86.95767974853516 19.319190979003906 94.30802917480469 11.930140495300293 104.71173095703125 9.129805564880371 C 115.66303253173828 11.947832107543945 122.89895629882812 19.38852882385254 125.29039764404297 29.702438354492188" stroke-width="0.0" fill="rgb(156, 153, 155)" opacity="1.0"/>
    <path d="M 555.2009887695312 291.8035888671875 C 552.3150634765625 301.98907470703125 544.976318359375 309.2714538574219 534.9942626953125 311.80694580078125 C 525.0172729492188 309.2823486328125 517.6829833984375 301.9927673339844 514.9893188476562 291.99298095703125 C 517.6541748046875 281.9490661621094 524.89599609375 274.4846496582031 535.2068481445312 271.4888916015625 C 545.4501953125 274.1851806640625 552.7412109375 281.5726318359375 555.2009887695312 291.8035888671875" stroke-width="0.0" fill="rgb(195, 193, 197)" opacity="0.9917985"/>
    <path d="M 135.00045776367188 197.998779296875 C 132.3205108642578 208.0 125.0 215.3205108642578 115.0 218.0 C 105.0 215.3205108642578 97.67948913574219 208.0 94.99018859863281 197.9833221435547 C 97.59805297851562 187.86273193359375 104.7710189819336 180.31915283203125 115.06759643554688 177.34207153320312 C 125.11573028564453 180.41815185546875 132.33358764648438 187.965576171875 135.00045776367188 197.998779296875" stroke-width="0.0" fill="rgb(181, 178, 180)" opacity="1.0"/>
    <path d="M 26.784963607788086 522.7720947265625 C 24.01552963256836 533.6672973632812 16.672283172607422 541.029541015625 6.453127861022949 543.7290649414062 C -4.161092758178711 540.6155395507812 -11.35797119140625 533.0767822265625 -14.00439167022705 523.002197265625 C -11.345486640930176 512.9462280273438 -4.127457618713379 505.4261779785156 6.458071231842041 502.26702880859375 C 16.682144165039062 504.9700927734375 24.04888343811035 512.3107299804688 26.784963607788086 522.7720947265625" stroke-width="0.0" fill="rgb(169, 165, 169)" opacity="0.99201137"/>
    <path d="M 133.33624267578125 36.6790771484375 C 130.31622314453125 46.9968376159668 122.99697875976562 54.31669998168945 112.99779510498047 56.993404388427734 C 102.99981689453125 54.32073211669922 95.6795654296875 47.00009536743164 93.00189971923828 37.00043487548828 C 95.68058013916016 27.0008544921875 103.0008316040039 19.680511474609375 113.3371810913086 16.622303009033203 C 123.56510925292969 19.101512908935547 130.89239501953125 26.43657684326172 133.33624267578125 36.6790771484375" stroke-width="0.0" fill="rgb(161, 157, 161)" opacity="0.99809486"/>
    <path d="M 147.0006561279297 280.00018310546875 C 144.3221435546875 290.0042724609375 137.0148468017578 297.3589782714844 126.52592468261719 300.6191101074219 C 116.39575958251953 297.9826354980469 109.08860778808594 290.57879638671875 106.5094985961914 280.38568115234375 C 109.68060302734375 270.0006408691406 117.00048828125 262.68011474609375 127.00022888183594 260.0013122558594 C 136.9998779296875 262.67974853515625 144.320556640625 270.0000305175781 147.0006561279297 280.00018310546875" stroke-width="0.0" fill="rgb(186, 182, 185)" opacity="0.99730575"/>
    <path d="M 602.64599609375 127.75613403320312 C 599.9268798828125 138.61227416992188 592.641357421875 146.0135498046875 582.2623291015625 148.75672912597656 C 571.4066162109375 145.94741821289062 564.0703735351562 138.5876922607422 561.3133544921875 127.7972412109375 C 564.0286254882812 117.39085388183594 571.4024047851562 110.0620346069336 582.2122802734375 107.27718353271484 C 592.6355590820312 110.01407623291016 599.9943237304688 117.36087036132812 602.64599609375 127.75613403320312" stroke-width="0.0" fill="rgb(182, 180, 182)" opacity="0.99330324"/>
    <path d="M 123.2833251953125 254.7517547607422 C 120.32035827636719 265.00006103515625 113.0002212524414 272.3209533691406 102.91188049316406 275.1752624511719 C 92.94630432128906 272.43121337890625 85.67576599121094 265.02166748046875 82.29549407958984 254.43724060058594 C 84.98802947998047 244.35935974121094 92.37007904052734 237.01792907714844 102.76850128173828 234.27085876464844 C 113.48091888427734 237.1386260986328 120.79023742675781 244.54217529296875 123.2833251953125 254.7517547607422" stroke-width="0.0" fill="rgb(182, 178, 181)" opacity="1.0"/>
    <path d="M 300.7201843261719 16.847734451293945 C 297.7398986816406 27.274763107299805 290.1681823730469 34.42216873168945 280.0212707519531 37.012569427490234 C 270.0 34.32050704956055 262.67950439453125 27.0 260.0010070800781 17.000600814819336 C 262.68072509765625 7.000979423522949 270.0008850097656 -0.31960031390190125 280.0189208984375 -3.0095088481903076 C 290.17877197265625 -0.4206271767616272 297.79962158203125 6.68915319442749 300.7201843261719 16.847734451293945" stroke-width="0.0" fill="rgb(172, 170, 173)" opacity="1.0"/>
    <path d="M 305.0002136230469 54.000205993652344 C 302.3210754394531 64.00060272216797 295.0007019042969 71.3215103149414 285.00079345703125 74.00160217285156 C 275.00006103515625 71.32049560546875 267.6796569824219 63.999908447265625 264.9653625488281 53.96695327758789 C 267.59051513671875 43.91524887084961 274.9187316894531 36.60207748413086 284.9739685058594 33.97525405883789 C 295.0 36.67949295043945 302.32049560546875 44.0 305.0002136230469 54.000205993652344" stroke-width="0.0" fill="rgb(182, 179, 180)" opacity="0.9994522"/>
    <path d="M 224.06724548339844 109.91655731201172 C 221.3205108642578 120.0 214.0 127.32051086425781 203.57972717285156 130.50225830078125 C 193.37107849121094 127.96168518066406 185.9840850830078 120.6479721069336 183.262451171875 110.29124450683594 C 186.06556701660156 99.4212417602539 193.41140747070312 92.03587341308594 203.68072509765625 89.2236557006836 C 214.405517578125 92.16474151611328 221.5795135498047 99.67827606201172 224.06724548339844 109.91655731201172" stroke-width="0.0" fill="rgb(178, 175, 178)" opacity="1.0"/>
    <path d="M 544.4876708984375 61.578819274902344 C 541.3204956054688 72.00000762939453 534.0 79.32051086425781 524.0 82.0 C 514.0 79.32051849365234 506.67889404296875 72.00018310546875 503.3850402832031 61.489994049072266 C 505.9754638671875 51.31831741333008 513.3046875 43.93781280517578 523.573974609375 41.18718338012695 C 534.615478515625 44.03476333618164 541.9646606445312 51.38412857055664 544.4876708984375 61.578819274902344" stroke-width="0.0" fill="rgb(176, 174, 177)" opacity="1.0"/>
    <path d="M 228.79611206054688 20.54440689086914 C 225.83180236816406 31.394323348999023 218.29904174804688 38.54087829589844 207.73788452148438 41.306617736816406 C 197.37962341308594 38.90229797363281 189.94256591796875 31.67190170288086 187.16429138183594 20.812772750854492 C 189.90354919433594 10.260710716247559 197.27005004882812 2.928494453430176 207.76148986816406 0.20202404260635376 C 218.66748046875 2.9852399826049805 226.04698181152344 10.32078742980957 228.79611206054688 20.54440689086914" stroke-width="0.0" fill="rgb(166, 164, 166)" opacity="1.0"/>
    <path d="M 566.4788208007812 178.396240234375 C 563.9334716796875 188.58920288085938 556.5956420898438 195.9530487060547 546.12353515625 198.69015502929688 C 535.425048828125 195.918212890625 528.0498046875 188.5863037109375 525.4796142578125 178.42767333984375 C 528.6795043945312 168.0 536.0 160.6794891357422 546.0 158.0 C 556.0 160.67950439453125 563.3204956054688 168.00001525878906 566.4788208007812 178.396240234375" stroke-width="0.0" fill="rgb(191, 188, 192)" opacity="0.99382555"/>
    <path d="M 250.8018035888672 107.72584533691406 C 247.99708557128906 118.65379333496094 240.66102600097656 126.01670837402344 230.49781799316406 128.5877227783203 C 219.99998474121094 125.32051849365234 212.67942810058594 118.00003051757812 209.91400146484375 107.90142059326172 C 212.40081787109375 97.67623901367188 219.6184844970703 90.21856689453125 230.40013122558594 87.2916259765625 C 240.65379333496094 89.985595703125 248.02340698242188 97.34309387207031 250.8018035888672 107.72584533691406" stroke-width="0.0" fill="rgb(183, 181, 184)" opacity="0.99215144"/>
    <path d="M 47.809410095214844 160.13893127441406 C 45.03998565673828 170.66558837890625 37.643089294433594 177.97938537597656 26.620834350585938 180.8120574951172 C 16.35285758972168 178.0465850830078 9.118972778320312 170.5892333984375 6.686376571655273 160.29547119140625 C 9.679491996765137 150.0 17.0 142.6794891357422 27.078441619873047 139.9464111328125 C 37.373069763183594 142.4036102294922 44.94020080566406 149.51023864746094 47.809410095214844 160.13893127441406" stroke-width="0.0" fill="rgb(168, 165, 168)" opacity="0.9926041"/>
    <path d="M 243.9678497314453 587.5720825195312 C 241.24241638183594 597.8833618164062 233.84085083007812 605.1182250976562 222.98324584960938 607.6331787109375 C 212.16168212890625 605.1180419921875 204.76321411132812 597.8785400390625 202.03683471679688 587.1931762695312 C 204.82290649414062 576.7569580078125 213.81723022460938 570.5925903320312 223.4741668701172 567.9747314453125 C 232.2394561767578 570.5772705078125 241.19544982910156 576.413818359375 243.9678497314453 587.5720825195312" stroke-width="0.0" fill="rgb(3, 2, 2)" opacity="0.9900138"/>
    <path d="M 198.65057373046875 192.19668579101562 C 195.92955017089844 202.57708740234375 188.5769500732422 209.92823791503906 178.375244140625 212.49453735351562 C 167.98936462402344 209.34852600097656 160.67832946777344 202.0030059814453 158.00033569335938 192.00013732910156 C 160.67953491210938 182.00001525878906 168.0 174.6794891357422 178.21176147460938 171.75721740722656 C 188.4169158935547 174.25689697265625 195.81028747558594 181.56155395507812 198.65057373046875 192.19668579101562" stroke-width="0.0" fill="rgb(189, 186, 188)" opacity="0.99162793"/>
    <path d="M 481.7088928222656 2.55389404296875 C 478.99981689453125 12.6226167678833 471.60845947265625 19.962215423583984 460.830078125 22.80927276611328 C 450.3468017578125 20.017356872558594 442.9788818359375 12.654253959655762 440.2735900878906 2.576345443725586 C 443.68304443359375 -7.998827934265137 451.0002136230469 -15.320436477661133 461.0 -17.999998092651367 C 471.0000305175781 -15.320516586303711 478.3206787109375 -8.000077247619629 481.7088928222656 2.55389404296875" stroke-width="0.0" fill="rgb(175, 174, 177)" opacity="0.99150646"/>
    <path d="M 34.694419860839844 408.2206115722656 C 31.793354034423828 418.32379150390625 24.211170196533203 425.462158203125 13.88530445098877 428.1581115722656 C 3.667620897293091 425.6517333984375 -3.6580746173858643 418.3343200683594 -6.318459987640381 407.8750915527344 C -3.831019401550293 397.455078125 3.413761854171753 390.03863525390625 13.64767074584961 387.4201965332031 C 24.4385986328125 390.2540283203125 31.827762603759766 397.53582763671875 34.694419860839844 408.2206115722656" stroke-width="0.0" fill="rgb(174, 170, 174)" opacity="1.0"/>
    <path d="M 29.999942779541016 147.99993896484375 C 27.32033348083496 157.9998321533203 19.999858856201172 165.32044982910156 9.741480827331543 168.39407348632812 C -0.26550546288490295 165.6920928955078 -7.452643394470215 158.18870544433594 -10.023120880126953 148.03375244140625 C -7.320055961608887 138.00074768066406 0.0013034894363954663 130.68185424804688 10.001389503479004 128.005126953125 C 19.999948501586914 130.6796417236328 27.320505142211914 138.00001525878906 29.999942779541016 147.99993896484375" stroke-width="0.0" fill="rgb(162, 158, 161)" opacity="1.0"/>
    <path d="M 303.5050354003906 142.42333984375 C 300.9539794921875 152.5933074951172 293.5807189941406 159.91746520996094 282.907958984375 162.65390014648438 C 272.4239807128906 159.93357849121094 265.0977478027344 152.56565856933594 262.2635803222656 141.7630615234375 C 265.1542663574219 131.62942504882812 272.7520751953125 124.50801849365234 282.9559631347656 121.96924591064453 C 293.0 124.67949676513672 300.32061767578125 131.9999542236328 303.5050354003906 142.42333984375" stroke-width="0.0" fill="rgb(193, 189, 193)" opacity="0.9913223"/>
    <path d="M 571.7715454101562 82.437255859375 C 568.9718017578125 92.585693359375 561.580078125 99.95697784423828 550.7606201171875 102.8218002319336 C 540.362548828125 100.02154541015625 533.0772094726562 92.60282135009766 530.5232543945312 82.38243103027344 C 533.6796264648438 72.0002212524414 541.0004272460938 64.68038940429688 551.0103759765625 61.99941635131836 C 561.1124877929688 64.61959075927734 568.671875 71.790771484375 571.7715454101562 82.437255859375" stroke-width="0.0" fill="rgb(177, 175, 178)" opacity="0.99481845"/>
    <path d="M 232.76748657226562 46.06913375854492 C 230.01004028320312 56.64611053466797 222.63119506835938 63.967952728271484 211.88475036621094 66.74376678466797 C 201.39041137695312 63.97087478637695 194.0142059326172 56.61531066894531 191.2394561767578 46.23216247558594 C 194.17404174804688 35.64060974121094 201.75686645507812 28.515705108642578 212.25732421875 25.70574951171875 C 222.5591583251953 28.13657569885254 229.97393798828125 35.40483474731445 232.76748657226562 46.06913375854492" stroke-width="0.0" fill="rgb(173, 169, 173)" opacity="0.99330044"/>
    <path d="M 123.00946807861328 414.0165710449219 C 120.40068817138672 424.1396484375 113.26069641113281 431.7500915527344 102.97563171386719 434.7314453125 C 92.39374542236328 431.95086669921875 85.04364776611328 424.6080017089844 82.32609558105469 414.099853515625 C 85.07044219970703 403.425048828125 92.44351196289062 396.1296081542969 102.71101379394531 393.69781494140625 C 112.99958038330078 396.67901611328125 120.31935119628906 404.0008850097656 123.00946807861328 414.0165710449219" stroke-width="0.0" fill="rgb(185, 181, 184)" opacity="1.0"/>
    <path d="M 491.75689697265625 38.91276931762695 C 488.9525451660156 49.57991027832031 481.5484313964844 56.85421371459961 471.27337646484375 59.27245330810547 C 461.0014953613281 56.31794738769531 453.68017578125 48.99905014038086 450.96026611328125 38.94395446777344 C 453.4769592285156 28.723369598388672 460.62811279296875 21.187286376953125 471.28729248046875 18.27005386352539 C 481.6535339355469 20.997255325317383 489.01104736328125 28.3433895111084 491.75689697265625 38.91276931762695" stroke-width="0.0" fill="rgb(176, 174, 181)" opacity="1.0"/>
    <path d="M 273.4418029785156 47.62956619262695 C 270.3195495605469 57.999027252197266 262.99896240234375 65.31932067871094 252.62850952148438 68.41139221191406 C 242.38182067871094 65.93978118896484 234.98605346679688 58.643211364746094 232.19683837890625 48.00282287597656 C 235.03077697753906 37.41069793701172 242.42388916015625 30.068050384521484 253.1737518310547 27.26152992248535 C 263.5985107421875 30.026323318481445 270.915283203125 37.42177963256836 273.4418029785156 47.62956619262695" stroke-width="0.0" fill="rgb(178, 175, 177)" opacity="1.0"/>
    <path d="M 122.0 211.0 C 119.32051086425781 221.0 112.00009155273438 228.3208465576172 101.5321273803711 231.57167053222656 C 91.33840942382812 228.99459838867188 83.95691680908203 221.6789093017578 81.26185607910156 211.39810180664062 C 84.23616027832031 200.6844482421875 91.78020477294922 193.52615356445312 101.96062469482422 190.97262573242188 C 112.0 193.6794891357422 119.32051086425781 201.0 122.0 211.0" stroke-width="0.0" fill="rgb(179, 176, 179)" opacity="1.0"/>
    <path d="M 274.5941467285156 262.1000061035156 C 271.84283447265625 272.51385498046875 264.55975341796875 279.9668884277344 253.69650268554688 282.7298889160156 C 243.40176391601562 279.986083984375 236.1171417236328 272.5622863769531 233.4168243408203 262.0782775878906 C 236.23199462890625 251.5838165283203 243.58250427246094 244.22906494140625 254.2373046875 241.3313751220703 C 264.4647216796875 244.15225219726562 271.7931213378906 251.55319213867188 274.5941467285156 262.1000061035156" stroke-width="0.0" fill="rgb(197, 192, 196)" opacity="1.0"/>
    <path d="M 317.2000732421875 233.69715881347656 C 314.1369323730469 244.05023193359375 307.2033996582031 251.64047241210938 296.7873840332031 254.59031677246094 C 286.45672607421875 251.8697052001953 279.047607421875 244.572021484375 276.3556823730469 234.47262573242188 C 279.6566467285156 223.99078369140625 286.9930114746094 216.6646270751953 297.18890380859375 213.63902282714844 C 307.275634765625 216.3292694091797 314.474609375 223.78411865234375 317.2000732421875 233.69715881347656" stroke-width="0.0" fill="rgb(203, 199, 203)" opacity="0.9901667"/>
    <path d="M 237.69595336914062 135.9362030029297 C 234.82728576660156 146.43211364746094 227.4133758544922 153.7746124267578 217.2898406982422 156.40786743164062 C 206.99984741210938 153.32081604003906 199.6795654296875 146.0000457763672 196.80584716796875 135.89682006835938 C 199.54356384277344 125.93101501464844 206.96827697753906 118.66568756103516 217.04324340820312 115.97560119628906 C 227.266357421875 118.49884796142578 234.8336944580078 125.62225341796875 237.69595336914062 135.9362030029297" stroke-width="0.0" fill="rgb(184, 181, 184)" opacity="0.99317694"/>
    <path d="M 28.998186111450195 368.9973449707031 C 26.319189071655273 378.9990234375 18.99889373779297 386.3186340332031 8.652116775512695 389.5320739746094 C -1.2682558298110962 386.73736572265625 -8.416221618652344 379.1600036621094 -11.028563499450684 368.9903259277344 C -8.455159187316895 358.782958984375 -1.3395041227340698 351.1868896484375 8.704298973083496 348.3349914550781 C 19.095600128173828 351.4773254394531 26.336734771728516 358.9629211425781 28.998186111450195 368.9973449707031" stroke-width="0.0" fill="rgb(177, 173, 177)" opacity="1.0"/>
    <path d="M 330.7304382324219 48.78700637817383 C 327.966064453125 59.621131896972656 320.6274719238281 66.98456573486328 310.46533203125 69.55996704101562 C 300.00067138671875 66.31917572021484 292.6797180175781 58.99964904785156 289.99725341796875 48.994014739990234 C 292.6402282714844 38.918880462646484 299.8284606933594 31.36664581298828 310.33880615234375 28.30075454711914 C 320.6153564453125 31.03240394592285 327.9991455078125 38.37266159057617 330.7304382324219 48.78700637817383" stroke-width="0.0" fill="rgb(182, 179, 183)" opacity="0.9922931"/>
    <path d="M 564.0015869140625 173.9964141845703 C 561.3204956054688 184.0 553.9999389648438 191.32040405273438 543.991943359375 194.0038604736328 C 533.9166870117188 191.36526489257812 526.417236328125 184.1528778076172 523.283447265625 173.57818603515625 C 526.0946655273438 163.4984893798828 533.5018310546875 156.10264587402344 543.5966796875 153.2881622314453 C 554.10302734375 156.4786376953125 561.3438720703125 163.95257568359375 564.0015869140625 173.9964141845703" stroke-width="0.0" fill="rgb(190, 185, 189)" opacity="0.99498314"/>
    <path d="M 126.70951080322266 587.3499755859375 C 123.98816680908203 598.606689453125 116.54627990722656 605.792236328125 106.16455841064453 608.1798095703125 C 96.1550521850586 605.3262329101562 89.28785705566406 597.6128540039062 86.89970397949219 588.38623046875 C 89.45902252197266 578.7374267578125 96.74166870117188 571.4688720703125 106.74269104003906 568.8653564453125 C 116.83271789550781 569.8618774414062 124.18507385253906 577.1533813476562 126.70951080322266 587.3499755859375" stroke-width="0.0" fill="rgb(116, 117, 123)" opacity="0.9900434"/>
    <path d="M 127.0 202.0 C 124.32051086425781 212.0 117.0 219.3205108642578 107.0 222.0 C 97.0 219.3205108642578 89.67948913574219 212.0 86.31100463867188 201.47784423828125 C 89.03361511230469 191.4021759033203 96.40058898925781 184.0316162109375 106.52775573730469 181.4040985107422 C 117.00012969970703 184.67919921875 124.3205337524414 191.9999542236328 127.0 202.0" stroke-width="0.0" fill="rgb(178, 175, 178)" opacity="1.0"/>
    <path d="M 311.04302978515625 44.93621063232422 C 308.3195495605469 54.99911117553711 300.9990234375 62.319244384765625 290.9997253417969 64.99725341796875 C 281.00030517578125 62.31998062133789 273.6797180175781 54.99977493286133 270.65435791015625 44.783817291259766 C 273.3766174316406 34.809085845947266 280.88433837890625 27.61092185974121 291.3912353515625 24.467987060546875 C 301.42083740234375 27.136783599853516 308.5515441894531 34.682212829589844 311.04302978515625 44.93621063232422" stroke-width="0.0" fill="rgb(181, 175, 180)" opacity="1.0"/>
    <path d="M 208.800048828125 253.30934143066406 C 206.01821899414062 263.64483642578125 198.6293487548828 270.97491455078125 187.7626953125 273.77703857421875 C 177.45994567871094 270.96441650390625 170.28204345703125 263.4565734863281 167.85821533203125 253.1543426513672 C 170.6551513671875 242.94683837890625 177.877685546875 235.43917846679688 188.32974243164062 232.3556365966797 C 198.5835418701172 235.05035400390625 205.92860412597656 242.42466735839844 208.800048828125 253.30934143066406" stroke-width="0.0" fill="rgb(193, 190, 191)" opacity="0.9913713"/>
    <path d="M 242.65594482421875 174.91448974609375 C 239.91749572753906 185.5809783935547 232.59091186523438 192.947265625 222.0161590576172 195.69937133789062 C 211.4121551513672 192.94422912597656 204.0699920654297 185.5828094482422 201.38526916503906 175.3483428955078 C 204.52218627929688 164.9170379638672 211.9363250732422 157.58334350585938 222.41148376464844 154.411865234375 C 232.59225463867188 157.05001831054688 239.93641662597656 164.4123992919922 242.65594482421875 174.91448974609375" stroke-width="0.0" fill="rgb(188, 184, 188)" opacity="0.9945398"/>
    <path d="M 135.89353942871094 477.6790771484375 C 133.11973571777344 488.754638671875 125.73955535888672 496.0807189941406 114.79717254638672 498.8560791015625 C 104.43159484863281 496.0108642578125 97.24475860595703 488.4742736816406 94.80580139160156 478.1932373046875 C 97.67948913574219 468.0 105.0 460.67950439453125 115.519287109375 457.4073181152344 C 125.69881439208984 459.9547119140625 133.09046936035156 467.28497314453125 135.89353942871094 477.6790771484375" stroke-width="0.0" fill="rgb(206, 198, 202)" opacity="1.0"/>
    <path d="M 108.82146453857422 538.3170166015625 C 106.10102844238281 549.78759765625 98.82380676269531 557.1944580078125 87.64446258544922 559.9568481445312 C 77.3133544921875 557.188720703125 71.48236846923828 548.522216796875 68.9402084350586 539.0769653320312 C 71.52642822265625 529.8167724609375 78.82189178466797 522.5380249023438 88.86138153076172 519.90478515625 C 98.86943817138672 520.7988891601562 106.19819641113281 528.1318359375 108.82146453857422 538.3170166015625" stroke-width="0.0" fill="rgb(23, 20, 25)" opacity="0.9900088"/>
    <path d="M 133.47653198242188 216.37254333496094 C 130.89244079589844 226.5430908203125 123.5497817993164 233.9116973876953 113.03466033935547 236.68443298339844 C 102.59326934814453 233.85150146484375 95.46585845947266 226.30181884765625 92.9659652709961 216.05650329589844 C 95.68089294433594 206.00088500976562 103.0006103515625 198.679931640625 113.00011444091797 196.00009155273438 C 123.0 198.6794891357422 130.3205108642578 206.0 133.47653198242188 216.37254333496094" stroke-width="0.0" fill="rgb(181, 178, 182)" opacity="0.9940065"/>
    <path d="M 593.9520263671875 565.8604736328125 C 591.2505493164062 575.9143676757812 583.9152221679688 583.252685546875 573.4063110351562 585.9695434570312 C 562.1075439453125 583.2459716796875 554.8536376953125 575.8582763671875 553.0279541015625 565.7265014648438 C 556.5066528320312 555.8602905273438 563.8965454101562 548.610107421875 572.8270874023438 545.9766235351562 C 582.0873413085938 548.6175537109375 589.5140991210938 555.87939453125 593.9520263671875 565.8604736328125" stroke-width="0.0" fill="rgb(2, 2, 2)" opacity="0.99000746"/>
    <path d="M 121.66786193847656 467.8302917480469 C 119.0714111328125 477.8031311035156 111.8012924194336 485.06488037109375 101.53961944580078 488.1723937988281 C 91.45528411865234 485.8995666503906 84.08480834960938 478.54998779296875 81.29767608642578 467.96258544921875 C 84.06043243408203 457.420654296875 91.41767883300781 450.05218505859375 101.66546630859375 447.3290710449219 C 112.04710388183594 450.46710205078125 119.24410247802734 458.04949951171875 121.66786193847656 467.8302917480469" stroke-width="0.0" fill="rgb(184, 178, 182)" opacity="0.9901661"/>
    <path d="M 104.50982666015625 122.74657440185547 C 101.35497283935547 133.0118865966797 94.00162506103516 140.31912231445312 83.99911499023438 142.9971923828125 C 74.00008392333984 140.3201904296875 66.67902374267578 133.00013732910156 63.99921417236328 123.00103759765625 C 66.68045806884766 113.00078582763672 74.00078582763672 105.68046569824219 84.00579833984375 102.99957275390625 C 94.07467651367188 105.64359283447266 101.62345886230469 112.83732604980469 104.50982666015625 122.74657440185547" stroke-width="0.0" fill="rgb(171, 167, 169)" opacity="0.99539936"/>
    <path d="M 46.76967239379883 140.594970703125 C 43.76283645629883 151.29788208007812 36.18779754638672 158.4353790283203 26.024316787719727 161.01339721679688 C 16.000072479248047 158.32041931152344 8.679647445678711 150.99990844726562 6.001344680786133 141.00038146972656 C 8.680757522583008 131.00132751464844 16.001480102539062 123.68125915527344 26.563039779663086 120.29972839355469 C 36.65485382080078 122.97344207763672 44.00333786010742 130.35421752929688 46.76967239379883 140.594970703125" stroke-width="0.0" fill="rgb(163, 159, 162)" opacity="1.0"/>
    <path d="M 528.9047241210938 308.70220947265625 C 526.1121826171875 318.44415283203125 517.361572265625 324.4875793457031 507.86810302734375 327.0521240234375 C 498.8421630859375 324.4500427246094 491.54974365234375 317.1579895019531 488.9438781738281 307.6265869140625 C 491.51470947265625 298.7373962402344 498.5442199707031 290.3725280761719 507.2638244628906 288.7878112792969 C 517.3282470703125 291.44036865234375 525.2294311523438 298.53594970703125 528.9047241210938 308.70220947265625" stroke-width="0.0" fill="rgb(70, 74, 83)" opacity="0.9900069"/>
    <path d="M 151.4209747314453 191.7651824951172 C 148.69728088378906 202.43211364746094 141.49252319335938 209.88734436035156 131.37078857421875 212.45602416992188 C 121.0 209.3205108642578 113.67948913574219 202.0 110.86856079101562 191.84945678710938 C 113.2930908203125 181.5605010986328 120.49482727050781 174.08998107910156 131.0717315673828 171.2736053466797 C 141.57728576660156 174.05091857910156 148.88201904296875 181.4449920654297 151.4209747314453 191.7651824951172" stroke-width="0.0" fill="rgb(181, 178, 180)" opacity="1.0"/>
    <path d="M 254.6132049560547 226.9680938720703 C 251.88677978515625 237.5335693359375 244.52978515625 244.87535095214844 234.13037109375 247.58786010742188 C 223.61407470703125 244.7604217529297 216.3627471923828 237.34793090820312 213.89125061035156 227.1219024658203 C 216.68045043945312 217.000732421875 224.00071716308594 209.68043518066406 234.28225708007812 206.69921875 C 244.5288543701172 209.1498260498047 251.89755249023438 216.45632934570312 254.6132049560547 226.9680938720703" stroke-width="0.0" fill="rgb(196, 189, 196)" opacity="0.9914642"/>
    <path d="M 298.99853515625 115.99903869628906 C 296.31817626953125 125.99772644042969 288.997314453125 133.31678771972656 278.7498779296875 136.24790954589844 C 268.48333740234375 133.82345581054688 261.08966064453125 126.54405975341797 258.2178955078125 115.5794677734375 C 260.97076416015625 105.34717559814453 268.3663635253906 98.02389526367188 278.5534973144531 95.46102905273438 C 289.0004577636719 98.6786880493164 296.3206481933594 105.99972534179688 298.99853515625 115.99903869628906" stroke-width="0.0" fill="rgb(189, 185, 189)" opacity="0.99347156"/>
    <path d="M 41.768131256103516 299.8377685546875 C 38.89076232910156 310.535888671875 31.543907165527344 317.90960693359375 21.377450942993164 320.4588623046875 C 10.94813346862793 317.3468933105469 3.488285541534424 310.103271484375 0.3526102900505066 299.5713806152344 C 3.028212785720825 289.4095458984375 10.45408821105957 282.16705322265625 20.921096801757812 279.6560363769531 C 31.48546600341797 282.2422180175781 38.963958740234375 289.4454650878906 41.768131256103516 299.8377685546875" stroke-width="0.0" fill="rgb(174, 173, 174)" opacity="1.0"/>
    <path d="M 139.5127410888672 206.40219116210938 C 136.89768981933594 216.4846649169922 129.40660095214844 223.65518188476562 119.11457061767578 226.09051513671875 C 108.99994659423828 223.32054138183594 101.6793212890625 216.00009155273438 99.00054931640625 206.00074768066406 C 101.6806411743164 196.00088500976562 109.0007553100586 188.6802215576172 119.0002670288086 186.00006103515625 C 128.99996948242188 188.6794891357422 136.32041931152344 196.00006103515625 139.5127410888672 206.40219116210938" stroke-width="0.0" fill="rgb(180, 180, 180)" opacity="0.9956232"/>
    <path d="M 543.0046997070312 67.01016998291016 C 540.3721313476562 77.09525299072266 533.1796875 84.63045501708984 522.5540161132812 87.71780395507812 C 512.323486328125 85.03678131103516 505.0026550292969 77.66254425048828 502.36956787109375 67.4313735961914 C 505.58294677734375 56.96211624145508 512.9898071289062 49.67653274536133 522.9994506835938 47.003814697265625 C 532.9988403320312 49.681053161621094 540.3192138671875 57.001094818115234 543.0046997070312 67.01016998291016" stroke-width="0.0" fill="rgb(177, 174, 178)" opacity="0.99247676"/>
    <path d="M 47.99468231201172 337.999267578125 C 45.318626403808594 347.9986572265625 37.99892044067383 355.31951904296875 27.907808303833008 358.0797424316406 C 17.6994571685791 355.5824279785156 10.28174877166748 348.34246826171875 7.724801540374756 338.2198791503906 C 10.67981243133545 328.00018310546875 18.000120162963867 320.6795654296875 28.122634887695312 317.72406005859375 C 38.03934860229492 320.5791015625 45.32353591918945 327.9895324707031 47.99468231201172 337.999267578125" stroke-width="0.0" fill="rgb(178, 175, 178)" opacity="0.99619347"/>
    <path d="M 184.9946746826172 167.9989013671875 C 182.31727600097656 177.99752807617188 174.9976806640625 185.31777954101562 164.85289001464844 188.11611938476562 C 154.5323028564453 185.71487426757812 147.0309295654297 178.5515594482422 144.25311279296875 168.20953369140625 C 147.07528686523438 157.45285034179688 154.4723663330078 150.13121032714844 164.65736389160156 147.5633544921875 C 175.00001525878906 150.6792755126953 182.31979370117188 158.000244140625 184.9946746826172 167.9989013671875" stroke-width="0.0" fill="rgb(184, 181, 183)" opacity="0.99334025"/>
  </g>
</svg>
