<?xml version="1.0" ?>
<svg xmlns="http://www.w3.org/2000/svg" version="1.1" width="600" height="600">
  <defs/>
  <g>
    <path d="M 509.8815002441406 90.80171203613281 C 507.1919860839844 100.79801177978516 499.71575927734375 107.97737884521484 488.19342041015625 110.9326171875 C 478.1079406738281 108.22962188720703 470.7723693847656 100.89143371582031 468.1253356933594 90.81787872314453 C 471.67950439453125 80.0 479.0 72.67948913574219 489.0 70.0 C 499.0 72.67948913574219 506.32049560546875 80.0 509.8815002441406 90.80171203613281" stroke-width="0.0" fill="rgb(217, 0, 0)" opacity="1.0"/>
    <path d="M 552.5820922851562 85.65278625488281 C 549.7586059570312 95.47943878173828 542.528564453125 102.94428253173828 532.2284545898438 106.87405395507812 C 522.2935791015625 104.14509582519531 515.2730102539062 96.5544662475586 512.930419921875 86.1131591796875 C 515.6615600585938 75.9498291015625 522.798828125 68.2551040649414 532.4261474609375 65.21033477783203 C 543.0111694335938 68.64691925048828 550.3211669921875 75.99784088134766 552.5820922851562 85.65278625488281" stroke-width="0.0" fill="rgb(5, 8, 8)" opacity="0.990032"/>
    <path d="M 608.0833740234375 335.1019287109375 C 605.6171264648438 345.352783203125 598.4183959960938 352.8236083984375 588.3448486328125 355.4718017578125 C 577.9974365234375 352.3216857910156 570.6676025390625 345.00567626953125 567.9823608398438 335.0085754394531 C 570.6795043945312 325.0 578.0 317.67950439453125 588.0 315.0 C 598.0 317.67950439453125 605.3204956054688 325.0 608.0833740234375 335.1019287109375" stroke-width="0.0" fill="rgb(152, 156, 160)" opacity="0.99008095"/>
    <path d="M 593.7567138671875 361.2915954589844 C 590.9236450195312 371.48321533203125 583.3792724609375 378.6126708984375 573.0889282226562 381.0643310546875 C 563.0 378.32049560546875 555.6795043945312 371.0 553.0 360.9999694824219 C 555.6790161132812 350.9986267089844 562.9940185546875 343.6625671386719 573.0634765625 340.75408935546875 C 583.1575927734375 343.5239562988281 590.6834716796875 350.7716064453125 593.7567138671875 361.2915954589844" stroke-width="0.0" fill="rgb(166, 168, 174)" opacity="0.990258"/>
    <path d="M 541.7703857421875 415.4015808105469 C 538.9979858398438 425.61505126953125 531.5972900390625 432.9489440917969 521.4253540039062 435.5228576660156 C 510.99993896484375 432.3205261230469 503.679931640625 424.99993896484375 501.0736389160156 414.99853515625 C 503.6805725097656 405.00030517578125 511.0 397.67950439453125 521.5084838867188 394.3631286621094 C 531.5830688476562 397.015380859375 538.8605346679688 404.4627685546875 541.7703857421875 415.4015808105469" stroke-width="0.0" fill="rgb(177, 180, 187)" opacity="1.0"/>
    <path d="M 522.005126953125 546.0100708007812 C 519.3811645507812 556.11767578125 512.22998046875 563.7108764648438 502.34613037109375 566.082275390625 C 491.9510192871094 563.42431640625 484.7040100097656 556.0083618164062 482.01519775390625 545.9865112304688 C 484.67950439453125 536.0 492.0 528.6795043945312 502.0 526.0 C 512.0 528.6795043945312 519.3204956054688 536.0 522.005126953125 546.0100708007812" stroke-width="0.0" fill="rgb(102, 25, 3)" opacity="0.9900278"/>
    <path d="M 584.1253662109375 323.0143127441406 C 581.4771118164062 333.1851501464844 574.2498779296875 340.6748352050781 564.2462158203125 343.376953125 C 553.9992065429688 340.3204345703125 546.6742553710938 333.00238037109375 544.1300659179688 322.9548645019531 C 546.6489868164062 312.9539489746094 553.9240112304688 305.5498962402344 564.028076171875 302.6910095214844 C 574.2293090820312 305.4055480957031 581.4832153320312 312.8048095703125 584.1253662109375 323.0143127441406" stroke-width="0.0" fill="rgb(180, 185, 192)" opacity="0.9902967"/>
    <path d="M 428.0 550.0 C 425.32049560546875 560.0 418.0 567.3204956054688 407.35235595703125 570.6659545898438 C 397.1570129394531 568.1624145507812 389.81109619140625 560.8516845703125 387.06036376953125 549.2491455078125 C 389.7853698730469 539.1585083007812 397.2147216796875 531.9452514648438 407.5723876953125 529.6135864257812 C 418.0 532.6795043945312 425.32049560546875 540.0 428.0 550.0" stroke-width="0.0" fill="rgb(10, 45, 2)" opacity="0.9901137"/>
    <path d="M 584.0 402.0 C 581.3204956054688 412.0 574.0 419.32049560546875 563.6038208007812 422.5100402832031 C 553.4661865234375 419.9029235839844 546.1256103515625 412.5235290527344 543.20361328125 401.59478759765625 C 546.083984375 391.5710144042969 553.7147827148438 384.4828796386719 563.9492797851562 381.96453857421875 C 574.0 384.67950439453125 581.3204956054688 392.0 584.0 402.0" stroke-width="0.0" fill="rgb(181, 185, 190)" opacity="1.0"/>
    <path d="M 352.9316101074219 48.76079559326172 C 350.1943359375 58.8018798828125 342.7155456542969 65.9452896118164 331.9515380859375 68.45938873291016 C 321.54840087890625 65.83554077148438 314.3690490722656 58.390384674072266 311.9810485839844 48.084266662597656 C 314.67950439453125 38.0 322.0 30.67949104309082 332.00274658203125 27.998987197875977 C 342.0809631347656 30.648479461669922 349.8202819824219 37.73675537109375 352.9316101074219 48.76079559326172" stroke-width="0.0" fill="rgb(113, 118, 127)" opacity="1.0"/>
    <path d="M 517.4779663085938 343.60760498046875 C 514.3204956054688 354.0 507.0 361.32049560546875 496.66705322265625 364.4338073730469 C 486.4902648925781 361.8517761230469 479.05853271484375 354.5419616699219 476.2182312011719 344.27618408203125 C 479.10198974609375 333.478759765625 486.4964599609375 326.15313720703125 497.3028259277344 323.29571533203125 C 507.6252746582031 325.9994812011719 514.9323120117188 333.3989562988281 517.4779663085938 343.60760498046875" stroke-width="0.0" fill="rgb(186, 189, 194)" opacity="1.0"/>
    <path d="M 601.4803466796875 85.2137680053711 C 598.799560546875 95.4183120727539 591.3934936523438 102.72565460205078 580.774169921875 105.65824890136719 C 570.6378784179688 102.75706481933594 563.3125 95.33979797363281 560.7446899414062 85.19976043701172 C 563.6959228515625 75.01808166503906 571.0191650390625 67.69969940185547 581.0674438476562 64.9796142578125 C 591.20556640625 67.50428771972656 598.603759765625 74.76148223876953 601.4803466796875 85.2137680053711" stroke-width="0.0" fill="rgb(204, 216, 224)" opacity="1.0"/>
    <path d="M 555.9475708007812 28.811595916748047 C 553.23583984375 38.89764404296875 545.89794921875 46.23664474487305 535.2208862304688 48.95804977416992 C 524.1044311523438 46.235107421875 516.7665405273438 38.89482498168945 514.079345703125 28.85566520690918 C 517.6694946289062 17.996889114379883 524.9996337890625 10.679372787475586 535.0028076171875 7.998980522155762 C 545.0873413085938 10.646390914916992 552.8594360351562 17.708826065063477 555.9475708007812 28.811595916748047" stroke-width="0.0" fill="rgb(196, 0, 0)" opacity="1.0"/>
    <path d="M 389.04150390625 187.94004821777344 C 386.32049560546875 198.0 379.0 205.3205108642578 368.9698486328125 208.0154571533203 C 358.88922119140625 205.42442321777344 351.5733337402344 198.1111602783203 349.42120361328125 188.08209228515625 C 351.9385986328125 178.19285583496094 359.1903381347656 170.92616271972656 369.4307556152344 167.79351806640625 C 379.417724609375 170.12684631347656 386.5408935546875 177.69456481933594 389.04150390625 187.94004821777344" stroke-width="0.0" fill="rgb(243, 248, 251)" opacity="0.99178237"/>
    <path d="M 615.0000610351562 312.0003662109375 C 612.3231201171875 322.00634765625 605.0198974609375 329.37005615234375 595.0166015625 332.2488098144531 C 584.9823608398438 329.3583068847656 577.6922607421875 322.0027160644531 574.51416015625 311.6247863769531 C 577.1283569335938 301.5130920410156 584.5428466796875 294.2149353027344 594.7633056640625 291.6016845703125 C 605.0089111328125 294.6525573730469 612.3206787109375 301.9986267089844 615.0000610351562 312.0003662109375" stroke-width="0.0" fill="rgb(190, 191, 197)" opacity="0.99057555"/>
    <path d="M 438.3309631347656 429.2867431640625 C 435.8272705078125 439.48675537109375 428.4957275390625 446.85467529296875 417.5870361328125 449.75927734375 C 407.38653564453125 446.98724365234375 400.0173034667969 439.612548828125 397.3706359863281 429.4351501464844 C 400.5579528808594 418.9456481933594 407.9797058105469 411.6708068847656 417.9989013671875 408.99951171875 C 428.0001525878906 411.679443359375 435.3196105957031 419.0000915527344 438.3309631347656 429.2867431640625" stroke-width="0.0" fill="rgb(177, 182, 186)" opacity="0.990423"/>
    <path d="M 616.0 460.9999694824219 C 613.3204956054688 471.0 606.0 478.32049560546875 596.0 481.0 C 585.9999389648438 478.3205261230469 578.67529296875 471.001220703125 575.37255859375 460.5388488769531 C 578.0447998046875 450.3942565917969 585.38916015625 443.0316467285156 595.5543212890625 440.4530334472656 C 606.0001831054688 443.680908203125 613.32080078125 450.9994201660156 616.0 460.9999694824219" stroke-width="0.0" fill="rgb(164, 166, 169)" opacity="1.0"/>
    <path d="M 372.5001525878906 582.5115356445312 C 370.0823669433594 592.7738647460938 362.7906494140625 600.1351318359375 352.268310546875 602.8167724609375 C 341.3074645996094 600.0668334960938 333.98138427734375 592.6734008789062 331.2186584472656 582.2290649414062 C 334.0263366699219 571.38525390625 341.3882751464844 564.0352172851562 351.5776062011719 561.4837036132812 C 361.992919921875 564.6801147460938 369.29583740234375 572.0140991210938 372.5001525878906 582.5115356445312" stroke-width="0.0" fill="rgb(134, 136, 134)" opacity="0.99023086"/>
    <path d="M 597.044921875 44.94829177856445 C 594.3204956054688 55.0 587.0 62.32050704956055 576.8529663085938 65.14116668701172 C 566.662353515625 62.66157913208008 559.2661743164062 55.35996627807617 556.2509765625 44.52307891845703 C 559.0794677734375 34.51983642578125 566.5885620117188 27.2674560546875 576.8381958007812 24.497608184814453 C 587.212158203125 27.430524826049805 594.4796142578125 34.81528854370117 597.044921875 44.94829177856445" stroke-width="0.0" fill="rgb(217, 228, 234)" opacity="1.0"/>
    <path d="M 270.7347717285156 -0.2014634758234024 C 267.9776611328125 9.759044647216797 260.8312072753906 17.204008102416992 250.9710235595703 19.98040771484375 C 241.0 17.32050895690918 233.6794891357422 10.0 231.0 2.4492935992912173e-15 C 233.6794891357422 -10.0 241.0 -17.32050895690918 251.0 -20.0 C 261.0 -17.32050895690918 268.32049560546875 -10.0 270.7347717285156 -0.2014634758234024" stroke-width="0.0" fill="rgb(235, 242, 247)" opacity="0.9944682"/>
    <path d="M 358.9027404785156 75.16841125488281 C 355.32049560546875 86.0 348.0 93.32051086425781 338.20458984375 95.77535247802734 C 328.4645690917969 92.88551330566406 321.3200988769531 85.46309661865234 318.750732421875 75.40132141113281 C 320.394287109375 65.77637481689453 327.8271789550781 58.56614303588867 338.65277099609375 55.38829803466797 C 348.85247802734375 57.831260681152344 356.21844482421875 65.12987518310547 358.9027404785156 75.16841125488281" stroke-width="0.0" fill="rgb(129, 139, 148)" opacity="1.0"/>
    <path d="M 514.3211059570312 294.2864990234375 C 511.8312683105469 304.5224304199219 504.5772705078125 311.9861145019531 494.3835144042969 314.7947692871094 C 483.64813232421875 311.7531433105469 476.28662109375 304.3392639160156 473.33331298828125 293.6700134277344 C 476.0359802246094 283.3929138183594 483.40008544921875 276.0574035644531 493.5965576171875 273.51641845703125 C 503.99993896484375 276.6795349121094 511.318359375 284.0006408691406 514.3211059570312 294.2864990234375" stroke-width="0.0" fill="rgb(198, 202, 208)" opacity="0.9937763"/>
    <path d="M 523.275390625 394.6802062988281 C 520.26416015625 404.9830322265625 512.9981079101562 412.31646728515625 502.4974365234375 415.6546630859375 C 492.4152526855469 412.9595947265625 485.0831604003906 405.570068359375 482.43804931640625 395.21234130859375 C 485.1715393066406 384.4984130859375 492.4992980957031 377.17431640625 502.7816467285156 374.7296142578125 C 513.2423706054688 377.4895324707031 520.7257080078125 384.6891784667969 523.275390625 394.6802062988281" stroke-width="0.0" fill="rgb(194, 197, 203)" opacity="1.0"/>
    <path d="M 443.60174560546875 265.92779541015625 C 440.8663330078125 276.5030212402344 433.5026550292969 283.869140625 423.26531982421875 286.65863037109375 C 412.8204040527344 283.6279602050781 405.6275329589844 276.0962829589844 402.8297119140625 265.84130859375 C 405.2947692871094 255.58563232421875 412.53704833984375 248.1443328857422 422.93389892578125 245.37278747558594 C 433.4916076660156 248.15487670898438 440.843505859375 255.50965881347656 443.60174560546875 265.92779541015625" stroke-width="0.0" fill="rgb(204, 209, 216)" opacity="1.0"/>
    <path d="M 534.5236206054688 221.88796997070312 C 531.6854248046875 232.32501220703125 524.3049926757812 239.61871337890625 514.1229858398438 242.123779296875 C 503.9986267089844 239.32095336914062 496.6496276855469 232.00958251953125 493.43927001953125 221.6800994873047 C 496.1305847167969 211.4685516357422 503.4476013183594 204.06968688964844 513.706298828125 201.30076599121094 C 524.5074462890625 204.14234924316406 531.8248901367188 211.50299072265625 534.5236206054688 221.88796997070312" stroke-width="0.0" fill="rgb(199, 209, 216)" opacity="0.99065715"/>
    <path d="M 265.8545227050781 590.390380859375 C 262.8484802246094 601.3449096679688 255.1949920654297 608.4324951171875 245.0692138671875 610.9829711914062 C 235.34085083007812 608.1011962890625 228.35946655273438 600.4884033203125 225.92233276367188 591.5222778320312 C 228.51356506347656 581.7662963867188 235.6506805419922 573.7630615234375 245.82000732421875 570.0533447265625 C 255.87933349609375 572.7692260742188 263.17779541015625 580.1412353515625 265.8545227050781 590.390380859375" stroke-width="0.0" fill="rgb(96, 99, 103)" opacity="0.9900375"/>
    <path d="M 393.944580078125 33.34897994995117 C 391.2249755859375 43.88496017456055 383.8888244628906 51.23391342163086 373.4034118652344 53.960506439208984 C 362.1126708984375 51.227657318115234 354.7800598144531 43.884544372558594 352.06402587890625 32.39671325683594 C 354.7596435546875 22.090377807617188 362.086181640625 14.749287605285645 372.4376525878906 12.037879943847656 C 383.8727111816406 14.778129577636719 391.2115783691406 22.131715774536133 393.944580078125 33.34897994995117" stroke-width="0.0" fill="rgb(17, 18, 8)" opacity="0.99001753"/>
    <path d="M 436.923095703125 172.86483764648438 C 434.2389831542969 182.89306640625 426.8828430175781 190.21453857421875 416.6781005859375 192.8903350830078 C 405.3393859863281 190.05368041992188 398.0007019042969 182.63815307617188 395.12335205078125 171.26779174804688 C 397.8008117675781 161.15512084960938 405.1802673339844 153.87387084960938 415.4293518066406 151.4285430908203 C 426.0 154.6794891357422 433.32049560546875 162.0 436.923095703125 172.86483764648438" stroke-width="0.0" fill="rgb(29, 31, 34)" opacity="0.9900263"/>
    <path d="M 583.6296997070312 184.05404663085938 C 580.70947265625 194.333984375 573.32080078125 201.66307067871094 562.690673828125 204.4105987548828 C 552.4558715820312 201.89439392089844 545.0978393554688 194.5459442138672 542.259765625 184.25390625 C 545.449462890625 173.9033203125 552.9741821289062 166.6699676513672 563.1551513671875 163.79750061035156 C 573.3308715820312 166.35630798339844 580.7468872070312 173.6354522705078 583.6296997070312 184.05404663085938" stroke-width="0.0" fill="rgb(205, 211, 219)" opacity="0.9915465"/>
    <path d="M 540.3208618164062 8.4010009765625 C 537.540283203125 18.238954544067383 530.2255859375 25.504669189453125 520.2130126953125 28.12152671813965 C 510.21453857421875 27.118515014648438 502.8797302246094 19.78540802001953 500.26531982421875 9.602765083312988 C 503.4346008300781 -1.1503658294677734 510.9110107421875 -8.371183395385742 520.990234375 -11.00541877746582 C 531.0 -8.320508003234863 538.3204956054688 -1.0 540.3208618164062 8.4010009765625" stroke-width="0.0" fill="rgb(250, 157, 168)" opacity="0.9900301"/>
    <path d="M 399.8924560546875 123.7555923461914 C 397.17626953125 133.81719970703125 389.7980651855469 141.1248779296875 379.5146789550781 143.7700653076172 C 368.5119323730469 140.85353088378906 361.1429138183594 133.490234375 358.62750244140625 123.34870910644531 C 361.7220764160156 113.01849365234375 369.0069885253906 105.68246459960938 379.0027160644531 102.99922943115234 C 389.05694580078125 105.65682220458984 396.67828369140625 112.82643127441406 399.8924560546875 123.7555923461914" stroke-width="0.0" fill="rgb(164, 177, 190)" opacity="1.0"/>
    <path d="M 497.5115661621094 30.463727951049805 C 494.32049560546875 41.0 487.0 48.32050704956055 476.9999694824219 51.000003814697266 C 466.9987487792969 48.32089614868164 459.65338134765625 41.0084114074707 456.0796203613281 30.149450302124023 C 458.7733154296875 20.114572525024414 466.11248779296875 12.768523216247559 477.000244140625 10.038454055786133 C 487.8686828613281 12.772087097167969 495.12030029296875 20.168787002563477 497.5115661621094 30.463727951049805" stroke-width="0.0" fill="rgb(192, 0, 0)" opacity="1.0"/>
    <path d="M 449.0906066894531 44.6573486328125 C 446.32049560546875 55.0 439.0 62.32050704956055 428.2279357910156 65.82212829589844 C 418.1123962402344 63.2142219543457 410.76177978515625 55.89676284790039 408.042236328125 45.1541862487793 C 410.7653503417969 34.10548400878906 418.1084289550781 26.77229118347168 429.1214294433594 24.048091888427734 C 439.85223388671875 26.78107452392578 447.0462646484375 34.20187759399414 449.0906066894531 44.6573486328125" stroke-width="0.0" fill="rgb(73, 5, 4)" opacity="0.99008036"/>
    <path d="M 527.1959838867188 526.493896484375 C 525.751220703125 536.3408813476562 518.261474609375 543.4951782226562 508.14453125 545.6580810546875 C 498.1161193847656 543.13623046875 490.7310485839844 535.9246215820312 488.0091247558594 525.9873657226562 C 490.67950439453125 516.0 498.0 508.67950439453125 507.8410949707031 506.1885681152344 C 517.701416015625 509.005859375 524.8880004882812 516.33251953125 527.1959838867188 526.493896484375" stroke-width="0.0" fill="rgb(135, 49, 5)" opacity="0.9900181"/>
    <path d="M 299.683349609375 576.577880859375 C 297.0688171386719 586.71435546875 289.7174377441406 594.078369140625 279.1051025390625 596.8612670898438 C 268.261474609375 594.0960083007812 260.88623046875 586.7447509765625 258.065185546875 575.376708984375 C 260.7823181152344 565.1290283203125 268.1384582519531 557.806396484375 278.25518798828125 555.1921997070312 C 288.99981689453125 558.6795654296875 296.31817626953125 566.0007934570312 299.683349609375 576.577880859375" stroke-width="0.0" fill="rgb(153, 157, 164)" opacity="1.0"/>
    <path d="M 370.9388427734375 91.6588134765625 C 368.14544677734375 102.73603820800781 360.659423828125 109.95439147949219 350.4053039550781 112.42485809326172 C 340.2391357421875 109.12873077392578 333.0513000488281 101.70467376708984 330.4283752441406 91.75091552734375 C 332.7041320800781 82.00950622558594 339.99566650390625 74.65679168701172 350.687744140625 71.25433349609375 C 360.8448791503906 73.82719421386719 368.2017517089844 81.14458465576172 370.9388427734375 91.6588134765625" stroke-width="0.0" fill="rgb(124, 137, 147)" opacity="1.0"/>
    <path d="M 446.9581298828125 535.3875732421875 C 444.23590087890625 545.8919067382812 436.8771667480469 553.19482421875 426.7061767578125 555.72607421875 C 416.0 552.3204956054688 408.67950439453125 545.0 406.0 535.0 C 408.67950439453125 525.0 416.0 517.6795043945312 426.7540588378906 514.1918334960938 C 436.87310791015625 516.797119140625 444.2257080078125 524.1182250976562 446.9581298828125 535.3875732421875" stroke-width="0.0" fill="rgb(76, 141, 35)" opacity="1.0"/>
    <path d="M 610.0292358398438 526.9986572265625 C 607.412109375 537.1305541992188 600.1780395507812 544.5653076171875 589.7845458984375 547.4742431640625 C 579.6339111328125 544.786376953125 572.4669799804688 537.2850341796875 569.7806396484375 526.8193969726562 C 572.170166015625 516.42724609375 579.349365234375 508.9405517578125 589.5173950195312 506.15191650390625 C 600.3402709960938 509.1658935546875 607.4391479492188 516.7994995117188 610.0292358398438 526.9986572265625" stroke-width="0.0" fill="rgb(130, 134, 144)" opacity="0.99016464"/>
    <path d="M 569.8779296875 347.00811767578125 C 567.2874755859375 356.9856872558594 559.9945678710938 364.31817626953125 549.9961547851562 367.0016784667969 C 539.9601440429688 364.3411865234375 532.5377807617188 357.076904296875 529.4862060546875 346.7704162597656 C 532.192138671875 336.53143310546875 539.5293579101562 329.18780517578125 549.7036743164062 326.712890625 C 559.89697265625 329.8094482421875 567.244140625 337.0863952636719 569.8779296875 347.00811767578125" stroke-width="0.0" fill="rgb(199, 201, 206)" opacity="1.0"/>
    <path d="M 584.7167358398438 10.000198364257812 C 582.14013671875 19.94603157043457 575.0729370117188 27.513212203979492 564.7587280273438 30.590782165527344 C 554.5498046875 27.839881896972656 547.358154296875 20.388845443725586 544.9183959960938 10.107794761657715 C 547.6795043945312 5.329070518200751e-15 555.0 -7.320508003234863 564.984375 -9.99008846282959 C 574.88623046875 -7.2495436668396 582.0427856445312 0.1793956607580185 584.7167358398438 10.000198364257812" stroke-width="0.0" fill="rgb(226, 228, 235)" opacity="0.9918416"/>
    <path d="M 526.847412109375 119.36907958984375 C 523.8897094726562 130.470458984375 516.4180297851562 137.73988342285156 505.45574951171875 140.6957244873047 C 495.194091796875 138.1160125732422 487.79559326171875 130.839599609375 485.0574645996094 120.64525604248047 C 487.96588134765625 109.62548065185547 496.2969970703125 103.18685913085938 506.8575744628906 99.0826187133789 C 516.8805541992188 101.77059936523438 524.1875 109.1356201171875 526.847412109375 119.36907958984375" stroke-width="0.0" fill="rgb(122, 125, 140)" opacity="1.0"/>
    <path d="M 461.06640625 90.0784912109375 C 458.550537109375 100.26297760009766 451.2939147949219 107.65203094482422 440.9183349609375 110.29370880126953 C 430.3236083984375 107.88446807861328 422.8098449707031 100.78485107421875 420.0470275878906 89.78227996826172 C 422.7706298828125 79.11482238769531 430.1275939941406 71.80538940429688 440.28118896484375 69.244873046875 C 451.0 72.67948913574219 458.32049560546875 80.0 461.06640625 90.0784912109375" stroke-width="0.0" fill="rgb(41, 82, 24)" opacity="0.9902336"/>
    <path d="M 571.8847045898438 595.5633544921875 C 568.9622192382812 605.408203125 561.1741333007812 612.3987426757812 551.009521484375 615.0039672851562 C 541.0 612.3204956054688 533.6795043945312 605.0 531.0 595.0 C 533.6795043945312 585.0000610351562 541.0026245117188 577.6889038085938 551.4030151367188 574.68115234375 C 561.5086059570312 577.1596069335938 568.981201171875 584.4364013671875 571.8847045898438 595.5633544921875" stroke-width="0.0" fill="rgb(113, 60, 32)" opacity="0.99002784"/>
    <path d="M 499.0 498.0 C 496.32049560546875 508.0 489.0 515.3204956054688 479.0 518.0 C 469.0 515.3204956054688 461.67950439453125 508.0 459.0 498.0 C 461.67950439453125 488.0 469.0 480.67950439453125 479.0 478.0 C 489.0 480.67950439453125 496.32049560546875 488.0 499.0 498.0" stroke-width="0.0" fill="rgb(186, 190, 188)" opacity="1.0"/>
    <path d="M 502.72979736328125 528.0782470703125 C 500.3313903808594 537.9789428710938 492.9512023925781 545.2396240234375 482.90447998046875 547.97509765625 C 472.54779052734375 545.6070556640625 464.86724853515625 538.6604614257812 462.04571533203125 527.6638793945312 C 464.8016052246094 517.1842041015625 472.2533874511719 510.001953125 482.65234375 507.70721435546875 C 492.9923095703125 510.6827392578125 500.2640380859375 518.0231323242188 502.72979736328125 528.0782470703125" stroke-width="0.0" fill="rgb(69, 14, 1)" opacity="0.99017704"/>
    <path d="M 509.8653259277344 75.1928482055664 C 506.565673828125 86.25163269042969 499.2562255859375 93.57981872558594 489.1658935546875 95.81221771240234 C 479.11993408203125 93.16228485107422 471.7684020996094 85.90090942382812 468.1349792480469 75.2191162109375 C 470.81689453125 65.18548583984375 478.19744873046875 57.839656829833984 488.6496276855469 55.07786560058594 C 499.8855895996094 57.7891960144043 507.2273254394531 65.10855102539062 509.8653259277344 75.1928482055664" stroke-width="0.0" fill="rgb(168, 0, 0)" opacity="1.0"/>
    <path d="M 389.13018798828125 403.3194274902344 C 386.8726806640625 412.70379638671875 379.81494140625 420.2002258300781 370.2764587402344 422.763427734375 C 360.72259521484375 419.6851806640625 353.5530700683594 412.1956481933594 350.9612731933594 403.5245361328125 C 353.58880615234375 393.8883056640625 360.8807373046875 386.568359375 370.6048889160156 383.8660583496094 C 379.2655334472656 386.4672546386719 386.6788635253906 393.6861572265625 389.13018798828125 403.3194274902344" stroke-width="0.0" fill="rgb(105, 33, 10)" opacity="0.9900052"/>
    <path d="M 564.8484497070312 551.6831665039062 C 562.1196899414062 561.7429809570312 554.7168579101562 569.0521850585938 544.5380249023438 571.6324462890625 C 534.0 568.3204956054688 526.6795043945312 561.0 523.862060546875 550.8369140625 C 526.2539672851562 540.4973754882812 533.3986206054688 532.9690551757812 543.4220581054688 530.2189331054688 C 554.0635986328125 533.5550537109375 561.4910278320312 540.9212036132812 564.8484497070312 551.6831665039062" stroke-width="0.0" fill="rgb(151, 151, 151)" opacity="0.99057996"/>
    <path d="M 484.7048034667969 430.0669250488281 C 481.91864013671875 440.52935791015625 474.5040588378906 447.849609375 463.72174072265625 450.7352294921875 C 453.43145751953125 447.94049072265625 446.09893798828125 440.5552673339844 443.2917785644531 429.7954406738281 C 446.0533142089844 419.4154052734375 453.4278564453125 412.0914001464844 464.3857116699219 409.2427673339844 C 474.6181640625 412.0024719238281 481.93499755859375 419.4041748046875 484.7048034667969 430.0669250488281" stroke-width="0.0" fill="rgb(183, 185, 194)" opacity="0.9937783"/>
    <path d="M 514.9553833007812 39.311100006103516 C 512.2365112304688 49.89793014526367 504.8959045410156 57.23173141479492 494.8048400878906 59.917449951171875 C 483.4114685058594 57.012535095214844 476.3025207519531 49.485496520996094 473.92376708984375 39.120506286621094 C 476.6761474609375 28.969419479370117 483.8349609375 21.302820205688477 494.7362365722656 18.08517837524414 C 504.8695983886719 20.794336318969727 512.2241821289062 28.122634887695312 514.9553833007812 39.311100006103516" stroke-width="0.0" fill="rgb(183, 1, 1)" opacity="1.0"/>
    <path d="M 517.4539794921875 504.39794921875 C 514.9440307617188 514.5819702148438 507.525634765625 521.7227172851562 497.5100402832031 523.177734375 C 487.6161193847656 520.64599609375 480.29962158203125 513.4030151367188 477.4796447753906 503.59857177734375 C 479.67950439453125 494.0 487.0 486.67950439453125 497.0 484.0 C 507.0 486.67950439453125 514.3204956054688 494.0 517.4539794921875 504.39794921875" stroke-width="0.0" fill="rgb(152, 145, 143)" opacity="0.9900715"/>
    <path d="M 565.7496948242188 272.88348388671875 C 562.88525390625 283.488525390625 555.445068359375 290.7542724609375 544.822021484375 293.57672119140625 C 534.75390625 290.672607421875 527.5321655273438 283.18072509765625 524.9617309570312 273.045166015625 C 527.6759033203125 262.9901123046875 534.96337890625 255.58544921875 545.3535766601562 252.37786865234375 C 555.4921875 255.15573120117188 562.91357421875 262.4818115234375 565.7496948242188 272.88348388671875" stroke-width="0.0" fill="rgb(194, 201, 207)" opacity="1.0"/>
    <path d="M 571.2503662109375 72.875732421875 C 568.8125610351562 82.61143493652344 561.7935180664062 90.53599548339844 551.8508911132812 93.78416442871094 C 541.670166015625 90.81983184814453 534.5596313476562 83.19652557373047 531.2687377929688 72.3116226196289 C 533.8228149414062 62.14908981323242 541.1373291015625 54.79037094116211 551.2005004882812 52.08188247680664 C 562.0946044921875 55.39792251586914 568.9806518554688 63.133914947509766 571.2503662109375 72.875732421875" stroke-width="0.0" fill="rgb(123, 129, 142)" opacity="0.99003804"/>
    <path d="M 436.281494140625 537.1098022460938 C 433.5120544433594 547.1118774414062 426.0640563964844 554.3577880859375 416.0086975097656 557.0046997070312 C 406.0369873046875 554.3056640625 398.8453369140625 546.916259765625 395.0858459472656 536.143798828125 C 397.7701416015625 526.1224975585938 405.14794921875 518.8412475585938 415.3797607421875 516.3580932617188 C 426.1129455566406 519.5648193359375 433.4422607421875 526.8849487304688 436.281494140625 537.1098022460938" stroke-width="0.0" fill="rgb(64, 117, 30)" opacity="1.0"/>
    <path d="M 414.7147521972656 480.4908142089844 C 411.2992858886719 490.99285888671875 403.9986572265625 498.3200378417969 393.6230773925781 501.33575439453125 C 383.25482177734375 499.0110168457031 375.8189697265625 491.8030090332031 373.1189880371094 481.76361083984375 C 376.4443359375 470.8848876953125 383.9508056640625 463.65087890625 394.01806640625 460.9742736816406 C 404.15142822265625 463.5823059082031 411.80694580078125 470.7065124511719 414.7147521972656 480.4908142089844" stroke-width="0.0" fill="rgb(135, 150, 130)" opacity="1.0"/>
    <path d="M 303.1218566894531 27.883447647094727 C 300.30780029296875 37.9807014465332 293.00048828125 45.38180923461914 283.247802734375 48.55424499511719 C 273.0894775390625 45.186798095703125 265.7200622558594 37.938880920410156 262.9844055175781 27.9622859954834 C 265.5745849609375 17.861557006835938 272.8257751464844 10.458295822143555 282.844482421875 8.324472427368164 C 293.2536315917969 10.458240509033203 300.591064453125 17.733497619628906 303.1218566894531 27.883447647094727" stroke-width="0.0" fill="rgb(237, 242, 249)" opacity="0.9917405"/>
    <path d="M 542.775634765625 82.36148834228516 C 539.3668212890625 93.05125427246094 532.1603393554688 100.67220306396484 521.1091918945312 103.95313262939453 C 511.08880615234375 101.2565689086914 503.7901306152344 93.89303588867188 501.153076171875 83.68878173828125 C 503.9150085449219 72.19119262695312 511.1456298828125 64.78086853027344 521.3822021484375 62.04902267456055 C 532.75146484375 64.84796905517578 540.0631713867188 72.29109954833984 542.775634765625 82.36148834228516" stroke-width="0.0" fill="rgb(5, 8, 8)" opacity="0.9900723"/>
    <path d="M 367.74603271484375 454.2488708496094 C 364.5910339355469 465.48748779296875 357.6553649902344 473.1075134277344 346.36151123046875 475.94378662109375 C 336.1822204589844 473.2043762207031 330.2061462402344 465.6618347167969 327.9513244628906 455.6441650390625 C 330.56488037109375 445.8587951660156 337.8585205078125 438.5641784667969 347.6528625488281 435.9483947753906 C 357.5087585449219 438.2777404785156 365.1419677734375 444.2630920410156 367.74603271484375 454.2488708496094" stroke-width="0.0" fill="rgb(159, 73, 17)" opacity="0.99000996"/>
    <path d="M 399.7657470703125 114.5478515625 C 396.83868408203125 124.36865234375 389.2803955078125 131.59640502929688 379.1473083496094 134.19412231445312 C 369.0519104003906 131.26788330078125 361.7449035644531 123.94440460205078 358.22686767578125 113.37298583984375 C 360.9378356933594 103.28986358642578 368.2685852050781 95.88838195800781 378.3472900390625 93.18218994140625 C 389.0096740722656 96.64710235595703 396.3207092285156 103.99925231933594 399.7657470703125 114.5478515625" stroke-width="0.0" fill="rgb(159, 169, 179)" opacity="1.0"/>
    <path d="M 390.8541259765625 555.2230224609375 C 388.07440185546875 565.6201171875 380.4757385253906 572.6768798828125 369.9428405761719 575.3641967773438 C 360.033935546875 572.4190673828125 352.6246032714844 564.9501342773438 349.6630554199219 554.874267578125 C 352.1496887207031 544.4775390625 359.43939208984375 537.0407104492188 370.7698059082031 534.0973510742188 C 380.8818359375 536.7781372070312 388.1947937011719 544.1276245117188 390.8541259765625 555.2230224609375" stroke-width="0.0" fill="rgb(191, 144, 74)" opacity="1.0"/>
    <path d="M 568.5078125 161.61383056640625 C 565.2589111328125 171.97633361816406 557.992919921875 179.31637573242188 547.6647338867188 182.4087371826172 C 537.4913940429688 179.86541748046875 530.1244506835938 172.51121520996094 527.3128662109375 162.25399780273438 C 530.25732421875 151.59689331054688 537.5830078125 144.21710205078125 547.7552490234375 141.5594482421875 C 558.32177734375 144.3488006591797 565.75390625 151.6456298828125 568.5078125 161.61383056640625" stroke-width="0.0" fill="rgb(205, 218, 224)" opacity="0.991884"/>
    <path d="M 401.7688293457031 205.02662658691406 C 398.8307189941406 215.4295196533203 391.39990234375 222.74305725097656 381.3367004394531 225.39512634277344 C 371.0334167480469 222.1612091064453 363.552001953125 215.05865478515625 360.77081298828125 205.1783905029297 C 363.7423095703125 195.02503967285156 371.0076599121094 187.6825408935547 381.00921630859375 184.9955596923828 C 391.1089782714844 187.6246337890625 398.7361145019531 194.76461791992188 401.7688293457031 205.02662658691406" stroke-width="0.0" fill="rgb(192, 199, 204)" opacity="0.9901661"/>
    <path d="M 574.05029296875 4.228856563568115 C 571.420654296875 14.138697624206543 564.187255859375 21.61098861694336 555.5169067382812 25.847169876098633 C 544.6176147460938 22.57982063293457 536.9993286132812 15.531702995300293 534.3712768554688 5.635021686553955 C 537.7992553710938 -4.956610202789307 545.0084228515625 -12.317923545837402 554.989013671875 -14.995203971862793 C 564.8245849609375 -12.23808765411377 571.7045288085938 -4.609969139099121 574.05029296875 4.228856563568115" stroke-width="0.0" fill="rgb(206, 5, 2)" opacity="0.99001527"/>
    <path d="M 463.7565002441406 461.4620666503906 C 461.0438537597656 471.66876220703125 453.6534118652344 479.00372314453125 442.6297302246094 481.8367614746094 C 432.376708984375 479.0302734375 425.0926208496094 471.57647705078125 422.3384704589844 461.02655029296875 C 425.1184387207031 450.44598388671875 432.4120788574219 443.0251770019531 443.2742004394531 440.2130432128906 C 453.6424865722656 442.96734619140625 460.91827392578125 450.3988952636719 463.7565002441406 461.4620666503906" stroke-width="0.0" fill="rgb(165, 163, 164)" opacity="0.9900646"/>
    <path d="M 281.9313659667969 29.079607009887695 C 279.3902282714844 39.07579040527344 272.0845642089844 46.41889953613281 261.95428466796875 49.14472579956055 C 251.8650360107422 46.4954719543457 244.60755920410156 39.103538513183594 241.9913787841797 29.016576766967773 C 244.6794891357422 19.0 252.0 11.679491996765137 262.0076599121094 8.939621925354004 C 271.92254638671875 11.732355117797852 279.2117614746094 19.09287452697754 281.9313659667969 29.079607009887695" stroke-width="0.0" fill="rgb(250, 251, 252)" opacity="0.99505067"/>
    <path d="M 418.0281982421875 503.05450439453125 C 415.58941650390625 513.4329833984375 408.6446228027344 521.1224365234375 397.5493469238281 523.9514770507812 C 387.1395568847656 521.2070922851562 379.7892761230469 513.8623046875 377.0599060058594 503.5639953613281 C 379.86663818359375 492.276611328125 387.3416442871094 485.01959228515625 397.5294494628906 482.5079345703125 C 407.99847412109375 485.6849060058594 415.3204650878906 493.00006103515625 418.0281982421875 503.05450439453125" stroke-width="0.0" fill="rgb(58, 114, 28)" opacity="0.9917484"/>
    <path d="M 439.744384765625 422.114990234375 C 436.68609619140625 432.18701171875 429.0793762207031 439.37811279296875 418.9999084472656 442.08575439453125 C 408.96881103515625 439.36181640625 401.6470642089844 432.0284423828125 398.57647705078125 421.6568603515625 C 401.07135009765625 411.3826904296875 408.3627014160156 404.00933837890625 418.81658935546875 401.4057312011719 C 429.5459289550781 404.1119689941406 436.89813232421875 411.4510803222656 439.744384765625 422.114990234375" stroke-width="0.0" fill="rgb(188, 187, 189)" opacity="0.9912972"/>
    <path d="M 461.552001953125 56.38497543334961 C 458.8906555175781 66.44647216796875 451.336181640625 73.55731201171875 440.2597961425781 76.79637908935547 C 430.1313171386719 74.19978332519531 422.8094177246094 66.86576080322266 421.0218811035156 56.74595260620117 C 424.13629150390625 46.31233215332031 431.2213134765625 38.880184173583984 441.4864501953125 35.48424530029297 C 451.4543762207031 38.11149978637695 458.5885925292969 45.64383316040039 461.552001953125 56.38497543334961" stroke-width="0.0" fill="rgb(172, 34, 28)" opacity="0.99004805"/>
    <path d="M 392.83013916015625 423.37738037109375 C 389.9988098144531 433.5656433105469 382.49468994140625 440.81610107421875 371.43536376953125 443.80401611328125 C 361.384521484375 441.05877685546875 354.4066162109375 433.4698181152344 351.55596923828125 422.4487609863281 C 353.8670959472656 412.1685791015625 361.14434814453125 404.7939453125 371.3426818847656 402.1641540527344 C 382.6938171386719 404.90692138671875 389.955810546875 412.3599853515625 392.83013916015625 423.37738037109375" stroke-width="0.0" fill="rgb(190, 194, 198)" opacity="0.99082273"/>
    <path d="M 549.56005859375 266.84228515625 C 547.01416015625 276.7642517089844 539.8029174804688 284.13525390625 529.9671630859375 286.5782775878906 C 520.0304565429688 284.241943359375 512.6827392578125 276.9915771484375 509.9289245605469 266.9156494140625 C 512.43359375 256.7149353027344 519.6799926757812 249.3199005126953 529.9203491210938 246.8851318359375 C 540.314208984375 249.2865447998047 547.40087890625 256.77490234375 549.56005859375 266.84228515625" stroke-width="0.0" fill="rgb(159, 162, 168)" opacity="0.9900709"/>
    <path d="M 608.0941162109375 476.1372375488281 C 605.7035522460938 486.4779052734375 598.5910034179688 494.0297546386719 588.3677368164062 496.8332214355469 C 577.3919677734375 493.9814758300781 570.0592041015625 486.5936279296875 567.4473876953125 476.3197937011719 C 570.2877807617188 465.61859130859375 577.6218872070312 458.2969055175781 587.8246459960938 455.6375732421875 C 597.9717407226562 458.6880798339844 605.2904052734375 466.0335998535156 608.0941162109375 476.1372375488281" stroke-width="0.0" fill="rgb(142, 142, 147)" opacity="0.9901105"/>
    <path d="M 420.93292236328125 94.26726531982422 C 418.1131286621094 105.80712890625 410.85174560546875 113.22181701660156 400.7786560058594 115.94464111328125 C 389.2759704589844 113.1208724975586 382.059326171875 105.65837860107422 379.1006774902344 94.2054443359375 C 381.767578125 84.09718322753906 389.09027099609375 76.75029754638672 399.407470703125 74.03239440917969 C 410.8791809082031 76.77144622802734 418.2186279296875 84.12532043457031 420.93292236328125 94.26726531982422" stroke-width="0.0" fill="rgb(123, 6, 2)" opacity="0.99003243"/>
    <path d="M 360.37738037109375 122.09751892089844 C 358.1867370605469 131.96145629882812 351.073486328125 139.52951049804688 341.1239013671875 142.44554138183594 C 331.21295166015625 139.10267639160156 323.9673767089844 131.76800537109375 321.3155822753906 121.47016906738281 C 323.22418212890625 111.61967468261719 330.67071533203125 104.39244079589844 340.6241455078125 102.62574005126953 C 350.6758117675781 105.14569091796875 358.0722961425781 112.24077606201172 360.37738037109375 122.09751892089844" stroke-width="0.0" fill="rgb(246, 249, 251)" opacity="0.99019444"/>
    <path d="M 474.0719909667969 83.92916107177734 C 471.66357421875 93.83649444580078 465.47784423828125 101.97703552246094 455.55316162109375 104.54014587402344 C 445.6412048339844 100.7566146850586 438.5054626464844 93.26439666748047 435.9206237792969 83.21414184570312 C 437.0093078613281 73.30776977539062 444.282958984375 65.92900848388672 454.6129150390625 64.12301635742188 C 465.4096374511719 66.07568359375 471.64007568359375 74.27137756347656 474.0719909667969 83.92916107177734" stroke-width="0.0" fill="rgb(235, 209, 198)" opacity="0.9900125"/>
    <path d="M 525.5420532226562 436.4411926269531 C 522.96142578125 446.6065673828125 515.6094970703125 453.9709167480469 504.880615234375 456.705322265625 C 494.365966796875 454.0128173828125 487.084228515625 446.6004638671875 484.393310546875 435.9243469238281 C 487.0563659667969 425.3880615234375 494.37225341796875 418.0099182128906 504.515625 415.4615783691406 C 514.9532470703125 418.7429504394531 522.2786254882812 426.0407409667969 525.5420532226562 436.4411926269531" stroke-width="0.0" fill="rgb(189, 191, 197)" opacity="1.0"/>
    <path d="M 284.4227600097656 59.818180084228516 C 281.42047119140625 70.23057556152344 274.3037109375 77.6846923828125 264.0851135253906 80.46505737304688 C 254.1024169921875 77.2069320678711 246.70802307128906 69.9231185913086 243.7529296875 59.760841369628906 C 246.35398864746094 49.6628532409668 253.65548706054688 42.33086395263672 263.7779846191406 40.367286682128906 C 273.9997253417969 42.787357330322266 281.4512939453125 49.92822265625 284.4227600097656 59.818180084228516" stroke-width="0.0" fill="rgb(253, 243, 181)" opacity="0.99009883"/>
    <path d="M 404.3732604980469 586.2486572265625 C 401.9202575683594 596.6021728515625 394.6050109863281 603.9296264648438 383.7560729980469 606.5685424804688 C 373.22869873046875 604.0618896484375 365.83929443359375 596.80322265625 363.25238037109375 586.7239379882812 C 367.13427734375 576.4692993164062 374.5086975097656 569.2557373046875 384.810791015625 565.1609497070312 C 394.7271728515625 567.8460083007812 401.7757568359375 575.4072875976562 404.3732604980469 586.2486572265625" stroke-width="0.0" fill="rgb(68, 42, 11)" opacity="0.9900507"/>
    <path d="M 260.99420166015625 21.995431900024414 C 258.2867736816406 31.925138473510742 250.82797241210938 38.99643325805664 240.6791534423828 41.53032302856445 C 231.0996856689453 39.22426986694336 223.7603302001953 31.905860900878906 221.0210723876953 21.97525405883789 C 223.6794891357422 12.0 231.0 4.679491996765137 241.0 2.0000009536743164 C 250.99996948242188 4.679508209228516 258.3202209472656 12.000114440917969 260.99420166015625 21.995431900024414" stroke-width="0.0" fill="rgb(251, 251, 246)" opacity="1.0"/>
    <path d="M 488.5693054199219 389.73388671875 C 485.7909240722656 400.45001220703125 478.4537353515625 407.8052978515625 468.07269287109375 410.576416015625 C 457.7940979003906 407.64202880859375 450.5992126464844 400.1280822753906 447.98870849609375 390.01776123046875 C 450.67950439453125 380.0 458.0 372.67950439453125 468.4223327636719 369.5213317871094 C 478.6255187988281 372.02801513671875 485.9556884765625 379.38018798828125 488.5693054199219 389.73388671875" stroke-width="0.0" fill="rgb(188, 194, 201)" opacity="1.0"/>
    <path d="M 425.87066650390625 500.1574401855469 C 423.32049560546875 510.0 416.0 517.3204956054688 406.0357360839844 520.046875 C 396.26239013671875 517.1171875 389.0947570800781 509.6719665527344 386.5899963378906 499.9091796875 C 389.0818786621094 490.4187316894531 396.5229797363281 483.3447570800781 405.6204833984375 480.90826416015625 C 415.3697204589844 483.4278869628906 422.89501953125 490.5143737792969 425.87066650390625 500.1574401855469" stroke-width="0.0" fill="rgb(17, 59, 5)" opacity="0.99005497"/>
    <path d="M 579.6080932617188 124.89258575439453 C 576.7908935546875 135.4293670654297 569.4097290039062 142.72889709472656 558.9426879882812 145.51429748535156 C 548.5966796875 142.76382446289062 541.232666015625 135.4039306640625 538.4561767578125 125.05644226074219 C 541.1632690429688 114.49736785888672 548.4883422851562 107.1360092163086 558.9308471679688 104.48937225341797 C 569.464599609375 107.16272735595703 576.7838745117188 114.55460357666016 579.6080932617188 124.89258575439453" stroke-width="0.0" fill="rgb(203, 214, 221)" opacity="1.0"/>
    <path d="M 480.7540283203125 364.95306396484375 C 477.8624267578125 375.4012756347656 470.2830505371094 382.513427734375 460.0477294921875 385.02978515625 C 450.0039367675781 382.31903076171875 442.71331787109375 374.9867858886719 439.7557067871094 364.81329345703125 C 442.4825744628906 354.8819580078125 449.9283447265625 347.6324768066406 460.248046875 344.7352294921875 C 470.5274963378906 347.1696472167969 477.94866943359375 354.4338684082031 480.7540283203125 364.95306396484375" stroke-width="0.0" fill="rgb(190, 195, 200)" opacity="1.0"/>
    <path d="M 506.5054626464844 482.5557556152344 C 503.3282470703125 493.0163879394531 496.0367431640625 500.3968200683594 486.0726623535156 503.02032470703125 C 476.0020446777344 500.3138732910156 468.6795959472656 492.999755859375 465.5931396484375 482.6448974609375 C 468.0846862792969 472.4100036621094 475.37890625 464.9950866699219 486.0024719238281 462.1651306152344 C 496.6484680175781 464.9896545410156 503.98956298828125 472.3577575683594 506.5054626464844 482.5557556152344" stroke-width="0.0" fill="rgb(179, 178, 181)" opacity="1.0"/>
    <path d="M 244.7191925048828 17.922504425048828 C 242.50320434570312 28.327138900756836 235.4431610107422 35.886505126953125 225.59458923339844 38.44133758544922 C 215.34140014648438 34.87916946411133 208.08447265625 27.6726131439209 205.72055053710938 18.162399291992188 C 208.1814727783203 8.376590728759766 215.28541564941406 0.9134912490844727 225.0868377685547 -1.9005053043365479 C 235.0 0.6794919371604919 242.3205108642578 8.0 244.7191925048828 17.922504425048828" stroke-width="0.0" fill="rgb(249, 199, 137)" opacity="0.9900414"/>
    <path d="M 571.1242065429688 358.9363098144531 C 568.3231201171875 369.00115966796875 561.00048828125 376.3206787109375 550.6384887695312 379.40118408203125 C 540.417724609375 376.9228820800781 533.106201171875 369.5732421875 530.6399536132812 359.3050842285156 C 533.6578369140625 348.9880676269531 540.9825439453125 341.6391906738281 550.96240234375 338.8700866699219 C 561.0552978515625 341.62921142578125 568.414794921875 348.9320373535156 571.1242065429688 358.9363098144531" stroke-width="0.0" fill="rgb(178, 180, 183)" opacity="0.9906344"/>
    <path d="M 495.8678283691406 551.7327270507812 C 493.15142822265625 561.7925415039062 485.7770690917969 569.109619140625 475.39324951171875 571.7036743164062 C 464.2322082519531 569.0677490234375 456.82513427734375 561.8057250976562 454.07025146484375 551.1426391601562 C 456.8305969238281 540.21630859375 464.3296203613281 533.5878295898438 474.33013916015625 531.9392700195312 C 484.20550537109375 534.5377197265625 491.7228088378906 541.7177124023438 495.8678283691406 551.7327270507812" stroke-width="0.0" fill="rgb(249, 224, 47)" opacity="0.9900279"/>
    <path d="M 553.6087646484375 308.5755615234375 C 550.287109375 318.9615478515625 542.9876098632812 326.3792724609375 532.5740356445312 329.6194152832031 C 522.4342041015625 326.9448547363281 515.1339111328125 319.5385437011719 512.2445678710938 308.5686340332031 C 515.0066528320312 298.410888671875 522.453125 291.1179504394531 532.66552734375 288.37042236328125 C 543.3797607421875 291.3002624511719 550.8488159179688 298.5690002441406 553.6087646484375 308.5755615234375" stroke-width="0.0" fill="rgb(192, 196, 200)" opacity="0.99228406"/>
    <path d="M 328.10565185546875 38.014522552490234 C 325.53887939453125 48.269309997558594 318.36297607421875 55.815399169921875 308.5170593261719 58.56074523925781 C 298.1982116699219 55.031070709228516 290.848876953125 47.841007232666016 288.31390380859375 37.90248489379883 C 290.64202880859375 27.95003318786621 297.8924255371094 20.45843505859375 307.7672119140625 18.296741485595703 C 318.3248596191406 20.26418685913086 325.5184020996094 27.744306564331055 328.10565185546875 38.014522552490234" stroke-width="0.0" fill="rgb(200, 211, 219)" opacity="0.99046147"/>
    <path d="M 598.779052734375 412.1716613769531 C 595.9185791015625 422.535888671875 588.5458374023438 429.9449462890625 578.380126953125 432.7934265136719 C 567.7564086914062 429.7119140625 560.548583984375 422.15399169921875 557.9391479492188 412.0539245605469 C 560.683349609375 402.0021057128906 568.001220703125 394.68023681640625 578.0089111328125 391.99560546875 C 588.106689453125 394.62567138671875 595.7297973632812 401.7691345214844 598.779052734375 412.1716613769531" stroke-width="0.0" fill="rgb(179, 181, 187)" opacity="1.0"/>
    <path d="M 587.235107421875 529.1148681640625 C 584.763671875 539.510009765625 577.5995483398438 547.0233154296875 567.5533447265625 549.7918090820312 C 556.8992309570312 546.5006713867188 549.3974609375 539.138427734375 546.1912841796875 528.4873046875 C 548.9391479492188 518.2880859375 556.2808227539062 510.9206848144531 566.68115234375 508.1761474609375 C 577.5161743164062 511.0334167480469 584.6192626953125 518.603515625 587.235107421875 529.1148681640625" stroke-width="0.0" fill="rgb(149, 147, 154)" opacity="1.0"/>
    <path d="M 488.5894470214844 47.56825256347656 C 486.071044921875 57.72697830200195 478.75531005859375 65.14085388183594 467.73687744140625 67.94632720947266 C 457.2884216308594 65.15260314941406 450.2710266113281 57.55313491821289 447.17474365234375 46.227210998535156 C 449.7864074707031 36.12977600097656 457.14892578125 28.84562110900879 467.37969970703125 26.47073745727539 C 477.86102294921875 29.848360061645508 485.1662292480469 37.134483337402344 488.5894470214844 47.56825256347656" stroke-width="0.0" fill="rgb(139, 2, 2)" opacity="0.99131703"/>
    <path d="M 552.003173828125 482.9933166503906 C 549.3204956054688 493.0 542.0 500.32049560546875 532.0 503.0 C 522.0 500.32049560546875 514.6795043945312 493.0 511.691162109375 482.70745849609375 C 514.1309204101562 472.44281005859375 521.4154663085938 465.0462646484375 531.6820678710938 462.34991455078125 C 542.1721801757812 465.375244140625 549.36328125 472.9134826660156 552.003173828125 482.9933166503906" stroke-width="0.0" fill="rgb(152, 152, 155)" opacity="0.99024415"/>
    <path d="M 526.285400390625 238.32440185546875 C 523.8543090820312 248.48715209960938 516.458740234375 255.76441955566406 505.7732238769531 258.4845275878906 C 495.4433898925781 255.91055297851562 488.1392822265625 248.5403289794922 485.6143493652344 238.09922790527344 C 488.2146301269531 227.58839416503906 495.6277160644531 220.34109497070312 505.8639221191406 217.92848205566406 C 515.9893798828125 220.6915283203125 523.2841186523438 228.01760864257812 526.285400390625 238.32440185546875" stroke-width="0.0" fill="rgb(192, 200, 208)" opacity="0.9903024"/>
    <path d="M 391.6051940917969 368.4359130859375 C 388.8617248535156 378.4062194824219 381.4192199707031 385.894775390625 370.8897399902344 388.9000549316406 C 361.2440185546875 385.7911071777344 354.3387451171875 377.4692077636719 351.82366943359375 368.0489196777344 C 354.2669372558594 358.4531555175781 361.3426208496094 350.9444885253906 371.08087158203125 348.06097412109375 C 381.0 350.67950439453125 388.32049560546875 358.0 391.6051940917969 368.4359130859375" stroke-width="0.0" fill="rgb(150, 155, 162)" opacity="0.9900525"/>
    <path d="M 577.8035888671875 441.31219482421875 C 574.9834594726562 451.58831787109375 567.5489501953125 458.8695068359375 557.0902099609375 461.4471740722656 C 546.4495239257812 458.84051513671875 539.0341186523438 451.5904541015625 536.1993408203125 440.5628662109375 C 538.9317016601562 430.3033752441406 546.3297119140625 423.0071105957031 556.6591796875 420.3887634277344 C 567.3306884765625 423.33917236328125 574.852294921875 430.59686279296875 577.8035888671875 441.31219482421875" stroke-width="0.0" fill="rgb(178, 182, 187)" opacity="1.0"/>
    <path d="M 435.1612548828125 506.71826171875 C 433.9461669921875 516.5818481445312 426.5440368652344 523.830322265625 415.70404052734375 526.6520385742188 C 405.4210205078125 523.96484375 398.1988220214844 516.5260620117188 395.5858459472656 506.15069580078125 C 398.5069885253906 495.85284423828125 405.8143005371094 488.3922424316406 415.3027038574219 486.6739196777344 C 425.2044982910156 489.4939270019531 432.4885559082031 496.8022155761719 435.1612548828125 506.71826171875" stroke-width="0.0" fill="rgb(30, 92, 7)" opacity="0.9900231"/>
    <path d="M 475.74090576171875 339.2701416015625 C 472.85595703125 349.37322998046875 465.23919677734375 356.4731140136719 454.8634033203125 359.1790771484375 C 444.5899963378906 356.70050048828125 437.1047668457031 349.4755859375 434.2908935546875 339.3130798339844 C 437.09918212890625 328.44378662109375 444.4438781738281 321.098876953125 454.7508544921875 318.3974609375 C 465.3504638671875 321.29095458984375 472.76409912109375 328.6307678222656 475.74090576171875 339.2701416015625" stroke-width="0.0" fill="rgb(191, 194, 199)" opacity="1.0"/>
    <path d="M 469.90338134765625 387.00372314453125 C 467.2413024902344 396.9384460449219 459.9954528808594 404.43701171875 449.5140380859375 407.7300109863281 C 439.3685302734375 405.0027160644531 432.0408630371094 397.6163024902344 429.3138427734375 387.10736083984375 C 432.15234375 376.56097412109375 439.6210632324219 369.33685302734375 449.8473205566406 366.9093017578125 C 459.9410400390625 369.7398681640625 467.2430725097656 377.0638122558594 469.90338134765625 387.00372314453125" stroke-width="0.0" fill="rgb(197, 204, 211)" opacity="1.0"/>
    <path d="M 563.7700805664062 498.4058837890625 C 561.0462036132812 508.7046813964844 553.7227783203125 516.0934448242188 543.0206909179688 518.8770751953125 C 532.3030395507812 516.072509765625 524.9718627929688 508.68011474609375 522.3724365234375 498.5182189941406 C 525.6635131835938 488.0056457519531 533.0305786132812 480.7454528808594 543.0491333007812 478.0583801269531 C 553.1187133789062 480.616455078125 560.711181640625 487.76971435546875 563.7700805664062 498.4058837890625" stroke-width="0.0" fill="rgb(173, 177, 177)" opacity="1.0"/>
    <path d="M 427.9507751464844 582.321044921875 C 425.2191162109375 592.8790283203125 417.87347412109375 600.2035522460938 407.5923767089844 602.8649291992188 C 396.3692626953125 600.0579833984375 389.2650146484375 592.5211181640625 386.4667053222656 581.53564453125 C 388.9122619628906 571.2161254882812 396.1986389160156 563.8564453125 406.3724060058594 561.310546875 C 417.5467224121094 564.2940063476562 425.1585388183594 571.2844848632812 427.9507751464844 582.321044921875" stroke-width="0.0" fill="rgb(40, 71, 15)" opacity="0.9907868"/>
    <path d="M 586.0016479492188 382.0001220703125 C 583.3203735351562 391.9995422363281 575.9966430664062 399.3099060058594 565.9579467773438 401.8408508300781 C 555.9042358398438 399.421875 548.4771118164062 392.12628173828125 545.5206909179688 382.12664794921875 C 548.6160278320312 372.0013122558594 556.04150390625 364.75262451171875 566.02734375 362.15740966796875 C 575.9791870117188 364.7139587402344 583.3150024414062 372.01220703125 586.0016479492188 382.0001220703125" stroke-width="0.0" fill="rgb(158, 162, 169)" opacity="0.99019545"/>
    <path d="M 267.933349609375 1.983439564704895 C 265.29388427734375 11.986649513244629 257.99359130859375 19.317712783813477 247.66183471679688 22.447641372680664 C 237.5116424560547 19.845359802246094 230.11346435546875 12.502922058105469 227.40194702148438 2.4110798835754395 C 230.66336059570312 -8.005300521850586 237.9990997314453 -15.320804595947266 247.99998474121094 -18.0000057220459 C 257.99993896484375 -15.320487022399902 265.31890869140625 -7.999508380889893 267.933349609375 1.983439564704895" stroke-width="0.0" fill="rgb(250, 252, 250)" opacity="0.99412286"/>
    <path d="M 509.42437744140625 157.89361572265625 C 506.7003479003906 168.35894775390625 499.38385009765625 175.77423095703125 488.6902160644531 178.7051544189453 C 478.5178527832031 175.92282104492188 471.39727783203125 168.37557983398438 468.9427490234375 158.08230590820312 C 471.67950439453125 148.0 479.0 140.6794891357422 489.55889892578125 137.30850219726562 C 499.63037109375 139.97755432128906 506.8746032714844 147.4199676513672 509.42437744140625 157.89361572265625" stroke-width="0.0" fill="rgb(134, 150, 163)" opacity="0.9900609"/>
    <path d="M 532.431640625 273.0958557128906 C 529.6143798828125 283.2522888183594 522.2561645507812 290.623291015625 512.1674194335938 293.2242126464844 C 502.00384521484375 290.3148498535156 494.6712341308594 283.0000305175781 491.611572265625 272.7325439453125 C 494.1905517578125 262.5353698730469 501.5446472167969 255.2213897705078 511.8085021972656 252.87509155273438 C 522.2310791015625 255.45242309570312 529.5579833984375 262.76715087890625 532.431640625 273.0958557128906" stroke-width="0.0" fill="rgb(199, 205, 211)" opacity="0.9910761"/>
    <path d="M 355.92462158203125 34.44469451904297 C 353.1539306640625 45.74296188354492 345.6439514160156 52.884437561035156 335.4988708496094 54.626827239990234 C 325.5950622558594 51.725154876708984 318.4019470214844 44.357608795166016 315.90789794921875 35.39598083496094 C 318.47186279296875 25.71112632751465 325.5840759277344 17.786462783813477 335.812255859375 14.058265686035156 C 345.89886474609375 16.763774871826172 353.228759765625 24.10395622253418 355.92462158203125 34.44469451904297" stroke-width="0.0" fill="rgb(133, 60, 65)" opacity="0.9900461"/>
    <path d="M 445.9449462890625 158.19256591796875 C 443.1913757324219 169.8482208251953 435.83013916015625 177.13502502441406 425.5833435058594 179.55557250976562 C 415.04058837890625 176.2715606689453 407.7266845703125 168.9598846435547 404.0785217285156 158.1326446533203 C 406.7552795410156 148.09353637695312 414.09521484375 140.75906372070312 424.5367126464844 138.04483032226562 C 435.89691162109375 140.7696990966797 443.2433166503906 148.09765625 445.9449462890625 158.19256591796875" stroke-width="0.0" fill="rgb(37, 13, 17)" opacity="0.99011624"/>
    <path d="M 487.7689514160156 192.95689392089844 C 484.91650390625 203.54933166503906 477.5458984375 210.9033966064453 466.7443542480469 213.64964294433594 C 456.312744140625 211.0099639892578 448.8883056640625 203.72586059570312 446.08245849609375 192.53616333007812 C 448.84405517578125 182.24595642089844 456.3370361328125 175.1110076904297 467.2276611328125 172.5350799560547 C 477.6390075683594 175.0417022705078 485.0086975097656 182.34495544433594 487.7689514160156 192.95689392089844" stroke-width="0.0" fill="rgb(144, 150, 158)" opacity="0.99109775"/>
    <path d="M 481.324462890625 165.52850341796875 C 478.7572021484375 175.455322265625 471.42852783203125 182.68466186523438 461.2084655761719 186.5657196044922 C 451.10986328125 184.20660400390625 443.748779296875 176.9068603515625 441.0522766113281 166.8320770263672 C 443.7961120605469 155.1213836669922 451.11871337890625 147.78823852539062 461.2400207519531 145.20272827148438 C 472.0 148.6794891357422 479.32049560546875 156.0 481.324462890625 165.52850341796875" stroke-width="0.0" fill="rgb(22, 20, 20)" opacity="0.99005055"/>
    <path d="M 396.16510009765625 360.1220397949219 C 393.57904052734375 370.23870849609375 386.2635803222656 377.6562194824219 376.0378112792969 380.5346984863281 C 365.6053771972656 377.6863708496094 358.09307861328125 370.4732360839844 355.2657775878906 360.39208984375 C 358.3804016113281 349.64935302734375 365.54718017578125 342.09393310546875 375.53118896484375 339.3822326660156 C 386.03070068359375 342.6391296386719 393.3370361328125 349.9767150878906 396.16510009765625 360.1220397949219" stroke-width="0.0" fill="rgb(190, 196, 212)" opacity="0.99013686"/>
    <path d="M 545.1470336914062 556.5621948242188 C 543.0811767578125 565.9882202148438 536.0946044921875 573.4182739257812 525.7236938476562 576.2897338867188 C 515.3924560546875 573.8974609375 507.9930725097656 566.6419677734375 505.3988037109375 556.4802856445312 C 508.6428527832031 545.9193725585938 515.7774047851562 538.2525634765625 525.2464599609375 536.7937622070312 C 535.2611083984375 539.465576171875 542.5526733398438 546.7314453125 545.1470336914062 556.5621948242188" stroke-width="0.0" fill="rgb(113, 39, 4)" opacity="0.99003565"/>
    <path d="M 399.83660888671875 192.654052734375 C 396.6962890625 203.1734619140625 389.0425720214844 210.3291015625 378.907958984375 213.21278381347656 C 368.907470703125 210.46041870117188 361.71209716796875 203.0438690185547 359.42510986328125 193.02517700195312 C 361.7808532714844 183.02467346191406 368.9308166503906 175.48924255371094 379.3760070800781 172.33184814453125 C 389.61614990234375 175.03199768066406 397.0065002441406 182.37017822265625 399.83660888671875 192.654052734375" stroke-width="0.0" fill="rgb(202, 209, 217)" opacity="1.0"/>
    <path d="M 486.8456726074219 495.85546875 C 483.9090270996094 505.5062255859375 476.4120178222656 512.62939453125 466.197021484375 516.5128784179688 C 456.215576171875 514.15283203125 448.9385986328125 506.75164794921875 446.341796875 496.3287353515625 C 449.1557312011719 485.4973449707031 456.46636962890625 478.07098388671875 466.5381164550781 475.40740966796875 C 476.97344970703125 478.7181396484375 484.3028259277344 486.0201721191406 486.8456726074219 495.85546875" stroke-width="0.0" fill="rgb(184, 182, 188)" opacity="1.0"/>
    <path d="M 575.5506591796875 471.85797119140625 C 572.8789672851562 482.56585693359375 565.5858764648438 489.9420166015625 555.4151611328125 492.4355163574219 C 545.0166625976562 489.2738342285156 537.6508178710938 482.0060729980469 534.5965576171875 471.66802978515625 C 537.0987548828125 461.43048095703125 544.4298095703125 454.0977783203125 555.0548706054688 451.49560546875 C 565.5994873046875 454.0699462890625 572.933349609375 461.3997802734375 575.5506591796875 471.85797119140625" stroke-width="0.0" fill="rgb(156, 156, 161)" opacity="0.9902003"/>
    <path d="M 412.720947265625 456.3093566894531 C 409.9103698730469 466.5020446777344 402.45849609375 473.7882995605469 391.833251953125 476.6267395019531 C 381.4376220703125 473.89013671875 374.0406799316406 466.58642578125 371.2782287597656 455.872314453125 C 374.0246887207031 445.3995666503906 381.4205017089844 438.0848083496094 391.80206298828125 435.3758850097656 C 402.4588623046875 438.20440673828125 409.8653869628906 445.516845703125 412.720947265625 456.3093566894531" stroke-width="0.0" fill="rgb(191, 190, 197)" opacity="1.0"/>
    <path d="M 488.06231689453125 258.97198486328125 C 485.6899108886719 269.2878112792969 478.2540283203125 276.5936279296875 467.9948425292969 279.35137939453125 C 457.672119140625 276.71319580078125 450.2913818359375 269.32537841796875 447.415283203125 259.18182373046875 C 450.3305969238281 248.7110137939453 457.72125244140625 241.36083984375 468.21697998046875 238.39678955078125 C 478.43792724609375 241.1800079345703 485.7612609863281 248.5811767578125 488.06231689453125 258.97198486328125" stroke-width="0.0" fill="rgb(219, 223, 228)" opacity="1.0"/>
    <path d="M 608.0689697265625 51.987403869628906 C 605.4293212890625 62.12065505981445 598.1317749023438 69.46629333496094 588.0825805664062 72.03399658203125 C 578.0607299804688 69.25181579589844 570.7210693359375 61.94731140136719 567.9921264648438 51.991207122802734 C 570.6763916015625 41.99875259399414 578.0016479492188 34.68635559082031 588.0847778320312 31.999204635620117 C 598.2001342773438 34.44808578491211 605.4689331054688 41.82529067993164 608.0689697265625 51.987403869628906" stroke-width="0.0" fill="rgb(212, 223, 230)" opacity="0.9941505"/>
    <path d="M 494.10650634765625 148.50057983398438 C 491.5539855957031 158.2965087890625 484.3377380371094 165.67123413085938 474.62371826171875 168.66357421875 C 465.00775146484375 166.3003387451172 457.58856201171875 159.02627563476562 454.079345703125 148.14141845703125 C 456.75848388671875 138.0945587158203 464.09423828125 130.75765991210938 474.3752136230469 128.0414581298828 C 485.7881774902344 130.81007385253906 492.4802551269531 138.3513641357422 494.10650634765625 148.50057983398438" stroke-width="0.0" fill="rgb(56, 23, 23)" opacity="0.99003017"/>
    <path d="M 553.7159423828125 582.764892578125 C 551.2481689453125 593.0081176757812 544.0519409179688 600.3978881835938 534.0357055664062 603.0466918945312 C 524.0 600.3204956054688 516.6795043945312 593.0 514.0006713867188 583.0015869140625 C 516.6864013671875 573.0094604492188 524.0108642578125 565.6906127929688 534.21484375 562.7311401367188 C 544.37158203125 565.28271484375 551.7090454101562 572.6301879882812 553.7159423828125 582.764892578125" stroke-width="0.0" fill="rgb(132, 51, 8)" opacity="0.99080765"/>
    <path d="M 534.5612182617188 362.0522766113281 C 531.8720703125 372.5053405761719 524.5053100585938 379.876220703125 514.35595703125 382.63665771484375 C 503.60687255859375 379.66455078125 496.1568908691406 372.4498596191406 493.6056213378906 362.3403015136719 C 496.71600341796875 352.02777099609375 504.0234375 344.7013854980469 514.4237060546875 341.4797668457031 C 524.576904296875 344.0621032714844 531.886962890625 351.4395446777344 534.5612182617188 362.0522766113281" stroke-width="0.0" fill="rgb(181, 184, 189)" opacity="0.99029917"/>
    <path d="M 314.8434143066406 555.6728515625 C 312.04620361328125 566.6907958984375 304.68804931640625 574.0370483398438 294.52337646484375 576.545166015625 C 283.76214599609375 573.4370727539062 276.18389892578125 566.3583984375 273.1072082519531 555.2666015625 C 275.8103942871094 545.1561279296875 283.1575622558594 537.8138427734375 294.5292663574219 535.0606079101562 C 304.8433532714844 537.796142578125 312.1451416015625 545.1799926757812 314.8434143066406 555.6728515625" stroke-width="0.0" fill="rgb(128, 128, 140)" opacity="1.0"/>
    <path d="M 529.2938232421875 493.32684326171875 C 526.912109375 503.60430908203125 519.6301879882812 510.99298095703125 509.4686279296875 513.572998046875 C 499.0036315917969 510.3337707519531 491.73187255859375 502.97686767578125 489.2266540527344 493.0466613769531 C 491.73760986328125 482.981689453125 498.9288635253906 475.5603332519531 509.35662841796875 472.3834228515625 C 519.1731567382812 475.3408508300781 526.3460083007812 482.9326171875 529.2938232421875 493.32684326171875" stroke-width="0.0" fill="rgb(155, 153, 155)" opacity="0.9902217"/>
    <path d="M 612.0304565429688 562.0119018554688 C 609.4861450195312 572.2757568359375 602.4381713867188 579.9332275390625 591.6317749023438 582.864013671875 C 581.289794921875 580.0813598632812 573.9241333007812 572.707763671875 571.1143798828125 561.692138671875 C 573.8766479492188 551.2510375976562 581.2869873046875 543.9781494140625 591.7139282226562 541.376953125 C 602.2760620117188 544.2723999023438 609.427734375 551.8228149414062 612.0304565429688 562.0119018554688" stroke-width="0.0" fill="rgb(140, 141, 142)" opacity="1.0"/>
    <path d="M 457.9517517089844 115.5608901977539 C 455.2311096191406 125.8953628540039 447.8995361328125 133.2407684326172 437.1789245605469 135.9610137939453 C 426.0933837890625 133.24359130859375 418.7588195800781 125.90558624267578 416.0504150390625 115.77464294433594 C 418.91119384765625 104.3415756225586 426.4649353027344 97.31890869140625 437.54656982421875 95.61032104492188 C 447.7686462402344 96.91593933105469 455.1811828613281 104.1934585571289 457.9517517089844 115.5608901977539" stroke-width="0.0" fill="rgb(196, 3, 2)" opacity="0.99007046"/>
    <path d="M 419.7546081542969 273.29132080078125 C 417.7211608886719 283.40167236328125 410.4275817871094 290.8040466308594 399.91839599609375 293.673583984375 C 389.56304931640625 290.8475341796875 382.35888671875 283.3710632324219 380.5206298828125 273.36688232421875 C 382.9337158203125 262.8890380859375 389.6535339355469 255.16761779785156 399.62969970703125 252.355712890625 C 409.978759765625 255.59133911132812 417.1241149902344 263.1073303222656 419.7546081542969 273.29132080078125" stroke-width="0.0" fill="rgb(172, 177, 184)" opacity="0.9900503"/>
    <path d="M 437.95855712890625 556.8244018554688 C 435.2443542480469 566.903564453125 427.8946838378906 574.220703125 417.7772216796875 576.8164672851562 C 406.98822021484375 573.32470703125 399.66571044921875 566.014892578125 396.6473083496094 555.760498046875 C 399.3544921875 545.74853515625 406.77679443359375 538.4422607421875 417.04193115234375 535.714599609375 C 427.4388427734375 538.3043823242188 435.0523986816406 545.4191284179688 437.95855712890625 556.8244018554688" stroke-width="0.0" fill="rgb(32, 82, 8)" opacity="0.99472266"/>
    <path d="M 534.8988037109375 590.1447143554688 C 532.4033813476562 600.0527954101562 525.0347900390625 607.3433227539062 514.8988037109375 610.0724487304688 C 504.51666259765625 607.6805419921875 496.9262390136719 600.6237182617188 494.0848083496094 589.6484985351562 C 496.8356628417969 579.1909790039062 504.19720458984375 571.8505249023438 514.2813110351562 569.1541137695312 C 524.8588256835938 572.7691040039062 532.1187744140625 580.1720581054688 534.8988037109375 590.1447143554688" stroke-width="0.0" fill="rgb(175, 70, 2)" opacity="0.9900892"/>
    <path d="M 425.6813049316406 350.7334289550781 C 422.8103942871094 361.46417236328125 415.478515625 368.8525390625 405.2730712890625 371.56573486328125 C 394.7191162109375 368.6528625488281 387.5281677246094 361.228271484375 385.1217041015625 350.7732849121094 C 387.1620178222656 340.43463134765625 394.3733825683594 332.97589111328125 404.5527038574219 330.2032775878906 C 415.54803466796875 333.107421875 422.93914794921875 340.4350280761719 425.6813049316406 350.7334289550781" stroke-width="0.0" fill="rgb(179, 182, 189)" opacity="0.9901319"/>
    <path d="M 603.3743286132812 391.03826904296875 C 600.744140625 401.3992614746094 593.382080078125 408.68780517578125 583.1568603515625 411.1523132324219 C 573.0126953125 408.31524658203125 565.7235107421875 400.9756774902344 562.8058471679688 390.8764343261719 C 565.51220703125 380.8689270019531 572.9014282226562 373.630859375 583.3612060546875 370.775634765625 C 593.4403686523438 373.1677551269531 600.7137451171875 380.598876953125 603.3743286132812 391.03826904296875" stroke-width="0.0" fill="rgb(178, 182, 187)" opacity="1.0"/>
  </g>
</svg>
