<?xml version="1.0" ?>
<svg xmlns="http://www.w3.org/2000/svg" version="1.1" width="600" height="600">
  <defs/>
  <g>
    <path d="M 375.46099853515625 542.4893188476562 C 373.0903015136719 552.8062133789062 365.8496398925781 560.2149047851562 355.1455993652344 562.9515991210938 C 344.11273193359375 560.2269897460938 336.7739562988281 552.8867797851562 334.0484924316406 542.5911254882812 C 336.87322998046875 531.3466796875 344.5525817871094 524.3950805664062 354.9396057128906 521.9677734375 C 365.0 524.6795043945312 372.32049560546875 532.0 375.46099853515625 542.4893188476562" stroke-width="0.0" fill="rgb(55, 54, 58)" opacity="1.0"/>
    <path d="M 583.965087890625 417.92901611328125 C 581.2507934570312 428.9121398925781 573.90966796875 436.2452697753906 563.7044677734375 438.955322265625 C 552.2174682617188 436.18353271484375 545.09912109375 428.6842956542969 542.8259887695312 418.236572265625 C 545.6726684570312 407.9794006347656 552.8862915039062 400.3951721191406 563.8576049804688 397.05584716796875 C 573.9104614257812 399.7546081542969 581.2516479492188 407.0867919921875 583.965087890625 417.92901611328125" stroke-width="0.0" fill="rgb(3, 3, 4)" opacity="0.9900559"/>
    <path d="M 309.94140625 449.56219482421875 C 307.229248046875 459.89337158203125 299.89459228515625 467.2323303222656 289.2007751464844 469.95086669921875 C 278.1174011230469 467.2251281738281 270.8077087402344 459.8709716796875 268.1833190917969 449.4646301269531 C 270.8571472167969 438.1707763671875 278.14971923828125 430.7972106933594 289.5023498535156 428.0517883300781 C 299.8686218261719 430.78167724609375 307.19683837890625 438.1404113769531 309.94140625 449.56219482421875" stroke-width="0.0" fill="rgb(59, 60, 66)" opacity="1.0"/>
    <path d="M 231.9398193359375 457.43310546875 C 229.1331024169922 468.69488525390625 221.5497283935547 475.72894287109375 211.118408203125 478.0734558105469 C 201.0 475.32049560546875 193.6794891357422 468.0 190.99929809570312 457.9980773925781 C 193.65711975097656 447.94024658203125 200.79302978515625 440.2567138671875 211.8035125732422 437.0703125 C 221.86309814453125 439.78729248046875 229.20724487304688 447.1391906738281 231.9398193359375 457.43310546875" stroke-width="0.0" fill="rgb(40, 40, 44)" opacity="0.9901293"/>
    <path d="M 321.100830078125 233.68283081054688 C 318.5257873535156 243.2431640625 311.24249267578125 250.52407836914062 301.1550598144531 254.73095703125 C 291.166259765625 252.18411254882812 283.8268127441406 244.82904052734375 281.1233825683594 234.7487030029297 C 284.57366943359375 223.9628448486328 291.993408203125 216.6772918701172 302.5893249511719 213.26419067382812 C 312.3071594238281 216.01425170898438 318.63165283203125 224.44036865234375 321.100830078125 233.68283081054688" stroke-width="0.0" fill="rgb(116, 109, 111)" opacity="0.99001753"/>
    <path d="M 107.92015075683594 297.6702880859375 C 105.17359924316406 308.8309020996094 97.84069061279297 316.1963195800781 87.27989196777344 318.93609619140625 C 76.14006042480469 316.2012023925781 68.81394958496094 308.8545227050781 66.07508087158203 297.3363952636719 C 68.79159545898438 287.1376037597656 76.1389389038086 279.7947998046875 87.21333312988281 277.0558166503906 C 97.8606185913086 279.79107666015625 105.19572448730469 287.1448669433594 107.92015075683594 297.6702880859375" stroke-width="0.0" fill="rgb(82, 82, 89)" opacity="0.99214816"/>
    <path d="M 220.9293670654297 290.8067932128906 C 218.18775939941406 301.8456726074219 210.84658813476562 309.1895751953125 200.7453155517578 311.8295593261719 C 189.46249389648438 308.7298889160156 181.89385986328125 301.669677734375 179.07339477539062 290.4237365722656 C 181.81146240234375 280.1620178222656 189.1624298095703 272.8127136230469 199.5934295654297 270.077392578125 C 210.83154296875 272.8249206542969 218.18605041503906 280.1641540527344 220.9293670654297 290.8067932128906" stroke-width="0.0" fill="rgb(84, 87, 93)" opacity="0.9903465"/>
    <path d="M 277.78961181640625 448.35760498046875 C 275.180419921875 458.8695983886719 267.8890686035156 466.2356262207031 257.65875244140625 468.9516906738281 C 246.1251220703125 466.20892333984375 238.7703399658203 458.88360595703125 236.05523681640625 448.7053527832031 C 238.87547302246094 437.3051452636719 246.37416076660156 430.00531005859375 257.5726623535156 427.0701904296875 C 267.8330993652344 429.8148498535156 275.13018798828125 437.1859436035156 277.78961181640625 448.35760498046875" stroke-width="0.0" fill="rgb(51, 51, 55)" opacity="0.99020344"/>
    <path d="M 235.56344604492188 167.487060546875 C 232.47323608398438 178.253173828125 225.4148712158203 185.91546630859375 215.55197143554688 188.74041748046875 C 205.0 185.3205108642578 197.6794891357422 178.0 194.7613983154297 167.72698974609375 C 197.10093688964844 157.36119079589844 204.29928588867188 149.91148376464844 214.5565185546875 147.22813415527344 C 225.71585083007812 149.96885681152344 233.0647430419922 157.2736053466797 235.56344604492188 167.487060546875" stroke-width="0.0" fill="rgb(113, 116, 122)" opacity="0.9903833"/>
    <path d="M 136.9381866455078 538.7229614257812 C 134.20101928710938 549.8318481445312 126.78089141845703 557.0479125976562 116.39054107666016 559.376953125 C 105.54483032226562 556.6109008789062 97.86837768554688 549.660400390625 95.0428695678711 538.33154296875 C 97.77845764160156 528.1461181640625 105.19588470458984 520.9219970703125 115.73223876953125 518.485595703125 C 126.73347473144531 521.0208129882812 134.1904754638672 528.1944580078125 136.9381866455078 538.7229614257812" stroke-width="0.0" fill="rgb(38, 38, 41)" opacity="0.99014986"/>
    <path d="M 588.6275634765625 572.38720703125 C 585.3260498046875 583.0165405273438 578.0849609375 590.5401000976562 567.2590942382812 593.9118041992188 C 557.4241943359375 591.084716796875 550.501220703125 583.3330688476562 547.1823120117188 572.2334594726562 C 549.7893676757812 562.1214599609375 557.115966796875 554.7745361328125 568.3856201171875 552.0414428710938 C 578.8673706054688 554.77587890625 586.1477661132812 562.1607055664062 588.6275634765625 572.38720703125" stroke-width="0.0" fill="rgb(47, 46, 49)" opacity="1.0"/>
    <path d="M 193.8939666748047 426.17755126953125 C 190.3205108642578 437.0 183.0 444.32049560546875 172.2046661376953 447.8570251464844 C 162.1254119873047 445.2144775390625 154.78216552734375 437.8757019042969 152.0486602783203 426.6317138671875 C 154.77369689941406 416.1144104003906 162.1148681640625 408.7750244140625 172.54678344726562 406.0581970214844 C 183.87326049804688 408.7880554199219 191.2172088623047 416.1246643066406 193.8939666748047 426.17755126953125" stroke-width="0.0" fill="rgb(61, 62, 66)" opacity="1.0"/>
    <path d="M 61.06047821044922 116.08216857910156 C 58.597389221191406 126.36775207519531 51.48877716064453 133.94639587402344 40.44910430908203 136.873046875 C 30.223108291625977 134.13580322265625 22.87384796142578 126.7728500366211 20.12971305847168 116.47195434570312 C 22.930858612060547 105.2840805053711 30.294456481933594 97.96147918701172 40.502166748046875 95.43783569335938 C 51.0 98.67948913574219 58.32050704956055 106.0 61.06047821044922 116.08216857910156" stroke-width="0.0" fill="rgb(133, 134, 141)" opacity="1.0"/>
    <path d="M 567.2828369140625 137.26303100585938 C 564.817626953125 147.47508239746094 557.4314575195312 154.6429443359375 547.2554931640625 156.35247802734375 C 537.4207153320312 153.8292236328125 530.1928100585938 146.5718994140625 527.671142578125 136.595703125 C 529.2260131835938 126.47024536132812 536.4346313476562 119.09032440185547 546.656494140625 116.63079833984375 C 557.0 119.67948913574219 564.3204956054688 127.0 567.2828369140625 137.26303100585938" stroke-width="0.0" fill="rgb(247, 206, 130)" opacity="0.9900528"/>
    <path d="M 228.94735717773438 592.382568359375 C 226.1123046875 603.6355590820312 218.4329376220703 610.59375 207.9948272705078 613.061279296875 C 197.54502868652344 610.6112670898438 189.87039184570312 603.6585693359375 187.03880310058594 592.2350463867188 C 189.75564575195312 582.0985107421875 197.10523986816406 574.7713623046875 208.38023376464844 572.0459594726562 C 218.8954315185547 574.7647094726562 226.22732543945312 582.1078491210938 228.94735717773438 592.382568359375" stroke-width="0.0" fill="rgb(54, 54, 55)" opacity="1.0"/>
    <path d="M 132.96043395996094 560.7651977539062 C 130.24417114257812 570.9015502929688 122.89694213867188 578.2338256835938 111.46717071533203 580.9610595703125 C 101.09717559814453 578.2429809570312 93.76493835449219 570.8994750976562 91.04259490966797 560.17919921875 C 93.78598022460938 549.1624145507812 101.22463989257812 541.9634399414062 111.63410186767578 539.6248168945312 C 122.4829330444336 542.3577270507812 130.13824462890625 549.3244018554688 132.96043395996094 560.7651977539062" stroke-width="0.0" fill="rgb(41, 41, 43)" opacity="1.0"/>
    <path d="M 187.86505126953125 91.28376007080078 C 185.09228515625 101.73686218261719 177.73745727539062 109.0923080444336 167.12376403808594 111.80743408203125 C 156.25099182128906 109.09223175048828 148.8926544189453 101.75409698486328 146.1197052001953 91.08052062988281 C 148.9341278076172 80.31625366210938 156.3232421875 72.95034790039062 167.1131591796875 70.12199401855469 C 177.70904541015625 72.92499542236328 185.06570434570312 80.29434204101562 187.86505126953125 91.28376007080078" stroke-width="0.0" fill="rgb(141, 144, 149)" opacity="0.99027824"/>
    <path d="M 251.00552368164062 204.0119171142578 C 248.4008331298828 214.1635284423828 241.33900451660156 221.8668975830078 230.37010192871094 224.88893127441406 C 220.1657257080078 222.1753692626953 212.80601501464844 214.8418731689453 210.0648956298828 204.34437561035156 C 212.8311767578125 193.19512939453125 220.21844482421875 185.89309692382812 230.4146270751953 183.35548400878906 C 241.0 186.6794891357422 248.3205108642578 194.0 251.00552368164062 204.0119171142578" stroke-width="0.0" fill="rgb(106, 106, 112)" opacity="1.0"/>
    <path d="M 538.9022827148438 29.80816078186035 C 536.2119140625 39.86861038208008 528.8668212890625 47.207767486572266 517.765380859375 49.94449996948242 C 507.11724853515625 47.21961212158203 499.7748107910156 39.88510513305664 497.0627746582031 29.592805862426758 C 499.8058776855469 18.144609451293945 507.1375427246094 10.788836479187012 517.1778564453125 8.102231979370117 C 528.0091552734375 11.676435470581055 535.4532470703125 18.951879501342773 538.9022827148438 29.80816078186035" stroke-width="0.0" fill="rgb(69, 69, 74)" opacity="1.0"/>
    <path d="M 558.3536987304688 422.5796813964844 C 556.1466064453125 432.854736328125 548.8867797851562 440.2401428222656 537.88232421875 442.96533203125 C 527.0906372070312 440.24652099609375 519.7609252929688 432.9063415527344 517.0372924804688 421.6683654785156 C 519.7789916992188 411.1540222167969 527.2166748046875 403.95806884765625 537.6043090820312 401.655029296875 C 548.0230102539062 404.6571044921875 555.2794799804688 411.9944152832031 558.3536987304688 422.5796813964844" stroke-width="0.0" fill="rgb(39, 40, 43)" opacity="1.0"/>
    <path d="M 234.80355834960938 121.30860900878906 C 231.32052612304688 132.0 224.0 139.3205108642578 213.87069702148438 142.10540771484375 C 203.58457946777344 139.67637634277344 196.1373748779297 132.4735565185547 193.59202575683594 122.33817291259766 C 196.6794891357422 112.0 204.0 104.67948913574219 214.54824829101562 101.36557006835938 C 224.7332305908203 103.93436431884766 232.12399291992188 111.24478912353516 234.80355834960938 121.30860900878906" stroke-width="0.0" fill="rgb(125, 128, 134)" opacity="1.0"/>
    <path d="M 307.8738098144531 212.2419891357422 C 304.4181823730469 223.0335693359375 297.00299072265625 230.31399536132812 286.3504943847656 233.72540283203125 C 276.20001220703125 231.1338348388672 268.82257080078125 223.81703186035156 266.071044921875 213.17523193359375 C 268.81939697265625 202.16542053222656 276.1642761230469 194.8163604736328 287.14111328125 192.07025146484375 C 297.83062744140625 194.82012939453125 305.18023681640625 202.16908264160156 307.8738098144531 212.2419891357422" stroke-width="0.0" fill="rgb(109, 107, 111)" opacity="1.0"/>
    <path d="M 128.94638061523438 355.9424743652344 C 126.18003845214844 366.7843933105469 118.70167541503906 373.9469909667969 107.48297119140625 376.6600646972656 C 97.17495727539062 374.1371154785156 89.79984283447266 366.8471374511719 87.05310821533203 355.44403076171875 C 89.77590942382812 345.12078857421875 97.1240005493164 337.783447265625 108.01832580566406 335.0549621582031 C 118.88349151611328 337.77618408203125 126.21690368652344 345.1194152832031 128.94638061523438 355.9424743652344" stroke-width="0.0" fill="rgb(70, 72, 75)" opacity="1.0"/>
    <path d="M 162.93011474609375 501.2181396484375 C 159.71392822265625 512.1854248046875 152.05020141601562 519.3391723632812 142.00160217285156 522.0006103515625 C 132.0 519.3204956054688 124.67948913574219 512.0 122.0 502.0 C 124.67948913574219 492.0 132.0 484.67950439453125 142.225341796875 481.8407897949219 C 152.68698120117188 484.1048278808594 160.1900634765625 491.2109069824219 162.93011474609375 501.2181396484375" stroke-width="0.0" fill="rgb(46, 46, 49)" opacity="1.0"/>
    <path d="M 223.9232635498047 238.26475524902344 C 221.17662048339844 248.8255157470703 213.81558227539062 256.1495361328125 203.66244506835938 258.7256774902344 C 193.0 255.3205108642578 185.6794891357422 248.0 182.99342346191406 237.98574829101562 C 185.5850067138672 227.81100463867188 192.62313842773438 220.0941162109375 203.6183624267578 217.09532165527344 C 213.8171844482422 219.829345703125 221.1632843017578 227.1859893798828 223.9232635498047 238.26475524902344" stroke-width="0.0" fill="rgb(101, 102, 108)" opacity="1.0"/>
    <path d="M 323.92108154296875 297.2272644042969 C 321.6645202636719 307.41485595703125 314.53289794921875 314.9927673339844 304.22296142578125 317.8558044433594 C 293.2352600097656 315.11883544921875 285.9510803222656 307.7425842285156 284.6443176269531 296.88494873046875 C 286.7410888671875 287.1294860839844 294.134765625 279.7792663574219 304.01348876953125 277.0242919921875 C 313.9038391113281 279.7383117675781 321.06475830078125 287.15838623046875 323.92108154296875 297.2272644042969" stroke-width="0.0" fill="rgb(234, 228, 191)" opacity="1.0"/>
    <path d="M 94.95769500732422 462.7633361816406 C 92.23267364501953 473.8906555175781 84.88674926757812 481.223388671875 73.48548889160156 483.9534606933594 C 63.10451126098633 481.233642578125 55.76884078979492 473.89471435546875 53.119998931884766 463.8153991699219 C 56.15520477294922 452.3652648925781 63.25243377685547 444.8376770019531 74.68478393554688 442.0470886230469 C 84.88662719726562 444.7691345214844 92.23048400878906 452.1135559082031 94.95769500732422 462.7633361816406" stroke-width="0.0" fill="rgb(44, 44, 48)" opacity="0.99024165"/>
    <path d="M 452.7797546386719 90.30746459960938 C 448.5867919921875 100.28739929199219 441.2877197265625 107.58558654785156 431.9515075683594 110.15007019042969 C 422.5448913574219 107.65088653564453 414.86883544921875 100.60004425048828 411.8716735839844 91.03166961669922 C 414.67950439453125 81.0 422.0 73.67948913574219 432.00372314453125 70.99858856201172 C 442.096435546875 73.64115142822266 449.841796875 80.71442413330078 452.7797546386719 90.30746459960938" stroke-width="0.0" fill="rgb(53, 56, 65)" opacity="0.99001706"/>
    <path d="M 385.9631042480469 436.4979553222656 C 383.234619140625 447.8907775878906 375.8863830566406 455.22442626953125 364.5423583984375 457.951416015625 C 354.10699462890625 455.2323913574219 346.7710266113281 447.89154052734375 344.0898132324219 437.8352355957031 C 347.3660888671875 426.53173828125 354.3341979980469 418.86669921875 365.84832763671875 416.0332946777344 C 375.929443359375 418.73614501953125 383.257080078125 426.0733337402344 385.9631042480469 436.4979553222656" stroke-width="0.0" fill="rgb(40, 39, 44)" opacity="1.0"/>
    <path d="M 176.91024780273438 360.19598388671875 C 173.45697021484375 371.0482177734375 166.0079345703125 378.3230895996094 156.00010681152344 381.00006103515625 C 145.9982147216797 378.3210754394531 138.64877319335938 371.0102233886719 135.08990478515625 360.1688537597656 C 137.78738403320312 350.1354675292969 145.13917541503906 342.7962341308594 155.57369995117188 340.0675964355469 C 166.84178161621094 342.8192443847656 174.2027587890625 350.1490478515625 176.91024780273438 360.19598388671875" stroke-width="0.0" fill="rgb(68, 68, 75)" opacity="1.0"/>
    <path d="M 48.95086669921875 507.3099365234375 C 46.23371887207031 517.8877563476562 38.86931610107422 525.1815795898438 28.664871215820312 527.6940307617188 C 17.48761558532715 524.6651000976562 9.849908828735352 517.69677734375 7.0626420974731445 507.6946716308594 C 10.126492500305176 496.6928405761719 17.90054702758789 489.6401672363281 28.63941764831543 486.3484802246094 C 38.85177230834961 488.8365783691406 46.221275329589844 496.1278991699219 48.95086669921875 507.3099365234375" stroke-width="0.0" fill="rgb(37, 37, 40)" opacity="1.0"/>
    <path d="M 434.9679260253906 444.6997985839844 C 432.24688720703125 454.89947509765625 424.8822937011719 462.2028503417969 414.4732666015625 464.845703125 C 403.1477355957031 462.1671142578125 395.7811279296875 454.8705749511719 393.0440979003906 443.3611145019531 C 395.766357421875 433.1221618652344 403.1445007324219 425.8185119628906 413.5624694824219 423.086181640625 C 424.79327392578125 425.8592834472656 432.1927185058594 433.1828308105469 434.9679260253906 444.6997985839844" stroke-width="0.0" fill="rgb(7, 6, 8)" opacity="0.99001706"/>
    <path d="M 36.9294548034668 473.2875061035156 C 33.8266487121582 484.26751708984375 26.08174705505371 491.3516540527344 15.997529983520508 494.0046081542969 C 5.97003173828125 491.34161376953125 -1.378169298171997 484.0409851074219 -4.038832664489746 474.0274353027344 C -1.3205081224441528 464.0 6.0 456.67950439453125 16.73489761352539 453.1758117675781 C 26.79648208618164 455.837158203125 34.16347885131836 463.2043762207031 36.9294548034668 473.2875061035156" stroke-width="0.0" fill="rgb(38, 38, 42)" opacity="0.99098486"/>
    <path d="M 575.9036865234375 128.5347137451172 C 573.1237182617188 139.73428344726562 565.6716918945312 146.93954467773438 555.3894653320312 149.0511474609375 C 545.3584594726562 145.95310974121094 538.122314453125 138.6175994873047 535.1275024414062 128.42408752441406 C 536.9215698242188 118.20942687988281 544.1695556640625 110.80491638183594 555.3504638671875 108.06034088134766 C 565.8607788085938 110.79183197021484 573.1890869140625 118.1468734741211 575.9036865234375 128.5347137451172" stroke-width="0.0" fill="rgb(207, 165, 113)" opacity="1.0"/>
    <path d="M 163.0 268.0 C 160.3205108642578 278.0 153.0 285.32049560546875 142.9158477783203 288.05059814453125 C 132.5289764404297 285.6487121582031 124.90252685546875 278.636962890625 122.06362915039062 267.3890686035156 C 124.79640197753906 257.15460205078125 132.18373107910156 249.87872314453125 142.43359375 247.42330932617188 C 153.0 250.6794891357422 160.3205108642578 258.0 163.0 268.0" stroke-width="0.0" fill="rgb(90, 92, 98)" opacity="1.0"/>
    <path d="M 175.9533233642578 541.4125366210938 C 173.23397827148438 551.894775390625 165.89483642578125 559.234130859375 154.71351623535156 561.9611206054688 C 144.1006622314453 559.237060546875 136.7590789794922 551.901123046875 134.0516357421875 541.677734375 C 136.78260803222656 530.12158203125 144.12112426757812 522.7813720703125 155.54444885253906 520.0438232421875 C 165.88937377929688 522.7662963867188 173.22152709960938 530.115966796875 175.9533233642578 541.4125366210938" stroke-width="0.0" fill="rgb(44, 43, 46)" opacity="1.0"/>
    <path d="M 256.008056640625 420.0124206542969 C 253.3968963623047 430.1550598144531 246.35733032226562 437.9051818847656 235.21763610839844 440.9358825683594 C 225.10748291015625 438.2315979003906 217.76998901367188 430.8917541503906 215.04403686523438 419.7966613769531 C 217.77731323242188 409.1380615234375 225.17462158203125 401.8800964355469 235.453857421875 399.4656066894531 C 246.0 402.67950439453125 253.3205108642578 410.0 256.008056640625 420.0124206542969" stroke-width="0.0" fill="rgb(59, 59, 63)" opacity="1.0"/>
    <path d="M 325.9559020996094 498.4939880371094 C 323.2255859375 509.8867492675781 315.8887634277344 517.2305297851562 305.4634704589844 519.9534301757812 C 294.10687255859375 517.2277221679688 286.7623596191406 509.8972473144531 284.0427551269531 499.3103332519531 C 286.7641296386719 488.09881591796875 294.0974426269531 480.7608642578125 304.7939453125 478.0449523925781 C 315.8938293457031 480.7688903808594 323.2374267578125 488.10345458984375 325.9559020996094 498.4939880371094" stroke-width="0.0" fill="rgb(47, 46, 49)" opacity="0.99025077"/>
    <path d="M 260.91253662109375 175.80795288085938 C 258.15692138671875 186.79226684570312 250.75682067871094 194.0512237548828 240.45025634765625 196.44561767578125 C 229.92662048339844 193.3734130859375 222.54412841796875 186.09848022460938 219.8765869140625 176.01768493652344 C 222.46058654785156 165.6634979248047 229.48614501953125 157.99205017089844 240.43650817871094 155.09291076660156 C 250.80929565429688 157.84390258789062 258.1623229980469 165.18826293945312 260.91253662109375 175.80795288085938" stroke-width="0.0" fill="rgb(115, 117, 124)" opacity="1.0"/>
    <path d="M 208.93673706054688 319.70025634765625 C 206.2182159423828 329.8759765625 198.8751983642578 337.21630859375 188.45457458496094 339.942138671875 C 177.16156005859375 337.19134521484375 169.82046508789062 329.833251953125 167.0750274658203 319.20220947265625 C 169.81466674804688 308.15216064453125 177.1494903564453 300.8081970214844 187.25216674804688 298.1763000488281 C 198.46449279785156 301.35333251953125 206.08258056640625 308.3768310546875 208.93673706054688 319.70025634765625" stroke-width="0.0" fill="rgb(78, 79, 85)" opacity="1.0"/>
    <path d="M 606.6583862304688 583.128173828125 C 604.1124877929688 593.8145751953125 596.8369140625 601.1831665039062 586.3673706054688 603.8547973632812 C 575.1854248046875 601.1550903320312 567.88232421875 593.8024291992188 565.4152221679688 583.570068359375 C 568.6741943359375 572.9873657226562 575.9445190429688 565.533203125 586.8463134765625 562.074462890625 C 596.8588256835938 564.77734375 604.0993041992188 572.1842651367188 606.6583862304688 583.128173828125" stroke-width="0.0" fill="rgb(44, 43, 46)" opacity="1.0"/>
    <path d="M 45.9060173034668 422.71484375 C 43.128902435302734 433.7112731933594 35.64884948730469 441.0050354003906 24.246768951416016 443.9432373046875 C 14.134910583496094 441.21258544921875 6.775446891784668 433.8709716796875 4.040990352630615 423.4480285644531 C 6.776762008666992 412.1321105957031 14.162175178527832 404.8628845214844 24.68646240234375 402.3180847167969 C 35.78726577758789 404.92401123046875 43.1827392578125 412.1774597167969 45.9060173034668 422.71484375" stroke-width="0.0" fill="rgb(65, 64, 68)" opacity="1.0"/>
    <path d="M 524.9502563476562 563.0866088867188 C 522.2343139648438 573.8948364257812 514.8931274414062 581.2305297851562 503.7034912109375 583.9578247070312 C 493.1044006347656 581.2363891601562 485.7679443359375 573.8936767578125 483.0433349609375 563.232666015625 C 485.76812744140625 552.10302734375 493.0997314453125 544.7601318359375 503.5419921875 542.0416259765625 C 514.8941040039062 544.76806640625 522.2316284179688 552.10595703125 524.9502563476562 563.0866088867188" stroke-width="0.0" fill="rgb(40, 39, 42)" opacity="1.0"/>
    <path d="M 176.90151977539062 365.8193359375 C 174.21714782714844 375.8750305175781 166.8728790283203 383.2115173339844 156.7875213623047 385.8585510253906 C 145.52415466308594 382.6617736816406 137.91122436523438 375.6318054199219 135.125244140625 365.6975402832031 C 138.5679931640625 354.96038818359375 145.9899139404297 347.6678161621094 155.9893341064453 344.9688415527344 C 166.00091552734375 347.67852783203125 173.38259887695312 354.9815979003906 176.90151977539062 365.8193359375" stroke-width="0.0" fill="rgb(78, 78, 85)" opacity="1.0"/>
    <path d="M 399.0076599121094 7.016475677490234 C 396.4268493652344 17.208402633666992 389.40155029296875 24.92856788635254 378.4304504394531 27.905292510986328 C 368.2071533203125 25.150623321533203 360.8602600097656 17.7884464263916 358.1230773925781 7.573604583740234 C 361.1307373046875 -3.349773406982422 368.8197937011719 -10.412622451782227 378.9853820800781 -13.007037162780762 C 389.0 -10.320508003234863 396.32049560546875 -3.0 399.0076599121094 7.016475677490234" stroke-width="0.0" fill="rgb(122, 121, 125)" opacity="1.0"/>
    <path d="M 488.9653625488281 443.7593078613281 C 486.2524108886719 453.9147644042969 478.91253662109375 461.2471923828125 468.1680603027344 463.95989990234375 C 457.08087158203125 461.251708984375 449.7429504394531 453.92132568359375 447.0413513183594 443.82550048828125 C 449.8382873535156 432.24603271484375 457.5763854980469 426.4141540527344 468.52960205078125 423.9627380371094 C 478.7276916503906 425.5487365722656 486.1902160644531 432.18121337890625 488.9653625488281 443.7593078613281" stroke-width="0.0" fill="rgb(4, 4, 5)" opacity="0.9900084"/>
    <path d="M 392.95684814453125 535.1184692382812 C 390.2360534667969 545.8988037109375 382.9003601074219 553.2396850585938 372.8492126464844 555.9370727539062 C 361.81640625 552.7029418945312 354.65850830078125 545.054931640625 351.8909606933594 534.841796875 C 354.20489501953125 524.399658203125 361.271728515625 516.8470458984375 372.699462890625 514.0499877929688 C 382.89324951171875 516.7655639648438 390.2322692871094 524.1077270507812 392.95684814453125 535.1184692382812" stroke-width="0.0" fill="rgb(45, 44, 48)" opacity="1.0"/>
    <path d="M 156.9065399169922 293.78741455078125 C 154.20054626464844 303.8503723144531 146.84510803222656 311.1879577636719 135.75144958496094 313.93377685546875 C 125.15621948242188 311.1932373046875 117.81248474121094 303.84136962890625 115.06768798828125 292.95184326171875 C 117.80999755859375 282.169189453125 125.19841003417969 274.89385986328125 135.45762634277344 272.4501647949219 C 146.02427673339844 275.67071533203125 153.55870056152344 282.9015808105469 156.9065399169922 293.78741455078125" stroke-width="0.0" fill="rgb(83, 84, 90)" opacity="1.0"/>
    <path d="M 424.2974853515625 88.33057403564453 C 421.9653625488281 98.7060317993164 414.7730407714844 106.16053771972656 403.6048278808594 108.92852020263672 C 393.15142822265625 106.19669342041016 385.82159423828125 98.84125518798828 383.0750732421875 87.50311279296875 C 385.7943115234375 77.13975524902344 393.1488952636719 69.81851959228516 403.2813720703125 67.21855163574219 C 414.0 70.67948913574219 421.32049560546875 78.0 424.2974853515625 88.33057403564453" stroke-width="0.0" fill="rgb(87, 88, 95)" opacity="0.99021864"/>
    <path d="M 619.0 116.00000762939453 C 616.32080078125 126.00094604492188 609.0111694335938 133.3575897216797 598.1478881835938 136.9209442138672 C 588.1008911132812 134.23760986328125 580.764892578125 126.8979721069336 578.0424194335938 116.51055908203125 C 580.7762451171875 105.11720275878906 588.1161499023438 97.77384948730469 598.155029296875 95.08567810058594 C 609.0014038085938 98.6747817993164 616.320556640625 105.99989318847656 619.0 116.00000762939453" stroke-width="0.0" fill="rgb(54, 52, 56)" opacity="1.0"/>
    <path d="M 580.9580688476562 462.07275390625 C 578.2390747070312 472.900634765625 570.89892578125 480.23504638671875 559.6915283203125 482.9574890136719 C 549.1006469726562 480.23553466796875 541.7547607421875 472.9036865234375 539.0350952148438 462.4754943847656 C 541.75830078125 451.09429931640625 549.0930786132812 443.7557067871094 559.6641845703125 441.0406799316406 C 570.897705078125 443.76458740234375 578.2357788085938 451.1020812988281 580.9580688476562 462.07275390625" stroke-width="0.0" fill="rgb(39, 39, 44)" opacity="1.0"/>
    <path d="M 358.93896484375 418.12054443359375 C 355.588623046875 429.3988342285156 348.5951843261719 437.0813903808594 337.27301025390625 439.9465026855469 C 327.11553955078125 437.2285461425781 319.78460693359375 429.8788146972656 317.05078125 418.82208251953125 C 319.7754821777344 408.11224365234375 327.10882568359375 400.7673034667969 338.67779541015625 398.0343017578125 C 348.9199523925781 400.7445373535156 356.2529602050781 408.0811462402344 358.93896484375 418.12054443359375" stroke-width="0.0" fill="rgb(53, 53, 59)" opacity="1.0"/>
    <path d="M 35.92607116699219 247.5743408203125 C 33.19544982910156 257.8453369140625 25.841171264648438 265.1855163574219 15.360824584960938 267.921142578125 C 4.201324939727783 265.162353515625 -3.0670711994171143 257.7661437988281 -5.62694787979126 247.1467742919922 C -3.031060218811035 236.26422119140625 4.225262641906738 228.8546905517578 15.011174201965332 226.09217834472656 C 25.80975914001465 228.8443145751953 33.15944290161133 236.188720703125 35.92607116699219 247.5743408203125" stroke-width="0.0" fill="rgb(90, 92, 98)" opacity="1.0"/>
    <path d="M 143.84495544433594 89.90684509277344 C 141.10848999023438 100.7725830078125 133.7897491455078 108.15301513671875 123.35895538330078 110.90608215332031 C 112.21729278564453 108.1371078491211 104.8822250366211 100.77518463134766 102.11931610107422 89.79913330078125 C 104.89129638671875 79.26170349121094 112.27538299560547 71.92534637451172 122.91690063476562 69.16390228271484 C 133.72409057617188 71.93419647216797 141.099365234375 79.26301574707031 143.84495544433594 89.90684509277344" stroke-width="0.0" fill="rgb(151, 153, 159)" opacity="1.0"/>
    <path d="M 327.9564514160156 549.6862182617188 C 325.22998046875 560.8897705078125 317.8901062011719 568.2307739257812 306.7535095214844 570.9588012695312 C 296.1161193847656 568.2277221679688 288.77960205078125 560.8807983398438 286.0486755371094 549.5555419921875 C 288.7756652832031 539.1211547851562 296.126220703125 531.7876586914062 307.38946533203125 529.0596923828125 C 317.8927307128906 531.7719116210938 325.2355651855469 539.104248046875 327.9564514160156 549.6862182617188" stroke-width="0.0" fill="rgb(51, 50, 54)" opacity="1.0"/>
    <path d="M 266.94049072265625 303.98956298828125 C 264.2018737792969 314.8553771972656 256.85321044921875 322.1966857910156 245.4645538330078 324.94183349609375 C 235.11720275878906 322.2215881347656 227.7705841064453 314.88616943359375 225.0605010986328 304.7284851074219 C 227.81881713867188 293.1559753417969 235.14968872070312 285.80303955078125 245.69606018066406 283.07080078125 C 256.8285827636719 285.8232116699219 264.1859130859375 293.16748046875 266.94049072265625 303.98956298828125" stroke-width="0.0" fill="rgb(77, 79, 85)" opacity="0.9901906"/>
    <path d="M 525.77734375 90.27687072753906 C 522.3204956054688 101.0 515.0 108.32051086425781 505.267822265625 110.7063217163086 C 495.5499267578125 107.79793548583984 488.3102111816406 100.41543579101562 484.7615661621094 90.357666015625 C 486.9082336425781 80.21257781982422 494.17724609375 72.81061553955078 505.4145202636719 70.05758666992188 C 515.8688354492188 72.78429412841797 523.1875610351562 80.14187622070312 525.77734375 90.27687072753906" stroke-width="0.0" fill="rgb(43, 45, 46)" opacity="0.990029"/>
    <path d="M 401.8949279785156 6.668204307556152 C 399.1761779785156 16.824819564819336 391.8128356933594 24.143722534179688 381.6562805175781 26.718929290771484 C 371.0262451171875 23.28714942932129 363.7080383300781 15.975190162658691 361.0225830078125 5.985134124755859 C 363.6795959472656 -3.9998719692230225 371.0001220703125 -11.32044506072998 381.0127258300781 -14.00593376159668 C 391.1684265136719 -11.404287338256836 398.8656921386719 -4.341083526611328 401.8949279785156 6.668204307556152" stroke-width="0.0" fill="rgb(125, 126, 129)" opacity="1.0"/>
    <path d="M 69.91533660888672 302.5428161621094 C 67.20104217529297 312.86334228515625 59.86945343017578 320.2154235839844 49.34227752685547 322.9394836425781 C 38.149009704589844 320.1950988769531 30.80280876159668 312.8518981933594 28.059782028198242 302.0454406738281 C 30.797346115112305 291.1413269042969 38.14106369018555 283.7966003417969 48.964454650878906 281.0580139160156 C 59.86238098144531 283.7931213378906 67.18831634521484 291.1445007324219 69.91533660888672 302.5428161621094" stroke-width="0.0" fill="rgb(71, 73, 79)" opacity="0.9901525"/>
    <path d="M 173.88465881347656 29.628677368164062 C 171.0657958984375 40.710811614990234 163.7142791748047 48.07423400878906 153.48635864257812 50.8078727722168 C 142.77767944335938 47.71718215942383 135.63108825683594 40.10154342651367 132.9967498779297 30.00705337524414 C 135.6794891357422 20.0 143.0 12.679491996765137 153.43516540527344 9.503557205200195 C 163.67889404296875 12.0060396194458 171.105712890625 19.27977752685547 173.88465881347656 29.628677368164062" stroke-width="0.0" fill="rgb(148, 150, 156)" opacity="1.0"/>
    <path d="M 595.9559326171875 19.269216537475586 C 593.239501953125 29.90022850036621 585.8980102539062 37.2345085144043 575.1717529296875 39.95668411254883 C 564.1181030273438 37.22785949707031 556.7841186523438 29.876667022705078 554.0536499023438 19.026165008544922 C 556.7794799804688 8.118152618408203 564.1192626953125 0.7823575139045715 575.4603271484375 -1.9346575736999512 C 585.8959350585938 0.7662580013275146 593.23046875 8.105627059936523 595.9559326171875 19.269216537475586" stroke-width="0.0" fill="rgb(50, 50, 52)" opacity="1.0"/>
    <path d="M 100.82835388183594 12.803974151611328 C 97.87039947509766 23.4371395111084 90.42847442626953 30.84493637084961 80.3988037109375 33.55816650390625 C 70.00011444091797 30.320125579833984 62.67949676513672 22.99998664855957 59.26390075683594 12.424750328063965 C 62.0032958984375 2.4164531230926514 69.48975372314453 -4.779102325439453 80.0320053100586 -7.308584213256836 C 90.55572509765625 -4.817256450653076 98.02957916259766 2.3737192153930664 100.82835388183594 12.803974151611328" stroke-width="0.0" fill="rgb(151, 150, 157)" opacity="1.0"/>
    <path d="M 40.94856262207031 531.7252807617188 C 38.238014221191406 541.9004516601562 30.90005111694336 549.237060546875 19.528274536132812 551.9617309570312 C 9.090633392333984 549.2454833984375 1.7520896196365356 541.9104614257812 -0.9641629457473755 531.087890625 C 1.7541999816894531 520.09912109375 9.116841316223145 512.8030395507812 19.30215072631836 510.27264404296875 C 30.487712860107422 513.3463745117188 38.121482849121094 520.3370361328125 40.94856262207031 531.7252807617188" stroke-width="0.0" fill="rgb(36, 36, 38)" opacity="1.0"/>
    <path d="M 228.9579620361328 517.0025634765625 C 226.23594665527344 527.893798828125 218.88888549804688 535.2242431640625 207.7405548095703 537.947021484375 C 197.12139892578125 535.2206420898438 189.7814483642578 527.8777465820312 187.04769897460938 516.6404418945312 C 189.76588439941406 506.10467529296875 197.10406494140625 498.7642822265625 208.4068145751953 496.03912353515625 C 218.90753173828125 498.7536926269531 226.2388458251953 506.095703125 228.9579620361328 517.0025634765625" stroke-width="0.0" fill="rgb(54, 52, 56)" opacity="1.0"/>
    <path d="M 173.92501831054688 249.4063720703125 C 171.1595916748047 259.7574768066406 163.66722106933594 266.89923095703125 153.24925231933594 269.19769287109375 C 142.96043395996094 266.3349304199219 135.35252380371094 259.14691162109375 132.10328674316406 248.27890014648438 C 134.8285675048828 238.1780548095703 142.17755126953125 230.82777404785156 153.39793395996094 228.07217407226562 C 163.82049560546875 230.8243408203125 171.16372680664062 238.18434143066406 173.92501831054688 249.4063720703125" stroke-width="0.0" fill="rgb(97, 98, 105)" opacity="1.0"/>
    <path d="M 432.6260681152344 477.55010986328125 C 430.14263916015625 487.8390197753906 422.8664245605469 495.2205505371094 411.489013671875 497.9560241699219 C 401.10113525390625 495.23675537109375 393.7595520019531 487.9004821777344 391.0455322265625 477.6773376464844 C 393.7825927734375 466.1227111816406 401.1291809082031 458.8008728027344 411.3541564941406 456.1657409667969 C 422.6189880371094 458.9925537109375 429.8058776855469 466.44427490234375 432.6260681152344 477.55010986328125" stroke-width="0.0" fill="rgb(53, 54, 59)" opacity="1.0"/>
    <path d="M 171.006103515625 28.981292724609375 C 168.3197479248047 38.99974060058594 161.0001220703125 46.3210563659668 150.44070434570312 49.66145706176758 C 140.3243408203125 47.050662994384766 133.07012939453125 39.63591766357422 130.5562744140625 29.13494873046875 C 133.14974975585938 18.427371978759766 140.36585998535156 10.967010498046875 150.69264221191406 8.168013572692871 C 161.3487548828125 11.144771575927734 168.4266357421875 18.806398391723633 171.006103515625 28.981292724609375" stroke-width="0.0" fill="rgb(148, 149, 156)" opacity="1.0"/>
    <path d="M 346.853515625 143.76316833496094 C 344.1892395019531 153.8452911376953 336.8453369140625 161.1896209716797 326.2262878417969 163.93399047851562 C 315.2956237792969 161.1391143798828 308.2530822753906 153.56344604492188 305.8414611816406 143.0042724609375 C 308.2920227050781 132.505126953125 315.37762451171875 124.93321228027344 325.721435546875 122.10124206542969 C 336.59600830078125 124.95366668701172 343.66461181640625 132.53823852539062 346.853515625 143.76316833496094" stroke-width="0.0" fill="rgb(118, 119, 119)" opacity="1.0"/>
    <path d="M 224.30218505859375 175.3207244873047 C 221.9442596435547 185.6663818359375 214.70904541015625 193.07858276367188 204.5756378173828 195.6505584716797 C 194.0 192.3205108642578 186.6794891357422 185.0 183.58938598632812 174.5944061279297 C 185.99920654296875 164.29635620117188 193.25054931640625 156.869384765625 203.28016662597656 154.1648406982422 C 214.01026916503906 157.66799926757812 221.33348083496094 164.98927307128906 224.30218505859375 175.3207244873047" stroke-width="0.0" fill="rgb(117, 119, 125)" opacity="1.0"/>
    <path d="M 157.92373657226562 491.1451110839844 C 154.3206787109375 502.00006103515625 147.00001525878906 509.32049560546875 136.9998779296875 512.0000610351562 C 126.9931869506836 509.3227233886719 119.55449676513672 502.0434265136719 116.07657623291016 491.1564025878906 C 118.76415252685547 481.099853515625 126.09757232666016 473.7588195800781 136.79751586914062 471.0411682128906 C 147.89268493652344 473.7646179199219 155.22715759277344 481.1110534667969 157.92373657226562 491.1451110839844" stroke-width="0.0" fill="rgb(44, 44, 47)" opacity="1.0"/>
    <path d="M 141.4348907470703 26.883338928222656 C 138.8508758544922 37.58090591430664 131.6539306640625 45.0621223449707 121.661376953125 47.806026458740234 C 111.0 44.32050704956055 103.67948913574219 37.0 100.64849853515625 26.644458770751953 C 103.04539489746094 16.345787048339844 110.31388854980469 8.947009086608887 121.2797622680664 6.162345886230469 C 131.6543426513672 8.953117370605469 138.90565490722656 16.39434051513672 141.4348907470703 26.883338928222656" stroke-width="0.0" fill="rgb(149, 151, 157)" opacity="1.0"/>
    <path d="M 493.6274108886719 90.46424865722656 C 489.99884033203125 100.48514556884766 482.339599609375 107.540771484375 473.21197509765625 110.06593322753906 C 463.76470947265625 107.48662567138672 456.2837829589844 100.30892181396484 452.0841979980469 90.1740493774414 C 454.7807922363281 80.12682342529297 462.1314697265625 72.79119110107422 472.70159912109375 70.05635833740234 C 483.843505859375 72.7987289428711 491.1190185546875 80.18528747558594 493.6274108886719 90.46424865722656" stroke-width="0.0" fill="rgb(86, 83, 83)" opacity="0.99001265"/>
    <path d="M 175.8913116455078 165.14064025878906 C 173.1364288330078 175.7813720703125 165.78439331054688 183.1444854736328 155.22125244140625 185.91552734375 C 144.2084197998047 183.14566040039062 136.85385131835938 175.79193115234375 134.10195922851562 165.2113494873047 C 136.86631774902344 154.21707153320312 144.21388244628906 146.8578338623047 154.6070556640625 144.108642578125 C 165.7893524169922 146.8659210205078 173.13525390625 154.2103729248047 175.8913116455078 165.14064025878906" stroke-width="0.0" fill="rgb(123, 124, 131)" opacity="1.0"/>
    <path d="M 561.8711547851562 398.15753173828125 C 557.90576171875 408.78851318359375 550.9212036132812 416.26312255859375 541.4413452148438 418.36956787109375 C 531.5308227539062 415.68914794921875 524.1296997070312 408.5390319824219 521.8721313476562 399.56427001953125 C 524.4449462890625 389.7169189453125 531.7178955078125 382.4471435546875 541.5253295898438 379.88037109375 C 551.608642578125 381.55908203125 559.1787719726562 388.2346496582031 561.8711547851562 398.15753173828125" stroke-width="0.0" fill="rgb(152, 126, 94)" opacity="0.9900131"/>
    <path d="M 22.847564697265625 48.3980827331543 C 20.109281539916992 58.75162887573242 12.744721412658691 66.09107208251953 2.605443000793457 68.75685119628906 C -8.015227317810059 65.3661117553711 -15.321343421936035 58.00255584716797 -18.000051498413086 47.999942779541016 C -15.322290420532227 37.994590759277344 -8.030537605285645 30.59146499633789 2.569925308227539 27.222700119018555 C 12.690373420715332 29.947904586791992 20.04182243347168 37.31314468383789 22.847564697265625 48.3980827331543" stroke-width="0.0" fill="rgb(156, 157, 163)" opacity="1.0"/>
    <path d="M 459.95843505859375 471.4090270996094 C 457.2270202636719 482.88922119140625 449.8905029296875 490.2298278808594 439.5798645019531 492.94903564453125 C 428.2171325683594 490.1796569824219 421.0759582519531 482.69439697265625 418.3379821777344 471.4455871582031 C 420.8454284667969 461.1485900878906 428.1177062988281 453.7618713378906 439.192138671875 451.0338439941406 C 449.91162109375 453.75128173828125 457.24554443359375 461.08978271484375 459.95843505859375 471.4090270996094" stroke-width="0.0" fill="rgb(40, 41, 45)" opacity="1.0"/>
    <path d="M 221.00392150878906 239.02603149414062 C 218.4682159423828 249.26715087890625 211.46011352539062 256.9731750488281 200.34054565429688 259.9186096191406 C 190.17117309570312 257.18316650390625 182.82276916503906 249.82623291015625 180.07591247558594 239.4970245361328 C 182.86050415039062 228.22120666503906 190.23251342773438 220.890380859375 200.38050842285156 218.29376220703125 C 210.9999542236328 221.6791229248047 218.31893920898438 229.0006103515625 221.00392150878906 239.02603149414062" stroke-width="0.0" fill="rgb(103, 103, 109)" opacity="1.0"/>
    <path d="M 217.05703735351562 456.9680480957031 C 214.3205108642578 467.0 207.0 474.32049560546875 196.280029296875 477.7544250488281 C 186.12481689453125 475.1962890625 178.76754760742188 467.888427734375 176.08612060546875 457.8511962890625 C 179.6794891357422 447.0 187.0 439.67950439453125 197.00682067871094 436.99407958984375 C 207.0295867919922 439.65570068359375 214.37579345703125 446.9610900878906 217.05703735351562 456.9680480957031" stroke-width="0.0" fill="rgb(54, 54, 58)" opacity="1.0"/>
    <path d="M 215.4465789794922 183.45724487304688 C 213.048583984375 193.7555694580078 205.7984161376953 201.17050170898438 194.9188690185547 203.9236297607422 C 184.1740264892578 201.1765594482422 176.84518432617188 193.8176727294922 174.08888244628906 182.56085205078125 C 176.8318634033203 172.197021484375 184.22767639160156 164.9169158935547 194.4698486328125 162.42625427246094 C 204.99417114257812 165.6772003173828 212.30477905273438 173.0111541748047 215.4465789794922 183.45724487304688" stroke-width="0.0" fill="rgb(121, 122, 130)" opacity="1.0"/>
    <path d="M 412.9591064453125 579.3363037109375 C 410.2461242675781 589.9121704101562 402.914794921875 597.2522583007812 392.669189453125 599.9644165039062 C 381.11419677734375 597.2301635742188 373.7748107910156 589.883544921875 371.0414733886719 578.4888305664062 C 373.7585144042969 568.0970458984375 381.0983581542969 560.7615966796875 392.32098388671875 558.0398559570312 C 402.9014587402344 560.75927734375 410.23883056640625 568.099365234375 412.9591064453125 579.3363037109375" stroke-width="0.0" fill="rgb(45, 45, 48)" opacity="1.0"/>
    <path d="M 75.95360565185547 553.8800659179688 C 73.23538208007812 564.899658203125 65.89927673339844 572.2340698242188 55.825767517089844 574.8818969726562 C 44.505096435546875 571.6497192382812 36.85641860961914 564.684814453125 34.0446662902832 553.3623657226562 C 36.76323699951172 543.1002807617188 44.098995208740234 535.7601928710938 54.715457916259766 533.041748046875 C 65.89446258544922 535.76953125 73.23625946044922 543.10302734375 75.95360565185547 553.8800659179688" stroke-width="0.0" fill="rgb(40, 40, 43)" opacity="1.0"/>
    <path d="M 186.86932373046875 127.58448028564453 C 184.07977294921875 138.73841857910156 176.75218200683594 146.1156463623047 165.78524780273438 148.8950653076172 C 155.2366180419922 146.12521362304688 147.8966522216797 138.7548065185547 145.1207275390625 127.5949478149414 C 147.8555908203125 117.2133560180664 155.23046875 109.90313720703125 165.9174041748047 107.22408294677734 C 176.75360107421875 109.9166488647461 184.1345977783203 117.22758483886719 186.86932373046875 127.58448028564453" stroke-width="0.0" fill="rgb(132, 134, 141)" opacity="1.0"/>
    <path d="M 453.9229431152344 80.31453704833984 C 450.9659423828125 91.50117492675781 443.4566955566406 98.87193298339844 433.400146484375 101.76516723632812 C 422.90631103515625 98.51626586914062 415.6707763671875 91.0351333618164 412.996826171875 81.00009155273438 C 415.67950439453125 71.0 423.0 63.67949295043945 433.75079345703125 60.17405319213867 C 443.84326171875 62.81355285644531 451.1907043457031 70.15530395507812 453.9229431152344 80.31453704833984" stroke-width="0.0" fill="rgb(91, 89, 97)" opacity="1.0"/>
    <path d="M 229.94647216796875 472.7705383300781 C 227.2373046875 482.89923095703125 219.90005493164062 490.2394714355469 208.66665649414062 492.9640197753906 C 198.10232543945312 490.2400207519531 190.77374267578125 482.8919982910156 188.11203002929688 472.82427978515625 C 191.68319702148438 462.00225830078125 199.0015106201172 454.6806640625 209.0270233154297 451.984375 C 219.26719665527344 454.5336608886719 227.027099609375 461.5007019042969 229.94647216796875 472.7705383300781" stroke-width="0.0" fill="rgb(54, 52, 55)" opacity="1.0"/>
    <path d="M 375.45989990234375 129.47607421875 C 372.9638671875 139.54444885253906 365.4316101074219 146.63246154785156 355.4010925292969 149.148193359375 C 345.5621337890625 147.7881622314453 338.3459777832031 140.39666748046875 335.1999816894531 129.315185546875 C 337.857666015625 119.19815826416016 345.1884460449219 111.83373260498047 356.5338134765625 109.07874298095703 C 366.84381103515625 111.8029556274414 374.1238708496094 119.18055725097656 375.45989990234375 129.47607421875" stroke-width="0.0" fill="rgb(98, 100, 101)" opacity="0.9900217"/>
    <path d="M 93.88641357421875 222.3870391845703 C 91.14922332763672 232.80709838867188 83.81676483154297 240.1728515625 73.06852722167969 242.9254150390625 C 62.194210052490234 240.16293334960938 54.84519577026367 232.80239868164062 52.074073791503906 221.55239868164062 C 54.813453674316406 211.16236877441406 62.163204193115234 203.8157196044922 72.7391586303711 201.07586669921875 C 83.7878189086914 203.848388671875 91.11964416503906 211.22494506835938 93.88641357421875 222.3870391845703" stroke-width="0.0" fill="rgb(101, 101, 108)" opacity="1.0"/>
    <path d="M 451.9565124511719 542.8211059570312 C 449.23516845703125 553.8969116210938 441.8968505859375 561.2352294921875 430.599365234375 563.9595947265625 C 420.10125732421875 561.238525390625 412.7649841308594 553.8972778320312 410.0445251464844 542.8651733398438 C 412.76690673828125 532.1066284179688 420.1067199707031 524.7669067382812 430.48626708984375 522.04638671875 C 441.87896728515625 524.7793579101562 449.2245178222656 532.119384765625 451.9565124511719 542.8211059570312" stroke-width="0.0" fill="rgb(42, 41, 45)" opacity="1.0"/>
    <path d="M 244.94058227539062 339.8868713378906 C 242.18226623535156 350.7992858886719 234.7360382080078 358.00067138671875 224.3630828857422 360.32818603515625 C 213.86033630371094 357.38262939453125 206.1126251220703 350.3385314941406 203.07843017578125 339.30499267578125 C 205.80593872070312 329.1519470214844 213.15066528320312 321.8030090332031 224.1766815185547 319.06317138671875 C 234.8657684326172 321.79156494140625 242.20401000976562 329.1361389160156 244.94058227539062 339.8868713378906" stroke-width="0.0" fill="rgb(76, 77, 83)" opacity="1.0"/>
    <path d="M 46.947025299072266 393.42950439453125 C 44.19715118408203 404.8382568359375 36.80719757080078 412.1069641113281 26.295597076416016 414.64398193359375 C 15.240665435791016 412.0371398925781 7.806382656097412 404.8152770996094 5.0449042320251465 393.4693298339844 C 7.766139030456543 383.108642578125 15.114376068115234 375.77984619140625 25.890438079833984 373.05615234375 C 36.879398345947266 375.7818298339844 44.22398376464844 383.1182556152344 46.947025299072266 393.42950439453125" stroke-width="0.0" fill="rgb(54, 55, 60)" opacity="0.99051553"/>
    <path d="M 221.46243286132812 110.55541229248047 C 218.3182373046875 120.99933624267578 210.9999542236328 128.32049560546875 200.3385009765625 131.7571563720703 C 190.22747802734375 129.12547302246094 182.86749267578125 121.77493286132812 180.08836364746094 110.72698974609375 C 182.8469696044922 100.20700073242188 190.21815490722656 92.87508392333984 200.68861389160156 90.14079284667969 C 211.71337890625 92.9241943359375 219.01197814941406 100.30810546875 221.46243286132812 110.55541229248047" stroke-width="0.0" fill="rgb(139, 141, 147)" opacity="1.0"/>
    <path d="M 79.76051330566406 31.632471084594727 C 77.07654571533203 41.70055389404297 69.68457794189453 49.03591537475586 58.970062255859375 51.81458282470703 C 48.30296325683594 49.0484504699707 40.9392204284668 41.70167541503906 38.178504943847656 31.015596389770508 C 40.92824935913086 20.276029586791992 48.267333984375 12.904945373535156 58.35886764526367 10.240168571472168 C 68.99895477294922 13.68067455291748 76.31970977783203 21.000932693481445 79.76051330566406 31.632471084594727" stroke-width="0.0" fill="rgb(152, 153, 159)" opacity="0.9935357"/>
    <path d="M 238.93637084960938 358.71484375 C 236.2088623046875 368.8619689941406 228.8575897216797 376.1983337402344 217.58799743652344 378.9372863769531 C 207.1308135986328 376.2124328613281 199.7886199951172 368.8686828613281 197.05838012695312 358.3620910644531 C 199.8153076171875 347.19744873046875 207.2617950439453 340.00225830078125 217.64639282226562 337.68267822265625 C 228.1758575439453 340.5971374511719 235.9523162841797 347.5986022949219 238.93637084960938 358.71484375" stroke-width="0.0" fill="rgb(72, 72, 78)" opacity="1.0"/>
    <path d="M 253.83274841308594 31.657686233520508 C 251.0849609375 41.69619369506836 243.64804077148438 48.94669723510742 232.91522216796875 51.541099548339844 C 222.3227996826172 48.98237991333008 214.93212890625 41.70491027832031 212.14755249023438 30.779537200927734 C 214.8949737548828 20.251876831054688 222.25738525390625 12.908864974975586 232.58145141601562 10.167022705078125 C 243.46163940429688 13.086188316345215 250.623291015625 20.64131736755371 253.83274841308594 31.657686233520508" stroke-width="0.0" fill="rgb(141, 143, 150)" opacity="1.0"/>
    <path d="M 436.8016662597656 61.38516616821289 C 433.3117370605469 71.9922866821289 425.99261474609375 79.312744140625 415.9502868652344 82.02356719970703 C 405.664306640625 79.52886962890625 398.0074157714844 72.50541687011719 395.083740234375 61.2863883972168 C 397.8113708496094 51.173301696777344 405.1933898925781 43.861305236816406 415.3393859863281 41.250762939453125 C 426.1954650878906 44.58182144165039 433.9252014160156 51.607421875 436.8016662597656 61.38516616821289" stroke-width="0.0" fill="rgb(88, 89, 94)" opacity="0.9900935"/>
    <path d="M 22.931201934814453 450.31005859375 C 19.918636322021484 461.34832763671875 12.110282897949219 468.3404541015625 1.9905654191970825 470.9859313964844 C -8.000210762023926 468.32110595703125 -15.32052230834961 461.0000305175781 -18.000032424926758 450.9999084472656 C -15.32221794128418 440.9947814941406 -8.030835151672363 433.58990478515625 2.8308029174804688 430.0852966308594 C 12.866501808166504 432.7834167480469 20.206207275390625 440.137939453125 22.931201934814453 450.31005859375" stroke-width="0.0" fill="rgb(48, 48, 51)" opacity="1.0"/>
    <path d="M 253.8700408935547 61.25950241088867 C 251.13368225097656 71.78279113769531 243.7802276611328 79.12799835205078 233.27125549316406 81.88059997558594 C 222.23562622070312 79.11560821533203 214.8868865966797 71.76354217529297 212.13841247558594 61.05531311035156 C 214.9127960205078 50.29365921020508 222.3374786376953 43.04161071777344 232.92837524414062 40.491455078125 C 243.63473510742188 43.07357406616211 251.07266235351562 50.31532669067383 253.8700408935547 61.25950241088867" stroke-width="0.0" fill="rgb(139, 142, 150)" opacity="1.0"/>
    <path d="M 240.90069580078125 134.54855346679688 C 238.17483520507812 144.81793212890625 230.8001708984375 152.12779235839844 220.45654296875 154.76841735839844 C 209.28309631347656 152.0343475341797 201.90367126464844 144.73745727539062 199.24310302734375 134.63604736328125 C 202.6461639404297 123.97622680664062 209.98086547851562 116.66202545166016 220.1326141357422 113.90476989746094 C 230.5115966796875 116.274658203125 238.06265258789062 123.37188720703125 240.90069580078125 134.54855346679688" stroke-width="0.0" fill="rgb(128, 130, 137)" opacity="1.0"/>
    <path d="M 161.92388916015625 506.8620300292969 C 159.23683166503906 516.8975830078125 151.89707946777344 524.2357177734375 141.75814819335938 526.9518432617188 C 130.37026977539062 524.1008911132812 123.39028930664062 516.4432983398438 120.96504211425781 506.0653381347656 C 123.68073272705078 496.00091552734375 131.00067138671875 488.679931640625 140.9978790283203 486.00469970703125 C 150.9977569580078 488.6831359863281 158.32009887695312 496.0013122558594 161.92388916015625 506.8620300292969" stroke-width="0.0" fill="rgb(46, 45, 49)" opacity="1.0"/>
    <path d="M 423.95208740234375 515.2786254882812 C 421.2333984375 525.8976440429688 413.90008544921875 533.2391357421875 403.126708984375 535.9617309570312 C 392.1128234863281 533.2303466796875 384.77398681640625 525.8853149414062 382.04437255859375 514.5206298828125 C 384.7615966796875 504.100830078125 392.10284423828125 496.7666015625 402.64410400390625 494.0491638183594 C 413.88092041015625 496.78076171875 421.22479248046875 504.11669921875 423.95208740234375 515.2786254882812" stroke-width="0.0" fill="rgb(48, 48, 52)" opacity="1.0"/>
    <path d="M 75.87798309326172 110.79399871826172 C 73.11214447021484 121.75935363769531 65.76306915283203 129.1219940185547 55.64064407348633 131.85731506347656 C 44.90164566040039 128.5548858642578 37.667991638183594 121.02659606933594 35.004722595214844 111.00226593017578 C 37.67939376831055 100.99968719482422 44.999656677246094 93.67922973632812 55.36772537231445 90.65127563476562 C 65.70024871826172 93.01726531982422 73.12494659423828 100.25210571289062 75.87798309326172 110.79399871826172" stroke-width="0.0" fill="rgb(133, 134, 143)" opacity="0.9930397"/>
    <path d="M 142.91371154785156 183.0960693359375 C 140.15689086914062 193.78773498535156 132.7490997314453 201.04417419433594 122.3834228515625 203.48300170898438 C 111.45088958740234 200.7693634033203 103.90589904785156 193.66360473632812 101.07825469970703 182.56260681152344 C 103.82907104492188 172.184326171875 111.19015502929688 164.84317016601562 121.99579620361328 162.09002685546875 C 132.77426147460938 164.86383056640625 140.1379852294922 172.22488403320312 142.91371154785156 183.0960693359375" stroke-width="0.0" fill="rgb(114, 114, 120)" opacity="0.9901506"/>
    <path d="M 257.9266357421875 202.51466369628906 C 255.18521118164062 212.8363037109375 247.8351287841797 220.18199157714844 237.76211547851562 222.84844970703125 C 227.01065063476562 219.30712890625 219.6926727294922 211.98939514160156 217.0099334716797 201.98995971679688 C 219.67120361328125 191.9925994873047 226.992919921875 184.67213439941406 237.1839599609375 181.84967041015625 C 247.57899475097656 184.19520568847656 255.1079864501953 191.31459045410156 257.9266357421875 202.51466369628906" stroke-width="0.0" fill="rgb(110, 111, 117)" opacity="1.0"/>
    <path d="M 164.9473114013672 393.3078308105469 C 162.22354125976562 403.885009765625 154.88526916503906 411.2247009277344 143.86563110351562 413.9563293457031 C 133.1163330078125 411.2235412597656 125.77457427978516 403.8848571777344 123.11962890625 393.8005676269531 C 126.04096221923828 382.2930908203125 133.22869873046875 374.8455505371094 143.29212951660156 372.18585205078125 C 154.58766174316406 375.2265625 162.1608428955078 382.26995849609375 164.9473114013672 393.3078308105469" stroke-width="0.0" fill="rgb(72, 73, 79)" opacity="1.0"/>
    <path d="M 293.77392578125 150.46798706054688 C 291.13067626953125 160.80120849609375 283.8215637207031 168.1827850341797 273.2189636230469 170.93116760253906 C 262.1850891113281 168.16981506347656 254.8478240966797 160.80799865722656 252.11192321777344 150.2863311767578 C 254.87350463867188 139.2146759033203 262.20367431640625 131.8460693359375 273.4496765136719 129.0798797607422 C 283.80743408203125 131.82440185546875 291.0633239746094 139.23155212402344 293.77392578125 150.46798706054688" stroke-width="0.0" fill="rgb(115, 117, 123)" opacity="1.0"/>
    <path d="M 537.9447021484375 102.44366455078125 C 535.1753540039062 113.77888488769531 527.6771850585938 120.8187484741211 516.3724365234375 123.27311706542969 C 506.31292724609375 121.05348205566406 498.9861145019531 113.67269897460938 496.2129821777344 103.35969543457031 C 499.34771728515625 92.8176498413086 506.9023742675781 85.59422302246094 517.7250366210938 82.21449279785156 C 527.8673095703125 84.80531311035156 535.2215576171875 92.12271881103516 537.9447021484375 102.44366455078125" stroke-width="0.0" fill="rgb(88, 78, 68)" opacity="0.99003494"/>
    <path d="M 71.8473892211914 85.43341064453125 C 68.84642028808594 96.37513732910156 61.24686050415039 103.46781921386719 51.025272369384766 105.95999908447266 C 41.01172637939453 103.30604553222656 33.68719482421875 95.99031829833984 31.001667022705078 85.99789428710938 C 33.67949295043945 76.0 41.0 68.67948913574219 51.42940902709961 65.53376007080078 C 61.687896728515625 67.99882507324219 69.10043334960938 75.27690124511719 71.8473892211914 85.43341064453125" stroke-width="0.0" fill="rgb(150, 151, 158)" opacity="1.0"/>
    <path d="M 306.95074462890625 384.3379211425781 C 304.22802734375 394.8896789550781 296.890380859375 402.2298889160156 286.5364074707031 404.9521484375 C 275.1203308105469 402.2182312011719 267.7738952636719 394.8829040527344 265.05242919921875 384.6626281738281 C 267.81207275390625 373.155029296875 275.1471862792969 365.79412841796875 286.2300109863281 363.0507507324219 C 296.87261962890625 365.784912109375 304.2174987792969 373.1263427734375 306.95074462890625 384.3379211425781" stroke-width="0.0" fill="rgb(67, 67, 71)" opacity="0.9930998"/>
    <path d="M 450.9355163574219 36.68471908569336 C 448.1916198730469 47.843502044677734 440.8399963378906 55.182743072509766 430.74481201171875 57.82419204711914 C 419.7872619628906 54.4312858581543 412.0586242675781 47.411773681640625 409.0877990722656 36.397430419921875 C 411.82598876953125 26.172197341918945 419.1698303222656 18.820714950561523 429.8731384277344 16.08357048034668 C 440.83587646484375 18.825908660888672 448.1976623535156 26.15447998046875 450.9355163574219 36.68471908569336" stroke-width="0.0" fill="rgb(89, 90, 95)" opacity="0.990288"/>
    <path d="M 62.960235595703125 581.5436401367188 C 60.24010467529297 591.9036254882812 52.90275192260742 599.237548828125 42.0322265625 601.9398803710938 C 31.09674644470215 599.2385864257812 23.763717651367188 591.9021606445312 21.043720245361328 580.6211547851562 C 23.75900650024414 570.0948486328125 31.094911575317383 562.7594604492188 41.158531188964844 560.1036376953125 C 52.55059051513672 563.2965087890625 60.170902252197266 570.2719116210938 62.960235595703125 581.5436401367188" stroke-width="0.0" fill="rgb(35, 35, 37)" opacity="1.0"/>
    <path d="M 127.34228515625 36.347938537597656 C 124.94847869873047 46.651771545410156 117.69051361083984 54.065608978271484 106.95720672607422 56.852783203125 C 96.32948303222656 54.04252624511719 88.97419738769531 46.66451644897461 86.22724151611328 36.29507064819336 C 89.166259765625 25.531177520751953 96.46642303466797 18.01934242248535 106.43389129638672 15.272809982299805 C 116.99546813964844 18.684459686279297 124.31712341308594 26.004047393798828 127.34228515625 36.347938537597656" stroke-width="0.0" fill="rgb(147, 149, 155)" opacity="1.0"/>
    <path d="M 209.8181610107422 443.2354736328125 C 206.30198669433594 453.98431396484375 198.98757934570312 461.31353759765625 188.54530334472656 464.4324035644531 C 178.21795654296875 462.0643005371094 170.80484008789062 454.8269348144531 168.1214599609375 444.79791259765625 C 171.67958068847656 434.0002136230469 179.0003204345703 426.6800231933594 189.79364013671875 423.1470031738281 C 199.8790283203125 425.783935546875 207.20697021484375 433.12432861328125 209.8181610107422 443.2354736328125" stroke-width="0.0" fill="rgb(61, 61, 65)" opacity="1.0"/>
    <path d="M 67.03780364990234 82.90245819091797 C 64.29547882080078 92.97835540771484 56.97710418701172 100.29124450683594 46.739356994628906 103.20120239257812 C 36.415748596191406 100.85822296142578 28.956790924072266 93.64608001708984 26.126466751098633 82.71842193603516 C 28.916160583496094 72.28955078125 36.29678726196289 64.93486022949219 46.82893371582031 62.15877151489258 C 57.52361297607422 65.02120208740234 64.61983489990234 72.6012191772461 67.03780364990234 82.90245819091797" stroke-width="0.0" fill="rgb(154, 155, 163)" opacity="1.0"/>
    <path d="M 64.86760711669922 451.2304382324219 C 61.8960075378418 462.67974853515625 54.78050994873047 470.1833190917969 44.5210075378418 472.9455261230469 C 33.21135711669922 470.16650390625 25.85677719116211 462.7759704589844 23.051298141479492 451.697998046875 C 25.833078384399414 441.2452087402344 33.32825469970703 434.014404296875 44.551727294921875 431.0828552246094 C 54.78192901611328 433.8790588378906 62.190120697021484 441.18548583984375 64.86760711669922 451.2304382324219" stroke-width="0.0" fill="rgb(47, 44, 50)" opacity="1.0"/>
    <path d="M 172.9276123046875 271.52783203125 C 170.1990509033203 281.8547668457031 162.8517608642578 289.1911926269531 152.7550506591797 291.8274230957031 C 142.00001525878906 288.32049560546875 134.67984008789062 280.9998779296875 132.00770568847656 271.0029296875 C 134.69142150878906 261.0132141113281 142.01504516601562 253.69737243652344 152.13148498535156 250.93617248535156 C 162.5323028564453 253.27037048339844 170.107421875 260.33251953125 172.9276123046875 271.52783203125" stroke-width="0.0" fill="rgb(88, 89, 96)" opacity="0.9908067"/>
    <path d="M 31.941417694091797 309.9131774902344 C 29.21204376220703 320.87109375 21.8714542388916 328.2129211425781 11.613170623779297 330.9309387207031 C 0.31401216983795166 328.1144104003906 -6.773980617523193 320.56634521484375 -9.212841033935547 309.97247314453125 C -6.81065559387207 299.396240234375 0.2749328017234802 291.8515930175781 11.519123077392578 289.0536193847656 C 21.873727798461914 291.78289794921875 29.21068000793457 299.12896728515625 31.941417694091797 309.9131774902344" stroke-width="0.0" fill="rgb(76, 78, 85)" opacity="1.0"/>
    <path d="M 283.8919372558594 12.228724479675293 C 281.1058349609375 22.734861373901367 273.72479248046875 30.080127716064453 263.3643493652344 32.82061767578125 C 252.4608917236328 29.963275909423828 245.166748046875 22.485755920410156 242.2107391357422 11.675384521484375 C 244.99215698242188 1.4092938899993896 252.49859619140625 -5.736917018890381 263.0556640625 -8.234984397888184 C 273.58721923828125 -5.814662456512451 281.0943603515625 1.318454623222351 283.8919372558594 12.228724479675293" stroke-width="0.0" fill="rgb(131, 134, 142)" opacity="0.99035877"/>
    <path d="M 326.9024658203125 143.9402313232422 C 324.5711975097656 154.37664794921875 317.52667236328125 161.997802734375 306.3255920410156 164.9174041748047 C 296.20037841796875 162.17747497558594 288.9668273925781 154.748291015625 286.2427673339844 143.5072479248047 C 288.87664794921875 133.21270751953125 296.20489501953125 125.85539245605469 307.1568603515625 123.09661102294922 C 317.6026611328125 125.92861938476562 324.62823486328125 133.5626220703125 326.9024658203125 143.9402313232422" stroke-width="0.0" fill="rgb(103, 105, 109)" opacity="0.99016225"/>
    <path d="M 137.636962890625 514.5761108398438 C 135.0875701904297 524.723876953125 127.68389129638672 531.958984375 116.89940643310547 534.4711303710938 C 106.22425842285156 532.0299072265625 98.78801727294922 524.8373413085938 96.04837799072266 513.960205078125 C 98.77395629882812 503.1110534667969 106.1070785522461 495.7646484375 116.14209747314453 493.08074951171875 C 126.9986343383789 496.6823425292969 134.32130432128906 504.00030517578125 137.636962890625 514.5761108398438" stroke-width="0.0" fill="rgb(41, 41, 45)" opacity="0.99136215"/>
    <path d="M 323.4422302246094 278.90020751953125 C 320.39715576171875 289.08465576171875 313.0980529785156 296.44000244140625 303.4083251953125 298.43133544921875 C 293.5158996582031 295.7725524902344 286.2425231933594 288.4776306152344 283.76092529296875 279.01995849609375 C 285.9058837890625 269.2256774902344 293.310302734375 262.1341857910156 303.5111389160156 259.6153259277344 C 313.29022216796875 261.359619140625 320.647705078125 268.7062072753906 323.4422302246094 278.90020751953125" stroke-width="0.0" fill="rgb(251, 243, 211)" opacity="1.0"/>
    <path d="M 377.00604248046875 537.986572265625 C 374.3210754394531 548.00244140625 367.0057373046875 555.3325805664062 356.9913330078125 558.0580444335938 C 346.98028564453125 555.34912109375 339.6633605957031 548.01611328125 336.117919921875 537.1751098632812 C 338.7703857421875 527.109375 346.11260986328125 519.7780151367188 356.2893371582031 517.0612182617188 C 367.41839599609375 520.0303955078125 374.406982421875 527.8155517578125 377.00604248046875 537.986572265625" stroke-width="0.0" fill="rgb(50, 49, 53)" opacity="1.0"/>
    <path d="M 132.8441162109375 383.2833557128906 C 130.02442932128906 394.76397705078125 122.82440948486328 402.2010498046875 111.94231414794922 404.9491882324219 C 101.12895965576172 402.21331787109375 93.7823257446289 394.8730163574219 91.05271911621094 384.41510009765625 C 93.8299560546875 373.23583984375 101.33235168457031 366.0984191894531 112.50979614257812 363.3695983886719 C 122.81755828857422 365.8727111816406 130.1901092529297 373.1610107421875 132.8441162109375 383.2833557128906" stroke-width="0.0" fill="rgb(67, 65, 74)" opacity="1.0"/>
    <path d="M 358.4584655761719 181.6805877685547 C 355.44134521484375 192.1600341796875 348.133544921875 199.32359313964844 337.4404602050781 201.69412231445312 C 327.4527587890625 199.9217987060547 320.0484924316406 192.5597381591797 317.1383361816406 181.33145141601562 C 319.84307861328125 171.21475219726562 327.2406921386719 163.90798950195312 337.4701843261719 161.4789581298828 C 348.56884765625 164.118408203125 355.90264892578125 171.4244384765625 358.4584655761719 181.6805877685547" stroke-width="0.0" fill="rgb(243, 221, 169)" opacity="1.0"/>
    <path d="M 261.9354553222656 414.4227600097656 C 259.1700134277344 425.79766845703125 251.75140380859375 433.0341796875 241.4210205078125 435.3947448730469 C 231.00054931640625 432.3197021484375 223.67991638183594 424.9995422363281 220.45570373535156 414.45556640625 C 222.8857421875 404.1820373535156 230.1429901123047 396.7790832519531 240.49911499023438 394.0443420410156 C 251.87257385253906 396.7845458984375 259.2153625488281 404.1273498535156 261.9354553222656 414.4227600097656" stroke-width="0.0" fill="rgb(65, 64, 69)" opacity="1.0"/>
    <path d="M 556.94189453125 7.67197322845459 C 554.2162475585938 17.870983123779297 546.8658447265625 25.204017639160156 536.7969970703125 27.875347137451172 C 525.9959106445312 24.312244415283203 518.505126953125 17.060808181762695 515.14208984375 6.379883766174316 C 517.9851684570312 -3.509430408477783 525.6890869140625 -10.500329971313477 536.0142822265625 -13.041086196899414 C 546.3800659179688 -10.552961349487305 554.0724487304688 -3.582282543182373 556.94189453125 7.67197322845459" stroke-width="0.0" fill="rgb(61, 62, 69)" opacity="1.0"/>
    <path d="M 39.933685302734375 486.2947692871094 C 36.87135696411133 497.31561279296875 29.116941452026367 504.3699951171875 18.370590209960938 507.6312561035156 C 8.14278507232666 505.1634521484375 0.7752446532249451 497.8780517578125 -1.8814880847930908 487.8146667480469 C 1.5649627447128296 476.95037841796875 8.981792449951172 469.6694030761719 19.137514114379883 466.9041442871094 C 29.598230361938477 469.2236328125 37.16512680053711 476.2618103027344 39.933685302734375 486.2947692871094" stroke-width="0.0" fill="rgb(37, 37, 40)" opacity="1.0"/>
    <path d="M 565.7941284179688 585.7361450195312 C 563.1880493164062 595.8421020507812 555.8228759765625 603.1292114257812 545.146728515625 605.7130126953125 C 534.1902465820312 603.110107421875 526.800537109375 595.8406982421875 524.0537719726562 584.4178466796875 C 526.7738647460938 574.1143798828125 534.1166381835938 566.779296875 544.2843627929688 564.0587768554688 C 555.4547729492188 567.0064697265625 562.425537109375 574.7777099609375 565.7941284179688 585.7361450195312" stroke-width="0.0" fill="rgb(43, 42, 45)" opacity="0.9902745"/>
    <path d="M 83.95603942871094 422.34716796875 C 81.23567962646484 432.89605712890625 73.89494323730469 440.2328796386719 63.76498031616211 442.9388732910156 C 52.27605056762695 440.07025146484375 44.85226058959961 432.760009765625 42.08507537841797 421.4195861816406 C 44.779903411865234 411.11395263671875 52.10908126831055 403.767578125 62.55978012084961 401.0457458496094 C 73.88463592529297 403.7738952636719 81.22652435302734 411.115234375 83.95603942871094 422.34716796875" stroke-width="0.0" fill="rgb(52, 52, 56)" opacity="0.99013823"/>
    <path d="M 139.90744018554688 209.60154724121094 C 137.166748046875 219.81350708007812 129.8086700439453 227.15455627441406 118.80378723144531 229.90530395507812 C 108.17557525634766 227.16783142089844 100.8207015991211 219.82901000976562 98.08348846435547 209.39154052734375 C 100.86102294921875 198.2471160888672 108.30517578125 191.0285186767578 118.72093963623047 188.62110900878906 C 129.4906463623047 191.2781219482422 137.03431701660156 198.40115356445312 139.90744018554688 209.60154724121094" stroke-width="0.0" fill="rgb(107, 108, 114)" opacity="0.99044675"/>
  </g>
</svg>
