<?xml version="1.0" ?>
<svg xmlns="http://www.w3.org/2000/svg" version="1.1" width="600" height="600">
  <defs/>
  <g>
    <path d="M 349.8036804199219 134.89886474609375 C 347.0440673828125 145.68263244628906 339.6593017578125 152.97262573242188 328.45037841796875 155.81448364257812 C 318.2833251953125 153.08279418945312 310.93170166015625 145.71131896972656 308.1455993652344 135.0186004638672 C 310.949462890625 124.30747985839844 318.294921875 116.91888427734375 328.5897521972656 114.14311218261719 C 339.6787414550781 116.97152709960938 347.05328369140625 124.31159210205078 349.8036804199219 134.89886474609375" stroke-width="0.0" fill="rgb(153, 160, 167)" opacity="0.99067354"/>
    <path d="M 161.7762451171875 461.51129150390625 C 158.90780639648438 471.39306640625 151.21890258789062 478.44140625 140.94444274902344 481.0694580078125 C 130.68881225585938 478.5630798339844 123.12173461914062 471.4195251464844 120.1950454711914 461.00799560546875 C 123.01142883300781 450.35125732421875 130.35086059570312 443.01422119140625 140.8548583984375 440.3791809082031 C 151.3496856689453 443.2994384765625 158.67420959472656 450.6577453613281 161.7762451171875 461.51129150390625" stroke-width="0.0" fill="rgb(219, 195, 167)" opacity="1.0"/>
    <path d="M 442.874755859375 338.79718017578125 C 440.10693359375 349.7458801269531 432.73284912109375 357.0731201171875 421.7335205078125 359.8639221191406 C 411.2455139160156 357.1099548339844 403.891357421875 349.7539978027344 401.1047668457031 338.6247253417969 C 403.86224365234375 328.2304382324219 411.2472229003906 320.90350341796875 421.9676513671875 318.1302490234375 C 432.7275085449219 320.91717529296875 440.10223388671875 328.2646179199219 442.874755859375 338.79718017578125" stroke-width="0.0" fill="rgb(144, 149, 156)" opacity="1.0"/>
    <path d="M 583.82373046875 244.4534149169922 C 580.6033325195312 255.12681579589844 573.03759765625 262.3348388671875 563.0012817382812 265.0005187988281 C 552.9974365234375 262.32135009765625 545.6405639648438 255.01332092285156 542.2003784179688 244.328125 C 544.87353515625 234.21710205078125 552.2103881835938 226.8567352294922 562.35986328125 224.1796417236328 C 573.6216430664062 227.07989501953125 581.0635375976562 234.32833862304688 583.82373046875 244.4534149169922" stroke-width="0.0" fill="rgb(125, 131, 138)" opacity="0.99218225"/>
    <path d="M 338.88787841796875 508.51580810546875 C 336.0342712402344 519.6124877929688 328.5171203613281 526.7503662109375 318.1355285644531 529.1341552734375 C 307.7463684082031 526.4690551757812 300.08380126953125 519.41650390625 297.1330871582031 508.5533142089844 C 299.89923095703125 498.2546691894531 307.2528381347656 490.8955078125 317.6800231933594 488.1585388183594 C 328.7160949707031 490.9458923339844 336.1220703125 498.2568054199219 338.88787841796875 508.51580810546875" stroke-width="0.0" fill="rgb(129, 135, 142)" opacity="0.99017185"/>
    <path d="M 493.9107971191406 481.0269775390625 C 491.13580322265625 491.7714538574219 483.76092529296875 499.109375 473.2816162109375 501.85638427734375 C 462.27764892578125 499.0732421875 454.9125671386719 491.727783203125 452.1159973144531 480.5177001953125 C 454.84100341796875 470.1934509277344 462.201171875 462.86077880859375 473.3368835449219 460.0991516113281 C 483.769775390625 462.8671875 491.1338195800781 470.22955322265625 493.9107971191406 481.0269775390625" stroke-width="0.0" fill="rgb(127, 131, 137)" opacity="0.99044293"/>
    <path d="M 324.8634033203125 445.5069274902344 C 322.0067138671875 456.6391906738281 314.6310729980469 463.9837646484375 303.6711120605469 466.7912292480469 C 293.2618103027344 464.0760498046875 285.8769226074219 456.75628662109375 283.075927734375 445.3481140136719 C 285.7928771972656 435.1351623535156 293.1350402832031 427.79266357421875 303.4217529296875 425.06866455078125 C 314.7668151855469 427.867431640625 322.1124572753906 435.2414855957031 324.8634033203125 445.5069274902344" stroke-width="0.0" fill="rgb(127, 132, 137)" opacity="0.99045545"/>
    <path d="M 115.80030059814453 538.3880615234375 C 113.03256225585938 548.6600341796875 105.64903259277344 556.002685546875 95.05995178222656 558.7670288085938 C 84.32862854003906 556.013916015625 76.96833038330078 548.6776733398438 74.24971008300781 538.1126708984375 C 76.97593688964844 527.3157958984375 84.30034637451172 519.93359375 94.68203735351562 517.199462890625 C 105.62777709960938 520.0112915039062 112.97791290283203 527.3758544921875 115.80030059814453 538.3880615234375" stroke-width="0.0" fill="rgb(170, 174, 182)" opacity="1.0"/>
    <path d="M 509.8966369628906 443.6149597167969 C 507.1831970214844 453.8375244140625 499.8316650390625 461.1673889160156 489.3170471191406 463.8865661621094 C 478.2901306152344 461.09112548828125 471.0088806152344 453.67401123046875 468.5345764160156 443.4176330566406 C 471.5826110839844 432.804443359375 478.606689453125 425.0740661621094 489.48101806640625 422.1085205078125 C 499.7823486328125 424.85888671875 507.10333251953125 432.2319641113281 509.8966369628906 443.6149597167969" stroke-width="0.0" fill="rgb(120, 126, 133)" opacity="1.0"/>
    <path d="M 266.0 95.0 C 263.32049560546875 105.0 256.0 112.32051086425781 245.99977111816406 115.00008392333984 C 235.99295043945312 112.3231201171875 228.61228942871094 105.02582550048828 225.79823303222656 95.0798568725586 C 228.6806182861328 85.00039672851562 236.00009155273438 77.67951965332031 246.0 75.0 C 256.0 77.67948913574219 263.32049560546875 85.0 266.0 95.0" stroke-width="0.0" fill="rgb(168, 174, 179)" opacity="0.9973766"/>
    <path d="M 344.86492919921875 25.493824005126953 C 342.0753173828125 35.69236755371094 334.67291259765625 43.0250358581543 323.70062255859375 45.82862091064453 C 313.3228454589844 43.05057907104492 305.99005126953125 35.66223907470703 303.4128723144531 25.49115753173828 C 306.67950439453125 15.0 314.0 7.679491996765137 324.53863525390625 4.362316131591797 C 334.6733093261719 6.960574626922607 342.0058288574219 14.33964729309082 344.86492919921875 25.493824005126953" stroke-width="0.0" fill="rgb(145, 151, 158)" opacity="0.99062943"/>
    <path d="M 384.5853271484375 277.5447082519531 C 382.1123046875 287.8050231933594 374.83697509765625 295.1999206542969 364.6742248535156 297.9336242675781 C 353.2760925292969 295.08203125 345.8328552246094 287.7677001953125 343.05499267578125 276.689453125 C 345.78387451171875 266.1279602050781 353.13189697265625 258.7930603027344 363.39959716796875 256.06903076171875 C 374.59539794921875 258.92901611328125 381.60009765625 266.5819396972656 384.5853271484375 277.5447082519531" stroke-width="0.0" fill="rgb(74, 75, 76)" opacity="1.0"/>
    <path d="M 517.037109375 396.94024658203125 C 514.320556640625 407.0002136230469 507.0013732910156 414.3247985839844 496.2753601074219 417.8305358886719 C 486.198486328125 415.1513366699219 478.8503112792969 407.80096435546875 476.1095886230469 397.29791259765625 C 478.8945007324219 386.2590026855469 486.2572937011719 378.8900451660156 496.6428527832031 376.1065673828125 C 507.5223083496094 378.9977722167969 514.564697265625 386.6374206542969 517.037109375 396.94024658203125" stroke-width="0.0" fill="rgb(129, 135, 142)" opacity="0.99310327"/>
    <path d="M 390.7183837890625 234.72947692871094 C 387.85986328125 245.4878692626953 380.5480651855469 252.99732971191406 369.25628662109375 255.9279022216797 C 359.1319580078125 253.2115936279297 351.7911376953125 245.86697387695312 349.05926513671875 234.7696990966797 C 351.7930908203125 224.14593505859375 359.1581726074219 216.8226318359375 369.3892517089844 214.11009216308594 C 380.6429443359375 216.9728546142578 387.9811706542969 224.37469482421875 390.7183837890625 234.72947692871094" stroke-width="0.0" fill="rgb(109, 115, 120)" opacity="1.0"/>
    <path d="M 273.8329772949219 434.34967041015625 C 270.3752136230469 445.0186462402344 263.00335693359375 452.32159423828125 253.00006103515625 455.0000305175781 C 242.99993896484375 452.3205261230469 235.67697143554688 445.000732421875 233.5770721435547 435.3900451660156 C 236.140869140625 425.376220703125 243.37818908691406 418.1445007324219 253.16888427734375 415.6260070800781 C 263.2829895019531 417.7649841308594 270.9978942871094 424.4943542480469 273.8329772949219 434.34967041015625" stroke-width="0.0" fill="rgb(226, 188, 138)" opacity="0.9901357"/>
    <path d="M 563.9102172851562 535.7238159179688 C 561.1499633789062 546.8048706054688 553.8120727539062 554.1676025390625 542.4148559570312 556.9361572265625 C 532.1506958007812 554.2017822265625 524.815185546875 546.8422241210938 522.0781860351562 536.3368530273438 C 524.8360595703125 525.1876220703125 532.1937255859375 517.8521728515625 543.3233642578125 515.1008911132812 C 553.81494140625 517.8381958007812 561.1703491210938 525.1814575195312 563.9102172851562 535.7238159179688" stroke-width="0.0" fill="rgb(101, 105, 110)" opacity="1.0"/>
    <path d="M 92.60514068603516 80.295654296875 C 89.88094329833984 90.51022338867188 82.50733947753906 97.87446594238281 71.87063598632812 100.75623321533203 C 61.44267272949219 97.92223358154297 54.10173797607422 90.54960632324219 51.337249755859375 79.88665008544922 C 54.07765579223633 69.44210052490234 61.45585632324219 62.118438720703125 72.21613311767578 59.26673126220703 C 82.39872741699219 62.17138671875 89.6700210571289 69.65636444091797 92.60514068603516 80.295654296875" stroke-width="0.0" fill="rgb(194, 198, 205)" opacity="0.990748"/>
    <path d="M 388.8873291015625 515.3225708007812 C 386.1166687011719 525.7590942382812 378.75897216796875 533.115478515625 367.85870361328125 535.8763427734375 C 357.2110900878906 533.1311645507812 349.8498840332031 525.7964477539062 347.1134033203125 515.4603881835938 C 350.0259704589844 504.5274963378906 357.706787109375 497.5049743652344 368.2003479003906 494.7907409667969 C 378.5628356933594 497.1739501953125 386.0484619140625 504.36138916015625 388.8873291015625 515.3225708007812" stroke-width="0.0" fill="rgb(126, 131, 138)" opacity="1.0"/>
    <path d="M 341.8591613769531 93.34095764160156 C 339.0728759765625 103.69927978515625 331.6951599121094 111.06321716308594 321.3940734863281 113.85428619384766 C 310.3385314941406 111.01719665527344 302.9599914550781 103.6703872680664 300.1843566894531 92.94975280761719 C 302.93194580078125 82.2921142578125 310.302490234375 74.95991516113281 321.1570739746094 72.19197082519531 C 331.702392578125 74.94094848632812 339.0528564453125 82.30010986328125 341.8591613769531 93.34095764160156" stroke-width="0.0" fill="rgb(159, 164, 171)" opacity="1.0"/>
    <path d="M 513.8764038085938 186.25904846191406 C 511.09771728515625 196.73468017578125 503.7386779785156 204.1065673828125 493.3734436035156 206.86587524414062 C 482.2957763671875 204.0640411376953 474.9627685546875 196.6951141357422 472.383056640625 186.4161376953125 C 475.1768798828125 175.45404052734375 482.39166259765625 167.99049377441406 493.5143127441406 165.13082885742188 C 503.7726745605469 167.87042236328125 511.1087951660156 175.23519897460938 513.8764038085938 186.25904846191406" stroke-width="0.0" fill="rgb(126, 132, 139)" opacity="0.99014777"/>
    <path d="M 314.8809814453125 561.5703735351562 C 312.1398620605469 571.7896118164062 304.7911071777344 579.1431884765625 294.1180725097656 581.9033203125 C 283.3924255371094 579.0668334960938 276.3417053222656 571.4583740234375 273.9336242675781 561.0977172851562 C 276.67950439453125 551.0 284.0 543.6795043945312 294.0086975097656 540.9960327148438 C 304.12908935546875 543.6183471679688 311.82025146484375 550.7080078125 314.8809814453125 561.5703735351562" stroke-width="0.0" fill="rgb(116, 121, 128)" opacity="1.0"/>
    <path d="M 460.0064697265625 150.00390625 C 457.3760681152344 160.11087036132812 450.2284240722656 167.7174835205078 439.4084167480469 170.84507751464844 C 429.279296875 168.0940704345703 421.9598693847656 160.70037841796875 419.1676330566406 149.56373596191406 C 421.8739929199219 139.22406005859375 429.2259521484375 131.8781280517578 439.40911865234375 129.16065979003906 C 450.2002868652344 132.30271911621094 457.3577880859375 139.91729736328125 460.0064697265625 150.00390625" stroke-width="0.0" fill="rgb(140, 147, 155)" opacity="1.0"/>
    <path d="M 236.749755859375 52.96184158325195 C 233.99879455566406 63.64231872558594 226.6399688720703 70.99322509765625 215.7538604736328 73.78921508789062 C 205.30943298339844 71.05404663085938 197.9669952392578 63.68199920654297 195.1600799560547 53.14216995239258 C 198.0475311279297 42.479183197021484 205.5344696044922 35.18800354003906 216.43191528320312 32.25863265991211 C 226.65997314453125 34.97157669067383 233.99533081054688 42.35237121582031 236.749755859375 52.96184158325195" stroke-width="0.0" fill="rgb(167, 172, 180)" opacity="1.0"/>
    <path d="M 420.8667907714844 408.09375 C 418.1094970703125 418.7552185058594 410.7484130859375 426.09051513671875 399.9420471191406 428.8436584472656 C 389.39599609375 426.0291442871094 382.25927734375 418.5064697265625 379.8802490234375 408.1529541015625 C 382.67950439453125 398.0 390.0000915527344 390.67987060546875 400.6034851074219 387.2861328125 C 410.7403564453125 389.9168395996094 418.1027526855469 397.25250244140625 420.8667907714844 408.09375" stroke-width="0.0" fill="rgb(136, 143, 150)" opacity="1.0"/>
    <path d="M 541.8587036132812 344.3020324707031 C 539.1002197265625 354.7102355957031 531.6500244140625 361.9220275878906 520.7357177734375 364.58978271484375 C 510.3769226074219 361.9815673828125 503.1003112792969 354.59722900390625 500.6944580078125 344.3069152832031 C 503.67950439453125 334.0 511.0 326.67950439453125 521.4063720703125 323.5838317871094 C 531.6845703125 326.0061950683594 539.0750122070312 333.2886657714844 541.8587036132812 344.3020324707031" stroke-width="0.0" fill="rgb(137, 141, 148)" opacity="1.0"/>
    <path d="M 443.71881103515625 26.379907608032227 C 440.32049560546875 37.0 433.0 44.32050704956055 422.998779296875 47.00044250488281 C 412.9620056152344 44.33460998535156 405.3744812011719 37.136295318603516 402.1592712402344 26.391172409057617 C 404.86761474609375 16.228404998779297 412.2458190917969 8.913798332214355 423.3249206542969 6.137144088745117 C 433.7455749511719 8.899630546569824 441.099365234375 16.254179000854492 443.71881103515625 26.379907608032227" stroke-width="0.0" fill="rgb(135, 141, 148)" opacity="1.0"/>
    <path d="M 74.84374237060547 591.4066162109375 C 71.99305725097656 601.5051879882812 64.3376235961914 608.5382080078125 54.00875473022461 611.0523681640625 C 43.71490478515625 608.5035400390625 36.094566345214844 601.4262084960938 33.27259063720703 591.3223266601562 C 36.05731964111328 580.3623657226562 43.33052444458008 572.959716796875 54.13948440551758 570.1527709960938 C 64.65879821777344 572.9544067382812 71.98109436035156 580.3665771484375 74.84374237060547 591.4066162109375" stroke-width="0.0" fill="rgb(161, 167, 174)" opacity="1.0"/>
    <path d="M 182.78692626953125 80.24541473388672 C 179.99766540527344 90.62045288085938 172.6029052734375 97.94839477539062 161.8961944580078 100.71720886230469 C 151.35507202148438 97.98507690429688 143.96609497070312 90.66289520263672 141.19444274902344 79.95465087890625 C 143.95716857910156 69.31700134277344 151.3208465576172 61.96652603149414 161.72190856933594 59.1877555847168 C 172.6346893310547 62.001407623291016 179.9754180908203 69.37384796142578 182.78692626953125 80.24541473388672" stroke-width="0.0" fill="rgb(172, 177, 185)" opacity="0.9909995"/>
    <path d="M 218.84506225585938 497.23516845703125 C 216.07119750976562 507.7200927734375 208.72927856445312 515.09423828125 198.32550048828125 517.8519897460938 C 187.29006958007812 515.0652465820312 179.93350219726562 507.7099304199219 177.16014099121094 497.2019348144531 C 179.93746948242188 486.2796325683594 187.26486206054688 478.8985595703125 197.9243927001953 476.1358337402344 C 208.76309204101562 478.8818054199219 216.08090209960938 486.2505187988281 218.84506225585938 497.23516845703125" stroke-width="0.0" fill="rgb(152, 158, 165)" opacity="1.0"/>
    <path d="M 42.47124481201172 212.9983367919922 C 39.429508209228516 223.06907653808594 32.04828643798828 230.35910034179688 21.991987228393555 233.0455780029297 C 11.985956192016602 230.34814453125 4.675984859466553 223.00697326660156 1.9984641075134277 212.99806213378906 C 4.665653705596924 202.97494506835938 11.963484764099121 195.62896728515625 22.219669342041016 192.77110290527344 C 32.29029083251953 195.32537841796875 39.53871154785156 202.75283813476562 42.47124481201172 212.9983367919922" stroke-width="0.0" fill="rgb(222, 222, 222)" opacity="0.9903402"/>
    <path d="M 567.909912109375 119.9315414428711 C 565.1433715820312 130.7822723388672 557.77099609375 138.11416625976562 547.6344604492188 140.7294464111328 C 536.9214477539062 137.35250854492188 529.2427978515625 130.22682189941406 526.14111328125 119.47675323486328 C 528.87890625 109.23297119140625 536.23583984375 101.88599395751953 547.4722900390625 99.10624694824219 C 557.8063354492188 101.84099578857422 565.154541015625 109.19552612304688 567.909912109375 119.9315414428711" stroke-width="0.0" fill="rgb(130, 136, 142)" opacity="1.0"/>
    <path d="M 552.7617797851562 143.7134246826172 C 549.9608154296875 154.65921020507812 542.6964111328125 162.07188415527344 532.5567016601562 164.79254150390625 C 521.9183349609375 161.51934814453125 514.6715698242188 154.02157592773438 511.999755859375 144.00067138671875 C 514.679443359375 133.99989318847656 521.99951171875 126.67804718017578 532.0182495117188 123.95950317382812 C 542.1023559570312 126.61753845214844 549.7740478515625 133.7529296875 552.7617797851562 143.7134246826172" stroke-width="0.0" fill="rgb(124, 130, 136)" opacity="1.0"/>
    <path d="M 580.92236328125 489.57061767578125 C 578.161865234375 500.80950927734375 570.806884765625 508.15582275390625 559.6602783203125 510.9187316894531 C 549.1536865234375 508.18707275390625 541.7952270507812 500.8537902832031 539.0646362304688 490.49468994140625 C 541.8289794921875 479.1827697753906 549.1912841796875 471.85107421875 560.4257202148438 469.0946044921875 C 570.8229370117188 471.8334655761719 578.18505859375 479.1693115234375 580.92236328125 489.57061767578125" stroke-width="0.0" fill="rgb(108, 111, 115)" opacity="1.0"/>
    <path d="M 388.7928161621094 88.67011260986328 C 386.1029968261719 98.75133514404297 378.7602233886719 106.1241683959961 368.34716796875 108.87606811523438 C 357.3041076660156 106.06041717529297 349.9444885253906 98.6944351196289 347.1651916503906 87.72986602783203 C 349.9013977050781 77.25760650634766 357.26727294921875 69.92851257324219 367.4485168457031 67.37406158447266 C 377.9999084472656 70.67951202392578 385.31707763671875 78.00100708007812 388.7928161621094 88.67011260986328" stroke-width="0.0" fill="rgb(145, 151, 158)" opacity="1.0"/>
    <path d="M 412.0045166015625 262.990478515625 C 409.32049560546875 273.0 402.0 280.32049560546875 392.0 283.0 C 382.0001525878906 280.3204345703125 374.6865539550781 272.9979248046875 371.27874755859375 262.40936279296875 C 373.9889221191406 252.42901611328125 381.5018310546875 245.15866088867188 392.2184143066406 242.17393493652344 C 402.29840087890625 245.1736297607422 409.38525390625 252.86566162109375 412.0045166015625 262.990478515625" stroke-width="0.0" fill="rgb(137, 144, 151)" opacity="1.0"/>
    <path d="M 502.8965148925781 127.22682189941406 C 500.1199951171875 137.7567901611328 492.7496337890625 145.10186767578125 482.4059753417969 147.85691833496094 C 471.5693054199219 144.9191131591797 464.5004577636719 137.2801971435547 461.97552490234375 127.04045104980469 C 464.67950439453125 117.0 472.0 109.67948913574219 482.2430725097656 106.78695678710938 C 492.6078186035156 109.13795471191406 500.09320068359375 116.31285858154297 502.8965148925781 127.22682189941406" stroke-width="0.0" fill="rgb(137, 144, 151)" opacity="1.0"/>
    <path d="M 491.88330078125 314.4804992675781 C 489.1293640136719 324.76202392578125 481.7528381347656 332.10791015625 471.246826171875 334.885498046875 C 460.2744445800781 332.0914001464844 452.95220947265625 324.7092590332031 450.193603515625 314.04339599609375 C 452.9732360839844 303.32293701171875 460.3177185058594 295.95947265625 471.4440002441406 293.1470947265625 C 481.74005126953125 295.89044189453125 489.0731201171875 303.2744140625 491.88330078125 314.4804992675781" stroke-width="0.0" fill="rgb(138, 144, 151)" opacity="1.0"/>
    <path d="M 532.577392578125 401.6504821777344 C 529.3204956054688 412.0 522.0 419.32049560546875 511.9999694824219 422.0 C 501.9996643066406 419.3206481933594 494.6775207519531 412.0008544921875 491.9985656738281 402.00384521484375 C 494.6844482421875 392.00469970703125 502.0051574707031 384.6860656738281 512.0076293945312 382.00311279296875 C 522.0720825195312 384.64678955078125 529.6621704101562 391.8230285644531 532.577392578125 401.6504821777344" stroke-width="0.0" fill="rgb(127, 133, 139)" opacity="1.0"/>
    <path d="M 290.88104248046875 493.73516845703125 C 288.0953674316406 504.7381896972656 280.73553466796875 512.08837890625 270.0926208496094 514.8572998046875 C 259.28466796875 512.0819091796875 251.96116638183594 504.69927978515625 249.20030212402344 493.9720764160156 C 251.9889373779297 483.3470764160156 259.34027099609375 475.9716796875 270.24749755859375 473.1715087890625 C 280.72882080078125 475.91900634765625 288.10296630859375 483.26287841796875 290.88104248046875 493.73516845703125" stroke-width="0.0" fill="rgb(143, 145, 154)" opacity="1.0"/>
    <path d="M 615.0042114257812 368.9969177246094 C 612.3521728515625 379.07757568359375 605.2274780273438 386.760009765625 594.51025390625 389.865234375 C 584.2670288085938 387.0997009277344 576.9239501953125 379.7235412597656 574.121826171875 368.690673828125 C 576.8655395507812 358.2115783691406 584.2012939453125 350.8399963378906 594.2888793945312 348.10052490234375 C 605.2495727539062 351.2336730957031 612.3690185546875 358.8935241699219 615.0042114257812 368.9969177246094" stroke-width="0.0" fill="rgb(121, 126, 132)" opacity="0.99855685"/>
    <path d="M 584.5970458984375 417.4671630859375 C 582.0662841796875 427.7402648925781 574.7586059570312 435.1190185546875 563.6649780273438 437.9019775390625 C 553.2160034179688 435.1460266113281 545.864501953125 427.7794189453125 543.1002807617188 416.9435119628906 C 545.8487548828125 406.2010803222656 553.2005004882812 398.84686279296875 563.6094970703125 396.0934143066406 C 574.6528930664062 398.92071533203125 581.7799072265625 406.4516906738281 584.5970458984375 417.4671630859375" stroke-width="0.0" fill="rgb(114, 118, 126)" opacity="1.0"/>
    <path d="M 537.8778686523438 412.54119873046875 C 535.1517333984375 422.8061218261719 527.81201171875 430.1665954589844 517.6054077148438 432.89776611328125 C 506.26214599609375 430.0853576660156 498.9096374511719 422.7401123046875 496.32183837890625 412.5931701660156 C 499.6750183105469 401.9937438964844 506.99383544921875 394.6753845214844 517.071044921875 391.9593505859375 C 527.36328125 394.4208679199219 534.9669189453125 401.50006103515625 537.8778686523438 412.54119873046875" stroke-width="0.0" fill="rgb(129, 134, 139)" opacity="1.0"/>
    <path d="M 360.718017578125 367.6263732910156 C 358.1170349121094 377.7753601074219 350.795166015625 385.1654357910156 340.566162109375 387.93060302734375 C 329.5286560058594 385.00390625 322.5576171875 377.24237060546875 319.7486877441406 366.7096862792969 C 322.045654296875 356.28515625 329.2047119140625 348.8135986328125 339.4360656738281 346.0600280761719 C 350.5377502441406 348.9524230957031 357.5032653808594 356.6805114746094 360.718017578125 367.6263732910156" stroke-width="0.0" fill="rgb(66, 68, 67)" opacity="0.9901649"/>
    <path d="M 531.3001098632812 75.67633056640625 C 528.3297729492188 86.02465057373047 521.08740234375 93.52796936035156 510.74273681640625 96.71270751953125 C 500.67755126953125 93.79086303710938 493.2859802246094 86.28658294677734 490.14495849609375 75.38711547851562 C 492.842529296875 65.18620300292969 500.18402099609375 57.83634567260742 510.4885559082031 55.1064567565918 C 521.7191162109375 57.899173736572266 528.9431762695312 65.3331298828125 531.3001098632812 75.67633056640625" stroke-width="0.0" fill="rgb(134, 140, 147)" opacity="1.0"/>
    <path d="M 39.581214904785156 580.8104858398438 C 36.89234161376953 591.6012573242188 29.647157669067383 599.030517578125 18.566707611083984 601.8404541015625 C 8.242905616760254 599.1165771484375 0.9143385887145996 591.745849609375 -1.748570442199707 581.35693359375 C 1.0181177854537964 570.3587646484375 8.348267555236816 562.987548828125 18.901809692382812 560.2273559570312 C 29.5955810546875 563.0300903320312 36.92534255981445 570.4199829101562 39.581214904785156 580.8104858398438" stroke-width="0.0" fill="rgb(156, 161, 169)" opacity="0.990725"/>
    <path d="M 327.0058898925781 535.0107421875 C 324.3760070800781 545.0971069335938 317.1629638671875 552.5834350585938 307.17742919921875 555.2835083007812 C 297.0 552.3204956054688 289.67950439453125 545.0 286.29852294921875 534.3967895507812 C 288.9132385253906 524.2734985351562 296.28924560546875 516.9574584960938 306.4930114746094 514.4219360351562 C 316.99993896484375 517.6796264648438 324.32049560546875 525.0 327.0058898925781 535.0107421875" stroke-width="0.0" fill="rgb(130, 135, 142)" opacity="0.99051154"/>
    <path d="M 26.9693660736084 214.99224853515625 C 24.3265323638916 225.02703857421875 17.061016082763672 232.43975830078125 7.1177239418029785 235.40394592285156 C -2.9964547157287598 232.3276824951172 -10.314906120300293 224.99310302734375 -12.998544692993164 214.99937438964844 C -10.316606521606445 205.00657653808594 -2.982301712036133 197.7224884033203 7.182044982910156 194.91192626953125 C 17.060758590698242 197.55125427246094 24.33077049255371 204.97496032714844 26.9693660736084 214.99224853515625" stroke-width="0.0" fill="rgb(217, 218, 223)" opacity="0.99083596"/>
    <path d="M 402.8838195800781 69.01119995117188 C 400.10858154296875 79.75188446044922 392.7425231933594 87.08181762695312 382.5628967285156 89.63697814941406 C 372.00262451171875 86.32259368896484 364.67938232421875 78.99662017822266 361.1914367675781 68.3321762084961 C 363.89727783203125 58.2545166015625 371.2510681152344 50.889625549316406 381.7922058105469 48.141197204589844 C 392.74542236328125 50.897132873535156 400.0959777832031 58.25803756713867 402.8838195800781 69.01119995117188" stroke-width="0.0" fill="rgb(144, 151, 157)" opacity="0.9916116"/>
    <path d="M 546.8811645507812 376.93890380859375 C 544.1240844726562 387.78240966796875 536.7874755859375 395.13690185546875 526.6692504882812 397.74371337890625 C 515.977294921875 394.2874450683594 508.2893981933594 387.1748962402344 505.1170349121094 376.3552551269531 C 507.8647155761719 366.24835205078125 515.3002319335938 359.01312255859375 526.2827758789062 356.3407897949219 C 536.6966552734375 358.9654846191406 544.0891723632812 366.2834167480469 546.8811645507812 376.93890380859375" stroke-width="0.0" fill="rgb(140, 145, 151)" opacity="1.0"/>
    <path d="M 29.00000762939453 10.000024795532227 C 26.320940017700195 20.00132179260254 19.0087947845459 27.347734451293945 8.91344165802002 30.384204864501953 C -1.1492341756820679 27.556930541992188 -8.374984741210938 20.092052459716797 -11.006429672241211 10.011064529418945 C -8.320508003234863 5.329070518200751e-15 -1.0 -7.320508003234863 9.0 -10.0 C 19.0 -7.320508003234863 26.32050895690918 -8.881784197001252e-15 29.00000762939453 10.000024795532227" stroke-width="0.0" fill="rgb(189, 193, 202)" opacity="0.9911159"/>
    <path d="M 117.73467254638672 146.20272827148438 C 114.67548370361328 156.03604125976562 106.79794311523438 163.00714111328125 96.33463287353516 166.79312133789062 C 86.44182586669922 164.01345825195312 79.2653579711914 156.450439453125 77.00224304199219 146.194580078125 C 79.42595672607422 135.667724609375 86.62357330322266 128.27041625976562 96.79634094238281 126.44371032714844 C 107.21990966796875 128.6931915283203 114.79478454589844 135.64602661132812 117.73467254638672 146.20272827148438" stroke-width="0.0" fill="rgb(249, 230, 210)" opacity="1.0"/>
    <path d="M 595.8674926757812 209.51541137695312 C 593.0588989257812 220.70352172851562 585.7041015625 228.0609893798828 575.479736328125 230.74966430664062 C 564.3253784179688 227.96090698242188 556.8987426757812 220.72169494628906 554.1090087890625 209.79794311523438 C 556.9020385742188 199.27346801757812 564.2848510742188 191.93215942382812 575.2023315429688 189.1697998046875 C 585.7484741210938 191.9058074951172 593.1227416992188 199.24053955078125 595.8674926757812 209.51541137695312" stroke-width="0.0" fill="rgb(104, 110, 117)" opacity="0.9900281"/>
    <path d="M 549.8955078125 83.41271209716797 C 547.1449584960938 93.77976989746094 539.77099609375 101.123779296875 529.4199829101562 103.87498474121094 C 518.3794555664062 101.02648162841797 511.181396484375 93.5507583618164 509.03533935546875 83.26564025878906 C 511.7987060546875 73.06953430175781 518.9563598632812 65.45127868652344 529.6099853515625 62.15917205810547 C 539.7803955078125 64.87020874023438 547.1266479492188 72.22077941894531 549.8955078125 83.41271209716797" stroke-width="0.0" fill="rgb(114, 119, 126)" opacity="0.9901264"/>
    <path d="M 530.81591796875 326.3035888671875 C 527.3466796875 337.0182800292969 520.0145263671875 344.333740234375 510.00439453125 347.004638671875 C 500.0 344.32049560546875 492.67950439453125 337.0 489.4944152832031 326.53887939453125 C 491.9786071777344 316.3009948730469 499.2774658203125 308.9110412597656 510.2853698730469 306.1286315917969 C 520.765380859375 308.8813171386719 528.1265258789062 316.2314453125 530.81591796875 326.3035888671875" stroke-width="0.0" fill="rgb(133, 138, 146)" opacity="0.99059486"/>
    <path d="M 493.8836975097656 32.56876754760742 C 491.16802978515625 42.81722640991211 483.80615234375 50.13849639892578 472.8775634765625 52.86941146850586 C 462.24591064453125 50.1152458190918 454.89508056640625 42.749847412109375 452.1383361816406 32.434593200683594 C 455.1963806152344 21.732568740844727 462.89666748046875 14.634947776794434 473.1414794921875 11.877081871032715 C 483.47003173828125 14.285589218139648 491.0026550292969 21.43074607849121 493.8836975097656 32.56876754760742" stroke-width="0.0" fill="rgb(113, 119, 126)" opacity="0.9901031"/>
    <path d="M 494.00958251953125 122.99748229980469 C 491.3212890625 133.00299072265625 484.00677490234375 140.33421325683594 473.7344970703125 143.49758911132812 C 463.7261047363281 140.61514282226562 456.0902099609375 133.40069580078125 453.1241760253906 122.5856704711914 C 455.8843078613281 112.24260711669922 463.2542724609375 104.91695404052734 473.43499755859375 102.3635482788086 C 484.0005187988281 105.67925262451172 491.32366943359375 112.99864959716797 494.00958251953125 122.99748229980469" stroke-width="0.0" fill="rgb(135, 140, 147)" opacity="1.0"/>
    <path d="M 209.2882537841797 29.220998764038086 C 206.71934509277344 39.36839294433594 199.39974975585938 46.81087112426758 188.76327514648438 49.767127990722656 C 178.3654327392578 46.99555587768555 171.01040649414062 39.63243865966797 168.20166015625 28.794614791870117 C 171.00592041015625 18.400854110717773 178.44097900390625 11.11828899383545 188.66220092773438 8.584240913391113 C 199.0 11.679491996765137 206.3205108642578 19.0 209.2882537841797 29.220998764038086" stroke-width="0.0" fill="rgb(169, 173, 182)" opacity="0.9910904"/>
    <path d="M 427.033447265625 210.0120391845703 C 424.4789123535156 220.24952697753906 417.38067626953125 227.85760498046875 406.47467041015625 230.84326171875 C 396.2695617675781 228.0948486328125 388.92767333984375 220.7217559814453 386.13232421875 209.5814208984375 C 388.8860778808594 199.2547607421875 396.26812744140625 191.9193572998047 406.6064758300781 189.1650390625 C 417.3736572265625 192.1270751953125 424.4464111328125 199.7796630859375 427.033447265625 210.0120391845703" stroke-width="0.0" fill="rgb(147, 153, 160)" opacity="0.99056846"/>
    <path d="M 521.9627685546875 335.9957275390625 C 519.288330078125 345.9903259277344 512.095947265625 353.5981750488281 501.41400146484375 356.8472595214844 C 491.26812744140625 354.0970764160156 483.9122619628906 346.7279052734375 481.1335144042969 336.1806335449219 C 483.9151306152344 325.2994384765625 491.35186767578125 318.07183837890625 501.6666259765625 315.7437744140625 C 511.9561767578125 318.74102783203125 519.2852172851562 326.0361022949219 521.9627685546875 335.9957275390625" stroke-width="0.0" fill="rgb(124, 130, 136)" opacity="0.9902424"/>
    <path d="M 176.81394958496094 491.5663757324219 C 173.9944305419922 502.65277099609375 166.66204833984375 510.0215759277344 155.83888244628906 512.80908203125 C 145.3065948486328 510.0538635253906 137.98263549804688 502.6806945800781 135.45059204101562 492.4781799316406 C 138.6794891357422 482.0 146.0 474.67950439453125 156.46139526367188 471.46734619140625 C 166.66329956054688 473.99786376953125 174.0530548095703 481.31878662109375 176.81394958496094 491.5663757324219" stroke-width="0.0" fill="rgb(147, 153, 160)" opacity="0.9901574"/>
    <path d="M 283.81005859375 575.7035522460938 C 281.1385498046875 585.7811889648438 273.77447509765625 593.1223754882812 262.6270751953125 595.9039306640625 C 252.21636962890625 593.1477661132812 244.8990478515625 585.7654418945312 242.16015625 575.3538818359375 C 245.06385803222656 564.5310668945312 252.66229248046875 557.439697265625 262.9357604980469 554.9561767578125 C 273.00048828125 557.6793212890625 280.3240661621094 564.99853515625 283.81005859375 575.7035522460938" stroke-width="0.0" fill="rgb(132, 137, 144)" opacity="0.99175644"/>
    <path d="M 339.79022216796875 533.3300170898438 C 336.3337097167969 544.0347290039062 329.1182556152344 551.5877075195312 318.895263671875 554.7443237304688 C 308.84796142578125 551.639892578125 301.6584167480469 544.0509643554688 298.9989929199219 534.00244140625 C 301.6795654296875 524.0001220703125 309.00018310546875 516.6798095703125 319.2516784667969 513.7839965820312 C 329.624267578125 516.1229248046875 337.09906005859375 523.3009033203125 339.79022216796875 533.3300170898438" stroke-width="0.0" fill="rgb(125, 130, 137)" opacity="1.0"/>
    <path d="M 123.75952911376953 585.5443725585938 C 121.02628326416016 595.6459350585938 113.60735321044922 602.90966796875 103.03372955322266 605.4661865234375 C 92.37686920166016 602.9056396484375 84.9263687133789 595.6804809570312 82.14915466308594 585.3279418945312 C 84.95094299316406 574.302978515625 92.30667114257812 566.9619140625 102.77003479003906 564.2288818359375 C 113.42164611816406 567.1194458007812 120.58842468261719 574.6835327148438 123.75952911376953 585.5443725585938" stroke-width="0.0" fill="rgb(156, 164, 170)" opacity="1.0"/>
    <path d="M 264.0158386230469 86.97408294677734 C 261.32049560546875 97.0 254.0 104.32051086425781 243.9947967529297 107.00231170654297 C 233.91453552246094 104.35929107666016 226.2930908203125 97.20655822753906 223.17800903320312 86.51605987548828 C 225.93511962890625 76.31038665771484 233.32839965820312 68.98171997070312 243.65028381347656 66.23335266113281 C 254.3007049560547 69.23025512695312 261.4384765625 76.81136322021484 264.0158386230469 86.97408294677734" stroke-width="0.0" fill="rgb(164, 170, 177)" opacity="1.0"/>
    <path d="M 474.9106750488281 520.7249145507812 C 472.134765625 531.7794799804688 464.7773132324219 539.1292724609375 453.4951171875 541.9138793945312 C 443.1759948730469 539.1689453125 435.8260192871094 531.8262939453125 433.0878601074219 521.242431640625 C 435.8638610839844 510.2284240722656 443.24017333984375 502.8931579589844 454.1518859863281 500.12506103515625 C 464.77056884765625 502.8804931640625 472.1462097167969 510.21844482421875 474.9106750488281 520.7249145507812" stroke-width="0.0" fill="rgb(120, 123, 129)" opacity="0.99046814"/>
    <path d="M 587.8687133789062 151.51058959960938 C 584.9074096679688 162.39674377441406 577.2252197265625 169.44400024414062 566.9462280273438 172.06077575683594 C 556.6470336914062 169.58023071289062 549.0858154296875 162.4654541015625 546.3062133789062 152.2048797607422 C 549.0205688476562 141.3202667236328 556.2820434570312 133.9071807861328 567.45654296875 131.10360717773438 C 577.7831420898438 133.85621643066406 585.12451171875 141.22463989257812 587.8687133789062 151.51058959960938" stroke-width="0.0" fill="rgb(124, 130, 136)" opacity="1.0"/>
    <path d="M 246.97354125976562 117.97452545166016 C 244.30950927734375 127.99614715576172 236.99913024902344 135.32020568847656 226.99996948242188 137.99998474121094 C 217.0 135.3205108642578 209.6794891357422 128.0 206.9981231689453 117.99604797363281 C 209.6534423828125 107.94583129882812 216.8802947998047 100.44758605957031 226.77488708496094 97.61023712158203 C 236.99359130859375 100.6925277709961 244.31948852539062 108.0029525756836 246.97354125976562 117.97452545166016" stroke-width="0.0" fill="rgb(161, 165, 174)" opacity="0.99174833"/>
    <path d="M 262.820068359375 13.41506290435791 C 260.0853271484375 23.718568801879883 252.70936584472656 31.063617706298828 242.42782592773438 33.82364273071289 C 231.38343811035156 30.966217041015625 223.98899841308594 23.633106231689453 221.15362548828125 12.789104461669922 C 223.9871063232422 2.4131269454956055 231.50338745117188 -4.75026798248291 241.9446563720703 -7.225376129150391 C 252.42218017578125 -4.674849510192871 259.9336242675781 2.4917640686035156 262.820068359375 13.41506290435791" stroke-width="0.0" fill="rgb(157, 162, 171)" opacity="0.9905316"/>
    <path d="M 428.8103332519531 262.2729797363281 C 426.0820617675781 272.7439270019531 418.7605285644531 280.1258239746094 408.6731262207031 282.8375549316406 C 397.9241638183594 279.501953125 390.6712341308594 272.0218811035156 387.9789123535156 261.9654235839844 C 390.5152893066406 251.7342071533203 397.5724792480469 244.0736846923828 408.14556884765625 241.15029907226562 C 418.6968994140625 243.93251037597656 426.0174560546875 251.32199096679688 428.8103332519531 262.2729797363281" stroke-width="0.0" fill="rgb(144, 151, 158)" opacity="0.9903201"/>
    <path d="M 241.9316864013672 120.03368377685547 C 239.3206024169922 129.9999542236328 231.99819946289062 137.3141326904297 221.37753295898438 140.7955780029297 C 211.52818298339844 137.9573516845703 204.42410278320312 130.329833984375 201.93057250976562 120.07654571533203 C 204.64605712890625 109.92881774902344 211.8428955078125 102.38455200195312 221.71261596679688 99.58888244628906 C 231.94651794433594 102.75101470947266 239.26223754882812 110.04955291748047 241.9316864013672 120.03368377685547" stroke-width="0.0" fill="rgb(151, 156, 161)" opacity="0.9905855"/>
    <path d="M 481.62579345703125 179.52951049804688 C 478.7295227050781 190.4749298095703 471.57354736328125 198.00930786132812 461.29608154296875 200.84506225585938 C 450.5065002441406 197.93936157226562 443.1405944824219 190.4557342529297 440.1875915527344 179.81353759765625 C 443.03485107421875 169.47853088378906 450.5876770019531 162.3538055419922 461.4768981933594 159.3929901123047 C 471.69140625 161.9676513671875 479.0452880859375 169.3039093017578 481.62579345703125 179.52951049804688" stroke-width="0.0" fill="rgb(146, 152, 160)" opacity="1.0"/>
    <path d="M 472.8258361816406 149.14434814453125 C 469.91644287109375 159.44200134277344 462.308349609375 166.53749084472656 452.0218505859375 169.11737060546875 C 441.9789123535156 166.36680603027344 434.6755676269531 159.00868225097656 431.99310302734375 148.9831085205078 C 434.56939697265625 138.79595947265625 441.6326904296875 131.12301635742188 451.755615234375 128.18121337890625 C 462.2547912597656 131.28929138183594 469.7835388183594 138.7111053466797 472.8258361816406 149.14434814453125" stroke-width="0.0" fill="rgb(142, 149, 156)" opacity="1.0"/>
    <path d="M 444.8403625488281 30.507490158081055 C 442.0956726074219 40.73661422729492 434.7319030761719 48.0840950012207 423.73138427734375 50.88694763183594 C 413.2544860839844 48.10691452026367 405.8948974609375 40.74515914916992 403.2113952636719 30.67116928100586 C 406.7127685546875 20.02260971069336 414.01788330078125 12.696403503417969 424.0011291503906 10.02148723602295 C 434.0481262207031 12.667757034301758 441.68255615234375 19.829456329345703 444.8403625488281 30.507490158081055" stroke-width="0.0" fill="rgb(143, 149, 157)" opacity="1.0"/>
    <path d="M 362.9443359375 305.1480712890625 C 360.2161865234375 315.88287353515625 352.8902587890625 323.2340393066406 342.89410400390625 325.8934326171875 C 332.8532409667969 321.4523620605469 325.5600280761719 314.142333984375 322.94854736328125 305.11956787109375 C 325.5587158203125 295.84112548828125 332.80413818359375 288.43658447265625 342.74420166015625 284.10272216796875 C 352.7520751953125 286.8807678222656 360.1710510253906 294.2203674316406 362.9443359375 305.1480712890625" stroke-width="0.0" fill="rgb(69, 71, 71)" opacity="0.99000853"/>
    <path d="M 360.90423583984375 595.319091796875 C 357.7737731933594 606.2326049804688 350.0738830566406 613.3489990234375 340.0015563964844 616.0013427734375 C 329.96820068359375 613.3323974609375 322.4204406738281 606.1127319335938 319.152587890625 595.3333740234375 C 321.850830078125 585.2070922851562 329.2140808105469 577.8677368164062 339.8887634277344 575.1162719726562 C 350.7867736816406 577.8706665039062 358.15997314453125 585.2010498046875 360.90423583984375 595.319091796875" stroke-width="0.0" fill="rgb(118, 123, 128)" opacity="0.9903445"/>
    <path d="M 606.4354858398438 310.9067687988281 C 603.8980712890625 321.6366882324219 596.7100219726562 329.1105041503906 585.7425537109375 331.9056091308594 C 575.1895141601562 329.1624450683594 567.8424072265625 321.8083190917969 565.0908813476562 311.39312744140625 C 567.8724975585938 300.2265930175781 575.2183227539062 292.8528137207031 585.5391235351562 290.09527587890625 C 596.7173461914062 292.8962097167969 603.9410400390625 300.3377685546875 606.4354858398438 310.9067687988281" stroke-width="0.0" fill="rgb(121, 126, 132)" opacity="1.0"/>
    <path d="M 540.775390625 250.60264587402344 C 538.0036010742188 261.68072509765625 530.7005004882812 269.0622253417969 519.617431640625 271.8605041503906 C 509.24432373046875 269.1182861328125 501.9024963378906 261.7469787597656 499.1286926269531 251.26380920410156 C 501.9138488769531 240.26364135742188 509.25579833984375 232.89340209960938 520.2098999023438 230.1031951904297 C 530.737060546875 232.89173889160156 538.0791625976562 240.274169921875 540.775390625 250.60264587402344" stroke-width="0.0" fill="rgb(137, 143, 151)" opacity="1.0"/>
    <path d="M 267.7845153808594 535.4696044921875 C 264.5014953613281 546.0733032226562 257.0195617675781 553.3290405273438 246.33132934570312 556.7864379882812 C 236.2569580078125 554.1107177734375 228.92807006835938 546.7278442382812 226.15090942382812 535.746337890625 C 228.8931884765625 525.2473754882812 236.25221252441406 517.9063110351562 246.91844177246094 515.1607055664062 C 257.6903076171875 517.9434204101562 265.0455627441406 525.3141479492188 267.7845153808594 535.4696044921875" stroke-width="0.0" fill="rgb(142, 148, 154)" opacity="0.9908622"/>
    <path d="M 164.50259399414062 479.61767578125 C 161.33816528320312 490.00653076171875 154.00540161132812 497.3336181640625 143.51536560058594 500.56219482421875 C 133.32040405273438 498.0233459472656 125.95421600341797 490.68682861328125 123.17172241210938 480.36383056640625 C 126.17940521240234 469.6578674316406 133.7791748046875 462.5361328125 144.06910705566406 460.3786315917969 C 154.412109375 462.3599853515625 161.8978729248047 469.50872802734375 164.50259399414062 479.61767578125" stroke-width="0.0" fill="rgb(163, 168, 170)" opacity="0.9910866"/>
    <path d="M 41.21473693847656 14.209378242492676 C 38.75761795043945 24.4322452545166 31.430034637451172 31.7504825592041 20.810096740722656 34.53413391113281 C 10.6490478515625 31.790231704711914 3.5027480125427246 24.2553653717041 0.9770490527153015 14.04431438446045 C 3.680286407470703 4.0003557205200195 11.000147819519043 -3.3204426765441895 21.00000762939453 -6.000000476837158 C 31.0 -3.3205080032348633 38.32050704956055 4.0 41.21473693847656 14.209378242492676" stroke-width="0.0" fill="rgb(189, 192, 201)" opacity="0.99138445"/>
    <path d="M 546.0 143.99978637695312 C 543.3297729492188 154.0262451171875 536.0983276367188 161.55368041992188 525.4065551757812 164.8255157470703 C 515.2648315429688 162.10433959960938 507.9268493652344 154.72242736816406 505.1387023925781 143.77230834960938 C 507.8978576660156 133.25198364257812 515.24755859375 125.88677978515625 525.343017578125 123.18618774414062 C 536.0335693359375 126.58844757080078 543.323974609375 133.9921112060547 546.0 143.99978637695312" stroke-width="0.0" fill="rgb(127, 134, 140)" opacity="0.99065727"/>
    <path d="M 264.4176330566406 139.6751708984375 C 261.6461181640625 150.45994567871094 254.61721801757812 158.07745361328125 243.38356018066406 160.93359375 C 233.143310546875 158.19500732421875 225.78866577148438 150.8636016845703 223.1051788330078 140.81141662597656 C 226.44403076171875 129.82843017578125 233.9072265625 122.72976684570312 244.449462890625 120.06130981445312 C 254.61520385742188 122.04048919677734 261.9353942871094 129.3924560546875 264.4176330566406 139.6751708984375" stroke-width="0.0" fill="rgb(177, 135, 88)" opacity="1.0"/>
    <path d="M 590.8555297851562 170.021240234375 C 588.0439453125 180.67776489257812 580.669677734375 188.02178955078125 569.6756591796875 190.81918334960938 C 559.2283935546875 188.10409545898438 551.8540649414062 180.78717041015625 549.128662109375 170.64224243164062 C 552.2344970703125 159.742919921875 559.880859375 152.62228393554688 570.0694580078125 149.9550323486328 C 580.3768310546875 152.40379333496094 587.9747314453125 159.48973083496094 590.8555297851562 170.021240234375" stroke-width="0.0" fill="rgb(129, 135, 141)" opacity="1.0"/>
    <path d="M 505.8489685058594 97.6650390625 C 503.12432861328125 107.75504302978516 495.7223815917969 115.0287857055664 485.43450927734375 117.4438247680664 C 474.7773132324219 114.44664001464844 467.1064453125 107.3864974975586 464.1313171386719 96.46902465820312 C 466.8566589355469 86.20507049560547 474.20166015625 78.84767150878906 484.3304138183594 76.12763214111328 C 495.2738342285156 79.23381805419922 502.5717468261719 86.8053207397461 505.8489685058594 97.6650390625" stroke-width="0.0" fill="rgb(125, 133, 140)" opacity="1.0"/>
    <path d="M 409.84381103515625 123.59024810791016 C 406.8945007324219 134.40147399902344 399.2508850097656 141.47454833984375 388.9558410644531 144.06661987304688 C 378.62567138671875 141.5911407470703 371.0462646484375 134.49853515625 368.2065734863281 124.06739807128906 C 370.9764404296875 113.32015228271484 378.29644775390625 105.91468811035156 389.0257568359375 103.1143569946289 C 399.765625 105.87434387207031 407.10015869140625 113.24457550048828 409.84381103515625 123.59024810791016" stroke-width="0.0" fill="rgb(144, 151, 159)" opacity="1.0"/>
    <path d="M 342.1868591308594 372.2767639160156 C 339.92193603515625 382.6809997558594 332.764892578125 390.1631164550781 321.71038818359375 392.9437561035156 C 311.314208984375 390.15545654296875 305.3861083984375 382.02740478515625 302.9527282714844 372.6895446777344 C 305.5826416015625 362.88232421875 312.88153076171875 355.58062744140625 322.8406982421875 352.9206237792969 C 332.1874694824219 354.3492431640625 339.3478698730469 361.9123229980469 342.1868591308594 372.2767639160156" stroke-width="0.0" fill="rgb(76, 64, 49)" opacity="0.9900095"/>
    <path d="M 51.44786834716797 241.95579528808594 C 48.41859436035156 252.18646240234375 41.2802619934082 259.71600341796875 31.041976928710938 262.4577941894531 C 20.647441864013672 259.7325134277344 13.426135063171387 252.3059844970703 11.229578971862793 242.03341674804688 C 13.769014358520508 232.07266235351562 21.0483455657959 224.6852264404297 31.18581199645996 221.65151977539062 C 41.27720642089844 224.33096313476562 48.45500946044922 231.78726196289062 51.44786834716797 241.95579528808594" stroke-width="0.0" fill="rgb(248, 243, 232)" opacity="1.0"/>
    <path d="M 424.86651611328125 576.7479858398438 C 422.17877197265625 586.8307495117188 414.8310546875 594.1797485351562 404.20654296875 596.9259033203125 C 393.1824035644531 594.1717529296875 385.84906005859375 586.8093872070312 383.1158752441406 576.4373168945312 C 385.95367431640625 565.3837280273438 393.48883056640625 558.2590942382812 403.849609375 555.8800048828125 C 414.03424072265625 558.6646728515625 421.5192565917969 565.907958984375 424.86651611328125 576.7479858398438" stroke-width="0.0" fill="rgb(103, 106, 112)" opacity="0.9901326"/>
    <path d="M 362.8569641113281 170.19070434570312 C 360.1007995605469 180.75454711914062 352.77386474609375 188.1473846435547 341.48187255859375 190.94027709960938 C 331.1462097167969 188.2007598876953 323.806640625 180.85093688964844 321.1009826660156 170.6430206298828 C 323.924560546875 159.30572509765625 331.34063720703125 152.0188446044922 342.3921813964844 149.18162536621094 C 352.7314453125 151.91311645507812 360.0732421875 159.27362060546875 362.8569641113281 170.19070434570312" stroke-width="0.0" fill="rgb(140, 145, 151)" opacity="1.0"/>
    <path d="M 517.9252319335938 540.8440551757812 C 515.1714477539062 551.8228759765625 507.8243713378906 559.1748657226562 497.00396728515625 561.9165649414062 C 486.1664733886719 559.18408203125 478.8343200683594 551.8258666992188 476.0852355957031 541.0693969726562 C 478.84588623046875 530.19970703125 486.19757080078125 522.8408203125 497.3318176269531 520.0751953125 C 507.8232727050781 522.8234252929688 515.1754150390625 530.17724609375 517.9252319335938 540.8440551757812" stroke-width="0.0" fill="rgb(101, 105, 111)" opacity="0.9902567"/>
    <path d="M 291.87786865234375 148.7465362548828 C 289.2044372558594 158.85675048828125 281.8428649902344 166.16688537597656 271.384521484375 168.83424377441406 C 260.4083251953125 166.01075744628906 253.3898468017578 158.48143005371094 251.71730041503906 147.66964721679688 C 253.19808959960938 137.5089111328125 260.4846496582031 130.1177520751953 270.5722961425781 128.40574645996094 C 281.3857421875 130.4930419921875 288.92816162109375 137.49667358398438 291.87786865234375 148.7465362548828" stroke-width="0.0" fill="rgb(68, 68, 69)" opacity="0.9900157"/>
    <path d="M 69.74678802490234 430.86175537109375 C 66.88134002685547 441.5101623535156 59.48756790161133 448.81268310546875 48.707183837890625 451.6684875488281 C 38.4791259765625 448.91864013671875 31.2364559173584 441.4697265625 28.789655685424805 431.19439697265625 C 31.625585556030273 420.9193420410156 38.87771224975586 413.4903869628906 49.20450210571289 410.4188232421875 C 59.45457458496094 413.2125244140625 66.89375305175781 420.50762939453125 69.74678802490234 430.86175537109375" stroke-width="0.0" fill="rgb(202, 204, 207)" opacity="0.99039346"/>
    <path d="M 79.77483367919922 31.854211807250977 C 76.9729995727539 42.61391067504883 69.6035385131836 49.94234848022461 59.33070373535156 52.53493881225586 C 48.92753601074219 49.465572357177734 41.663604736328125 42.032958984375 38.655433654785156 31.8223819732666 C 41.48571014404297 21.902856826782227 48.95709228515625 14.6591215133667 59.29844665527344 11.649897575378418 C 69.51313018798828 14.151449203491211 76.93273162841797 21.458398818969727 79.77483367919922 31.854211807250977" stroke-width="0.0" fill="rgb(185, 189, 196)" opacity="1.0"/>
    <path d="M 222.84808349609375 16.54991912841797 C 220.00254821777344 27.647390365600586 212.64488220214844 34.994266510009766 202.46401977539062 37.53887939453125 C 192.00711059570312 34.31084060668945 184.6876220703125 26.99332618713379 181.5690155029297 16.625181198120117 C 184.07542419433594 6.414280414581299 191.40866088867188 -0.9412441253662109 201.9114990234375 -3.5967047214508057 C 212.6330108642578 -0.9419496059417725 220.0662078857422 6.323237419128418 222.84808349609375 16.54991912841797" stroke-width="0.0" fill="rgb(159, 164, 171)" opacity="1.0"/>
    <path d="M 57.42652893066406 178.78875732421875 C 54.257076263427734 188.98451232910156 47.02544403076172 196.39593505859375 36.85718536376953 199.5670623779297 C 26.858842849731445 196.57081604003906 19.713512420654297 189.05526733398438 16.838394165039062 178.85586547851562 C 19.57686996459961 168.9609832763672 26.99486541748047 161.69168090820312 37.10490798950195 158.9130401611328 C 47.32853317260742 161.35745239257812 54.70391845703125 168.65249633789062 57.42652893066406 178.78875732421875" stroke-width="0.0" fill="rgb(226, 225, 225)" opacity="0.9906049"/>
    <path d="M 385.1622009277344 399.8727722167969 C 382.5267028808594 410.3025207519531 375.4276428222656 417.89202880859375 364.4094543457031 420.85430908203125 C 354.2361145019531 418.12841796875 346.89373779296875 410.7548828125 344.12408447265625 399.9547424316406 C 346.8858947753906 389.2421569824219 354.2485656738281 381.9032287597656 365.11297607421875 379.13934326171875 C 375.6090087890625 381.96331787109375 382.7550964355469 389.4881896972656 385.1622009277344 399.8727722167969" stroke-width="0.0" fill="rgb(144, 149, 155)" opacity="1.0"/>
    <path d="M 287.77984619140625 83.92800903320312 C 285.00360107421875 94.61605072021484 277.5670471191406 101.85601043701172 267.26812744140625 104.27297973632812 C 257.0 101.32051086425781 249.67947387695312 94.00000762939453 246.88186645507812 83.86432647705078 C 249.31382751464844 73.57086944580078 256.49298095703125 66.0762939453125 267.31707763671875 63.19187927246094 C 277.66033935546875 65.97832489013672 285.0217590332031 73.33909606933594 287.77984619140625 83.92800903320312" stroke-width="0.0" fill="rgb(159, 164, 170)" opacity="1.0"/>
    <path d="M 447.7464294433594 211.63003540039062 C 445.0953369140625 221.7508544921875 437.76092529296875 229.1204833984375 427.40362548828125 231.8572998046875 C 416.5247497558594 228.9515838623047 409.46112060546875 221.32965087890625 407.0823974609375 211.071044921875 C 409.7236328125 201.02487182617188 417.0144348144531 193.68829345703125 427.00189208984375 191.00120544433594 C 437.0 193.6794891357422 444.3197021484375 201.00022888183594 447.7464294433594 211.63003540039062" stroke-width="0.0" fill="rgb(132, 139, 146)" opacity="0.9904285"/>
    <path d="M 223.04522705078125 115.91161346435547 C 220.33087158203125 126.10360717773438 213.19114685058594 133.61300659179688 203.49098205566406 135.43960571289062 C 193.50650024414062 132.72535705566406 186.06439208984375 125.5605239868164 182.35626220703125 115.4915771484375 C 185.00355529785156 105.34949493408203 192.33436584472656 97.96246337890625 202.63941955566406 95.18659210205078 C 213.34202575683594 98.18890380859375 220.50599670410156 105.76411437988281 223.04522705078125 115.91161346435547" stroke-width="0.0" fill="rgb(159, 166, 166)" opacity="0.99008036"/>
    <path d="M 487.86578369140625 13.506685256958008 C 484.7716064453125 24.238656997680664 477.0871276855469 31.361515045166016 466.7466125488281 34.24717330932617 C 456.3955383300781 31.868362426757812 448.93182373046875 24.671241760253906 446.1375427246094 13.989250183105469 C 448.9460754394531 3.3418290615081787 456.3997802734375 -3.883277654647827 467.11737060546875 -6.45830774307251 C 477.674560546875 -3.9575552940368652 485.10528564453125 3.2759060859680176 487.86578369140625 13.506685256958008" stroke-width="0.0" fill="rgb(121, 126, 133)" opacity="0.9903431"/>
    <path d="M 614.0103149414062 409.9958801269531 C 611.3814086914062 420.1251220703125 604.2671508789062 427.7779846191406 593.3705444335938 430.88067626953125 C 583.3269653320312 428.101806640625 576.221923828125 420.55877685546875 573.3053588867188 409.40802001953125 C 575.8719482421875 399.2064208984375 583.1989135742188 391.8503723144531 593.4347534179688 389.1297302246094 C 604.3441772460938 392.13421630859375 611.4071044921875 399.8265686035156 614.0103149414062 409.9958801269531" stroke-width="0.0" fill="rgb(119, 122, 127)" opacity="0.9907561"/>
    <path d="M 470.76739501953125 411.36590576171875 C 467.360595703125 422.0133056640625 460.002197265625 429.3211975097656 449.4210510253906 432.6504211425781 C 439.23236083984375 430.0961608886719 431.85321044921875 422.7862854003906 429.11053466796875 412.40435791015625 C 431.9079895019531 401.2677307128906 439.2637939453125 393.89886474609375 450.0424499511719 391.1293640136719 C 460.77044677734375 393.87982177734375 468.1136169433594 401.2320556640625 470.76739501953125 411.36590576171875" stroke-width="0.0" fill="rgb(127, 133, 140)" opacity="1.0"/>
    <path d="M 53.422489166259766 49.33032989501953 C 50.81983184814453 59.45427703857422 43.44255828857422 66.7845687866211 32.70922088623047 69.62515258789062 C 22.43194580078125 66.9358901977539 15.069891929626465 59.56513214111328 12.250407218933105 49.239112854003906 C 15.148141860961914 38.55958938598633 22.62786102294922 31.357284545898438 32.99687194824219 28.623943328857422 C 43.07572937011719 31.52015495300293 50.318870544433594 38.973670959472656 53.422489166259766 49.33032989501953" stroke-width="0.0" fill="rgb(198, 201, 209)" opacity="1.0"/>
    <path d="M 386.8805236816406 352.50836181640625 C 384.0697021484375 363.7057800292969 376.693115234375 371.0358581542969 366.37451171875 373.7832946777344 C 355.8096923828125 370.7388000488281 348.98809814453125 362.90814208984375 345.2643737792969 352.2320556640625 C 347.8079833984375 342.13720703125 355.12469482421875 334.77655029296875 365.4733581542969 332.0531921386719 C 376.81365966796875 334.8190612792969 384.13690185546875 342.2054748535156 386.8805236816406 352.50836181640625" stroke-width="0.0" fill="rgb(119, 124, 129)" opacity="1.0"/>
    <path d="M 410.8258361816406 143.38482666015625 C 408.0748291015625 153.71652221679688 400.7124328613281 161.06362915039062 390.08935546875 163.81912231445312 C 379.3222961425781 161.0426025390625 371.95745849609375 153.67747497558594 369.1875305175781 143.3715362548828 C 372.16058349609375 132.63800048828125 379.76629638671875 125.53231811523438 390.0051574707031 122.96458435058594 C 400.250732421875 125.52044677734375 407.8768615722656 132.60890197753906 410.8258361816406 143.38482666015625" stroke-width="0.0" fill="rgb(145, 151, 159)" opacity="1.0"/>
    <path d="M 287.0307312011719 558.9677124023438 C 284.3270263671875 569.00048828125 276.99652099609375 576.3137817382812 266.9985046386719 578.98876953125 C 256.9749755859375 576.324951171875 249.4819793701172 569.085693359375 246.2613983154297 558.697509765625 C 249.3094482421875 548.8203735351562 256.9408264160156 541.651611328125 267.598388671875 538.220703125 C 277.4505920410156 541.0498046875 284.49420166015625 548.7180786132812 287.0307312011719 558.9677124023438" stroke-width="0.0" fill="rgb(135, 141, 147)" opacity="1.0"/>
    <path d="M 363.8859558105469 553.0152587890625 C 361.1225280761719 563.763427734375 353.7573547363281 571.1068725585938 342.611572265625 573.8889770507812 C 332.2092590332031 571.1420288085938 324.8578186035156 563.791015625 322.19219970703125 553.7052001953125 C 325.687744140625 542.9898071289062 332.923095703125 535.47705078125 343.6917419433594 532.1488647460938 C 353.80029296875 534.849609375 361.1434020996094 542.2022705078125 363.8859558105469 553.0152587890625" stroke-width="0.0" fill="rgb(118, 122, 130)" opacity="0.9901209"/>
    <path d="M 450.9052429199219 553.7025756835938 C 448.13641357421875 564.7935791015625 440.8018798828125 572.1569213867188 430.58587646484375 574.8927001953125 C 419.5757751464844 571.9312744140625 412.5146484375 564.2562255859375 409.7781677246094 553.7968139648438 C 412.1490478515625 543.3958740234375 419.304443359375 535.8900756835938 430.142333984375 533.0834350585938 C 440.7917175292969 535.8538818359375 448.146728515625 543.2080688476562 450.9052429199219 553.7025756835938" stroke-width="0.0" fill="rgb(119, 120, 129)" opacity="1.0"/>
    <path d="M 273.85589599609375 439.76409912109375 C 271.173828125 449.81011962890625 263.7920227050781 457.1299743652344 252.51991271972656 459.9023742675781 C 242.17352294921875 457.17938232421875 234.86410522460938 449.8106384277344 232.38453674316406 439.6925354003906 C 236.17881774902344 429.4472961425781 243.4483184814453 422.18194580078125 253.1096954345703 419.695556640625 C 262.781982421875 422.0509948730469 270.4875793457031 429.0467224121094 273.85589599609375 439.76409912109375" stroke-width="0.0" fill="rgb(202, 157, 113)" opacity="1.0"/>
    <path d="M 452.79974365234375 200.10299682617188 C 449.8958435058594 210.43231201171875 442.31048583984375 217.5416259765625 432.05718994140625 220.0474090576172 C 421.9950866699219 217.3260955810547 414.67291259765625 210.0052032470703 411.5401306152344 199.57107543945312 C 413.9903564453125 189.29295349121094 421.2474365234375 181.86495971679688 431.3939514160156 179.10894775390625 C 442.5127868652344 182.04359436035156 449.81951904296875 189.54672241210938 452.79974365234375 200.10299682617188" stroke-width="0.0" fill="rgb(134, 140, 147)" opacity="0.9940801"/>
    <path d="M 151.8144073486328 564.8258666992188 C 148.99960327148438 575.63818359375 141.6469268798828 583.0223388671875 131.4092254638672 585.7874755859375 C 120.71155548095703 582.7620849609375 113.54510498046875 575.1812133789062 110.34297180175781 564.4891967773438 C 112.96892547607422 554.3125610351562 120.29505157470703 546.9219360351562 130.6897735595703 544.1473999023438 C 141.69534301757812 546.9415283203125 149.0337677001953 554.3143310546875 151.8144073486328 564.8258666992188" stroke-width="0.0" fill="rgb(160, 165, 171)" opacity="1.0"/>
    <path d="M 486.5189208984375 432.5090026855469 C 483.3701171875 443.1041564941406 476.2192077636719 450.7061462402344 465.355712890625 453.8636169433594 C 455.279541015625 451.10675048828125 447.97137451171875 443.68927001953125 445.3030090332031 433.53936767578125 C 448.6623229980469 422.99493408203125 455.99920654296875 415.6778869628906 466.6842956542969 412.22509765625 C 476.7755432128906 414.861328125 484.0584411621094 422.2523193359375 486.5189208984375 432.5090026855469" stroke-width="0.0" fill="rgb(127, 132, 140)" opacity="0.9903238"/>
    <path d="M 67.5833511352539 8.211360931396484 C 64.61683654785156 18.14570426940918 57.05502700805664 25.343578338623047 47.00376510620117 28.00494956970215 C 37.01761245727539 25.305936813354492 29.699840545654297 17.980876922607422 27.02762222290039 7.995451927185059 C 29.68483543395996 -1.997397780418396 37.00125503540039 -9.319846153259277 47.00869369506836 -12.00468635559082 C 57.08069610595703 -9.36575698852539 64.55570220947266 -2.1406326293945312 67.5833511352539 8.211360931396484" stroke-width="0.0" fill="rgb(187, 191, 199)" opacity="1.0"/>
    <path d="M 384.84136962890625 493.4700012207031 C 381.8775329589844 504.3850402832031 374.2360534667969 511.4587707519531 363.8039855957031 514.1890869140625 C 353.4155578613281 511.8299560546875 345.9259033203125 504.66650390625 343.1130065917969 493.5622253417969 C 345.8670349121094 483.2279052734375 353.2391052246094 475.8963623046875 364.3852233886719 473.12603759765625 C 374.7980651855469 475.8543701171875 382.13848876953125 483.20452880859375 384.84136962890625 493.4700012207031" stroke-width="0.0" fill="rgb(130, 137, 144)" opacity="1.0"/>
    <path d="M 588.8956909179688 260.6114807128906 C 586.1023559570312 271.74951171875 578.74609375 279.0934143066406 568.4241943359375 281.8324890136719 C 557.677734375 278.83465576171875 550.5949096679688 271.1661376953125 547.99365234375 261.01336669921875 C 550.6795043945312 251.0 558.0 243.6794891357422 568.181396484375 240.8542938232422 C 578.5557861328125 243.21060180664062 586.0896606445312 250.33786010742188 588.8956909179688 260.6114807128906" stroke-width="0.0" fill="rgb(116, 122, 128)" opacity="0.99021924"/>
    <path d="M 35.28306198120117 156.8013916015625 C 32.31260299682617 167.0115509033203 25.045597076416016 174.42852783203125 14.829374313354492 177.51100158691406 C 4.607285022735596 174.73257446289062 -2.705263614654541 167.3846435546875 -5.181460380554199 157.17526245117188 C -2.3205080032348633 147.0 5.0 139.6794891357422 15.262670516967773 136.63955688476562 C 25.391328811645508 139.24598693847656 32.713233947753906 146.6211395263672 35.28306198120117 156.8013916015625" stroke-width="0.0" fill="rgb(214, 216, 222)" opacity="0.9949759"/>
    <path d="M 36.05721664428711 362.63165283203125 C 33.97639465332031 372.5302734375 26.440397262573242 379.7426452636719 16.04539680480957 382.5558166503906 C 5.7086873054504395 379.6672668457031 -1.568134069442749 372.2613525390625 -4.202151298522949 361.9647521972656 C -1.5941402912139893 351.75048828125 5.761625289916992 344.43804931640625 15.911927223205566 341.4650573730469 C 26.146032333374023 344.51409912109375 33.25566101074219 351.9113464355469 36.05721664428711 362.63165283203125" stroke-width="0.0" fill="rgb(237, 229, 225)" opacity="0.99765867"/>
    <path d="M 617.00048828125 122.99942016601562 C 614.3245849609375 133.01121520996094 607.0442504882812 140.4353790283203 596.2120971679688 143.8911590576172 C 586.164306640625 141.1892547607422 578.8287353515625 133.8282012939453 576.0956420898438 123.49077606201172 C 578.8919677734375 112.25464630126953 586.263671875 104.91519165039062 596.4970092773438 102.17961883544922 C 607.1205444335938 105.39859771728516 614.3317260742188 112.96919250488281 617.00048828125 122.99942016601562" stroke-width="0.0" fill="rgb(117, 124, 131)" opacity="1.0"/>
    <path d="M 582.0105590820312 252.00390625 C 579.3240966796875 262.00201416015625 572.001220703125 269.3212890625 562.0001831054688 272.0001220703125 C 552.0 269.32049560546875 544.6795043945312 262.0 541.8951416015625 251.95614624023438 C 544.642822265625 241.99783325195312 552.0160522460938 234.7055206298828 562.0013427734375 232.04737854003906 C 571.982421875 234.70196533203125 579.3098754882812 242.01416015625 582.0105590820312 252.00390625" stroke-width="0.0" fill="rgb(117, 123, 130)" opacity="0.9942318"/>
    <path d="M 330.68011474609375 9.44837760925293 C 327.2940368652344 19.98094367980957 319.9843444824219 27.305875778198242 309.3848571777344 30.690458297729492 C 299.2339172363281 28.111326217651367 291.9070129394531 20.759662628173828 289.2292785644531 10.399012565612793 C 292.1961364746094 -0.33127322793006897 299.78680419921875 -7.4583539962768555 310.0605163574219 -10.075934410095215 C 320.4276428222656 -7.634603023529053 327.9964904785156 -0.550590455532074 330.68011474609375 9.44837760925293" stroke-width="0.0" fill="rgb(151, 158, 165)" opacity="1.0"/>
    <path d="M 43.07823944091797 426.9347229003906 C 40.42048645019531 437.15386962890625 33.23472595214844 444.6708068847656 22.87167739868164 447.6131896972656 C 12.497495651245117 444.8516540527344 5.133148670196533 437.50787353515625 2.2808430194854736 426.7427978515625 C 5.090827465057373 416.4920959472656 12.543441772460938 409.24493408203125 23.232336044311523 406.3531188964844 C 33.34467315673828 409.2381591796875 40.56435012817383 416.71856689453125 43.07823944091797 426.9347229003906" stroke-width="0.0" fill="rgb(194, 197, 203)" opacity="0.9903704"/>
    <path d="M 410.3126525878906 270.3290100097656 C 407.92547607421875 280.6293640136719 400.67010498046875 288.04833984375 389.83758544921875 290.8574523925781 C 379.5529479980469 287.96038818359375 372.7226867675781 280.2219543457031 370.51837158203125 269.90740966796875 C 372.7671813964844 260.0363464355469 380.0102233886719 252.67919921875 389.9951171875 249.998779296875 C 399.9957275390625 252.68441772460938 407.3128967285156 260.0050048828125 410.3126525878906 270.3290100097656" stroke-width="0.0" fill="rgb(137, 143, 149)" opacity="0.9906024"/>
    <path d="M 275.63818359375 101.52106475830078 C 273.0131530761719 111.65662384033203 265.65948486328125 119.02123260498047 255.25579833984375 121.81153869628906 C 244.66676330566406 118.83218383789062 237.56031799316406 111.19229888916016 234.957275390625 101.03340148925781 C 237.68235778808594 91.00414276123047 245.00662231445312 83.69097900390625 255.0001983642578 81.04216766357422 C 264.991455078125 83.69222259521484 272.3134765625 91.00688934326172 275.63818359375 101.52106475830078" stroke-width="0.0" fill="rgb(168, 172, 177)" opacity="0.9950657"/>
    <path d="M 314.4244079589844 549.248779296875 C 311.6121826171875 559.1437377929688 304.038330078125 566.2882080078125 293.9343566894531 568.919677734375 C 283.9645080566406 566.3736572265625 276.6552429199219 559.0267944335938 273.4486389160156 548.5294189453125 C 275.9868469238281 538.327392578125 283.3223876953125 530.9720458984375 293.4952392578125 528.4083862304688 C 304.0023498535156 531.6778564453125 311.3258361816406 538.9964599609375 314.4244079589844 549.248779296875" stroke-width="0.0" fill="rgb(128, 134, 142)" opacity="1.0"/>
    <path d="M 577.0081176757812 260.0189208984375 C 574.3444213867188 270.04095458984375 567.1315307617188 277.6137390136719 556.3505249023438 280.8718566894531 C 546.281982421875 278.1028137207031 538.9656982421875 270.6904602050781 536.2332763671875 260.39996337890625 C 539.13232421875 249.5310516357422 546.5924682617188 242.32435607910156 556.8589477539062 239.85208129882812 C 566.9771118164062 242.69696044921875 574.2876586914062 250.0275421142578 577.0081176757812 260.0189208984375" stroke-width="0.0" fill="rgb(126, 133, 140)" opacity="0.99103856"/>
    <path d="M 420.6490173339844 547.3980712890625 C 417.33575439453125 558.0210571289062 410.03076171875 565.3685913085938 399.5433349609375 568.4949340820312 C 389.25140380859375 566.04931640625 381.85540771484375 558.7808837890625 379.1201171875 548.1122436523438 C 381.8583068847656 537.2033081054688 389.20111083984375 529.8521728515625 400.2247619628906 527.0957641601562 C 410.8179626464844 529.8297729492188 418.1246032714844 537.1981811523438 420.6490173339844 547.3980712890625" stroke-width="0.0" fill="rgb(120, 125, 131)" opacity="1.0"/>
    <path d="M 408.01446533203125 401.86480712890625 C 405.2960205078125 411.9876708984375 397.99517822265625 419.32177734375 387.4405212402344 422.7058410644531 C 377.41326904296875 420.0021057128906 370.24981689453125 412.5031433105469 367.8448486328125 402.14007568359375 C 370.5360412597656 391.7803955078125 377.6629333496094 384.1919250488281 388.54034423828125 381.15325927734375 C 398.6034240722656 383.9572448730469 405.7062072753906 391.5130310058594 408.01446533203125 401.86480712890625" stroke-width="0.0" fill="rgb(148, 153, 161)" opacity="1.0"/>
    <path d="M 23.617446899414062 129.74822998046875 C 20.54434585571289 140.1347198486328 13.079292297363281 147.36767578125 3.0100467205047607 150.0062255859375 C -6.9999775886535645 147.32044982910156 -14.32050609588623 140.0 -16.99996566772461 130.00009155273438 C -14.319361686706543 120.00318145751953 -6.987556457519531 112.71319580078125 3.2916157245635986 109.61430358886719 C 13.381230354309082 112.25386047363281 20.770397186279297 119.61190795898438 23.617446899414062 129.74822998046875" stroke-width="0.0" fill="rgb(212, 214, 220)" opacity="1.0"/>
  </g>
</svg>
