<?xml version="1.0" ?>
<svg xmlns="http://www.w3.org/2000/svg" version="1.1" width="600" height="600">
  <defs/>
  <g>
    <path d="M 81.88865661621094 292.5702209472656 C 79.1949691772461 302.85443115234375 71.86031341552734 310.209228515625 60.63140106201172 312.95184326171875 C 50.117591857910156 310.2238464355469 42.778045654296875 302.8816223144531 40.097694396972656 292.83209228515625 C 43.58856964111328 281.81121826171875 50.59880447387695 274.05712890625 61.78727722167969 271.0576477050781 C 71.86312103271484 273.7830810546875 79.1667251586914 281.15594482421875 81.88865661621094 292.5702209472656" stroke-width="0.0" fill="rgb(47, 56, 71)" opacity="1.0"/>
    <path d="M 335.1919250488281 0.07395277917385101 C 332.3646240234375 10.01205062866211 324.9744567871094 17.2347469329834 314.8792419433594 19.344331741333008 C 304.4477844238281 17.691564559936523 296.88189697265625 10.687829971313477 294.1341857910156 0.7458840608596802 C 297.67950439453125 -10.0 305.0 -17.32050895690918 315.0 -20.0 C 325.0 -17.32050895690918 332.32049560546875 -10.0 335.1919250488281 0.07395277917385101" stroke-width="0.0" fill="rgb(91, 103, 126)" opacity="0.9900629"/>
    <path d="M 384.9454650878906 291.75579833984375 C 382.2253723144531 301.8861999511719 374.8858947753906 309.22442626953125 364.66070556640625 311.9315490722656 C 353.14581298828125 309.18817138671875 345.796142578125 301.8600158691406 343.06549072265625 291.6427917480469 C 346.0366516113281 280.58319091796875 353.80938720703125 273.5895690917969 363.9980163574219 270.9905700683594 C 374.1822814941406 273.5970764160156 381.974609375 280.5784912109375 384.9454650878906 291.75579833984375" stroke-width="0.0" fill="rgb(57, 68, 82)" opacity="1.0"/>
    <path d="M 543.5611572265625 524.3569946289062 C 540.83544921875 534.4887084960938 533.5106201171875 541.8983764648438 523.3972778320312 544.6047973632812 C 512.4874267578125 541.6954345703125 504.9539794921875 534.622802734375 502.18072509765625 523.3659057617188 C 504.9093017578125 513.3132934570312 512.3868408203125 506.1222839355469 522.7373046875 503.76068115234375 C 533.0 506.67950439453125 540.3228149414062 513.9993286132812 543.5611572265625 524.3569946289062" stroke-width="0.0" fill="rgb(245, 240, 227)" opacity="1.0"/>
    <path d="M 356.71917724609375 553.6921997070312 C 354.1849060058594 563.8668212890625 346.8805236816406 571.223876953125 336.4053039550781 573.9420166015625 C 325.1965026855469 571.1901245117188 318.0343017578125 563.7274780273438 315.7662048339844 553.3091430664062 C 318.73516845703125 543.1038208007812 326.2025451660156 536.0300903320312 336.2499084472656 533.6466064453125 C 345.881591796875 535.9033813476562 353.2916259765625 543.0567016601562 356.71917724609375 553.6921997070312" stroke-width="0.0" fill="rgb(151, 147, 140)" opacity="1.0"/>
    <path d="M 160.0 227.0 C 157.3205108642578 237.0 150.0 244.3205108642578 139.88304138183594 247.0705108642578 C 129.42408752441406 244.7410125732422 121.82373809814453 237.74038696289062 119.047607421875 227.71560668945312 C 121.91288757324219 216.38194274902344 129.55499267578125 209.37225341796875 139.92198181152344 206.9521484375 C 150.0 209.6794891357422 157.3205108642578 217.0 160.0 227.0" stroke-width="0.0" fill="rgb(31, 29, 37)" opacity="1.0"/>
    <path d="M 268.493408203125 329.3473815917969 C 265.7945556640625 339.3950500488281 258.3469543457031 346.64666748046875 248.1403350830078 349.155029296875 C 238.0 346.32049560546875 230.6794891357422 339.0 228.00270080566406 329.0036926269531 C 230.6934051513672 319.017822265625 238.02078247070312 311.7029113769531 248.03158569335938 308.9819030761719 C 258.0836181640625 311.6027526855469 265.3633728027344 318.9245910644531 268.493408203125 329.3473815917969" stroke-width="0.0" fill="rgb(247, 244, 217)" opacity="0.9910724"/>
    <path d="M 475.1024475097656 367.8365173339844 C 474.1481018066406 377.8427734375 466.8731994628906 385.23046875 455.531982421875 387.96441650390625 C 445.0835266113281 385.2502136230469 437.7452697753906 377.91845703125 435.06292724609375 367.88818359375 C 438.8501281738281 357.29388427734375 446.486328125 350.35272216796875 455.39935302734375 347.9308776855469 C 465.1620178222656 350.5436706542969 472.4517822265625 357.83978271484375 475.1024475097656 367.8365173339844" stroke-width="0.0" fill="rgb(132, 80, 49)" opacity="0.99001974"/>
    <path d="M 404.7254943847656 399.7284240722656 C 402.189697265625 409.859619140625 394.8719482421875 417.2208251953125 384.5991516113281 419.94232177734375 C 373.1130065917969 417.2135009765625 365.7527160644531 409.9010314941406 363.0655822753906 399.88128662109375 C 366.67950439453125 389.0 374.0 381.67950439453125 384.00946044921875 378.99542236328125 C 394.1127014160156 381.62164306640625 401.6551513671875 388.7962646484375 404.7254943847656 399.7284240722656" stroke-width="0.0" fill="rgb(6, 6, 6)" opacity="0.9900636"/>
    <path d="M 45.94052505493164 247.2134246826172 C 42.95087432861328 258.41082763671875 35.196990966796875 265.4164733886719 24.567054748535156 268.5564880371094 C 14.514873504638672 265.9208984375 7.400947093963623 258.3794860839844 4.457360744476318 247.47372436523438 C 6.880109786987305 237.1735382080078 14.137149810791016 229.77708435058594 25.635740280151367 227.0374755859375 C 35.90369415283203 229.7532501220703 43.230140686035156 237.103515625 45.94052505493164 247.2134246826172" stroke-width="0.0" fill="rgb(49, 59, 71)" opacity="1.0"/>
    <path d="M 377.76251220703125 207.2822723388672 C 374.32049560546875 218.0 367.0 225.3205108642578 356.2039794921875 228.89198303222656 C 346.2452392578125 226.1670379638672 339.15472412109375 218.64218139648438 336.84722900390625 208.15878295898438 C 339.45635986328125 197.63992309570312 346.4561462402344 189.96726989746094 357.65679931640625 187.0782928466797 C 367.86456298828125 189.7941436767578 375.188232421875 197.14163208007812 377.76251220703125 207.2822723388672" stroke-width="0.0" fill="rgb(74, 80, 101)" opacity="1.0"/>
    <path d="M 420.52203369140625 526.5113525390625 C 418.0917053222656 536.8033447265625 410.8522644042969 544.2222900390625 400.5849304199219 546.9591064453125 C 389.310302734375 544.1503295898438 382.3553161621094 536.4915161132812 379.9605407714844 526.072998046875 C 382.67950439453125 516.0 390.0 508.67950439453125 400.0 506.0 C 410.0 508.67950439453125 417.32049560546875 516.0 420.52203369140625 526.5113525390625" stroke-width="0.0" fill="rgb(90, 0, 1)" opacity="1.0"/>
    <path d="M 338.6990966796875 176.4829864501953 C 335.80706787109375 186.28460693359375 328.12823486328125 193.3806915283203 318.00836181640625 196.0037384033203 C 308.0 193.3205108642578 300.67950439453125 186.0 298.24334716796875 176.20584106445312 C 301.0593566894531 166.3021240234375 308.2391357421875 158.8580780029297 318.0494384765625 156.03497314453125 C 328.0 158.6794891357422 335.32049560546875 166.0 338.6990966796875 176.4829864501953" stroke-width="0.0" fill="rgb(77, 119, 39)" opacity="0.99014753"/>
    <path d="M 180.14993286132812 234.82176208496094 C 177.35247802734375 245.0833740234375 170.26878356933594 252.82705688476562 159.6960906982422 255.90670776367188 C 149.62612915039062 252.93038940429688 142.61289978027344 245.1515655517578 139.99671936035156 235.0078582763672 C 142.6794891357422 225.0 150.0 217.6794891357422 160.40744018554688 214.5276641845703 C 170.5607147216797 217.05821228027344 177.76791381835938 224.49327087402344 180.14993286132812 234.82176208496094" stroke-width="0.0" fill="rgb(56, 66, 81)" opacity="1.0"/>
    <path d="M 309.9851379394531 520.0191650390625 C 307.32049560546875 530.0 300.0 537.3204956054688 290.0000305175781 540.0 C 279.99993896484375 537.3204345703125 272.65911865234375 530.005615234375 269.7955627441406 520.1199340820312 C 272.69061279296875 509.90472412109375 279.8540344238281 502.511962890625 290.2118835449219 499.58221435546875 C 299.9734191894531 502.5863952636719 307.25701904296875 510.0683898925781 309.9851379394531 520.0191650390625" stroke-width="0.0" fill="rgb(241, 240, 227)" opacity="0.9910089"/>
    <path d="M 315.4883728027344 56.653011322021484 C 312.32049560546875 67.0 305.0 74.32051086425781 295.0 77.0 C 284.9998474121094 74.32056427001953 277.6767272949219 67.00091552734375 274.98876953125 57.00398635864258 C 277.67950439453125 47.0 285.0 39.67949295043945 295.22442626953125 36.73009490966797 C 305.410400390625 39.2531852722168 312.8188781738281 46.56549835205078 315.4883728027344 56.653011322021484" stroke-width="0.0" fill="rgb(236, 215, 175)" opacity="0.99250835"/>
    <path d="M 375.9512023925781 328.1933288574219 C 373.2208251953125 338.88116455078125 365.8830261230469 346.22503662109375 355.07623291015625 348.9542541503906 C 344.1117858886719 346.22821044921875 336.7743835449219 338.8871765136719 334.0559387207031 328.49761962890625 C 336.78692626953125 317.1249084472656 344.1221923828125 309.7801208496094 354.3016052246094 307.06402587890625 C 365.84600830078125 309.8245544433594 373.2116394042969 317.1397705078125 375.9512023925781 328.1933288574219" stroke-width="0.0" fill="rgb(52, 64, 80)" opacity="1.0"/>
    <path d="M 289.7968444824219 129.72264099121094 C 287.1736755371094 139.83326721191406 279.8263244628906 147.15333557128906 269.5872497558594 149.72950744628906 C 258.312255859375 146.94619750976562 250.84085083007812 139.76321411132812 248.1042022705078 129.76864624023438 C 251.42999267578125 118.87264251708984 258.9443664550781 111.65308380126953 268.99639892578125 108.99769592285156 C 278.9974365234375 111.67964172363281 286.3042297363281 119.00730895996094 289.7968444824219 129.72264099121094" stroke-width="0.0" fill="rgb(176, 177, 124)" opacity="1.0"/>
    <path d="M 388.6628112792969 261.7223205566406 C 386.18768310546875 271.8299865722656 378.7933654785156 279.0721130371094 368.4532470703125 281.40435791015625 C 358.0 278.32049560546875 350.67950439453125 271.0 347.57330322265625 260.5555114746094 C 349.949462890625 250.2344970703125 357.1897888183594 242.8194122314453 368.58966064453125 240.05938720703125 C 378.857421875 242.78501892089844 386.08966064453125 250.1810760498047 388.6628112792969 261.7223205566406" stroke-width="0.0" fill="rgb(62, 69, 83)" opacity="1.0"/>
    <path d="M 157.7841796875 248.7246856689453 C 155.1808624267578 258.83392333984375 147.81455993652344 266.12200927734375 137.56643676757812 268.5705261230469 C 127.0 265.32049560546875 119.67948913574219 258.0 116.09321594238281 247.17543029785156 C 118.80609130859375 237.2006378173828 126.29228973388672 230.0761260986328 136.76866149902344 227.9013671875 C 147.002197265625 230.67726135253906 154.32284545898438 237.99777221679688 157.7841796875 248.7246856689453" stroke-width="0.0" fill="rgb(54, 65, 79)" opacity="1.0"/>
    <path d="M 487.9525451660156 474.25787353515625 C 485.21429443359375 484.8752136230469 477.88055419921875 492.2264709472656 466.6053161621094 494.95953369140625 C 456.1062927246094 492.2335205078125 448.7629699707031 484.8952941894531 446.04345703125 474.60528564453125 C 448.7862548828125 463.1446533203125 456.1749267578125 455.870849609375 466.5000915527344 453.3754577636719 C 477.673095703125 456.0914611816406 485.176025390625 463.2295837402344 487.9525451660156 474.25787353515625" stroke-width="0.0" fill="rgb(200, 51, 27)" opacity="0.99013376"/>
    <path d="M 134.94386291503906 562.7448120117188 C 132.23851013183594 572.9027099609375 124.90532684326172 580.2445678710938 114.84600067138672 582.9427490234375 C 103.79671478271484 579.7442016601562 96.65979766845703 572.0538330078125 94.01148986816406 562.0250854492188 C 96.81331634521484 552.2432250976562 104.43733215332031 545.3165283203125 113.8599853515625 542.9127807617188 C 123.85839080810547 545.3294067382812 132.0804901123047 551.4376831054688 134.94386291503906 562.7448120117188" stroke-width="0.0" fill="rgb(147, 110, 73)" opacity="1.0"/>
    <path d="M 63.86852264404297 22.873767852783203 C 61.06574249267578 33.54743957519531 52.95188522338867 39.741485595703125 42.37580871582031 42.234310150146484 C 32.44696044921875 40.92384338378906 25.255891799926758 33.49876403808594 22.88142967224121 23.15659523010254 C 25.67949104309082 13.0 33.0 5.679491996765137 43.10983657836914 2.9282736778259277 C 53.50509262084961 5.303924083709717 61.08106994628906 12.360642433166504 63.86852264404297 22.873767852783203" stroke-width="0.0" fill="rgb(215, 139, 101)" opacity="1.0"/>
    <path d="M 207.15626525878906 353.3324890136719 C 204.80027770996094 363.6400146484375 197.7672882080078 371.1661071777344 187.96084594726562 373.9786071777344 C 177.9535369873047 371.3405456542969 170.4146270751953 364.12646484375 168.32672119140625 353.96783447265625 C 170.13214111328125 343.4495849609375 177.40097045898438 335.99591064453125 187.55638122558594 333.8300476074219 C 198.6465606689453 336.007080078125 206.00198364257812 343.3506774902344 207.15626525878906 353.3324890136719" stroke-width="0.0" fill="rgb(237, 236, 233)" opacity="1.0"/>
    <path d="M 285.6813659667969 553.3093872070312 C 284.07855224609375 563.8279418945312 276.88232421875 571.2457885742188 266.6536560058594 573.9688720703125 C 255.14329528808594 571.2262573242188 247.94126892089844 563.7998657226562 245.39195251464844 552.7180786132812 C 247.8997039794922 542.202392578125 255.18968200683594 534.8583374023438 265.4721374511719 533.1173706054688 C 276.0 535.6795043945312 283.32049560546875 543.0 285.6813659667969 553.3093872070312" stroke-width="0.0" fill="rgb(7, 5, 11)" opacity="0.99001974"/>
    <path d="M 279.0101013183594 239.02210998535156 C 276.46600341796875 249.2805633544922 269.5173034667969 257.0409240722656 258.3106384277344 259.9404602050781 C 248.1095733642578 257.2250671386719 240.7589111328125 249.8973846435547 238.03384399414062 238.9406280517578 C 240.77085876464844 228.15036010742188 248.22821044921875 220.99758911132812 258.6768798828125 218.75648498535156 C 269.0 221.6794891357422 276.32049560546875 229.0 279.0101013183594 239.02210998535156" stroke-width="0.0" fill="rgb(12, 18, 7)" opacity="0.99017704"/>
    <path d="M 334.040283203125 75.07284545898438 C 331.63525390625 85.47257995605469 324.65911865234375 93.12345123291016 313.51788330078125 95.94671630859375 C 303.12713623046875 93.21436309814453 295.7980651855469 85.86835479736328 293.2234191894531 75.77976989746094 C 297.18328857421875 65.46074676513672 304.4769592285156 58.23122024536133 314.4664611816406 55.75467300415039 C 324.0184631347656 57.65187072753906 331.3242492675781 64.9891128540039 334.040283203125 75.07284545898438" stroke-width="0.0" fill="rgb(170, 111, 43)" opacity="0.9902814"/>
    <path d="M 384.9383544921875 280.2860107421875 C 381.9135437011719 291.36859130859375 374.1644287109375 298.3985595703125 363.9994812011719 301.01251220703125 C 353.8199768066406 298.4051818847656 346.0450439453125 291.4053649902344 343.095703125 281.5503845214844 C 346.3505859375 270.8589172363281 353.96807861328125 263.66546630859375 364.0772399902344 260.9450378417969 C 374.5052185058594 263.3380126953125 382.1461181640625 270.3095703125 384.9383544921875 280.2860107421875" stroke-width="0.0" fill="rgb(56, 67, 79)" opacity="1.0"/>
    <path d="M 21.534799575805664 253.48538208007812 C 19.10587501525879 263.8116455078125 11.847824096679688 271.2093811035156 1.8282490968704224 273.9028015136719 C -8.999007225036621 270.3171081542969 -16.320486068725586 262.9999084472656 -19.000001907348633 253.0 C -16.320724487304688 242.999267578125 -9.009462356567383 235.6477508544922 1.8030169010162354 232.08949279785156 C 11.739797592163086 234.83424377441406 18.781686782836914 242.3983154296875 21.534799575805664 253.48538208007812" stroke-width="0.0" fill="rgb(48, 52, 65)" opacity="1.0"/>
    <path d="M 354.5372619628906 201.57723999023438 C 352.014892578125 211.7893829345703 344.8499755859375 219.20652770996094 334.9659423828125 221.9739990234375 C 324.9403076171875 219.34214782714844 317.2174072265625 212.22796630859375 314.1943359375 202.59445190429688 C 317.8058166503906 192.13389587402344 325.1539306640625 184.87266540527344 335.7720642089844 181.13926696777344 C 345.7784118652344 183.84103393554688 352.98553466796875 191.27903747558594 354.5372619628906 201.57723999023438" stroke-width="0.0" fill="rgb(59, 105, 16)" opacity="0.99004"/>
    <path d="M 23.971269607543945 565.8677978515625 C 21.24881362915039 576.9074096679688 13.905436515808105 584.2445068359375 3.850083589553833 586.9552612304688 C -7.282227993011475 583.8502197265625 -14.351435661315918 576.0821533203125 -17.00138282775879 566.0013427734375 C -14.334502220153809 555.9624633789062 -7.126454830169678 548.3977661132812 3.673248529434204 545.2249145507812 C 13.866535186767578 547.8233642578125 21.24875259399414 555.10498046875 23.971269607543945 565.8677978515625" stroke-width="0.0" fill="rgb(14, 16, 18)" opacity="0.9904224"/>
    <path d="M 297.78131103515625 78.71339416503906 C 295.1800842285156 88.85360717773438 287.871337890625 96.22420501708984 277.79901123046875 98.92863464355469 C 266.15155029296875 96.16004180908203 258.7796630859375 88.86982727050781 256.0538635253906 78.56969451904297 C 258.8240966796875 67.18214416503906 266.1986389160156 59.8695182800293 276.3360290527344 57.98597717285156 C 286.67578125 61.121124267578125 294.2364807128906 68.21600341796875 297.78131103515625 78.71339416503906" stroke-width="0.0" fill="rgb(168, 147, 113)" opacity="1.0"/>
    <path d="M 424.49261474609375 317.66302490234375 C 423.07122802734375 327.76904296875 415.8185119628906 335.1971435546875 405.2423400878906 337.947021484375 C 394.1241149902344 335.2149963378906 386.7810363769531 327.8775634765625 384.052734375 316.7271728515625 C 386.7780456542969 306.1214599609375 394.13153076171875 298.8057556152344 404.22528076171875 296.4578552246094 C 414.4916687011719 300.2486267089844 421.7021179199219 307.5289611816406 424.49261474609375 317.66302490234375" stroke-width="0.0" fill="rgb(151, 132, 120)" opacity="1.0"/>
    <path d="M 217.8589324951172 159.33009338378906 C 214.4306182861328 170.00527954101562 206.97132873535156 177.30831909179688 196.26394653320312 180.78074645996094 C 186.27317810058594 178.11729431152344 179.06739807128906 170.6649169921875 177.48165893554688 160.46194458007812 C 180.05191040039062 150.27210998535156 187.28956604003906 143.09432983398438 197.41567993164062 140.31275939941406 C 207.57098388671875 142.1766357421875 215.10804748535156 149.32168579101562 217.8589324951172 159.33009338378906" stroke-width="0.0" fill="rgb(223, 195, 169)" opacity="1.0"/>
    <path d="M 397.6339416503906 534.5687255859375 C 395.0777893066406 544.7064208984375 387.65753173828125 551.9203491210938 377.2873840332031 554.2416381835938 C 367.0 551.3204956054688 359.67950439453125 544.0 356.603759765625 533.59375 C 358.9944763183594 523.2962036132812 366.2760009765625 515.9296875 376.46624755859375 513.4237670898438 C 387.0 516.6795043945312 394.32049560546875 524.0 397.6339416503906 534.5687255859375" stroke-width="0.0" fill="rgb(34, 40, 48)" opacity="0.9949636"/>
    <path d="M 350.7979736328125 161.7124481201172 C 348.15826416015625 171.80210876464844 340.7810974121094 179.09808349609375 330.5262451171875 181.6175079345703 C 320.05047607421875 178.403076171875 312.9532470703125 170.8410186767578 310.34063720703125 160.79624938964844 C 312.67950439453125 151.0 320.0 143.6794891357422 330.0 141.0 C 340.0 143.6794891357422 347.32049560546875 151.0 350.7979736328125 161.7124481201172" stroke-width="0.0" fill="rgb(55, 99, 25)" opacity="0.99010015"/>
    <path d="M 240.81729125976562 317.9176330566406 C 238.28842163085938 327.9862365722656 230.99481201171875 335.31817626953125 220.9996795654297 337.9998474121094 C 211.0 335.32049560546875 203.6794891357422 328.0 201.0 318.0 C 203.6794891357422 308.0 211.0 300.67950439453125 221.37860107421875 297.48638916015625 C 231.42726135253906 300.1505126953125 238.5879364013672 307.6558837890625 240.81729125976562 317.9176330566406" stroke-width="0.0" fill="rgb(213, 217, 196)" opacity="0.9906095"/>
    <path d="M 304.99993896484375 533.999755859375 C 302.3166809082031 543.9888916015625 294.9548034667969 551.20263671875 284.3703308105469 554.650634765625 C 274.1885986328125 552.1033935546875 266.7804870605469 544.853759765625 264.0755920410156 534.8392333984375 C 267.3489990234375 523.7789306640625 274.84912109375 516.5677490234375 284.9696044921875 513.94921875 C 295.0010070800781 516.6767578125 302.3205871582031 523.999755859375 304.99993896484375 533.999755859375" stroke-width="0.0" fill="rgb(242, 245, 232)" opacity="0.99013627"/>
    <path d="M 384.56689453125 37.46991729736328 C 382.0761413574219 47.76203918457031 374.79290771484375 55.1615104675293 364.6882019042969 57.89168167114258 C 353.33111572265625 55.035430908203125 346.0808410644531 47.632198333740234 343.8869934082031 37.240230560302734 C 346.4580078125 26.64520263671875 353.46435546875 18.975162506103516 363.9510803222656 16.101764678955078 C 374.6546936035156 18.91919708251953 381.7605895996094 26.454845428466797 384.56689453125 37.46991729736328" stroke-width="0.0" fill="rgb(100, 108, 131)" opacity="0.990651"/>
    <path d="M 320.4249572753906 192.5308074951172 C 318.1330871582031 202.8436737060547 310.8788146972656 210.23521423339844 300.5792541503906 212.9630889892578 C 289.18328857421875 210.20379638671875 282.0276184082031 202.73684692382812 279.1311340332031 191.1917724609375 C 281.7726135253906 181.10690307617188 289.1055603027344 173.7692108154297 299.1612854003906 171.12123107910156 C 310.00921630859375 174.81813049316406 317.493408203125 181.8952178955078 320.4249572753906 192.5308074951172" stroke-width="0.0" fill="rgb(45, 85, 19)" opacity="0.99005806"/>
    <path d="M 308.9092712402344 456.1610412597656 C 304.6917419433594 466.3006286621094 297.23480224609375 473.48907470703125 287.23565673828125 476.1080017089844 C 278.0076599121094 474.29412841796875 270.67962646484375 466.99957275390625 267.39569091796875 456.3931579589844 C 269.8472595214844 446.14892578125 277.1215515136719 438.76922607421875 287.6184997558594 436.0472717285156 C 298.8794860839844 438.7770690917969 306.2191162109375 446.12225341796875 308.9092712402344 456.1610412597656" stroke-width="0.0" fill="rgb(82, 79, 62)" opacity="0.99003106"/>
    <path d="M 416.89874267578125 490.62652587890625 C 414.0267333984375 500.5212097167969 406.3218688964844 507.5190124511719 395.4538879394531 510.5513000488281 C 385.17254638671875 508.1239929199219 377.77685546875 500.8629150390625 375.04150390625 490.28863525390625 C 377.768310546875 479.10693359375 385.1102600097656 471.7773132324219 395.4102783203125 469.0727844238281 C 406.504638671875 471.9700012207031 413.6388854980469 479.68634033203125 416.89874267578125 490.62652587890625" stroke-width="0.0" fill="rgb(40, 47, 55)" opacity="0.9902478"/>
    <path d="M 241.89230346679688 25.249698638916016 C 239.07115173339844 36.78084182739258 231.8169403076172 44.179813385009766 221.5925750732422 46.899818420410156 C 210.19021606445312 44.14433670043945 202.82266235351562 36.82235336303711 200.07395935058594 26.207256317138672 C 202.8225555419922 15.165854454040527 210.160400390625 7.809228420257568 221.25259399414062 5.056616306304932 C 231.84523010253906 7.805176734924316 239.19161987304688 15.15605354309082 241.89230346679688 25.249698638916016" stroke-width="0.0" fill="rgb(80, 95, 115)" opacity="1.0"/>
    <path d="M 266.77557373046875 393.8384704589844 C 264.24273681640625 403.9139099121094 256.9183654785156 411.2542724609375 246.28440856933594 413.96533203125 C 235.0944061279297 411.24334716796875 227.75588989257812 403.9059143066406 225.04150390625 393.7500915527344 C 227.86473083496094 382.44866943359375 236.4253692626953 376.385498046875 245.8657989501953 373.90777587890625 C 255.32757568359375 376.44329833984375 262.8087158203125 383.5851135253906 266.77557373046875 393.8384704589844" stroke-width="0.0" fill="rgb(63, 47, 28)" opacity="0.9900111"/>
    <path d="M 238.9314727783203 185.1605224609375 C 236.19789123535156 195.8600616455078 228.86917114257812 203.21917724609375 218.53314208984375 205.9468994140625 C 207.1422119140625 203.2018280029297 199.79347229003906 195.85972595214844 197.05604553222656 185.46499633789062 C 199.84230041503906 174.21014404296875 207.22183227539062 166.8695068359375 218.64309692382812 164.0704803466797 C 228.8585205078125 166.79400634765625 236.19100952148438 174.14764404296875 238.9314727783203 185.1605224609375" stroke-width="0.0" fill="rgb(68, 81, 98)" opacity="1.0"/>
    <path d="M 421.9168395996094 368.8461608886719 C 419.2235107421875 378.8796691894531 411.8805847167969 386.2256164550781 401.8509521484375 388.92498779296875 C 390.7420654296875 385.4833068847656 382.9960632324219 378.4751281738281 380.0679016113281 367.28741455078125 C 382.78118896484375 357.1241455078125 390.12652587890625 349.78662109375 400.43914794921875 347.05853271484375 C 411.575439453125 349.9178161621094 418.5057678222656 357.6612243652344 421.9168395996094 368.8461608886719" stroke-width="0.0" fill="rgb(50, 55, 63)" opacity="0.99103475"/>
    <path d="M 447.2331848144531 549.7303466796875 C 444.47711181640625 560.3029174804688 437.553955078125 568.0730590820312 426.1980285644531 570.955810546875 C 416.0871887207031 568.25048828125 408.7561340332031 560.9099731445312 406.0415344238281 550.4317626953125 C 408.7880859375 539.1691284179688 416.2361755371094 531.9719848632812 427.624755859375 529.1873779296875 C 437.7564392089844 531.8573608398438 444.9316711425781 539.3121948242188 447.2331848144531 549.7303466796875" stroke-width="0.0" fill="rgb(130, 1, 2)" opacity="1.0"/>
    <path d="M 441.9552001953125 517.3070678710938 C 439.22613525390625 527.8709716796875 431.8388671875 535.1315307617188 421.5496826171875 537.2984008789062 C 410.99945068359375 534.3113403320312 403.67822265625 527.0030517578125 400.9732360839844 516.956787109375 C 403.490478515625 506.7063293457031 410.5467834472656 499.0540466308594 421.79071044921875 496.0833435058594 C 431.8768615722656 498.7760009765625 439.2126770019531 506.1283264160156 441.9552001953125 517.3070678710938" stroke-width="0.0" fill="rgb(218, 27, 29)" opacity="0.99005413"/>
    <path d="M 207.93667602539062 565.8330078125 C 205.21243286132812 575.826416015625 197.74566650390625 582.9817504882812 187.3158721923828 585.251220703125 C 177.0 582.3204956054688 169.6794891357422 575.0 166.255859375 564.2803955078125 C 168.7998504638672 554.1182861328125 176.10348510742188 546.75927734375 186.31382751464844 544.0433959960938 C 197.80027770996094 546.8086547851562 204.98512268066406 554.2765502929688 207.93667602539062 565.8330078125" stroke-width="0.0" fill="rgb(26, 33, 43)" opacity="1.0"/>
    <path d="M 350.4277648925781 75.30289459228516 C 348.027099609375 85.75859069824219 340.81439208984375 93.19019317626953 330.5934143066406 95.93502044677734 C 319.43841552734375 93.06991577148438 312.6888122558594 85.29644012451172 310.2825012207031 74.82454681396484 C 312.52777099609375 64.82124328613281 319.7513122558594 57.31433868408203 330.2927551269531 54.286075592041016 C 340.5526123046875 57.04688262939453 347.7589111328125 64.5104751586914 350.4277648925781 75.30289459228516" stroke-width="0.0" fill="rgb(192, 132, 56)" opacity="1.0"/>
    <path d="M 236.9327392578125 64.05706024169922 C 234.18548583984375 74.83758544921875 226.83773803710938 82.18547821044922 216.84097290039062 84.13799285888672 C 206.79791259765625 80.50484466552734 199.5264434814453 73.1899185180664 196.9232635498047 63.51750183105469 C 199.4683074951172 54.71474838256836 206.60279846191406 46.89940643310547 216.41497802734375 43.131893157958984 C 226.8255615234375 45.84708786010742 234.1905517578125 53.16057205200195 236.9327392578125 64.05706024169922" stroke-width="0.0" fill="rgb(85, 89, 94)" opacity="0.99001026"/>
    <path d="M 60.89778518676758 6.493330001831055 C 58.02779769897461 16.542604446411133 50.38198471069336 23.614288330078125 40.10853958129883 26.1497745513916 C 30.002639770507812 23.317277908325195 22.71099853515625 15.9894437789917 19.294652938842773 5.466672420501709 C 22.14333724975586 -4.330817222595215 29.840539932250977 -11.39836311340332 39.99961853027344 -14.010293006896973 C 50.159324645996094 -11.39743423461914 57.87268829345703 -4.3401007652282715 60.89778518676758 6.493330001831055" stroke-width="0.0" fill="rgb(200, 130, 102)" opacity="0.9900614"/>
    <path d="M 309.73095703125 301.3094787597656 C 307.0047607421875 311.56634521484375 299.46917724609375 318.7357482910156 289.173583984375 321.4317932128906 C 278.64483642578125 318.6481018066406 271.2479553222656 311.3857421875 268.3946228027344 300.7818603515625 C 271.0357666015625 290.364501953125 278.3488464355469 282.98931884765625 289.4978942871094 280.61187744140625 C 299.760009765625 282.9009094238281 307.0978088378906 290.24041748046875 309.73095703125 301.3094787597656" stroke-width="0.0" fill="rgb(236, 222, 186)" opacity="1.0"/>
    <path d="M 530.1649780273438 563.3181762695312 C 527.6686401367188 572.405029296875 520.4108276367188 579.6852416992188 510.35150146484375 582.8194580078125 C 500.2402038574219 581.0789794921875 492.9084167480469 573.763671875 490.43853759765625 563.5421752929688 C 493.67950439453125 553.0 501.0 545.6795043945312 510.784912109375 543.2041015625 C 520.469970703125 546.16064453125 527.6251831054688 553.6033325195312 530.1649780273438 563.3181762695312" stroke-width="0.0" fill="rgb(218, 160, 111)" opacity="0.9900335"/>
    <path d="M 380.9999694824219 544.0000610351562 C 378.32049560546875 554.0 371.0006408691406 561.32275390625 360.1668701171875 564.916748046875 C 350.201416015625 562.1934204101562 343.2736511230469 554.68701171875 341.9397888183594 544.7762451171875 C 344.577880859375 534.8822631835938 351.8869934082031 527.5890502929688 361.847900390625 524.9258422851562 C 370.98187255859375 526.734375 378.3194885253906 534.0028076171875 380.9999694824219 544.0000610351562" stroke-width="0.0" fill="rgb(26, 30, 37)" opacity="0.99001557"/>
    <path d="M 56.93564987182617 270.1895751953125 C 53.76093673706055 281.218505859375 46.06355667114258 288.3453369140625 36.00261306762695 291.00152587890625 C 26.0 288.32049560546875 18.67949104309082 281.0 15.286381721496582 270.4707946777344 C 18.09343719482422 260.60736083984375 25.78331184387207 253.56700134277344 36.71846008300781 250.23904418945312 C 46.86724090576172 252.8075714111328 54.2237663269043 260.1212158203125 56.93564987182617 270.1895751953125" stroke-width="0.0" fill="rgb(48, 59, 71)" opacity="0.9986787"/>
    <path d="M 132.88975524902344 315.2120361328125 C 129.48440551757812 326.1184387207031 122.23445892333984 333.76849365234375 111.23255157470703 336.9186706542969 C 101.18307495117188 334.1963195800781 94.02568817138672 326.7473449707031 91.12958526611328 315.2694396972656 C 93.87836456298828 305.3273620605469 101.4867935180664 298.3160705566406 112.80442810058594 295.11260986328125 C 122.86083221435547 297.7940368652344 130.2016143798828 305.1410217285156 132.88975524902344 315.2120361328125" stroke-width="0.0" fill="rgb(57, 69, 78)" opacity="0.99002284"/>
    <path d="M 30.839468002319336 332.32025146484375 C 28.13359832763672 342.7798767089844 20.755390167236328 350.0564270019531 10.524557113647461 351.6399230957031 C -0.21368679404258728 349.4352722167969 -7.511926174163818 342.227783203125 -10.083389282226562 331.98583984375 C -7.612715721130371 321.5711364746094 -0.5974611043930054 313.93218994140625 9.86629867553711 311.0990905761719 C 20.800710678100586 313.8505859375 28.118667602539062 321.2100524902344 30.839468002319336 332.32025146484375" stroke-width="0.0" fill="rgb(219, 174, 151)" opacity="1.0"/>
    <path d="M 283.9317321777344 160.083251953125 C 281.2041015625 170.86622619628906 273.86773681640625 178.2079620361328 262.4687194824219 180.94644165039062 C 252.135009765625 178.21392822265625 244.79656982421875 170.86041259765625 242.06182861328125 160.28529357910156 C 244.80406188964844 149.15162658691406 252.16030883789062 141.82696533203125 262.4351806640625 139.14024353027344 C 273.74639892578125 141.94395446777344 281.1722717285156 149.20802307128906 283.9317321777344 160.083251953125" stroke-width="0.0" fill="rgb(76, 94, 106)" opacity="1.0"/>
    <path d="M 163.91046142578125 215.9125518798828 C 161.09226989746094 225.7551727294922 153.71604919433594 232.96710205078125 144.15586853027344 235.37359619140625 C 134.4829559326172 232.79803466796875 127.10890197753906 225.54412841796875 124.86203002929688 216.72250366210938 C 127.49668884277344 206.77207946777344 134.75350952148438 199.44728088378906 144.57371520996094 196.64842224121094 C 154.0 198.6794891357422 161.3205108642578 206.0 163.91046142578125 215.9125518798828" stroke-width="0.0" fill="rgb(127, 106, 92)" opacity="0.990046"/>
    <path d="M 500.7168273925781 564.6807861328125 C 498.188720703125 574.8732299804688 490.8908996582031 582.2373657226562 479.5045166015625 584.9646606445312 C 469.0871887207031 582.2513427734375 461.75653076171875 574.909423828125 459.0640869140625 564.8089599609375 C 461.8132019042969 553.1255493164062 469.105712890625 545.758544921875 479.2529296875 543.04150390625 C 490.7283935546875 545.8353881835938 497.7259216308594 553.4320068359375 500.7168273925781 564.6807861328125" stroke-width="0.0" fill="rgb(28, 33, 43)" opacity="1.0"/>
    <path d="M 318.90386962890625 569.8606567382812 C 316.2525634765625 579.921630859375 308.92425537109375 587.2590942382812 298.3646545410156 589.9681396484375 C 287.0754699707031 587.2565307617188 279.7371520996094 579.92724609375 277.04071044921875 569.8905639648438 C 281.1723327636719 559.6676635742188 288.7273864746094 552.4442138671875 298.5636901855469 549.6134033203125 C 308.0 551.6795043945312 315.32049560546875 559.0 318.90386962890625 569.8606567382812" stroke-width="0.0" fill="rgb(2, 3, 4)" opacity="0.9901626"/>
    <path d="M 376.35443115234375 74.19544219970703 C 373.9200134277344 84.6385269165039 366.6800537109375 92.05072021484375 355.271728515625 94.9085464477539 C 345.1952819824219 92.1820297241211 337.9812927246094 84.74916076660156 336.6013488769531 74.49030303955078 C 338.5312805175781 63.507511138916016 345.3475036621094 55.912532806396484 355.3930969238281 53.15095520019531 C 366.5545349121094 56.055206298828125 373.7472839355469 63.50746536254883 376.35443115234375 74.19544219970703" stroke-width="0.0" fill="rgb(81, 97, 107)" opacity="0.9901074"/>
    <path d="M 355.33221435546875 21.378063201904297 C 352.81390380859375 31.812353134155273 346.286865234375 39.856143951416016 336.20794677734375 42.77095031738281 C 325.5237121582031 39.887786865234375 318.2660827636719 32.42109298706055 315.2572937011719 21.67228889465332 C 318.1816101074219 11.965201377868652 326.42779541015625 5.308629512786865 336.7544860839844 2.259099245071411 C 346.6954040527344 3.925161838531494 353.9996337890625 11.33200740814209 355.33221435546875 21.378063201904297" stroke-width="0.0" fill="rgb(239, 183, 129)" opacity="0.9902222"/>
    <path d="M 322.0489501953125 146.04232788085938 C 319.42437744140625 156.08938598632812 312.0560302734375 163.29925537109375 301.4047546386719 166.28158569335938 C 291.2563781738281 164.07778930664062 283.8615417480469 156.76705932617188 281.05755615234375 145.23199462890625 C 283.76995849609375 135.1361846923828 291.1878967285156 127.92119598388672 301.5517272949219 125.60576629638672 C 312.0 128.6794891357422 319.32049560546875 136.0 322.0489501953125 146.04232788085938" stroke-width="0.0" fill="rgb(75, 110, 34)" opacity="0.99005115"/>
    <path d="M 327.4228515625 522.0923461914062 C 324.5611267089844 532.1544799804688 317.09417724609375 539.3651733398438 306.99444580078125 541.9913940429688 C 296.9880065917969 539.33203125 289.6464538574219 532.018310546875 286.9463195800781 522.0236206054688 C 289.679443359375 511.9955139160156 296.98846435546875 504.65570068359375 307.2544860839844 501.4696960449219 C 317.3089599609375 504.3104248046875 324.5821838378906 511.7235412597656 327.4228515625 522.0923461914062" stroke-width="0.0" fill="rgb(238, 243, 227)" opacity="0.99065745"/>
    <path d="M 464.9364929199219 553.1851196289062 C 462.1763610839844 564.8702392578125 454.8947448730469 572.2445068359375 444.533203125 574.9640502929688 C 433.1470642089844 572.2267456054688 425.9520568847656 564.7899169921875 423.55511474609375 554.4217529296875 C 426.5828552246094 543.7721557617188 433.52740478515625 535.9888305664062 444.7828674316406 533.0468139648438 C 454.8919677734375 535.7679443359375 462.237548828125 543.1054077148438 464.9364929199219 553.1851196289062" stroke-width="0.0" fill="rgb(110, 2, 4)" opacity="1.0"/>
    <path d="M 403.81182861328125 69.28108978271484 C 400.3204040527344 79.99996948242188 393.0 87.32051086425781 382.999755859375 90.00015258789062 C 372.998046875 87.32166290283203 365.6728820800781 80.00355529785156 362.5205078125 69.53335571289062 C 364.9528503417969 59.25904846191406 372.2282409667969 51.86277770996094 383.49420166015625 49.08533477783203 C 393.83056640625 51.8178596496582 401.1614685058594 59.17766571044922 403.81182861328125 69.28108978271484" stroke-width="0.0" fill="rgb(91, 107, 128)" opacity="1.0"/>
    <path d="M 156.79098510742188 337.6532897949219 C 154.0690155029297 347.6596984863281 146.55587768554688 354.6950988769531 136.21102905273438 356.314697265625 C 126.23859405517578 353.8955383300781 118.05526733398438 347.2713928222656 115.095703125 337.2399597167969 C 118.00130462646484 326.6065368652344 126.32571411132812 320.3169860839844 136.55352783203125 317.70660400390625 C 146.0 319.67950439453125 153.3205108642578 327.0 156.79098510742188 337.6532897949219" stroke-width="0.0" fill="rgb(235, 182, 115)" opacity="0.9902353"/>
    <path d="M 233.083251953125 314.7375793457031 C 231.14846801757812 323.94049072265625 223.99278259277344 331.3182373046875 213.97879028320312 334.00994873046875 C 203.744384765625 331.4541320800781 195.99514770507812 324.4776611328125 193.0584259033203 313.28106689453125 C 195.792724609375 303.16644287109375 203.2230987548828 295.9572448730469 213.50927734375 293.71832275390625 C 223.3520965576172 297.2260437011719 230.49130249023438 304.74395751953125 233.083251953125 314.7375793457031" stroke-width="0.0" fill="rgb(56, 62, 75)" opacity="0.990133"/>
    <path d="M 411.907958984375 31.498371124267578 C 409.1401062011719 42.79404067993164 401.79693603515625 50.14734649658203 391.2814025878906 52.895328521728516 C 380.39434814453125 50.052032470703125 373.3082275390625 42.478179931640625 370.50787353515625 31.581602096557617 C 372.95343017578125 21.255908966064453 380.2236022949219 13.858327865600586 391.3608703613281 11.090017318725586 C 401.8115539550781 13.840469360351562 409.1754455566406 21.18141746520996 411.907958984375 31.498371124267578" stroke-width="0.0" fill="rgb(93, 112, 132)" opacity="1.0"/>
    <path d="M 147.90496826171875 262.8432922363281 C 145.2318572998047 272.89080810546875 137.88880920410156 280.2274169921875 127.36349487304688 282.950927734375 C 116.1236572265625 280.22119140625 108.789794921875 272.8716125488281 106.05416870117188 261.7537841796875 C 108.78487396240234 251.13739013671875 116.16165924072266 243.85415649414062 126.3943099975586 241.38584899902344 C 136.99996948242188 244.679443359375 144.3203582763672 252.00009155273438 147.90496826171875 262.8432922363281" stroke-width="0.0" fill="rgb(53, 64, 80)" opacity="1.0"/>
    <path d="M 357.4853210449219 260.33416748046875 C 354.7904357910156 270.67156982421875 348.3216247558594 279.012451171875 337.19671630859375 281.95233154296875 C 327.0883483886719 279.24786376953125 319.7538146972656 271.9109191894531 317.0453796386719 261.765869140625 C 319.8888244628906 250.3671112060547 327.5717468261719 243.4105987548828 338.6329650878906 240.3216552734375 C 348.8128967285156 242.85235595703125 356.1167907714844 250.19668579101562 357.4853210449219 260.33416748046875" stroke-width="0.0" fill="rgb(163, 3, 2)" opacity="1.0"/>
    <path d="M 196.94155883789062 239.91754150390625 C 194.21432495117188 250.8724822998047 186.87086486816406 258.2106018066406 176.2850799560547 260.9386901855469 C 165.22610473632812 258.1686706542969 158.07119750976562 250.69186401367188 155.78236389160156 240.27308654785156 C 158.64450073242188 229.91082763671875 165.73587036132812 222.18711853027344 176.79368591308594 219.0680389404297 C 186.87759399414062 221.77732849121094 194.2116241455078 229.12716674804688 196.94155883789062 239.91754150390625" stroke-width="0.0" fill="rgb(62, 70, 87)" opacity="1.0"/>
    <path d="M 491.9527282714844 445.3472595214844 C 489.198974609375 456.8468322753906 481.8273620605469 464.14306640625 471.3456726074219 466.5003356933594 C 460.2834777832031 464.03900146484375 452.9288024902344 456.7273254394531 450.3960876464844 446.4905090332031 C 453.1951599121094 435.3882751464844 460.2646484375 427.8440246582031 471.5752868652344 425.05718994140625 C 481.8954162597656 427.7692565917969 489.2361145019531 435.10247802734375 491.9527282714844 445.3472595214844" stroke-width="0.0" fill="rgb(47, 51, 64)" opacity="1.0"/>
    <path d="M 392.9490051269531 549.8446044921875 C 390.2470703125 559.909912109375 382.90960693359375 567.2463989257812 372.5855407714844 569.9634399414062 C 361.1862487792969 567.2077026367188 354.0702209472656 559.7173461914062 351.837646484375 549.2355346679688 C 354.6395263671875 538.97021484375 361.97637939453125 531.6602172851562 371.99713134765625 528.9939575195312 C 382.0847473144531 531.6472778320312 389.8453063964844 538.7192993164062 392.9490051269531 549.8446044921875" stroke-width="0.0" fill="rgb(26, 32, 40)" opacity="1.0"/>
    <path d="M 260.6466064453125 556.5565185546875 C 258.1675109863281 566.8660888671875 250.8883056640625 574.234130859375 240.8334197998047 576.885009765625 C 230.0 573.3204956054688 222.6794891357422 566.0 219.9796142578125 555.960205078125 C 222.46707153320312 545.6376953125 229.4136505126953 537.9143676757812 240.61721801757812 535.0496826171875 C 250.80801391601562 537.8013916015625 257.95849609375 545.2757568359375 260.6466064453125 556.5565185546875" stroke-width="0.0" fill="rgb(20, 24, 32)" opacity="1.0"/>
    <path d="M 173.94964599609375 318.401611328125 C 171.22647094726562 328.8772277832031 163.8567657470703 336.1685485839844 153.77810668945312 337.23663330078125 C 143.6212921142578 334.5689392089844 135.20335388183594 327.6691589355469 132.06640625 317.1999206542969 C 134.77525329589844 307.1140441894531 142.1126708984375 299.7722473144531 153.69480895996094 297.036865234375 C 163.89645385742188 299.7574157714844 171.2201690673828 307.1132507324219 173.94964599609375 318.401611328125" stroke-width="0.0" fill="rgb(59, 67, 78)" opacity="1.0"/>
    <path d="M 441.9546203613281 470.3438720703125 C 439.2386169433594 480.9006042480469 431.9020690917969 488.2422180175781 421.8267517089844 490.95391845703125 C 410.5671691894531 487.9674377441406 403.4114990234375 480.2572021484375 400.0755615234375 469.16815185546875 C 402.7664489746094 459.103271484375 410.1015930175781 451.76239013671875 420.3492736816406 449.04638671875 C 431.8802795410156 451.7845764160156 439.2283935546875 459.1143493652344 441.9546203613281 470.3438720703125" stroke-width="0.0" fill="rgb(39, 46, 61)" opacity="1.0"/>
    <path d="M 124.46479034423828 564.292236328125 C 121.81073760986328 574.5275268554688 114.65701293945312 582.1107788085938 103.18962097167969 584.9578247070312 C 93.07890319824219 582.254150390625 85.74634552001953 574.9209594726562 83.06587219238281 564.8606567382812 C 87.10413360595703 554.661865234375 94.7561264038086 547.5040893554688 104.62442016601562 544.909423828125 C 113.68582916259766 547.1651000976562 121.2159423828125 554.1829833984375 124.46479034423828 564.292236328125" stroke-width="0.0" fill="rgb(121, 98, 82)" opacity="1.0"/>
    <path d="M 209.31466674804688 372.6982421875 C 207.64625549316406 383.4069519042969 200.53591918945312 390.9994201660156 190.62522888183594 393.53521728515625 C 180.12228393554688 390.0786437988281 172.7356414794922 382.93975830078125 169.9572296142578 373.1330261230469 C 172.5673370361328 362.9072570800781 179.91514587402344 355.5956115722656 190.11061096191406 352.7412109375 C 200.12814331054688 355.5159606933594 207.6251220703125 362.82208251953125 209.31466674804688 372.6982421875" stroke-width="0.0" fill="rgb(252, 239, 196)" opacity="1.0"/>
    <path d="M 117.9472885131836 286.4103698730469 C 115.11896514892578 297.66021728515625 107.48955535888672 304.6684875488281 96.16739654541016 307.9033203125 C 86.11958312988281 305.2242736816406 78.80772399902344 297.8687438964844 76.10032653808594 286.43634033203125 C 78.78632354736328 276.1233825683594 86.12076568603516 268.77947998046875 97.43195343017578 266.0487060546875 C 107.88162994384766 268.77471923828125 115.22066497802734 276.120361328125 117.9472885131836 286.4103698730469" stroke-width="0.0" fill="rgb(51, 61, 77)" opacity="1.0"/>
    <path d="M 423.9662780761719 585.3497314453125 C 421.2287902832031 596.8687744140625 413.82867431640625 604.1121215820312 402.7438049316406 606.6852416992188 C 392.14068603515625 604.1516723632812 384.75738525390625 596.8904418945312 382.03631591796875 585.9805297851562 C 384.75274658203125 575.0889892578125 392.0895690917969 567.7542114257812 403.60675048828125 565.0325317382812 C 413.9164733886719 567.7462768554688 421.253173828125 575.083740234375 423.9662780761719 585.3497314453125" stroke-width="0.0" fill="rgb(15, 21, 29)" opacity="1.0"/>
    <path d="M 37.463706970214844 27.598590850830078 C 35.91529083251953 37.451866149902344 27.886348724365234 43.677921295166016 17.576948165893555 46.08696365356445 C 7.335235118865967 44.45351028442383 -0.16165691614151 37.77714538574219 -2.8237051963806152 27.678722381591797 C 0.10002702474594116 16.371761322021484 7.267200946807861 8.84546184539795 17.181299209594727 6.181408882141113 C 27.47370719909668 10.270588874816895 34.73091506958008 17.526369094848633 37.463706970214844 27.598590850830078" stroke-width="0.0" fill="rgb(148, 116, 62)" opacity="0.9900162"/>
    <path d="M 267.9606628417969 593.2514038085938 C 265.11126708984375 604.6107788085938 257.36260986328125 611.519287109375 247.03182983398438 614.0145874023438 C 237.0 611.3204956054688 229.6794891357422 604.0 226.99940490722656 593.9983520507812 C 229.65866088867188 583.9432373046875 236.7852020263672 576.23779296875 247.8581085205078 573.0512084960938 C 257.91473388671875 575.7489013671875 265.24896240234375 583.086181640625 267.9606628417969 593.2514038085938" stroke-width="0.0" fill="rgb(11, 15, 21)" opacity="1.0"/>
    <path d="M 296.9331359863281 243.4481201171875 C 294.2113342285156 253.86744689941406 286.8675537109375 261.21173095703125 276.54864501953125 263.9417724609375 C 265.2377014160156 261.16168212890625 258.0816650390625 253.67726135253906 255.98577880859375 243.2890167236328 C 258.728271484375 233.02056884765625 266.00823974609375 225.68704223632812 276.8377990722656 222.09861755371094 C 286.87255859375 224.77935791015625 294.19915771484375 232.13638305664062 296.9331359863281 243.4481201171875" stroke-width="0.0" fill="rgb(34, 37, 44)" opacity="0.99003667"/>
    <path d="M 326.2477722167969 123.68299102783203 C 323.2061767578125 133.75709533691406 315.55877685546875 140.68121337890625 306.63958740234375 143.0774383544922 C 296.82568359375 140.45887756347656 289.47039794921875 133.19891357421875 286.1875915527344 123.32600402832031 C 287.99591064453125 113.29925537109375 295.2456359863281 105.85504913330078 305.6457824707031 103.08746337890625 C 316.7113037109375 105.88653564453125 323.92559814453125 113.35704803466797 326.2477722167969 123.68299102783203" stroke-width="0.0" fill="rgb(216, 223, 157)" opacity="0.9900258"/>
    <path d="M 296.2063293457031 37.79667663574219 C 293.3524169921875 48.0177116394043 285.9912109375 55.262332916259766 275.8583984375 57.772220611572266 C 265.739013671875 55.592227935791016 258.4689636230469 48.243629455566406 255.421875 37.56888961791992 C 258.070068359375 27.48988914489746 265.5669860839844 20.287118911743164 275.6463623046875 17.855913162231445 C 286.2843322753906 20.380165100097656 293.6980285644531 27.689699172973633 296.2063293457031 37.79667663574219" stroke-width="0.0" fill="rgb(238, 238, 233)" opacity="1.0"/>
    <path d="M 44.7154426574707 285.70562744140625 C 42.18260955810547 295.8581848144531 34.8697624206543 303.2147521972656 23.326988220214844 305.9553527832031 C 13.091704368591309 303.246337890625 5.763998985290527 295.9040222167969 3.0488240718841553 285.1536560058594 C 5.77185583114624 274.1141662597656 13.12496566772461 266.80169677734375 23.267929077148438 264.2501220703125 C 33.89277267456055 267.8036193847656 41.18089294433594 275.11199951171875 44.7154426574707 285.70562744140625" stroke-width="0.0" fill="rgb(85, 36, 42)" opacity="1.0"/>
    <path d="M 310.9671936035156 412.1867980957031 C 308.2261962890625 423.8813171386719 300.87847900390625 431.2200622558594 289.3562927246094 433.9570007324219 C 279.09710693359375 431.24444580078125 271.7676696777344 423.89764404296875 269.03656005859375 412.2753601074219 C 271.7490539550781 402.0963134765625 279.1264343261719 394.851806640625 290.7615966796875 393.8594970703125 C 300.9130554199219 394.7691345214844 308.2624206542969 402.0755615234375 310.9671936035156 412.1867980957031" stroke-width="0.0" fill="rgb(22, 23, 29)" opacity="0.99012655"/>
    <path d="M 318.7314147949219 345.6270446777344 C 315.720458984375 356.3406066894531 308.32281494140625 363.6667175292969 297.3594970703125 366.7957458496094 C 287.2274475097656 364.1187744140625 279.8877868652344 356.7705993652344 277.3479309082031 346.6529541015625 C 280.87274169921875 336.1245422363281 288.1444396972656 328.92572021484375 297.9622497558594 326.5074768066406 C 308.2413330078125 328.6691589355469 315.875244140625 335.5977783203125 318.7314147949219 345.6270446777344" stroke-width="0.0" fill="rgb(217, 192, 148)" opacity="1.0"/>
    <path d="M 198.03428649902344 575.0640869140625 C 195.6153564453125 585.457275390625 188.65328979492188 593.12255859375 177.31983947753906 595.9502563476562 C 167.14381408691406 593.2229614257812 159.92312622070312 585.80615234375 157.5983123779297 575.4515380859375 C 160.67942810058594 564.9998779296875 167.99969482421875 557.6788330078125 177.99951171875 554.9989624023438 C 188.0 557.6795043945312 195.3205108642578 565.0 198.03428649902344 575.0640869140625" stroke-width="0.0" fill="rgb(24, 31, 42)" opacity="1.0"/>
    <path d="M 393.0437316894531 221.40225219726562 C 390.4484558105469 230.19747924804688 383.3620300292969 238.86019897460938 373.62823486328125 241.93711853027344 C 363.154052734375 239.19520568847656 355.8432922363281 231.83204650878906 353.3277282714844 221.66542053222656 C 356.8440246582031 211.14654541015625 364.1406555175781 203.82302856445312 373.2832336425781 201.78077697753906 C 383.15185546875 204.54005432128906 390.4314270019531 211.8592529296875 393.0437316894531 221.40225219726562" stroke-width="0.0" fill="rgb(50, 57, 63)" opacity="0.9900087"/>
    <path d="M 424.4862365722656 518.4180908203125 C 422.51007080078125 528.1455688476562 415.0674743652344 535.2192993164062 405.1966552734375 537.2487182617188 C 395.1614990234375 534.9986572265625 387.707275390625 527.9375 385.17694091796875 518.186767578125 C 388.1217956542969 508.4885559082031 395.5518493652344 501.31414794921875 405.34271240234375 498.7684631347656 C 414.6501159667969 501.0602111816406 421.8204650878906 508.3956604003906 424.4862365722656 518.4180908203125" stroke-width="0.0" fill="rgb(189, 7, 2)" opacity="0.9900702"/>
    <path d="M 247.12545776367188 581.9090576171875 C 244.30877685546875 591.9909057617188 236.99208068847656 599.3128051757812 226.1934051513672 602.8511352539062 C 216.10133361816406 600.22998046875 208.76307678222656 592.901123046875 206.0430145263672 582.3134155273438 C 208.77061462402344 571.1298828125 216.1686248779297 563.8829345703125 226.47560119628906 561.5040893554688 C 237.05520629882812 564.6466674804688 244.46484375 571.91064453125 247.12545776367188 581.9090576171875" stroke-width="0.0" fill="rgb(20, 25, 34)" opacity="0.99178267"/>
    <path d="M 402.90570068359375 393.2867431640625 C 399.85125732421875 404.4422912597656 392.39599609375 411.71563720703125 382.2062683105469 414.205078125 C 371.7101745605469 411.4300842285156 363.9237060546875 404.55584716796875 361.0511474609375 393.3250732421875 C 363.7828369140625 383.1341247558594 371.14508056640625 375.809326171875 381.2510986328125 373.1783142089844 C 392.47210693359375 376.2563171386719 400.09210205078125 383.37841796875 402.90570068359375 393.2867431640625" stroke-width="0.0" fill="rgb(67, 4, 7)" opacity="0.9901185"/>
    <path d="M 550.8287963867188 509.932373046875 C 548.0364990234375 519.7144165039062 540.7133178710938 527.0328979492188 530.8899536132812 529.869873046875 C 521.0145874023438 527.3045043945312 513.7213134765625 519.9780883789062 511.5096435546875 509.6917724609375 C 513.123779296875 499.5174255371094 520.665771484375 492.8495178222656 531.2783813476562 490.83172607421875 C 541.255615234375 492.2420959472656 548.243408203125 499.9197692871094 550.8287963867188 509.932373046875" stroke-width="0.0" fill="rgb(244, 237, 232)" opacity="1.0"/>
    <path d="M 499.1420593261719 10.429634094238281 C 496.7225646972656 20.636356353759766 489.8952941894531 28.396778106689453 480.0108947753906 30.31223487854004 C 469.328857421875 28.842960357666016 461.8661804199219 21.74955177307129 459.0958557128906 10.899263381958008 C 461.9189453125 0.3783313035964966 469.5340881347656 -6.656548976898193 480.0271911621094 -9.136833190917969 C 490.4241943359375 -6.6660943031311035 497.83148193359375 0.525853157043457 499.1420593261719 10.429634094238281" stroke-width="0.0" fill="rgb(102, 118, 141)" opacity="0.9900287"/>
    <path d="M 235.10321044921875 322.69183349609375 C 233.2481689453125 331.9776916503906 225.99951171875 339.3248596191406 215.1458740234375 342.92437744140625 C 205.11453247070312 340.22735595703125 197.77487182617188 332.884521484375 195.0841522216797 322.8350830078125 C 198.57911682128906 311.9667663574219 205.99615478515625 304.6793518066406 215.96104431152344 302.0311584472656 C 225.7028350830078 304.85772705078125 232.6219482421875 312.5049743652344 235.10321044921875 322.69183349609375" stroke-width="0.0" fill="rgb(59, 62, 69)" opacity="0.99018246"/>
    <path d="M 354.8633728027344 145.2103271484375 C 351.4127502441406 156.12721252441406 344.1805419921875 163.58351135253906 334.27630615234375 166.1278839111328 C 324.1680603027344 163.1009063720703 316.8110656738281 155.85887145996094 314.0538635253906 145.9512939453125 C 316.67950439453125 136.0 324.0 128.6794891357422 334.276123046875 125.80278778076172 C 344.7347717285156 128.04368591308594 352.1962585449219 135.18740844726562 354.8633728027344 145.2103271484375" stroke-width="0.0" fill="rgb(66, 78, 79)" opacity="1.0"/>
    <path d="M 238.57086181640625 548.4109497070312 C 235.3054656982422 558.9899291992188 227.99183654785156 566.3121948242188 217.24520874023438 569.8502197265625 C 207.24246215820312 567.1588134765625 200.0652313232422 559.6740112304688 197.05972290039062 548.1454467773438 C 199.75547790527344 538.0939331054688 207.0970001220703 530.762939453125 218.6367645263672 528.0377197265625 C 228.87838745117188 530.7650146484375 236.14405822753906 538.154296875 238.57086181640625 548.4109497070312" stroke-width="0.0" fill="rgb(28, 36, 45)" opacity="1.0"/>
    <path d="M 287.870849609375 113.22998809814453 C 284.5341491699219 124.11463928222656 277.0299072265625 131.2541961669922 267.05621337890625 133.52908325195312 C 257.0120849609375 131.169921875 249.2951202392578 124.17695617675781 246.14752197265625 113.41104888916016 C 248.86183166503906 103.20398712158203 256.18902587890625 95.82575988769531 266.2699279785156 93.13529205322266 C 277.78656005859375 95.93677520751953 285.18939208984375 103.17312622070312 287.870849609375 113.22998809814453" stroke-width="0.0" fill="rgb(173, 188, 138)" opacity="1.0"/>
    <path d="M 275.8946838378906 213.87686157226562 C 272.9772033691406 223.58921813964844 265.49493408203125 230.6998291015625 255.4877166748047 233.1694793701172 C 245.25051879882812 231.94839477539062 237.80564880371094 224.81875610351562 235.05169677734375 213.5887908935547 C 237.77989196777344 203.12184143066406 245.1236572265625 195.7843017578125 255.18756103515625 193.1171112060547 C 266.0 196.6794891357422 273.32049560546875 204.0 275.8946838378906 213.87686157226562" stroke-width="0.0" fill="rgb(111, 155, 79)" opacity="1.0"/>
    <path d="M 576.0497436523438 509.1718444824219 C 573.4115600585938 519.11279296875 566.1156005859375 526.4181518554688 556.6901245117188 529.0411987304688 C 547.8250122070312 526.4411010742188 540.42626953125 519.224853515625 537.9237060546875 510.715087890625 C 540.5269165039062 500.78375244140625 547.745849609375 493.4421081542969 557.8336791992188 490.80804443359375 C 567.8541259765625 491.8009338378906 575.0601196289062 499.178955078125 576.0497436523438 509.1718444824219" stroke-width="0.0" fill="rgb(106, 45, 10)" opacity="0.99000454"/>
    <path d="M 174.9133758544922 207.9215087890625 C 172.02796936035156 218.4103546142578 163.70692443847656 224.7352294921875 154.1846466064453 227.16836547851562 C 144.6126251220703 224.62789916992188 137.04473876953125 217.4768829345703 133.173095703125 207.5402374267578 C 136.13206481933594 197.74203491210938 144.21493530273438 191.16473388671875 154.35781860351562 188.7490997314453 C 164.33193969726562 190.79443359375 172.046630859375 197.4352569580078 174.9133758544922 207.9215087890625" stroke-width="0.0" fill="rgb(180, 161, 141)" opacity="0.99007255"/>
    <path d="M 256.45648193359375 343.39752197265625 C 253.93495178222656 353.56097412109375 246.52967834472656 360.8442687988281 236.49937438964844 362.2078552246094 C 226.2527618408203 359.9016418457031 218.8265838623047 352.8526306152344 216.89892578125 343.7740173339844 C 219.49205017089844 333.59832763671875 225.58621215820312 324.91796875 235.2698974609375 322.1418762207031 C 245.9994659423828 325.6764221191406 253.31703186035156 333.0023498535156 256.45648193359375 343.39752197265625" stroke-width="0.0" fill="rgb(248, 240, 208)" opacity="1.0"/>
    <path d="M 383.40313720703125 153.77401733398438 C 381.67205810546875 164.49603271484375 374.64263916015625 172.09005737304688 363.42388916015625 174.92257690429688 C 353.1670837402344 172.1911163330078 345.8876953125 164.80523681640625 343.3492736816406 154.40805053710938 C 345.96551513671875 143.21182250976562 353.14501953125 135.77072143554688 363.24993896484375 133.04481506347656 C 374.8031005859375 135.82586669921875 382.0255126953125 143.24456787109375 383.40313720703125 153.77401733398438" stroke-width="0.0" fill="rgb(82, 98, 113)" opacity="0.99100107"/>
    <path d="M 408.91546630859375 81.07080841064453 C 406.16131591796875 91.814208984375 398.8194885253906 99.17414855957031 388.1852111816406 101.93161010742188 C 377.18414306640625 99.1728744506836 369.8705749511719 91.79973602294922 367.31005859375 81.6259536743164 C 370.6778564453125 70.99901580810547 377.99945068359375 63.6793327331543 388.1549987792969 60.89318084716797 C 398.5732727050781 63.22351837158203 406.1212463378906 70.305908203125 408.91546630859375 81.07080841064453" stroke-width="0.0" fill="rgb(90, 105, 126)" opacity="1.0"/>
    <path d="M 297.6021423339844 377.7253723144531 C 294.68878173828125 388.35186767578125 287.36773681640625 395.7409362792969 276.4752197265625 398.7833251953125 C 266.2301940917969 396.0933837890625 258.8338928222656 388.7981872558594 256.0929260253906 378.49896240234375 C 258.877197265625 367.2411804199219 266.25872802734375 359.9232482910156 277.6490173339844 357.1172790527344 C 287.7122497558594 359.8910827636719 294.97161865234375 367.3390808105469 297.6021423339844 377.7253723144531" stroke-width="0.0" fill="rgb(226, 216, 180)" opacity="1.0"/>
    <path d="M 404.2783203125 525.5154418945312 C 402.7225646972656 535.338623046875 395.2872314453125 542.5575561523438 385.07666015625 545.0498046875 C 375.0000915527344 542.3198852539062 367.6767578125 535.0008544921875 364.18853759765625 524.2352294921875 C 366.7877502441406 514.114990234375 374.106201171875 506.7645263671875 384.16033935546875 504.07208251953125 C 395.052734375 507.3399963378906 401.80853271484375 515.2860107421875 404.2783203125 525.5154418945312" stroke-width="0.0" fill="rgb(37, 36, 46)" opacity="0.9901723"/>
    <path d="M 271.5755920410156 296.25079345703125 C 269.4779357910156 306.13751220703125 262.1261291503906 313.43841552734375 251.9117431640625 316.1112976074219 C 241.75823974609375 313.5886535644531 234.50271606445312 306.2145080566406 231.66221618652344 295.3699951171875 C 233.94068908691406 285.3684997558594 241.4811248779297 278.2860107421875 252.2843780517578 276.6542663574219 C 262.3412170410156 278.3524169921875 269.41259765625 285.7112731933594 271.5755920410156 296.25079345703125" stroke-width="0.0" fill="rgb(239, 227, 195)" opacity="1.0"/>
    <path d="M 179.26173400878906 569.693603515625 C 176.50271606445312 580.3340454101562 169.57264709472656 588.0811767578125 158.21621704101562 590.9574584960938 C 148.09210205078125 588.244384765625 140.74765014648438 580.9114990234375 138.0314483642578 570.4349365234375 C 140.7497100830078 559.0884399414062 148.09219360351562 551.758544921875 159.23675537109375 549.03564453125 C 169.83494567871094 551.7803955078125 176.98898315429688 559.246337890625 179.26173400878906 569.693603515625" stroke-width="0.0" fill="rgb(21, 28, 35)" opacity="1.0"/>
    <path d="M 327.2738037109375 556.320556640625 C 324.6046447753906 566.2984008789062 317.231689453125 573.4662475585938 308.715087890625 576.032470703125 C 298.9042663574219 573.3933715820312 291.5641784667969 566.1110229492188 287.1695556640625 556.178955078125 C 290.0481262207031 546.6005859375 297.81842041015625 539.5680541992188 308.096923828125 536.8651733398438 C 318.38787841796875 539.3450317382812 325.87408447265625 546.5406494140625 327.2738037109375 556.320556640625" stroke-width="0.0" fill="rgb(228, 230, 218)" opacity="0.990009"/>
    <path d="M 525.9659423828125 419.39520263671875 C 523.24267578125 430.8996276855469 515.8912963867188 438.22271728515625 504.5884094238281 440.9500732421875 C 494.11248779296875 438.2269592285156 486.76849365234375 430.8895263671875 484.0384826660156 419.3533935546875 C 486.74627685546875 409.079833984375 494.0791931152344 401.744873046875 504.3669128417969 399.04132080078125 C 515.9119873046875 401.7582092285156 523.2569580078125 409.08160400390625 525.9659423828125 419.39520263671875" stroke-width="0.0" fill="rgb(25, 27, 36)" opacity="1.0"/>
    <path d="M 446.0616760253906 351.8192138671875 C 443.9681396484375 361.4632568359375 437.7158508300781 369.15899658203125 427.6297912597656 371.94354248046875 C 416.5171203613281 369.02679443359375 409.7028503417969 361.1972351074219 406.0743408203125 350.13592529296875 C 408.77294921875 340.13690185546875 416.1806335449219 332.8966064453125 426.1976318359375 331.84747314453125 C 436.1124572753906 334.57037353515625 443.4085388183594 341.89495849609375 446.0616760253906 351.8192138671875" stroke-width="0.0" fill="rgb(26, 17, 15)" opacity="0.9900093"/>
    <path d="M 485.9696960449219 514.71435546875 C 483.2593078613281 524.922607421875 475.9187927246094 532.250244140625 464.8006591796875 534.9635620117188 C 454.1007385253906 532.2422485351562 446.769775390625 524.8939208984375 444.0442199707031 513.5333862304688 C 446.7527160644531 503.087890625 454.09051513671875 495.7593078613281 464.45159912109375 493.05865478515625 C 475.8628234863281 495.7967834472656 483.2256164550781 503.1269836425781 485.9696960449219 514.71435546875" stroke-width="0.0" fill="rgb(3, 3, 3)" opacity="0.9900317"/>
    <path d="M 288.9275207519531 206.8617401123047 C 286.2325134277344 216.88369750976562 278.8656921386719 224.1846923828125 268.6975402832031 226.77410888671875 C 258.1705017089844 223.19244384765625 250.75889587402344 215.84085083007812 247.3240203857422 205.4947052001953 C 249.91558837890625 195.2097625732422 257.169677734375 187.80335998535156 267.29449462890625 185.1033935546875 C 278.56231689453125 187.9853973388672 285.638916015625 195.56874084472656 288.9275207519531 206.8617401123047" stroke-width="0.0" fill="rgb(68, 115, 34)" opacity="0.99004143"/>
    <path d="M 465.5989074707031 439.5148620605469 C 462.8174133300781 450.6225280761719 455.7449645996094 458.1634521484375 444.3493957519531 460.9474792480469 C 434.1027526855469 458.2356262207031 426.7667541503906 450.89617919921875 424.0443115234375 440.0801086425781 C 426.77587890625 429.1227722167969 434.1346435546875 421.8067932128906 444.32330322265625 419.1896057128906 C 455.701171875 422.0014343261719 463.07086181640625 429.2765197753906 465.5989074707031 439.5148620605469" stroke-width="0.0" fill="rgb(43, 52, 64)" opacity="1.0"/>
    <path d="M 64.11266326904297 549.8384399414062 C 63.14570999145508 559.833251953125 55.862586975097656 567.2222900390625 44.81789779663086 569.9624633789062 C 34.101402282714844 567.2403564453125 26.779787063598633 559.8906860351562 24.12316131591797 549.7884521484375 C 28.3561954498291 539.7432861328125 35.795291900634766 532.5264892578125 44.63107681274414 529.9414672851562 C 54.16167068481445 532.550048828125 61.45882797241211 539.8343505859375 64.11266326904297 549.8384399414062" stroke-width="0.0" fill="rgb(178, 89, 33)" opacity="0.99001116"/>
    <path d="M 524.818115234375 556.1253662109375 C 521.9931640625 566.6214599609375 514.6148681640625 573.9744262695312 504.748046875 575.3534545898438 C 494.8366394042969 572.4791870117188 487.566650390625 565.1458740234375 484.9435119628906 555.25048828125 C 487.173583984375 545.7068481445312 493.4218444824219 537.9768676757812 503.47296142578125 535.4412841796875 C 514.513916015625 538.1404418945312 521.9426879882812 545.4552001953125 524.818115234375 556.1253662109375" stroke-width="0.0" fill="rgb(237, 220, 196)" opacity="0.9900154"/>
    <path d="M 350.85028076171875 237.30140686035156 C 346.68951416015625 247.26205444335938 339.19805908203125 254.46351623535156 329.2569885253906 257.0743103027344 C 319.2702331542969 255.87881469726562 311.83221435546875 248.79774475097656 309.09527587890625 238.41587829589844 C 311.92120361328125 227.36965942382812 319.5112609863281 220.32052612304688 330.04010009765625 217.85244750976562 C 340.5331115722656 220.2642364501953 348.0953674316406 227.34051513671875 350.85028076171875 237.30140686035156" stroke-width="0.0" fill="rgb(252, 173, 169)" opacity="0.99006"/>
    <path d="M 384.6314392089844 111.64305114746094 C 382.13153076171875 121.75225830078125 374.7095031738281 129.01466369628906 364.24072265625 130.2151641845703 C 353.4452819824219 128.9015350341797 346.108642578125 121.54985046386719 343.4398193359375 111.18830108642578 C 346.2055358886719 100.57539367675781 353.6955871582031 93.8196792602539 364.6343078613281 91.67056274414062 C 374.6639099121094 92.97327423095703 381.95721435546875 100.3583755493164 384.6314392089844 111.64305114746094" stroke-width="0.0" fill="rgb(241, 246, 177)" opacity="1.0"/>
    <path d="M 202.8922576904297 573.8414916992188 C 200.2401580810547 583.904541015625 192.9026641845703 591.2355346679688 182.83279418945312 593.8873291015625 C 172.00135803222656 590.3182373046875 164.6804656982422 582.9990234375 162.00843811035156 573.0016479492188 C 164.6830291748047 563.0027465820312 172.0024871826172 555.68212890625 182.00099182128906 553.0011596679688 C 192.0 555.6795043945312 199.3205108642578 563.0 202.8922576904297 573.8414916992188" stroke-width="0.0" fill="rgb(26, 33, 43)" opacity="1.0"/>
    <path d="M 292.76513671875 467.3792724609375 C 289.71197509765625 476.84893798828125 281.54345703125 483.6982116699219 271.3804626464844 486.2167053222656 C 261.2255554199219 485.0367736816406 253.7953338623047 477.83074951171875 251.0477752685547 466.8281555175781 C 253.77249145507812 456.1116943359375 261.1130676269531 448.7758483886719 271.1589050292969 446.1105041503906 C 281.73834228515625 450.0453186035156 289.3293762207031 457.15771484375 292.76513671875 467.3792724609375" stroke-width="0.0" fill="rgb(127, 125, 115)" opacity="0.990378"/>
    <path d="M 471.96405029296875 407.3145751953125 C 469.2311706542969 418.8861083984375 461.8758239746094 426.20465087890625 451.6812438964844 428.83251953125 C 440.1893310546875 426.09228515625 432.7810974121094 418.8544616699219 430.03875732421875 407.48699951171875 C 432.7637023925781 397.1048889160156 440.10467529296875 389.76336669921875 451.6075744628906 387.03460693359375 C 461.9240417480469 389.7433776855469 469.2591552734375 397.07489013671875 471.96405029296875 407.3145751953125" stroke-width="0.0" fill="rgb(36, 43, 51)" opacity="1.0"/>
    <path d="M 233.9485321044922 286.3735046386719 C 231.18748474121094 297.81201171875 223.75599670410156 305.021728515625 212.6179656982422 307.6213684082031 C 202.1585693359375 305.1327819824219 194.7694854736328 297.8749084472656 192.0463409423828 287.49017333984375 C 194.78271484375 276.1255187988281 202.12677001953125 268.7859802246094 213.13877868652344 266.0533142089844 C 223.86965942382812 268.7864990234375 231.2205047607422 276.12725830078125 233.9485321044922 286.3735046386719" stroke-width="0.0" fill="rgb(58, 62, 72)" opacity="1.0"/>
    <path d="M 352.8031921386719 142.20843505859375 C 348.8517761230469 152.58566284179688 341.5951843261719 159.87994384765625 331.8796081542969 162.47547912597656 C 322.3990783691406 159.92071533203125 315.17779541015625 152.568115234375 311.138916015625 142.21603393554688 C 313.896240234375 132.4888153076172 322.43280029296875 126.40296173095703 332.6822814941406 123.89669799804688 C 342.78619384765625 124.95482635498047 350.194091796875 132.16845703125 352.8031921386719 142.20843505859375" stroke-width="0.0" fill="rgb(34, 35, 45)" opacity="0.9900475"/>
    <path d="M 348.5113525390625 218.2930450439453 C 345.49957275390625 227.53904724121094 337.319091796875 234.513671875 327.23028564453125 237.0868377685547 C 317.2118225097656 236.0400848388672 309.77801513671875 228.8489990234375 307.03704833984375 218.32388305664062 C 309.7845153808594 207.1577606201172 317.2148132324219 199.9481201171875 327.5718994140625 197.78231811523438 C 338.0126953125 200.71946716308594 345.4221496582031 207.94517517089844 348.5113525390625 218.2930450439453" stroke-width="0.0" fill="rgb(61, 72, 33)" opacity="0.9900452"/>
  </g>
</svg>
