<?xml version="1.0" ?>
<svg xmlns="http://www.w3.org/2000/svg" version="1.1" width="600" height="600">
  <defs/>
  <g>
    <path d="M 229.8545684814453 70.26521301269531 C 227.41200256347656 79.0375747680664 222.16567993164062 84.77193450927734 213.6466522216797 86.91699981689453 C 205.6703643798828 84.84978485107422 200.17474365234375 79.3199462890625 198.1210479736328 71.59797668457031 C 200.5727081298828 63.27581787109375 206.4257354736328 57.98042297363281 214.72671508789062 55.19474792480469 C 222.32618713378906 57.15775680541992 227.84120178222656 62.674495697021484 229.8545684814453 70.26521301269531" stroke-width="0.0" fill="rgb(241, 115, 67)" opacity="1.0"/>
    <path d="M 131.00332641601562 79.99322509765625 C 128.99038696289062 87.5 123.5 92.9903793334961 116.50751495361328 94.41018676757812 C 109.1978530883789 92.2757797241211 103.76956176757812 86.78575897216797 100.2451400756836 79.16948699951172 C 102.1640853881836 71.6910171508789 107.68861389160156 66.15901947021484 115.26483154296875 64.10578155517578 C 123.70320892333984 66.63606262207031 129.03431701660156 72.4100341796875 131.00332641601562 79.99322509765625" stroke-width="0.0" fill="rgb(195, 109, 65)" opacity="0.9910284"/>
    <path d="M 100.62357330322266 79.38584899902344 C 98.01326751708984 87.39500427246094 92.27478790283203 92.63011932373047 84.91681671142578 94.60330200195312 C 77.64765930175781 92.72383117675781 71.9927749633789 87.44235229492188 69.42677307128906 79.59971618652344 C 71.41861724853516 71.98786163330078 77.04138946533203 66.5782241821289 85.43657684326172 64.8543701171875 C 93.21160125732422 66.30807495117188 98.75296783447266 71.76886749267578 100.62357330322266 79.38584899902344" stroke-width="0.0" fill="rgb(251, 227, 193)" opacity="1.0"/>
    <path d="M 288.65447998046875 378.5279846191406 C 285.9903869628906 386.5 280.5 391.9903869628906 272.9906311035156 394.0037536621094 C 265.3148498535156 392.0722351074219 259.344970703125 386.93133544921875 257.05560302734375 378.32537841796875 C 259.1448974609375 370.7153015136719 264.8121337890625 365.42120361328125 272.76507568359375 363.8082275390625 C 280.7030944824219 365.89874267578125 286.537109375 371.1387634277344 288.65447998046875 378.5279846191406" stroke-width="0.0" fill="rgb(45, 45, 48)" opacity="1.0"/>
    <path d="M 327.92193603515625 212.9257049560547 C 325.7901611328125 221.1874237060547 320.0588073730469 226.42872619628906 312.1446533203125 228.10089111328125 C 304.5 225.99038696289062 299.0096130371094 220.5 296.2915954589844 212.4167938232422 C 298.2706604003906 204.7833709716797 303.74749755859375 199.1875762939453 311.42681884765625 197.08636474609375 C 320.2534484863281 199.22315979003906 325.8050537109375 204.73489379882812 327.92193603515625 212.9257049560547" stroke-width="0.0" fill="rgb(237, 105, 23)" opacity="1.0"/>
    <path d="M 253.09609985351562 451.4270324707031 C 251.28689575195312 459.0770263671875 246.93943786621094 465.7311706542969 238.34339904785156 467.9298095703125 C 230.63571166992188 465.8765563964844 225.11700439453125 460.3670959472656 223.0525360107422 452.54925537109375 C 225.18930053710938 443.8001403808594 230.95220947265625 438.6037902832031 238.88174438476562 436.9265441894531 C 246.47276306152344 439.02020263671875 251.70513916015625 444.6190490722656 253.09609985351562 451.4270324707031" stroke-width="0.0" fill="rgb(52, 9, 4)" opacity="0.9900626"/>
    <path d="M 205.9373016357422 546.492919921875 C 203.8345489501953 555.2716064453125 198.1984405517578 560.6278686523438 189.29421997070312 562.6289672851562 C 181.6505584716797 560.860595703125 176.1648712158203 555.340576171875 174.29345703125 547.6676025390625 C 177.00979614257812 539.5006103515625 182.5120391845703 534.0508422851562 189.94798278808594 532.8330688476562 C 198.3060302734375 533.2639770507812 203.88018798828125 538.6505126953125 205.9373016357422 546.492919921875" stroke-width="0.0" fill="rgb(124, 2, 4)" opacity="0.9900911"/>
    <path d="M 165.90052795410156 434.7475280761719 C 163.8468780517578 442.3194274902344 158.30149841308594 447.79730224609375 150.611328125 448.4844665527344 C 143.05516052246094 446.57220458984375 137.786865234375 440.8274230957031 135.89710998535156 433.33123779296875 C 137.16844177246094 426.5526123046875 142.5044708251953 421.01055908203125 150.00148010253906 418.9993591308594 C 157.54405212402344 420.9927978515625 163.3120574951172 426.35198974609375 165.90052795410156 434.7475280761719" stroke-width="0.0" fill="rgb(147, 26, 21)" opacity="0.99006057"/>
    <path d="M 197.70001220703125 196.6327362060547 C 194.27420043945312 203.75567626953125 188.7469024658203 209.240234375 181.3488006591797 212.61886596679688 C 173.71693420410156 210.76913452148438 168.140869140625 205.31858825683594 166.0754852294922 197.62655639648438 C 168.23199462890625 188.8441162109375 173.9818572998047 183.6199951171875 181.88340759277344 181.92337036132812 C 189.50106811523438 184.00930786132812 195.0420379638672 189.48452758789062 197.70001220703125 196.6327362060547" stroke-width="0.0" fill="rgb(33, 43, 46)" opacity="0.990038"/>
    <path d="M 22.601207733154297 393.5613708496094 C 19.978687286376953 401.4716491699219 14.418842315673828 406.80914306640625 7.120962142944336 408.4139099121094 C -0.4075029492378235 406.7862548828125 -5.978668689727783 401.4682312011719 -8.000238418579102 393.9992370605469 C -5.990381240844727 386.5 -0.5 381.0096130371094 7.028280258178711 378.98504638671875 C 14.74432373046875 380.8656311035156 20.53695297241211 386.11529541015625 22.601207733154297 393.5613708496094" stroke-width="0.0" fill="rgb(212, 206, 184)" opacity="0.9907232"/>
    <path d="M 86.8342056274414 48.826812744140625 C 84.62340545654297 57.03787612915039 79.0306396484375 62.60905838012695 70.41488647460938 64.89183807373047 C 62.7100944519043 62.8057975769043 57.15129089355469 57.30912780761719 55.07599639892578 49.59534454345703 C 57.20310974121094 40.72758865356445 62.72747039794922 35.203453063964844 71.45392608642578 33.10061264038086 C 79.27372741699219 35.176727294921875 84.73263549804688 40.762916564941406 86.8342056274414 48.826812744140625" stroke-width="0.0" fill="rgb(204, 70, 88)" opacity="1.0"/>
    <path d="M 30.308504104614258 222.5934295654297 C 27.780380249023438 230.21556091308594 22.143747329711914 235.55157470703125 14.282707214355469 238.75352478027344 C 6.6884050369262695 236.81666564941406 1.1479324102401733 231.3255157470703 -0.9251704812049866 223.64010620117188 C 1.3802963495254517 215.09567260742188 7.3153862953186035 209.92359924316406 15.83868408203125 207.08827209472656 C 23.336252212524414 209.11801147460938 28.700605392456055 214.72608947753906 30.308504104614258 222.5934295654297" stroke-width="0.0" fill="rgb(64, 61, 42)" opacity="0.99011225"/>
    <path d="M 218.87954711914062 52.680908203125 C 216.59742736816406 60.90964889526367 210.75100708007812 66.20291900634766 202.28564453125 68.80891418457031 C 194.7115478515625 66.83026885986328 189.30393981933594 61.242835998535156 187.2565155029297 52.519046783447266 C 189.2051544189453 44.70685577392578 194.69053649902344 39.161861419677734 202.46266174316406 37.1037712097168 C 211.2220001220703 39.239288330078125 216.75950622558594 44.778011322021484 218.87954711914062 52.680908203125" stroke-width="0.0" fill="rgb(251, 97, 16)" opacity="1.0"/>
    <path d="M 368.0446472167969 365.1432189941406 C 366.1302185058594 371.68927001953125 360.7220458984375 377.2148132324219 353.3330078125 379.2602233886719 C 345.7410888671875 378.7220764160156 340.1480407714844 373.3062744140625 338.05401611328125 364.4625244140625 C 340.1082458496094 356.6282958984375 345.64404296875 351.1479797363281 354.073974609375 349.0822448730469 C 361.82818603515625 351.2493591308594 366.1480712890625 358.1652526855469 368.0446472167969 365.1432189941406" stroke-width="0.0" fill="rgb(45, 32, 25)" opacity="0.9900217"/>
    <path d="M 209.2793731689453 264.37921142578125 C 207.76181030273438 272.4227600097656 202.5267333984375 278.0820617675781 195.24415588378906 279.947998046875 C 187.20413208007812 278.04742431640625 181.37966918945312 272.97308349609375 179.40342712402344 265.5215148925781 C 182.05908203125 257.5193786621094 187.50576782226562 252.01190185546875 195.06539916992188 249.94004821777344 C 202.7443084716797 251.81149291992188 208.4847869873047 257.1529541015625 209.2793731689453 264.37921142578125" stroke-width="0.0" fill="rgb(252, 252, 242)" opacity="1.0"/>
    <path d="M 169.94554138183594 379.16766357421875 C 167.887451171875 387.37335205078125 162.36990356445312 392.87884521484375 154.6566925048828 394.89898681640625 C 145.67803955078125 392.82183837890625 140.13987731933594 387.33636474609375 138.07809448242188 379.5317077636719 C 140.18145751953125 370.69744873046875 145.6863555908203 365.1551208496094 154.6991424560547 363.0511474609375 C 162.3971405029297 365.0935974121094 167.89891052246094 370.6058044433594 169.94554138183594 379.16766357421875" stroke-width="0.0" fill="rgb(128, 60, 53)" opacity="1.0"/>
    <path d="M 72.17958068847656 209.46266174316406 C 69.40567779541016 216.8919677734375 63.856815338134766 222.2970733642578 56.18110656738281 225.77078247070312 C 48.641700744628906 223.8683624267578 43.12392044067383 218.36122131347656 41.05573272705078 210.13134765625 C 43.12926483154297 201.65362548828125 48.66331100463867 196.15203857421875 57.10860824584961 194.080078125 C 65.29104614257812 196.16355895996094 70.69600677490234 201.7575225830078 72.17958068847656 209.46266174316406" stroke-width="0.0" fill="rgb(179, 40, 15)" opacity="0.99021065"/>
    <path d="M 159.06314086914062 566.099365234375 C 157.35275268554688 574.0048217773438 152.1753692626953 579.800537109375 144.3038330078125 581.93798828125 C 135.71438598632812 579.8270263671875 130.2648468017578 574.2528686523438 129.89614868164062 566.76708984375 C 131.83323669433594 559.2955322265625 137.30206298828125 553.8485717773438 144.7312469482422 551.878662109375 C 151.4644775390625 553.114013671875 156.9886474609375 558.50537109375 159.06314086914062 566.099365234375" stroke-width="0.0" fill="rgb(110, 3, 7)" opacity="0.9900293"/>
    <path d="M 303.9029235839844 240.40725708007812 C 301.7165832519531 249.1197052001953 296.0222473144531 254.43589782714844 288.1737976074219 256.1451110839844 C 280.5 253.99038696289062 275.0096130371094 248.5 272.8449401855469 240.7974853515625 C 274.4864196777344 232.87130737304688 279.7596740722656 227.1737823486328 287.8763732910156 225.06581115722656 C 296.3187561035156 227.15768432617188 301.8452453613281 232.67971801757812 303.9029235839844 240.40725708007812" stroke-width="0.0" fill="rgb(215, 128, 95)" opacity="1.0"/>
    <path d="M 202.88134765625 187.7821807861328 C 200.85025024414062 195.29318237304688 195.22003173828125 200.6348114013672 187.3190460205078 202.21241760253906 C 179.55023193359375 199.93597412109375 174.11436462402344 194.43479919433594 171.11041259765625 186.16702270507812 C 173.1094207763672 178.623779296875 178.63497924804688 173.1398468017578 186.28268432617188 171.23916625976562 C 194.51312255859375 174.00437927246094 200.08763122558594 179.4595489501953 202.88134765625 187.7821807861328" stroke-width="0.0" fill="rgb(33, 34, 34)" opacity="0.99031687"/>
    <path d="M 166.9358367919922 406.45001220703125 C 164.8515625 415.3078308105469 159.25770568847656 420.70611572265625 151.36578369140625 422.4495849609375 C 143.2004852294922 420.29693603515625 137.69444274902344 414.8010559082031 135.15794372558594 406.2647705078125 C 137.1435546875 398.651123046875 142.64309692382812 393.1239013671875 150.441162109375 391.0799865722656 C 159.368408203125 393.131103515625 164.88787841796875 398.62451171875 166.9358367919922 406.45001220703125" stroke-width="0.0" fill="rgb(141, 8, 4)" opacity="0.99011874"/>
    <path d="M 37.48634338378906 508.37335205078125 C 35.62950134277344 516.0282592773438 29.915132522583008 521.266357421875 21.671863555908203 523.3740844726562 C 13.926782608032227 521.5342407226562 8.295511245727539 516.133056640625 6.38540506362915 508.3448791503906 C 8.286872863769531 499.78192138671875 13.766057014465332 494.23992919921875 21.599363327026367 492.4754943847656 C 29.644298553466797 494.7756652832031 35.15458297729492 500.3784484863281 37.48634338378906 508.37335205078125" stroke-width="0.0" fill="rgb(246, 241, 221)" opacity="1.0"/>
    <path d="M 223.27967834472656 405.543212890625 C 221.99038696289062 412.5 216.5 417.9903869628906 208.8897247314453 420.0713195800781 C 200.97874450683594 418.3739929199219 195.20497131347656 413.17706298828125 193.06129455566406 405.06768798828125 C 195.20407104492188 396.8182067871094 200.9681854248047 391.613525390625 208.7384033203125 390.09375 C 215.99803161621094 392.4547119140625 221.3505401611328 398.0643615722656 223.27967834472656 405.543212890625" stroke-width="0.0" fill="rgb(143, 13, 13)" opacity="0.99048233"/>
    <path d="M 117.71587371826172 441.3436279296875 C 114.94749450683594 449.48333740234375 109.49664306640625 454.993896484375 102.00989532470703 457.0299377441406 C 94.50000762939453 454.9903869628906 89.0109634399414 449.4996337890625 86.22602081298828 441.32537841796875 C 88.20318603515625 433.71942138671875 93.70790100097656 428.17498779296875 102.22080993652344 426.08245849609375 C 110.32549285888672 428.1538391113281 115.81558990478516 433.6855773925781 117.71587371826172 441.3436279296875" stroke-width="0.0" fill="rgb(182, 175, 160)" opacity="1.0"/>
    <path d="M 193.7571258544922 56.561363220214844 C 191.7825927734375 64.25558471679688 186.2412567138672 69.74394226074219 177.90911865234375 71.85330200195312 C 169.77471923828125 69.74414825439453 164.24632263183594 64.22982788085938 162.34613037109375 56.5526008605957 C 164.6400146484375 47.99129867553711 169.8369598388672 42.21743392944336 177.4109649658203 40.09519958496094 C 186.16525268554688 42.27128601074219 191.57383728027344 47.8882942199707 193.7571258544922 56.561363220214844" stroke-width="0.0" fill="rgb(180, 14, 20)" opacity="0.9900375"/>
    <path d="M 106.91386413574219 335.35382080078125 C 104.85851287841797 344.36541748046875 99.37842559814453 349.8936462402344 91.07649993896484 351.95263671875 C 82.63663482666016 349.88360595703125 77.1424560546875 344.3528747558594 75.08599090576172 335.4511413574219 C 77.11275482177734 327.6136779785156 82.60507202148438 322.0916442871094 90.44978332519531 320.0419921875 C 99.38001251220703 322.1070251464844 104.88552856445312 327.6230163574219 106.91386413574219 335.35382080078125" stroke-width="0.0" fill="rgb(41, 50, 45)" opacity="1.0"/>
    <path d="M 236.60797119140625 482.963134765625 C 234.30113220214844 490.8031311035156 228.8288116455078 496.3790588378906 220.97108459472656 498.527587890625 C 213.14590454101562 496.3892517089844 207.61065673828125 490.8539733886719 205.55052185058594 483.25018310546875 C 208.00738525390625 475.4993896484375 213.49998474121094 470.0096130371094 220.99949645996094 468.0005187988281 C 228.5120391845703 470.00738525390625 234.15167236328125 475.43896484375 236.60797119140625 482.963134765625" stroke-width="0.0" fill="rgb(221, 214, 167)" opacity="0.99059176"/>
    <path d="M 245.28855895996094 44.437129974365234 C 244.29641723632812 51.92955780029297 239.02713012695312 57.61914825439453 230.52137756347656 59.844017028808594 C 222.74807739257812 57.771728515625 217.19261169433594 52.26725769042969 215.13919067382812 44.64637756347656 C 217.6229248046875 36.51029968261719 223.84547424316406 31.543729782104492 230.7733917236328 29.799354553222656 C 237.88436889648438 31.683162689208984 243.349365234375 37.103057861328125 245.28855895996094 44.437129974365234" stroke-width="0.0" fill="rgb(233, 176, 98)" opacity="0.9900531"/>
    <path d="M 270.90631103515625 234.2487335205078 C 268.6298828125 243.12391662597656 263.1605529785156 248.7245330810547 254.8769989013672 250.85455322265625 C 246.7256622314453 248.78976440429688 241.1865234375 243.28338623046875 239.0738525390625 234.47348022460938 C 241.14810180664062 226.69158935546875 246.74122619628906 221.29502868652344 255.7243194580078 219.155517578125 C 263.3392639160156 221.1464385986328 268.8630065917969 226.65689086914062 270.90631103515625 234.2487335205078" stroke-width="0.0" fill="rgb(207, 87, 101)" opacity="1.0"/>
    <path d="M 314.7303466796875 155.63552856445312 C 312.8094787597656 163.2787322998047 307.2521057128906 168.73455810546875 298.48651123046875 170.84664916992188 C 290.76678466796875 168.7781982421875 285.2437438964844 163.22412109375 283.18902587890625 155.49716186523438 C 285.4769592285156 147.14144897460938 291.2886962890625 141.89215087890625 298.977783203125 139.9898223876953 C 306.4945983886719 142.01400756835938 312.0489807128906 147.48768615722656 314.7303466796875 155.63552856445312" stroke-width="0.0" fill="rgb(179, 9, 2)" opacity="0.99005795"/>
    <path d="M 355.8151550292969 329.7080383300781 C 353.8134765625 337.2891845703125 348.29034423828125 342.8166809082031 339.6445007324219 344.91937255859375 C 331.65447998046875 342.8589172363281 326.1391296386719 337.3462829589844 324.08404541015625 329.5621032714844 C 326.2135925292969 320.7906799316406 331.879150390625 315.47314453125 339.7752990722656 313.8186340332031 C 347.5016784667969 316.0090637207031 353.0137939453125 321.4919128417969 355.8151550292969 329.7080383300781" stroke-width="0.0" fill="rgb(213, 115, 20)" opacity="1.0"/>
    <path d="M 252.875244140625 83.42772674560547 C 250.82220458984375 91.30655670166016 245.3095703125 96.82933044433594 236.49684143066406 98.9139404296875 C 228.6858367919922 96.84552001953125 223.18931579589844 91.299560546875 221.15899658203125 83.71737670898438 C 223.72122192382812 75.04163360595703 228.8595428466797 69.2247543334961 236.51341247558594 67.0915756225586 C 245.20794677734375 69.24552154541016 250.7437286376953 74.79659271240234 252.875244140625 83.42772674560547" stroke-width="0.0" fill="rgb(243, 112, 17)" opacity="0.9901636"/>
    <path d="M 222.87744140625 387.1961669921875 C 219.71176147460938 395.25238037109375 214.2869415283203 400.82318115234375 206.6499481201172 403.23455810546875 C 198.76974487304688 401.65216064453125 193.14791870117188 396.2981262207031 191.05279541015625 387.45025634765625 C 193.1018524169922 379.60821533203125 198.6065673828125 374.097900390625 206.41424560546875 372.05511474609375 C 215.37158203125 374.11688232421875 220.8752899169922 379.6316223144531 222.87744140625 387.1961669921875" stroke-width="0.0" fill="rgb(92, 5, 5)" opacity="0.9901042"/>
    <path d="M 184.78326416015625 114.34989929199219 C 182.61264038085938 121.83602905273438 176.41238403320312 126.68016052246094 168.96923828125 128.58462524414062 C 161.67921447753906 126.70897674560547 156.07386779785156 121.39099884033203 153.69760131835938 113.8009262084961 C 155.7708282470703 106.24182891845703 161.20977783203125 100.67161560058594 169.13487243652344 99.21348571777344 C 176.9510955810547 100.49545288085938 182.56634521484375 106.02516174316406 184.78326416015625 114.34989929199219" stroke-width="0.0" fill="rgb(243, 245, 240)" opacity="1.0"/>
    <path d="M 281.8623962402344 463.4580993652344 C 279.7461853027344 471.1952209472656 274.1897888183594 476.7327880859375 266.19482421875 478.84539794921875 C 257.8183898925781 476.7295837402344 252.3219757080078 471.16070556640625 250.23764038085938 463.4858093261719 C 253.01744079589844 455.7057800292969 258.77099609375 450.2957763671875 266.0603942871094 447.9986572265625 C 273.7633056640625 449.85980224609375 279.57513427734375 455.08441162109375 281.8623962402344 463.4580993652344" stroke-width="0.0" fill="rgb(195, 186, 142)" opacity="1.0"/>
    <path d="M 65.18693542480469 554.2312622070312 C 63.53553771972656 562.1283569335938 58.21575164794922 567.7915649414062 50.28826904296875 569.9081420898438 C 41.967674255371094 567.7039184570312 36.603092193603516 561.880859375 34.25605773925781 553.4669189453125 C 36.186317443847656 545.6771850585938 41.661067962646484 540.1415405273438 49.24831771850586 538.1795043945312 C 57.5 541.0096435546875 62.990379333496094 546.5 65.18693542480469 554.2312622070312" stroke-width="0.0" fill="rgb(120, 98, 62)" opacity="0.9901439"/>
    <path d="M 133.6769561767578 458.4891662597656 C 131.08355712890625 466.71331787109375 125.87682342529297 472.5461730957031 118.08594512939453 474.7489929199219 C 109.85995483398438 472.6539306640625 104.30416870117188 467.1548767089844 102.2920150756836 459.56597900390625 C 104.99178314208984 451.48211669921875 110.4857177734375 446.0049743652344 118.3797836303711 443.47772216796875 C 125.99641418457031 445.4888000488281 131.6287384033203 450.9580383300781 133.6769561767578 458.4891662597656" stroke-width="0.0" fill="rgb(199, 190, 154)" opacity="0.9904651"/>
    <path d="M 265.7250061035156 501.6819763183594 C 263.8396301269531 509.3398742675781 258.3468017578125 514.8597412109375 250.65438842773438 516.9105224609375 C 242.06243896484375 514.6251831054688 236.87567138671875 508.7456970214844 234.98841857910156 501.02313232421875 C 237.00961303710938 493.5 242.5 488.0096130371094 250.0 486.0 C 257.5 488.0096130371094 262.9903869628906 493.5 265.7250061035156 501.6819763183594" stroke-width="0.0" fill="rgb(170, 47, 23)" opacity="1.0"/>
    <path d="M 123.94884490966797 136.43527221679688 C 121.87171173095703 145.35836791992188 116.35724639892578 150.86834716796875 108.47431182861328 152.9037628173828 C 99.677734375 150.8275604248047 94.1356430053711 145.33738708496094 92.09446716308594 137.66128540039062 C 94.19197082519531 128.70274353027344 99.69004821777344 123.15941619873047 108.46553802490234 121.05801391601562 C 116.36455535888672 123.1214828491211 121.88432312011719 128.63304138183594 123.94884490966797 136.43527221679688" stroke-width="0.0" fill="rgb(174, 16, 15)" opacity="1.0"/>
    <path d="M 215.70864868164062 300.3681335449219 C 214.68019104003906 308.13543701171875 209.0968017578125 313.5606689453125 201.22018432617188 315.4740905761719 C 193.31520080566406 313.2641296386719 188.09107971191406 307.5821533203125 186.13766479492188 299.9743347167969 C 188.106689453125 292.6038513183594 193.65853881835938 287.2734069824219 201.35430908203125 285.09564208984375 C 208.8426055908203 286.64404296875 214.44703674316406 292.1260070800781 215.70864868164062 300.3681335449219" stroke-width="0.0" fill="rgb(251, 250, 224)" opacity="1.0"/>
    <path d="M 165.92311096191406 428.2181091308594 C 163.40975952148438 436.6802673339844 157.49208068847656 441.9078063964844 150.21942138671875 443.54071044921875 C 142.87498474121094 441.5794982910156 137.45858764648438 436.11224365234375 135.85252380371094 429.500732421875 C 137.62905883789062 421.9367370605469 142.70281982421875 415.8835144042969 150.37081909179688 413.5303039550781 C 158.27540588378906 415.28143310546875 163.8692169189453 420.6728210449219 165.92311096191406 428.2181091308594" stroke-width="0.0" fill="rgb(145, 3, 6)" opacity="0.9901176"/>
    <path d="M 193.94593811035156 397.6135559082031 C 191.8682098388672 406.35003662109375 186.35342407226562 411.8754577636719 178.36766052246094 413.94219970703125 C 169.66038513183594 411.8563232421875 164.1436767578125 406.3398742675781 162.0618896484375 397.3630676269531 C 164.10801696777344 389.6221618652344 169.62435913085938 384.11309814453125 178.02223205566406 382.05255126953125 C 186.36627197265625 384.1211853027344 191.88577270507812 389.6304626464844 193.94593811035156 397.6135559082031" stroke-width="0.0" fill="rgb(148, 11, 11)" opacity="1.0"/>
    <path d="M 299.7753601074219 440.34210205078125 C 297.7446594238281 449.2824401855469 292.32476806640625 454.8636169433594 284.7799072265625 456.8997497558594 C 277.1454772949219 453.5502624511719 271.8370056152344 447.7510070800781 269.7555847167969 440.1373291015625 C 270.15789794921875 432.7042236328125 275.7576904296875 427.31475830078125 284.3033142089844 425.3764953613281 C 292.2916564941406 427.2368469238281 297.84527587890625 432.6807556152344 299.7753601074219 440.34210205078125" stroke-width="0.0" fill="rgb(99, 9, 6)" opacity="0.9900456"/>
    <path d="M 287.7743835449219 334.9459533691406 C 285.6768493652344 343.11834716796875 280.0747985839844 348.55047607421875 271.4000244140625 350.745849609375 C 263.6735534667969 348.82666015625 258.1533203125 343.33331298828125 256.1636047363281 335.693115234375 C 258.7305603027344 327.4557189941406 264.5911560058594 322.1217041015625 272.1143798828125 319.6103210449219 C 279.90789794921875 321.65863037109375 285.6304016113281 326.9884338378906 287.7743835449219 334.9459533691406" stroke-width="0.0" fill="rgb(192, 187, 166)" opacity="1.0"/>
    <path d="M 203.923095703125 251.2162322998047 C 202.0231475830078 258.5126647949219 196.50360107421875 263.99163818359375 188.96116638183594 266.05810546875 C 181.5132598876953 264.0566711425781 176.29588317871094 258.3679504394531 173.67367553710938 250.68460083007812 C 176.46868896484375 244.0520782470703 182.07891845703125 238.5878448486328 189.33843994140625 236.19837951660156 C 196.37353515625 238.0424041748047 201.75241088867188 243.6839141845703 203.923095703125 251.2162322998047" stroke-width="0.0" fill="rgb(249, 249, 239)" opacity="1.0"/>
    <path d="M 323.7101135253906 220.73243713378906 C 321.8132019042969 228.3009796142578 316.3121643066406 233.8407745361328 308.0943298339844 235.91397094726562 C 299.69146728515625 233.83837890625 294.17572021484375 228.30239868164062 292.1056213378906 220.55784606933594 C 294.3327331542969 211.9527587890625 300.06842041015625 206.65867614746094 307.6736145019531 205.388427734375 C 315.1046142578125 207.4407196044922 320.5226135253906 212.90760803222656 323.7101135253906 220.73243713378906" stroke-width="0.0" fill="rgb(241, 148, 63)" opacity="1.0"/>
    <path d="M 20.092435836791992 388.7955017089844 C 17.969324111938477 396.5164794921875 12.553160667419434 402.0942077636719 5.055617809295654 404.20159912109375 C -2.5108156204223633 402.0148010253906 -7.992431640625 396.5043640136719 -9.997712135314941 389.0049743652344 C -7.962729454040527 381.5538024902344 -2.389085531234741 376.21905517578125 5.000500679016113 374.3699645996094 C 12.307357788085938 376.26995849609375 18.13899040222168 381.57965087890625 20.092435836791992 388.7955017089844" stroke-width="0.0" fill="rgb(218, 213, 190)" opacity="0.9905544"/>
    <path d="M 122.90885162353516 260.1579284667969 C 119.95449829101562 268.4224548339844 114.29667663574219 273.5976867675781 106.53483581542969 275.1292724609375 C 98.72147369384766 274.6901550292969 93.12864685058594 269.33294677734375 91.05998992919922 261.0617980957031 C 93.1136474609375 252.61900329589844 98.61038208007812 247.09365844726562 106.6351318359375 245.03822326660156 C 115.39115905761719 247.09658813476562 120.89715576171875 252.6116180419922 122.90885162353516 260.1579284667969" stroke-width="0.0" fill="rgb(24, 25, 23)" opacity="0.9900936"/>
    <path d="M 255.0790252685547 441.74462890625 C 253.3238525390625 449.0490417480469 248.30902099609375 455.0269775390625 241.15647888183594 456.89691162109375 C 233.5507354736328 454.8329162597656 227.4540557861328 449.7587585449219 225.0870361328125 441.4853210449219 C 227.18431091308594 433.7140808105469 232.71214294433594 428.1800537109375 240.53115844726562 426.0885009765625 C 248.87124633789062 428.3180236816406 253.323486328125 434.8904724121094 255.0790252685547 441.74462890625" stroke-width="0.0" fill="rgb(120, 23, 15)" opacity="0.9900402"/>
    <path d="M 133.7326202392578 81.59573364257812 C 131.7776641845703 89.25672149658203 126.26638793945312 94.80199432373047 118.70570373535156 96.87782287597656 C 110.9197006225586 93.60540771484375 105.52790069580078 88.04146575927734 103.60527038574219 80.641357421875 C 104.97351837158203 73.43633270263672 110.41551208496094 67.89883422851562 118.4864501953125 65.344970703125 C 126.06897735595703 67.35758972167969 131.5404815673828 72.96879577636719 133.7326202392578 81.59573364257812" stroke-width="0.0" fill="rgb(209, 94, 29)" opacity="0.9901175"/>
    <path d="M 141.3984375 273.5639343261719 C 138.99066162109375 281.5008544921875 133.5063934326172 287.0106201171875 125.25828552246094 289.8616638183594 C 117.7892837524414 287.803955078125 112.64188385009766 282.0747375488281 110.48593139648438 273.75634765625 C 112.7715835571289 266.4338073730469 118.35652923583984 260.6021423339844 126.81278228759766 258.06329345703125 C 134.3411102294922 260.1163330078125 139.72853088378906 265.7135925292969 141.3984375 273.5639343261719" stroke-width="0.0" fill="rgb(94, 104, 102)" opacity="1.0"/>
    <path d="M 211.41799926757812 327.775146484375 C 208.77391052246094 335.46514892578125 203.77426147460938 341.52685546875 195.4709014892578 343.7776184082031 C 187.69485473632812 341.8375549316406 182.27374267578125 336.26837158203125 180.42034912109375 328.40625 C 182.8964080810547 320.49420166015625 188.53863525390625 315.041748046875 195.96971130371094 313.0288391113281 C 203.6512908935547 314.9061279296875 209.2545166015625 320.3001403808594 211.41799926757812 327.775146484375" stroke-width="0.0" fill="rgb(222, 216, 193)" opacity="1.0"/>
    <path d="M 192.4101104736328 537.7658081054688 C 189.6565399169922 545.1616821289062 184.12254333496094 550.5361328125 176.1603240966797 553.8896484375 C 168.63328552246094 551.8821411132812 163.1268768310547 546.3629150390625 161.12892150878906 538.81787109375 C 164.61328125 531.0973510742188 170.09938049316406 525.6187744140625 177.48974609375 523.4471435546875 C 184.20901489257812 524.8336181640625 189.63720703125 530.8880615234375 192.4101104736328 537.7658081054688" stroke-width="0.0" fill="rgb(201, 82, 2)" opacity="0.99002993"/>
    <path d="M 314.1674499511719 145.5433807373047 C 312.9737854003906 152.5516815185547 307.57354736328125 158.0616455078125 300.12237548828125 159.7566375732422 C 292.5968933105469 157.83474731445312 286.8787841796875 152.48709106445312 284.1065673828125 144.2320098876953 C 286.1466064453125 136.67593383789062 291.698486328125 131.20770263671875 299.314697265625 130.53280639648438 C 306.8730163574219 132.65365600585938 312.2791748046875 138.1515350341797 314.1674499511719 145.5433807373047" stroke-width="0.0" fill="rgb(146, 51, 5)" opacity="0.99003094"/>
    <path d="M 104.42316436767578 575.4585571289062 C 102.72199249267578 583.2432250976562 97.28705596923828 588.8369140625 89.13589477539062 590.9346313476562 C 80.71180725097656 588.8309936523438 75.21392059326172 583.2685546875 73.08689880371094 574.6420288085938 C 75.21492004394531 566.8074340820312 80.91355895996094 561.516357421875 88.82323455810547 560.623779296875 C 96.48413848876953 562.0608520507812 101.99007415771484 567.5015258789062 104.42316436767578 575.4585571289062" stroke-width="0.0" fill="rgb(167, 92, 23)" opacity="0.9901939"/>
    <path d="M 109.91690826416016 15.317676544189453 C 107.50260162353516 23.786020278930664 101.60633850097656 29.0347957611084 93.82239532470703 31.133380889892578 C 85.89987182617188 29.482929229736328 80.20372772216797 24.2083740234375 78.07429504394531 15.491480827331543 C 80.1416244506836 7.655071258544922 85.6498031616211 2.129455804824829 93.47673034667969 0.06665849685668945 C 102.30197143554688 2.1693105697631836 107.83589172363281 7.695761203765869 109.91690826416016 15.317676544189453" stroke-width="0.0" fill="rgb(182, 35, 39)" opacity="1.0"/>
    <path d="M 117.93665313720703 395.4244079589844 C 115.85487365722656 404.33587646484375 110.33320617675781 409.8485107421875 101.61477661132812 411.9350891113281 C 93.65478515625 409.8680114746094 88.14625549316406 404.3392028808594 86.27599334716797 396.83282470703125 C 89.79365539550781 389.27392578125 95.29489135742188 383.848388671875 102.85546875 381.7720947265625 C 110.35597229003906 382.1408386230469 115.8857650756836 387.6333923339844 117.93665313720703 395.4244079589844" stroke-width="0.0" fill="rgb(199, 70, 3)" opacity="0.9900322"/>
    <path d="M 106.34798431396484 186.34739685058594 C 104.66830444335938 193.29696655273438 99.414794921875 199.07383728027344 91.937255859375 201.66201782226562 C 84.46672821044922 199.16583251953125 79.07145690917969 193.45701599121094 77.45538330078125 185.89944458007812 C 78.64347839355469 178.23919677734375 84.20347595214844 172.55873107910156 91.59284210205078 171.6855010986328 C 98.89414978027344 173.58851623535156 104.29886627197266 179.14260864257812 106.34798431396484 186.34739685058594" stroke-width="0.0" fill="rgb(249, 247, 225)" opacity="1.0"/>
    <path d="M 301.174072265625 242.49755859375 C 299.8897705078125 249.7538604736328 294.91302490234375 255.5213623046875 286.48907470703125 257.7891540527344 C 278.76275634765625 255.75914001464844 273.2180480957031 250.24615478515625 271.0998229980469 241.57826232910156 C 273.2145690917969 233.82501220703125 279.0190734863281 229.08432006835938 286.78564453125 227.80938720703125 C 293.9466552734375 229.6017608642578 299.3155822753906 235.0869903564453 301.174072265625 242.49755859375" stroke-width="0.0" fill="rgb(242, 193, 164)" opacity="0.99004203"/>
    <path d="M 227.27061462402344 176.65689086914062 C 225.6959991455078 184.08424377441406 219.97821044921875 189.41261291503906 212.40126037597656 190.7579345703125 C 204.87045288085938 188.6874542236328 199.45269775390625 183.0896759033203 197.24549865722656 175.77297973632812 C 199.0072784423828 168.4957733154297 204.492431640625 162.99595642089844 211.93019104003906 161.0472412109375 C 219.24169921875 163.2069091796875 224.53857421875 168.8417510986328 227.27061462402344 176.65689086914062" stroke-width="0.0" fill="rgb(249, 247, 242)" opacity="1.0"/>
    <path d="M 210.04556274414062 170.6452178955078 C 208.10601806640625 177.66549682617188 202.7132568359375 183.2406768798828 195.52845764160156 185.4623565673828 C 188.3357696533203 184.03451538085938 182.36424255371094 178.91000366210938 180.05198669433594 170.22238159179688 C 182.1092987060547 162.64096069335938 187.6685333251953 157.1746063232422 195.12205505371094 156.89894104003906 C 202.64491271972656 158.89813232421875 208.111328125 164.35076904296875 210.04556274414062 170.6452178955078" stroke-width="0.0" fill="rgb(14, 14, 22)" opacity="0.9900129"/>
    <path d="M 25.952476501464844 92.43052673339844 C 23.90277099609375 100.38855743408203 18.38203239440918 105.8872299194336 10.469839096069336 107.9332504272461 C 1.7296810150146484 105.83387756347656 -3.617967128753662 100.19477081298828 -5.481013774871826 91.82057189941406 C -3.703636407852173 83.73172760009766 1.6732611656188965 78.12747955322266 10.282931327819824 76.05198669433594 C 18.38686752319336 78.10375213623047 23.895221710205078 83.61359405517578 25.952476501464844 92.43052673339844" stroke-width="0.0" fill="rgb(171, 41, 40)" opacity="1.0"/>
    <path d="M 274.42449951171875 105.44915771484375 C 272.725341796875 113.26820373535156 267.3060302734375 118.83968353271484 259.7542419433594 120.79171752929688 C 251.50241088867188 117.97552490234375 246.00900268554688 112.5016098022461 243.69879150390625 104.71051025390625 C 245.4561767578125 96.92408752441406 250.8737335205078 91.30937194824219 258.4447937011719 89.3210220336914 C 266.4996032714844 92.01102447509766 271.9903869628906 97.50003051757812 274.42449951171875 105.44915771484375" stroke-width="0.0" fill="rgb(108, 5, 4)" opacity="0.9903134"/>
    <path d="M 311.8559265136719 408.2402648925781 C 308.99365234375 416.50933837890625 303.53814697265625 422.0910339355469 296.06988525390625 424.1213684082031 C 288.5 421.9903869628906 283.0096130371094 416.5 280.404296875 408.49310302734375 C 282.3186340332031 400.887939453125 287.9636535644531 395.55731201171875 295.9930114746094 393.7890319824219 C 304.1241455078125 395.5163879394531 309.8275146484375 400.7578430175781 311.8559265136719 408.2402648925781" stroke-width="0.0" fill="rgb(19, 24, 25)" opacity="1.0"/>
    <path d="M 298.6584777832031 419.5722351074219 C 296.7534484863281 427.2208557128906 291.1833801269531 432.63165283203125 282.7394714355469 434.3091125488281 C 274.74658203125 432.7226867675781 269.1859436035156 427.283203125 267.06195068359375 418.2745056152344 C 269.09844970703125 410.6063232421875 274.60589599609375 405.0975036621094 282.1559143066406 403.09393310546875 C 290.52471923828125 405.98565673828125 296.0326843261719 411.469970703125 298.6584777832031 419.5722351074219" stroke-width="0.0" fill="rgb(23, 12, 9)" opacity="0.99010575"/>
    <path d="M 201.1973419189453 133.73948669433594 C 198.99038696289062 141.5 193.5 146.99038696289062 186.00086975097656 148.9996795654297 C 178.52920532226562 146.9797821044922 173.3075408935547 141.37379455566406 171.6072998046875 133.26559448242188 C 172.16648864746094 125.65894317626953 177.6404571533203 120.11792755126953 185.94857788085938 118.0523681640625 C 194.29727172851562 120.13713073730469 199.5972137451172 125.79495239257812 201.1973419189453 133.73948669433594" stroke-width="0.0" fill="rgb(97, 13, 12)" opacity="0.9906997"/>
    <path d="M 102.31858825683594 457.4997863769531 C 101.60861206054688 465.151123046875 96.2082290649414 470.7724609375 87.72362518310547 472.90399169921875 C 79.66842651367188 470.8406982421875 74.1342544555664 465.3419189453125 72.07189178466797 457.4544677734375 C 74.15148162841797 448.6669921875 79.66287231445312 443.1413879394531 87.20738983154297 441.1144104003906 C 95.17912292480469 444.2920837402344 100.50260925292969 449.886962890625 102.31858825683594 457.4997863769531" stroke-width="0.0" fill="rgb(151, 94, 66)" opacity="1.0"/>
    <path d="M 200.9940185546875 138.98764038085938 C 198.91514587402344 146.3546905517578 193.2200469970703 151.53250122070312 185.65875244140625 153.24847412109375 C 179.21240234375 151.3262939453125 173.8339080810547 145.73489379882812 171.92254638671875 138.32176208496094 C 173.38209533691406 131.67800903320312 178.55978393554688 126.04847717285156 186.01329040527344 124.01445770263672 C 193.50030517578125 126.00881958007812 198.99041748046875 131.4999237060547 200.9940185546875 138.98764038085938" stroke-width="0.0" fill="rgb(86, 20, 11)" opacity="0.9900418"/>
    <path d="M 317.9495544433594 360.523681640625 C 315.86651611328125 368.3064270019531 310.2279357910156 373.6458740234375 301.9562072753906 374.9621887207031 C 293.8809509277344 373.59271240234375 288.3480529785156 368.13690185546875 286.0763854980469 359.1697692871094 C 288.1068420410156 351.6263732910156 293.6345520019531 346.1258850097656 302.30816650390625 344.058837890625 C 310.3562927246094 346.1258850097656 315.86773681640625 351.64654541015625 317.9495544433594 360.523681640625" stroke-width="0.0" fill="rgb(37, 21, 17)" opacity="0.99004096"/>
    <path d="M 240.9883575439453 120.98107147216797 C 238.9033660888672 128.35986328125 233.2759246826172 133.6450958251953 225.74241638183594 135.59197998046875 C 218.5 133.99038696289062 213.00961303710938 128.5 210.97486877441406 120.98828125 C 212.9944610595703 113.49297332763672 218.4969482421875 108.00821685791016 225.9998016357422 105.99990844726562 C 233.5 108.0096206665039 238.99038696289062 113.5 240.9883575439453 120.98107147216797" stroke-width="0.0" fill="rgb(251, 251, 242)" opacity="0.9937289"/>
    <path d="M 277.8892517089844 492.6745910644531 C 275.86376953125 500.35809326171875 270.36724853515625 505.8860778808594 262.8322448730469 507.90521240234375 C 254.50050354003906 504.9896240234375 249.00978088378906 499.49969482421875 246.4571075439453 491.48370361328125 C 248.2514190673828 483.7293701171875 253.69288635253906 478.15234375 261.23663330078125 476.1070251464844 C 269.9894104003906 478.4742736816406 275.6311340332031 483.9682312011719 277.8892517089844 492.6745910644531" stroke-width="0.0" fill="rgb(162, 56, 10)" opacity="0.99011654"/>
    <path d="M 208.07421875 137.8095703125 C 205.73260498046875 145.1014862060547 199.91461181640625 150.24290466308594 192.27992248535156 152.09152221679688 C 185.02162170410156 151.4334716796875 179.44578552246094 146.01329040527344 177.44850158691406 138.3806915283203 C 179.99317932128906 130.5098876953125 185.53285217285156 125.07183074951172 193.77867126464844 122.11947631835938 C 201.21444702148438 124.1842041015625 206.44178771972656 129.92141723632812 208.07421875 137.8095703125" stroke-width="0.0" fill="rgb(113, 46, 25)" opacity="0.9900915"/>
    <path d="M 17.065153121948242 203.25723266601562 C 14.17500114440918 210.69155883789062 8.675250053405762 216.13055419921875 1.2480254173278809 218.0851287841797 C -5.422241687774658 216.7818145751953 -10.985997200012207 211.48692321777344 -12.999920845031738 203.9996795654297 C -10.99083423614502 196.49879455566406 -5.501712322235107 191.00778198242188 2.6801602840423584 188.2322235107422 C 10.225051879882812 190.2156524658203 15.690468788146973 195.814208984375 17.065153121948242 203.25723266601562" stroke-width="0.0" fill="rgb(235, 208, 142)" opacity="1.0"/>
    <path d="M 39.95546340942383 404.62335205078125 C 37.90803909301758 412.3956298828125 32.391571044921875 417.8985595703125 24.731510162353516 419.9420471191406 C 17.01825714111328 417.53509521484375 11.848464012145996 410.7549743652344 9.94094467163086 403.48028564453125 C 11.816886901855469 397.2348327636719 17.146329879760742 391.4856872558594 24.779376983642578 388.1013488769531 C 32.35744857788086 390.1319885253906 37.878944396972656 395.6380615234375 39.95546340942383 404.62335205078125" stroke-width="0.0" fill="rgb(98, 8, 7)" opacity="0.9900334"/>
    <path d="M 308.99554443359375 390.9920654296875 C 306.9479675292969 398.42364501953125 301.3579406738281 403.7413330078125 293.63470458984375 405.47808837890625 C 285.74078369140625 404.6756591796875 280.1546630859375 399.30963134765625 278.1987609863281 391.73199462890625 C 280.96881103515625 383.4131164550781 286.3133239746094 377.671142578125 293.69232177734375 375.89984130859375 C 301.48858642578125 378.04510498046875 306.9898681640625 383.5016174316406 308.99554443359375 390.9920654296875" stroke-width="0.0" fill="rgb(110, 60, 53)" opacity="0.9913906"/>
    <path d="M 79.92803955078125 359.3326721191406 C 77.78933715820312 368.1934814453125 72.05345153808594 373.309326171875 63.393550872802734 375.2187194824219 C 55.75352096557617 373.76910400390625 50.23763656616211 368.2434387207031 48.14412307739258 359.8729553222656 C 50.22710037231445 351.7470703125 55.745670318603516 346.2238464355469 64.47051239013672 344.1324462890625 C 72.3639144897461 346.1404113769531 77.8886489868164 351.62530517578125 79.92803955078125 359.3326721191406" stroke-width="0.0" fill="rgb(114, 108, 104)" opacity="1.0"/>
    <path d="M 43.53800582885742 125.15071105957031 C 41.337730407714844 132.7822265625 35.75558090209961 138.24595642089844 27.897628784179688 139.1786346435547 C 19.995845794677734 138.49278259277344 14.51272964477539 132.9998321533203 12.718231201171875 125.37559509277344 C 15.136932373046875 117.45773315429688 20.340221405029297 111.7784652709961 28.432207107543945 110.82215881347656 C 35.69218444824219 111.65055084228516 41.13687515258789 117.3851547241211 43.53800582885742 125.15071105957031" stroke-width="0.0" fill="rgb(247, 243, 228)" opacity="1.0"/>
    <path d="M 113.816650390625 40.445892333984375 C 111.71224212646484 48.170677185058594 106.16278839111328 53.69013977050781 97.80294036865234 55.79885482788086 C 89.82476043701172 53.70683288574219 84.30282592773438 48.17173385620117 82.18728637695312 40.199859619140625 C 84.46881866455078 32.1490364074707 90.30891418457031 26.906871795654297 98.01432037353516 24.971174240112305 C 105.71145629882812 26.872825622558594 111.47559356689453 32.1690673828125 113.816650390625 40.445892333984375" stroke-width="0.0" fill="rgb(242, 137, 162)" opacity="1.0"/>
    <path d="M 345.16021728515625 448.22039794921875 C 343.16357421875 455.70440673828125 337.710693359375 461.1810607910156 330.1993103027344 464.7179870605469 C 322.7129821777344 462.815673828125 317.2241516113281 457.271728515625 315.1051330566406 448.3814697265625 C 317.1507873535156 440.6735534667969 322.67529296875 435.15460205078125 331.346435546875 433.06170654296875 C 339.2894287109375 435.1601867675781 344.7413635253906 440.7499694824219 345.16021728515625 448.22039794921875" stroke-width="0.0" fill="rgb(209, 119, 11)" opacity="0.9900738"/>
    <path d="M 154.92967224121094 280.2882995605469 C 152.770751953125 289.21630859375 147.17535400390625 294.6571044921875 138.21165466308594 296.9025573730469 C 130.67933654785156 294.86956787109375 125.32770538330078 289.2547607421875 123.92390441894531 281.34771728515625 C 126.07273864746094 273.4495849609375 131.39964294433594 267.9062194824219 139.5435028076172 266.6202392578125 C 147.3201904296875 267.2054748535156 152.87916564941406 272.649658203125 154.92967224121094 280.2882995605469" stroke-width="0.0" fill="rgb(61, 54, 51)" opacity="1.0"/>
    <path d="M 119.33047485351562 559.8936767578125 C 117.53199005126953 567.1314697265625 112.19850158691406 572.75244140625 104.99008178710938 575.3031005859375 C 97.39950561523438 573.0039672851562 91.616943359375 567.72802734375 89.37902069091797 560.2786254882812 C 91.93769836425781 552.5877075195312 97.68305206298828 547.2741088867188 105.13792419433594 545.2238159179688 C 112.40528869628906 547.0767822265625 117.7041015625 552.665283203125 119.33047485351562 559.8936767578125" stroke-width="0.0" fill="rgb(181, 164, 124)" opacity="0.99008965"/>
    <path d="M 173.7052459716797 48.401649475097656 C 171.37210083007812 56.99970626831055 166.13319396972656 62.74763870239258 158.366943359375 64.8862533569336 C 149.8621826171875 62.6879997253418 144.35887145996094 57.121646881103516 142.13211059570312 48.254798889160156 C 144.1405792236328 40.67620086669922 149.7170867919922 35.26048278808594 157.74659729003906 33.43715286254883 C 166.20037841796875 35.35334396362305 171.77955627441406 40.75745391845703 173.7052459716797 48.401649475097656" stroke-width="0.0" fill="rgb(197, 27, 29)" opacity="0.99008995"/>
    <path d="M 238.6003875732422 108.47004699707031 C 236.1017608642578 116.57275390625 230.48463439941406 121.82438659667969 222.8484649658203 123.65655517578125 C 215.61492919921875 121.89240264892578 209.99354553222656 116.41072845458984 207.1999053955078 108.36946868896484 C 209.20188903808594 100.7068099975586 214.69215393066406 95.16386413574219 222.4654083251953 93.10054779052734 C 231.26455688476562 95.20789337158203 236.74807739257812 100.75082397460938 238.6003875732422 108.47004699707031" stroke-width="0.0" fill="rgb(237, 189, 112)" opacity="1.0"/>
    <path d="M 111.67586517333984 112.58812713623047 C 109.6186294555664 119.86283874511719 103.3809814453125 124.57699584960938 95.40026092529297 127.67279815673828 C 87.8892593383789 125.69032287597656 82.5787353515625 120.02603149414062 81.61041259765625 112.21466064453125 C 83.2088623046875 104.63827514648438 88.60330963134766 99.0809555053711 95.92984771728516 96.51719665527344 C 103.34105682373047 99.14286041259766 108.82678985595703 104.66818237304688 111.67586517333984 112.58812713623047" stroke-width="0.0" fill="rgb(251, 244, 219)" opacity="1.0"/>
    <path d="M 95.90411376953125 151.48333740234375 C 93.78055572509766 160.25486755371094 88.26407623291016 165.8026123046875 80.42485809326172 167.8880157470703 C 71.72814178466797 165.78848266601562 66.18162536621094 160.28387451171875 64.07515716552734 152.11050415039062 C 66.19379425048828 143.73724365234375 71.7429428100586 138.2063446044922 80.56291198730469 136.0773162841797 C 88.34455108642578 138.13983154296875 93.85377502441406 143.6579132080078 95.90411376953125 151.48333740234375" stroke-width="0.0" fill="rgb(236, 104, 84)" opacity="1.0"/>
    <path d="M 339.8968200683594 390.7898254394531 C 337.86175537109375 398.33514404296875 332.32525634765625 403.8387451171875 324.4969787597656 405.9116516113281 C 315.8470764160156 403.7493591308594 310.5190734863281 398.0553894042969 308.8726806640625 390.2768859863281 C 311.1979064941406 382.5834655761719 316.32513427734375 376.55865478515625 323.7317810058594 374.3617248535156 C 331.65289306640625 376.7061767578125 336.965087890625 382.4613342285156 339.8968200683594 390.7898254394531" stroke-width="0.0" fill="rgb(217, 138, 21)" opacity="0.99005246"/>
    <path d="M 29.371213912963867 334.2553405761719 C 27.386150360107422 341.8269958496094 21.785322189331055 347.253173828125 13.801538467407227 349.5016784667969 C 6.2819695472717285 347.28472900390625 0.7984780073165894 341.693359375 -1.3752621412277222 333.79998779296875 C 0.5905022621154785 326.1279296875 6.129538536071777 320.5959167480469 14.282665252685547 318.3672180175781 C 21.87317657470703 320.4969787597656 27.18421173095703 326.2347717285156 29.371213912963867 334.2553405761719" stroke-width="0.0" fill="rgb(204, 201, 202)" opacity="1.0"/>
    <path d="M 287.90966796875 359.1553039550781 C 284.9903869628906 367.5 279.5 372.9903869628906 271.86138916015625 375.0866394042969 C 263.8990173339844 373.4466857910156 258.1581115722656 368.244873046875 256.04156494140625 359.294677734375 C 258.0865478515625 351.5973815917969 263.60797119140625 346.1152648925781 271.34002685546875 344.3489990234375 C 280.3361511230469 346.2037353515625 285.895751953125 351.6302795410156 287.90966796875 359.1553039550781" stroke-width="0.0" fill="rgb(28, 20, 18)" opacity="0.9902099"/>
    <path d="M 71.6762466430664 549.4177856445312 C 69.54783630371094 558.1016235351562 64.17001342773438 563.7421875 56.61810302734375 565.7310791015625 C 48.53544235229492 562.9550170898438 43.05432891845703 557.4618530273438 40.754913330078125 549.697998046875 C 42.401641845703125 541.8202514648438 47.742088317871094 536.1760864257812 56.600196838378906 534.0610961914062 C 64.3636245727539 536.1132202148438 69.82537841796875 541.6590576171875 71.6762466430664 549.4177856445312" stroke-width="0.0" fill="rgb(119, 85, 52)" opacity="1.0"/>
    <path d="M 227.0853729248047 412.3482666015625 C 225.15347290039062 419.73028564453125 219.84666442871094 425.9251708984375 212.29014587402344 428.9312438964844 C 204.63119506835938 426.8790283203125 199.11270141601562 421.37237548828125 197.10606384277344 413.823974609375 C 200.0276336669922 405.50848388671875 205.50491333007812 400.01654052734375 212.96612548828125 398.1714782714844 C 220.2350616455078 400.1708068847656 225.41026306152344 405.9130554199219 227.0853729248047 412.3482666015625" stroke-width="0.0" fill="rgb(152, 20, 20)" opacity="0.9900432"/>
    <path d="M 246.19448852539062 599.661376953125 C 244.9676055908203 606.4930419921875 239.49928283691406 611.9901123046875 231.99996948242188 614.0 C 224.49842834472656 611.9908447265625 218.95968627929688 606.5155029296875 216.1000518798828 598.1879272460938 C 218.1131134033203 590.6220703125 223.61912536621094 585.1060791015625 231.17222595214844 583.0796508789062 C 238.81703186035156 586.6134033203125 244.20303344726562 592.2352294921875 246.19448852539062 599.661376953125" stroke-width="0.0" fill="rgb(107, 111, 113)" opacity="1.0"/>
    <path d="M 292.5240173339844 528.5838012695312 C 290.3568115234375 535.9058227539062 284.9331359863281 541.4436645507812 277.72210693359375 543.7254638671875 C 270.5 541.9903564453125 265.0096130371094 536.5 262.3426208496094 528.3990478515625 C 264.2139892578125 520.71435546875 269.6995544433594 515.1731567382812 277.358154296875 513.1084594726562 C 285.8023681640625 515.503173828125 291.058837890625 521.3596801757812 292.5240173339844 528.5838012695312" stroke-width="0.0" fill="rgb(214, 145, 60)" opacity="1.0"/>
    <path d="M 209.9123077392578 581.6883544921875 C 207.86676025390625 589.34912109375 202.34866333007812 594.8660888671875 194.51731872558594 596.9259643554688 C 185.755615234375 594.8032836914062 180.3096466064453 589.1995239257812 178.20233154296875 580.9996337890625 C 180.3977813720703 572.9817504882812 186.018310546875 567.4954833984375 194.327392578125 565.2981567382812 C 202.1195068359375 567.340576171875 207.67715454101562 572.8743286132812 209.9123077392578 581.6883544921875" stroke-width="0.0" fill="rgb(209, 139, 59)" opacity="1.0"/>
    <path d="M 174.91184997558594 27.28229522705078 C 172.6593780517578 36.037269592285156 166.92356872558594 41.34184646606445 158.68130493164062 43.42082214355469 C 150.74990844726562 41.68441390991211 145.1378631591797 36.31209182739258 143.0605926513672 28.36299705505371 C 145.13162231445312 19.64522933959961 150.64210510253906 14.124381065368652 158.638671875 12.067140579223633 C 167.35536193847656 14.134798049926758 172.8729248046875 19.64137077331543 174.91184997558594 27.28229522705078" stroke-width="0.0" fill="rgb(184, 15, 22)" opacity="0.9901004"/>
    <path d="M 112.88263702392578 26.28644371032715 C 110.15937805175781 34.440120697021484 104.32776641845703 39.75498580932617 96.74751281738281 41.761474609375 C 88.96698760986328 40.42228698730469 83.22737884521484 35.162166595458984 81.1284408569336 27.686477661132812 C 84.14608001708984 19.788808822631836 89.88571166992188 14.497075080871582 97.05531311035156 12.759923934936523 C 104.8408203125 14.298072814941406 110.78514099121094 18.86235809326172 112.88263702392578 26.28644371032715" stroke-width="0.0" fill="rgb(233, 96, 110)" opacity="0.9901367"/>
    <path d="M 225.9239959716797 456.2895202636719 C 223.6359405517578 464.95257568359375 217.7626495361328 470.1388854980469 210.3069610595703 471.6512451171875 C 202.96414184570312 469.4871826171875 197.44447326660156 464.057373046875 194.58843994140625 456.49688720703125 C 196.38328552246094 448.88726806640625 201.8622283935547 443.3144836425781 210.69271850585938 441.1095886230469 C 218.3440399169922 443.1452941894531 223.8709259033203 448.6491394042969 225.9239959716797 456.2895202636719" stroke-width="0.0" fill="rgb(164, 140, 111)" opacity="1.0"/>
    <path d="M 80.48577880859375 278.60577392578125 C 79.75709533691406 286.2833557128906 74.31588745117188 291.8497314453125 66.0417709350586 293.91912841796875 C 57.650794982910156 291.8631591796875 52.138999938964844 286.3482666015625 50.09252166748047 278.6603698730469 C 52.313072204589844 269.9891357421875 58.349754333496094 265.4169616699219 66.35174560546875 263.7597351074219 C 73.10504913330078 265.4072570800781 78.52104949951172 270.9165344238281 80.48577880859375 278.60577392578125" stroke-width="0.0" fill="rgb(236, 129, 49)" opacity="0.9901464"/>
    <path d="M 227.5565948486328 22.05168914794922 C 225.5323944091797 29.169605255126953 220.42959594726562 35.360618591308594 212.71463012695312 37.73668670654297 C 204.930419921875 35.64741134643555 199.51788330078125 30.011531829833984 197.70889282226562 22.254348754882812 C 200.00961303710938 14.5 205.5 9.009618759155273 212.61065673828125 7.459016799926758 C 219.9155731201172 9.621580123901367 225.40357971191406 15.076491355895996 227.5565948486328 22.05168914794922" stroke-width="0.0" fill="rgb(245, 198, 135)" opacity="0.99013233"/>
    <path d="M 259.6816711425781 498.8726806640625 C 257.7771911621094 506.329345703125 252.34701538085938 511.8348083496094 244.223388671875 514.848876953125 C 236.65721130371094 512.8583374023438 231.1456756591797 507.3414611816406 230.61569213867188 499.8511962890625 C 232.8523712158203 492.31585693359375 238.31166076660156 486.84130859375 245.75604248046875 484.75628662109375 C 252.8327178955078 485.4877014160156 258.03839111328125 491.334716796875 259.6816711425781 498.8726806640625" stroke-width="0.0" fill="rgb(122, 8, 5)" opacity="0.9900353"/>
    <path d="M 389.23175048828125 282.8859558105469 C 386.7096252441406 290.23956298828125 381.22357177734375 295.6588439941406 373.6907043457031 297.4597473144531 C 366.3349609375 296.1728820800781 360.7519836425781 290.6904296875 358.7096862792969 283.17364501953125 C 361.0096130371094 275.5 366.5 270.0096130371094 373.7285461425781 268.34332275390625 C 381.0653381347656 270.47930908203125 386.6199951171875 275.90625 389.23175048828125 282.8859558105469" stroke-width="0.0" fill="rgb(236, 236, 240)" opacity="0.9919911"/>
    <path d="M 124.1458969116211 212.3022918701172 C 122.66279602050781 219.84518432617188 118.10173034667969 225.73605346679688 109.20511627197266 227.94680786132812 C 101.62739562988281 225.8950958251953 96.12543487548828 220.36337280273438 94.09697723388672 212.8067169189453 C 97.61026000976562 205.13949584960938 103.17987823486328 199.74229431152344 109.7873306274414 197.8788604736328 C 116.81790161132812 199.74826049804688 122.2834243774414 205.16966247558594 124.1458969116211 212.3022918701172" stroke-width="0.0" fill="rgb(109, 118, 114)" opacity="0.9900346"/>
    <path d="M 285.8428955078125 99.55000305175781 C 283.78826904296875 107.27253723144531 278.2917785644531 112.83306884765625 270.78668212890625 114.87260437011719 C 262.9952392578125 111.46269226074219 257.5861511230469 105.98832702636719 255.71096801757812 98.48431396484375 C 256.62750244140625 91.11061096191406 262.1033020019531 85.6041259765625 269.96490478515625 84.132568359375 C 277.7409973144531 85.74313354492188 283.4759521484375 91.17577362060547 285.8428955078125 99.55000305175781" stroke-width="0.0" fill="rgb(195, 118, 61)" opacity="0.99005455"/>
    <path d="M 47.56818389892578 224.35792541503906 C 45.13203430175781 232.65452575683594 39.69496154785156 238.26475524902344 31.783950805664062 240.63250732421875 C 23.858108520507812 238.59022521972656 18.224851608276367 233.20806884765625 17.40220069885254 225.8203582763672 C 19.8264217376709 218.25363159179688 25.180564880371094 212.56854248046875 32.74837875366211 209.1826171875 C 40.25400924682617 211.1938018798828 45.76095199584961 216.76535034179688 47.56818389892578 224.35792541503906" stroke-width="0.0" fill="rgb(215, 201, 182)" opacity="1.0"/>
    <path d="M 93.274169921875 209.57955932617188 C 91.7333984375 217.4324188232422 86.37043762207031 222.6077423095703 78.40821838378906 224.12960815429688 C 71.29411315917969 223.32302856445312 66.61315155029297 217.2565155029297 64.92301177978516 210.14002990722656 C 66.72246551513672 203.06590270996094 71.90804290771484 197.27613830566406 79.05432891845703 194.5370635986328 C 86.36903381347656 197.11639404296875 91.82427978515625 202.6482391357422 93.274169921875 209.57955932617188" stroke-width="0.0" fill="rgb(249, 249, 236)" opacity="0.9900755"/>
    <path d="M 260.6597900390625 112.13975524902344 C 259.18829345703125 119.65734100341797 253.62484741210938 125.08290100097656 246.03343200683594 127.0137710571289 C 238.619140625 124.93073272705078 233.4288330078125 119.25569915771484 231.32861328125 111.32898712158203 C 232.23382568359375 103.7083740234375 237.671875 98.13518524169922 245.20204162597656 96.10012817382812 C 253.37744140625 99.09896850585938 258.88177490234375 104.62348937988281 260.6597900390625 112.13975524902344" stroke-width="0.0" fill="rgb(168, 49, 26)" opacity="0.99012804"/>
    <path d="M 145.06610107421875 330.6343688964844 C 143.2161102294922 336.8084411621094 137.92080688476562 342.69677734375 130.1855926513672 345.92657470703125 C 122.5992202758789 343.90472412109375 117.09642028808594 338.4003601074219 115.04852294921875 329.4657897949219 C 117.09463500976562 321.60064697265625 122.59874725341797 316.09039306640625 130.1810302734375 314.0606689453125 C 137.92138671875 316.95062255859375 143.1472625732422 323.2463073730469 145.06610107421875 330.6343688964844" stroke-width="0.0" fill="rgb(11, 10, 11)" opacity="0.9900186"/>
    <path d="M 260.89556884765625 127.6255111694336 C 258.8049011230469 135.25234985351562 253.22509765625 140.74087524414062 245.70896911621094 142.61822509765625 C 238.15396118164062 139.32530212402344 232.74459838867188 133.8208770751953 230.8626251220703 126.53697967529297 C 232.14869689941406 119.28433990478516 237.1719970703125 113.63861846923828 244.47256469726562 112.69093322753906 C 252.07078552246094 114.58538818359375 258.3952331542969 119.64260864257812 260.89556884765625 127.6255111694336" stroke-width="0.0" fill="rgb(246, 191, 30)" opacity="0.9900428"/>
    <path d="M 160.81739807128906 307.2064514160156 C 157.41485595703125 314.9153137207031 151.8839874267578 320.31964111328125 144.32821655273438 322.45574951171875 C 136.7443084716797 321.7393493652344 131.14723205566406 316.3016357421875 129.08425903320312 308.7170715332031 C 131.26927185058594 299.7776184082031 136.7803497314453 294.28021240234375 145.7307891845703 292.1263732910156 C 153.35787963867188 294.132568359375 158.86795043945312 299.6417541503906 160.81739807128906 307.2064514160156" stroke-width="0.0" fill="rgb(142, 119, 86)" opacity="0.99010825"/>
    <path d="M 360.87078857421875 317.6090393066406 C 358.6579895019531 326.0436706542969 352.9148254394531 331.2521667480469 345.1762390136719 332.5783386230469 C 337.8325500488281 330.6480407714844 332.4517822265625 325.1343078613281 329.15020751953125 317.19940185546875 C 331.1561279296875 309.6900634765625 336.69622802734375 304.1696472167969 344.5384216308594 302.0919189453125 C 353.2006530761719 304.2528076171875 358.7546081542969 309.79547119140625 360.87078857421875 317.6090393066406" stroke-width="0.0" fill="rgb(225, 156, 76)" opacity="1.0"/>
    <path d="M 316.0848693847656 389.625244140625 C 315.3064270019531 397.1843566894531 310.2753601074219 402.8188781738281 302.6383056640625 404.78387451171875 C 294.19012451171875 402.3968811035156 289.0285339355469 396.6976318359375 287.7889404296875 389.40216064453125 C 289.6494140625 382.1331481933594 295.1752624511719 376.75860595703125 302.04461669921875 374.8614501953125 C 308.7308349609375 376.7950439453125 314.1644287109375 382.2847595214844 316.0848693847656 389.625244140625" stroke-width="0.0" fill="rgb(7, 11, 15)" opacity="0.9900239"/>
    <path d="M 31.064350128173828 285.5471496582031 C 30.76426887512207 293.3403015136719 25.38089942932129 298.906005859375 17.748109817504883 300.9547119140625 C 8.649253845214844 298.8634948730469 3.1353600025177 293.3509521484375 1.0547505617141724 284.43011474609375 C 3.112511396408081 276.6322021484375 8.637045860290527 271.1228942871094 17.536788940429688 269.0485534667969 C 25.368494033813477 271.1026916503906 30.646915435791016 276.6872253417969 31.064350128173828 285.5471496582031" stroke-width="0.0" fill="rgb(11, 6, 7)" opacity="0.9900514"/>
    <path d="M 377.11993408203125 271.0964660644531 C 375.3603210449219 278.10845947265625 370.6297912597656 284.4969787597656 362.5741882324219 286.841064453125 C 354.7701721191406 284.75140380859375 349.24603271484375 279.23065185546875 347.1481628417969 271.2320251464844 C 349.29644775390625 262.8621826171875 354.9175109863281 257.45843505859375 362.5856628417969 255.90830993652344 C 369.9404296875 258.5245361328125 375.2787780761719 264.1266784667969 377.11993408203125 271.0964660644531" stroke-width="0.0" fill="rgb(215, 159, 72)" opacity="0.99011207"/>
    <path d="M 126.7933349609375 537.3212890625 C 124.20862579345703 545.3692626953125 118.17696380615234 550.5333251953125 111.07514953613281 552.2978515625 C 104.03338623046875 550.43896484375 98.6069107055664 544.9498291015625 95.09300994873047 537.1559448242188 C 97.11077880859375 529.6257934570312 102.62922668457031 524.1188354492188 111.33433532714844 522.05517578125 C 119.3696517944336 524.1102294921875 124.84898376464844 529.6461791992188 126.7933349609375 537.3212890625" stroke-width="0.0" fill="rgb(117, 111, 95)" opacity="1.0"/>
    <path d="M 289.3527526855469 382.84747314453125 C 287.2975158691406 390.9344177246094 282.10736083984375 396.7491760253906 273.5844421386719 398.922119140625 C 265.7002258300781 396.83544921875 260.16949462890625 391.29669189453125 258.11956787109375 383.7987365722656 C 261.3921203613281 375.7731628417969 266.6967468261719 370.1551513671875 274.0614929199219 368.0157470703125 C 281.63934326171875 369.91546630859375 287.2973327636719 375.29302978515625 289.3527526855469 382.84747314453125" stroke-width="0.0" fill="rgb(111, 87, 75)" opacity="1.0"/>
    <path d="M 233.3694610595703 475.6973876953125 C 230.93612670898438 483.4599304199219 225.46615600585938 488.9572448730469 217.987548828125 490.9845275878906 C 210.50733947753906 488.9857482910156 205.1334686279297 483.4569091796875 202.87725830078125 475.6736755371094 C 204.62973022460938 468.22784423828125 210.35977172851562 463.10955810546875 218.35189819335938 461.6014709472656 C 226.02667236328125 462.4642639160156 231.5023193359375 467.9852600097656 233.3694610595703 475.6973876953125" stroke-width="0.0" fill="rgb(218, 209, 161)" opacity="0.99047977"/>
    <path d="M 191.11285400390625 477.48211669921875 C 189.9862060546875 485.0757141113281 185.2410430908203 490.82843017578125 177.0601043701172 492.9280090332031 C 168.66546630859375 490.85107421875 163.15182495117188 485.3332824707031 161.10658264160156 477.6651306152344 C 163.55294799804688 469.5583190917969 169.87437438964844 464.5118408203125 176.4906005859375 462.8445129394531 C 183.79425048828125 464.7589416503906 189.238037109375 470.2068786621094 191.11285400390625 477.48211669921875" stroke-width="0.0" fill="rgb(204, 65, 15)" opacity="0.99002475"/>
    <path d="M 229.08468627929688 132.02294921875 C 227.1061248779297 139.569580078125 221.54588317871094 145.0270538330078 213.8229522705078 147.17831420898438 C 206.10348510742188 145.40072631835938 201.3817901611328 139.72996520996094 199.9217529296875 132.18402099609375 C 201.52578735351562 124.59637451171875 206.25094604492188 118.67665100097656 214.21945190429688 116.35449981689453 C 221.86434936523438 118.53702545166016 227.2075958251953 124.21757507324219 229.08468627929688 132.02294921875" stroke-width="0.0" fill="rgb(248, 242, 202)" opacity="0.9900862"/>
    <path d="M 269.9258728027344 275.808837890625 C 267.82965087890625 284.2730712890625 262.2208251953125 289.69549560546875 253.8550567626953 291.8069152832031 C 245.87991333007812 289.66998291015625 240.43780517578125 284.0855712890625 239.1177215576172 275.4515380859375 C 240.188232421875 267.6805419921875 245.66561889648438 262.14569091796875 254.47604370117188 260.0692443847656 C 262.3590087890625 262.126220703125 267.86468505859375 267.6446228027344 269.9258728027344 275.808837890625" stroke-width="0.0" fill="rgb(185, 27, 28)" opacity="0.9900733"/>
    <path d="M 228.7203369140625 150.702880859375 C 226.55516052246094 158.10269165039062 221.12484741210938 163.62782287597656 213.47885131835938 166.4576873779297 C 205.7953643798828 164.7071075439453 200.31900024414062 159.19679260253906 198.12359619140625 150.27928161621094 C 200.16934204101562 142.7320098876953 205.80853271484375 137.39471435546875 213.7586212158203 135.72998046875 C 221.59271240234375 137.88885498046875 226.99993896484375 143.43910217285156 228.7203369140625 150.702880859375" stroke-width="0.0" fill="rgb(253, 250, 236)" opacity="1.0"/>
    <path d="M 290.8206481933594 366.6544189453125 C 288.70806884765625 374.0376281738281 282.7476501464844 378.7457580566406 274.5613708496094 380.8070373535156 C 266.98468017578125 379.4756774902344 261.24078369140625 374.1353759765625 259.1337585449219 366.73699951171875 C 262.0190124511719 358.498779296875 267.4843444824219 352.9692077636719 275.0176086425781 350.7979736328125 C 282.6201171875 352.89697265625 288.17584228515625 358.3568115234375 290.8206481933594 366.6544189453125" stroke-width="0.0" fill="rgb(38, 30, 28)" opacity="0.99023956"/>
    <path d="M 146.73199462890625 244.6536407470703 C 144.80523681640625 252.2713623046875 139.2631072998047 257.7860107421875 130.8440704345703 259.80706787109375 C 122.71041107177734 257.806884765625 117.17449188232422 252.2971649169922 115.10572052001953 244.20489501953125 C 117.2081527709961 235.76939392089844 122.83740997314453 230.41604614257812 130.9966583251953 228.85899353027344 C 138.41371154785156 231.08460998535156 144.01475524902344 236.55770874023438 146.73199462890625 244.6536407470703" stroke-width="0.0" fill="rgb(193, 190, 165)" opacity="1.0"/>
    <path d="M 310.0965881347656 520.88330078125 C 308.1969299316406 527.7395629882812 302.7379455566406 533.1929321289062 295.47113037109375 535.1192626953125 C 288.8280334472656 533.4885864257812 283.1557922363281 528.3006591796875 280.73822021484375 520.6130981445312 C 282.36865234375 512.830078125 287.7743835449219 507.2137756347656 295.50775146484375 505.132568359375 C 303.78582763671875 507.38543701171875 308.2931213378906 513.9302978515625 310.0965881347656 520.88330078125" stroke-width="0.0" fill="rgb(203, 118, 39)" opacity="0.9900163"/>
    <path d="M 168.95254516601562 562.832275390625 C 166.8837890625 571.3580322265625 161.3400421142578 576.8399658203125 153.6863555908203 578.8455810546875 C 145.43679809570312 576.1560668945312 139.991943359375 570.5175170898438 137.84478759765625 562.8856201171875 C 139.62985229492188 554.99658203125 144.85205078125 549.233642578125 153.64942932128906 547.0723266601562 C 161.37527465820312 549.1160888671875 166.89328002929688 554.6207275390625 168.95254516601562 562.832275390625" stroke-width="0.0" fill="rgb(123, 2, 3)" opacity="0.99038196"/>
    <path d="M 287.60791015625 534.5661010742188 C 285.3203125 541.8297729492188 279.798828125 547.2328491210938 272.2518615722656 549.4083251953125 C 264.93902587890625 548.6529541015625 259.4263610839844 543.0263061523438 257.1229553222656 534.400146484375 C 259.195556640625 526.7500610351562 264.8089904785156 521.371337890625 272.6789245605469 519.8079833984375 C 280.5141296386719 522.001708984375 286.0249328613281 527.478515625 287.60791015625 534.5661010742188" stroke-width="0.0" fill="rgb(221, 150, 70)" opacity="0.9907986"/>
    <path d="M 378.3966979980469 248.37188720703125 C 376.6480407714844 255.2222137451172 371.2830810546875 260.85552978515625 363.9425048828125 262.8568115234375 C 356.149658203125 261.28125 350.4886169433594 255.92355346679688 348.2631530761719 247.98587036132812 C 350.4405212402344 239.99147033691406 356.0130920410156 234.50616455078125 363.4664611816406 233.5579833984375 C 370.9358215332031 235.62892150878906 376.3730773925781 241.0637969970703 378.3966979980469 248.37188720703125" stroke-width="0.0" fill="rgb(216, 183, 141)" opacity="0.99006784"/>
    <path d="M 215.94432067871094 13.088991165161133 C 213.98895263671875 20.503551483154297 208.51084899902344 26.01422882080078 200.4111785888672 28.71380615234375 C 192.7957305908203 26.737810134887695 187.31533813476562 21.18583106994629 185.21620178222656 12.876222610473633 C 187.39913940429688 4.999678134918213 193.078125 -0.37561604380607605 200.65447998046875 -1.8460873365402222 C 208.1007080078125 0.45740365982055664 213.690673828125 5.855036735534668 215.94432067871094 13.088991165161133" stroke-width="0.0" fill="rgb(243, 186, 127)" opacity="1.0"/>
    <path d="M 327.9283447265625 420.49615478515625 C 325.842041015625 429.3211364746094 320.3236999511719 434.8481140136719 311.784423828125 436.9366455078125 C 303.6853942871094 434.8512878417969 298.1947937011719 429.295166015625 296.4288024902344 421.741455078125 C 299.6298828125 414.0597229003906 305.0174255371094 408.4918518066406 312.7386779785156 405.1425476074219 C 320.3406677246094 407.15673828125 325.8731384277344 412.64752197265625 327.9283447265625 420.49615478515625" stroke-width="0.0" fill="rgb(173, 67, 16)" opacity="0.99162215"/>
    <path d="M 64.31330108642578 246.12205505371094 C 62.331573486328125 253.81820678710938 56.8405647277832 259.390380859375 49.009376525878906 260.9765930175781 C 41.32160568237305 259.18975830078125 35.95134735107422 253.64175415039062 34.520286560058594 245.72508239746094 C 35.722572326660156 238.29409790039062 41.35297775268555 232.91189575195312 49.13639450073242 230.91085815429688 C 56.785892486572266 232.60975646972656 62.20001220703125 238.27780151367188 64.31330108642578 246.12205505371094" stroke-width="0.0" fill="rgb(247, 250, 220)" opacity="1.0"/>
  </g>
</svg>
