<?xml version="1.0" ?>
<svg xmlns="http://www.w3.org/2000/svg" version="1.1" width="600" height="600">
  <defs/>
  <g>
    <path d="M 345.7327880859375 260.3465576171875 C 342.96063232421875 268.49127197265625 337.49945068359375 273.990234375 330.0 276.0 C 322.5 273.9903869628906 317.0096130371094 268.5 314.9996643066406 260.999267578125 C 317.00439453125 253.48838806152344 322.4722900390625 247.94961547851562 330.0763854980469 245.82089233398438 C 337.95074462890625 247.65306091308594 343.70025634765625 252.92247009277344 345.7327880859375 260.3465576171875" stroke-width="0.0" fill="rgb(168, 16, 9)" opacity="0.9908288"/>
    <path d="M 580.058349609375 177.0102081298828 C 578.2005615234375 184.80941772460938 572.9447631835938 190.58773803710938 565.5264892578125 192.7476348876953 C 557.9929809570312 189.53506469726562 552.580322265625 183.97291564941406 550.43505859375 176.6407012939453 C 552.0062255859375 169.4898681640625 557.447509765625 163.8662567138672 565.5352172851562 161.17100524902344 C 572.9520874023438 163.3821258544922 578.1759643554688 169.21070861816406 580.058349609375 177.0102081298828" stroke-width="0.0" fill="rgb(241, 147, 34)" opacity="0.9902309"/>
    <path d="M 594.0099487304688 312.01971435546875 C 592.1008911132812 319.70074462890625 586.8448486328125 325.5088195800781 579.4345092773438 327.61456298828125 C 571.5 324.9903869628906 566.0096435546875 319.5 563.9421997070312 311.9073791503906 C 565.6732788085938 304.03570556640625 570.9025268554688 298.2862854003906 578.3927001953125 296.2628479003906 C 586.5 299.0096130371094 591.9903564453125 304.5 594.0099487304688 312.01971435546875" stroke-width="0.0" fill="rgb(133, 5, 7)" opacity="1.0"/>
    <path d="M 470.39044189453125 189.78953552246094 C 468.753662109375 197.6204071044922 463.814208984375 203.42813110351562 456.2695617675781 205.3421173095703 C 448.5 202.99038696289062 443.0096130371094 197.5 440.1657409667969 189.2799835205078 C 442.2057800292969 181.7855987548828 447.884033203125 176.50531005859375 455.8541259765625 175.0384979248047 C 463.49920654296875 177.0098419189453 468.96136474609375 182.50875854492188 470.39044189453125 189.78953552246094" stroke-width="0.0" fill="rgb(206, 128, 140)" opacity="1.0"/>
    <path d="M 541.750732421875 360.2123718261719 C 539.6546630859375 368.11077880859375 534.1114501953125 373.6570129394531 525.9390869140625 375.83453369140625 C 517.9219360351562 373.62249755859375 512.2672729492188 368.1314392089844 510.18212890625 360.60211181640625 C 512.3267822265625 351.8842468261719 517.9112548828125 346.39337158203125 525.501220703125 344.4912414550781 C 533.8629760742188 346.76580810546875 539.5982055664062 352.0178527832031 541.750732421875 360.2123718261719" stroke-width="0.0" fill="rgb(234, 222, 175)" opacity="1.0"/>
    <path d="M 387.8186340332031 336.5838928222656 C 385.683837890625 344.0417175292969 379.8852233886719 349.2480163574219 372.06158447265625 351.0361633300781 C 364.5 348.9903869628906 359.0096130371094 343.5 357.02825927734375 336.0417175292969 C 359.17724609375 328.7475891113281 364.8763732910156 323.5455627441406 371.8741455078125 321.8434143066406 C 378.9629821777344 323.6347351074219 384.6758728027344 328.951171875 387.8186340332031 336.5838928222656" stroke-width="0.0" fill="rgb(245, 176, 38)" opacity="0.99006003"/>
    <path d="M 430.9042663574219 198.44224548339844 C 428.7158203125 206.3551025390625 423.43438720703125 211.95962524414062 415.99554443359375 213.99807739257812 C 408.5 211.99041748046875 403.0096130371094 206.5 401.0 199.0 C 403.0096130371094 191.5 408.5 186.00961303710938 416.0799865722656 183.9384002685547 C 423.8684997558594 185.7374267578125 429.6293640136719 191.00274658203125 430.9042663574219 198.44224548339844" stroke-width="0.0" fill="rgb(236, 234, 191)" opacity="1.0"/>
    <path d="M 337.0 268.0 C 334.9903869628906 275.5 329.5 280.9903869628906 322.0 283.0 C 314.5 280.9903869628906 309.0096130371094 275.5 307.0 268.0 C 309.0096130371094 260.5 314.5 255.00961303710938 322.0 253.0 C 329.5 255.00961303710938 334.9903869628906 260.5 337.0 268.0" stroke-width="0.0" fill="rgb(155, 57, 28)" opacity="1.0"/>
    <path d="M 607.0018920898438 198.00294494628906 C 605.0036010742188 205.52059936523438 599.531005859375 211.03843688964844 591.8784790039062 213.15101623535156 C 584.0315551757812 211.37673950195312 578.2944946289062 206.0873260498047 576.205322265625 198.64349365234375 C 579.0096435546875 190.5 584.5 185.00961303710938 592.0 183.0 C 599.5 185.00961303710938 604.9903564453125 190.5 607.0018920898438 198.00294494628906" stroke-width="0.0" fill="rgb(252, 197, 128)" opacity="1.0"/>
    <path d="M 335.313232421875 229.7598876953125 C 332.9903869628906 237.5 327.5 242.99038696289062 320.0 245.0 C 312.5 242.99038696289062 307.0096130371094 237.5 304.76202392578125 230.03346252441406 C 307.35699462890625 222.88304138183594 312.9215393066406 217.48641967773438 320.18634033203125 215.5463104248047 C 327.6450500488281 217.14488220214844 333.3890686035156 222.208984375 335.313232421875 229.7598876953125" stroke-width="0.0" fill="rgb(246, 221, 167)" opacity="0.9905448"/>
    <path d="M 573.3511962890625 277.9948425292969 C 571.1157836914062 285.69036865234375 565.7653198242188 291.35595703125 558.176025390625 293.2427978515625 C 550.4903564453125 291.003662109375 544.99169921875 285.5116271972656 542.991455078125 278.0072326660156 C 545.0079345703125 270.4955749511719 550.4800415039062 264.95355224609375 557.762451171875 262.810791015625 C 565.322265625 265.26953125 570.914306640625 270.62152099609375 573.3511962890625 277.9948425292969" stroke-width="0.0" fill="rgb(247, 246, 220)" opacity="0.9912998"/>
    <path d="M 516.150390625 245.0819854736328 C 514.0126953125 252.50721740722656 508.5011291503906 257.9907531738281 501.0000305175781 260.0 C 493.5 257.9903869628906 488.0096130371094 252.5 486.0 245.0 C 488.0096130371094 237.5 493.5 232.00961303710938 501.0118713378906 229.99217224121094 C 508.5676574707031 231.96127319335938 514.0603637695312 237.4244384765625 516.150390625 245.0819854736328" stroke-width="0.0" fill="rgb(229, 221, 184)" opacity="0.9904766"/>
    <path d="M 516.0001831054688 268.99957275390625 C 513.9903564453125 276.5 508.5 281.9903869628906 501.0 284.0 C 493.5 281.9903869628906 488.0096130371094 276.5 486.0 269.0 C 488.0096130371094 261.5 493.4999694824219 256.00946044921875 500.9252624511719 254.1442108154297 C 508.5062561035156 256.0057067871094 513.9931030273438 261.4944763183594 516.0001831054688 268.99957275390625" stroke-width="0.0" fill="rgb(251, 248, 231)" opacity="0.9938065"/>
    <path d="M 413.4671325683594 204.3563232421875 C 412.10235595703125 211.65179443359375 406.66241455078125 217.12664794921875 398.7362365722656 218.40786743164062 C 391.5 216.99038696289062 386.0096130371094 211.5 384.0 204.0 C 386.0096130371094 196.5 391.5 191.00961303710938 398.9917297363281 189.0038299560547 C 406.3873291015625 191.06455993652344 411.59356689453125 196.73016357421875 413.4671325683594 204.3563232421875" stroke-width="0.0" fill="rgb(70, 15, 11)" opacity="0.99017173"/>
    <path d="M 367.1481018066406 226.97177124023438 C 365.0388488769531 234.53140258789062 359.52081298828125 240.00291442871094 352.0020751953125 241.99998474121094 C 344.5 239.99038696289062 339.0096130371094 234.5 336.6424560546875 226.72657775878906 C 338.5450134277344 219.067626953125 344.0758972167969 213.57028198242188 352.4376525878906 211.33544921875 C 359.9403991699219 213.43463134765625 365.23614501953125 219.1716766357422 367.1481018066406 226.97177124023438" stroke-width="0.0" fill="rgb(250, 242, 193)" opacity="1.0"/>
    <path d="M 482.0304260253906 144.95062255859375 C 479.9903869628906 152.5 474.5 157.99038696289062 467.0493469238281 159.9704132080078 C 459.8250427246094 157.7779541015625 454.66290283203125 152.01377868652344 452.8424377441406 144.34994506835938 C 453.7369689941406 137.72100830078125 460.0323486328125 132.7272186279297 467.74786376953125 130.77444458007812 C 474.9490966796875 131.4066619873047 480.19671630859375 137.18980407714844 482.0304260253906 144.95062255859375" stroke-width="0.0" fill="rgb(126, 24, 22)" opacity="0.9900229"/>
    <path d="M 527.0442504882812 154.06849670410156 C 525.2084350585938 161.78736877441406 519.89208984375 167.51760864257812 512.4228515625 169.6540985107422 C 504.185546875 167.25437927246094 498.61767578125 161.85403442382812 497.06903076171875 154.12899780273438 C 499.0096130371094 146.5 504.5 141.00961303710938 511.9844970703125 139.01950073242188 C 519.4703979492188 141.04666137695312 524.9710693359375 146.52423095703125 527.0442504882812 154.06849670410156" stroke-width="0.0" fill="rgb(246, 243, 196)" opacity="1.0"/>
    <path d="M 610.9963989257812 292.9920654296875 C 608.9341430664062 300.3807373046875 603.2338256835938 305.52783203125 595.5274047851562 307.26263427734375 C 588.5203247070312 305.9672546386719 583.1724243164062 300.436279296875 581.6636962890625 292.7889404296875 C 582.994873046875 285.4897766113281 588.4937744140625 280.0072326660156 595.999755859375 277.99993896484375 C 603.5 280.0096130371094 608.9903564453125 285.5 610.9963989257812 292.9920654296875" stroke-width="0.0" fill="rgb(215, 58, 33)" opacity="0.9901141"/>
    <path d="M 603.9063110351562 221.09103393554688 C 601.9903564453125 228.5 596.5 233.99038696289062 588.6559448242188 236.4084930419922 C 581.0158081054688 234.5426483154297 575.6497192382812 228.92440795898438 573.6121826171875 220.72023010253906 C 575.380126953125 212.8477325439453 580.8148193359375 207.27847290039062 588.52490234375 205.2345428466797 C 596.37744140625 207.908203125 601.7692260742188 213.70098876953125 603.9063110351562 221.09103393554688" stroke-width="0.0" fill="rgb(228, 109, 44)" opacity="1.0"/>
    <path d="M 501.62115478515625 150.57569885253906 C 499.778564453125 158.2900848388672 494.3180847167969 163.85301208496094 486.6450500488281 165.92652893066406 C 477.95733642578125 163.70335388183594 472.7908630371094 157.8560333251953 470.9758605957031 150.04498291015625 C 473.0096130371094 142.5 478.5 137.00961303710938 486.0 135.0 C 493.5 137.00961303710938 498.9903869628906 142.5 501.62115478515625 150.57569885253906" stroke-width="0.0" fill="rgb(142, 26, 21)" opacity="1.0"/>
    <path d="M 391.003662109375 219.00128173828125 C 388.97222900390625 226.4369354248047 383.3370361328125 231.6737823486328 375.262939453125 234.7891387939453 C 367.8338928222656 232.77610778808594 362.5469970703125 227.0409698486328 360.2184143066406 218.63278198242188 C 362.54150390625 211.2431182861328 368.4008483886719 205.96771240234375 375.9952697753906 203.99810791015625 C 383.5 206.00961303710938 388.9903869628906 211.5 391.003662109375 219.00128173828125" stroke-width="0.0" fill="rgb(243, 211, 110)" opacity="0.9903918"/>
    <path d="M 359.42071533203125 325.3094177246094 C 357.9901428222656 332.4991455078125 352.48809814453125 337.9505310058594 345.2680358886719 339.40545654296875 C 338.0936279296875 337.4052429199219 332.6299743652344 331.89422607421875 329.8196716308594 324.6061096191406 C 331.802001953125 317.40570068359375 337.4672546386719 311.99652099609375 344.99822998046875 309.9996032714844 C 352.4848327636719 312.014892578125 357.8034362792969 317.5718994140625 359.42071533203125 325.3094177246094" stroke-width="0.0" fill="rgb(198, 25, 14)" opacity="0.9900588"/>
    <path d="M 326.13787841796875 248.63424682617188 C 324.5721740722656 256.29058837890625 319.4327392578125 261.9630432128906 312.1431579589844 263.8031921386719 C 304.7586364746094 261.7054443359375 299.3275146484375 256.23193359375 297.43780517578125 248.88572692871094 C 299.1061096191406 241.53231811523438 304.5046691894531 236.0115203857422 312.0013122558594 234.0000457763672 C 319.51513671875 236.00265502929688 324.922119140625 241.5047607421875 326.13787841796875 248.63424682617188" stroke-width="0.0" fill="rgb(250, 232, 186)" opacity="0.9901331"/>
    <path d="M 436.8722229003906 212.4762725830078 C 434.6139221191406 220.96217346191406 428.8105163574219 226.19081115722656 420.4571533203125 228.71966552734375 C 412.8150939941406 226.71554565429688 407.3246765136719 221.17127990722656 405.4257507324219 212.89256286621094 C 407.2982482910156 204.81396484375 412.8336486816406 199.36203002929688 421.2039489746094 197.31918334960938 C 429.06500244140625 199.40379333496094 434.7074279785156 204.887939453125 436.8722229003906 212.4762725830078" stroke-width="0.0" fill="rgb(223, 178, 146)" opacity="1.0"/>
    <path d="M 351.611328125 238.2890167236328 C 349.9754638671875 245.4671173095703 344.4196472167969 250.82183837890625 336.6856384277344 252.80325317382812 C 329.02569580078125 251.44361877441406 323.4881286621094 245.99520874023438 321.8399658203125 238.36460876464844 C 324.20928955078125 230.37765502929688 329.0170593261719 224.2932891845703 336.7670593261719 222.07289123535156 C 344.97198486328125 224.29481506347656 349.58966064453125 230.5274200439453 351.611328125 238.2890167236328" stroke-width="0.0" fill="rgb(105, 19, 14)" opacity="0.99007756"/>
    <path d="M 510.00006103515625 273.00006103515625 C 507.9920654296875 280.5048828125 502.52581787109375 286.06451416015625 495.1531066894531 288.4154357910156 C 487.5579833984375 285.9365234375 482.0069274902344 280.45770263671875 479.5155334472656 272.7567138671875 C 481.6720275878906 265.3020935058594 487.3955993652344 259.9544677734375 494.9912414550781 257.9937438964844 C 502.5008544921875 260.00811767578125 507.99066162109375 265.4994812011719 510.00006103515625 273.00006103515625" stroke-width="0.0" fill="rgb(255, 254, 228)" opacity="0.99158704"/>
    <path d="M 577.2319946289062 211.50701904296875 C 575.4151000976562 219.1138458251953 570.2804565429688 224.86737060546875 562.6839599609375 227.31695556640625 C 554.9569091796875 225.54489135742188 549.4738159179688 220.03732299804688 547.6926879882812 212.25807189941406 C 549.901611328125 204.404296875 555.4461059570312 199.05850219726562 562.9718017578125 197.70703125 C 570.1620483398438 199.3838348388672 575.7418823242188 204.80059814453125 577.2319946289062 211.50701904296875" stroke-width="0.0" fill="rgb(250, 246, 240)" opacity="1.0"/>
    <path d="M 548.4155883789062 395.8407287597656 C 546.4285888671875 402.976806640625 540.9712524414062 408.4107971191406 533.5899658203125 410.4775390625 C 526.4667358398438 408.8734130859375 520.725830078125 403.66241455078125 518.6005249023438 396.0108947753906 C 520.6297607421875 388.04022216796875 525.9453125 382.3487854003906 533.5526123046875 380.36126708984375 C 541.5585327148438 382.8165283203125 546.7059936523438 388.6084899902344 548.4155883789062 395.8407287597656" stroke-width="0.0" fill="rgb(253, 218, 145)" opacity="0.9900696"/>
    <path d="M 366.0103759765625 312.0548400878906 C 364.12347412109375 319.626220703125 358.50250244140625 324.72509765625 351.65509033203125 326.10040283203125 C 344.25543212890625 324.1800842285156 338.7069091796875 318.78399658203125 336.4283752441406 311.553955078125 C 337.813232421875 304.2195739746094 343.1097717285156 298.4854736328125 350.5617370605469 296.36846923828125 C 358.35858154296875 299.2029113769531 363.9241943359375 304.6020202636719 366.0103759765625 312.0548400878906" stroke-width="0.0" fill="rgb(246, 232, 176)" opacity="0.9900442"/>
    <path d="M 411.0 186.0 C 408.9903869628906 193.5 403.5 198.99038696289062 395.9947814941406 201.0059051513672 C 388.50665283203125 198.9990234375 383.1475830078125 193.4482879638672 380.8342590332031 185.7530517578125 C 382.9423828125 178.47683715820312 388.4957580566406 173.0081787109375 395.9999084472656 170.99996948242188 C 403.5 173.00961303710938 408.9903869628906 178.5 411.0 186.0" stroke-width="0.0" fill="rgb(251, 239, 208)" opacity="0.9961649"/>
    <path d="M 393.6236572265625 169.69435119628906 C 391.92498779296875 177.4532470703125 386.39898681640625 182.7626495361328 378.5633544921875 184.46255493164062 C 371.2436828613281 183.391845703125 365.9281311035156 177.6490478515625 364.4185485839844 170.41119384765625 C 366.68194580078125 163.18707275390625 372.21929931640625 157.7774658203125 379.75054931640625 154.8382568359375 C 387.0721435546875 156.32423400878906 392.4471130371094 162.01283264160156 393.6236572265625 169.69435119628906" stroke-width="0.0" fill="rgb(224, 124, 35)" opacity="0.9900636"/>
    <path d="M 428.191650390625 323.3814392089844 C 426.5521545410156 330.5517272949219 421.96240234375 336.6526794433594 414.4352722167969 338.7099304199219 C 405.79266357421875 336.61956787109375 400.15338134765625 331.285400390625 398.12164306640625 323.78765869140625 C 401.0096130371094 315.5 406.5 310.0096130371094 413.72662353515625 308.2834777832031 C 420.9441223144531 310.5436706542969 426.31121826171875 316.1051025390625 428.191650390625 323.3814392089844" stroke-width="0.0" fill="rgb(174, 133, 107)" opacity="0.99072355"/>
    <path d="M 614.0 241.00001525878906 C 611.9906616210938 248.5009765625 606.5101318359375 254.0236053466797 599.1253662109375 256.38909912109375 C 591.4962768554688 254.00184631347656 586.0094604492188 248.5006103515625 584.0 241.00001525878906 C 586.0096435546875 233.5 591.5 228.00961303710938 599.0 226.0 C 606.5 228.00961303710938 611.9903564453125 233.5 614.0 241.00001525878906" stroke-width="0.0" fill="rgb(235, 144, 48)" opacity="1.0"/>
    <path d="M 595.544677734375 177.7427215576172 C 592.9957275390625 185.5015869140625 587.5001220703125 190.9904327392578 580.0291748046875 192.97642517089844 C 572.6399536132812 190.88589477539062 567.2933349609375 185.3037109375 565.6032104492188 178.1417236328125 C 567.4369506835938 170.82608032226562 572.7589721679688 165.23814392089844 579.5814819335938 163.66871643066406 C 587.0432739257812 165.58334350585938 593.036376953125 170.8041229248047 595.544677734375 177.7427215576172" stroke-width="0.0" fill="rgb(250, 179, 112)" opacity="0.99008507"/>
    <path d="M 411.0 278.0 C 408.9903869628906 285.5 403.5 290.9903869628906 395.9952697753906 293.00201416015625 C 388.4102783203125 291.029296875 382.5811767578125 285.72991943359375 380.3232116699219 278.4476318359375 C 383.0096130371094 270.5 388.5 265.0096130371094 396.0 263.0 C 403.5 265.0096130371094 408.9903869628906 270.5 411.0 278.0" stroke-width="0.0" fill="rgb(148, 37, 46)" opacity="0.9905859"/>
    <path d="M 328.11151123046875 239.33828735351562 C 326.2843017578125 246.96282958984375 321.1378479003906 252.74021911621094 313.92987060546875 254.92825317382812 C 306.5224609375 252.97669982910156 301.1121826171875 247.4512176513672 299.1606140136719 239.9936981201172 C 301.1340637207031 232.52845764160156 306.45068359375 226.88851928710938 313.9537658691406 224.72666931152344 C 321.6429443359375 226.89414978027344 327.1296691894531 232.34632873535156 328.11151123046875 239.33828735351562" stroke-width="0.0" fill="rgb(251, 237, 182)" opacity="0.99010223"/>
    <path d="M 557.0639038085938 270.5198974609375 C 555.119873046875 277.6565856933594 549.6588745117188 283.1254577636719 542.2215576171875 285.1356506347656 C 535.0909423828125 284.2513732910156 529.2506103515625 279.09918212890625 527.1207885742188 271.677490234375 C 529.3063354492188 262.75482177734375 534.7059936523438 257.16253662109375 542.3504028320312 255.1636505126953 C 550.001708984375 257.685791015625 555.1844482421875 264.20037841796875 557.0639038085938 270.5198974609375" stroke-width="0.0" fill="rgb(138, 28, 17)" opacity="0.9900138"/>
    <path d="M 609.001953125 242.00387573242188 C 607.0144653320312 249.54873657226562 601.603515625 255.18939208984375 594.1639404296875 257.3030090332031 C 586.492431640625 254.9929656982422 580.906494140625 249.53720092773438 578.1668701171875 241.38265991210938 C 580.3330078125 234.01510620117188 586.2164306640625 228.85342407226562 593.97314453125 226.98692321777344 C 601.5 229.00961303710938 606.9903564453125 234.5 609.001953125 242.00387573242188" stroke-width="0.0" fill="rgb(215, 125, 31)" opacity="1.0"/>
    <path d="M 597.80517578125 258.69390869140625 C 595.727783203125 266.1112976074219 589.9827880859375 271.36627197265625 582.7258911132812 272.1875 C 575.299560546875 270.1609191894531 569.8147583007812 264.7093811035156 566.219482421875 257.1427307128906 C 568.1248779296875 249.64125061035156 573.6528930664062 244.1562957763672 581.302001953125 242.2050018310547 C 589.3204345703125 245.0967254638672 594.638671875 250.7593231201172 597.80517578125 258.69390869140625" stroke-width="0.0" fill="rgb(173, 75, 8)" opacity="0.9900208"/>
    <path d="M 506.79168701171875 131.26304626464844 C 503.9903869628906 139.5 498.5 144.99038696289062 491.0 147.0 C 483.5 144.99038696289062 478.0096740722656 139.49998474121094 475.9081726074219 131.94712829589844 C 477.9770812988281 124.4743881225586 483.444580078125 118.8804931640625 491.70843505859375 116.22587585449219 C 499.3507080078125 118.14871978759766 504.8617248535156 123.64540100097656 506.79168701171875 131.26304626464844" stroke-width="0.0" fill="rgb(178, 38, 13)" opacity="0.9907278"/>
    <path d="M 422.15704345703125 262.12567138671875 C 420.21246337890625 269.7099304199219 414.7070007324219 275.2008361816406 407.08477783203125 277.0683288574219 C 399.2806396484375 275.07562255859375 393.4503173828125 269.8844909667969 391.4610290527344 262.4938049316406 C 394.11688232421875 254.4980010986328 399.44842529296875 248.94822692871094 406.9794006347656 246.97991943359375 C 414.5118103027344 249.00332641601562 420.01177978515625 254.4833526611328 422.15704345703125 262.12567138671875" stroke-width="0.0" fill="rgb(251, 252, 232)" opacity="0.99025655"/>
    <path d="M 488.44580078125 116.5345687866211 C 487.0516357421875 123.52818298339844 481.5653076171875 129.16575622558594 473.4668884277344 131.8221893310547 C 466.07159423828125 129.6127166748047 460.87249755859375 123.74468994140625 458.9869689941406 116.02499389648438 C 461.0096130371094 108.5 466.5 103.0096206665039 473.350830078125 101.72614288330078 C 480.72235107421875 103.81877899169922 486.24078369140625 109.25812530517578 488.44580078125 116.5345687866211" stroke-width="0.0" fill="rgb(185, 46, 25)" opacity="0.99005747"/>
    <path d="M 502.9805908203125 194.02706909179688 C 500.9903869628906 201.5 495.5 206.99038696289062 487.71954345703125 209.4808349609375 C 480.29193115234375 207.3060302734375 474.78753662109375 201.6740264892578 472.849853515625 194.37274169921875 C 475.2822570800781 186.59890747070312 480.419189453125 180.77645874023438 487.7421569824219 178.5267333984375 C 495.31597900390625 181.24850463867188 500.8871765136719 186.6420135498047 502.9805908203125 194.02706909179688" stroke-width="0.0" fill="rgb(245, 242, 201)" opacity="0.9906764"/>
    <path d="M 385.0007019042969 352.0018005371094 C 383.00714111328125 359.54144287109375 377.6047668457031 365.2063293457031 370.0880126953125 366.5713195800781 C 362.8939514160156 364.6701965332031 357.60784912109375 359.0142517089844 355.8210144042969 351.5619201660156 C 357.1085510253906 344.5318603515625 362.5033264160156 339.0106201171875 370.0000305175781 337.0 C 377.5 339.0096130371094 382.9903869628906 344.5 385.0007019042969 352.0018005371094" stroke-width="0.0" fill="rgb(201, 20, 12)" opacity="0.99007815"/>
    <path d="M 512.0003662109375 228.99905395507812 C 509.9903869628906 236.5 504.5 241.99038696289062 496.9765930175781 244.0117950439453 C 489.2550964355469 242.12452697753906 483.38580322265625 236.9300994873047 481.2021484375 229.1893310546875 C 483.3012390136719 220.93988037109375 489.0773010253906 215.6451873779297 496.89947509765625 213.36610412597656 C 504.5730895996094 215.83758544921875 509.9993591308594 221.47738647460938 512.0003662109375 228.99905395507812" stroke-width="0.0" fill="rgb(241, 233, 209)" opacity="1.0"/>
    <path d="M 470.5582580566406 275.670654296875 C 468.0955810546875 283.7153625488281 462.9001770019531 289.588623046875 454.6907043457031 291.8412780761719 C 446.76953125 289.7723388671875 441.2505798339844 284.22100830078125 439.19403076171875 275.73150634765625 C 441.2977294921875 267.9615783691406 447.13604736328125 262.7197570800781 455.43310546875 260.33673095703125 C 463.1445007324219 262.31536865234375 468.5805358886719 267.89013671875 470.5582580566406 275.670654296875" stroke-width="0.0" fill="rgb(243, 214, 183)" opacity="1.0"/>
    <path d="M 493.8739013671875 146.17361450195312 C 491.95465087890625 153.42347717285156 486.38427734375 158.82200622558594 478.8980407714844 160.8315887451172 C 471.5 158.99038696289062 466.0096130371094 153.5 464.1255798339844 146.10183715820312 C 466.2306213378906 138.69447326660156 471.69793701171875 133.24839782714844 478.88427734375 131.67880249023438 C 486.0935974121094 133.46861267089844 491.61865234375 138.8793487548828 493.8739013671875 146.17361450195312" stroke-width="0.0" fill="rgb(96, 7, 9)" opacity="0.9902286"/>
    <path d="M 376.3204345703125 175.6787872314453 C 374.6088562011719 183.53614807128906 369.8544616699219 189.51792907714844 361.31817626953125 191.66598510742188 C 353.660888671875 189.85231018066406 348.24273681640625 184.31373596191406 347.9400634765625 176.8195343017578 C 349.90142822265625 169.3679962158203 355.3695983886719 163.9051055908203 362.7563781738281 161.94732666015625 C 369.1315002441406 163.61941528320312 374.8272705078125 168.66741943359375 376.3204345703125 175.6787872314453" stroke-width="0.0" fill="rgb(125, 24, 21)" opacity="0.990015"/>
    <path d="M 482.6842041015625 355.835693359375 C 480.6995544433594 363.0134582519531 474.7939453125 368.1513977050781 466.3944396972656 370.6470031738281 C 458.6821594238281 368.8051452636719 453.1439208984375 363.33575439453125 452.8473815917969 355.8512268066406 C 454.73114013671875 348.03125 459.8139953613281 342.1875305175781 466.2946472167969 340.7674865722656 C 473.6545715332031 342.866455078125 479.1222839355469 348.3495788574219 482.6842041015625 355.835693359375" stroke-width="0.0" fill="rgb(107, 9, 12)" opacity="0.9900194"/>
    <path d="M 602.3953857421875 189.6263885498047 C 599.91259765625 197.4666748046875 594.5640869140625 203.2059326171875 586.8532104492188 205.5919189453125 C 578.8707885742188 203.59060668945312 573.2529907226562 198.18426513671875 571.2028198242188 190.61538696289062 C 573.7802124023438 182.3236083984375 579.3641967773438 176.91844177246094 587.195068359375 175.0059356689453 C 594.9957275390625 176.55067443847656 600.5695190429688 181.9672088623047 602.3953857421875 189.6263885498047" stroke-width="0.0" fill="rgb(248, 161, 97)" opacity="1.0"/>
    <path d="M 498.66107177734375 373.5950927734375 C 495.9903869628906 381.5 490.5 386.9903869628906 483.0 389.0 C 475.5 386.9903869628906 470.0096130371094 381.5 468.00830078125 374.00811767578125 C 470.0216064453125 366.4803161621094 475.3477783203125 360.6504211425781 483.5526123046875 358.10302734375 C 490.5370788574219 360.4679260253906 496.22930908203125 366.6663513183594 498.66107177734375 373.5950927734375" stroke-width="0.0" fill="rgb(163, 17, 4)" opacity="0.9901504"/>
    <path d="M 495.9908752441406 400.00616455078125 C 493.9593811035156 407.4430847167969 488.39447021484375 412.80279541015625 480.9137268066406 414.7956237792969 C 473.8628234863281 412.6628723144531 468.19842529296875 407.16571044921875 465.37213134765625 400.3042297363281 C 468.0096130371094 392.5 473.5 387.0096130371094 480.69598388671875 385.4776916503906 C 488.2708740234375 387.38677978515625 493.92333984375 392.6250915527344 495.9908752441406 400.00616455078125" stroke-width="0.0" fill="rgb(232, 165, 71)" opacity="0.9901745"/>
    <path d="M 368.886474609375 244.26014709472656 C 366.74053955078125 253.27542114257812 361.3109130859375 258.84478759765625 353.6556701660156 260.8839416503906 C 344.7546691894531 258.77545166015625 339.332763671875 253.21092224121094 337.6383361816406 245.39280700683594 C 340.1046447753906 237.68165588378906 345.8846740722656 232.61514282226562 353.6280212402344 230.9169921875 C 361.2723388671875 231.2907257080078 366.85980224609375 236.6793212890625 368.886474609375 244.26014709472656" stroke-width="0.0" fill="rgb(112, 11, 17)" opacity="0.99006367"/>
    <path d="M 510.94268798828125 328.3402099609375 C 508.7882080078125 337.1794738769531 503.0397644042969 342.3962707519531 495.1210021972656 344.0772399902344 C 487.5 341.9903869628906 482.0096130371094 336.5 480.03564453125 329.0618896484375 C 482.2752990722656 321.9026184082031 488.0783386230469 316.7454528808594 495.4012451171875 314.93115234375 C 503.218994140625 315.7410583496094 508.8737487792969 320.6771240234375 510.94268798828125 328.3402099609375" stroke-width="0.0" fill="rgb(82, 7, 5)" opacity="0.9901195"/>
    <path d="M 537.9186401367188 189.64810180664062 C 535.8224487304688 198.31021118164062 530.3056030273438 203.80813598632812 522.6300659179688 205.67471313476562 C 514.5 202.99038696289062 509.0096130371094 197.5 507.0268859863281 190.04550170898438 C 509.2090759277344 182.80845642089844 514.9649047851562 177.6414031982422 521.3406982421875 175.92880249023438 C 528.8663940429688 177.82321166992188 535.7555541992188 182.170654296875 537.9186401367188 189.64810180664062" stroke-width="0.0" fill="rgb(129, 12, 11)" opacity="0.99005747"/>
    <path d="M 527.0 306.00006103515625 C 524.9903564453125 313.5 519.5 318.9903869628906 511.9305419921875 321.12811279296875 C 504.3706359863281 319.1123962402344 498.6402893066406 313.716796875 496.6838684082031 306.36627197265625 C 499.0113220214844 298.38330078125 504.31573486328125 292.7678527832031 511.6443786621094 291.5411071777344 C 519.4692993164062 293.1036682128906 524.9891967773438 298.5036926269531 527.0 306.00006103515625" stroke-width="0.0" fill="rgb(249, 240, 219)" opacity="1.0"/>
    <path d="M 478.64739990234375 103.59187316894531 C 476.4394836425781 110.75274658203125 470.6097106933594 116.0426254272461 463.0231018066406 117.99415588378906 C 455.62457275390625 115.91519165039062 450.3416442871094 110.2918701171875 448.61712646484375 103.19618225097656 C 450.61993408203125 96.08264923095703 456.09112548828125 90.6443862915039 462.9579162597656 88.77350616455078 C 470.025634765625 90.56411743164062 475.4974060058594 95.95201873779297 478.64739990234375 103.59187316894531" stroke-width="0.0" fill="rgb(240, 194, 130)" opacity="0.9900636"/>
    <path d="M 456.89739990234375 165.82313537597656 C 454.9543762207031 173.47906494140625 449.55908203125 179.1988067626953 442.2795715332031 180.20834350585938 C 434.1637268066406 179.26553344726562 428.57208251953125 173.88192749023438 426.2900085449219 165.62889099121094 C 428.3935852050781 158.028076171875 434.13653564453125 152.6818084716797 441.9813537597656 151.15769958496094 C 449.76324462890625 152.80809020996094 455.4322814941406 158.15733337402344 456.89739990234375 165.82313537597656" stroke-width="0.0" fill="rgb(248, 245, 231)" opacity="1.0"/>
    <path d="M 466.0 334.0 C 463.9903869628906 341.5 458.5 346.9903869628906 451.0 349.0 C 443.5 346.9903869628906 438.0096130371094 341.5 436.0 334.0 C 438.0096130371094 326.5 443.5 321.0096130371094 451.0 319.0 C 458.5 321.0096130371094 463.9903869628906 326.5 466.0 334.0" stroke-width="0.0" fill="rgb(249, 243, 208)" opacity="1.0"/>
    <path d="M 532.3285522460938 263.40484619140625 C 530.6972045898438 271.2596740722656 525.3219604492188 276.8717041015625 517.8311157226562 278.91009521484375 C 509.5 275.9903869628906 504.0096130371094 270.5 502.0 263.0 C 504.0096130371094 255.5 509.5 250.00961303710938 517.0 248.0 C 524.4998779296875 250.0096435546875 529.9862670898438 255.501220703125 532.3285522460938 263.40484619140625" stroke-width="0.0" fill="rgb(103, 0, 0)" opacity="1.0"/>
    <path d="M 516.5224609375 229.72308349609375 C 514.1127319335938 237.61412048339844 508.609130859375 243.09884643554688 501.0463562011719 245.06556701660156 C 493.4939270019531 242.9927520751953 487.95458984375 237.52127075195312 485.6428527832031 229.9503173828125 C 487.8321838378906 222.35174560546875 493.36236572265625 216.86912536621094 501.0002746582031 214.7732696533203 C 508.60467529296875 216.90347290039062 514.2957153320312 222.3276824951172 516.5224609375 229.72308349609375" stroke-width="0.0" fill="rgb(234, 233, 193)" opacity="1.0"/>
    <path d="M 415.0215148925781 347.0316162109375 C 413.1901550292969 354.84149169921875 408.0465087890625 360.7164001464844 400.6993713378906 362.8514099121094 C 392.49786376953125 359.9974670410156 387.0095520019531 354.5002136230469 385.0 346.9999694824219 C 387.0086364746094 339.4967956542969 392.4681396484375 333.9103088378906 400.57574462890625 331.12786865234375 C 407.8515625 333.42156982421875 413.048583984375 339.3626708984375 415.0215148925781 347.0316162109375" stroke-width="0.0" fill="rgb(152, 18, 6)" opacity="1.0"/>
    <path d="M 456.0 333.0 C 453.9903869628906 340.5 448.5 345.9903869628906 440.9999084472656 348.0000305175781 C 433.4964599609375 345.9916076660156 427.95416259765625 340.5190124511719 425.47674560546875 332.81512451171875 C 427.5787353515625 325.1529846191406 433.20904541015625 319.75543212890625 440.9106140136719 317.9222412109375 C 448.5 320.0096130371094 453.9903869628906 325.5 456.0 333.0" stroke-width="0.0" fill="rgb(252, 254, 245)" opacity="0.9935241"/>
    <path d="M 565.6858520507812 166.3673553466797 C 562.9677124023438 174.4911651611328 557.4949340820312 179.97576904296875 550.2850952148438 181.41287231445312 C 543.0328979492188 179.42367553710938 537.5686645507812 173.9710235595703 535.7391357421875 166.67759704589844 C 537.1494140625 159.55165100097656 542.510498046875 154.0132293701172 550.6101684570312 151.34288024902344 C 558.2948608398438 153.20433044433594 563.80322265625 158.70262145996094 565.6858520507812 166.3673553466797" stroke-width="0.0" fill="rgb(233, 150, 56)" opacity="0.99007016"/>
    <path d="M 466.587158203125 336.5663146972656 C 464.783447265625 344.29986572265625 459.31878662109375 349.83917236328125 451.7127380371094 351.8006286621094 C 443.49847412109375 348.9968566894531 438.00970458984375 343.4997863769531 436.0 336.0 C 438.0096130371094 328.5 443.5 323.0096130371094 451.0 321.0 C 458.5 323.0096130371094 463.9903869628906 328.5 466.587158203125 336.5663146972656" stroke-width="0.0" fill="rgb(237, 231, 187)" opacity="1.0"/>
    <path d="M 345.36309814453125 265.3276062011719 C 344.4035339355469 273.0055847167969 339.1419372558594 278.76239013671875 331.7425842285156 280.86944580078125 C 323.4927673339844 278.0100402832031 318.00897216796875 272.5018615722656 315.89849853515625 264.8673095703125 C 317.6301574707031 257.0406799316406 322.9629211425781 251.38629150390625 330.5486755371094 249.51712036132812 C 338.4091491699219 252.08714294433594 343.80084228515625 257.6249084472656 345.36309814453125 265.3276062011719" stroke-width="0.0" fill="rgb(169, 5, 4)" opacity="0.9901222"/>
    <path d="M 462.65435791015625 202.62472534179688 C 460.76702880859375 210.2663116455078 455.2863464355469 215.81967163085938 446.78717041015625 217.9193115234375 C 438.6733703613281 215.84205627441406 433.1519470214844 210.32904052734375 431.0703125 201.62319946289062 C 433.1269226074219 193.64154052734375 438.6495361328125 188.14852905273438 446.3022155761719 186.16732788085938 C 454.383056640625 188.9279327392578 459.7498474121094 194.69859313964844 462.65435791015625 202.62472534179688" stroke-width="0.0" fill="rgb(175, 56, 62)" opacity="1.0"/>
    <path d="M 546.8444213867188 291.3551940917969 C 543.2378540039062 298.7327880859375 537.7232055664062 304.2028503417969 530.4230346679688 306.38592529296875 C 523.5 304.9903869628906 518.0096435546875 299.5 515.711669921875 291.65948486328125 C 517.3424072265625 283.7662353515625 522.6992797851562 278.1460876464844 530.20068359375 276.1163024902344 C 538.65380859375 278.993408203125 544.58203125 284.1292724609375 546.8444213867188 291.3551940917969" stroke-width="0.0" fill="rgb(113, 44, 23)" opacity="0.99014664"/>
    <path d="M 478.35748291015625 114.16019439697266 C 476.5982666015625 121.11382293701172 471.04290771484375 126.40748596191406 463.40057373046875 128.11965942382812 C 455.7320861816406 127.72808837890625 450.1882629394531 122.29273223876953 449.9064025878906 114.8469009399414 C 451.8800048828125 107.34044647216797 457.33880615234375 101.87584686279297 464.72216796875 99.91874694824219 C 471.2740478515625 101.42583465576172 476.6227111816406 106.7081527709961 478.35748291015625 114.16019439697266" stroke-width="0.0" fill="rgb(107, 30, 19)" opacity="0.9900216"/>
    <path d="M 581.9052734375 231.81192016601562 C 579.865966796875 239.34461975097656 574.3463134765625 244.86949157714844 565.6896362304688 246.94970703125 C 557.61767578125 244.89254760742188 552.1060791015625 239.38291931152344 550.0586547851562 231.52157592773438 C 552.124755859375 222.6413116455078 557.6591796875 217.17913818359375 565.2369995117188 216.87818908691406 C 572.8831787109375 218.73812866210938 578.5459594726562 224.01747131347656 581.9052734375 231.81192016601562" stroke-width="0.0" fill="rgb(163, 39, 29)" opacity="1.0"/>
    <path d="M 595.0948486328125 310.9596252441406 C 594.1039428710938 319.1334533691406 589.25390625 324.81512451171875 581.7079467773438 326.7979431152344 C 573.5 323.9903869628906 568.0096435546875 318.5 565.9728393554688 310.9513854980469 C 567.7892456054688 303.1548156738281 573.009765625 297.371337890625 580.3070678710938 296.8265380859375 C 587.9537353515625 298.6501159667969 593.390625 304.0281066894531 595.0948486328125 310.9596252441406" stroke-width="0.0" fill="rgb(127, 4, 6)" opacity="0.99012655"/>
    <path d="M 604.1327514648438 363.4267272949219 C 601.3194580078125 370.7911071777344 595.7342529296875 376.1592712402344 589.0802001953125 378.0644226074219 C 582.3278198242188 376.13311767578125 576.859619140625 370.67523193359375 574.9103393554688 363.4108581542969 C 576.7562255859375 357.2106628417969 582.2001342773438 351.7245788574219 589.6929321289062 349.4684143066406 C 597.2191162109375 350.2597961425781 602.6791381835938 355.8003845214844 604.1327514648438 363.4267272949219" stroke-width="0.0" fill="rgb(107, 75, 50)" opacity="0.9900099"/>
    <path d="M 542.89404296875 295.61376953125 C 540.8091430664062 303.24395751953125 535.1657104492188 308.5739440917969 527.2557373046875 310.1949157714844 C 519.5056762695312 307.9854736328125 513.9966430664062 302.4991455078125 511.5583801269531 294.8438415527344 C 513.9239501953125 287.6289978027344 519.8195190429688 282.5251770019531 526.4095458984375 280.9154968261719 C 533.80078125 282.804443359375 539.792724609375 288.0614013671875 542.89404296875 295.61376953125" stroke-width="0.0" fill="rgb(239, 221, 178)" opacity="0.99002314"/>
    <path d="M 399.45220947265625 215.37518310546875 C 397.57196044921875 223.0227508544922 391.9865417480469 228.46405029296875 384.215576171875 230.4231414794922 C 376.4065856933594 228.14768981933594 371.0100402832031 222.5456085205078 369.03106689453125 214.9857635498047 C 371.0096130371094 207.5 376.5 202.00961303710938 384.0 200.0 C 391.5 202.00961303710938 396.9903869628906 207.5 399.45220947265625 215.37518310546875" stroke-width="0.0" fill="rgb(242, 175, 158)" opacity="0.992045"/>
    <path d="M 337.0095520019531 308.012939453125 C 335.07000732421875 315.6374816894531 329.7198791503906 321.3248291015625 322.6101989746094 322.32257080078125 C 315.1214904785156 320.3117980957031 309.6627197265625 314.8878173828125 307.7603759765625 307.80145263671875 C 309.58013916015625 300.9773254394531 314.90777587890625 295.3635559082031 322.3336181640625 292.3811950683594 C 329.64166259765625 294.7167053222656 335.01239013671875 300.4482421875 337.0095520019531 308.012939453125" stroke-width="0.0" fill="rgb(236, 182, 108)" opacity="0.99006104"/>
    <path d="M 610.9990234375 235.9996337890625 C 608.9805908203125 243.4774627685547 603.4368286132812 248.84719848632812 595.651123046875 251.05630493164062 C 588.6380615234375 249.1788330078125 583.5317993164062 243.1485137939453 581.5927124023438 235.37815856933594 C 582.8750610351562 228.62828063964844 588.74267578125 223.32659912109375 596.0918579101562 221.43984985351562 C 603.4575805664062 223.10720825195312 608.9835815429688 228.5154266357422 610.9990234375 235.9996337890625" stroke-width="0.0" fill="rgb(229, 192, 88)" opacity="0.9901347"/>
    <path d="M 440.52899169921875 398.732666015625 C 437.9906005859375 406.50006103515625 432.5 411.9903869628906 425.0 414.0 C 417.5 411.9903869628906 412.0096130371094 406.5 410.0 399.0 C 412.0096130371094 391.5 417.5 386.0096130371094 424.9908752441406 384.00604248046875 C 432.4647521972656 386.0422668457031 438.1502685546875 391.4764099121094 440.52899169921875 398.732666015625" stroke-width="0.0" fill="rgb(254, 237, 163)" opacity="1.0"/>
    <path d="M 346.6051330566406 306.7205810546875 C 345.38519287109375 314.9985656738281 340.0399169921875 320.550537109375 331.8282775878906 322.7088928222656 C 324.7525634765625 320.1846618652344 319.5653991699219 314.0666198730469 317.8031005859375 307.0632019042969 C 319.5340881347656 299.7821044921875 324.2766418457031 293.45513916015625 331.42218017578125 291.34857177734375 C 339.11212158203125 294.4947204589844 345.1210632324219 299.73486328125 346.6051330566406 306.7205810546875" stroke-width="0.0" fill="rgb(217, 97, 28)" opacity="0.9900557"/>
    <path d="M 424.4385070800781 185.58831787109375 C 422.005126953125 193.5482177734375 416.60791015625 199.19522094726562 409.4374694824219 200.1740264892578 C 401.6176452636719 198.7044219970703 396.0184631347656 193.4752197265625 394.0035705566406 186.0052032470703 C 396.0397644042969 178.5524139404297 401.58819580078125 173.15650939941406 409.2799987792969 170.8970489501953 C 417.0153503417969 172.5305938720703 422.6133117675781 177.9380340576172 424.4385070800781 185.58831787109375" stroke-width="0.0" fill="rgb(243, 231, 190)" opacity="0.9904351"/>
    <path d="M 423.8574523925781 345.3852233886719 C 421.56097412109375 353.9909362792969 416.0188293457031 359.6238708496094 407.649658203125 361.8952331542969 C 400.141357421875 359.5882263183594 394.95166015625 353.6379699707031 392.9748840332031 345.9627990722656 C 394.80218505859375 338.1632385253906 399.99542236328125 332.3402099609375 407.628173828125 330.1717834472656 C 416.2004699707031 332.3336181640625 421.8033447265625 337.7496643066406 423.8574523925781 345.3852233886719" stroke-width="0.0" fill="rgb(169, 30, 24)" opacity="0.9901695"/>
    <path d="M 376.9590759277344 339.0128173828125 C 374.9903869628906 346.5 369.5 351.9903869628906 361.6016845703125 354.5250244140625 C 353.9363708496094 352.5738220214844 348.3128662109375 347.1083679199219 346.62200927734375 339.6902160644531 C 349.6117858886719 332.01751708984375 354.9403076171875 326.3552551269531 361.86358642578125 324.5970458984375 C 369.48577880859375 326.11859130859375 374.99395751953125 331.4810791015625 376.9590759277344 339.0128173828125" stroke-width="0.0" fill="rgb(250, 144, 57)" opacity="0.99080515"/>
    <path d="M 513.9376220703125 345.496826171875 C 511.8575439453125 354.3424377441406 506.3371276855469 359.8424377441406 498.8738098144531 360.10211181640625 C 491.36724853515625 358.09979248046875 485.9042663574219 352.6309814453125 483.9420471191406 345.20867919921875 C 485.4900207519531 338.7540588378906 490.58477783203125 333.0444641113281 498.466796875 330.5706787109375 C 506.29718017578125 332.25299072265625 511.877197265625 337.658447265625 513.9376220703125 345.496826171875" stroke-width="0.0" fill="rgb(108, 2, 2)" opacity="0.9900289"/>
    <path d="M 386.9778747558594 301.9512023925781 C 384.7691650390625 309.1373596191406 378.9380187988281 314.2549743652344 371.65234375 316.07391357421875 C 365.29595947265625 314.17730712890625 359.8652038574219 308.6866760253906 357.9461669921875 301.95550537109375 C 359.85089111328125 295.2621765136719 365.1268615722656 289.0422668457031 371.9142761230469 286.1501770019531 C 379.75836181640625 288.5352478027344 385.0304260253906 294.40380859375 386.9778747558594 301.9512023925781" stroke-width="0.0" fill="rgb(128, 16, 10)" opacity="0.99001604"/>
    <path d="M 422.0118713378906 399.0085754394531 C 420.0419616699219 406.5665588378906 414.56817626953125 412.0420837402344 407.3946228027344 413.4747314453125 C 400.0382385253906 411.4012145996094 394.5587463378906 405.97528076171875 392.3150329589844 398.7034912109375 C 394.12060546875 391.4793395996094 399.29071044921875 385.59039306640625 406.97467041015625 383.2076416015625 C 414.765869140625 385.5345153808594 420.03607177734375 391.3929138183594 422.0118713378906 399.0085754394531" stroke-width="0.0" fill="rgb(250, 215, 153)" opacity="0.99017626"/>
    <path d="M 394.0937194824219 251.35516357421875 C 392.29254150390625 257.9486389160156 387.095947265625 263.702392578125 379.9080505371094 265.95709228515625 C 372.31121826171875 264.0901184082031 366.45086669921875 258.8598937988281 364.1673583984375 250.63270568847656 C 366.1781921386719 242.6628875732422 371.6448059082031 237.12643432617188 379.15087890625 235.30361938476562 C 386.7533264160156 238.7815704345703 392.184326171875 244.2604217529297 394.0937194824219 251.35516357421875" stroke-width="0.0" fill="rgb(202, 65, 60)" opacity="0.99003196"/>
    <path d="M 554.1239013671875 213.74781799316406 C 553.8328857421875 221.35133361816406 548.3695068359375 226.8865966796875 540.8650512695312 228.86471557617188 C 533.2161865234375 225.2132110595703 527.6192016601562 219.8385009765625 524.88818359375 212.4909210205078 C 526.3201904296875 204.75442504882812 531.6954956054688 199.14710998535156 539.5264892578125 197.06982421875 C 548.005126953125 199.2438507080078 552.294189453125 205.8722381591797 554.1239013671875 213.74781799316406" stroke-width="0.0" fill="rgb(181, 47, 29)" opacity="0.99002624"/>
    <path d="M 393.06646728515625 264.6899108886719 C 391.5398254394531 271.1946105957031 386.2606201171875 276.72454833984375 378.314453125 279.7491455078125 C 370.8460693359375 277.74505615234375 365.3572692871094 272.1072998046875 363.1447448730469 263.664306640625 C 365.34197998046875 256.03546142578125 371.29217529296875 251.092529296875 378.6574401855469 249.63916015625 C 385.8344421386719 251.64662170410156 391.1667785644531 257.2388000488281 393.06646728515625 264.6899108886719" stroke-width="0.0" fill="rgb(101, 40, 21)" opacity="0.99001837"/>
    <path d="M 453.0058288574219 343.1564636230469 C 451.1507568359375 350.671630859375 445.7633361816406 356.40838623046875 438.3034362792969 358.6668395996094 C 430.3306579589844 356.1611328125 424.51312255859375 350.8004455566406 423.1710510253906 343.4398193359375 C 424.4751281738281 335.08544921875 430.19415283203125 329.80877685546875 437.95465087890625 327.9873352050781 C 445.4730529785156 330.02392578125 450.88909912109375 335.5531005859375 453.0058288574219 343.1564636230469" stroke-width="0.0" fill="rgb(246, 244, 224)" opacity="1.0"/>
    <path d="M 424.8743591308594 160.7107391357422 C 422.8503112792969 168.32232666015625 417.3027648925781 173.79908752441406 408.5458679199219 175.8932647705078 C 400.7201843261719 173.80772399902344 395.17559814453125 168.28732299804688 393.1427001953125 160.69725036621094 C 395.3799743652344 151.82496643066406 400.7483215332031 146.17709350585938 409.105224609375 144.0630340576172 C 417.1575927734375 146.22030639648438 422.5753173828125 151.94349670410156 424.8743591308594 160.7107391357422" stroke-width="0.0" fill="rgb(163, 40, 43)" opacity="0.9900526"/>
    <path d="M 515.3583374023438 406.6529235839844 C 512.6866455078125 414.22662353515625 507.2680969238281 419.8348083496094 500.2859191894531 421.7411193847656 C 492.7267761230469 419.62579345703125 486.9141540527344 414.4132995605469 484.7883605957031 407.1097412109375 C 487.0096130371094 399.5 492.5 394.0096130371094 500.0379638671875 391.9701232910156 C 507.70306396484375 393.8673400878906 513.4130859375 399.2041931152344 515.3583374023438 406.6529235839844" stroke-width="0.0" fill="rgb(253, 233, 159)" opacity="0.99014133"/>
    <path d="M 585.4759521484375 319.4743957519531 C 583.7308959960938 327.2674865722656 578.3118286132812 332.8542175292969 569.3822021484375 334.94830322265625 C 561.6265258789062 332.8908386230469 556.1161499023438 327.37042236328125 554.11083984375 319.8168029785156 C 557.0096435546875 311.5 562.5 306.0096130371094 570.0 304.0 C 577.499755859375 306.0097351074219 582.9881591796875 311.5008544921875 585.4759521484375 319.4743957519531" stroke-width="0.0" fill="rgb(126, 3, 1)" opacity="1.0"/>
    <path d="M 410.9781799316406 286.06207275390625 C 409.0869140625 293.6419982910156 403.7099609375 299.3008117675781 396.2176818847656 301.3498840332031 C 388.5 298.9903869628906 383.0096130371094 293.5 380.2524719238281 285.49163818359375 C 382.6014099121094 278.33673095703125 388.5110168457031 273.06011962890625 396.3250427246094 270.5948181152344 C 403.51275634765625 272.7864685058594 408.88006591796875 278.5929260253906 410.9781799316406 286.06207275390625" stroke-width="0.0" fill="rgb(208, 87, 88)" opacity="0.99042505"/>
    <path d="M 500.19927978515625 253.405029296875 C 498.1887512207031 260.7024230957031 492.6773986816406 266.1241455078125 485.3194885253906 268.0620422363281 C 478.954833984375 266.33160400390625 473.1392822265625 261.2533264160156 471.0097961425781 253.97921752929688 C 473.0096130371094 246.5 478.5 241.00961303710938 486.0 239.0 C 493.49908447265625 241.00987243652344 498.94403076171875 246.5137939453125 500.19927978515625 253.405029296875" stroke-width="0.0" fill="rgb(145, 16, 8)" opacity="0.99005026"/>
    <path d="M 443.38739013671875 406.1495056152344 C 441.36517333984375 413.7723083496094 435.6079406738281 418.7838134765625 428.0694580078125 420.4560241699219 C 420.88458251953125 418.5331115722656 415.3224182128906 413.1615295410156 413.0821533203125 405.8788146972656 C 415.00714111328125 398.4991149902344 420.4997863769531 393.009521484375 428.0054931640625 390.99761962890625 C 435.5550537109375 392.9788818359375 441.13165283203125 398.4110107421875 443.38739013671875 406.1495056152344" stroke-width="0.0" fill="rgb(248, 213, 141)" opacity="0.9901487"/>
    <path d="M 477.1584777832031 387.15478515625 C 475.3675842285156 394.9328918457031 470.05291748046875 400.6844787597656 462.0919189453125 402.8863220214844 C 453.71087646484375 400.8033752441406 448.1766052246094 395.2968444824219 446.31719970703125 387.70989990234375 C 448.3189392089844 378.7442626953125 453.7012939453125 373.1701965332031 461.2947692871094 371.2206726074219 C 469.5 374.0096130371094 474.9903869628906 379.5 477.1584777832031 387.15478515625" stroke-width="0.0" fill="rgb(130, 10, 6)" opacity="0.99005365"/>
    <path d="M 494.01458740234375 253.0185089111328 C 492.0518493652344 260.56732177734375 486.48236083984375 265.777587890625 478.7378845214844 267.1544494628906 C 470.8482971191406 266.441650390625 465.1649169921875 261.26239013671875 463.0596618652344 252.50453186035156 C 465.1136474609375 244.6214599609375 470.6200866699219 239.11041259765625 478.18402099609375 237.11740112304688 C 486.5 240.00961303710938 491.9903869628906 245.5 494.01458740234375 253.0185089111328" stroke-width="0.0" fill="rgb(144, 24, 17)" opacity="0.99023163"/>
    <path d="M 482.8194885253906 174.51168823242188 C 480.451416015625 182.7804718017578 474.70526123046875 188.2736358642578 467.2759094238281 190.58934020996094 C 459.8134460449219 187.67999267578125 454.0993347167969 182.2391815185547 451.5567932128906 175.21871948242188 C 453.9920959472656 167.4771728515625 459.4773254394531 161.99111938476562 467.12225341796875 159.90660095214844 C 475.0024108886719 161.6182403564453 480.7291259765625 166.8776397705078 482.8194885253906 174.51168823242188" stroke-width="0.0" fill="rgb(247, 225, 183)" opacity="1.0"/>
    <path d="M 508.0556945800781 398.9713134765625 C 506.0334777832031 406.5953063964844 500.65576171875 412.23040771484375 492.9006652832031 414.48760986328125 C 485.0723876953125 412.4293518066406 479.57232666015625 406.92816162109375 478.8303527832031 399.6783752441406 C 480.7901916503906 392.2242431640625 486.1864929199219 386.681396484375 493.4071044921875 384.42578125 C 500.500244140625 386.009521484375 505.9974060058594 391.4978332519531 508.0556945800781 398.9713134765625" stroke-width="0.0" fill="rgb(251, 241, 197)" opacity="0.99007994"/>
    <path d="M 389.70416259765625 351.61859130859375 C 387.7935485839844 359.28076171875 382.28607177734375 364.80877685546875 374.646728515625 366.8061828613281 C 366.05902099609375 364.4819641113281 360.5526428222656 358.9296875 358.83197021484375 351.2387390136719 C 360.97296142578125 343.4872741699219 366.5351867675781 338.12750244140625 373.9772644042969 336.5387268066406 C 381.6063537597656 338.0453186035156 387.1649169921875 343.3404846191406 389.70416259765625 351.61859130859375" stroke-width="0.0" fill="rgb(223, 79, 5)" opacity="1.0"/>
    <path d="M 557.0699462890625 148.6637420654297 C 555.383056640625 155.11463928222656 550.3068237304688 160.84170532226562 543.275146484375 162.29220581054688 C 535.6524658203125 160.67652893066406 530.0330200195312 155.44525146484375 528.001220703125 147.99716186523438 C 530.0096435546875 140.5 535.5 135.00961303710938 542.3370971679688 133.71884155273438 C 549.6721801757812 135.8443603515625 555.1180419921875 141.34176635742188 557.0699462890625 148.6637420654297" stroke-width="0.0" fill="rgb(217, 35, 18)" opacity="0.990024"/>
    <path d="M 413.0456848144531 346.9658203125 C 410.99249267578125 354.51220703125 405.538330078125 360.0808410644531 397.1887512207031 362.910400390625 C 389.68035888671875 360.86798095703125 384.2823791503906 355.26373291015625 382.18658447265625 346.4579772949219 C 384.16900634765625 338.663330078125 389.6447448730469 333.12060546875 397.19061279296875 331.0917663574219 C 405.5905456542969 333.86083984375 411.06591796875 339.4312438964844 413.0456848144531 346.9658203125" stroke-width="0.0" fill="rgb(148, 15, 8)" opacity="1.0"/>
    <path d="M 395.6029968261719 300.89361572265625 C 394.2637939453125 308.63079833984375 388.2588806152344 313.4417419433594 380.92950439453125 315.1204528808594 C 373.3896179199219 313.6626892089844 367.6097412109375 308.8095397949219 365.4551696777344 301.2074890136719 C 367.8209228515625 293.25390625 373.1059265136719 287.4335021972656 380.4521179199219 285.28558349609375 C 388.5284423828125 288.04498291015625 394.17291259765625 293.4043884277344 395.6029968261719 300.89361572265625" stroke-width="0.0" fill="rgb(151, 25, 26)" opacity="0.99005955"/>
    <path d="M 520.7634887695312 143.34091186523438 C 517.8816528320312 151.3475341796875 512.2726440429688 156.6494903564453 504.88623046875 158.45257568359375 C 498.1300354003906 156.4224395751953 492.7550354003906 150.8153839111328 490.8692932128906 143.51466369628906 C 492.1864318847656 136.63961791992188 497.7659606933594 131.47015380859375 505.73236083984375 128.3654022216797 C 513.2786254882812 130.1900177001953 518.7845458984375 135.73182678222656 520.7634887695312 143.34091186523438" stroke-width="0.0" fill="rgb(240, 221, 94)" opacity="0.9900584"/>
    <path d="M 516.8510131835938 385.1761169433594 C 513.1785888671875 392.7045593261719 507.6983947753906 398.1603088378906 500.4460144042969 400.0870666503906 C 493.03057861328125 398.608154296875 487.2164611816406 394.185302734375 485.2071228027344 386.7339782714844 C 488.3338928222656 378.6981506347656 493.4331970214844 372.6190185546875 501.6688232421875 370.114501953125 C 509.310791015625 372.1651306152344 514.838623046875 377.68780517578125 516.8510131835938 385.1761169433594" stroke-width="0.0" fill="rgb(215, 50, 13)" opacity="0.990032"/>
    <path d="M 424.313232421875 248.52853393554688 C 422.8880920410156 256.4248046875 417.4341125488281 261.92449951171875 409.9740295410156 263.98406982421875 C 402.4693298339844 262.00921630859375 396.9251403808594 256.550537109375 395.0920104980469 248.95631408691406 C 396.7555236816406 241.21340942382812 402.1656494140625 235.6037139892578 410.0710754394531 233.7476043701172 C 417.6414489746094 235.91787719726562 423.40521240234375 241.24197387695312 424.313232421875 248.52853393554688" stroke-width="0.0" fill="rgb(250, 249, 230)" opacity="1.0"/>
    <path d="M 524.9952392578125 189.97390747070312 C 522.9695434570312 197.48858642578125 517.4935302734375 202.98643493652344 509.9991455078125 204.9994354248047 C 502.5 202.99038696289062 497.0096130371094 197.5 495.35809326171875 190.31382751464844 C 497.554931640625 183.02456665039062 503.046875 177.62220764160156 510.0177917480469 175.8668975830078 C 517.1400146484375 177.56488037109375 522.9351196289062 182.67958068847656 524.9952392578125 189.97390747070312" stroke-width="0.0" fill="rgb(128, 30, 22)" opacity="0.9900303"/>
    <path d="M 505.9904479980469 331.0047607421875 C 503.9997863769531 338.5077819824219 498.5066833496094 343.99603271484375 491.5646667480469 345.42535400390625 C 484.31103515625 343.1918029785156 478.86651611328125 337.66973876953125 476.8390808105469 330.5208435058594 C 478.8409118652344 324.342041015625 484.3641357421875 318.90399169921875 491.8154602050781 316.8763427734375 C 498.5527038574219 317.90869140625 503.99774169921875 323.4753723144531 505.9904479980469 331.0047607421875" stroke-width="0.0" fill="rgb(100, 3, 5)" opacity="0.9900458"/>
    <path d="M 536.5971069335938 315.485595703125 C 534.5377197265625 322.9963684082031 529.0217895507812 328.5993347167969 520.5338134765625 330.7912902832031 C 512.7927856445312 328.73858642578125 507.2691955566406 323.20526123046875 505.3430480957031 315.5580749511719 C 508.00103759765625 307.49072265625 513.4813232421875 301.9689025878906 521.0372924804688 299.77508544921875 C 528.5042114257812 301.9221496582031 533.7706909179688 307.59576416015625 536.5971069335938 315.485595703125" stroke-width="0.0" fill="rgb(244, 235, 204)" opacity="1.0"/>
    <path d="M 548.0099487304688 133.71603393554688 C 546.6983032226562 141.11300659179688 541.0327758789062 146.46463012695312 533.1015014648438 148.25148010253906 C 524.9791259765625 146.39236450195312 519.2305908203125 141.1566925048828 517.087646484375 133.49578857421875 C 519.4419555664062 125.51205444335938 525.9874877929688 120.66954803466797 533.0628662109375 118.84765625 C 539.8701171875 120.69086456298828 545.3113403320312 126.12908935546875 548.0099487304688 133.71603393554688" stroke-width="0.0" fill="rgb(239, 173, 89)" opacity="0.9900776"/>
    <path d="M 428.15753173828125 287.495849609375 C 426.49652099609375 294.0522155761719 421.1125183105469 299.70831298828125 414.1104431152344 301.80206298828125 C 406.92315673828125 299.59661865234375 401.6011047363281 294.0098571777344 399.8642272949219 287.3074951171875 C 401.6918640136719 280.0670166015625 406.9583740234375 274.36761474609375 414.09442138671875 271.8980407714844 C 421.244140625 274.2001037597656 426.4699401855469 279.8694152832031 428.15753173828125 287.495849609375" stroke-width="0.0" fill="rgb(249, 248, 223)" opacity="0.99013126"/>
    <path d="M 437.3358154296875 391.4247131347656 C 435.8539123535156 399.47113037109375 430.5073547363281 404.9717102050781 423.0462646484375 406.68475341796875 C 415.5580749511719 404.8851318359375 410.0193786621094 399.4701843261719 407.8587341308594 391.8788757324219 C 409.6243591308594 384.0098571777344 414.8959045410156 378.2903137207031 422.5368957519531 376.2348327636719 C 431.0791320800781 378.4289245605469 436.671875 383.8848571777344 437.3358154296875 391.4247131347656" stroke-width="0.0" fill="rgb(244, 238, 170)" opacity="1.0"/>
    <path d="M 518.6944580078125 275.6307678222656 C 516.7955322265625 283.27911376953125 511.2731018066406 288.7784118652344 503.6371154785156 290.6514587402344 C 495.85186767578125 287.6201477050781 490.43798828125 282.1292419433594 488.6925048828125 274.9165954589844 C 490.0735778808594 267.2815246582031 495.19915771484375 261.70574951171875 503.00640869140625 260.2887268066406 C 510.5 262.0096130371094 515.9903564453125 267.5 518.6944580078125 275.6307678222656" stroke-width="0.0" fill="rgb(215, 169, 133)" opacity="0.9901279"/>
    <path d="M 485.34844970703125 380.42279052734375 C 483.6334533691406 388.1396179199219 478.1574401855469 393.6869201660156 470.499755859375 395.5824890136719 C 462.5040283203125 392.98248291015625 457.01220703125 387.4975280761719 454.3749694824219 379.41656494140625 C 456.2237548828125 371.7349548339844 461.7497253417969 366.2709045410156 469.5279541015625 364.51416015625 C 477.482177734375 366.99871826171875 482.8935852050781 372.5498962402344 485.34844970703125 380.42279052734375" stroke-width="0.0" fill="rgb(130, 2, 3)" opacity="0.99116904"/>
    <path d="M 463.8402099609375 322.1304016113281 C 461.9874572753906 329.49371337890625 456.48492431640625 334.9571228027344 448.9691162109375 336.931640625 C 441.5013122558594 334.990966796875 436.01885986328125 329.495849609375 433.5835266113281 321.6476135253906 C 435.4372863769531 313.9373779296875 440.9096374511719 308.35626220703125 448.3694152832031 307.5555725097656 C 456.2232666015625 309.3369445800781 461.71148681640625 314.7621154785156 463.8402099609375 322.1304016113281" stroke-width="0.0" fill="rgb(249, 250, 224)" opacity="1.0"/>
    <path d="M 409.0044250488281 205.42684936523438 C 406.7281799316406 213.5863800048828 401.7259216308594 219.22683715820312 394.5107116699219 220.15838623046875 C 387.03338623046875 218.3570098876953 381.4062194824219 213.04525756835938 379.45599365234375 206.2797088623047 C 381.58636474609375 198.99916076660156 386.9014892578125 193.2276153564453 394.06121826171875 190.78370666503906 C 401.8705749511719 192.71762084960938 407.5548095703125 198.04083251953125 409.0044250488281 205.42684936523438" stroke-width="0.0" fill="rgb(123, 21, 17)" opacity="0.9900636"/>
    <path d="M 385.0823669433594 205.30599975585938 C 383.19207763671875 212.7930145263672 377.87664794921875 218.41799926757812 370.80865478515625 220.4550018310547 C 363.12677001953125 219.05860900878906 357.2792053222656 214.07696533203125 355.1903381347656 206.62451171875 C 357.619873046875 198.17776489257812 363.1755065917969 192.60812377929688 370.5841064453125 190.58131408691406 C 378.5489196777344 193.1620330810547 384.0677795410156 198.3782958984375 385.0823669433594 205.30599975585938" stroke-width="0.0" fill="rgb(250, 245, 190)" opacity="0.99015296"/>
    <path d="M 532.9007568359375 260.1835632324219 C 530.0263671875 268.5272521972656 524.5247802734375 274.01739501953125 516.3851928710938 276.7748718261719 C 508.8976745605469 274.6992492675781 504.2783508300781 268.9154357910156 502.92523193359375 261.71600341796875 C 504.8787841796875 254.3464813232422 510.34857177734375 248.8839111328125 517.669189453125 246.9324188232422 C 525.0980224609375 248.49424743652344 530.8631591796875 252.71009826660156 532.9007568359375 260.1835632324219" stroke-width="0.0" fill="rgb(116, 18, 17)" opacity="0.9900777"/>
    <path d="M 543.739013671875 153.12307739257812 C 541.8679809570312 160.18809509277344 536.0126342773438 165.3407745361328 529.2048950195312 167.1100616455078 C 522.1680297851562 165.26101684570312 516.6815795898438 159.85342407226562 514.7890014648438 152.57058715820312 C 515.6715087890625 145.0006561279297 520.91357421875 139.3475341796875 528.5765380859375 137.3036346435547 C 536.7046508789062 139.70420837402344 541.9703369140625 145.38967895507812 543.739013671875 153.12307739257812" stroke-width="0.0" fill="rgb(208, 99, 40)" opacity="0.99003404"/>
    <path d="M 533.3849487304688 211.54501342773438 C 530.411865234375 218.82620239257812 524.7363891601562 224.14727783203125 517.6817016601562 226.05772399902344 C 511.3157958984375 224.13992309570312 505.8336181640625 218.69461059570312 503.9007263183594 211.41912841796875 C 505.3316650390625 204.60879516601562 510.4708557128906 198.94375610351562 518.1640625 196.88722229003906 C 525.9876098632812 198.55870056152344 531.5560913085938 203.97731018066406 533.3849487304688 211.54501342773438" stroke-width="0.0" fill="rgb(127, 11, 10)" opacity="0.9900201"/>
    <path d="M 421.2243957519531 311.6591796875 C 418.2854309082031 318.76324462890625 412.7218322753906 324.1604309082031 405.5128479003906 326.0704650878906 C 399.0348815917969 324.27294921875 392.8663635253906 319.23028564453125 391.4176330566406 312.4741516113281 C 393.3931579589844 304.7959289550781 398.81378173828125 299.4271545410156 406.2159423828125 297.2964172363281 C 413.50689697265625 298.9936828613281 418.9410400390625 304.51434326171875 421.2243957519531 311.6591796875" stroke-width="0.0" fill="rgb(246, 248, 236)" opacity="0.9900624"/>
    <path d="M 582.9730224609375 313.9930419921875 C 580.9669189453125 321.4803161621094 575.4818725585938 326.9722900390625 567.955322265625 329.01226806640625 C 560.1590576171875 327.19134521484375 554.29296875 322.039306640625 552.065673828125 313.2490234375 C 554.1034545898438 305.6135559082031 559.6133422851562 300.1027526855469 567.2139282226562 298.05755615234375 C 575.8173217773438 300.45062255859375 581.021484375 306.39361572265625 582.9730224609375 313.9930419921875" stroke-width="0.0" fill="rgb(119, 2, 2)" opacity="1.0"/>
    <path d="M 411.9869689941406 184.9835662841797 C 409.8895568847656 192.31024169921875 404.1341552734375 197.422119140625 397.6001281738281 199.08230590820312 C 390.2486877441406 197.17132568359375 384.6312561035156 191.8188018798828 382.3616027832031 184.75694274902344 C 384.2091064453125 177.36300659179688 389.1313781738281 171.4673614501953 396.9680480957031 169.3734893798828 C 404.6077880859375 171.69639587402344 409.9781188964844 177.5075225830078 411.9869689941406 184.9835662841797" stroke-width="0.0" fill="rgb(248, 228, 181)" opacity="0.9901235"/>
    <path d="M 608.0594482421875 280.8807067871094 C 605.9210205078125 288.3901062011719 600.3267211914062 293.72064208984375 593.1039428710938 295.4006652832031 C 585.2772827148438 293.7475280761719 579.3509521484375 288.98651123046875 578.7830810546875 281.7586975097656 C 580.7725830078125 274.1521301269531 586.0496826171875 268.5035095214844 593.7439575195312 265.19537353515625 C 601.1502075195312 267.233642578125 606.3640747070312 272.9933776855469 608.0594482421875 280.8807067871094" stroke-width="0.0" fill="rgb(146, 33, 2)" opacity="0.99004185"/>
    <path d="M 483.5989685058594 156.52645874023438 C 481.749267578125 164.2596435546875 476.2816162109375 169.81224060058594 468.7870178222656 171.82554626464844 C 461.24749755859375 168.22735595703125 455.8109130859375 162.73904418945312 453.9046936035156 155.40650939941406 C 455.41632080078125 148.6358184814453 460.4132385253906 142.84201049804688 467.9005432128906 140.99069213867188 C 475.453857421875 143.05938720703125 480.9686584472656 148.538818359375 483.5989685058594 156.52645874023438" stroke-width="0.0" fill="rgb(148, 26, 27)" opacity="0.9900489"/>
    <path d="M 481.8786315917969 329.491943359375 C 479.4529113769531 336.28399658203125 473.1195068359375 341.7684631347656 466.4189453125 344.81488037109375 C 459.0386047363281 341.4683837890625 453.6713562011719 335.9156188964844 451.88580322265625 329.3247985839844 C 453.7812805175781 322.2278137207031 459.2210998535156 316.76348876953125 466.1627502441406 314.8388366699219 C 472.8443908691406 316.72265625 478.51995849609375 322.09228515625 481.8786315917969 329.491943359375" stroke-width="0.0" fill="rgb(135, 127, 87)" opacity="0.9900184"/>
    <path d="M 335.863525390625 269.298095703125 C 334.3763427734375 276.99755859375 329.1158752441406 282.7211608886719 321.5596008300781 284.8124084472656 C 313.81817626953125 282.10321044921875 308.6845397949219 275.975341796875 306.878173828125 268.8609313964844 C 308.6863098144531 262.1073913574219 314.07110595703125 256.5799865722656 321.24810791015625 254.35841369628906 C 328.2132568359375 256.3347473144531 333.6697692871094 261.7853088378906 335.863525390625 269.298095703125" stroke-width="0.0" fill="rgb(197, 108, 59)" opacity="0.9901138"/>
    <path d="M 502.0758361816406 248.54518127441406 C 500.3681335449219 255.073486328125 495.2438659667969 260.7956237792969 488.0025939941406 262.6297912597656 C 480.5405578613281 260.9069519042969 475.0320129394531 255.4774932861328 472.93670654296875 247.7607879638672 C 474.4407043457031 239.8400421142578 479.75006103515625 234.17752075195312 487.27239990234375 232.09115600585938 C 494.8197326660156 235.47396850585938 500.1568908691406 241.26885986328125 502.0758361816406 248.54518127441406" stroke-width="0.0" fill="rgb(137, 10, 8)" opacity="0.9900531"/>
    <path d="M 510.1133728027344 197.5595245361328 C 508.37994384765625 205.12796020507812 503.4981994628906 211.31222534179688 496.4723815917969 213.3717041015625 C 488.8432922363281 210.5560760498047 483.2793273925781 205.21151733398438 481.36578369140625 197.95794677734375 C 483.1738586425781 190.63665771484375 488.64111328125 185.18759155273438 496.6856689453125 182.22576904296875 C 504.2212219238281 184.22052001953125 509.390380859375 189.8704376220703 510.1133728027344 197.5595245361328" stroke-width="0.0" fill="rgb(233, 218, 165)" opacity="0.9901039"/>
  </g>
</svg>
