<?xml version="1.0" ?>
<svg xmlns="http://www.w3.org/2000/svg" version="1.1" width="600" height="600">
  <defs/>
  <g>
    <path d="M 156.72344970703125 283.59344482421875 C 154.66766357421875 291.0870666503906 149.05105590820312 296.58013916015625 141.220458984375 298.5794982910156 C 133.25503540039062 296.29541015625 127.76507568359375 290.726806640625 125.8484115600586 283.1163024902344 C 128.00961303710938 275.5 133.5 270.0096130371094 141.00294494628906 267.9962158203125 C 148.50057983398438 270.0040283203125 153.966796875 275.50799560546875 156.72344970703125 283.59344482421875" stroke-width="0.0" fill="rgb(224, 222, 188)" opacity="1.0"/>
    <path d="M 239.43849182128906 433.5144958496094 C 237.28787231445312 440.8092956542969 231.78811645507812 446.2285461425781 224.382080078125 448.16900634765625 C 217.53013610839844 446.899658203125 212.01092529296875 441.4958801269531 210.00001525878906 433.99993896484375 C 212.00961303710938 426.5 217.5 421.0096130371094 225.0 419.0 C 232.5 421.0096130371094 237.99038696289062 426.5 239.43849182128906 433.5144958496094" stroke-width="0.0" fill="rgb(168, 122, 72)" opacity="0.99012685"/>
    <path d="M 21.016414642333984 298.97454833984375 C 18.990381240844727 306.5 13.5 311.9903869628906 5.8886637687683105 314.26690673828125 C -1.5221648216247559 312.06341552734375 -6.988685131072998 306.5005798339844 -9.006114959716797 298.9878234863281 C -7.0477705001831055 291.4018249511719 -1.6657706499099731 285.7398986816406 5.889341831207275 283.6265869140625 C 13.704737663269043 285.7400207519531 19.095491409301758 291.3464660644531 21.016414642333984 298.97454833984375" stroke-width="0.0" fill="rgb(252, 250, 241)" opacity="0.9918948"/>
    <path d="M 166.0 348.0 C 163.99038696289062 355.5 158.5 360.9903869628906 150.81968688964844 363.2431640625 C 143.22105407714844 361.3182678222656 137.6588592529297 355.7850036621094 135.5996856689453 348.29364013671875 C 137.9621124267578 340.4568786621094 143.4661865234375 334.9898376464844 150.99612426757812 332.9978942871094 C 158.5 335.0096130371094 163.99038696289062 340.5 166.0 348.0" stroke-width="0.0" fill="rgb(227, 220, 131)" opacity="0.9902829"/>
    <path d="M 41.671836853027344 282.3821716308594 C 38.990379333496094 290.5 33.5 295.9903869628906 26.094764709472656 297.93017578125 C 18.897666931152344 295.6836242675781 13.656689643859863 289.98455810546875 11.905416488647461 283.56256103515625 C 13.84700870513916 276.31317138671875 19.31865692138672 270.8606262207031 26.8197078704834 268.8751220703125 C 34.29247283935547 269.20294189453125 39.7963981628418 274.7078552246094 41.671836853027344 282.3821716308594" stroke-width="0.0" fill="rgb(174, 82, 32)" opacity="0.99002707"/>
    <path d="M 67.0 308.0 C 64.9903793334961 315.5 59.499847412109375 320.9898376464844 51.25017547607422 323.8464050292969 C 43.69776916503906 321.8338317871094 38.22666931152344 316.2799987792969 36.377159118652344 308.57330322265625 C 39.009620666503906 300.5 44.5 295.0096130371094 52.0 293.0 C 59.5 295.0096130371094 64.9903793334961 300.5 67.0 308.0" stroke-width="0.0" fill="rgb(201, 172, 77)" opacity="1.0"/>
    <path d="M 123.92288970947266 178.50132751464844 C 121.7987289428711 187.28509521484375 116.30088806152344 192.83578491210938 108.75008392333984 194.84446716308594 C 100.5 191.99038696289062 95.0096206665039 186.5 93.0 179.0 C 95.0096206665039 171.5 100.5 166.00961303710938 108.12128448486328 163.91746520996094 C 116.02774047851562 165.6114044189453 121.79340362548828 170.8224334716797 123.92288970947266 178.50132751464844" stroke-width="0.0" fill="rgb(150, 66, 29)" opacity="1.0"/>
    <path d="M 197.0807647705078 178.8965301513672 C 194.99038696289062 186.5 189.5 191.99038696289062 182.0 194.0 C 174.5 191.99038696289062 169.00961303710938 186.5 166.74729919433594 178.83970642089844 C 168.76010131835938 171.33734130859375 174.3946533203125 165.94264221191406 182.30091857910156 163.62229919433594 C 189.93431091308594 165.50225830078125 195.29818725585938 171.1280059814453 197.0807647705078 178.8965301513672" stroke-width="0.0" fill="rgb(235, 211, 186)" opacity="1.0"/>
    <path d="M 157.2262420654297 391.75311279296875 C 154.99037170410156 399.5 149.50143432617188 404.9957580566406 141.86770629882812 407.3900146484375 C 134.43740844726562 405.1376037597656 129.0234375 399.5142517089844 126.2908935546875 391.3572692871094 C 128.28628540039062 383.8542175292969 133.86856079101562 378.31658935546875 141.54104614257812 376.1939392089844 C 150.1021270751953 378.3538818359375 155.51490783691406 383.93914794921875 157.2262420654297 391.75311279296875" stroke-width="0.0" fill="rgb(231, 230, 174)" opacity="1.0"/>
    <path d="M 231.9938507080078 231.00759887695312 C 229.99038696289062 238.5 224.5 243.99038696289062 216.73797607421875 246.2123260498047 C 208.8360137939453 244.57571411132812 203.1991424560547 239.23828125 201.22071838378906 231.7169952392578 C 204.533447265625 224.08352661132812 210.1388702392578 218.7103729248047 217.5186004638672 216.6588897705078 C 224.45993041992188 218.05963134765625 229.96343994140625 223.53314208984375 231.9938507080078 231.00759887695312" stroke-width="0.0" fill="rgb(112, 52, 32)" opacity="0.9900858"/>
    <path d="M 138.47000122070312 406.2801208496094 C 136.22421264648438 413.6019287109375 130.52940368652344 418.9993591308594 123.13401794433594 420.95111083984375 C 115.54420471191406 418.7061462402344 109.66001892089844 413.69024658203125 107.66229248046875 406.1255187988281 C 109.6954345703125 398.1188659667969 114.99608612060547 392.3602294921875 122.48933410644531 390.3085021972656 C 130.72679138183594 392.6124267578125 136.01756286621094 398.3985290527344 138.47000122070312 406.2801208496094" stroke-width="0.0" fill="rgb(228, 221, 205)" opacity="1.0"/>
    <path d="M 204.12355041503906 374.08367919921875 C 202.14793395996094 381.6138610839844 196.58514404296875 387.0535888671875 188.31700134277344 389.7838134765625 C 180.72457885742188 387.8038024902344 175.19082641601562 382.2774658203125 173.09402465820312 374.02337646484375 C 175.1956024169922 365.7218017578125 180.7233428955078 360.1998596191406 188.3135223388672 358.2063293457031 C 196.5 361.0096130371094 201.99038696289062 366.5 204.12355041503906 374.08367919921875" stroke-width="0.0" fill="rgb(185, 176, 109)" opacity="1.0"/>
    <path d="M 23.84956932067871 349.867431640625 C 21.694948196411133 357.2142639160156 16.21705436706543 362.7057189941406 8.84632682800293 365.3927917480469 C 1.4665616750717163 363.0638122558594 -3.9882702827453613 357.5107727050781 -5.99569034576416 349.9969482421875 C -3.9903810024261475 342.5 1.5 337.0096130371094 9.0 335.0 C 16.5 337.0096130371094 21.990381240844727 342.5 23.84956932067871 349.867431640625" stroke-width="0.0" fill="rgb(240, 232, 237)" opacity="0.99058974"/>
    <path d="M 136.748046875 333.99176025390625 C 134.71694946289062 341.2756652832031 129.3133087158203 346.8396911621094 121.95492553710938 348.964599609375 C 114.5 346.9903869628906 109.0096206665039 341.5 106.16001892089844 333.24737548828125 C 108.15249633789062 325.67095947265625 113.67593383789062 320.1647033691406 121.29644775390625 318.1318359375 C 129.11154174804688 321.3612976074219 134.64735412597656 326.8822937011719 136.748046875 333.99176025390625" stroke-width="0.0" fill="rgb(160, 107, 69)" opacity="0.9902086"/>
    <path d="M 282.9068908691406 392.4859313964844 C 280.7754821777344 401.24041748046875 275.2479553222656 406.79241943359375 266.5463562011719 408.921142578125 C 258.7209167480469 406.8301086425781 253.26197814941406 401.24127197265625 251.3710479736328 393.69183349609375 C 254.56741333007812 385.96063232421875 259.88494873046875 380.33709716796875 267.7606201171875 377.1809387207031 C 275.3410339355469 379.1485900878906 280.8551940917969 384.65753173828125 282.9068908691406 392.4859313964844" stroke-width="0.0" fill="rgb(196, 92, 38)" opacity="0.99043596"/>
    <path d="M 113.47462463378906 404.4695739746094 C 112.53397369384766 411.9344482421875 106.84149169921875 417.2481384277344 99.07499694824219 419.05303955078125 C 91.5 416.9903869628906 86.0096206665039 411.5 83.1437759399414 403.2260437011719 C 85.14674377441406 395.6921691894531 90.73601531982422 390.25811767578125 98.36443328857422 388.6867980957031 C 106.41961669921875 391.369873046875 112.00846099853516 396.4175109863281 113.47462463378906 404.4695739746094" stroke-width="0.0" fill="rgb(143, 72, 37)" opacity="0.9900459"/>
    <path d="M 225.71002197265625 292.4365539550781 C 223.16961669921875 300.77386474609375 217.90908813476562 306.5567321777344 210.40081787109375 308.7178955078125 C 202.2726593017578 306.3434753417969 196.92445373535156 300.63983154296875 194.9900360107422 293.0191955566406 C 197.01258850097656 285.4991149902344 202.46697998046875 279.904296875 210.5771026611328 277.3227844238281 C 218.17694091796875 279.2813415527344 223.7048797607422 284.8291320800781 225.71002197265625 292.4365539550781" stroke-width="0.0" fill="rgb(201, 208, 151)" opacity="1.0"/>
    <path d="M 41.248207092285156 341.87322998046875 C 38.989566802978516 349.4972839355469 33.47150802612305 354.90045166015625 26.73751449584961 356.1061706542969 C 19.308753967285156 354.1484375 13.821765899658203 348.70208740234375 11.696532249450684 341.3660888671875 C 13.009618759155273 334.5 18.5 329.0096130371094 26.00184440612793 326.9991760253906 C 33.53003692626953 328.99609375 39.13886260986328 334.4285888671875 41.248207092285156 341.87322998046875" stroke-width="0.0" fill="rgb(171, 60, 19)" opacity="0.9900334"/>
    <path d="M 316.0 249.0 C 313.9903869628906 256.5 308.50018310546875 261.9910583496094 300.427490234375 264.7566223144531 C 293.1540222167969 262.6025085449219 288.4707336425781 256.3480224609375 286.695556640625 248.66050720214844 C 288.0844421386719 241.52658081054688 293.505615234375 236.01182556152344 301.000244140625 234.00010681152344 C 308.5 236.00961303710938 313.9903869628906 241.5 316.0 249.0" stroke-width="0.0" fill="rgb(251, 135, 86)" opacity="0.9902134"/>
    <path d="M 247.00889587402344 303.0094299316406 C 245.03050231933594 310.56787109375 239.59165954589844 316.1034240722656 231.7217254638672 317.4570007324219 C 224.43008422851562 316.1007080078125 218.82412719726562 310.59686279296875 217.19725036621094 303.20733642578125 C 219.15744018554688 295.5906066894531 224.4742431640625 289.7939758300781 231.7499542236328 287.5382385253906 C 239.5 290.0096130371094 244.99038696289062 295.5 247.00889587402344 303.0094299316406" stroke-width="0.0" fill="rgb(243, 244, 236)" opacity="1.0"/>
    <path d="M 186.508544921875 156.55189514160156 C 184.310546875 163.8498077392578 178.86819458007812 169.36643981933594 171.94305419921875 171.2275390625 C 165.0186309814453 169.39755249023438 159.40000915527344 164.04515075683594 156.21958923339844 156.2600860595703 C 158.1435089111328 148.64801025390625 163.6501007080078 143.14987182617188 171.29820251464844 141.25466918945312 C 179.5 144.00961303710938 184.99038696289062 149.5 186.508544921875 156.55189514160156" stroke-width="0.0" fill="rgb(176, 36, 9)" opacity="0.99002963"/>
    <path d="M 214.60662841796875 441.60443115234375 C 212.3163604736328 448.8011474609375 206.76055908203125 454.19671630859375 199.81153869628906 456.09649658203125 C 192.99813842773438 454.2852783203125 186.37554931640625 449.66143798828125 184.07228088378906 441.3591613769531 C 186.1487274169922 433.6889343261719 191.71556091308594 428.212646484375 199.39015197753906 426.19293212890625 C 207.6009521484375 428.78607177734375 213.0041961669922 434.46600341796875 214.60662841796875 441.60443115234375" stroke-width="0.0" fill="rgb(145, 100, 58)" opacity="0.99004596"/>
    <path d="M 22.583568572998047 334.5393981933594 C 20.749862670898438 342.2505798339844 15.253874778747559 347.75970458984375 7.5581464767456055 349.6040344238281 C -0.4999435544013977 346.990234375 -5.990377426147461 341.5 -8.000041961669922 333.9998779296875 C -5.992173671722412 326.4947509765625 -0.5277410745620728 320.9302978515625 6.931617259979248 318.47247314453125 C 14.5123929977417 320.9706115722656 19.990882873535156 326.4984130859375 22.583568572998047 334.5393981933594" stroke-width="0.0" fill="rgb(245, 235, 234)" opacity="1.0"/>
    <path d="M 18.102861404418945 334.0436096191406 C 16.036983489990234 341.5196533203125 10.507030487060547 346.9934997558594 3.000244617462158 348.9977111816406 C -4.499981880187988 346.9903259277344 -9.99038028717041 341.5 -11.999998092651367 334.0 C -9.990326881408691 326.5001525878906 -4.500180721282959 321.0083923339844 3.178384780883789 318.5528259277344 C 10.544079780578613 320.9021911621094 15.997273445129395 326.4857177734375 18.102861404418945 334.0436096191406" stroke-width="0.0" fill="rgb(242, 236, 237)" opacity="0.99707234"/>
    <path d="M 121.95863342285156 348.0536193847656 C 119.98978424072266 355.5016784667969 114.51036834716797 361.0199279785156 106.96249389648438 363.0838928222656 C 99.47811126708984 360.983154296875 93.76560974121094 355.6026611328125 91.25143432617188 347.6782531738281 C 93.33948516845703 339.83209228515625 98.79573059082031 334.2425231933594 106.3246078491211 332.3252868652344 C 114.2015380859375 335.39276123046875 119.80686950683594 340.7356262207031 121.95863342285156 348.0536193847656" stroke-width="0.0" fill="rgb(184, 165, 130)" opacity="1.0"/>
    <path d="M 81.05696105957031 319.0845031738281 C 79.29129028320312 326.91326904296875 74.05855560302734 332.69390869140625 65.57904052734375 334.8997802734375 C 57.69002914428711 332.83172607421875 52.18522644042969 327.3034973144531 50.24449157714844 319.6743469238281 C 53.009620666503906 311.5 58.5 306.0096130371094 66.0 304.0 C 73.5 306.0096130371094 78.9903793334961 311.5 81.05696105957031 319.0845031738281" stroke-width="0.0" fill="rgb(236, 121, 34)" opacity="1.0"/>
    <path d="M 87.99889373779297 250.0016632080078 C 85.9903793334961 257.5 80.50029754638672 262.9914855957031 72.71228790283203 265.5276794433594 C 65.29639434814453 263.3351135253906 59.94978713989258 257.609130859375 57.99391174316406 250.01101684570312 C 60.009620666503906 242.5 65.5 237.00961303710938 73.00254821777344 234.9966278076172 C 80.49430847167969 237.00775146484375 85.98397064208984 242.50782775878906 87.99889373779297 250.0016632080078" stroke-width="0.0" fill="rgb(210, 217, 146)" opacity="0.9904218"/>
    <path d="M 235.8888397216797 189.12091064453125 C 233.99038696289062 196.5 228.5 201.99038696289062 221.0213623046875 203.9824676513672 C 213.57666015625 201.9210662841797 208.0899658203125 196.419921875 206.0244903564453 188.9728546142578 C 208.00973510742188 181.50038146972656 213.50445556640625 176.02455139160156 220.51881408691406 174.6880645751953 C 227.9930877685547 176.63204956054688 233.65354919433594 181.9101104736328 235.8888397216797 189.12091064453125" stroke-width="0.0" fill="rgb(236, 176, 113)" opacity="0.99008703"/>
    <path d="M 152.0 164.0 C 149.99038696289062 171.5 144.5 176.99038696289062 137.0 179.0 C 129.5 176.99038696289062 124.0096206665039 171.5 122.00006866455078 164.00021362304688 C 124.01363372802734 156.51235961914062 129.57884216308594 151.22271728515625 137.42152404785156 149.7030792236328 C 144.5 151.00961303710938 149.99038696289062 156.5 152.0 164.0" stroke-width="0.0" fill="rgb(207, 57, 13)" opacity="0.9938776"/>
    <path d="M 236.1823272705078 376.3481750488281 C 234.44639587402344 384.17242431640625 229.36514282226562 389.9635009765625 222.05697631835938 392.1668395996094 C 214.4997100830078 389.990478515625 208.99298095703125 384.50482177734375 206.5854949951172 377.0534973144531 C 208.99465942382812 369.4909973144531 214.47560119628906 363.94219970703125 221.8944854736328 361.75408935546875 C 229.5343017578125 364.0104675292969 235.3042449951172 369.3581848144531 236.1823272705078 376.3481750488281" stroke-width="0.0" fill="rgb(246, 243, 236)" opacity="1.0"/>
    <path d="M 99.88416290283203 273.5662841796875 C 97.77017211914062 281.1694641113281 92.04933166503906 286.42608642578125 84.42697143554688 287.3352355957031 C 75.85020446777344 286.3731689453125 70.20724487304688 281.2412109375 69.79849243164062 273.8279113769531 C 71.84986114501953 266.31207275390625 77.30853271484375 260.8402404785156 84.68730926513672 258.7686462402344 C 91.58960723876953 259.9721374511719 97.44390869140625 265.25714111328125 99.88416290283203 273.5662841796875" stroke-width="0.0" fill="rgb(120, 41, 17)" opacity="0.99001354"/>
    <path d="M 119.07183074951172 170.1793975830078 C 117.19210052490234 177.65626525878906 111.6175308227539 183.06002807617188 103.9860610961914 184.91488647460938 C 96.50688934326172 182.98826599121094 91.18869018554688 177.43832397460938 89.92888641357422 170.78976440429688 C 91.89019775390625 163.35140991210938 97.34817504882812 157.88259887695312 104.54080200195312 155.94479370117188 C 110.86074829101562 157.7820587158203 116.63640594482422 162.98696899414062 119.07183074951172 170.1793975830078" stroke-width="0.0" fill="rgb(117, 29, 18)" opacity="0.9900273"/>
    <path d="M 71.32718658447266 222.42196655273438 C 69.24779510498047 229.82984924316406 63.89879608154297 235.46218872070312 56.183109283447266 238.89463806152344 C 48.711021423339844 236.85049438476562 43.85239028930664 231.1694793701172 42.942291259765625 223.74386596679688 C 44.897865295410156 216.36619567871094 50.36518478393555 210.89479064941406 57.78362274169922 208.85206604003906 C 64.5 210.00961303710938 69.9903793334961 215.5 71.32718658447266 222.42196655273438" stroke-width="0.0" fill="rgb(119, 29, 18)" opacity="0.9900242"/>
    <path d="M 252.8346710205078 336.2626037597656 C 249.4583282470703 343.99029541015625 244.00759887695312 349.5135803222656 236.75497436523438 351.7837829589844 C 229.32945251464844 350.1061096191406 223.6502685546875 344.74896240234375 221.23951721191406 336.5341491699219 C 223.4015350341797 329.019287109375 229.103271484375 323.62725830078125 237.4928741455078 321.3067626953125 C 245.2132110595703 323.2786560058594 250.7920684814453 328.75860595703125 252.8346710205078 336.2626037597656" stroke-width="0.0" fill="rgb(237, 165, 70)" opacity="0.99008"/>
    <path d="M 282.0657653808594 309.0581359863281 C 280.29150390625 316.9206848144531 275.0523376464844 322.67437744140625 267.52783203125 324.75537109375 C 259.52740478515625 322.1004638671875 254.160400390625 316.3962097167969 251.2357635498047 308.3465881347656 C 253.23880004882812 300.79730224609375 258.83740234375 295.3456726074219 266.64739990234375 294.470458984375 C 274.79888916015625 295.57049560546875 280.1094665527344 301.3081970214844 282.0657653808594 309.0581359863281" stroke-width="0.0" fill="rgb(232, 219, 201)" opacity="1.0"/>
    <path d="M 207.57940673828125 294.1033935546875 C 205.72865295410156 301.2584533691406 200.2724151611328 306.7732238769531 192.9159698486328 308.9126281738281 C 185.5 306.9903869628906 180.00961303710938 301.5 178.0 294.0 C 180.00961303710938 286.5 185.5 281.0096130371094 192.9993133544922 279.0002746582031 C 200.48294067382812 281.0162658691406 205.85057067871094 286.5574645996094 207.57940673828125 294.1033935546875" stroke-width="0.0" fill="rgb(248, 244, 235)" opacity="0.9912289"/>
    <path d="M 247.0007781982422 232.00115966796875 C 244.9953155517578 239.5071563720703 239.5113983154297 245.00997924804688 231.95201110839844 247.29898071289062 C 224.48793029785156 245.02694702148438 219.00897216796875 239.50198364257812 216.87081909179688 231.85333251953125 C 218.63705444335938 224.08653259277344 224.0462646484375 218.50643920898438 231.7093505859375 216.59320068359375 C 239.50091552734375 219.00628662109375 244.99038696289062 224.49998474121094 247.0007781982422 232.00115966796875" stroke-width="0.0" fill="rgb(234, 232, 187)" opacity="0.99150527"/>
    <path d="M 177.651611328125 360.53338623046875 C 175.6810760498047 368.1079406738281 170.09304809570312 373.6548156738281 162.62025451660156 375.8355712890625 C 154.4901885986328 373.022705078125 149.00933837890625 367.50091552734375 147.0 360.0 C 149.00961303710938 352.5 154.5 347.0096130371094 162.0 345.0 C 169.5 347.0096130371094 174.99038696289062 352.5 177.651611328125 360.53338623046875" stroke-width="0.0" fill="rgb(94, 186, 59)" opacity="0.9911323"/>
    <path d="M 169.61758422851562 318.7713317871094 C 167.8923797607422 326.4618835449219 162.48960876464844 331.9862976074219 154.99957275390625 333.99981689453125 C 147.5 331.9903869628906 142.00961303710938 326.5 139.41079711914062 318.5882568359375 C 141.47865295410156 311.0281982421875 147.02919006347656 305.4877624511719 154.34719848632812 304.88214111328125 C 162.15008544921875 306.6078796386719 168.0520782470703 311.5872497558594 169.61758422851562 318.7713317871094" stroke-width="0.0" fill="rgb(247, 245, 229)" opacity="1.0"/>
    <path d="M 301.303466796875 226.72027587890625 C 298.9903869628906 234.5 293.5 239.99038696289062 285.74560546875 242.3170623779297 C 278.1562194824219 240.4222412109375 272.8065490722656 234.7715606689453 270.74322509765625 226.95887756347656 C 272.9487609863281 219.47723388671875 278.49737548828125 214.0174102783203 286.5608215332031 211.24087524414062 C 294.0841369628906 213.34332275390625 299.5180358886719 218.96417236328125 301.303466796875 226.72027587890625" stroke-width="0.0" fill="rgb(245, 221, 150)" opacity="0.9963881"/>
    <path d="M 229.99996948242188 435.9997863769531 C 227.9876708984375 443.4916076660156 222.44435119628906 448.83282470703125 215.6353759765625 450.1121826171875 C 208.04946899414062 448.2952880859375 202.33631896972656 443.0854797363281 199.8140106201172 435.724609375 C 201.48394775390625 427.9078369140625 206.8335723876953 422.26116943359375 214.3944549560547 420.2572021484375 C 222.51437377929688 422.9679260253906 227.9913330078125 428.4971923828125 229.99996948242188 435.9997863769531" stroke-width="0.0" fill="rgb(124, 74, 30)" opacity="0.9903253"/>
    <path d="M 323.81658935546875 252.28175354003906 C 321.77935791015625 260.2877197265625 316.319580078125 265.8586730957031 308.7743835449219 267.88525390625 C 300.0630187988281 265.50311279296875 294.7583923339844 259.8619384765625 293.597412109375 251.95751953125 C 295.0351257324219 244.5045928955078 300.49737548828125 239.00816345214844 308.73236083984375 236.14895629882812 C 316.2308349609375 238.2055206298828 321.7048034667969 243.8072967529297 323.81658935546875 252.28175354003906" stroke-width="0.0" fill="rgb(165, 70, 42)" opacity="0.9901878"/>
    <path d="M 280.3869934082031 268.6372375488281 C 278.3827209472656 275.9287414550781 272.9310607910156 281.3890686035156 265.30419921875 284.67156982421875 C 257.7509765625 282.7562255859375 252.1893310546875 277.2708740234375 250.1631622314453 269.7268981933594 C 252.9893341064453 261.4498291015625 258.3550109863281 255.70619201660156 266.6632080078125 253.13888549804688 C 274.162841796875 255.23532104492188 279.35662841796875 260.9661560058594 280.3869934082031 268.6372375488281" stroke-width="0.0" fill="rgb(164, 163, 118)" opacity="1.0"/>
    <path d="M 247.89529418945312 424.279052734375 C 245.21693420410156 432.2055358886719 239.0023956298828 437.36138916015625 231.46319580078125 439.25701904296875 C 224.501953125 437.98345947265625 219.0096435546875 432.4999084472656 216.31878662109375 424.4242248535156 C 218.25973510742188 416.7689514160156 223.74655151367188 411.2037658691406 231.44558715820312 409.156005859375 C 240.22409057617188 411.28948974609375 245.82708740234375 416.729248046875 247.89529418945312 424.279052734375" stroke-width="0.0" fill="rgb(115, 56, 23)" opacity="0.9900469"/>
    <path d="M 179.6942596435547 456.73681640625 C 177.4086456298828 464.5851135253906 171.25637817382812 469.5832214355469 164.09983825683594 471.5131530761719 C 156.8775634765625 469.55706787109375 151.51158142089844 464.09564208984375 149.40518188476562 456.5841369628906 C 150.5531005859375 448.9399108886719 155.84854125976562 443.2669982910156 164.5004119873047 441.1175537109375 C 172.29336547851562 443.1656188964844 177.72178649902344 448.7467956542969 179.6942596435547 456.73681640625" stroke-width="0.0" fill="rgb(228, 192, 152)" opacity="0.99081486"/>
    <path d="M 178.12205505371094 334.9475402832031 C 176.7869415283203 342.4285888671875 171.49200439453125 347.9879150390625 163.94815063476562 350.0645446777344 C 156.409423828125 348.1065673828125 150.96417236328125 342.5692443847656 149.0009765625 335.0080871582031 C 151.0096893310547 327.5000305175781 156.49972534179688 322.0086669921875 164.07931518554688 319.8909606933594 C 171.61827087402344 321.8465576171875 176.88746643066406 327.45550537109375 178.12205505371094 334.9475402832031" stroke-width="0.0" fill="rgb(243, 245, 229)" opacity="1.0"/>
    <path d="M 252.35507202148438 199.17538452148438 C 250.38958740234375 206.81373596191406 244.74696350097656 212.17697143554688 237.02203369140625 214.118896484375 C 229.49423217773438 212.00762939453125 224.00926208496094 206.5010528564453 222.0441436767578 199.0389862060547 C 224.0978546142578 191.5512237548828 229.47805786132812 185.86781311035156 236.91087341308594 183.72117614746094 C 244.680908203125 185.85107421875 250.20680236816406 191.3014678955078 252.35507202148438 199.17538452148438" stroke-width="0.0" fill="rgb(240, 233, 203)" opacity="1.0"/>
    <path d="M 136.67889404296875 350.6460876464844 C 134.7432098388672 358.2135314941406 129.2218017578125 363.7637939453125 121.54839324951172 365.8538818359375 C 113.12733459472656 363.5293884277344 107.93614959716797 357.71832275390625 106.47357177734375 350.193603515625 C 108.42296600341797 342.9175720214844 113.99278259277344 337.62353515625 121.53302764892578 335.7848205566406 C 128.67098999023438 336.84344482421875 133.8880157470703 342.39739990234375 136.67889404296875 350.6460876464844" stroke-width="0.0" fill="rgb(236, 180, 79)" opacity="0.9905835"/>
    <path d="M 233.62640380859375 436.03253173828125 C 230.75579833984375 443.10382080078125 224.95518493652344 448.3033142089844 217.3222198486328 450.1857604980469 C 210.0127716064453 449.5489807128906 204.61158752441406 443.9356384277344 202.58200073242188 435.9093017578125 C 204.68792724609375 428.2391357421875 210.24676513671875 422.7091064453125 217.9754180908203 420.42120361328125 C 225.62527465820312 422.75146484375 231.04013061523438 428.44873046875 233.62640380859375 436.03253173828125" stroke-width="0.0" fill="rgb(154, 108, 62)" opacity="1.0"/>
    <path d="M 153.0008544921875 179.0021209716797 C 151.00965881347656 186.54721069335938 145.63368225097656 192.27157592773438 137.70748901367188 194.72198486328125 C 129.9957733154297 192.5733184814453 124.37818908691406 187.02374267578125 122.46444702148438 179.58543395996094 C 124.55504608154297 171.16448974609375 130.26644897460938 165.86807250976562 137.97097778320312 163.98431396484375 C 145.5 166.00961303710938 150.99038696289062 171.5 153.0008544921875 179.0021209716797" stroke-width="0.0" fill="rgb(242, 231, 188)" opacity="1.0"/>
    <path d="M 148.77333068847656 428.7947082519531 C 146.83645629882812 436.3083190917969 141.30413818359375 441.826904296875 133.45346069335938 443.8997497558594 C 124.75575256347656 441.7796936035156 119.22559356689453 436.2416076660156 117.07267761230469 427.4422912597656 C 119.1629638671875 419.760986328125 125.05723571777344 415.6136169433594 133.75538635253906 413.89776611328125 C 140.94212341308594 414.41046142578125 145.58505249023438 420.36627197265625 148.77333068847656 428.7947082519531" stroke-width="0.0" fill="rgb(85, 17, 12)" opacity="0.99001896"/>
    <path d="M 296.5555419921875 336.8180847167969 C 294.01025390625 344.4128112792969 288.4024658203125 349.97760009765625 280.9975280761719 352.50494384765625 C 273.44305419921875 350.2093200683594 268.22320556640625 344.4126281738281 266.4761962890625 336.981689453125 C 268.1966247558594 329.5043640136719 273.35595703125 323.7476501464844 281.023681640625 321.69317626953125 C 288.8691101074219 323.63189697265625 294.42926025390625 329.1125793457031 296.5555419921875 336.8180847167969" stroke-width="0.0" fill="rgb(248, 239, 172)" opacity="1.0"/>
    <path d="M 199.0 231.0 C 196.99038696289062 238.5 191.5 243.99038696289062 183.9986572265625 246.00051879882812 C 176.4676513671875 244.00320434570312 170.7989501953125 238.5950469970703 168.44561767578125 230.80191040039062 C 170.51214599609375 223.01318359375 175.94000244140625 217.32989501953125 183.39891052246094 215.2366180419922 C 191.5 218.00961303710938 196.99038696289062 223.5 199.0 231.0" stroke-width="0.0" fill="rgb(231, 228, 178)" opacity="1.0"/>
    <path d="M 38.0 310.0 C 35.990379333496094 317.5 30.5 322.9903869628906 23.0 325.0 C 15.5 322.9903869628906 10.009618759155273 317.5 8.0 310.0 C 10.009618759155273 302.5 15.5 297.0096130371094 23.0 295.0 C 30.5 297.0096130371094 35.990379333496094 302.5 38.0 310.0" stroke-width="0.0" fill="rgb(220, 158, 74)" opacity="1.0"/>
    <path d="M 264.0 232.0 C 261.9903869628906 239.5 256.5 244.99038696289062 249.0 247.0 C 241.5 244.99038696289062 236.00875854492188 239.500244140625 234.06520080566406 232.0482177734375 C 236.02255249023438 224.5042266845703 241.50070190429688 219.0098419189453 249.00001525878906 217.0 C 256.5 219.00961303710938 261.9903869628906 224.5 264.0 232.0" stroke-width="0.0" fill="rgb(250, 247, 228)" opacity="0.9989536"/>
    <path d="M 159.5235137939453 331.26544189453125 C 158.013427734375 338.5286865234375 152.5323028564453 344.0265197753906 144.99270629882812 346.0119934082031 C 137.23265075683594 344.15081787109375 131.51036071777344 338.8759765625 129.56106567382812 331.33099365234375 C 131.66986083984375 323.092529296875 137.00967407226562 317.41668701171875 144.53866577148438 315.2939453125 C 152.21328735351562 318.2292785644531 157.58413696289062 323.8409729003906 159.5235137939453 331.26544189453125" stroke-width="0.0" fill="rgb(222, 214, 137)" opacity="0.9902706"/>
    <path d="M 151.31173706054688 238.7025146484375 C 149.4910888671875 247.02342224121094 144.05653381347656 252.5924530029297 136.0018768310547 253.17510986328125 C 127.90811157226562 252.62901306152344 122.40547943115234 247.07852172851562 120.52732849121094 239.4632110595703 C 123.01420593261719 231.49778747558594 128.49632263183594 226.00770568847656 135.95980834960938 224.0380401611328 C 143.52915954589844 226.0869903564453 149.5415496826172 231.2127227783203 151.31173706054688 238.7025146484375" stroke-width="0.0" fill="rgb(250, 244, 223)" opacity="1.0"/>
    <path d="M 213.16123962402344 396.2127990722656 C 211.52455139160156 404.1324462890625 206.23265075683594 409.8133544921875 197.54855346679688 411.93145751953125 C 189.6892547607422 409.8571472167969 184.3477325439453 404.247314453125 182.14315795898438 395.2292175292969 C 184.16522216796875 387.744384765625 189.87648010253906 382.6890563964844 198.10548400878906 381.8419494628906 C 205.4034881591797 383.250244140625 210.98297119140625 388.52093505859375 213.16123962402344 396.2127990722656" stroke-width="0.0" fill="rgb(102, 48, 32)" opacity="0.9903924"/>
    <path d="M 256.91717529296875 296.5848388671875 C 254.82339477539062 305.2892761230469 249.26934814453125 310.7724304199219 241.61614990234375 312.78668212890625 C 233.8882293701172 309.6759033203125 228.52110290527344 304.0553894042969 226.52540588378906 296.39788818359375 C 227.25411987304688 288.724853515625 232.68666076660156 283.14794921875 241.47132873535156 281.06500244140625 C 249.35769653320312 283.1233215332031 254.86215209960938 288.6484680175781 256.91717529296875 296.5848388671875" stroke-width="0.0" fill="rgb(178, 165, 126)" opacity="1.0"/>
    <path d="M 207.15597534179688 288.46563720703125 C 205.74697875976562 295.3966064453125 200.4720458984375 300.97979736328125 192.9990234375 302.9996337890625 C 185.5 300.9903869628906 180.00961303710938 295.5 177.99923706054688 287.9981384277344 C 179.9947509765625 280.4654541015625 185.4334716796875 274.89105224609375 193.3146209716797 273.69268798828125 C 200.6539306640625 274.6548156738281 205.41416931152344 280.77288818359375 207.15597534179688 288.46563720703125" stroke-width="0.0" fill="rgb(247, 246, 231)" opacity="0.99090165"/>
    <path d="M 294.0926818847656 190.79180908203125 C 293.75537109375 198.29161071777344 288.3226623535156 203.85130310058594 280.7294616699219 205.873779296875 C 272.3590393066406 203.29051208496094 266.9906921386719 197.54684448242188 265.4588928222656 190.4613037109375 C 267.7391052246094 183.2503204345703 273.2856750488281 177.84228515625 279.782958984375 175.93133544921875 C 286.6686096191406 177.86700439453125 292.1295471191406 183.3327178955078 294.0926818847656 190.79180908203125" stroke-width="0.0" fill="rgb(165, 48, 36)" opacity="0.99001336"/>
    <path d="M 93.00010681152344 314.00006103515625 C 90.99236297607422 321.5052185058594 85.5097427368164 327.0070495605469 78.3648681640625 328.3147888183594 C 70.81182861328125 326.5328369140625 65.13147735595703 321.3013000488281 63.00691223144531 313.95989990234375 C 64.9258804321289 306.34661865234375 70.22381591796875 300.5694885253906 77.62704467773438 298.8026123046875 C 85.49696350097656 301.02703857421875 90.9911880493164 306.49822998046875 93.00010681152344 314.00006103515625" stroke-width="0.0" fill="rgb(232, 233, 208)" opacity="0.9905502"/>
    <path d="M 279.85595703125 195.8517303466797 C 277.8228454589844 203.23558044433594 272.20001220703125 208.69720458984375 264.29681396484375 211.84803771972656 C 256.7281494140625 209.8079376220703 251.22300720214844 204.25904846191406 249.09046936035156 195.69898986816406 C 251.24742126464844 187.86331176757812 256.9955139160156 182.61203002929688 265.253662109375 180.70799255371094 C 273.06982421875 182.39952087402344 278.44244384765625 187.9756622314453 279.85595703125 195.8517303466797" stroke-width="0.0" fill="rgb(200, 129, 63)" opacity="1.0"/>
    <path d="M 32.0 306.0 C 29.990381240844727 313.5 24.5 318.9903869628906 17.013412475585938 320.9867858886719 C 9.541853904724121 318.9502258300781 4.058290958404541 313.45562744140625 2.039860486984253 305.984619140625 C 4.020238876342773 298.5089416503906 9.49459171295166 292.9689025878906 16.897008895874023 290.7305908203125 C 24.5 293.0096130371094 29.990381240844727 298.5 32.0 306.0" stroke-width="0.0" fill="rgb(252, 247, 226)" opacity="1.0"/>
    <path d="M 117.21763610839844 204.80458068847656 C 114.99275970458984 212.506591796875 109.52655029296875 218.0615234375 102.09746551513672 220.2350616455078 C 94.4893569946289 217.994384765625 88.91309356689453 212.5380096435547 86.73143768310547 205.1185302734375 C 89.0096206665039 197.5 94.5 192.00961303710938 102.21016693115234 189.70448303222656 C 109.86985778808594 191.63058471679688 115.38788604736328 197.1236114501953 117.21763610839844 204.80458068847656" stroke-width="0.0" fill="rgb(141, 154, 58)" opacity="0.990064"/>
    <path d="M 279.5741271972656 356.3094482421875 C 277.50140380859375 363.9148254394531 271.84259033203125 369.2801208496094 264.1053161621094 371.10064697265625 C 256.49920654296875 368.9906311035156 250.98654174804688 363.5071105957031 248.85235595703125 356.1955261230469 C 251.2873992919922 348.72979736328125 256.7143249511719 343.23779296875 264.16680908203125 340.8139953613281 C 271.4962463378906 342.9621276855469 277.0096130371094 348.5140686035156 279.5741271972656 356.3094482421875" stroke-width="0.0" fill="rgb(237, 225, 185)" opacity="1.0"/>
    <path d="M 81.80377197265625 246.95936584472656 C 79.61940002441406 254.06185913085938 73.97297668457031 259.3555908203125 66.3037109375 261.36236572265625 C 58.723880767822266 260.7701110839844 53.164730072021484 255.3002166748047 51.057838439941406 246.5247802734375 C 53.15068054199219 238.72003173828125 58.795440673828125 233.33262634277344 66.31134796142578 232.0172119140625 C 74.09290313720703 234.54823303222656 79.7114486694336 239.81727600097656 81.80377197265625 246.95936584472656" stroke-width="0.0" fill="rgb(169, 141, 44)" opacity="0.990112"/>
    <path d="M 98.6852798461914 191.68922424316406 C 96.40569305419922 198.88937377929688 90.8461685180664 204.2759552001953 83.29743194580078 206.59291076660156 C 75.8402099609375 205.6808624267578 70.38206481933594 200.14480590820312 69.94235229492188 192.81410217285156 C 71.90667724609375 185.3696746826172 77.35728454589844 179.87416076660156 84.71672821044922 177.77066040039062 C 91.5 179.00961303710938 96.9903793334961 184.5 98.6852798461914 191.68922424316406" stroke-width="0.0" fill="rgb(100, 21, 9)" opacity="0.99002373"/>
    <path d="M 195.04562377929688 284.06964111328125 C 192.99038696289062 291.5 187.5 296.9903869628906 179.46005249023438 299.58770751953125 C 171.74078369140625 297.7513122558594 166.1790008544922 292.28472900390625 164.12167358398438 284.7407531738281 C 167.4907684326172 277.0494079589844 173.1138916015625 271.7004089355469 180.0342559814453 269.8647155761719 C 186.9379119873047 271.6803283691406 192.6503448486328 276.9563903808594 195.04562377929688 284.06964111328125" stroke-width="0.0" fill="rgb(228, 135, 36)" opacity="0.99005187"/>
    <path d="M 104.24205017089844 222.02780151367188 C 102.15699005126953 229.57798767089844 96.5302963256836 235.00296020507812 88.47637176513672 237.56298828125 C 80.75411987304688 235.74171447753906 75.21807861328125 230.259521484375 73.27318572998047 222.61053466796875 C 75.59739685058594 213.95498657226562 80.81658935546875 208.20912170410156 88.25999450683594 206.1439971923828 C 96.549072265625 208.95697021484375 102.07514190673828 214.44210815429688 104.24205017089844 222.02780151367188" stroke-width="0.0" fill="rgb(135, 92, 92)" opacity="1.0"/>
    <path d="M 174.67291259765625 359.7196960449219 C 172.48583984375 367.0128479003906 167.01918029785156 372.5091552734375 159.1467742919922 375.9183654785156 C 151.62135314941406 373.8989562988281 146.14749145507812 368.36077880859375 145.6894989013672 360.8014221191406 C 147.7791290283203 353.2262878417969 153.22442626953125 347.77447509765625 160.6295166015625 345.7510070800781 C 167.5 347.0096130371094 172.99038696289062 352.5 174.67291259765625 359.7196960449219" stroke-width="0.0" fill="rgb(51, 119, 17)" opacity="0.9903429"/>
    <path d="M 197.0001678466797 240.00045776367188 C 194.9950714111328 247.51231384277344 189.54054260253906 253.09010314941406 182.36619567871094 254.3263702392578 C 174.20132446289062 253.20352172851562 168.5568084716797 247.86813354492188 167.590087890625 240.40086364746094 C 168.8179473876953 232.4220733642578 174.48550415039062 227.01766967773438 182.00582885742188 225.0063934326172 C 189.5 227.00961303710938 194.99038696289062 232.5 197.0001678466797 240.00045776367188" stroke-width="0.0" fill="rgb(244, 245, 243)" opacity="1.0"/>
    <path d="M 213.00527954101562 180.01358032226562 C 211.06517028808594 187.64443969726562 205.76480102539062 193.41639709472656 197.29212951660156 195.86949157714844 C 189.81304931640625 193.79147338867188 184.5765380859375 188.05517578125 182.2675323486328 179.3665313720703 C 184.18980407714844 171.69815063476562 189.69522094726562 166.18142700195312 197.28726196289062 164.50888061523438 C 205.43496704101562 167.1676483154297 210.9812774658203 172.51956176757812 213.00527954101562 180.01358032226562" stroke-width="0.0" fill="rgb(66, 29, 23)" opacity="1.0"/>
    <path d="M 109.8536376953125 295.49005126953125 C 107.61511993408203 304.099365234375 102.10669708251953 309.6316223144531 94.43079376220703 311.44769287109375 C 86.76627349853516 308.7917175292969 81.46732330322266 303.15008544921875 79.69615173339844 295.8994445800781 C 81.45801544189453 288.9271545410156 86.96830749511719 283.56927490234375 94.77409362792969 280.2586364746094 C 102.29307556152344 282.1747131347656 107.78296661376953 287.723876953125 109.8536376953125 295.49005126953125" stroke-width="0.0" fill="rgb(212, 134, 79)" opacity="0.99013305"/>
    <path d="M 221.71014404296875 360.41259765625 C 219.69149780273438 368.1336669921875 214.07733154296875 373.5145263671875 206.2150421142578 375.11834716796875 C 198.5 372.9903869628906 193.00961303710938 367.5 191.00076293945312 360.0030822753906 C 193.032470703125 352.5483093261719 198.59619140625 347.1867980957031 206.1392822265625 345.552490234375 C 213.99075317382812 346.58648681640625 219.5443115234375 351.9739074707031 221.71014404296875 360.41259765625" stroke-width="0.0" fill="rgb(249, 184, 77)" opacity="1.0"/>
    <path d="M 65.68449401855469 299.3936462402344 C 62.990379333496094 307.5 57.5 312.9903869628906 50.0 315.0 C 42.5 312.9903869628906 37.009620666503906 307.5 34.99427032470703 299.98797607421875 C 36.931026458740234 292.3420715332031 42.176753997802734 286.4847412109375 50.48748779296875 284.1424560546875 C 58.27078628540039 286.20806884765625 63.77608871459961 291.73480224609375 65.68449401855469 299.3936462402344" stroke-width="0.0" fill="rgb(191, 136, 52)" opacity="1.0"/>
    <path d="M 201.3070068359375 234.1900634765625 C 199.2623291015625 241.66452026367188 193.59556579589844 247.04783630371094 185.84375 249.28408813476562 C 178.16673278808594 247.3056640625 172.508544921875 241.89707946777344 170.39202880859375 234.36199951171875 C 172.97842407226562 226.49794006347656 178.5094757080078 221.019775390625 186.00332641601562 219.0030059814453 C 193.5 221.00961303710938 198.99038696289062 226.5 201.3070068359375 234.1900634765625" stroke-width="0.0" fill="rgb(231, 227, 178)" opacity="0.9909424"/>
    <path d="M 314.3802795410156 302.26214599609375 C 312.5415954589844 309.9551086425781 306.8858337402344 315.33160400390625 298.75616455078125 317.60516357421875 C 291.3258056640625 315.3564453125 285.9924011230469 309.5513916015625 283.8110046386719 301.8746643066406 C 285.8033447265625 294.3954772949219 291.5021667480469 289.1333923339844 299.2149963378906 286.6718444824219 C 306.8038330078125 288.7273864746094 312.4773864746094 294.1252136230469 314.3802795410156 302.26214599609375" stroke-width="0.0" fill="rgb(243, 242, 218)" opacity="1.0"/>
    <path d="M 223.5338897705078 392.2760009765625 C 222.57135009765625 400.1436462402344 217.2283477783203 405.8059387207031 209.72239685058594 407.89013671875 C 201.4331512451172 405.1817626953125 196.00453186035156 399.5079345703125 194.02877807617188 392.0962829589844 C 196.2824249267578 384.8119812011719 201.88626098632812 379.5090637207031 208.35484313964844 377.91552734375 C 215.7758026123047 379.82501220703125 221.48541259765625 385.1204833984375 223.5338897705078 392.2760009765625" stroke-width="0.0" fill="rgb(87, 51, 38)" opacity="0.9900213"/>
    <path d="M 161.48818969726562 158.27850341796875 C 158.29925537109375 165.84130859375 152.86602783203125 171.3787078857422 145.67018127441406 173.68148803710938 C 138.5 171.99038696289062 133.00961303710938 166.5 131.23756408691406 159.2801055908203 C 133.60888671875 152.171630859375 139.25103759765625 146.83815002441406 146.8686065673828 144.7353515625 C 154.33657836914062 145.14126586914062 159.81301879882812 150.6798858642578 161.48818969726562 158.27850341796875" stroke-width="0.0" fill="rgb(163, 24, 12)" opacity="0.99026126"/>
    <path d="M 215.5967559814453 253.67686462402344 C 213.52723693847656 262.1278991699219 208.22677612304688 267.808837890625 200.61521911621094 269.90948486328125 C 191.90670776367188 267.6722106933594 186.47264099121094 262.0421142578125 185.67703247070312 254.58164978027344 C 187.6563262939453 247.0988006591797 193.08595275878906 241.6190643310547 200.74081420898438 238.21261596679688 C 208.16937255859375 240.24415588378906 213.6092529296875 245.89236450195312 215.5967559814453 253.67686462402344" stroke-width="0.0" fill="rgb(191, 147, 48)" opacity="0.9900713"/>
    <path d="M 215.15078735351562 363.4894714355469 C 213.63153076171875 370.3768310546875 208.5977325439453 376.2265319824219 200.81871032714844 378.54345703125 C 193.4937744140625 376.29156494140625 188.52207946777344 370.2025451660156 186.76869201660156 362.54266357421875 C 187.61415100097656 355.1009216308594 193.0946502685547 349.5855712890625 200.68057250976562 347.51806640625 C 207.91465759277344 350.5265808105469 213.26190185546875 356.15228271484375 215.15078735351562 363.4894714355469" stroke-width="0.0" fill="rgb(245, 243, 216)" opacity="0.9900531"/>
    <path d="M 105.52989959716797 315.51885986328125 C 103.03936004638672 323.8684997558594 98.04783630371094 329.6766662597656 90.4559326171875 331.7687683105469 C 82.21870422363281 329.3993225097656 76.8752670288086 323.6903991699219 74.93672943115234 315.9922180175781 C 76.82684326171875 308.2249450683594 82.0909423828125 302.4438171386719 89.59654998779297 300.2494201660156 C 97.90518188476562 302.6210021972656 103.57923889160156 308.0218811035156 105.52989959716797 315.51885986328125" stroke-width="0.0" fill="rgb(237, 231, 203)" opacity="1.0"/>
    <path d="M 147.39608764648438 226.80914306640625 C 145.61717224121094 234.21002197265625 140.2541961669922 239.75485229492188 132.96044921875 241.8079071044922 C 125.6894302368164 239.83056640625 120.47811126708984 234.199462890625 118.72706604003906 226.489013671875 C 120.00757598876953 219.5045166015625 125.52609252929688 214.08236694335938 133.24142456054688 212.05093383789062 C 140.67308044433594 213.7871856689453 145.9740753173828 219.39231872558594 147.39608764648438 226.80914306640625" stroke-width="0.0" fill="rgb(250, 249, 240)" opacity="0.9923055"/>
    <path d="M 166.22222900390625 183.89801025390625 C 164.12904357910156 191.664794921875 158.6924285888672 197.21804809570312 150.98974609375 199.1865234375 C 143.560302734375 196.9995880126953 138.2645263671875 191.35658264160156 136.4066925048828 183.8426513671875 C 138.0431671142578 176.50621032714844 143.49325561523438 170.99871826171875 151.05455017089844 168.94520568847656 C 158.68212890625 170.84133911132812 164.2471923828125 176.29078674316406 166.22222900390625 183.89801025390625" stroke-width="0.0" fill="rgb(247, 247, 241)" opacity="0.99048567"/>
    <path d="M 205.13209533691406 226.6369171142578 C 203.7134552001953 234.73870849609375 198.878662109375 240.3901824951172 191.11831665039062 242.2531280517578 C 183.37486267089844 240.14125061035156 177.87399291992188 234.62037658691406 175.7838592529297 226.96463012695312 C 177.70567321777344 219.11131286621094 183.02081298828125 213.4270782470703 190.65650939941406 212.6897430419922 C 198.69732666015625 213.87828063964844 204.0894012451172 219.30929565429688 205.13209533691406 226.6369171142578" stroke-width="0.0" fill="rgb(228, 228, 205)" opacity="0.99046147"/>
    <path d="M 190.0909881591797 187.70704650878906 C 189.41250610351562 195.0323944091797 184.1414031982422 200.7403564453125 176.7268829345703 201.23960876464844 C 168.5536346435547 199.63624572753906 162.74839782714844 194.6668701171875 160.7731475830078 187.14129638671875 C 163.05551147460938 179.6095733642578 168.68557739257812 174.29931640625 175.67483520507812 172.6484832763672 C 182.79661560058594 174.68690490722656 188.1779022216797 180.2512664794922 190.0909881591797 187.70704650878906" stroke-width="0.0" fill="rgb(237, 235, 216)" opacity="0.990112"/>
    <path d="M 97.29420471191406 382.5628662109375 C 96.61067199707031 390.0937805175781 91.13658142089844 395.7195739746094 82.3189926147461 397.9257507324219 C 74.63605499267578 395.8782653808594 69.12823486328125 390.36126708984375 67.0693130493164 382.4197692871094 C 69.16068267822266 373.68304443359375 74.69247436523438 368.1866455078125 82.34874725341797 366.2913818359375 C 90.39315032958984 369.06134033203125 95.57048797607422 374.7364807128906 97.29420471191406 382.5628662109375" stroke-width="0.0" fill="rgb(152, 100, 34)" opacity="1.0"/>
    <path d="M 79.16024780273438 314.38690185546875 C 77.97191619873047 321.7650451660156 72.85922241210938 327.3955993652344 65.19220733642578 329.2845764160156 C 57.47015380859375 327.0389099121094 51.992774963378906 321.5205078125 49.99375534057617 314.0054931640625 C 52.009620666503906 306.5 57.5 301.0096130371094 64.5877685546875 299.613037109375 C 72.14798736572266 301.4840393066406 77.453125 306.8809509277344 79.16024780273438 314.38690185546875" stroke-width="0.0" fill="rgb(223, 121, 41)" opacity="0.9900836"/>
    <path d="M 38.81819534301758 319.3843994140625 C 35.990379333496094 327.5 30.5 332.9903869628906 23.101306915283203 334.9011535644531 C 15.795448303222656 332.7235107421875 10.487771034240723 327.1343078613281 8.826776504516602 320.3028259277344 C 10.65758991241455 313.0499267578125 15.973745346069336 307.4322204589844 23.17871856689453 305.159912109375 C 30.614992141723633 306.9613342285156 36.53089904785156 312.19183349609375 38.81819534301758 319.3843994140625" stroke-width="0.0" fill="rgb(224, 158, 68)" opacity="0.9900747"/>
    <path d="M 44.940467834472656 330.1134338378906 C 42.82014083862305 338.2227783203125 37.09259796142578 343.4587097167969 29.40013885498047 344.6041259765625 C 22.17383575439453 342.36468505859375 16.826980590820312 336.7576904296875 14.923837661743164 329.4892883300781 C 16.782663345336914 323.2053527832031 22.155872344970703 317.6415710449219 29.61896324157715 314.6493835449219 C 37.285491943359375 316.2431945800781 42.856231689453125 321.67913818359375 44.940467834472656 330.1134338378906" stroke-width="0.0" fill="rgb(125, 49, 21)" opacity="0.99006426"/>
    <path d="M 157.68057250976562 161.69923400878906 C 155.32174682617188 168.79229736328125 149.7406005859375 174.17019653320312 142.53981018066406 176.0734405517578 C 136.22909545898438 174.19818115234375 130.64125061035156 168.8247833251953 128.30677795410156 161.66567993164062 C 129.98886108398438 154.4638214111328 135.43313598632812 148.88734436035156 142.7122039794922 147.2178955078125 C 150.23353576660156 149.3353271484375 155.7435302734375 154.74160766601562 157.68057250976562 161.69923400878906" stroke-width="0.0" fill="rgb(200, 29, 7)" opacity="0.9900475"/>
    <path d="M 248.54615783691406 355.7509460449219 C 246.427490234375 364.0408935546875 241.1487274169922 369.7447509765625 233.60623168945312 371.8260192871094 C 225.20327758789062 369.37744140625 220.1018524169922 363.6754455566406 218.4303436279297 355.5033264160156 C 219.41860961914062 347.9971923828125 225.0572052001953 342.5901794433594 233.3958740234375 340.2527770996094 C 241.08998107910156 342.35345458984375 246.5317840576172 347.9490661621094 248.54615783691406 355.7509460449219" stroke-width="0.0" fill="rgb(248, 242, 190)" opacity="1.0"/>
    <path d="M 196.69207763671875 139.5732421875 C 193.99038696289062 147.5 188.5 152.99038696289062 181.0236358642578 154.98460388183594 C 173.62876892089844 152.89686584472656 168.03553771972656 147.38296508789062 165.429931640625 140.3802490234375 C 168.45465087890625 132.91299438476562 173.86346435546875 127.27732849121094 180.60833740234375 125.64395904541016 C 188.10630798339844 127.51423645019531 194.19769287109375 132.72300720214844 196.69207763671875 139.5732421875" stroke-width="0.0" fill="rgb(226, 156, 35)" opacity="0.9900631"/>
    <path d="M 105.05854797363281 364.4414978027344 C 103.11552429199219 371.6631164550781 97.68193054199219 377.1629333496094 90.3685302734375 379.1681213378906 C 83.59309387207031 377.6522216796875 77.3934097290039 372.8331604003906 75.0665283203125 364.3015441894531 C 77.12333679199219 356.6388244628906 82.64015197753906 351.1268310546875 90.19776153564453 349.11474609375 C 97.77518463134766 352.6792907714844 103.16500854492188 358.273193359375 105.05854797363281 364.4414978027344" stroke-width="0.0" fill="rgb(72, 28, 17)" opacity="0.9900181"/>
    <path d="M 238.8824920654297 262.8265686035156 C 236.87611389160156 270.353515625 231.3473663330078 275.8622741699219 222.51229858398438 277.942626953125 C 214.64706420898438 275.8780517578125 209.15211486816406 270.3402099609375 207.2181396484375 262.7863464355469 C 210.5847930908203 254.88333129882812 215.5783233642578 248.70013427734375 222.3963623046875 247.56211853027344 C 229.83212280273438 249.73452758789062 235.39662170410156 255.12477111816406 238.8824920654297 262.8265686035156" stroke-width="0.0" fill="rgb(35, 72, 5)" opacity="0.9900257"/>
    <path d="M 199.90200805664062 146.50926208496094 C 197.84022521972656 154.31802368164062 192.30816650390625 159.814697265625 184.63902282714844 161.82785034179688 C 176.85939025878906 158.93519592285156 171.61196899414062 153.00454711914062 169.6521759033203 145.5270233154297 C 170.89138793945312 138.32557678222656 176.26536560058594 132.69326782226562 184.01890563964844 130.45413208007812 C 191.9862518310547 132.57823181152344 197.7230987548828 137.89683532714844 199.90200805664062 146.50926208496094" stroke-width="0.0" fill="rgb(231, 146, 64)" opacity="1.0"/>
    <path d="M 103.0 247.0 C 100.9903793334961 254.5 95.4999771118164 259.99029541015625 88.0211410522461 262.0682678222656 C 80.80496215820312 259.7812194824219 75.57495880126953 254.07518005371094 73.78178405761719 246.5640411376953 C 74.81830596923828 239.128173828125 79.99078369140625 233.373779296875 87.51805877685547 231.39620971679688 C 95.5 234.00961303710938 100.9903793334961 239.5 103.0 247.0" stroke-width="0.0" fill="rgb(31, 75, 11)" opacity="0.99015933"/>
    <path d="M 43.20760726928711 306.2026062011719 C 41.37710189819336 313.82366943359375 35.69729232788086 318.8495788574219 27.61051368713379 320.63238525390625 C 20.32760238647461 319.273681640625 15.17624282836914 313.53729248046875 13.817887306213379 306.4461669921875 C 15.649721145629883 299.03192138671875 20.945995330810547 293.3980712890625 28.15143394470215 291.1391906738281 C 35.49016571044922 293.0163879394531 40.97052764892578 298.51373291015625 43.20760726928711 306.2026062011719" stroke-width="0.0" fill="rgb(217, 153, 77)" opacity="0.99013543"/>
    <path d="M 110.86982727050781 412.8069763183594 C 108.85712432861328 420.318115234375 103.28683471679688 425.7796325683594 95.68389892578125 427.6033020019531 C 88.073974609375 424.4009704589844 82.59053802490234 418.92828369140625 79.27167510986328 411.3538513183594 C 81.38211822509766 404.0762023925781 87.32219696044922 399.1136474609375 94.80770874023438 397.5792541503906 C 102.07695770263672 399.47637939453125 107.54405212402344 404.91644287109375 110.86982727050781 412.8069763183594" stroke-width="0.0" fill="rgb(96, 24, 16)" opacity="0.9900281"/>
    <path d="M 83.78892517089844 212.3885498046875 C 81.2881851196289 220.73582458496094 75.59711456298828 225.76211547851562 67.62553405761719 227.47073364257812 C 60.50898361206055 226.05361938476562 55.11788558959961 220.43988037109375 53.76704788208008 213.70166015625 C 55.86860275268555 206.35015869140625 61.362003326416016 200.89979553222656 68.88449096679688 198.81837463378906 C 76.20760345458984 199.2351531982422 81.76129913330078 204.79251098632812 83.78892517089844 212.3885498046875" stroke-width="0.0" fill="rgb(148, 33, 9)" opacity="0.9900501"/>
    <path d="M 188.90101623535156 348.2511291503906 C 186.71676635742188 357.2033996582031 181.21621704101562 362.7503967285156 173.5788116455078 364.7171936035156 C 165.445068359375 362.1019287109375 160.04421997070312 356.5115661621094 158.63916015625 349.5326843261719 C 160.75401306152344 342.2154541015625 166.19578552246094 336.6895751953125 173.79598999023438 333.1408996582031 C 181.35704040527344 335.133056640625 186.87789916992188 340.638427734375 188.90101623535156 348.2511291503906" stroke-width="0.0" fill="rgb(80, 124, 15)" opacity="0.9901002"/>
    <path d="M 271.083251953125 172.34812927246094 C 269.2146301269531 178.80982971191406 263.8938293457031 184.46661376953125 256.6421203613281 187.19091796875 C 249.39291381835938 185.21926879882812 243.99368286132812 179.5389404296875 242.16864013671875 172.21212768554688 C 244.52774047851562 165.10546875 250.20225524902344 159.80587768554688 256.6930847167969 157.92828369140625 C 263.6829833984375 159.85885620117188 269.1553039550781 165.31134033203125 271.083251953125 172.34812927246094" stroke-width="0.0" fill="rgb(191, 75, 40)" opacity="0.99001473"/>
    <path d="M 296.2433776855469 310.8189697265625 C 295.8194885253906 318.3059387207031 290.3081359863281 323.8254699707031 282.33551025390625 325.87530517578125 C 273.6959228515625 323.8218994140625 268.3020324707031 318.2717590332031 267.90826416015625 310.5407409667969 C 269.6632385253906 303.11041259765625 275.1744079589844 297.7928466796875 281.50872802734375 295.94683837890625 C 288.7008361816406 297.8561096191406 294.1799011230469 303.2839050292969 296.2433776855469 310.8189697265625" stroke-width="0.0" fill="rgb(75, 36, 28)" opacity="0.9900144"/>
    <path d="M 169.74960327148438 397.21026611328125 C 166.17628479003906 404.6865234375 160.6692657470703 410.1270446777344 153.36419677734375 412.065673828125 C 147.17564392089844 410.2879333496094 141.8179473876953 404.7748718261719 139.93148803710938 397.7208557128906 C 141.7345428466797 390.80267333984375 145.9176788330078 384.22540283203125 154.5894775390625 382.0651550292969 C 162.30426025390625 384.150146484375 167.7947235107422 389.7210693359375 169.74960327148438 397.21026611328125" stroke-width="0.0" fill="rgb(26, 69, 3)" opacity="0.9900118"/>
    <path d="M 152.4327392578125 276.64190673828125 C 150.03460693359375 284.5448913574219 144.55215454101562 290.05938720703125 137.01141357421875 292.12518310546875 C 129.4759063720703 290.0401916503906 124.0363540649414 284.5003662109375 121.28131103515625 276.5186767578125 C 123.38524627685547 268.8971252441406 128.85287475585938 263.2784118652344 136.7399139404297 261.3074951171875 C 145.15322875976562 263.2894287109375 150.5950164794922 268.8880920410156 152.4327392578125 276.64190673828125" stroke-width="0.0" fill="rgb(226, 221, 184)" opacity="1.0"/>
    <path d="M 261.3792419433594 222.8180389404297 C 258.9903869628906 230.5 253.5 235.99038696289062 246.00454711914062 237.99667358398438 C 238.5253143310547 235.9722442626953 233.05929565429688 230.46524047851562 230.9900360107422 222.92251586914062 C 232.89337158203125 215.4338836669922 238.53248596191406 210.19647216796875 246.37001037597656 208.26622009277344 C 253.6198272705078 209.70162963867188 259.1273193359375 215.4525146484375 261.3792419433594 222.8180389404297" stroke-width="0.0" fill="rgb(246, 243, 232)" opacity="1.0"/>
    <path d="M 15.455976486206055 333.62225341796875 C 12.975268363952637 341.4911804199219 7.494509220123291 346.98675537109375 -0.0007535438053309917 348.9997253417969 C -7.5 346.9903869628906 -12.990381240844727 341.5 -15.0 334.0 C -12.990381240844727 326.5 -7.5 321.0096130371094 0.16084975004196167 318.7658996582031 C 7.909208297729492 320.665283203125 13.553481101989746 326.0208435058594 15.455976486206055 333.62225341796875" stroke-width="0.0" fill="rgb(239, 232, 231)" opacity="0.99679136"/>
    <path d="M 115.93083190917969 255.62765502929688 C 113.8810043334961 263.3653259277344 108.36197662353516 268.8730163574219 100.76889038085938 270.9010009765625 C 92.39515686035156 268.2149963378906 86.87678527832031 262.5765075683594 84.73696899414062 255.08424377441406 C 87.01012420654297 247.50811767578125 92.50991821289062 242.01760864257812 100.29359436035156 239.7514190673828 C 108.18043518066406 241.39791870117188 113.81639099121094 246.7465362548828 115.93083190917969 255.62765502929688" stroke-width="0.0" fill="rgb(47, 99, 15)" opacity="1.0"/>
    <path d="M 140.71629333496094 158.66201782226562 C 138.4474334716797 165.9604034423828 132.9049530029297 171.3013458251953 125.34487915039062 173.21018981933594 C 118.10236358642578 172.51414489746094 112.81083679199219 166.7904815673828 111.85403442382812 159.77926635742188 C 113.88951110839844 152.36102294921875 119.36515808105469 146.90000915527344 126.65601348876953 144.95057678222656 C 132.7552947998047 146.82943725585938 138.45791625976562 152.1581573486328 140.71629333496094 158.66201782226562" stroke-width="0.0" fill="rgb(91, 31, 18)" opacity="0.99001396"/>
    <path d="M 221.06915283203125 178.98770141601562 C 219.15875244140625 185.71104431152344 213.72145080566406 191.18426513671875 206.34945678710938 193.130126953125 C 199.58865356445312 191.79078674316406 194.03321838378906 186.46620178222656 192.00128173828125 179.01234436035156 C 194.13673400878906 171.73391723632812 199.93084716796875 166.64395141601562 206.36534118652344 164.9349365234375 C 213.69424438476562 166.8573455810547 219.15512084960938 172.30030822753906 221.06915283203125 178.98770141601562" stroke-width="0.0" fill="rgb(85, 39, 23)" opacity="0.990019"/>
    <path d="M 113.58029174804688 238.6944580078125 C 111.55660247802734 245.683837890625 105.16175079345703 250.43450927734375 98.34712219238281 252.14517211914062 C 91.19093322753906 250.25799560546875 85.7410888671875 244.80894470214844 83.69117736816406 237.55810546875 C 85.55113983154297 230.97853088378906 90.95510864257812 225.4857635498047 98.0446548461914 223.64996337890625 C 105.06609344482422 225.45172119140625 110.43218231201172 230.97433471679688 113.58029174804688 238.6944580078125" stroke-width="0.0" fill="rgb(163, 187, 116)" opacity="0.99003315"/>
    <path d="M 322.1064758300781 350.5976867675781 C 320.25244140625 357.7715148925781 314.7431945800781 363.1802978515625 307.2041931152344 365.15380859375 C 299.6986083984375 364.7889709472656 294.14666748046875 359.3247985839844 293.293212890625 351.8681335449219 C 295.8377685546875 344.2488708496094 301.1534729003906 338.529052734375 307.55706787109375 336.8229675292969 C 315.8974609375 338.1630859375 321.1996154785156 343.0578308105469 322.1064758300781 350.5976867675781" stroke-width="0.0" fill="rgb(66, 8, 3)" opacity="0.9900109"/>
    <path d="M 46.882877349853516 288.27789306640625 C 44.64295959472656 297.10491943359375 39.082576751708984 302.5754089355469 31.556550979614258 303.5074768066406 C 24.162708282470703 301.3308410644531 18.775920867919922 295.79791259765625 16.820796966552734 288.45166015625 C 18.502784729003906 281.92291259765625 23.89464569091797 276.4186096191406 31.584369659423828 273.62237548828125 C 39.30483627319336 275.2281188964844 44.864662170410156 280.66357421875 46.882877349853516 288.27789306640625" stroke-width="0.0" fill="rgb(149, 58, 21)" opacity="0.9901439"/>
    <path d="M 270.1207580566406 369.3443908691406 C 268.4405212402344 376.078369140625 263.1268615722656 381.56292724609375 255.2216339111328 384.6912536621094 C 247.66310119628906 382.8554382324219 242.16151428222656 377.3298645019531 240.08209228515625 369.30560302734375 C 242.2409210205078 360.9287414550781 248.6832733154297 356.67913818359375 255.86683654785156 354.9142761230469 C 262.79888916015625 356.7810974121094 268.2782897949219 362.1752624511719 270.1207580566406 369.3443908691406" stroke-width="0.0" fill="rgb(120, 81, 45)" opacity="0.9900232"/>
    <path d="M 263.3973388671875 255.30531311035156 C 261.58184814453125 263.0685119628906 256.1266784667969 268.7236022949219 247.33119201660156 270.9388122558594 C 239.6702880859375 268.8703918457031 234.28367614746094 263.2780456542969 233.73062133789062 255.697509765625 C 235.7333221435547 248.12203979492188 241.03079223632812 242.4685516357422 248.18630981445312 240.1555633544922 C 255.54449462890625 241.9895782470703 261.20477294921875 247.39398193359375 263.3973388671875 255.30531311035156" stroke-width="0.0" fill="rgb(110, 43, 28)" opacity="0.99005246"/>
    <path d="M 131.32870483398438 211.8157501220703 C 128.98951721191406 219.49908447265625 123.49043273925781 224.95838928222656 115.80949401855469 226.71177673339844 C 108.6766586303711 225.0162353515625 103.3994140625 219.20982360839844 101.7974853515625 212.57586669921875 C 103.77107238769531 205.20814514160156 109.18299865722656 199.70411682128906 116.32289123535156 197.8485107421875 C 123.25650024414062 199.38987731933594 129.1466064453125 204.58224487304688 131.32870483398438 211.8157501220703" stroke-width="0.0" fill="rgb(250, 245, 241)" opacity="0.9900603"/>
    <path d="M 105.21986389160156 185.36761474609375 C 103.20611572265625 192.7471923828125 97.75057220458984 198.21554565429688 90.43513488769531 200.24502563476562 C 83.69197845458984 198.73440551757812 78.25212097167969 193.31300354003906 76.74048614501953 186.5845489501953 C 78.82818603515625 179.3252716064453 84.3458251953125 173.886474609375 91.77787780761719 171.85324096679688 C 98.51280975341797 173.01976013183594 103.98042297363281 178.48556518554688 105.21986389160156 185.36761474609375" stroke-width="0.0" fill="rgb(73, 11, 9)" opacity="0.99006224"/>
    <path d="M 202.96461486816406 299.0098571777344 C 201.12216186523438 306.7361145019531 195.8677978515625 312.51190185546875 188.20730590820312 314.6888732910156 C 180.1740264892578 312.3502502441406 174.53309631347656 306.86932373046875 173.67591857910156 299.5293884277344 C 175.24607849121094 291.6557922363281 180.6034393310547 286.0777282714844 188.01564025878906 284.00982666015625 C 195.5 286.0096130371094 200.99038696289062 291.5 202.96461486816406 299.0098571777344" stroke-width="0.0" fill="rgb(250, 246, 238)" opacity="0.99894273"/>
    <path d="M 235.13619995117188 236.73583984375 C 233.18386840820312 243.75502014160156 227.8127899169922 249.3631591796875 220.3175811767578 252.7657470703125 C 212.75550842285156 250.7852020263672 207.3072052001953 245.2111358642578 205.44349670410156 237.486083984375 C 208.02066040039062 229.50030517578125 213.49691772460938 224.0089874267578 220.32078552246094 222.7813262939453 C 227.7091522216797 224.8267822265625 233.1826629638672 230.28744506835938 235.13619995117188 236.73583984375" stroke-width="0.0" fill="rgb(110, 40, 20)" opacity="0.9900281"/>
    <path d="M 263.9656982421875 236.94094848632812 C 261.7618408203125 244.1632537841797 256.014404296875 249.34666442871094 248.5038299560547 251.12246704101562 C 241.1073760986328 250.2731475830078 235.41827392578125 244.98309326171875 233.145751953125 237.17137145996094 C 235.45843505859375 229.08265686035156 241.17742919921875 223.73361206054688 248.94821166992188 221.97755432128906 C 256.5365295410156 223.94952392578125 262.003662109375 229.47750854492188 263.9656982421875 236.94094848632812" stroke-width="0.0" fill="rgb(237, 227, 187)" opacity="0.9900561"/>
    <path d="M 55.24419403076172 354.677734375 C 54.769859313964844 362.2919006347656 49.32440185546875 367.8589782714844 41.8836555480957 369.3763732910156 C 34.35481643676758 366.1123046875 28.884044647216797 360.64654541015625 26.863740921020508 353.2469482421875 C 28.306848526000977 346.71466064453125 33.660701751708984 341.1318054199219 41.459999084472656 338.302734375 C 48.384666442871094 340.5589599609375 53.37529373168945 346.9553527832031 55.24419403076172 354.677734375" stroke-width="0.0" fill="rgb(111, 39, 36)" opacity="0.9900179"/>
    <path d="M 240.46678161621094 204.87498474121094 C 237.8928985595703 212.3787384033203 232.3601531982422 217.825439453125 224.3594970703125 220.76832580566406 C 216.8274688720703 218.7229461669922 211.29893493652344 213.1636962890625 209.20999145507812 205.48489379882812 C 211.729736328125 197.53469848632812 217.76583862304688 192.43325805664062 225.47714233398438 190.24974060058594 C 232.85357666015625 191.5625 238.26361083984375 197.2046356201172 240.46678161621094 204.87498474121094" stroke-width="0.0" fill="rgb(239, 207, 157)" opacity="0.9907519"/>
    <path d="M 206.14271545410156 293.0296325683594 C 204.11599731445312 300.6100158691406 198.6124725341797 306.125244140625 191.07276916503906 308.1810607910156 C 183.4647216796875 306.0211486816406 177.936279296875 300.5478820800781 176.60755920410156 293.4921875 C 178.6092987060547 285.94561767578125 183.70274353027344 279.7325744628906 190.5842742919922 277.7777099609375 C 198.5231475830078 280.0382995605469 204.04957580566406 285.4533386230469 206.14271545410156 293.0296325683594" stroke-width="0.0" fill="rgb(251, 245, 226)" opacity="0.99032116"/>
    <path d="M 68.7499008178711 304.7682189941406 C 66.01659393310547 312.248779296875 60.12026596069336 317.508056640625 52.902610778808594 319.3628845214844 C 45.97039794921875 317.5097351074219 40.60414123535156 311.98919677734375 38.82044219970703 305.2142639160156 C 40.70186233520508 298.14453125 46.13175582885742 292.6658935546875 53.2623291015625 290.72552490234375 C 60.32119369506836 292.3873291015625 66.38695526123047 297.370849609375 68.7499008178711 304.7682189941406" stroke-width="0.0" fill="rgb(221, 201, 133)" opacity="0.9900541"/>
    <path d="M 260.4132080078125 175.5508575439453 C 258.3039245605469 183.9326171875 253.0472869873047 189.6560821533203 245.67361450195312 191.26023864746094 C 238.0532684326172 188.38311767578125 232.61489868164062 182.9482879638672 230.74745178222656 175.4833221435547 C 231.43751525878906 167.84381103515625 236.7765655517578 162.21893310546875 244.3890380859375 160.16737365722656 C 253.1201629638672 162.36282348632812 258.6449279785156 167.87759399414062 260.4132080078125 175.5508575439453" stroke-width="0.0" fill="rgb(244, 168, 68)" opacity="0.9900397"/>
    <path d="M 309.6029357910156 233.3419952392578 C 307.40887451171875 240.96798706054688 301.958740234375 246.3813018798828 294.42156982421875 248.25856018066406 C 287.24359130859375 247.35287475585938 281.8623046875 241.68572998046875 279.99652099609375 234.07212829589844 C 282.02972412109375 226.4946746826172 287.4615173339844 220.9186553955078 295.46337890625 218.3829803466797 C 303.1518859863281 220.32354736328125 308.6954345703125 225.84169006347656 309.6029357910156 233.3419952392578" stroke-width="0.0" fill="rgb(248, 208, 138)" opacity="1.0"/>
    <path d="M 278.1333923339844 236.11949157714844 C 276.2672424316406 243.76377868652344 270.7251281738281 249.1040802001953 263.4900207519531 250.1762237548828 C 256.0274963378906 248.36099243164062 250.48114013671875 243.03009033203125 248.3065643310547 235.72735595703125 C 250.00257873535156 228.5027313232422 255.49737548828125 222.98486328125 263.10064697265625 220.72427368164062 C 270.6246643066406 222.81629943847656 276.0503234863281 228.41705322265625 278.1333923339844 236.11949157714844" stroke-width="0.0" fill="rgb(245, 240, 217)" opacity="0.9909948"/>
  </g>
</svg>
