<?xml version="1.0" ?>
<svg xmlns="http://www.w3.org/2000/svg" version="1.1" width="600" height="600">
  <defs/>
  <g>
    <path d="M 551.9329833984375 596.3029174804688 C 549.56298828125 604.8388671875 543.6328735351562 610.0467529296875 536.005859375 612.0026245117188 C 528.4915161132812 609.9937133789062 522.9475708007812 604.525634765625 520.6101684570312 596.6583251953125 C 522.3220825195312 588.7553100585938 527.6976318359375 583.150390625 535.2347412109375 581.1329956054688 C 544.0971069335938 583.5208129882812 549.8148803710938 588.78076171875 551.9329833984375 596.3029174804688" stroke-width="0.0" fill="rgb(161, 8, 6)" opacity="0.99015474"/>
    <path d="M 570.9078979492188 281.8926696777344 C 568.8782348632812 289.4002685546875 563.3870239257812 294.83880615234375 555.4073486328125 297.6402587890625 C 547.7887573242188 295.7252197265625 542.2537841796875 290.2198181152344 540.283203125 281.4208984375 C 542.2300415039062 273.8221130371094 547.9005737304688 268.4223327636719 556.0479736328125 266.28375244140625 C 563.87646484375 268.52459716796875 569.2058715820312 274.20794677734375 570.9078979492188 281.8926696777344" stroke-width="0.0" fill="rgb(240, 228, 151)" opacity="1.0"/>
    <path d="M 19.920501708984375 415.7952880859375 C 17.88031578063965 423.3611145019531 12.357462882995605 428.8717346191406 4.613430023193359 430.9288024902344 C -3.960824728012085 428.6686706542969 -9.099996566772461 422.72698974609375 -11.006022453308105 415.0155334472656 C -8.990121841430664 407.4942626953125 -3.546931743621826 401.8737487792969 4.376102447509766 399.3543701171875 C 11.96126937866211 401.44873046875 17.55884552001953 407.0357971191406 19.920501708984375 415.7952880859375" stroke-width="0.0" fill="rgb(125, 16, 16)" opacity="0.9900425"/>
    <path d="M 527.7571411132812 588.351318359375 C 525.466064453125 596.9281005859375 519.8851928710938 602.3274536132812 512.2406005859375 603.972900390625 C 504.9351501464844 601.610595703125 499.62725830078125 595.9850463867188 497.792236328125 588.8663940429688 C 499.6427307128906 582.0794677734375 505.0411682128906 576.5164794921875 512.6192016601562 573.2596435546875 C 520.1817626953125 575.2972412109375 525.7686157226562 580.790283203125 527.7571411132812 588.351318359375" stroke-width="0.0" fill="rgb(227, 175, 112)" opacity="0.9902138"/>
    <path d="M 22.853618621826172 181.42105102539062 C 20.643680572509766 188.79287719726562 14.12530517578125 193.3761444091797 6.92677116394043 195.1606903076172 C -0.09444978833198547 193.4182586669922 -5.827577114105225 188.2396240234375 -7.979173183441162 180.9645233154297 C -5.990381240844727 173.5 -0.5 168.00961303710938 6.92151403427124 166.11773681640625 C 14.608211517333984 168.1012420654297 20.516618728637695 173.17808532714844 22.853618621826172 181.42105102539062" stroke-width="0.0" fill="rgb(203, 125, 68)" opacity="0.9900664"/>
    <path d="M 80.0066909790039 115.01448822021484 C 78.0865478515625 122.69349670410156 72.8919677734375 128.5956573486328 64.42453002929688 130.9021453857422 C 56.7014045715332 128.82957458496094 51.25593566894531 123.2698974609375 49.7144889831543 114.61756896972656 C 51.43392562866211 107.1163101196289 57.13850021362305 101.4704818725586 64.42031860351562 100.49103546142578 C 72.4422378540039 102.17461395263672 77.98784637451172 107.50794982910156 80.0066909790039 115.01448822021484" stroke-width="0.0" fill="rgb(43, 40, 36)" opacity="0.9900472"/>
    <path d="M 531.3497314453125 285.09246826171875 C 529.5213012695312 293.0012512207031 524.0263061523438 298.5907287597656 515.9816284179688 300.6654052734375 C 507.9836120605469 298.6181945800781 502.6850891113281 292.9149475097656 500.60687255859375 285.0707702636719 C 502.83624267578125 277.36944580078125 508.3489990234375 271.77581787109375 516.6090087890625 269.1844482421875 C 524.1170043945312 271.28973388671875 529.537109375 276.9501037597656 531.3497314453125 285.09246826171875" stroke-width="0.0" fill="rgb(235, 219, 151)" opacity="1.0"/>
    <path d="M 456.85540771484375 333.24932861328125 C 454.08673095703125 341.48309326171875 448.3342590332031 346.641845703125 441.31829833984375 348.21575927734375 C 434.12237548828125 346.3193054199219 428.6720886230469 340.8809814453125 426.7047424316406 333.5390930175781 C 428.1368103027344 326.42388916015625 433.279541015625 320.6552734375 441.70343017578125 318.15045166015625 C 449.30438232421875 320.1700439453125 454.83349609375 325.6944580078125 456.85540771484375 333.24932861328125" stroke-width="0.0" fill="rgb(247, 182, 101)" opacity="0.99005073"/>
    <path d="M 498.9108581542969 120.70442962646484 C 496.77117919921875 129.2262420654297 491.2105712890625 134.7309112548828 483.562255859375 136.66159057617188 C 475.5 133.99038696289062 470.0096130371094 128.5 467.3315734863281 120.37230682373047 C 469.18780517578125 112.68022918701172 474.66986083984375 107.15754699707031 482.268798828125 105.49820709228516 C 491.1059875488281 107.53539276123047 496.78460693359375 112.79521942138672 498.9108581542969 120.70442962646484" stroke-width="0.0" fill="rgb(204, 109, 48)" opacity="0.99008507"/>
    <path d="M 464.65789794921875 197.5447540283203 C 462.56451416015625 204.97499084472656 456.9717102050781 210.55441284179688 448.41552734375 212.8564453125 C 440.73583984375 210.79579162597656 435.2150573730469 205.25958251953125 433.1634216308594 197.62942504882812 C 435.78759765625 189.40353393554688 441.4707336425781 183.9981231689453 448.9944763183594 182.00172424316406 C 456.44842529296875 184.0358123779297 461.79608154296875 189.6040802001953 464.65789794921875 197.5447540283203" stroke-width="0.0" fill="rgb(225, 127, 90)" opacity="0.99113244"/>
    <path d="M 38.840538024902344 76.43937683105469 C 36.623023986816406 84.07411193847656 31.08674430847168 89.64667510986328 22.768556594848633 91.77165222167969 C 14.841806411743164 89.72158813476562 9.535188674926758 84.08089447021484 7.239009857177734 75.3517837524414 C 9.207670211791992 67.71216583251953 14.6936674118042 62.16145324707031 22.474031448364258 60.0932502746582 C 31.057104110717773 62.278106689453125 36.31876754760742 68.12430572509766 38.840538024902344 76.43937683105469" stroke-width="0.0" fill="rgb(192, 138, 114)" opacity="1.0"/>
    <path d="M 483.90667724609375 94.36724090576172 C 482.59564208984375 102.1249008178711 477.17425537109375 107.73703002929688 468.9774475097656 109.87528228759766 C 460.8037109375 107.73152923583984 455.22686767578125 102.21493530273438 453.15802001953125 94.63795471191406 C 455.33428955078125 85.80686950683594 460.7633361816406 80.21149444580078 468.3231201171875 78.15211486816406 C 476.5888671875 80.84797668457031 482.04840087890625 86.43806457519531 483.90667724609375 94.36724090576172" stroke-width="0.0" fill="rgb(225, 145, 109)" opacity="1.0"/>
    <path d="M 167.76417541503906 517.5878295898438 C 165.7517852783203 525.2207641601562 160.22471618652344 530.761962890625 152.59078979492188 532.8157958984375 C 144.28688049316406 530.3200073242188 138.90475463867188 524.640625 136.23863220214844 516.3286743164062 C 138.18939208984375 508.70684814453125 143.70750427246094 503.1907043457031 151.45458984375 501.2009582519531 C 160.05445861816406 503.3559875488281 165.39837646484375 509.0280456542969 167.76417541503906 517.5878295898438" stroke-width="0.0" fill="rgb(248, 194, 120)" opacity="1.0"/>
    <path d="M 562.13037109375 109.07878875732422 C 560.2599487304688 116.79296875 554.862548828125 122.46365356445312 547.3966064453125 124.59292602539062 C 539.7683715820312 121.7095947265625 534.2722778320312 116.23758697509766 531.7938842773438 108.82508850097656 C 533.7927856445312 101.31564331054688 539.3641357421875 95.97684478759766 547.517822265625 93.38390350341797 C 554.8825073242188 95.45939636230469 560.1445922851562 101.2578125 562.13037109375 109.07878875732422" stroke-width="0.0" fill="rgb(239, 191, 123)" opacity="1.0"/>
    <path d="M 556.9066162109375 344.186767578125 C 554.5569458007812 353.1617431640625 549.2498779296875 358.81964111328125 541.6317138671875 360.8944091796875 C 533.0526733398438 358.5673522949219 527.4308471679688 352.9485778808594 526.7578735351562 345.79888916015625 C 528.8527221679688 338.3103942871094 534.300048828125 332.8254089355469 541.8703002929688 329.1842041015625 C 549.3714599609375 331.1122131347656 554.8790893554688 336.632568359375 556.9066162109375 344.186767578125" stroke-width="0.0" fill="rgb(78, 84, 54)" opacity="0.990178"/>
    <path d="M 523.699951171875 380.4814453125 C 521.0336303710938 388.5123291015625 515.487060546875 393.9451599121094 508.358642578125 395.4128723144531 C 500.96929931640625 393.4700012207031 495.53009033203125 388.0299987792969 493.3846740722656 380.5589904785156 C 494.50872802734375 372.9384765625 499.8473205566406 367.2553405761719 507.9571838378906 365.124755859375 C 516.1971435546875 367.24969482421875 521.6826171875 372.8295593261719 523.699951171875 380.4814453125" stroke-width="0.0" fill="rgb(245, 216, 123)" opacity="1.0"/>
    <path d="M 431.80902099609375 172.5691375732422 C 429.8140563964844 180.27432250976562 424.2430725097656 185.72901916503906 416.35504150390625 187.67112731933594 C 408.0885314941406 185.51519775390625 403.2203674316406 179.72727966308594 401.7922668457031 171.94883728027344 C 402.75433349609375 163.9584503173828 407.8177795410156 158.22439575195312 416.1993103027344 156.09608459472656 C 424.2740173339844 158.1889190673828 429.7370910644531 163.7527313232422 431.80902099609375 172.5691375732422" stroke-width="0.0" fill="rgb(216, 44, 22)" opacity="0.99003303"/>
    <path d="M 106.9280776977539 352.3264465332031 C 104.83755493164062 360.3097229003906 99.31336975097656 365.8451232910156 91.64551544189453 367.9166259765625 C 83.0660171508789 365.6271667480469 77.88414001464844 359.7356872558594 75.98975372314453 352.0208435058594 C 78.0096206665039 344.5 83.5 339.0096130371094 91.5411376953125 336.3938903808594 C 99.25801086425781 338.2533264160156 104.82554626464844 343.71270751953125 106.9280776977539 352.3264465332031" stroke-width="0.0" fill="rgb(205, 74, 35)" opacity="1.0"/>
    <path d="M 196.72789001464844 125.46756744384766 C 194.57827758789062 132.95986938476562 188.89723205566406 138.4207763671875 180.936279296875 140.651611328125 C 173.04212951660156 138.53610229492188 167.69544982910156 132.88330078125 165.31063842773438 124.47112274169922 C 167.30018615722656 116.83866882324219 172.8211212158203 111.25785827636719 180.56967163085938 109.1441650390625 C 189.01988220214844 111.38591766357422 194.40176391601562 117.05294036865234 196.72789001464844 125.46756744384766" stroke-width="0.0" fill="rgb(230, 206, 179)" opacity="1.0"/>
    <path d="M 201.38470458984375 468.3370056152344 C 198.35609436035156 475.90869140625 192.9163360595703 481.3793029785156 185.60662841796875 483.5291748046875 C 178.49688720703125 481.99151611328125 172.9764404296875 476.51220703125 170.7310333251953 468.8160400390625 C 172.5147705078125 460.93792724609375 177.84783935546875 455.25848388671875 185.69163513183594 453.12664794921875 C 194.19029235839844 455.2697448730469 199.69155883789062 460.82452392578125 201.38470458984375 468.3370056152344" stroke-width="0.0" fill="rgb(227, 183, 94)" opacity="1.0"/>
    <path d="M 173.86720275878906 137.81741333007812 C 171.86203002929688 145.34368896484375 166.34710693359375 150.8697052001953 157.4226837158203 152.9545135498047 C 149.62301635742188 150.89556884765625 144.13113403320312 145.3662567138672 142.18972778320312 137.7009735107422 C 144.33328247070312 128.83502197265625 149.7894287109375 123.21976470947266 157.52456665039062 121.07794952392578 C 165.2718963623047 123.50447082519531 170.47389221191406 129.96836853027344 173.86720275878906 137.81741333007812" stroke-width="0.0" fill="rgb(38, 35, 37)" opacity="0.9900537"/>
    <path d="M 583.3785400390625 75.66743469238281 C 580.9903564453125 83.5 575.5 88.9903793334961 568.0 91.0 C 560.5 88.9903793334961 555.0096435546875 83.5 552.4188232421875 75.60408782958984 C 554.5162353515625 68.08744049072266 560.0314331054688 62.394287109375 568.1389770507812 60.14868927001953 C 576.1175537109375 62.311710357666016 581.564208984375 67.9273452758789 583.3785400390625 75.66743469238281" stroke-width="0.0" fill="rgb(219, 125, 82)" opacity="0.9911096"/>
    <path d="M 17.599164962768555 163.3621368408203 C 15.311159133911133 170.5062255859375 9.241435050964355 175.55856323242188 1.6512376070022583 177.36502075195312 C -5.488319396972656 175.95559692382812 -10.98967170715332 170.49790954589844 -12.999983787536621 162.9999542236328 C -10.990381240844727 155.5 -5.5 150.00961303710938 2.0 148.0 C 9.500001907348633 150.00961303710938 14.990700721740723 155.49990844726562 17.599164962768555 163.3621368408203" stroke-width="0.0" fill="rgb(244, 230, 179)" opacity="0.990213"/>
    <path d="M 596.2562866210938 337.5995178222656 C 594.6017456054688 344.9268493652344 588.7545166015625 350.13555908203125 581.0269775390625 352.013671875 C 573.476806640625 349.9972839355469 567.8191528320312 344.58087158203125 565.6024169921875 337.0286560058594 C 567.5963134765625 329.068603515625 573.0169067382812 323.4420166015625 580.98779296875 321.3556213378906 C 588.958251953125 323.4712219238281 594.3997192382812 329.08349609375 596.2562866210938 337.5995178222656" stroke-width="0.0" fill="rgb(248, 241, 181)" opacity="1.0"/>
    <path d="M 189.1031951904297 484.4478759765625 C 187.184326171875 491.7406005859375 181.7813720703125 497.31683349609375 174.29547119140625 500.7426452636719 C 166.6735382080078 498.8236083984375 161.13084411621094 493.34393310546875 159.058349609375 485.4299011230469 C 161.16497802734375 476.7369689941406 166.8270721435547 471.4171142578125 174.67999267578125 469.9380187988281 C 182.19508361816406 472.241943359375 187.4282989501953 477.9187316894531 189.1031951904297 484.4478759765625" stroke-width="0.0" fill="rgb(207, 86, 28)" opacity="0.9900586"/>
    <path d="M 84.92666625976562 433.2807922363281 C 82.57564544677734 441.8527526855469 76.64295959472656 447.0519714355469 69.00695037841797 449.0027770996094 C 61.5 446.9903869628906 56.009620666503906 441.5 53.97333908081055 433.9506530761719 C 55.77597427368164 426.1264343261719 60.94757843017578 420.29412841796875 69.60679626464844 418.0998840332031 C 77.34117889404297 420.1434020996094 82.86554718017578 425.6551818847656 84.92666625976562 433.2807922363281" stroke-width="0.0" fill="rgb(74, 13, 11)" opacity="0.9904122"/>
    <path d="M 221.2343292236328 117.68093872070312 C 219.28514099121094 124.83700561523438 213.84130859375 130.29827880859375 206.3408660888672 133.1907958984375 C 198.94558715820312 131.61448669433594 193.52442932128906 126.0082015991211 191.39064025878906 117.65794372558594 C 193.34300231933594 109.84600830078125 198.8169708251953 104.26473236083984 206.2946014404297 102.33966064453125 C 213.95449829101562 105.59669494628906 219.3931884765625 111.04902648925781 221.2343292236328 117.68093872070312" stroke-width="0.0" fill="rgb(217, 166, 135)" opacity="0.9901089"/>
    <path d="M 594.991943359375 503.0169372558594 C 592.9903564453125 510.5 587.5 515.9903564453125 579.2508544921875 518.8414916992188 C 571.6932983398438 516.8385009765625 566.28662109375 511.2687683105469 565.91943359375 503.7782287597656 C 567.8706665039062 496.32720947265625 573.321533203125 490.85736083984375 580.5840454101562 488.9288024902344 C 587.0824584960938 490.6393737792969 592.8817749023438 495.7121887207031 594.991943359375 503.0169372558594" stroke-width="0.0" fill="rgb(149, 58, 22)" opacity="0.99002093"/>
    <path d="M 113.8067855834961 120.04843139648438 C 111.70291137695312 128.23097229003906 106.27687072753906 133.825927734375 98.72378540039062 135.86737060546875 C 90.41707611083984 133.20465087890625 85.00840759277344 127.51473236083984 82.96528625488281 119.9432373046875 C 84.79059600830078 112.18434143066406 90.07011413574219 106.44900512695312 97.58894348144531 104.44408416748047 C 105.68846893310547 106.9078598022461 111.53937530517578 112.1462631225586 113.8067855834961 120.04843139648438" stroke-width="0.0" fill="rgb(232, 167, 148)" opacity="1.0"/>
    <path d="M 607.1680908203125 513.2279052734375 C 605.555908203125 521.1685791015625 600.2667846679688 526.8402099609375 591.5972900390625 528.9453735351562 C 583.67333984375 526.865478515625 578.2451171875 521.2861328125 576.5358276367188 513.5401000976562 C 579.130615234375 505.5790710449219 584.556884765625 500.05621337890625 592.0140380859375 498.012939453125 C 599.5 500.0096130371094 604.9903564453125 505.5 607.1680908203125 513.2279052734375" stroke-width="0.0" fill="rgb(194, 47, 33)" opacity="1.0"/>
    <path d="M 579.5416259765625 356.44586181640625 C 577.6427612304688 364.1044616699219 572.1062622070312 369.65185546875 563.4135131835938 371.8776550292969 C 555.7031860351562 369.8131408691406 550.1630859375 364.3069763183594 548.3350830078125 356.7832946777344 C 551.369140625 348.6300964355469 556.2429809570312 342.4693908691406 563.4691162109375 340.2491760253906 C 571.4461669921875 343.0295715332031 576.9768676757812 348.54998779296875 579.5416259765625 356.44586181640625" stroke-width="0.0" fill="rgb(207, 198, 101)" opacity="1.0"/>
    <path d="M 539.3926391601562 225.7025146484375 C 538.4620971679688 233.9897918701172 532.9840698242188 239.44871520996094 524.8762817382812 241.48878479003906 C 517.2305297851562 239.39077758789062 511.9067077636719 233.67144775390625 509.9727478027344 225.99264526367188 C 511.8695373535156 218.26344299316406 517.1093139648438 212.44174194335938 525.4564819335938 210.14414978027344 C 533.2344360351562 212.22251892089844 538.6346435546875 217.8108673095703 539.3926391601562 225.7025146484375" stroke-width="0.0" fill="rgb(135, 128, 84)" opacity="1.0"/>
    <path d="M 118.91426849365234 412.40692138671875 C 116.80572509765625 421.2860412597656 111.29634857177734 426.8302307128906 102.55525970458984 428.9344787597656 C 94.63760375976562 426.87506103515625 89.12894439697266 421.3607177734375 87.07059478759766 413.43951416015625 C 89.17462158203125 404.6968994140625 94.69535064697266 399.17236328125 102.51461791992188 397.1752014160156 C 111.302001953125 399.2135925292969 116.86257934570312 404.6694641113281 118.91426849365234 412.40692138671875" stroke-width="0.0" fill="rgb(86, 50, 31)" opacity="0.99008155"/>
    <path d="M 485.22540283203125 133.64425659179688 C 484.58721923828125 141.04600524902344 479.0202941894531 146.50787353515625 471.04071044921875 147.81712341308594 C 463.08001708984375 146.4002685546875 457.42266845703125 140.9845428466797 455.3348083496094 132.84927368164062 C 457.42254638671875 124.9791488647461 462.99267578125 119.46175384521484 471.1809997558594 117.23004913330078 C 478.5981140136719 119.5407485961914 483.3963623046875 125.86286163330078 485.22540283203125 133.64425659179688" stroke-width="0.0" fill="rgb(248, 229, 165)" opacity="0.9902331"/>
    <path d="M 429.86163330078125 197.30755615234375 C 426.4627685546875 204.88815307617188 420.85491943359375 210.32833862304688 413.3560485839844 213.53402709960938 C 406.8335266113281 211.41273498535156 401.7790832519531 204.8737335205078 399.9371643066406 198.16439819335938 C 401.8026123046875 191.18836975097656 407.0546875 185.34608459472656 414.0913391113281 182.67962646484375 C 422.07696533203125 184.52078247070312 427.7622375488281 189.82591247558594 429.86163330078125 197.30755615234375" stroke-width="0.0" fill="rgb(196, 19, 19)" opacity="0.99001443"/>
    <path d="M 584.0100708007812 9.013028144836426 C 582.0396728515625 16.567333221435547 576.5994873046875 22.145822525024414 569.1034545898438 24.1832332611084 C 561.4987182617188 21.990798950195312 555.9871215820312 16.5074462890625 553.1365356445312 8.248024940490723 C 555.1841430664062 0.7573390007019043 560.8455200195312 -4.560818672180176 568.751708984375 -6.200665473937988 C 576.5 -3.9903810024261475 581.9903564453125 1.5 584.0100708007812 9.013028144836426" stroke-width="0.0" fill="rgb(115, 11, 10)" opacity="0.99007565"/>
    <path d="M 158.6833038330078 46.600494384765625 C 156.76248168945312 54.22953796386719 151.21847534179688 59.73664855957031 142.48194885253906 61.903411865234375 C 134.73446655273438 59.80381774902344 129.22122192382812 54.255489349365234 127.11970520019531 45.65506362915039 C 129.2080535888672 37.76765823364258 134.82467651367188 32.36952590942383 142.6438446044922 30.642642974853516 C 150.5 33.009620666503906 155.99038696289062 38.5 158.6833038330078 46.600494384765625" stroke-width="0.0" fill="rgb(202, 67, 36)" opacity="1.0"/>
    <path d="M 85.94126892089844 443.73309326171875 C 83.89653015136719 451.3835144042969 78.37744903564453 456.8816223144531 70.35111999511719 458.9340515136719 C 61.70463943481445 456.8406066894531 56.27315902709961 451.25335693359375 54.483890533447266 443.48651123046875 C 57.00962448120117 435.5000305175781 62.500343322753906 430.0108337402344 69.9927978515625 428.1437072753906 C 77.8252182006836 429.846923828125 83.71359252929688 434.96002197265625 85.94126892089844 443.73309326171875" stroke-width="0.0" fill="rgb(112, 27, 21)" opacity="1.0"/>
    <path d="M 538.856689453125 143.8555908203125 C 536.6016845703125 151.8348846435547 530.2318115234375 156.40573120117188 522.4923095703125 158.32737731933594 C 515.5 156.99038696289062 510.0096130371094 151.5 507.69219970703125 143.8401336669922 C 509.9775390625 136.82479858398438 516.0196533203125 131.67897033691406 523.5828247070312 129.82687377929688 C 530.9437866210938 130.67674255371094 536.6631469726562 135.94505310058594 538.856689453125 143.8555908203125" stroke-width="0.0" fill="rgb(201, 53, 46)" opacity="0.99002963"/>
    <path d="M 417.350830078125 271.47796630859375 C 416.5549621582031 278.90802001953125 410.7684631347656 284.13897705078125 403.0816650390625 286.1485290527344 C 395.7628173828125 283.71478271484375 390.2482604980469 278.2480773925781 387.4549560546875 270.7517395019531 C 389.64178466796875 263.1490478515625 395.1264343261719 257.57183837890625 403.2640686035156 255.29217529296875 C 411.0530700683594 257.3718566894531 416.3838806152344 263.0211181640625 417.350830078125 271.47796630859375" stroke-width="0.0" fill="rgb(244, 240, 213)" opacity="1.0"/>
    <path d="M 590.8200073242188 203.72457885742188 C 588.8397216796875 211.28993225097656 583.2293701171875 216.65863037109375 575.349609375 218.3023223876953 C 567.553955078125 215.9658660888672 562.25927734375 210.37353515625 560.32177734375 202.64019775390625 C 561.4716796875 194.8643798828125 566.7658081054688 189.1864013671875 574.255126953125 187.1431121826172 C 582.8599243164062 189.64305114746094 588.48681640625 195.0943145751953 590.8200073242188 203.72457885742188" stroke-width="0.0" fill="rgb(194, 64, 50)" opacity="0.990105"/>
    <path d="M 122.35274505615234 61.544189453125 C 121.77850341796875 69.28893280029297 116.32392120361328 74.86567687988281 108.73149108886719 76.92719268798828 C 100.89620208740234 74.56354522705078 95.77462005615234 67.83271789550781 92.29338836669922 60.208309173583984 C 94.21043395996094 52.73838806152344 99.76453399658203 47.29148864746094 107.5555419921875 45.567752838134766 C 115.49767303466797 48.01030731201172 120.91043853759766 53.52509689331055 122.35274505615234 61.544189453125" stroke-width="0.0" fill="rgb(55, 23, 20)" opacity="0.99001914"/>
    <path d="M 171.22369384765625 361.6000671386719 C 169.96624755859375 368.4925231933594 164.49913024902344 373.9901123046875 156.9185028076172 376.19281005859375 C 149.35159301757812 374.0948791503906 143.4700927734375 368.8208312988281 141.1591796875 361.1630859375 C 143.43031311035156 353.29669189453125 149.92953491210938 348.68377685546875 157.23406982421875 346.8590087890625 C 163.82273864746094 348.7182312011719 169.2576904296875 354.1863708496094 171.22369384765625 361.6000671386719" stroke-width="0.0" fill="rgb(209, 143, 72)" opacity="0.99003947"/>
    <path d="M 471.9181823730469 282.4086608886719 C 469.84808349609375 290.32012939453125 464.3154296875 295.8371276855469 456.1080017089844 297.9186706542969 C 447.718505859375 295.8191223144531 442.2598876953125 290.2529296875 440.44189453125 282.51763916015625 C 443.0096740722656 274.50018310546875 448.5036315917969 269.02227783203125 456.3031311035156 267.5323181152344 C 464.2370300292969 268.3094787597656 469.8211975097656 273.7199401855469 471.9181823730469 282.4086608886719" stroke-width="0.0" fill="rgb(225, 144, 24)" opacity="0.9900558"/>
    <path d="M 451.8968200683594 246.6693572998047 C 449.7957458496094 255.25570678710938 444.21575927734375 260.6756896972656 435.30157470703125 262.8666076660156 C 427.7195739746094 260.8219909667969 422.2366943359375 255.25706481933594 420.1929626464844 247.30618286132812 C 422.3672790527344 238.9740447998047 428.0666198730469 233.62399291992188 436.76031494140625 231.11566162109375 C 444.30975341796875 233.15040588378906 449.7919006347656 238.7149200439453 451.8968200683594 246.6693572998047" stroke-width="0.0" fill="rgb(227, 95, 34)" opacity="1.0"/>
    <path d="M 581.85595703125 173.53749084472656 C 579.4197998046875 181.98236083984375 574.161376953125 187.79978942871094 566.7377319335938 189.91482543945312 C 558.78466796875 187.06600952148438 553.6680908203125 181.006591796875 551.9036865234375 174.40234375 C 553.806396484375 167.25588989257812 559.2470703125 161.78370666503906 565.744384765625 159.90402221679688 C 572.9481811523438 161.74266052246094 579.5986328125 166.4846954345703 581.85595703125 173.53749084472656" stroke-width="0.0" fill="rgb(75, 85, 74)" opacity="0.9900271"/>
    <path d="M 104.12471008300781 350.95263671875 C 101.98049926757812 358.4989013671875 96.51036071777344 364.01776123046875 88.40315246582031 366.69512939453125 C 80.7319564819336 364.76800537109375 75.1876220703125 359.28466796875 73.18850708007812 351.6094055175781 C 75.3491439819336 342.8277282714844 80.79069519042969 337.2426452636719 88.55339813232422 335.15948486328125 C 96.83076477050781 337.497314453125 102.12657165527344 343.30712890625 104.12471008300781 350.95263671875" stroke-width="0.0" fill="rgb(197, 58, 30)" opacity="0.9938096"/>
    <path d="M 101.85610961914062 25.62285804748535 C 99.74481964111328 34.19896697998047 94.18376159667969 39.70880126953125 86.39173889160156 41.686553955078125 C 77.77714538574219 39.67586898803711 72.16943359375 34.27801513671875 70.067138671875 25.53829574584961 C 72.15203094482422 17.71790885925293 77.8260726928711 12.570586204528809 86.40564727783203 11.73933219909668 C 94.15935516357422 12.3966646194458 99.77943420410156 17.780786514282227 101.85610961914062 25.62285804748535" stroke-width="0.0" fill="rgb(196, 91, 72)" opacity="0.99003386"/>
    <path d="M 45.82963562011719 119.27914428710938 C 42.990379333496094 127.5 37.5 132.99038696289062 30.450105667114258 134.3919219970703 C 22.9299373626709 132.4207000732422 17.22589683532715 127.19051361083984 15.037782669067383 119.94374084472656 C 17.009618759155273 112.5 22.5 107.0096206665039 30.2917537689209 104.74447631835938 C 38.16929244995117 106.4049072265625 43.80413818359375 111.75947570800781 45.82963562011719 119.27914428710938" stroke-width="0.0" fill="rgb(194, 63, 61)" opacity="0.9902211"/>
    <path d="M 475.0052795410156 351.0102233886719 C 473.04718017578125 358.6043701171875 467.6879577636719 364.30389404296875 460.1932678222656 366.5577392578125 C 452.2703857421875 364.2287902832031 446.7637939453125 358.7305603027344 444.4062805175781 350.8128662109375 C 446.5944519042969 343.1219787597656 452.1250915527344 337.6070861816406 459.7559814453125 336.6450500488281 C 467.4869079589844 338.05364990234375 472.9901428222656 343.5008850097656 475.0052795410156 351.0102233886719" stroke-width="0.0" fill="rgb(251, 229, 177)" opacity="0.9904356"/>
    <path d="M 496.2072448730469 269.25323486328125 C 494.8468322753906 276.4491271972656 489.4917297363281 281.9876708984375 481.6084289550781 284.3643493652344 C 473.7584533691406 282.6844482421875 468.15216064453125 277.2984313964844 466.0757751464844 269.4931945800781 C 468.2074279785156 260.7853698730469 473.8752136230469 255.46888732910156 481.76824951171875 253.82080078125 C 489.425537109375 256.04962158203125 494.6420593261719 261.6795349121094 496.2072448730469 269.25323486328125" stroke-width="0.0" fill="rgb(188, 88, 20)" opacity="0.99223435"/>
    <path d="M 122.92538452148438 98.26295471191406 C 120.42733764648438 106.24881744384766 114.02430725097656 111.44386291503906 106.26847839355469 114.81807708740234 C 98.70063018798828 112.80783081054688 93.14826965332031 107.31784057617188 91.05128479003906 98.43647003173828 C 93.12037658691406 90.63819885253906 98.63777160644531 85.11993408203125 106.7535171508789 83.05707550048828 C 115.3521957397461 85.12898254394531 120.86885833740234 90.64888000488281 122.92538452148438 98.26295471191406" stroke-width="0.0" fill="rgb(139, 36, 29)" opacity="0.99016804"/>
    <path d="M 530.260498046875 192.09800720214844 C 528.4568481445312 199.9052276611328 522.9113159179688 205.47348022460938 515.2981567382812 207.6142578125 C 507.4444580078125 205.1183319091797 502.0017395019531 199.5192108154297 499.9996337890625 192.0009002685547 C 502.0096130371094 184.5 507.5 179.00961303710938 515.039794921875 176.96812438964844 C 522.6617431640625 178.87742614746094 528.25537109375 184.2974395751953 530.260498046875 192.09800720214844" stroke-width="0.0" fill="rgb(247, 247, 210)" opacity="1.0"/>
    <path d="M 543.86572265625 10.367635726928711 C 541.6187133789062 17.921092987060547 535.7208251953125 23.10472297668457 528.0181884765625 25.008739471435547 C 520.5 22.990381240844727 515.0096435546875 17.5 513.296630859375 10.1871919631958 C 515.2886352539062 2.6819260120391846 520.6168823242188 -2.9166622161865234 528.100341796875 -5.059779644012451 C 535.859375 -3.2684075832366943 541.603759765625 2.023949146270752 543.86572265625 10.367635726928711" stroke-width="0.0" fill="rgb(243, 192, 75)" opacity="0.9980348"/>
    <path d="M 203.17108154296875 400.65411376953125 C 202.3531036376953 407.83380126953125 196.79974365234375 413.2434387207031 188.86801147460938 415.2049865722656 C 180.89186096191406 413.49853515625 175.19552612304688 408.2162170410156 173.08938598632812 400.22332763671875 C 175.17803955078125 391.7230224609375 180.7762908935547 386.3498840332031 188.39849853515625 385.8217468261719 C 195.77737426757812 387.76361083984375 201.21780395507812 393.2297058105469 203.17108154296875 400.65411376953125" stroke-width="0.0" fill="rgb(219, 152, 60)" opacity="0.99005014"/>
    <path d="M 68.00188446044922 467.9957275390625 C 65.9903793334961 475.5 60.5 480.9903869628906 52.830848693847656 483.1338195800781 C 44.94729232788086 481.4461975097656 39.226600646972656 476.170654296875 37.07014846801758 467.5332946777344 C 39.13624572753906 459.6589660644531 44.670143127441406 454.1634216308594 52.32547378540039 452.1312255859375 C 60.689659118652344 454.6435546875 66.0234375 460.4254150390625 68.00188446044922 467.9957275390625" stroke-width="0.0" fill="rgb(215, 91, 63)" opacity="1.0"/>
    <path d="M 72.82923126220703 474.6984558105469 C 70.77212524414062 482.2261962890625 65.21868896484375 487.7549743652344 56.3779296875 489.9213562011719 C 48.66115951538086 487.8582458496094 43.1645393371582 482.3303527832031 41.253780364990234 474.69659423828125 C 44.04246520996094 466.5135192871094 49.50469970703125 461.01165771484375 57.00027084350586 459.0001220703125 C 64.5 461.0096130371094 69.9903793334961 466.5 72.82923126220703 474.6984558105469" stroke-width="0.0" fill="rgb(212, 70, 47)" opacity="0.99166405"/>
    <path d="M 499.8849182128906 254.59420776367188 C 497.761474609375 262.1646423339844 492.07415771484375 267.52728271484375 484.3715515136719 269.15093994140625 C 476.5743103027344 266.7159118652344 470.45257568359375 261.7822265625 468.1409606933594 253.65164184570312 C 470.249755859375 245.7886199951172 475.7994689941406 240.27786254882812 483.4046936035156 238.42564392089844 C 491.5170593261719 241.1434326171875 497.43017578125 246.27952575683594 499.8849182128906 254.59420776367188" stroke-width="0.0" fill="rgb(241, 158, 60)" opacity="0.9900923"/>
    <path d="M 585.9840087890625 100.73603820800781 C 583.7686767578125 108.40243530273438 578.4700927734375 113.96395111083984 570.7745971679688 116.1321029663086 C 563.3868408203125 114.2161865234375 558.1356811523438 108.50288391113281 556.0820922851562 100.65107727050781 C 557.7118530273438 93.32942962646484 563.4083862304688 87.95462036132812 571.36865234375 85.52738189697266 C 578.9489135742188 87.45661926269531 584.25244140625 93.14478302001953 585.9840087890625 100.73603820800781" stroke-width="0.0" fill="rgb(245, 241, 178)" opacity="0.99063957"/>
    <path d="M 573.8345336914062 24.586442947387695 C 571.7715454101562 32.2303352355957 566.2239379882812 37.75743103027344 558.2918701171875 39.870643615722656 C 549.8211059570312 37.71595001220703 544.2736206054688 32.18330383300781 542.1572265625 24.108495712280273 C 544.2764892578125 15.778688430786133 549.759521484375 10.226852416992188 557.2796020507812 9.594901084899902 C 565.0060424804688 11.635451316833496 571.18017578125 16.79888343811035 573.8345336914062 24.586442947387695" stroke-width="0.0" fill="rgb(238, 118, 86)" opacity="1.0"/>
    <path d="M 71.5618896484375 434.05401611328125 C 69.90489959716797 441.4804382324219 64.5291519165039 447.06390380859375 56.418087005615234 449.6416931152344 C 48.71916198730469 447.7672119140625 43.142887115478516 442.3160705566406 41.06414794921875 434.481689453125 C 43.14325714111328 425.65399169921875 48.64835739135742 420.1292419433594 56.25033950805664 418.08544921875 C 64.90426635742188 420.4047546386719 69.93701171875 426.31756591796875 71.5618896484375 434.05401611328125" stroke-width="0.0" fill="rgb(161, 13, 11)" opacity="0.9900623"/>
    <path d="M 126.94322967529297 503.38031005859375 C 124.74713897705078 512.1038208007812 119.00428771972656 517.5648193359375 110.2435302734375 519.920654296875 C 102.65043640136719 517.8707275390625 97.15495300292969 512.33935546875 95.07317352294922 503.3382873535156 C 97.12384796142578 495.6414794921875 102.64405059814453 490.1299133300781 110.67897033691406 488.0646057128906 C 119.34432983398438 490.1423645019531 124.87723541259766 495.6469421386719 126.94322967529297 503.38031005859375" stroke-width="0.0" fill="rgb(153, 18, 16)" opacity="1.0"/>
    <path d="M 157.8978729248047 380.73443603515625 C 155.84927368164062 388.31158447265625 150.27835083007812 393.7596740722656 141.30442810058594 395.8805847167969 C 133.6577911376953 393.8576965332031 128.13299560546875 388.3460693359375 126.07109069824219 380.61859130859375 C 128.17527770996094 371.7028503417969 133.70489501953125 366.17889404296875 141.29026794433594 364.1157531738281 C 150.03936767578125 366.4366760253906 155.61119079589844 371.9432373046875 157.8978729248047 380.73443603515625" stroke-width="0.0" fill="rgb(177, 22, 21)" opacity="0.9901999"/>
    <path d="M 56.586822509765625 132.35446166992188 C 54.462528228759766 140.08111572265625 49.13814926147461 145.6156005859375 41.30592727661133 148.52552795410156 C 33.901912689208984 146.73294067382812 29.32954978942871 140.83775329589844 27.72139549255371 132.6176300048828 C 29.15358543395996 125.58771514892578 34.59355163574219 120.16924285888672 42.512535095214844 117.48802185058594 C 50.148719787597656 119.3406753540039 55.706207275390625 124.83350372314453 56.586822509765625 132.35446166992188" stroke-width="0.0" fill="rgb(187, 42, 46)" opacity="0.9900256"/>
    <path d="M 24.13468360900879 112.80767059326172 C 21.990381240844727 120.5 16.5 125.9903793334961 9.0 128.0 C 1.5 125.9903793334961 -3.9903810024261475 120.5 -6.287243843078613 112.65199279785156 C -4.673051834106445 104.7457275390625 0.6755610108375549 99.1240234375 8.408153533935547 97.04695129394531 C 17.262971878051758 99.1549301147461 22.517789840698242 104.8526611328125 24.13468360900879 112.80767059326172" stroke-width="0.0" fill="rgb(27, 26, 20)" opacity="0.9907068"/>
    <path d="M 141.15753173828125 523.577392578125 C 140.2955322265625 531.990478515625 135.12188720703125 537.7295532226562 127.6280288696289 539.8555297851562 C 119.35123443603516 537.288330078125 113.77680969238281 531.6228637695312 111.11094665527344 523.2887573242188 C 113.2214126586914 515.8250732421875 118.88423156738281 510.3330993652344 127.8033218383789 508.0571594238281 C 135.3684844970703 510.10137939453125 140.7631072998047 515.6747436523438 141.15753173828125 523.577392578125" stroke-width="0.0" fill="rgb(31, 26, 14)" opacity="0.9900581"/>
    <path d="M 477.87939453125 314.53955078125 C 475.7786560058594 323.25726318359375 470.26171875 328.7903137207031 462.135986328125 330.8907470703125 C 453.7530517578125 328.7750244140625 448.2060241699219 323.255126953125 446.10107421875 315.0850524902344 C 448.2100524902344 306.7477722167969 453.7677001953125 301.2632751464844 462.72943115234375 299.0867614746094 C 470.3327331542969 301.1391296386719 475.83184814453125 306.67938232421875 477.87939453125 314.53955078125" stroke-width="0.0" fill="rgb(229, 87, 45)" opacity="0.99225885"/>
    <path d="M 521.7471313476562 182.05914306640625 C 519.980712890625 189.49078369140625 514.4906005859375 194.9801788330078 506.9910888671875 196.99766540527344 C 499.4458923339844 195.0185089111328 493.8142395019531 189.60641479492188 492.5268249511719 181.9779052734375 C 493.9124450683594 174.29139709472656 499.20355224609375 168.61666870117188 507.0758361816406 166.47122192382812 C 514.9362182617188 168.5035400390625 520.1924438476562 174.14732360839844 521.7471313476562 182.05914306640625" stroke-width="0.0" fill="rgb(247, 249, 197)" opacity="1.0"/>
    <path d="M 456.72320556640625 86.47834777832031 C 455.33966064453125 94.95760345458984 449.9939270019531 100.4931640625 442.163818359375 102.32454681396484 C 434.1283264160156 100.33345031738281 429.16619873046875 94.78857421875 427.95111083984375 87.81513214111328 C 429.9143981933594 80.37738800048828 435.3728942871094 74.90459442138672 442.76080322265625 72.94933319091797 C 449.1119689941406 74.62715148925781 455.4169616699219 79.46306610107422 456.72320556640625 86.47834777832031" stroke-width="0.0" fill="rgb(70, 11, 7)" opacity="0.9900094"/>
    <path d="M 32.933990478515625 473.47015380859375 C 30.87574005126953 481.36175537109375 25.362659454345703 486.8777770996094 17.73249626159668 488.9193420410156 C 9.012152671813965 486.6482238769531 3.808990478515625 480.8200378417969 1.8370115756988525 472.84027099609375 C 3.5106334686279297 464.90167236328125 8.7995023727417 459.2135314941406 16.693342208862305 457.1110534667969 C 25.2901668548584 459.20440673828125 30.84318733215332 464.6905212402344 32.933990478515625 473.47015380859375" stroke-width="0.0" fill="rgb(207, 66, 55)" opacity="1.0"/>
    <path d="M 21.873287200927734 518.382568359375 C 19.561674118041992 526.9945678710938 14.019248008728027 532.614013671875 6.011092185974121 534.7512817382812 C -1.8013875484466553 532.475341796875 -7.072431564331055 526.65771484375 -9.01440143585205 518.9995727539062 C -7.063909530639648 511.3693542480469 -1.7429100275039673 505.6067810058594 6.614974498748779 503.1574401855469 C 14.27871322631836 505.2077941894531 19.825864791870117 510.70721435546875 21.873287200927734 518.382568359375" stroke-width="0.0" fill="rgb(250, 211, 128)" opacity="1.0"/>
    <path d="M 540.7932739257812 397.4178161621094 C 538.6679077148438 405.0255432128906 532.8104248046875 409.8627624511719 525.203857421875 411.3196105957031 C 517.9241333007812 409.48785400390625 512.367919921875 404.122802734375 509.7165832519531 396.6285095214844 C 511.7997131347656 389.3913269042969 517.435791015625 383.9308776855469 525.429931640625 381.2751770019531 C 532.9187622070312 383.47491455078125 538.4844360351562 389.0978698730469 540.7932739257812 397.4178161621094" stroke-width="0.0" fill="rgb(221, 177, 147)" opacity="0.9901476"/>
    <path d="M 602.3756103515625 9.801877975463867 C 600.2838134765625 17.766653060913086 594.74609375 23.21733283996582 586.8223876953125 24.517324447631836 C 579.046875 23.481775283813477 573.5858764648438 17.932172775268555 572.3170166015625 10.2559814453125 C 574.1279907226562 2.5697505474090576 579.5458984375 -2.952842950820923 587.2421875 -5.224454879760742 C 595.0000610351562 -3.4789352416992188 600.519287109375 1.9876669645309448 602.3756103515625 9.801877975463867" stroke-width="0.0" fill="rgb(194, 36, 39)" opacity="0.9900752"/>
    <path d="M 462.2041015625 188.52182006835938 C 460.3820495605469 195.9661102294922 454.9771423339844 201.41232299804688 447.572265625 203.37936401367188 C 440.4339599609375 202.0369415283203 434.8435363769531 196.6024169921875 433.54229736328125 189.07891845703125 C 434.9878234863281 181.55593872070312 440.6385803222656 176.2467803955078 448.13720703125 174.19300842285156 C 455.4977111816406 176.01031494140625 460.9237365722656 181.52108764648438 462.2041015625 188.52182006835938" stroke-width="0.0" fill="rgb(214, 64, 52)" opacity="0.99005854"/>
    <path d="M 160.91583251953125 486.6244812011719 C 158.83253479003906 495.3166809082031 153.32159423828125 500.8444519042969 144.80490112304688 502.9202880859375 C 136.69253540039062 500.84100341796875 131.2080535888672 495.2877197265625 129.1103973388672 486.6777038574219 C 131.19552612304688 478.7217102050781 136.71182250976562 473.1729736328125 144.8017578125 471.07598876953125 C 153.3197479248047 473.15679931640625 158.84068298339844 478.6815185546875 160.91583251953125 486.6244812011719" stroke-width="0.0" fill="rgb(230, 145, 99)" opacity="1.0"/>
    <path d="M 172.88047790527344 102.77841186523438 C 170.8799591064453 110.37138366699219 165.37631225585938 115.89179229736328 156.9781951904297 117.95336151123047 C 148.61830139160156 115.89566802978516 143.1188201904297 110.3757095336914 141.1397705078125 102.80854797363281 C 143.61148071289062 94.05400848388672 149.0738067626953 88.70640563964844 156.3871307373047 87.89887237548828 C 163.86045837402344 89.76078033447266 169.952880859375 94.97711181640625 172.88047790527344 102.77841186523438" stroke-width="0.0" fill="rgb(48, 52, 50)" opacity="0.99004984"/>
    <path d="M 534.8441772460938 36.550315856933594 C 532.7999877929688 44.29176330566406 527.300048828125 49.820777893066406 519.3790893554688 51.848487854003906 C 510.74591064453125 49.76445388793945 505.2054443359375 44.26551818847656 503.1245422363281 36.10849380493164 C 505.2109069824219 27.728540420532227 510.7178649902344 22.184606552124023 518.2869262695312 20.164432525634766 C 526.9556884765625 22.627182006835938 532.6244506835938 27.961828231811523 534.8441772460938 36.550315856933594" stroke-width="0.0" fill="rgb(236, 121, 85)" opacity="1.0"/>
    <path d="M 614.0 167.0 C 611.9901733398438 174.49940490722656 606.4943237304688 179.9718475341797 598.4132690429688 182.64308166503906 C 590.7554321289062 180.74598693847656 585.1968994140625 175.26625061035156 583.1080932617188 167.40660095214844 C 585.3049926757812 158.9569549560547 591.2431030273438 154.35345458984375 599.4143676757812 152.75331115722656 C 606.4885864257812 154.04684448242188 611.989990234375 159.50112915039062 614.0 167.0" stroke-width="0.0" fill="rgb(230, 106, 60)" opacity="0.99021596"/>
    <path d="M 502.0566711425781 281.4453430175781 C 500.2220764160156 288.0381164550781 496.0622253417969 294.7925109863281 488.6392822265625 296.9091491699219 C 479.8233337402344 294.71771240234375 474.35064697265625 289.1529846191406 472.24761962890625 281.216064453125 C 474.96630859375 273.82330322265625 481.0010986328125 268.6515197753906 487.6261901855469 266.8866271972656 C 494.7125244140625 268.8085632324219 500.13446044921875 274.3103942871094 502.0566711425781 281.4453430175781" stroke-width="0.0" fill="rgb(43, 43, 33)" opacity="0.99001807"/>
    <path d="M 518.5275268554688 237.4217071533203 C 516.6046142578125 245.06947326660156 511.06341552734375 250.5865020751953 503.2841491699219 251.43772888183594 C 495.226318359375 250.2154998779297 489.50836181640625 244.87008666992188 487.4211730957031 237.31716918945312 C 489.53729248046875 229.02938842773438 495.0081787109375 223.47213745117188 502.670654296875 221.5983123779297 C 510.5 224.00961303710938 515.9903564453125 229.5 518.5275268554688 237.4217071533203" stroke-width="0.0" fill="rgb(246, 243, 202)" opacity="1.0"/>
    <path d="M 445.0 282.0 C 442.9903869628906 289.5 437.5 294.9903869628906 430.0016174316406 296.99737548828125 C 422.4771423339844 294.9945068359375 416.91326904296875 289.55126953125 414.20843505859375 281.2722473144531 C 416.1756286621094 273.6975402832031 421.6969909667969 268.1742248535156 429.2798767089844 266.16546630859375 C 437.5027160644531 269.0000305175781 442.99041748046875 274.4998779296875 445.0 282.0" stroke-width="0.0" fill="rgb(186, 11, 18)" opacity="0.9901018"/>
    <path d="M 185.20152282714844 377.47564697265625 C 183.95657348632812 384.9537658691406 179.14364624023438 390.75885009765625 170.91015625 392.9130554199219 C 162.72654724121094 390.80718994140625 157.2233428955078 385.2619323730469 155.59271240234375 377.6199951171875 C 158.09759521484375 369.45721435546875 163.3563690185547 363.76080322265625 170.38568115234375 362.64764404296875 C 177.82135009765625 364.7237854003906 183.2613983154297 370.1844177246094 185.20152282714844 377.47564697265625" stroke-width="0.0" fill="rgb(214, 158, 87)" opacity="0.9901102"/>
    <path d="M 97.07113647460938 123.5057601928711 C 95.13933563232422 130.6849365234375 89.69664764404297 136.1685333251953 82.21571350097656 138.3121337890625 C 74.78404998779297 137.68148803710938 69.17953491210938 132.26846313476562 67.21369934082031 124.70584106445312 C 70.01165771484375 116.50069427490234 75.5001449584961 111.00967407226562 82.94479370117188 109.04008483886719 C 90.13274383544922 111.24444580078125 95.26873779296875 117.05294799804688 97.07113647460938 123.5057601928711" stroke-width="0.0" fill="rgb(51, 42, 46)" opacity="0.9900266"/>
    <path d="M 18.770471572875977 354.5157775878906 C 16.72818946838379 362.2187805175781 11.240944862365723 367.7853698730469 3.666043996810913 369.8273620605469 C -4.601067066192627 367.20751953125 -10.00554084777832 361.536865234375 -12.00003719329834 354.0033874511719 C -9.973457336425781 346.54339599609375 -4.352097034454346 341.33258056640625 2.3748278617858887 339.8809509277344 C 9.756653785705566 341.8072509765625 15.377638816833496 347.1899719238281 18.770471572875977 354.5157775878906" stroke-width="0.0" fill="rgb(214, 127, 40)" opacity="0.9900352"/>
    <path d="M 17.21820068359375 475.205810546875 C 15.54818344116211 483.14349365234375 10.233555793762207 488.8089599609375 2.725877285003662 490.8829040527344 C -5.575422763824463 488.1824951171875 -10.996382713317871 482.5171203613281 -13.000563621520996 474.9992980957031 C -11.005187034606934 467.4588928222656 -5.6601362228393555 461.65570068359375 2.7058706283569336 459.0923156738281 C 10.145692825317383 461.2154541015625 15.291892051696777 467.04364013671875 17.21820068359375 475.205810546875" stroke-width="0.0" fill="rgb(190, 79, 22)" opacity="1.0"/>
    <path d="M 542.7885131835938 12.672179222106934 C 540.7962036132812 20.26236343383789 535.2498779296875 25.76462173461914 527.6299438476562 27.633153915405273 C 518.9981689453125 25.286640167236328 513.27880859375 20.127214431762695 511.47894287109375 12.651373863220215 C 514.3633422851562 4.754657745361328 519.7003784179688 -0.8056281208992004 527.0462646484375 -2.896699905395508 C 534.4569091796875 -0.9311889410018921 540.0098266601562 4.520618438720703 542.7885131835938 12.672179222106934" stroke-width="0.0" fill="rgb(239, 179, 54)" opacity="0.99142224"/>
    <path d="M 457.15576171875 273.5035095214844 C 455.46490478515625 280.0498046875 450.07281494140625 285.533203125 442.7411804199219 287.5113830566406 C 435.504638671875 285.9838562011719 430.01214599609375 280.4963073730469 427.3207702636719 272.3941345214844 C 429.2243347167969 264.7537841796875 434.7847900390625 259.32012939453125 442.9574890136719 257.2075500488281 C 449.8177490234375 260.5505065917969 455.2080078125 266.2393493652344 457.15576171875 273.5035095214844" stroke-width="0.0" fill="rgb(176, 44, 3)" opacity="0.99003005"/>
    <path d="M 25.511991500854492 122.58291625976562 C 23.356855392456055 129.9071044921875 17.918058395385742 135.3853759765625 10.94642448425293 137.27110290527344 C 3.6686973571777344 135.52975463867188 -2.2511303424835205 130.63063049316406 -4.115945339202881 123.16974639892578 C -1.8520681858062744 115.6588134765625 3.698115825653076 110.27505493164062 11.177068710327148 108.41368865966797 C 18.497827529907227 110.0169677734375 23.990325927734375 115.50018310546875 25.511991500854492 122.58291625976562" stroke-width="0.0" fill="rgb(115, 24, 16)" opacity="0.9900261"/>
    <path d="M 128.2148895263672 49.2570915222168 C 126.51344299316406 56.110107421875 121.1850357055664 61.76396179199219 114.00983428955078 64.21903991699219 C 106.5859603881836 61.916194915771484 101.0400619506836 56.424560546875 98.07672119140625 48.160911560058594 C 100.1103744506836 40.63420867919922 105.64894104003906 35.14497375488281 113.2735595703125 33.12139129638672 C 120.94416809082031 36.345863342285156 126.31087493896484 42.131534576416016 128.2148895263672 49.2570915222168" stroke-width="0.0" fill="rgb(54, 52, 49)" opacity="0.99018174"/>
    <path d="M 446.9013977050781 295.54791259765625 C 444.8096923828125 303.2938537597656 439.3102722167969 308.8461608886719 431.8117370605469 310.6806640625 C 424.1563415527344 307.3007507324219 418.72918701171875 301.8325500488281 416.8948669433594 294.81304931640625 C 418.5506896972656 287.8475036621094 423.6925048828125 282.1343078613281 431.0888671875 280.02490234375 C 438.8309020996094 281.7908935546875 444.6466369628906 287.009033203125 446.9013977050781 295.54791259765625" stroke-width="0.0" fill="rgb(167, 12, 11)" opacity="0.9900245"/>
    <path d="M 559.07861328125 198.12074279785156 C 557.3911743164062 206.03094482421875 552.1705932617188 211.7814483642578 543.3485107421875 213.9402618408203 C 535.691162109375 211.8641815185547 530.4324951171875 206.2241973876953 529.6044921875 197.42039489746094 C 530.286376953125 189.79310607910156 535.773681640625 184.2333221435547 543.339111328125 182.21343994140625 C 551.500244140625 185.0087890625 556.9903564453125 190.49996948242188 559.07861328125 198.12074279785156" stroke-width="0.0" fill="rgb(109, 104, 103)" opacity="1.0"/>
    <path d="M 552.5885009765625 78.60818481445312 C 549.931640625 86.29886627197266 544.1972045898438 91.58334350585938 536.6156616210938 93.79389953613281 C 528.9719848632812 92.44050598144531 523.2620239257812 87.13493347167969 521.2046508789062 79.6601791381836 C 523.9937744140625 71.46916198730469 529.451171875 65.93453216552734 537.3557739257812 63.457977294921875 C 544.9781494140625 65.50341796875 550.5712280273438 70.9935531616211 552.5885009765625 78.60818481445312" stroke-width="0.0" fill="rgb(248, 194, 146)" opacity="1.0"/>
    <path d="M 530.1697387695312 65.79082489013672 C 528.3981323242188 73.10078430175781 523.5350952148438 79.48031616210938 515.6168212890625 81.82146453857422 C 507.77532958984375 79.73342895507812 502.16473388671875 74.27100372314453 500.0675048828125 66.46077728271484 C 502.1598205566406 57.66614532470703 507.64764404296875 52.11758804321289 515.2713012695312 50.06232452392578 C 524.1760864257812 52.218509674072266 528.8388671875 58.016990661621094 530.1697387695312 65.79082489013672" stroke-width="0.0" fill="rgb(108, 125, 92)" opacity="1.0"/>
    <path d="M 583.481689453125 233.7383575439453 C 581.230224609375 241.84173583984375 575.9490356445312 247.56210327148438 568.3479614257812 249.664794921875 C 560.1829223632812 247.3457794189453 554.6817626953125 241.80613708496094 552.5987548828125 234.1314239501953 C 555.0448608398438 226.50741577148438 560.4798583984375 220.95941162109375 568.0008544921875 218.95513916015625 C 575.6707153320312 220.89991760253906 581.3883666992188 226.23411560058594 583.481689453125 233.7383575439453" stroke-width="0.0" fill="rgb(246, 249, 192)" opacity="1.0"/>
    <path d="M 40.72174072265625 112.4925765991211 C 38.2399787902832 120.51844787597656 32.340599060058594 125.71927642822266 24.464113235473633 128.7093505859375 C 17.340227127075195 126.49327087402344 12.497325897216797 120.2255630493164 10.77170467376709 112.8226089477539 C 12.257499694824219 105.2170639038086 16.946643829345703 99.289794921875 24.340185165405273 97.25267028808594 C 32.9808235168457 99.75788116455078 38.71132278442383 104.88611602783203 40.72174072265625 112.4925765991211" stroke-width="0.0" fill="rgb(147, 124, 113)" opacity="0.99007195"/>
    <path d="M 604.329833984375 355.6587829589844 C 601.9903564453125 363.5 596.5 368.9903869628906 588.84130859375 371.1257629394531 C 580.9971313476562 369.4151916503906 575.3407592773438 364.0818176269531 573.3711547851562 356.4292907714844 C 575.5616455078125 348.1074523925781 581.1834106445312 342.84283447265625 589.6145629882812 340.32177734375 C 597.19873046875 342.2584228515625 602.6182861328125 347.841552734375 604.329833984375 355.6587829589844" stroke-width="0.0" fill="rgb(190, 144, 83)" opacity="1.0"/>
    <path d="M 125.78511810302734 540.6826171875 C 123.62645721435547 547.7476806640625 117.029052734375 552.2799682617188 110.05732727050781 554.0885009765625 C 103.17008972167969 552.2457885742188 97.66050720214844 546.8660888671875 94.13695526123047 539.1539306640625 C 96.11832427978516 531.6336059570312 101.63709259033203 526.1266479492188 109.20539855957031 524.1030883789062 C 116.90833282470703 527.585693359375 122.36662292480469 533.1046752929688 125.78511810302734 540.6826171875" stroke-width="0.0" fill="rgb(185, 85, 26)" opacity="0.9900336"/>
    <path d="M 612.9998168945312 494.0005798339844 C 610.9902954101562 501.4997863769531 605.4985961914062 506.9860534667969 597.966796875 508.9669494628906 C 590.460693359375 507.05047607421875 585.0569458007812 501.50787353515625 583.600341796875 494.55810546875 C 585.7911987304688 487.27227783203125 591.2913818359375 481.84283447265625 598.6948852539062 479.90570068359375 C 605.3871459960938 481.28662109375 610.9822998046875 486.52325439453125 612.9998168945312 494.0005798339844" stroke-width="0.0" fill="rgb(209, 82, 21)" opacity="0.99003637"/>
    <path d="M 608.00390625 127.894775390625 C 605.7672729492188 135.1618194580078 599.9945678710938 140.31649780273438 592.222412109375 142.2475128173828 C 584.7528686523438 141.7727508544922 579.1824951171875 136.26661682128906 577.0765380859375 128.5764617919922 C 579.3922119140625 120.1338119506836 585.2002563476562 114.4876708984375 593.0946655273438 112.12049102783203 C 600.9990844726562 114.35045623779297 606.2243041992188 120.15502166748047 608.00390625 127.894775390625" stroke-width="0.0" fill="rgb(179, 60, 19)" opacity="0.9900374"/>
    <path d="M 72.11075592041016 153.9847869873047 C 70.26300048828125 160.86070251464844 64.93824768066406 166.49755859375 57.5714111328125 169.22702026367188 C 49.94784164428711 167.53204345703125 44.285099029541016 162.12306213378906 42.303680419921875 154.66758728027344 C 45.39336395263672 146.79978942871094 50.7409553527832 141.21026611328125 58.45805358886719 138.4359130859375 C 65.11003875732422 140.7772216796875 70.27079772949219 147.0948944091797 72.11075592041016 153.9847869873047" stroke-width="0.0" fill="rgb(214, 88, 70)" opacity="0.99003226"/>
    <path d="M 172.0636749267578 24.27783966064453 C 170.27334594726562 31.064170837402344 165.70956420898438 37.49940872192383 158.3704833984375 39.47684097290039 C 150.46322631835938 37.003570556640625 144.67398071289062 31.648555755615234 142.09613037109375 23.24901008605957 C 144.1350555419922 15.670244216918945 149.7154083251953 10.277472496032715 157.31903076171875 9.886054039001465 C 164.78915405273438 11.755208969116211 170.17709350585938 17.242023468017578 172.0636749267578 24.27783966064453" stroke-width="0.0" fill="rgb(119, 65, 25)" opacity="0.9900225"/>
    <path d="M 560.5521850585938 573.655517578125 C 558.479248046875 582.0620727539062 553.1556396484375 587.7445068359375 545.6727905273438 589.54833984375 C 536.9525146484375 587.210205078125 531.1790161132812 582.2180786132812 529.0659790039062 574.4741821289062 C 531.1513671875 565.6683959960938 536.671630859375 560.1597900390625 544.6808471679688 558.1033325195312 C 553.1929931640625 560.2460327148438 558.669921875 565.8392944335938 560.5521850585938 573.655517578125" stroke-width="0.0" fill="rgb(215, 142, 56)" opacity="1.0"/>
    <path d="M 167.89462280273438 433.8531799316406 C 165.804443359375 442.2671203613281 160.24110412597656 447.73388671875 151.971435546875 449.7840881347656 C 143.79750061035156 447.70855712890625 138.2241973876953 442.228515625 136.08572387695312 433.50238037109375 C 138.1616668701172 425.6846923828125 143.68316650390625 420.1581115722656 152.281494140625 418.0702819824219 C 160.32440185546875 420.1487731933594 165.82566833496094 425.6861267089844 167.89462280273438 433.8531799316406" stroke-width="0.0" fill="rgb(218, 105, 75)" opacity="1.0"/>
    <path d="M 567.78857421875 194.28163146972656 C 564.8411865234375 202.65484619140625 559.9713745117188 208.6880340576172 552.6696166992188 210.88352966308594 C 544.2717895507812 208.2793731689453 538.78662109375 202.70799255371094 536.9112548828125 195.03890991210938 C 538.76806640625 187.1959686279297 544.1115112304688 181.51119995117188 551.6127319335938 180.5031280517578 C 559.9793090820312 181.73294067382812 565.77099609375 186.85162353515625 567.78857421875 194.28163146972656" stroke-width="0.0" fill="rgb(111, 108, 56)" opacity="0.9900601"/>
    <path d="M 525.1253662109375 227.2152557373047 C 523.1676025390625 234.74203491210938 517.7957763671875 240.31764221191406 510.6058349609375 242.57115173339844 C 503.51275634765625 240.97320556640625 498.0313720703125 235.48594665527344 496.2320251464844 227.87013244628906 C 497.50732421875 219.92076110839844 502.8804626464844 214.35691833496094 510.8946533203125 212.2981719970703 C 519.08544921875 214.39846801757812 524.6309204101562 219.90367126464844 525.1253662109375 227.2152557373047" stroke-width="0.0" fill="rgb(244, 244, 209)" opacity="0.9900905"/>
    <path d="M 586.8685913085938 216.70196533203125 C 584.497802734375 224.74560546875 578.3562622070312 229.5826873779297 571.326171875 231.15794372558594 C 563.924072265625 229.39016723632812 557.8140869140625 224.31324768066406 555.42138671875 216.72718811035156 C 557.4232788085938 208.9750213623047 563.0123291015625 203.53622436523438 570.7322387695312 201.97274780273438 C 578.6578979492188 203.94918823242188 584.5667724609375 209.1446075439453 586.8685913085938 216.70196533203125" stroke-width="0.0" fill="rgb(223, 106, 63)" opacity="0.9901436"/>
    <path d="M 93.89307403564453 377.87286376953125 C 91.75225067138672 386.233642578125 86.26133728027344 391.813720703125 78.2300796508789 393.90753173828125 C 69.70848846435547 391.80767822265625 64.15267944335938 386.3090515136719 62.067874908447266 378.1307067871094 C 64.1413345336914 369.6545715332031 69.65321350097656 364.1380310058594 77.57052612304688 362.0759582519531 C 86.27006530761719 364.189208984375 91.77549743652344 369.7449035644531 93.89307403564453 377.87286376953125" stroke-width="0.0" fill="rgb(212, 118, 81)" opacity="1.0"/>
    <path d="M 493.9185791015625 351.3313293457031 C 491.7940673828125 359.1885986328125 486.00970458984375 364.0364074707031 477.6672058105469 365.25543212890625 C 470.3777160644531 364.0877685546875 464.9162902832031 358.61859130859375 462.9778137207031 351.0178527832031 C 464.94879150390625 343.36822509765625 470.1913757324219 337.4837646484375 478.6278076171875 335.1009521484375 C 486.2968444824219 337.1722717285156 491.8031921386719 342.7135009765625 493.9185791015625 351.3313293457031" stroke-width="0.0" fill="rgb(209, 73, 34)" opacity="0.990087"/>
    <path d="M 545.91943359375 248.40184020996094 C 543.6754760742188 257.101806640625 538.0933227539062 262.6571350097656 529.7152709960938 264.89202880859375 C 521.8572387695312 262.72576904296875 516.302490234375 257.1277770996094 514.1466674804688 249.45736694335938 C 516.3357543945312 240.9041748046875 521.9849853515625 235.60806274414062 530.4249267578125 233.5782928466797 C 538.137451171875 235.35809326171875 543.7913208007812 240.79652404785156 545.91943359375 248.40184020996094" stroke-width="0.0" fill="rgb(181, 122, 36)" opacity="0.9902029"/>
    <path d="M 91.74956512451172 109.25917053222656 C 89.0287094116211 117.51447296142578 83.47139739990234 122.89234161376953 76.0393295288086 124.63958740234375 C 68.65816497802734 122.79685974121094 63.15773010253906 117.3548355102539 60.625362396240234 109.81736755371094 C 62.81787872314453 102.41398620605469 68.32766723632812 96.61036682128906 76.80699920654297 94.07689666748047 C 84.37406921386719 96.10921478271484 89.86293029785156 101.6367416381836 91.74956512451172 109.25917053222656" stroke-width="0.0" fill="rgb(73, 68, 73)" opacity="0.99004817"/>
    <path d="M 174.6742706298828 462.2430725097656 C 172.5004119873047 470.3168640136719 167.88287353515625 476.65765380859375 159.27149963378906 478.9318542480469 C 151.61280822753906 476.89599609375 146.101318359375 471.3882141113281 144.05484008789062 463.7030944824219 C 146.19935607910156 454.8214111328125 152.02178955078125 449.87432861328125 160.6422119140625 448.0011901855469 C 168.26803588867188 449.2382507324219 173.8206787109375 454.70989990234375 174.6742706298828 462.2430725097656" stroke-width="0.0" fill="rgb(127, 20, 23)" opacity="0.9900531"/>
    <path d="M 581.4034423828125 80.66480255126953 C 579.6741943359375 88.07637023925781 573.9708862304688 93.35384368896484 566.0 95.2233657836914 C 558.4343872070312 93.1545181274414 553.0927124023438 87.48546600341797 551.3201904296875 79.91363525390625 C 552.8590087890625 72.3926010131836 558.4896850585938 67.1795883178711 565.671875 65.72884368896484 C 572.8704833984375 67.66238403320312 578.3208618164062 73.1356430053711 581.4034423828125 80.66480255126953" stroke-width="0.0" fill="rgb(245, 227, 185)" opacity="0.990047"/>
    <path d="M 525.7235717773438 156.5719757080078 C 523.7896728515625 164.28921508789062 518.3009643554688 169.82254028320312 510.81475830078125 170.43234252929688 C 503.23828125 168.19921875 497.66510009765625 162.80506896972656 494.2298278808594 155.32810974121094 C 496.2881164550781 147.8702850341797 501.90814208984375 142.37759399414062 509.52239990234375 140.32839965820312 C 517.6157836914062 142.89959716796875 523.21630859375 148.3477783203125 525.7235717773438 156.5719757080078" stroke-width="0.0" fill="rgb(213, 74, 55)" opacity="0.99004877"/>
    <path d="M 202.91104125976562 430.4419250488281 C 200.80303955078125 438.26678466796875 195.2554931640625 443.7746276855469 186.42413330078125 445.9019470214844 C 178.68727111816406 443.8398132324219 173.18008422851562 438.30474853515625 171.11898803710938 430.3940124511719 C 173.35792541503906 422.04486083984375 179.24156188964844 416.8674621582031 187.00201416015625 414.9743957519531 C 194.78517150878906 416.8529052734375 200.67831420898438 422.00640869140625 202.91104125976562 430.4419250488281" stroke-width="0.0" fill="rgb(225, 157, 71)" opacity="1.0"/>
    <path d="M 49.941429138183594 509.5159606933594 C 47.89301681518555 517.384033203125 42.38288879394531 522.8900756835938 34.41883087158203 524.9415893554688 C 25.667577743530273 522.8584594726562 20.14502716064453 517.3309326171875 18.067384719848633 509.31103515625 C 20.186731338500977 500.7081298828125 25.68857192993164 495.1459045410156 34.14194107055664 493.055908203125 C 42.35196304321289 495.1247863769531 47.85546112060547 500.6567687988281 49.941429138183594 509.5159606933594" stroke-width="0.0" fill="rgb(186, 42, 44)" opacity="1.0"/>
    <path d="M 76.78544616699219 345.9261169433594 C 75.69178009033203 354.2659912109375 70.32403564453125 359.8690490722656 61.39435577392578 361.9590148925781 C 53.60369110107422 359.9069519042969 48.09735870361328 354.3945007324219 46.060028076171875 346.7171936035156 C 48.168548583984375 337.6935729980469 53.6981315612793 332.1807861328125 61.36616516113281 330.3782653808594 C 69.77105712890625 332.6438903808594 75.37655639648438 338.22320556640625 76.78544616699219 345.9261169433594" stroke-width="0.0" fill="rgb(38, 14, 5)" opacity="0.99001706"/>
    <path d="M 471.3011779785156 174.8048858642578 C 469.8177185058594 182.36705017089844 464.4570007324219 188.13523864746094 457.5494689941406 189.37603759765625 C 450.1214904785156 187.32521057128906 444.568115234375 181.91018676757812 442.0427551269531 175.03433227539062 C 444.17010498046875 167.51548767089844 449.3450012207031 161.67176818847656 456.779296875 159.39212036132812 C 464.7513427734375 161.7665557861328 470.2510070800781 167.2411346435547 471.3011779785156 174.8048858642578" stroke-width="0.0" fill="rgb(249, 240, 173)" opacity="0.9901779"/>
    <path d="M 480.1156005859375 349.3251647949219 C 478.7991027832031 356.843994140625 474.01123046875 362.604736328125 466.5016784667969 364.1003723144531 C 458.69940185546875 361.7268371582031 453.19561767578125 356.3252258300781 451.1742858886719 348.9010925292969 C 453.02276611328125 341.5230712890625 458.42657470703125 335.7413635253906 465.7896728515625 333.4626159667969 C 473.16827392578125 335.6777038574219 478.29327392578125 342.06744384765625 480.1156005859375 349.3251647949219" stroke-width="0.0" fill="rgb(247, 243, 183)" opacity="0.99004906"/>
    <path d="M 608.0712280273438 545.054443359375 C 606.3226928710938 552.9718627929688 601.1261596679688 558.751708984375 593.4852905273438 560.8514404296875 C 584.8986206054688 558.6615600585938 579.3693237304688 553.0901489257812 577.192138671875 544.6123657226562 C 579.28515625 536.856689453125 584.878173828125 531.3355712890625 593.1170654296875 529.1619873046875 C 600.967041015625 531.3609008789062 606.1653442382812 537.2105102539062 608.0712280273438 545.054443359375" stroke-width="0.0" fill="rgb(237, 201, 102)" opacity="1.0"/>
    <path d="M 203.7293701171875 418.9760437011719 C 200.9108123779297 426.0874938964844 194.9583282470703 431.35357666015625 188.33982849121094 433.1554260253906 C 181.21176147460938 431.2434997558594 175.73387145996094 425.7956848144531 173.41915893554688 418.3593444824219 C 174.5924835205078 411.53472900390625 180.84104919433594 406.4916076660156 188.17872619628906 404.6334533691406 C 195.47459411621094 406.2500915527344 201.3809051513672 411.2984924316406 203.7293701171875 418.9760437011719" stroke-width="0.0" fill="rgb(246, 237, 196)" opacity="0.99004847"/>
    <path d="M 512.0972290039062 202.84983825683594 C 511.8534240722656 210.36720275878906 506.3844909667969 215.90138244628906 498.57562255859375 217.957275390625 C 489.6374816894531 215.8787841796875 484.12298583984375 210.36183166503906 482.18255615234375 202.87496948242188 C 485.8465881347656 195.31509399414062 491.3216552734375 189.86355590820312 497.6752014160156 187.94052124023438 C 504.6580505371094 189.87689208984375 510.118896484375 195.3437042236328 512.0972290039062 202.84983825683594" stroke-width="0.0" fill="rgb(33, 39, 32)" opacity="0.99001247"/>
    <path d="M 454.8835754394531 107.36299133300781 C 452.7756652832031 115.16866302490234 447.0262451171875 120.35575103759766 438.3374938964844 122.82720947265625 C 430.8575134277344 120.74080657958984 425.3636474609375 115.09188079833984 423.1592102050781 106.97653198242188 C 425.3025817871094 98.85833740234375 430.8999938964844 93.42488098144531 438.8482666015625 91.66523742675781 C 447.0643005371094 93.49176788330078 452.7248840332031 98.85895538330078 454.8835754394531 107.36299133300781" stroke-width="0.0" fill="rgb(155, 18, 26)" opacity="0.9900312"/>
    <path d="M 611.0003662109375 367.0047607421875 C 609.0160522460938 374.5623474121094 603.6813354492188 380.3569641113281 595.3885498046875 382.860107421875 C 587.7511596679688 380.79937744140625 582.3029174804688 375.2099914550781 580.4381103515625 367.5434875488281 C 583.2765502929688 359.7308044433594 588.7520141601562 354.3409118652344 596.0104370117188 352.64947509765625 C 603.4049072265625 354.2173767089844 608.9755249023438 359.5341796875 611.0003662109375 367.0047607421875" stroke-width="0.0" fill="rgb(240, 169, 123)" opacity="1.0"/>
    <path d="M 164.6071319580078 39.49224853515625 C 162.70858764648438 47.20402145385742 157.19639587402344 52.68244171142578 149.49684143066406 53.52309799194336 C 141.6853485107422 51.69731140136719 136.29437255859375 46.3195686340332 134.47763061523438 38.40226364135742 C 135.2457275390625 30.742494583129883 140.7467041015625 25.26035499572754 148.3618927001953 24.725793838500977 C 156.00726318359375 26.62085723876953 161.7544708251953 31.876142501831055 164.6071319580078 39.49224853515625" stroke-width="0.0" fill="rgb(180, 159, 142)" opacity="0.99005336"/>
    <path d="M 592.7579345703125 399.4100646972656 C 590.6393432617188 407.00970458984375 584.8514404296875 412.1263122558594 577.1672973632812 413.7768859863281 C 569.6290283203125 411.68218994140625 563.7108764648438 406.5967712402344 561.4168090820312 398.9318542480469 C 563.5076904296875 391.0079040527344 568.9660034179688 385.3910827636719 577.3677978515625 383.21343994140625 C 584.9375 385.4168701171875 590.3430786132812 391.1608581542969 592.7579345703125 399.4100646972656" stroke-width="0.0" fill="rgb(238, 212, 172)" opacity="1.0"/>
    <path d="M 25.941120147705078 151.65182495117188 C 23.871417999267578 159.3343048095703 18.289823532104492 164.7386932373047 10.712334632873535 165.1432342529297 C 3.156437397003174 163.24838256835938 -2.467846155166626 157.9180450439453 -4.979048728942871 150.6515350341797 C -3.368093490600586 143.20025634765625 2.4639830589294434 138.4354248046875 10.42177677154541 136.6193389892578 C 17.77341079711914 138.07284545898438 23.747098922729492 142.93576049804688 25.941120147705078 151.65182495117188" stroke-width="0.0" fill="rgb(128, 47, 19)" opacity="0.990016"/>
    <path d="M 74.91868591308594 469.015380859375 C 72.75574493408203 477.09722900390625 66.89508819580078 482.2579650878906 58.93342590332031 484.4169921875 C 51.3045654296875 482.245361328125 45.83856201171875 476.66900634765625 43.9042854309082 469.1219787597656 C 46.08754348754883 461.5643005371094 51.53845977783203 455.9909973144531 59.76336669921875 453.13043212890625 C 67.3255844116211 455.15057373046875 72.82784271240234 460.6832275390625 74.91868591308594 469.015380859375" stroke-width="0.0" fill="rgb(216, 110, 57)" opacity="1.0"/>
    <path d="M 608.0540771484375 78.9410400390625 C 606.0427856445312 86.56842041015625 600.5671997070312 92.03172302246094 592.9601440429688 93.70758056640625 C 584.9661254882812 92.38251495361328 579.3014526367188 87.12548065185547 577.2428588867188 79.53167724609375 C 580.0681762695312 71.64089965820312 585.70458984375 66.28825378417969 593.51025390625 63.49921798706055 C 600.9846801757812 65.40225982666016 606.2559814453125 71.12875366210938 608.0540771484375 78.9410400390625" stroke-width="0.0" fill="rgb(243, 185, 125)" opacity="1.0"/>
  </g>
</svg>
