<?xml version="1.0" ?>
<svg xmlns="http://www.w3.org/2000/svg" version="1.1" width="600" height="600">
  <defs/>
  <g>
    <path d="M 485.0 309.0 C 482.9903869628906 316.5 477.5 321.9903869628906 469.5587158203125 324.49298095703125 C 461.8359069824219 322.66644287109375 456.2765808105469 317.183837890625 454.12939453125 308.6374206542969 C 456.2333679199219 300.80487060546875 461.86993408203125 295.4125061035156 469.67193603515625 293.6471862792969 C 477.5 296.0096130371094 482.9903869628906 301.5 485.0 309.0" stroke-width="0.0" fill="rgb(103, 104, 108)" opacity="0.99022406"/>
    <path d="M 434.447021484375 308.5364685058594 C 431.9903869628906 316.5 426.5 321.9903869628906 419.00079345703125 323.9997253417969 C 411.5381774902344 321.97747802734375 406.4527587890625 316.2972412109375 404.95562744140625 309.7872619628906 C 406.88665771484375 302.24102783203125 411.0692138671875 295.1687316894531 419.0753173828125 293.044921875 C 427.32940673828125 295.1288146972656 432.7357482910156 300.7188720703125 434.447021484375 308.5364685058594" stroke-width="0.0" fill="rgb(7, 6, 10)" opacity="0.9900783"/>
    <path d="M 497.4408874511719 270.56158447265625 C 494.9903869628906 278.5 489.5 283.9903869628906 482.0 286.0 C 474.5 283.9903869628906 469.0096130371094 278.5 466.998046875 270.9950256347656 C 468.9626770019531 263.38671875 474.18975830078125 257.4642639160156 482.5835266113281 255.08401489257812 C 490.2765808105469 257.17694091796875 495.7006530761719 262.7668151855469 497.4408874511719 270.56158447265625" stroke-width="0.0" fill="rgb(34, 35, 42)" opacity="0.99129504"/>
    <path d="M 614.0 148.99998474121094 C 611.9903564453125 156.5 606.5 161.99038696289062 598.9711303710938 164.01913452148438 C 591.33154296875 162.10694885253906 585.68994140625 156.7324676513672 584.3207397460938 149.43380737304688 C 586.5612182617188 142.03411865234375 592.0448608398438 136.59219360351562 599.3922729492188 133.82855224609375 C 606.5107421875 135.97434997558594 611.9906616210938 141.4989776611328 614.0 148.99998474121094" stroke-width="0.0" fill="rgb(196, 198, 206)" opacity="0.9902313"/>
    <path d="M 543.0679931640625 322.30596923828125 C 541.1514892578125 329.7450256347656 535.838134765625 335.4178771972656 528.3568725585938 338.57470703125 C 520.6770629882812 336.8048400878906 515.143798828125 331.3402099609375 513.204345703125 323.7356262207031 C 516.0023193359375 315.4797668457031 521.4207153320312 309.8143005371094 529.6956787109375 307.13226318359375 C 537.1866455078125 309.2222595214844 541.7866821289062 314.9850769042969 543.0679931640625 322.30596923828125" stroke-width="0.0" fill="rgb(63, 66, 71)" opacity="0.9900664"/>
    <path d="M 465.9193420410156 353.55401611328125 C 463.8585205078125 361.33441162109375 458.3205261230469 366.8225402832031 450.67169189453125 368.7408447265625 C 442.5 365.9903869628906 437.0096130371094 360.5 435.0 353.0 C 437.0096435546875 345.5000915527344 442.50177001953125 340.0157775878906 450.7231750488281 337.16876220703125 C 458.23785400390625 339.2054138183594 463.7635803222656 344.7772521972656 465.9193420410156 353.55401611328125" stroke-width="0.0" fill="rgb(72, 74, 78)" opacity="0.9905166"/>
    <path d="M 595.0936279296875 217.67886352539062 C 594.319091796875 224.79080200195312 588.7356567382812 230.14218139648438 581.046142578125 232.01361083984375 C 573.6949462890625 229.8963623046875 568.6409912109375 224.0894012451172 566.9417114257812 217.7059326171875 C 568.8905639648438 210.33584594726562 574.2822265625 204.69720458984375 580.4512939453125 201.48281860351562 C 587.76513671875 204.7433319091797 593.1807250976562 210.26185607910156 595.0936279296875 217.67886352539062" stroke-width="0.0" fill="rgb(44, 42, 47)" opacity="0.99001783"/>
    <path d="M 412.8302917480469 194.7086944580078 C 410.8661804199219 202.36264038085938 405.3727111816406 207.89129638671875 397.6004333496094 209.9466094970703 C 388.68438720703125 207.8578338623047 383.85797119140625 202.22195434570312 382.951171875 194.6378173828125 C 384.8716735839844 187.28912353515625 390.1606140136719 181.06507873535156 397.3184814453125 178.1627197265625 C 405.24713134765625 180.22225952148438 410.6622619628906 185.78907775878906 412.8302917480469 194.7086944580078" stroke-width="0.0" fill="rgb(33, 33, 39)" opacity="0.990063"/>
    <path d="M 454.4998779296875 353.16357421875 C 452.9022216796875 360.4593811035156 447.4830017089844 365.98199462890625 439.9986267089844 367.9992980957031 C 432.5 365.9903869628906 427.0096130371094 360.5 424.3968505859375 352.5036315917969 C 426.3440856933594 344.93450927734375 432.0309143066406 339.641357421875 439.80975341796875 338.02044677734375 C 447.25714111328125 340.24200439453125 452.64794921875 345.7772216796875 454.4998779296875 353.16357421875" stroke-width="0.0" fill="rgb(32, 33, 37)" opacity="0.9906798"/>
    <path d="M 494.9549255371094 315.6656188964844 C 492.905517578125 323.3943786621094 487.3852233886719 328.8805236816406 479.753662109375 330.7884216308594 C 471.6001892089844 327.9355163574219 466.3533935546875 322.3034973144531 464.779052734375 315.2857666015625 C 466.6328125 308.073486328125 472.0542907714844 302.5739440917969 479.7138977050781 299.315185546875 C 487.2999267578125 301.18182373046875 492.8338928222656 306.69500732421875 494.9549255371094 315.6656188964844" stroke-width="0.0" fill="rgb(20, 18, 22)" opacity="0.9905851"/>
    <path d="M 400.8083801269531 250.30160522460938 C 397.9903869628906 258.5 392.5 263.9903869628906 384.9778747558594 266.47857666015625 C 378.1422424316406 263.44000244140625 372.7798767089844 257.7937316894531 370.88409423828125 250.5276641845703 C 371.94775390625 242.93133544921875 376.77838134765625 237.19119262695312 384.3117370605469 235.1104278564453 C 393.22259521484375 237.2841339111328 398.79730224609375 242.74717712402344 400.8083801269531 250.30160522460938" stroke-width="0.0" fill="rgb(105, 106, 110)" opacity="1.0"/>
    <path d="M 405.8992004394531 223.82711791992188 C 403.89697265625 231.3822021484375 398.3733825683594 236.87515258789062 390.6673278808594 238.87200927734375 C 381.8885803222656 236.7205352783203 377.6519775390625 230.7089385986328 375.9379577636719 223.4386749267578 C 377.8523864746094 216.27976989746094 383.1710510253906 210.16908264160156 390.53289794921875 207.11636352539062 C 398.18707275390625 209.2250518798828 403.4884033203125 214.91268920898438 405.8992004394531 223.82711791992188" stroke-width="0.0" fill="rgb(52, 52, 56)" opacity="0.99009943"/>
    <path d="M 473.9507751464844 111.95853424072266 C 471.8804626464844 120.36100006103516 466.3547058105469 125.86563873291016 457.597900390625 127.9159164428711 C 449.6062927246094 125.8947525024414 444.0884704589844 120.40045928955078 442.04254150390625 112.07491302490234 C 444.087158203125 103.59077453613281 449.5876770019531 98.07978820800781 457.39129638671875 96.03848266601562 C 466.3855285644531 98.09808349609375 471.88629150390625 103.6214599609375 473.9507751464844 111.95853424072266" stroke-width="0.0" fill="rgb(24, 24, 29)" opacity="1.0"/>
    <path d="M 511.0 290.0 C 508.9903869628906 297.5 503.5 302.9903869628906 495.9565734863281 305.04656982421875 C 488.393798828125 303.1037292480469 482.9156494140625 297.600341796875 480.970703125 290.03143310546875 C 483.0096130371094 282.5 488.5 277.0096130371094 496.0 275.0 C 503.5 277.0096130371094 508.9903869628906 282.5 511.0 290.0" stroke-width="0.0" fill="rgb(14, 14, 18)" opacity="1.0"/>
    <path d="M 442.79345703125 320.273193359375 C 439.9819641113281 328.4975891113281 434.4998779296875 333.9903564453125 426.4130554199219 336.6536560058594 C 418.772216796875 334.7616271972656 413.35797119140625 329.1899719238281 411.6724853515625 321.3537292480469 C 414.0096130371094 313.5 419.5 308.0096130371094 427.3468322753906 305.7032165527344 C 435.2263488769531 307.3422546386719 440.82940673828125 312.7174377441406 442.79345703125 320.273193359375" stroke-width="0.0" fill="rgb(23, 24, 28)" opacity="0.99166983"/>
    <path d="M 523.0 114.0 C 520.9903564453125 121.5 515.5 126.9903793334961 508.0 129.0 C 500.5 126.9903793334961 495.0096130371094 121.5 493.0 114.0 C 495.0096130371094 106.5 500.5 101.0096206665039 508.0 99.0 C 515.5 101.0096206665039 520.9903564453125 106.5 523.0 114.0" stroke-width="0.0" fill="rgb(37, 38, 40)" opacity="1.0"/>
    <path d="M 438.9894104003906 132.02439880371094 C 436.9903869628906 139.5 431.5 144.99038696289062 424.0 147.0 C 416.5 144.99038696289062 411.0096130371094 139.5 409.2475891113281 132.3045654296875 C 411.6474914550781 125.21424865722656 417.2914733886719 119.87104797363281 424.54705810546875 117.95418548583984 C 430.9511413574219 119.75431060791016 436.8288269042969 124.80770874023438 438.9894104003906 132.02439880371094" stroke-width="0.0" fill="rgb(28, 27, 34)" opacity="0.9900629"/>
    <path d="M 421.9989013671875 136.00283813476562 C 419.9903869628906 143.5 414.5 148.99038696289062 407.0 151.0 C 399.5 148.99038696289062 394.0096130371094 143.5 392.9207763671875 136.85154724121094 C 394.9144592285156 129.38320922851562 400.38470458984375 123.91798400878906 407.79437255859375 121.95275115966797 C 414.2262268066406 123.52983093261719 419.9599304199219 128.5785369873047 421.9989013671875 136.00283813476562" stroke-width="0.0" fill="rgb(17, 16, 21)" opacity="0.9900313"/>
    <path d="M 463.8856201171875 168.4746551513672 C 461.8920593261719 176.40061950683594 456.4101257324219 181.9183807373047 448.8699035644531 183.93798828125 C 440.4620361328125 181.10440063476562 435.00811767578125 175.50474548339844 432.1889953613281 167.25668334960938 C 434.14447021484375 159.66314697265625 439.682373046875 154.2014923095703 447.92352294921875 152.24337768554688 C 456.27685546875 154.2306671142578 461.8244934082031 159.7032470703125 463.8856201171875 168.4746551513672" stroke-width="0.0" fill="rgb(9, 9, 11)" opacity="0.99012226"/>
    <path d="M 489.0 286.0 C 486.9903869628906 293.4999694824219 481.499755859375 298.9895324707031 474.4411315917969 300.3878173828125 C 466.9150085449219 298.43603515625 461.1849365234375 293.2108154296875 459.0047912597656 285.9691162109375 C 461.0096130371094 278.5 466.5 273.0096130371094 474.0 271.0 C 481.5 273.0096130371094 486.9903869628906 278.5 489.0 286.0" stroke-width="0.0" fill="rgb(25, 24, 29)" opacity="0.9902454"/>
    <path d="M 433.0 315.0 C 430.9903869628906 322.5 425.4998474121094 327.98992919921875 418.77252197265625 329.1914978027344 C 411.3843994140625 327.0940246582031 405.9190979003906 321.6106262207031 403.9609680175781 314.27606201171875 C 405.72760009765625 307.9630126953125 410.59808349609375 301.89959716796875 417.92547607421875 299.9081726074219 C 425.5 302.0096130371094 430.9903869628906 307.5 433.0 315.0" stroke-width="0.0" fill="rgb(15, 14, 17)" opacity="0.9900668"/>
    <path d="M 437.91546630859375 311.1522521972656 C 434.97991943359375 319.4943542480469 429.4968566894531 324.988525390625 421.9996032714844 326.999755859375 C 414.5 324.9903869628906 409.0096130371094 319.5 406.88616943359375 311.9220886230469 C 408.8636779785156 304.4032287597656 414.4423522949219 298.99420166015625 422.5228271484375 296.510986328125 C 430.3172302246094 298.22479248046875 435.8914794921875 303.6416015625 437.91546630859375 311.1522521972656" stroke-width="0.0" fill="rgb(21, 21, 25)" opacity="1.0"/>
    <path d="M 445.0022277832031 362.00579833984375 C 443.04388427734375 369.6275939941406 437.83709716796875 375.5647888183594 429.21612548828125 377.9385070800781 C 421.6199035644531 375.8964538574219 416.1749267578125 370.3578186035156 415.90008544921875 362.28363037109375 C 416.19329833984375 353.66192626953125 421.6458740234375 348.1368103027344 429.2529296875 346.1901550292969 C 437.5006408691406 349.0072326660156 442.990234375 354.50006103515625 445.0022277832031 362.00579833984375" stroke-width="0.0" fill="rgb(23, 23, 27)" opacity="1.0"/>
    <path d="M 447.3211669921875 271.62255859375 C 444.9903564453125 279.49993896484375 439.49908447265625 284.98724365234375 431.1778564453125 287.89874267578125 C 423.6645812988281 285.8739929199219 418.2715148925781 280.2862854003906 416.61029052734375 272.42779541015625 C 418.8977966308594 264.2694396972656 424.03094482421875 258.32269287109375 432.6983947753906 256.05670166015625 C 440.32781982421875 258.1252746582031 445.69329833984375 263.7343444824219 447.3211669921875 271.62255859375" stroke-width="0.0" fill="rgb(12, 12, 14)" opacity="1.0"/>
    <path d="M 551.3263549804688 243.61239624023438 C 549.9903564453125 250.5 544.5 255.99038696289062 536.840576171875 258.1416931152344 C 529.0735473632812 256.3820495605469 523.5142822265625 250.9580841064453 521.6963500976562 243.27310180664062 C 524.0281982421875 235.5478973388672 529.67626953125 230.3880615234375 536.2901000976562 228.92337036132812 C 543.6889038085938 230.8588409423828 549.1885986328125 236.29344177246094 551.3263549804688 243.61239624023438" stroke-width="0.0" fill="rgb(58, 56, 63)" opacity="0.99005085"/>
    <path d="M 595.9917602539062 236.98333740234375 C 593.8904418945312 244.310302734375 588.13671875 249.42672729492188 580.5018310546875 251.1573944091797 C 573.54638671875 249.85757446289062 568.0120239257812 244.49273681640625 566.0000610351562 236.99986267089844 C 568.0096435546875 229.5 573.5 224.00961303710938 581.0 222.0 C 588.5 224.00961303710938 593.9903564453125 229.5 595.9917602539062 236.98333740234375" stroke-width="0.0" fill="rgb(87, 85, 90)" opacity="0.9907094"/>
    <path d="M 464.1899108886719 15.877817153930664 C 462.6534729003906 23.606006622314453 457.81280517578125 29.383716583251953 450.2034912109375 31.22163963317871 C 442.5 28.990381240844727 437.0096130371094 23.5 434.96038818359375 15.942916870117188 C 436.8055114746094 8.22765827178955 442.1675109863281 2.61165714263916 449.56573486328125 1.6931145191192627 C 457.0186462402344 3.5486721992492676 462.493408203125 8.966180801391602 464.1899108886719 15.877817153930664" stroke-width="0.0" fill="rgb(73, 72, 78)" opacity="0.99004287"/>
    <path d="M 434.8384704589844 315.0255432128906 C 432.9657897949219 322.48822021484375 427.49188232421875 327.97845458984375 420.1553649902344 329.7770690917969 C 412.8150329589844 327.6640625 407.4093933105469 322.16143798828125 405.61492919921875 315.0128173828125 C 407.42132568359375 307.84234619140625 412.7971496582031 302.27587890625 420.0617980957031 300.0841064453125 C 427.4187316894531 302.09967041015625 432.8938293457031 307.58294677734375 434.8384704589844 315.0255432128906" stroke-width="0.0" fill="rgb(7, 6, 10)" opacity="0.99023205"/>
    <path d="M 543.0488891601562 368.37701416015625 C 541.1582641601562 375.8775329589844 536.8660278320312 382.7209167480469 529.676025390625 384.81134033203125 C 521.5 381.9903869628906 516.0096435546875 376.5 513.849609375 368.7912292480469 C 515.4707641601562 360.8565673828125 520.7648315429688 355.1927490234375 528.30078125 353.1922912597656 C 536.0355834960938 356.19281005859375 541.2034912109375 362.15277099609375 543.0488891601562 368.37701416015625" stroke-width="0.0" fill="rgb(38, 38, 41)" opacity="0.9900485"/>
    <path d="M 434.8471984863281 227.230712890625 C 432.0048522949219 235.54043579101562 426.66888427734375 241.36424255371094 418.1486511230469 243.94204711914062 C 410.5870666503906 241.9185028076172 405.0841369628906 236.411865234375 403.0614318847656 228.81871032714844 C 405.4310302734375 220.15846252441406 411.3695068359375 214.95492553710938 419.3209533691406 212.73680114746094 C 427.237060546875 214.34852600097656 432.8539123535156 219.69631958007812 434.8471984863281 227.230712890625" stroke-width="0.0" fill="rgb(0, 0, 0)" opacity="1.0"/>
    <path d="M 453.0340576171875 415.3765563964844 C 451.06982421875 422.6023254394531 445.6111145019531 428.0918273925781 438.2442321777344 430.2529602050781 C 431.5001220703125 428.9899597167969 426.0096130371094 423.5 423.9985046386719 415.99615478515625 C 425.97314453125 408.4106140136719 431.2461853027344 402.5355224609375 439.6532287597656 400.0867004394531 C 446.1480407714844 402.2743835449219 451.1137390136719 409.27392578125 453.0340576171875 415.3765563964844" stroke-width="0.0" fill="rgb(23, 22, 26)" opacity="0.9900249"/>
    <path d="M 514.0 275.9999694824219 C 511.9903869628906 283.5 506.5 288.9903869628906 499.00018310546875 290.9996337890625 C 491.5001525878906 288.9901123046875 486.0096435546875 283.49993896484375 483.9700927734375 275.94403076171875 C 485.7366638183594 268.06207275390625 490.8523254394531 262.2063293457031 498.2203674316406 260.08758544921875 C 506.52239990234375 262.9399108886719 511.9912414550781 268.497314453125 514.0 275.9999694824219" stroke-width="0.0" fill="rgb(67, 70, 76)" opacity="1.0"/>
    <path d="M 528.803955078125 178.59353637695312 C 526.8362426757812 186.3264617919922 521.3324584960938 191.85255432128906 513.7471923828125 193.9099884033203 C 505.3846435546875 191.27102661132812 500.00115966796875 185.52450561523438 497.149169921875 177.20559692382812 C 499.11175537109375 169.6169891357422 504.6159973144531 164.10888671875 512.4415283203125 162.0692596435547 C 521.3160400390625 164.15232849121094 526.7386474609375 169.72006225585938 528.803955078125 178.59353637695312" stroke-width="0.0" fill="rgb(24, 23, 33)" opacity="0.99008745"/>
    <path d="M 567.0804443359375 167.0957489013672 C 565.3422241210938 174.96841430664062 560.1146240234375 180.74147033691406 552.6687622070312 182.86126708984375 C 544.441650390625 180.14486694335938 539.0053100585938 174.5124969482422 536.9765014648438 166.95997619628906 C 538.8258666992188 159.20840454101562 544.0564575195312 153.40065002441406 552.5601196289062 151.0950469970703 C 559.9467163085938 153.33949279785156 565.0892944335938 159.29005432128906 567.0804443359375 167.0957489013672" stroke-width="0.0" fill="rgb(107, 110, 115)" opacity="1.0"/>
    <path d="M 492.117431640625 23.850759506225586 C 489.9903869628906 31.5 484.5 36.990379333496094 476.48052978515625 39.549659729003906 C 468.71875 37.753143310546875 463.14825439453125 32.31645202636719 461.1579284667969 24.769386291503906 C 463.8478698730469 16.302343368530273 469.23663330078125 10.639106750488281 477.1689758300781 8.459722518920898 C 485.0360412597656 10.405007362365723 490.3937072753906 16.02663803100586 492.117431640625 23.850759506225586" stroke-width="0.0" fill="rgb(126, 126, 134)" opacity="0.9902021"/>
    <path d="M 600.09033203125 190.09130859375 C 598.2334594726562 197.76829528808594 592.7977294921875 203.32675170898438 584.78125 205.3069610595703 C 577.0640869140625 203.45852661132812 571.6158447265625 197.91256713867188 569.2099609375 189.42213439941406 C 571.2369384765625 181.8065185546875 576.8853759765625 176.47720336914062 584.7783813476562 174.8249969482422 C 592.5 177.00961303710938 597.9903564453125 182.5 600.09033203125 190.09130859375" stroke-width="0.0" fill="rgb(197, 197, 206)" opacity="1.0"/>
    <path d="M 613.0 164.0 C 610.9903564453125 171.5 605.5 176.99038696289062 598.0001831054688 178.99989318847656 C 590.5015258789062 176.9894256591797 585.0099487304688 171.4985809326172 582.7274169921875 163.8735809326172 C 584.864501953125 156.4124755859375 590.4457397460938 150.97415161132812 597.9918212890625 148.995361328125 C 605.5 151.00965881347656 610.9903564453125 156.5 613.0 164.0" stroke-width="0.0" fill="rgb(196, 197, 205)" opacity="0.9937723"/>
    <path d="M 546.9902954101562 120.02061462402344 C 544.9903564453125 127.5 539.5 132.99038696289062 532.0 135.0 C 524.5 132.99038696289062 519.0096435546875 127.5 517.0 120.0 C 519.009521484375 112.4996109008789 524.493896484375 106.98867797851562 531.2706909179688 105.86564636230469 C 539.03271484375 107.68437957763672 544.8602905273438 112.74880981445312 546.9902954101562 120.02061462402344" stroke-width="0.0" fill="rgb(50, 48, 54)" opacity="0.99066406"/>
    <path d="M 606.9979248046875 179.99737548828125 C 604.980712890625 187.48776245117188 599.4849243164062 192.97128295898438 591.9920043945312 194.98980712890625 C 584.4991455078125 192.99081420898438 579.0059204101562 187.50180053710938 576.6685180664062 179.81204223632812 C 578.7433471679688 172.2989959716797 584.3353881835938 166.86241149902344 591.9498901367188 164.95579528808594 C 599.4998168945312 167.010009765625 604.9902954101562 172.5000762939453 606.9979248046875 179.99737548828125" stroke-width="0.0" fill="rgb(197, 198, 207)" opacity="0.9944252"/>
    <path d="M 463.9041748046875 236.27084350585938 C 461.8182678222656 245.31752014160156 456.3319091796875 250.8555908203125 447.98907470703125 252.93431091308594 C 439.8852844238281 250.76873779296875 434.7590637207031 244.9073486328125 432.792724609375 236.77752685546875 C 434.415283203125 228.81106567382812 439.7289123535156 223.16632080078125 448.75189208984375 221.05792236328125 C 456.3896484375 223.09791564941406 461.8924255371094 228.6143341064453 463.9041748046875 236.27084350585938" stroke-width="0.0" fill="rgb(70, 55, 27)" opacity="0.9900856"/>
    <path d="M 462.0400085449219 63.03377151489258 C 460.24017333984375 70.89161682128906 455.07147216796875 76.72196960449219 447.65655517578125 78.82736206054688 C 439.4027099609375 76.19513702392578 433.9939880371094 70.53756713867188 431.999267578125 63.001808166503906 C 434.0096130371094 55.5 439.5 50.009620666503906 447.6935729980469 47.1527214050293 C 455.00018310546875 49.306732177734375 460.13336181640625 55.22648239135742 462.0400085449219 63.03377151489258" stroke-width="0.0" fill="rgb(104, 104, 109)" opacity="1.0"/>
    <path d="M 526.3610229492188 269.8140869140625 C 524.1119384765625 277.5542297363281 518.5200805664062 282.9988708496094 511.0010681152344 285.00042724609375 C 503.5012512207031 282.9899597167969 498.0265808105469 277.494140625 495.9683837890625 269.7332458496094 C 497.4310302734375 261.85626220703125 502.7696838378906 256.1910400390625 511.7086486816406 254.04598999023438 C 519.314453125 256.1216125488281 524.607666015625 261.78106689453125 526.3610229492188 269.8140869140625" stroke-width="0.0" fill="rgb(41, 44, 50)" opacity="0.99021757"/>
    <path d="M 478.99713134765625 66.99845886230469 C 476.9959716796875 74.52690887451172 471.6054382324219 80.23748016357422 463.32958984375 82.85734558105469 C 455.7677001953125 80.79314422607422 450.37371826171875 75.17337036132812 448.6505126953125 67.35002136230469 C 451.0096130371094 59.5 456.5 54.009620666503906 464.0 52.0 C 471.5 54.009620666503906 476.9903869628906 59.5 478.99713134765625 66.99845886230469" stroke-width="0.0" fill="rgb(77, 72, 75)" opacity="1.0"/>
    <path d="M 551.187255859375 165.15750122070312 C 549.6725463867188 172.33572387695312 544.4312133789062 177.9583282470703 536.9732666015625 180.00856018066406 C 529.23095703125 178.1316375732422 523.3114013671875 172.9944610595703 521.1221313476562 165.53244018554688 C 523.3471069335938 156.96922302246094 529.0923461914062 151.7027587890625 537.477294921875 149.42234802246094 C 545.13671875 151.30368041992188 550.1455688476562 156.9764404296875 551.187255859375 165.15750122070312" stroke-width="0.0" fill="rgb(2, 2, 3)" opacity="0.99006695"/>
    <path d="M 531.0 125.0 C 528.9903564453125 132.5 523.5 137.99038696289062 516.0 140.0 C 508.5 137.99038696289062 503.0096130371094 132.5 501.1252136230469 125.11275482177734 C 503.2664489746094 117.7373046875 508.72216796875 112.21649932861328 516.0747680664062 110.0696792602539 C 523.5 112.0096206665039 528.9903564453125 117.5 531.0 125.0" stroke-width="0.0" fill="rgb(110, 112, 135)" opacity="0.992026"/>
    <path d="M 433.39959716796875 267.5538635253906 C 431.0968017578125 275.71051025390625 425.9239807128906 281.6304626464844 417.1697998046875 283.947265625 C 409.6214599609375 281.90838623046875 404.2140197753906 276.33612060546875 402.52423095703125 268.515380859375 C 405.0096130371094 260.5 410.5 255.00961303710938 418.8438415527344 252.0919952392578 C 426.359375 254.10557556152344 431.7492980957031 259.68963623046875 433.39959716796875 267.5538635253906" stroke-width="0.0" fill="rgb(0, 0, 0)" opacity="1.0"/>
    <path d="M 494.9942626953125 288.1747741699219 C 493.37078857421875 296.0067443847656 488.13232421875 301.7386779785156 480.63507080078125 303.751220703125 C 472.5462951660156 300.94000244140625 467.0668640136719 295.4516296386719 465.0384216308594 287.9737243652344 C 467.0096130371094 280.5 472.5 275.0096130371094 479.9772033691406 273.021240234375 C 487.4157409667969 275.0819091796875 492.85784912109375 280.6023864746094 494.9942626953125 288.1747741699219" stroke-width="0.0" fill="rgb(16, 15, 19)" opacity="1.0"/>
    <path d="M 520.9996337890625 132.00094604492188 C 518.9903564453125 139.5 513.5 144.99038696289062 505.980712890625 147.01199340820312 C 498.36236572265625 145.07736206054688 492.6914367675781 139.71165466308594 490.6689147949219 132.2151336669922 C 493.01116943359375 124.50502014160156 498.54107666015625 119.13259887695312 505.6858825683594 117.83195495605469 C 513.3707885742188 119.31201171875 518.9791259765625 124.5306396484375 520.9996337890625 132.00094604492188" stroke-width="0.0" fill="rgb(252, 252, 168)" opacity="0.9905566"/>
    <path d="M 525.0238037109375 139.04306030273438 C 523.1834106445312 146.79994201660156 517.9317626953125 152.56871032714844 509.5477294921875 154.70057678222656 C 501.898681640625 152.71429443359375 496.5196838378906 147.00656127929688 494.6023864746094 139.29246520996094 C 497.0096435546875 131.5 502.5 126.0096206665039 510.0 124.0 C 517.5 126.0096206665039 522.9903564453125 131.5 525.0238037109375 139.04306030273438" stroke-width="0.0" fill="rgb(251, 252, 172)" opacity="1.0"/>
    <path d="M 534.8999633789062 372.9306335449219 C 532.8597412109375 380.408447265625 527.4326171875 385.9396667480469 519.9861450195312 387.98876953125 C 512.5 385.9903869628906 507.0096130371094 380.5 504.942138671875 372.89794921875 C 506.6148681640625 364.9432067871094 511.77679443359375 359.16680908203125 519.1837768554688 357.0908508300781 C 527.4992065429688 360.0138244628906 532.9876708984375 365.5005187988281 534.8999633789062 372.9306335449219" stroke-width="0.0" fill="rgb(20, 18, 25)" opacity="0.99480337"/>
    <path d="M 455.7538757324219 364.6314392089844 C 453.70562744140625 372.0716857910156 447.91815185546875 377.27362060546875 439.32794189453125 379.79290771484375 C 431.82025146484375 377.7760314941406 426.5780029296875 372.0593566894531 424.90087890625 364.1331481933594 C 427.0037841796875 356.49713134765625 432.49884033203125 351.0097351074219 439.9744873046875 349.0534362792969 C 447.44732666015625 351.0659484863281 452.90533447265625 356.5611572265625 455.7538757324219 364.6314392089844" stroke-width="0.0" fill="rgb(26, 26, 30)" opacity="1.0"/>
    <path d="M 514.0272827148438 371.9469909667969 C 511.9903869628906 379.5 506.5 384.9903869628906 498.3213195800781 387.7082824707031 C 490.6480407714844 385.8449401855469 485.12811279296875 380.36114501953125 483.0502624511719 371.2421875 C 485.0839538574219 363.5903015136719 490.59027099609375 358.0837707519531 498.2342529296875 356.0427551269531 C 507.1328430175781 358.2175598144531 512.2529296875 364.0757141113281 514.0272827148438 371.9469909667969" stroke-width="0.0" fill="rgb(0, 0, 0)" opacity="1.0"/>
    <path d="M 536.434814453125 235.5554962158203 C 534.4271240234375 242.9844207763672 529.0307006835938 248.6022186279297 521.3582153320312 251.83489990234375 C 513.788330078125 249.7621307373047 508.2825012207031 244.1931610107422 506.0816345214844 235.25965881347656 C 508.13360595703125 227.66702270507812 513.68603515625 222.17709350585938 521.4808959960938 220.0844268798828 C 529.6566772460938 222.4239501953125 535.05712890625 228.65737915039062 536.434814453125 235.5554962158203" stroke-width="0.0" fill="rgb(174, 140, 79)" opacity="0.9902271"/>
    <path d="M 559.0006103515625 254.99639892578125 C 556.9881591796875 262.4977111816406 551.4990844726562 267.9932556152344 544.0060424804688 270.0175476074219 C 536.5 267.9903869628906 531.0096435546875 262.5 529.5318603515625 255.48634338378906 C 531.7330322265625 248.22714233398438 537.2609252929688 242.82496643066406 544.77294921875 240.78709411621094 C 551.6935424804688 241.62559509277344 557.0179443359375 247.4321746826172 559.0006103515625 254.99639892578125" stroke-width="0.0" fill="rgb(210, 211, 217)" opacity="0.9900777"/>
    <path d="M 457.0576171875 277.0790100097656 C 455.3059997558594 284.93914794921875 450.0832214355469 290.7113342285156 441.3211975097656 292.9080810546875 C 433.6949768066406 290.855712890625 428.331298828125 285.2413635253906 426.7326965332031 277.3612976074219 C 429.0334167480469 269.5128479003906 434.50665283203125 264.0120544433594 442.66455078125 261.1583251953125 C 449.8985290527344 263.3775939941406 455.0637512207031 269.33184814453125 457.0576171875 277.0790100097656" stroke-width="0.0" fill="rgb(16, 18, 24)" opacity="0.99011546"/>
    <path d="M 538.0 119.99996948242188 C 535.9903564453125 127.5 530.5 132.99038696289062 522.9999389648438 135.00003051757812 C 515.4951782226562 132.991943359375 509.91546630859375 127.53182983398438 507.352783203125 119.98477172851562 C 509.75732421875 112.38252258300781 515.4586791992188 106.99217987060547 523.0563354492188 104.83824920654297 C 530.5094604492188 106.98072052001953 535.9908447265625 112.49845886230469 538.0 119.99996948242188" stroke-width="0.0" fill="rgb(57, 56, 66)" opacity="0.99266315"/>
    <path d="M 453.03338623046875 458.3525695800781 C 451.0728759765625 464.600830078125 445.6016845703125 470.0746765136719 438.1521911621094 472.04132080078125 C 430.663818359375 471.7859802246094 425.1158447265625 466.36444091796875 423.0537414550781 458.366943359375 C 425.12066650390625 449.6297912597656 430.6212158203125 444.101318359375 438.0877990722656 442.16656494140625 C 445.607666015625 445.9179992675781 451.0758056640625 451.39471435546875 453.03338623046875 458.3525695800781" stroke-width="0.0" fill="rgb(9, 7, 11)" opacity="0.9900066"/>
    <path d="M 424.551025390625 261.4226379394531 C 421.9902038574219 269.4998474121094 416.4998474121094 274.990234375 408.2568359375 277.8672790527344 C 400.8735656738281 275.771484375 395.7376403808594 269.93157958984375 393.87969970703125 261.8923645019531 C 395.5235290527344 253.87025451660156 400.73150634765625 248.14193725585938 409.5429992675781 246.03750610351562 C 417.3835754394531 248.09303283691406 422.8153381347656 253.64793395996094 424.551025390625 261.4226379394531" stroke-width="0.0" fill="rgb(0, 0, 0)" opacity="1.0"/>
    <path d="M 540.9284057617188 293.5056457519531 C 538.816650390625 302.2916259765625 533.2892456054688 307.81036376953125 525.691650390625 309.7897644042969 C 517.5 306.9903869628906 512.0096435546875 301.5 510.0 294.0 C 512.0096435546875 286.5 517.5 281.0096130371094 525.295654296875 278.74871826171875 C 533.1947631835938 280.3893127441406 538.8387451171875 285.72576904296875 540.9284057617188 293.5056457519531" stroke-width="0.0" fill="rgb(74, 79, 86)" opacity="0.99025434"/>
    <path d="M 449.9867248535156 239.11126708984375 C 448.4403381347656 247.07676696777344 443.2130432128906 252.8151092529297 434.2872009277344 254.95391845703125 C 426.5985107421875 252.90992736816406 421.1031799316406 247.3964385986328 419.1568908691406 239.8114013671875 C 422.2497863769531 231.68836975097656 427.58966064453125 225.86639404296875 435.70416259765625 223.09356689453125 C 443.1191101074219 225.2327117919922 448.2520751953125 231.07830810546875 449.9867248535156 239.11126708984375" stroke-width="0.0" fill="rgb(44, 39, 43)" opacity="1.0"/>
    <path d="M 511.0047912597656 106.00175476074219 C 509.00286865234375 113.51313018798828 503.5137939453125 119.00504302978516 496.0052490234375 121.0056381225586 C 488.5 118.9903793334961 483.0096130371094 113.5 481.0 106.0 C 483.0096130371094 98.50001525878906 488.50067138671875 93.01205444335938 496.4392395019531 90.36323547363281 C 503.6753234863281 92.64810180664062 509.01300048828125 98.4429702758789 511.0047912597656 106.00175476074219" stroke-width="0.0" fill="rgb(27, 25, 33)" opacity="0.9948661"/>
    <path d="M 585.85205078125 240.80889892578125 C 583.49462890625 247.90817260742188 577.8055419921875 253.1983642578125 570.2644653320312 255.136962890625 C 563.500732421875 253.98770141601562 558.0096435546875 248.49996948242188 555.2973022460938 240.4229736328125 C 557.3162841796875 233.02345275878906 563.4964599609375 228.45030212402344 571.3222045898438 226.41561889648438 C 578.5 228.00961303710938 583.9903564453125 233.5 585.85205078125 240.80889892578125" stroke-width="0.0" fill="rgb(75, 74, 77)" opacity="0.9902604"/>
    <path d="M 571.2697143554688 252.8309783935547 C 570.5337524414062 259.85693359375 564.685546875 265.02288818359375 557.00244140625 267.0647277832031 C 549.5 264.9903869628906 544.0096435546875 259.5 541.999755859375 251.9993438720703 C 544.0038452148438 244.48582458496094 549.4612426757812 238.92112731933594 556.2364501953125 237.8387451171875 C 563.6573486328125 239.87437438964844 569.118896484375 245.34524536132812 571.2697143554688 252.8309783935547" stroke-width="0.0" fill="rgb(211, 213, 218)" opacity="0.99008876"/>
    <path d="M 517.0 301.0 C 514.9903564453125 308.5 509.5 313.9903869628906 501.2438049316406 316.8331604003906 C 493.683837890625 314.8515930175781 488.1907653808594 309.2966613769531 486.11993408203125 301.75384521484375 C 488.9742126464844 293.4625244140625 494.4508972167969 287.936767578125 501.962158203125 285.9420471191406 C 509.5 288.0096130371094 514.9903564453125 293.5 517.0 301.0" stroke-width="0.0" fill="rgb(14, 13, 19)" opacity="1.0"/>
    <path d="M 527.1205444335938 97.78146362304688 C 526.6519165039062 105.07939147949219 520.9962768554688 110.3868408203125 513.132080078125 112.09390258789062 C 505.5 109.9903793334961 500.0096130371094 104.5 497.39776611328125 96.46173858642578 C 499.2723083496094 88.81040954589844 504.868408203125 83.48926544189453 512.3250732421875 82.845703125 C 519.6871948242188 84.84092712402344 525.1415405273438 90.31929016113281 527.1205444335938 97.78146362304688" stroke-width="0.0" fill="rgb(78, 77, 86)" opacity="0.99004334"/>
    <path d="M 436.789306640625 189.7449188232422 C 434.8746337890625 197.3820037841797 429.3958435058594 202.91067504882812 421.8479309082031 204.9272918701172 C 412.8594055175781 202.6695098876953 407.4571533203125 197.10296630859375 405.2364196777344 188.3369903564453 C 407.1709289550781 180.6832275390625 412.6827392578125 175.1695098876953 420.29046630859375 173.20494079589844 C 428.5 176.00961303710938 433.9903869628906 181.5 436.789306640625 189.7449188232422" stroke-width="0.0" fill="rgb(6, 5, 7)" opacity="0.99004084"/>
    <path d="M 553.0548706054688 121.60972595214844 C 551.2293701171875 128.136474609375 547.0827026367188 134.76918029785156 539.6749877929688 136.779296875 C 531.5 133.99038696289062 526.0096435546875 128.5 524.0003051757812 121.00094604492188 C 526.0234375 113.53955078125 531.675048828125 108.39743041992188 538.2744750976562 106.93038940429688 C 545.6531372070312 108.87943267822266 551.1088256835938 114.35198974609375 553.0548706054688 121.60972595214844" stroke-width="0.0" fill="rgb(56, 54, 64)" opacity="0.9900227"/>
    <path d="M 413.6552734375 156.4159698486328 C 411.4053039550781 163.71397399902344 405.5757141113281 169.0211639404297 398.25482177734375 170.8147735595703 C 391.20458984375 168.38772583007812 385.88470458984375 162.70077514648438 383.96173095703125 155.8757781982422 C 385.885986328125 149.31106567382812 391.2368469238281 143.6717529296875 398.3276672363281 141.26983642578125 C 405.5169372558594 143.0034637451172 411.135009765625 148.4408416748047 413.6552734375 156.4159698486328" stroke-width="0.0" fill="rgb(6, 6, 9)" opacity="0.99002236"/>
    <path d="M 486.9483337402344 378.7561340332031 C 484.9150390625 386.4070129394531 479.404052734375 391.9078369140625 471.72021484375 393.9456787109375 C 462.7789306640625 391.8082580566406 457.5075988769531 386.111083984375 455.4246826171875 377.5657043457031 C 457.2784118652344 369.7687072753906 462.7362365722656 364.1909484863281 471.7401123046875 362.0587463378906 C 479.3919372558594 364.0955810546875 484.8802795410156 369.617431640625 486.9483337402344 378.7561340332031" stroke-width="0.0" fill="rgb(53, 53, 55)" opacity="1.0"/>
    <path d="M 517.8936157226562 203.1793975830078 C 514.9903564453125 211.5 509.5 216.99038696289062 501.7004699707031 219.2428436279297 C 493.7898254394531 217.62322998046875 488.1527404785156 212.28692626953125 486.0645751953125 204.6955108642578 C 488.47479248046875 196.20176696777344 494.39569091796875 190.96641540527344 502.4498291015625 188.5848388671875 C 510.293212890625 190.2613525390625 515.8790893554688 195.65869140625 517.8936157226562 203.1793975830078" stroke-width="0.0" fill="rgb(16, 15, 20)" opacity="0.9942529"/>
    <path d="M 412.1151123046875 263.1252136230469 C 410.4793395996094 271.1162414550781 405.222412109375 276.8026123046875 396.4979553222656 278.632080078125 C 388.6168518066406 276.8852233886719 383.1102600097656 271.38470458984375 381.1639404296875 263.8025817871094 C 384.2845458984375 255.86134338378906 389.9686584472656 250.60360717773438 397.78448486328125 247.2146453857422 C 405.1085205078125 249.24253845214844 410.2454528808594 255.08621215820312 412.1151123046875 263.1252136230469" stroke-width="0.0" fill="rgb(10, 8, 10)" opacity="0.9901653"/>
    <path d="M 460.8021545410156 18.679304122924805 C 458.4444580078125 26.775226593017578 452.6413269042969 32.064266204833984 445.0134582519531 34.00590133666992 C 437.5263977050781 31.980085372924805 432.2099914550781 26.413734436035156 430.5348205566406 18.981565475463867 C 432.40057373046875 11.757925033569336 437.5417785644531 5.7299957275390625 445.3368225097656 3.2823123931884766 C 453.11407470703125 5.360267639160156 458.6747131347656 10.872806549072266 460.8021545410156 18.679304122924805" stroke-width="0.0" fill="rgb(176, 177, 182)" opacity="0.99032146"/>
    <path d="M 475.660888671875 262.39849853515625 C 472.9903869628906 270.5 467.5 275.9903869628906 460.0008239746094 277.99945068359375 C 452.50592041015625 275.9866638183594 447.0269775390625 270.4900817871094 444.1038513183594 262.1708984375 C 446.1091003417969 254.6248779296875 451.6285705566406 249.1175537109375 459.3069152832031 247.09666442871094 C 468.2729187011719 249.21017456054688 473.7813415527344 254.72955322265625 475.660888671875 262.39849853515625" stroke-width="0.0" fill="rgb(7, 6, 12)" opacity="0.99014086"/>
    <path d="M 458.386962890625 61.472652435302734 C 456.24322509765625 68.77500915527344 450.7823791503906 74.2663803100586 443.4180908203125 77.41490173339844 C 436.4457702636719 75.33130645751953 431.39862060546875 69.28398895263672 429.5968322753906 61.922969818115234 C 431.1208801269531 54.3268928527832 436.1910095214844 48.60062026977539 443.51080322265625 47.238616943359375 C 451.061279296875 49.568477630615234 456.7550048828125 54.83230972290039 458.386962890625 61.472652435302734" stroke-width="0.0" fill="rgb(184, 185, 191)" opacity="0.9900406"/>
    <path d="M 535.63232421875 286.52227783203125 C 533.1669311523438 294.60748291015625 527.547607421875 299.9635314941406 520.0723266601562 301.7685241699219 C 512.76806640625 299.7115783691406 507.26397705078125 294.2393493652344 505.09942626953125 286.8996276855469 C 507.0096130371094 279.5000305175781 512.5004272460938 274.0111389160156 520.64013671875 271.26580810546875 C 528.2445678710938 273.221435546875 533.7177734375 278.77740478515625 535.63232421875 286.52227783203125" stroke-width="0.0" fill="rgb(100, 103, 110)" opacity="0.99121034"/>
    <path d="M 506.71917724609375 120.73589324951172 C 504.0159912109375 128.34439086914062 498.1457824707031 133.43411254882812 490.2479553222656 135.4217529296875 C 482.6813659667969 134.82009887695312 477.1499328613281 129.3292236328125 475.0621337890625 120.47647094726562 C 477.13018798828125 112.68441009521484 482.7596740722656 107.35205841064453 490.62469482421875 105.89987182617188 C 498.3266296386719 108.23980712890625 504.2106018066406 113.54439544677734 506.71917724609375 120.73589324951172" stroke-width="0.0" fill="rgb(68, 66, 81)" opacity="0.9902731"/>
    <path d="M 511.6343078613281 190.32696533203125 C 510.334716796875 197.7675323486328 504.71112060546875 203.15420532226562 497.141845703125 204.4697723388672 C 488.815185546875 203.55084228515625 483.2098083496094 198.24847412109375 481.26904296875 190.58103942871094 C 483.4268493652344 181.84527587890625 488.7651672363281 176.1948699951172 496.2585754394531 174.15316772460938 C 504.1984558105469 177.33242797851562 509.6288757324219 182.81307983398438 511.6343078613281 190.32696533203125" stroke-width="0.0" fill="rgb(110, 110, 115)" opacity="1.0"/>
    <path d="M 487.9549560546875 334.75579833984375 C 485.9105224609375 342.4016418457031 480.3985900878906 347.90325927734375 472.7185974121094 349.9425354003906 C 463.6712951660156 347.8460998535156 458.1590576171875 342.32666015625 456.09747314453125 334.3597106933594 C 458.23583984375 325.80853271484375 463.8677978515625 320.3919982910156 471.661376953125 318.3783874511719 C 479.9340515136719 320.7326965332031 485.7887268066406 325.8575744628906 487.9549560546875 334.75579833984375" stroke-width="0.0" fill="rgb(60, 61, 63)" opacity="1.0"/>
    <path d="M 464.75933837890625 384.69970703125 C 462.85626220703125 392.3587341308594 457.3675842285156 397.880859375 448.60443115234375 399.9470520019531 C 440.61798095703125 397.8901062011719 435.0997314453125 392.3864440917969 433.04498291015625 384.658935546875 C 435.1997985839844 375.84228515625 441.05596923828125 370.7608947753906 449.6236572265625 368.2692565917969 C 457.1490173339844 370.25799560546875 462.4136962890625 375.9598693847656 464.75933837890625 384.69970703125" stroke-width="0.0" fill="rgb(46, 47, 50)" opacity="1.0"/>
    <path d="M 548.9358520507812 144.41624450683594 C 546.7362060546875 153.05250549316406 540.6823120117188 157.63980102539062 532.4186401367188 160.3665008544922 C 524.9400024414062 158.6266326904297 519.5040893554688 153.01486206054688 517.6380004882812 145.28094482421875 C 519.9764404296875 137.45553588867188 525.4426879882812 131.93385314941406 533.03857421875 130.247802734375 C 541.1802368164062 131.46800231933594 546.8397216796875 136.72593688964844 548.9358520507812 144.41624450683594" stroke-width="0.0" fill="rgb(113, 114, 121)" opacity="1.0"/>
    <path d="M 522.3153076171875 7.158762454986572 C 520.4890747070312 14.041620254516602 515.0269165039062 19.450477600097656 507.533203125 21.498388290405273 C 500.0809326171875 20.376686096191406 494.40570068359375 14.995389938354492 492.2511901855469 7.200443267822266 C 494.5498962402344 -0.8022056818008423 500.31878662109375 -6.096857070922852 507.9508056640625 -7.994356632232666 C 515.2915649414062 -5.859006881713867 520.5142822265625 -0.17433896660804749 522.3153076171875 7.158762454986572" stroke-width="0.0" fill="rgb(174, 174, 181)" opacity="0.9900744"/>
    <path d="M 558.034912109375 460.7875061035156 C 556.07568359375 467.60455322265625 550.603515625 473.0736999511719 543.6154174804688 475.0370788574219 C 537.3950805664062 473.0773620605469 531.9255981445312 467.60369873046875 529.9619750976562 460.2669982910156 C 531.6790161132812 452.9298400878906 535.709228515625 447.1455993652344 543.0938110351562 446.9368896484375 C 550.6016845703125 448.9299621582031 556.07763671875 454.39495849609375 558.034912109375 460.7875061035156" stroke-width="0.0" fill="rgb(11, 11, 13)" opacity="0.9900056"/>
    <path d="M 568.998291015625 252.99913024902344 C 566.982421875 260.480712890625 561.4431762695312 265.8586730957031 553.8167724609375 268.3314514160156 C 546.4915771484375 266.0155334472656 541.0078735351562 260.5020751953125 539.0081176757812 252.95919799804688 C 540.7772827148438 245.13848876953125 546.0022583007812 239.37294006347656 553.489013671875 237.34295654296875 C 561.499755859375 240.0099334716797 566.989990234375 245.50027465820312 568.998291015625 252.99913024902344" stroke-width="0.0" fill="rgb(211, 212, 219)" opacity="0.99408346"/>
    <path d="M 416.7455139160156 167.34130859375 C 414.7518310546875 175.2327423095703 409.2567443847656 180.80776977539062 401.65289306640625 182.8693084716797 C 393.7247619628906 180.54098510742188 388.8553161621094 173.80735778808594 386.94097900390625 166.21939086914062 C 387.8460388183594 159.17514038085938 393.1347961425781 153.65151977539062 400.9454345703125 151.7787322998047 C 408.943359375 153.66062927246094 414.65740966796875 158.94911193847656 416.7455139160156 167.34130859375" stroke-width="0.0" fill="rgb(20, 21, 24)" opacity="0.99003226"/>
    <path d="M 605.9512329101562 237.13014221191406 C 604.222412109375 244.83706665039062 598.9411010742188 250.54515075683594 591.6668701171875 251.71188354492188 C 584.230224609375 249.22512817382812 578.723388671875 243.78732299804688 576.5162353515625 236.52537536621094 C 578.0096435546875 229.5 583.5 224.00961303710938 590.6372680664062 222.60922241210938 C 598.21630859375 224.35838317871094 603.75927734375 229.7484130859375 605.9512329101562 237.13014221191406" stroke-width="0.0" fill="rgb(227, 226, 233)" opacity="0.99005467"/>
    <path d="M 490.62225341796875 271.0276794433594 C 488.95269775390625 278.50067138671875 483.5198974609375 284.01983642578125 476.0160827636719 286.01617431640625 C 468.5002746582031 283.9896240234375 463.0096435546875 278.49993896484375 461.004150390625 270.9984130859375 C 462.9554443359375 263.35235595703125 468.1201477050781 257.3909606933594 475.6492919921875 255.08534240722656 C 483.8056335449219 257.46368408203125 488.94122314453125 263.4190368652344 490.62225341796875 271.0276794433594" stroke-width="0.0" fill="rgb(29, 29, 34)" opacity="1.0"/>
    <path d="M 542.5769653320312 119.27947235107422 C 541.0838012695312 126.62775421142578 535.6431884765625 132.12867736816406 528.119384765625 133.38279724121094 C 520.538818359375 131.88360595703125 515.0300903320312 126.48698425292969 513.0713500976562 118.95906829833984 C 514.9296875 111.32622528076172 520.12548828125 105.4165267944336 527.537109375 103.17640686035156 C 535.3834838867188 105.81905364990234 540.6285400390625 111.76482391357422 542.5769653320312 119.27947235107422" stroke-width="0.0" fill="rgb(48, 47, 52)" opacity="0.99058884"/>
    <path d="M 535.029052734375 410.9276428222656 C 532.77880859375 418.1328430175781 526.9008178710938 423.2130432128906 520.7595825195312 425.0375061035156 C 513.4072265625 423.0660705566406 507.9314270019531 417.5938415527344 505.964599609375 410.4283142089844 C 507.8955993652344 404.32794189453125 513.2630004882812 398.706787109375 520.373291015625 396.3055114746094 C 527.5562133789062 397.96484375 533.075927734375 403.4314270019531 535.029052734375 410.9276428222656" stroke-width="0.0" fill="rgb(8, 7, 11)" opacity="0.9900073"/>
    <path d="M 514.4612426757812 72.32176971435547 C 512.4486083984375 79.90401458740234 506.9369201660156 85.5306396484375 498.50634765625 87.76642608642578 C 491.013671875 85.69294738769531 486.29107666015625 79.62765502929688 483.3751525878906 71.38042449951172 C 485.27337646484375 63.78874588012695 490.77862548828125 58.2454719543457 498.4671325683594 56.192771911621094 C 506.92138671875 58.48801040649414 512.3016967773438 64.14789581298828 514.4612426757812 72.32176971435547" stroke-width="0.0" fill="rgb(196, 196, 202)" opacity="1.0"/>
    <path d="M 520.0000610351562 378.0001220703125 C 517.9926147460938 385.5070495605469 512.5496826171875 391.1337890625 504.1257019042969 393.9403076171875 C 496.5948791503906 391.91998291015625 491.13031005859375 386.3866882324219 489.268310546875 378.7117614746094 C 492.0110778808594 370.5008850097656 497.50054931640625 365.0099792480469 505.0000915527344 363.00006103515625 C 512.5 365.0096130371094 517.9903564453125 370.5 520.0000610351562 378.0001220703125" stroke-width="0.0" fill="rgb(0, 0, 3)" opacity="1.0"/>
    <path d="M 428.2237243652344 136.29006958007812 C 426.6220397949219 144.21917724609375 421.2996520996094 149.85891723632812 413.8009338378906 151.88426208496094 C 405.5 148.99038696289062 400.0096130371094 143.5 397.8152160644531 135.84548950195312 C 399.6950378417969 128.2273406982422 405.4230041503906 123.38268280029297 413.1636657714844 121.93125915527344 C 420.25970458984375 123.4827880859375 425.9608154296875 128.57046508789062 428.2237243652344 136.29006958007812" stroke-width="0.0" fill="rgb(26, 25, 30)" opacity="0.9917147"/>
    <path d="M 549.1065673828125 262.4468994140625 C 547.2251586914062 269.8728942871094 542.2449951171875 276.5672607421875 534.517578125 278.9111633300781 C 526.7910766601562 276.78887939453125 521.4027709960938 271.1343078613281 519.1640014648438 262.3320007324219 C 521.1575317382812 254.68411254882812 526.7097778320312 249.22959899902344 535.0372924804688 247.1117706298828 C 542.46826171875 249.43162536621094 547.3435668945312 255.98904418945312 549.1065673828125 262.4468994140625" stroke-width="0.0" fill="rgb(91, 93, 105)" opacity="0.99021983"/>
    <path d="M 444.067626953125 420.103759765625 C 442.3496398925781 427.9858703613281 437.1328125 433.7552795410156 428.3310852050781 435.9397888183594 C 420.8421325683594 433.8412780761719 416.844970703125 426.9525451660156 414.9584045410156 419.4126281738281 C 416.5920715332031 411.86444091796875 420.7073974609375 406.1586608886719 428.2801513671875 404.22137451171875 C 436.5 407.0096130371094 441.9903869628906 412.5 444.067626953125 420.103759765625" stroke-width="0.0" fill="rgb(17, 16, 19)" opacity="0.9900594"/>
    <path d="M 551.0405883789062 416.5869445800781 C 549.1109008789062 422.6549987792969 543.67236328125 428.1574401855469 536.1306762695312 431.91357421875 C 528.6372680664062 429.8896484375 523.1890258789062 424.33380126953125 521.293212890625 416.6278076171875 C 523.8306884765625 408.19598388671875 528.9981689453125 402.3205871582031 536.1713256835938 400.3211975097656 C 543.618896484375 403.8937683105469 549.0763549804688 409.3920593261719 551.0405883789062 416.5869445800781" stroke-width="0.0" fill="rgb(24, 24, 26)" opacity="0.9900102"/>
    <path d="M 484.7345275878906 137.3579559326172 C 482.4700622558594 145.9732208251953 477.0216979980469 151.6110076904297 469.1980285644531 153.74195861816406 C 460.90240478515625 151.6985626220703 455.62371826171875 145.98878479003906 453.638427734375 137.81370544433594 C 455.5089111328125 130.00808715820312 460.9967346191406 124.47431182861328 469.6231384277344 122.407958984375 C 477.15380859375 124.27625274658203 482.7235412597656 129.8474578857422 484.7345275878906 137.3579559326172" stroke-width="0.0" fill="rgb(242, 245, 187)" opacity="1.0"/>
    <path d="M 485.7713623046875 62.61874771118164 C 483.6550598144531 69.61404418945312 476.87139892578125 74.1812744140625 469.2550354003906 76.12348175048828 C 462.1150207519531 75.23111724853516 456.3119812011719 70.04423522949219 454.1557312011719 62.6302604675293 C 456.915283203125 54.46753692626953 462.4945983886719 49.007850646972656 469.9999084472656 46.99996566772461 C 477.5 49.009620666503906 482.9903869628906 54.5 485.7713623046875 62.61874771118164" stroke-width="0.0" fill="rgb(31, 31, 34)" opacity="0.99016243"/>
    <path d="M 552.3333740234375 175.5750732421875 C 551.6563110351562 183.011474609375 545.0693969726562 187.18234252929688 537.4451293945312 189.0389862060547 C 530.4239501953125 187.27513122558594 524.3193359375 183.09283447265625 522.4793701171875 175.46986389160156 C 524.9935302734375 167.49354553222656 530.4978637695312 162.00872802734375 537.984130859375 160.00881958007812 C 545.3576049804688 162.0910186767578 550.5722045898438 167.75750732421875 552.3333740234375 175.5750732421875" stroke-width="0.0" fill="rgb(2, 2, 3)" opacity="0.9900371"/>
    <path d="M 474.87884521484375 278.0016174316406 C 472.94952392578125 285.4511413574219 467.39141845703125 290.7633361816406 459.6309509277344 292.70867919921875 C 452.7060241699219 291.06585693359375 447.3445129394531 285.20098876953125 445.20721435546875 277.8350830078125 C 447.0025939941406 270.4878845214844 452.4834899902344 264.98748779296875 459.9812927246094 262.99249267578125 C 467.481201171875 265.0276794433594 472.9562072753906 270.5234680175781 474.87884521484375 278.0016174316406" stroke-width="0.0" fill="rgb(12, 11, 16)" opacity="0.9900761"/>
    <path d="M 447.0 418.0 C 444.9903564453125 425.4999084472656 439.4996032714844 430.9892578125 431.9962158203125 432.9993591308594 C 424.5072326660156 430.9896240234375 419.05755615234375 425.47900390625 417.110595703125 417.8061218261719 C 418.4994812011719 409.8691711425781 423.75238037109375 404.1665954589844 431.1966247558594 402.0991516113281 C 439.5 405.0096130371094 444.9903869628906 410.5 447.0 418.0" stroke-width="0.0" fill="rgb(14, 14, 18)" opacity="1.0"/>
    <path d="M 443.78668212890625 133.2703857421875 C 441.14447021484375 141.7816925048828 435.98760986328125 147.67205810546875 427.3983154296875 149.9261474609375 C 419.8541259765625 147.78187561035156 414.7020263671875 141.96278381347656 413.0961608886719 134.1479949951172 C 415.2628479003906 126.79633331298828 420.8661804199219 121.47665405273438 428.8267517089844 118.1347427368164 C 436.366943359375 120.11891174316406 441.86090087890625 125.64054107666016 443.78668212890625 133.2703857421875" stroke-width="0.0" fill="rgb(14, 13, 21)" opacity="1.0"/>
    <path d="M 430.9532165527344 215.18191528320312 C 428.6100158691406 223.87896728515625 422.6473388671875 229.05259704589844 414.9535217285156 231.04928588867188 C 407.3311767578125 229.1444854736328 401.8435974121094 223.6734619140625 399.1108093261719 215.1600799560547 C 401.0935974121094 207.60337829589844 406.6070556640625 202.1018829345703 414.22235107421875 200.07974243164062 C 423.3536071777344 202.16880798339844 428.9049987792969 207.61907958984375 430.9532165527344 215.18191528320312" stroke-width="0.0" fill="rgb(2, 2, 2)" opacity="0.99020797"/>
    <path d="M 460.95684814453125 207.95529174804688 C 458.9067077636719 216.3957061767578 453.39013671875 221.8928680419922 444.3575134277344 223.94744873046875 C 436.60736083984375 221.9038543701172 431.100341796875 216.3907470703125 429.0433044433594 208.30819702148438 C 431.10479736328125 199.61978149414062 436.62237548828125 194.1105194091797 444.9020080566406 192.04855346679688 C 453.396728515625 194.09886169433594 458.9085388183594 199.60018920898438 460.95684814453125 207.95529174804688" stroke-width="0.0" fill="rgb(7, 7, 11)" opacity="1.0"/>
    <path d="M 460.09716796875 143.6953887939453 C 459.6877746582031 151.2324676513672 454.2459716796875 156.74264526367188 445.4156494140625 158.80760192871094 C 437.6358947753906 156.85960388183594 432.1243896484375 151.36964416503906 430.1919250488281 143.76333618164062 C 432.9587097167969 135.31622314453125 438.0987548828125 129.391357421875 446.5819091796875 127.0820083618164 C 453.87579345703125 129.25180053710938 458.24945068359375 136.02996826171875 460.09716796875 143.6953887939453" stroke-width="0.0" fill="rgb(53, 47, 55)" opacity="0.9900417"/>
    <path d="M 489.52764892578125 186.46412658691406 C 487.71917724609375 194.2246856689453 482.24688720703125 199.78109741210938 473.40655517578125 201.89527893066406 C 465.6390075683594 199.8689727783203 460.1052551269531 194.3721160888672 458.0404357910156 186.64239501953125 C 460.1446838378906 177.71844482421875 465.8222961425781 172.44020080566406 473.80084228515625 170.81593322753906 C 481.7214050292969 172.8500213623047 487.3547668457031 178.21441650390625 489.52764892578125 186.46412658691406" stroke-width="0.0" fill="rgb(27, 27, 29)" opacity="0.99006736"/>
    <path d="M 498.3763427734375 28.537948608398438 C 497.0008544921875 35.515541076660156 491.5220947265625 41.022743225097656 484.0896911621094 42.95534896850586 C 476.7619934082031 40.7645149230957 471.31964111328125 35.21177673339844 469.46490478515625 28.541980743408203 C 471.7753601074219 21.25231170654297 477.26507568359375 15.811431884765625 484.7693786621094 13.523238182067871 C 491.04168701171875 14.707892417907715 496.2745666503906 21.13046646118164 498.3763427734375 28.537948608398438" stroke-width="0.0" fill="rgb(25, 25, 31)" opacity="0.9900271"/>
    <path d="M 481.0063781738281 51.976234436035156 C 478.9703369140625 59.46916961669922 473.4480895996094 64.8995132446289 465.76702880859375 66.84474182128906 C 457.90533447265625 65.49024963378906 452.2160339355469 60.19655227661133 450.0614013671875 51.25324630737305 C 452.09417724609375 43.604305267333984 457.61053466796875 38.10997772216797 465.23907470703125 36.10143280029297 C 473.8654479980469 38.459136962890625 479.10223388671875 44.293617248535156 481.0063781738281 51.976234436035156" stroke-width="0.0" fill="rgb(19, 19, 21)" opacity="0.99064654"/>
    <path d="M 547.05712890625 343.7743835449219 C 545.1243896484375 350.6720275878906 539.7024536132812 356.2159729003906 532.34375 359.1551818847656 C 524.7177734375 357.7455749511719 519.1331176757812 352.3260803222656 517.0555419921875 344.49127197265625 C 519.1716918945312 335.750244140625 524.8513793945312 330.46075439453125 532.3655395507812 329.5977478027344 C 539.6929321289062 331.8133850097656 545.1239013671875 337.3296813964844 547.05712890625 343.7743835449219" stroke-width="0.0" fill="rgb(58, 59, 63)" opacity="0.9900257"/>
    <path d="M 524.9323120117188 101.14947509765625 C 523.075927734375 108.56792449951172 517.5599365234375 114.04875946044922 509.86614990234375 116.35111999511719 C 502.552978515625 114.03950500488281 497.1527099609375 108.39432525634766 495.0086669921875 100.8550796508789 C 496.815185546875 93.32781982421875 502.35748291015625 87.9210433959961 509.81427001953125 86.46243286132812 C 517.2322387695312 88.33233642578125 522.7405395507812 93.74508666992188 524.9323120117188 101.14947509765625" stroke-width="0.0" fill="rgb(66, 66, 75)" opacity="0.9910012"/>
    <path d="M 498.8152160644531 97.5876235961914 C 496.82952880859375 105.43150329589844 491.5440979003906 111.17481231689453 483.2227783203125 113.86447143554688 C 475.6123962402344 111.8867416381836 470.0940246582031 106.3951187133789 468.09307861328125 98.84845733642578 C 471.0096130371094 90.5 476.5 85.0096206665039 484.2883605957031 82.72309875488281 C 492.0872497558594 84.44475555419922 497.6202392578125 89.89273834228516 498.8152160644531 97.5876235961914" stroke-width="0.0" fill="rgb(2, 2, 3)" opacity="0.99304175"/>
    <path d="M 593.4600830078125 227.47247314453125 C 592.2528076171875 236.1719512939453 587.2849731445312 241.8435821533203 579.7422485351562 243.8426971435547 C 571.5189208984375 241.09393310546875 566.450439453125 235.28561401367188 564.9323120117188 228.7101287841797 C 566.8331298828125 221.21975708007812 572.0984497070312 215.4952392578125 579.1848754882812 213.12034606933594 C 586.661376953125 214.9296417236328 592.456787109375 220.20411682128906 593.4600830078125 227.47247314453125" stroke-width="0.0" fill="rgb(42, 41, 44)" opacity="0.9900372"/>
    <path d="M 451.8161926269531 333.65631103515625 C 449.41748046875 341.6946716308594 443.5379333496094 347.0038146972656 435.47454833984375 349.5123291015625 C 427.6888732910156 347.7760925292969 422.1242370605469 342.3455505371094 420.1018981933594 334.8141784667969 C 422.8360595703125 326.35186767578125 428.3587951660156 320.85791015625 436.50927734375 318.3984069824219 C 444.22833251953125 320.2660827636719 449.75335693359375 325.765380859375 451.8161926269531 333.65631103515625" stroke-width="0.0" fill="rgb(38, 40, 44)" opacity="0.9901017"/>
    <path d="M 584.1362915039062 157.4545440673828 C 582.5150756835938 164.19667053222656 577.3297119140625 169.8951873779297 569.9833374023438 171.99014282226562 C 562.5226440429688 169.98114013671875 557.1697387695312 164.43101501464844 554.1412963867188 156.17982482910156 C 556.1080932617188 148.62213134765625 561.6424560546875 143.17369079589844 569.215087890625 142.90711975097656 C 576.7213134765625 144.84384155273438 582.2327270507812 150.2473907470703 584.1362915039062 157.4545440673828" stroke-width="0.0" fill="rgb(55, 56, 61)" opacity="0.9900393"/>
    <path d="M 490.9360656738281 170.26499938964844 C 488.8042907714844 179.20994567871094 483.0738525390625 184.3686065673828 474.9168395996094 185.66583251953125 C 466.9814147949219 184.3521728515625 461.2288818359375 179.16111755371094 459.13177490234375 171.25108337402344 C 461.1750183105469 162.67176818847656 466.6602478027344 157.1427459716797 474.94598388671875 155.0899200439453 C 483.3650207519531 157.13731384277344 488.8980407714844 162.62074279785156 490.9360656738281 170.26499938964844" stroke-width="0.0" fill="rgb(10, 6, 12)" opacity="0.99004644"/>
    <path d="M 448.8462829589844 179.79119873046875 C 446.88861083984375 187.38710021972656 441.39410400390625 192.90631103515625 433.8587951660156 194.91932678222656 C 425.507080078125 191.9864501953125 420.0396423339844 186.4853057861328 417.2897644042969 178.2974395751953 C 419.1377258300781 170.6249542236328 424.610595703125 165.09722900390625 432.1553649902344 163.09190368652344 C 440.5078430175781 165.97909545898438 445.9892578125 171.50096130371094 448.8462829589844 179.79119873046875" stroke-width="0.0" fill="rgb(4, 2, 4)" opacity="1.0"/>
    <path d="M 527.5923461914062 312.9737548828125 C 525.8546752929688 320.4680480957031 520.6627807617188 326.3852844238281 512.1919555664062 328.9242858886719 C 504.61602783203125 326.8940124511719 499.1085510253906 321.38299560546875 497.12005615234375 313.8160400390625 C 500.0160827636719 305.5032043457031 505.5012512207031 300.0093688964844 513.2059936523438 297.5911865234375 C 520.5137329101562 299.8474426269531 525.84814453125 305.5819091796875 527.5923461914062 312.9737548828125" stroke-width="0.0" fill="rgb(21, 21, 29)" opacity="0.9906357"/>
    <path d="M 524.3469848632812 136.00650024414062 C 522.7521362304688 143.31419372558594 517.3369140625 148.82916259765625 509.943115234375 150.91421508789062 C 502.5032043457031 148.98362731933594 497.0105285644531 143.49847412109375 494.3114318847656 135.59912109375 C 497.1988525390625 129.04579162597656 503.1548767089844 123.73500061035156 510.3710021972656 121.8704833984375 C 517.0670166015625 123.571533203125 522.6904907226562 128.84115600585938 524.3469848632812 136.00650024414062" stroke-width="0.0" fill="rgb(252, 252, 172)" opacity="0.99005175"/>
    <path d="M 495.8833312988281 50.793067932128906 C 493.8591613769531 58.33023452758789 488.3099670410156 63.80609893798828 480.6590881347656 65.66292572021484 C 472.8550109863281 62.65312194824219 467.49029541015625 57.098236083984375 465.686279296875 49.77358627319336 C 466.9524841308594 42.203407287597656 472.0529479980469 36.42662048339844 479.9483337402344 34.1805305480957 C 487.8836669921875 36.47425079345703 493.1800231933594 42.23638153076172 495.8833312988281 50.793067932128906" stroke-width="0.0" fill="rgb(84, 84, 92)" opacity="0.9903235"/>
    <path d="M 522.9314575195312 213.38067626953125 C 520.8743286132812 221.36500549316406 515.3741455078125 226.8952178955078 507.70330810546875 228.94947814941406 C 498.6784362792969 226.83619689941406 493.1361083984375 221.33389282226562 491.1097106933594 213.78924560546875 C 493.6412658691406 205.15895080566406 499.1864318847656 199.7401885986328 507.3050842285156 198.0985565185547 C 515.1775512695312 199.40118408203125 520.827392578125 204.74131774902344 522.9314575195312 213.38067626953125" stroke-width="0.0" fill="rgb(38, 37, 41)" opacity="1.0"/>
    <path d="M 449.4907531738281 416.9949645996094 C 447.7244567871094 424.3520202636719 442.6564636230469 430.4671325683594 435.55108642578125 432.7712097167969 C 427.4980773925781 429.9927673339844 422.0068359375 424.5020751953125 420.0042724609375 416.9964904785156 C 421.9543762207031 409.36993408203125 427.1695861816406 403.447509765625 434.383544921875 401.2055969238281 C 442.369873046875 404.12408447265625 447.7378234863281 409.6738586425781 449.4907531738281 416.9949645996094" stroke-width="0.0" fill="rgb(18, 17, 20)" opacity="1.0"/>
    <path d="M 417.6670227050781 145.58914184570312 C 415.7410888671875 153.18016052246094 410.10968017578125 158.5181427001953 402.2122802734375 160.182373046875 C 394.52911376953125 157.9867706298828 389.4610290527344 152.29705810546875 387.95062255859375 145.78970336914062 C 389.9002685546875 138.33969116210938 395.2903747558594 132.76580810546875 402.3300476074219 130.75875854492188 C 409.22625732421875 132.42857360839844 414.8685302734375 137.67298889160156 417.6670227050781 145.58914184570312" stroke-width="0.0" fill="rgb(9, 7, 11)" opacity="0.99004406"/>
    <path d="M 519.4376220703125 40.51029586791992 C 517.4130859375 48.03290557861328 512.132568359375 53.73466110229492 504.8630676269531 56.36589050292969 C 497.7046203613281 54.05992889404297 492.54644775390625 48.117855072021484 490.7402038574219 40.67214584350586 C 492.1216735839844 33.53921890258789 497.5067443847656 28.011863708496094 505.0009460449219 25.999666213989258 C 512.5098876953125 28.004663467407227 518.029052734375 33.48018264770508 519.4376220703125 40.51029586791992" stroke-width="0.0" fill="rgb(182, 182, 191)" opacity="0.99033314"/>
    <path d="M 522.3820190429688 279.71160888671875 C 520.628173828125 287.3233947753906 515.5712890625 293.2943420410156 508.3030700683594 295.4608459472656 C 500.48638916015625 292.96697998046875 494.9297180175781 287.5444030761719 493.2847595214844 280.1676025390625 C 495.2177734375 272.6596984863281 500.6474609375 267.1792907714844 508.07293701171875 265.2600402832031 C 515.4217529296875 267.0829162597656 520.879638671875 272.5900573730469 522.3820190429688 279.71160888671875" stroke-width="0.0" fill="rgb(32, 33, 37)" opacity="0.99047714"/>
    <path d="M 492.1559143066406 88.31732177734375 C 490.16827392578125 95.6937255859375 484.6814270019531 101.13662719726562 477.54229736328125 103.05744171142578 C 470.72711181640625 101.28561401367188 464.3036193847656 97.02284240722656 462.1510009765625 88.75953674316406 C 464.27777099609375 80.8316650390625 469.82568359375 75.26538848876953 477.3653564453125 73.23094940185547 C 485.25921630859375 76.27857971191406 490.9274597167969 81.68696594238281 492.1559143066406 88.31732177734375" stroke-width="0.0" fill="rgb(222, 173, 147)" opacity="0.99002975"/>
    <path d="M 536.9349975585938 393.71966552734375 C 534.847412109375 402.2898254394531 529.2175903320312 407.6366882324219 521.259521484375 409.43212890625 C 514.0423583984375 406.7195739746094 508.79864501953125 400.8141784667969 505.87255859375 393.3305358886719 C 507.8914794921875 386.4621276855469 513.4970092773438 381.0093078613281 521.4442749023438 378.58709716796875 C 529.2756958007812 380.27301025390625 534.8618774414062 385.6779479980469 536.9349975585938 393.71966552734375" stroke-width="0.0" fill="rgb(20, 19, 23)" opacity="0.9900687"/>
    <path d="M 523.0237426757812 372.9501953125 C 520.9918212890625 380.5013122558594 515.5013427734375 385.9919738769531 508.0242919921875 387.9520568847656 C 500.52996826171875 385.9522705078125 495.0455017089844 380.470703125 493.09552001953125 372.99786376953125 C 494.99072265625 365.3804016113281 500.1357727050781 359.3971862792969 508.51654052734375 357.0705261230469 C 516.111328125 359.2340393066406 521.2402954101562 365.0951232910156 523.0237426757812 372.9501953125" stroke-width="0.0" fill="rgb(13, 11, 16)" opacity="1.0"/>
    <path d="M 459.7359619140625 27.686616897583008 C 457.8260803222656 35.32524108886719 452.33978271484375 40.863346099853516 444.7561340332031 42.88418960571289 C 436.5072326660156 40.322505950927734 431.441650390625 34.228660583496094 429.4425964355469 26.776073455810547 C 431.0596008300781 19.456865310668945 436.4180908203125 13.917466163635254 443.864013671875 12.199816703796387 C 451.4010009765625 14.187007904052734 457.02130126953125 19.536052703857422 459.7359619140625 27.686616897583008" stroke-width="0.0" fill="rgb(185, 184, 192)" opacity="1.0"/>
    <path d="M 519.280029296875 35.3148193359375 C 516.9685668945312 42.454872131347656 511.4462585449219 47.93503952026367 503.97064208984375 49.98285675048828 C 496.51251220703125 48.00446701049805 491.1605529785156 42.43585968017578 489.51416015625 34.85785675048828 C 490.4947204589844 26.943180084228516 495.90948486328125 21.38127899169922 503.47039794921875 19.752532958984375 C 511.0458068847656 22.512161254882812 516.5487670898438 27.933856964111328 519.280029296875 35.3148193359375" stroke-width="0.0" fill="rgb(179, 178, 187)" opacity="0.99016786"/>
    <path d="M 583.1468505859375 165.77847290039062 C 581.3858642578125 173.17379760742188 576.8981323242188 179.6978759765625 569.2796630859375 181.91261291503906 C 560.9490966796875 179.7056427001953 556.0426025390625 173.82882690429688 554.6002807617188 166.00094604492188 C 556.2265014648438 158.61798095703125 561.5661010742188 153.06265258789062 569.03759765625 151.0411376953125 C 576.4860229492188 152.9788360595703 581.6138916015625 158.661376953125 583.1468505859375 165.77847290039062" stroke-width="0.0" fill="rgb(58, 58, 64)" opacity="0.9900569"/>
  </g>
</svg>
