<?xml version="1.0" ?>
<svg xmlns="http://www.w3.org/2000/svg" version="1.1" width="600" height="600">
  <defs/>
  <g>
    <path d="M 87.99999237060547 48.999969482421875 C 85.98982238769531 56.49828338623047 80.48969268798828 61.959190368652344 73.10577392578125 63.68452835083008 C 65.8077392578125 61.674034118652344 60.30292510986328 56.198394775390625 57.818572998046875 49.06943893432617 C 60.28937530517578 41.715675354003906 65.71855163574219 36.301971435546875 73.25910186767578 34.45929718017578 C 80.5 36.009620666503906 85.9903793334961 41.5 87.99999237060547 48.999969482421875" stroke-width="0.0" fill="rgb(191, 196, 208)" opacity="0.99013734"/>
    <path d="M 141.55380249023438 37.05942916870117 C 139.52769470214844 44.056610107421875 134.0600128173828 49.538082122802734 126.75641632080078 51.701866149902344 C 119.5 49.990379333496094 114.0096206665039 44.5 111.47618865966797 36.57099533081055 C 113.39070892333984 28.959606170654297 119.02544403076172 23.595075607299805 126.83323669433594 21.823657989501953 C 134.3975067138672 24.06674575805664 139.69720458984375 29.67709732055664 141.55380249023438 37.05942916870117" stroke-width="0.0" fill="rgb(187, 192, 205)" opacity="0.9901445"/>
    <path d="M 163.0 329.0 C 160.99038696289062 336.5 155.5 341.9903869628906 147.4677734375 344.5970153808594 C 139.82350158691406 342.72064208984375 134.4450225830078 337.1251525878906 132.21109008789062 328.35137939453125 C 134.1929473876953 320.740478515625 139.79379272460938 315.35479736328125 147.65399169921875 313.6880798339844 C 155.5 316.0096130371094 160.99038696289062 321.5 163.0 329.0" stroke-width="0.0" fill="rgb(23, 28, 40)" opacity="0.9902779"/>
    <path d="M 122.0 412.0 C 119.9903793334961 419.5 114.5 424.9903869628906 106.8287582397461 427.1121826171875 C 98.85858154296875 425.49835205078125 93.14344024658203 420.2706604003906 91.05305480957031 412.7630615234375 C 93.41602325439453 404.1459655761719 99.36505889892578 398.9528503417969 106.99391174316406 396.9975891113281 C 114.5 399.0096130371094 119.9903793334961 404.5 122.0 412.0" stroke-width="0.0" fill="rgb(29, 17, 10)" opacity="1.0"/>
    <path d="M 101.0 107.0 C 98.9903793334961 114.5 93.5 119.9903793334961 86.0 122.0 C 78.5 119.9903793334961 73.0096206665039 114.5 70.87869262695312 106.86077880859375 C 72.69554138183594 99.2376937866211 78.27952575683594 93.83068084716797 85.94451904296875 91.95448303222656 C 93.5 94.0096206665039 98.9903793334961 99.5 101.0 107.0" stroke-width="0.0" fill="rgb(217, 219, 233)" opacity="0.99197954"/>
    <path d="M 239.11004638671875 247.7307891845703 C 237.99038696289062 254.5 232.5 259.9903869628906 225.0 262.0 C 217.5 259.9903869628906 212.00961303710938 254.5 209.15589904785156 246.20556640625 C 211.10723876953125 238.60824584960938 216.6071319580078 233.10421752929688 224.1969451904297 231.14781188964844 C 232.34996032714844 234.0757293701172 237.3711395263672 239.87953186035156 239.11004638671875 247.7307891845703" stroke-width="0.0" fill="rgb(15, 16, 18)" opacity="0.9909306"/>
    <path d="M 202.6771240234375 290.3357849121094 C 199.99038696289062 298.5 194.5 303.9903869628906 187.0 306.0 C 179.5 303.9903869628906 174.00961303710938 298.5 171.95144653320312 290.91656494140625 C 173.6757049560547 283.01617431640625 178.84527587890625 277.21673583984375 187.76309204101562 275.0499267578125 C 195.38877868652344 277.09332275390625 200.84762573242188 282.63232421875 202.6771240234375 290.3357849121094" stroke-width="0.0" fill="rgb(8, 14, 22)" opacity="1.0"/>
    <path d="M 90.0 220.0 C 87.9903793334961 227.5 82.5 232.99038696289062 75.0 235.0 C 67.5 232.99038696289062 62.009620666503906 227.5 60.0 220.0 C 62.009620666503906 212.5 67.5 207.00961303710938 75.0 205.0 C 82.5 207.00961303710938 87.9903793334961 212.5 90.0 220.0" stroke-width="0.0" fill="rgb(187, 152, 12)" opacity="1.0"/>
    <path d="M 103.92466735839844 379.4183654785156 C 101.71271514892578 388.0475158691406 95.90010070800781 393.4072570800781 88.06024169921875 395.8759460449219 C 81.34029388427734 392.2139587402344 75.92192840576172 386.62152099609375 73.96969604492188 379.76739501953125 C 75.93304443359375 373.40142822265625 81.3768081665039 367.84271240234375 88.84967803955078 364.05694580078125 C 96.37468719482422 366.10302734375 101.8705825805664 371.6369323730469 103.92466735839844 379.4183654785156" stroke-width="0.0" fill="rgb(2, 2, 2)" opacity="0.9900109"/>
    <path d="M 16.0 218.0 C 13.990381240844727 225.5 8.5 230.99038696289062 1.0 233.0 C -6.5 230.99038696289062 -11.990381240844727 225.5 -14.0 218.0 C -11.990381240844727 210.5 -6.5 205.00961303710938 1.0 203.0 C 8.5 205.00961303710938 13.990381240844727 210.5 16.0 218.0" stroke-width="0.0" fill="rgb(189, 195, 207)" opacity="1.0"/>
    <path d="M 156.96310424804688 253.45079040527344 C 154.91343688964844 261.4008483886719 149.3930206298828 266.8946228027344 141.59747314453125 268.92755126953125 C 132.73443603515625 266.823486328125 127.3537826538086 261.20306396484375 125.65583801269531 253.3580322265625 C 128.00961303710938 245.5 133.5 240.00961303710938 141.729736328125 237.23098754882812 C 149.37454223632812 239.13162231445312 154.90211486816406 244.61285400390625 156.96310424804688 253.45079040527344" stroke-width="0.0" fill="rgb(10, 16, 23)" opacity="1.0"/>
    <path d="M 123.89325714111328 116.71245574951172 C 121.35799407958984 123.8216781616211 115.77867126464844 129.21884155273438 108.19833374023438 131.8248291015625 C 100.90819549560547 130.74366760253906 95.65750885009766 124.91666412353516 93.53924560546875 117.17198944091797 C 95.62350463867188 108.98108673095703 100.83869934082031 103.22515869140625 108.28458404541016 101.1618881225586 C 116.5 104.0096206665039 121.9903793334961 109.5 123.89325714111328 116.71245574951172" stroke-width="0.0" fill="rgb(72, 83, 82)" opacity="0.99004865"/>
    <path d="M 78.6964340209961 164.38540649414062 C 75.9903793334961 172.5 70.5 177.99038696289062 63.0 180.0 C 55.5 177.99038696289062 50.009620666503906 172.5 47.212581634521484 164.26502990722656 C 49.13982391357422 156.6514434814453 54.65945053100586 151.16064453125 62.456085205078125 149.13998413085938 C 71.232421875 151.25686645507812 76.77326202392578 156.7557373046875 78.6964340209961 164.38540649414062" stroke-width="0.0" fill="rgb(13, 15, 23)" opacity="0.9900746"/>
    <path d="M 91.76051330566406 220.6837921142578 C 89.8241195678711 228.32423400878906 84.33435821533203 233.85125732421875 76.73844909667969 235.8105926513672 C 68.5 232.99038696289062 63.009620666503906 227.5 61.0 220.0 C 63.009620666503906 212.5 68.5 207.00961303710938 75.99463653564453 205.00413513183594 C 83.48603820800781 207.02635192871094 89.04306030273438 212.49378967285156 91.76051330566406 220.6837921142578" stroke-width="0.0" fill="rgb(174, 135, 4)" opacity="0.99164355"/>
    <path d="M 89.67135620117188 208.22705078125 C 86.24736022949219 215.78924560546875 80.80249786376953 221.28720092773438 73.53628540039062 223.4954071044922 C 66.5 221.99038696289062 61.009620666503906 216.5 59.0 209.0 C 61.009620666503906 201.5 66.5 196.00961303710938 74.14958190917969 193.89837646484375 C 82.06967163085938 195.55970764160156 87.77657318115234 200.81617736816406 89.67135620117188 208.22705078125" stroke-width="0.0" fill="rgb(33, 20, 20)" opacity="0.99006313"/>
    <path d="M 112.88668823242188 327.6832275390625 C 110.78884887695312 336.2875061035156 105.31301879882812 341.8513488769531 96.31531524658203 343.9501953125 C 88.60346221923828 341.91021728515625 83.12805938720703 336.3823547363281 81.23419189453125 328.7305908203125 C 84.0096206665039 320.5 89.5 315.0096130371094 97.44944763183594 312.49481201171875 C 105.18898010253906 314.3228759765625 110.79058837890625 319.7677001953125 112.88668823242188 327.6832275390625" stroke-width="0.0" fill="rgb(37, 41, 51)" opacity="0.99009544"/>
    <path d="M 76.0 189.0 C 73.9903793334961 196.5 68.5 201.99038696289062 61.0 204.0 C 53.5 201.99038696289062 48.009620666503906 196.5 46.0 189.0 C 48.009620666503906 181.5 53.5 176.00961303710938 61.0 174.0 C 68.5 176.00961303710938 73.9903793334961 181.5 76.0 189.0" stroke-width="0.0" fill="rgb(0, 0, 0)" opacity="1.0"/>
    <path d="M 97.72357940673828 138.4722137451172 C 94.75834655761719 146.26510620117188 89.23294067382812 151.6479034423828 81.4457015991211 154.447021484375 C 74.28002166748047 152.29063415527344 68.6978759765625 146.731201171875 66.51229858398438 139.09510803222656 C 68.72651672363281 131.29051208496094 74.33673095703125 125.87447357177734 82.00165557861328 123.9360122680664 C 89.8100814819336 125.81094360351562 95.62092590332031 131.03428649902344 97.72357940673828 138.4722137451172" stroke-width="0.0" fill="rgb(252, 252, 196)" opacity="1.0"/>
    <path d="M 162.0321807861328 438.42413330078125 C 160.0652313232422 445.5939025878906 154.59523010253906 451.06817626953125 147.22964477539062 453.0361633300781 C 141.20635986328125 451.173583984375 135.4617462158203 445.92474365234375 133.1020965576172 438.85089111328125 C 135.01632690429688 431.51849365234375 140.58749389648438 426.2320861816406 148.669677734375 423.3313293457031 C 154.70635986328125 426.5879821777344 160.0887908935547 432.3589172363281 162.0321807861328 438.42413330078125" stroke-width="0.0" fill="rgb(3, 2, 4)" opacity="0.99000615"/>
    <path d="M 100.71125793457031 29.35906410217285 C 98.68474578857422 37.17808532714844 93.19001770019531 42.716426849365234 85.51836395263672 44.58913803100586 C 77.48304748535156 42.019588470458984 72.11323547363281 36.47625732421875 70.01612091064453 28.990747451782227 C 72.21763610839844 21.69282341003418 77.69083404541016 16.20292854309082 85.34148406982422 13.596307754516602 C 92.97127532958984 15.47586441040039 98.50613403320312 21.035572052001953 100.71125793457031 29.35906410217285" stroke-width="0.0" fill="rgb(196, 206, 218)" opacity="1.0"/>
    <path d="M 104.00144958496094 319.3738708496094 C 101.58998107910156 327.2010192871094 96.28350830078125 332.8605041503906 88.23076629638672 335.819580078125 C 80.60810852050781 333.88690185546875 75.08808898925781 328.40130615234375 73.04558563232422 320.3669128417969 C 75.09568786621094 311.59942626953125 80.59182739257812 306.0785827636719 88.24117279052734 304.03350830078125 C 97.34805297851562 306.1175231933594 102.78860473632812 311.68719482421875 104.00144958496094 319.3738708496094" stroke-width="0.0" fill="rgb(2, 2, 2)" opacity="0.99052626"/>
    <path d="M 30.928300857543945 257.1286926269531 C 28.21672821044922 265.8798522949219 23.084327697753906 271.7440490722656 15.732568740844727 273.88714599609375 C 8.297882080078125 270.2118225097656 2.835092544555664 264.6892395019531 0.7020653486251831 257.3507995605469 C 2.0092124938964844 250.49864196777344 7.485010147094727 244.96067810058594 15.818952560424805 242.09730529785156 C 23.393030166625977 244.10462951660156 28.91323471069336 249.5994873046875 30.928300857543945 257.1286926269531" stroke-width="0.0" fill="rgb(18, 22, 32)" opacity="0.9900327"/>
    <path d="M 94.63319396972656 116.76103973388672 C 92.7392349243164 124.73026275634766 87.97673034667969 130.6214599609375 80.53057098388672 131.66415405273438 C 72.60653686523438 129.74508666992188 67.51638793945312 124.25912475585938 65.87953186035156 117.45640563964844 C 67.7634506225586 110.19538116455078 73.16898345947266 104.69103240966797 80.45609283447266 102.52284240722656 C 87.5 104.0096206665039 92.9903793334961 109.5 94.63319396972656 116.76103973388672" stroke-width="0.0" fill="rgb(99, 106, 136)" opacity="0.9900441"/>
    <path d="M 130.0 353.0 C 127.9903793334961 360.5 122.5 365.9903869628906 114.62531280517578 368.3208923339844 C 106.73932647705078 366.6890563964844 101.12946319580078 361.3228454589844 99.056640625 353.22833251953125 C 101.14071655273438 344.6933288574219 106.75941467285156 339.3316955566406 114.64400482177734 337.6906433105469 C 122.5 340.0096130371094 127.9903793334961 345.5 130.0 353.0" stroke-width="0.0" fill="rgb(15, 17, 24)" opacity="0.9920817"/>
    <path d="M 65.00198364257812 208.99740600585938 C 62.990379333496094 216.5 57.5 221.99038696289062 49.26611328125 224.7548828125 C 41.609352111816406 222.87850952148438 36.088985443115234 217.40203857421875 34.095882415771484 209.8443145751953 C 36.67910385131836 201.2225799560547 42.26476287841797 195.81634521484375 49.94179153442383 193.91893005371094 C 57.5163459777832 195.98826599121094 63.00022888183594 201.4871063232422 65.00198364257812 208.99740600585938" stroke-width="0.0" fill="rgb(0, 0, 0)" opacity="1.0"/>
    <path d="M 172.0 365.0 C 169.99038696289062 372.5 164.5 377.9903869628906 157.0 380.0 C 149.5 377.9903869628906 144.00961303710938 372.5 141.46920776367188 364.5483093261719 C 143.35841369628906 356.9215087890625 148.98878479003906 351.5728454589844 156.8343505859375 349.8708190917969 C 164.5 352.0096130371094 169.99038696289062 357.5 172.0 365.0" stroke-width="0.0" fill="rgb(0, 0, 0)" opacity="1.0"/>
    <path d="M 144.62933349609375 86.21002197265625 C 143.15208435058594 93.76998138427734 137.84356689453125 99.40558624267578 130.23130798339844 101.27919006347656 C 122.5 98.9903793334961 117.0096206665039 93.5 115.0 86.0 C 117.0096206665039 78.5 122.5 73.0096206665039 130.0076904296875 70.98223876953125 C 137.4158477783203 73.02912139892578 142.68612670898438 78.67618560791016 144.62933349609375 86.21002197265625" stroke-width="0.0" fill="rgb(193, 196, 211)" opacity="1.0"/>
    <path d="M 129.55477905273438 442.5647888183594 C 127.80169677734375 450.3369445800781 122.37327575683594 455.9024658203125 114.88565063476562 457.9358825683594 C 107.36259460449219 454.1219482421875 101.8492431640625 448.6457824707031 99.50981140136719 441.4036865234375 C 101.0096206665039 434.5 106.5 429.0096130371094 114.0 427.0 C 121.5 429.0096130371094 126.9903793334961 434.5 129.55477905273438 442.5647888183594" stroke-width="0.0" fill="rgb(2, 2, 2)" opacity="0.990063"/>
    <path d="M 158.93618774414062 185.8748321533203 C 156.91831970214844 193.41024780273438 151.407470703125 198.91172790527344 143.8551483154297 200.91250610351562 C 135.1142120361328 198.2198944091797 129.24041748046875 193.09921264648438 127.05293273925781 184.30979919433594 C 129.1053009033203 176.6338348388672 134.67140197753906 171.2158966064453 142.47999572753906 169.5157928466797 C 150.50094604492188 172.00933837890625 156.03280639648438 177.48728942871094 158.93618774414062 185.8748321533203" stroke-width="0.0" fill="rgb(0, 0, 2)" opacity="1.0"/>
    <path d="M 149.93466186523438 114.38809967041016 C 147.84715270996094 122.2752914428711 142.1763458251953 127.55907440185547 134.02200317382812 129.30006408691406 C 126.00177764892578 127.463134765625 120.55001831054688 121.99701690673828 119.28321838378906 113.89169311523438 C 120.94267272949219 106.47478485107422 126.4921646118164 101.0024185180664 134.83737182617188 98.08544158935547 C 142.354248046875 100.12013244628906 147.85731506347656 105.65576171875 149.93466186523438 114.38809967041016" stroke-width="0.0" fill="rgb(13, 20, 32)" opacity="0.9900453"/>
    <path d="M 106.87879180908203 246.78370666503906 C 104.79353332519531 255.2925567626953 99.3120346069336 260.84368896484375 91.44486999511719 262.9170837402344 C 82.6886978149414 260.8266296386719 77.1587905883789 255.3172607421875 75.07654571533203 246.57713317871094 C 77.12451934814453 238.62828063964844 82.61865234375 233.10142517089844 90.18911743164062 231.05889892578125 C 98.98029327392578 233.4403076171875 104.70710754394531 238.93878173828125 106.87879180908203 246.78370666503906" stroke-width="0.0" fill="rgb(62, 69, 79)" opacity="1.0"/>
    <path d="M 147.9027557373047 237.29974365234375 C 145.28721618652344 245.61898803710938 139.5177001953125 250.98875427246094 131.99586486816406 252.99305725097656 C 124.5 250.99038696289062 119.0096206665039 245.5 117.03195190429688 238.0105743408203 C 119.0149154663086 230.501708984375 124.50028228759766 225.00970458984375 132.10423278808594 222.93418884277344 C 140.01263427734375 224.63682556152344 145.78907775878906 229.83053588867188 147.9027557373047 237.29974365234375" stroke-width="0.0" fill="rgb(12, 23, 33)" opacity="1.0"/>
    <path d="M 64.73485565185547 259.52459716796875 C 62.51104736328125 266.8031921386719 56.626461029052734 272.0455322265625 49.006526947021484 274.0026550292969 C 41.5 271.9903869628906 36.009620666503906 266.5 33.142860412597656 258.2058410644531 C 35.12202072143555 250.65354919433594 40.69660949707031 245.25485229492188 48.551151275634766 243.605712890625 C 56.5 246.00961303710938 61.990379333496094 251.5 64.73485565185547 259.52459716796875" stroke-width="0.0" fill="rgb(0, 0, 0)" opacity="1.0"/>
    <path d="M 119.84693908691406 428.4485168457031 C 117.48100280761719 436.9317321777344 111.98783111572266 442.6119689941406 103.6693115234375 444.88665771484375 C 95.7532958984375 442.75823974609375 90.16917419433594 437.2784118652344 88.06707763671875 429.5859069824219 C 90.2021255493164 420.765625 95.84976196289062 415.48895263671875 103.99275970458984 414.3410949707031 C 111.73419952392578 415.8855285644531 117.63457489013672 421.061767578125 119.84693908691406 428.4485168457031" stroke-width="0.0" fill="rgb(142, 109, 38)" opacity="1.0"/>
    <path d="M 243.03094482421875 254.2622833251953 C 241.05746459960938 261.5830993652344 235.5849609375 267.0617370605469 228.21949768066406 269.0361022949219 C 222.0797882080078 267.22607421875 216.20516967773438 262.15411376953125 214.02049255371094 254.9713897705078 C 216.03477478027344 247.5380859375 221.55776977539062 242.10020446777344 228.74557495117188 240.2864990234375 C 235.79454040527344 242.62828063964844 241.11788940429688 248.2962188720703 243.03094482421875 254.2622833251953" stroke-width="0.0" fill="rgb(2, 2, 2)" opacity="0.9900099"/>
    <path d="M 59.0 280.0 C 56.99037170410156 287.4999694824219 51.49824142456055 292.9840087890625 44.8786735534668 294.0566101074219 C 37.3863525390625 292.07525634765625 31.876028060913086 286.6319885253906 29.71843910217285 279.30523681640625 C 31.009618759155273 272.5 36.5 267.0096130371094 44.0 265.0 C 51.5 267.0096130371094 56.990379333496094 272.5 59.0 280.0" stroke-width="0.0" fill="rgb(3, 3, 3)" opacity="0.99003464"/>
    <path d="M 139.4595947265625 73.58686065673828 C 136.94764709472656 81.4719467163086 131.47787475585938 86.9684066772461 123.96814727783203 89.0079345703125 C 116.38600158691406 87.0771484375 110.81591033935547 81.64674377441406 108.86457061767578 74.0988540649414 C 111.0096206665039 66.5 116.5 61.009620666503906 124.07061004638672 58.94584655761719 C 131.8123779296875 60.772212982177734 137.51492309570312 66.09281921386719 139.4595947265625 73.58686065673828" stroke-width="0.0" fill="rgb(198, 208, 222)" opacity="0.9965078"/>
    <path d="M 69.9070053100586 250.82423400878906 C 67.75347900390625 259.1455993652344 62.025856018066406 264.4208068847656 54.15644454956055 266.1248779296875 C 46.50326919555664 263.98895263671875 41.0305061340332 258.49114990234375 38.09001541137695 250.1475372314453 C 40.09235763549805 242.59991455078125 45.59964370727539 237.0917205810547 53.24582290649414 235.0522918701172 C 62.242671966552734 237.20770263671875 67.78719329833984 242.7589569091797 69.9070053100586 250.82423400878906" stroke-width="0.0" fill="rgb(19, 23, 29)" opacity="0.990133"/>
    <path d="M 124.95109558105469 166.19680786132812 C 122.71797180175781 175.04336547851562 116.83087921142578 180.18003845214844 108.98863220214844 182.0390167236328 C 101.09911346435547 180.22930908203125 95.22634887695312 175.1170654296875 93.0592269897461 166.5013427734375 C 95.15363311767578 158.72854614257812 100.83110046386719 153.44761657714844 109.43243408203125 151.48141479492188 C 117.33517456054688 153.2153778076172 122.90740966796875 158.62246704101562 124.95109558105469 166.19680786132812" stroke-width="0.0" fill="rgb(4, 4, 14)" opacity="1.0"/>
    <path d="M 166.04002380371094 394.2444152832031 C 164.07940673828125 401.60693359375 158.6149139404297 407.1029968261719 151.10763549804688 410.9254455566406 C 143.62155151367188 408.9000549316406 138.1669921875 403.3544006347656 136.3569793701172 395.6352233886719 C 139.00961303710938 387.5 144.5 382.0096130371094 152.61802673339844 379.3337707519531 C 160.22434997558594 381.21563720703125 164.33958435058594 387.0113220214844 166.04002380371094 394.2444152832031" stroke-width="0.0" fill="rgb(4, 7, 12)" opacity="0.99001664"/>
    <path d="M 90.0 187.0 C 87.9903793334961 194.5 82.5 199.99038696289062 75.00001525878906 202.0 C 67.5008316040039 199.9901123046875 62.02458190917969 194.49508666992188 60.174041748046875 186.991455078125 C 62.02136993408203 179.50389099121094 67.50069427490234 174.0098419189453 75.00001525878906 172.0 C 82.5 174.00961303710938 87.9903793334961 179.5 90.0 187.0" stroke-width="0.0" fill="rgb(21, 24, 33)" opacity="0.9966626"/>
    <path d="M 134.7430419921875 364.4134216308594 C 131.99038696289062 372.5 126.5 377.9903869628906 118.65487670898438 380.30633544921875 C 110.78237915039062 378.6502990722656 105.15641784667969 373.2855529785156 103.06431579589844 365.68994140625 C 105.41494750976562 357.1396789550781 111.35467529296875 351.9469909667969 119.03514099121094 349.97540283203125 C 126.83660888671875 351.8042907714844 132.6620330810547 356.9937438964844 134.7430419921875 364.4134216308594" stroke-width="0.0" fill="rgb(9, 10, 13)" opacity="0.9903068"/>
    <path d="M 183.9590606689453 320.39459228515625 C 181.86265563964844 329.2948913574219 176.19894409179688 334.587890625 168.2512664794922 336.18792724609375 C 160.49876403808594 333.9901428222656 154.99575805664062 328.50531005859375 152.97323608398438 321.01190185546875 C 155.00961303710938 313.5 160.5 308.0096130371094 168.79417419433594 305.1544189453125 C 176.3860626220703 307.10943603515625 181.9014129638672 312.60986328125 183.9590606689453 320.39459228515625" stroke-width="0.0" fill="rgb(1, 2, 2)" opacity="0.9911086"/>
    <path d="M 130.11167907714844 47.27437973022461 C 128.2008819580078 54.828128814697266 122.96257019042969 60.5788459777832 115.56859588623047 63.28355407714844 C 107.74132537841797 61.690181732177734 102.13069152832031 56.32068634033203 100.08535766601562 48.836219787597656 C 103.01399230957031 40.5012321472168 108.50005340576172 35.00963592529297 116.0 33.0 C 123.49971008300781 35.009700775146484 128.96401977539062 40.507511138916016 130.11167907714844 47.27437973022461" stroke-width="0.0" fill="rgb(8, 24, 29)" opacity="0.99113894"/>
    <path d="M 72.70347595214844 219.27732849121094 C 70.9903793334961 226.5 65.5 231.99038696289062 57.278358459472656 234.77389526367188 C 49.64559555053711 232.8565673828125 44.13359832763672 227.35784912109375 43.782135009765625 219.8517608642578 C 45.83558654785156 212.29281616210938 51.29182815551758 206.8330841064453 58.48871994018555 204.916015625 C 64.92724609375 206.67405700683594 70.46723937988281 212.02276611328125 72.70347595214844 219.27732849121094" stroke-width="0.0" fill="rgb(200, 169, 73)" opacity="0.9900198"/>
    <path d="M 145.91343688964844 287.25567626953125 C 143.4283447265625 295.7247314453125 137.57443237304688 301.01995849609375 129.62071228027344 303.6021423339844 C 122.2948226928711 301.3774108886719 116.97393035888672 295.5824279785156 114.9981918334961 288.00433349609375 C 117.0096206665039 280.5 122.5 275.0096130371094 130.64056396484375 272.3127746582031 C 138.3181915283203 274.1845397949219 143.85897827148438 279.6657409667969 145.91343688964844 287.25567626953125" stroke-width="0.0" fill="rgb(48, 58, 77)" opacity="0.9911916"/>
    <path d="M 136.8498077392578 274.24896240234375 C 133.9645538330078 282.4820861816406 128.48365783691406 287.9711608886719 120.99259948730469 289.99151611328125 C 113.5 287.9903869628906 108.0096206665039 282.5 105.82168579101562 274.80035400390625 C 107.55059814453125 267.0041198730469 112.97077178955078 261.4415283203125 121.40855407714844 259.33538818359375 C 129.2706756591797 261.2397155761719 134.8296356201172 266.7042541503906 136.8498077392578 274.24896240234375" stroke-width="0.0" fill="rgb(81, 92, 116)" opacity="1.0"/>
    <path d="M 136.842529296875 343.736328125 C 134.81007385253906 351.2337951660156 129.1396484375 356.5336608886719 121.21897888183594 358.1661682128906 C 113.498291015625 355.99114990234375 107.99811553955078 350.5047607421875 105.16921997070312 342.2980041503906 C 107.2323989868164 334.8371276855469 112.96096801757812 329.5827941894531 120.85693359375 327.89788818359375 C 128.5 330.0096130371094 133.99038696289062 335.5 136.842529296875 343.736328125" stroke-width="0.0" fill="rgb(20, 22, 31)" opacity="0.99142313"/>
    <path d="M 206.9476318359375 236.65191650390625 C 204.9031219482422 244.39498901367188 199.395751953125 249.90476989746094 191.62335205078125 251.9525146484375 C 182.81617736816406 249.80470275878906 177.64715576171875 244.01539611816406 175.94578552246094 236.0933837890625 C 178.00961303710938 228.5 183.5 223.00961303710938 191.1422576904297 220.90789794921875 C 199.0921173095703 222.55517578125 204.8284454345703 227.7696533203125 206.9476318359375 236.65191650390625" stroke-width="0.0" fill="rgb(0, 0, 0)" opacity="1.0"/>
    <path d="M 181.80763244628906 218.2527618408203 C 178.99038696289062 226.5 173.5 231.99038696289062 165.20468139648438 234.84829711914062 C 157.61859130859375 232.8894805908203 152.13363647460938 227.37327575683594 150.2400665283203 219.7232666015625 C 153.00961303710938 211.5 158.5 206.00961303710938 166.49302673339844 203.5389404296875 C 174.30348205566406 205.2384033203125 179.8594207763672 210.66505432128906 181.80763244628906 218.2527618408203" stroke-width="0.0" fill="rgb(0, 0, 0)" opacity="1.0"/>
    <path d="M 105.03526306152344 184.95819091796875 C 103.08010864257812 192.68104553222656 97.87460327148438 198.57931518554688 90.27739715576172 200.87428283691406 C 82.150634765625 198.5552978515625 76.93458557128906 192.66104125976562 74.98863983154297 184.99417114257812 C 76.90005493164062 177.27789306640625 82.05375671386719 171.34716796875 90.21293640136719 169.07879638671875 C 98.08963775634766 171.25885009765625 103.24363708496094 177.0993194580078 105.03526306152344 184.95819091796875" stroke-width="0.0" fill="rgb(15, 17, 32)" opacity="0.9900815"/>
    <path d="M 193.9516143798828 174.66424560546875 C 191.9041748046875 182.39537048339844 186.39720153808594 187.9081268310547 177.38949584960938 189.96144104003906 C 169.58604431152344 187.92239379882812 164.09539794921875 182.4069366455078 162.05856323242188 173.60101318359375 C 164.09619140625 165.60874938964844 169.6159210205078 160.11343383789062 177.3358917236328 158.08453369140625 C 186.3334197998047 160.1670684814453 191.871826171875 165.6513671875 193.9516143798828 174.66424560546875" stroke-width="0.0" fill="rgb(9, 11, 15)" opacity="0.99012417"/>
    <path d="M 91.35034942626953 274.6180419921875 C 89.05677032470703 282.65704345703125 83.90287780761719 288.6355285644531 75.74571990966797 290.9352722167969 C 67.91910552978516 288.7447509765625 62.789066314697266 282.870849609375 60.11420822143555 274.2018127441406 C 62.136837005615234 266.6610107421875 67.66925811767578 261.1565856933594 76.16889953613281 259.1047058105469 C 84.28997802734375 261.1658935546875 89.68152618408203 266.7608947753906 91.35034942626953 274.6180419921875" stroke-width="0.0" fill="rgb(5, 5, 8)" opacity="0.99005055"/>
    <path d="M 50.000003814697266 270.0 C 47.990386962890625 277.5 42.50000762939453 282.9903869628906 34.231101989746094 285.7993469238281 C 26.60143280029297 283.8909912109375 21.089218139648438 278.405517578125 19.100330352783203 270.84600830078125 C 21.797571182250977 262.12347412109375 26.913372039794922 256.25244140625 34.251991271972656 254.12088012695312 C 42.49977111816406 257.01043701171875 47.990379333496094 262.5 50.000003814697266 270.0" stroke-width="0.0" fill="rgb(2, 2, 2)" opacity="0.99172"/>
    <path d="M 104.11837005615234 279.8345642089844 C 101.9903793334961 287.5 96.5 292.9903869628906 88.1491470336914 295.9160461425781 C 80.64073944091797 293.89483642578125 75.24170684814453 288.3117370605469 73.56281280517578 280.4776611328125 C 75.99359130859375 272.4267578125 81.26514434814453 266.5572204589844 89.7158203125 264.0993347167969 C 97.20549011230469 266.1990661621094 102.4617691040039 271.9145202636719 104.11837005615234 279.8345642089844" stroke-width="0.0" fill="rgb(2, 2, 2)" opacity="0.9907756"/>
    <path d="M 169.0 346.0 C 166.99038696289062 353.5 161.5 358.9903869628906 153.42599487304688 361.56427001953125 C 145.66168212890625 359.80596923828125 140.10205078125 354.3709411621094 138.0473175048828 346.74737548828125 C 140.2070770263672 337.8504638671875 146.06137084960938 332.7610778808594 153.96231079101562 330.9842834472656 C 161.5 333.0096130371094 166.99038696289062 338.5 169.0 346.0" stroke-width="0.0" fill="rgb(2, 2, 3)" opacity="0.9902644"/>
    <path d="M 15.11356258392334 248.4783935546875 C 14.34108829498291 256.1370849609375 9.242891311645508 261.8069763183594 1.720623254776001 263.8341979980469 C -6.502506256103516 260.9986877441406 -11.990460395812988 255.50025939941406 -14.000000953674316 248.0 C -11.990381240844727 240.5 -6.5 235.00961303710938 0.982181191444397 233.0087432861328 C 8.292876243591309 235.1182098388672 13.389215469360352 240.89588928222656 15.11356258392334 248.4783935546875" stroke-width="0.0" fill="rgb(192, 198, 210)" opacity="0.99023217"/>
    <path d="M 133.1419677734375 96.81826782226562 C 132.33978271484375 103.56656646728516 126.35903930664062 108.76154327392578 118.60155487060547 111.10699462890625 C 110.8421859741211 109.5836181640625 105.1629409790039 104.255859375 103.05018615722656 95.80399322509766 C 105.19225311279297 87.85276794433594 111.1343994140625 82.90103149414062 118.37753295898438 80.8547592163086 C 125.66483306884766 83.84857940673828 131.11895751953125 89.3461685180664 133.1419677734375 96.81826782226562" stroke-width="0.0" fill="rgb(3, 2, 5)" opacity="0.9900285"/>
    <path d="M 146.51541137695312 224.90855407714844 C 143.39129638671875 231.79893493652344 137.73692321777344 237.1708526611328 130.54888916015625 239.08602905273438 C 124.1754150390625 237.23890686035156 118.58499908447266 231.88514709472656 115.52369689941406 224.4248504638672 C 117.32740020751953 216.8795928955078 122.93363952636719 211.49847412109375 130.77459716796875 209.80419921875 C 138.5050048828125 212.00775146484375 144.03970336914062 217.4813690185547 146.51541137695312 224.90855407714844" stroke-width="0.0" fill="rgb(240, 198, 44)" opacity="0.9900213"/>
    <path d="M 121.01036834716797 278.9781494140625 C 118.9903793334961 286.5 113.5 291.9903869628906 106.0 294.0 C 98.5 291.9903869628906 93.0096206665039 286.5 91.11310577392578 278.8730773925781 C 92.46109008789062 270.8078308105469 97.71134185791016 265.147216796875 105.3932113647461 263.0692443847656 C 113.98283386230469 265.32208251953125 119.12784576416016 271.2383728027344 121.01036834716797 278.9781494140625" stroke-width="0.0" fill="rgb(69, 79, 101)" opacity="1.0"/>
    <path d="M 138.9984588623047 378.00262451171875 C 136.99038696289062 385.5 131.5 390.9903869628906 123.15801239013672 393.91156005859375 C 115.6169662475586 391.893798828125 110.1004638671875 386.3856201171875 108.06193542480469 378.8059387207031 C 110.3943099975586 370.08477783203125 116.2677230834961 364.8694152832031 123.93765258789062 363.0384826660156 C 131.46412658691406 365.0693359375 136.97744750976562 370.5218811035156 138.9984588623047 378.00262451171875" stroke-width="0.0" fill="rgb(46, 51, 62)" opacity="1.0"/>
    <path d="M 150.9518585205078 131.60154724121094 C 148.89732360839844 139.3826904296875 143.37623596191406 144.88185119628906 134.76258850097656 146.94337463378906 C 126.66297912597656 144.8653106689453 121.15973663330078 139.32632446289062 119.67108917236328 131.7877197265625 C 122.22528839111328 123.13141632080078 126.9765396118164 117.40953826904297 134.5504913330078 116.47502136230469 C 143.14108276367188 117.61463165283203 148.846435546875 122.73109436035156 150.9518585205078 131.60154724121094" stroke-width="0.0" fill="rgb(67, 80, 108)" opacity="1.0"/>
    <path d="M 82.7264175415039 227.2222137451172 C 80.79398345947266 235.32418823242188 75.3580551147461 240.88815307617188 67.8086929321289 242.9242706298828 C 58.8889045715332 240.6150665283203 53.301517486572266 235.1437530517578 51.22971725463867 227.4082794189453 C 53.543182373046875 219.0771026611328 59.05879592895508 213.49407958984375 67.51478576660156 211.19070434570312 C 75.23698425292969 213.23020935058594 80.71064758300781 218.78404235839844 82.7264175415039 227.2222137451172" stroke-width="0.0" fill="rgb(170, 142, 46)" opacity="1.0"/>
    <path d="M 249.05142211914062 230.46849060058594 C 247.12034606933594 236.6593475341797 241.67263793945312 242.15750122070312 234.36273193359375 245.2176055908203 C 227.3556671142578 243.08779907226562 221.3740692138672 237.88584899902344 219.06546020507812 229.3148193359375 C 221.12014770507812 221.62794494628906 226.62681579589844 216.1175994873047 234.12718200683594 214.39013671875 C 241.65789794921875 217.86756896972656 247.10653686523438 223.35250854492188 249.05142211914062 230.46849060058594" stroke-width="0.0" fill="rgb(47, 54, 65)" opacity="0.9900129"/>
    <path d="M 197.99864196777344 230.99920654296875 C 195.98899841308594 238.49928283691406 190.49978637695312 243.99072265625 183.0003204345703 246.00064086914062 C 175.5 243.99038696289062 170.00961303710938 238.5 168.00039672851562 231.0002899169922 C 170.0103302001953 223.50062561035156 175.5006103515625 218.01025390625 183.00022888183594 216.00027465820312 C 190.5 218.00961303710938 195.99038696289062 223.5 197.99864196777344 230.99920654296875" stroke-width="0.0" fill="rgb(0, 0, 4)" opacity="0.99971503"/>
    <path d="M 173.829833984375 309.3007507324219 C 170.98098754882812 317.4924011230469 165.49465942382812 322.9891052246094 158.0037078857422 325.06927490234375 C 150.5262908935547 322.970947265625 145.04063415527344 317.470458984375 142.9890899658203 309.9468078613281 C 144.78782653808594 302.1299743652344 149.92689514160156 296.2646179199219 157.4661407470703 294.09075927734375 C 166.01084899902344 296.47320556640625 171.7534942626953 301.8774108886719 173.829833984375 309.3007507324219" stroke-width="0.0" fill="rgb(3, 4, 10)" opacity="1.0"/>
    <path d="M 191.93618774414062 140.89784240722656 C 189.8559112548828 149.34051513671875 184.34011840820312 154.8545684814453 176.764404296875 156.82608032226562 C 168.50381469726562 153.97549438476562 163.00950622558594 148.50022888183594 161.0 141.00001525878906 C 163.00961303710938 133.5 168.5 128.00961303710938 176.0584259033203 125.97308349609375 C 183.96475219726562 127.71731567382812 189.79786682128906 132.83848571777344 191.93618774414062 140.89784240722656" stroke-width="0.0" fill="rgb(28, 39, 56)" opacity="0.99074715"/>
    <path d="M 104.94035339355469 91.85203552246094 C 102.89932250976562 99.36217498779297 97.30921936035156 104.74492645263672 89.50066375732422 106.3192367553711 C 82.06729888916016 103.52082061767578 76.80934143066406 97.81205749511719 74.95930480957031 91.32654571533203 C 76.8476333618164 84.22393035888672 82.02865600585938 78.01892852783203 88.73773193359375 75.54114532470703 C 96.55562591552734 77.98756408691406 102.35307312011719 83.32524871826172 104.94035339355469 91.85203552246094" stroke-width="0.0" fill="rgb(2, 3, 3)" opacity="0.9900164"/>
    <path d="M 124.6983871459961 201.31454467773438 C 121.80765533447266 209.3047637939453 116.29100036621094 214.76226806640625 108.90068054199219 216.8871307373047 C 101.5 214.99038696289062 96.0096206665039 209.5 93.97560119628906 201.98619079589844 C 95.99383544921875 194.51161193847656 101.5370864868164 189.07815551757812 109.70923614501953 186.26222229003906 C 117.35501861572266 188.14488220214844 122.84564971923828 193.64805603027344 124.6983871459961 201.31454467773438" stroke-width="0.0" fill="rgb(37, 44, 69)" opacity="1.0"/>
    <path d="M 64.85295104980469 266.65985107421875 C 62.79066467285156 274.1921081542969 57.070106506347656 279.44537353515625 49.15567398071289 281.1130065917969 C 41.49980545043945 278.9913024902344 36.0101432800293 273.4997863769531 33.99870681762695 265.9971618652344 C 35.99813461303711 258.48187255859375 41.46949005126953 252.95616149902344 48.856624603271484 251.039794921875 C 56.332401275634766 253.2466583251953 62.383697509765625 258.4342346191406 64.85295104980469 266.65985107421875" stroke-width="0.0" fill="rgb(2, 2, 6)" opacity="0.9901904"/>
    <path d="M 225.9115447998047 190.54067993164062 C 223.84341430664062 198.28973388671875 218.22674560546875 203.66175842285156 209.89596557617188 205.50965881347656 C 201.71942138671875 203.71170043945312 196.11048889160156 198.3435821533203 194.05343627929688 190.7972412109375 C 196.4086151123047 182.1371307373047 202.35812377929688 176.94940185546875 210.03347778320312 174.9772186279297 C 217.84901428222656 176.8030242919922 223.7140655517578 181.9519805908203 225.9115447998047 190.54067993164062" stroke-width="0.0" fill="rgb(6, 6, 30)" opacity="0.9901441"/>
    <path d="M 87.57791137695312 196.545654296875 C 85.51214599609375 203.75552368164062 79.41667175292969 208.70204162597656 71.63818359375 210.9500732421875 C 64.39154052734375 209.31300354003906 59.44776916503906 203.3018798828125 57.77419662475586 196.10804748535156 C 59.554351806640625 188.93971252441406 64.86367797851562 183.32559204101562 71.98224639892578 181.2180633544922 C 79.1542739868164 183.3325653076172 84.5550308227539 188.88104248046875 87.57791137695312 196.545654296875" stroke-width="0.0" fill="rgb(72, 75, 97)" opacity="0.9900697"/>
    <path d="M 118.76276397705078 399.2676696777344 C 115.9903793334961 407.5 110.5 412.9903869628906 102.63365936279297 415.3704528808594 C 94.7506103515625 413.66888427734375 89.12661743164062 408.3205261230469 87.04580688476562 400.6526794433594 C 89.22482299804688 391.8819580078125 95.08467864990234 386.68603515625 103.83775329589844 384.073974609375 C 111.39510345458984 386.0931396484375 116.87379455566406 391.6168518066406 118.76276397705078 399.2676696777344" stroke-width="0.0" fill="rgb(25, 25, 32)" opacity="1.0"/>
    <path d="M 116.70250701904297 210.74655151367188 C 115.54114532470703 217.8791046142578 109.73357391357422 223.13209533691406 101.93389892578125 225.09620666503906 C 94.20491027832031 223.24880981445312 88.51313781738281 217.87472534179688 86.31319427490234 210.40721130371094 C 88.41422271728516 201.9952850341797 94.26044464111328 197.49844360351562 101.3553466796875 195.93060302734375 C 108.69286346435547 197.85560607910156 114.17176818847656 203.29653930664062 116.70250701904297 210.74655151367188" stroke-width="0.0" fill="rgb(252, 238, 69)" opacity="0.990018"/>
    <path d="M 190.41000366210938 239.45884704589844 C 188.74752807617188 247.30258178710938 183.34962463378906 252.8856201171875 174.912109375 254.9566192626953 C 166.61154174804688 252.8998260498047 161.1022186279297 247.38748168945312 159.0494842529297 239.70594787597656 C 161.20050048828125 230.82806396484375 167.0075225830078 225.67855834960938 174.92239379882812 223.96646118164062 C 182.49899291992188 226.01095581054688 187.98773193359375 231.5013885498047 190.41000366210938 239.45884704589844" stroke-width="0.0" fill="rgb(0, 2, 8)" opacity="1.0"/>
    <path d="M 164.9395294189453 174.4120330810547 C 162.89149475097656 182.36044311523438 157.31932067871094 187.7704315185547 149.4969024658203 189.4605712890625 C 141.49925231933594 186.9906005859375 135.97698974609375 181.5097198486328 133.07530212402344 173.14297485351562 C 135.09222412109375 165.60508728027344 140.60903930664062 160.1011199951172 148.8946533203125 158.0479278564453 C 157.3927001953125 160.0970916748047 162.8929443359375 165.61126708984375 164.9395294189453 174.4120330810547" stroke-width="0.0" fill="rgb(2, 2, 2)" opacity="0.99113715"/>
    <path d="M 188.1758575439453 289.8411560058594 C 186.296630859375 297.9645690917969 181.15371704101562 303.7902526855469 173.71788024902344 305.9202880859375 C 164.94766235351562 303.529052734375 159.18675231933594 298.19122314453125 157.045166015625 289.28717041015625 C 159.09317016601562 281.6030578613281 164.60414123535156 276.095703125 172.51605224609375 274.04290771484375 C 181.27964782714844 276.14251708984375 186.5413360595703 281.8328552246094 188.1758575439453 289.8411560058594" stroke-width="0.0" fill="rgb(3, 6, 14)" opacity="1.0"/>
    <path d="M 180.0 339.0 C 177.99038696289062 346.5 172.5 351.9903869628906 164.9998321533203 354.0003356933594 C 157.50001525878906 351.9905700683594 152.00897216796875 346.5000915527344 149.9800262451172 338.9908447265625 C 151.98428344726562 331.47613525390625 157.47560119628906 325.982421875 164.9884033203125 323.9860534667969 C 172.4999237060547 326.00982666015625 177.99037170410156 331.5000305175781 180.0 339.0" stroke-width="0.0" fill="rgb(3, 3, 7)" opacity="0.9977521"/>
    <path d="M 228.04200744628906 296.00274658203125 C 226.08714294433594 302.6195983886719 220.62208557128906 308.0927734375 213.39048767089844 310.04443359375 C 207.16616821289062 308.1890869140625 201.35931396484375 303.0025939941406 198.62124633789062 295.52154541015625 C 200.2539825439453 287.69378662109375 205.64268493652344 282.1054992675781 213.13929748535156 280.05963134765625 C 220.6503143310547 283.8285827636719 226.0902099609375 289.3738098144531 228.04200744628906 296.00274658203125" stroke-width="0.0" fill="rgb(26, 34, 44)" opacity="0.9900089"/>
    <path d="M 184.0599365234375 339.1103820800781 C 182.0899658203125 346.66729736328125 176.80601501464844 353.1600036621094 170.48617553710938 355.6875915527344 C 162.50445556640625 352.9864807128906 157.0157928466797 347.4948425292969 155.01348876953125 340.0052795410156 C 157.02731323242188 332.5141296386719 162.51185607910156 327.01971435546875 170.49957275390625 324.5224304199219 C 178.298095703125 326.2398986816406 183.84909057617188 331.67327880859375 184.0599365234375 339.1103820800781" stroke-width="0.0" fill="rgb(2, 2, 2)" opacity="0.99007505"/>
    <path d="M 130.09190368652344 47.76716232299805 C 128.78358459472656 54.3876953125 123.4405517578125 59.953514099121094 115.9906234741211 61.996116638183594 C 108.49722290039062 59.993934631347656 103.01518249511719 54.50021743774414 100.17094421386719 46.28226089477539 C 102.21795654296875 38.78569793701172 107.81866455078125 33.29091262817383 115.15501403808594 32.79774475097656 C 122.66289520263672 34.87726593017578 128.13092041015625 40.33362579345703 130.09190368652344 47.76716232299805" stroke-width="0.0" fill="rgb(3, 18, 22)" opacity="0.9901571"/>
    <path d="M 140.3325958251953 10.569981575012207 C 138.3961181640625 17.984737396240234 133.02980041503906 23.531347274780273 125.7516860961914 25.797130584716797 C 118.42601013183594 24.084514617919922 112.96331787109375 18.559499740600586 110.9843978881836 11.006674766540527 C 112.99150848388672 3.481877088546753 118.48207092285156 -2.007838726043701 125.99718475341797 -4.024085521697998 C 133.41265869140625 -1.9539507627487183 138.79237365722656 3.636413097381592 140.3325958251953 10.569981575012207" stroke-width="0.0" fill="rgb(182, 188, 200)" opacity="0.9901225"/>
    <path d="M 212.3407745361328 298.4759216308594 C 210.22584533691406 305.7073669433594 204.66136169433594 311.1016540527344 197.2052001953125 313.0465393066406 C 190.665771484375 311.53173828125 184.96156311035156 306.54315185546875 182.99114990234375 299.0142517089844 C 185.00961303710938 291.5 190.5 286.0096130371094 198.738525390625 283.13275146484375 C 206.11309814453125 285.23919677734375 211.23599243164062 291.08270263671875 212.3407745361328 298.4759216308594" stroke-width="0.0" fill="rgb(16, 23, 31)" opacity="0.9900361"/>
    <path d="M 177.77137756347656 213.2703399658203 C 174.9906768798828 221.500244140625 169.5001983642578 226.9905548095703 161.5735321044922 229.40255737304688 C 153.7578582763672 227.70361328125 148.20449829101562 222.27108764648438 146.17347717285156 213.5907440185547 C 148.12997436523438 205.61148071289062 153.59246826171875 200.07763671875 161.35858154296875 198.03196716308594 C 170.38973999023438 200.09291076660156 175.86773681640625 205.6254425048828 177.77137756347656 213.2703399658203" stroke-width="0.0" fill="rgb(2, 2, 0)" opacity="1.0"/>
    <path d="M 172.90945434570312 367.9879150390625 C 171.28213500976562 376.0519104003906 166.23846435546875 381.8453674316406 158.8191375732422 383.9083557128906 C 150.4998321533203 380.99078369140625 145.00958251953125 375.50006103515625 143.0000457763672 368.00006103515625 C 145.00978088378906 360.50018310546875 150.50018310546875 355.009765625 158.0 352.9998474121094 C 165.5 355.0096130371094 170.99038696289062 360.5 172.90945434570312 367.9879150390625" stroke-width="0.0" fill="rgb(0, 0, 1)" opacity="1.0"/>
    <path d="M 206.63674926757812 296.78466796875 C 204.67034912109375 304.2272033691406 199.23472595214844 309.69464111328125 191.1566925048828 312.90081787109375 C 183.61769104003906 310.89666748046875 178.13607788085938 305.3702087402344 176.23731994628906 297.7216796875 C 179.0076446533203 289.4990234375 184.49951171875 284.0093994140625 192.00018310546875 282.00048828125 C 199.49932861328125 284.009521484375 204.98565673828125 289.5020751953125 206.63674926757812 296.78466796875" stroke-width="0.0" fill="rgb(11, 17, 25)" opacity="1.0"/>
    <path d="M 18.0 223.0 C 15.990381240844727 230.5 10.5 235.99038696289062 3.0 238.0 C -4.5 235.99038696289062 -9.990381240844727 230.5 -12.0 223.0 C -9.990381240844727 215.5 -4.5 210.00961303710938 3.0 208.0 C 10.5 210.00961303710938 15.990381240844727 215.5 18.0 223.0" stroke-width="0.0" fill="rgb(189, 197, 208)" opacity="1.0"/>
    <path d="M 187.04124450683594 132.86557006835938 C 185.54405212402344 139.2274932861328 180.326171875 144.8211669921875 172.9337921142578 146.9283447265625 C 165.4761199951172 144.99867248535156 159.74888610839844 139.6068878173828 157.0630340576172 131.1499481201172 C 159.1057891845703 123.6402816772461 164.69131469726562 118.27615356445312 172.11697387695312 117.95909118652344 C 179.58709716796875 119.9390869140625 185.0614013671875 125.4127197265625 187.04124450683594 132.86557006835938" stroke-width="0.0" fill="rgb(3, 3, 8)" opacity="0.99001575"/>
    <path d="M 95.95381927490234 51.695430755615234 C 93.9017562866211 59.38304138183594 88.37479400634766 64.88320922851562 80.86289978027344 66.77959442138672 C 73.24694061279297 63.21904373168945 67.83483123779297 57.73061752319336 65.94703674316406 51.595863342285156 C 67.89989471435547 44.364986419677734 73.36196899414062 38.892757415771484 80.8571548461914 36.8365364074707 C 88.2530288696289 37.236202239990234 93.83914947509766 42.71345901489258 95.95381927490234 51.695430755615234" stroke-width="0.0" fill="rgb(35, 41, 58)" opacity="0.9900153"/>
    <path d="M 132.06607055664062 64.49497985839844 C 130.11752319335938 71.66304016113281 124.70196533203125 77.2598876953125 118.68647003173828 80.65631866455078 C 110.97161865234375 77.34590148925781 105.1932144165039 72.19720458984375 102.5641860961914 64.66963195800781 C 104.56204223632812 57.17066192626953 110.26419067382812 51.85041427612305 117.5710220336914 50.44723129272461 C 124.79009246826172 52.69470977783203 130.18299865722656 58.25208282470703 132.06607055664062 64.49497985839844" stroke-width="0.0" fill="rgb(7, 7, 7)" opacity="0.99001205"/>
    <path d="M 31.524784088134766 220.278076171875 C 29.505361557006836 227.94403076171875 23.894161224365234 233.35073852539062 16.152667999267578 235.16087341308594 C 8.5 232.99038696289062 3.0096189975738525 227.5 1.0 220.0 C 3.0096189975738525 212.5 8.5 207.00961303710938 15.997051239013672 205.00155639648438 C 23.480525970458984 207.0229949951172 29.06859016418457 212.49412536621094 31.524784088134766 220.278076171875" stroke-width="0.0" fill="rgb(201, 211, 222)" opacity="1.0"/>
    <path d="M 157.04739379882812 304.56146240234375 C 154.8428955078125 312.4093322753906 149.44517517089844 317.9619140625 141.26182556152344 320.8043518066406 C 133.64837646484375 318.8578796386719 128.12847900390625 313.356689453125 126.08905792236328 305.76275634765625 C 128.6183319091797 297.3131103515625 134.45108032226562 292.0042724609375 142.77493286132812 289.14031982421875 C 150.3076629638672 291.1485595703125 155.69979858398438 296.7438049316406 157.04739379882812 304.56146240234375" stroke-width="0.0" fill="rgb(36, 46, 61)" opacity="1.0"/>
    <path d="M 128.0 283.0 C 125.9903793334961 290.5 120.5 295.9903869628906 113.0 298.0 C 105.5 295.9903869628906 100.0096206665039 290.5 98.02509307861328 283.02569580078125 C 100.08443450927734 275.5766296386719 105.57826232910156 270.0898742675781 113.02893829345703 268.0297546386719 C 120.5 270.0096130371094 125.9903793334961 275.5 128.0 283.0" stroke-width="0.0" fill="rgb(108, 122, 139)" opacity="1.0"/>
    <path d="M 151.76583862304688 387.9684143066406 C 149.88333129882812 395.4605712890625 144.63055419921875 401.34967041015625 136.1763458251953 403.92083740234375 C 128.61041259765625 401.90234375 123.13651275634766 396.3757019042969 121.24451446533203 388.7066650390625 C 123.98091125488281 380.49346923828125 129.50210571289062 375.0117492675781 137.00015258789062 373.00006103515625 C 144.49472045898438 375.0119323730469 149.95497131347656 380.5148010253906 151.76583862304688 387.9684143066406" stroke-width="0.0" fill="rgb(23, 27, 37)" opacity="1.0"/>
    <path d="M 207.81246948242188 220.72706604003906 C 205.82943725585938 228.2730712890625 200.20074462890625 233.6073455810547 192.2786102294922 235.2209930419922 C 184.49807739257812 232.99365234375 179.00852966308594 227.5012664794922 176.20770263671875 219.24159240722656 C 178.11598205566406 211.61053466796875 183.60220336914062 206.09292602539062 191.20858764648438 204.05897521972656 C 199.947021484375 206.3426513671875 205.09249877929688 212.28453063964844 207.81246948242188 220.72706604003906" stroke-width="0.0" fill="rgb(4, 2, 2)" opacity="0.9902456"/>
    <path d="M 134.5975341796875 251.10940551757812 C 133.22166442871094 258.8240051269531 127.87870788574219 264.41522216796875 119.4082260131836 266.7030334472656 C 111.68539428710938 264.813720703125 106.1700210571289 259.3199157714844 104.15969848632812 251.59002685546875 C 106.37273406982422 242.97744750976562 112.07940673828125 237.6741943359375 120.01172637939453 235.6348419189453 C 127.58238220214844 237.8452911376953 132.9176483154297 243.4893035888672 134.5975341796875 251.10940551757812" stroke-width="0.0" fill="rgb(57, 67, 94)" opacity="0.997151"/>
    <path d="M 22.803157806396484 231.65438842773438 C 20.776334762573242 239.20703125 15.134516716003418 244.56668090820312 7.281408309936523 246.26629638671875 C -0.4996527135372162 243.98965454101562 -5.990287780761719 238.4998321533203 -7.999989032745361 230.99998474121094 C -5.990381240844727 223.5 -0.5 218.00961303710938 7.000616073608398 215.99974060058594 C 14.513100624084473 218.00425720214844 20.09031105041504 223.4588165283203 22.803157806396484 231.65438842773438" stroke-width="0.0" fill="rgb(190, 198, 206)" opacity="1.0"/>
    <path d="M 86.89093017578125 172.18460083007812 C 84.01387023925781 180.5556182861328 78.61475372314453 186.20065307617188 71.0718994140625 188.41949462890625 C 63.415199279785156 186.1385040283203 57.98108673095703 180.5482940673828 55.99577331542969 173.0045623779297 C 58.001068115234375 165.48199462890625 63.456783294677734 159.91636657714844 71.72764587402344 157.2021026611328 C 79.36184692382812 159.1359405517578 84.88232421875 164.63148498535156 86.89093017578125 172.18460083007812" stroke-width="0.0" fill="rgb(40, 42, 58)" opacity="1.0"/>
    <path d="M 132.7974395751953 278.00335693359375 C 130.91200256347656 285.45062255859375 125.46711730957031 290.9674072265625 117.9942855834961 292.9957580566406 C 110.5 290.9903869628906 105.0096206665039 285.5 103.0 278.0 C 105.00962829589844 270.5000305175781 110.50048065185547 265.0113220214844 118.04307556152344 262.9974670410156 C 125.474365234375 264.9945983886719 130.9041748046875 270.5547180175781 132.7974395751953 278.00335693359375" stroke-width="0.0" fill="rgb(92, 105, 130)" opacity="0.9956779"/>
    <path d="M 114.01226043701172 287.0196838378906 C 112.12977600097656 294.7632751464844 106.97978973388672 300.6728515625 98.30760955810547 302.9264831542969 C 90.64146423339844 300.8819274902344 85.2079849243164 295.32904052734375 84.42733764648438 287.5982971191406 C 86.42143249511719 279.8244934082031 91.75377655029297 274.1839294433594 99.13056182861328 271.54254150390625 C 106.58524322509766 273.83917236328125 112.0091323852539 279.4616394042969 114.01226043701172 287.0196838378906" stroke-width="0.0" fill="rgb(57, 60, 72)" opacity="1.0"/>
    <path d="M 72.5147933959961 170.71368408203125 C 70.51119232177734 178.09228515625 65.13233184814453 183.63375854492188 57.829933166503906 185.82684326171875 C 50.49148941040039 184.00595092773438 45.00975799560547 178.50401306152344 42.14562225341797 170.21336364746094 C 44.130279541015625 162.6575927734375 49.68844985961914 157.22113037109375 57.444786071777344 155.65782165527344 C 65.3896713256836 158.1874542236328 70.94538879394531 163.56886291503906 72.5147933959961 170.71368408203125" stroke-width="0.0" fill="rgb(4, 3, 4)" opacity="0.99012357"/>
    <path d="M 223.14111328125 182.69503784179688 C 222.26513671875 189.84674072265625 216.96658325195312 195.59889221191406 209.49688720703125 197.6346435546875 C 201.2329559326172 194.9428253173828 195.23403930664062 190.07794189453125 193.04782104492188 181.28518676757812 C 195.1060028076172 173.62208557128906 200.627197265625 168.1180877685547 208.1511688232422 166.14291381835938 C 215.77017211914062 169.75112915039062 221.18807983398438 175.252685546875 223.14111328125 182.69503784179688" stroke-width="0.0" fill="rgb(80, 94, 118)" opacity="0.9901567"/>
    <path d="M 24.000625610351562 209.99842834472656 C 21.990381240844727 217.5 16.5 222.99038696289062 9.0 225.0 C 1.5 222.99038696289062 -3.9903810024261475 217.5 -6.017346382141113 209.97442626953125 C -4.097048759460449 202.3394012451172 1.2492995262145996 196.62890625 8.8676176071167 194.36622619628906 C 16.60068130493164 196.7888641357422 22.004541397094727 202.46514892578125 24.000625610351562 209.99842834472656" stroke-width="0.0" fill="rgb(186, 194, 207)" opacity="0.9954678"/>
    <path d="M 180.16506958007812 146.23178100585938 C 178.5870819091797 154.17288208007812 173.25299072265625 159.82046508789062 164.29518127441406 161.94837951660156 C 156.61517333984375 159.897216796875 151.10531616210938 154.38377380371094 149.04286193847656 145.4744110107422 C 151.0904541015625 137.6044464111328 156.62095642089844 132.13731384277344 164.27658081054688 130.62838745117188 C 172.21884155273438 133.41616821289062 177.94857788085938 138.6695098876953 180.16506958007812 146.23178100585938" stroke-width="0.0" fill="rgb(57, 65, 83)" opacity="1.0"/>
    <path d="M 148.7448272705078 430.6136169433594 C 146.2084503173828 438.6010437011719 140.53684997558594 444.0063171386719 132.9990692138672 446.0021667480469 C 125.44813537597656 444.01318359375 119.73443603515625 438.63458251953125 117.45787811279297 430.7965393066406 C 119.33824157714844 422.8609313964844 124.85700225830078 417.3227844238281 133.58697509765625 415.1181945800781 C 141.2212677001953 417.20465087890625 146.64297485351562 422.84130859375 148.7448272705078 430.6136169433594" stroke-width="0.0" fill="rgb(64, 44, 18)" opacity="0.9900422"/>
    <path d="M 38.081974029541016 202.36419677734375 C 36.26102828979492 210.0096435546875 31.538516998291016 216.4217529296875 24.335906982421875 218.55267333984375 C 16.492780685424805 216.0123748779297 11.012374877929688 210.50025939941406 8.977079391479492 202.95144653320312 C 10.860326766967773 195.31190490722656 16.245344161987305 189.65281677246094 23.783096313476562 187.5218963623047 C 31.487821578979492 190.00225830078125 36.73201370239258 195.59884643554688 38.081974029541016 202.36419677734375" stroke-width="0.0" fill="rgb(193, 197, 212)" opacity="1.0"/>
    <path d="M 103.73300170898438 108.26783752441406 C 100.67858123779297 116.39088439941406 95.62519836425781 122.29993438720703 88.14954376220703 124.36214447021484 C 80.47942352294922 122.08959197998047 75.1605453491211 116.44088745117188 73.5184326171875 109.05352020263672 C 74.83415985107422 100.99915313720703 79.8316650390625 95.2239990234375 87.25667572021484 93.31236267089844 C 96.0302734375 96.11625671386719 101.80441284179688 100.78939819335938 103.73300170898438 108.26783752441406" stroke-width="0.0" fill="rgb(93, 97, 111)" opacity="1.0"/>
    <path d="M 180.0532989501953 362.4698181152344 C 178.10130310058594 369.6356201171875 172.64076232910156 375.1143798828125 165.23878479003906 377.14813232421875 C 158.6400604248047 375.7831115722656 153.08067321777344 370.4018859863281 151.33444213867188 363.1829528808594 C 153.2937774658203 355.72271728515625 158.67726135253906 350.140625 165.75108337402344 348.35552978515625 C 172.87547302246094 350.5362854003906 178.16087341308594 356.23394775390625 180.0532989501953 362.4698181152344" stroke-width="0.0" fill="rgb(44, 49, 59)" opacity="0.99002576"/>
    <path d="M 130.52691650390625 293.3479309082031 C 129.6331024169922 301.2210998535156 124.28582000732422 306.83642578125 116.5138168334961 308.9053955078125 C 107.75255584716797 306.7841796875 102.30726623535156 301.216796875 100.97076416015625 293.46990966796875 C 103.17552947998047 285.5990905761719 108.56079864501953 280.0500793457031 116.00689697265625 278.0082702636719 C 123.46495056152344 280.02691650390625 128.82366943359375 285.5810852050781 130.52691650390625 293.3479309082031" stroke-width="0.0" fill="rgb(98, 110, 129)" opacity="1.0"/>
    <path d="M 145.34263610839844 205.59719848632812 C 143.99038696289062 212.5 138.5 217.99038696289062 130.8632354736328 220.1077880859375 C 123.04700469970703 218.37075805664062 117.40828704833984 213.02291870117188 116.8687744140625 205.72853088378906 C 118.67681121826172 197.50225830078125 122.88943481445312 191.2375030517578 130.18479919433594 190.59739685058594 C 137.7151641845703 192.82455444335938 143.20016479492188 198.27618408203125 145.34263610839844 205.59719848632812" stroke-width="0.0" fill="rgb(213, 200, 107)" opacity="0.9900874"/>
    <path d="M 124.95365905761719 177.748779296875 C 122.91400909423828 185.4014892578125 117.38691711425781 190.87350463867188 109.71613311767578 192.71640014648438 C 101.44985961914062 190.08428955078125 96.06934356689453 184.50390625 94.28739166259766 176.93820190429688 C 95.96349334716797 169.4816131591797 101.50434875488281 164.03619384765625 109.06291961669922 161.99073791503906 C 116.90697479248047 163.7626495361328 122.77376556396484 168.88087463378906 124.95365905761719 177.748779296875" stroke-width="0.0" fill="rgb(2, 2, 2)" opacity="0.9904974"/>
    <path d="M 122.9408950805664 149.64817810058594 C 120.85652923583984 157.28060913085938 115.16918182373047 162.53231811523438 106.7175064086914 164.34056091308594 C 98.7449951171875 162.6907501220703 93.14606475830078 157.30955505371094 91.14755249023438 149.83151245117188 C 94.8235092163086 142.3000030517578 100.3084945678711 136.84873962402344 107.62117004394531 134.93063354492188 C 115.07357025146484 136.25782775878906 120.80677032470703 140.7687225341797 122.9408950805664 149.64817810058594" stroke-width="0.0" fill="rgb(25, 37, 46)" opacity="0.99002254"/>
    <path d="M 131.7939453125 277.9974060058594 C 129.9007110595703 285.435791015625 124.44496154785156 290.9313049316406 116.97845458984375 292.94244384765625 C 109.554931640625 290.9523010253906 104.16304016113281 285.41015625 102.6881332397461 278.3546142578125 C 104.52164459228516 270.8992614746094 109.81312561035156 265.26220703125 117.14591979980469 263.4344177246094 C 124.45291900634766 265.0558776855469 129.90618896484375 270.5585021972656 131.7939453125 277.9974060058594" stroke-width="0.0" fill="rgb(100, 113, 138)" opacity="0.9905012"/>
    <path d="M 130.93824768066406 408.6820068359375 C 128.81886291503906 417.2752685546875 123.26460266113281 422.794189453125 115.67825317382812 424.82379150390625 C 107.6154556274414 422.10888671875 102.54835510253906 416.1637268066406 100.85408782958984 409.19757080078125 C 102.69245910644531 402.1297912597656 108.12448120117188 396.6784362792969 115.8335952758789 393.1948547363281 C 123.3492202758789 395.1336975097656 128.86476135253906 400.65142822265625 130.93824768066406 408.6820068359375" stroke-width="0.0" fill="rgb(167, 133, 47)" opacity="0.99011135"/>
    <path d="M 133.91607666015625 355.8321533203125 C 131.59510803222656 363.90380859375 125.7589111328125 369.2508544921875 118.15282440185547 371.2138366699219 C 110.50859069824219 368.97802734375 105.01582336425781 363.49334716796875 103.09262084960938 356.0387878417969 C 105.09356689453125 348.57147216796875 110.56832885742188 343.0826721191406 118.03946685791016 341.03338623046875 C 125.67930603027344 342.9272155761719 131.62013244628906 348.0979919433594 133.91607666015625 355.8321533203125" stroke-width="0.0" fill="rgb(8, 8, 14)" opacity="0.9929689"/>
    <path d="M 140.7973175048828 336.6636047363281 C 138.80238342285156 344.2366027832031 133.15798950195312 349.5674743652344 125.27326965332031 351.2744140625 C 117.48309326171875 349.0009460449219 111.97940063476562 343.5226135253906 109.18937683105469 335.2846374511719 C 111.1678237915039 327.6719665527344 116.65493774414062 322.1270446777344 124.50895690917969 320.0597229003906 C 133.25274658203125 322.173095703125 138.55201721191406 327.8417053222656 140.7973175048828 336.6636047363281" stroke-width="0.0" fill="rgb(20, 24, 34)" opacity="0.9901734"/>
    <path d="M 122.82492065429688 228.6593017578125 C 120.60005187988281 235.8116455078125 114.38323974609375 240.66567993164062 106.40128326416016 243.54696655273438 C 99.07144927978516 241.5110626220703 93.36639404296875 235.9920196533203 92.80329895019531 228.74549865722656 C 94.76053619384766 221.1968994140625 100.1933822631836 215.7549285888672 107.01163482666016 213.9124298095703 C 113.84397888183594 215.74095153808594 119.41361999511719 221.1036376953125 122.82492065429688 228.6593017578125" stroke-width="0.0" fill="rgb(36, 12, 5)" opacity="0.99001294"/>
    <path d="M 225.01211547851562 259.024658203125 C 223.1350555419922 266.76556396484375 217.9674835205078 272.6546325683594 209.1818389892578 274.9394226074219 C 201.59022521972656 272.91387939453125 196.0852813720703 267.4100646972656 194.04354858398438 259.375244140625 C 196.10047912597656 250.6095733642578 201.60568237304688 245.09178161621094 209.1296844482422 243.0709228515625 C 217.49855041503906 246.01461791992188 222.9903564453125 251.50009155273438 225.01211547851562 259.024658203125" stroke-width="0.0" fill="rgb(3, 2, 2)" opacity="0.9911263"/>
    <path d="M 23.478717803955078 222.1793975830078 C 21.265806198120117 229.67825317382812 15.621265411376953 235.0858917236328 8.029542922973633 237.02459716796875 C 0.5002942085266113 234.98977661132812 -4.99029541015625 229.49984741210938 -6.99995756149292 222.00003051757812 C -4.990177154541016 214.5003204345703 0.5005089044570923 209.01046752929688 8.001814842224121 207.00003051757812 C 15.508810997009277 209.0045623779297 21.047571182250977 214.47605895996094 23.478717803955078 222.1793975830078" stroke-width="0.0" fill="rgb(187, 194, 205)" opacity="1.0"/>
    <path d="M 157.3229522705078 372.8100891113281 C 155.01104736328125 380.53143310546875 149.55010986328125 386.07373046875 142.05921936035156 388.10400390625 C 134.44529724121094 386.0340881347656 128.94329833984375 380.56109619140625 126.73902130126953 372.7040100097656 C 128.3700714111328 364.7771301269531 133.69447326660156 359.134033203125 141.21543884277344 357.07354736328125 C 149.82785034179688 359.51318359375 155.2784423828125 365.2529296875 157.3229522705078 372.8100891113281" stroke-width="0.0" fill="rgb(3, 6, 9)" opacity="0.9902333"/>
    <path d="M 151.13705444335938 212.1787567138672 C 150.4839630126953 220.00973510742188 145.0074462890625 225.4812469482422 137.23492431640625 227.16612243652344 C 129.497802734375 224.9790496826172 123.9249038696289 219.53057861328125 121.67507934570312 212.1280975341797 C 124.23497009277344 204.75579833984375 129.79006958007812 199.3507537841797 137.43740844726562 197.26832580566406 C 145.1861572265625 198.3523406982422 150.66209411621094 203.80796813964844 151.13705444335938 212.1787567138672" stroke-width="0.0" fill="rgb(248, 199, 26)" opacity="0.990164"/>
    <path d="M 147.21951293945312 439.2015380859375 C 146.69235229492188 447.23492431640625 141.2821807861328 452.8294982910156 133.44973754882812 454.9296569824219 C 125.17166137695312 452.7227783203125 120.75206756591797 445.9660339355469 118.85276794433594 438.285400390625 C 119.43253326416016 431.0160217285156 125.08538818359375 425.6285095214844 133.4372100830078 423.23260498046875 C 141.14065551757812 425.3170471191406 146.58705139160156 430.8894958496094 147.21951293945312 439.2015380859375" stroke-width="0.0" fill="rgb(207, 156, 20)" opacity="0.99004686"/>
    <path d="M 53.35574722290039 186.0153350830078 C 51.59468078613281 193.1560821533203 46.166343688964844 198.62635803222656 38.33065414428711 201.8007049560547 C 31.79629135131836 199.5022735595703 26.72891616821289 192.90615844726562 24.885828018188477 186.18638610839844 C 26.817977905273438 179.29884338378906 32.30683898925781 173.83984375 39.746620178222656 170.318359375 C 46.75601577758789 172.51454162597656 51.72240447998047 178.53829956054688 53.35574722290039 186.0153350830078" stroke-width="0.0" fill="rgb(62, 69, 82)" opacity="0.9900457"/>
    <path d="M 231.7567596435547 257.4598083496094 C 229.67649841308594 265.16668701171875 224.19589233398438 270.75048828125 216.6033172607422 272.6734619140625 C 208.33595275878906 270.2507019042969 202.9912872314453 264.5893249511719 201.16744995117188 257.0216064453125 C 203.08213806152344 249.55650329589844 208.55105590820312 244.0635528564453 216.04615783691406 242.02696228027344 C 223.56114196777344 243.95132446289062 229.16954040527344 249.40170288085938 231.7567596435547 257.4598083496094" stroke-width="0.0" fill="rgb(24, 22, 28)" opacity="0.9915417"/>
    <path d="M 113.8734359741211 75.16149139404297 C 111.66827392578125 83.09809112548828 106.07057189941406 88.59990692138672 97.93706512451172 90.78205108642578 C 90.14342498779297 88.52210235595703 84.6301498413086 82.78162384033203 82.07421112060547 74.22766876220703 C 84.14215087890625 66.66830444335938 89.68226623535156 61.17854690551758 97.57926177978516 59.13433074951172 C 105.92171478271484 61.3937873840332 111.53856658935547 67.1194076538086 113.8734359741211 75.16149139404297" stroke-width="0.0" fill="rgb(164, 90, 74)" opacity="0.9901908"/>
    <path d="M 225.9488525390625 210.6810302734375 C 223.90281677246094 218.39401245117188 218.3937530517578 223.90234375 210.79637145996094 225.94053649902344 C 202.17062377929688 223.5485076904297 196.9124298095703 217.6437225341797 194.2810516357422 209.4023895263672 C 196.26177978515625 201.8448944091797 201.97006225585938 196.7639923095703 210.1676483154297 195.84214782714844 C 218.1116180419922 196.59629821777344 223.82028198242188 201.76466369628906 225.9488525390625 210.6810302734375" stroke-width="0.0" fill="rgb(6, 6, 5)" opacity="0.9900277"/>
    <path d="M 71.9010009765625 288.82489013671875 C 69.88616943359375 296.3677062988281 64.35563659667969 301.85479736328125 56.8526496887207 302.1324157714844 C 49.30369567871094 300.1330261230469 43.57192611694336 294.7681884765625 40.259063720703125 288.5414733886719 C 43.255706787109375 280.4647521972656 48.1707649230957 274.45654296875 55.94556427001953 272.2017517089844 C 63.914066314697266 274.44384765625 69.21041870117188 280.2091064453125 71.9010009765625 288.82489013671875" stroke-width="0.0" fill="rgb(60, 63, 76)" opacity="0.9901613"/>
    <path d="M 123.02959442138672 12.056281089782715 C 121.20494842529297 19.822734832763672 115.9669189453125 25.612672805786133 108.40328216552734 27.767492294311523 C 100.23858642578125 25.355636596679688 94.79340362548828 19.71219253540039 92.58491516113281 11.805339813232422 C 94.55084991455078 4.0943684577941895 100.13033294677734 -1.3342820405960083 107.84754180908203 -3.124863862991333 C 115.47362518310547 -0.9562495946884155 120.97378540039062 4.521090984344482 123.02959442138672 12.056281089782715" stroke-width="0.0" fill="rgb(180, 185, 199)" opacity="1.0"/>
  </g>
</svg>
