<?xml version="1.0" ?>
<svg xmlns="http://www.w3.org/2000/svg" version="1.1" width="600" height="600">
  <defs/>
  <g>
    <path d="M 428.4638366699219 204.69046020507812 C 426.22723388671875 212.60809326171875 420.5364074707031 218.0045623779297 413.00140380859375 220.0005340576172 C 405.5000305175781 217.99037170410156 400.0135803222656 212.4989013671875 397.71649169921875 204.6590576171875 C 399.4718933105469 196.9285888671875 404.8470764160156 191.25575256347656 412.4750671386719 189.15640258789062 C 421.1758117675781 191.27915954589844 426.6370544433594 196.85305786132812 428.4638366699219 204.69046020507812" stroke-width="0.0" fill="rgb(229, 190, 179)" opacity="1.0"/>
    <path d="M 368.9202575683594 97.79718780517578 C 366.8949890136719 105.37618255615234 361.36468505859375 110.86712646484375 353.8348693847656 112.82906341552734 C 346.3001708984375 109.17292022705078 340.85699462890625 103.68875122070312 338.9460144042969 97.02086639404297 C 340.8611145019531 90.32076263427734 346.3172912597656 84.85077667236328 353.8716735839844 81.15084075927734 C 361.3401794433594 83.13047790527344 366.794189453125 88.68727111816406 368.9202575683594 97.79718780517578" stroke-width="0.0" fill="rgb(31, 44, 61)" opacity="0.9900145"/>
    <path d="M 208.00013732910156 350.99957275390625 C 205.9904022216797 358.5000305175781 200.50042724609375 363.9918518066406 192.26004028320312 366.83514404296875 C 184.68399047851562 364.8370056152344 179.23287963867188 359.29425048828125 178.86273193359375 351.5919189453125 C 179.49659729003906 342.7579040527344 184.67832946777344 337.13427734375 192.22354125976562 335.0871887207031 C 200.59654235839844 337.7646484375 205.996826171875 343.4810485839844 208.00013732910156 350.99957275390625" stroke-width="0.0" fill="rgb(59, 84, 103)" opacity="1.0"/>
    <path d="M 223.890869140625 367.3277282714844 C 221.79029846191406 376.3033142089844 216.3185272216797 381.83563232421875 207.6197052001953 383.90496826171875 C 199.67611694335938 381.8452453613281 194.16641235351562 376.3192138671875 192.15345764160156 368.70770263671875 C 194.88632202148438 360.4706726074219 200.5166015625 355.03814697265625 208.6023712158203 352.33538818359375 C 216.28799438476562 354.216796875 221.84580993652344 359.6880187988281 223.890869140625 367.3277282714844" stroke-width="0.0" fill="rgb(65, 91, 115)" opacity="1.0"/>
    <path d="M 427.9367980957031 374.74041748046875 C 425.8005065917969 383.1885681152344 420.0396728515625 388.39208984375 412.11749267578125 390.0746765136719 C 404.5 387.9903869628906 399.0096130371094 382.5 396.262451171875 374.2979431152344 C 398.14208984375 366.6298828125 403.6126403808594 361.09564208984375 411.302734375 359.0530700683594 C 420.3332214355469 361.1518249511719 425.86126708984375 366.6610107421875 427.9367980957031 374.74041748046875" stroke-width="0.0" fill="rgb(7, 10, 18)" opacity="0.9901042"/>
    <path d="M 473.9258728027344 446.8293151855469 C 471.8853454589844 454.3677062988281 466.36614990234375 459.8816833496094 457.56707763671875 461.9454345703125 C 449.6028137207031 459.90313720703125 444.0895080566406 454.4002685546875 442.0445251464844 446.58245849609375 C 444.1116943359375 437.6326904296875 449.6423645019531 432.1341857910156 457.2175598144531 430.13525390625 C 465.50750732421875 433.0071716308594 471.1278076171875 438.4518737792969 473.9258728027344 446.8293151855469" stroke-width="0.0" fill="rgb(10, 11, 14)" opacity="0.990107"/>
    <path d="M 345.8897399902344 326.28375244140625 C 343.7270202636719 335.2752685546875 338.3294372558594 340.8751220703125 330.77362060546875 342.9403381347656 C 321.79547119140625 340.6736145019531 316.1438903808594 335.2845764160156 314.0491027832031 327.2151184082031 C 316.1379699707031 318.66583251953125 321.677490234375 313.1652526855469 329.6305847167969 311.0926208496094 C 338.30926513671875 313.17852783203125 343.84747314453125 318.6800842285156 345.8897399902344 326.28375244140625" stroke-width="0.0" fill="rgb(33, 54, 74)" opacity="1.0"/>
    <path d="M 263.9602966308594 413.0926818847656 C 261.9032287597656 421.38916015625 256.3854675292969 426.89508056640625 247.55284118652344 428.9585266113281 C 239.6004180908203 426.91192626953125 234.11521911621094 421.38909912109375 232.17242431640625 413.7521667480469 C 234.40725708007812 404.7988586425781 239.7052459716797 399.1383972167969 248.46559143066406 397.0472106933594 C 256.3872985839844 399.1002502441406 261.9012145996094 404.6121520996094 263.9602966308594 413.0926818847656" stroke-width="0.0" fill="rgb(0, 0, 0)" opacity="1.0"/>
    <path d="M 363.90594482421875 255.3228302001953 C 361.7607421875 264.2280578613281 356.220947265625 269.7418212890625 348.5978698730469 271.7152099609375 C 340.5032958984375 268.9804992675781 335.00982666015625 263.4993896484375 333.0 255.99998474121094 C 335.0096130371094 248.5 340.5 243.00961303710938 348.83642578125 240.0989532470703 C 356.38763427734375 242.10232543945312 361.8863830566406 247.61669921875 363.90594482421875 255.3228302001953" stroke-width="0.0" fill="rgb(103, 119, 142)" opacity="1.0"/>
    <path d="M 338.86126708984375 547.80126953125 C 336.8909606933594 555.390625 331.3985290527344 560.9105224609375 323.7861022949219 562.9437255859375 C 314.6349182128906 560.865234375 309.1011657714844 555.378662109375 307.04473876953125 547.7529296875 C 309.2060546875 538.8350830078125 315.01361083984375 533.6820678710938 322.9227600097656 531.9573974609375 C 330.5 534.0096435546875 335.9903869628906 539.5 338.86126708984375 547.80126953125" stroke-width="0.0" fill="rgb(32, 42, 58)" opacity="1.0"/>
    <path d="M 388.77569580078125 45.64284133911133 C 386.7580261230469 53.23653793334961 381.2464599609375 58.782371520996094 372.3892517089844 60.90278625488281 C 364.63775634765625 58.871498107910156 359.12530517578125 53.36345291137695 357.1068420410156 45.80867004394531 C 360.004638671875 37.498573303222656 365.4999084472656 32.00959777832031 372.38458251953125 30.73261070251465 C 379.7982482910156 32.76625442504883 385.392578125 38.153900146484375 388.77569580078125 45.64284133911133" stroke-width="0.0" fill="rgb(70, 79, 88)" opacity="0.9900451"/>
    <path d="M 379.52349853515625 502.5154113769531 C 376.9833984375 510.497802734375 371.49969482421875 515.990234375 363.9960021972656 518.001708984375 C 356.423828125 516.0232543945312 350.6324157714844 510.69610595703125 348.19940185546875 502.628662109375 C 350.3271789550781 494.850341796875 355.8238830566406 489.2632751464844 364.52313232421875 487.11114501953125 C 372.2607421875 489.1865234375 377.7020263671875 494.7818908691406 379.52349853515625 502.5154113769531" stroke-width="0.0" fill="rgb(202, 130, 66)" opacity="1.0"/>
    <path d="M 214.79623413085938 451.7064208984375 C 212.8165740966797 459.26171875 207.19515991210938 464.61334228515625 199.29624938964844 466.2442321777344 C 191.5 463.9903869628906 186.00961303710938 458.5 183.6317138671875 450.6007995605469 C 185.30824279785156 442.7529602050781 190.6962127685547 437.1466979980469 198.28909301757812 435.06884765625 C 206.8946533203125 437.3931884765625 212.07713317871094 443.3164978027344 214.79623413085938 451.7064208984375" stroke-width="0.0" fill="rgb(27, 38, 54)" opacity="1.0"/>
    <path d="M 431.14495849609375 275.4469909667969 C 429.7747497558594 282.4646911621094 424.5522766113281 288.0467529296875 417.01220703125 290.01788330078125 C 409.4473876953125 288.0213928222656 403.9300231933594 282.5684509277344 401.180908203125 274.2629699707031 C 403.2010803222656 266.7734375 408.85443115234375 261.4342956542969 416.69415283203125 259.7979736328125 C 424.1099548339844 262.2853698730469 429.3208312988281 268.0279846191406 431.14495849609375 275.4469909667969" stroke-width="0.0" fill="rgb(106, 60, 79)" opacity="0.9900644"/>
    <path d="M 196.60943603515625 515.4337158203125 C 194.01914978027344 523.511962890625 188.50405883789062 528.9918212890625 181.59011840820312 530.3768310546875 C 174.30308532714844 528.1883544921875 168.85818481445312 522.6807861328125 165.1133270263672 515.114013671875 C 167.10081481933594 507.6136474609375 172.62066650390625 502.11846923828125 180.58023071289062 500.08184814453125 C 189.2704620361328 502.1753234863281 194.73153686523438 507.76861572265625 196.60943603515625 515.4337158203125" stroke-width="0.0" fill="rgb(38, 52, 65)" opacity="0.99003166"/>
    <path d="M 475.947265625 395.4739685058594 C 473.8988342285156 403.3857727050781 468.38287353515625 408.89208984375 459.5171203613281 410.9515686035156 C 451.60015869140625 408.9058532714844 446.0849304199219 403.40380859375 444.0379333496094 395.6749267578125 C 446.11053466796875 386.6369934082031 451.6568298339844 381.15850830078125 460.4986877441406 379.08831787109375 C 468.35565185546875 381.1359558105469 473.8800048828125 386.6378173828125 475.947265625 395.4739685058594" stroke-width="0.0" fill="rgb(11, 12, 15)" opacity="0.99009943"/>
    <path d="M 245.9422149658203 583.4982299804688 C 243.879150390625 592.3728637695312 238.38401794433594 597.904052734375 230.15573120117188 599.9629516601562 C 221.5983123779297 597.9104614257812 216.09423828125 592.399658203125 214.04571533203125 584.6671142578125 C 216.18447875976562 575.8131713867188 222.00570678710938 570.685791015625 230.6977081298828 568.2281494140625 C 238.3599853515625 570.1517944335938 243.8988494873047 575.6207885742188 245.9422149658203 583.4982299804688" stroke-width="0.0" fill="rgb(12, 12, 17)" opacity="1.0"/>
    <path d="M 326.93853759765625 425.71514892578125 C 324.788818359375 434.14227294921875 318.9342346191406 439.2588806152344 310.27587890625 441.7590026855469 C 302.6163330078125 439.8729248046875 297.0936584472656 434.3955993652344 295.0934753417969 426.8365783691406 C 297.58184814453125 418.15472412109375 303.2215576171875 412.7947082519531 311.3605041503906 410.62933349609375 C 319.2505187988281 412.3125915527344 324.8598937988281 417.6894226074219 326.93853759765625 425.71514892578125" stroke-width="0.0" fill="rgb(8, 12, 27)" opacity="0.9901996"/>
    <path d="M 456.95184326171875 138.74392700195312 C 454.9114685058594 146.40487670898438 449.4041748046875 151.91004943847656 441.49566650390625 153.9542694091797 C 432.6164855957031 151.896728515625 427.10955810546875 146.380615234375 425.06817626953125 138.76336669921875 C 427.3245849609375 129.97537231445312 433.13812255859375 124.769775390625 441.0393371582031 122.9138412475586 C 448.9990234375 124.6579360961914 454.79339599609375 129.8319091796875 456.95184326171875 138.74392700195312" stroke-width="0.0" fill="rgb(63, 80, 97)" opacity="1.0"/>
    <path d="M 302.93603515625 529.8219604492188 C 300.9178466796875 537.4120483398438 295.4124450683594 542.918701171875 287.42303466796875 544.9605712890625 C 278.5877380371094 542.9158325195312 273.0824279785156 537.4130249023438 271.0615539550781 529.8163452148438 C 273.3658752441406 521.0740356445312 279.2923278808594 515.9096069335938 287.7360534667969 513.2199096679688 C 295.3634338378906 515.1326904296875 300.84881591796875 520.6427001953125 302.93603515625 529.8219604492188" stroke-width="0.0" fill="rgb(0, 0, 0)" opacity="1.0"/>
    <path d="M 334.945556640625 444.6656188964844 C 332.8948669433594 452.3724365234375 327.3514709472656 457.8393249511719 319.6705322265625 459.7098693847656 C 311.5000915527344 456.9903564453125 306.0151062011719 451.4984436035156 303.12213134765625 443.2438659667969 C 305.2412414550781 435.9021911621094 311.1184997558594 430.79461669921875 319.6646728515625 428.28656005859375 C 327.3319396972656 430.1700134277344 332.864501953125 435.6553649902344 334.945556640625 444.6656188964844" stroke-width="0.0" fill="rgb(3, 4, 4)" opacity="0.99015313"/>
    <path d="M 198.40597534179688 477.3398742675781 C 196.55076599121094 485.0348815917969 191.05885314941406 490.619384765625 182.34396362304688 492.8760986328125 C 174.72825622558594 490.818115234375 169.23611450195312 485.2482604980469 167.1288604736328 476.7144470214844 C 169.2342071533203 468.8226013183594 174.9192657470703 463.5105895996094 182.79483032226562 461.8260498046875 C 190.5 464.0096130371094 195.99038696289062 469.5 198.40597534179688 477.3398742675781" stroke-width="0.0" fill="rgb(144, 184, 205)" opacity="1.0"/>
    <path d="M 329.85406494140625 521.40234375 C 327.54534912109375 529.884765625 321.73828125 535.132568359375 313.18359375 537.89111328125 C 305.6566162109375 535.87841796875 300.2927551269531 530.2922973632812 298.1512145996094 521.218505859375 C 300.1662902832031 513.712646484375 305.7366638183594 508.2211608886719 314.3197937011719 506.10870361328125 C 322.30792236328125 508.1784362792969 327.82672119140625 513.6898193359375 329.85406494140625 521.40234375" stroke-width="0.0" fill="rgb(183, 123, 64)" opacity="1.0"/>
    <path d="M 477.4976501464844 517.4837646484375 C 475.7348937988281 525.26953125 470.31451416015625 530.8578491210938 462.3887634277344 532.9317016601562 C 453.6749267578125 530.8519287109375 448.16217041015625 525.3184204101562 446.09442138671875 517.7193603515625 C 448.5286560058594 509.21978759765625 454.37396240234375 503.950439453125 461.99176025390625 501.99627685546875 C 469.5 504.0096130371094 474.9903869628906 509.5 477.4976501464844 517.4837646484375" stroke-width="0.0" fill="rgb(111, 75, 8)" opacity="0.990108"/>
    <path d="M 380.8714904785156 508.7360534667969 C 378.8105773925781 516.259765625 373.24188232421875 521.7713623046875 364.5578918457031 523.8988647460938 C 356.64666748046875 521.85693359375 351.1344299316406 516.3564453125 349.13787841796875 508.7385559082031 C 351.5279541015625 500.0406188964844 357.0274353027344 494.4895324707031 364.6805419921875 492.4680480957031 C 372.30657958984375 495.15118408203125 377.82958984375 500.70001220703125 380.8714904785156 508.7360534667969" stroke-width="0.0" fill="rgb(159, 102, 41)" opacity="1.0"/>
    <path d="M 413.94476318359375 426.3738098144531 C 411.8681640625 434.3459167480469 406.34521484375 439.865966796875 397.55914306640625 441.9437255859375 C 389.6322937011719 439.88427734375 384.12615966796875 434.36322021484375 382.06085205078125 426.2566833496094 C 384.1335754394531 417.6488952636719 389.6480407714844 412.1313781738281 398.4079895019531 410.0575866699219 C 406.34869384765625 412.1234130859375 411.85565185546875 417.6610107421875 413.94476318359375 426.3738098144531" stroke-width="0.0" fill="rgb(50, 64, 79)" opacity="1.0"/>
    <path d="M 269.89630126953125 506.1980285644531 C 267.7627258300781 515.315185546875 262.36480712890625 520.9013061523438 254.82676696777344 522.9470825195312 C 246.1268310546875 520.596923828125 240.9424591064453 514.6541748046875 238.17752075195312 506.2298583984375 C 240.11721801757812 498.6133728027344 245.60302734375 493.09051513671875 254.0206756591797 491.04156494140625 C 262.3994445800781 493.0920715332031 267.9052429199219 498.60150146484375 269.89630126953125 506.1980285644531" stroke-width="0.0" fill="rgb(0, 0, 0)" opacity="1.0"/>
    <path d="M 379.941650390625 570.4800415039062 C 377.787109375 579.1735229492188 372.0279846191406 584.3856201171875 363.8560485839844 586.5059814453125 C 356.48101806640625 584.1036376953125 351.0219421386719 578.4825439453125 349.0014343261719 570.9972534179688 C 351.0096130371094 563.5 356.5 558.0096435546875 364.806640625 555.1295166015625 C 372.3727111816406 557.1134643554688 377.87872314453125 562.630859375 379.941650390625 570.4800415039062" stroke-width="0.0" fill="rgb(32, 41, 57)" opacity="1.0"/>
    <path d="M 325.8811950683594 457.7398376464844 C 323.7497863769531 465.1042785644531 317.9934997558594 470.543212890625 309.2627258300781 472.9064636230469 C 301.6651916503906 470.87030029296875 296.25653076171875 465.2917175292969 294.4803466796875 457.3283386230469 C 296.4246520996094 448.8559875488281 301.8028259277344 443.2559509277344 309.3963317871094 441.4535217285156 C 317.30596923828125 444.2660827636719 322.8770751953125 449.65142822265625 325.8811950683594 457.7398376464844" stroke-width="0.0" fill="rgb(26, 38, 57)" opacity="1.0"/>
    <path d="M 232.95895385742188 440.4254455566406 C 230.90858459472656 449.4021301269531 225.4003448486328 454.90435791015625 217.76339721679688 456.9366149902344 C 209.0517578125 454.6661071777344 204.0209503173828 448.67926025390625 201.16110229492188 440.20648193359375 C 203.11326599121094 432.6164245605469 208.61143493652344 427.1004333496094 217.3344268798828 425.04913330078125 C 225.40464782714844 427.0910949707031 230.918212890625 432.5913391113281 232.95895385742188 440.4254455566406" stroke-width="0.0" fill="rgb(4, 4, 6)" opacity="1.0"/>
    <path d="M 356.93109130859375 418.989501953125 C 354.8290710449219 427.249267578125 349.1460266113281 432.53790283203125 340.2353820800781 434.8851623535156 C 332.6404113769531 432.8666076660156 327.1140441894531 427.3678283691406 325.05804443359375 419.3469543457031 C 327.1231994628906 410.6361999511719 332.6362609863281 405.1231689453125 341.6106872558594 403.0499267578125 C 349.391357421875 405.0947570800781 354.8793640136719 410.61895751953125 356.93109130859375 418.989501953125" stroke-width="0.0" fill="rgb(46, 63, 85)" opacity="1.0"/>
    <path d="M 429.8190002441406 340.2652587890625 C 426.9903869628906 348.5 421.5 353.9903869628906 413.9681091308594 356.01690673828125 C 406.20880126953125 354.1587219238281 400.3311462402344 348.9886169433594 398.0740966796875 340.3602294921875 C 400.1424560546875 332.6693420410156 405.6789245605469 327.1641540527344 413.7021179199219 325.0805969238281 C 422.3260192871094 327.1586608886719 427.8424377441406 332.6734619140625 429.8190002441406 340.2652587890625" stroke-width="0.0" fill="rgb(41, 59, 77)" opacity="0.990389"/>
    <path d="M 229.996337890625 563.9951171875 C 227.9774169921875 571.4967041015625 222.60162353515625 577.2824096679688 214.16705322265625 579.9378662109375 C 206.63375854492188 577.8959350585938 201.2078094482422 572.32958984375 199.472900390625 564.5452880859375 C 202.00961303710938 556.5 207.5 551.0096435546875 215.0 549.0 C 222.5 551.0096435546875 227.99038696289062 556.5 229.996337890625 563.9951171875" stroke-width="0.0" fill="rgb(30, 37, 45)" opacity="1.0"/>
    <path d="M 374.1160888671875 30.433101654052734 C 372.5610656738281 37.249114990234375 367.41473388671875 43.067832946777344 360.4770812988281 45.28120803833008 C 353.2989501953125 42.20758819580078 347.8742980957031 36.67348861694336 345.95111083984375 30.206504821777344 C 347.8922424316406 23.350988388061523 353.3394470214844 17.863494873046875 360.8494873046875 15.742240905761719 C 368.2786560058594 16.155838012695312 372.7762145996094 21.866830825805664 374.1160888671875 30.433101654052734" stroke-width="0.0" fill="rgb(46, 50, 59)" opacity="0.99001086"/>
    <path d="M 213.9464569091797 307.0335998535156 C 211.88864135742188 315.3752136230469 206.37290954589844 320.8834533691406 198.621337890625 322.9397277832031 C 191.01426696777344 320.63092041015625 185.8782196044922 313.7232666015625 183.95831298828125 306.9924011230469 C 185.9036865234375 300.3713073730469 191.37124633789062 294.9037780761719 198.7086181640625 292.9551696777344 C 206.19476318359375 294.3819580078125 211.8711395263672 298.67913818359375 213.9464569091797 307.0335998535156" stroke-width="0.0" fill="rgb(32, 40, 54)" opacity="0.99000937"/>
    <path d="M 294.9498596191406 511.154541015625 C 292.6125793457031 519.9035034179688 286.6934509277344 525.0841064453125 278.30609130859375 527.7313232421875 C 270.631103515625 525.85498046875 265.10028076171875 520.385009765625 263.1047668457031 512.7778930664062 C 265.2000732421875 503.66204833984375 270.62738037109375 498.1004638671875 279.5488586425781 496.0386047363281 C 287.4130554199219 498.0809020996094 292.9205017089844 503.58624267578125 294.9498596191406 511.154541015625" stroke-width="0.0" fill="rgb(0, 0, 0)" opacity="1.0"/>
    <path d="M 472.8327331542969 299.3885498046875 C 470.3317565917969 307.6739501953125 464.56768798828125 313.01983642578125 456.9700622558594 315.0185852050781 C 449.17767333984375 313.1742858886719 443.28460693359375 308.03759765625 441.0628662109375 299.3971252441406 C 443.15283203125 291.7078552246094 448.74322509765625 286.2271423339844 457.3958740234375 284.0867919921875 C 465.2958068847656 286.17498779296875 470.80133056640625 291.713623046875 472.8327331542969 299.3885498046875" stroke-width="0.0" fill="rgb(75, 109, 136)" opacity="1.0"/>
    <path d="M 241.85086059570312 404.21539306640625 C 239.4940643310547 413.1476135253906 234.26644897460938 418.8471984863281 225.77183532714844 420.9476013183594 C 217.62469482421875 418.8849792480469 212.10888671875 413.3779296875 210.056884765625 405.4909973144531 C 212.12347412109375 396.6371765136719 217.64109802246094 391.13330078125 226.38975524902344 389.0675354003906 C 234.3699951171875 391.1199035644531 239.88082885742188 396.6295166015625 241.85086059570312 404.21539306640625" stroke-width="0.0" fill="rgb(24, 35, 50)" opacity="1.0"/>
    <path d="M 424.8653259277344 382.7809753417969 C 422.8471374511719 390.3106384277344 417.2813415527344 395.7701110839844 409.58660888671875 397.6694641113281 C 401.5 394.9903869628906 396.0096130371094 389.5 394.0057373046875 382.0090026855469 C 396.0499267578125 374.5628662109375 401.5932922363281 369.1493225097656 409.1986999511719 366.8458251953125 C 416.6551513671875 368.77801513671875 421.9709167480469 374.417236328125 424.8653259277344 382.7809753417969" stroke-width="0.0" fill="rgb(49, 64, 88)" opacity="0.99073964"/>
    <path d="M 340.9472961425781 542.236328125 C 338.7770080566406 551.15087890625 332.9876708984375 556.334716796875 325.0907287597656 558.06005859375 C 317.49725341796875 555.9927368164062 312.0035095214844 550.5037841796875 309.1123046875 542.205078125 C 311.1539611816406 534.7113037109375 316.7573547363281 529.259765625 325.4692687988281 527.1302490234375 C 333.3638000488281 529.150390625 338.905029296875 534.6151123046875 340.9472961425781 542.236328125" stroke-width="0.0" fill="rgb(32, 41, 57)" opacity="1.0"/>
    <path d="M 473.92645263671875 310.63873291015625 C 471.8724365234375 318.3600158691406 466.36322021484375 323.87994384765625 458.70440673828125 325.926025390625 C 449.90887451171875 323.7259521484375 444.7099914550781 317.9331359863281 442.7648620605469 309.95361328125 C 444.8828125 302.5584411621094 450.7082824707031 297.3594055175781 458.2424011230469 295.4942626953125 C 465.8669128417969 296.81927490234375 471.7289123535156 301.9302978515625 473.92645263671875 310.63873291015625" stroke-width="0.0" fill="rgb(48, 61, 74)" opacity="0.9904027"/>
    <path d="M 240.66143798828125 557.6402587890625 C 238.637939453125 566.1342163085938 233.12875366210938 571.6216430664062 225.52725219726562 572.529296875 C 217.86538696289062 570.5198974609375 212.2616424560547 565.2062377929688 210.08448791503906 557.9100952148438 C 212.00961303710938 550.5 217.5 545.0096435546875 225.13409423828125 542.8992309570312 C 232.97828674316406 544.6205444335938 238.66441345214844 549.9276733398438 240.66143798828125 557.6402587890625" stroke-width="0.0" fill="rgb(82, 102, 118)" opacity="0.9901597"/>
    <path d="M 464.89581298828125 269.89080810546875 C 462.8177795410156 278.3080749511719 457.3166809082031 283.83966064453125 449.408935546875 285.89971923828125 C 440.6599426269531 283.83837890625 435.12957763671875 278.3521423339844 433.0749206542969 270.49969482421875 C 435.20819091796875 261.7536926269531 440.7573547363281 256.21759033203125 449.2586669921875 254.10055541992188 C 457.2908630371094 256.1891784667969 462.8161926269531 261.7066345214844 464.89581298828125 269.89080810546875" stroke-width="0.0" fill="rgb(122, 100, 126)" opacity="1.0"/>
    <path d="M 217.5908966064453 557.0796508789062 C 216.10205078125 564.617431640625 210.63482666015625 570.1638793945312 202.14918518066406 572.9177856445312 C 194.59844970703125 570.90771484375 189.08860778808594 565.403076171875 187.03797912597656 556.5431518554688 C 189.08497619628906 548.5977783203125 194.60287475585938 543.096435546875 202.20985412597656 541.0598754882812 C 211.03025817871094 543.3106079101562 216.1133270263672 549.1657104492188 217.5908966064453 557.0796508789062" stroke-width="0.0" fill="rgb(12, 15, 19)" opacity="1.0"/>
    <path d="M 263.9583435058594 369.3282165527344 C 261.90093994140625 377.38592529296875 256.3787536621094 382.88397216796875 248.78260803222656 384.9102783203125 C 240.34962463378906 382.3232421875 234.99452209472656 376.540771484375 232.6825408935547 368.6595764160156 C 234.36778259277344 360.8118896484375 239.75291442871094 355.1961669921875 248.6685791015625 353.07037353515625 C 256.370849609375 355.1164855957031 261.8894348144531 360.6266784667969 263.9583435058594 369.3282165527344" stroke-width="0.0" fill="rgb(40, 53, 75)" opacity="1.0"/>
    <path d="M 489.3150329589844 122.66413116455078 C 486.6083679199219 130.18544006347656 481.2226867675781 135.7306671142578 473.8453063964844 138.32423400878906 C 466.2210693359375 136.23611450195312 460.5005187988281 130.87109375 458.36993408203125 123.425048828125 C 460.8238220214844 115.3388900756836 466.295166015625 109.69840240478516 473.7179870605469 107.74946594238281 C 481.6075744628906 109.89154052734375 487.02435302734375 115.42071533203125 489.3150329589844 122.66413116455078" stroke-width="0.0" fill="rgb(209, 209, 212)" opacity="0.9901619"/>
    <path d="M 395.4046630859375 92.64039611816406 C 393.7689208984375 100.276123046875 388.3015441894531 105.83645629882812 379.7228698730469 107.92855834960938 C 371.65667724609375 105.86241912841797 366.1914367675781 100.32495880126953 364.1119079589844 91.3029556274414 C 366.1328430175781 83.65245056152344 371.65716552734375 78.14374542236328 379.2585144042969 76.12054443359375 C 387.5309753417969 78.6885986328125 392.615234375 84.7186279296875 395.4046630859375 92.64039611816406" stroke-width="0.0" fill="rgb(68, 96, 118)" opacity="0.9904905"/>
    <path d="M 393.68377685546875 165.5811004638672 C 390.89794921875 172.97105407714844 384.8271789550781 178.22482299804688 377.27996826171875 180.12391662597656 C 369.8318786621094 179.73049926757812 364.51654052734375 174.09132385253906 362.86077880859375 166.1737823486328 C 364.8975524902344 158.27349853515625 370.0504455566406 152.3455810546875 378.4681396484375 150.0915069580078 C 386.3203430175781 152.14759826660156 391.7516174316406 157.71435546875 393.68377685546875 165.5811004638672" stroke-width="0.0" fill="rgb(13, 20, 27)" opacity="0.99003714"/>
    <path d="M 371.8863830566406 151.18743896484375 C 368.9903869628906 159.5 363.5 164.99038696289062 355.760986328125 167.35366821289062 C 348.2578430175781 165.34677124023438 342.91082763671875 159.65890502929688 340.9880065917969 152.0186004638672 C 342.9557189941406 144.3529052734375 348.1158142089844 138.3849334716797 356.705078125 136.06809997558594 C 364.3695373535156 138.11929321289062 369.88201904296875 143.6299285888672 371.8863830566406 151.18743896484375" stroke-width="0.0" fill="rgb(20, 28, 40)" opacity="0.9908591"/>
    <path d="M 184.1943817138672 411.2408447265625 C 182.5528106689453 419.14984130859375 177.24525451660156 424.82293701171875 168.52122497558594 426.9411315917969 C 160.65187072753906 424.8700866699219 155.194580078125 419.3265686035156 154.90306091308594 411.78558349609375 C 156.81483459472656 404.1941833496094 162.0404815673828 398.2911376953125 168.9278564453125 395.7648010253906 C 176.5 398.0096130371094 181.99038696289062 403.5 184.1943817138672 411.2408447265625" stroke-width="0.0" fill="rgb(54, 69, 89)" opacity="0.99015653"/>
    <path d="M 469.9464111328125 565.5015869140625 C 467.8751525878906 574.3572998046875 462.3559265136719 579.8719482421875 453.63140869140625 581.9429931640625 C 445.631591796875 579.8826904296875 440.111083984375 574.3712158203125 438.04449462890625 565.5418701171875 C 440.0939636230469 557.6036376953125 445.6029052734375 552.09228515625 454.05438232421875 550.040771484375 C 462.39892578125 552.0906982421875 467.90142822265625 557.6044311523438 469.9464111328125 565.5015869140625" stroke-width="0.0" fill="rgb(25, 26, 33)" opacity="1.0"/>
    <path d="M 463.0 87.0 C 460.9903869628906 94.5 455.5 99.9903793334961 447.314208984375 102.73662567138672 C 439.66705322265625 100.83731079101562 434.1580810546875 95.3343276977539 432.1828308105469 87.72260284423828 C 434.991943359375 79.49434661865234 440.4991760253906 74.00934600830078 448.0 71.99999237060547 C 455.5 74.0096206665039 460.9903869628906 79.5 463.0 87.0" stroke-width="0.0" fill="rgb(31, 40, 53)" opacity="0.99756056"/>
    <path d="M 223.16165161132812 341.0451965332031 C 221.39767456054688 348.9937438964844 216.0774383544922 354.6575622558594 208.49057006835938 356.60064697265625 C 200.48651123046875 354.0093078613281 194.96206665039062 348.5216369628906 192.18211364746094 340.242431640625 C 194.12042236328125 332.6165466308594 199.606201171875 327.09332275390625 207.3160858154297 325.0458068847656 C 216.20022583007812 327.1845397949219 221.38055419921875 332.96234130859375 223.16165161132812 341.0451965332031" stroke-width="0.0" fill="rgb(50, 66, 86)" opacity="1.0"/>
    <path d="M 204.8383026123047 530.0192260742188 C 202.8465118408203 538.3504638671875 197.36936950683594 543.8935546875 189.58680725097656 545.95556640625 C 182.0974578857422 543.7202758789062 176.90866088867188 536.671142578125 174.96334838867188 529.2529907226562 C 176.7947540283203 523.2008666992188 182.139404296875 517.63330078125 189.47633361816406 515.5263671875 C 197.16006469726562 516.4141845703125 202.78187561035156 521.7763061523438 204.8383026123047 530.0192260742188" stroke-width="0.0" fill="rgb(5, 7, 12)" opacity="0.9900198"/>
    <path d="M 417.8763427734375 62.653682708740234 C 415.74237060546875 71.17935943603516 410.14508056640625 76.65789031982422 402.3935546875 78.6915054321289 C 393.9526062011719 76.54051971435547 388.37030029296875 71.0770034790039 386.1573791503906 62.566566467285156 C 388.2596130371094 54.811222076416016 393.8292236328125 49.304500579833984 402.55670166015625 47.12101745605469 C 410.27197265625 49.196006774902344 415.7977294921875 54.73054885864258 417.8763427734375 62.653682708740234" stroke-width="0.0" fill="rgb(98, 136, 162)" opacity="1.0"/>
    <path d="M 420.9357604980469 169.3043670654297 C 418.8728942871094 177.35096740722656 413.3341979980469 182.82818603515625 405.8287658691406 183.1244354248047 C 398.236572265625 181.1671600341797 392.1437072753906 175.9014892578125 389.34765625 169.36941528320312 C 391.93548583984375 161.45347595214844 397.4704284667969 155.99169921875 405.15057373046875 153.89215087890625 C 413.0837097167969 155.55020141601562 418.8134765625 160.7854461669922 420.9357604980469 169.3043670654297" stroke-width="0.0" fill="rgb(19, 28, 39)" opacity="0.9900458"/>
    <path d="M 311.8645935058594 571.2637329101562 C 309.7315368652344 580.2530517578125 304.28875732421875 585.8306274414062 295.323974609375 587.9502563476562 C 287.61505126953125 585.8967895507812 282.11016845703125 580.3821411132812 280.05108642578125 571.3372192382812 C 282.0895690917969 563.5955200195312 287.59454345703125 558.0869750976562 295.69580078125 556.0359497070312 C 304.3924255371094 558.093994140625 309.8878173828125 563.6148071289062 311.8645935058594 571.2637329101562" stroke-width="0.0" fill="rgb(4, 2, 4)" opacity="0.99010515"/>
    <path d="M 179.95831298828125 584.4696655273438 C 177.9083709716797 592.3976440429688 172.3958740234375 597.9043579101562 164.1649169921875 599.957763671875 C 155.6096954345703 597.9019775390625 150.10267639160156 592.3883056640625 148.048095703125 584.0414428710938 C 150.0922393798828 575.5980224609375 155.5979461669922 570.0919189453125 163.75033569335938 568.0469360351562 C 172.40078735351562 570.0921020507812 177.90342712402344 575.6011352539062 179.95831298828125 584.4696655273438" stroke-width="0.0" fill="rgb(4, 7, 15)" opacity="1.0"/>
    <path d="M 238.08615112304688 340.1248779296875 C 236.38528442382812 348.0111083984375 231.13534545898438 353.7429504394531 223.4569854736328 355.8641357421875 C 215.02151489257812 353.617431640625 209.78102111816406 347.839599609375 207.82261657714844 339.81365966796875 C 209.44656372070312 331.83245849609375 214.7412109375 326.17205810546875 222.2591552734375 324.16839599609375 C 230.5 327.0096130371094 235.99038696289062 332.5 238.08615112304688 340.1248779296875" stroke-width="0.0" fill="rgb(48, 71, 90)" opacity="1.0"/>
    <path d="M 340.8382873535156 485.3712463378906 C 338.6175231933594 493.0191955566406 333.02386474609375 498.6266784667969 325.14013671875 500.8671875 C 316.9176940917969 498.621337890625 311.306884765625 493.1138916015625 309.148681640625 484.8584289550781 C 311.3507385253906 477.02349853515625 317.2073059082031 471.8402099609375 324.9712219238281 469.9823303222656 C 332.5757141113281 471.9787292480469 338.39910888671875 477.2890625 340.8382873535156 485.3712463378906" stroke-width="0.0" fill="rgb(85, 63, 56)" opacity="0.9900472"/>
    <path d="M 449.3417663574219 224.6072235107422 C 447.0623474121094 232.66488647460938 441.89190673828125 238.6155548095703 433.2380065917969 240.93621826171875 C 425.6168518066406 238.89329528808594 420.1020202636719 233.38514709472656 418.0804748535156 225.849365234375 C 420.764404296875 217.09657287597656 425.8836364746094 211.22775268554688 434.6344299316406 209.05262756347656 C 442.34124755859375 211.11544799804688 447.70989990234375 216.7183837890625 449.3417663574219 224.6072235107422" stroke-width="0.0" fill="rgb(15, 16, 24)" opacity="1.0"/>
    <path d="M 287.9532470703125 274.4522399902344 C 285.9115905761719 282.40399169921875 280.4054260253906 287.9150695800781 272.607421875 289.9642333984375 C 263.6180725097656 287.8984680175781 258.1116638183594 282.37744140625 256.0484619140625 273.5380554199219 C 258.0956726074219 265.6044006347656 263.6062927246094 260.1000671386719 272.4624328613281 258.044921875 C 280.3946228027344 260.09454345703125 285.89776611328125 265.6087341308594 287.9532470703125 274.4522399902344" stroke-width="0.0" fill="rgb(9, 14, 23)" opacity="0.993121"/>
    <path d="M 211.90589904785156 465.1986389160156 C 209.73043823242188 473.13201904296875 204.070068359375 478.5874938964844 196.4845428466797 480.3166809082031 C 188.5921630859375 477.7914123535156 183.0562744140625 472.45892333984375 181.1320343017578 464.9475402832031 C 183.010009765625 457.50128173828125 188.51307678222656 452.0520935058594 195.51600646972656 450.7485656738281 C 203.01776123046875 452.6361389160156 209.58680725097656 457.5252380371094 211.90589904785156 465.1986389160156" stroke-width="0.0" fill="rgb(110, 141, 153)" opacity="0.99016064"/>
    <path d="M 259.94891357421875 247.85354614257812 C 257.8818054199219 256.3664855957031 252.36607360839844 261.8811950683594 244.6554412841797 263.942138671875 C 235.9103546142578 261.7845764160156 231.74807739257812 255.16380310058594 229.9424591064453 248.57174682617188 C 231.88414001464844 241.34588623046875 237.34320068359375 235.8778076171875 244.61599731445312 233.93763732910156 C 252.04190063476562 235.57958984375 257.8612365722656 239.7209930419922 259.94891357421875 247.85354614257812" stroke-width="0.0" fill="rgb(43, 59, 79)" opacity="0.9900111"/>
    <path d="M 452.3682861328125 505.37506103515625 C 450.6538391113281 513.1980590820312 445.25555419921875 518.8142700195312 437.2030029296875 520.9301147460938 C 428.7261047363281 518.80810546875 423.20294189453125 513.269287109375 421.0992736816406 504.9217529296875 C 423.1943664550781 496.6947326660156 428.6737976074219 491.14263916015625 436.2623291015625 489.1074523925781 C 444.6916809082031 491.6200256347656 450.013916015625 497.4387512207031 452.3682861328125 505.37506103515625" stroke-width="0.0" fill="rgb(141, 92, 8)" opacity="0.990059"/>
    <path d="M 463.2630615234375 83.49571990966797 C 460.9903869628906 91.5 455.5 96.9903793334961 447.9978332519531 99.00211334228516 C 440.4903869628906 96.9978256225586 434.97186279296875 91.51822662353516 432.14306640625 83.2499008178711 C 434.1632080078125 75.68843078613281 439.6873474121094 70.16035461425781 448.3639221191406 68.06265258789062 C 456.3383483886719 70.13399505615234 461.78729248046875 75.68905639648438 463.2630615234375 83.49571990966797" stroke-width="0.0" fill="rgb(37, 42, 57)" opacity="0.9908729"/>
    <path d="M 471.95257568359375 221.82115173339844 C 469.8740539550781 230.33624267578125 464.2929382324219 235.7515869140625 456.4866027832031 237.46987915039062 C 448.49761962890625 234.99160766601562 442.99920654296875 229.50503540039062 440.28131103515625 221.30728149414062 C 442.1436462402344 213.63232421875 447.61669921875 208.10040283203125 456.248046875 206.0401611328125 C 464.3952941894531 208.09193420410156 469.8973083496094 213.609375 471.95257568359375 221.82115173339844" stroke-width="0.0" fill="rgb(6, 5, 7)" opacity="0.99020654"/>
    <path d="M 278.96148681640625 545.5823974609375 C 276.91546630859375 554.4111938476562 271.4132995605469 559.9204711914062 263.816650390625 561.9551391601562 C 254.80665588378906 559.7933959960938 250.0313720703125 554.01953125 247.3172607421875 545.1998901367188 C 249.1622772216797 537.6802978515625 254.66558837890625 532.130859375 263.6528015136719 530.0401000976562 C 271.4080505371094 532.0856323242188 276.9166564941406 537.5909423828125 278.96148681640625 545.5823974609375" stroke-width="0.0" fill="rgb(23, 35, 49)" opacity="1.0"/>
    <path d="M 323.9256591796875 408.2417297363281 C 321.7791748046875 416.1638488769531 316.0270690917969 421.4180908203125 307.8504638671875 423.1935119628906 C 299.8760070800781 421.5613098144531 294.189453125 416.2203674316406 292.0470275878906 407.3852844238281 C 294.1037292480469 399.6176452636719 299.6217346191406 394.1136779785156 307.3519287109375 392.0663146972656 C 316.18988037109375 394.2435607910156 321.7767028808594 399.7984313964844 323.9256591796875 408.2417297363281" stroke-width="0.0" fill="rgb(35, 46, 63)" opacity="1.0"/>
    <path d="M 299.8755187988281 420.7418212890625 C 297.85552978515625 429.371826171875 292.3910827636719 434.9084167480469 284.1974792480469 436.9615478515625 C 275.58837890625 434.9161376953125 270.0833740234375 429.4118347167969 268.0431213378906 421.50457763671875 C 270.10076904296875 412.60723876953125 275.60382080078125 407.0927429199219 283.48736572265625 405.04071044921875 C 292.3551940917969 407.1131896972656 297.8244323730469 412.6708679199219 299.8755187988281 420.7418212890625" stroke-width="0.0" fill="rgb(0, 0, 0)" opacity="1.0"/>
    <path d="M 492.9060974121094 509.7355041503906 C 490.82928466796875 518.3111572265625 485.3092956542969 523.8243408203125 477.5848388671875 525.8787231445312 C 469.46112060546875 523.3501586914062 464.05841064453125 517.38330078125 461.4241943359375 510.0141296386719 C 463.6575927734375 502.0954895019531 468.9962463378906 496.3799133300781 477.67291259765625 494.1122741699219 C 485.33343505859375 496.1485595703125 490.8452453613281 501.6689758300781 492.9060974121094 509.7355041503906" stroke-width="0.0" fill="rgb(194, 149, 25)" opacity="1.0"/>
    <path d="M 191.90521240234375 394.3343505859375 C 189.6436004638672 402.9979553222656 183.84922790527344 408.2276611328125 176.05519104003906 410.03857421875 C 168.43873596191406 408.01910400390625 162.82687377929688 402.609619140625 161.8788299560547 395.7049560546875 C 163.74264526367188 387.89715576171875 167.97714233398438 381.24346923828125 175.88186645507812 379.0926208496094 C 184.29246520996094 381.19000244140625 189.8406524658203 386.69427490234375 191.90521240234375 394.3343505859375" stroke-width="0.0" fill="rgb(63, 85, 109)" opacity="1.0"/>
    <path d="M 412.3693542480469 394.2767028808594 C 410.5351257324219 402.14019775390625 405.2558288574219 407.8420104980469 396.6687316894531 409.9480895996094 C 388.6284484863281 407.8869323730469 383.11767578125 402.3694763183594 381.0638427734375 394.69024658203125 C 383.2498474121094 385.8770751953125 389.03021240234375 380.67059326171875 396.90673828125 378.94097900390625 C 404.5000915527344 381.00958251953125 409.99212646484375 386.49945068359375 412.3693542480469 394.2767028808594" stroke-width="0.0" fill="rgb(47, 58, 75)" opacity="1.0"/>
    <path d="M 390.91162109375 592.8247680664062 C 388.7829284667969 601.170654296875 383.0267028808594 606.3799438476562 375.0371398925781 608.1128540039062 C 367.0418701171875 606.3076171875 361.2376403808594 601.1278076171875 359.0804443359375 593.3767700195312 C 361.2846984863281 584.9320678710938 367.103515625 579.75146484375 375.8114929199219 577.1076049804688 C 383.3464050292969 579.1292114257812 388.8481140136719 584.6630859375 390.91162109375 592.8247680664062" stroke-width="0.0" fill="rgb(44, 60, 78)" opacity="0.99009615"/>
    <path d="M 487.0644836425781 545.1188354492188 C 485.1692199707031 553.1220703125 481.1995544433594 559.8370971679688 472.64605712890625 561.9448852539062 C 464.6201171875 559.8895263671875 459.1032409667969 554.383056640625 457.0466003417969 545.6340942382812 C 459.0984802246094 537.6145629882812 464.6269226074219 532.1297607421875 473.7505187988281 530.0623168945312 C 481.3965759277344 532.0938720703125 486.8824157714844 537.6119384765625 487.0644836425781 545.1188354492188" stroke-width="0.0" fill="rgb(2, 4, 2)" opacity="0.9900754"/>
    <path d="M 359.580078125 255.60565185546875 C 357.6015319824219 263.1605529785156 352.16107177734375 268.6025085449219 344.384521484375 271.37579345703125 C 336.74578857421875 269.733642578125 331.1370849609375 264.3079833984375 329.0390625 255.38560485839844 C 331.093994140625 247.61468505859375 336.6324462890625 242.1380157470703 344.32391357421875 240.17410278320312 C 353.0444030761719 242.4171142578125 358.4942321777344 247.98362731933594 359.580078125 255.60565185546875" stroke-width="0.0" fill="rgb(55, 64, 92)" opacity="1.0"/>
    <path d="M 368.9393310546875 442.5995178222656 C 366.8970947265625 450.389892578125 361.3896789550781 455.896484375 353.309326171875 457.94305419921875 C 344.63031005859375 455.8835144042969 339.12310791015625 450.3668518066406 337.05255126953125 441.5010986328125 C 339.13568115234375 433.7057189941406 344.8076477050781 428.42901611328125 353.7196044921875 426.1466369628906 C 361.30303955078125 428.1720886230469 366.8365478515625 433.6934814453125 368.9393310546875 442.5995178222656" stroke-width="0.0" fill="rgb(21, 29, 45)" opacity="0.9900978"/>
    <path d="M 370.9482727050781 349.80596923828125 C 368.9151916503906 357.4034423828125 363.3982849121094 362.9035339355469 354.8930969238281 364.95245361328125 C 346.6019592285156 362.90435791015625 341.0926513671875 357.3992614746094 339.05255126953125 349.692626953125 C 341.1891784667969 340.7974548339844 346.94476318359375 335.5928955078125 354.9143981933594 333.9001159667969 C 362.88037109375 335.7786865234375 368.7425231933594 340.9172058105469 370.9482727050781 349.80596923828125" stroke-width="0.0" fill="rgb(7, 10, 20)" opacity="1.0"/>
    <path d="M 442.9540710449219 449.2984313964844 C 440.89801025390625 457.384765625 435.3786315917969 462.88336181640625 427.4171447753906 464.93890380859375 C 418.6297607421875 462.8731384277344 413.10107421875 457.3809814453125 411.0482482910156 449.6201477050781 C 413.1231384277344 440.6418151855469 418.6475830078125 435.13690185546875 427.4778137207031 433.06439208984375 C 435.3670654296875 435.12066650390625 440.8902893066406 440.6280517578125 442.9540710449219 449.2984313964844" stroke-width="0.0" fill="rgb(18, 22, 27)" opacity="0.99012357"/>
    <path d="M 414.72686767578125 220.69985961914062 C 412.8592529296875 228.37164306640625 407.38714599609375 233.9022216796875 398.5263671875 235.96051025390625 C 390.5917053222656 233.91549682617188 385.0867919921875 228.40728759765625 383.0408020019531 220.5588836669922 C 385.1717834472656 211.9703826904297 392.13946533203125 207.8381805419922 399.70831298828125 205.93858337402344 C 406.2757263183594 207.46463012695312 411.9677429199219 212.56033325195312 414.72686767578125 220.69985961914062" stroke-width="0.0" fill="rgb(7, 6, 6)" opacity="0.99002916"/>
    <path d="M 388.067626953125 196.35276794433594 C 386.2888488769531 203.5419921875 382.22869873046875 209.86134338378906 373.5629577636719 211.9607391357422 C 365.6042175292969 209.90467834472656 360.08587646484375 204.40008544921875 358.037109375 196.67759704589844 C 360.0987854003906 187.61170959472656 365.6155700683594 182.10775756835938 373.11358642578125 180.23489379882812 C 380.68804931640625 183.84722900390625 386.1460876464844 189.3146514892578 388.067626953125 196.35276794433594" stroke-width="0.0" fill="rgb(9, 10, 15)" opacity="0.9900181"/>
    <path d="M 418.9464111328125 154.22589111328125 C 416.7314453125 163.06283569335938 410.8459167480469 168.1646270751953 403.11328125 169.648193359375 C 395.3946228027344 167.93911743164062 389.494140625 162.8016357421875 387.0606384277344 154.21470642089844 C 389.1047668457031 146.6145782470703 394.61822509765625 141.11428833007812 403.599853515625 139.0714874267578 C 411.3927307128906 141.09877014160156 416.90460205078125 146.60598754882812 418.9464111328125 154.22589111328125" stroke-width="0.0" fill="rgb(2, 2, 3)" opacity="0.99016976"/>
    <path d="M 358.107177734375 152.7462921142578 C 356.89111328125 159.42190551757812 351.498046875 165.14739990234375 344.0921630859375 167.48190307617188 C 336.533447265625 165.12203979492188 331.35491943359375 159.31076049804688 329.5502624511719 152.19117736816406 C 331.53076171875 144.9607391357422 336.9328308105469 139.4454345703125 343.94793701171875 137.14979553222656 C 350.8121337890625 139.64271545410156 356.1788330078125 145.24658203125 358.107177734375 152.7462921142578" stroke-width="0.0" fill="rgb(205, 205, 210)" opacity="0.9900335"/>
    <path d="M 374.7504577636719 568.9434204101562 C 372.92529296875 576.4422607421875 367.4106140136719 581.8256225585938 359.83526611328125 583.6654663085938 C 352.5 581.9903564453125 347.0096130371094 576.5 344.3442077636719 568.3870849609375 C 346.1976013183594 560.6890258789062 351.6670837402344 555.1386108398438 359.6213684082031 553.0540771484375 C 368.1508483886719 555.207763671875 373.24456787109375 561.0547485351562 374.7504577636719 568.9434204101562" stroke-width="0.0" fill="rgb(11, 12, 21)" opacity="0.99030674"/>
    <path d="M 271.9505615234375 335.26885986328125 C 269.8975524902344 343.3863830566406 264.38519287109375 348.894775390625 256.74041748046875 350.93017578125 C 247.75233459472656 348.77667236328125 242.24490356445312 343.2401123046875 240.1468048095703 334.43853759765625 C 242.150634765625 326.6495361328125 247.6328582763672 321.109619140625 255.99215698242188 319.0450744628906 C 264.37249755859375 321.1119384765625 269.8866882324219 326.62799072265625 271.9505615234375 335.26885986328125" stroke-width="0.0" fill="rgb(48, 68, 93)" opacity="1.0"/>
    <path d="M 305.3929443359375 455.9503173828125 C 303.6927490234375 464.2679138183594 298.3333435058594 469.8814697265625 290.76422119140625 471.94482421875 C 282.13201904296875 469.5992126464844 276.9500732421875 463.64117431640625 274.19573974609375 455.22607421875 C 276.1059265136719 447.59710693359375 281.5868835449219 442.07806396484375 289.3346252441406 440.0393981933594 C 298.3373107910156 442.1172180175781 303.7075500488281 447.72344970703125 305.3929443359375 455.9503173828125" stroke-width="0.0" fill="rgb(2, 2, 3)" opacity="1.0"/>
    <path d="M 447.9567565917969 417.69000244140625 C 445.9125671386719 425.40289306640625 440.4013671875 430.9093933105469 432.3050231933594 432.9625549316406 C 423.6175842285156 430.89849853515625 418.13934326171875 425.368408203125 416.25347900390625 417.7110290527344 C 419.0096130371094 409.4999694824219 424.4991455078125 404.0066223144531 432.83294677734375 401.09344482421875 C 440.3727722167969 403.1116943359375 445.88189697265625 408.6300354003906 447.9567565917969 417.69000244140625" stroke-width="0.0" fill="rgb(33, 41, 53)" opacity="1.0"/>
    <path d="M 485.0416259765625 430.26336669921875 C 483.1015930175781 436.6481628417969 477.6825256347656 442.210693359375 470.7392578125 445.5649719238281 C 463.4393005371094 443.00927734375 457.7391662597656 437.64080810546875 455.06622314453125 429.1569519042969 C 457.1006164550781 421.6133728027344 462.6138916015625 416.1020812988281 470.1409606933594 414.082763671875 C 477.654052734375 417.8392333984375 483.09173583984375 423.36895751953125 485.0416259765625 430.26336669921875" stroke-width="0.0" fill="rgb(36, 40, 49)" opacity="0.9900198"/>
    <path d="M 340.9328918457031 388.74407958984375 C 338.8970947265625 396.38409423828125 333.38250732421875 401.8939208984375 325.7199401855469 403.94781494140625 C 316.7711181640625 401.7899169921875 311.1936340332031 396.23883056640625 309.06207275390625 387.46990966796875 C 311.12335205078125 379.640380859375 316.6402282714844 374.1229248046875 324.412353515625 372.06011962890625 C 333.29876708984375 374.1690673828125 338.8063049316406 379.71142578125 340.9328918457031 388.74407958984375" stroke-width="0.0" fill="rgb(11, 19, 31)" opacity="0.990043"/>
    <path d="M 341.9190673828125 475.23907470703125 C 339.51361083984375 483.7843322753906 333.4872741699219 488.7393798828125 326.14105224609375 490.35406494140625 C 318.7468566894531 488.5771484375 312.44598388671875 483.6918029785156 310.1025695800781 475.9613952636719 C 312.3080749511719 467.9497985839844 318.0247802734375 462.4497985839844 326.72052001953125 460.077392578125 C 334.3498229980469 462.1320495605469 339.8726806640625 467.64813232421875 341.9190673828125 475.23907470703125" stroke-width="0.0" fill="rgb(39, 49, 66)" opacity="0.99042624"/>
    <path d="M 501.1930236816406 297.3059387207031 C 499.193603515625 304.787109375 493.9539794921875 311.33050537109375 486.27825927734375 313.9341735839844 C 478.6407470703125 311.875732421875 473.13275146484375 306.35577392578125 471.0737609863281 298.5433654785156 C 473.2392578125 289.8705139160156 479.0350646972656 284.6855773925781 486.9167785644531 282.94964599609375 C 494.5 285.0096130371094 499.9903869628906 290.5 501.1930236816406 297.3059387207031" stroke-width="0.0" fill="rgb(73, 81, 91)" opacity="1.0"/>
    <path d="M 467.95062255859375 239.45506286621094 C 465.8594665527344 247.302734375 460.2494812011719 252.73565673828125 451.7322692871094 254.69398498535156 C 443.65460205078125 252.83233642578125 438.1175842285156 247.3633270263672 436.0918884277344 239.8316192626953 C 439.0010681152344 231.4922637939453 444.4909973144531 225.99676513671875 452.0744323730469 223.95045471191406 C 459.96539306640625 225.68797302246094 465.778076171875 230.85728454589844 467.95062255859375 239.45506286621094" stroke-width="0.0" fill="rgb(8, 12, 18)" opacity="0.9900437"/>
    <path d="M 470.0504455566406 94.87638092041016 C 468.1080322265625 101.64537811279297 462.66253662109375 107.15821838378906 455.1314392089844 110.90859985351562 C 447.6201171875 108.8968276977539 442.14398193359375 103.36469268798828 440.27703857421875 95.71367645263672 C 443.16058349609375 87.61372375488281 448.6029968261719 82.12598419189453 455.4736633300781 80.62495422363281 C 462.7275390625 82.77426147460938 468.13189697265625 88.3078384399414 470.0504455566406 94.87638092041016" stroke-width="0.0" fill="rgb(9, 16, 25)" opacity="0.99001485"/>
    <path d="M 250.39950561523438 375.4740295410156 C 248.74111938476562 383.2813415527344 243.32102966308594 388.8569641113281 234.77626037597656 390.935302734375 C 226.66534423828125 388.86297607421875 221.15830993652344 383.3250732421875 219.1056671142578 375.6763610839844 C 221.22824096679688 366.71002197265625 226.67861938476562 361.1433410644531 234.2109832763672 359.10888671875 C 242.54501342773438 361.91094970703125 247.98269653320312 367.4860534667969 250.39950561523438 375.4740295410156" stroke-width="0.0" fill="rgb(52, 66, 89)" opacity="1.0"/>
    <path d="M 336.895263671875 575.2896728515625 C 334.821533203125 584.3284912109375 329.34747314453125 589.8722534179688 321.04376220703125 591.947509765625 C 312.6657409667969 589.8660888671875 307.1766357421875 584.31640625 305.2118835449219 576.5321655273438 C 307.2186584472656 567.6777954101562 312.6411437988281 562.1116333007812 320.4844665527344 560.0607299804688 C 329.391845703125 562.10595703125 334.8974304199219 567.6068725585938 336.895263671875 575.2896728515625" stroke-width="0.0" fill="rgb(34, 48, 68)" opacity="1.0"/>
    <path d="M 371.90716552734375 335.5906982421875 C 369.7470703125 344.1247863769531 363.9684753417969 349.2826843261719 356.15167236328125 350.524658203125 C 348.1988830566406 348.9380798339844 342.2435302734375 344.0807800292969 340.1072082519531 336.7013854980469 C 342.349365234375 327.7955017089844 347.7373046875 322.18255615234375 355.6745910644531 320.08740234375 C 364.28900146484375 322.1885070800781 369.820556640625 327.7073669433594 371.90716552734375 335.5906982421875" stroke-width="0.0" fill="rgb(40, 58, 78)" opacity="0.99015224"/>
    <path d="M 438.8720397949219 44.841922760009766 C 436.87994384765625 52.359371185302734 431.3465576171875 57.84788131713867 423.06988525390625 59.90941619873047 C 414.7146911621094 57.81427764892578 409.18841552734375 52.28439712524414 407.09893798828125 44.43690872192383 C 409.4586181640625 36.73250198364258 416.07391357421875 31.715883255004883 423.1087646484375 29.886951446533203 C 429.83709716796875 31.7297306060791 435.31854248046875 37.14521026611328 438.8720397949219 44.841922760009766" stroke-width="0.0" fill="rgb(66, 80, 110)" opacity="0.9900315"/>
    <path d="M 414.6946105957031 385.09344482421875 C 413.0311584472656 392.5594787597656 407.5859680175781 398.1210632324219 400.1532897949219 400.075927734375 C 392.57684326171875 397.8819885253906 387.1499328613281 392.41436767578125 384.197021484375 384.2218322753906 C 386.1362609863281 376.64593505859375 391.6441955566406 371.13116455078125 399.2153625488281 369.1195373535156 C 407.68817138671875 371.7420959472656 412.9903869628906 377.3881530761719 414.6946105957031 385.09344482421875" stroke-width="0.0" fill="rgb(27, 37, 52)" opacity="0.9905073"/>
    <path d="M 291.95355224609375 310.8097229003906 C 289.9112243652344 319.4082946777344 284.41131591796875 324.9186096191406 276.6884765625 326.9591369628906 C 267.618408203125 324.89068603515625 262.1033020019531 319.3841857910156 260.0428161621094 310.87152099609375 C 262.1067199707031 302.6219482421875 267.6240234375 297.1118469238281 276.29840087890625 295.04962158203125 C 284.3829650878906 297.1083679199219 289.90289306640625 302.6120300292969 291.95355224609375 310.8097229003906" stroke-width="0.0" fill="rgb(9, 15, 21)" opacity="1.0"/>
    <path d="M 322.02069091796875 349.00830078125 C 320.153076171875 356.8025817871094 315.03509521484375 362.7216796875 306.3336486816406 364.9431457519531 C 298.6219787597656 362.8896789550781 293.1081848144531 357.3789367675781 291.04827880859375 349.0469665527344 C 293.1117858886719 340.6232604980469 298.62249755859375 335.11041259765625 306.3038635253906 333.0643310546875 C 314.9788513183594 335.31866455078125 320.11456298828125 341.2538146972656 322.02069091796875 349.00830078125" stroke-width="0.0" fill="rgb(16, 19, 28)" opacity="1.0"/>
    <path d="M 428.1697692871094 211.16026306152344 C 426.14105224609375 218.70086669921875 420.7643737792969 224.4007110595703 414.7340393066406 227.1216278076172 C 407.26556396484375 224.1839599609375 401.6905822753906 218.77195739746094 398.1061096191406 211.25253295898438 C 400.2510681152344 203.87826538085938 405.9898986816406 198.50286865234375 414.0116271972656 196.2941131591797 C 421.9891357421875 198.4995880126953 427.6642761230469 203.94419860839844 428.1697692871094 211.16026306152344" stroke-width="0.0" fill="rgb(204, 164, 153)" opacity="0.99007624"/>
    <path d="M 613.9999389648438 358.9998779296875 C 611.9871215820312 366.4893493652344 606.404052734375 371.72900390625 598.2767333984375 373.128173828125 C 590.6339111328125 372.8518371582031 585.0923461914062 367.38726806640625 583.0438232421875 359.6938781738281 C 585.1229248046875 350.64276123046875 590.645263671875 345.12799072265625 598.1826171875 343.0965576171875 C 606.50341796875 345.9983215332031 611.990478515625 351.4996643066406 613.9999389648438 358.9998779296875" stroke-width="0.0" fill="rgb(9, 14, 21)" opacity="0.9917638"/>
    <path d="M 190.93270874023438 407.1631774902344 C 188.84201049804688 415.32354736328125 183.32159423828125 420.8362731933594 175.71267700195312 422.7895812988281 C 167.5020751953125 419.9878234863281 162.01181030273438 414.498046875 160.0012664794922 406.9970703125 C 161.9984893798828 399.48016357421875 167.46246337890625 393.9386291503906 174.95545959472656 391.89227294921875 C 182.82412719726562 393.84149169921875 188.73504638671875 398.9442138671875 190.93270874023438 407.1631774902344" stroke-width="0.0" fill="rgb(51, 66, 84)" opacity="1.0"/>
    <path d="M 501.0413513183594 334.9075927734375 C 499.1175231933594 341.7097473144531 493.96490478515625 348.6753234863281 486.2479248046875 350.9577941894531 C 478.6024169921875 348.9084167480469 473.09918212890625 343.3944396972656 471.0564880371094 335.5849304199219 C 473.14495849609375 326.6695861816406 478.6745910644531 321.1563415527344 486.3512268066406 319.0911865234375 C 493.7641906738281 322.39910888671875 499.11309814453125 328.323486328125 501.0413513183594 334.9075927734375" stroke-width="0.0" fill="rgb(24, 26, 34)" opacity="0.99002"/>
    <path d="M 276.9356994628906 583.7797241210938 C 274.8372497558594 592.3062744140625 269.3013610839844 597.8253173828125 260.5120544433594 599.9215087890625 C 252.63888549804688 597.8712768554688 247.113525390625 592.3674926757812 245.06072998046875 584.7150268554688 C 247.17930603027344 575.68896484375 252.67129516601562 570.13818359375 260.5210266113281 568.0559692382812 C 269.3154296875 570.1577758789062 274.8470458984375 575.6824340820312 276.9356994628906 583.7797241210938" stroke-width="0.0" fill="rgb(64, 90, 117)" opacity="1.0"/>
    <path d="M 165.9377899169922 456.6031494140625 C 163.89593505859375 464.3839111328125 158.3764190673828 469.8763122558594 150.88150024414062 470.27288818359375 C 143.3767852783203 468.09552001953125 137.90943908691406 462.621337890625 135.95608520507812 455.5452575683594 C 137.89926147460938 449.3671569824219 143.36709594726562 443.8991394042969 150.87786865234375 441.89300537109375 C 158.37722778320312 442.1197509765625 163.88153076171875 447.6224670410156 165.9377899169922 456.6031494140625" stroke-width="0.0" fill="rgb(26, 34, 49)" opacity="0.99000806"/>
    <path d="M 434.7405700683594 407.2813720703125 C 431.8280029296875 415.3753967285156 426.394775390625 420.8931884765625 418.24322509765625 423.8794860839844 C 410.7198181152344 421.81890869140625 405.18438720703125 416.27862548828125 403.13385009765625 408.7085266113281 C 405.572509765625 400.0828552246094 410.9984436035156 394.3683166503906 419.7395935058594 392.07916259765625 C 427.3724365234375 394.1130065917969 432.85565185546875 399.6390075683594 434.7405700683594 407.2813720703125" stroke-width="0.0" fill="rgb(12, 17, 24)" opacity="0.9900694"/>
    <path d="M 339.84375 237.77784729003906 C 337.8870544433594 245.38746643066406 332.395263671875 250.906982421875 324.3063049316406 252.95652770996094 C 315.617431640625 250.89830017089844 310.1053771972656 245.38072204589844 308.0433044433594 237.26600646972656 C 310.10565185546875 228.62158203125 315.62445068359375 223.11190795898438 323.69677734375 221.05006408691406 C 332.2488708496094 223.1565399169922 337.4583740234375 228.89080810546875 339.84375 237.77784729003906" stroke-width="0.0" fill="rgb(2, 2, 2)" opacity="0.9900466"/>
    <path d="M 431.9466247558594 345.3678283691406 C 429.88226318359375 353.3688049316406 424.3679504394531 358.8804016113281 415.6051330566406 360.9492492675781 C 407.61767578125 358.8948669433594 402.1109924316406 353.3799133300781 400.115478515625 345.82196044921875 C 403.19989013671875 337.6724853515625 408.6837158203125 332.23614501953125 416.1324157714844 330.3736267089844 C 423.9626770019531 331.7488708496094 429.7987365722656 336.8368225097656 431.9466247558594 345.3678283691406" stroke-width="0.0" fill="rgb(25, 37, 48)" opacity="1.0"/>
    <path d="M 252.74134826660156 517.776123046875 C 250.8634490966797 525.3518676757812 245.34718322753906 530.851318359375 237.76515197753906 532.7123413085938 C 230.0800323486328 529.4300537109375 224.7494659423828 523.8524780273438 222.85704040527344 516.3011474609375 C 223.2657928466797 508.723388671875 228.68006896972656 503.1403503417969 236.25608825683594 501.0760498046875 C 244.6148681640625 503.5433044433594 249.60247802734375 509.72882080078125 252.74134826660156 517.776123046875" stroke-width="0.0" fill="rgb(43, 69, 92)" opacity="0.9900698"/>
    <path d="M 453.7345886230469 318.62933349609375 C 451.8052062988281 326.3049011230469 446.331787109375 331.8695983886719 437.6850280761719 333.9516296386719 C 429.6413879394531 331.8874206542969 424.1654357910156 326.33636474609375 422.0811462402344 317.59686279296875 C 424.1794128417969 309.75421142578125 429.8299865722656 304.3695373535156 438.49676513671875 302.1842041015625 C 446.0002746582031 304.33575439453125 451.2373046875 310.1661071777344 453.7345886230469 318.62933349609375" stroke-width="0.0" fill="rgb(53, 72, 89)" opacity="1.0"/>
    <path d="M 435.9136047363281 256.2001953125 C 432.4972839355469 263.8851013183594 426.84014892578125 269.3048095703125 419.6237487792969 271.3033142089844 C 412.252197265625 269.8226623535156 406.287109375 265.03314208984375 404.0843200683594 256.2629089355469 C 406.103515625 248.6099395751953 411.6064758300781 243.0951385498047 419.6396789550781 241.04513549804688 C 428.383544921875 243.10214233398438 433.88433837890625 248.6222686767578 435.9136047363281 256.2001953125" stroke-width="0.0" fill="rgb(23, 30, 34)" opacity="0.9900451"/>
    <path d="M 238.25958251953125 540.2821655273438 C 236.51864624023438 547.9847412109375 230.94967651367188 553.4050903320312 223.4276885986328 554.4614868164062 C 215.98895263671875 552.441650390625 210.2054901123047 547.0962524414062 207.1988983154297 539.418701171875 C 209.26004028320312 531.8167724609375 214.84347534179688 526.3272705078125 222.6469268798828 524.2464599609375 C 230.7459716796875 526.6110229492188 236.07241821289062 532.362548828125 238.25958251953125 540.2821655273438" stroke-width="0.0" fill="rgb(133, 164, 186)" opacity="1.0"/>
    <path d="M 289.79833984375 465.7625427246094 C 287.8861999511719 473.39263916015625 282.4008483886719 478.9089660644531 273.46783447265625 480.9574279785156 C 265.5889892578125 478.9181213378906 260.0875549316406 473.4085388183594 258.0406494140625 464.5550842285156 C 260.083984375 456.5901794433594 265.5904235839844 451.08447265625 273.16754150390625 449.0476989746094 C 281.8932800292969 451.3815612792969 287.0616760253906 457.33642578125 289.79833984375 465.7625427246094" stroke-width="0.0" fill="rgb(0, 0, 0)" opacity="1.0"/>
    <path d="M 331.9588928222656 349.6313171386719 C 329.9028625488281 357.38653564453125 324.3769836425781 362.8797607421875 316.4652099609375 364.9268798828125 C 307.9764404296875 362.7157287597656 302.8926696777344 356.77880859375 301.146484375 348.9781799316406 C 302.8587951660156 341.21875 307.9888610839844 335.29632568359375 315.44287109375 333.0919189453125 C 324.1752624511719 335.3595275878906 329.84393310546875 340.7362365722656 331.9588928222656 349.6313171386719" stroke-width="0.0" fill="rgb(3, 7, 11)" opacity="0.9902693"/>
    <path d="M 360.93389892578125 228.68267822265625 C 358.8930358886719 236.38414001464844 353.38055419921875 241.8831329345703 345.3651428222656 243.9129638671875 C 336.7701110839844 241.81884765625 331.5292053222656 236.10939025878906 329.4035949707031 227.71900939941406 C 331.5552673339844 220.2134552001953 337.342041015625 214.9259796142578 345.6750793457031 212.2563934326172 C 353.3172607421875 214.17535400390625 358.83917236328125 219.6775360107422 360.93389892578125 228.68267822265625" stroke-width="0.0" fill="rgb(8, 11, 11)" opacity="0.9900556"/>
    <path d="M 430.8077087402344 288.35809326171875 C 428.7484436035156 296.2223815917969 423.2164001464844 301.7329406738281 415.0243225097656 303.8185119628906 C 406.8526611328125 301.70513916015625 401.3970642089844 296.1105041503906 399.4296569824219 288.1464538574219 C 401.510498046875 280.07281494140625 407.1640930175781 274.85772705078125 414.84820556640625 273.68109130859375 C 422.7405700683594 275.1062927246094 428.55352783203125 280.0812683105469 430.8077087402344 288.35809326171875" stroke-width="0.0" fill="rgb(100, 149, 178)" opacity="0.990308"/>
    <path d="M 351.89874267578125 209.44932556152344 C 349.6492614746094 217.9884490966797 343.79150390625 223.03237915039062 335.3423156738281 225.56602478027344 C 327.7486572265625 223.79441833496094 322.3627014160156 218.20101928710938 320.70294189453125 210.3350067138672 C 323.0096130371094 202.49998474121094 328.49981689453125 197.00901794433594 336.7137451171875 194.18312072753906 C 344.3022766113281 196.18084716796875 349.8307189941406 201.6929931640625 351.89874267578125 209.44932556152344" stroke-width="0.0" fill="rgb(61, 87, 117)" opacity="1.0"/>
    <path d="M 467.8702087402344 498.2259826660156 C 465.1643981933594 506.6246032714844 459.5723571777344 511.9807434082031 451.82183837890625 514.1150512695312 C 444.3302917480469 512.1926879882812 438.81768798828125 506.6673278808594 436.53240966796875 498.6451416015625 C 438.3121337890625 490.7550354003906 443.70343017578125 485.158935546875 452.45159912109375 483.0741271972656 C 460.36456298828125 485.1231689453125 465.8701171875 490.63818359375 467.8702087402344 498.2259826660156" stroke-width="0.0" fill="rgb(144, 111, 26)" opacity="1.0"/>
    <path d="M 340.19329833984375 203.7300262451172 C 337.91253662109375 211.40443420410156 332.3695068359375 216.7991485595703 324.1732177734375 219.89183044433594 C 316.6314697265625 217.88609313964844 311.12799072265625 212.3624267578125 309.0862731933594 204.6982879638672 C 311.3082580566406 195.89024353027344 316.9272766113281 190.39479064941406 325.4232177734375 188.16014099121094 C 333.1672668457031 190.26499938964844 338.53955078125 195.8983612060547 340.19329833984375 203.7300262451172" stroke-width="0.0" fill="rgb(77, 99, 130)" opacity="1.0"/>
    <path d="M 168.89710998535156 485.3746643066406 C 166.8717498779297 493.3778381347656 161.39308166503906 498.9100341796875 153.83255004882812 500.9495849609375 C 146.29452514648438 497.3919677734375 140.90769958496094 491.6435852050781 138.9618682861328 484.97100830078125 C 140.91293334960938 478.3751220703125 146.35462951660156 472.8533630371094 153.85845947265625 469.116455078125 C 161.33119201660156 471.1307678222656 166.80902099609375 476.6951904296875 168.89710998535156 485.3746643066406" stroke-width="0.0" fill="rgb(14, 17, 25)" opacity="0.99001133"/>
    <path d="M 243.85462951660156 336.60406494140625 C 241.7955322265625 345.26947021484375 236.25390625 350.7529296875 228.5688934326172 352.6462707519531 C 220.5062713623047 349.9782409667969 215.00621032714844 344.49822998046875 212.77230834960938 336.7317199707031 C 214.39959716796875 328.7989196777344 219.7108154296875 323.14532470703125 228.68112182617188 321.0440673828125 C 236.38958740234375 323.0918273925781 241.86119079589844 328.62847900390625 243.85462951660156 336.60406494140625" stroke-width="0.0" fill="rgb(47, 64, 88)" opacity="1.0"/>
    <path d="M 456.9407958984375 123.30741882324219 C 454.7620544433594 132.12339782714844 448.94140625 137.26382446289062 441.41033935546875 138.31114196777344 C 433.3274230957031 136.6455841064453 427.27581787109375 132.03514099121094 425.059326171875 123.23442077636719 C 427.0970764160156 115.60746002197266 432.6086730957031 110.09991455078125 441.34637451171875 108.04524993896484 C 449.38671875 110.10107421875 454.8981018066406 115.61348724365234 456.9407958984375 123.30741882324219" stroke-width="0.0" fill="rgb(13, 13, 20)" opacity="0.99006987"/>
    <path d="M 404.4974670410156 288.08819580078125 C 402.5137939453125 295.9898376464844 397.0032043457031 301.554931640625 389.2842712402344 303.68682861328125 C 381.0771179199219 301.4381408691406 375.50958251953125 295.94085693359375 373.32122802734375 287.8307800292969 C 375.40972900390625 279.9436340332031 380.9296875 274.3720397949219 388.7671813964844 272.2323913574219 C 396.99249267578125 274.4520263671875 402.4747009277344 280.0317077636719 404.4974670410156 288.08819580078125" stroke-width="0.0" fill="rgb(135, 177, 203)" opacity="1.0"/>
    <path d="M 363.1798095703125 578.3291625976562 C 361.6183166503906 586.1771240234375 356.2344665527344 591.7901000976562 348.083740234375 593.907470703125 C 339.6701354980469 591.8430786132812 334.173828125 586.323974609375 332.15972900390625 577.8895263671875 C 334.1589660644531 569.6487426757812 339.6322021484375 564.11376953125 347.1738586425781 562.108154296875 C 355.4383239746094 565.1089477539062 360.92767333984375 570.5504760742188 363.1798095703125 578.3291625976562" stroke-width="0.0" fill="rgb(2, 2, 2)" opacity="0.9900326"/>
    <path d="M 504.0791320800781 292.3590087890625 C 502.25445556640625 298.8995056152344 497.0419616699219 304.650146484375 489.89776611328125 306.92144775390625 C 482.5001525878906 304.99005126953125 477.00933837890625 299.5000305175781 474.1080627441406 291.1944885253906 C 476.1377258300781 283.6663513183594 481.6783752441406 278.1663513183594 489.30548095703125 276.1236877441406 C 496.8250427246094 279.519775390625 502.1684875488281 285.25677490234375 504.0791320800781 292.3590087890625" stroke-width="0.0" fill="rgb(74, 81, 94)" opacity="0.9900485"/>
    <path d="M 195.6179962158203 452.4118347167969 C 193.28030395507812 459.8066101074219 187.78541564941406 465.2232971191406 180.35247802734375 467.1253356933594 C 172.756103515625 466.6226501464844 167.13809204101562 461.3139343261719 165.0496063232422 452.51776123046875 C 167.10772705078125 444.6236572265625 172.62950134277344 439.1215515136719 180.60267639160156 437.061279296875 C 189.1741180419922 439.2096862792969 194.44308471679688 444.9645080566406 195.6179962158203 452.4118347167969" stroke-width="0.0" fill="rgb(35, 50, 73)" opacity="0.9900359"/>
    <path d="M 381.06097412109375 163.94775390625 C 379.1697082519531 171.8361358642578 374.0762634277344 177.75367736816406 365.31610107421875 179.9484100341797 C 357.6197509765625 177.8931884765625 352.1119384765625 172.37814331054688 350.0841064453125 164.73245239257812 C 352.2174377441406 155.74192810058594 357.7589416503906 150.26840209960938 365.79620361328125 148.3065643310547 C 373.97467041015625 150.42037963867188 379.2642517089844 156.12869262695312 381.06097412109375 163.94775390625" stroke-width="0.0" fill="rgb(14, 20, 23)" opacity="1.0"/>
  </g>
</svg>
