<?xml version="1.0" ?>
<svg xmlns="http://www.w3.org/2000/svg" version="1.1" width="600" height="600">
  <defs/>
  <g>
    <path d="M 235.95973205566406 326.5520935058594 C 233.9055938720703 334.3919372558594 228.38687133789062 339.8937683105469 220.72433471679688 341.9407653808594 C 211.89920043945312 339.7476806640625 206.73724365234375 333.91717529296875 205.8999786376953 326.8367614746094 C 207.91688537597656 319.3913879394531 213.39602661132812 313.9278564453125 220.617431640625 311.9673156738281 C 227.43161010742188 313.8335876464844 233.87754821777344 317.7182922363281 235.95973205566406 326.5520935058594" stroke-width="0.0" fill="rgb(6, 6, 7)" opacity="0.9900108"/>
    <path d="M 175.87864685058594 488.21038818359375 C 172.99038696289062 496.5 167.5 501.9903869628906 159.80703735351562 504.1716613769531 C 151.99351501464844 502.44598388671875 146.31591796875 497.08929443359375 144.0873565673828 488.3491516113281 C 146.12681579589844 480.6329345703125 151.626708984375 475.1114501953125 159.4012908935547 473.0576477050781 C 168.32675170898438 475.1522521972656 173.8563995361328 480.66925048828125 175.87864685058594 488.21038818359375" stroke-width="0.0" fill="rgb(61, 65, 74)" opacity="1.0"/>
    <path d="M 500.9467468261719 513.6491088867188 C 498.83990478515625 522.2616577148438 493.1567687988281 527.54150390625 485.1955871582031 529.1754150390625 C 477.2620849609375 527.1412963867188 471.4884948730469 521.8656616210938 469.3899841308594 514.430908203125 C 472.0096130371094 506.5 477.5 501.0096130371094 485.4472351074219 498.5422668457031 C 493.258544921875 500.28717041015625 498.8633728027344 505.6859130859375 500.9467468261719 513.6491088867188" stroke-width="0.0" fill="rgb(111, 122, 137)" opacity="1.0"/>
    <path d="M 456.90301513671875 514.585693359375 C 454.80633544921875 522.2349243164062 449.15570068359375 527.5805053710938 441.28033447265625 529.2468872070312 C 433.5 526.9903564453125 428.0096130371094 521.5 425.29949951171875 513.4111328125 C 427.2494812011719 505.74603271484375 432.71160888671875 500.16455078125 440.44659423828125 498.07867431640625 C 449.2599792480469 500.20623779296875 454.7575378417969 505.7539367675781 456.90301513671875 514.585693359375" stroke-width="0.0" fill="rgb(126, 130, 142)" opacity="1.0"/>
    <path d="M 240.9408416748047 358.3309020996094 C 238.89306640625 366.3820495605469 233.3822021484375 371.89361572265625 224.42799377441406 373.95941162109375 C 216.59178161621094 371.9150695800781 211.0887451171875 366.40667724609375 209.0505828857422 358.51654052734375 C 211.10711669921875 349.6186218261719 216.62037658691406 344.111328125 225.0096435546875 342.0562438964844 C 233.36973571777344 344.12158203125 238.8861083984375 349.6269836425781 240.9408416748047 358.3309020996094" stroke-width="0.0" fill="rgb(14, 13, 18)" opacity="0.99062884"/>
    <path d="M 560.9120483398438 471.5956115722656 C 558.8400268554688 479.3243103027344 553.3313598632812 484.85650634765625 544.4476928710938 486.943359375 C 536.6022338867188 484.8999938964844 531.0870971679688 479.4030456542969 529.042236328125 471.5659484863281 C 531.0997924804688 462.6123046875 536.622802734375 457.1277160644531 544.2566528320312 455.206787109375 C 552.7310180664062 457.89007568359375 558.6388549804688 463.05999755859375 560.9120483398438 471.5956115722656" stroke-width="0.0" fill="rgb(26, 29, 36)" opacity="0.9905236"/>
    <path d="M 215.96209716796875 516.2660522460938 C 213.91384887695312 524.4058227539062 208.40670776367188 529.9158325195312 200.47796630859375 531.9614868164062 C 191.6052703857422 529.904541015625 186.109130859375 524.3895263671875 184.1564178466797 516.792236328125 C 187.00961303710938 508.5 192.5 503.0096130371094 200.75547790527344 500.2065124511719 C 208.38436889648438 502.11944580078125 213.90533447265625 507.6064758300781 215.96209716796875 516.2660522460938" stroke-width="0.0" fill="rgb(4, 3, 1)" opacity="1.0"/>
    <path d="M 380.89300537109375 85.72648620605469 C 378.8348388671875 93.28399658203125 373.2243957519531 98.65824127197266 365.3529357910156 100.31266784667969 C 357.5 97.9903793334961 352.0096130371094 92.5 350.01629638671875 85.02633666992188 C 352.1268615722656 77.68415832519531 357.78936767578125 72.44107818603516 364.729736328125 70.82838439941406 C 371.92889404296875 72.64060974121094 377.5620422363281 78.01644897460938 380.89300537109375 85.72648620605469" stroke-width="0.0" fill="rgb(41, 41, 51)" opacity="0.99002016"/>
    <path d="M 467.5401611328125 232.14999389648438 C 465.26251220703125 239.633544921875 459.5519104003906 245.01296997070312 452.00286865234375 247.00125122070312 C 444.5 244.99038696289062 439.0096130371094 239.5 436.9749755859375 231.9688262939453 C 438.8913879394531 224.32907104492188 444.23992919921875 218.62132263183594 451.7398986816406 216.5236053466797 C 459.73681640625 218.7797088623047 465.2770690917969 224.2462615966797 467.5401611328125 232.14999389648438" stroke-width="0.0" fill="rgb(199, 195, 199)" opacity="0.9929981"/>
    <path d="M 357.9571838378906 317.35040283203125 C 355.8783874511719 326.3585205078125 350.36041259765625 331.8823547363281 342.7909851074219 333.930908203125 C 334.0987548828125 331.5545349121094 328.4007568359375 325.9267578125 326.05487060546875 317.16241455078125 C 328.08563232421875 309.59442138671875 333.59429931640625 304.0853576660156 341.8587341308594 302.0360412597656 C 350.41180419921875 304.0836181640625 355.91839599609375 309.5873107910156 357.9571838378906 317.35040283203125" stroke-width="0.0" fill="rgb(2, 2, 3)" opacity="0.9901037"/>
    <path d="M 453.5256042480469 171.5466766357422 C 451.5810241699219 179.2134246826172 446.41912841796875 185.27845764160156 438.6201477050781 187.79197692871094 C 430.9131774902344 185.6564483642578 425.3898010253906 180.06686401367188 423.1304016113281 171.44998168945312 C 425.2160949707031 163.7889862060547 430.8714904785156 158.46060180664062 439.3370666503906 156.377685546875 C 446.97991943359375 158.41281127929688 452.3760986328125 164.09881591796875 453.5256042480469 171.5466766357422" stroke-width="0.0" fill="rgb(108, 115, 125)" opacity="0.99006015"/>
    <path d="M 465.8521423339844 563.4674682617188 C 463.78106689453125 571.2625122070312 458.272705078125 576.8062133789062 450.44580078125 578.8787231445312 C 441.7264099121094 576.7756958007812 436.168212890625 571.2957763671875 434.1097412109375 563.5343017578125 C 436.2345886230469 554.7613525390625 441.75250244140625 549.21240234375 449.4957275390625 547.106201171875 C 458.0793762207031 549.3521728515625 463.6203918457031 554.9317626953125 465.8521423339844 563.4674682617188" stroke-width="0.0" fill="rgb(134, 142, 154)" opacity="1.0"/>
    <path d="M 389.9632263183594 284.9833984375 C 387.9903869628906 292.5 382.5 297.9903869628906 374.9208679199219 300.0593566894531 C 367.1812744140625 298.2447204589844 361.5466003417969 292.8841247558594 359.65093994140625 285.279541015625 C 362.018310546875 277.51275634765625 367.51800537109375 272.0357666015625 375.0917663574219 269.93377685546875 C 382.692138671875 271.80548095703125 388.1170349121094 277.32989501953125 389.9632263183594 284.9833984375" stroke-width="0.0" fill="rgb(234, 188, 166)" opacity="1.0"/>
    <path d="M 392.56256103515625 288.6256408691406 C 390.76904296875 296.26849365234375 385.2829284667969 301.81005859375 377.06719970703125 303.9027099609375 C 368.7223815917969 301.8215026855469 363.2531433105469 296.2481689453125 361.34552001953125 288.56243896484375 C 363.9604187011719 280.428955078125 369.4015197753906 274.8704528808594 376.92999267578125 272.8721923828125 C 384.3568115234375 275.0774230957031 389.6515197753906 280.7283630371094 392.56256103515625 288.6256408691406" stroke-width="0.0" fill="rgb(214, 167, 149)" opacity="1.0"/>
    <path d="M 279.6910095214844 505.64276123046875 C 277.81787109375 513.3245849609375 272.3456115722656 518.8729248046875 264.7713928222656 520.9302368164062 C 256.1291198730469 518.5764770507812 250.92520141601562 512.6763916015625 248.83090209960938 504.7850036621094 C 250.4556121826172 496.84503173828125 255.74658203125 491.1705627441406 263.23394775390625 489.1048583984375 C 271.5711364746094 491.8309020996094 276.9967346191406 497.482421875 279.6910095214844 505.64276123046875" stroke-width="0.0" fill="rgb(28, 27, 30)" opacity="1.0"/>
    <path d="M 180.6881561279297 497.4560852050781 C 178.466552734375 506.0814514160156 173.19314575195312 511.7862854003906 164.48147583007812 513.9292602539062 C 156.64759826660156 511.8692626953125 151.12437438964844 506.3551330566406 149.1005401611328 498.8197937011719 C 152.002685546875 490.4944152832031 157.49293518066406 484.9977111816406 165.22793579101562 482.8025207519531 C 173.11300659179688 484.46954345703125 178.740478515625 489.81976318359375 180.6881561279297 497.4560852050781" stroke-width="0.0" fill="rgb(58, 61, 70)" opacity="1.0"/>
    <path d="M 280.87384033203125 434.1976013183594 C 277.9815368652344 442.4973449707031 272.4999084472656 447.9909362792969 264.1584777832031 450.9139709472656 C 256.6436767578125 448.8865966796875 251.21766662597656 443.3199462890625 249.09652709960938 434.2176208496094 C 251.10763549804688 426.618408203125 256.6212463378906 421.1148376464844 265.5649108886719 419.05291748046875 C 273.3749084472656 421.10992431640625 278.87835693359375 426.6298522949219 280.87384033203125 434.1976013183594" stroke-width="0.0" fill="rgb(32, 31, 35)" opacity="0.99144673"/>
    <path d="M 495.9954833984375 262.6904296875 C 493.6809997558594 270.3035583496094 488.4046325683594 276.01129150390625 480.62957763671875 278.5633544921875 C 473.1201477050781 276.4623718261719 467.6260681152344 270.8487854003906 465.41656494140625 262.9383239746094 C 467.7026672363281 255.26254272460938 473.2596740722656 249.70172119140625 480.7726745605469 247.8331298828125 C 488.4962158203125 250.0686798095703 494.0979309082031 255.4520721435547 495.9954833984375 262.6904296875" stroke-width="0.0" fill="rgb(203, 199, 204)" opacity="0.99022"/>
    <path d="M 206.9113006591797 504.143798828125 C 203.85044860839844 512.3863525390625 198.38644409179688 517.8510131835938 190.9395294189453 519.7527465820312 C 183.50546264648438 517.9750366210938 178.0101318359375 512.4986572265625 176.00001525878906 504.99993896484375 C 178.00933837890625 497.49908447265625 183.4901885986328 491.977294921875 191.81890869140625 489.0950622558594 C 199.38351440429688 491.1138916015625 204.90606689453125 496.6080627441406 206.9113006591797 504.143798828125" stroke-width="0.0" fill="rgb(30, 30, 32)" opacity="1.0"/>
    <path d="M 200.95220947265625 396.7032775878906 C 198.89430236816406 405.385009765625 193.38758850097656 410.9002685546875 185.69810485839844 412.94720458984375 C 176.77488708496094 410.8127136230469 171.49169921875 405.1166076660156 169.8422088623047 397.2034912109375 C 172.00961303710938 389.5 177.5 384.0096130371094 185.7154083251953 381.26171875 C 193.37806701660156 383.1322326660156 198.9023895263672 388.60968017578125 200.95220947265625 396.7032775878906" stroke-width="0.0" fill="rgb(34, 33, 35)" opacity="1.0"/>
    <path d="M 439.2891540527344 273.2680358886719 C 437.44696044921875 281.17333984375 432.3622131347656 286.9405822753906 424.2052001953125 289.87518310546875 C 416.79046630859375 287.82861328125 412.6304016113281 281.8165588378906 410.9361572265625 274.5555725097656 C 412.85272216796875 267.28729248046875 418.2609558105469 261.795166015625 425.07476806640625 259.9449157714844 C 432.437255859375 261.64520263671875 438.6941223144531 265.9731750488281 439.2891540527344 273.2680358886719" stroke-width="0.0" fill="rgb(20, 14, 12)" opacity="0.99000686"/>
    <path d="M 355.459228515625 247.58990478515625 C 352.95501708984375 255.4365234375 347.3746032714844 260.7593994140625 339.70281982421875 262.88427734375 C 332.24835205078125 261.282470703125 326.7497863769531 255.7415008544922 324.737060546875 247.98995971679688 C 326.93695068359375 240.36834716796875 332.3119201660156 234.759521484375 339.655029296875 233.82325744628906 C 348.0340881347656 234.57008361816406 353.62322998046875 239.91297912597656 355.459228515625 247.58990478515625" stroke-width="0.0" fill="rgb(246, 245, 240)" opacity="1.0"/>
    <path d="M 499.9427490234375 529.494384765625 C 497.8753967285156 537.3566284179688 492.35400390625 542.8692016601562 484.3459777832031 544.9451904296875 C 475.73211669921875 542.8214721679688 470.2264099121094 537.2460327148438 468.0940856933594 528.9747924804688 C 470.2597961425781 520.882080078125 476.0254821777344 515.6611938476562 484.05877685546875 513.8430786132812 C 492.076171875 515.5617065429688 497.81744384765625 520.7850952148438 499.9427490234375 529.494384765625" stroke-width="0.0" fill="rgb(103, 113, 123)" opacity="1.0"/>
    <path d="M 425.4012145996094 542.6685180664062 C 422.9903869628906 550.5 417.5 555.9903564453125 409.7239685058594 558.2957763671875 C 401.9203186035156 556.5304565429688 396.2404479980469 551.1665649414062 394.1395263671875 543.5576171875 C 396.2955627441406 534.8492431640625 401.90557861328125 529.471923828125 409.8345947265625 527.7282104492188 C 417.8955993652344 529.6805419921875 423.5230407714844 535.0408325195312 425.4012145996094 542.6685180664062" stroke-width="0.0" fill="rgb(190, 197, 204)" opacity="1.0"/>
    <path d="M 364.8486328125 546.1951904296875 C 362.79949951171875 554.2898559570312 357.30853271484375 559.8447265625 348.98419189453125 561.9385986328125 C 340.6746520996094 559.85107421875 335.1542663574219 554.3231201171875 333.0644226074219 545.4590454101562 C 335.1114807128906 537.6187744140625 340.613037109375 532.09814453125 348.75128173828125 530.0418090820312 C 357.3802795410156 532.1011352539062 362.847900390625 537.638427734375 364.8486328125 546.1951904296875" stroke-width="0.0" fill="rgb(61, 62, 69)" opacity="1.0"/>
    <path d="M 179.0 435.0 C 176.99038696289062 442.5 171.5 447.9903869628906 164.0 450.0 C 156.5 447.9903869628906 151.00961303710938 442.5 149.0 435.0 C 151.00961303710938 427.5 156.5 422.0096130371094 164.0 420.0 C 171.5 422.0096130371094 176.99038696289062 427.5 179.0 435.0" stroke-width="0.0" fill="rgb(25, 25, 28)" opacity="1.0"/>
    <path d="M 205.86566162109375 441.2066650390625 C 202.9904022216797 449.50006103515625 197.50125122070312 454.9947814941406 189.37759399414062 457.82635498046875 C 182.1593017578125 455.5596008300781 176.94711303710938 449.6407470703125 174.9919891357422 441.9965515136719 C 176.92800903320312 434.326904296875 182.12486267089844 428.4141845703125 190.75633239746094 426.0686340332031 C 198.37510681152344 428.10919189453125 203.87759399414062 433.6304016113281 205.86566162109375 441.2066650390625" stroke-width="0.0" fill="rgb(58, 57, 66)" opacity="1.0"/>
    <path d="M 321.9577941894531 524.6189575195312 C 319.90771484375 532.3944702148438 314.3923645019531 537.9031372070312 306.6768798828125 539.9542236328125 C 297.6351013183594 537.8800048828125 292.1214904785156 532.3641357421875 290.05462646484375 524.4518432617188 C 292.15460205078125 515.6907348632812 297.69708251953125 510.16754150390625 306.74896240234375 508.04840087890625 C 314.3944091796875 510.0918273925781 319.89361572265625 515.6119384765625 321.9577941894531 524.6189575195312" stroke-width="0.0" fill="rgb(29, 29, 33)" opacity="1.0"/>
    <path d="M 333.85650634765625 433.7084655761719 C 331.8369445800781 441.3191833496094 326.3193664550781 446.8373107910156 317.52838134765625 448.9207763671875 C 309.66522216796875 446.8563537597656 304.1493835449219 441.3323974609375 302.0774230957031 433.1981201171875 C 304.16143798828125 424.6824035644531 309.68548583984375 419.1697082519531 317.2884521484375 417.202392578125 C 325.527587890625 419.9985656738281 331.1952209472656 425.4112243652344 333.85650634765625 433.7084655761719" stroke-width="0.0" fill="rgb(84, 90, 101)" opacity="1.0"/>
    <path d="M 322.89971923828125 367.7403564453125 C 320.8569641113281 375.3316650390625 315.3262023925781 380.84478759765625 307.49884033203125 382.91375732421875 C 298.7886657714844 380.7886962890625 293.48614501953125 375.1190185546875 291.8432922363281 367.20660400390625 C 294.005126953125 359.4874267578125 299.4508056640625 353.8832702636719 306.5541687011719 352.5856628417969 C 314.32904052734375 354.3793640136719 320.3799743652344 359.3766784667969 322.89971923828125 367.7403564453125" stroke-width="0.0" fill="rgb(72, 77, 83)" opacity="0.99129575"/>
    <path d="M 483.6289978027344 319.561279296875 C 481.7420959472656 327.2005920410156 476.1526184082031 332.5885314941406 467.667236328125 333.9651184082031 C 459.7410583496094 332.72003173828125 454.132568359375 327.3160095214844 452.06060791015625 319.49407958984375 C 454.13934326171875 310.6529541015625 459.6485595703125 305.12896728515625 467.25885009765625 303.08123779296875 C 475.7577819824219 305.5254211425781 481.0249938964844 311.4132995605469 483.6289978027344 319.561279296875" stroke-width="0.0" fill="rgb(52, 55, 65)" opacity="1.0"/>
    <path d="M 402.856201171875 372.6478271484375 C 400.8149108886719 380.2981872558594 395.3054504394531 385.8327941894531 387.5611572265625 387.906494140625 C 378.80145263671875 385.7485046386719 373.319580078125 380.1729736328125 371.2912902832031 371.79364013671875 C 373.2815246582031 363.7884216308594 378.77203369140625 358.2353820800781 386.3533020019531 356.2806701660156 C 394.954345703125 358.46636962890625 400.44573974609375 364.0840148925781 402.856201171875 372.6478271484375" stroke-width="0.0" fill="rgb(92, 93, 97)" opacity="0.99004984"/>
    <path d="M 341.8056640625 350.6792907714844 C 339.8166198730469 358.2743225097656 334.2493591308594 363.7571716308594 326.6080627441406 365.79327392578125 C 318.86395263671875 362.8436584472656 313.6845703125 356.9728088378906 310.260986328125 349.1821594238281 C 312.24798583984375 341.88848876953125 318.0628662109375 336.7124938964844 325.9866638183594 334.91387939453125 C 333.7522888183594 336.80780029296875 339.3587341308594 342.1961364746094 341.8056640625 350.6792907714844" stroke-width="0.0" fill="rgb(24, 25, 29)" opacity="0.9900407"/>
    <path d="M 408.3206481933594 249.748046875 C 406.0312194824219 257.50360107421875 400.44171142578125 262.8412170410156 392.8863525390625 264.9474792480469 C 385.4940490722656 263.00811767578125 380.0092468261719 257.5010986328125 378.4606628417969 250.31361389160156 C 380.45660400390625 242.86868286132812 385.8094482421875 237.26609802246094 393.36090087890625 235.30833435058594 C 401.0062255859375 236.46168518066406 406.4541931152344 242.02066040039062 408.3206481933594 249.748046875" stroke-width="0.0" fill="rgb(243, 241, 223)" opacity="1.0"/>
    <path d="M 369.9375305175781 463.2520446777344 C 367.7531433105469 472.20135498046875 362.18963623046875 477.7254333496094 353.4267578125 479.8937072753906 C 345.6897888183594 477.8383483886719 340.1922607421875 472.2977294921875 338.0901184082031 463.5022888183594 C 340.1561279296875 455.70208740234375 345.7571105957031 450.3203125 353.91082763671875 448.5328674316406 C 362.2505798339844 450.3351135253906 367.8755187988281 455.6769714355469 369.9375305175781 463.2520446777344" stroke-width="0.0" fill="rgb(95, 99, 108)" opacity="1.0"/>
    <path d="M 139.95228576660156 547.210205078125 C 137.8905792236328 555.370849609375 132.3535919189453 560.8440551757812 124.68096160888672 562.7203369140625 C 116.5 559.9903564453125 111.0096206665039 554.5 109.7017822265625 547.5560913085938 C 111.60385131835938 539.0936279296875 115.74595642089844 533.14013671875 124.3009262084961 531.0448608398438 C 132.3789825439453 533.1063842773438 137.88856506347656 538.623291015625 139.95228576660156 547.210205078125" stroke-width="0.0" fill="rgb(31, 30, 34)" opacity="1.0"/>
    <path d="M 418.8794860839844 221.78892517089844 C 416.85577392578125 229.3201904296875 411.2873229980469 234.7667694091797 403.56890869140625 235.9356231689453 C 396.0379333496094 233.42872619628906 390.3282470703125 228.0196990966797 387.4294738769531 220.973388671875 C 389.7002258300781 213.3566436767578 395.4557800292969 207.99356079101562 402.9987487792969 205.99960327148438 C 410.50006103515625 208.0095977783203 415.9939270019531 213.4989776611328 418.8794860839844 221.78892517089844" stroke-width="0.0" fill="rgb(33, 35, 41)" opacity="0.9900493"/>
    <path d="M 419.9022521972656 580.2294311523438 C 417.6292724609375 589.1023559570312 412.12481689453125 594.6873168945312 403.44915771484375 596.8953247070312 C 395.7195129394531 594.8141479492188 390.20928955078125 589.2711181640625 388.0946960449219 580.400634765625 C 390.1402587890625 572.6563720703125 395.6603698730469 567.1505737304688 403.9823913574219 565.0883178710938 C 412.3377380371094 567.1597900390625 417.8768005371094 572.647216796875 419.9022521972656 580.2294311523438" stroke-width="0.0" fill="rgb(135, 139, 150)" opacity="1.0"/>
    <path d="M 539.7994384765625 401.7130126953125 C 537.8453979492188 409.3351135253906 532.3418579101562 414.86273193359375 524.666748046875 416.9204406738281 C 515.9161987304688 414.7095947265625 510.6800231933594 408.9452209472656 508.8498840332031 400.9905700683594 C 510.7378234863281 393.2060546875 516.171142578125 387.6247863769531 524.4708862304688 385.2717590332031 C 532.0645141601562 387.3307189941406 537.3474731445312 393.0438537597656 539.7994384765625 401.7130126953125" stroke-width="0.0" fill="rgb(129, 141, 155)" opacity="1.0"/>
    <path d="M 575.6813354492188 420.379638671875 C 573.556640625 427.9417419433594 567.8543090820312 433.30865478515625 559.6043090820312 435.5578308105469 C 551.8450317382812 433.67327880859375 546.3214111328125 428.156982421875 544.3385620117188 420.2206115722656 C 546.3414916992188 411.8476867675781 551.8103637695312 406.2484436035156 559.5084838867188 404.19146728515625 C 567.9908447265625 406.4430847167969 573.46435546875 412.04144287109375 575.6813354492188 420.379638671875" stroke-width="0.0" fill="rgb(194, 204, 214)" opacity="1.0"/>
    <path d="M 130.32791137695312 556.6862182617188 C 128.76080322265625 564.2293090820312 123.21479034423828 569.7225952148438 114.80941009521484 571.8199462890625 C 106.79090118408203 569.7411499023438 101.28832244873047 564.1986083984375 100.61341094970703 556.7074584960938 C 102.74273681640625 549.1776733398438 108.12935638427734 543.5814819335938 114.5573959350586 541.5980834960938 C 121.95059204101562 543.6177978515625 127.41670989990234 549.037109375 130.32791137695312 556.6862182617188" stroke-width="0.0" fill="rgb(126, 121, 132)" opacity="0.990055"/>
    <path d="M 254.8665771484375 441.7524108886719 C 252.8667449951172 449.34942626953125 247.35191345214844 454.87249755859375 238.4622039794922 456.94903564453125 C 230.61325073242188 454.8982238769531 225.10472106933594 449.385498046875 223.0484619140625 441.20123291015625 C 225.1265411376953 432.6744689941406 230.7281494140625 427.2619934082031 239.81211853027344 425.05865478515625 C 247.35560607910156 427.1087341308594 252.75042724609375 432.69207763671875 254.8665771484375 441.7524108886719" stroke-width="0.0" fill="rgb(98, 89, 91)" opacity="1.0"/>
    <path d="M 445.08746337890625 453.8848876953125 C 442.9903869628906 461.5 437.5 466.9903869628906 429.556396484375 469.5461120605469 C 421.79840087890625 467.66162109375 416.166259765625 462.2685546875 414.06658935546875 454.4869384765625 C 416.2247009277344 445.76568603515625 421.7685852050781 440.2337646484375 429.43902587890625 438.28729248046875 C 437.9765625 440.4593505859375 443.32940673828125 446.0893249511719 445.08746337890625 453.8848876953125" stroke-width="0.0" fill="rgb(57, 58, 67)" opacity="0.9900987"/>
    <path d="M 293.8836364746094 314.3230285644531 C 291.8275451660156 323.3417053222656 286.3637390136719 328.88720703125 277.51678466796875 330.9508972167969 C 269.601318359375 328.9073486328125 264.0930480957031 323.3984375 262.0618591308594 315.8489990234375 C 264.70001220703125 307.363037109375 270.4502868652344 301.9482116699219 278.8507385253906 299.0797119140625 C 286.39581298828125 301.09539794921875 291.8928527832031 306.6086120605469 293.8836364746094 314.3230285644531" stroke-width="0.0" fill="rgb(25, 26, 27)" opacity="1.0"/>
    <path d="M 490.72589111328125 437.9592590332031 C 488.66748046875 446.18133544921875 483.2076416015625 451.7434997558594 475.1380615234375 453.8254699707031 C 466.9759826660156 451.652587890625 461.6217346191406 445.9170227050781 459.2877197265625 437.568115234375 C 461.3788146972656 429.9543151855469 466.9929504394531 424.48577880859375 474.79498291015625 422.6169128417969 C 482.9597473144531 424.59320068359375 488.60516357421875 429.97491455078125 490.72589111328125 437.9592590332031" stroke-width="0.0" fill="rgb(166, 175, 193)" opacity="1.0"/>
    <path d="M 201.02130126953125 503.9960632324219 C 198.99989318847656 511.5077209472656 193.50782775878906 517.0003051757812 185.15599060058594 519.9156494140625 C 177.64125061035156 517.8876342773438 172.1833953857422 512.3314819335938 170.33145141601562 504.5975341796875 C 172.50656127929688 495.8755187988281 177.76028442382812 490.1743469238281 185.33505249023438 488.0807800292969 C 193.84324645996094 490.4333801269531 199.05081176757812 496.3630065917969 201.02130126953125 503.9960632324219" stroke-width="0.0" fill="rgb(33, 34, 37)" opacity="0.9907254"/>
    <path d="M 311.08282470703125 362.8682556152344 C 308.9870910644531 370.511474609375 303.578369140625 376.1979675292969 295.31396484375 378.8743896484375 C 287.7543640136719 376.7996520996094 282.2174377441406 371.2366943359375 280.0667419433594 362.40924072265625 C 282.1288146972656 354.6511535644531 287.6641540527344 349.1610412597656 295.6964111328125 347.0963439941406 C 304.143798828125 349.2431335449219 309.3857421875 354.989013671875 311.08282470703125 362.8682556152344" stroke-width="0.0" fill="rgb(73, 77, 88)" opacity="1.0"/>
    <path d="M 174.3988800048828 440.42669677734375 C 172.70997619628906 448.2568054199219 167.29507446289062 453.82794189453125 159.70265197753906 455.77325439453125 C 151.6913299560547 452.8902893066406 146.56703186035156 447.1391296386719 144.89939880371094 439.9258728027344 C 146.5684814453125 432.9070129394531 151.7892303466797 427.2344055175781 159.0706787109375 425.0612487792969 C 166.5 427.0096130371094 171.99038696289062 432.5 174.3988800048828 440.42669677734375" stroke-width="0.0" fill="rgb(23, 22, 26)" opacity="0.9900542"/>
    <path d="M 341.9615783691406 118.74404907226562 C 339.9016418457031 127.3813247680664 334.3630676269531 132.85507202148438 326.869140625 133.2188262939453 C 319.3128356933594 131.12977600097656 313.7805480957031 125.72095489501953 311.84912109375 118.75465393066406 C 313.6702575683594 112.15522766113281 319.2010498046875 106.78688049316406 326.8922119140625 103.14014434814453 C 334.3973388671875 105.09320831298828 339.9062805175781 110.60301971435547 341.9615783691406 118.74404907226562" stroke-width="0.0" fill="rgb(72, 62, 57)" opacity="0.9900139"/>
    <path d="M 385.8348693847656 415.0912170410156 C 383.7125549316406 423.1620788574219 378.13861083984375 428.6491394042969 370.3464050292969 430.6153259277344 C 361.9820861816406 428.4791259765625 356.374267578125 423.06610107421875 354.4012756347656 415.4670715332031 C 356.7295227050781 407.15435791015625 362.03900146484375 401.40557861328125 370.0251159667969 399.2000732421875 C 378.1663513183594 401.31475830078125 383.7231750488281 406.8192138671875 385.8348693847656 415.0912170410156" stroke-width="0.0" fill="rgb(161, 161, 168)" opacity="0.990449"/>
    <path d="M 519.9589233398438 480.90777587890625 C 517.9063720703125 489.3965759277344 512.3967895507812 494.9069519042969 504.78564453125 496.9505920410156 C 495.8262023925781 494.7711181640625 490.4471435546875 489.0857238769531 489.3504333496094 480.7627868652344 C 490.3869323730469 472.9323425292969 495.91217041015625 467.34033203125 504.79290771484375 465.1191101074219 C 512.4021606445312 467.0951232910156 517.9111328125 472.595458984375 519.9589233398438 480.90777587890625" stroke-width="0.0" fill="rgb(20, 23, 29)" opacity="0.9900245"/>
    <path d="M 419.6239929199219 152.51104736328125 C 417.688232421875 160.17929077148438 412.20599365234375 165.7570343017578 403.5539855957031 167.8956298828125 C 395.6978454589844 165.8270721435547 390.18896484375 160.29562377929688 388.0902404785156 151.70872497558594 C 390.2000427246094 143.7704315185547 395.8433837890625 138.40414428710938 403.6913146972656 136.7067413330078 C 411.5 139.00961303710938 416.9903869628906 144.5 419.6239929199219 152.51104736328125" stroke-width="0.0" fill="rgb(124, 126, 131)" opacity="1.0"/>
    <path d="M 165.93923950195312 458.66796875 C 163.87603759765625 466.3648681640625 158.37197875976562 471.89215087890625 150.47010803222656 473.9587707519531 C 141.65122985839844 471.8865661621094 136.29852294921875 466.2926940917969 135.9051055908203 458.6215515136719 C 137.74993896484375 451.186767578125 143.1688232421875 445.7004089355469 150.4887237548828 443.5638122558594 C 157.79794311523438 444.8515319824219 163.71597290039062 449.9712219238281 165.93923950195312 458.66796875" stroke-width="0.0" fill="rgb(23, 23, 25)" opacity="0.99002445"/>
    <path d="M 550.7587890625 344.84393310546875 C 548.8545532226562 352.345703125 543.3587646484375 357.88421630859375 535.6990356445312 359.9304504394531 C 526.6985473632812 357.82098388671875 521.2023315429688 352.2928466796875 519.0718383789062 343.2886657714844 C 521.1402587890625 335.6662292480469 526.6724853515625 330.1551513671875 534.1380615234375 329.7045593261719 C 541.68505859375 331.8590393066406 547.1636352539062 337.3060302734375 550.7587890625 344.84393310546875" stroke-width="0.0" fill="rgb(71, 75, 84)" opacity="1.0"/>
    <path d="M 444.0837707519531 101.35099029541016 C 442.18267822265625 108.7723388671875 436.8397521972656 114.35853576660156 429.4924621582031 116.1789779663086 C 421.9449157714844 115.4752197265625 416.284423828125 110.1348648071289 414.4247131347656 102.5560531616211 C 416.9996032714844 94.49578094482422 422.4985046386719 89.00910949707031 429.9997863769531 87.00004577636719 C 437.4881286621094 89.01336669921875 442.7440185546875 94.59102630615234 444.0837707519531 101.35099029541016" stroke-width="0.0" fill="rgb(6, 6, 11)" opacity="0.9900508"/>
    <path d="M 450.853515625 523.7576293945312 C 448.8317565917969 531.291259765625 443.2759094238281 536.7972412109375 434.6499938964844 538.9168701171875 C 426.7039489746094 536.8328857421875 421.27734375 531.2586059570312 419.44134521484375 523.3109741210938 C 421.5117492675781 515.040771484375 427.064208984375 509.5842590332031 434.74713134765625 507.71270751953125 C 442.4682312011719 510.07037353515625 447.9708251953125 515.519287109375 450.853515625 523.7576293945312" stroke-width="0.0" fill="rgb(95, 102, 110)" opacity="1.0"/>
    <path d="M 236.3728790283203 400.0147399902344 C 235.28326416015625 407.7997741699219 229.75962829589844 413.1235656738281 221.36631774902344 414.2709045410156 C 213.75308227539062 413.7702331542969 208.2548065185547 408.23779296875 206.23646545410156 399.7144470214844 C 208.2045440673828 391.7251892089844 213.72203063964844 386.19622802734375 221.41323852539062 384.14947509765625 C 230.07684326171875 386.368408203125 235.52073669433594 391.9578552246094 236.3728790283203 400.0147399902344" stroke-width="0.0" fill="rgb(221, 219, 217)" opacity="1.0"/>
    <path d="M 345.9258117675781 413.3484802246094 C 343.7760314941406 422.2577209472656 338.2674255371094 427.79974365234375 330.6842346191406 429.7919921875 C 322.4035949707031 427.0404052734375 316.53564453125 421.7561340332031 314.1108703613281 413.37872314453125 C 316.1585388183594 405.6592102050781 321.64678955078125 400.1269226074219 329.4248046875 398.077392578125 C 338.2900695800781 400.1850891113281 343.8389892578125 405.6993713378906 345.9258117675781 413.3484802246094" stroke-width="0.0" fill="rgb(89, 93, 99)" opacity="1.0"/>
    <path d="M 427.6459655761719 525.5756225585938 C 425.7841796875 533.26611328125 420.2429504394531 538.7097778320312 411.64654541015625 540.6824951171875 C 403.6764221191406 538.7939453125 398.11151123046875 533.3579711914062 396.05426025390625 525.6448364257812 C 398.1588134765625 516.6948852539062 403.71795654296875 511.2171325683594 411.54010009765625 509.2471618652344 C 420.070556640625 511.36370849609375 425.41168212890625 516.9996337890625 427.6459655761719 525.5756225585938" stroke-width="0.0" fill="rgb(55, 59, 66)" opacity="1.0"/>
    <path d="M 539.95068359375 453.58746337890625 C 537.899169921875 461.38433837890625 532.3804931640625 466.89080810546875 523.4071044921875 468.9581604003906 C 515.5941162109375 466.9135437011719 510.0827941894531 461.40753173828125 508.04119873046875 453.6366882324219 C 510.1011047363281 444.60760498046875 515.6039428710938 439.09259033203125 523.4593505859375 437.0456237792969 C 532.3582763671875 439.122802734375 537.8746337890625 444.6427917480469 539.95068359375 453.58746337890625" stroke-width="0.0" fill="rgb(7, 8, 13)" opacity="1.0"/>
    <path d="M 299.9458923339844 487.6358642578125 C 297.85662841796875 496.3005676269531 292.22979736328125 501.6530456542969 284.3377990722656 503.29071044921875 C 276.5 500.9903869628906 271.0096130371094 495.5 268.1174011230469 487.1903381347656 C 270.1178894042969 479.6287536621094 275.62567138671875 474.1104736328125 283.4879150390625 472.0451965332031 C 292.34881591796875 474.1346435546875 297.8793029785156 479.6446228027344 299.9458923339844 487.6358642578125" stroke-width="0.0" fill="rgb(34, 33, 37)" opacity="0.99121606"/>
    <path d="M 386.0899353027344 516.140380859375 C 384.4421081542969 524.0897827148438 379.2275695800781 529.825927734375 371.42279052734375 531.931884765625 C 362.6826171875 529.8369750976562 357.16876220703125 524.3151245117188 355.1322021484375 516.618896484375 C 357.503662109375 508.21209716796875 363.38494873046875 502.9606628417969 370.9944763183594 500.9977722167969 C 378.5 503.0096130371094 383.9903869628906 508.5 386.0899353027344 516.140380859375" stroke-width="0.0" fill="rgb(34, 36, 40)" opacity="0.99011904"/>
    <path d="M 196.8406219482422 442.059814453125 C 195.036376953125 449.6131286621094 189.78851318359375 455.4988098144531 181.2593231201172 457.9151916503906 C 173.6695098876953 455.8610534667969 168.2171173095703 450.3024597167969 166.49864196777344 442.5583190917969 C 168.9980926513672 434.4334716796875 174.24986267089844 428.52056884765625 182.24757385253906 426.0919189453125 C 189.8907012939453 428.383056640625 194.97462463378906 434.36053466796875 196.8406219482422 442.059814453125" stroke-width="0.0" fill="rgb(68, 70, 76)" opacity="1.0"/>
    <path d="M 415.9378662109375 481.7546691894531 C 413.9013977050781 489.3908996582031 408.3856506347656 494.8880310058594 400.4834289550781 496.9172668457031 C 391.63055419921875 494.8683166503906 386.1056213378906 489.3795166015625 384.0551452636719 481.55438232421875 C 386.13690185546875 472.6576843261719 391.6660461425781 467.1579895019531 399.78607177734375 465.1002502441406 C 408.23956298828125 467.21649169921875 413.78302001953125 472.7608947753906 415.9378662109375 481.7546691894531" stroke-width="0.0" fill="rgb(44, 46, 51)" opacity="1.0"/>
    <path d="M 481.49908447265625 196.39657592773438 C 479.7670593261719 203.3969268798828 474.57391357421875 209.26364135742188 466.65606689453125 211.70120239257812 C 459.0989685058594 209.54263305664062 453.8292541503906 203.77272033691406 451.9407043457031 196.0122833251953 C 453.92352294921875 188.4135284423828 459.433349609375 183.00291442871094 466.80230712890625 181.4028778076172 C 474.0647277832031 183.47866821289062 479.4641418457031 188.9552764892578 481.49908447265625 196.39657592773438" stroke-width="0.0" fill="rgb(198, 194, 198)" opacity="0.9900968"/>
    <path d="M 467.8836364746094 452.7515869140625 C 465.8682556152344 460.3592224121094 460.3601379394531 465.8699645996094 452.76513671875 467.82879638671875 C 444.5373840332031 464.96942138671875 439.1220703125 459.4348449707031 436.6165466308594 451.6617736816406 C 438.5351867675781 444.091552734375 444.1365661621094 438.6775207519531 451.8087158203125 437.2290954589844 C 459.75384521484375 438.830078125 465.4053955078125 444.17730712890625 467.8836364746094 452.7515869140625" stroke-width="0.0" fill="rgb(91, 100, 112)" opacity="0.9904195"/>
    <path d="M 340.9251708984375 336.4940185546875 C 338.7467041015625 344.0819091796875 332.8711242675781 349.2160949707031 324.8245849609375 351.1619873046875 C 316.8352966308594 349.5382995605469 311.1446533203125 344.27716064453125 309.0439758300781 335.3454284667969 C 311.083251953125 327.5876770019531 316.5865478515625 322.08056640625 324.1656799316406 320.045166015625 C 332.9960021972656 322.3310852050781 338.608642578125 328.041748046875 340.9251708984375 336.4940185546875" stroke-width="0.0" fill="rgb(24, 25, 29)" opacity="1.0"/>
    <path d="M 485.8262939453125 385.3056640625 C 484.3211364746094 392.9134521484375 479.03173828125 398.65350341796875 471.5541076660156 400.7066955566406 C 463.5 397.9903869628906 458.0096130371094 392.5 455.72808837890625 384.7560119628906 C 457.53192138671875 377.0147399902344 462.97021484375 371.4005126953125 470.6270446777344 369.2831115722656 C 478.6579284667969 371.70245361328125 483.7452087402344 377.5335388183594 485.8262939453125 385.3056640625" stroke-width="0.0" fill="rgb(192, 194, 203)" opacity="0.9915109"/>
    <path d="M 319.9546813964844 316.8150634765625 C 317.9051513671875 325.39532470703125 312.3923645019531 330.89825439453125 303.54095458984375 332.9519958496094 C 295.6046447753906 330.9065856933594 290.11676025390625 325.3865661621094 288.12640380859375 317.523681640625 C 290.14715576171875 308.6329650878906 295.6131896972656 303.0941162109375 304.1396789550781 301.0389099121094 C 312.40435791015625 303.0881042480469 317.9092712402344 308.5967712402344 319.9546813964844 316.8150634765625" stroke-width="0.0" fill="rgb(23, 23, 23)" opacity="1.0"/>
    <path d="M 379.6874084472656 500.3053894042969 C 376.9324035644531 508.4371032714844 371.376708984375 513.7493896484375 363.5126953125 515.6287841796875 C 355.8025207519531 514.6602783203125 350.20733642578125 509.24322509765625 348.10565185546875 500.6921081542969 C 350.164306640625 492.67138671875 355.6630859375 487.14337158203125 364.2135314941406 485.07562255859375 C 372.3373107910156 487.1369934082031 377.8175964355469 492.68023681640625 379.6874084472656 500.3053894042969" stroke-width="0.0" fill="rgb(182, 183, 191)" opacity="1.0"/>
    <path d="M 518.4804077148438 406.3980712890625 C 517.4863891601562 414.01934814453125 512.0795288085938 419.660888671875 504.5204772949219 421.6861572265625 C 496.6501159667969 419.0691833496094 491.2693786621094 413.26715087890625 488.7088623046875 405.41326904296875 C 490.3971252441406 398.3625183105469 497.0391845703125 393.7562255859375 504.5751647949219 391.89666748046875 C 511.1567687988281 393.433837890625 516.5523681640625 398.8524475097656 518.4804077148438 406.3980712890625" stroke-width="0.0" fill="rgb(81, 87, 91)" opacity="0.99001306"/>
    <path d="M 462.032470703125 200.01666259765625 C 460.1452331542969 207.70748901367188 454.7611389160156 213.31900024414062 446.6002197265625 215.64968872070312 C 438.8719787597656 213.63352966308594 433.266357421875 208.16748046875 431.19732666015625 200.26719665527344 C 433.3531799316406 191.9385528564453 438.96685791015625 186.42153930664062 446.80859375 184.28216552734375 C 454.78179931640625 186.5859832763672 460.1038513183594 192.32186889648438 462.032470703125 200.01666259765625" stroke-width="0.0" fill="rgb(199, 194, 198)" opacity="1.0"/>
    <path d="M 346.9378967285156 211.78428649902344 C 344.9042053222656 219.4000244140625 339.4032287597656 224.91195678710938 331.92926025390625 225.36920166015625 C 324.3927917480469 223.07168579101562 318.9067077636719 217.61676025390625 316.9613952636719 211.36244201660156 C 318.9188537597656 204.382080078125 324.36376953125 198.86814880371094 331.67864990234375 196.7034149169922 C 338.67559814453125 197.93174743652344 344.6238708496094 203.09669494628906 346.9378967285156 211.78428649902344" stroke-width="0.0" fill="rgb(6, 4, 5)" opacity="0.9900082"/>
    <path d="M 431.9122619628906 549.4555053710938 C 429.84576416015625 557.319580078125 424.3100280761719 562.822509765625 416.1142578125 564.9022216796875 C 407.7474670410156 562.7931518554688 402.2685852050781 557.2291259765625 400.2528991699219 549.499755859375 C 402.8572692871094 541.5509643554688 408.7516784667969 536.45654296875 416.5329284667969 534.7392578125 C 424.20867919921875 535.3264770507812 429.79833984375 540.7487182617188 431.9122619628906 549.4555053710938" stroke-width="0.0" fill="rgb(122, 126, 137)" opacity="1.0"/>
    <path d="M 447.13568115234375 419.84039306640625 C 445.0195007324219 427.5727844238281 439.7035217285156 433.3875732421875 431.558837890625 435.8305969238281 C 423.8423767089844 433.703369140625 418.27508544921875 428.1669921875 416.11895751953125 419.90240478515625 C 418.2542724609375 411.7857360839844 423.7574462890625 406.1943359375 431.3858642578125 404.09942626953125 C 440.08892822265625 406.318603515625 445.4137268066406 412.00152587890625 447.13568115234375 419.84039306640625" stroke-width="0.0" fill="rgb(131, 137, 153)" opacity="1.0"/>
    <path d="M 463.6568603515625 424.11383056640625 C 461.5623474121094 432.08355712890625 456.12359619140625 437.67724609375 448.3804626464844 439.70538330078125 C 440.10809326171875 437.48095703125 434.8426513671875 431.7961120605469 433.57318115234375 424.2815246582031 C 435.4817199707031 416.9587707519531 440.9942932128906 411.580322265625 448.49560546875 409.12744140625 C 455.80718994140625 410.6486511230469 461.3785095214844 416.1837158203125 463.6568603515625 424.11383056640625" stroke-width="0.0" fill="rgb(182, 188, 204)" opacity="0.9907638"/>
    <path d="M 600.9000854492188 525.5504150390625 C 598.77978515625 534.2306518554688 593.2154541015625 539.7440185546875 584.260498046875 541.913330078125 C 576.6314086914062 539.88427734375 571.14599609375 534.3572998046875 569.2294311523438 526.7151489257812 C 572.0096435546875 518.5 577.5 513.0096435546875 585.28369140625 510.754638671875 C 593.1682739257812 512.4104614257812 598.81396484375 517.7538452148438 600.9000854492188 525.5504150390625" stroke-width="0.0" fill="rgb(39, 43, 52)" opacity="0.9900581"/>
    <path d="M 197.96177673339844 374.4947204589844 C 195.8865509033203 383.3421325683594 190.28469848632812 388.7274475097656 182.2424774169922 390.55877685546875 C 173.75682067871094 388.6515808105469 168.12417602539062 383.32073974609375 166.04225158691406 374.3897399902344 C 168.08314514160156 366.58831787109375 173.58775329589844 361.0818786621094 181.4182586669922 359.04180908203125 C 190.3919219970703 361.1012268066406 195.91004943847656 366.60308837890625 197.96177673339844 374.4947204589844" stroke-width="0.0" fill="rgb(9, 8, 8)" opacity="1.0"/>
    <path d="M 562.905517578125 394.5818786621094 C 560.7974853515625 402.19879150390625 555.0814819335938 407.4877014160156 546.2367553710938 409.8841552734375 C 538.6801147460938 407.853515625 533.2197875976562 402.29217529296875 531.2882080078125 394.1903076171875 C 533.2269897460938 385.7247314453125 538.70751953125 380.17877197265625 546.3379516601562 378.1472473144531 C 555.1311645507812 380.3465881347656 560.718505859375 385.8433837890625 562.905517578125 394.5818786621094" stroke-width="0.0" fill="rgb(31, 34, 38)" opacity="0.99003345"/>
    <path d="M 149.88023376464844 499.6816101074219 C 147.86715698242188 507.35693359375 142.36070251464844 512.8764038085938 133.95664978027344 514.9442749023438 C 125.7773666381836 512.84228515625 121.79203796386719 506.3973083496094 119.95948028564453 499.6661682128906 C 121.92277526855469 492.39300537109375 127.38923645019531 486.9136657714844 134.9130401611328 484.55072021484375 C 142.36038208007812 485.1159973144531 147.81385803222656 490.6643981933594 149.88023376464844 499.6816101074219" stroke-width="0.0" fill="rgb(24, 25, 30)" opacity="0.99001276"/>
    <path d="M 367.9331970214844 345.9552001953125 C 365.7401428222656 353.85101318359375 358.9857177734375 358.2718505859375 351.1959228515625 360.1770935058594 C 343.6370544433594 359.86456298828125 338.15203857421875 354.35748291015625 336.13421630859375 345.5419921875 C 338.1321716308594 337.6321716308594 343.6228942871094 332.1080017089844 351.3241882324219 330.0575866699219 C 360.3194274902344 332.16021728515625 365.8486022949219 337.67657470703125 367.9331970214844 345.9552001953125" stroke-width="0.0" fill="rgb(26, 29, 34)" opacity="0.99003893"/>
    <path d="M 498.93878173828125 311.5030517578125 C 496.8871154785156 319.37890625 491.3816223144531 324.8935852050781 483.8078918457031 326.9346618652344 C 475.3191833496094 324.40093994140625 470.03118896484375 318.5211486816406 467.3233947753906 310.3558349609375 C 469.18408203125 302.6822814941406 474.6689758300781 297.1470642089844 482.4488220214844 295.0892333984375 C 491.3393859863281 297.15936279296875 496.8659973144531 302.65106201171875 498.93878173828125 311.5030517578125" stroke-width="0.0" fill="rgb(61, 64, 70)" opacity="1.0"/>
    <path d="M 303.946533203125 546.408447265625 C 301.9026794433594 554.3922119140625 296.3908996582031 559.8997802734375 287.7927551269531 561.9563598632812 C 279.6094055175781 559.9022216796875 274.1056823730469 554.3873291015625 272.0438537597656 545.3403930664062 C 274.08392333984375 537.5925903320312 279.59625244140625 532.0926513671875 287.6043701171875 530.0469360351562 C 296.37530517578125 532.113037109375 301.88861083984375 537.6238403320312 303.946533203125 546.408447265625" stroke-width="0.0" fill="rgb(25, 23, 27)" opacity="1.0"/>
    <path d="M 490.869384765625 474.53143310546875 C 488.6919860839844 483.1413879394531 483.11993408203125 488.6330261230469 475.0681457519531 490.6804504394531 C 466.987060546875 488.5713806152344 461.54779052734375 482.97320556640625 459.2659912109375 474.4059753417969 C 461.19622802734375 466.6982421875 466.6773376464844 461.1435852050781 474.6163635253906 459.0580749511719 C 483.273193359375 461.1800537109375 488.782958984375 466.74334716796875 490.869384765625 474.53143310546875" stroke-width="0.0" fill="rgb(126, 134, 152)" opacity="1.0"/>
    <path d="M 360.8373718261719 78.41484069824219 C 358.6676330566406 86.02433013916016 352.8794250488281 91.27705383300781 344.3814697265625 93.64859771728516 C 336.7427978515625 91.74759674072266 331.14910888671875 86.30020141601562 329.07244873046875 78.55021667480469 C 331.2015075683594 69.72472381591797 336.7257995605469 64.20547485351562 344.4652404785156 62.18546676635742 C 352.9046936035156 64.51160430908203 358.51141357421875 70.0859375 360.8373718261719 78.41484069824219" stroke-width="0.0" fill="rgb(176, 175, 181)" opacity="1.0"/>
    <path d="M 247.9621124267578 564.3229370117188 C 245.86270141601562 573.19873046875 238.93910217285156 577.1443481445312 231.67308044433594 579.0403442382812 C 224.72760009765625 577.1878051757812 218.1353759765625 573.24365234375 216.04115295410156 564.5712280273438 C 218.1008758544922 556.6187133789062 223.6248321533203 551.114501953125 232.5088653564453 549.04833984375 C 240.40283203125 551.092529296875 245.917236328125 556.5929565429688 247.9621124267578 564.3229370117188" stroke-width="0.0" fill="rgb(10, 9, 9)" opacity="0.9900539"/>
    <path d="M 613.0 431.9980773925781 C 610.9764404296875 439.4601135253906 605.3136596679688 444.5802917480469 598.2979736328125 446.0841979980469 C 591.1810913085938 444.2685852050781 585.7260131835938 438.8201904296875 583.439453125 431.1847839355469 C 584.1239624023438 423.6264343261719 589.625 418.1195068359375 597.2740478515625 416.09185791015625 C 605.662109375 418.6450500488281 611.0034790039062 424.4627685546875 613.0 431.9980773925781" stroke-width="0.0" fill="rgb(2, 2, 3)" opacity="0.990026"/>
    <path d="M 375.9129333496094 99.7918472290039 C 373.8867492675781 107.37747955322266 368.3818359375 112.89683532714844 360.2072448730469 114.95492553710938 C 351.6134033203125 112.89556121826172 346.0977783203125 107.38951873779297 344.0473327636719 99.6723861694336 C 346.16827392578125 90.73497772216797 351.8053283691406 85.35551452636719 359.62615966796875 83.99667358398438 C 367.53997802734375 86.03840637207031 373.37567138671875 91.31639099121094 375.9129333496094 99.7918472290039" stroke-width="0.0" fill="rgb(20, 23, 26)" opacity="1.0"/>
    <path d="M 568.2492065429688 453.5834045410156 C 567.6376953125 461.1758728027344 562.2218017578125 466.77178955078125 554.646240234375 468.7460021972656 C 546.3609619140625 465.9810485839844 540.3523559570312 460.9142761230469 538.0653076171875 452.3203125 C 540.1304321289062 444.6533508300781 545.6598510742188 439.1453857421875 553.2269897460938 437.1299133300781 C 561.0650634765625 440.39044189453125 566.4322509765625 445.987060546875 568.2492065429688 453.5834045410156" stroke-width="0.0" fill="rgb(62, 70, 80)" opacity="0.9900382"/>
    <path d="M 277.94940185546875 297.16827392578125 C 275.41143798828125 305.73089599609375 269.6462707519531 311.197998046875 261.1651611328125 313.9164123535156 C 253.6048126220703 311.9051208496094 248.143798828125 306.3799743652344 247.95184326171875 298.868896484375 C 249.9216766357422 291.39129638671875 255.39254760742188 285.92431640625 262.2044372558594 283.9671325683594 C 268.8081359863281 285.8894348144531 275.8705749511719 289.8310241699219 277.94940185546875 297.16827392578125" stroke-width="0.0" fill="rgb(3, 2, 2)" opacity="0.9900083"/>
    <path d="M 474.2630310058594 397.21295166015625 C 472.3995361328125 404.84442138671875 466.8726806640625 410.47210693359375 458.8022155761719 412.38226318359375 C 451.089599609375 410.49951171875 445.8918762207031 404.80389404296875 444.7181701660156 396.74676513671875 C 445.8153381347656 389.2180480957031 451.1883239746094 383.7021484375 458.6659240722656 382.6916809082031 C 466.1733703613281 384.4499816894531 471.8363037109375 389.7373046875 474.2630310058594 397.21295166015625" stroke-width="0.0" fill="rgb(250, 250, 250)" opacity="0.9903508"/>
    <path d="M 355.9451904296875 195.8182373046875 C 353.90350341796875 203.3822479248047 348.3635559082031 208.8560333251953 340.71160888671875 210.7545623779297 C 332.5223388671875 207.96104431152344 327.03253173828125 202.4794921875 325.0138244628906 194.9901885986328 C 327.0096130371094 187.5 332.5 182.00961303710938 340.1993103027344 179.832275390625 C 348.0480041503906 181.52845764160156 353.70965576171875 186.87193298339844 355.9451904296875 195.8182373046875" stroke-width="0.0" fill="rgb(15, 12, 13)" opacity="0.99801004"/>
    <path d="M 444.0728759765625 99.7262954711914 C 442.75665283203125 106.42779541015625 437.5125427246094 112.01637268066406 430.00311279296875 114.0555191040039 C 422.4794006347656 112.01361083984375 416.96142578125 106.52774810791016 414.14849853515625 98.20481872558594 C 416.1143493652344 90.62056732177734 421.6137390136719 85.09823608398438 429.1643981933594 83.05738067626953 C 436.8147888183594 86.4619140625 442.1652526855469 92.26636505126953 444.0728759765625 99.7262954711914" stroke-width="0.0" fill="rgb(7, 7, 11)" opacity="0.9901161"/>
    <path d="M 450.80352783203125 235.0525665283203 C 449.07940673828125 242.67100524902344 443.8226013183594 248.50186157226562 436.55218505859375 250.4730987548828 C 428.613037109375 247.84747314453125 423.3612365722656 242.3065643310547 420.3162841796875 234.33738708496094 C 422.32025146484375 226.880615234375 427.8865661621094 221.33714294433594 435.56939697265625 219.701416015625 C 443.6146545410156 221.7694091796875 448.9309997558594 227.48146057128906 450.80352783203125 235.0525665283203" stroke-width="0.0" fill="rgb(230, 221, 215)" opacity="1.0"/>
    <path d="M 426.29718017578125 141.7301025390625 C 424.0042724609375 149.51727294921875 418.5196228027344 155.01165771484375 411.0695495605469 156.85513305664062 C 403.62445068359375 154.8598175048828 398.20159912109375 149.35671997070312 395.2959899902344 141.35340881347656 C 397.24029541015625 133.77310180664062 402.7785339355469 128.25355529785156 411.12396240234375 126.14433288574219 C 419.14202880859375 128.2737579345703 424.5218200683594 133.9320831298828 426.29718017578125 141.7301025390625" stroke-width="0.0" fill="rgb(152, 156, 163)" opacity="1.0"/>
    <path d="M 568.9384155273438 551.2275390625 C 565.325927734375 558.684814453125 559.6309814453125 564.0836791992188 552.4690551757812 566.0347290039062 C 546.3379516601562 564.09912109375 540.0621337890625 558.7621459960938 537.0691528320312 551.2967529296875 C 539.109375 543.614501953125 544.6102905273438 538.0989990234375 552.5899658203125 536.0435791015625 C 561.388916015625 538.101806640625 566.8967895507812 543.6116333007812 568.9384155273438 551.2275390625" stroke-width="0.0" fill="rgb(3, 2, 2)" opacity="0.9900138"/>
    <path d="M 491.6775817871094 502.4287414550781 C 488.9562072753906 510.4847412109375 483.49627685546875 515.9947509765625 475.6292724609375 518.371337890625 C 467.86444091796875 516.6154174804688 462.2555847167969 511.18218994140625 460.1044006347656 502.5896911621094 C 462.2154541015625 494.77569580078125 467.8161926269531 489.31884765625 476.0891418457031 487.2651062011719 C 484.1641845703125 489.3133239746094 489.71099853515625 494.8269348144531 491.6775817871094 502.4287414550781" stroke-width="0.0" fill="rgb(128, 140, 157)" opacity="1.0"/>
    <path d="M 370.8557434082031 278.40496826171875 C 368.6893615722656 287.1859130859375 363.18670654296875 292.69415283203125 354.1569519042969 294.94354248046875 C 346.5985107421875 292.91290283203125 341.0976257324219 287.39691162109375 339.06402587890625 279.8386535644531 C 342.7363586425781 272.26300048828125 348.2544250488281 266.6995849609375 355.4601135253906 263.2849426269531 C 363.21600341796875 265.2956237792969 368.7770690917969 270.75927734375 370.8557434082031 278.40496826171875" stroke-width="0.0" fill="rgb(35, 9, 3)" opacity="0.99001336"/>
    <path d="M 217.9633331298828 547.8450927734375 C 215.90853881835938 556.400390625 210.4016571044922 561.9113159179688 202.47984313964844 563.95703125 C 193.6062774658203 561.9008178710938 188.0919189453125 556.3968505859375 186.03704833984375 548.2506713867188 C 188.093505859375 539.6033325195312 193.6032257080078 534.0932006835938 202.3254852294922 532.037109375 C 210.4056854248047 534.0853271484375 215.91197204589844 539.5955200195312 217.9633331298828 547.8450927734375" stroke-width="0.0" fill="rgb(6, 5, 5)" opacity="1.0"/>
    <path d="M 291.9286804199219 381.4085388183594 C 289.85296630859375 389.3238220214844 284.3094177246094 394.8174743652344 276.6398620605469 396.4260559082031 C 268.5008239746094 393.9805908203125 262.94598388671875 388.5199279785156 260.0681457519531 380.14459228515625 C 262.1007080078125 372.6168212890625 267.6191711425781 367.1063232421875 275.3919982910156 365.05126953125 C 284.27301025390625 367.1717224121094 289.8044738769531 372.73944091796875 291.9286804199219 381.4085388183594" stroke-width="0.0" fill="rgb(40, 43, 49)" opacity="1.0"/>
    <path d="M 180.92398071289062 425.17193603515625 C 178.36305236816406 433.75714111328125 172.71018981933594 439.2230529785156 165.07017517089844 441.197998046875 C 157.2294158935547 439.1911315917969 151.42459106445312 433.91180419921875 149.06622314453125 425.19879150390625 C 151.100341796875 417.60992431640625 156.60731506347656 412.0942687988281 164.24974060058594 410.0511169433594 C 173.37586975097656 412.1203308105469 178.89688110351562 417.61724853515625 180.92398071289062 425.17193603515625" stroke-width="0.0" fill="rgb(37, 38, 40)" opacity="1.0"/>
    <path d="M 457.04937744140625 471.9544982910156 C 454.9903869628906 479.5 449.5 484.9903869628906 441.5966796875 487.4345703125 C 433.8217468261719 485.6531982421875 428.2251892089844 480.2217102050781 426.178466796875 472.6109313964844 C 428.8251647949219 464.5700378417969 434.7153015136719 459.3257751464844 442.26153564453125 457.11199951171875 C 449.64495849609375 458.8297424316406 455.1132507324219 464.3721618652344 457.04937744140625 471.9544982910156" stroke-width="0.0" fill="rgb(80, 85, 97)" opacity="1.0"/>
    <path d="M 587.1194458007812 515.0708618164062 C 585.118408203125 522.5985717773438 579.5867309570312 528.0794677734375 571.165771484375 530.9071044921875 C 563.620361328125 528.89013671875 558.1055297851562 523.381591796875 556.0554809570312 515.5984497070312 C 558.1390380859375 506.6513671875 563.64794921875 501.1309814453125 571.2515258789062 499.1024169921875 C 579.6434936523438 501.68792724609375 585.0045166015625 507.4617919921875 587.1194458007812 515.0708618164062" stroke-width="0.0" fill="rgb(57, 61, 71)" opacity="1.0"/>
    <path d="M 463.7864685058594 478.079345703125 C 461.7286682128906 486.1957092285156 456.199462890625 491.7395324707031 448.1841735839844 493.8533935546875 C 439.8018493652344 491.732421875 434.32586669921875 486.1783752441406 433.0915222167969 478.5535583496094 C 435.55621337890625 471.0398864746094 441.0778503417969 465.6631164550781 448.5389404296875 463.8039855957031 C 456.1690368652344 464.4147033691406 461.74139404296875 469.7878723144531 463.7864685058594 478.079345703125" stroke-width="0.0" fill="rgb(134, 140, 152)" opacity="1.0"/>
    <path d="M 604.2500610351562 503.24481201171875 C 602.5426025390625 511.09881591796875 597.148193359375 516.6973876953125 589.5719604492188 518.5009765625 C 581.71533203125 515.7466430664062 576.2968139648438 510.2705993652344 573.601806640625 502.42742919921875 C 575.2857055664062 494.8091735839844 580.8069458007812 489.279052734375 588.6550903320312 487.1906433105469 C 596.836669921875 489.5005798339844 602.1182250976562 495.298583984375 604.2500610351562 503.24481201171875" stroke-width="0.0" fill="rgb(125, 135, 150)" opacity="0.99028176"/>
    <path d="M 448.69189453125 148.3624725341797 C 446.6341247558594 156.03173828125 440.9103698730469 161.22793579101562 432.49493408203125 163.55068969726562 C 424.9187927246094 161.65122985839844 419.5267639160156 156.02130126953125 417.7551574707031 148.21804809570312 C 419.9400939941406 140.392333984375 425.32177734375 134.72019958496094 433.3085632324219 132.36331176757812 C 441.07366943359375 134.38848876953125 446.5508728027344 139.94674682617188 448.69189453125 148.3624725341797" stroke-width="0.0" fill="rgb(163, 166, 178)" opacity="1.0"/>
    <path d="M 370.91082763671875 444.6681823730469 C 368.78277587890625 453.2324523925781 363.17938232421875 458.621337890625 355.284912109375 460.2934875488281 C 347.0096740722656 458.3556213378906 341.3071594238281 453.09832763671875 339.3291931152344 445.5536804199219 C 342.0096130371094 437.5 347.5 432.0096130371094 355.0304870605469 429.98529052734375 C 362.8227233886719 431.8305969238281 368.72271728515625 436.9558410644531 370.91082763671875 444.6681823730469" stroke-width="0.0" fill="rgb(101, 112, 121)" opacity="1.0"/>
    <path d="M 295.89215087890625 450.1998291015625 C 293.5965576171875 459.2059326171875 288.2983093261719 464.8637390136719 279.6937255859375 466.9544372558594 C 271.61376953125 464.8970642089844 266.1044921875 459.3856201171875 264.0917053222656 451.83807373046875 C 267.0547790527344 443.5386047363281 272.53057861328125 438.0280456542969 280.8164978027344 435.1013488769531 C 288.35546875 437.127197265625 293.87469482421875 442.6435546875 295.89215087890625 450.1998291015625" stroke-width="0.0" fill="rgb(45, 46, 50)" opacity="1.0"/>
    <path d="M 209.94117736816406 350.81268310546875 C 207.9020538330078 358.39306640625 202.39344787597656 363.90283203125 193.85137939453125 365.9593200683594 C 185.6075897216797 363.89984130859375 180.09222412109375 358.39593505859375 178.0389862060547 350.3462219238281 C 180.10861206054688 341.6493225097656 185.7042236328125 336.2655334472656 193.56568908691406 334.609375 C 201.638427734375 336.9507141113281 207.57252502441406 342.1517333984375 209.94117736816406 350.81268310546875" stroke-width="0.0" fill="rgb(2, 1, 1)" opacity="1.0"/>
    <path d="M 419.9237365722656 216.4130096435547 C 417.6297607421875 224.92015075683594 411.72393798828125 230.16989135742188 403.8868103027344 232.4334716796875 C 396.2480163574219 230.2877655029297 390.74462890625 224.7421875 388.14617919921875 216.17596435546875 C 390.09515380859375 208.60174560546875 395.6029052734375 203.09750366210938 404.41741943359375 201.04151916503906 C 412.3709716796875 203.1045379638672 417.8638610839844 208.64305114746094 419.9237365722656 216.4130096435547" stroke-width="0.0" fill="rgb(45, 45, 47)" opacity="1.0"/>
    <path d="M 369.8449401855469 442.23077392578125 C 367.1177978515625 450.6298522949219 361.6507873535156 456.1855773925781 353.97381591796875 458.3439636230469 C 346.199462890625 456.2615661621094 340.4513854980469 450.9068603515625 338.1302795410156 442.411376953125 C 340.1964416503906 434.7321472167969 345.7478942871094 429.2355041503906 354.55584716796875 427.1181640625 C 362.3532409667969 429.1418762207031 367.87017822265625 434.64208984375 369.8449401855469 442.23077392578125" stroke-width="0.0" fill="rgb(91, 104, 112)" opacity="1.0"/>
    <path d="M 214.91197204589844 337.8492736816406 C 212.8951873779297 345.3616943359375 207.31649780273438 350.7635192871094 199.48448181152344 352.41363525390625 C 191.380615234375 350.0188903808594 185.4339141845703 344.8370056152344 183.4554901123047 337.8251037597656 C 186.90269470214844 330.3785095214844 192.38247680664062 324.9131164550781 199.6566619873047 322.9585876464844 C 205.82907104492188 324.8150634765625 211.6468963623047 329.9995422363281 214.91197204589844 337.8492736816406" stroke-width="0.0" fill="rgb(19, 19, 21)" opacity="0.9900309"/>
    <path d="M 368.552734375 387.2447814941406 C 366.5030822753906 394.9306335449219 360.9072265625 400.43634033203125 352.7906799316406 402.552978515625 C 344.9868469238281 400.5612487792969 339.491455078125 394.994873046875 337.63397216796875 386.8196105957031 C 339.3665466308594 378.9065856933594 344.90435791015625 373.3592529296875 352.6709289550781 371.2607727050781 C 360.9259033203125 373.4872131347656 366.3353271484375 379.1353454589844 368.552734375 387.2447814941406" stroke-width="0.0" fill="rgb(208, 210, 212)" opacity="1.0"/>
    <path d="M 220.95542907714844 454.7245788574219 C 218.90093994140625 463.38909912109375 213.38714599609375 468.8966064453125 205.42001342773438 470.9497985839844 C 196.64572143554688 468.8752746582031 191.14605712890625 463.34552001953125 189.16748046875 455.7486877441406 C 191.9153594970703 447.4284362792969 197.42779541015625 441.9113464355469 205.842041015625 439.0961608886719 C 213.39620971679688 441.0954284667969 218.90252685546875 446.6047668457031 220.95542907714844 454.7245788574219" stroke-width="0.0" fill="rgb(20, 18, 23)" opacity="1.0"/>
    <path d="M 351.2220153808594 190.2781219482422 C 349.2421875 197.82395935058594 343.8505554199219 203.3029327392578 337.06488037109375 205.10476684570312 C 330.0965270996094 203.2914581298828 324.5588073730469 197.96353149414062 322.74053955078125 190.84002685546875 C 324.076416015625 183.1900177001953 328.9244689941406 177.2543182373047 337.55767822265625 175.06260681152344 C 345.3215637207031 177.13644409179688 350.74359130859375 182.7222137451172 351.2220153808594 190.2781219482422" stroke-width="0.0" fill="rgb(161, 155, 155)" opacity="0.99001795"/>
    <path d="M 494.605224609375 560.087158203125 C 492.0966491699219 567.626953125 486.6260681152344 573.0946044921875 479.1666259765625 575.0648193359375 C 471.7454528808594 574.75146484375 466.212890625 569.2647705078125 464.12164306640625 561.2665405273438 C 466.18035888671875 552.6758422851562 471.6556701660156 547.1290283203125 480.4931335449219 545.056640625 C 488.3766784667969 547.1111450195312 493.8924255371094 552.6217651367188 494.605224609375 560.087158203125" stroke-width="0.0" fill="rgb(37, 35, 39)" opacity="0.9900119"/>
    <path d="M 318.9450378417969 463.440673828125 C 316.883544921875 472.37921142578125 311.38616943359375 477.9004821777344 303.177978515625 479.95880126953125 C 294.62152099609375 477.8952941894531 289.117431640625 472.3730163574219 287.09869384765625 464.7825622558594 C 289.4776611328125 455.9277038574219 294.8368225097656 450.2430725097656 303.361328125 448.1051330566406 C 311.32086181640625 450.1723327636719 316.8758850097656 455.657958984375 318.9450378417969 463.440673828125" stroke-width="0.0" fill="rgb(17, 17, 17)" opacity="0.9901138"/>
    <path d="M 410.8995056152344 90.6921615600586 C 408.842041015625 98.32635498046875 403.33392333984375 103.85978698730469 395.3850402832031 105.9325180053711 C 386.6405029296875 103.8631820678711 381.11322021484375 98.36907196044922 379.0542907714844 90.51515197753906 C 381.18878173828125 81.81332397460938 387.0302734375 76.9489974975586 394.774658203125 75.78575134277344 C 402.0719299316406 77.53916931152344 408.1346740722656 82.7779312133789 410.8995056152344 90.6921615600586" stroke-width="0.0" fill="rgb(54, 60, 73)" opacity="0.9900417"/>
    <path d="M 182.21548461914062 397.2101135253906 C 180.64053344726562 405.2443542480469 175.3229217529297 410.8768005371094 167.10035705566406 412.942626953125 C 158.59698486328125 410.9062805175781 153.09347534179688 405.4029846191406 151.0386505126953 396.2904052734375 C 153.08251953125 388.59246826171875 158.59507751464844 383.0887756347656 166.240966796875 381.0519714355469 C 175.0292205810547 383.2807922363281 180.22134399414062 389.1889953613281 182.21548461914062 397.2101135253906" stroke-width="0.0" fill="rgb(3, 2, 3)" opacity="0.9902047"/>
    <path d="M 392.7428894042969 263.42669677734375 C 390.777587890625 271.27020263671875 385.2668151855469 276.767578125 377.1810607910156 278.7941589355469 C 368.88787841796875 276.6648254394531 363.3856201171875 271.0932312011719 361.47161865234375 263.424560546875 C 363.9961853027344 255.46560668945312 369.393310546875 249.77188110351562 377.6930847167969 247.14476013183594 C 385.2135009765625 249.2123565673828 390.617919921875 254.85218811035156 392.7428894042969 263.42669677734375" stroke-width="0.0" fill="rgb(192, 98, 97)" opacity="1.0"/>
    <path d="M 398.9071350097656 515.5418090820312 C 396.8755798339844 523.3794555664062 391.392333984375 528.9078979492188 383.79656982421875 530.9505004882812 C 375.00238037109375 528.699951171875 369.9057922363281 522.746826171875 367.2733459472656 514.3954467773438 C 369.2307434082031 506.7408752441406 374.7271728515625 501.19439697265625 382.6702575683594 499.0992431640625 C 391.2503662109375 501.2110900878906 396.7664489746094 506.7594909667969 398.9071350097656 515.5418090820312" stroke-width="0.0" fill="rgb(55, 57, 62)" opacity="1.0"/>
    <path d="M 294.8814697265625 496.8049621582031 C 292.8761291503906 504.36029052734375 287.3595886230469 509.874755859375 279.7904052734375 511.9224853515625 C 271.37109375 509.293701171875 266.0001525878906 503.5292663574219 263.2850646972656 495.3608093261719 C 265.2122802734375 487.7571105957031 270.81011962890625 482.3793640136719 278.68682861328125 480.7339782714844 C 286.4999084472656 483.01025390625 291.9911193847656 488.49969482421875 294.8814697265625 496.8049621582031" stroke-width="0.0" fill="rgb(30, 27, 33)" opacity="1.0"/>
    <path d="M 262.7106018066406 513.667724609375 C 260.8318176269531 521.332275390625 255.3352508544922 526.8406982421875 247.6976318359375 528.1592407226562 C 238.8693084716797 526.4404907226562 233.16761779785156 521.2507934570312 231.0685577392578 513.6610107421875 C 233.39138793945312 505.11505126953125 239.33876037597656 499.938720703125 246.99169921875 497.9966735839844 C 254.4994354248047 500.00994873046875 259.98907470703125 505.5008544921875 262.7106018066406 513.667724609375" stroke-width="0.0" fill="rgb(23, 22, 25)" opacity="0.99005055"/>
    <path d="M 376.8927307128906 252.40988159179688 C 374.6676025390625 261.09716796875 369.06488037109375 266.5838317871094 360.9026794433594 268.667724609375 C 352.768310546875 266.71795654296875 347.3451232910156 261.2179870605469 346.9028015136719 252.48069763183594 C 347.21929931640625 244.67337036132812 352.63641357421875 239.10740661621094 360.1139831542969 237.1260528564453 C 368.14227294921875 240.7613067626953 374.7979736328125 244.88954162597656 376.8927307128906 252.40988159179688" stroke-width="0.0" fill="rgb(7, 2, 2)" opacity="0.99002033"/>
    <path d="M 518.6233520507812 373.7112121582031 C 516.3587646484375 381.8358154296875 510.8045654296875 387.2427062988281 503.2573547363281 388.44854736328125 C 496.05755615234375 386.42132568359375 490.6402282714844 380.92156982421875 488.75604248046875 373.7648010253906 C 490.4598083496094 366.68487548828125 495.3533020019531 360.66082763671875 502.81549072265625 358.8978271484375 C 510.87799072265625 360.6612243652344 516.5264282226562 366.0599060058594 518.6233520507812 373.7112121582031" stroke-width="0.0" fill="rgb(154, 160, 173)" opacity="0.990038"/>
    <path d="M 261.2370910644531 503.682861328125 C 258.96185302734375 511.47869873046875 253.4829559326172 516.97607421875 245.9834747314453 518.9396362304688 C 238.06593322753906 517.2288208007812 232.21109008789062 512.1446533203125 230.0553436279297 503.37469482421875 C 232.10458374023438 495.61383056640625 237.61215209960938 490.1004333496094 245.32972717285156 488.0545654296875 C 254.28663635253906 490.1562194824219 259.6325988769531 495.7849426269531 261.2370910644531 503.682861328125" stroke-width="0.0" fill="rgb(13, 12, 16)" opacity="0.9922051"/>
    <path d="M 473.0906066894531 249.10101318359375 C 471.144775390625 256.6684875488281 465.7107849121094 262.2748718261719 457.7194519042969 264.59063720703125 C 450.105224609375 262.4996032714844 444.76129150390625 256.8077087402344 442.67822265625 248.9682159423828 C 444.8752746582031 241.41232299804688 450.4365539550781 235.95648193359375 458.0249328613281 233.941162109375 C 465.59014892578125 235.90684509277344 471.0302429199219 241.42787170410156 473.0906066894531 249.10101318359375" stroke-width="0.0" fill="rgb(201, 198, 202)" opacity="0.9912356"/>
    <path d="M 276.87164306640625 397.82830810546875 C 274.8775939941406 405.35784912109375 269.3498229980469 410.8577880859375 260.3794860839844 412.9363708496094 C 252.62623596191406 410.886962890625 247.11965942382812 405.3711242675781 245.05422973632812 396.4654235839844 C 247.10211181640625 388.61016845703125 252.61013793945312 383.1019287109375 260.15789794921875 381.08984375 C 268.49383544921875 384.0157165527344 273.90338134765625 389.5293884277344 276.87164306640625 397.82830810546875" stroke-width="0.0" fill="rgb(46, 43, 51)" opacity="1.0"/>
  </g>
</svg>
