<?xml version="1.0" ?>
<svg xmlns="http://www.w3.org/2000/svg" version="1.1" width="600" height="600">
  <defs/>
  <g>
    <path d="M 42.864654541015625 337.2875671386719 C 39.32050704956055 348.0 32.0 355.32049560546875 21.55117416381836 358.3975524902344 C 11.193605422973633 356.075927734375 3.775362968444824 348.8574523925781 1.0745375156402588 338.85968017578125 C 4.680161476135254 328.00018310546875 12.000004768371582 320.67950439453125 22.0181827545166 317.99188232421875 C 32.25182342529297 320.5533752441406 40.019004821777344 327.51251220703125 42.864654541015625 337.2875671386719" stroke-width="0.0" fill="rgb(16, 18, 21)" opacity="1.0"/>
    <path d="M 41.0 218.0 C 38.32050704956055 228.0 31.0 235.3205108642578 20.93677520751953 238.03359985351562 C 10.54341983795166 235.61380004882812 2.875291109085083 228.65489196777344 0.08363562822341919 218.75111389160156 C 3.5755856037139893 207.96705627441406 10.997161865234375 200.6786346435547 20.99997329711914 197.99998474121094 C 31.0 200.6794891357422 38.32050704956055 208.0 41.0 218.0" stroke-width="0.0" fill="rgb(2, 6, 0)" opacity="1.0"/>
    <path d="M 97.0 24.0 C 94.32051086425781 34.0 87.0 41.32050704956055 76.7673110961914 44.186256408691406 C 66.36072540283203 41.87210464477539 58.86219024658203 34.73103713989258 56.067935943603516 23.308347702026367 C 58.772666931152344 13.111696243286133 66.11234283447266 5.7742919921875 76.17176818847656 3.1069982051849365 C 87.0 6.679491996765137 94.32051086425781 14.0 97.0 24.0" stroke-width="0.0" fill="rgb(52, 58, 58)" opacity="0.9905225"/>
    <path d="M 619.0 576.0 C 616.3204956054688 586.0 609.0 593.3204956054688 599.0 596.0 C 589.0 593.3204956054688 581.6795043945312 586.0 579.43896484375 576.4818115234375 C 582.4527587890625 566.8163452148438 589.8607788085938 559.5830078125 599.8482055664062 556.9441528320312 C 608.9599609375 558.8052978515625 616.3196411132812 566.0029907226562 619.0 576.0" stroke-width="0.0" fill="rgb(87, 7, 3)" opacity="0.9900285"/>
    <path d="M 63.80398178100586 252.24229431152344 C 60.32050704956055 263.0 53.0 270.32049560546875 43.0 273.0 C 33.0 270.32049560546875 25.67949104309082 263.0 23.0 253.0 C 25.67949104309082 243.0 33.0 235.6794891357422 43.61980056762695 232.3810272216797 C 53.84792709350586 234.8434600830078 61.20424270629883 242.1365966796875 63.80398178100586 252.24229431152344" stroke-width="0.0" fill="rgb(25, 27, 34)" opacity="1.0"/>
    <path d="M 22.0 43.0 C 19.32050895690918 53.0 12.0 60.32050704956055 2.07781720161438 62.78527069091797 C -7.989944934844971 60.28952407836914 -15.320013999938965 52.99847412109375 -17.999990463256836 42.99997329711914 C -15.320508003234863 33.0 -8.0 25.67949104309082 2.0 23.0 C 12.0 25.67949104309082 19.32050895690918 33.0 22.0 43.0" stroke-width="0.0" fill="rgb(41, 48, 54)" opacity="1.0"/>
    <path d="M 69.63768768310547 181.54727172851562 C 67.07665252685547 191.70785522460938 59.662384033203125 198.93031311035156 48.38853454589844 201.71405029296875 C 38.13198471069336 199.17843627929688 30.76264762878418 191.88917541503906 28.048233032226562 181.7002410888672 C 30.85117530822754 170.25595092773438 38.326019287109375 163.02450561523438 48.84727478027344 161.32638549804688 C 59.41160583496094 163.1832733154297 66.58924865722656 170.66004943847656 69.63768768310547 181.54727172851562" stroke-width="0.0" fill="rgb(37, 71, 3)" opacity="0.99006873"/>
    <path d="M 56.0 60.0 C 53.32050704956055 70.0 46.0 77.32051086425781 36.0 80.0 C 26.0 77.32051086425781 18.67949104309082 70.0 16.0 60.0 C 18.67949104309082 50.0 26.0 42.67949295043945 36.0 40.0 C 46.0 42.67949295043945 53.32050704956055 50.0 56.0 60.0" stroke-width="0.0" fill="rgb(34, 55, 29)" opacity="1.0"/>
    <path d="M 154.65501403808594 162.32598876953125 C 151.04322814941406 172.61361694335938 143.49917602539062 179.69818115234375 133.49093627929688 182.43161010742188 C 123.54942321777344 180.70274353027344 116.09310150146484 173.514404296875 113.06488800048828 162.12490844726562 C 115.7426528930664 152.07363891601562 123.07044982910156 144.7352294921875 133.32095336914062 142.0293731689453 C 144.9028778076172 144.75025939941406 152.1853485107422 152.119873046875 154.65501403808594 162.32598876953125" stroke-width="0.0" fill="rgb(2, 2, 2)" opacity="0.9900883"/>
    <path d="M 125.0 30.0 C 122.32051086425781 40.0 115.0 47.32050704956055 105.0 50.0 C 95.0 47.32050704956055 87.67948913574219 40.0 85.0 30.0 C 87.67948913574219 20.0 95.0 12.679491996765137 105.0 10.0 C 115.0 12.679491996765137 122.32051086425781 20.0 125.0 30.0" stroke-width="0.0" fill="rgb(130, 171, 82)" opacity="1.0"/>
    <path d="M 605.8483276367188 43.83665084838867 C 602.9214477539062 53.5548095703125 595.4816284179688 60.7036247253418 586.1190795898438 63.17401885986328 C 576.548095703125 60.69706344604492 569.305419921875 53.45027160644531 565.5748291015625 43.298160552978516 C 568.0681762695312 33.53144073486328 575.6463623046875 26.3914794921875 585.9014892578125 23.913257598876953 C 596.0 26.67949104309082 603.3204956054688 34.0 605.8483276367188 43.83665084838867" stroke-width="0.0" fill="rgb(232, 178, 108)" opacity="0.9900256"/>
    <path d="M 198.85768127441406 45.21074295043945 C 195.3205108642578 56.0 188.0 63.32050704956055 178.0 66.0 C 168.0 63.32050704956055 160.6794891357422 56.0 158.0 46.0 C 160.6794891357422 36.0 168.0 28.67949104309082 178.55624389648438 25.453125 C 188.8237762451172 27.87670135498047 196.2047576904297 35.14877700805664 198.85768127441406 45.21074295043945" stroke-width="0.0" fill="rgb(66, 72, 83)" opacity="1.0"/>
    <path d="M 134.69186401367188 13.567436218261719 C 132.02711486816406 23.602582931518555 124.50080108642578 30.720741271972656 114.13424682617188 33.096702575683594 C 104.0 30.32050895690918 96.67948913574219 23.0 94.0 13.0 C 96.67948913574219 3.0 104.0 -4.320508003234863 114.0 -7.0 C 124.0 -4.320508003234863 131.3205108642578 3.0 134.69186401367188 13.567436218261719" stroke-width="0.0" fill="rgb(134, 172, 83)" opacity="1.0"/>
    <path d="M 118.91307067871094 170.51788330078125 C 116.12638854980469 180.66580200195312 108.48441314697266 187.64828491210938 98.07852935791016 190.04454040527344 C 88.0 187.3205108642578 80.67948913574219 180.0 77.60889434814453 169.5859375 C 79.9695816040039 159.2472686767578 87.18917083740234 151.80853271484375 98.73925018310547 149.03738403320312 C 108.90032958984375 151.75390625 116.19586181640625 159.11802673339844 118.91307067871094 170.51788330078125" stroke-width="0.0" fill="rgb(26, 28, 24)" opacity="1.0"/>
    <path d="M 110.00399017333984 36.99599838256836 C 107.32051086425781 47.0 100.0 54.32050704956055 90.0 57.0 C 80.0 54.32050704956055 72.67948913574219 47.0 70.01306915283203 37.021575927734375 C 72.77713012695312 27.154327392578125 80.23271179199219 20.021085739135742 90.22891235351562 17.334949493408203 C 100.0123291015625 19.666885375976562 107.33250427246094 26.987857818603516 110.00399017333984 36.99599838256836" stroke-width="0.0" fill="rgb(137, 177, 104)" opacity="0.99105835"/>
    <path d="M 134.0089874267578 39.98759078979492 C 131.3205108642578 50.0 124.0 57.32050704956055 114.0 60.0 C 104.0 57.32050704956055 96.67948913574219 50.0 93.95552062988281 39.96933364868164 C 96.62138366699219 29.97242546081543 104.00581359863281 22.7309627532959 114.11463928222656 20.023052215576172 C 124.09661865234375 22.540870666503906 131.3697509765625 29.930561065673828 134.0089874267578 39.98759078979492" stroke-width="0.0" fill="rgb(121, 166, 73)" opacity="1.0"/>
    <path d="M 194.0 2.0 C 191.3205108642578 12.0 184.0 19.32050895690918 173.9876251220703 22.005266189575195 C 163.78948974609375 19.418376922607422 155.9918670654297 12.460831642150879 153.09288024902344 2.6811017990112305 C 156.46917724609375 -8.079179763793945 163.986083984375 -15.325105667114258 173.99972534179688 -18.000089645385742 C 184.0 -15.320508003234863 191.3205108642578 -8.0 194.0 2.0" stroke-width="0.0" fill="rgb(65, 77, 80)" opacity="1.0"/>
    <path d="M 179.0 172.0 C 176.3205108642578 182.0 169.0 189.3205108642578 158.9007110595703 192.06321716308594 C 148.48397827148438 189.68817138671875 140.86175537109375 182.68637084960938 138.13047790527344 172.81146240234375 C 141.9528045654297 162.12664794921875 149.04248046875 154.69688415527344 159.001953125 152.00079345703125 C 169.0 154.6794891357422 176.3205108642578 162.0 179.0 172.0" stroke-width="0.0" fill="rgb(239, 230, 199)" opacity="0.9914196"/>
    <path d="M 347.32501220703125 14.62658977508545 C 345.0730895996094 24.808757781982422 337.8305969238281 32.151100158691406 328.1629943847656 34.381866455078125 C 318.0399475097656 32.234947204589844 310.79150390625 24.94977569580078 307.8976745605469 15.001579284667969 C 310.688232421875 4.957326412200928 317.9287414550781 -2.4121017456054688 328.04559326171875 -5.1239519119262695 C 338.2230529785156 -2.530022382736206 345.6520690917969 4.73871374130249 347.32501220703125 14.62658977508545" stroke-width="0.0" fill="rgb(247, 250, 252)" opacity="1.0"/>
    <path d="M 226.0404052734375 10.072595596313477 C 223.63079833984375 20.46436309814453 216.6460418701172 28.111431121826172 205.81671142578125 30.936233520507812 C 195.28341674804688 28.140146255493164 188.19400024414062 20.59751319885254 185.87225341796875 10.174995422363281 C 188.6794891357422 5.329070518200751e-15 196.0 -7.320508003234863 206.0 -10.0 C 216.0 -7.320508003234863 223.3205108642578 -8.881784197001252e-15 226.0404052734375 10.072595596313477" stroke-width="0.0" fill="rgb(3, 3, 4)" opacity="0.9901261"/>
    <path d="M 23.865182876586914 413.1827392578125 C 20.32050895690918 424.0 13.0 431.32049560546875 3.0 434.0 C -7.0 431.32049560546875 -14.320508003234863 424.0 -17.001556396484375 413.9957275390625 C -14.369319915771484 403.8751525878906 -7.372260570526123 396.053955078125 3.846336841583252 393.04278564453125 C 13.913450241088867 395.7470397949219 21.234325408935547 403.0939636230469 23.865182876586914 413.1827392578125" stroke-width="0.0" fill="rgb(12, 15, 20)" opacity="0.99114996"/>
    <path d="M 24.926172256469727 26.135162353515625 C 21.320600509643555 37.000247955322266 14.000828742980957 44.32266616821289 4.000693321228027 47.015628814697266 C -6.000446796417236 44.321773529052734 -13.32054615020752 37.00010299682617 -16.001041412353516 26.997140884399414 C -13.353893280029297 16.9122257232666 -6.288849353790283 9.144649505615234 4.789787769317627 6.061298847198486 C 14.890340805053711 8.770581245422363 22.236310958862305 16.106687545776367 24.926172256469727 26.135162353515625" stroke-width="0.0" fill="rgb(39, 43, 51)" opacity="1.0"/>
    <path d="M 214.02032470703125 116.96243286132812 C 211.3205108642578 127.0 204.0 134.3205108642578 193.8032684326172 137.1758270263672 C 183.5068817138672 134.77548217773438 176.1073455810547 127.52911376953125 173.134033203125 116.29047393798828 C 175.8465576171875 106.21372985839844 183.22872924804688 98.88250732421875 193.78529357910156 96.10741424560547 C 204.49485778808594 99.00479888916016 211.50723266601562 106.68939971923828 214.02032470703125 116.96243286132812" stroke-width="0.0" fill="rgb(155, 186, 105)" opacity="1.0"/>
    <path d="M 132.3714599609375 115.41132354736328 C 130.03189086914062 125.75016021728516 122.78433227539062 133.14141845703125 112.65663146972656 135.71417236328125 C 102.0 132.3205108642578 94.67948913574219 125.0 92.0 115.0 C 94.67948913574219 105.0 102.0 97.67948913574219 112.0 95.0 C 122.0 97.67948913574219 129.3205108642578 105.0 132.3714599609375 115.41132354736328" stroke-width="0.0" fill="rgb(101, 145, 65)" opacity="1.0"/>
    <path d="M 48.0 128.0 C 45.32050704956055 138.0 38.0 145.3205108642578 28.0 148.0 C 18.0 145.3205108642578 10.679491996765137 138.0 8.0 128.0 C 10.679491996765137 118.0 18.0 110.67948913574219 28.0 108.0 C 38.0 110.67948913574219 45.32050704956055 118.0 48.0 128.0" stroke-width="0.0" fill="rgb(10, 24, 1)" opacity="1.0"/>
    <path d="M 607.0 587.0 C 604.3204956054688 597.0 597.0 604.3204956054688 587.0 607.0 C 577.0 604.3204956054688 569.6795043945312 597.0 567.7092895507812 587.5308837890625 C 570.278076171875 577.41064453125 577.2367553710938 569.8076782226562 587.0218505859375 567.0106201171875 C 597.0 569.6795043945312 604.3204956054688 577.0 607.0 587.0" stroke-width="0.0" fill="rgb(127, 30, 5)" opacity="0.9921281"/>
    <path d="M 127.92158508300781 86.13093566894531 C 124.32051086425781 97.0 117.0 104.32051086425781 107.0 107.0 C 97.0 104.32051086425781 89.67948913574219 97.0 87.0 87.0 C 89.67948913574219 77.0 97.0 69.67948913574219 107.85088348388672 66.10174560546875 C 117.91230010986328 68.75399780273438 125.24813079833984 76.08695220947266 127.92158508300781 86.13093566894531" stroke-width="0.0" fill="rgb(11, 41, 0)" opacity="1.0"/>
    <path d="M 30.0 577.0 C 27.32050895690918 587.0 20.0 594.3204956054688 10.0 597.0 C 3.552713678800501e-15 594.3204956054688 -7.320508003234863 587.0 -10.0 577.0 C -7.320508003234863 567.0 -8.881784197001252e-15 559.6795043945312 10.0 557.0 C 20.0 559.6795043945312 27.32050895690918 567.0 30.0 577.0" stroke-width="0.0" fill="rgb(3, 4, 6)" opacity="1.0"/>
    <path d="M 54.89106369018555 240.18194580078125 C 51.30192947387695 250.9928741455078 43.99789810180664 258.31964111328125 33.99990463256836 260.9999694824219 C 24.0 258.32049560546875 16.67949104309082 251.0 14.0 241.0 C 16.67949104309082 231.0 24.0 223.6794891357422 34.30815124511719 220.7589111328125 C 44.74169921875 223.02406311035156 52.20298385620117 230.18142700195312 54.89106369018555 240.18194580078125" stroke-width="0.0" fill="rgb(13, 15, 17)" opacity="1.0"/>
    <path d="M 115.0006332397461 119.00177001953125 C 112.3423843383789 129.0594482421875 105.22602081298828 136.7796173095703 94.33972930908203 139.92897033691406 C 84.20699310302734 137.16815185546875 76.95620727539062 129.74879455566406 74.55435180664062 119.449462890625 C 77.67948913574219 109.0 85.0 101.67948913574219 95.0 99.0 C 105.0 101.67948913574219 112.32051086425781 109.0 115.0006332397461 119.00177001953125" stroke-width="0.0" fill="rgb(60, 115, 6)" opacity="0.99030423"/>
    <path d="M 170.00888061523438 24.98255157470703 C 167.3205108642578 35.0 160.0 42.32050704956055 150.0 45.0 C 140.0 42.32050704956055 132.6794891357422 35.0 129.25035095214844 24.397714614868164 C 131.95619201660156 14.312503814697266 139.2757110595703 6.8758225440979 149.49058532714844 4.070634841918945 C 160.4402618408203 7.022007465362549 167.431884765625 14.781391143798828 170.00888061523438 24.98255157470703" stroke-width="0.0" fill="rgb(88, 134, 37)" opacity="1.0"/>
    <path d="M 162.16281127929688 94.77911376953125 C 159.3205108642578 105.0 152.0 112.32051086425781 142.0 115.0 C 132.0 112.32051086425781 124.67948913574219 105.0 121.4451904296875 94.4308090209961 C 123.86546325683594 84.16275024414062 131.1328125 76.77826690673828 141.42869567871094 74.05179595947266 C 152.75601196289062 76.837158203125 159.87423706054688 84.3442153930664 162.16281127929688 94.77911376953125" stroke-width="0.0" fill="rgb(126, 170, 67)" opacity="1.0"/>
    <path d="M 177.83824157714844 123.82624816894531 C 175.10504150390625 134.7233123779297 167.67330932617188 141.9633026123047 156.14979553222656 144.94337463378906 C 146.12095642089844 142.23629760742188 138.8597412109375 134.84451293945312 136.42539978027344 124.5801773071289 C 139.6794891357422 114.0 147.0 106.67948913574219 157.36050415039062 103.67415618896484 C 167.71080017089844 106.01372528076172 175.12474060058594 113.24475860595703 177.83824157714844 123.82624816894531" stroke-width="0.0" fill="rgb(106, 148, 65)" opacity="1.0"/>
    <path d="M 289.0 17.0 C 286.32049560546875 27.0 279.0 34.32050704956055 269.1698303222656 36.84906768798828 C 259.439453125 33.9123649597168 252.17361450195312 26.53456687927246 249.68218994140625 16.453580856323242 C 251.23715209960938 6.586215972900391 258.5943298339844 -0.7369911670684814 268.7911682128906 -3.2393596172332764 C 279.0 -0.32050806283950806 286.32049560546875 7.0 289.0 17.0" stroke-width="0.0" fill="rgb(252, 252, 252)" opacity="1.0"/>
    <path d="M 84.11300659179688 282.3975524902344 C 81.52961730957031 292.26629638671875 74.28213500976562 299.56719970703125 64.48799133300781 302.1329650878906 C 54.395179748535156 300.7708435058594 47.022377014160156 293.64776611328125 44.60505676269531 283.3938293457031 C 47.67949295043945 273.0 55.0 265.67950439453125 64.99284362792969 263.00323486328125 C 74.88909149169922 265.7311096191406 81.8661117553711 273.256591796875 84.11300659179688 282.3975524902344" stroke-width="0.0" fill="rgb(191, 121, 79)" opacity="0.9900303"/>
    <path d="M 602.0 596.0 C 599.3204956054688 606.0 592.0 613.3204956054688 582.0025634765625 615.9990234375 C 572.0626220703125 613.2955932617188 565.0831298828125 605.8009033203125 562.8844604492188 596.4488525390625 C 565.3553466796875 586.5120239257812 572.3448486328125 578.8941650390625 582.0426635742188 576.016357421875 C 592.0 578.6795043945312 599.3204956054688 586.0 602.0 596.0" stroke-width="0.0" fill="rgb(134, 111, 72)" opacity="0.99009335"/>
    <path d="M 228.94015502929688 57.2463493347168 C 226.01304626464844 68.4913330078125 218.2715606689453 75.46339416503906 208.02252197265625 78.01044464111328 C 198.0 75.32051086425781 190.6794891357422 68.0 187.84764099121094 57.78749084472656 C 190.1291046142578 47.33936309814453 197.2359161376953 39.82969665527344 208.66561889648438 37.05109786987305 C 218.893798828125 39.76601028442383 226.22547912597656 47.10976028442383 228.94015502929688 57.2463493347168" stroke-width="0.0" fill="rgb(63, 68, 80)" opacity="1.0"/>
    <path d="M 115.88885498046875 4.900693416595459 C 113.08101654052734 14.755875587463379 105.7317123413086 22.00305938720703 95.6631851196289 25.190242767333984 C 85.9435806274414 22.5736141204834 78.96439361572266 14.866231918334961 75.26519012451172 4.371558666229248 C 78.13190460205078 -5.326664924621582 85.85990142822266 -12.384361267089844 95.9917221069336 -15.003589630126953 C 106.0 -12.320508003234863 113.32051086425781 -5.0 115.88885498046875 4.900693416595459" stroke-width="0.0" fill="rgb(98, 125, 73)" opacity="1.0"/>
    <path d="M 124.0 201.0 C 121.32051086425781 211.0 114.0 218.3205108642578 103.88031005859375 221.07696533203125 C 93.45551300048828 218.7266845703125 85.85852813720703 211.69862365722656 83.05094146728516 201.2364959716797 C 85.87934875488281 190.3497772216797 93.54550170898438 183.38365173339844 103.93418884277344 180.96414184570312 C 114.0 183.6794891357422 121.32051086425781 191.0 124.0 201.0" stroke-width="0.0" fill="rgb(191, 119, 59)" opacity="1.0"/>
    <path d="M 288.0003662109375 42.0011100769043 C 285.3341064453125 52.03770065307617 278.14666748046875 59.650211334228516 267.1520690917969 62.9300651550293 C 257.09234619140625 60.24317932128906 249.75123596191406 52.9100456237793 247.0320281982422 41.635807037353516 C 249.74493408203125 31.08445167541504 257.09625244140625 23.777931213378906 267.29296875 22.834531784057617 C 277.9588623046875 24.806684494018555 285.31939697265625 32.003631591796875 288.0003662109375 42.0011100769043" stroke-width="0.0" fill="rgb(2, 2, 2)" opacity="0.9900925"/>
    <path d="M 114.17649841308594 176.089599609375 C 111.42024993896484 186.04537963867188 104.01787567138672 193.32826232910156 93.2846908569336 196.802001953125 C 83.23786163330078 194.15118408203125 76.08145904541016 186.686767578125 73.80280303955078 176.26063537597656 C 76.6828842163086 166.00634765625 84.01273345947266 158.70481872558594 94.03008270263672 156.0218048095703 C 104.00489044189453 158.66934204101562 111.3202133178711 165.9980926513672 114.17649841308594 176.089599609375" stroke-width="0.0" fill="rgb(25, 28, 25)" opacity="1.0"/>
    <path d="M 187.95233154296875 46.01472854614258 C 185.3201446533203 55.99989318847656 178.0 63.32050704956055 168.0 66.0 C 158.0 63.32050704956055 150.6794891357422 56.0 147.87217712402344 45.88345718383789 C 150.4038543701172 35.71934127807617 157.69503784179688 28.325668334960938 167.7959442138672 25.718429565429688 C 177.99000549316406 28.68670082092285 185.29754638671875 36.014617919921875 187.95233154296875 46.01472854614258" stroke-width="0.0" fill="rgb(56, 62, 69)" opacity="0.9992291"/>
    <path d="M 27.417882919311523 140.39353942871094 C 24.96588134765625 150.63388061523438 17.629423141479492 157.95156860351562 7.370430946350098 160.38528442382812 C -3.0 157.3205108642578 -10.320508003234863 150.0 -13.0 140.0 C -10.320508003234863 130.0 -3.0 122.67948913574219 7.0 120.0 C 17.0 122.67948913574219 24.32050895690918 130.0 27.417882919311523 140.39353942871094" stroke-width="0.0" fill="rgb(3, 3, 4)" opacity="0.9900669"/>
    <path d="M 48.309261322021484 349.5410461425781 C 47.1866340637207 360.8665466308594 39.871429443359375 368.2030944824219 29.58562660217285 370.8490295410156 C 18.14496612548828 368.1581115722656 10.765466690063477 360.8821716308594 8.079985618591309 350.8624267578125 C 11.70193099975586 340.00714111328125 19.000995635986328 332.6798400878906 29.345266342163086 329.7012939453125 C 39.73057556152344 332.0120849609375 47.163970947265625 339.21209716796875 48.309261322021484 349.5410461425781" stroke-width="0.0" fill="rgb(88, 50, 17)" opacity="1.0"/>
    <path d="M 131.12982177734375 223.4939727783203 C 128.57850646972656 233.32476806640625 121.3340835571289 240.59915161132812 111.41114044189453 243.17193603515625 C 102.0439682006836 241.1964569091797 94.6820297241211 233.99229431152344 92.00005340576172 223.99984741210938 C 94.67948913574219 214.0 102.0 206.6794891357422 112.00812530517578 203.98704528808594 C 121.88207244873047 206.70370483398438 128.8178253173828 214.29388427734375 131.12982177734375 223.4939727783203" stroke-width="0.0" fill="rgb(212, 140, 80)" opacity="0.9900275"/>
    <path d="M 244.05514526367188 13.935198783874512 C 243.24671936035156 23.917036056518555 235.92129516601562 31.25749969482422 225.54566955566406 33.968162536621094 C 214.13931274414062 31.233356475830078 206.96310424804688 23.79416275024414 204.70950317382812 13.36827564239502 C 207.6790313720703 2.9996840953826904 214.99978637695312 -4.320636749267578 224.4593505859375 -6.505913734436035 C 234.14732360839844 -3.506546974182129 241.39144897460938 3.892737865447998 244.05514526367188 13.935198783874512" stroke-width="0.0" fill="rgb(2, 2, 4)" opacity="0.9900104"/>
    <path d="M 57.0 109.0 C 54.32050704956055 119.0 47.0 126.32051086425781 37.0 129.0 C 27.0 126.32051086425781 19.67949104309082 119.0 16.977237701416016 108.955078125 C 19.450742721557617 98.62190246582031 26.43349838256836 90.94837951660156 36.33428192138672 88.19220733642578 C 47.0 91.67948913574219 54.32050704956055 99.0 57.0 109.0" stroke-width="0.0" fill="rgb(41, 90, 13)" opacity="1.0"/>
    <path d="M 240.44476318359375 114.58692932128906 C 237.74575805664062 124.49214172363281 230.4942626953125 131.7509307861328 220.52622985839844 134.45603942871094 C 210.98812866210938 132.35874938964844 203.7059326171875 124.99371337890625 201.40721130371094 115.01708984375 C 203.7445068359375 105.02486419677734 211.00677490234375 97.6821060180664 221.00015258789062 95.0001449584961 C 230.99612426757812 97.68086242675781 238.2806396484375 105.01488494873047 240.44476318359375 114.58692932128906" stroke-width="0.0" fill="rgb(240, 201, 119)" opacity="0.9901292"/>
    <path d="M 76.73269653320312 110.36508178710938 C 73.32051086425781 121.0 66.0 128.3205108642578 56.0 131.0 C 46.0 128.3205108642578 38.67949295043945 121.0 36.0 111.0 C 38.67949295043945 101.0 46.0 93.67948913574219 56.19032287597656 90.86181640625 C 66.60334777832031 93.1760025024414 74.09567260742188 100.30840301513672 76.73269653320312 110.36508178710938" stroke-width="0.0" fill="rgb(44, 96, 5)" opacity="1.0"/>
    <path d="M 64.0 123.0 C 61.32050704956055 133.0 54.0 140.3205108642578 44.00050354003906 142.99977111816406 C 34.00798416137695 140.31690979003906 26.720680236816406 132.98104858398438 24.071142196655273 122.96672821044922 C 26.67949104309082 113.0 34.0 105.67948913574219 44.0 103.0 C 54.0 105.67948913574219 61.32050704956055 113.0 64.0 123.0" stroke-width="0.0" fill="rgb(106, 150, 49)" opacity="0.99072605"/>
    <path d="M 43.13767623901367 382.2557678222656 C 41.201805114746094 393.5964050292969 34.73971176147461 401.1425476074219 23.213193893432617 403.94989013671875 C 13.085928916931152 401.2492370605469 5.750345706939697 393.9142150878906 3.0392231941223145 383.5379638671875 C 5.756947040557861 372.09521484375 13.102934837341309 364.7776794433594 23.284923553466797 362.1605224609375 C 34.778411865234375 364.9128723144531 42.13532257080078 372.206298828125 43.13767623901367 382.2557678222656" stroke-width="0.0" fill="rgb(128, 80, 36)" opacity="1.0"/>
    <path d="M 37.918216705322266 199.1351318359375 C 34.31896209716797 209.9959259033203 26.991086959838867 217.3023223876953 17.006853103637695 219.89678955078125 C 7.014061450958252 217.29354858398438 -0.31608846783638 209.99249267578125 -3.00368595123291 199.98936462402344 C -0.3948052227497101 189.8390350341797 6.633190155029297 182.08680725097656 17.797147750854492 179.07394409179688 C 27.90927505493164 181.75765991210938 35.2463264465332 189.0891571044922 37.918216705322266 199.1351318359375" stroke-width="0.0" fill="rgb(13, 33, 1)" opacity="0.99017566"/>
    <path d="M 60.04660415649414 577.69921875 C 57.42744827270508 587.1368408203125 50.15684127807617 594.4859619140625 40.150325775146484 598.920166015625 C 30.21150779724121 596.1908569335938 23.1103572845459 588.6835327148438 20.845474243164062 578.22021484375 C 23.67949104309082 568.0 31.0 560.6795043945312 40.50330352783203 558.4788818359375 C 50.20235061645508 561.4474487304688 57.440250396728516 568.8365478515625 60.04660415649414 577.69921875" stroke-width="0.0" fill="rgb(128, 67, 27)" opacity="0.9900116"/>
    <path d="M 125.55011749267578 121.55537414550781 C 123.12297821044922 131.8260955810547 115.86100769042969 139.220947265625 105.69202423095703 141.95460510253906 C 94.37239837646484 139.1118927001953 87.42218780517578 131.4124298095703 84.95611572265625 121.05815124511719 C 87.67948913574219 111.0 95.0 103.67948913574219 105.0 101.0 C 115.0 103.67948913574219 122.32051086425781 111.0 125.55011749267578 121.55537414550781" stroke-width="0.0" fill="rgb(82, 141, 27)" opacity="1.0"/>
    <path d="M 25.0 112.0 C 22.32050895690918 122.0 15.0 129.3205108642578 5.0 132.0 C -5.0 129.3205108642578 -12.320508003234863 122.0 -15.0 112.0 C -12.320508003234863 102.0 -5.0 94.67948913574219 5.0 92.0 C 15.0 94.67948913574219 22.32050895690918 102.0 25.0 112.0" stroke-width="0.0" fill="rgb(14, 52, 0)" opacity="1.0"/>
    <path d="M 59.00556564331055 140.01031494140625 C 56.377132415771484 150.1038818359375 49.1907844543457 157.6423797607422 38.40960693359375 160.768310546875 C 28.230026245117188 158.11923217773438 20.911842346191406 150.75936889648438 19.5611572265625 140.66432189941406 C 22.241479873657227 130.5097198486328 29.493465423583984 123.19038391113281 39.28472900390625 120.3296890258789 C 49.0 122.67948913574219 56.32050704956055 130.0 59.00556564331055 140.01031494140625" stroke-width="0.0" fill="rgb(131, 173, 88)" opacity="0.990069"/>
    <path d="M 124.63948059082031 50.635318756103516 C 122.16693878173828 60.858177185058594 114.87454986572266 68.21659851074219 104.78858184814453 70.8392333984375 C 94.0 67.32051086425781 86.67948913574219 60.0 84.00172424316406 50.00352478027344 C 86.70269775390625 40.04851531982422 94.1156997680664 32.91326904296875 104.20628356933594 30.625505447387695 C 114.10334014892578 32.58447265625 121.3927230834961 39.90512466430664 124.63948059082031 50.635318756103516" stroke-width="0.0" fill="rgb(44, 86, 7)" opacity="0.99020034"/>
    <path d="M 153.44090270996094 42.34135818481445 C 151.5286865234375 52.327728271484375 144.474365234375 59.94794464111328 134.51187133789062 62.66341781616211 C 124.0 59.32050704956055 116.67948913574219 52.0 113.99334716796875 41.9891357421875 C 116.62689971923828 31.911338806152344 123.84838104248047 24.428096771240234 133.73760986328125 21.937015533447266 C 143.8746337890625 24.839252471923828 151.03993225097656 32.16619873046875 153.44090270996094 42.34135818481445" stroke-width="0.0" fill="rgb(106, 145, 51)" opacity="0.990764"/>
    <path d="M 65.3425064086914 54.65010070800781 C 62.32050704956055 65.0 55.0 72.32051086425781 45.0 75.0 C 35.0 72.32051086425781 27.67949104309082 65.0 25.0 55.0 C 27.67949104309082 45.0 35.0 37.67949295043945 45.651283264160156 34.244930267333984 C 55.72383117675781 36.893680572509766 62.95825958251953 44.326541900634766 65.3425064086914 54.65010070800781" stroke-width="0.0" fill="rgb(122, 164, 81)" opacity="0.99079627"/>
    <path d="M 201.13919067382812 64.1862564086914 C 198.81617736816406 74.59777069091797 191.6988067626953 82.11341094970703 181.6916961669922 84.80408477783203 C 171.0 81.32051086425781 163.6794891357422 74.0 160.99996948242188 63.999935150146484 C 163.67901611328125 53.998931884765625 170.99710083007812 46.67257308959961 181.00482177734375 43.95278549194336 C 191.00616455078125 46.66642761230469 198.3218536376953 53.99720764160156 201.13919067382812 64.1862564086914" stroke-width="0.0" fill="rgb(66, 72, 82)" opacity="1.0"/>
    <path d="M 314.98443603515625 32.00802230834961 C 312.32049560546875 42.0 305.0 49.32050704956055 295.6589050292969 51.33808898925781 C 285.8697814941406 48.46281433105469 278.5979919433594 41.108741760253906 275.9498291015625 31.14175033569336 C 277.91217041015625 22.086084365844727 285.0122985839844 14.683462142944336 295.0321350097656 11.95705795288086 C 305.0413818359375 14.612838745117188 312.3167419433594 21.97987937927246 314.98443603515625 32.00802230834961" stroke-width="0.0" fill="rgb(243, 243, 237)" opacity="0.9900238"/>
    <path d="M 618.0 22.99994659423828 C 615.3194580078125 32.996761322021484 607.9757080078125 40.246124267578125 598.496337890625 42.2037467956543 C 588.5122680664062 39.70237350463867 581.0438842773438 32.571842193603516 577.84375 22.75557518005371 C 580.3903198242188 12.711630821228027 587.7044677734375 5.368897914886475 597.8839111328125 2.649686574935913 C 608.0032958984375 5.668161869049072 615.320556640625 12.999773025512695 618.0 22.99994659423828" stroke-width="0.0" fill="rgb(245, 248, 252)" opacity="0.9900834"/>
    <path d="M 77.84536743164062 264.2340393066406 C 74.32051086425781 275.0 67.0 282.32049560546875 57.0 285.0 C 47.0 282.32049560546875 39.67949295043945 275.0 37.00019073486328 265.00048828125 C 39.68418502807617 255.01214599609375 47.04741287231445 247.802001953125 57.72976303100586 244.3253173828125 C 67.84496307373047 246.81973266601562 75.19097900390625 254.15113830566406 77.84536743164062 264.2340393066406" stroke-width="0.0" fill="rgb(159, 91, 40)" opacity="0.9909777"/>
    <path d="M 147.52171325683594 190.51644897460938 C 144.42469787597656 201.02267456054688 137.0786590576172 208.5825958251953 127.29911041259766 211.58450317382812 C 116.99824523925781 208.32666015625 109.6794662475586 201.00009155273438 107.62137603759766 191.5258331298828 C 110.38184356689453 181.62741088867188 117.6155014038086 174.36447143554688 127.71454620361328 171.90061950683594 C 137.78244018554688 172.90133666992188 145.0843963623047 180.22235107421875 147.52171325683594 190.51644897460938" stroke-width="0.0" fill="rgb(247, 185, 115)" opacity="0.99005765"/>
    <path d="M 101.3704605102539 40.81636047363281 C 98.34037780761719 51.00921630859375 91.00440979003906 58.323394775390625 81.00020599365234 61.0006103515625 C 70.98100280761719 58.32706832885742 63.45558166503906 51.088619232177734 60.102783203125 40.310977935791016 C 62.97553253173828 30.539424896240234 70.90076446533203 23.873416900634766 81.38925170898438 20.861042022705078 C 91.35095977783203 23.265546798706055 98.65357208251953 30.676342010498047 101.3704605102539 40.81636047363281" stroke-width="0.0" fill="rgb(74, 115, 25)" opacity="0.9904143"/>
    <path d="M 609.0077514648438 582.9916381835938 C 606.336669921875 593.0271606445312 599.0430297851562 600.3893432617188 589.3502807617188 602.6640014648438 C 579.611083984375 599.7271728515625 572.415283203125 592.3385009765625 569.8778076171875 582.702392578125 C 572.1187133789062 572.530517578125 578.3682250976562 565.01220703125 589.1947631835938 562.3872680664062 C 599.2471923828125 565.2633666992188 606.3875122070312 572.8734130859375 609.0077514648438 582.9916381835938" stroke-width="0.0" fill="rgb(128, 30, 6)" opacity="0.9900854"/>
    <path d="M 228.61500549316406 68.57404327392578 C 225.3205108642578 79.0 218.0 86.32051086425781 207.58811950683594 89.40143585205078 C 197.29669189453125 87.00885009765625 189.94020080566406 79.71900177001953 187.4532012939453 69.51221466064453 C 190.6758575439453 58.99691390991211 197.99769592285156 51.67860794067383 208.01026916503906 49.012516021728516 C 218.16505432128906 51.59929656982422 225.81504821777344 58.68770980834961 228.61500549316406 68.57404327392578" stroke-width="0.0" fill="rgb(65, 71, 82)" opacity="1.0"/>
    <path d="M 306.0682067871094 15.345694541931152 C 303.37115478515625 25.0169734954834 296.0028991699219 32.321529388427734 286.13330078125 34.55025100708008 C 275.3731689453125 32.744232177734375 267.87921142578125 25.72620391845703 265.26422119140625 15.655343055725098 C 268.67913818359375 4.999752521514893 275.99981689453125 -2.3206632137298584 285.93115234375 -4.927215576171875 C 295.79168701171875 -2.134172201156616 302.9668273925781 5.262065410614014 306.0682067871094 15.345694541931152" stroke-width="0.0" fill="rgb(251, 252, 252)" opacity="0.99053437"/>
    <path d="M 94.56631469726562 173.83755493164062 C 92.44926452636719 184.45472717285156 85.68489837646484 192.14808654785156 75.3189926147461 194.94451904296875 C 64.26104736328125 192.15731811523438 57.187713623046875 184.6183624267578 54.69013977050781 174.0320281982422 C 57.43346405029297 163.82766723632812 64.87853240966797 156.5969696044922 75.69596862792969 153.1791534423828 C 85.66612243652344 155.89913940429688 92.7031021118164 163.46701049804688 94.56631469726562 173.83755493164062" stroke-width="0.0" fill="rgb(44, 81, 2)" opacity="0.9922746"/>
    <path d="M 180.82666015625 59.007408142089844 C 178.27272033691406 68.97257995605469 170.98399353027344 76.3113784790039 160.2046356201172 79.83946990966797 C 150.10133361816406 77.22650146484375 142.75430297851562 69.90602111816406 140.06753540039062 59.87386703491211 C 143.39578247070312 48.667091369628906 150.6117401123047 41.2197151184082 160.71731567382812 38.64082336425781 C 170.9665069580078 41.70838165283203 178.25717163085938 49.0435791015625 180.82666015625 59.007408142089844" stroke-width="0.0" fill="rgb(47, 51, 58)" opacity="1.0"/>
    <path d="M 239.87399291992188 104.89138793945312 C 237.06654357910156 114.74100494384766 229.70603942871094 121.95645904541016 219.87962341308594 124.46371459960938 C 210.2736358642578 122.04340362548828 203.06333923339844 114.69105529785156 200.3809356689453 104.5235824584961 C 202.1072235107422 94.51081848144531 209.5880889892578 87.35337829589844 219.89645385742188 84.92587280273438 C 230.0 87.67948913574219 237.3205108642578 95.0 239.87399291992188 104.89138793945312" stroke-width="0.0" fill="rgb(242, 219, 160)" opacity="0.99022144"/>
    <path d="M 258.9185791015625 92.8984375 C 256.0068359375 102.60232543945312 248.48904418945312 109.67980194091797 238.3851776123047 112.29288482666016 C 228.71607971191406 110.65863800048828 221.34835815429688 103.28142547607422 218.6829376220703 93.19768524169922 C 221.58917236328125 82.81625366210938 228.63055419921875 75.1019058227539 238.67178344726562 72.21959686279297 C 249.2268829345703 75.24515533447266 256.344482421875 82.9227294921875 258.9185791015625 92.8984375" stroke-width="0.0" fill="rgb(244, 165, 91)" opacity="1.0"/>
    <path d="M 83.68814086914062 123.61724090576172 C 81.10040283203125 133.72259521484375 73.66683197021484 140.92388916015625 63.287593841552734 143.23971557617188 C 53.00676727294922 140.3151092529297 45.68260192871094 132.99371337890625 42.98036575317383 123.00511932373047 C 45.67949295043945 113.0 53.0 105.67948913574219 62.788936614990234 103.30368041992188 C 72.75997161865234 106.01693725585938 80.2077407836914 113.16860961914062 83.68814086914062 123.61724090576172" stroke-width="0.0" fill="rgb(125, 166, 78)" opacity="0.9910214"/>
    <path d="M 198.66513061523438 16.620906829833984 C 196.1295166015625 26.786882400512695 188.7700958251953 34.07607650756836 178.48886108398438 36.50607681274414 C 167.9129638671875 33.39598083496094 160.5508575439453 26.103548049926758 158.21434020996094 16.077077865600586 C 160.7207489013672 6.0177741050720215 168.0073699951172 -1.3155983686447144 178.00135803222656 -3.998548746109009 C 188.0 -1.3205081224441528 195.3205108642578 6.0 198.66513061523438 16.620906829833984" stroke-width="0.0" fill="rgb(67, 72, 79)" opacity="0.992795"/>
    <path d="M 21.88893699645996 196.81820678710938 C 19.15458869934082 206.845703125 11.828282356262207 214.09869384765625 1.602358102798462 217.4918670654297 C -8.0678129196167 214.50399780273438 -15.324430465698242 207.01193237304688 -18.00007438659668 197.00022888183594 C -15.320508003234863 187.0 -8.0 179.6794891357422 2.295388698577881 176.63392639160156 C 12.417048454284668 179.19129943847656 19.631671905517578 186.63882446289062 21.88893699645996 196.81820678710938" stroke-width="0.0" fill="rgb(31, 64, 3)" opacity="0.99050176"/>
    <path d="M 33.79969787597656 587.760986328125 C 31.187320709228516 597.8222045898438 23.776409149169922 605.0448608398438 13.410823822021484 607.3577880859375 C 3.0 604.3204956054688 -4.320508003234863 597.0 -7.0 587.0 C -4.320508003234863 577.0 3.0 569.6795043945312 12.99891471862793 567.000732421875 C 22.990205764770508 569.6849365234375 30.248844146728516 577.0289916992188 33.79969787597656 587.760986328125" stroke-width="0.0" fill="rgb(3, 4, 3)" opacity="0.9905988"/>
    <path d="M 140.7510986328125 105.22586822509766 C 138.3205108642578 115.0 131.0 122.32051086425781 121.0 125.0 C 111.0 122.32051086425781 103.67948913574219 115.0 101.04586791992188 105.05098724365234 C 103.83731079101562 95.1891098022461 111.2425765991211 88.00729370117188 121.0078353881836 85.57984161376953 C 130.56814575195312 88.12325286865234 137.8741912841797 95.4328842163086 140.7510986328125 105.22586822509766" stroke-width="0.0" fill="rgb(58, 104, 17)" opacity="0.99047613"/>
    <path d="M 24.970298767089844 597.004150390625 C 22.319366455078125 606.9996337890625 14.999937057495117 614.3204956054688 4.999998569488525 617.0 C -5.0 614.3204956054688 -12.320508003234863 607.0 -15.0 597.0 C -12.320508003234863 587.0 -5.0 579.6795043945312 4.999872207641602 577.0000610351562 C 14.998468399047852 579.6802978515625 22.313199996948242 587.00341796875 24.970298767089844 597.004150390625" stroke-width="0.0" fill="rgb(5, 6, 11)" opacity="0.9960912"/>
    <path d="M 210.57115173339844 4.928375244140625 C 208.1590118408203 14.964587211608887 201.0804443359375 22.509531021118164 191.19772338867188 25.05474281311035 C 181.14321899414062 22.160064697265625 173.8708038330078 14.84719181060791 171.31602478027344 4.920464515686035 C 173.7206573486328 -4.982956886291504 181.00588989257812 -12.318013191223145 190.99981689453125 -14.999654769897461 C 200.98995971679688 -12.316332817077637 208.24734497070312 -4.969752311706543 210.57115173339844 4.928375244140625" stroke-width="0.0" fill="rgb(37, 43, 50)" opacity="0.99020165"/>
    <path d="M 108.86442565917969 66.06840515136719 C 106.31087493896484 75.9952163696289 98.99769592285156 83.31938934326172 88.99982452392578 85.99991607666016 C 79.0 83.32051086425781 71.67948913574219 76.0 68.9998779296875 66.00023651123047 C 71.6839828491211 56.012908935546875 79.04063415527344 48.777183532714844 88.7439956665039 46.63084030151367 C 98.78948211669922 49.019996643066406 106.18698120117188 56.14008712768555 108.86442565917969 66.06840515136719" stroke-width="0.0" fill="rgb(30, 66, 5)" opacity="0.99046576"/>
    <path d="M 27.751121520996094 123.52838134765625 C 24.988914489746094 133.56594848632812 17.480070114135742 140.73681640625 7.215680122375488 142.8385009765625 C -2.961803674697876 140.23974609375 -10.312368392944336 132.9833221435547 -12.999356269836426 122.99871063232422 C -10.320508003234863 113.0 -3.0 105.67948913574219 7.0000505447387695 102.99998474121094 C 17.002716064453125 105.67860412597656 24.37233543395996 112.98282623291016 27.751121520996094 123.52838134765625" stroke-width="0.0" fill="rgb(24, 52, 10)" opacity="0.99058557"/>
    <path d="M 40.89603805541992 331.1498107910156 C 36.93723678588867 341.6907043457031 29.75275421142578 349.14886474609375 19.838111877441406 352.46624755859375 C 9.621077537536621 349.6444091796875 1.9122071266174316 342.5840759277344 -0.9363276958465576 332.68231201171875 C 2.1576972007751465 321.7209167480469 9.914870262145996 314.6470642089844 20.803956985473633 311.1423034667969 C 30.89089584350586 313.7756042480469 38.231327056884766 321.10650634765625 40.89603805541992 331.1498107910156" stroke-width="0.0" fill="rgb(23, 26, 24)" opacity="0.99133396"/>
    <path d="M 60.98583221435547 106.98090362548828 C 58.2479362487793 116.90113830566406 50.86860275268555 124.14167785644531 40.54179763793945 127.51614379882812 C 30.531831741333008 124.89464569091797 23.369291305541992 117.38129425048828 20.897321701049805 107.07315826416016 C 23.514265060424805 96.74040222167969 30.623004913330078 89.16403198242188 40.621612548828125 86.4839859008789 C 51.0 89.67948913574219 58.32050704956055 97.0 60.98583221435547 106.98090362548828" stroke-width="0.0" fill="rgb(67, 116, 19)" opacity="1.0"/>
    <path d="M 33.000064849853516 241.00021362304688 C 30.324535369873047 251.0125274658203 23.081321716308594 258.5398864746094 12.152475357055664 261.9366149902344 C 2.134348154067993 259.23162841796875 -5.083192348480225 251.81451416015625 -7.564059257507324 241.10162353515625 C -5.035090923309326 230.25216674804688 2.22367000579834 222.87232971191406 12.375897407531738 220.32891845703125 C 23.00001335144043 223.67942810058594 30.320507049560547 231.0 33.000064849853516 241.00021362304688" stroke-width="0.0" fill="rgb(1, 1, 1)" opacity="1.0"/>
    <path d="M 23.063570022583008 544.8887329101562 C 21.32050895690918 554.0 14.0 561.3204956054688 4.0 564.0 C -6.0 561.3204956054688 -13.320508003234863 554.0 -15.995414733886719 544.0114135742188 C -13.221983909606934 534.2181396484375 -5.507637023925781 527.39990234375 3.1793978214263916 524.9678955078125 C 13.079939842224121 527.6138916015625 20.384349822998047 534.9208374023438 23.063570022583008 544.8887329101562" stroke-width="0.0" fill="rgb(6, 10, 14)" opacity="0.99000555"/>
    <path d="M 31.82851219177246 93.31697082519531 C 28.287912368774414 103.97662353515625 20.98294448852539 111.30874633789062 10.997145652770996 113.9979476928711 C 1.0 111.32051086425781 -6.320508003234863 104.0 -9.0 94.0 C -6.320508003234863 84.0 1.0 76.67948913574219 11.042577743530273 73.97827911376953 C 21.366086959838867 76.46019744873047 29.05185317993164 83.43873596191406 31.82851219177246 93.31697082519531" stroke-width="0.0" fill="rgb(76, 129, 32)" opacity="0.9904319"/>
    <path d="M 145.8953094482422 0.7956562638282776 C 143.1604766845703 10.750373840332031 135.66378784179688 17.9477481842041 125.36450958251953 20.531274795532227 C 114.87866973876953 17.434059143066406 107.46581268310547 10.152915954589844 104.77357482910156 0.13609099388122559 C 107.67948913574219 -10.0 115.0 -17.32050895690918 125.0 -20.0 C 135.0 -17.32050895690918 142.3205108642578 -10.0 145.8953094482422 0.7956562638282776" stroke-width="0.0" fill="rgb(124, 162, 82)" opacity="1.0"/>
    <path d="M 29.438404083251953 114.06944274902344 C 26.497169494628906 124.11602020263672 19.092313766479492 131.42022705078125 9.019801139831543 134.17385864257812 C -1.0233737230300903 131.3651885986328 -8.327495574951172 124.01231384277344 -10.996526718139648 114.00862884521484 C -8.283327102661133 104.0653076171875 -0.8761662244796753 96.90276336669922 8.880779266357422 94.6388168334961 C 18.71412467956543 97.06307220458984 26.26797866821289 104.19026184082031 29.438404083251953 114.06944274902344" stroke-width="0.0" fill="rgb(15, 52, 2)" opacity="0.990225"/>
    <path d="M 162.50283813476562 114.06043243408203 C 160.22958374023438 123.94410705566406 152.97964477539062 131.35556030273438 142.26248168945312 134.8477783203125 C 132.22811889648438 132.15147399902344 124.99942779541016 124.72003173828125 122.63677978515625 114.38059997558594 C 125.64007568359375 103.93405151367188 132.89337158203125 96.50810241699219 142.88645935058594 93.83648681640625 C 152.974365234375 96.69893646240234 160.18374633789062 104.06133270263672 162.50283813476562 114.06043243408203" stroke-width="0.0" fill="rgb(126, 166, 89)" opacity="0.99038863"/>
    <path d="M 187.91036987304688 91.35401916503906 C 185.12765502929688 101.78388977050781 177.79904174804688 109.16294860839844 167.76219177246094 111.8161849975586 C 157.20094299316406 108.03372955322266 149.83251953125 100.84136962890625 146.59950256347656 90.62406158447266 C 149.095947265625 80.4627914428711 156.54856872558594 73.48307800292969 166.6851348876953 71.79509735107422 C 176.6758575439453 74.21575927734375 184.96957397460938 80.72294616699219 187.91036987304688 91.35401916503906" stroke-width="0.0" fill="rgb(137, 172, 93)" opacity="1.0"/>
    <path d="M 30.915353775024414 423.85382080078125 C 28.185522079467773 434.8526611328125 20.87053108215332 442.22705078125 9.846879959106445 444.9692687988281 C -0.817924439907074 442.21392822265625 -7.92549467086792 434.7152099609375 -10.17602252960205 424.24700927734375 C -7.318270683288574 414.00396728515625 0.0077002947218716145 406.69464111328125 10.387073516845703 403.6759948730469 C 20.744083404541016 405.9865417480469 28.177623748779297 413.1999816894531 30.915353775024414 423.85382080078125" stroke-width="0.0" fill="rgb(8, 10, 12)" opacity="0.99004024"/>
    <path d="M 141.3057861328125 108.47010040283203 C 137.92063903808594 118.7258071899414 130.85328674316406 126.38401794433594 121.16224670410156 129.50355529785156 C 110.98151397705078 126.37085723876953 103.67786407470703 119.0045166015625 100.99995422363281 109.00013732910156 C 103.67948913574219 99.0 111.0 91.67948913574219 120.98638916015625 89.01725769042969 C 131.0540008544922 91.68925476074219 138.6901092529297 98.814453125 141.3057861328125 108.47010040283203" stroke-width="0.0" fill="rgb(31, 71, 2)" opacity="0.9906072"/>
    <path d="M 30.00656509399414 576.00439453125 C 27.33045196533203 586.0089721679688 20.009950637817383 593.3338623046875 10.008560180664062 596.0101928710938 C 0.001169405528344214 593.3184204101562 -7.320080757141113 585.9993286132812 -9.99993896484375 575.9998779296875 C -7.320508003234863 566.0 -8.881784197001252e-15 558.6795043945312 10.0 556.0 C 20.0 558.6795043945312 27.32050895690918 566.0 30.00656509399414 576.00439453125" stroke-width="0.0" fill="rgb(3, 4, 6)" opacity="0.9998961"/>
    <path d="M 31.006744384765625 573.9949951171875 C 28.299043655395508 583.9888916015625 20.994632720947266 591.3184814453125 11.001009941101074 593.9988403320312 C 1.0011519193649292 591.3187255859375 -6.319973945617676 583.9992065429688 -8.999580383300781 574.0003051757812 C -6.318609714508057 564.0027465820312 1.0039467811584473 556.6854248046875 11.006643295288086 553.9932250976562 C 21.00143814086914 556.6759643554688 28.320720672607422 563.99951171875 31.006744384765625 573.9949951171875" stroke-width="0.0" fill="rgb(4, 5, 6)" opacity="0.99651414"/>
    <path d="M 28.954116821289062 305.2591247558594 C 26.130409240722656 316.66497802734375 18.471715927124023 323.6302490234375 8.069472312927246 326.0371398925781 C -2.0 323.32049560546875 -9.320508003234863 316.0 -12.045370101928711 305.91851806640625 C -9.661285400390625 295.498046875 -2.6831612586975098 287.8608703613281 8.692548751831055 285.0497131347656 C 18.914751052856445 287.7528991699219 26.249834060668945 295.0841979980469 28.954116821289062 305.2591247558594" stroke-width="0.0" fill="rgb(23, 24, 31)" opacity="1.0"/>
    <path d="M 71.89359283447266 100.16960144042969 C 68.1184310913086 110.9309310913086 61.0065803527832 118.35367584228516 51.4844856262207 120.3955078125 C 41.57398986816406 117.68605041503906 34.26604080200195 110.44373321533203 31.674837112426758 100.67918395996094 C 33.85845947265625 91.10579681396484 41.0659294128418 83.7273178100586 51.256290435791016 80.82157135009766 C 61.69626998901367 83.08405303955078 69.18836212158203 90.20941162109375 71.89359283447266 100.16960144042969" stroke-width="0.0" fill="rgb(119, 171, 66)" opacity="0.9900583"/>
    <path d="M 70.91819763183594 80.83971405029297 C 68.2005844116211 90.80970001220703 60.73347091674805 98.00178527832031 50.271141052246094 100.35934448242188 C 39.38121795654297 97.86318969726562 31.889148712158203 90.7041015625 29.210084915161133 80.6666488647461 C 32.40898132324219 69.6717529296875 39.598934173583984 62.18297576904297 49.65941619873047 59.535675048828125 C 60.0 62.67949295043945 67.32051086425781 70.0 70.91819763183594 80.83971405029297" stroke-width="0.0" fill="rgb(73, 121, 25)" opacity="1.0"/>
    <path d="M 54.0 258.0 C 51.32050704956055 268.0 44.0 275.32049560546875 33.2347526550293 278.81011962890625 C 23.111433029174805 276.21356201171875 15.761957168579102 268.897705078125 13.099106788635254 258.84765625 C 16.734264373779297 248.03106689453125 24.017902374267578 240.68994140625 34.00210189819336 238.00125122070312 C 44.0 240.6794891357422 51.32050704956055 248.0 54.0 258.0" stroke-width="0.0" fill="rgb(23, 24, 30)" opacity="1.0"/>
    <path d="M 81.87165832519531 145.4395751953125 C 78.63330078125 155.66148376464844 70.43325805664062 162.62413024902344 60.299217224121094 165.26016235351562 C 50.39397430419922 163.97152709960938 43.116050720214844 156.57821655273438 40.713104248046875 146.31356811523438 C 43.67732620239258 135.94155883789062 50.8874397277832 128.4976348876953 60.8392219543457 126.1448745727539 C 71.42664337158203 128.46600341796875 79.06261444091797 135.39993286132812 81.87165832519531 145.4395751953125" stroke-width="0.0" fill="rgb(158, 193, 124)" opacity="1.0"/>
    <path d="M 110.80378723144531 110.84429168701172 C 107.97476196289062 120.70112609863281 100.78540802001953 128.31680297851562 91.61132049560547 130.26551818847656 C 81.73222351074219 127.56938171386719 74.45701599121094 120.2579116821289 70.3202133178711 110.1752700805664 C 72.8100814819336 100.1628646850586 80.18927001953125 92.88993072509766 90.45462036132812 90.48527526855469 C 100.91988372802734 93.77516174316406 108.26249694824219 101.06873321533203 110.80378723144531 110.84429168701172" stroke-width="0.0" fill="rgb(3, 5, 6)" opacity="0.9900258"/>
    <path d="M 21.875709533691406 164.68597412109375 C 19.144474029541016 175.80166625976562 11.790935516357422 183.1116485595703 1.5710396766662598 185.6031036376953 C -9.000204086303711 182.3212127685547 -16.320512771606445 175.00001525878906 -19.0 165.0 C -16.320402145385742 155.0003662109375 -8.995375633239746 147.6951446533203 1.1547138690948486 145.39027404785156 C 11.59852123260498 147.18447875976562 19.119232177734375 154.2977294921875 21.875709533691406 164.68597412109375" stroke-width="0.0" fill="rgb(50, 91, 3)" opacity="0.99006695"/>
    <path d="M 54.04347229003906 557.6782836914062 C 51.51454162597656 566.3059692382812 44.423377990722656 573.8218994140625 34.80329513549805 576.8514404296875 C 25.191495895385742 574.1646728515625 18.018966674804688 566.7513427734375 15.633829116821289 557.0629272460938 C 18.283353805541992 547.6931762695312 25.789039611816406 540.5484008789062 34.59937286376953 537.9612426757812 C 44.10965347290039 540.588623046875 51.41067123413086 547.8906860351562 54.04347229003906 557.6782836914062" stroke-width="0.0" fill="rgb(101, 48, 11)" opacity="0.9900079"/>
    <path d="M 324.6527099609375 39.38269805908203 C 321.84661865234375 49.403385162353516 314.3409729003906 56.67643356323242 304.2320861816406 59.38924026489258 C 293.8862609863281 56.38052749633789 286.29595947265625 49.223731994628906 283.25390625 39.09273910522461 C 286.3865051269531 28.912242889404297 294.07818603515625 21.858173370361328 304.0910949707031 19.34183692932129 C 313.91802978515625 21.786088943481445 321.38641357421875 29.03380012512207 324.6527099609375 39.38269805908203" stroke-width="0.0" fill="rgb(248, 231, 195)" opacity="1.0"/>
    <path d="M 50.782691955566406 234.32009887695312 C 47.2752685546875 244.9766387939453 39.987972259521484 252.31385803222656 30.000167846679688 254.98216247558594 C 19.983497619628906 252.33517456054688 12.666644096374512 245.01576232910156 9.999788284301758 235.00363159179688 C 12.679708480834961 224.99990844726562 19.999893188476562 217.6797332763672 30.11513328552246 214.9480743408203 C 40.541351318359375 217.27578735351562 48.10186004638672 224.33001708984375 50.782691955566406 234.32009887695312" stroke-width="0.0" fill="rgb(4, 5, 4)" opacity="0.9915389"/>
    <path d="M 110.0445556640625 80.00342559814453 C 107.40065002441406 90.13400268554688 100.22398376464844 97.67544555664062 89.36788177490234 100.78866577148438 C 79.13277435302734 98.17916107177734 71.7623062133789 90.88868713378906 69.0755844116211 80.865234375 C 72.67964172363281 70.00042724609375 80.00167846679688 62.68412780761719 89.990234375 60.059181213378906 C 99.98655700683594 62.70295333862305 107.3271713256836 70.0046615600586 110.0445556640625 80.00342559814453" stroke-width="0.0" fill="rgb(17, 57, 3)" opacity="0.9902539"/>
    <path d="M 182.5115509033203 176.84901428222656 C 179.8627166748047 186.60130310058594 172.5917510986328 193.8355255126953 162.79820251464844 196.37184143066406 C 152.79290771484375 194.3507843017578 145.41250610351562 187.2628173828125 143.17901611328125 177.0689697265625 C 145.68447875976562 167.0015106201172 153.00015258789062 159.67953491210938 162.9972381591797 157.00128173828125 C 172.96044921875 159.6981658935547 180.13949584960938 167.0900115966797 182.5115509033203 176.84901428222656" stroke-width="0.0" fill="rgb(241, 206, 143)" opacity="0.9900744"/>
    <path d="M 73.97236633300781 209.48951721191406 C 71.25679779052734 219.91986083984375 63.91721725463867 227.25054931640625 53.694122314453125 229.95933532714844 C 42.32923889160156 227.14466857910156 35.40763473510742 219.447265625 32.39309310913086 208.46812438964844 C 34.9348030090332 198.29945373535156 42.339656829833984 191.06411743164062 53.633148193359375 188.27444458007812 C 63.88105392456055 190.80923461914062 71.24934387207031 198.09767150878906 73.97236633300781 209.48951721191406" stroke-width="0.0" fill="rgb(12, 33, 0)" opacity="1.0"/>
    <path d="M 109.105712890625 243.25970458984375 C 106.4737548828125 253.18724060058594 99.18817901611328 260.4758605957031 89.17144012451172 263.141845703125 C 79.1774673461914 262.1490173339844 71.8085708618164 254.8382568359375 69.06475067138672 243.781982421875 C 71.81039428710938 233.15838623046875 79.158203125 225.8105010986328 89.22456359863281 223.1365203857422 C 99.95130920410156 226.69406127929688 107.06299591064453 234.1264190673828 109.105712890625 243.25970458984375" stroke-width="0.0" fill="rgb(170, 102, 54)" opacity="0.9900217"/>
    <path d="M 280.2598571777344 87.66853332519531 C 277.71575927734375 97.4433822631836 270.4364929199219 104.69851684570312 260.7109680175781 107.26665496826172 C 251.16441345214844 105.00598907470703 243.75054931640625 97.91825866699219 240.94613647460938 87.76713562011719 C 243.15650939941406 77.39183807373047 250.2961883544922 69.88159942626953 260.38958740234375 67.10569763183594 C 271.4757080078125 70.0327377319336 278.2135009765625 77.74254608154297 280.2598571777344 87.66853332519531" stroke-width="0.0" fill="rgb(241, 185, 118)" opacity="0.99004304"/>
    <path d="M 68.0009994506836 275.0023193359375 C 65.34175872802734 285.05267333984375 58.17920684814453 292.6981201171875 47.1990966796875 295.928466796875 C 37.11270523071289 293.22430419921875 29.76617431640625 285.891357421875 27.086387634277344 275.8594055175781 C 30.729331970214844 265.0161437988281 38.00224304199219 257.68023681640625 48.000038146972656 255.00001525878906 C 58.0 257.67950439453125 65.32051086425781 265.0 68.0009994506836 275.0023193359375" stroke-width="0.0" fill="rgb(140, 79, 28)" opacity="1.0"/>
    <path d="M 235.91677856445312 78.34286499023438 C 233.09034729003906 89.71961212158203 225.71852111816406 97.08857727050781 214.5202178955078 99.91088104248047 C 204.150390625 97.18550872802734 196.8023223876953 89.8544921875 194.16668701171875 79.76586151123047 C 197.6803741455078 69.00096130371094 205.00157165527344 61.68242645263672 215.43443298339844 58.595542907714844 C 225.76708984375 60.952510833740234 233.18759155273438 68.18453979492188 235.91677856445312 78.34286499023438" stroke-width="0.0" fill="rgb(67, 73, 85)" opacity="1.0"/>
    <path d="M 140.01919555664062 108.1146011352539 C 137.40499877929688 118.07099914550781 130.0744171142578 125.41594696044922 120.05384826660156 128.09608459472656 C 109.9999771118164 125.32059478759766 102.67948913574219 118.0 100.0 108.0 C 102.67948150634766 97.99996948242188 109.9996337890625 90.6782455444336 119.7580337524414 88.32610321044922 C 129.6887969970703 91.06328582763672 137.100830078125 98.25988006591797 140.01919555664062 108.1146011352539" stroke-width="0.0" fill="rgb(35, 77, 2)" opacity="1.0"/>
    <path d="M 215.2101287841797 148.51895141601562 C 212.6563720703125 158.41802978515625 205.45944213867188 165.76698303222656 196.21954345703125 168.20999145507812 C 186.3504180908203 165.79327392578125 178.79916381835938 158.79490661621094 176.01324462890625 148.97634887695312 C 178.6794891357422 139.0 186.0 131.6794891357422 195.99954223632812 129.00015258789062 C 205.98370361328125 131.68527221679688 213.14328002929688 139.06947326660156 215.2101287841797 148.51895141601562" stroke-width="0.0" fill="rgb(246, 196, 89)" opacity="0.9900903"/>
    <path d="M 23.00098991394043 308.99664306640625 C 20.317474365234375 318.9973449707031 12.997743606567383 326.3190612792969 2.436654567718506 329.7812194824219 C -7.2677741050720215 326.82098388671875 -14.354432106018066 319.08740234375 -17.001140594482422 309.00311279296875 C -14.320470809936523 299.0000915527344 -6.999640464782715 291.6804504394531 3.002089023590088 288.9985046386719 C 13.000166893005371 291.67901611328125 20.322223663330078 298.9994812011719 23.00098991394043 308.99664306640625" stroke-width="0.0" fill="rgb(23, 26, 32)" opacity="1.0"/>
    <path d="M 127.1693344116211 214.57080078125 C 123.87035369873047 224.61412048339844 116.64865112304688 231.9773712158203 106.75070190429688 234.89747619628906 C 96.56893920898438 232.6468505859375 88.93585968017578 225.59207153320312 86.09347534179688 215.53878784179688 C 89.19446563720703 204.74508666992188 96.91826629638672 197.64683532714844 106.99757385253906 194.99839782714844 C 117.02705383300781 197.66944885253906 124.53813934326172 204.90679931640625 127.1693344116211 214.57080078125" stroke-width="0.0" fill="rgb(196, 119, 66)" opacity="1.0"/>
    <path d="M 180.1040496826172 167.08642578125 C 177.52294921875 177.1990203857422 170.2205047607422 184.5928192138672 160.20025634765625 187.2412872314453 C 149.92529296875 184.3756561279297 142.60691833496094 177.080810546875 140.9267578125 167.81398010253906 C 143.55862426757812 157.82635498046875 150.76669311523438 150.36778259277344 160.2758026123047 146.90029907226562 C 170.0 149.6794891357422 177.3205108642578 157.0 180.1040496826172 167.08642578125" stroke-width="0.0" fill="rgb(218, 207, 164)" opacity="0.9901427"/>
    <path d="M 308.18292236328125 65.43192291259766 C 305.6304931640625 75.37519073486328 298.3817443847656 82.64826202392578 288.9876403808594 85.18992614746094 C 279.3630676269531 82.75688934326172 271.3272399902344 75.96306610107422 268.5413818359375 66.62948608398438 C 272.4940490722656 56.8139762878418 279.8211669921875 49.51655960083008 289.7864685058594 45.21873092651367 C 299.6715087890625 47.925174713134766 306.7787780761719 55.41604995727539 308.18292236328125 65.43192291259766" stroke-width="0.0" fill="rgb(230, 158, 99)" opacity="0.990029"/>
    <path d="M 85.55522155761719 62.2137336730957 C 83.52964782714844 72.14585876464844 76.0838851928711 79.32691192626953 66.06119537353516 81.80632781982422 C 56.11677932739258 79.18267822265625 48.82137680053711 71.88206481933594 45.86198425292969 61.78419876098633 C 48.40174865722656 51.674720764160156 55.57310485839844 44.11585235595703 65.5338363647461 41.372650146484375 C 75.88273620605469 44.7813720703125 83.07465362548828 52.162757873535156 85.55522155761719 62.2137336730957" stroke-width="0.0" fill="rgb(79, 124, 43)" opacity="0.99080735"/>
    <path d="M 138.04298400878906 108.00371551513672 C 135.35374450683594 118.02862548828125 128.02996826171875 125.35814666748047 117.8584976196289 128.2786865234375 C 107.7147445678711 125.59151458740234 100.29841613769531 118.32152557373047 97.53507995605469 107.81719207763672 C 100.25202178955078 97.67982482910156 107.73518371582031 90.4104232788086 117.85415649414062 87.66999053955078 C 128.03724670410156 90.63317108154297 135.3549041748047 97.96625518798828 138.04298400878906 108.00371551513672" stroke-width="0.0" fill="rgb(37, 79, 2)" opacity="1.0"/>
    <path d="M 218.80828857421875 135.7887725830078 C 216.1112823486328 145.9196319580078 208.99142456054688 153.33372497558594 199.00694274902344 156.00640869140625 C 189.0 153.3205108642578 181.6794891357422 146.0 179.45016479492188 136.25794982910156 C 182.02264404296875 126.34033203125 189.35427856445312 119.07241821289062 199.13426208496094 116.59056854248047 C 208.93423461914062 118.81819915771484 216.3048858642578 126.02890014648438 218.80828857421875 135.7887725830078" stroke-width="0.0" fill="rgb(242, 200, 128)" opacity="0.9902019"/>
    <path d="M 148.13877868652344 44.45572280883789 C 145.62789916992188 54.75502395629883 139.65469360351562 63.164459228515625 129.67430114746094 65.94522094726562 C 118.35061645507812 63.1141357421875 111.9253158569336 55.39033508300781 109.76051330566406 45.09732437133789 C 112.24344635009766 35.496421813964844 119.47225952148438 28.1761417388916 129.19732666015625 25.570676803588867 C 138.70608520507812 27.999475479125977 145.86819458007812 35.34016036987305 148.13877868652344 44.45572280883789" stroke-width="0.0" fill="rgb(146, 182, 98)" opacity="0.9900599"/>
    <path d="M 126.61518859863281 203.15711975097656 C 124.32154846191406 213.00474548339844 117.0060043334961 220.32659912109375 107.00725555419922 222.9967803955078 C 97.01541900634766 220.30735778808594 89.71588134765625 212.977783203125 87.4320068359375 203.35324096679688 C 90.28968811035156 193.6105499267578 97.64697265625 186.39315795898438 107.68353271484375 183.73976135253906 C 117.31761932373047 185.16702270507812 124.14877319335938 192.91184997558594 126.61518859863281 203.15711975097656" stroke-width="0.0" fill="rgb(195, 116, 62)" opacity="0.99008214"/>
    <path d="M 214.30831909179688 146.05606079101562 C 211.5666961669922 156.21145629882812 204.2148895263672 163.57740783691406 194.0994110107422 166.3980712890625 C 183.96902465820312 163.39254760742188 176.674560546875 156.0112762451172 173.5127410888672 145.5952606201172 C 176.07037353515625 135.4486846923828 183.4757843017578 128.14614868164062 193.71914672851562 125.40336608886719 C 204.14300537109375 128.52822875976562 211.5701141357422 135.82347106933594 214.30831909179688 146.05606079101562" stroke-width="0.0" fill="rgb(242, 189, 103)" opacity="1.0"/>
    <path d="M 52.17676544189453 42.39448165893555 C 49.0567512512207 52.825843811035156 41.99803161621094 60.58836364746094 32.352439880371094 63.601219177246094 C 21.996788024902344 60.323211669921875 14.676156044006348 53.0034294128418 11.973960876464844 42.93333435058594 C 14.38642692565918 32.55414962768555 21.364042282104492 24.892139434814453 32.60097122192383 22.050758361816406 C 42.85307693481445 24.78678321838379 50.12646484375 32.17856216430664 52.17676544189453 42.39448165893555" stroke-width="0.0" fill="rgb(36, 43, 42)" opacity="0.9900693"/>
    <path d="M 64.84253692626953 263.0776062011719 C 62.32050323486328 273.0 54.999881744384766 280.320068359375 44.94023132324219 282.7406921386719 C 34.62894058227539 280.69903564453125 27.312191009521484 273.366943359375 24.810726165771484 263.1565856933594 C 27.634824752807617 252.9521942138672 34.936180114746094 245.58026123046875 45.13315200805664 242.6304473876953 C 55.230037689208984 245.3527374267578 62.278812408447266 252.8760528564453 64.84253692626953 263.0776062011719" stroke-width="0.0" fill="rgb(30, 30, 36)" opacity="0.99046856"/>
    <path d="M 191.56655883789062 155.80455017089844 C 188.90347290039062 165.5771026611328 181.5279998779297 172.76095581054688 171.69984436035156 175.2701873779297 C 162.2190704345703 172.9996795654297 154.4735870361328 165.9335479736328 151.11936950683594 155.28236389160156 C 153.84268188476562 145.25682067871094 161.43719482421875 138.92881774902344 172.71095275878906 135.80703735351562 C 182.48516845703125 138.0266876220703 189.48342895507812 145.68569946289062 191.56655883789062 155.80455017089844" stroke-width="0.0" fill="rgb(189, 169, 113)" opacity="1.0"/>
    <path d="M 37.41154861450195 73.42506408691406 C 34.92672348022461 83.5814208984375 27.55275535583496 90.82740783691406 17.234888076782227 93.28623962402344 C 7.27169132232666 90.09805297851562 -0.009757667779922485 82.70404815673828 -3.354116201400757 72.6110610961914 C -0.7977871894836426 62.70228576660156 7.073307514190674 56.123531341552734 16.83216094970703 53.81766891479492 C 26.45697784423828 56.29203414916992 33.85536575317383 63.496116638183594 37.41154861450195 73.42506408691406" stroke-width="0.0" fill="rgb(123, 165, 76)" opacity="0.9901191"/>
    <path d="M 82.18462371826172 276.3069763183594 C 79.91040802001953 285.6456298828125 72.64667510986328 292.9140930175781 62.780609130859375 295.4638366699219 C 53.091896057128906 293.1960144042969 45.57316207885742 285.97265625 43.47417449951172 276.5069274902344 C 46.26072311401367 266.4905700683594 53.40188980102539 258.9594421386719 63.05423355102539 255.64981079101562 C 73.34329223632812 258.345947265625 80.14837646484375 265.7524719238281 82.18462371826172 276.3069763183594" stroke-width="0.0" fill="rgb(182, 110, 68)" opacity="0.99009115"/>
  </g>
</svg>
