<?xml version="1.0" ?>
<svg xmlns="http://www.w3.org/2000/svg" version="1.1" width="600" height="600">
  <defs/>
  <g>
    <path d="M 572.5680541992188 145.5714569091797 C 570.195068359375 156.07952880859375 563.1953735351562 163.6075439453125 552.7359008789062 166.6104736328125 C 542.49853515625 163.88409423828125 535.1823120117188 156.47842407226562 532.909912109375 146.33871459960938 C 535.5708618164062 135.86045837402344 542.9160766601562 128.7816619873047 553.314208984375 126.52539825439453 C 563.2631225585938 128.4153594970703 570.7589721679688 135.675048828125 572.5680541992188 145.5714569091797" stroke-width="0.0" fill="rgb(249, 251, 246)" opacity="0.99110764"/>
    <path d="M 35.58964920043945 128.55235290527344 C 33.09524154663086 138.77479553222656 25.795564651489258 146.15420532226562 15.232247352600098 148.90646362304688 C 4.244980335235596 146.13595581054688 -2.981231212615967 138.702392578125 -5.343982219696045 128.36376953125 C -2.3205080032348633 118.0 5.0 110.67948913574219 15.0 108.0 C 25.0 110.67948913574219 32.32050704956055 118.0 35.58964920043945 128.55235290527344" stroke-width="0.0" fill="rgb(105, 117, 142)" opacity="1.0"/>
    <path d="M 156.03604125976562 529.7006225585938 C 153.54583740234375 538.39599609375 146.6132354736328 546.08984375 136.89952087402344 548.9509887695312 C 126.59813690185547 546.6161499023438 119.0181884765625 539.5267333984375 116.06002807617188 528.1741943359375 C 118.7641830444336 518.1437377929688 126.33078002929688 512.4071655273438 137.69932556152344 509.95074462890625 C 146.19931030273438 512.4912719726562 153.43545532226562 519.8330078125 156.03604125976562 529.7006225585938" stroke-width="0.0" fill="rgb(5, 7, 14)" opacity="0.9900043"/>
    <path d="M 320.01727294921875 568.9739379882812 C 317.341796875 579.0220947265625 310.0211486816406 586.3389892578125 300.00543212890625 589.0045166015625 C 290.0 586.3204956054688 282.67950439453125 579.0 280.00457763671875 569.0089111328125 C 282.7325134277344 559.1024169921875 290.2086181640625 552.0462646484375 300.1175231933594 549.6903686523438 C 309.9851989746094 551.9121704101562 317.432373046875 558.9031982421875 320.01727294921875 568.9739379882812" stroke-width="0.0" fill="rgb(192, 184, 191)" opacity="0.9901762"/>
    <path d="M 56.239898681640625 325.3527526855469 C 54.18180465698242 334.95068359375 46.991668701171875 342.3177795410156 36.999847412109375 344.99993896484375 C 27.0 342.32049560546875 19.67949104309082 335.0 17.0 325.0 C 19.67949104309082 315.0 27.0 307.67950439453125 36.97334289550781 305.0152893066406 C 46.78536605834961 307.80859375 53.799747467041016 315.3523254394531 56.239898681640625 325.3527526855469" stroke-width="0.0" fill="rgb(166, 132, 97)" opacity="0.99021095"/>
    <path d="M 602.6171875 505.01104736328125 C 599.8712158203125 515.4616088867188 592.3855590820312 522.63232421875 581.6167602539062 525.5274047851562 C 571.37744140625 522.9612426757812 563.9818115234375 515.6427612304688 561.231201171875 505.4106750488281 C 564.1229248046875 494.4864807128906 571.49560546875 487.1500549316406 582.0443115234375 484.3578186035156 C 592.5407104492188 487.111328125 599.8974609375 494.45599365234375 602.6171875 505.01104736328125" stroke-width="0.0" fill="rgb(173, 194, 224)" opacity="0.9906166"/>
    <path d="M 63.09695053100586 220.42227172851562 C 60.77813720703125 230.69827270507812 53.89786911010742 238.27890014648438 43.99570846557617 240.99832153320312 C 33.99958801269531 238.3206329345703 26.665508270263672 231.00421142578125 23.105756759643555 220.2342987060547 C 25.90316390991211 210.39334106445312 33.61061096191406 203.44859313964844 44.18362808227539 200.78240966796875 C 54.46796417236328 203.2213897705078 61.68398666381836 210.55303955078125 63.09695053100586 220.42227172851562" stroke-width="0.0" fill="rgb(61, 43, 37)" opacity="0.9901379"/>
    <path d="M 579.8029174804688 554.4465942382812 C 577.0874633789062 564.733642578125 569.7243041992188 572.0611572265625 558.7133178710938 574.82421875 C 548.3095703125 572.0606689453125 541.0220336914062 564.6626586914062 538.580322265625 554.3978881835938 C 541.6796264648438 544.0003662109375 549.0012817382812 536.6830444335938 559.5278930664062 533.3018188476562 C 569.5604858398438 536.0347900390625 576.8707275390625 543.4760131835938 579.8029174804688 554.4465942382812" stroke-width="0.0" fill="rgb(145, 164, 195)" opacity="1.0"/>
    <path d="M 611.0161743164062 536.0 C 608.3919067382812 546.1243286132812 601.21337890625 553.6634521484375 590.5802612304688 556.7401123046875 C 580.4478759765625 553.9647216796875 573.1760864257812 546.4995727539062 570.3372802734375 535.9759521484375 C 573.182373046875 525.6113891601562 580.7008666992188 518.4623413085938 591.1450805664062 515.7449340820312 C 601.1715698242188 518.4107055664062 608.3860473632812 525.892822265625 611.0161743164062 536.0" stroke-width="0.0" fill="rgb(151, 169, 200)" opacity="0.9905884"/>
    <path d="M 122.0 75.0 C 119.32051086425781 85.0 112.0 92.32051086425781 102.0 95.0 C 92.0 92.32051086425781 84.67948913574219 85.0 82.0 75.0 C 84.67948913574219 65.0 92.0 57.67949295043945 102.0 55.0 C 112.0 57.67949295043945 119.32051086425781 65.0 122.0 75.0" stroke-width="0.0" fill="rgb(103, 113, 137)" opacity="1.0"/>
    <path d="M 34.48842239379883 240.30923461914062 C 31.97113609313965 250.73724365234375 24.824604034423828 258.2138977050781 14.779940605163574 260.9484558105469 C 3.283292770385742 258.1141052246094 -3.9242074489593506 250.65017700195312 -6.424849510192871 240.06015014648438 C -3.894773006439209 229.36997985839844 3.295790195465088 221.8927459716797 14.254000663757324 219.08120727539062 C 24.68707275390625 221.876708984375 31.735626220703125 229.45057678222656 34.48842239379883 240.30923461914062" stroke-width="0.0" fill="rgb(62, 66, 86)" opacity="1.0"/>
    <path d="M 45.99740982055664 308.99456787109375 C 43.285682678222656 318.92926025390625 35.859596252441406 326.0682067871094 25.52790069580078 329.636474609375 C 15.868148803710938 326.6226501464844 8.667099952697754 319.033935546875 5.999629020690918 309.00103759765625 C 8.679491996765137 299.0 16.0 291.67950439453125 26.0 289.0 C 36.0 291.67950439453125 43.32050704956055 299.0 45.99740982055664 308.99456787109375" stroke-width="0.0" fill="rgb(21, 8, 7)" opacity="0.9906367"/>
    <path d="M 67.7359848022461 536.602783203125 C 65.05792999267578 546.6891479492188 57.68891906738281 554.0577392578125 47.52145767211914 556.8084716796875 C 36.85001754760742 553.6246337890625 29.65445899963379 546.056884765625 26.998552322387695 536.0032348632812 C 29.67949104309082 526.0 37.0 518.6795043945312 47.0 516.0 C 57.000003814697266 518.6795043945312 64.32078552246094 525.9999389648438 67.7359848022461 536.602783203125" stroke-width="0.0" fill="rgb(128, 143, 173)" opacity="1.0"/>
    <path d="M 585.2337646484375 466.2226867675781 C 582.7763671875 476.4580078125 575.4741821289062 483.8287658691406 564.930908203125 486.5994873046875 C 554.5626831054688 483.8075866699219 547.2322387695312 476.4238586425781 544.5765380859375 466.2611083984375 C 547.689453125 456.00360107421875 555.0009155273438 448.6798095703125 565.0 446.0 C 575.0 448.67950439453125 582.3204956054688 456.0 585.2337646484375 466.2226867675781" stroke-width="0.0" fill="rgb(186, 213, 236)" opacity="0.99032944"/>
    <path d="M 65.0566635131836 397.81683349609375 C 63.89052200317383 407.6377258300781 56.646148681640625 414.9404602050781 45.31417465209961 417.8041687011719 C 35.179073333740234 415.17919921875 27.93956184387207 407.7835388183594 25.61193084716797 397.43731689453125 C 28.678871154785156 386.998046875 35.98529052734375 379.63360595703125 45.39291763305664 377.417236328125 C 55.17994689941406 380.4900817871094 62.43426513671875 387.8476867675781 65.0566635131836 397.81683349609375" stroke-width="0.0" fill="rgb(27, 26, 28)" opacity="0.9900151"/>
    <path d="M 581.7674560546875 74.72666931152344 C 578.837158203125 85.48221588134766 571.4959106445312 92.87303924560547 560.75 95.73638916015625 C 550.447021484375 92.92815399169922 543.09228515625 85.54557037353516 540.2883911132812 75.23805236816406 C 543.1446533203125 64.50462341308594 550.512451171875 57.16893005371094 561.2169189453125 54.31890106201172 C 571.5421142578125 57.10529327392578 578.9550170898438 64.43498229980469 581.7674560546875 74.72666931152344" stroke-width="0.0" fill="rgb(188, 202, 231)" opacity="0.9912599"/>
    <path d="M 34.1534309387207 198.21075439453125 C 31.8631649017334 208.64918518066406 24.752090454101562 216.1604461669922 14.306039810180664 218.93296813964844 C 3.2508487701416016 216.14462280273438 -3.9449925422668457 208.6786346435547 -6.291067600250244 198.31881713867188 C -3.3205080032348633 188.0 4.0 180.6794891357422 14.0 178.0 C 24.0 180.6794891357422 31.32050895690918 188.0 34.1534309387207 198.21075439453125" stroke-width="0.0" fill="rgb(97, 108, 131)" opacity="1.0"/>
    <path d="M 449.7162780761719 463.2486572265625 C 447.28900146484375 472.98895263671875 439.9976501464844 480.3197326660156 429.99285888671875 483.0030517578125 C 419.8701477050781 480.3780212402344 412.1372985839844 473.317626953125 410.0389099121094 463.6312255859375 C 412.60626220703125 452.8652648925781 419.8916931152344 445.70196533203125 429.956298828125 443.47515869140625 C 439.7944030761719 445.9403381347656 446.97247314453125 453.23822021484375 449.7162780761719 463.2486572265625" stroke-width="0.0" fill="rgb(219, 211, 167)" opacity="0.9901164"/>
    <path d="M 36.59194564819336 12.555502891540527 C 34.09555435180664 22.76991081237793 26.781208038330078 30.129213333129883 16.645174026489258 32.74209213256836 C 5.744482040405273 29.5262508392334 -1.690213918685913 22.306236267089844 -4.5415496826171875 11.71340560913086 C -1.9313455820083618 1.4487388134002686 5.5015974044799805 -5.760900974273682 15.823383331298828 -8.146690368652344 C 26.0 -5.320508003234863 33.32050704956055 2.0 36.59194564819336 12.555502891540527" stroke-width="0.0" fill="rgb(95, 105, 132)" opacity="1.0"/>
    <path d="M 95.0064926147461 512.9869995117188 C 92.32672119140625 523.016845703125 85.0636978149414 530.4793090820312 74.8816146850586 533.6375732421875 C 64.86186981201172 530.5985717773438 57.65496063232422 523.0549926757812 54.487701416015625 512.5413818359375 C 56.97816848754883 502.289306640625 64.25287628173828 494.8771057128906 74.45582580566406 492.123779296875 C 85.35187530517578 495.1245422363281 92.40917205810547 502.8228454589844 95.0064926147461 512.9869995117188" stroke-width="0.0" fill="rgb(124, 141, 168)" opacity="1.0"/>
    <path d="M 540.6686401367188 23.35931968688965 C 537.9361572265625 33.566261291503906 530.5589599609375 40.91584396362305 519.7470703125 43.73474884033203 C 509.3274841308594 41.022499084472656 501.960693359375 33.67835998535156 499.19183349609375 23.361207962036133 C 502.1612243652344 12.605480194091797 509.69793701171875 5.437838554382324 519.9263916015625 2.936713933944702 C 530.0504760742188 5.655436992645264 537.5416259765625 12.88706111907959 540.6686401367188 23.35931968688965" stroke-width="0.0" fill="rgb(171, 181, 210)" opacity="0.9907128"/>
    <path d="M 459.8854064941406 70.15667724609375 C 457.3165588378906 79.98795318603516 449.92462158203125 87.11607360839844 440.71435546875 89.1002197265625 C 430.8131408691406 86.4774169921875 423.52734375 79.18484497070312 420.8917236328125 69.23979949951172 C 422.43304443359375 60.323280334472656 430.6126708984375 53.45390701293945 440.2742919921875 50.925201416015625 C 449.3332824707031 53.45353698730469 456.8733215332031 60.55318832397461 459.8854064941406 70.15667724609375" stroke-width="0.0" fill="rgb(151, 91, 64)" opacity="0.9900115"/>
    <path d="M 62.064857482910156 225.17239379882812 C 59.42182540893555 235.13609313964844 52.16407775878906 242.50071716308594 42.383121490478516 245.43382263183594 C 32.71320343017578 243.61444091796875 25.321640014648438 236.3065948486328 22.177364349365234 225.45819091796875 C 25.134220123291016 215.69273376464844 32.89293670654297 208.63858032226562 43.01823043823242 205.98123168945312 C 53.09650421142578 208.60470581054688 60.381954193115234 215.90390014648438 62.064857482910156 225.17239379882812" stroke-width="0.0" fill="rgb(70, 51, 43)" opacity="0.99009013"/>
    <path d="M 39.85618591308594 457.1100769042969 C 37.08982467651367 467.7284851074219 29.721786499023438 475.072265625 18.66319465637207 477.8481750488281 C 8.219724655151367 475.12744140625 0.8759878873825073 467.7789001464844 -1.7936029434204102 457.5692443847656 C 1.1816976070404053 446.62200927734375 8.72003173828125 439.4805908203125 19.435476303100586 436.4996643066406 C 29.694087982177734 438.9833984375 37.081336975097656 446.2837219238281 39.85618591308594 457.1100769042969" stroke-width="0.0" fill="rgb(123, 139, 166)" opacity="1.0"/>
    <path d="M 33.9999885559082 186.99996948242188 C 31.320175170898438 196.99916076660156 23.99753189086914 204.31442260742188 13.990885734558105 206.98199462890625 C 3.994286298751831 204.32757568359375 -3.3246374130249023 197.0048370361328 -6.080068111419678 186.92593383789062 C -3.5089099407196045 176.81993103027344 3.8268916606903076 169.5140838623047 13.940722465515137 166.94366455078125 C 24.0 169.6794891357422 31.32050895690918 177.0 33.9999885559082 186.99996948242188" stroke-width="0.0" fill="rgb(102, 114, 139)" opacity="1.0"/>
    <path d="M 333.636474609375 598.7310791015625 C 330.31671142578125 608.9989013671875 322.9999084472656 616.3204956054688 313.0 619.0 C 303.0 616.3204956054688 295.67950439453125 609.0 293.0 599.0 C 295.68011474609375 589.0020141601562 303.0201416015625 581.7438354492188 312.3506164550781 579.8460083007812 C 322.27825927734375 582.4623413085938 329.8092346191406 589.6502685546875 333.636474609375 598.7310791015625" stroke-width="0.0" fill="rgb(91, 105, 126)" opacity="0.99003845"/>
    <path d="M 106.78797149658203 593.7005615234375 C 103.7181625366211 604.2316284179688 96.11455535888672 611.3771362304688 86.00548553466797 614.0055541992188 C 75.94181060791016 611.3460083007812 68.35462951660156 604.1594848632812 65.22567749023438 593.64697265625 C 67.96883392333984 583.3235473632812 75.33154296875 575.9932250976562 85.54285430908203 573.480224609375 C 96.12259674072266 576.6220703125 103.80293273925781 583.7212524414062 106.78797149658203 593.7005615234375" stroke-width="0.0" fill="rgb(132, 148, 178)" opacity="1.0"/>
    <path d="M 298.82476806640625 564.3035278320312 C 296.3346252441406 574.004638671875 289.00079345703125 581.3207397460938 279.0000305175781 584.0 C 269.0 581.3204956054688 261.67950439453125 574.0 259.013427734375 564.0240478515625 C 261.800537109375 554.2066040039062 269.3512878417969 547.2068481445312 278.675537109375 544.8555908203125 C 288.3648376464844 547.3880004882812 295.744873046875 554.5887451171875 298.82476806640625 564.3035278320312" stroke-width="0.0" fill="rgb(167, 143, 113)" opacity="0.99004215"/>
    <path d="M 72.55353546142578 525.4443359375 C 69.94129180908203 535.5205688476562 62.428321838378906 542.655517578125 52.10838317871094 545.0573120117188 C 42.00325012207031 542.3143310546875 34.68144226074219 534.9979858398438 31.883075714111328 524.8432006835938 C 34.2450065612793 514.4700927734375 41.36784362792969 506.9435119628906 51.46761703491211 504.1851501464844 C 62.19193649291992 507.3216857910156 69.3593978881836 514.9168701171875 72.55353546142578 525.4443359375" stroke-width="0.0" fill="rgb(133, 148, 177)" opacity="1.0"/>
    <path d="M 163.72030639648438 37.662994384765625 C 161.15528869628906 47.82899475097656 153.84344482421875 55.19432830810547 143.5450439453125 57.919410705566406 C 132.20437622070312 55.148006439208984 124.8683853149414 47.78977584838867 122.28706359863281 37.64244079589844 C 125.67948913574219 27.0 133.0 19.67949104309082 143.0 17.0 C 153.0 19.67949104309082 160.3205108642578 27.0 163.72030639648438 37.662994384765625" stroke-width="0.0" fill="rgb(111, 122, 149)" opacity="1.0"/>
    <path d="M 121.47183227539062 87.4163818359375 C 118.95817565917969 97.58575439453125 111.53898620605469 104.80640411376953 101.20755767822266 107.17562103271484 C 91.0 104.32051086425781 83.67948913574219 97.0 81.0 87.0 C 83.67948913574219 77.0 91.0 69.67948913574219 101.0 67.0 C 111.0 69.67948913574219 118.32051086425781 77.0 121.47183227539062 87.4163818359375" stroke-width="0.0" fill="rgb(83, 90, 111)" opacity="1.0"/>
    <path d="M 388.5876159667969 34.451820373535156 C 385.9327087402344 44.521934509277344 378.44989013671875 51.71524429321289 368.1919860839844 54.4000244140625 C 358.01580810546875 51.28547286987305 350.6820983886719 43.9936637878418 348.0001220703125 33.99969482421875 C 350.67950439453125 24.0 358.0 16.67949104309082 368.0011901855469 13.999385833740234 C 378.0133361816406 16.672544479370117 385.3529357910156 23.97881507873535 388.5876159667969 34.451820373535156" stroke-width="0.0" fill="rgb(244, 236, 216)" opacity="1.0"/>
    <path d="M 116.8906478881836 95.84113311767578 C 114.24234771728516 105.9122085571289 106.91838836669922 113.25731658935547 96.69244384765625 115.96832275390625 C 85.11913299560547 113.23279571533203 77.81722259521484 105.861083984375 75.19671630859375 95.71014404296875 C 78.56950378417969 84.95844268798828 85.9901351928711 77.67607879638672 95.999755859375 74.99992370605469 C 106.0 77.67948913574219 113.32051086425781 85.0 116.8906478881836 95.84113311767578" stroke-width="0.0" fill="rgb(61, 65, 82)" opacity="1.0"/>
    <path d="M 105.76859283447266 156.74513244628906 C 103.13687133789062 166.77064514160156 95.76431274414062 174.12168884277344 85.28191375732422 176.86941528320312 C 74.32474517822266 174.07196044921875 67.13638305664062 166.60638427734375 64.37268829345703 155.54266357421875 C 66.92826843261719 145.2732696533203 74.289794921875 137.98057556152344 84.56788635253906 135.56382751464844 C 94.99559783935547 138.6808624267578 102.21347045898438 146.0354461669922 105.76859283447266 156.74513244628906" stroke-width="0.0" fill="rgb(195, 200, 214)" opacity="1.0"/>
    <path d="M 290.7271423339844 1.5867838859558105 C 288.029541015625 11.62728500366211 280.5582580566406 18.821285247802734 270.2135925292969 21.193885803222656 C 259.8846740722656 18.37546157836914 252.2342987060547 11.254740715026855 249.33836364746094 1.441808819770813 C 252.67990112304688 -8.9998779296875 260.0 -16.320505142211914 270.0 -19.0 C 280.0 -16.320505142211914 287.31988525390625 -8.999817848205566 290.7271423339844 1.5867838859558105" stroke-width="0.0" fill="rgb(128, 135, 160)" opacity="1.0"/>
    <path d="M 523.7786254882812 497.11297607421875 C 521.3204956054688 507.0 514.0 514.3204956054688 503.75067138671875 517.5247802734375 C 494.0442199707031 514.3929443359375 486.9230041503906 506.86224365234375 484.6286315917969 497.2799987792969 C 487.2454528808594 487.50567626953125 494.5149841308594 480.27117919921875 504.5332946777344 477.75872802734375 C 514.0391235351562 479.58135986328125 521.1924438476562 487.0329895019531 523.7786254882812 497.11297607421875" stroke-width="0.0" fill="rgb(247, 242, 252)" opacity="1.0"/>
    <path d="M 618.0 46.000003814697266 C 615.3204345703125 55.999778747558594 607.9992065429688 63.318389892578125 597.5805053710938 66.55729675292969 C 587.4833984375 63.90886306762695 580.232666015625 56.469688415527344 577.29638671875 45.63224411010742 C 580.144775390625 35.561546325683594 587.581787109375 28.19622230529785 597.6014404296875 25.451143264770508 C 607.9962158203125 28.691373825073242 615.3203125 36.00054168701172 618.0 46.000003814697266" stroke-width="0.0" fill="rgb(186, 194, 225)" opacity="1.0"/>
    <path d="M 104.65719604492188 26.888683319091797 C 102.03349304199219 37.721675872802734 94.73993682861328 45.089752197265625 84.57524108886719 47.638614654541016 C 73.99992370605469 44.32052993774414 66.67617797851562 37.00096893310547 63.1837158203125 26.289831161499023 C 65.85376739501953 16.20693588256836 73.2081298828125 8.856952667236328 84.26447296142578 6.09995698928833 C 94.791015625 8.843785285949707 102.06461334228516 16.2408504486084 104.65719604492188 26.888683319091797" stroke-width="0.0" fill="rgb(106, 117, 146)" opacity="1.0"/>
    <path d="M 498.790283203125 578.5071411132812 C 496.049072265625 588.681396484375 488.6731872558594 596.0267944335938 477.7247009277344 598.8275146484375 C 467.3498229980469 596.0339965820312 460.0135498046875 588.632080078125 457.2328796386719 577.9575805664062 C 460.00958251953125 567.371826171875 467.3793640136719 560.0313720703125 477.6465148925781 557.3526611328125 C 488.25518798828125 560.3927612304688 495.7462158203125 567.6929931640625 498.790283203125 578.5071411132812" stroke-width="0.0" fill="rgb(152, 171, 203)" opacity="1.0"/>
    <path d="M 44.618595123291016 357.64080810546875 C 42.16084289550781 367.8260192871094 34.814273834228516 375.1231689453125 24.211984634399414 377.742431640625 C 13.391325950622559 374.9984436035156 6.022250652313232 367.5978088378906 3.218663454055786 357.5997314453125 C 6.679491996765137 347.0 14.0 339.67950439453125 24.0 337.0 C 34.0 339.67950439453125 41.32050704956055 347.0 44.618595123291016 357.64080810546875" stroke-width="0.0" fill="rgb(12, 8, 8)" opacity="0.9900759"/>
    <path d="M 529.0492553710938 187.75450134277344 C 527.0545654296875 197.68582153320312 520.818115234375 205.20513916015625 509.99298095703125 207.9530487060547 C 499.1344909667969 205.22113037109375 491.9176330566406 197.82583618164062 490.9158935546875 187.78387451171875 C 493.5643310546875 177.86831665039062 500.87310791015625 170.5763397216797 509.8771057128906 167.9551239013672 C 519.1242065429688 170.57733154296875 526.4208984375 177.87655639648438 529.0492553710938 187.75450134277344" stroke-width="0.0" fill="rgb(155, 32, 27)" opacity="0.9900057"/>
    <path d="M 34.862857818603516 573.3988037109375 C 32.109622955322266 583.757568359375 24.759580612182617 591.1153564453125 14.355072975158691 593.8803100585938 C 3.3293120861053467 591.0618286132812 -3.9029102325439453 583.6168823242188 -6.286579132080078 573.2984008789062 C -3.3205080032348633 563.0 4.0 555.6795043945312 14.03678035736084 552.9775390625 C 24.2587833404541 555.5154418945312 31.90819549560547 562.5875854492188 34.862857818603516 573.3988037109375" stroke-width="0.0" fill="rgb(124, 139, 167)" opacity="1.0"/>
    <path d="M 74.04446411132812 160.12261962890625 C 71.41252899169922 170.13990783691406 64.21299743652344 177.7480010986328 55.47296905517578 181.89410400390625 C 44.882171630859375 178.5996856689453 37.58949279785156 171.05148315429688 34.212860107421875 160.28721618652344 C 36.82826614379883 150.17523193359375 44.175392150878906 142.82852172851562 55.82649612426758 140.0511474609375 C 65.90319061279297 142.7530517578125 73.1846923828125 150.116943359375 74.04446411132812 160.12261962890625" stroke-width="0.0" fill="rgb(7, 5, 6)" opacity="0.9900109"/>
    <path d="M 57.936744689941406 189.26083374023438 C 54.844261169433594 200.28147888183594 47.08716583251953 207.35411071777344 37.00300979614258 210.00111389160156 C 27.0 207.3205108642578 19.67949104309082 200.0 17.0 190.0 C 19.67949104309082 180.0 27.0 172.6794891357422 37.190345764160156 169.83721923828125 C 47.64397430419922 172.1637420654297 55.18297576904297 179.23158264160156 57.936744689941406 189.26083374023438" stroke-width="0.0" fill="rgb(19, 21, 28)" opacity="1.0"/>
    <path d="M 292.1090393066406 29.42859649658203 C 289.66424560546875 39.21806716918945 282.1303405761719 46.39567565917969 272.0146789550781 49.00811004638672 C 262.0 46.32050704956055 254.6794891357422 39.0 252.01284790039062 29.023998260498047 C 254.80601501464844 19.221418380737305 262.37994384765625 12.242488861083984 271.7496032714844 9.870635986328125 C 281.50457763671875 12.328084945678711 288.9690246582031 19.376779556274414 292.1090393066406 29.42859649658203" stroke-width="0.0" fill="rgb(232, 239, 250)" opacity="0.9900987"/>
    <path d="M 232.0 1.9999998807907104 C 229.3205108642578 11.999988555908203 221.99981689453125 19.319843292236328 211.33346557617188 22.771148681640625 C 201.2334442138672 20.120664596557617 193.8896026611328 12.762510299682617 191.22073364257812 2.6430797576904297 C 194.6428680419922 -8.012227058410645 201.99789428710938 -15.321202278137207 211.9999542236328 -18.00001335144043 C 222.0 -15.320508003234863 229.3205108642578 -8.0 232.0 1.9999998807907104" stroke-width="0.0" fill="rgb(120, 130, 158)" opacity="1.0"/>
    <path d="M 200.697021484375 79.10733032226562 C 197.41807556152344 89.11540222167969 190.11216735839844 96.41029357910156 180.30857849121094 99.03870391845703 C 171.5120086669922 96.5319595336914 163.11048889160156 90.29373931884766 160.5270538330078 80.3994369506836 C 163.6794891357422 70.0 171.0 62.67949295043945 180.21197509765625 60.891780853271484 C 190.52882385253906 63.491661071777344 199.1627960205078 69.34149169921875 200.697021484375 79.10733032226562" stroke-width="0.0" fill="rgb(58, 49, 40)" opacity="0.9900082"/>
    <path d="M 355.6087646484375 563.4714965820312 C 351.7866516113281 573.4772338867188 344.44384765625 580.691650390625 334.76251220703125 583.2359619140625 C 325.478515625 580.7758178710938 318.15045166015625 573.546142578125 315.65423583984375 564.3599243164062 C 318.3404846191406 554.622802734375 325.6330871582031 547.3681640625 334.7813415527344 544.8525390625 C 344.4379577636719 547.3636474609375 352.4430236816406 554.3823852539062 355.6087646484375 563.4714965820312" stroke-width="0.0" fill="rgb(176, 150, 130)" opacity="0.9900147"/>
    <path d="M 392.95806884765625 517.1583862304688 C 388.6277770996094 527.1655883789062 381.1171569824219 534.4042358398438 371.4485778808594 537.037353515625 C 362.88580322265625 534.4180908203125 355.5908508300781 527.1103515625 352.964111328125 518.2041015625 C 355.5914001464844 508.8934020996094 362.8909606933594 501.5849304199219 372.89984130859375 498.7361755371094 C 382.8929748535156 499.7764892578125 390.244140625 507.0986022949219 392.95806884765625 517.1583862304688" stroke-width="0.0" fill="rgb(126, 18, 17)" opacity="0.9900041"/>
    <path d="M 185.6806640625 2.541501760482788 C 183.00611877441406 12.601309776306152 175.53184509277344 19.79693603515625 165.20526123046875 22.184595108032227 C 155.0 19.32050895690918 147.6794891357422 12.0 145.0 2.0 C 147.6794891357422 -8.0 155.0 -15.320508003234863 165.0 -18.000001907348633 C 175.000244140625 -15.320590019226074 182.3248291015625 -8.001420021057129 185.6806640625 2.541501760482788" stroke-width="0.0" fill="rgb(118, 128, 156)" opacity="0.9984309"/>
    <path d="M 149.86167907714844 112.34085083007812 C 146.6643524169922 123.08332061767578 138.92169189453125 130.2223663330078 128.96490478515625 132.97023010253906 C 118.99932098388672 130.32070922851562 111.65081787109375 123.008544921875 108.22038269042969 112.36373138427734 C 110.86944580078125 102.21661376953125 118.2192611694336 94.87566375732422 128.41136169433594 92.22663879394531 C 139.6199951171875 95.12518310546875 147.11849975585938 102.29259490966797 149.86167907714844 112.34085083007812" stroke-width="0.0" fill="rgb(196, 200, 211)" opacity="1.0"/>
    <path d="M 36.86362838745117 110.47013092041016 C 33.74355697631836 121.20951843261719 26.0632266998291 128.34454345703125 16.00214195251465 131.00079345703125 C 6.0 128.3205108642578 -1.3205084800720215 121.0 -4.572818756103516 110.45343780517578 C -2.0955984592437744 100.22388458251953 5.206858158111572 92.85415649414062 15.515239715576172 90.14718627929688 C 26.765010833740234 92.90299224853516 34.134002685546875 100.22161865234375 36.86362838745117 110.47013092041016" stroke-width="0.0" fill="rgb(104, 115, 143)" opacity="1.0"/>
    <path d="M 137.0262451171875 27.013904571533203 C 134.47555541992188 37.25388717651367 127.41999053955078 44.924495697021484 116.71488189697266 47.86631393432617 C 106.26569366455078 45.097412109375 98.98026275634766 37.70829772949219 96.37348937988281 27.019542694091797 C 98.98766326904297 16.300140380859375 106.2679214477539 8.894684791564941 116.46614074707031 6.126551151275635 C 127.35645294189453 9.135222434997559 134.4286346435547 16.80233383178711 137.0262451171875 27.013904571533203" stroke-width="0.0" fill="rgb(110, 121, 150)" opacity="1.0"/>
    <path d="M 603.1136474609375 442.886474609375 C 600.3204956054688 453.0 593.0 460.32049560546875 582.9957275390625 463.00689697265625 C 572.99365234375 460.32904052734375 565.6748657226562 453.00518798828125 563.11962890625 443.0595397949219 C 565.7185668945312 432.931884765625 572.8854370117188 425.5552673339844 583.3480224609375 422.5581970214844 C 593.3433837890625 425.2529296875 600.6036987304688 432.70220947265625 603.1136474609375 442.886474609375" stroke-width="0.0" fill="rgb(190, 215, 243)" opacity="0.99029166"/>
    <path d="M 105.02226257324219 73.96449279785156 C 102.33170318603516 84.02037048339844 95.04437255859375 91.41262817382812 84.47482299804688 94.64908599853516 C 74.27201080322266 92.07264709472656 66.9720458984375 84.71382904052734 64.184326171875 73.5642318725586 C 67.0177993774414 63.51329040527344 74.68853759765625 56.490238189697266 85.55335235595703 53.26184844970703 C 95.45472717285156 56.05299758911133 102.49961853027344 63.707828521728516 105.02226257324219 73.96449279785156" stroke-width="0.0" fill="rgb(109, 119, 144)" opacity="1.0"/>
    <path d="M 168.953369140625 553.530029296875 C 166.1844940185547 563.8116455078125 158.78016662597656 571.1072387695312 148.25062561035156 573.8020629882812 C 137.3824920654297 570.9912109375 129.98475646972656 563.6275024414062 127.15665435791016 553.1358642578125 C 130.06298828125 542.6004638671875 137.94302368164062 536.0 148.50926208496094 532.2301025390625 C 157.49456787109375 536.138916015625 165.97091674804688 543.1941528320312 168.953369140625 553.530029296875" stroke-width="0.0" fill="rgb(79, 89, 106)" opacity="0.99007404"/>
    <path d="M 248.6904754638672 11.464679718017578 C 245.269775390625 21.898548126220703 237.776611328125 28.91953468322754 227.19650268554688 32.720123291015625 C 217.16944885253906 30.19511604309082 209.93309020996094 22.787704467773438 207.57046508789062 12.456703186035156 C 210.68153381347656 2.001237392425537 218.0008087158203 -5.319944381713867 228.08334350585938 -8.059534072875977 C 238.38417053222656 -5.60615873336792 245.96258544921875 1.4926273822784424 248.6904754638672 11.464679718017578" stroke-width="0.0" fill="rgb(116, 126, 154)" opacity="1.0"/>
    <path d="M 41.97575378417969 351.9827575683594 C 39.282745361328125 361.97137451171875 31.976308822631836 369.299072265625 22.07099151611328 371.849365234375 C 12.1172513961792 369.1788024902344 4.645612716674805 361.9273681640625 1.1604883670806885 351.40576171875 C 4.070965766906738 341.5903625488281 11.774565696716309 334.5557861328125 21.9781551361084 331.9888610839844 C 32.0 334.67950439453125 39.32050704956055 342.0 41.97575378417969 351.9827575683594" stroke-width="0.0" fill="rgb(8, 4, 4)" opacity="0.9903807"/>
    <path d="M 104.94796752929688 513.314453125 C 102.16947174072266 524.8019409179688 94.78531646728516 532.1298217773438 84.61067962646484 534.8273315429688 C 73.85673522949219 531.6470336914062 66.74161529541016 524.010498046875 64.18953704833984 513.962890625 C 66.67609405517578 503.9370422363281 73.79658508300781 496.2770690917969 84.82484436035156 493.0755310058594 C 94.89703369140625 495.7660827636719 102.23657989501953 503.101806640625 104.94796752929688 513.314453125" stroke-width="0.0" fill="rgb(113, 128, 152)" opacity="1.0"/>
    <path d="M 26.999881744384766 556.9998779296875 C 24.32021713256836 566.9996948242188 16.99970817565918 574.3201904296875 6.999356269836426 577.0011596679688 C -3.0002434253692627 574.321044921875 -10.320560455322266 567.0001220703125 -13.006047248840332 556.9874877929688 C -10.399839401245117 546.84326171875 -3.3156826496124268 539.1665649414062 6.509332656860352 536.2593383789062 C 17.006847381591797 539.6577758789062 24.32079315185547 546.9990844726562 26.999881744384766 556.9998779296875" stroke-width="0.0" fill="rgb(126, 141, 170)" opacity="1.0"/>
    <path d="M 63.14907455444336 339.94970703125 C 60.60020065307617 349.3448791503906 53.38259506225586 356.708984375 43.37596130371094 360.739501953125 C 33.765045166015625 357.77545166015625 26.648906707763672 350.0765075683594 23.960966110229492 339.95758056640625 C 26.53792381286621 329.83782958984375 33.818206787109375 322.47308349609375 43.834999084472656 319.88079833984375 C 53.5226936340332 323.0452575683594 60.626312255859375 330.5846862792969 63.14907455444336 339.94970703125" stroke-width="0.0" fill="rgb(175, 141, 99)" opacity="0.9900253"/>
    <path d="M 123.0439682006836 72.93016052246094 C 120.31978607177734 82.9977798461914 112.98519897460938 90.27521514892578 103.02155303955078 92.49323272705078 C 93.02027893066406 90.25395965576172 85.68030548095703 82.99871063232422 82.98776245117188 72.94319152832031 C 85.44563293457031 62.6524772644043 92.5035400390625 55.027767181396484 103.14997863769531 52.13588333129883 C 113.53631591796875 54.99596405029297 120.5914306640625 62.61057662963867 123.0439682006836 72.93016052246094" stroke-width="0.0" fill="rgb(107, 117, 142)" opacity="0.99181336"/>
    <path d="M 288.0850524902344 586.0313720703125 C 285.498046875 596.184814453125 278.1911926269531 603.5192260742188 268.079345703125 606.0829467773438 C 258.0 603.3204956054688 250.6794891357422 596.0 248.0 586.0 C 250.6794891357422 576.0 258.0 568.6795043945312 268.15313720703125 565.7875366210938 C 278.2117919921875 568.4028930664062 285.4465026855469 575.8348388671875 288.0850524902344 586.0313720703125" stroke-width="0.0" fill="rgb(163, 171, 182)" opacity="1.0"/>
    <path d="M 279.9568176269531 35.03953552246094 C 277.32049560546875 45.0 270.0 52.32050704956055 259.5514221191406 55.47600173950195 C 249.2893524169922 53.02316665649414 241.92242431640625 45.72835159301758 239.38909912109375 35.5536994934082 C 242.6794891357422 25.0 250.0 17.67949104309082 259.9722900390625 15.025986671447754 C 269.91064453125 17.762893676757812 277.2178649902344 25.09515953063965 279.9568176269531 35.03953552246094" stroke-width="0.0" fill="rgb(203, 195, 191)" opacity="1.0"/>
    <path d="M 25.894994735717773 42.17103958129883 C 23.055517196655273 52.60535430908203 15.47330379486084 59.6865234375 4.4167985916137695 62.80617141723633 C -5.340484142303467 59.88935852050781 -12.38314437866211 52.14080810546875 -15.00564956665039 42.002403259277344 C -12.357789993286133 31.920452117919922 -5.173245429992676 24.360332489013672 4.792454719543457 21.519210815429688 C 15.46705150604248 24.32663345336914 23.05057144165039 31.39946746826172 25.894994735717773 42.17103958129883" stroke-width="0.0" fill="rgb(99, 110, 138)" opacity="1.0"/>
    <path d="M 560.2096557617188 541.7896118164062 C 557.3119506835938 551.9899291992188 549.9876098632812 559.303955078125 539.4630737304688 562.698486328125 C 529.4628295898438 559.9527587890625 522.1988525390625 552.4832763671875 519.7108764648438 542.2518310546875 C 522.678466796875 531.9993896484375 529.9994506835938 524.6785278320312 540.436279296875 521.4290161132812 C 550.5347290039062 524.07177734375 557.7743530273438 531.5158081054688 560.2096557617188 541.7896118164062" stroke-width="0.0" fill="rgb(161, 182, 213)" opacity="0.9906657"/>
    <path d="M 90.7490234375 46.558597564697266 C 87.91841888427734 56.41807174682617 80.2547836303711 63.471290588378906 69.28510284423828 66.8136215209961 C 59.189971923828125 64.15658569335938 51.84755325317383 56.80845260620117 49.08673858642578 45.530052185058594 C 51.82570266723633 35.18039321899414 59.19403839111328 27.86261749267578 69.36085510253906 25.298913955688477 C 79.99990844726562 28.679597854614258 87.32176208496094 35.999717712402344 90.7490234375 46.558597564697266" stroke-width="0.0" fill="rgb(106, 117, 143)" opacity="1.0"/>
    <path d="M 114.9837646484375 138.9391326904297 C 112.01400756835938 148.55931091308594 104.42245483398438 155.61212158203125 94.55058288574219 158.1368865966797 C 85.42225646972656 155.805908203125 78.30924224853516 148.5219268798828 75.80384063720703 138.2564239501953 C 76.89064025878906 128.23777770996094 84.22059631347656 120.84989929199219 94.26082611083984 118.4004898071289 C 104.84049987792969 121.95449829101562 112.27417755126953 129.0859832763672 114.9837646484375 138.9391326904297" stroke-width="0.0" fill="rgb(235, 245, 249)" opacity="0.9901644"/>
    <path d="M 59.92628860473633 201.14559936523438 C 57.01871871948242 211.44586181640625 49.11027908325195 218.24490356445312 38.68980026245117 221.45140075683594 C 28.537403106689453 218.83108520507812 21.453777313232422 211.3917694091797 19.665090560913086 200.92881774902344 C 21.716552734375 191.01104736328125 29.000816345214844 183.6797332763672 39.06476593017578 180.95240783691406 C 49.36627197265625 183.43121337890625 57.04331970214844 190.44863891601562 59.92628860473633 201.14559936523438" stroke-width="0.0" fill="rgb(10, 12, 10)" opacity="0.9901001"/>
    <path d="M 41.42829132080078 174.47256469726562 C 38.955482482910156 184.76791381835938 31.858612060546875 192.23104858398438 21.979934692382812 194.98715209960938 C 12.0 192.3205108642578 4.679491996765137 185.0 1.2861326932907104 174.35879516601562 C 3.870523452758789 164.21409606933594 11.211468696594238 156.8621826171875 22.17217254638672 154.09622192382812 C 32.76420593261719 156.85910034179688 40.01368713378906 164.27999877929688 41.42829132080078 174.47256469726562" stroke-width="0.0" fill="rgb(93, 106, 130)" opacity="0.9908139"/>
    <path d="M 447.6944274902344 2.8748199939727783 C 444.6136169433594 13.155978202819824 437.07086181640625 20.354310989379883 427.0050048828125 23.002347946166992 C 417.0 20.32050895690918 409.67950439453125 13.0 407.0 3.0 C 409.67950439453125 -7.0 417.0 -14.320508003234863 427.001220703125 -17.000446319580078 C 437.03607177734375 -14.334041595458984 444.6018371582031 -7.125031471252441 447.6944274902344 2.8748199939727783" stroke-width="0.0" fill="rgb(155, 166, 193)" opacity="0.9991485"/>
    <path d="M 544.693115234375 5.81167459487915 C 541.7418823242188 16.328699111938477 534.2595825195312 23.524309158325195 524.0589599609375 26.030935287475586 C 513.9261474609375 23.351356506347656 506.3720703125 16.16506004333496 503.26898193359375 5.738696575164795 C 506.263916015625 -4.227685928344727 513.9037475585938 -11.36475658416748 523.9990844726562 -14.005117416381836 C 534.080810546875 -11.3577299118042 541.6902465820312 -4.195540428161621 544.693115234375 5.81167459487915" stroke-width="0.0" fill="rgb(165, 174, 205)" opacity="0.99241424"/>
    <path d="M 32.89176940917969 428.4414367675781 C 30.007823944091797 439.54266357421875 22.400360107421875 446.60943603515625 11.773429870605469 449.3583984375 C 1.5907869338989258 446.7925720214844 -5.627018451690674 439.35784912109375 -8.16797924041748 428.9834289550781 C -5.680590629577637 418.549560546875 1.4297447204589844 410.9808654785156 12.580416679382324 408.095947265625 C 22.829288482666016 410.823974609375 30.17160987854004 418.1724853515625 32.89176940917969 428.4414367675781" stroke-width="0.0" fill="rgb(119, 135, 162)" opacity="1.0"/>
    <path d="M 72.941162109375 426.2589111328125 C 70.17381286621094 437.8686218261719 62.899173736572266 445.25238037109375 52.87553024291992 447.9544372558594 C 41.604129791259766 444.94256591796875 34.484962463378906 437.1990661621094 31.265117645263672 426.4231262207031 C 33.89417266845703 416.2570495605469 41.29320526123047 409.0082702636719 52.642486572265625 406.24493408203125 C 62.87377166748047 408.8059387207031 70.23033905029297 416.1132507324219 72.941162109375 426.2589111328125" stroke-width="0.0" fill="rgb(18, 16, 18)" opacity="0.9900117"/>
    <path d="M 279.849609375 592.3929443359375 C 277.4591064453125 602.0667724609375 270.0282897949219 609.3330688476562 259.9905700683594 612.0062255859375 C 249.87425231933594 609.3861694335938 242.2646026611328 602.2462768554688 239.10670471191406 591.2539672851562 C 241.84158325195312 581.2828979492188 249.49330139160156 574.6512451171875 259.4929504394531 572.6781005859375 C 269.2989807128906 575.425048828125 276.68914794921875 582.6646728515625 279.849609375 592.3929443359375" stroke-width="0.0" fill="rgb(74, 83, 101)" opacity="0.99003595"/>
    <path d="M 45.44804000854492 546.4038696289062 C 42.9681396484375 556.6336669921875 35.63582229614258 563.9754638671875 25.428752899169922 566.4957885742188 C 15.000624656677246 563.3199462890625 7.680636405944824 555.9992065429688 4.979355335235596 545.98486328125 C 7.65029239654541 535.9804077148438 14.98638916015625 528.6703491210938 24.999774932861328 525.9964599609375 C 35.00567626953125 528.674072265625 42.328773498535156 535.9934692382812 45.44804000854492 546.4038696289062" stroke-width="0.0" fill="rgb(126, 141, 170)" opacity="1.0"/>
    <path d="M 448.7644348144531 19.42774200439453 C 445.9765625 29.573551177978516 438.50848388671875 36.774383544921875 428.45452880859375 38.530826568603516 C 418.3670349121094 35.82984161376953 410.6896667480469 28.766590118408203 407.4866943359375 18.941837310791016 C 410.5089416503906 8.924516677856445 417.973876953125 1.6685380935668945 428.0081787109375 -1.0055787563323975 C 438.1009521484375 1.6256890296936035 445.6559143066406 8.80576229095459 448.7644348144531 19.42774200439453" stroke-width="0.0" fill="rgb(156, 170, 198)" opacity="0.99014705"/>
    <path d="M 313.8343200683594 583.6572875976562 C 309.66644287109375 593.279296875 302.2543640136719 600.5623168945312 292.76348876953125 603.3313598632812 C 283.7681579589844 600.588134765625 276.5272521972656 593.1939086914062 272.43963623046875 583.2205200195312 C 275.126953125 573.7210083007812 283.1853942871094 567.1539306640625 292.9733581542969 564.8228149414062 C 302.66357421875 567.2138671875 310.7322082519531 573.9757690429688 313.8343200683594 583.6572875976562" stroke-width="0.0" fill="rgb(241, 247, 250)" opacity="0.9900247"/>
    <path d="M 520.4596557617188 550.3344116210938 C 517.8155517578125 560.4266967773438 510.42108154296875 567.802978515625 500.25848388671875 570.6171875 C 489.7823181152344 567.5740356445312 482.3057556152344 560.2612915039062 479.5690002441406 550.2774658203125 C 482.67950439453125 540.0 490.0 532.6795043945312 500.0 530.0 C 510.0 532.6795043945312 517.3204956054688 540.0 520.4596557617188 550.3344116210938" stroke-width="0.0" fill="rgb(160, 181, 213)" opacity="1.0"/>
    <path d="M 180.8630828857422 23.645967483520508 C 178.16668701171875 33.82049560546875 170.81980895996094 41.16549301147461 160.7410888671875 43.83716583251953 C 150.00465393066406 40.3121223449707 142.68109130859375 32.997310638427734 139.99974060058594 22.999801635742188 C 142.6794891357422 13.0 150.0 5.679491996765137 160.01296997070312 2.993462562561035 C 170.1507110595703 5.60129976272583 177.8019561767578 12.704952239990234 180.8630828857422 23.645967483520508" stroke-width="0.0" fill="rgb(114, 125, 151)" opacity="1.0"/>
    <path d="M 258.0715026855469 563.095458984375 C 255.60675048828125 573.350341796875 248.39805603027344 580.7620849609375 237.28836059570312 583.613037109375 C 227.34585571289062 581.0664672851562 220.12518310546875 573.58447265625 217.32859802246094 562.8353271484375 C 220.13255310058594 552.5302124023438 227.59539794921875 545.3472290039062 237.96145629882812 542.7943725585938 C 247.96998596191406 545.7274780273438 255.3094024658203 553.0189208984375 258.0715026855469 563.095458984375" stroke-width="0.0" fill="rgb(218, 219, 226)" opacity="1.0"/>
    <path d="M 543.7711181640625 513.8536987304688 C 540.7145385742188 524.2286376953125 533.115234375 531.3837280273438 523.0023803710938 533.96728515625 C 513.0014038085938 531.3173217773438 505.6437683105469 524.0097045898438 503.2005615234375 514.08203125 C 505.7838134765625 504.0892333984375 513.0916137695312 496.7923889160156 523.1835327148438 494.2352294921875 C 533.3501586914062 496.3577880859375 540.840087890625 503.58465576171875 543.7711181640625 513.8536987304688" stroke-width="0.0" fill="rgb(183, 204, 233)" opacity="0.99015945"/>
    <path d="M 43.999717712402344 305.99945068359375 C 41.31723403930664 315.9934997558594 33.98604202270508 323.2916564941406 23.97637176513672 325.9478454589844 C 14.0 323.32049560546875 6.679491996765137 316.0 3.242189407348633 305.3725891113281 C 5.942023277282715 295.3758544921875 13.492177963256836 288.28167724609375 23.870765686035156 285.9086608886719 C 34.0 288.67950439453125 41.32050704956055 296.0 43.999717712402344 305.99945068359375" stroke-width="0.0" fill="rgb(14, 8, 6)" opacity="0.9903542"/>
    <path d="M 451.1178894042969 471.2887878417969 C 448.6005554199219 480.3795471191406 441.4714050292969 487.8714904785156 431.82598876953125 490.85650634765625 C 421.9984130859375 488.3209533691406 414.6092834472656 481.0214538574219 411.17901611328125 470.5963439941406 C 414.306884765625 461.3472900390625 422.5893859863281 454.3953857421875 431.807861328125 451.8858947753906 C 441.2893981933594 454.4369812011719 448.56903076171875 461.70819091796875 451.1178894042969 471.2887878417969" stroke-width="0.0" fill="rgb(138, 160, 93)" opacity="0.9900346"/>
    <path d="M 118.88389587402344 569.9649658203125 C 116.05426788330078 580.6610107421875 108.62518310546875 587.95751953125 98.40597534179688 590.4757080078125 C 87.92356872558594 587.3530883789062 80.27262878417969 580.2101440429688 77.15206146240234 569.5264282226562 C 79.93060302734375 559.2786865234375 87.25929260253906 551.8838500976562 97.79925537109375 549.1130981445312 C 108.77136993408203 551.8722534179688 116.10942840576172 559.236083984375 118.88389587402344 569.9649658203125" stroke-width="0.0" fill="rgb(135, 150, 183)" opacity="1.0"/>
    <path d="M 536.2943115234375 127.04713439941406 C 533.57373046875 137.29360961914062 526.3312377929688 144.6972198486328 515.9810180664062 147.50454711914062 C 505.6695861816406 144.65391540527344 498.3567199707031 137.328369140625 495.6107482910156 127.03404235839844 C 498.4098815917969 116.76701354980469 505.78863525390625 109.48370361328125 515.99658203125 106.70353698730469 C 526.279052734375 109.4659423828125 533.659912109375 116.68506622314453 536.2943115234375 127.04713439941406" stroke-width="0.0" fill="rgb(252, 251, 224)" opacity="0.9902622"/>
    <path d="M 37.00053787231445 520.0003662109375 C 34.32120895385742 530.0004272460938 27.000280380249023 537.3206176757812 16.551498413085938 540.4791870117188 C 6.303612232208252 538.0174560546875 -1.0536832809448242 530.7081909179688 -3.6842098236083984 520.305908203125 C -0.9334562420845032 509.43426513671875 6.473723411560059 502.19403076171875 16.784059524536133 499.8064880371094 C 27.0 502.67950439453125 34.32050704956055 510.0 37.00053787231445 520.0003662109375" stroke-width="0.0" fill="rgb(127, 142, 171)" opacity="1.0"/>
    <path d="M 69.8355941772461 82.6396713256836 C 67.15320587158203 92.80609130859375 59.81037902832031 100.1639404296875 48.909332275390625 102.92389678955078 C 38.1966552734375 100.160400390625 30.870275497436523 92.79170227050781 28.25606346130371 82.61056518554688 C 31.171897888183594 71.4124755859375 38.326011657714844 63.91602325439453 49.06502914428711 61.115657806396484 C 59.73160171508789 63.89291000366211 67.00323486328125 71.30451965332031 69.8355941772461 82.6396713256836" stroke-width="0.0" fill="rgb(109, 120, 145)" opacity="0.99490255"/>
    <path d="M 544.6196899414062 88.83747863769531 C 541.7907104492188 99.41556549072266 534.367919921875 106.62686920166016 523.81396484375 109.26447296142578 C 513.7086181640625 106.62454986572266 506.2838134765625 99.32145690917969 503.6159362792969 89.32768249511719 C 506.44671630859375 78.68067932128906 513.6177368164062 71.22801971435547 524.011962890625 68.4317398071289 C 534.51220703125 71.15191650390625 541.8966674804688 78.4710922241211 544.6196899414062 88.83747863769531" stroke-width="0.0" fill="rgb(192, 206, 228)" opacity="0.9902459"/>
    <path d="M 354.908447265625 18.071208953857422 C 352.2801513671875 27.92746925354004 344.8449401855469 35.02781677246094 334.5025634765625 37.287628173828125 C 324.4568176269531 35.89495086669922 317.1382141113281 28.532100677490234 314.40948486328125 17.93269157409668 C 317.0469665527344 7.396658897399902 324.4206848144531 0.125632643699646 334.7657775878906 -2.282742977142334 C 344.995361328125 0.5626083612442017 352.1552429199219 8.095118522644043 354.908447265625 18.071208953857422" stroke-width="0.0" fill="rgb(234, 242, 246)" opacity="1.0"/>
    <path d="M 58.05274963378906 306.1780700683594 C 55.46552658081055 315.1966552734375 48.22755432128906 322.54254150390625 38.370521545410156 325.2899475097656 C 29.19101333618164 323.4396667480469 22.219743728637695 315.6169738769531 19.68558692932129 305.5876770019531 C 21.700769424438477 296.00628662109375 29.00048065185547 288.6796569824219 38.40037536621094 286.62158203125 C 48.1841926574707 289.49200439453125 55.448486328125 296.83709716796875 58.05274963378906 306.1780700683594" stroke-width="0.0" fill="rgb(131, 78, 43)" opacity="0.9900128"/>
    <path d="M 40.888736724853516 7.549840927124023 C 38.1416130065918 17.753887176513672 30.687591552734375 24.943517684936523 20.304931640625 27.26180076599121 C 10.000056266784668 24.32036590576172 2.6793885231018066 17.000015258789062 -0.0007144162664189935 6.999907493591309 C 2.6792163848876953 -3.0001401901245117 9.99992847442627 -10.320545196533203 20.01906394958496 -13.009459495544434 C 30.213605880737305 -10.434121131896973 37.915557861328125 -3.395554780960083 40.888736724853516 7.549840927124023" stroke-width="0.0" fill="rgb(99, 108, 135)" opacity="1.0"/>
    <path d="M 386.6806335449219 21.027240753173828 C 384.34722900390625 31.024677276611328 377.0207214355469 38.33525848388672 367.0036315917969 41.002532958984375 C 357.0 38.32050704956055 349.6795654296875 30.999982833862305 346.9993896484375 20.979841232299805 C 349.5824890136719 10.865492820739746 356.8370056152344 3.4863932132720947 366.8035888671875 1.6408437490463257 C 377.1498718261719 3.5378639698028564 384.4593505859375 10.853205680847168 386.6806335449219 21.027240753173828" stroke-width="0.0" fill="rgb(236, 242, 245)" opacity="1.0"/>
    <path d="M 568.4232788085938 444.9029846191406 C 565.497802734375 455.17901611328125 558.2155151367188 462.6105651855469 548.1156616210938 465.3775939941406 C 537.7411499023438 462.5567321777344 530.2923583984375 455.3062438964844 527.4474487304688 445.35955810546875 C 530.8151245117188 435.10284423828125 538.100341796875 427.79412841796875 547.7201538085938 425.417724609375 C 557.9306030273438 427.9320373535156 565.5322875976562 434.9092102050781 568.4232788085938 444.9029846191406" stroke-width="0.0" fill="rgb(248, 247, 247)" opacity="0.99550104"/>
    <path d="M 473.3677673339844 74.93004608154297 C 470.36712646484375 84.98833465576172 462.8782958984375 92.0434341430664 452.54486083984375 95.15223693847656 C 442.30914306640625 92.96357727050781 434.8668518066406 85.74824523925781 432.1193542480469 75.64083099365234 C 435.0008850097656 64.29467010498047 442.2523193359375 56.87698745727539 452.3175964355469 54.17959213256836 C 462.8367614746094 57.892433166503906 470.31561279296875 65.10382080078125 473.3677673339844 74.93004608154297" stroke-width="0.0" fill="rgb(235, 205, 171)" opacity="0.99017143"/>
    <path d="M 162.99700927734375 6.99976921081543 C 160.31874084472656 16.998207092285156 152.99794006347656 24.317838668823242 142.99835205078125 26.997135162353516 C 132.97962951660156 24.32784652709961 125.47811889648438 17.081541061401367 122.2409896850586 6.677196025848389 C 125.18734741210938 -3.304995059967041 132.8422393798828 -10.402655601501465 142.98635864257812 -13.006789207458496 C 152.9999237060547 -10.320472717285156 160.32005310058594 -2.999802827835083 162.99700927734375 6.99976921081543" stroke-width="0.0" fill="rgb(115, 126, 153)" opacity="1.0"/>
    <path d="M 274.0776062011719 27.035385131835938 C 271.32049560546875 37.0 264.0 44.32050704956055 254.43484497070312 46.39556121826172 C 244.34815979003906 43.78898620605469 236.72140502929688 36.82466506958008 234.8910369873047 27.76104164123535 C 237.5038604736328 17.763715744018555 244.730712890625 10.422202110290527 254.0258026123047 7.863039493560791 C 263.4859619140625 10.327337265014648 271.0528869628906 17.386425018310547 274.0776062011719 27.035385131835938" stroke-width="0.0" fill="rgb(238, 242, 248)" opacity="0.99004084"/>
    <path d="M 136.4997100830078 131.50941467285156 C 133.57192993164062 141.23165893554688 126.19332885742188 148.46461486816406 116.11201477050781 151.34689331054688 C 106.1683120727539 150.20277404785156 99.08650970458984 142.7613067626953 97.92913055419922 132.75038146972656 C 100.54022216796875 122.811767578125 107.77301788330078 115.4323501586914 117.496826171875 112.50846862792969 C 127.0 114.67948913574219 134.3205108642578 122.0 136.4997100830078 131.50941467285156" stroke-width="0.0" fill="rgb(100, 76, 77)" opacity="0.9900306"/>
    <path d="M 618.0 200.00001525878906 C 615.3203125 209.9994659423828 607.9973754882812 217.3129119873047 597.6600341796875 220.5529022216797 C 587.7168579101562 217.69923400878906 580.4655151367188 210.23101806640625 577.6861572265625 200.0623321533203 C 580.5175170898438 189.7548828125 587.7262573242188 182.40908813476562 597.8829345703125 180.1570281982422 C 607.9913330078125 182.70556640625 615.3200073242188 190.00149536132812 618.0 200.00001525878906" stroke-width="0.0" fill="rgb(202, 218, 248)" opacity="0.99028146"/>
    <path d="M 600.625 7.332843780517578 C 597.9121704101562 17.538978576660156 590.5184326171875 24.850831985473633 580.0496826171875 27.567785263061523 C 569.677978515625 24.733173370361328 562.47216796875 17.25675392150879 559.9468994140625 7.065126895904541 C 562.6795043945312 -3.0 570.0 -10.320508003234863 580.0032348632812 -13.001458168029785 C 590.04736328125 -10.34270191192627 597.5258178710938 -3.1049957275390625 600.625 7.332843780517578" stroke-width="0.0" fill="rgb(174, 181, 212)" opacity="0.99047935"/>
    <path d="M 498.2995910644531 530.7691040039062 C 495.2801513671875 540.9340209960938 487.884521484375 548.1204833984375 477.7447814941406 550.4467163085938 C 467.6368408203125 548.6834716796875 460.2516784667969 541.3824462890625 457.715576171875 531.4186401367188 C 460.8870544433594 521.0191040039062 467.9129333496094 513.5615844726562 477.9325256347656 511.0166015625 C 488.3089599609375 513.4374389648438 495.7157897949219 520.6488647460938 498.2995910644531 530.7691040039062" stroke-width="0.0" fill="rgb(230, 224, 236)" opacity="0.99024945"/>
    <path d="M 50.850154876708984 389.69854736328125 C 48.189998626708984 399.94464111328125 41.02042770385742 407.4371032714844 30.380786895751953 410.83050537109375 C 20.360239028930664 408.0561218261719 13.25373649597168 400.5431823730469 11.751981735229492 390.3395080566406 C 13.436887741088867 379.6842041015625 20.65644645690918 372.3282165527344 31.74215316772461 369.1492614746094 C 41.7640266418457 371.8377685546875 48.89883804321289 379.3244934082031 50.850154876708984 389.69854736328125" stroke-width="0.0" fill="rgb(15, 15, 17)" opacity="0.99001527"/>
    <path d="M 445.97869873046875 4.990593910217285 C 443.3063049316406 14.991711616516113 435.9942626953125 22.31513214111328 425.9662780761719 25.01483726501465 C 415.75439453125 22.470720291137695 408.10626220703125 15.397985458374023 405.24835205078125 5.485712051391602 C 408.5585021972656 -5.04883337020874 415.9858703613281 -12.325922012329102 425.9994812011719 -15.000205993652344 C 435.9999694824219 -12.320494651794434 443.3202209472656 -4.999894142150879 445.97869873046875 4.990593910217285" stroke-width="0.0" fill="rgb(156, 167, 194)" opacity="0.9991654"/>
    <path d="M 617.0 466.9999694824219 C 614.3202514648438 476.9993896484375 606.9998168945312 484.3221130371094 596.7460327148438 487.43438720703125 C 586.62451171875 484.74957275390625 579.3462524414062 477.3455505371094 576.8547973632812 467.1453857421875 C 579.687744140625 457.0069885253906 587.0072021484375 449.68865966796875 597.0037231445312 447.0213317871094 C 606.9996337890625 449.6805725097656 614.3204956054688 457.00006103515625 617.0 466.9999694824219" stroke-width="0.0" fill="rgb(186, 208, 237)" opacity="0.99415743"/>
    <path d="M 24.063138961791992 325.04315185546875 C 21.364208221435547 335.0187683105469 13.998608589172363 342.29339599609375 3.4970052242279053 345.6001281738281 C -6.1788249015808105 342.6954650878906 -13.34054946899414 335.0531311035156 -16.000648498535156 325.00177001953125 C -13.320508003234863 315.0 -6.0 307.67950439453125 3.9999334812164307 305.0000305175781 C 13.998974800109863 307.6799621582031 21.31448745727539 315.00262451171875 24.063138961791992 325.04315185546875" stroke-width="0.0" fill="rgb(16, 15, 17)" opacity="0.9911572"/>
    <path d="M 542.8499755859375 578.9409790039062 C 540.0665283203125 589.699462890625 532.68603515625 597.0302734375 521.6337890625 599.8290405273438 C 511.2821044921875 597.0717163085938 503.9128112792969 589.7240600585938 501.1712646484375 579.4290161132812 C 504.0442810058594 568.4515380859375 511.4974365234375 561.1672973632812 522.270751953125 558.3060302734375 C 532.6510009765625 561.0087890625 540.048583984375 568.3281860351562 542.8499755859375 578.9409790039062" stroke-width="0.0" fill="rgb(145, 164, 195)" opacity="0.9923916"/>
    <path d="M 186.908203125 68.16775512695312 C 182.47483825683594 78.14408874511719 175.12509155273438 85.4187240600586 165.15167236328125 88.06615447998047 C 155.7637939453125 86.67816162109375 149.09054565429688 78.95478057861328 146.88665771484375 68.29627227783203 C 147.97393798828125 58.31940460205078 155.31532287597656 50.964454650878906 165.57472229003906 49.819915771484375 C 176.64346313476562 51.09922790527344 184.15928649902344 58.25620651245117 186.908203125 68.16775512695312" stroke-width="0.0" fill="rgb(241, 248, 250)" opacity="0.990047"/>
    <path d="M 38.50181579589844 179.73126220703125 C 35.913719177246094 189.7812957763672 29.08271026611328 197.68873596191406 19.36287498474121 200.57574462890625 C 9.00063705444336 197.3206024169922 1.6811734437942505 189.9988555908203 -1.5117545127868652 179.6050262451172 C 1.121402382850647 169.55430603027344 8.651073455810547 162.41641235351562 18.919170379638672 159.92648315429688 C 28.97524070739746 162.69461059570312 36.24601364135742 170.042236328125 38.50181579589844 179.73126220703125" stroke-width="0.0" fill="rgb(99, 112, 136)" opacity="0.9905777"/>
    <path d="M 45.82390594482422 286.188232421875 C 41.788455963134766 296.5960693359375 34.71199035644531 304.1604919433594 24.75381851196289 307.5782165527344 C 14.472785949707031 304.78851318359375 6.930634021759033 297.6337890625 4.143552780151367 286.4927062988281 C 6.791861057281494 276.11407470703125 14.097177505493164 268.7498474121094 24.1391658782959 266.0398254394531 C 35.74214172363281 268.9137878417969 43.17262649536133 276.2163391113281 45.82390594482422 286.188232421875" stroke-width="0.0" fill="rgb(16, 12, 10)" opacity="0.9900316"/>
    <path d="M 212.05413818359375 536.4119873046875 C 209.51995849609375 545.3390502929688 202.44146728515625 552.6930541992188 193.64564514160156 555.0747680664062 C 183.8162384033203 552.4719848632812 176.52626037597656 545.184326171875 172.2760772705078 535.12060546875 C 174.80686950683594 525.1883544921875 182.28578186035156 518.326904296875 192.3031005859375 516.9382934570312 C 202.15330505371094 519.552734375 209.4439239501953 526.84814453125 212.05413818359375 536.4119873046875" stroke-width="0.0" fill="rgb(132, 80, 47)" opacity="0.9900069"/>
    <path d="M 609.9949951171875 127.00431823730469 C 607.3248901367188 137.017333984375 600.0416870117188 144.40545654296875 589.7523193359375 147.4984130859375 C 579.599853515625 144.75733947753906 572.2489624023438 137.3987579345703 569.3910522460938 126.87638092041016 C 572.1553344726562 116.50460815429688 579.5008544921875 109.14454650878906 589.6848754882812 106.6173095703125 C 599.97412109375 109.7099380493164 607.3025512695312 117.02212524414062 609.9949951171875 127.00431823730469" stroke-width="0.0" fill="rgb(200, 211, 240)" opacity="0.99170464"/>
    <path d="M 499.7547912597656 37.194400787353516 C 496.9472351074219 47.583274841308594 489.5989990234375 54.98711395263672 479.0676574707031 57.817161560058594 C 468.4190673828125 54.96880340576172 461.0767517089844 47.56376266479492 458.30865478515625 37.107357025146484 C 461.0950927734375 26.44932746887207 468.4404296875 19.070581436157227 479.1304016113281 16.275482177734375 C 489.6062316894531 19.026805877685547 496.9390563964844 26.405868530273438 499.7547912597656 37.194400787353516" stroke-width="0.0" fill="rgb(170, 181, 208)" opacity="0.99153817"/>
    <path d="M 106.12213134765625 452.20166015625 C 104.2892074584961 462.2744140625 96.93255615234375 468.7086486816406 86.10000610351562 472.87939453125 C 76.08309173583984 470.2524108886719 68.7506103515625 462.91558837890625 66.04206848144531 452.7918701171875 C 68.87155151367188 441.24566650390625 76.24065399169922 433.865966796875 86.32431030273438 431.3998718261719 C 96.40794372558594 435.13238525390625 103.62158966064453 442.6533508300781 106.12213134765625 452.20166015625" stroke-width="0.0" fill="rgb(48, 37, 37)" opacity="0.99000555"/>
    <path d="M 408.1909484863281 558.7279663085938 C 405.3216552734375 569.1741333007812 398.27996826171875 576.6991577148438 388.1910400390625 579.5082397460938 C 377.7566223144531 576.5306396484375 370.3569030761719 569.2769165039062 368.7007751464844 559.3367309570312 C 370.7828674316406 548.8470458984375 377.7457580566406 541.3754272460938 388.2093505859375 538.4256591796875 C 398.36541748046875 541.2588500976562 405.6587829589844 548.660400390625 408.1909484863281 558.7279663085938" stroke-width="0.0" fill="rgb(231, 227, 237)" opacity="0.9904043"/>
    <path d="M 38.78715515136719 72.32891845703125 C 35.81351852416992 83.57440185546875 28.656518936157227 91.06255340576172 17.628704071044922 93.84976959228516 C 7.1984639167785645 91.14476776123047 -0.12946194410324097 83.79637145996094 -2.788142681121826 73.38775634765625 C 0.014810562133789062 62.437747955322266 7.5345377922058105 55.31058120727539 18.713441848754883 52.183475494384766 C 28.818140029907227 54.835548400878906 36.15605545043945 62.1850471496582 38.78715515136719 72.32891845703125" stroke-width="0.0" fill="rgb(104, 115, 141)" opacity="1.0"/>
    <path d="M 41.6751708984375 514.4177856445312 C 38.32370376586914 525.002197265625 31.00165367126465 532.32177734375 21.00044822692871 534.9996337890625 C 11.00024127960205 532.3202514648438 3.6800739765167236 524.9996337890625 0.4542269706726074 514.506103515625 C 2.957460403442383 504.28497314453125 10.261940002441406 496.8929443359375 20.843046188354492 494.114501953125 C 31.75749969482422 496.8837585449219 39.08419418334961 504.2543640136719 41.6751708984375 514.4177856445312" stroke-width="0.0" fill="rgb(127, 142, 170)" opacity="1.0"/>
    <path d="M 526.236572265625 541.1921997070312 C 523.6995849609375 551.3391723632812 516.3084106445312 558.5985717773438 506.1044921875 561.0714111328125 C 495.9960021972656 558.3167114257812 488.6185302734375 551.0228271484375 485.9637145996094 541.20654296875 C 489.010009765625 531.3169555664062 496.3407287597656 524.08544921875 506.254638671875 521.39404296875 C 515.9967651367188 523.6883544921875 523.3256225585938 530.9992065429688 526.236572265625 541.1921997070312" stroke-width="0.0" fill="rgb(171, 193, 222)" opacity="0.99047965"/>
    <path d="M 290.34954833984375 42.4849967956543 C 287.63323974609375 52.35367965698242 280.3385314941406 59.59465789794922 270.734375 62.13379669189453 C 261.55743408203125 59.672523498535156 254.1058807373047 52.513553619384766 250.28265380859375 42.77515411376953 C 254.17034912109375 33.5870361328125 261.6517333984375 26.397748947143555 270.93798828125 23.8759822845459 C 280.3918151855469 26.383859634399414 287.9277038574219 33.511749267578125 290.34954833984375 42.4849967956543" stroke-width="0.0" fill="rgb(199, 155, 99)" opacity="0.9900167"/>
    <path d="M 43.054317474365234 349.5829162597656 C 40.54180908203125 358.353515625 33.506813049316406 365.96258544921875 23.872426986694336 368.9996337890625 C 13.933438301086426 366.3955078125 6.58954381942749 359.0709533691406 3.892498254776001 349.064697265625 C 6.706211090087891 339.0138244628906 13.997322082519531 331.64862060546875 23.57662010192871 328.5537414550781 C 33.22209167480469 332.4341735839844 40.45484161376953 339.8171081542969 43.054317474365234 349.5829162597656" stroke-width="0.0" fill="rgb(10, 7, 7)" opacity="0.9900284"/>
    <path d="M 135.95870971679688 76.78150939941406 C 133.22938537597656 87.88567352294922 125.8858871459961 95.23017883300781 115.86048126220703 97.92105102539062 C 104.98888397216797 94.26459503173828 97.72212982177734 87.01490020751953 95.46073150634766 77.12252807617188 C 97.98178100585938 67.25313568115234 105.23478698730469 59.921382904052734 115.7435531616211 56.167320251464844 C 125.84353637695312 58.82919692993164 133.2236785888672 66.13422393798828 135.95870971679688 76.78150939941406" stroke-width="0.0" fill="rgb(70, 77, 98)" opacity="1.0"/>
    <path d="M 142.07615661621094 125.13304901123047 C 139.4238739013672 135.135986328125 132.15432739257812 142.470947265625 122.31908416748047 145.16200256347656 C 113.2281723022461 143.11334228515625 106.18985748291016 135.65626525878906 103.8517837524414 126.58147430419922 C 106.52145385742188 116.83891296386719 113.8576431274414 109.57032012939453 123.63636779785156 106.95145416259766 C 132.84375 109.4170150756836 141.06719970703125 115.40066528320312 142.07615661621094 125.13304901123047" stroke-width="0.0" fill="rgb(66, 54, 54)" opacity="0.9900144"/>
    <path d="M 445.32611083984375 485.0896301269531 C 443.068115234375 495.7663879394531 435.8004150390625 503.1673583984375 424.5102233886719 505.9360656738281 C 414.2020568847656 503.174560546875 406.88397216796875 495.77215576171875 404.0887756347656 484.35479736328125 C 406.8242492675781 474.21942138671875 414.3151550292969 467.14031982421875 425.0587463378906 465.4261169433594 C 435.3234558105469 467.3652038574219 442.76885986328125 474.633544921875 445.32611083984375 485.0896301269531" stroke-width="0.0" fill="rgb(147, 202, 126)" opacity="1.0"/>
    <path d="M 583.9983520507812 1.9995218515396118 C 581.321533203125 12.005879402160645 574.0241088867188 19.384241104125977 563.5872192382812 22.58342933654785 C 553.3724365234375 19.968891143798828 545.9944458007812 12.64017105102539 543.3140258789062 2.5473623275756836 C 546.685546875 -7.99808406829834 554.0003051757812 -15.320416450500488 564.0 -17.999998092651367 C 574.0 -15.320507049560547 581.3204345703125 -7.999987602233887 583.9983520507812 1.9995218515396118" stroke-width="0.0" fill="rgb(172, 180, 210)" opacity="0.99283504"/>
    <path d="M 22.951139450073242 322.9952392578125 C 20.300291061401367 332.9895324707031 13.001423835754395 340.341064453125 3.0130231380462646 343.1090393066406 C -7.00241231918335 340.32757568359375 -14.32068157196045 333.00048828125 -17.00061798095703 322.99835205078125 C -14.339278221130371 312.95025634765625 -7.1673760414123535 305.32391357421875 2.527644634246826 302.4611511230469 C 13.040234565734863 305.6142272949219 20.32111930847168 312.9793701171875 22.951139450073242 322.9952392578125" stroke-width="0.0" fill="rgb(19, 20, 24)" opacity="0.9912242"/>
    <path d="M 276.4686279296875 559.3441162109375 C 273.938232421875 568.6724853515625 266.8201599121094 576.5564575195312 257.5184326171875 579.7072143554688 C 247.68905639648438 575.6415405273438 240.42080688476562 568.2916259765625 237.82516479492188 559.3804321289062 C 240.46470642089844 549.7461547851562 247.74273681640625 542.4568481445312 256.74609375 539.9008178710938 C 266.2958679199219 542.4537353515625 273.6707763671875 549.657958984375 276.4686279296875 559.3441162109375" stroke-width="0.0" fill="rgb(160, 128, 88)" opacity="0.99001324"/>
    <path d="M 381.930908203125 33.11263656616211 C 379.42523193359375 43.07086944580078 372.0447082519531 50.33783721923828 361.84710693359375 53.444557189941406 C 351.7342529296875 50.54850769042969 344.1996154785156 43.35199737548828 341.38232421875 33.42994689941406 C 344.7796325683594 23.085771560668945 352.0796813964844 15.758126258850098 362.0527038574219 12.835808753967285 C 371.955322265625 15.68382740020752 379.2132568359375 23.07406997680664 381.930908203125 33.11263656616211" stroke-width="0.0" fill="rgb(246, 234, 207)" opacity="0.9914686"/>
    <path d="M 39.89570236206055 123.14836120605469 C 37.11196517944336 133.7176971435547 29.6500244140625 140.91226196289062 19.285846710205078 143.25340270996094 C 8.999713897705078 140.32073974609375 1.679028034210205 133.00035095214844 -1.0003222227096558 123.00021362304688 C 1.6795223951339722 113.00003814697266 9.000054359436035 105.6795654296875 19.094524383544922 102.94039154052734 C 29.470094680786133 105.3385238647461 37.066246032714844 112.38621520996094 39.89570236206055 123.14836120605469" stroke-width="0.0" fill="rgb(107, 119, 142)" opacity="1.0"/>
    <path d="M 63.07289505004883 256.7617492675781 C 60.47892379760742 266.1900329589844 53.190765380859375 273.4813537597656 43.18449401855469 277.43206787109375 C 33.223201751708984 275.0809020996094 25.777620315551758 267.839599609375 23.06171226501465 257.8766784667969 C 27.252971649169922 247.54054260253906 34.545169830322266 240.26809692382812 44.20500564575195 237.6123809814453 C 53.305580139160156 240.32106018066406 60.50364685058594 247.7527313232422 63.07289505004883 256.7617492675781" stroke-width="0.0" fill="rgb(156, 109, 67)" opacity="0.9900209"/>
  </g>
</svg>
