<?xml version="1.0" ?>
<svg xmlns="http://www.w3.org/2000/svg" version="1.1" width="600" height="600">
  <defs/>
  <g>
    <path d="M 534.5654907226562 66.44839477539062 C 531.3204956054688 77.0 524.0 84.32051086425781 514.0 87.0 C 504.0 84.32051086425781 496.67950439453125 77.0 493.7974548339844 66.74522399902344 C 496.0972595214844 56.33263397216797 503.24566650390625 48.84487533569336 514.2825317382812 46.065216064453125 C 524.8275146484375 48.81272888183594 532.1082153320312 56.20036315917969 534.5654907226562 66.44839477539062" stroke-width="0.0" fill="rgb(80, 87, 96)" opacity="1.0"/>
    <path d="M 559.8583374023438 558.7905883789062 C 557.2083740234375 568.8663330078125 549.865966796875 576.2078857421875 538.487548828125 578.9481201171875 C 528.1192016601562 576.2210693359375 520.773193359375 568.8834228515625 518.0853271484375 558.8472900390625 C 521.679443359375 548.0 529.0 540.6795043945312 539.0 538.0 C 549.0 540.6795043945312 556.3204956054688 548.0 559.8583374023438 558.7905883789062" stroke-width="0.0" fill="rgb(51, 58, 65)" opacity="1.0"/>
    <path d="M 52.796878814697266 475.56768798828125 C 50.166934967041016 485.8352355957031 42.84771728515625 493.19970703125 32.19295120239258 495.94549560546875 C 21.162548065185547 493.1907958984375 13.8269624710083 485.830078125 11.06026840209961 474.4062805175781 C 13.800612449645996 464.1560974121094 21.163597106933594 456.8179016113281 32.03893280029297 454.0685119628906 C 42.80354309082031 456.82794189453125 50.06454849243164 464.23406982421875 52.796878814697266 475.56768798828125" stroke-width="0.0" fill="rgb(85, 93, 104)" opacity="1.0"/>
    <path d="M 134.56629943847656 511.5084228515625 C 131.7606964111328 522.5591430664062 124.69304656982422 530.1287231445312 113.38481903076172 532.943603515625 C 103.12257385253906 530.2196655273438 95.77986907958984 522.8775634765625 93.05094146728516 512.4038696289062 C 95.80095672607422 501.1630554199219 103.19488525390625 493.8894958496094 114.45875549316406 491.1963195800781 C 124.80543518066406 493.8467102050781 132.09576416015625 501.21343994140625 134.56629943847656 511.5084228515625" stroke-width="0.0" fill="rgb(74, 86, 94)" opacity="1.0"/>
    <path d="M 507.96258544921875 544.342529296875 C 505.22772216796875 555.881591796875 497.87652587890625 563.2161865234375 486.82440185546875 565.9509887695312 C 476.2306823730469 563.1849975585938 469.1658935546875 555.6425170898438 466.0635070800781 544.1181640625 C 468.7493591308594 534.0923461914062 476.0999755859375 526.7664184570312 486.77520751953125 524.0484619140625 C 497.91595458984375 526.7532348632812 505.25225830078125 534.0819702148438 507.96258544921875 544.342529296875" stroke-width="0.0" fill="rgb(17, 20, 23)" opacity="0.9902127"/>
    <path d="M 282.9021911621094 107.42002868652344 C 279.5166931152344 117.52291870117188 271.3675842285156 124.600341796875 261.3372497558594 127.23121643066406 C 251.48619079589844 125.9345932006836 244.3581085205078 118.41954040527344 241.89764404296875 108.04071807861328 C 244.43441772460938 97.6419448852539 251.49343872070312 90.01918029785156 262.528076171875 87.11061096191406 C 272.80902099609375 89.84317779541016 280.1605224609375 97.18952941894531 282.9021911621094 107.42002868652344" stroke-width="0.0" fill="rgb(113, 120, 132)" opacity="0.99017036"/>
    <path d="M 593.0006713867188 505.998046875 C 590.3204345703125 515.9998779296875 582.9982299804688 523.314453125 572.1734008789062 526.8945922851562 C 562.1133422851562 524.2210693359375 554.759033203125 516.895263671875 552.0314331054688 505.3131103515625 C 554.7365112304688 495.0719299316406 562.074462890625 487.74224853515625 572.1315307617188 485.0486145019531 C 583.2396850585938 488.2036437988281 590.3447265625 495.9342346191406 593.0006713867188 505.998046875" stroke-width="0.0" fill="rgb(30, 37, 41)" opacity="1.0"/>
    <path d="M 60.90425491333008 164.47874450683594 C 58.11068344116211 175.7561798095703 50.74689865112305 183.08619689941406 40.676753997802734 185.73814392089844 C 30.287824630737305 181.9563446044922 22.966354370117188 174.73770141601562 19.292057037353516 164.34207153320312 C 21.888362884521484 154.23426818847656 29.2271671295166 146.87037658691406 39.46609115600586 144.2161407470703 C 50.695491790771484 146.9853057861328 58.14701843261719 154.249755859375 60.90425491333008 164.47874450683594" stroke-width="0.0" fill="rgb(222, 193, 146)" opacity="1.0"/>
    <path d="M 587.939208984375 47.71295166015625 C 585.2019653320312 58.857845306396484 577.8544311523438 66.19352722167969 566.720947265625 68.93160247802734 C 556.1390380859375 66.20354461669922 548.8064575195312 58.857242584228516 546.189453125 48.746238708496094 C 549.5670166015625 37.77909469604492 556.57373046875 30.04389190673828 567.68505859375 27.078969955444336 C 577.8571166992188 29.80048179626465 585.204345703125 37.140907287597656 587.939208984375 47.71295166015625" stroke-width="0.0" fill="rgb(76, 83, 91)" opacity="1.0"/>
    <path d="M 145.920166015625 408.1572570800781 C 143.16482543945312 418.8183898925781 135.82015991210938 426.16864013671875 124.92442321777344 428.91107177734375 C 114.16686248779297 426.1746826171875 106.81041717529297 418.83917236328125 104.07025146484375 408.2944641113281 C 106.84458923339844 397.2290954589844 114.28777313232422 390.01361083984375 124.82203674316406 387.5580749511719 C 135.652099609375 390.1019592285156 143.1356964111328 397.265869140625 145.920166015625 408.1572570800781" stroke-width="0.0" fill="rgb(95, 107, 115)" opacity="1.0"/>
    <path d="M 169.0000762939453 175.00010681152344 C 166.3230743408203 185.00787353515625 159.04884338378906 192.45912170410156 148.1349639892578 195.9378204345703 C 138.1092529296875 193.23904418945312 130.79246520996094 185.8775634765625 128.1843719482422 175.7989959716797 C 131.95297241210938 165.1532745361328 139.07875061035156 157.72171020507812 149.00778198242188 155.00363159179688 C 159.00035095214844 157.678955078125 166.3206787109375 164.999755859375 169.0000762939453 175.00010681152344" stroke-width="0.0" fill="rgb(142, 120, 98)" opacity="1.0"/>
    <path d="M 335.8061828613281 24.322219848632812 C 332.74334716796875 35.5324821472168 325.6465148925781 43.076141357421875 314.51495361328125 45.90263366699219 C 304.1954345703125 43.15867233276367 296.8457336425781 35.802555084228516 294.0894775390625 25.372400283813477 C 296.8925476074219 14.256834983825684 304.256591796875 6.8923726081848145 315.09698486328125 4.102261543273926 C 325.7859191894531 6.863198280334473 333.13494873046875 14.214676856994629 335.8061828613281 24.322219848632812" stroke-width="0.0" fill="rgb(104, 115, 125)" opacity="1.0"/>
    <path d="M 103.1959457397461 59.322574615478516 C 101.80254364013672 69.55763244628906 94.6356430053711 77.03893280029297 83.53913116455078 79.61631774902344 C 73.38017272949219 76.99754333496094 66.06587982177734 69.59864807128906 64.53314971923828 59.48293685913086 C 66.1966323852539 48.50297546386719 73.48436737060547 41.13455581665039 83.68293762207031 38.63581085205078 C 94.00121307373047 41.67900466918945 101.27610778808594 49.01110076904297 103.1959457397461 59.322574615478516" stroke-width="0.0" fill="rgb(247, 250, 233)" opacity="1.0"/>
    <path d="M 137.88723754882812 120.75233459472656 C 135.0209197998047 131.641845703125 127.6540756225586 139.0504913330078 117.69440460205078 141.8590545654297 C 106.99586486816406 138.3344268798828 99.67938232421875 131.00035095214844 96.42565155029297 120.44277954101562 C 98.88545227050781 110.18728637695312 106.15226745605469 102.78948211669922 116.22545623779297 100.062744140625 C 126.51300048828125 104.06365966796875 134.86456298828125 111.28468322753906 137.88723754882812 120.75233459472656" stroke-width="0.0" fill="rgb(136, 58, 27)" opacity="0.9900172"/>
    <path d="M 424.0 83.0 C 421.32049560546875 93.0 414.0 100.32051086425781 404.1123046875 102.81915283203125 C 394.1130676269531 100.1386489868164 386.7206115722656 92.93047332763672 384.0047912597656 82.99168395996094 C 386.67950439453125 73.0 394.0 65.67948913574219 404.0 63.0 C 414.0 65.67948913574219 421.32049560546875 73.0 424.0 83.0" stroke-width="0.0" fill="rgb(92, 100, 107)" opacity="0.9966429"/>
    <path d="M 112.243896484375 353.734619140625 C 109.32051086425781 364.0 102.0 371.32049560546875 92.0 374.0 C 82.0 371.32049560546875 74.67948913574219 364.0 71.98693084716797 353.97607421875 C 74.55606842041016 343.78643798828125 81.63536071777344 336.13555908203125 92.51741027832031 333.1324157714844 C 102.6845703125 335.9112548828125 109.87847137451172 343.38836669921875 112.243896484375 353.734619140625" stroke-width="0.0" fill="rgb(115, 125, 134)" opacity="0.9913974"/>
    <path d="M 180.33441162109375 261.6289367675781 C 177.16659545898438 271.93768310546875 169.92694091796875 279.13409423828125 159.4739990234375 281.84136962890625 C 149.36961364746094 279.9695739746094 142.0344696044922 272.6292724609375 140.4462127685547 262.1612243652344 C 142.1264190673828 251.576416015625 149.73965454101562 244.7715606689453 160.44088745117188 242.7274627685547 C 170.4216766357422 244.23036193847656 177.74658203125 251.5863494873047 180.33441162109375 261.6289367675781" stroke-width="0.0" fill="rgb(250, 248, 216)" opacity="1.0"/>
    <path d="M 24.88296127319336 517.2216186523438 C 21.357648849487305 528.01171875 14.001481056213379 535.3209838867188 4.000021457672119 538.0 C -6.0 535.3204956054688 -13.320508003234863 528.0 -16.000648498535156 517.998291015625 C -13.339516639709473 507.9499816894531 -6.17133092880249 500.3155212402344 4.764264106750488 497.0881042480469 C 14.838377952575684 499.8089294433594 22.184295654296875 507.16448974609375 24.88296127319336 517.2216186523438" stroke-width="0.0" fill="rgb(78, 87, 96)" opacity="1.0"/>
    <path d="M 202.90066528320312 82.38616180419922 C 200.13897705078125 92.77886962890625 192.77392578125 100.1263198852539 182.57469177246094 102.83077239990234 C 171.24539184570312 100.05897521972656 163.8843994140625 92.77220916748047 162.51080322265625 82.69049835205078 C 165.30958557128906 72.57157135009766 172.5012969970703 65.02610778808594 182.60037231445312 61.15352249145508 C 192.78353881835938 63.87240219116211 200.12948608398438 71.2158203125 202.90066528320312 82.38616180419922" stroke-width="0.0" fill="rgb(114, 125, 135)" opacity="0.99002254"/>
    <path d="M 527.915283203125 6.633634567260742 C 525.1304321289062 16.708984375 517.5997314453125 23.825117111206055 507.0340881347656 26.244539260864258 C 496.3987731933594 23.809118270874023 488.8719482421875 16.710527420043945 486.0915222167969 6.538131237030029 C 489.0981750488281 -4.361944198608398 496.8336486816406 -11.400457382202148 507.0002136230469 -14.010404586791992 C 517.1681518554688 -11.40156364440918 524.8963623046875 -4.359580993652344 527.915283203125 6.633634567260742" stroke-width="0.0" fill="rgb(79, 86, 96)" opacity="1.0"/>
    <path d="M 487.91998291015625 104.28478240966797 C 484.8470153808594 114.96199798583984 476.5787658691406 121.76176452636719 467.5706481933594 124.10591125488281 C 457.3764343261719 121.63430786132812 449.1403503417969 115.27069091796875 446.3419494628906 104.48003387451172 C 448.86993408203125 94.22261047363281 456.24700927734375 86.94551849365234 466.64990234375 84.47598266601562 C 477.67059326171875 87.09944915771484 485.16778564453125 94.23550415039062 487.91998291015625 104.28478240966797" stroke-width="0.0" fill="rgb(92, 88, 92)" opacity="0.99001384"/>
    <path d="M 261.07098388671875 107.1064224243164 C 258.6972961425781 117.51228332519531 251.6645050048828 125.11322784423828 241.4525146484375 127.91532135009766 C 230.28257751464844 125.11414337158203 223.10006713867188 117.64495849609375 220.76589965820312 107.27033233642578 C 223.6794891357422 97.0 231.0 89.67948913574219 241.00791931152344 86.99051666259766 C 251.01637268066406 89.65959167480469 258.3309631347656 96.98646545410156 261.07098388671875 107.1064224243164" stroke-width="0.0" fill="rgb(102, 113, 121)" opacity="1.0"/>
    <path d="M 117.1201400756836 466.8311767578125 C 114.32051086425781 477.0 107.0 484.32049560546875 96.77497863769531 487.4373779296875 C 86.91651916503906 484.5163269042969 79.67009735107422 477.02490234375 76.34013366699219 466.3929443359375 C 78.87813568115234 456.2081298828125 86.19188690185547 448.8337707519531 96.57122039794922 446.0797119140625 C 107.69696807861328 448.8830871582031 114.7964096069336 456.41290283203125 117.1201400756836 466.8311767578125" stroke-width="0.0" fill="rgb(88, 99, 108)" opacity="1.0"/>
    <path d="M 118.7480697631836 34.8682861328125 C 115.95063018798828 45.651275634765625 108.71551513671875 53.11681365966797 97.76518249511719 55.91398239135742 C 87.23443603515625 53.1429443359375 79.93714141845703 45.73318862915039 77.11862182617188 34.55582046508789 C 79.87835693359375 24.254026412963867 87.2904281616211 16.981678009033203 97.55843353271484 15.53005599975586 C 108.52877044677734 17.271211624145508 115.98443603515625 24.401193618774414 118.7480697631836 34.8682861328125" stroke-width="0.0" fill="rgb(164, 131, 108)" opacity="1.0"/>
    <path d="M 556.9551391601562 488.73992919921875 C 554.2410278320312 498.9040222167969 546.9058837890625 506.2452392578125 536.6680908203125 508.95831298828125 C 525.2105712890625 506.19537353515625 519.0532836914062 498.6073303222656 516.9244384765625 488.60211181640625 C 519.519287109375 478.8044738769531 526.80517578125 471.520751953125 536.2673950195312 468.9268493652344 C 545.4447631835938 471.4549560546875 554.11474609375 477.5342712402344 556.9551391601562 488.73992919921875" stroke-width="0.0" fill="rgb(158, 103, 57)" opacity="0.99001265"/>
    <path d="M 83.86407470703125 582.2123413085938 C 80.47923278808594 593.2318115234375 73.31893157958984 600.7494506835938 62.44134521484375 603.7230224609375 C 52.17962646484375 601.1403198242188 44.80278015136719 593.84130859375 42.055965423583984 582.654296875 C 44.791259765625 572.1359252929688 52.13395309448242 564.7868041992188 62.5282096862793 562.05615234375 C 73.85570526123047 564.8018188476562 81.20289611816406 572.1422119140625 83.86407470703125 582.2123413085938" stroke-width="0.0" fill="rgb(57, 66, 75)" opacity="1.0"/>
    <path d="M 583.9458618164062 544.5372314453125 C 581.2228393554688 554.8866577148438 573.891357421875 562.2337036132812 563.7862548828125 564.9395141601562 C 552.5945434570312 561.947021484375 545.5869140625 554.1915283203125 542.2737426757812 543.306884765625 C 544.8154296875 533.1347045898438 552.1192626953125 525.77294921875 562.7242431640625 523.0452270507812 C 573.867431640625 525.78173828125 581.1942749023438 533.1430053710938 583.9458618164062 544.5372314453125" stroke-width="0.0" fill="rgb(48, 55, 59)" opacity="1.0"/>
    <path d="M 452.7999572753906 85.7111587524414 C 450.1496887207031 95.77024841308594 442.712890625 102.97624206542969 432.34063720703125 105.30015563964844 C 422.0 102.32051086425781 414.67950439453125 95.0 412.0 85.0 C 414.67950439453125 75.0 422.0 67.67948913574219 432.0 65.0 C 442.0 67.67948913574219 449.32049560546875 75.0 452.7999572753906 85.7111587524414" stroke-width="0.0" fill="rgb(87, 95, 103)" opacity="1.0"/>
    <path d="M 34.82046890258789 388.7381591796875 C 32.17506790161133 398.8282775878906 24.826618194580078 406.1710205078125 13.96280288696289 408.91326904296875 C 3.233245611190796 406.1492919921875 -3.9862771034240723 398.7108154296875 -6.494145393371582 388.0865783691406 C -3.915371894836426 377.396484375 3.387025833129883 370.0536193847656 13.628726959228516 367.6108093261719 C 24.0 370.67950439453125 31.32050895690918 378.0 34.82046890258789 388.7381591796875" stroke-width="0.0" fill="rgb(99, 110, 119)" opacity="1.0"/>
    <path d="M 273.94775390625 556.6566162109375 C 271.21240234375 567.8716430664062 263.8759765625 575.2222900390625 253.43145751953125 577.9487915039062 C 242.1280059814453 575.214599609375 234.78594970703125 567.8717041015625 232.0560760498047 557.3746337890625 C 234.79518127441406 546.1405029296875 242.14154052734375 538.7974853515625 253.51885986328125 536.0529174804688 C 263.882568359375 538.7766723632812 271.2225036621094 546.1177978515625 273.94775390625 556.6566162109375" stroke-width="0.0" fill="rgb(59, 70, 77)" opacity="1.0"/>
    <path d="M 157.03749084472656 449.0041809082031 C 154.36102294921875 459.0271911621094 147.018798828125 466.3330078125 137.0028839111328 469.0019226074219 C 127.0 466.32049560546875 119.67948913574219 459.0 116.39146423339844 448.4215393066406 C 118.88361358642578 438.2019348144531 126.17922973632812 430.8203430175781 136.30276489257812 428.0861511230469 C 147.3736572265625 431.1014404296875 154.42001342773438 438.80767822265625 157.03749084472656 449.0041809082031" stroke-width="0.0" fill="rgb(90, 102, 110)" opacity="1.0"/>
    <path d="M 161.5452117919922 518.5355224609375 C 159.10047912597656 528.7962036132812 151.82823181152344 536.1907348632812 140.62660217285156 538.939697265625 C 130.16323852539062 536.198974609375 122.89398956298828 528.8036499023438 120.4268798828125 518.5017700195312 C 123.2352066040039 507.43865966796875 130.32362365722656 499.8985595703125 140.32081604003906 497.2045593261719 C 151.0 500.67950439453125 158.3205108642578 508.0 161.5452117919922 518.5355224609375" stroke-width="0.0" fill="rgb(71, 81, 89)" opacity="1.0"/>
    <path d="M 64.93132781982422 253.0211181640625 C 62.17505645751953 263.8070983886719 54.78510665893555 271.1221923828125 44.597618103027344 273.82171630859375 C 33.772159576416016 270.7081298828125 26.621400833129883 263.1158142089844 23.85918426513672 252.93994140625 C 26.641956329345703 242.98704528808594 33.997406005859375 235.67860412597656 44.67965316772461 232.27200317382812 C 54.839874267578125 234.83248901367188 62.19586944580078 242.14993286132812 64.93132781982422 253.0211181640625" stroke-width="0.0" fill="rgb(117, 128, 134)" opacity="1.0"/>
    <path d="M 108.84710693359375 383.566650390625 C 106.1513442993164 393.8009948730469 98.79911041259766 401.1474609375 87.55247497558594 403.9151306152344 C 77.16546630859375 401.18304443359375 69.82426452636719 393.83160400390625 67.15400695800781 383.7539367675781 C 70.67943572998047 372.9999694824219 78.0 365.67950439453125 88.03214263916016 362.9824523925781 C 98.2660903930664 365.5202331542969 105.90690612792969 372.5818786621094 108.84710693359375 383.566650390625" stroke-width="0.0" fill="rgb(101, 111, 120)" opacity="1.0"/>
    <path d="M 160.43145751953125 151.22853088378906 C 157.6870880126953 161.23828125 150.14663696289062 168.40676879882812 139.7067108154297 171.22764587402344 C 129.33645629882812 168.93408203125 121.91266632080078 161.7121124267578 119.27989959716797 151.40296936035156 C 121.96688079833984 140.28599548339844 129.26025390625 132.89315795898438 139.68789672851562 130.13189697265625 C 150.4927215576172 133.03396606445312 157.5707550048828 140.64854431152344 160.43145751953125 151.22853088378906" stroke-width="0.0" fill="rgb(175, 118, 85)" opacity="0.99003553"/>
    <path d="M 273.5248107910156 487.1820373535156 C 271.3191833496094 496.9996337890625 264.0 504.32049560546875 253.5596923828125 507.3836669921875 C 243.19178771972656 505.07379150390625 235.7694549560547 497.8624267578125 233.06837463378906 487.86944580078125 C 236.6794891357422 477.0 244.0 469.67950439453125 253.99998474121094 467.0 C 263.9988098144531 469.67987060546875 271.2750549316406 477.0138244628906 273.5248107910156 487.1820373535156" stroke-width="0.0" fill="rgb(149, 89, 60)" opacity="1.0"/>
    <path d="M 526.8935546875 27.499502182006836 C 524.1509399414062 38.82759475708008 516.8421020507812 46.19165802001953 505.6685791015625 48.93350601196289 C 495.1243896484375 46.214637756347656 487.7845764160156 38.87588119506836 485.05767822265625 28.339397430419922 C 487.8394470214844 17.25011444091797 495.3535461425781 10.130755424499512 505.8849182128906 7.762502193450928 C 516.5374755859375 10.260184288024902 524.1043090820312 17.33290672302246 526.8935546875 27.499502182006836" stroke-width="0.0" fill="rgb(79, 86, 95)" opacity="1.0"/>
    <path d="M 615.0 519.0 C 612.3204956054688 529.0 605.0 536.3204956054688 595.0 539.0 C 585.0 536.3204956054688 577.6795043945312 529.0 575.0067138671875 519.00537109375 C 577.6925048828125 509.01043701171875 585.0087280273438 501.6868896484375 595.0021362304688 499.0019226074219 C 605.0 501.67950439453125 612.3204956054688 509.0 615.0 519.0" stroke-width="0.0" fill="rgb(47, 54, 59)" opacity="0.9990511"/>
    <path d="M 23.939834594726562 574.2708740234375 C 21.20740509033203 584.86865234375 13.873908042907715 592.2200927734375 3.8159258365631104 594.9302978515625 C -7.180290699005127 591.7002563476562 -14.340119361877441 584.0521240234375 -17.000917434692383 574.0009765625 C -14.32958984375 563.9752807617188 -7.095863342285156 556.4491577148438 3.394739866256714 553.1879272460938 C 13.627545356750488 556.0718383789062 21.15053367614746 563.2734375 23.939834594726562 574.2708740234375" stroke-width="0.0" fill="rgb(60, 70, 76)" opacity="1.0"/>
    <path d="M 565.9268798828125 127.3993148803711 C 563.0205078125 138.51950073242188 555.3250122070312 145.5138397216797 545.0379638671875 148.0201873779297 C 535.0 145.3205108642578 527.6795043945312 138.0 524.1488647460938 127.24126434326172 C 526.8302001953125 117.20286560058594 534.2511596679688 109.9736557006836 544.7561645507812 107.53435516357422 C 555.6744384765625 110.08856201171875 563.1632080078125 117.23756408691406 565.9268798828125 127.3993148803711" stroke-width="0.0" fill="rgb(78, 84, 93)" opacity="1.0"/>
    <path d="M 447.0 594.0 C 444.32049560546875 604.0 437.0 611.3204956054688 426.98040771484375 614.009033203125 C 416.7513122558594 611.4483642578125 409.0021057128906 604.4695434570312 406.1247863769531 594.5980224609375 C 409.2086181640625 583.70849609375 416.8477783203125 576.6026000976562 426.9879455566406 573.9943237304688 C 437.0 576.6795043945312 444.32049560546875 584.0 447.0 594.0" stroke-width="0.0" fill="rgb(48, 57, 65)" opacity="1.0"/>
    <path d="M 189.93936157226562 552.5332641601562 C 187.2242889404297 562.8887329101562 179.892578125 570.2335205078125 169.5189208984375 572.9484252929688 C 158.11862182617188 570.2195434570312 150.77520751953125 562.883544921875 148.0539093017578 552.4542236328125 C 150.79737854003906 541.1425170898438 158.144775390625 533.8031616210938 169.49009704589844 531.0623168945312 C 179.8719024658203 533.7825927734375 187.19908142089844 541.1355590820312 189.93936157226562 552.5332641601562" stroke-width="0.0" fill="rgb(60, 70, 78)" opacity="1.0"/>
    <path d="M 614.0125732421875 491.9727783203125 C 611.3204956054688 502.0 604.0 509.32049560546875 593.9986572265625 512.0017700195312 C 583.99853515625 509.3233642578125 576.6834716796875 501.9994812011719 573.1257934570312 491.16656494140625 C 575.7556762695312 481.08221435546875 583.0760498046875 473.7398376464844 593.154296875 471.039306640625 C 604.5587158203125 473.9284362792969 611.491943359375 481.6806945800781 614.0125732421875 491.9727783203125" stroke-width="0.0" fill="rgb(35, 41, 44)" opacity="1.0"/>
    <path d="M 410.9970397949219 81.99327087402344 C 408.26934814453125 91.88722229003906 400.7263488769531 98.836181640625 391.6064147949219 101.1013412475586 C 381.7364807128906 98.50702667236328 373.5010986328125 91.40457153320312 370.103271484375 81.61532592773438 C 372.9503173828125 71.41996765136719 380.5824279785156 64.39556884765625 390.93011474609375 61.95821762084961 C 401.0 64.67948913574219 408.32049560546875 72.0 410.9970397949219 81.99327087402344" stroke-width="0.0" fill="rgb(96, 105, 113)" opacity="0.99004036"/>
    <path d="M 134.2550048828125 358.7096862792969 C 131.3205108642578 369.0 124.0 376.32049560546875 113.53936004638672 379.5804138183594 C 103.49398803710938 376.94146728515625 96.3838119506836 369.3989562988281 93.92858123779297 359.05462646484375 C 96.51734924316406 348.73004150390625 103.57080841064453 341.0767517089844 114.55157470703125 338.1200866699219 C 124.72508239746094 340.8822021484375 131.91944885253906 348.3419189453125 134.2550048828125 358.7096862792969" stroke-width="0.0" fill="rgb(113, 121, 130)" opacity="1.0"/>
    <path d="M 433.0 91.0 C 430.32049560546875 101.0 423.0 108.32051086425781 413.6395568847656 110.27389526367188 C 403.75567626953125 107.52471923828125 396.4006652832031 100.26970672607422 393.5078430175781 90.5262680053711 C 395.67950439453125 81.0 403.0 73.67948913574219 413.0 71.0 C 423.0 73.67948913574219 430.32049560546875 81.0 433.0 91.0" stroke-width="0.0" fill="rgb(93, 103, 111)" opacity="0.9901693"/>
    <path d="M 111.9314956665039 596.2339477539062 C 108.84883880615234 607.2870483398438 101.09156799316406 614.3558959960938 91.00231170654297 617.00146484375 C 80.97412109375 614.3301391601562 73.46263885498047 607.0918579101562 70.49212646484375 597.2019653320312 C 73.32378387451172 586.492431640625 80.32342529296875 578.8704833984375 91.6539306640625 576.0517578125 C 101.88336181640625 578.7730712890625 109.21871948242188 586.1203002929688 111.9314956665039 596.2339477539062" stroke-width="0.0" fill="rgb(57, 66, 75)" opacity="1.0"/>
    <path d="M 84.82109832763672 337.2980041503906 C 81.32160186767578 348.0002746582031 73.99988555908203 355.3202209472656 63.99985122680664 357.9999084472656 C 53.997833251953125 355.3211975097656 46.63837432861328 348.0135498046875 43.21775817871094 337.3609619140625 C 45.89231491088867 327.2418212890625 53.234344482421875 319.8736267089844 64.31597900390625 317.0977478027344 C 74.7754898071289 319.8620910644531 82.12535095214844 327.2297668457031 84.82109832763672 337.2980041503906" stroke-width="0.0" fill="rgb(118, 128, 137)" opacity="0.99411947"/>
    <path d="M 353.9076232910156 72.02685546875 C 351.1529235839844 82.81039428710938 343.82171630859375 90.18013000488281 333.4654235839844 92.92198181152344 C 322.1958312988281 90.15525817871094 314.851806640625 82.80142974853516 312.1161193847656 72.24970245361328 C 314.86151123046875 61.202762603759766 322.1927490234375 53.83586502075195 332.2709655761719 51.134761810302734 C 343.6716613769531 54.06694412231445 351.1288146972656 61.2620849609375 353.9076232910156 72.02685546875" stroke-width="0.0" fill="rgb(103, 115, 123)" opacity="1.0"/>
    <path d="M 255.87802124023438 84.54527282714844 C 252.9391632080078 95.43242645263672 245.2570037841797 102.46772766113281 235.00546264648438 105.02043151855469 C 224.7919921875 102.4371109008789 217.1270751953125 95.36658477783203 214.13502502441406 84.48323822021484 C 216.8703155517578 74.21578979492188 224.20816040039062 66.8513412475586 234.72544860839844 64.10649108886719 C 245.77023315429688 66.87481689453125 253.12716674804688 74.2289810180664 255.87802124023438 84.54527282714844" stroke-width="0.0" fill="rgb(114, 123, 135)" opacity="0.9926957"/>
    <path d="M 541.0026245117188 82.00595092773438 C 538.3660278320312 92.10125732421875 531.2464599609375 99.76705169677734 520.2263793945312 102.91207885742188 C 510.1384582519531 100.20567321777344 502.7964782714844 92.8607177734375 500.1144714355469 82.80496978759766 C 503.67950439453125 72.0 511.0 64.67948913574219 521.0 62.0 C 531.0 64.67948913574219 538.3204956054688 72.0 541.0026245117188 82.00595092773438" stroke-width="0.0" fill="rgb(83, 90, 98)" opacity="1.0"/>
    <path d="M 468.75732421875 598.28173828125 C 465.32049560546875 609.0 458.0 616.3204956054688 448.0 619.0 C 438.0 616.3204956054688 430.67950439453125 609.0 427.97406005859375 598.94970703125 C 430.4335632324219 588.6024780273438 437.3977966308594 580.9113159179688 448.6695251464844 578.053466796875 C 458.881103515625 580.77490234375 466.1929016113281 588.1306762695312 468.75732421875 598.28173828125" stroke-width="0.0" fill="rgb(48, 55, 64)" opacity="1.0"/>
    <path d="M 37.76116180419922 271.6398620605469 C 35.09791946411133 281.74212646484375 27.745769500732422 289.1076354980469 17.233449935913086 291.8829040527344 C 6.2693939208984375 289.1007995605469 -1.028903841972351 281.704833984375 -3.648061752319336 271.230712890625 C -0.9504587650299072 260.3717956542969 6.344273090362549 252.96871948242188 16.58373260498047 250.2032470703125 C 27.23464584350586 253.27853393554688 34.39295196533203 260.87884521484375 37.76116180419922 271.6398620605469" stroke-width="0.0" fill="rgb(129, 142, 149)" opacity="1.0"/>
    <path d="M 57.81630325317383 428.72052001953125 C 55.16010284423828 438.8205871582031 47.82635498046875 446.1749267578125 37.093013763427734 448.91748046875 C 26.170679092407227 446.17254638671875 18.821701049804688 438.8315734863281 16.07260513305664 427.76141357421875 C 18.819225311279297 417.17279052734375 26.17658805847168 409.8281555175781 36.236793518066406 407.1393127441406 C 46.99998092651367 410.6795654296875 54.3203125 418.00006103515625 57.81630325317383 428.72052001953125" stroke-width="0.0" fill="rgb(93, 103, 112)" opacity="1.0"/>
    <path d="M 145.7938995361328 75.69805145263672 C 143.02090454101562 86.70679473876953 135.75303649902344 94.1402816772461 125.29206848144531 96.88092041015625 C 114.25585174560547 94.12301635742188 106.97625732421875 86.70756530761719 104.17133331298828 75.46595001220703 C 106.90065002441406 65.31036376953125 114.40042114257812 58.167057037353516 124.8317642211914 55.80876541137695 C 135.33326721191406 58.4529914855957 142.95814514160156 65.51982116699219 145.7938995361328 75.69805145263672" stroke-width="0.0" fill="rgb(240, 192, 135)" opacity="1.0"/>
    <path d="M 54.396331787109375 15.346291542053223 C 51.53571319580078 26.446924209594727 44.5457878112793 33.9415283203125 34.394927978515625 36.55670166015625 C 23.99509048461914 33.336753845214844 16.679344177246094 26.000484466552734 13.727350234985352 15.719450950622559 C 16.126882553100586 5.4268903732299805 23.404003143310547 -1.9470467567443848 33.97764587402344 -4.582799434661865 C 44.67019271850586 -1.973464012145996 52.071128845214844 5.297419548034668 54.396331787109375 15.346291542053223" stroke-width="0.0" fill="rgb(137, 153, 167)" opacity="0.99009436"/>
    <path d="M 476.86859130859375 58.2103157043457 C 473.32049560546875 69.0 466.0 76.32051086425781 456.0 79.0 C 446.0 76.32051086425781 438.67950439453125 69.0 435.97052001953125 58.949119567871094 C 438.4540710449219 48.65005874633789 445.479248046875 40.992488861083984 456.67791748046875 38.07770919799805 C 466.8511657714844 40.805057525634766 474.1991271972656 48.14691925048828 476.86859130859375 58.2103157043457" stroke-width="0.0" fill="rgb(84, 91, 100)" opacity="1.0"/>
    <path d="M 415.00396728515625 72.99092102050781 C 412.3205261230469 83.0002212524414 405.001220703125 90.32414245605469 395.02618408203125 92.97891235351562 C 385.01031494140625 90.2982177734375 377.6831970214844 82.9950180053711 374.1517028808594 72.23583984375 C 376.81378173828125 62.15625762939453 384.1531066894531 54.8057861328125 394.2752380371094 52.087467193603516 C 405.3202209472656 55.145286560058594 412.38714599609375 62.85707092285156 415.00396728515625 72.99092102050781" stroke-width="0.0" fill="rgb(95, 103, 111)" opacity="1.0"/>
    <path d="M 77.92320251464844 406.8929748535156 C 75.17240905761719 417.82470703125 67.8253173828125 425.1733703613281 57.752994537353516 427.845703125 C 47.00348663330078 424.316162109375 39.67308044433594 416.99945068359375 36.11765670776367 406.2024841308594 C 38.80294418334961 396.1614074707031 46.17627716064453 388.8377380371094 57.26910400390625 386.0848083496094 C 67.83121490478516 388.8235168457031 75.18328857421875 396.1659240722656 77.92320251464844 406.8929748535156" stroke-width="0.0" fill="rgb(95, 106, 116)" opacity="1.0"/>
    <path d="M 208.2235107421875 417.14996337890625 C 205.94371032714844 427.08148193359375 199.41297912597656 434.92578125 188.51881408691406 437.8621826171875 C 178.22259521484375 435.132080078125 170.8721923828125 427.7752685546875 168.14747619628906 417.5934753417969 C 171.01959228515625 406.431884765625 178.5428924560547 399.4430236816406 188.62481689453125 397.7384338378906 C 198.5091094970703 400.2326965332031 205.72964477539062 407.5061950683594 208.2235107421875 417.14996337890625" stroke-width="0.0" fill="rgb(242, 184, 130)" opacity="0.9900589"/>
    <path d="M 233.85220336914062 39.250972747802734 C 230.3205108642578 50.0 223.0 57.32050704956055 212.9083251953125 60.065025329589844 C 202.60211181640625 57.624446868896484 195.0622100830078 50.501800537109375 192.39854431152344 40.46842575073242 C 195.6794891357422 30.0 203.0 22.67949104309082 213.51809692382812 19.43608856201172 C 223.75563049316406 21.930070877075195 231.1560516357422 29.21297264099121 233.85220336914062 39.250972747802734" stroke-width="0.0" fill="rgb(117, 129, 139)" opacity="1.0"/>
    <path d="M 436.1562194824219 63.79774475097656 C 433.32049560546875 74.00000762939453 426.0 81.32054901123047 415.9999694824219 84.00032806396484 C 406.0 81.32059478759766 398.67962646484375 73.99995422363281 395.4608459472656 63.47504806518555 C 397.91143798828125 53.22150421142578 405.193115234375 45.830501556396484 415.951171875 43.065792083740234 C 426.7237243652344 45.85799026489258 433.8367004394531 53.38518142700195 436.1562194824219 63.79774475097656" stroke-width="0.0" fill="rgb(90, 98, 107)" opacity="1.0"/>
    <path d="M 253.9091033935547 518.824462890625 C 251.2110595703125 528.8668823242188 243.8680877685547 536.2133178710938 233.4193878173828 538.9370727539062 C 222.1448516845703 536.1973266601562 214.7925567626953 528.8594360351562 212.0513458251953 517.7459106445312 C 214.78761291503906 507.1322937011719 222.1325225830078 499.7884216308594 232.44166564941406 497.0545654296875 C 243.6732940673828 499.87200927734375 250.6758270263672 507.4971618652344 253.9091033935547 518.824462890625" stroke-width="0.0" fill="rgb(64, 75, 81)" opacity="1.0"/>
    <path d="M 107.80924224853516 126.26283264160156 C 104.33856964111328 137.0061798095703 97.0012435913086 144.32090759277344 86.86488342285156 147.15760803222656 C 76.70770263671875 144.6180877685547 69.3108139038086 137.31472778320312 66.51110076904297 126.78065490722656 C 69.2292709350586 116.65296173095703 76.6971664428711 109.33953857421875 87.36942291259766 106.95816802978516 C 97.74993133544922 108.94970703125 105.16839599609375 116.20648956298828 107.80924224853516 126.26283264160156" stroke-width="0.0" fill="rgb(251, 249, 231)" opacity="1.0"/>
    <path d="M 184.0836181640625 205.12306213378906 C 181.4254150390625 215.1232147216797 174.12661743164062 222.43496704101562 164.07742309570312 226.9228515625 C 154.0782928466797 224.25830078125 146.7500762939453 216.91818237304688 144.03189086914062 205.40255737304688 C 146.7569122314453 195.11988830566406 154.1649627685547 187.8775177001953 165.37826538085938 185.2418212890625 C 175.86141967773438 187.828857421875 183.21380615234375 195.1246795654297 184.0836181640625 205.12306213378906" stroke-width="0.0" fill="rgb(3, 3, 3)" opacity="0.99002206"/>
    <path d="M 441.9045715332031 569.1630249023438 C 438.3206481933594 580.0000610351562 431.0 587.3204956054688 420.98272705078125 590.0079956054688 C 410.7768859863281 587.4338989257812 403.0403747558594 580.4298706054688 400.0638122558594 569.2068481445312 C 402.7635498046875 559.0932006835938 410.0848083496094 551.7438354492188 420.45654296875 549.0314331054688 C 431.8973083496094 551.7586059570312 439.2267150878906 559.1090087890625 441.9045715332031 569.1630249023438" stroke-width="0.0" fill="rgb(44, 52, 57)" opacity="1.0"/>
    <path d="M 238.8692626953125 50.502838134765625 C 236.1349639892578 60.78307342529297 228.7822265625 68.13289642333984 217.7152862548828 70.89800262451172 C 207.2047119140625 68.15249633789062 199.8753204345703 60.784427642822266 197.2405242919922 50.6583366394043 C 200.6794891357422 40.0 208.0 32.67949295043945 218.10009765625 29.9299259185791 C 228.43190002441406 32.34996032714844 235.99179077148438 39.45170974731445 238.8692626953125 50.502838134765625" stroke-width="0.0" fill="rgb(116, 129, 139)" opacity="1.0"/>
    <path d="M 54.70492935180664 68.28582000732422 C 50.82817459106445 78.61050415039062 43.730133056640625 86.25476837158203 33.61068344116211 89.07452392578125 C 23.291664123535156 87.03923797607422 15.969097137451172 79.70539093017578 13.502376556396484 69.46675872802734 C 16.67949104309082 59.0 24.0 51.67949295043945 34.64197540283203 48.26799392700195 C 44.7744026184082 50.880027770996094 52.13579177856445 58.21953201293945 54.70492935180664 68.28582000732422" stroke-width="0.0" fill="rgb(170, 137, 108)" opacity="0.9900413"/>
    <path d="M 192.93516540527344 493.86358642578125 C 190.19232177734375 504.8487243652344 182.8525848388672 512.2012939453125 172.80764770507812 514.8892211914062 C 162.0 511.32049560546875 154.6794891357422 504.0 151.2496795654297 493.3088073730469 C 153.8332977294922 483.16864013671875 161.1609649658203 475.8122863769531 171.79193115234375 473.0706481933594 C 182.85496520996094 475.80487060546875 190.19920349121094 483.1435241699219 192.93516540527344 493.86358642578125" stroke-width="0.0" fill="rgb(78, 91, 98)" opacity="1.0"/>
    <path d="M 282.72247314453125 24.620330810546875 C 280.0956726074219 34.738765716552734 272.74066162109375 42.10126876831055 261.7242126464844 44.88772201538086 C 251.19898986816406 42.14751434326172 243.84532165527344 34.80387878417969 241.09564208984375 23.983869552612305 C 243.8751678466797 13.265998840332031 251.32867431640625 6.057467937469482 261.67962646484375 3.704472303390503 C 272.0 6.679491996765137 279.32049560546875 14.0 282.72247314453125 24.620330810546875" stroke-width="0.0" fill="rgb(112, 124, 134)" opacity="1.0"/>
    <path d="M 366.4429016113281 39.456764221191406 C 364.0567626953125 49.767459869384766 356.8088684082031 57.177371978759766 346.76031494140625 59.864437103271484 C 335.48834228515625 56.75473403930664 327.96881103515625 49.60622024536133 325.22540283203125 39.59416580200195 C 328.2726135253906 28.485559463500977 335.3675537109375 20.932392120361328 345.3414001464844 18.205608367919922 C 356.0 21.67949104309082 363.32049560546875 29.0 366.4429016113281 39.456764221191406" stroke-width="0.0" fill="rgb(100, 114, 122)" opacity="1.0"/>
    <path d="M 325.96539306640625 543.3027954101562 C 323.23529052734375 554.893310546875 315.89007568359375 562.2279052734375 305.32073974609375 564.9492797851562 C 294.1192626953125 562.2195434570312 286.7729187011719 554.8840942382812 284.04498291015625 543.56689453125 C 286.7572021484375 533.0900268554688 294.08721923828125 525.7504272460938 304.63885498046875 523.0424194335938 C 315.9150390625 525.7549438476562 323.2580261230469 533.0795288085938 325.96539306640625 543.3027954101562" stroke-width="0.0" fill="rgb(38, 46, 53)" opacity="1.0"/>
    <path d="M 131.75152587890625 478.6886901855469 C 129.15895080566406 488.80755615234375 121.78411102294922 496.08734130859375 110.4158706665039 498.8149719238281 C 100.16880798339844 496.17437744140625 92.86373138427734 488.8183898925781 90.365234375 478.60736083984375 C 93.67970275878906 468.0003356933594 101.00042724609375 460.6800537109375 111.000244140625 458.0003356933594 C 121.0 460.67950439453125 128.3205108642578 468.0 131.75152587890625 478.6886901855469" stroke-width="0.0" fill="rgb(84, 94, 102)" opacity="1.0"/>
    <path d="M 556.0 76.0 C 553.3204956054688 86.0 546.0 93.32051086425781 536.0 96.00003814697266 C 526.0000610351562 93.32051086425781 518.6796875 85.9999008178711 516.0005493164062 75.9999771118164 C 518.6796875 66.0000991821289 526.0000610351562 58.679542541503906 536.0 56.0000114440918 C 546.0 58.67949295043945 553.3204956054688 66.0 556.0 76.0" stroke-width="0.0" fill="rgb(82, 89, 98)" opacity="0.9999585"/>
    <path d="M 239.4491424560547 476.7268981933594 C 238.1427459716797 486.8467102050781 230.87611389160156 494.2289733886719 220.6851043701172 496.94305419921875 C 209.23158264160156 494.16253662109375 202.04959106445312 486.69366455078125 199.72023010253906 476.3148193359375 C 202.6794891357422 466.0 210.0 458.67950439453125 219.68814086914062 456.34375 C 229.43699645996094 459.2392883300781 236.63446044921875 466.60760498046875 239.4491424560547 476.7268981933594" stroke-width="0.0" fill="rgb(25, 21, 13)" opacity="0.99003625"/>
    <path d="M 189.92201232910156 140.40794372558594 C 187.177490234375 151.828857421875 179.8161163330078 159.14154052734375 169.6070556640625 161.69964599609375 C 158.78062438964844 158.6090850830078 151.83847045898438 151.0977020263672 148.5009002685547 140.3333282470703 C 150.86920166015625 130.20127868652344 158.18980407714844 122.83758544921875 168.4576873779297 120.13666534423828 C 179.8524932861328 122.83440399169922 187.21478271484375 130.1307830810547 189.92201232910156 140.40794372558594" stroke-width="0.0" fill="rgb(175, 154, 131)" opacity="1.0"/>
    <path d="M 408.9241638183594 590.2477416992188 C 406.0561218261719 601.6052856445312 398.4649963378906 608.6558227539062 387.9689025878906 611.122314453125 C 377.442626953125 608.731689453125 369.8475341796875 601.7130126953125 367.04510498046875 590.3154907226562 C 369.7630310058594 580.106201171875 377.1138000488281 572.7813720703125 388.379150390625 570.0542602539062 C 398.8778076171875 572.7808227539062 406.2195129394531 580.1220703125 408.9241638183594 590.2477416992188" stroke-width="0.0" fill="rgb(46, 55, 62)" opacity="1.0"/>
    <path d="M 302.81951904296875 8.497021675109863 C 300.0862731933594 18.744644165039062 292.7603759765625 26.126548767089844 282.701171875 28.815954208374023 C 271.9996337890625 25.32126808166504 264.6794128417969 18.00016212463379 262.0 8.000014305114746 C 264.67950439453125 -2.0 272.0 -9.320508003234863 282.0205078125 -12.011397361755371 C 292.1789855957031 -9.424657821655273 299.7843322753906 -2.3028204441070557 302.81951904296875 8.497021675109863" stroke-width="0.0" fill="rgb(108, 120, 130)" opacity="1.0"/>
    <path d="M 103.00094604492188 371.99713134765625 C 100.31660461425781 381.99591064453125 92.99475860595703 389.3126220703125 82.92479705810547 392.0283508300781 C 72.61959838867188 389.59075927734375 65.01207733154297 382.5210876464844 62.23197937011719 372.6011962890625 C 65.67961883544922 362.00030517578125 73.0007095336914 354.68109130859375 82.99838256835938 352.01263427734375 C 92.99762725830078 354.68408203125 100.32142639160156 362.0007629394531 103.00094604492188 371.99713134765625" stroke-width="0.0" fill="rgb(105, 115, 124)" opacity="1.0"/>
    <path d="M 162.92864990234375 472.1742858886719 C 160.1938934326172 482.85015869140625 152.848876953125 490.1905517578125 142.0273895263672 492.93121337890625 C 131.2307586669922 490.1590881347656 124.03789520263672 482.700927734375 121.71134185791016 472.326904296875 C 124.67948913574219 462.0 132.0 454.67950439453125 142.41929626464844 451.6044616699219 C 152.7506103515625 453.9673156738281 160.17311096191406 461.2010498046875 162.92864990234375 472.1742858886719" stroke-width="0.0" fill="rgb(82, 93, 101)" opacity="1.0"/>
    <path d="M 149.70655822753906 53.9795036315918 C 146.9207305908203 64.54924011230469 139.52784729003906 71.85806274414062 129.2962646484375 74.5006103515625 C 118.62471008300781 71.54065704345703 110.9256362915039 64.58306884765625 108.10340881347656 54.66152572631836 C 111.11618041992188 43.4843864440918 118.45775604248047 36.05305862426758 128.71461486816406 33.27011489868164 C 139.48223876953125 36.1579704284668 146.8804473876953 43.50407028198242 149.70655822753906 53.9795036315918" stroke-width="0.0" fill="rgb(189, 160, 136)" opacity="0.9904347"/>
    <path d="M 392.0775146484375 537.8529663085938 C 391.1827392578125 547.8603515625 383.85546875 555.1675415039062 373.638671875 557.6314086914062 C 363.0 554.3204956054688 355.67950439453125 547.0 352.775390625 536.8599853515625 C 355.6756896972656 527.4340209960938 363.67254638671875 520.4945678710938 372.5111999511719 517.948974609375 C 382.133056640625 520.5686645507812 389.4311218261719 527.8670043945312 392.0775146484375 537.8529663085938" stroke-width="0.0" fill="rgb(104, 66, 41)" opacity="0.99001783"/>
    <path d="M 446.4742736816406 103.54724884033203 C 443.93218994140625 113.45349884033203 436.2654724121094 120.30838775634766 426.1181335449219 122.63927459716797 C 416.03973388671875 120.0660400390625 408.1407775878906 113.28082275390625 405.1119384765625 102.96134185791016 C 408.3401794433594 93.48072814941406 416.6543273925781 86.41761779785156 426.5699768066406 83.67353820800781 C 435.8042907714844 85.80536651611328 442.933837890625 93.27947998046875 446.4742736816406 103.54724884033203" stroke-width="0.0" fill="rgb(248, 220, 180)" opacity="0.99004275"/>
    <path d="M 562.877685546875 135.80020141601562 C 560.2066040039062 145.8689727783203 552.8704223632812 153.2099151611328 542.807861328125 155.7554168701172 C 532.587890625 151.70639038085938 525.3372192382812 144.396484375 521.220947265625 134.22825622558594 C 523.9373779296875 124.41912078857422 531.6044311523438 117.42850494384766 541.9457397460938 114.97105407714844 C 551.9993286132812 117.68012237548828 559.3192749023438 125.00086975097656 562.877685546875 135.80020141601562" stroke-width="0.0" fill="rgb(82, 89, 92)" opacity="0.9900544"/>
    <path d="M 38.15226364135742 25.112024307250977 C 35.540870666503906 35.16648483276367 28.109294891357422 42.34496307373047 17.5518856048584 45.49067306518555 C 7.3458051681518555 42.98649215698242 -0.02964228391647339 35.66923522949219 -2.716334342956543 25.20885467529297 C 0.00948411226272583 14.347391128540039 7.340170383453369 6.98764705657959 17.499235153198242 4.395505428314209 C 27.999034881591797 7.68073844909668 35.31963348388672 15.000859260559082 38.15226364135742 25.112024307250977" stroke-width="0.0" fill="rgb(139, 153, 168)" opacity="0.9902579"/>
    <path d="M 42.12590408325195 58.65459442138672 C 39.13352966308594 68.8373794555664 31.83173370361328 76.11473846435547 21.392972946166992 79.65769958496094 C 11.3931303024292 77.03878784179688 4.483015537261963 69.46421813964844 1.2376023530960083 58.30610275268555 C 3.8860023021698 48.24907684326172 11.27087116241455 40.94893264770508 21.649816513061523 38.32575225830078 C 32.53383255004883 41.13907241821289 39.868553161621094 48.46339416503906 42.12590408325195 58.65459442138672" stroke-width="0.0" fill="rgb(192, 171, 146)" opacity="0.9900502"/>
    <path d="M 232.5052490234375 110.49049377441406 C 230.0662384033203 120.76174926757812 222.80015563964844 128.1721649169922 212.1496124267578 130.93319702148438 C 201.16390991210938 128.18348693847656 193.8207244873047 120.83441162109375 191.0855712890625 110.36688995361328 C 193.85513305664062 99.2068862915039 201.20803833007812 91.85870361328125 211.5094451904297 89.12236022949219 C 222.3197479248047 92.14352416992188 229.3802947998047 99.86109924316406 232.5052490234375 110.49049377441406" stroke-width="0.0" fill="rgb(99, 110, 117)" opacity="1.0"/>
    <path d="M 32.8874626159668 330.2193908691406 C 30.140045166015625 340.7877197265625 22.78182029724121 348.12420654296875 11.756176948547363 350.8912658691406 C 1.371812343597412 348.0711669921875 -5.724032402038574 340.503662109375 -8.188713073730469 330.0119934082031 C -5.692361354827881 319.5462951660156 1.4517664909362793 312.0245056152344 12.482487678527832 309.14404296875 C 22.762357711791992 311.887451171875 30.1235408782959 319.2330627441406 32.8874626159668 330.2193908691406" stroke-width="0.0" fill="rgb(116, 127, 136)" opacity="1.0"/>
    <path d="M 43.9489631652832 546.2642211914062 C 41.21413040161133 556.868896484375 33.869354248046875 564.21533203125 23.7900333404541 566.9344482421875 C 12.483587265014648 563.8721313476562 4.906562805175781 556.629150390625 2.1120855808258057 546.7623291015625 C 5.6799845695495605 536.0001220703125 13.00001049041748 528.6795043945312 23.695796966552734 525.2398681640625 C 33.840328216552734 527.8305053710938 41.20405197143555 535.1466064453125 43.9489631652832 546.2642211914062" stroke-width="0.0" fill="rgb(65, 75, 84)" opacity="1.0"/>
    <path d="M 148.908447265625 365.6483459472656 C 146.06198120117188 376.5978088378906 138.44039916992188 383.63018798828125 128.0812225341797 386.0505676269531 C 117.99986267089844 383.320556640625 110.67859649658203 376.0003662109375 107.99642181396484 366.0014953613281 C 110.68216705322266 356.0028991699219 118.00330352783203 348.68365478515625 128.7322235107422 345.17156982421875 C 138.8108673095703 347.8391418457031 146.1604766845703 355.18939208984375 148.908447265625 365.6483459472656" stroke-width="0.0" fill="rgb(110, 120, 129)" opacity="1.0"/>
    <path d="M 511.26129150390625 66.85546875 C 508.7586975097656 77.56244659423828 501.689208984375 85.11986541748047 491.63079833984375 87.9029769897461 C 480.79876708984375 84.73272705078125 473.6567687988281 77.05939483642578 470.53057861328125 66.52595520019531 C 472.93634033203125 56.23366165161133 480.1974792480469 48.83110046386719 490.9094543457031 46.07254409790039 C 501.74957275390625 48.84861755371094 508.8964538574219 56.33820724487305 511.26129150390625 66.85546875" stroke-width="0.0" fill="rgb(81, 88, 97)" opacity="1.0"/>
    <path d="M 379.9141845703125 30.27372932434082 C 377.17974853515625 40.823524475097656 369.81085205078125 48.14912414550781 359.7104797363281 50.81431579589844 C 349.0028076171875 47.317771911621094 341.68353271484375 39.99681854248047 338.6088562011719 29.589115142822266 C 340.97808837890625 19.26039695739746 348.2091979980469 11.8314208984375 358.6958923339844 9.075882911682129 C 369.8094177246094 11.837601661682129 377.15673828125 19.192920684814453 379.9141845703125 30.27372932434082" stroke-width="0.0" fill="rgb(96, 108, 116)" opacity="1.0"/>
    <path d="M 443.9171447753906 575.7041625976562 C 440.95977783203125 586.4226684570312 433.2082214355469 593.4232788085938 422.74847412109375 596.2111206054688 C 412.3191833496094 593.9125366210938 404.8240966796875 586.7741088867188 402.094482421875 576.8138427734375 C 405.69793701171875 566.0184936523438 413.02197265625 558.7099609375 423.0230712890625 556.0658569335938 C 433.2443542480469 558.5681762695312 441.0086975097656 565.5226440429688 443.9171447753906 575.7041625976562" stroke-width="0.0" fill="rgb(47, 55, 61)" opacity="1.0"/>
    <path d="M 388.1628723144531 541.8218994140625 C 387.1761779785156 551.864013671875 379.8835754394531 559.2313232421875 369.8273620605469 561.9366455078125 C 358.816162109375 558.7135009765625 351.6617431640625 551.0482788085938 348.52899169921875 540.5827026367188 C 351.04425048828125 530.43701171875 358.5984802246094 523.9566040039062 368.37078857421875 521.9083251953125 C 378.1993103027344 524.511962890625 385.4854431152344 531.8018188476562 388.1628723144531 541.8218994140625" stroke-width="0.0" fill="rgb(30, 18, 13)" opacity="0.9900403"/>
    <path d="M 370.9427490234375 570.6219482421875 C 368.2140197753906 580.8720092773438 360.8749084472656 588.2205200195312 349.9178161621094 590.9537963867188 C 339.1161193847656 588.2249145507812 331.7777404785156 580.8828125 329.04931640625 570.37890625 C 331.8293762207031 559.2472534179688 339.3725280761719 552.1832885742188 349.97808837890625 549.8112182617188 C 360.5910949707031 552.2174682617188 368.1426696777344 559.2824096679688 370.9427490234375 570.6219482421875" stroke-width="0.0" fill="rgb(47, 56, 61)" opacity="1.0"/>
    <path d="M 117.31147766113281 143.2477264404297 C 113.8377685546875 154.19244384765625 107.57430267333984 162.0654754638672 96.26555633544922 164.94244384765625 C 86.1222152709961 162.2207794189453 78.78890228271484 154.8740234375 76.81287384033203 144.8662872314453 C 80.51961517333984 134.8183135986328 87.82626342773438 127.53932189941406 97.67649841308594 124.9293441772461 C 106.65575408935547 127.26915740966797 114.86158752441406 133.82464599609375 117.31147766113281 143.2477264404297" stroke-width="0.0" fill="rgb(114, 71, 39)" opacity="0.99001676"/>
    <path d="M 274.1423034667969 482.6571960449219 C 272.1814270019531 491.95263671875 264.9941711425781 499.31927490234375 255.1066131591797 501.9085998535156 C 245.3506622314453 499.02056884765625 238.16168212890625 491.5918884277344 234.36099243164062 481.3410949707031 C 236.9827117919922 471.4599304199219 244.8472442626953 465.20819091796875 254.54432678222656 462.89208984375 C 264.25726318359375 465.4681701660156 271.53546142578125 472.7410888671875 274.1423034667969 482.6571960449219" stroke-width="0.0" fill="rgb(191, 121, 79)" opacity="0.9900451"/>
    <path d="M 462.0013427734375 60.99182891845703 C 459.32049560546875 71.0 452.0 78.32051086425781 442.0 81.0 C 432.0 78.32050323486328 424.67962646484375 70.99995422363281 421.56170654296875 60.55027389526367 C 423.9525146484375 50.24595642089844 431.2076110839844 42.83974838256836 441.3584289550781 40.112762451171875 C 452.3013916015625 43.171836853027344 459.3842468261719 50.86334228515625 462.0013427734375 60.99182891845703" stroke-width="0.0" fill="rgb(86, 94, 103)" opacity="1.0"/>
    <path d="M 370.13623046875 551.2059936523438 C 367.6129150390625 561.2099609375 360.1383972167969 568.3755493164062 349.89630126953125 570.8248291015625 C 339.4302673339844 568.7277221679688 331.8476867675781 561.7188720703125 329.0460205078125 550.2363891601562 C 331.7474060058594 540.082275390625 339.0834655761719 532.7501831054688 349.1417236328125 530.0613403320312 C 360.2104187011719 533.2559204101562 367.2804870605469 540.953857421875 370.13623046875 551.2059936523438" stroke-width="0.0" fill="rgb(28, 32, 36)" opacity="1.0"/>
    <path d="M 26.757036209106445 525.4312744140625 C 23.320497512817383 535.9984130859375 15.997203826904297 543.3162841796875 5.501067638397217 546.6875 C -4.361959457397461 543.8753051757812 -11.420437812805176 536.1946411132812 -14.007342338562012 526.0157470703125 C -11.320464134216309 516.0001220703125 -3.9996800422668457 508.6803283691406 6.018068313598633 505.99896240234375 C 16.217998504638672 508.56640625 23.92118263244629 515.5979614257812 26.757036209106445 525.4312744140625" stroke-width="0.0" fill="rgb(72, 81, 90)" opacity="1.0"/>
    <path d="M 119.91757202148438 270.5313415527344 C 117.16334533691406 281.8133544921875 109.80816650390625 289.1497497558594 98.60845947265625 291.8929748535156 C 88.1693344116211 289.1739807128906 80.82383728027344 281.83154296875 78.08181762695312 270.5716247558594 C 80.79898834228516 260.1344299316406 88.12605285644531 252.77874755859375 99.41609954833984 250.043212890625 C 109.8863754272461 252.7674102783203 117.20736694335938 260.1239929199219 119.91757202148438 270.5313415527344" stroke-width="0.0" fill="rgb(90, 101, 106)" opacity="1.0"/>
    <path d="M 477.9140319824219 558.847412109375 C 475.2387390136719 568.8978271484375 467.8934326171875 576.2285766601562 456.49334716796875 578.9603271484375 C 446.09417724609375 576.2427978515625 438.75628662109375 568.9061889648438 436.0348815917969 557.7886962890625 C 438.75146484375 547.0857543945312 446.0830993652344 539.745361328125 456.3707580566406 537.0314331054688 C 467.8252258300781 539.7833251953125 474.9375305175781 547.2714233398438 477.9140319824219 558.847412109375" stroke-width="0.0" fill="rgb(31, 37, 41)" opacity="1.0"/>
    <path d="M 187.97036743164062 173.39552307128906 C 185.2518310546875 184.9122314453125 177.9023895263672 192.22544860839844 167.75485229492188 194.8269500732422 C 156.4416046142578 191.8903350830078 149.2794189453125 184.51942443847656 147.88485717773438 174.64437866210938 C 150.47531127929688 164.74595642089844 157.73458862304688 157.44871520996094 167.8557586669922 154.5268096923828 C 177.9086456298828 155.7685089111328 185.2592010498047 163.0806121826172 187.97036743164062 173.39552307128906" stroke-width="0.0" fill="rgb(4, 4, 4)" opacity="0.9900315"/>
    <path d="M 146.9003143310547 382.6047668457031 C 144.127197265625 392.72906494140625 136.65745544433594 399.9220275878906 126.02035522460938 402.40948486328125 C 115.34735870361328 399.9145202636719 107.89643859863281 392.7151184082031 105.2092056274414 382.6083984375 C 108.42581939697266 371.87310791015625 115.94849395751953 364.659423828125 126.01227569580078 362.0057373046875 C 136.18568420410156 364.58624267578125 143.8870086669922 371.63653564453125 146.9003143310547 382.6047668457031" stroke-width="0.0" fill="rgb(101, 115, 124)" opacity="1.0"/>
    <path d="M 281.9239196777344 500.7299499511719 C 279.2350158691406 510.90679931640625 271.9139099121094 518.252685546875 261.8194885253906 520.9539794921875 C 250.3859100341797 518.091064453125 243.2943572998047 510.44580078125 240.1857452392578 499.8428955078125 C 243.16754150390625 489.73834228515625 251.1500701904297 483.1184387207031 260.5086975097656 480.85125732421875 C 270.4938659667969 483.397705078125 279.01727294921875 489.721435546875 281.9239196777344 500.7299499511719" stroke-width="0.0" fill="rgb(75, 51, 38)" opacity="1.0"/>
    <path d="M 615.9994506835938 195.9931182861328 C 613.2827758789062 205.90823364257812 605.7322998046875 212.82406616210938 596.2575073242188 215.08583068847656 C 585.5594482421875 213.037109375 578.0050048828125 206.5981903076172 575.1895141601562 195.40631103515625 C 577.8175048828125 185.1520538330078 585.1453857421875 177.7996063232422 595.2697143554688 175.086181640625 C 606.2498168945312 178.20172119140625 613.3514404296875 185.9202880859375 615.9994506835938 195.9931182861328" stroke-width="0.0" fill="rgb(72, 80, 79)" opacity="0.99010897"/>
    <path d="M 302.90435791015625 58.262149810791016 C 300.1694641113281 68.82255554199219 292.8206787109375 76.16506958007812 282.2913513183594 78.9002685546875 C 271.1950378417969 76.14828491210938 263.8395690917969 68.80963134765625 261.0809326171875 57.72853088378906 C 263.8384704589844 47.18904113769531 271.1888122558594 39.83839416503906 282.3282775878906 37.083194732666016 C 292.8211364746094 39.824501037597656 300.1519775390625 47.18830871582031 302.90435791015625 58.262149810791016" stroke-width="0.0" fill="rgb(110, 121, 131)" opacity="1.0"/>
    <path d="M 77.00553894042969 353.01123046875 C 74.38459014892578 363.13128662109375 67.28466796875 370.80450439453125 56.33681869506836 373.89190673828125 C 46.20014190673828 371.15576171875 38.85214614868164 363.7967224121094 36.10084915161133 353.24932861328125 C 38.90276336669922 342.31591796875 46.40815734863281 335.17236328125 56.79240798950195 332.8437194824219 C 66.99556732177734 335.685546875 74.31698608398438 343.00372314453125 77.00553894042969 353.01123046875" stroke-width="0.0" fill="rgb(112, 123, 131)" opacity="1.0"/>
    <path d="M 558.9395141601562 73.6446533203125 C 556.1395874023438 84.7138671875 548.592041015625 91.79973602294922 538.1705322265625 94.1220703125 C 528.0007934570312 91.3198471069336 520.6810302734375 83.99897766113281 517.9725341796875 73.94414520263672 C 520.4334716796875 63.61997985839844 527.4498291015625 55.97030258178711 538.5900268554688 53.09113693237305 C 548.8533325195312 55.8083381652832 556.2040405273438 63.141666412353516 558.9395141601562 73.6446533203125" stroke-width="0.0" fill="rgb(81, 88, 95)" opacity="1.0"/>
    <path d="M 221.70574951171875 26.38031578063965 C 218.31832885742188 36.998252868652344 210.998291015625 44.31844711303711 200.39697265625 47.67026901245117 C 190.22640991210938 45.11022186279297 182.85983276367188 37.78449249267578 180.1000518798828 26.862321853637695 C 182.8592987060547 16.208881378173828 190.20494079589844 8.849830627441406 200.87193298339844 6.091455459594727 C 211.78939819335938 8.849725723266602 219.11141967773438 16.2255802154541 221.70574951171875 26.38031578063965" stroke-width="0.0" fill="rgb(118, 130, 141)" opacity="1.0"/>
    <path d="M 98.9266586303711 496.5611572265625 C 96.18962860107422 506.84283447265625 88.843017578125 514.1898193359375 77.53206634521484 516.9384765625 C 67.15812683105469 514.1986083984375 59.823280334472656 506.8323669433594 57.09383010864258 496.65924072265625 C 60.09096145629883 485.61163330078125 67.79203033447266 478.5688171386719 78.07978057861328 475.9316711425781 C 88.46866607666016 478.33770751953125 96.07572937011719 485.38116455078125 98.9266586303711 496.5611572265625" stroke-width="0.0" fill="rgb(78, 91, 97)" opacity="1.0"/>
    <path d="M 458.32379150390625 76.29032135009766 C 455.8399963378906 86.4879150390625 448.48291015625 93.8310317993164 437.4125061035156 96.85958862304688 C 427.2750244140625 94.1087646484375 420.01953125 86.67955017089844 417.5901184082031 76.39260864257812 C 420.68084716796875 66.00092315673828 428.0007629394531 58.68024444580078 438.000244140625 56.000850677490234 C 447.9999694824219 58.67957305908203 455.3205261230469 65.99998474121094 458.32379150390625 76.29032135009766" stroke-width="0.0" fill="rgb(86, 95, 105)" opacity="1.0"/>
    <path d="M 613.0249633789062 523.047119140625 C 610.5508422851562 533.37451171875 603.5694580078125 541.0588989257812 592.3250732421875 543.9389038085938 C 582.1512451171875 541.2022094726562 574.8218383789062 533.8388061523438 572.1779174804688 523.7396240234375 C 575.6802368164062 513.0037231445312 583.0081176757812 505.695556640625 593.009033203125 503.05035400390625 C 602.9985961914062 505.6829528808594 610.3203125 513.00048828125 613.0249633789062 523.047119140625" stroke-width="0.0" fill="rgb(45, 52, 58)" opacity="1.0"/>
    <path d="M 180.94725036621094 439.34197998046875 C 178.18519592285156 450.83148193359375 170.8290557861328 458.1800537109375 160.6847686767578 460.9189453125 C 149.64137268066406 457.8906555175781 142.59347534179688 450.1733703613281 139.3762969970703 439.4060974121094 C 141.87095642089844 429.189208984375 149.17239379882812 421.8221740722656 160.5122833251953 419.07196044921875 C 170.87559509277344 421.7900390625 178.2280731201172 429.1169128417969 180.94725036621094 439.34197998046875" stroke-width="0.0" fill="rgb(86, 99, 105)" opacity="1.0"/>
    <path d="M 26.871219635009766 121.4209213256836 C 24.171842575073242 131.83135986328125 16.831819534301758 139.1730194091797 6.700308322906494 141.8212890625 C -4.079549312591553 138.49661254882812 -11.333724021911621 131.02908325195312 -14.002652168273926 120.99803161621094 C -11.348219871520996 110.93928527832031 -4.1469926834106445 103.38981628417969 6.674715995788574 100.17218017578125 C 16.82010269165039 102.8343505859375 24.13516616821289 110.19072723388672 26.871219635009766 121.4209213256836" stroke-width="0.0" fill="rgb(189, 149, 122)" opacity="0.9908442"/>
    <path d="M 51.885643005371094 232.20826721191406 C 48.430416107177734 243.03369140625 41.00065231323242 250.3191375732422 30.524045944213867 253.53965759277344 C 20.309707641601562 251.02218627929688 12.922163963317871 243.70999145507812 10.132532119750977 232.83087158203125 C 12.927167892456055 222.29586791992188 20.304336547851562 214.95016479492188 31.69852066040039 212.10430908203125 C 41.8622932434082 214.79867553710938 49.208187103271484 222.13491821289062 51.885643005371094 232.20826721191406" stroke-width="0.0" fill="rgb(121, 132, 138)" opacity="1.0"/>
    <path d="M 490.6022644042969 78.5552978515625 C 488.084228515625 88.74022674560547 480.72406005859375 96.03292083740234 470.3609619140625 98.49810028076172 C 459.4475402832031 95.80135345458984 451.99261474609375 88.61734771728516 449.42645263671875 78.49295043945312 C 452.6791076660156 67.99967193603516 459.9997863769531 60.67949295043945 469.99945068359375 58.00252151489258 C 479.9986267089844 60.68101501464844 487.31817626953125 68.0016098022461 490.6022644042969 78.5552978515625" stroke-width="0.0" fill="rgb(86, 92, 100)" opacity="1.0"/>
    <path d="M 85.45826721191406 469.5379943847656 C 82.3225326538086 480.00140380859375 75.00102233886719 487.3212890625 64.2415542602539 490.8307800292969 C 54.169071197509766 488.18804931640625 46.90137481689453 480.8008117675781 44.1720085144043 469.37249755859375 C 46.80850601196289 459.1420593261719 54.136959075927734 451.79443359375 64.47268676757812 449.07122802734375 C 75.79164123535156 451.8406982421875 83.05314636230469 459.24481201171875 85.45826721191406 469.5379943847656" stroke-width="0.0" fill="rgb(87, 98, 106)" opacity="0.9920531"/>
    <path d="M 131.96034240722656 197.80224609375 C 129.2567596435547 207.92214965820312 121.92243194580078 215.25741577148438 111.5774154663086 217.96725463867188 C 100.08988189697266 215.24783325195312 92.7647933959961 207.90509033203125 90.0758056640625 197.6824188232422 C 92.79779815673828 186.1179962158203 100.11271667480469 178.78182983398438 110.21398162841797 177.42918395996094 C 121.62849426269531 179.2823486328125 129.16351318359375 186.2469482421875 131.96034240722656 197.80224609375" stroke-width="0.0" fill="rgb(87, 76, 61)" opacity="1.0"/>
    <path d="M 288.9963073730469 5.999697685241699 C 286.3192443847656 15.999104499816895 278.9992370605469 23.319747924804688 268.99786376953125 26.000452041625977 C 258.94219970703125 23.342275619506836 251.28147888183594 16.1932315826416 248.1753692626953 6.030179977416992 C 251.21768188476562 -4.266480922698975 258.87945556640625 -11.37803840637207 268.9916687011719 -14.003846168518066 C 278.9999084472656 -11.320467948913574 286.3199462890625 -3.9997692108154297 288.9963073730469 5.999697685241699" stroke-width="0.0" fill="rgb(111, 123, 133)" opacity="0.9980254"/>
    <path d="M 145.0001678466797 458.9998474121094 C 142.3197479248047 468.9990539550781 134.99887084960938 476.3190612792969 124.99980163574219 478.99725341796875 C 115.00067138671875 476.319580078125 107.67981719970703 468.99951171875 104.4118423461914 458.45849609375 C 106.91649627685547 448.23828125 114.21920013427734 440.8620910644531 124.31902313232422 438.227783203125 C 134.99932861328125 441.6806640625 142.32029724121094 449.0003967285156 145.0001678466797 458.9998474121094" stroke-width="0.0" fill="rgb(86, 97, 105)" opacity="1.0"/>
    <path d="M 557.07861328125 551.8760375976562 C 554.3197021484375 561.9989624023438 546.9986572265625 569.3185424804688 536.9857788085938 571.999755859375 C 526.7928466796875 569.4205322265625 519.0319213867188 562.4282836914062 516.0576782226562 551.2010498046875 C 518.7609252929688 541.0990600585938 526.0977172851562 533.7578125 536.2894287109375 531.041015625 C 547.7185668945312 533.8435668945312 554.7420043945312 541.4354248046875 557.07861328125 551.8760375976562" stroke-width="0.0" fill="rgb(49, 55, 60)" opacity="1.0"/>
    <path d="M 43.906620025634766 375.8256530761719 C 41.13720703125 386.7669677734375 33.73026657104492 394.0299072265625 23.437929153442383 396.4371337890625 C 13.000091552734375 393.3194885253906 5.677356719970703 386.0008239746094 2.253955841064453 375.3331298828125 C 4.85813045501709 365.2015075683594 12.202661514282227 357.860595703125 23.228120803833008 355.104248046875 C 33.79781723022461 357.8534240722656 41.15479278564453 365.1987609863281 43.906620025634766 375.8256530761719" stroke-width="0.0" fill="rgb(105, 117, 126)" opacity="0.99142224"/>
    <path d="M 234.38719177246094 470.990478515625 C 231.43365478515625 481.0732727050781 224.06472778320312 488.4059143066406 213.37869262695312 491.6915588378906 C 203.1770782470703 489.1443176269531 195.81089782714844 481.83880615234375 193.0677490234375 470.4975891113281 C 195.79544067382812 460.1474304199219 203.16368103027344 452.83868408203125 213.30755615234375 450.7828063964844 C 223.6711883544922 454.1088562011719 231.2848663330078 461.2164611816406 234.38719177246094 470.990478515625" stroke-width="0.0" fill="rgb(31, 24, 23)" opacity="0.9900326"/>
    <path d="M 563.7910766601562 34.273780822753906 C 560.4332885742188 45.226478576660156 553.4532470703125 52.98974609375 542.5848999023438 55.91884994506836 C 532.1695556640625 53.16857147216797 524.8064575195312 45.84082794189453 522.0992431640625 35.65766525268555 C 524.84765625 24.172075271606445 532.156494140625 16.804767608642578 543.1983642578125 14.062103271484375 C 553.8546752929688 16.799118041992188 561.183837890625 24.15167999267578 563.7910766601562 34.273780822753906" stroke-width="0.0" fill="rgb(76, 85, 92)" opacity="1.0"/>
    <path d="M 566.9381103515625 102.06346130371094 C 564.1828002929688 112.80404663085938 556.7459106445312 120.01390075683594 546.0647583007812 122.49198150634766 C 535.2520141601562 120.00332641601562 527.807373046875 112.81244659423828 525.0919799804688 102.79415893554688 C 528.5577392578125 91.95793151855469 535.9935913085938 84.67747497558594 546.7022094726562 81.25078582763672 C 556.8471069335938 83.82128143310547 564.1944580078125 91.1474838256836 566.9381103515625 102.06346130371094" stroke-width="0.0" fill="rgb(79, 85, 94)" opacity="1.0"/>
    <path d="M 503.8955993652344 598.187255859375 C 500.3526306152344 609.0096435546875 493.00079345703125 616.3207397460938 483.0 619.0 C 473.0 616.3204956054688 465.67950439453125 609.0 462.2252502441406 598.2635498046875 C 464.7976989746094 588.1214599609375 472.11083984375 580.7686157226562 482.7415771484375 578.0481567382812 C 493.88226318359375 580.7769775390625 501.2187194824219 588.119384765625 503.8955993652344 598.187255859375" stroke-width="0.0" fill="rgb(47, 54, 62)" opacity="1.0"/>
    <path d="M 174.72642517089844 508.6746520996094 C 172.16372680664062 518.8381958007812 164.85057067871094 526.1975708007812 154.77297973632812 528.8444213867188 C 144.0 525.3204956054688 136.6794891357422 518.0 133.39031982421875 507.4138488769531 C 135.8739776611328 497.18707275390625 143.16465759277344 489.8102722167969 153.2244110107422 487.14434814453125 C 163.99261474609375 490.6901550292969 171.3133087158203 498.0063781738281 174.72642517089844 508.6746520996094" stroke-width="0.0" fill="rgb(76, 86, 94)" opacity="1.0"/>
  </g>
</svg>
