<?xml version="1.0" ?>
<svg xmlns="http://www.w3.org/2000/svg" version="1.1" width="600" height="600">
  <defs/>
  <g>
    <path d="M 530.0 548.0 C 527.3204956054688 558.0 520.0 565.3204956054688 510.0 568.0 C 500.0 565.3204956054688 492.67950439453125 558.0 490.0 548.0 C 492.67950439453125 538.0 500.0 530.6795043945312 510.0 528.0 C 520.0 530.6795043945312 527.3204956054688 538.0 530.0 548.0" stroke-width="0.0" fill="rgb(216, 223, 224)" opacity="1.0"/>
    <path d="M 605.4788208007812 115.48841094970703 C 603.0756225585938 125.777587890625 595.8043212890625 133.1579132080078 585.6890869140625 135.75343322753906 C 575.0 132.3205108642578 567.6795043945312 125.0 565.0 115.0 C 567.6795043945312 105.0 575.0 97.67948913574219 585.0 95.0 C 595.0 97.67948913574219 602.3204956054688 105.0 605.4788208007812 115.48841094970703" stroke-width="0.0" fill="rgb(46, 56, 67)" opacity="1.0"/>
    <path d="M 489.9687805175781 84.95474243164062 C 487.1468505859375 94.75348663330078 479.6422424316406 101.81916046142578 470.0760498046875 104.21405792236328 C 460.5553283691406 101.7008285522461 453.2690734863281 94.4557113647461 450.4895324707031 84.58084106445312 C 452.57110595703125 75.03475952148438 460.1011657714844 67.80479431152344 470.0492248535156 65.04945373535156 C 480.0 67.67948913574219 487.32049560546875 75.0 489.9687805175781 84.95474243164062" stroke-width="0.0" fill="rgb(215, 179, 133)" opacity="0.99007046"/>
    <path d="M 78.9471664428711 569.4120483398438 C 76.1792984008789 579.769775390625 68.65657806396484 586.856201171875 58.18544387817383 589.1388549804688 C 47.7745246887207 586.4295654296875 39.99637222290039 579.4637451171875 37.12616729736328 569.692138671875 C 40.605709075927734 558.9754028320312 47.99630355834961 551.6783447265625 58.12043380737305 548.9220581054688 C 68.53955841064453 551.2748413085938 76.13190460205078 558.3109130859375 78.9471664428711 569.4120483398438" stroke-width="0.0" fill="rgb(65, 51, 41)" opacity="1.0"/>
    <path d="M 351.80126953125 562.2570190429688 C 349.32049560546875 572.0 342.0 579.3204956054688 331.1874694824219 582.8641357421875 C 321.1006164550781 580.2299194335938 313.75689697265625 572.9044799804688 311.2508239746094 562.9234619140625 C 315.574951171875 552.8726196289062 322.8703918457031 545.5696411132812 332.2673034667969 542.9521484375 C 341.2244567871094 545.5333862304688 348.7266845703125 552.685546875 351.80126953125 562.2570190429688" stroke-width="0.0" fill="rgb(92, 59, 30)" opacity="0.99000955"/>
    <path d="M 399.0 576.0 C 396.32049560546875 586.0 389.0 593.3204956054688 379.0 596.0 C 369.0 593.3204956054688 361.67950439453125 586.0 359.0 576.0 C 361.67950439453125 566.0 369.0 558.6795043945312 379.0 556.0 C 389.0 558.6795043945312 396.32049560546875 566.0 399.0 576.0" stroke-width="0.0" fill="rgb(191, 195, 199)" opacity="1.0"/>
    <path d="M 592.8448486328125 130.7377166748047 C 590.1367797851562 140.71981811523438 582.6094360351562 147.81703186035156 572.1792602539062 150.1273193359375 C 562.0 147.3205108642578 554.6795043945312 140.0 552.0 130.0 C 554.6795043945312 120.0 562.0 112.67948913574219 572.0 110.0 C 581.9999389648438 112.67950439453125 589.3193969726562 120.0003433227539 592.8448486328125 130.7377166748047" stroke-width="0.0" fill="rgb(37, 50, 51)" opacity="1.0"/>
    <path d="M 465.0 555.0 C 462.32049560546875 565.0 455.0 572.3204956054688 445.0 575.0 C 435.0 572.3204956054688 427.67950439453125 565.0 425.0 555.0 C 427.67950439453125 545.0 435.0 537.6795043945312 445.0 535.0 C 455.0 537.6795043945312 462.32049560546875 545.0 465.0 555.0" stroke-width="0.0" fill="rgb(201, 204, 205)" opacity="1.0"/>
    <path d="M 150.99972534179688 576.0007934570312 C 148.3205108642578 586.0 141.0 593.3204956054688 131.0 596.0 C 121.0 593.3204956054688 113.67948913574219 586.0 111.02049255371094 576.04052734375 C 113.89535522460938 566.36669921875 121.58431243896484 559.4400634765625 131.64199829101562 556.938720703125 C 140.8278350830078 559.0691528320312 148.30860900878906 566.0345458984375 150.99972534179688 576.0007934570312" stroke-width="0.0" fill="rgb(67, 52, 33)" opacity="0.99012667"/>
    <path d="M 535.0062866210938 34.01389694213867 C 532.41845703125 44.20135498046875 525.4215698242188 51.96299743652344 515.6510009765625 54.86820983886719 C 504.9742431640625 51.39833450317383 497.6783447265625 44.003662109375 494.75384521484375 33.697689056396484 C 497.04217529296875 23.28337287902832 504.2018127441406 15.809849739074707 514.1754150390625 13.09062385559082 C 525.0 16.67949104309082 532.3204956054688 24.0 535.0062866210938 34.01389694213867" stroke-width="0.0" fill="rgb(47, 60, 72)" opacity="1.0"/>
    <path d="M 485.0 579.0 C 482.32049560546875 589.0 475.0 596.3204956054688 465.0 599.0 C 455.0 596.3204956054688 447.67950439453125 589.0 445.0 579.0 C 447.67950439453125 569.0 455.0 561.6795043945312 465.0 559.0 C 475.0 561.6795043945312 482.32049560546875 569.0 485.0 579.0" stroke-width="0.0" fill="rgb(67, 63, 54)" opacity="1.0"/>
    <path d="M 544.03564453125 33.06583023071289 C 541.6156616210938 43.45257568359375 534.6387939453125 51.10743713378906 524.6760864257812 53.91046905517578 C 513.82470703125 50.69694519042969 506.6618347167969 43.04752731323242 503.999267578125 33.001346588134766 C 506.6789855957031 22.99946403503418 513.9993896484375 15.678811073303223 523.999755859375 12.999662399291992 C 534.0 15.679491996765137 541.3204956054688 23.0 544.03564453125 33.06583023071289" stroke-width="0.0" fill="rgb(48, 62, 74)" opacity="1.0"/>
    <path d="M 494.2981872558594 547.7160034179688 C 491.32049560546875 558.0 484.0 565.3204956054688 474.0 568.0 C 464.0 565.3204956054688 456.67950439453125 558.0 453.66949462890625 547.67138671875 C 456.08404541015625 537.4015502929688 463.40264892578125 530.0899658203125 474.4473571777344 527.4085083007812 C 484.6391906738281 529.9766235351562 491.8736267089844 537.41064453125 494.2981872558594 547.7160034179688" stroke-width="0.0" fill="rgb(209, 213, 215)" opacity="1.0"/>
    <path d="M 609.000244140625 492.0005187988281 C 606.3230590820312 502.00421142578125 599.00634765625 509.3301086425781 589.0045776367188 512.0067138671875 C 579.0 509.32049560546875 571.6795043945312 502.0 569.0 492.0 C 571.6795043945312 482.0 579.0 474.67950439453125 589.0 472.0 C 599.0 474.67950439453125 606.3204956054688 482.0 609.000244140625 492.0005187988281" stroke-width="0.0" fill="rgb(221, 226, 229)" opacity="0.99311084"/>
    <path d="M 410.0 11.0 C 407.32049560546875 21.0 400.0 28.32050895690918 390.0 31.0 C 380.0 28.32050895690918 372.67950439453125 21.0 370.0 11.0 C 372.67950439453125 1.0 380.0 -6.320508003234863 390.0 -9.0 C 400.0 -6.320508003234863 407.32049560546875 1.0 410.0 11.0" stroke-width="0.0" fill="rgb(48, 62, 73)" opacity="1.0"/>
    <path d="M 562.015869140625 597.9653930664062 C 559.3204956054688 608.0 552.0 615.3204956054688 541.9995727539062 618.0001220703125 C 531.97802734375 615.327880859375 524.4000244140625 608.1128540039062 521.3009643554688 598.4302978515625 C 524.679443359375 588.0 532.0 580.6795043945312 542.8310546875 577.0711059570312 C 552.6377563476562 579.8685913085938 559.5341796875 587.6155395507812 562.015869140625 597.9653930664062" stroke-width="0.0" fill="rgb(0, 0, 0)" opacity="1.0"/>
    <path d="M 606.0 104.0 C 603.3204956054688 114.0 596.0 121.32051086425781 586.0 124.0 C 576.0 121.32051086425781 568.6795043945312 114.0 566.0 104.0 C 568.6795043945312 94.0 576.0 86.67948913574219 586.0 84.0 C 596.0 86.67948913574219 603.3204956054688 94.0 606.0 104.0" stroke-width="0.0" fill="rgb(48, 59, 70)" opacity="1.0"/>
    <path d="M 605.54443359375 37.45115280151367 C 602.3204956054688 48.0 595.0 55.32050704956055 585.0 58.0 C 575.0 55.32050704956055 567.6795043945312 48.0 565.0 38.0 C 567.6795043945312 28.0 575.0 20.67949104309082 585.7835083007812 17.142030715942383 C 595.8423461914062 19.802085876464844 603.11572265625 27.185651779174805 605.54443359375 37.45115280151367" stroke-width="0.0" fill="rgb(49, 63, 75)" opacity="1.0"/>
    <path d="M 578.008056640625 93.0164566040039 C 575.4249877929688 103.20442962646484 568.4119873046875 110.9481201171875 558.4546508789062 113.88709259033203 C 547.7813110351562 110.755615234375 540.653564453125 103.06757354736328 537.9991455078125 93.00237274169922 C 540.6795043945312 83.0 548.0 75.67948913574219 558.0 73.0 C 568.0 75.67948913574219 575.3204956054688 83.0 578.008056640625 93.0164566040039" stroke-width="0.0" fill="rgb(44, 55, 67)" opacity="1.0"/>
    <path d="M 171.9347686767578 15.33064079284668 C 168.93984985351562 26.358657836914062 160.8442840576172 32.81477737426758 151.3528289794922 35.06974792480469 C 141.42982482910156 32.676612854003906 133.79193115234375 25.782358169555664 131.00860595703125 15.982151985168457 C 133.6794891357422 6.0 141.0 -1.3205081224441528 151.08819580078125 -4.050447940826416 C 161.51217651367188 -1.6748020648956299 169.1413116455078 5.311651706695557 171.9347686767578 15.33064079284668" stroke-width="0.0" fill="rgb(40, 52, 62)" opacity="0.99020934"/>
    <path d="M 365.919677734375 573.8831787109375 C 362.9447021484375 583.5106201171875 355.3839111328125 590.5820922851562 346.50634765625 593.0687255859375 C 336.751708984375 590.4985961914062 329.341796875 583.306396484375 326.2783203125 573.6261596679688 C 328.6712341308594 563.9972534179688 335.9994812011719 556.6793212890625 345.9999694824219 554.0 C 356.0 556.6795043945312 363.32049560546875 564.0 365.919677734375 573.8831787109375" stroke-width="0.0" fill="rgb(43, 33, 26)" opacity="0.9900203"/>
    <path d="M 74.23462677001953 24.696674346923828 C 71.32051086425781 35.0 64.0 42.32050704956055 54.0 45.0 C 44.0 42.32050704956055 36.67949295043945 35.0 33.14554214477539 24.294300079345703 C 35.93608093261719 14.30650520324707 43.251708984375 6.837516784667969 54.44587707519531 4.043622970581055 C 64.82199096679688 6.791977405548096 71.97332000732422 14.258639335632324 74.23462677001953 24.696674346923828" stroke-width="0.0" fill="rgb(28, 39, 44)" opacity="1.0"/>
    <path d="M 498.93585205078125 11.392952919006348 C 496.2101135253906 21.871469497680664 488.8743591308594 29.217222213745117 478.7878723144531 31.921998977661133 C 467.7501220703125 28.785707473754883 460.6413269042969 21.09103775024414 457.99822998046875 11.004301071166992 C 460.67950439453125 1.0 468.0 -6.320508003234863 478.2263488769531 -9.168365478515625 C 488.6610107421875 -6.880768775939941 496.16278076171875 0.24180340766906738 498.93585205078125 11.392952919006348" stroke-width="0.0" fill="rgb(47, 61, 73)" opacity="1.0"/>
    <path d="M 519.736572265625 96.39579010009766 C 516.3204956054688 107.0 509.0 114.32051086425781 499.1770324707031 116.79924774169922 C 489.4005126953125 113.9384765625 482.2298889160156 106.54216766357422 479.5284118652344 96.60497283935547 C 481.67950439453125 87.0 489.0 79.67948913574219 499.1446228027344 76.88704681396484 C 509.5045166015625 79.26959228515625 517.0426635742188 86.38833618164062 519.736572265625 96.39579010009766" stroke-width="0.0" fill="rgb(221, 187, 151)" opacity="0.991246"/>
    <path d="M 191.47332763671875 561.9091186523438 C 190.18106079101562 571.7943115234375 182.72454833984375 578.9799194335938 172.3362274169922 581.289306640625 C 162.0 578.3204956054688 154.6794891357422 571.0 152.89697265625 561.8356323242188 C 155.58981323242188 551.8935546875 162.8951873779297 544.59375 171.87637329101562 541.9620361328125 C 181.10316467285156 544.5944213867188 188.4062957763672 551.896484375 191.47332763671875 561.9091186523438" stroke-width="0.0" fill="rgb(91, 41, 11)" opacity="0.99000525"/>
    <path d="M 607.0253295898438 486.9723815917969 C 604.3204345703125 496.99993896484375 596.9999389648438 504.3204345703125 587.0 506.9999694824219 C 577.0 504.32049560546875 569.6795043945312 497.0 566.6722412109375 486.70281982421875 C 569.1475219726562 476.4949035644531 576.5189208984375 469.2281494140625 586.9222412109375 466.5186767578125 C 597.128173828125 469.5003356933594 604.4072265625 476.8996276855469 607.0253295898438 486.9723815917969" stroke-width="0.0" fill="rgb(217, 221, 227)" opacity="1.0"/>
    <path d="M 511.0 576.0 C 508.32049560546875 586.0 501.0 593.3204956054688 491.0 596.0 C 481.0 593.3204956054688 473.67950439453125 586.0 471.0 576.0 C 473.67950439453125 566.0 481.0 558.6795043945312 491.0 556.0 C 501.0 558.6795043945312 508.32049560546875 566.0 511.0 576.0" stroke-width="0.0" fill="rgb(2, 1, 2)" opacity="1.0"/>
    <path d="M 571.398193359375 509.01202392578125 C 568.507568359375 519.1577758789062 561.1420288085938 526.4542846679688 551.0468139648438 529.0449829101562 C 541.0005493164062 526.3203125 533.70166015625 518.9933471679688 530.2828369140625 508.3969421386719 C 533.0144653320312 498.4505920410156 540.5234375 491.2137451171875 551.490234375 488.3571472167969 C 561.3677978515625 491.1244812011719 568.4729614257812 498.783447265625 571.398193359375 509.01202392578125" stroke-width="0.0" fill="rgb(210, 216, 218)" opacity="1.0"/>
    <path d="M 464.93756103515625 45.75891876220703 C 462.2188720703125 55.87039566040039 454.8487548828125 63.15414810180664 444.58428955078125 65.4822998046875 C 434.0 62.32050704956055 426.67950439453125 55.0 424.0 45.0 C 426.67950439453125 35.0 434.0 27.67949104309082 444.0047302246094 24.998172760009766 C 454.11712646484375 27.632001876831055 461.8990783691406 34.665828704833984 464.93756103515625 45.75891876220703" stroke-width="0.0" fill="rgb(48, 61, 73)" opacity="1.0"/>
    <path d="M 476.9999694824219 0.9999749660491943 C 474.3204040527344 10.999932289123535 466.99993896484375 18.32047462463379 456.8076171875 21.138835906982422 C 446.37353515625 18.83648109436035 438.8455810546875 11.738556861877441 436.0960693359375 1.772743582725525 C 439.6226806640625 -9.017279624938965 446.9986267089844 -16.320913314819336 457.0 -19.000003814697266 C 467.0 -16.32050895690918 474.32049560546875 -9.0 476.9999694824219 0.9999749660491943" stroke-width="0.0" fill="rgb(49, 64, 75)" opacity="1.0"/>
    <path d="M 580.0810546875 47.08712387084961 C 577.5601196289062 57.26556396484375 570.293701171875 64.65179443359375 560.1285400390625 67.20752716064453 C 549.6322021484375 64.5446548461914 541.9456176757812 57.5633430480957 539.1583862304688 47.6977424621582 C 542.6795043945312 37.0 550.0 29.67949104309082 560.0 27.0 C 570.0 29.679502487182617 577.3203735351562 37.00004959106445 580.0810546875 47.08712387084961" stroke-width="0.0" fill="rgb(48, 63, 74)" opacity="1.0"/>
    <path d="M 433.0 53.0 C 430.32049560546875 63.0 423.0 70.32051086425781 412.9057312011719 73.10694122314453 C 402.7782287597656 70.54505920410156 395.4407043457031 63.22679901123047 392.8531799316406 52.91206359863281 C 395.55023193359375 42.94451141357422 402.9814147949219 35.67218780517578 412.9992370605469 32.99972152709961 C 423.0 35.67949295043945 430.32049560546875 43.0 433.0 53.0" stroke-width="0.0" fill="rgb(243, 245, 246)" opacity="0.99133724"/>
    <path d="M 509.89007568359375 597.3305053710938 C 506.49493408203125 608.0648803710938 499.01214599609375 615.3245239257812 489.000244140625 618.0000610351562 C 479.0 615.3204956054688 471.67950439453125 608.0 469.0 598.0 C 471.67950439453125 588.0 479.0 580.6795043945312 489.0061340332031 577.9974975585938 C 499.1471862792969 580.6187133789062 506.9609375 587.6054077148438 509.89007568359375 597.3305053710938" stroke-width="0.0" fill="rgb(0, 0, 0)" opacity="1.0"/>
    <path d="M 153.87762451171875 18.826194763183594 C 150.82904052734375 28.390748977661133 143.26980590820312 35.489295959472656 133.275634765625 38.064083099365234 C 124.16675567626953 35.94289016723633 116.69173431396484 28.96482276916504 114.00029754638672 18.999147415161133 C 116.67948913574219 9.0 124.0 1.6794918775558472 134.0 -1.0 C 144.0 1.6794918775558472 151.3205108642578 9.0 153.87762451171875 18.826194763183594" stroke-width="0.0" fill="rgb(41, 53, 62)" opacity="0.99007624"/>
    <path d="M 605.0000610351562 111.00012969970703 C 602.3213500976562 121.00174713134766 595.003662109375 128.3279266357422 585.0052490234375 131.0107879638672 C 575.0 128.3205108642578 567.6795043945312 121.0 564.97314453125 110.99176788330078 C 567.6769409179688 100.99919891357422 574.9998779296875 93.67945861816406 585.0 91.0 C 595.0 93.67948913574219 602.3204956054688 101.0 605.0000610351562 111.00012969970703" stroke-width="0.0" fill="rgb(48, 59, 69)" opacity="1.0"/>
    <path d="M 440.0025634765625 567.9949951171875 C 437.32049560546875 578.0 430.0 585.3204956054688 419.9769287109375 588.0310668945312 C 409.96697998046875 585.3698120117188 402.66510009765625 578.0225219726562 399.9975280761719 568.0020141601562 C 402.6700439453125 557.9778442382812 409.94769287109375 550.570068359375 420.28802490234375 547.3687744140625 C 430.13934326171875 550.4095458984375 437.3514709472656 557.9381713867188 440.0025634765625 567.9949951171875" stroke-width="0.0" fill="rgb(203, 210, 212)" opacity="0.99219763"/>
    <path d="M 545.8555908203125 550.7738647460938 C 543.0914916992188 560.5904541015625 535.3568725585938 567.5188598632812 525.032958984375 570.015380859375 C 515.0 567.3204956054688 507.67950439453125 560.0 505.0 550.0 C 507.67950439453125 540.0 515.0 532.6795043945312 524.9999389648438 530.0 C 534.9968872070312 532.6804809570312 542.2334594726562 540.0280151367188 545.8555908203125 550.7738647460938" stroke-width="0.0" fill="rgb(159, 159, 158)" opacity="1.0"/>
    <path d="M 521.1484375 40.17498779296875 C 518.7522583007812 50.482418060302734 511.5279235839844 57.90020751953125 501.3565979003906 60.407222747802734 C 490.99896240234375 57.32081604003906 483.6451110839844 50.0105094909668 480.0885314941406 39.169227600097656 C 482.7799072265625 29.122352600097656 490.12359619140625 21.782955169677734 500.191162109375 19.094440460205078 C 511.0581359863281 22.51987648010254 518.32373046875 29.989723205566406 521.1484375 40.17498779296875" stroke-width="0.0" fill="rgb(46, 60, 71)" opacity="1.0"/>
    <path d="M 304.9391784667969 11.640348434448242 C 302.1740417480469 22.793153762817383 294.7325439453125 29.99571418762207 284.1759033203125 32.41197967529297 C 273.3043518066406 29.91948127746582 265.808349609375 22.792160034179688 263.04150390625 11.817078590393066 C 265.79669189453125 1.1836376190185547 273.2615661621094 -5.980789661407471 283.8784484863281 -8.37433910369873 C 294.6820068359375 -5.908536434173584 302.1766662597656 1.2241978645324707 304.9391784667969 11.640348434448242" stroke-width="0.0" fill="rgb(41, 53, 66)" opacity="1.0"/>
    <path d="M 134.0 17.0 C 131.3205108642578 27.0 124.0 34.32050704956055 113.71241760253906 37.233604431152344 C 103.30538940429688 34.937957763671875 95.84076690673828 27.768861770629883 93.15647888183594 17.74830436706543 C 96.67948913574219 7.0 104.0 -0.32050806283950806 114.0 -3.0 C 124.0 -0.32050806283950806 131.3205108642578 7.0 134.0 17.0" stroke-width="0.0" fill="rgb(32, 42, 49)" opacity="1.0"/>
    <path d="M 618.0 531.0 C 615.3204956054688 541.0 608.0 548.3204956054688 598.0 551.0 C 588.0 548.3204956054688 580.6795043945312 541.0 578.0 531.0 C 580.6795043945312 521.0 588.0 513.6795043945312 598.0 511.0 C 608.0 513.6795043945312 615.3204956054688 521.0 618.0 531.0" stroke-width="0.0" fill="rgb(1, 1, 2)" opacity="1.0"/>
    <path d="M 138.6676025390625 24.62240219116211 C 135.6253662109375 34.24766159057617 128.1880340576172 41.450904846191406 118.57608795166016 44.04996109008789 C 109.74060821533203 41.48477554321289 101.13533020019531 34.49326705932617 98.20760345458984 25.61713218688965 C 101.68025970458984 15.000283241271973 109.00007629394531 7.6795220375061035 119.0 5.000002861022949 C 128.9999542236328 7.679514408111572 136.3201904296875 15.000136375427246 138.6676025390625 24.62240219116211" stroke-width="0.0" fill="rgb(39, 52, 59)" opacity="0.9900184"/>
    <path d="M 409.0 557.0 C 406.32049560546875 567.0 399.0 574.3204956054688 389.0 577.0 C 378.99908447265625 574.3207397460938 371.64349365234375 567.0108642578125 369.8924865722656 557.8292846679688 C 372.5712585449219 547.8676147460938 379.8668212890625 540.5694580078125 389.82513427734375 537.9135131835938 C 398.9967346191406 539.6912231445312 406.3204650878906 547.0001220703125 409.0 557.0" stroke-width="0.0" fill="rgb(96, 72, 52)" opacity="0.99021"/>
    <path d="M 29.948244094848633 555.325439453125 C 27.216041564941406 565.8599243164062 19.835155487060547 573.1510620117188 9.702120780944824 575.1608276367188 C -1.042406439781189 572.2542724609375 -8.371989250183105 565.0702514648438 -11.066877365112305 554.9127807617188 C -8.681939125061035 544.496337890625 -1.660192847251892 536.888916015625 9.519989013671875 534.064208984375 C 19.854480743408203 536.8045654296875 27.206707000732422 544.1406860351562 29.948244094848633 555.325439453125" stroke-width="0.0" fill="rgb(71, 63, 50)" opacity="0.9900466"/>
    <path d="M 510.9657897949219 559.9419555664062 C 508.0797119140625 569.6422729492188 500.50830078125 576.6886596679688 490.49835205078125 579.3564453125 C 481.0 577.3204956054688 473.67950439453125 570.0 471.0023193359375 560.0031127929688 C 473.692138671875 550.0183715820312 481.0291748046875 542.72900390625 491.0660095214844 540.1455078125 C 500.9962463378906 542.6904296875 508.32025146484375 550.0007934570312 510.9657897949219 559.9419555664062" stroke-width="0.0" fill="rgb(223, 229, 230)" opacity="0.9903268"/>
    <path d="M 603.0 87.0 C 600.3204956054688 97.0 593.0 104.32051086425781 583.0 107.0 C 573.0 104.32051086425781 565.6796264648438 96.99995422363281 563.0005493164062 86.99988555908203 C 565.6795043945312 77.0 573.0 69.67948913574219 583.0 67.0 C 593.0 69.67948913574219 600.3204956054688 77.0 603.0 87.0" stroke-width="0.0" fill="rgb(45, 58, 68)" opacity="1.0"/>
    <path d="M 508.9991149902344 58.000579833984375 C 506.32049560546875 68.0 499.0 75.32051086425781 489.0 78.0 C 479.0 75.32051086425781 471.67950439453125 68.0 468.1410217285156 57.20565414428711 C 470.78826904296875 47.13148880004883 478.1425476074219 39.81920623779297 488.3044738769531 37.26469802856445 C 498.9991760253906 40.68036651611328 506.31927490234375 48.00093460083008 508.9991149902344 58.000579833984375" stroke-width="0.0" fill="rgb(46, 59, 71)" opacity="1.0"/>
    <path d="M 403.0 31.0 C 400.32049560546875 41.0 393.0 48.32050704956055 383.0 51.0 C 373.0 48.32050704956055 365.67950439453125 41.0 363.0 31.0 C 365.67950439453125 21.0 373.0 13.679491996765137 383.0 11.0 C 393.0 13.679491996765137 400.32049560546875 21.0 403.0 31.0" stroke-width="0.0" fill="rgb(48, 59, 65)" opacity="1.0"/>
    <path d="M 610.234619140625 539.3169555664062 C 607.9993896484375 549.7711791992188 600.8486938476562 557.2278442382812 589.47021484375 559.965576171875 C 579.0803833007812 557.2528076171875 571.7429809570312 549.9214477539062 569.031005859375 539.6923217773438 C 571.8120727539062 528.2404174804688 579.3988037109375 521.2369995117188 589.8760986328125 518.9273071289062 C 600.0 521.6795043945312 607.3204956054688 529.0 610.234619140625 539.3169555664062" stroke-width="0.0" fill="rgb(0, 0, 0)" opacity="1.0"/>
    <path d="M 466.3498229980469 548.6820068359375 C 463.32049560546875 559.0 456.0 566.3204956054688 445.99053955078125 569.00537109375 C 435.9160461425781 566.3687744140625 428.4478454589844 559.1416015625 426.51788330078125 549.561279296875 C 429.33392333984375 539.591552734375 436.5787048339844 532.300048828125 446.4201965332031 529.6777954101562 C 456.37713623046875 531.5927124023438 463.8648376464844 538.5178833007812 466.3498229980469 548.6820068359375" stroke-width="0.0" fill="rgb(170, 167, 166)" opacity="0.9900703"/>
    <path d="M 573.1577758789062 69.90176391601562 C 570.3197631835938 79.99896240234375 562.9984130859375 87.31785583496094 552.9982299804688 89.99412536621094 C 543.0 87.3204574584961 535.6795043945312 80.0 532.394775390625 69.421630859375 C 534.8866577148438 59.215572357177734 542.21875 51.89674758911133 552.4482421875 49.431373596191406 C 563.0625610351562 52.6423454284668 570.4827880859375 59.89897537231445 573.1577758789062 69.90176391601562" stroke-width="0.0" fill="rgb(46, 60, 71)" opacity="1.0"/>
    <path d="M 610.9148559570312 524.1351928710938 C 608.3204956054688 534.0 601.0 541.3204956054688 590.9823608398438 544.0098876953125 C 580.8937377929688 541.3954467773438 574.0118408203125 533.9688110351562 571.9546508789062 524.8001098632812 C 574.5736083984375 514.8443603515625 581.7908935546875 507.4168701171875 590.3357543945312 504.85089111328125 C 600.2921142578125 507.4937744140625 607.8792114257812 514.5786743164062 610.9148559570312 524.1351928710938" stroke-width="0.0" fill="rgb(2, 2, 3)" opacity="0.9900111"/>
    <path d="M 119.0 1.0 C 116.32051086425781 11.0 108.99999237060547 18.320491790771484 98.19681549072266 21.861225128173828 C 88.11448669433594 19.221088409423828 80.76993560791016 11.889008522033691 78.07608795166016 1.8485922813415527 C 81.64842224121094 -9.009224891662598 88.99932098388672 -16.320709228515625 98.99999237060547 -19.000001907348633 C 109.0 -16.32050895690918 116.32051086425781 -9.0 119.0 1.0" stroke-width="0.0" fill="rgb(29, 40, 46)" opacity="1.0"/>
    <path d="M 589.8427734375 22.220748901367188 C 586.3204345703125 32.999961853027344 579.0 40.32057571411133 569.00048828125 42.99832534790039 C 559.0006103515625 40.31966018676758 551.679931640625 32.9995231628418 548.9994506835938 22.998010635375977 C 551.6587524414062 12.94516658782959 558.8150024414062 5.294063091278076 569.8070678710938 2.079442024230957 C 579.8796997070312 4.776721000671387 587.2083740234375 12.12624740600586 589.8427734375 22.220748901367188" stroke-width="0.0" fill="rgb(49, 63, 75)" opacity="1.0"/>
    <path d="M 199.67974853515625 38.715614318847656 C 196.8007049560547 48.48810958862305 189.46932983398438 55.74271011352539 179.67478942871094 58.32435989379883 C 170.0375213623047 56.21443176269531 162.68179321289062 48.99309539794922 160.0000457763672 38.999855041503906 C 162.6794891357422 29.0 170.0 21.67949104309082 180.0 19.0 C 190.0 21.67949104309082 197.3205108642578 29.0 199.67974853515625 38.715614318847656" stroke-width="0.0" fill="rgb(230, 189, 118)" opacity="0.9901894"/>
    <path d="M 587.1659545898438 143.52267456054688 C 585.64599609375 153.38961791992188 578.4810180664062 160.9179229736328 568.5429077148438 163.52871704101562 C 558.0332641601562 160.15187072753906 550.5354614257812 153.07017517089844 547.29052734375 142.65115356445312 C 550.2388916015625 132.7294464111328 557.8545532226562 125.59904479980469 567.9678955078125 123.00056457519531 C 577.7907104492188 125.78901672363281 584.7323608398438 133.3893280029297 587.1659545898438 143.52267456054688" stroke-width="0.0" fill="rgb(235, 210, 177)" opacity="0.99142426"/>
    <path d="M 214.8657989501953 17.18985366821289 C 211.3205108642578 28.0 204.0 35.32050704956055 193.99951171875 38.00016784667969 C 183.9788360595703 35.327754974365234 176.4244842529297 28.102340698242188 173.08819580078125 17.20499038696289 C 175.78814697265625 7.135513782501221 183.1449432373047 -0.1873072385787964 194.3838653564453 -2.8908424377441406 C 204.882568359375 -0.2121548056602478 212.22471618652344 7.112805366516113 214.8657989501953 17.18985366821289" stroke-width="0.0" fill="rgb(37, 50, 58)" opacity="1.0"/>
    <path d="M 401.6883239746094 33.651710510253906 C 398.6593933105469 43.28290557861328 391.21807861328125 50.47279739379883 381.2469482421875 53.07228088378906 C 372.0804748535156 51.098331451416016 364.6827697753906 43.98960494995117 362.00006103515625 33.99985122680664 C 364.67950439453125 24.0 372.0 16.67949104309082 382.0 14.0 C 392.0 16.67949104309082 399.32049560546875 24.0 401.6883239746094 33.651710510253906" stroke-width="0.0" fill="rgb(47, 60, 66)" opacity="0.9901047"/>
    <path d="M 414.0232849121094 576.0554809570312 C 411.5169677734375 586.24560546875 404.31268310546875 593.7290649414062 394.30194091796875 596.2465209960938 C 384.00250244140625 593.311767578125 376.6795349121094 585.9998779296875 374.0 576.0 C 376.67950439453125 566.0 384.0 558.6795043945312 394.0 556.0 C 403.9999694824219 558.6795043945312 411.320068359375 566.0001220703125 414.0232849121094 576.0554809570312" stroke-width="0.0" fill="rgb(204, 209, 212)" opacity="0.9909244"/>
    <path d="M 47.92982482910156 3.394585371017456 C 45.087066650390625 13.736852645874023 37.7969970703125 21.19757843017578 26.739330291748047 23.96053695678711 C 16.099721908569336 21.23556900024414 8.75377082824707 13.90494441986084 6.0478010177612305 3.837857246398926 C 9.115190505981445 -7.314131259918213 16.901809692382812 -14.35815143585205 26.99943733215332 -17.00215721130371 C 37.08323669433594 -14.352033615112305 44.851951599121094 -7.283917427062988 47.92982482910156 3.394585371017456" stroke-width="0.0" fill="rgb(26, 36, 40)" opacity="1.0"/>
    <path d="M 192.51376342773438 40.27555465698242 C 189.8892059326172 49.56459045410156 182.50987243652344 56.73185729980469 173.3546600341797 59.14201736450195 C 163.59852600097656 56.63054656982422 156.0048065185547 49.50130844116211 153.27378845214844 40.6245231628418 C 156.40283203125 30.69628143310547 163.68687438964844 23.372203826904297 172.42520141601562 20.83765411376953 C 182.28395080566406 23.453765869140625 189.66160583496094 30.676189422607422 192.51376342773438 40.27555465698242" stroke-width="0.0" fill="rgb(217, 169, 85)" opacity="0.99003017"/>
    <path d="M 607.0 101.00001525878906 C 604.3204956054688 111.0 597.0 118.32051086425781 586.9999389648438 121.00006866455078 C 576.9998168945312 118.32064056396484 569.6790771484375 111.00027465820312 566.99951171875 101.0002212524414 C 569.6796264648438 91.00010681152344 577.0001220703125 83.67957305908203 587.0 81.00005340576172 C 596.9999389648438 83.6795654296875 604.3204345703125 91.00006103515625 607.0 101.00001525878906" stroke-width="0.0" fill="rgb(45, 57, 68)" opacity="0.9998761"/>
    <path d="M 400.8774719238281 571.920654296875 C 398.1766357421875 581.8997192382812 390.92730712890625 589.2674560546875 380.986083984375 591.9893798828125 C 371.0 589.3204956054688 363.67950439453125 582.0 360.6271057128906 571.6473999023438 C 363.0769348144531 561.4176635742188 370.4351501464844 554.134765625 380.72906494140625 551.7449340820312 C 391.0 554.6795043945312 398.32049560546875 562.0 400.8774719238281 571.920654296875" stroke-width="0.0" fill="rgb(172, 170, 171)" opacity="1.0"/>
    <path d="M 569.540283203125 12.508373260498047 C 566.3204956054688 23.0 559.0 30.32050895690918 549.0 33.0 C 539.0 30.32050895690918 531.6795043945312 23.0 529.0 13.0 C 531.6795043945312 3.0 539.0 -4.320508003234863 549.3109130859375 -7.2828545570373535 C 559.6417846679688 -4.926260948181152 567.0317993164062 2.325685501098633 569.540283203125 12.508373260498047" stroke-width="0.0" fill="rgb(49, 64, 77)" opacity="1.0"/>
    <path d="M 409.9891357421875 557.0194091796875 C 407.302001953125 566.9536743164062 399.85198974609375 574.0023803710938 389.5573425292969 576.2523193359375 C 379.44580078125 574.7962036132812 371.955078125 567.6358642578125 369.23870849609375 557.60400390625 C 372.5782470703125 546.9191284179688 379.92803955078125 539.6097412109375 389.2989196777344 537.8887329101562 C 399.5274658203125 540.3585205078125 407.1873474121094 547.2533569335938 409.9891357421875 557.0194091796875" stroke-width="0.0" fill="rgb(97, 73, 54)" opacity="0.9901931"/>
    <path d="M 79.96961212158203 28.9401798248291 C 77.06221008300781 38.596805572509766 69.4038314819336 45.56182861328125 59.30485916137695 48.08700942993164 C 50.046661376953125 46.178226470947266 42.680763244628906 38.995750427246094 40.00025177001953 29.000139236450195 C 42.6799430847168 19.00040626525879 50.00041961669922 11.6799898147583 60.10843276977539 8.802179336547852 C 70.0789566040039 11.531017303466797 77.3403549194336 18.96050453186035 79.96961212158203 28.9401798248291" stroke-width="0.0" fill="rgb(35, 44, 48)" opacity="0.9901017"/>
    <path d="M 495.0325012207031 80.94757080078125 C 492.0811462402344 90.71383666992188 484.72503662109375 98.13753509521484 474.5199279785156 101.76339721679688 C 464.4062805175781 98.97329711914062 457.0728759765625 91.57730102539062 454.50372314453125 81.18018341064453 C 457.3493957519531 70.7933349609375 464.87725830078125 63.607303619384766 474.9854431152344 60.99156951904297 C 485.0 63.67949295043945 492.32049560546875 71.0 495.0325012207031 80.94757080078125" stroke-width="0.0" fill="rgb(247, 244, 230)" opacity="0.99061257"/>
    <path d="M 391.0 28.0 C 388.32049560546875 38.0 381.0 45.32050704956055 371.0 48.0 C 361.0 45.32050704956055 353.67950439453125 38.0 350.3216857910156 27.39268684387207 C 352.8982849121094 17.267257690429688 360.3116760253906 10.038654327392578 370.66571044921875 7.701078414916992 C 381.0 10.679491996765137 388.32049560546875 18.0 391.0 28.0" stroke-width="0.0" fill="rgb(44, 59, 72)" opacity="1.0"/>
    <path d="M 589.4364013671875 129.309814453125 C 586.6023559570312 138.62716674804688 578.3652954101562 145.54312133789062 568.4044799804688 148.10423278808594 C 559.6032104492188 145.67393493652344 552.2890625 138.40872192382812 549.68994140625 128.4521942138672 C 550.985107421875 118.26020050048828 558.2185668945312 110.85366821289062 568.3148193359375 108.24407196044922 C 578.9736938476562 111.71188354492188 586.2884521484375 119.02623748779297 589.4364013671875 129.309814453125" stroke-width="0.0" fill="rgb(66, 72, 73)" opacity="0.990013"/>
    <path d="M 111.02262878417969 597.9151000976562 C 108.31336212158203 607.997802734375 100.99974822998047 615.3204345703125 90.99999237060547 618.0 C 81.0 615.3204956054688 73.67948913574219 608.0 70.67840576171875 597.6502685546875 C 73.02545166015625 587.2974853515625 80.23798370361328 579.8525390625 90.32047271728516 577.1281127929688 C 101.117919921875 580.3985595703125 108.39639282226562 587.9539794921875 111.02262878417969 597.9151000976562" stroke-width="0.0" fill="rgb(180, 175, 172)" opacity="1.0"/>
    <path d="M 538.0023193359375 579.0060424804688 C 535.3804321289062 589.1449584960938 528.3887329101562 596.9547729492188 517.1812133789062 599.956298828125 C 507.1643371582031 597.222412109375 500.0370178222656 589.7459106445312 497.1016845703125 578.197021484375 C 499.801513671875 568.1884765625 507.2677917480469 561.0344848632812 517.7009887695312 558.7667846679688 C 528.0 561.6795043945312 535.3204956054688 569.0 538.0023193359375 579.0060424804688" stroke-width="0.0" fill="rgb(0, 0, 0)" opacity="1.0"/>
    <path d="M 396.3838806152344 588.8582153320312 C 393.5892028808594 599.1993408203125 386.1485290527344 606.425537109375 376.0151672363281 609.02587890625 C 365.9338684082031 606.3665161132812 358.5344543457031 599.0963134765625 355.14935302734375 588.3063354492188 C 357.9519958496094 578.510986328125 366.12811279296875 572.216064453125 376.5790710449219 569.7781372070312 C 386.569091796875 571.079833984375 393.8354797363281 578.4576416015625 396.3838806152344 588.8582153320312" stroke-width="0.0" fill="rgb(205, 211, 214)" opacity="0.9903773"/>
    <path d="M 547.9996948242188 1.999884843826294 C 545.3201904296875 11.999792098999023 537.9998168945312 19.32039451599121 527.6715698242188 22.263057708740234 C 517.2515258789062 19.990509033203125 509.7972717285156 12.820518493652344 507.0860290527344 2.806314468383789 C 510.5072937011719 -8.062864303588867 517.9891967773438 -15.324064254760742 527.9998168945312 -18.00006866455078 C 538.0 -15.320508003234863 545.3204956054688 -7.999996662139893 547.9996948242188 1.999884843826294" stroke-width="0.0" fill="rgb(50, 65, 76)" opacity="1.0"/>
    <path d="M 168.89279174804688 4.462244987487793 C 165.62350463867188 15.126282691955566 158.02601623535156 22.32813262939453 148.0002899169922 24.99505615234375 C 138.0008087158203 22.319215774536133 130.67987060546875 14.999459266662598 128.0000762939453 4.999901294708252 C 130.6794891357422 -5.0 138.0 -12.320508003234863 148.00936889648438 -15.003999710083008 C 158.16452026367188 -12.395147323608398 165.93621826171875 -5.384487152099609 168.89279174804688 4.462244987487793" stroke-width="0.0" fill="rgb(38, 49, 58)" opacity="1.0"/>
    <path d="M 548.9680786132812 567.1728515625 C 546.22802734375 577.8450927734375 538.7617797851562 584.9902954101562 528.3121948242188 587.2368774414062 C 518.0 584.3204956054688 510.67950439453125 577.0 508.0 567.0 C 510.67950439453125 557.0 518.0 549.6795043945312 528.52001953125 546.5012817382812 C 538.8290405273438 548.8880004882812 546.2363891601562 556.12646484375 548.9680786132812 567.1728515625" stroke-width="0.0" fill="rgb(0, 0, 0)" opacity="1.0"/>
    <path d="M 426.7994689941406 31.34505844116211 C 423.6293029785156 42.33269500732422 416.14544677734375 48.88388442993164 406.65570068359375 51.05575942993164 C 396.76348876953125 48.47226333618164 389.2397766113281 41.33646774291992 386.16583251953125 31.775598526000977 C 388.6796875 22.000110626220703 396.00006103515625 14.67952823638916 406.1003723144531 11.937543869018555 C 416.49517822265625 14.319058418273926 424.0818176269531 21.364063262939453 426.7994689941406 31.34505844116211" stroke-width="0.0" fill="rgb(49, 61, 71)" opacity="0.99006236"/>
    <path d="M 367.7879333496094 38.3390998840332 C 365.48773193359375 48.16487503051758 358.1658020019531 55.49061965942383 348.0763244628906 58.3438835144043 C 337.8788757324219 55.449031829833984 330.4762268066406 48.14052200317383 327.6880798339844 38.01240539550781 C 330.2061462402344 27.568199157714844 337.6250915527344 20.41741943359375 347.2933654785156 18.899681091308594 C 357.2260437011719 21.518991470336914 364.6858825683594 28.70563507080078 367.7879333496094 38.3390998840332" stroke-width="0.0" fill="rgb(249, 250, 248)" opacity="0.9900571"/>
    <path d="M 555.0076904296875 31.019378662109375 C 552.446044921875 41.247615814208984 545.4730834960938 49.002986907958984 535.6158447265625 51.88079833984375 C 524.8579711914062 48.633358001708984 517.6639404296875 41.04120635986328 515.0000610351562 31.001501083374023 C 517.679931640625 21.0004825592041 525.0006103515625 13.680455207824707 534.9996948242188 11.003203392028809 C 544.9984741210938 13.681357383728027 552.3187866210938 21.001495361328125 555.0076904296875 31.019378662109375" stroke-width="0.0" fill="rgb(49, 65, 77)" opacity="1.0"/>
    <path d="M 193.92787170410156 587.2387084960938 C 190.80799865722656 598.2716674804688 183.09332275390625 605.3223266601562 173.08802795410156 607.8896484375 C 163.30789184570312 605.0425415039062 156.04942321777344 597.6641235351562 153.20668029785156 587.8173828125 C 155.6795196533203 578.0001220703125 163.00112915039062 570.6832885742188 173.4466552734375 567.6287841796875 C 183.7750701904297 569.9421997070312 191.19259643554688 577.1782836914062 193.92787170410156 587.2387084960938" stroke-width="0.0" fill="rgb(57, 43, 36)" opacity="0.99002564"/>
    <path d="M 540.9717407226562 559.0015869140625 C 538.3101806640625 568.991455078125 530.9910888671875 576.3089599609375 520.9409790039062 579.0071411132812 C 510.6374206542969 576.559814453125 503.05291748046875 569.4928588867188 501.92633056640625 559.827880859375 C 504.5061950683594 549.6986083984375 511.5281677246094 542.0537719726562 521.0979614257812 539.057861328125 C 530.997802734375 541.6805419921875 538.3104248046875 549.0048217773438 540.9717407226562 559.0015869140625" stroke-width="0.0" fill="rgb(10, 9, 9)" opacity="0.99002206"/>
    <path d="M 614.0 53.0 C 611.3204956054688 63.0 604.0 70.32051086425781 593.9995727539062 73.00017547607422 C 583.9928588867188 70.32361602783203 576.6380615234375 63.01832580566406 573.9202270507812 53.03594970703125 C 576.6795654296875 43.000125885009766 584.0001831054688 35.67969512939453 594.000244140625 32.99964141845703 C 604.0000610351562 35.67933654785156 611.3204956054688 42.99997329711914 614.0 53.0" stroke-width="0.0" fill="rgb(50, 65, 77)" opacity="1.0"/>
    <path d="M 155.37464904785156 594.2193603515625 C 152.59400939941406 604.1504516601562 145.0736083984375 611.3566284179688 135.00306701660156 614.0037841796875 C 124.95376586914062 611.3405151367188 117.41007232666016 604.1278686523438 114.46589660644531 594.3028564453125 C 117.67916107177734 583.9998779296875 124.99999237060547 576.6795043945312 135.0 574.0 C 145.0 576.6795043945312 152.3205108642578 584.0 155.37464904785156 594.2193603515625" stroke-width="0.0" fill="rgb(131, 124, 120)" opacity="0.9902155"/>
    <path d="M 38.14228820800781 53.76227951049805 C 34.690040588378906 63.29787826538086 27.236217498779297 70.49504852294922 17.81856918334961 73.07945251464844 C 8.768719673156738 70.50274658203125 1.4155168533325195 63.26103210449219 -2.794172525405884 53.17311477661133 C -0.2196081280708313 43.11283874511719 7.1081976890563965 35.76802444458008 17.243703842163086 33.054100036621094 C 28.451807022094727 36.01106643676758 35.43248748779297 43.77510070800781 38.14228820800781 53.76227951049805" stroke-width="0.0" fill="rgb(149, 103, 68)" opacity="0.99003583"/>
    <path d="M 602.3541259765625 493.4127197265625 C 600.055908203125 503.7969970703125 592.8571166992188 511.2287902832031 582.84326171875 513.9498901367188 C 571.67333984375 510.85894775390625 564.6198120117188 503.1495666503906 561.608154296875 492.5543212890625 C 564.189697265625 482.6844177246094 571.837646484375 475.63397216796875 582.020751953125 472.89874267578125 C 592.0065307617188 475.66229248046875 599.320556640625 482.9983215332031 602.3541259765625 493.4127197265625" stroke-width="0.0" fill="rgb(214, 220, 224)" opacity="1.0"/>
    <path d="M 480.9999694824219 559.0000610351562 C 478.3204650878906 568.9999389648438 470.9983215332031 576.3145751953125 461.1806945800781 578.4358520507812 C 451.0089111328125 576.2896728515625 443.67962646484375 568.9995727539062 441.2480163574219 559.2615356445312 C 444.22784423828125 549.6008911132812 451.6758117675781 542.4419555664062 461.6850891113281 539.8317260742188 C 470.99407958984375 541.6959838867188 478.3199462890625 549.00146484375 480.9999694824219 559.0000610351562" stroke-width="0.0" fill="rgb(210, 216, 218)" opacity="0.9903148"/>
    <path d="M 55.00288391113281 592.9930419921875 C 52.32050704956055 603.0 45.0 610.3204956054688 34.962440490722656 613.01904296875 C 24.658742904663086 610.5202026367188 16.959529876708984 603.5419921875 14.104596138000488 593.23876953125 C 16.94091796875 582.3021240234375 24.287921905517578 574.9075317382812 34.544673919677734 572.0960693359375 C 45.325374603271484 575.1264038085938 52.378414154052734 582.8683471679688 55.00288391113281 592.9930419921875" stroke-width="0.0" fill="rgb(160, 153, 146)" opacity="1.0"/>
    <path d="M 425.9320983886719 15.39686107635498 C 423.0582580566406 26.56673812866211 415.36883544921875 33.54445266723633 405.0451354980469 36.02090835571289 C 395.0001220703125 33.31993103027344 387.67919921875 26.000120162963867 384.99981689453125 16.000144958496094 C 387.67950439453125 6.0 395.0 -1.3205081224441528 405.6083068847656 -4.6275224685668945 C 415.82647705078125 -2.140845775604248 423.1993408203125 5.15295934677124 425.9320983886719 15.39686107635498" stroke-width="0.0" fill="rgb(48, 62, 74)" opacity="1.0"/>
    <path d="M 368.8824462890625 566.7611694335938 C 365.6940612792969 577.0862426757812 358.11968994140625 584.7357177734375 348.4419250488281 587.7244873046875 C 337.99566650390625 584.3352661132812 330.6794128417969 577.0003051757812 328.0 567.0 C 330.67999267578125 557.001708984375 338.0231628417969 549.7551879882812 347.18670654296875 547.9234008789062 C 357.20172119140625 550.552001953125 365.54156494140625 557.6527709960938 368.8824462890625 566.7611694335938" stroke-width="0.0" fill="rgb(81, 67, 53)" opacity="0.9902134"/>
    <path d="M 302.7600402832031 35.733787536621094 C 299.610595703125 45.944705963134766 291.690673828125 52.83559036254883 281.9900817871094 55.240657806396484 C 272.4129943847656 52.793785095214844 264.644775390625 45.724342346191406 261.1359558105469 35.414485931396484 C 263.9140319824219 25.41777992248535 272.1126708984375 19.33863639831543 281.6312255859375 16.91810417175293 C 291.3324279785156 19.461366653442383 299.6236267089844 26.45608139038086 302.7600402832031 35.733787536621094" stroke-width="0.0" fill="rgb(231, 181, 123)" opacity="0.99002284"/>
    <path d="M 564.56201171875 523.391845703125 C 561.9577026367188 533.5745239257812 554.522216796875 540.7922973632812 544.2029418945312 543.18017578125 C 534.0 540.3204956054688 526.6795043945312 533.0 523.751708984375 522.8141479492188 C 526.3483276367188 512.7406616210938 533.806884765625 505.5716857910156 544.0074462890625 503.1471252441406 C 553.9976196289062 505.6886901855469 561.343505859375 512.9933471679688 564.56201171875 523.391845703125" stroke-width="0.0" fill="rgb(214, 220, 222)" opacity="0.9949084"/>
    <path d="M 454.7505798339844 50.721343994140625 C 451.7387390136719 60.361656188964844 444.3016662597656 67.55555725097656 434.38604736328125 70.2855453491211 C 425.0575866699219 68.2977066040039 418.0900573730469 60.80116653442383 415.75408935546875 50.30247497558594 C 417.2424011230469 40.774261474609375 424.9240417480469 33.650516510009766 434.99761962890625 30.999526977539062 C 444.9999694824219 33.679500579833984 452.3202209472656 41.000091552734375 454.7505798339844 50.721343994140625" stroke-width="0.0" fill="rgb(54, 70, 76)" opacity="0.9900582"/>
    <path d="M 476.7884521484375 23.7430419921875 C 474.2002258300781 33.868282318115234 466.8659362792969 41.19338607788086 456.722412109375 43.76247787475586 C 446.0 40.32050704956055 438.67950439453125 33.0 435.5853271484375 22.645055770874023 C 438.10986328125 12.491257667541504 445.5446472167969 5.2822675704956055 455.8484802246094 2.8756022453308105 C 466.00006103515625 5.679393291473389 473.32049560546875 12.999957084655762 476.7884521484375 23.7430419921875" stroke-width="0.0" fill="rgb(47, 63, 73)" opacity="1.0"/>
    <path d="M 587.8387451171875 583.5128784179688 C 585.2091674804688 593.8849487304688 577.8876953125 601.2173461914062 567.769775390625 603.8050537109375 C 557.0 600.3204956054688 549.6795043945312 593.0 546.0957641601562 582.1376953125 C 548.7460327148438 572.0767211914062 556.0751342773438 564.7417602539062 567.4916381835938 562.0287475585938 C 577.9050903320312 564.7457885742188 585.179443359375 572.1217041015625 587.8387451171875 583.5128784179688" stroke-width="0.0" fill="rgb(0, 0, 0)" opacity="1.0"/>
    <path d="M 405.99993896484375 3.0000851154327393 C 403.3204345703125 12.999874114990234 395.9998474121094 20.320327758789062 385.9999694824219 23.000064849853516 C 376.0 20.32050895690918 368.67950439453125 13.0 366.0 3.0 C 368.67950439453125 -7.0 376.0 -14.320508003234863 386.0 -17.0 C 396.0 -14.320507049560547 403.3204650878906 -6.999991416931152 405.99993896484375 3.0000851154327393" stroke-width="0.0" fill="rgb(47, 60, 72)" opacity="0.99986124"/>
    <path d="M 529.3734741210938 532.1231689453125 C 526.9692993164062 542.7322998046875 519.8130493164062 550.201416015625 509.7666320800781 552.9422607421875 C 498.6770935058594 549.8603515625 491.4788513183594 542.1820678710938 488.321533203125 531.5794067382812 C 491.3011779785156 521.7526245117188 498.8141174316406 514.4871215820312 509.37872314453125 511.3472900390625 C 519.5767211914062 514.055419921875 526.8233642578125 521.4609985351562 529.3734741210938 532.1231689453125" stroke-width="0.0" fill="rgb(208, 214, 215)" opacity="1.0"/>
    <path d="M 153.9124755859375 580.8878173828125 C 150.9811553955078 590.5734252929688 143.46702575683594 597.66845703125 134.1561279296875 600.1807250976562 C 124.58556365966797 597.6300659179688 117.09856414794922 590.5070190429688 114.1392593383789 580.8384399414062 C 116.67948913574219 571.0 124.0 563.6795043945312 134.0 561.0 C 144.0 563.6795043945312 151.3205108642578 571.0 153.9124755859375 580.8878173828125" stroke-width="0.0" fill="rgb(57, 43, 28)" opacity="0.99009347"/>
    <path d="M 62.569786071777344 40.931026458740234 C 58.626922607421875 50.25047302246094 51.20472717285156 57.47764587402344 41.34181213378906 60.087249755859375 C 32.403011322021484 57.80033874511719 25.023786544799805 50.65624237060547 21.130823135375977 40.18562698364258 C 23.77346420288086 30.11206817626953 31.122901916503906 22.805192947387695 41.27968215942383 20.360767364501953 C 51.826690673828125 23.931652069091797 59.22865676879883 31.12346649169922 62.569786071777344 40.931026458740234" stroke-width="0.0" fill="rgb(91, 85, 80)" opacity="0.9900182"/>
    <path d="M 489.99993896484375 595.0000610351562 C 487.32049560546875 605.0 480.0 612.3204956054688 469.98406982421875 615.0071411132812 C 459.7791748046875 612.43017578125 452.0382080078125 605.4306030273438 449.1803283691406 595.5816650390625 C 452.2121276855469 584.55029296875 459.56060791015625 577.2456665039062 469.79510498046875 574.787841796875 C 479.99993896484375 577.6795654296875 487.3204040527344 585.0000610351562 489.99993896484375 595.0000610351562" stroke-width="0.0" fill="rgb(2, 2, 2)" opacity="0.99157846"/>
    <path d="M 396.00006103515625 8.000003814697266 C 393.32049560546875 17.999975204467773 385.9999694824219 25.320465087890625 375.9664611816406 28.016860961914062 C 365.6839294433594 25.502450942993164 357.9839172363281 18.513015747070312 355.0744323730469 7.381831169128418 C 357.86065673828125 -2.6880781650543213 365.4853515625 -9.673794746398926 375.91400146484375 -12.047786712646484 C 386.0 -9.320512771606445 393.3205261230469 -2.0000157356262207 396.00006103515625 8.000003814697266" stroke-width="0.0" fill="rgb(45, 59, 71)" opacity="1.0"/>
    <path d="M 463.0003967285156 33.00029373168945 C 460.3212585449219 43.001068115234375 453.0016784667969 50.3233528137207 443.0003662109375 53.0069580078125 C 432.99725341796875 50.323368072509766 425.6752014160156 43.003170013427734 422.18701171875 32.24076843261719 C 424.7956237792969 22.12906837463379 432.1272888183594 14.790362358093262 442.21270751953125 12.14623737335205 C 452.99981689453125 15.679749488830566 460.3203430175781 23.000139236450195 463.0003967285156 33.00029373168945" stroke-width="0.0" fill="rgb(47, 62, 72)" opacity="1.0"/>
    <path d="M 555.9993286132812 81.00199890136719 C 553.3277587890625 91.01282501220703 546.0233764648438 98.36326599121094 535.266845703125 101.78971862792969 C 525.1386108398438 99.1934814453125 517.7887573242188 91.86788940429688 515.0636596679688 81.64073181152344 C 517.8157348632812 70.14704895019531 525.1333618164062 62.781829833984375 535.161865234375 60.08203125 C 546.0075073242188 63.653926849365234 553.3200073242188 70.99971008300781 555.9993286132812 81.00199890136719" stroke-width="0.0" fill="rgb(45, 58, 67)" opacity="1.0"/>
    <path d="M 559.5419921875 530.5047607421875 C 557.0585327148438 540.7327880859375 549.7391357421875 548.0780029296875 539.5449829101562 550.594970703125 C 529.0 547.3204956054688 521.6795043945312 540.0 519.0 530.0 C 521.6795043945312 520.0 529.0 512.6795043945312 539.0 510.0 C 549.0 512.6795043945312 556.3204956054688 520.0 559.5419921875 530.5047607421875" stroke-width="0.0" fill="rgb(214, 220, 222)" opacity="1.0"/>
    <path d="M 228.92596435546875 31.34833526611328 C 225.96043395996094 42.138336181640625 217.5519256591797 48.70291519165039 207.87326049804688 51.20198440551758 C 198.325927734375 48.829811096191406 190.7149200439453 41.821895599365234 188.74705505371094 32.65389633178711 C 191.4540252685547 22.734477996826172 198.7340850830078 15.453344345092773 208.81045532226562 12.719907760620117 C 218.8544158935547 13.814056396484375 226.2018585205078 21.140104293823242 228.92596435546875 31.34833526611328" stroke-width="0.0" fill="rgb(191, 166, 130)" opacity="0.9900377"/>
    <path d="M 464.5778503417969 568.5799560546875 C 461.62908935546875 578.29248046875 454.2708740234375 585.5612182617188 444.44403076171875 588.3892822265625 C 434.9993896484375 586.3207397460938 427.67474365234375 579.0018920898438 425.0512390136719 569.0636596679688 C 427.8587951660156 559.2254638671875 435.3111877441406 552.115966796875 445.3558349609375 549.6218872070312 C 454.998291015625 551.6862182617188 462.320556640625 558.9998779296875 464.5778503417969 568.5799560546875" stroke-width="0.0" fill="rgb(209, 215, 218)" opacity="0.99012667"/>
    <path d="M 485.9979248046875 559.9960327148438 C 483.2786865234375 569.8982543945312 475.7032165527344 576.7855224609375 465.4906005859375 579.10009765625 C 456.0474548339844 577.1768188476562 448.681640625 569.9950561523438 446.0049133300781 560.00146484375 C 448.68231201171875 550.001953125 456.001953125 542.6824340820312 465.9906921386719 540.0585327148438 C 475.9924011230469 542.6943969726562 483.3181457519531 550.0039672851562 485.9979248046875 559.9960327148438" stroke-width="0.0" fill="rgb(209, 216, 219)" opacity="0.99021536"/>
    <path d="M 419.1037292480469 558.5154418945312 C 416.4912109375 567.192138671875 409.18414306640625 574.4703979492188 399.4352722167969 577.0670776367188 C 390.5704650878906 574.6063842773438 383.0102233886719 567.5702514648438 380.64837646484375 558.467041015625 C 383.3428039550781 548.6237182617188 390.6496276855469 541.4075317382812 399.2930603027344 538.940673828125 C 409.12176513671875 541.5748901367188 416.4275817871094 548.8775634765625 419.1037292480469 558.5154418945312" stroke-width="0.0" fill="rgb(63, 52, 42)" opacity="0.99001026"/>
    <path d="M 73.16853332519531 558.8046264648438 C 71.39099884033203 567.9959106445312 63.96806716918945 575.2897338867188 53.86528015136719 578.0694580078125 C 43.42811584472656 575.75048828125 35.851829528808594 568.7149047851562 33.0528564453125 557.4904174804688 C 35.812015533447266 547.2120971679688 43.39046859741211 541.1568603515625 53.35626983642578 538.94140625 C 63.14372634887695 541.5582885742188 70.4360580444336 548.8587646484375 73.16853332519531 558.8046264648438" stroke-width="0.0" fill="rgb(92, 77, 54)" opacity="0.99001676"/>
    <path d="M 68.99999237060547 592.0 C 66.32051086425781 602.0 59.0 609.3204956054688 49.01076889038086 611.9939575195312 C 39.0989875793457 609.2644653320312 31.977231979370117 601.8228149414062 29.400897979736328 591.7576293945312 C 31.81649398803711 582.2344360351562 39.377723693847656 575.2264404296875 49.45796585083008 572.8013916015625 C 58.981666564941406 574.7391967773438 66.32003784179688 582.0015869140625 68.99999237060547 592.0" stroke-width="0.0" fill="rgb(176, 172, 169)" opacity="0.99034345"/>
    <path d="M 619.0 581.0 C 616.3204956054688 591.0 609.0 598.3204956054688 598.1468505859375 601.9032592773438 C 588.0994262695312 599.2430419921875 580.8060302734375 591.8836669921875 578.120361328125 580.3396606445312 C 580.7610473632812 570.0835571289062 588.0753173828125 562.7389526367188 598.1065063476562 560.0537719726562 C 609.0185546875 563.6187744140625 616.3209228515625 570.9984741210938 619.0 581.0" stroke-width="0.0" fill="rgb(0, 0, 0)" opacity="1.0"/>
    <path d="M 553.8516235351562 533.83642578125 C 550.8842163085938 543.4561157226562 543.3193969726562 550.519287109375 533.2340698242188 553.0707397460938 C 523.2265014648438 552.0889892578125 515.9310913085938 544.7667236328125 513.5382080078125 534.466796875 C 516.5283813476562 523.8074340820312 523.7702026367188 516.4055786132812 533.8663330078125 513.8462524414062 C 543.9990234375 516.6818237304688 551.3217163085938 524.0 553.8516235351562 533.83642578125" stroke-width="0.0" fill="rgb(216, 221, 223)" opacity="0.99007976"/>
    <path d="M 94.9552001953125 27.211471557617188 C 91.4002685546875 37.276275634765625 83.1718521118164 44.436767578125 73.28678894042969 47.0440788269043 C 64.6133041381836 44.56111145019531 57.00254821777344 37.548282623291016 53.808799743652344 27.916095733642578 C 56.395687103271484 17.5624942779541 63.36871337890625 9.894172668457031 74.65281677246094 7.0512895584106445 C 84.87625122070312 9.782146453857422 92.23028564453125 17.118061065673828 94.9552001953125 27.211471557617188" stroke-width="0.0" fill="rgb(35, 46, 49)" opacity="0.9900225"/>
    <path d="M 454.5794982910156 589.5126953125 C 452.0270080566406 599.6453857421875 444.5848388671875 606.8309326171875 433.86083984375 609.3314819335938 C 423.2685852050781 606.9664306640625 415.8131103515625 599.8037719726562 414.7330017089844 589.8748779296875 C 417.531982421875 579.8189086914062 424.81707763671875 572.5278930664062 434.23150634765625 569.934814453125 C 443.2129821777344 572.5218505859375 450.6888427734375 579.7254638671875 454.5794982910156 589.5126953125" stroke-width="0.0" fill="rgb(69, 65, 60)" opacity="0.99001664"/>
    <path d="M 78.81398010253906 588.3255615234375 C 75.30450439453125 598.9741821289062 67.97320556640625 606.2987670898438 57.97196578979492 609.0121459960938 C 47.89030838012695 606.4031982421875 40.502845764160156 599.1384887695312 37.88045883178711 588.9762573242188 C 40.471763610839844 578.8385009765625 47.97505569458008 571.9248657226562 57.70709228515625 569.8212280273438 C 68.00916290283203 572.1952514648438 76.07025146484375 578.4555053710938 78.81398010253906 588.3255615234375" stroke-width="0.0" fill="rgb(158, 153, 150)" opacity="0.99013406"/>
    <path d="M 605.9998168945312 72.00015258789062 C 603.3204345703125 81.99996185302734 595.9999389648438 89.32048034667969 586.0 91.99990844726562 C 575.9999389648438 89.32051086425781 568.6791381835938 82.00013732910156 565.5911865234375 71.65870666503906 C 568.1307373046875 61.515926361083984 575.5687255859375 54.29866409301758 585.849365234375 51.8750114440918 C 595.998291015625 54.68269729614258 603.31982421875 62.000980377197266 605.9998168945312 72.00015258789062" stroke-width="0.0" fill="rgb(48, 61, 72)" opacity="0.9963063"/>
    <path d="M 136.99072265625 12.995506286621094 C 134.31243896484375 22.99424171447754 126.99542236328125 30.316503524780273 116.99543762207031 33.002986907958984 C 106.99773406982422 30.324390411376953 99.67772674560547 23.001665115356445 97.00051879882812 13.001322746276855 C 99.67990112304688 3.0001676082611084 107.00006103515625 -4.320483207702637 117.0 -6.999998569488525 C 127.0 -4.320507526397705 134.32044982910156 3.000016927719116 136.99072265625 12.995506286621094" stroke-width="0.0" fill="rgb(36, 47, 53)" opacity="0.99774146"/>
    <path d="M 503.593505859375 565.7599487304688 C 499.62847900390625 575.2186279296875 492.15447998046875 582.4227294921875 482.6822204589844 585.0355834960938 C 473.8385009765625 582.430419921875 466.4087219238281 575.2166748046875 463.37457275390625 565.5853271484375 C 465.6852111816406 556.0036010742188 473.00189208984375 548.6790161132812 482.9971008300781 545.97314453125 C 493.00299072265625 548.6790161132812 500.4023132324219 555.9730834960938 503.593505859375 565.7599487304688" stroke-width="0.0" fill="rgb(210, 211, 209)" opacity="0.9900206"/>
    <path d="M 176.97335815429688 579.0073852539062 C 174.28585815429688 588.9507446289062 166.89791870117188 596.1151733398438 157.4473419189453 598.13671875 C 147.45301818847656 595.7122192382812 139.89646911621094 588.6851806640625 137.03636169433594 578.9447631835938 C 139.6798553466797 569.0010375976562 147.0057830810547 561.69677734375 156.9582061767578 559.2513427734375 C 166.9346466064453 561.7745971679688 174.2787628173828 569.049560546875 176.97335815429688 579.0073852539062" stroke-width="0.0" fill="rgb(58, 44, 26)" opacity="0.9902038"/>
    <path d="M 529.0066528320312 109.9892578125 C 526.3204956054688 120.0 519.0 127.32051086425781 509.71380615234375 129.1689910888672 C 499.7757263183594 126.50958251953125 492.4905700683594 119.22410583496094 489.8506774902344 109.31517791748047 C 491.51300048828125 100.18006134033203 499.4446716308594 93.3192367553711 509.5771484375 90.79411315917969 C 519.1066284179688 92.53498077392578 526.3692626953125 99.92306518554688 529.0066528320312 109.9892578125" stroke-width="0.0" fill="rgb(199, 130, 56)" opacity="0.99004924"/>
    <path d="M 520.9385986328125 69.27891540527344 C 518.1539916992188 80.7990951538086 510.7625732421875 88.01932525634766 500.7438049316406 89.07532501220703 C 490.71868896484375 86.50167083740234 483.1690368652344 79.39685821533203 480.1246337890625 69.82479095458984 C 482.67938232421875 59.99982833862305 489.99969482421875 52.678932189941406 500.5021057128906 49.50944519042969 C 510.8005676269531 51.909019470214844 518.2108764648438 59.15644454956055 520.9385986328125 69.27891540527344" stroke-width="0.0" fill="rgb(50, 63, 74)" opacity="0.990074"/>
    <path d="M 497.8338317871094 70.8062744140625 C 494.7986145019531 80.3794174194336 487.29071044921875 87.52801513671875 478.3316955566406 90.09420776367188 C 468.7491760253906 87.51918029785156 461.5042419433594 80.23922729492188 458.88787841796875 70.16094207763672 C 459.8096008300781 60.13994598388672 467.1441650390625 52.82194900512695 477.3155212402344 50.28880310058594 C 487.9837646484375 53.69866943359375 495.2992248535156 61.016845703125 497.8338317871094 70.8062744140625" stroke-width="0.0" fill="rgb(62, 72, 78)" opacity="0.9900098"/>
    <path d="M 555.142333984375 116.81729125976562 C 554.1099853515625 126.71633911132812 546.6316528320312 133.81919860839844 536.0748291015625 135.6464385986328 C 525.91796875 133.3648681640625 518.6038208007812 126.0888671875 515.9822387695312 116.02552032470703 C 518.72998046875 106.1329574584961 526.341064453125 99.25335693359375 535.3767700195312 96.92527770996094 C 545.1759643554688 99.5322036743164 552.4705810546875 106.82305145263672 555.142333984375 116.81729125976562" stroke-width="0.0" fill="rgb(235, 215, 183)" opacity="0.99008113"/>
    <path d="M 366.0313415527344 566.9786376953125 C 363.4205322265625 577.1123046875 356.1405944824219 584.5148315429688 345.5314025878906 587.7591552734375 C 335.5464782714844 584.915771484375 328.50189208984375 577.3174438476562 325.7640380859375 566.760498046875 C 328.235595703125 556.5849609375 335.6298828125 549.419921875 346.3745422363281 547.8344116210938 C 356.1603698730469 549.5103149414062 363.4534912109375 556.8515625 366.0313415527344 566.9786376953125" stroke-width="0.0" fill="rgb(85, 71, 57)" opacity="1.0"/>
    <path d="M 393.9981689453125 35.98977279663086 C 391.1716613769531 45.693145751953125 383.4554138183594 52.58203887939453 374.6509094238281 55.04767608642578 C 364.8523254394531 52.433998107910156 357.5503234863281 45.15488052368164 353.4323425292969 35.10696792602539 C 355.8199157714844 25.220754623413086 363.315673828125 18.09079933166504 373.7470703125 15.82136058807373 C 383.99298095703125 18.688940048217773 391.3138122558594 26.00621795654297 393.9981689453125 35.98977279663086" stroke-width="0.0" fill="rgb(50, 61, 65)" opacity="0.990018"/>
    <path d="M 161.8600311279297 573.1424560546875 C 159.21397399902344 582.9132080078125 151.94161987304688 590.3159790039062 141.98040771484375 593.39306640625 C 131.9900665283203 590.3790283203125 124.6956787109375 582.9881591796875 121.95854187011719 572.9772338867188 C 124.80870819091797 563.3532104492188 132.59812927246094 556.4537353515625 141.7101593017578 553.9462890625 C 151.27316284179688 556.5057373046875 158.82958984375 563.6092529296875 161.8600311279297 573.1424560546875" stroke-width="0.0" fill="rgb(92, 68, 47)" opacity="0.99003744"/>
    <path d="M 537.51416015625 113.81098937988281 C 535.0635375976562 123.67819213867188 527.5762329101562 130.76609802246094 517.6560668945312 133.2111358642578 C 507.492431640625 131.6109161376953 499.9686279296875 124.61846923828125 497.3203125 114.68270874023438 C 501.065673828125 104.04212188720703 507.66705322265625 96.12516021728516 518.5916137695312 93.12682342529297 C 528.6996459960938 95.89127349853516 535.8305053710938 103.39160919189453 537.51416015625 113.81098937988281" stroke-width="0.0" fill="rgb(221, 181, 130)" opacity="0.990206"/>
    <path d="M 133.8893280029297 574.2315063476562 C 131.4027099609375 584.0499267578125 124.00731658935547 591.25390625 113.3506088256836 594.66455078125 C 103.27572631835938 592.0628662109375 95.8526611328125 584.7604370117188 93.05612182617188 573.3712158203125 C 95.78240203857422 563.135009765625 103.17493438720703 555.943603515625 113.22737884521484 554.951904296875 C 123.2305679321289 557.540283203125 130.78941345214844 564.6520385742188 133.8893280029297 574.2315063476562" stroke-width="0.0" fill="rgb(66, 49, 36)" opacity="0.9900421"/>
    <path d="M 137.9988250732422 4.999441146850586 C 135.31900024414062 14.998476028442383 127.99827575683594 22.31831932067871 117.99932861328125 24.996091842651367 C 108.000244140625 22.31989288330078 100.6792221069336 15.000015258789062 98.00082397460938 5.0003662109375 C 100.67964935302734 -4.999937534332275 108.0000228881836 -12.320500373840332 118.0 -15.0 C 128.00003051757812 -12.320517539978027 135.32066345214844 -5.000065326690674 137.9988250732422 4.999441146850586" stroke-width="0.0" fill="rgb(35, 45, 52)" opacity="0.99929065"/>
    <path d="M 441.78857421875 72.31928253173828 C 438.0797119140625 82.60704040527344 430.500244140625 89.714111328125 420.9671630859375 92.19747924804688 C 411.4573974609375 89.7554702758789 404.1656799316406 82.57466125488281 401.6678466796875 72.80192565917969 C 404.03765869140625 63.34493637084961 411.28082275390625 55.71995162963867 421.734375 52.09048080444336 C 431.8333740234375 54.816158294677734 439.16387939453125 62.174198150634766 441.78857421875 72.31928253173828" stroke-width="0.0" fill="rgb(247, 200, 120)" opacity="0.9900452"/>
  </g>
</svg>
