<?xml version="1.0" ?>
<svg xmlns="http://www.w3.org/2000/svg" version="1.1" width="600" height="600">
  <defs/>
  <g>
    <path d="M 387.4237976074219 312.190673828125 C 384.9096374511719 322.575439453125 377.56585693359375 329.8782043457031 366.413818359375 332.747802734375 C 356.2134704589844 330.1320495605469 348.8760070800781 322.7833557128906 346.2733459472656 312.6412048339844 C 349.67950439453125 302.0 357.0 294.67950439453125 367.65106201171875 291.2593688964844 C 377.7157897949219 293.88775634765625 384.85888671875 301.3655700683594 387.4237976074219 312.190673828125" stroke-width="0.0" fill="rgb(54, 54, 53)" opacity="0.9900484"/>
    <path d="M 51.93043899536133 150.18751525878906 C 49.06692123413086 161.64639282226562 41.54069900512695 168.7465057373047 30.788307189941406 171.30670166015625 C 20.306032180786133 168.94476318359375 12.841512680053711 161.76699829101562 10.065388679504395 150.53956604003906 C 12.783622741699219 140.1167755126953 20.110258102416992 132.76734924316406 30.938570022583008 130.0410614013672 C 41.897945404052734 132.7646942138672 49.23667526245117 140.1013641357422 51.93043899536133 150.18751525878906" stroke-width="0.0" fill="rgb(71, 71, 76)" opacity="1.0"/>
    <path d="M 410.9231872558594 569.7568359375 C 408.2154541015625 579.8726806640625 400.8707275390625 587.2108154296875 390.3414001464844 589.9395141601562 C 379.1473083496094 587.1954345703125 371.7984619140625 579.8551635742188 369.0541076660156 568.5986938476562 C 371.78363037109375 558.1326904296875 379.1428527832031 550.8084106445312 389.26702880859375 548.1332397460938 C 400.27276611328125 551.374755859375 407.92657470703125 558.5917358398438 410.9231872558594 569.7568359375" stroke-width="0.0" fill="rgb(81, 80, 85)" opacity="1.0"/>
    <path d="M 587.0509643554688 24.917264938354492 C 584.3203735351562 34.99965286254883 576.996337890625 42.30834197998047 566.3658447265625 45.80131530761719 C 556.5739135742188 42.94831466674805 549.5533447265625 35.23268127441406 546.989013671875 25.02174949645996 C 549.6795043945312 15.0 557.0 7.679491996765137 567.4715576171875 4.408761024475098 C 577.51611328125 7.048513412475586 584.6194458007812 14.592915534973145 587.0509643554688 24.917264938354492" stroke-width="0.0" fill="rgb(94, 130, 37)" opacity="0.9901597"/>
    <path d="M 167.9013671875 577.8364868164062 C 165.2283477783203 587.8909301757812 157.89254760742188 595.232177734375 147.18441772460938 597.9530639648438 C 136.12237548828125 595.2223510742188 128.7888641357422 587.8729858398438 126.1281967163086 577.8004760742188 C 129.6794891357422 567.0 137.0 559.6795043945312 147.0 557.0 C 157.0 559.6795043945312 164.3205108642578 567.0 167.9013671875 577.8364868164062" stroke-width="0.0" fill="rgb(71, 69, 70)" opacity="1.0"/>
    <path d="M 87.65597534179688 321.62359619140625 C 85.1458969116211 331.8310241699219 77.85311126708984 339.2069091796875 67.88457489013672 341.3703918457031 C 57.81451416015625 337.4729919433594 50.52608871459961 330.185791015625 47.92445755004883 320.5424499511719 C 50.492828369140625 311.771484375 57.7580451965332 304.45709228515625 67.59567260742188 301.6762390136719 C 77.0 303.67950439453125 84.32051086425781 311.0 87.65597534179688 321.62359619140625" stroke-width="0.0" fill="rgb(102, 100, 101)" opacity="0.9900116"/>
    <path d="M 57.84872817993164 175.22573852539062 C 54.32050704956055 186.0 47.0 193.3205108642578 37.0 196.0 C 27.0 193.3205108642578 19.67949104309082 186.0 17.000587463378906 176.0008087158203 C 19.68279266357422 166.00473022460938 27.0072078704834 158.69131469726562 37.574867248535156 155.42242431640625 C 47.816226959228516 157.87571716308594 55.19440841674805 165.15957641601562 57.84872817993164 175.22573852539062" stroke-width="0.0" fill="rgb(64, 64, 66)" opacity="1.0"/>
    <path d="M 180.87464904785156 503.2191467285156 C 177.34011840820312 514.005859375 170.00051879882812 521.3206787109375 159.90499877929688 524.0587768554688 C 149.5081787109375 521.6723022460938 141.8916015625 514.653076171875 139.06288146972656 503.4866638183594 C 141.79193115234375 493.135009765625 149.13540649414062 485.7926330566406 160.15054321289062 483.0559997558594 C 170.86363220214844 485.7879638671875 178.19593811035156 493.14312744140625 180.87464904785156 503.2191467285156" stroke-width="0.0" fill="rgb(80, 79, 80)" opacity="1.0"/>
    <path d="M 462.9090270996094 339.4570007324219 C 460.0146484375 350.5344543457031 452.3957824707031 357.6799621582031 441.25067138671875 360.8871154785156 C 431.1932067871094 358.1622314453125 423.8343505859375 350.8085021972656 421.07733154296875 339.7754821777344 C 423.80853271484375 329.1382141113281 431.1224060058594 321.77069091796875 441.6723327636719 319.042724609375 C 452.8702392578125 321.77587890625 460.1859436035156 329.1461181640625 462.9090270996094 339.4570007324219" stroke-width="0.0" fill="rgb(103, 103, 107)" opacity="0.99013126"/>
    <path d="M 109.96125793457031 195.3485870361328 C 107.21537780761719 206.8671875 99.86280822753906 214.2051239013672 89.39360046386719 216.93869018554688 C 78.18988800048828 214.1841278076172 70.96484375 206.75894165039062 68.61425018310547 196.4153594970703 C 71.67948913574219 186.0 79.0 178.6794891357422 89.84064483642578 175.1156463623047 C 99.91317749023438 177.75540161132812 107.24983978271484 185.08489990234375 109.96125793457031 195.3485870361328" stroke-width="0.0" fill="rgb(58, 60, 63)" opacity="1.0"/>
    <path d="M 375.882080078125 297.2202453613281 C 372.3584899902344 307.8959045410156 364.76873779296875 314.9460754394531 354.5181884765625 317.4823913574219 C 344.45556640625 315.9144592285156 337.244140625 308.4959716796875 334.8332214355469 298.1205749511719 C 337.37774658203125 287.53363037109375 344.33331298828125 279.86566162109375 354.4256591796875 277.0521545410156 C 365.69183349609375 279.9555969238281 373.1689147949219 287.2419738769531 375.882080078125 297.2202453613281" stroke-width="0.0" fill="rgb(17, 12, 11)" opacity="0.99020565"/>
    <path d="M 105.93177032470703 506.334228515625 C 103.21109771728516 516.8668823242188 95.86418914794922 524.2049560546875 85.28411865234375 526.9404907226562 C 74.16090393066406 524.1898193359375 66.812255859375 516.8381958007812 64.06430053710938 505.87249755859375 C 66.80984497070312 495.1568908691406 74.15706634521484 487.8104248046875 85.53828430175781 485.0613098144531 C 95.86995697021484 487.787353515625 103.20618438720703 495.1324462890625 105.93177032470703 506.334228515625" stroke-width="0.0" fill="rgb(76, 74, 75)" opacity="1.0"/>
    <path d="M 104.94398498535156 551.2739868164062 C 102.20643615722656 561.8598022460938 94.85562133789062 569.1961669921875 83.43765258789062 571.9442749023438 C 73.1155014038086 569.2241821289062 65.7762222290039 561.8843994140625 63.04782485961914 550.72314453125 C 65.77703857421875 540.1214599609375 73.12527465820312 532.786376953125 83.79045104980469 530.0609741210938 C 94.84957122802734 532.801513671875 102.19192504882812 540.1533813476562 104.94398498535156 551.2739868164062" stroke-width="0.0" fill="rgb(71, 70, 70)" opacity="1.0"/>
    <path d="M 241.4846649169922 508.4908447265625 C 239.08192443847656 518.791748046875 231.83523559570312 526.2036743164062 220.91958618164062 528.9507446289062 C 210.14749145507812 526.2054443359375 202.81350708007812 518.8445434570312 200.06373596191406 507.47332763671875 C 202.79742431640625 497.1506652832031 210.16123962402344 489.82244873046875 220.37074279785156 487.08856201171875 C 231.2890167236328 490.15399169921875 238.3599090576172 497.90191650390625 241.4846649169922 508.4908447265625" stroke-width="0.0" fill="rgb(83, 83, 84)" opacity="1.0"/>
    <path d="M 555.8818359375 385.0937805175781 C 553.131103515625 395.7845764160156 545.7898559570312 403.1440734863281 535.0294799804688 405.8944396972656 C 524.2220458984375 403.1342468261719 516.8900146484375 395.7690734863281 514.130126953125 384.5502014160156 C 516.8579711914062 374.2025451660156 524.2008666992188 366.8541564941406 534.9931640625 364.109130859375 C 545.7454223632812 366.8937683105469 553.1124267578125 374.2515563964844 555.8818359375 385.0937805175781" stroke-width="0.0" fill="rgb(123, 126, 131)" opacity="0.99012375"/>
    <path d="M 189.9215545654297 385.7095031738281 C 187.1632843017578 396.8008117675781 179.77247619628906 404.0819091796875 168.2619171142578 406.8978576660156 C 158.1584930419922 404.18939208984375 150.7999725341797 396.8463439941406 148.06561279296875 386.4313049316406 C 150.81040954589844 375.1575012207031 158.16067504882812 367.81793212890625 169.39114379882812 365.06640625 C 179.84262084960938 367.8084411621094 187.1859893798828 375.15972900390625 189.9215545654297 385.7095031738281" stroke-width="0.0" fill="rgb(89, 88, 90)" opacity="0.990519"/>
    <path d="M 422.6904602050781 163.58567810058594 C 420.18701171875 173.85781860351562 412.8512268066406 181.16412353515625 402.5794372558594 182.2018280029297 C 391.2912902832031 180.94776916503906 383.8519287109375 173.76834106445312 381.0600280761719 162.4493865966797 C 383.7860412597656 152.12078857421875 391.1128845214844 144.76736450195312 401.3931579589844 142.04335021972656 C 412.79010009765625 144.82017517089844 420.0311584472656 152.2692108154297 422.6904602050781 163.58567810058594" stroke-width="0.0" fill="rgb(99, 124, 82)" opacity="1.0"/>
    <path d="M 488.50640869140625 568.5172729492188 C 486.0995788574219 578.8056030273438 478.8432922363281 586.2067260742188 468.00482177734375 588.947998046875 C 457.13800048828125 586.2120971679688 449.8387145996094 578.8438110351562 447.1445007324219 567.4959716796875 C 449.80511474609375 557.1380004882812 457.13458251953125 549.7955932617188 467.22119140625 547.1530151367188 C 478.0 550.6795043945312 485.32049560546875 558.0 488.50640869140625 568.5172729492188" stroke-width="0.0" fill="rgb(84, 84, 86)" opacity="1.0"/>
    <path d="M 192.96878051757812 235.58934020996094 C 190.23867797851562 246.88955688476562 182.87754821777344 254.21099853515625 172.546875 256.9178466796875 C 161.16038513183594 254.1792449951172 153.802001953125 246.84735107421875 151.05828857421875 235.33798217773438 C 153.75411987304688 225.08453369140625 161.0805206298828 217.744140625 171.4475860595703 215.0349884033203 C 182.91929626464844 217.74786376953125 190.2555389404297 225.07933044433594 192.96878051757812 235.58934020996094" stroke-width="0.0" fill="rgb(24, 23, 22)" opacity="0.9900621"/>
    <path d="M 458.9393005371094 482.04736328125 C 456.1954040527344 492.8356628417969 448.80859375 500.120849609375 438.5788879394531 502.6048278808594 C 427.9970397949219 499.3214416503906 420.6206970214844 492.01947021484375 417.1234436035156 481.23681640625 C 419.8281555175781 471.18048095703125 427.17919921875 463.8251037597656 437.55670166015625 461.0791015625 C 448.8323669433594 463.8356628417969 456.20220947265625 471.1522521972656 458.9393005371094 482.04736328125" stroke-width="0.0" fill="rgb(92, 93, 97)" opacity="0.99008656"/>
    <path d="M 313.92828369140625 410.1643981933594 C 311.1877746582031 420.83837890625 303.83685302734375 428.1841735839844 293.7767639160156 430.8689270019531 C 282.8831787109375 427.3707275390625 275.1234130859375 420.3187561035156 272.08221435546875 409.34259033203125 C 274.8124694824219 399.1619567871094 282.1671142578125 391.8253479003906 293.4136962890625 389.0765380859375 C 303.8408203125 391.81103515625 311.18475341796875 399.1609802246094 313.92828369140625 410.1643981933594" stroke-width="0.0" fill="rgb(100, 100, 103)" opacity="1.0"/>
    <path d="M 568.228271484375 29.166452407836914 C 565.7237548828125 39.387630462646484 558.296142578125 46.24140930175781 548.3953247070312 48.148475646972656 C 538.6852416992188 45.60197448730469 531.4317016601562 38.30145263671875 528.8644409179688 28.608596801757812 C 531.3167114257812 19.500356674194336 538.3711547851562 11.937469482421875 548.0645751953125 9.02946949005127 C 558.0181884765625 11.669096946716309 565.3741455078125 18.96892738342285 568.228271484375 29.166452407836914" stroke-width="0.0" fill="rgb(150, 194, 94)" opacity="0.9900297"/>
    <path d="M 573.6144409179688 6.296916961669922 C 569.6488037109375 16.354768753051758 562.3414916992188 23.61262321472168 552.6437377929688 26.15863609313965 C 543.2800903320312 23.828575134277344 536.1783447265625 16.726573944091797 533.9407348632812 7.488865375518799 C 536.3264770507812 -2.612708568572998 543.1151123046875 -10.29160213470459 553.0208129882812 -13.015425682067871 C 563.243408203125 -10.454610824584961 570.9425659179688 -3.428011894226074 573.6144409179688 6.296916961669922" stroke-width="0.0" fill="rgb(136, 15, 9)" opacity="0.99001765"/>
    <path d="M 340.0345153808594 291.9720458984375 C 337.3980407714844 302.1593017578125 330.3360595703125 309.8659973144531 319.3226013183594 312.90338134765625 C 309.18560791015625 310.17327880859375 301.8522644042969 302.8036193847656 299.04949951171875 291.15692138671875 C 301.74444580078125 281.0792236328125 309.0791931152344 273.7444152832031 319.1181945800781 271.0672607421875 C 330.2060546875 274.4245300292969 337.45404052734375 281.8311767578125 340.0345153808594 291.9720458984375" stroke-width="0.0" fill="rgb(18, 15, 15)" opacity="0.9900473"/>
    <path d="M 61.42863464355469 183.41995239257812 C 59.05051040649414 193.76939392089844 51.81468963623047 201.18409729003906 40.96707534790039 203.9369354248047 C 30.282329559326172 201.14633178710938 23.22038459777832 193.58596801757812 20.898178100585938 183.15087890625 C 23.678951263427734 172.9989013671875 30.997617721557617 165.67446899414062 41.01240539550781 162.97853088378906 C 51.07157897949219 165.6218719482422 58.42952346801758 172.91282653808594 61.42863464355469 183.41995239257812" stroke-width="0.0" fill="rgb(68, 70, 72)" opacity="1.0"/>
    <path d="M 308.9341735839844 240.38818359375 C 306.1527099609375 251.7618865966797 298.6925354003906 258.95135498046875 288.3155517578125 261.2769775390625 C 277.99755859375 258.3212890625 270.6366882324219 251.0143280029297 267.09332275390625 240.17562866210938 C 269.7876281738281 230.13143920898438 277.1280822753906 222.78009033203125 288.524658203125 220.0401611328125 C 298.9029541015625 222.7571258544922 306.22796630859375 230.10301208496094 308.9341735839844 240.38818359375" stroke-width="0.0" fill="rgb(87, 87, 91)" opacity="1.0"/>
    <path d="M 282.06884765625 261.2853698730469 C 279.8714904785156 271.64678955078125 272.72772216796875 279.1229553222656 262.66839599609375 281.7574157714844 C 252.0 278.32049560546875 244.6794891357422 271.0 241.1763458251953 260.2160949707031 C 243.77684020996094 250.10418701171875 251.0989990234375 242.7624969482422 261.1736145019531 240.08041381835938 C 271.9188232421875 243.42080688476562 279.0796813964844 251.21517944335938 282.06884765625 261.2853698730469" stroke-width="0.0" fill="rgb(17, 15, 14)" opacity="0.99011517"/>
    <path d="M 606.5577392578125 314.6054992675781 C 603.888427734375 325.6101379394531 596.670654296875 333.0664978027344 585.777099609375 335.87994384765625 C 575.2261962890625 333.1166687011719 567.8496704101562 325.78759765625 565.052490234375 314.21527099609375 C 567.7680053710938 304.11492919921875 575.1190795898438 296.7774658203125 586.5379638671875 294.04315185546875 C 596.870849609375 296.7679138183594 604.1103515625 304.1713562011719 606.5577392578125 314.6054992675781" stroke-width="0.0" fill="rgb(127, 130, 136)" opacity="1.0"/>
    <path d="M 88.2884292602539 253.87075805664062 C 85.75820922851562 264.5236511230469 78.6259536743164 272.0540771484375 67.32856750488281 274.9211120605469 C 57.15748596191406 272.1949768066406 49.87337875366211 264.8197937011719 47.15040588378906 253.25802612304688 C 49.80194854736328 243.14505004882812 57.14460754394531 235.8011474609375 67.91751861572266 233.06570434570312 C 78.76205444335938 235.83633422851562 85.90544128417969 243.3279571533203 88.2884292602539 253.87075805664062" stroke-width="0.0" fill="rgb(75, 77, 76)" opacity="0.990071"/>
    <path d="M 112.01981353759766 253.96255493164062 C 109.32051086425781 264.0 102.0 271.32049560546875 91.20347595214844 274.8924560546875 C 81.23502349853516 272.1685485839844 74.09471130371094 264.6715393066406 71.64353942871094 253.99612426757812 C 74.08846282958984 243.32296752929688 81.23577880859375 235.8363800048828 91.38091278076172 233.0756378173828 C 102.51058197021484 235.98858642578125 109.51084899902344 243.68028259277344 112.01981353759766 253.96255493164062" stroke-width="0.0" fill="rgb(83, 82, 84)" opacity="1.0"/>
    <path d="M 63.95560836791992 563.544189453125 C 61.22666549682617 574.8818969726562 53.87553024291992 582.211181640625 42.56539535522461 584.9434204101562 C 32.117549896240234 582.2225341796875 24.776622772216797 574.8828125 22.05617332458496 564.4754638671875 C 24.791013717651367 553.1279907226562 32.12385940551758 545.7810668945312 43.20692825317383 543.0549926757812 C 53.894256591796875 545.7711181640625 61.239742279052734 553.1011962890625 63.95560836791992 563.544189453125" stroke-width="0.0" fill="rgb(65, 59, 62)" opacity="1.0"/>
    <path d="M 193.94046020507812 463.847900390625 C 191.20477294921875 474.8608093261719 183.8613739013672 482.20623779296875 173.26348876953125 484.94036865234375 C 162.13681030273438 482.2022399902344 154.7926025390625 474.865234375 152.06497192382812 464.39813232421875 C 154.80343627929688 453.14849853515625 162.1497802734375 445.8059387207031 173.1066131591797 443.0584716796875 C 183.85687255859375 445.7989807128906 191.20127868652344 453.14306640625 193.94046020507812 463.847900390625" stroke-width="0.0" fill="rgb(88, 88, 89)" opacity="1.0"/>
    <path d="M 264.6498718261719 474.4093933105469 C 262.0719909667969 484.72998046875 254.712646484375 492.0156555175781 244.35816955566406 494.43719482421875 C 233.4647216796875 491.73748779296875 225.89767456054688 484.6648864746094 223.11734008789062 474.6606750488281 C 226.3962860107422 463.87945556640625 233.97042846679688 456.6689147949219 244.12701416015625 453.8948974609375 C 254.40281677246094 456.33056640625 261.833251953125 463.54656982421875 264.6498718261719 474.4093933105469" stroke-width="0.0" fill="rgb(83, 83, 85)" opacity="1.0"/>
    <path d="M 391.6468811035156 346.5776672363281 C 389.0944519042969 356.7615051269531 381.77630615234375 364.13525390625 370.81341552734375 366.904541015625 C 360.2010803222656 364.15252685546875 352.85565185546875 356.79559326171875 350.1207275390625 346.62652587890625 C 353.2060241699219 335.7248229980469 360.8754577636719 328.620361328125 370.9915466308594 325.99615478515625 C 381.0 328.67950439453125 388.32049560546875 336.0 391.6468811035156 346.5776672363281" stroke-width="0.0" fill="rgb(101, 102, 105)" opacity="1.0"/>
    <path d="M 454.7999267578125 571.51708984375 C 452.1634521484375 581.839111328125 444.8595275878906 589.2154541015625 434.59234619140625 591.9434204101562 C 423.1379699707031 589.200927734375 415.79241943359375 581.8645629882812 413.06756591796875 571.635986328125 C 415.9337158203125 560.413330078125 423.5943603515625 553.411376953125 434.3434143066406 550.6275024414062 C 444.6767272949219 553.0244140625 452.0478515625 560.3008422851562 454.7999267578125 571.51708984375" stroke-width="0.0" fill="rgb(81, 81, 83)" opacity="1.0"/>
    <path d="M 99.786865234375 310.71124267578125 C 97.1667251586914 320.82232666015625 89.81758880615234 328.1537780761719 79.6806869506836 330.74322509765625 C 69.205078125 327.1659851074219 62.06001281738281 319.7226257324219 59.52549362182617 309.5419006347656 C 60.979156494140625 299.2447814941406 68.19413757324219 291.82196044921875 78.22798156738281 289.1174011230469 C 89.0201416015625 292.6177062988281 96.3213882446289 299.9972229003906 99.786865234375 310.71124267578125" stroke-width="0.0" fill="rgb(91, 89, 91)" opacity="0.9905788"/>
    <path d="M 140.93902587890625 393.46929931640625 C 138.21482849121094 403.87139892578125 130.86593627929688 411.2013854980469 120.37715148925781 413.9245910644531 C 109.1541748046875 411.1858215332031 101.79524993896484 403.8536682128906 99.09282684326172 393.8164978027344 C 102.64649963378906 382.98992919921875 109.99900817871094 375.67919921875 120.45275115966797 372.5550537109375 C 130.75839233398438 374.95001220703125 138.17454528808594 382.1979064941406 140.93902587890625 393.46929931640625" stroke-width="0.0" fill="rgb(95, 94, 94)" opacity="1.0"/>
    <path d="M 394.9199523925781 270.5893859863281 C 392.2215270996094 280.8941650390625 384.9034423828125 288.2449951171875 374.8563537597656 290.94537353515625 C 363.7535400390625 287.1376037597656 355.8731689453125 280.61737060546875 353.0694580078125 270.3205871582031 C 355.8276062011719 259.1772155761719 363.1772155761719 251.82762145996094 374.23480224609375 249.07606506347656 C 384.82720947265625 251.82080078125 392.1626892089844 259.17938232421875 394.9199523925781 270.5893859863281" stroke-width="0.0" fill="rgb(104, 107, 111)" opacity="1.0"/>
    <path d="M 422.2591247558594 302.21466064453125 C 419.93463134765625 312.6982116699219 412.78033447265625 320.1741638183594 402.7832336425781 322.8747253417969 C 392.0 319.32049560546875 384.67950439453125 312.0 381.76934814453125 301.6903381347656 C 384.0100402832031 291.23779296875 391.15814208984375 283.7766418457031 401.3587951660156 281.03985595703125 C 412.7242126464844 283.83502197265625 419.7153015136719 291.444091796875 422.2591247558594 302.21466064453125" stroke-width="0.0" fill="rgb(15, 13, 11)" opacity="1.0"/>
    <path d="M 119.93089294433594 295.4696350097656 C 117.20159912109375 305.85894775390625 109.85859680175781 313.20086669921875 99.79510498046875 315.89239501953125 C 88.98269653320312 312.3780517578125 81.68407440185547 304.9996337890625 78.19670104980469 294.26373291015625 C 80.81612396240234 284.1582946777344 88.16525268554688 276.8356628417969 98.338134765625 274.2606506347656 C 109.56005859375 277.24884033203125 117.1268539428711 284.3065185546875 119.93089294433594 295.4696350097656" stroke-width="0.0" fill="rgb(87, 86, 88)" opacity="1.0"/>
    <path d="M 287.1136474609375 210.9355926513672 C 286.24383544921875 220.89878845214844 278.8857421875 228.21185302734375 268.1683044433594 230.9345703125 C 257.17938232421875 228.18702697753906 249.92169189453125 220.7825164794922 247.4960479736328 210.470947265625 C 250.390380859375 199.5984344482422 257.5150451660156 192.11868286132812 267.1155700683594 190.95831298828125 C 277.0808410644531 193.61175537109375 284.3841247558594 200.92100524902344 287.1136474609375 210.9355926513672" stroke-width="0.0" fill="rgb(15, 12, 12)" opacity="0.99000883"/>
    <path d="M 250.24412536621094 192.73814392089844 C 248.3205108642578 202.0 241.0 209.3205108642578 231.0 212.0 C 221.0 209.3205108642578 213.6794891357422 202.0 210.4346160888672 191.5157012939453 C 213.04136657714844 181.7411346435547 221.65667724609375 175.537109375 230.26287841796875 172.9736785888672 C 240.08522033691406 175.61610412597656 247.42779541015625 182.89871215820312 250.24412536621094 192.73814392089844" stroke-width="0.0" fill="rgb(15, 12, 12)" opacity="0.9900118"/>
    <path d="M 432.8635559082031 424.7091369628906 C 430.1622314453125 434.81890869140625 422.8222961425781 442.1708068847656 412.3236999511719 444.9147033691406 C 401.20452880859375 442.1478271484375 393.8402099609375 434.8003845214844 391.115234375 424.7277526855469 C 394.4976806640625 413.9292297363281 401.9839782714844 406.67376708984375 412.00030517578125 403.9995422363281 C 422.0231628417969 406.6708984375 429.53057861328125 413.9129333496094 432.8635559082031 424.7091369628906" stroke-width="0.0" fill="rgb(105, 106, 110)" opacity="1.0"/>
    <path d="M 205.94073486328125 553.590576171875 C 203.14817810058594 564.7223510742188 195.5946807861328 571.7905883789062 184.28524780273438 574.8580322265625 C 174.35659790039062 572.0995483398438 167.33837890625 564.483154296875 164.61456298828125 553.6370849609375 C 166.9731903076172 543.2460327148438 174.1929473876953 535.817626953125 185.5409393310547 533.0574340820312 C 195.88328552246094 535.7747802734375 203.21543884277344 543.1207275390625 205.94073486328125 553.590576171875" stroke-width="0.0" fill="rgb(70, 68, 69)" opacity="0.99022084"/>
    <path d="M 432.873046875 416.3050842285156 C 429.62548828125 427.13836669921875 422.0403747558594 434.33465576171875 412.0028076171875 436.9893798828125 C 401.9620361328125 434.3320617675781 394.3792419433594 427.135009765625 391.14447021484375 416.3410949707031 C 393.8502502441406 406.1933898925781 401.190185546875 398.8418884277344 412.4390563964844 396.0870666503906 C 422.834716796875 398.8156433105469 430.16925048828125 406.17144775390625 432.873046875 416.3050842285156" stroke-width="0.0" fill="rgb(108, 110, 115)" opacity="1.0"/>
    <path d="M 518.9192504882812 595.369140625 C 515.8311767578125 606.275634765625 508.09051513671875 613.3560180664062 498.00189208984375 616.0017700195312 C 487.9551696777344 613.3372192382812 480.3329162597656 606.1596069335938 477.098876953125 595.239990234375 C 479.80377197265625 585.173583984375 487.2236328125 577.9534912109375 497.6169738769531 575.6098022460938 C 508.4631652832031 578.3547973632812 516.1000366210938 585.3649291992188 518.9192504882812 595.369140625" stroke-width="0.0" fill="rgb(80, 81, 83)" opacity="1.0"/>
    <path d="M 600.9209594726562 515.457763671875 C 598.190673828125 525.8428955078125 590.8407592773438 533.1859741210938 579.5985717773438 535.9398193359375 C 569.1474609375 533.2035522460938 561.8196411132812 525.8431396484375 559.0763549804688 514.677490234375 C 561.827392578125 504.1782531738281 569.1793212890625 496.8303527832031 579.4761962890625 494.0931091308594 C 590.7705078125 496.8832702636719 598.1468505859375 504.2170715332031 600.9209594726562 515.457763671875" stroke-width="0.0" fill="rgb(104, 106, 110)" opacity="1.0"/>
    <path d="M 482.7144470214844 367.3775329589844 C 479.32049560546875 378.0 472.0 385.32049560546875 461.40081787109375 388.6517639160156 C 451.21612548828125 386.115966796875 443.8537902832031 378.7944030761719 441.1203308105469 368.5050964355469 C 444.0184631347656 357.4748840332031 451.5348205566406 350.1414794921875 462.63800048828125 347.0993957519531 C 472.7828063964844 349.8522033691406 480.1087646484375 357.23236083984375 482.7144470214844 367.3775329589844" stroke-width="0.0" fill="rgb(118, 120, 123)" opacity="1.0"/>
    <path d="M 263.3972473144531 202.6518096923828 C 260.5842590332031 213.36981201171875 253.4813690185547 220.92247009277344 243.44406127929688 223.56640625 C 233.0 220.3205108642578 225.6794891357422 213.0 223.00010681152344 203.00022888183594 C 225.6812744140625 193.00408935546875 233.01145935058594 185.7069854736328 243.5673370361328 182.35435485839844 C 253.6893310546875 184.94322204589844 260.9698486328125 192.3395233154297 263.3972473144531 202.6518096923828" stroke-width="0.0" fill="rgb(11, 10, 7)" opacity="0.99009174"/>
    <path d="M 93.07067108154297 187.98651123046875 C 90.31851196289062 197.99815368652344 83.03822326660156 205.45111083984375 72.2303237915039 208.8861083984375 C 62.14455795288086 206.19903564453125 54.826847076416016 198.8462371826172 52.268646240234375 188.68873596191406 C 55.693851470947266 178.00823974609375 63.004940032958984 170.68258666992188 73.0008544921875 168.00038146972656 C 83.00277709960938 170.67825317382812 90.33794403076172 177.99258422851562 93.07067108154297 187.98651123046875" stroke-width="0.0" fill="rgb(60, 60, 62)" opacity="0.9902217"/>
    <path d="M 66.95055389404297 493.3419494628906 C 64.20638275146484 504.8583984375 56.85494613647461 512.1988525390625 45.628116607666016 514.9486694335938 C 35.12403106689453 512.2197265625 27.822498321533203 504.8617858886719 26.903852462768555 494.8330993652344 C 29.52821159362793 484.78656005859375 36.69577407836914 477.1044921875 46.79155731201172 473.0721435546875 C 56.88797378540039 475.7751159667969 64.23518371582031 483.1076354980469 66.95055389404297 493.3419494628906" stroke-width="0.0" fill="rgb(86, 83, 85)" opacity="0.99016416"/>
    <path d="M 96.95894622802734 171.23614501953125 C 94.0987319946289 182.599853515625 86.35606384277344 189.47030639648438 76.14907836914062 191.528564453125 C 66.24947357177734 189.0214385986328 58.95399475097656 181.75857543945312 55.247989654541016 171.43362426757812 C 58.231510162353516 161.77874755859375 65.9388427734375 154.65708923339844 76.54411315917969 151.49256896972656 C 86.8439712524414 153.86915588378906 94.2370376586914 161.1195526123047 96.95894622802734 171.23614501953125" stroke-width="0.0" fill="rgb(29, 30, 31)" opacity="1.0"/>
    <path d="M 563.6880493164062 452.5227966308594 C 560.9811401367188 463.7229309082031 553.7870483398438 471.1703796386719 543.5855102539062 473.9127502441406 C 532.2376708984375 471.11700439453125 524.896484375 463.75732421875 522.1150512695312 452.5650329589844 C 524.8582763671875 442.2087097167969 532.2059936523438 434.8517150878906 542.756103515625 432.1000061035156 C 553.791259765625 434.85601806640625 561.1087036132812 442.22113037109375 563.6880493164062 452.5227966308594" stroke-width="0.0" fill="rgb(116, 118, 123)" opacity="0.99016684"/>
    <path d="M 356.2572326660156 294.6927185058594 C 353.4576110839844 305.2552795410156 346.4505310058594 312.96710205078125 335.74871826171875 315.8612365722656 C 325.38018798828125 313.0701599121094 318.3435363769531 305.47564697265625 316.0071105957031 295.06292724609375 C 318.55877685546875 284.75482177734375 325.51904296875 276.9856872558594 336.76416015625 274.0494689941406 C 346.8203125 276.79290771484375 353.9803161621094 284.2591247558594 356.2572326660156 294.6927185058594" stroke-width="0.0" fill="rgb(14, 11, 9)" opacity="0.99006546"/>
    <path d="M 348.93096923828125 257.5746154785156 C 346.21142578125 267.87469482421875 338.8778991699219 275.21905517578125 328.80224609375 277.829833984375 C 317.1599426269531 275.10931396484375 309.7691650390625 267.8768310546875 307.0566711425781 257.6238098144531 C 309.7964172363281 246.1363067626953 317.13323974609375 238.7886199951172 327.259521484375 236.06581115722656 C 338.6693115234375 238.97325134277344 346.13446044921875 246.27687072753906 348.93096923828125 257.5746154785156" stroke-width="0.0" fill="rgb(112, 113, 114)" opacity="1.0"/>
    <path d="M 366.9067077636719 387.70025634765625 C 364.1470947265625 398.8024597167969 356.81256103515625 406.1719055175781 346.3880920410156 408.9280700683594 C 335.1829528808594 406.1665344238281 327.8233337402344 398.82135009765625 325.07598876953125 388.3245544433594 C 327.82550048828125 377.1754455566406 335.18017578125 369.8370361328125 346.1592712402344 367.0859069824219 C 356.8225402832031 369.8278503417969 364.1604309082031 377.1822814941406 366.9067077636719 387.70025634765625" stroke-width="0.0" fill="rgb(109, 109, 114)" opacity="1.0"/>
    <path d="M 271.83453369140625 272.79180908203125 C 269.2227783203125 282.88787841796875 261.8851318359375 290.2163391113281 251.6172637939453 292.92474365234375 C 240.16246032714844 290.169677734375 232.7924041748047 282.8529052734375 230.0421905517578 271.263916015625 C 232.7476043701172 261.0854187011719 240.09384155273438 253.7701416015625 250.2059326171875 251.17074584960938 C 260.9803771972656 254.70469665527344 268.3018798828125 262.0177307128906 271.83453369140625 272.79180908203125" stroke-width="0.0" fill="rgb(28, 25, 25)" opacity="0.9900444"/>
    <path d="M 364.052490234375 534.0843505859375 C 361.641845703125 544.4560546875 354.61187744140625 552.0718383789062 343.36309814453125 554.9213256835938 C 333.14434814453125 552.2021484375 325.8094482421875 544.850830078125 323.06939697265625 533.6344604492188 C 325.7960205078125 523.1365966796875 333.1361999511719 515.7952270507812 343.2197265625 513.1131591796875 C 354.05029296875 516.5413208007812 361.32373046875 523.9904174804688 364.052490234375 534.0843505859375" stroke-width="0.0" fill="rgb(91, 90, 93)" opacity="1.0"/>
    <path d="M 392.9075012207031 343.3857421875 C 389.9595031738281 354.4426574707031 382.251708984375 361.4623718261719 372.0238952636719 364.03582763671875 C 361.9994812011719 361.32574462890625 354.6858825683594 353.99713134765625 351.198974609375 343.29193115234375 C 353.85479736328125 333.2309265136719 361.274658203125 325.977294921875 372.44683837890625 323.2209167480469 C 382.8057556152344 325.8706970214844 390.1820068359375 333.1745910644531 392.9075012207031 343.3857421875" stroke-width="0.0" fill="rgb(105, 105, 109)" opacity="1.0"/>
    <path d="M 249.942626953125 415.93853759765625 C 247.20118713378906 426.85418701171875 239.85218811035156 434.1963195800781 229.25418090820312 436.9259338378906 C 218.1604766845703 434.18792724609375 210.81504821777344 426.8380432128906 208.0639190673828 415.79443359375 C 210.80056762695312 405.1425476074219 218.14151000976562 397.7982482910156 228.7023162841797 395.0668640136719 C 239.8405303955078 397.8153991699219 247.20045471191406 405.15252685546875 249.942626953125 415.93853759765625" stroke-width="0.0" fill="rgb(85, 85, 87)" opacity="1.0"/>
    <path d="M 447.8933410644531 500.80670166015625 C 445.2030944824219 510.855712890625 437.8533935546875 518.1973266601562 427.1844482421875 520.9278564453125 C 416.14959716796875 518.1969604492188 408.8199462890625 510.8435363769531 406.0661926269531 499.610595703125 C 408.8134765625 489.1759338378906 416.20660400390625 481.8997497558594 426.461181640625 479.4416198730469 C 437.00994873046875 482.66912841796875 444.3533630371094 489.9837341308594 447.8933410644531 500.80670166015625" stroke-width="0.0" fill="rgb(95, 97, 100)" opacity="0.9916461"/>
    <path d="M 259.9045104980469 459.2755432128906 C 256.71209716796875 470.1828308105469 249.04441833496094 477.3274841308594 238.80055236816406 480.14013671875 C 228.39990234375 477.8267517089844 220.89230346679688 470.69537353515625 218.07373046875 459.3355407714844 C 220.7913818359375 449.13763427734375 228.14488220214844 441.80950927734375 239.01113891601562 439.0788269042969 C 249.82737731933594 441.8251953125 257.1834716796875 449.1689758300781 259.9045104980469 459.2755432128906" stroke-width="0.0" fill="rgb(87, 87, 89)" opacity="1.0"/>
    <path d="M 166.93467712402344 150.1304473876953 C 164.03982543945312 160.50514221191406 156.2525634765625 167.44366455078125 145.83653259277344 170.12533569335938 C 135.37542724609375 167.82196044921875 127.83623504638672 160.74569702148438 125.0420913696289 149.23207092285156 C 127.74781036376953 139.08294677734375 135.08436584472656 131.75143432617188 145.1658172607422 129.08740234375 C 156.6668243408203 132.00521850585938 164.09786987304688 139.2930450439453 166.93467712402344 150.1304473876953" stroke-width="0.0" fill="rgb(12, 10, 9)" opacity="0.99003875"/>
    <path d="M 99.92858123779297 86.76725006103516 C 97.24105834960938 96.90603637695312 89.90652465820312 104.24262237548828 79.62550354003906 106.95256805419922 C 68.14988708496094 104.2093505859375 60.87237548828125 96.82048034667969 58.15210723876953 85.33479309082031 C 60.777748107910156 75.09883117675781 68.08780670166016 67.74800109863281 78.1545181274414 65.05101776123047 C 89.7718734741211 67.8670654296875 97.11412048339844 75.23609161376953 99.92858123779297 86.76725006103516" stroke-width="0.0" fill="rgb(15, 16, 13)" opacity="0.9900283"/>
    <path d="M 308.9639587402344 267.77752685546875 C 306.25201416015625 277.91461181640625 298.9139709472656 285.2505187988281 287.9566345214844 287.9658203125 C 277.1004638671875 285.2450866699219 269.80224609375 277.8821716308594 267.270263671875 267.71221923828125 C 270.7908630371094 257.1756896972656 278.28692626953125 250.118408203125 288.3066101074219 247.74880981445312 C 298.59527587890625 249.34625244140625 306.1727294921875 256.2504577636719 308.9639587402344 267.77752685546875" stroke-width="0.0" fill="rgb(19, 17, 15)" opacity="0.99034196"/>
    <path d="M 307.80364990234375 483.73870849609375 C 305.1885681152344 493.8525390625 297.8546447753906 501.1943664550781 286.9539489746094 503.9256896972656 C 276.1972961425781 501.1721496582031 268.933837890625 493.7651062011719 266.50732421875 483.48583984375 C 269.67950439453125 473.0 277.0 465.67950439453125 287.0 463.0 C 297.0 465.67950439453125 304.32049560546875 473.0 307.80364990234375 483.73870849609375" stroke-width="0.0" fill="rgb(95, 96, 99)" opacity="1.0"/>
    <path d="M 43.919677734375 181.02499389648438 C 41.46479415893555 191.2721710205078 34.44580078125 198.94467163085938 24.725528717041016 200.9205322265625 C 14.662297248840332 197.59506225585938 7.253913879394531 190.38755798339844 4.067417144775391 180.28480529785156 C 5.836427211761475 170.15890502929688 13.152018547058105 162.81564331054688 23.279449462890625 160.23301696777344 C 33.97574234008789 163.71035766601562 41.28916549682617 171.02444458007812 43.919677734375 181.02499389648438" stroke-width="0.0" fill="rgb(62, 59, 56)" opacity="0.9900218"/>
    <path d="M 361.005126953125 435.98876953125 C 358.32049560546875 446.0 351.0 453.32049560546875 340.9985046386719 456.00054931640625 C 330.9547424316406 453.3374938964844 323.3326110839844 446.1600036621094 320.0920104980469 435.2545166015625 C 322.8167419433594 425.1714172363281 330.17462158203125 417.8242492675781 340.319091796875 415.0921325683594 C 351.3404846191406 418.1285095214844 358.3984375 425.8388671875 361.005126953125 435.98876953125" stroke-width="0.0" fill="rgb(101, 101, 105)" opacity="1.0"/>
    <path d="M 219.9274139404297 583.5218505859375 C 217.18247985839844 594.8325805664062 209.81639099121094 602.1356811523438 198.86068725585938 604.7822265625 C 188.15814208984375 602.1551513671875 180.78665161132812 594.8624877929688 178.0529022216797 584.4234619140625 C 180.83384704589844 573.2568359375 188.38902282714844 566.2026977539062 199.80914306640625 563.1078491210938 C 209.873779296875 565.787109375 217.21434020996094 573.1255493164062 219.9274139404297 583.5218505859375" stroke-width="0.0" fill="rgb(71, 70, 71)" opacity="1.0"/>
    <path d="M 184.9383087158203 515.658203125 C 182.21820068359375 525.8766479492188 174.87753295898438 533.2203979492188 164.38058471679688 535.9501342773438 C 153.147216796875 533.2037353515625 145.80654907226562 525.8483276367188 143.12026977539062 515.7882080078125 C 146.6395721435547 504.9854431152344 153.99917602539062 497.6871032714844 164.0792694091797 495.0121154785156 C 174.49620056152344 497.338623046875 182.1112060546875 504.341552734375 184.9383087158203 515.658203125" stroke-width="0.0" fill="rgb(75, 74, 74)" opacity="0.99026036"/>
    <path d="M 81.42625427246094 455.4582214355469 C 79.07138061523438 465.7937316894531 71.84375 473.213623046875 61.76405334472656 475.94061279296875 C 50.49221420288086 473.012939453125 43.49646759033203 465.3112487792969 40.98125076293945 455.035400390625 C 43.67949295043945 445.0 51.0 437.67950439453125 61.0 435.0 C 71.0 437.67950439453125 78.32051086425781 445.0 81.42625427246094 455.4582214355469" stroke-width="0.0" fill="rgb(73, 70, 71)" opacity="1.0"/>
    <path d="M 217.0565948486328 170.81985473632812 C 215.63169860839844 180.37318420410156 208.3565673828125 187.5955810546875 198.0382843017578 190.07460021972656 C 187.5801544189453 187.5703582763672 179.8723907470703 180.64537048339844 177.03575134277344 169.24822998046875 C 179.77001953125 159.14537048339844 187.23178100585938 152.1564483642578 197.2678985595703 150.94497680664062 C 207.126708984375 153.5699005126953 214.41702270507812 160.87881469726562 217.0565948486328 170.81985473632812" stroke-width="0.0" fill="rgb(82, 58, 44)" opacity="0.99001104"/>
    <path d="M 101.93008422851562 398.3146667480469 C 98.90948486328125 409.345703125 91.12509155273438 416.3714904785156 80.97501373291016 419.0169982910156 C 70.71837615966797 416.4817199707031 63.04389953613281 409.4564514160156 60.27024841308594 399.56109619140625 C 63.67949295043945 389.0 71.0 381.67950439453125 81.48029327392578 378.532470703125 C 91.78564453125 380.9249267578125 99.19497680664062 388.1724853515625 101.93008422851562 398.3146667480469" stroke-width="0.0" fill="rgb(84, 82, 85)" opacity="1.0"/>
    <path d="M 341.92120361328125 351.3296813964844 C 339.17828369140625 361.83392333984375 331.8357849121094 369.1824951171875 320.9590148925781 371.92193603515625 C 310.1756286621094 369.171875 302.8226013183594 361.82684326171875 300.08526611328125 351.27801513671875 C 302.8270568847656 340.1692810058594 310.16680908203125 332.8205261230469 321.3349609375 330.0709228515625 C 331.8199462890625 332.8185119628906 339.1520690917969 340.1927795410156 341.92120361328125 351.3296813964844" stroke-width="0.0" fill="rgb(110, 110, 115)" opacity="1.0"/>
    <path d="M 451.0085754394531 539.9815063476562 C 448.32049560546875 550.0 441.0 557.3204956054688 431.0058288574219 559.9863891601562 C 421.00299072265625 557.3138427734375 413.6800842285156 549.9987182617188 410.99664306640625 539.9921264648438 C 413.61981201171875 529.8690795898438 420.69189453125 522.1539916992188 431.2418212890625 519.1200561523438 C 441.42913818359375 522.046630859375 448.4391174316406 529.77001953125 451.0085754394531 539.9815063476562" stroke-width="0.0" fill="rgb(80, 80, 83)" opacity="1.0"/>
    <path d="M 521.935791015625 573.4555053710938 C 519.1526489257812 584.7645263671875 511.69879150390625 591.9605102539062 501.2709655761719 594.3204956054688 C 490.5216369628906 591.6713256835938 482.94866943359375 584.6085815429688 480.2588806152344 574.613037109375 C 483.6728820800781 563.9965209960938 490.9981689453125 556.6785278320312 501.7983093261719 553.1181640625 C 511.8533935546875 555.8019409179688 519.2030029296875 563.1445922851562 521.935791015625 573.4555053710938" stroke-width="0.0" fill="rgb(82, 82, 84)" opacity="0.99024004"/>
    <path d="M 247.0133819580078 199.9866180419922 C 244.3205108642578 210.0 237.0 217.3205108642578 227.0 220.0 C 217.00033569335938 217.32041931152344 209.69334411621094 209.99591064453125 207.17713928222656 199.94102478027344 C 209.67913818359375 189.99917602539062 216.99774169921875 182.67413330078125 227.0202178955078 179.9429168701172 C 237.0455322265625 182.62649536132812 244.36038208007812 189.95831298828125 247.0133819580078 199.9866180419922" stroke-width="0.0" fill="rgb(15, 13, 13)" opacity="1.0"/>
    <path d="M 516.8740234375 388.2098693847656 C 514.1434326171875 398.7922058105469 506.782470703125 406.1162414550781 496.6092224121094 408.6754455566406 C 486.0 405.32049560546875 478.67950439453125 398.0 475.9804992675781 387.964111328125 C 478.502197265625 377.7055358886719 485.5344543457031 370.037841796875 496.5328063964844 367.111572265625 C 506.80523681640625 369.8451232910156 514.1432495117188 377.1990661621094 516.8740234375 388.2098693847656" stroke-width="0.0" fill="rgb(123, 125, 130)" opacity="1.0"/>
    <path d="M 594.814208984375 458.3185729980469 C 591.3245849609375 469.0167236328125 584.0615844726562 476.4716491699219 573.2714233398438 479.85284423828125 C 563.19482421875 477.1678771972656 555.9151611328125 469.77569580078125 553.3798828125 459.42724609375 C 556.0972900390625 448.3558349609375 563.286865234375 440.8923034667969 573.7090454101562 438.12579345703125 C 584.7391967773438 440.9048767089844 592.0970458984375 448.26043701171875 594.814208984375 458.3185729980469" stroke-width="0.0" fill="rgb(119, 122, 126)" opacity="0.990141"/>
    <path d="M 442.96697998046875 299.49359130859375 C 440.25274658203125 309.91754150390625 432.9176940917969 317.2529296875 422.7291564941406 319.96026611328125 C 411.2712097167969 317.1690673828125 404.2864074707031 309.5579833984375 401.6793518066406 298.7055969238281 C 404.0103454589844 288.26983642578125 411.2160339355469 280.8425598144531 422.4132080078125 278.1187438964844 C 432.882568359375 280.7964172363281 440.24591064453125 288.1006164550781 442.96697998046875 299.49359130859375" stroke-width="0.0" fill="rgb(18, 16, 14)" opacity="0.9902299"/>
    <path d="M 183.9251708984375 283.0250244140625 C 181.17935180664062 293.8330993652344 173.8387451171875 301.1923522949219 163.42050170898438 303.9322509765625 C 152.15672302246094 301.184814453125 144.79608154296875 293.8514099121094 142.06500244140625 283.41888427734375 C 144.79603576660156 272.13275146484375 152.1275177001953 264.7828063964844 162.37423706054688 262.0609130859375 C 173.83709716796875 264.8184814453125 181.18319702148438 272.1622619628906 183.9251708984375 283.0250244140625" stroke-width="0.0" fill="rgb(91, 91, 92)" opacity="1.0"/>
    <path d="M 102.93785858154297 448.6119689941406 C 100.20024108886719 459.8590087890625 92.86158752441406 467.20623779296875 82.71792602539062 469.9188537597656 C 71.56226348876953 466.9557189941406 64.54938507080078 459.2445983886719 61.99128341674805 449.0208740234375 C 64.67948913574219 439.0 72.0 431.67950439453125 82.6082992553711 428.3877868652344 C 92.83972930908203 430.8518371582031 100.21257781982422 438.1380615234375 102.93785858154297 448.6119689941406" stroke-width="0.0" fill="rgb(78, 75, 74)" opacity="1.0"/>
    <path d="M 197.93533325195312 420.53631591796875 C 195.19593811035156 431.85498046875 187.860595703125 439.2097473144531 177.15069580078125 441.9482421875 C 166.1356964111328 439.2109680175781 158.7990264892578 431.8600769042969 156.06678771972656 421.2047424316406 C 158.82757568359375 410.19659423828125 166.2332000732422 402.930908203125 177.72421264648438 400.11468505859375 C 187.83863830566406 402.8138427734375 195.19798278808594 410.1562194824219 197.93533325195312 420.53631591796875" stroke-width="0.0" fill="rgb(79, 78, 80)" opacity="0.9900688"/>
    <path d="M 324.7126159667969 467.6219482421875 C 322.1469421386719 477.8211975097656 314.837890625 485.1917419433594 304.7803039550781 487.8610534667969 C 294.00457763671875 484.3135681152344 286.6816711425781 476.996826171875 283.3953857421875 466.43658447265625 C 285.8987121582031 456.2187805175781 293.19329833984375 448.829345703125 303.5922546386719 446.0738525390625 C 314.6740417480469 448.8977966308594 321.7705993652344 456.4416809082031 324.7126159667969 467.6219482421875" stroke-width="0.0" fill="rgb(95, 95, 98)" opacity="1.0"/>
    <path d="M 93.822265625 387.25238037109375 C 90.32880401611328 398.0047302246094 83.0027847290039 405.3221435546875 72.97985076904297 408.1368103027344 C 63.524993896484375 405.0311584472656 56.48318862915039 397.3141174316406 53.93867874145508 388.3648681640625 C 56.51404571533203 378.7468566894531 63.564002990722656 370.27191162109375 73.7039794921875 367.0687561035156 C 83.85382843017578 369.7982482910156 91.1870346069336 377.1519775390625 93.822265625 387.25238037109375" stroke-width="0.0" fill="rgb(85, 80, 86)" opacity="0.99003047"/>
    <path d="M 456.9418640136719 541.9569702148438 C 454.17730712890625 552.8016967773438 446.75689697265625 560.054443359375 436.4685974121094 562.4708862304688 C 426.0002746582031 559.319580078125 418.67950439453125 551.9999389648438 416.0 542.0 C 418.67950439453125 532.0 426.0 524.6795043945312 436.75750732421875 521.1430053710938 C 446.8206787109375 523.83154296875 454.1808166503906 531.1741943359375 456.9418640136719 541.9569702148438" stroke-width="0.0" fill="rgb(81, 81, 84)" opacity="0.9915869"/>
    <path d="M 432.0058898925781 544.01318359375 C 429.4173583984375 554.203125 422.4327697753906 561.9767456054688 412.4253845214844 564.9053344726562 C 401.6103515625 561.8555908203125 394.0585632324219 554.4385986328125 391.0753479003906 543.2688598632812 C 393.7937316894531 533.1422119140625 401.1553039550781 525.8292236328125 411.3147277832031 523.2651977539062 C 422.0 526.6795043945312 429.32049560546875 534.0 432.0058898925781 544.01318359375" stroke-width="0.0" fill="rgb(86, 85, 90)" opacity="1.0"/>
    <path d="M 294.90728759765625 435.6814880371094 C 292.1833190917969 445.8359680175781 284.8335876464844 453.17681884765625 273.4410095214844 455.921142578125 C 263.15087890625 453.19873046875 255.80848693847656 445.8458557128906 253.06520080566406 435.2889709472656 C 255.81005859375 424.15167236328125 263.1481628417969 416.8017578125 273.2113342285156 414.13189697265625 C 284.165283203125 417.5853576660156 291.8697814941406 424.66070556640625 294.90728759765625 435.6814880371094" stroke-width="0.0" fill="rgb(89, 89, 94)" opacity="1.0"/>
    <path d="M 374.1307373046875 435.8236999511719 C 371.3576965332031 446.09393310546875 364.27886962890625 453.8331298828125 354.5776062011719 456.7906188964844 C 344.0 453.32049560546875 336.67950439453125 446.0 333.9951171875 435.98797607421875 C 336.59332275390625 425.8216552734375 343.62725830078125 418.0918273925781 354.56268310546875 415.0933837890625 C 364.70257568359375 417.8775329589844 371.8082275390625 425.4064636230469 374.1307373046875 435.8236999511719" stroke-width="0.0" fill="rgb(105, 105, 109)" opacity="1.0"/>
    <path d="M 129.9403839111328 346.5649108886719 C 127.18253326416016 357.8092041015625 119.75975799560547 365.0388488769531 108.67587280273438 367.65264892578125 C 98.18913269042969 365.1130676269531 90.80158996582031 357.8404541015625 88.0647964477539 346.8252258300781 C 90.7945327758789 336.1406555175781 98.14501190185547 328.80523681640625 109.30663299560547 326.069580078125 C 119.83589935302734 328.8133850097656 127.19380187988281 336.1609802246094 129.9403839111328 346.5649108886719" stroke-width="0.0" fill="rgb(85, 83, 84)" opacity="0.99011254"/>
    <path d="M 376.9322509765625 529.7919311523438 C 374.1890563964844 540.8413696289062 366.84051513671875 548.1876831054688 356.7650451660156 550.9055786132812 C 345.92950439453125 547.50634765625 338.6781005859375 540.01318359375 335.9127502441406 529.8577880859375 C 338.2469787597656 519.4464721679688 345.32159423828125 511.89013671875 356.5653381347656 509.07501220703125 C 366.84014892578125 511.8083801269531 374.1860046386719 519.162353515625 376.9322509765625 529.7919311523438" stroke-width="0.0" fill="rgb(90, 89, 93)" opacity="0.99161094"/>
    <path d="M 183.35971069335938 558.327880859375 C 181.00343322753906 568.7335815429688 173.7852783203125 576.1597290039062 163.7238006591797 578.8086547851562 C 153.0 575.3204956054688 145.6794891357422 568.0 142.93492126464844 557.8952026367188 C 145.30523681640625 547.4872436523438 152.33824157714844 539.8914794921875 163.3369598388672 537.0632934570312 C 173.66343688964844 539.87939453125 180.6715087890625 547.5059814453125 183.35971069335938 558.327880859375" stroke-width="0.0" fill="rgb(71, 69, 70)" opacity="1.0"/>
    <path d="M 338.944580078125 573.193115234375 C 336.2183837890625 583.8732299804688 328.8712158203125 591.2139282226562 318.3653259277344 593.9436645507812 C 307.1295471191406 591.2110595703125 299.78826904296875 583.87060546875 297.0608825683594 573.5237426757812 C 299.82037353515625 562.1644287109375 307.157470703125 554.8035888671875 317.96368408203125 552.0505981445312 C 328.8603820800781 554.792724609375 336.2047119140625 562.1406860351562 338.944580078125 573.193115234375" stroke-width="0.0" fill="rgb(73, 73, 75)" opacity="0.9901155"/>
    <path d="M 167.9293975830078 559.9950561523438 C 165.29904174804688 569.9872436523438 157.99282836914062 577.3178100585938 148.00010681152344 580.0009765625 C 138.0 577.3204956054688 130.6794891357422 570.0 127.58086395263672 559.5532836914062 C 129.94337463378906 549.2269287109375 137.1839599609375 541.8162841796875 147.47068786621094 539.0684814453125 C 158.46563720703125 541.9926147460938 165.39739990234375 549.7844848632812 167.9293975830078 559.9950561523438" stroke-width="0.0" fill="rgb(61, 59, 60)" opacity="0.990592"/>
    <path d="M 296.0990905761719 473.84942626953125 C 293.3102111816406 483.99285888671875 285.9938659667969 491.31378173828125 275.3312683105469 494.74560546875 C 265.2101135253906 492.1408386230469 257.9151306152344 484.7713317871094 255.33607482910156 474.18328857421875 C 257.95355224609375 463.2578430175781 265.2275695800781 455.86407470703125 276.085205078125 453.1116943359375 C 286.6607360839844 455.9084167480469 293.75140380859375 463.4574279785156 296.0990905761719 473.84942626953125" stroke-width="0.0" fill="rgb(98, 98, 100)" opacity="1.0"/>
    <path d="M 359.3245544433594 447.2760314941406 C 356.80340576171875 457.4277648925781 349.3814392089844 464.653076171875 339.12139892578125 467.1012268066406 C 329.0 464.32049560546875 321.67950439453125 457.0 318.22198486328125 446.4065856933594 C 321.0611877441406 436.5704345703125 328.7476501464844 429.5347595214844 338.9647521972656 427.0026550292969 C 348.9966735839844 429.6864318847656 356.31915283203125 437.00177001953125 359.3245544433594 447.2760314941406" stroke-width="0.0" fill="rgb(101, 100, 103)" opacity="0.9945417"/>
    <path d="M 131.87411499023438 376.22845458984375 C 128.37046813964844 387.01824951171875 121.00605010986328 394.3272399902344 110.47781372070312 397.5235900878906 C 100.19811248779297 395.0994567871094 92.79815673828125 387.838134765625 90.05636596679688 377.4231262207031 C 92.81985473632812 366.19757080078125 100.25216674804688 358.9770812988281 111.3772964477539 356.3361511230469 C 121.80520629882812 358.8853454589844 129.18736267089844 366.1694641113281 131.87411499023438 376.22845458984375" stroke-width="0.0" fill="rgb(93, 91, 93)" opacity="1.0"/>
    <path d="M 507.4024658203125 395.40911865234375 C 505.01123046875 405.7187805175781 497.7608947753906 413.1347351074219 487.22491455078125 415.8833923339844 C 476.2089538574219 413.132568359375 468.86480712890625 405.7923583984375 466.2837829589844 395.6473388671875 C 469.67950439453125 385.0 477.0 377.67950439453125 486.9998779296875 375.00018310546875 C 496.99981689453125 377.67974853515625 504.32037353515625 385.0001525878906 507.4024658203125 395.40911865234375" stroke-width="0.0" fill="rgb(123, 125, 131)" opacity="1.0"/>
    <path d="M 601.8545532226562 32.6476936340332 C 599.163330078125 42.80303192138672 591.7891845703125 50.13006591796875 580.43212890625 52.9014778137207 C 570.196533203125 50.1818733215332 563.0321655273438 42.73712921142578 561.1199340820312 32.118377685546875 C 563.7716064453125 22.16097068786621 571.2288208007812 14.999906539916992 581.589111328125 12.47202205657959 C 591.6995239257812 13.947490692138672 599.00244140625 21.317874908447266 601.8545532226562 32.6476936340332" stroke-width="0.0" fill="rgb(80, 111, 33)" opacity="0.99003124"/>
    <path d="M 160.0526580810547 566.0040283203125 C 157.3357391357422 576.00732421875 150.00242614746094 583.318603515625 139.62222290039062 586.3158569335938 C 129.25177001953125 584.0130004882812 121.81073760986328 576.8092041015625 119.04935455322266 565.5584106445312 C 121.77920532226562 555.1253051757812 129.13455200195312 547.80322265625 139.2562255859375 545.1966552734375 C 150.02053833007812 548.6510009765625 157.3387908935547 555.9824829101562 160.0526580810547 566.0040283203125" stroke-width="0.0" fill="rgb(65, 64, 64)" opacity="0.99066204"/>
    <path d="M 413.09295654296875 307.1357727050781 C 410.73455810546875 317.53082275390625 403.6538391113281 325.08807373046875 393.3785400390625 327.8331604003906 C 382.49603271484375 324.99237060546875 375.58563232421875 317.3099365234375 372.301513671875 306.3048400878906 C 374.806640625 296.11517333984375 382.0945129394531 288.74896240234375 392.1184997558594 286.0687561035156 C 402.9985046386719 289.6813049316406 410.31866455078125 297.0014953613281 413.09295654296875 307.1357727050781" stroke-width="0.0" fill="rgb(21, 18, 17)" opacity="0.9900601"/>
    <path d="M 247.0032196044922 201.9950408935547 C 244.3205108642578 212.0 237.0 219.3205108642578 226.3098602294922 222.73471069335938 C 216.15713500976562 220.17340087890625 208.80181884765625 212.85171508789062 206.10403442382812 202.8157501220703 C 209.6962127685547 192.00338745117188 216.99081420898438 184.65138244628906 227.04818725585938 181.72711181640625 C 237.0635223388672 184.56871032714844 244.34339904785156 191.96292114257812 247.0032196044922 201.9950408935547" stroke-width="0.0" fill="rgb(21, 19, 19)" opacity="0.99100065"/>
    <path d="M 261.92608642578125 499.36383056640625 C 259.19012451171875 509.8445739746094 251.8435821533203 517.1879272460938 241.6178741455078 519.92138671875 C 230.6549835205078 516.9080810546875 223.6276397705078 509.125732421875 220.5105438232422 498.5509338378906 C 222.99452209472656 488.34326171875 230.36642456054688 481.06976318359375 240.7641143798828 478.6383972167969 C 251.55386352539062 481.2403869628906 259.11431884765625 488.3194580078125 261.92608642578125 499.36383056640625" stroke-width="0.0" fill="rgb(88, 87, 88)" opacity="1.0"/>
    <path d="M 524.951416015625 323.1591491699219 C 522.1453857421875 334.7866516113281 514.7770385742188 342.1210632324219 504.2918701171875 344.8484191894531 C 493.23809814453125 342.09454345703125 485.8531799316406 334.7818908691406 483.0755310058594 324.17529296875 C 485.9366455078125 313.4309997558594 493.6352233886719 306.4600830078125 504.6986389160156 303.2804260253906 C 514.8867797851562 305.8023986816406 522.2526245117188 313.0931091308594 524.951416015625 323.1591491699219" stroke-width="0.0" fill="rgb(80, 82, 82)" opacity="1.0"/>
    <path d="M 517.0118408203125 296.0189208984375 C 514.4069213867188 306.13897705078125 507.2281494140625 313.6787414550781 497.18798828125 316.5954284667969 C 486.95123291015625 313.44097900390625 479.67388916015625 306.0143127441406 477.00439453125 296.00933837890625 C 479.7275085449219 286.0875549316406 487.15435791015625 278.9373474121094 497.1805114746094 276.2953796386719 C 507.0 278.67950439453125 514.3204956054688 286.0 517.0118408203125 296.0189208984375" stroke-width="0.0" fill="rgb(15, 15, 13)" opacity="0.9999882"/>
    <path d="M 216.75726318359375 185.49069213867188 C 213.79502868652344 196.58319091796875 206.69578552246094 204.1185302734375 195.35162353515625 206.93067932128906 C 185.13079833984375 204.2092742919922 177.78460693359375 196.87176513671875 175.0479736328125 185.54220581054688 C 177.79168701171875 175.18423461914062 185.2742919921875 168.04129028320312 195.43869018554688 166.6958465576172 C 205.57891845703125 169.26242065429688 213.85939025878906 175.98797607421875 216.75726318359375 185.49069213867188" stroke-width="0.0" fill="rgb(15, 14, 13)" opacity="0.99004346"/>
    <path d="M 88.99359893798828 423.99359130859375 C 86.30120086669922 433.9800109863281 78.97908782958984 441.2981262207031 69.08386993408203 443.9091491699219 C 59.46381378173828 440.9919738769531 52.45526123046875 433.3677978515625 49.9512825012207 424.63494873046875 C 52.5577278137207 414.8195495605469 59.74443817138672 407.2962341308594 69.0342025756836 403.60614013671875 C 78.9988784790039 406.6832275390625 86.32048034667969 414.0001220703125 88.99359893798828 423.99359130859375" stroke-width="0.0" fill="rgb(70, 69, 68)" opacity="0.99002534"/>
    <path d="M 522.9571533203125 293.8627624511719 C 520.2513427734375 303.90582275390625 512.88525390625 311.1938171386719 502.6913146972656 313.7033386230469 C 492.00006103515625 310.3203430175781 484.67950439453125 302.9999694824219 482.0026550292969 293.0033874511719 C 484.6933288574219 283.0205993652344 492.04498291015625 275.7762756347656 501.4781494140625 273.8236083984375 C 511.41595458984375 276.3091735839844 519.0633544921875 283.5095520019531 522.9571533203125 293.8627624511719" stroke-width="0.0" fill="rgb(20, 19, 17)" opacity="0.9900316"/>
    <path d="M 353.8680419921875 458.79876708984375 C 351.212158203125 468.8767395019531 343.883056640625 476.22747802734375 333.7162780761719 478.94207763671875 C 322.29571533203125 476.12567138671875 315.1968078613281 468.5918884277344 312.2766418457031 457.4186706542969 C 314.91363525390625 447.3083190917969 322.3815612792969 440.14007568359375 332.76556396484375 437.8381042480469 C 342.9850769042969 440.69757080078125 350.3014831542969 448.0152587890625 353.8680419921875 458.79876708984375" stroke-width="0.0" fill="rgb(95, 96, 100)" opacity="1.0"/>
    <path d="M 389.9258117675781 439.76275634765625 C 387.1849060058594 450.8402099609375 379.8382568359375 458.18023681640625 369.29345703125 460.91754150390625 C 358.32208251953125 458.11456298828125 351.2525634765625 450.5458984375 348.8559875488281 440.1412048339844 C 351.6580505371094 429.9520263671875 358.8359069824219 422.3264465332031 369.7500915527344 419.0927734375 C 379.828369140625 421.8159484863281 387.17889404296875 429.1739196777344 389.9258117675781 439.76275634765625" stroke-width="0.0" fill="rgb(106, 106, 109)" opacity="1.0"/>
    <path d="M 169.96743774414062 165.66580200195312 C 167.24769592285156 175.90289306640625 159.89544677734375 183.2315673828125 149.66775512695312 185.9476318359375 C 138.14523315429688 183.19711303710938 130.79379272460938 175.85861206054688 128.06642150878906 165.70840454101562 C 131.0598907470703 154.6050567626953 138.82403564453125 147.61343383789062 149.19837951660156 144.9803466796875 C 159.69178771972656 147.11578369140625 167.20672607421875 154.1951446533203 169.96743774414062 165.66580200195312" stroke-width="0.0" fill="rgb(30, 28, 30)" opacity="0.9900929"/>
    <path d="M 138.937744140625 240.41806030273438 C 136.1976318359375 251.85684204101562 128.85238647460938 259.18499755859375 118.71895599365234 261.7716064453125 C 108.0 258.32049560546875 100.67948913574219 251.0 97.15479278564453 240.2166290283203 C 99.79081726074219 230.13133239746094 107.13175964355469 222.7910919189453 118.43702697753906 220.052490234375 C 128.8871307373047 222.77230834960938 136.2229766845703 230.11488342285156 138.937744140625 240.41806030273438" stroke-width="0.0" fill="rgb(73, 72, 74)" opacity="0.9902065"/>
    <path d="M 505.9185485839844 546.2869262695312 C 502.9600830078125 557.447509765625 495.2574768066406 564.4561157226562 485.0176086425781 566.9832153320312 C 474.9969787597656 564.3202514648438 467.59521484375 557.0275268554688 464.0987548828125 546.2034912109375 C 466.8078308105469 536.15576171875 474.15673828125 528.8109130859375 485.1171875 526.0704345703125 C 495.8437805175781 528.8126220703125 503.197998046875 536.1517333984375 505.9185485839844 546.2869262695312" stroke-width="0.0" fill="rgb(85, 88, 88)" opacity="0.99671954"/>
    <path d="M 128.9312744140625 267.7024841308594 C 126.20804595947266 277.8606872558594 118.85163116455078 285.1841125488281 108.70436096191406 287.7861022949219 C 97.43184661865234 284.7912292480469 89.93939208984375 277.6548767089844 87.32044219970703 267.5817565917969 C 90.67948913574219 257.0 98.0 249.6794891357422 108.04834747314453 246.97235107421875 C 118.3556137084961 249.4561004638672 126.03086853027344 256.4600830078125 128.9312744140625 267.7024841308594" stroke-width="0.0" fill="rgb(83, 81, 82)" opacity="1.0"/>
    <path d="M 494.4239196777344 381.5743713378906 C 491.3148498535156 391.9951477050781 483.9961242675781 399.31805419921875 473.3076477050781 402.76739501953125 C 463.18743896484375 400.15704345703125 455.8516845703125 392.8092041015625 453.24456787109375 382.6767578125 C 456.681640625 372.001708984375 464.00177001953125 364.6817932128906 474.5767822265625 361.36029052734375 C 484.73712158203125 363.9103698730469 492.01824951171875 371.2856750488281 494.4239196777344 381.5743713378906" stroke-width="0.0" fill="rgb(119, 121, 124)" opacity="1.0"/>
    <path d="M 254.00631713867188 206.0119171142578 C 251.3973846435547 216.05816650390625 244.04547119140625 223.35536193847656 234.00245666503906 226.0126495361328 C 223.9617462158203 223.34788513183594 216.5916748046875 216.05628967285156 213.8662109375 206.0574188232422 C 216.69293212890625 196.01638793945312 224.01565551757812 188.6898651123047 234.16957092285156 185.66995239257812 C 244.20274353027344 188.4049835205078 251.4345245361328 195.84645080566406 254.00631713867188 206.0119171142578" stroke-width="0.0" fill="rgb(26, 24, 21)" opacity="1.0"/>
    <path d="M 368.07708740234375 229.9388427734375 C 367.2403259277344 239.89846801757812 359.892578125 247.22618103027344 349.7276306152344 249.9189910888672 C 338.32928466796875 246.99781799316406 330.8091125488281 239.77151489257812 328.0620422363281 229.88331604003906 C 332.5869445800781 219.90989685058594 339.9203796386719 212.6170196533203 349.24871826171875 209.97377014160156 C 358.0770263671875 212.61480712890625 365.3808288574219 219.92486572265625 368.07708740234375 229.9388427734375" stroke-width="0.0" fill="rgb(24, 10, 3)" opacity="0.9900039"/>
    <path d="M 66.84075927734375 88.31937408447266 C 64.1869888305664 98.86184692382812 56.87514114379883 106.22250366210938 46.21062469482422 108.95182037353516 C 35.104766845703125 106.23148345947266 27.76349449157715 98.89725494384766 25.042057037353516 88.31497192382812 C 27.774391174316406 77.11808013916016 35.1172981262207 69.7726821899414 45.874732971191406 67.04420471191406 C 56.883914947509766 69.76939392089844 64.17668914794922 77.13508605957031 66.84075927734375 88.31937408447266" stroke-width="0.0" fill="rgb(53, 52, 57)" opacity="1.0"/>
    <path d="M 586.8947143554688 363.17132568359375 C 584.1328125 373.76666259765625 576.7549438476562 381.1041564941406 565.81494140625 383.8829040527344 C 555.255615234375 381.1028747558594 547.8870849609375 373.7488708496094 545.1085815429688 362.9726257324219 C 547.8892822265625 352.24420166015625 555.2396240234375 344.8785095214844 565.9740600585938 342.11859130859375 C 576.781494140625 344.87249755859375 584.1400146484375 352.2134094238281 586.8947143554688 363.17132568359375" stroke-width="0.0" fill="rgb(135, 139, 145)" opacity="1.0"/>
    <path d="M 69.9824447631836 452.99896240234375 C 67.33503723144531 463.0522155761719 60.19667053222656 470.7312316894531 49.9649543762207 473.8680419921875 C 40.627601623535156 470.3175048828125 33.518436431884766 462.2384948730469 30.942018508911133 453.396728515625 C 33.557552337646484 443.85369873046875 40.854549407958984 436.55963134765625 50.79945373535156 433.9160461425781 C 60.01264190673828 435.68756103515625 67.32592010498047 442.98504638671875 69.9824447631836 452.99896240234375" stroke-width="0.0" fill="rgb(88, 82, 74)" opacity="0.99001116"/>
    <path d="M 107.94284057617188 415.9959411621094 C 105.20965576171875 426.8624572753906 97.85038757324219 434.17718505859375 87.70038604736328 436.74951171875 C 77.0299072265625 433.2888488769531 69.71952819824219 425.9678955078125 67.04905700683594 415.9661865234375 C 69.67604064941406 406.0058288574219 77.0129623413086 398.7007751464844 87.35753631591797 395.72857666015625 C 97.74385833740234 397.9995422363281 105.19136047363281 405.19049072265625 107.94284057617188 415.9959411621094" stroke-width="0.0" fill="rgb(90, 90, 91)" opacity="1.0"/>
    <path d="M 89.9384765625 155.2309112548828 C 86.8255844116211 166.26564025878906 79.06974792480469 173.3084259033203 68.62554168701172 176.0379180908203 C 58.25182342529297 174.01266479492188 50.80955123901367 166.8097381591797 48.055301666259766 155.65325927734375 C 50.754276275634766 145.08474731445312 58.08281326293945 137.74888610839844 68.41974639892578 135.04005432128906 C 79.88086700439453 137.7750701904297 87.2222900390625 145.12020874023438 89.9384765625 155.2309112548828" stroke-width="0.0" fill="rgb(14, 12, 11)" opacity="0.9900646"/>
    <path d="M 67.73186492919922 30.633169174194336 C 65.20177459716797 40.88137435913086 57.89601135253906 48.24071502685547 46.97671127319336 50.96027755737305 C 36.09369659423828 48.245418548583984 28.764835357666016 40.902000427246094 26.04591178894043 30.366193771362305 C 28.77817726135254 19.117576599121094 36.11257553100586 11.766706466674805 46.24087905883789 9.039737701416016 C 57.69054412841797 11.8782377243042 64.92805480957031 19.395286560058594 67.73186492919922 30.633169174194336" stroke-width="0.0" fill="rgb(13, 14, 11)" opacity="0.9900204"/>
    <path d="M 505.9847106933594 297.0196533203125 C 503.3438415527344 307.0492248535156 496.12677001953125 314.58251953125 485.120849609375 317.9459533691406 C 475.0823974609375 315.25164794921875 467.74676513671875 307.9183654785156 465.0403137207031 297.7481384277344 C 467.84619140625 286.26934814453125 475.3455505371094 278.99847412109375 485.364990234375 277.7056579589844 C 495.81793212890625 280.0153503417969 503.261962890625 287.0887756347656 505.9847106933594 297.0196533203125" stroke-width="0.0" fill="rgb(18, 19, 16)" opacity="0.9900476"/>
    <path d="M 618.0 479.0 C 615.3206787109375 489.00054931640625 608.003173828125 496.3302001953125 597.2701416015625 499.8447265625 C 587.2123413085938 497.1432800292969 579.8550415039062 489.78857421875 577.1783447265625 479.7155456542969 C 580.6494750976562 468.9348449707031 587.7898559570312 461.25531005859375 597.484130859375 458.2441101074219 C 608.0012817382812 461.67559814453125 615.320556640625 468.9997863769531 618.0 479.0" stroke-width="0.0" fill="rgb(121, 123, 127)" opacity="1.0"/>
    <path d="M 439.0338134765625 538.9702758789062 C 436.330810546875 549.009765625 429.0110168457031 556.3348999023438 419.0041809082031 559.010986328125 C 408.9964294433594 556.3250122070312 401.677490234375 549.0028686523438 398.7681884765625 538.7213134765625 C 401.0793151855469 528.325927734375 408.247802734375 520.8514404296875 418.4447021484375 518.0839233398438 C 429.5068054199219 520.9911499023438 436.5061340332031 528.68505859375 439.0338134765625 538.9702758789062" stroke-width="0.0" fill="rgb(86, 86, 89)" opacity="1.0"/>
    <path d="M 120.98633575439453 256.9836120605469 C 118.30532836914062 266.9885559082031 110.98960876464844 274.3089294433594 101.00234985351562 276.96759033203125 C 91.0060043334961 274.3111572265625 83.69393920898438 266.9925231933594 81.05844116210938 256.9909973144531 C 83.68521118164062 247.00071716308594 90.99627685546875 239.66995239257812 100.99835968017578 236.96829223632812 C 111.00907897949219 239.6687774658203 118.33326721191406 246.99032592773438 120.98633575439453 256.9836120605469" stroke-width="0.0" fill="rgb(79, 77, 79)" opacity="0.9915648"/>
    <path d="M 254.93630981445312 230.32264709472656 C 252.21014404296875 240.8860321044922 244.90155029296875 248.24803161621094 233.9925079345703 250.9675750732422 C 223.0845489501953 248.25167846679688 215.7481231689453 240.91552734375 213.04190063476562 230.82135009765625 C 215.88143920898438 219.31520080566406 223.4402618408203 212.22596740722656 233.8861541748047 210.11270141601562 C 244.4897918701172 212.34878540039062 252.11341857910156 219.3424530029297 254.93630981445312 230.32264709472656" stroke-width="0.0" fill="rgb(75, 74, 76)" opacity="1.0"/>
  </g>
</svg>
