<?xml version="1.0" ?>
<svg xmlns="http://www.w3.org/2000/svg" version="1.1" width="600" height="600">
  <defs/>
  <g>
    <path d="M 350.8902282714844 13.630082130432129 C 348.1744689941406 23.830604553222656 340.8348693847656 31.18450927734375 330.13909912109375 33.925113677978516 C 319.3416442871094 31.11581802368164 312.3392333984375 23.488746643066406 309.9486999511719 13.086694717407227 C 312.67950439453125 3.0 320.0 -4.320508003234863 330.2355651855469 -7.20924711227417 C 340.5749206542969 -4.842103481292725 348.03631591796875 2.3609256744384766 350.8902282714844 13.630082130432129" stroke-width="0.0" fill="rgb(178, 170, 133)" opacity="1.0"/>
    <path d="M 459.5923767089844 397.5726623535156 C 457.10772705078125 407.7740173339844 449.76324462890625 415.072509765625 439.49102783203125 417.4796447753906 C 429.0 414.32049560546875 421.67950439453125 407.0 419.56134033203125 397.44305419921875 C 422.2872314453125 387.500244140625 429.4033203125 379.9904479980469 438.6312255859375 377.6225280761719 C 448.72808837890625 380.13140869140625 456.2510681152344 387.13702392578125 459.5923767089844 397.5726623535156" stroke-width="0.0" fill="rgb(33, 20, 11)" opacity="0.99007565"/>
    <path d="M 547.6619262695312 212.03128051757812 C 544.6860961914062 222.3029327392578 537.247802734375 229.49517822265625 526.99853515625 231.8777618408203 C 517.0 229.3205108642578 509.67950439453125 222.0 507.0130310058594 212.020751953125 C 509.7701416015625 202.1392059326172 517.2034301757812 194.97344970703125 527.3189086914062 192.1463623046875 C 537.3870239257812 194.25146484375 544.715576171875 201.62490844726562 547.6619262695312 212.03128051757812" stroke-width="0.0" fill="rgb(251, 243, 232)" opacity="1.0"/>
    <path d="M 592.7564086914062 351.0605163574219 C 589.9041137695312 361.4606628417969 582.3616943359375 368.61187744140625 571.9786376953125 371.13824462890625 C 561.458740234375 368.7195739746094 553.8739013671875 361.6865234375 551.0740966796875 350.8739013671875 C 553.8331909179688 340.18402099609375 561.1848754882812 332.8356018066406 571.5284423828125 330.09722900390625 C 582.7075805664062 332.90496826171875 589.9928588867188 340.331298828125 592.7564086914062 351.0605163574219" stroke-width="0.0" fill="rgb(140, 136, 85)" opacity="0.9900802"/>
    <path d="M 226.4486083984375 290.180419921875 C 223.57742309570312 300.13836669921875 216.066162109375 307.352783203125 206.00491333007812 310.0022888183594 C 196.000732421875 307.32037353515625 188.76734924316406 299.97406005859375 186.76730346679688 289.5920104980469 C 188.2734375 279.58233642578125 195.5887908935547 272.2901611328125 205.7650146484375 269.8765869140625 C 215.96670532226562 272.746826171875 223.3208465576172 280.0135498046875 226.4486083984375 290.180419921875" stroke-width="0.0" fill="rgb(251, 241, 225)" opacity="0.99317926"/>
    <path d="M 300.7815246582031 459.5419616699219 C 297.8724365234375 469.3447570800781 290.1686096191406 476.4055480957031 280.0133056640625 479.0064392089844 C 270.0 476.32049560546875 262.67950439453125 469.0 259.98126220703125 458.9771423339844 C 262.5969543457031 448.8891296386719 269.83642578125 441.4283447265625 279.7843933105469 438.6529846191406 C 290.00360107421875 441.68115234375 297.37158203125 448.9813537597656 300.7815246582031 459.5419616699219" stroke-width="0.0" fill="rgb(206, 148, 76)" opacity="0.9900753"/>
    <path d="M 335.5838317871094 140.59486389160156 C 333.0398864746094 150.70932006835938 325.7454833984375 158.13063049316406 315.7283630371094 160.84335327148438 C 305.0 157.3205108642578 297.679443359375 150.00001525878906 294.3119201660156 139.49209594726562 C 297.10028076171875 129.6797637939453 305.1883850097656 123.18871307373047 315.1796569824219 120.7816162109375 C 324.55511474609375 123.19779968261719 331.83575439453125 130.43426513671875 335.5838317871094 140.59486389160156" stroke-width="0.0" fill="rgb(237, 188, 133)" opacity="0.99012685"/>
    <path d="M 611.9540405273438 138.16493225097656 C 609.5748901367188 148.40504455566406 602.5974731445312 156.07884216308594 591.6087646484375 158.91604614257812 C 581.1419677734375 156.18914794921875 573.7630615234375 148.8795623779297 571.03125 137.48062133789062 C 573.7575073242188 127.14254760742188 581.4183959960938 121.4827651977539 591.5811767578125 118.9708023071289 C 601.2435302734375 121.544677734375 608.8798828125 128.5982208251953 611.9540405273438 138.16493225097656" stroke-width="0.0" fill="rgb(3, 4, 3)" opacity="0.99001455"/>
    <path d="M 352.7481689453125 414.3099365234375 C 349.32049560546875 425.0 342.0 432.32049560546875 331.31951904296875 435.723388671875 C 321.1585693359375 433.1694030761719 313.7972717285156 425.853759765625 311.08013916015625 415.77947998046875 C 315.1810607910156 405.6772155761719 322.7563781738281 398.4989929199219 332.8338623046875 395.8460388183594 C 342.8376770019531 396.8246154785156 350.1676025390625 404.1651611328125 352.7481689453125 414.3099365234375" stroke-width="0.0" fill="rgb(189, 68, 39)" opacity="0.9900489"/>
    <path d="M 186.88885498046875 298.773193359375 C 184.17410278320312 309.82830810546875 176.8122100830078 317.1253662109375 166.50299072265625 319.16650390625 C 155.62570190429688 316.7406921386719 148.37767028808594 309.3377990722656 145.899658203125 299.1107177734375 C 148.66627502441406 288.9718322753906 155.92845153808594 281.52459716796875 166.62002563476562 278.390869140625 C 176.81787109375 280.853515625 184.17544555664062 288.1718444824219 186.88885498046875 298.773193359375" stroke-width="0.0" fill="rgb(191, 68, 41)" opacity="0.99004173"/>
    <path d="M 127.92984008789062 505.7367248535156 C 125.12328338623047 516.6929321289062 117.56696319580078 523.7672729492188 107.50037384033203 526.2001953125 C 97.79354858398438 522.5364379882812 90.53308868408203 515.1829833984375 87.9355239868164 506.0086364746094 C 90.52054595947266 496.786865234375 97.73362731933594 489.34515380859375 107.73255920410156 485.1078186035156 C 117.8245620727539 487.827392578125 125.17460632324219 495.1746520996094 127.92984008789062 505.7367248535156" stroke-width="0.0" fill="rgb(255, 76, 47)" opacity="0.99001473"/>
    <path d="M 456.83642578125 563.7640380859375 C 454.19659423828125 573.8616943359375 446.87200927734375 581.2214965820312 436.6437072753906 583.9454345703125 C 425.2119140625 581.1641845703125 417.9064025878906 573.75830078125 415.12255859375 562.8732299804688 C 417.8838195800781 552.2327880859375 425.2298278808594 544.8760986328125 435.3360595703125 542.2362060546875 C 446.0 545.6795043945312 453.32049560546875 553.0 456.83642578125 563.7640380859375" stroke-width="0.0" fill="rgb(183, 174, 144)" opacity="1.0"/>
    <path d="M 136.94557189941406 402.3465270996094 C 134.1802215576172 413.8360900878906 126.85125732421875 421.2124328613281 116.63703918457031 423.9466552734375 C 105.26318359375 421.13519287109375 97.92253112792969 413.7095642089844 95.09942626953125 402.37652587890625 C 97.8117446899414 392.1617736816406 105.17091369628906 384.8345642089844 116.72139739990234 382.066162109375 C 126.89131164550781 384.7684020996094 134.22850036621094 392.11004638671875 136.94557189941406 402.3465270996094" stroke-width="0.0" fill="rgb(167, 159, 120)" opacity="1.0"/>
    <path d="M 45.08543014526367 322.8937072753906 C 44.188743591308594 332.8223876953125 36.78130340576172 340.0709228515625 26.484731674194336 342.4943542480469 C 16.0 339.32049560546875 8.679491996765137 332.0 5.938766956329346 321.9047546386719 C 8.3494291305542 311.55792236328125 15.468206405639648 304.0614013671875 25.152151107788086 302.9358825683594 C 35.11251449584961 305.5863342285156 42.411746978759766 312.8883056640625 45.08543014526367 322.8937072753906" stroke-width="0.0" fill="rgb(51, 44, 46)" opacity="0.99000806"/>
    <path d="M 304.9503479003906 478.89447021484375 C 302.2550964355469 488.9140930175781 294.9020080566406 496.22314453125 284.7721252441406 498.8020935058594 C 274.0 495.32049560546875 266.67950439453125 488.0 264.0 478.0 C 266.67950439453125 468.0000305175781 274.0011291503906 460.68353271484375 283.262939453125 458.8653259277344 C 293.2554931640625 461.4870300292969 300.6684265136719 468.69158935546875 304.9503479003906 478.89447021484375" stroke-width="0.0" fill="rgb(4, 4, 5)" opacity="0.9900454"/>
    <path d="M 304.00189208984375 158.995849609375 C 301.32049560546875 169.0 294.0 176.3205108642578 283.900390625 179.0679168701172 C 273.55181884765625 176.65682983398438 265.97509765625 169.5760955810547 263.1534118652344 159.11862182617188 C 265.9618225097656 148.3355712890625 273.3331298828125 140.95526123046875 283.4436340332031 138.17779541015625 C 294.1607971191406 141.3660125732422 301.3507080078125 148.9337615966797 304.00189208984375 158.995849609375" stroke-width="0.0" fill="rgb(232, 181, 129)" opacity="1.0"/>
    <path d="M 176.00526428222656 390.9915466308594 C 173.34288024902344 401.06048583984375 166.21710205078125 408.76165771484375 155.16476440429688 411.93646240234375 C 145.10076904296875 409.2398376464844 137.76382446289062 401.8974304199219 135.0380096435547 390.62109375 C 137.75413513183594 380.1009826660156 145.1200714111328 372.8041687011719 155.36187744140625 370.1130065917969 C 166.3285369873047 373.140380859375 173.39320373535156 380.84759521484375 176.00526428222656 390.9915466308594" stroke-width="0.0" fill="rgb(168, 135, 82)" opacity="1.0"/>
    <path d="M 37.00047302246094 477.00128173828125 C 34.335872650146484 487.0416259765625 27.15557861328125 494.66363525390625 16.189205169677734 497.925537109375 C 6.135391712188721 495.2166748046875 -1.1694786548614502 487.8467712402344 -3.844520092010498 476.80743408203125 C -1.1843345165252686 466.1373291015625 6.121527194976807 458.77337646484375 16.154714584350586 456.0814514160156 C 27.007570266723633 459.65411376953125 34.3206901550293 466.9993896484375 37.00047302246094 477.00128173828125" stroke-width="0.0" fill="rgb(137, 44, 31)" opacity="1.0"/>
    <path d="M 557.0667114257812 283.0951232910156 C 554.3963012695312 293.0937805175781 547.0946655273438 300.39849853515625 537.6514282226562 303.0322570800781 C 528.8499755859375 300.419677734375 520.643798828125 293.2471923828125 517.0488891601562 283.3504333496094 C 519.824951171875 273.2052307128906 527.2369384765625 265.89642333984375 537.769775390625 263.1647033691406 C 548.7613525390625 265.8993835449219 556.1531982421875 273.2170104980469 557.0667114257812 283.0951232910156" stroke-width="0.0" fill="rgb(30, 27, 31)" opacity="0.99000406"/>
    <path d="M 308.0230407714844 534.203857421875 C 305.57421875 544.1865844726562 298.1298522949219 551.3909912109375 287.90057373046875 554.3161010742188 C 278.07037353515625 551.4921264648438 271.0046081542969 543.7804565429688 268.6520690917969 534.1961669921875 C 270.69012451171875 524.0211791992188 278.0353698730469 516.733154296875 288.0204772949219 514.0263671875 C 297.9813537597656 516.690185546875 305.2552795410156 524.0347900390625 308.0230407714844 534.203857421875" stroke-width="0.0" fill="rgb(251, 243, 232)" opacity="1.0"/>
    <path d="M 475.05548095703125 546.09716796875 C 472.6982727050781 556.5357055664062 465.7030029296875 564.1486206054688 455.8302001953125 566.8850708007812 C 445.5916748046875 562.6770629882812 438.2906799316406 555.4199829101562 434.2279052734375 545.1937866210938 C 436.7998352050781 535.1522827148438 444.1725158691406 527.8551635742188 454.3656005859375 525.3148803710938 C 465.0 528.6795043945312 472.32049560546875 536.0 475.05548095703125 546.09716796875" stroke-width="0.0" fill="rgb(246, 73, 47)" opacity="0.9906286"/>
    <path d="M 82.00731658935547 218.00424194335938 C 79.32098388671875 227.98089599609375 71.95195007324219 235.2254638671875 61.567535400390625 238.4224853515625 C 51.37972640991211 235.94374084472656 44.02444839477539 228.63153076171875 42.82881546020508 217.90599060058594 C 44.296993255615234 207.6947784423828 51.70859909057617 200.3394775390625 61.79077911376953 197.6858367919922 C 72.0 200.6794891357422 79.32051086425781 208.0 82.00731658935547 218.00424194335938" stroke-width="0.0" fill="rgb(251, 244, 231)" opacity="1.0"/>
    <path d="M 537.091552734375 385.569091796875 C 535.064453125 395.37799072265625 528.5044555664062 402.8460693359375 518.1368408203125 405.3542785644531 C 507.5727844238281 402.727294921875 500.2115478515625 395.4457702636719 497.7411193847656 385.2410888671875 C 500.67950439453125 375.0 508.0 367.67950439453125 517.3765869140625 365.7214050292969 C 527.2496948242188 368.4610290527344 534.521728515625 375.7567138671875 537.091552734375 385.569091796875" stroke-width="0.0" fill="rgb(107, 104, 96)" opacity="0.99001604"/>
    <path d="M 371.83599853515625 590.883056640625 C 368.9856262207031 601.523681640625 361.3873291015625 608.595703125 351.0733337402344 611.0470581054688 C 341.0 608.3204956054688 333.67950439453125 601.0 330.99908447265625 590.9974975585938 C 333.6515808105469 580.927001953125 340.7626037597656 573.2161865234375 351.6211853027344 570.0991821289062 C 361.7940979003906 572.8458251953125 369.106689453125 580.2235717773438 371.83599853515625 590.883056640625" stroke-width="0.0" fill="rgb(183, 173, 138)" opacity="1.0"/>
    <path d="M 580.1046142578125 391.9199523925781 C 577.3194580078125 401.99969482421875 570.0 409.32049560546875 560.0096435546875 411.9954528808594 C 550.1331176757812 409.25579833984375 543.1797485351562 401.70556640625 540.8628540039062 392.2178649902344 C 543.4140014648438 382.6671447753906 550.617431640625 375.26806640625 560.314697265625 372.32257080078125 C 570.0067749023438 374.67730712890625 577.3983764648438 381.9711608886719 580.1046142578125 391.9199523925781" stroke-width="0.0" fill="rgb(126, 120, 117)" opacity="0.9900484"/>
    <path d="M 244.8440704345703 148.54034423828125 C 241.8058319091797 159.30148315429688 234.1593780517578 166.40782165527344 223.76026916503906 169.2379150390625 C 213.43690490722656 166.84576416015625 205.9940643310547 159.61557006835938 203.16932678222656 148.95140075683594 C 205.9882354736328 138.35983276367188 213.36172485351562 130.9927215576172 223.8241729736328 128.1864471435547 C 234.64456176757812 130.99569702148438 242.04815673828125 138.3383331298828 244.8440704345703 148.54034423828125" stroke-width="0.0" fill="rgb(234, 186, 113)" opacity="1.0"/>
    <path d="M 529.9132690429688 335.9000549316406 C 527.1631469726562 346.8171691894531 519.8173217773438 354.1625061035156 509.6639404296875 356.7873840332031 C 498.3045349121094 353.928466796875 490.8282775878906 346.77801513671875 488.1409912109375 336.7694396972656 C 491.67950439453125 326.0 499.0 318.67950439453125 509.5534973144531 315.4141540527344 C 519.7760620117188 317.9026184082031 527.154052734375 325.2041320800781 529.9132690429688 335.9000549316406" stroke-width="0.0" fill="rgb(163, 155, 119)" opacity="1.0"/>
    <path d="M 418.7313537597656 334.5419006347656 C 416.0025939941406 344.65484619140625 408.6902770996094 352.08734130859375 397.503173828125 354.9054870605469 C 387.25390625 352.1436462402344 380.1083679199219 344.6634826660156 378.4075622558594 334.3785400390625 C 380.866943359375 324.0769348144531 388.02056884765625 316.6867370605469 398.0005187988281 314.0001220703125 C 408.00030517578125 316.6794128417969 415.33233642578125 323.9964904785156 418.7313537597656 334.5419006347656" stroke-width="0.0" fill="rgb(233, 179, 129)" opacity="1.0"/>
    <path d="M 210.873779296875 400.33917236328125 C 208.095947265625 411.76531982421875 200.77102661132812 419.1123962402344 190.60403442382812 421.66546630859375 C 180.0 418.32049560546875 172.6794891357422 411.0 170.0465850830078 401.0207214355469 C 172.70382690429688 391.0110778808594 180.00465393066406 383.6816711425781 190.6386260986328 380.3243713378906 C 200.82998657226562 382.84930419921875 208.19317626953125 390.1549987792969 210.873779296875 400.33917236328125" stroke-width="0.0" fill="rgb(172, 125, 64)" opacity="0.9901135"/>
    <path d="M 147.08619689941406 260.49951171875 C 144.46871948242188 270.1797790527344 137.19618225097656 277.5144958496094 127.1235580444336 281.9386901855469 C 117.24122619628906 279.1925354003906 110.26921844482422 271.58233642578125 107.0983657836914 260.1485290527344 C 109.75175476074219 250.08261108398438 117.08032989501953 242.74595642089844 127.23204040527344 240.03736877441406 C 138.53050231933594 242.86868286132812 144.60476684570312 251.4552001953125 147.08619689941406 260.49951171875" stroke-width="0.0" fill="rgb(4, 5, 5)" opacity="0.9900093"/>
    <path d="M 280.99481201171875 190.98085021972656 C 278.26513671875 200.9188690185547 270.89849853515625 208.20042419433594 260.8619079589844 211.48855590820312 C 250.81829833984375 208.5189666748047 243.33810424804688 201.23056030273438 240.27584838867188 190.56607055664062 C 242.994140625 180.40769958496094 250.4305419921875 173.04612731933594 260.5479736328125 170.31410217285156 C 271.2040100097656 173.31134033203125 278.364501953125 180.90660095214844 280.99481201171875 190.98085021972656" stroke-width="0.0" fill="rgb(246, 221, 200)" opacity="1.0"/>
    <path d="M 197.6663360595703 505.66131591796875 C 194.78717041015625 516.5538330078125 187.65005493164062 524.0691528320312 176.30784606933594 526.9181518554688 C 166.1595916748047 524.188232421875 158.81201171875 516.8405151367188 156.07070922851562 506.3990173339844 C 158.86093139648438 495.2627258300781 166.31626892089844 487.9783935546875 176.39219665527344 485.22296142578125 C 187.09059143066406 488.63836669921875 194.7273406982422 495.7803649902344 197.6663360595703 505.66131591796875" stroke-width="0.0" fill="rgb(224, 89, 67)" opacity="1.0"/>
    <path d="M 515.415283203125 378.9900817871094 C 512.100341796875 389.0906677246094 505.4549560546875 397.0151672363281 495.32666015625 399.8933410644531 C 484.3322448730469 397.0677185058594 477.13214111328125 389.6000671386719 474.07421875 378.146728515625 C 476.77239990234375 368.1417236328125 484.1981506347656 360.9373779296875 494.5787048339844 358.6386413574219 C 505.0000305175781 361.67950439453125 512.3239135742188 368.9990539550781 515.415283203125 378.9900817871094" stroke-width="0.0" fill="rgb(166, 157, 124)" opacity="1.0"/>
    <path d="M 197.4658203125 416.7339782714844 C 195.18133544921875 426.86590576171875 187.88604736328125 434.2352294921875 176.3407745361328 436.9656066894531 C 166.07489013671875 434.2581481933594 158.73997497558594 426.9259338378906 156.03390502929688 416.811767578125 C 158.85850524902344 405.3279113769531 166.599365234375 398.8656921386719 177.14096069335938 396.6137390136719 C 186.5980224609375 399.1059265136719 193.83360290527344 406.42193603515625 197.4658203125 416.7339782714844" stroke-width="0.0" fill="rgb(90, 68, 33)" opacity="1.0"/>
    <path d="M 303.6979675292969 180.24008178710938 C 301.520263671875 190.0850067138672 294.02490234375 197.32965087890625 284.01318359375 199.9932861328125 C 274.1158752441406 197.25531005859375 267.03814697265625 189.78631591796875 264.7562255859375 180.33773803710938 C 267.3567810058594 170.6488494873047 274.6413879394531 163.33285522460938 284.4093322753906 160.44747924804688 C 294.0130310058594 162.67449951171875 301.3840637207031 169.969482421875 303.6979675292969 180.24008178710938" stroke-width="0.0" fill="rgb(250, 241, 225)" opacity="0.990154"/>
    <path d="M 224.96728515625 470.4277648925781 C 222.2109832763672 481.8058166503906 214.66287231445312 488.699951171875 203.87132263183594 490.65118408203125 C 194.0 488.32049560546875 186.6794891357422 481.0 184.0 471.0 C 186.6794891357422 461.0 194.0 453.67950439453125 204.8913116455078 450.0594787597656 C 214.9190673828125 452.74462890625 222.25335693359375 460.0818176269531 224.96728515625 470.4277648925781" stroke-width="0.0" fill="rgb(6, 4, 4)" opacity="0.99050087"/>
    <path d="M 162.2724609375 296.86346435546875 C 159.901123046875 307.5888366699219 152.6302947998047 315.0206604003906 141.4267120361328 317.87457275390625 C 131.1419677734375 315.17974853515625 123.7710952758789 307.87744140625 121.04991912841797 297.5407409667969 C 123.7978286743164 286.1559753417969 131.1787872314453 278.85675048828125 141.74586486816406 276.1416015625 C 152.66969299316406 278.9429016113281 159.9468536376953 286.3697814941406 162.2724609375 296.86346435546875" stroke-width="0.0" fill="rgb(223, 169, 100)" opacity="1.0"/>
    <path d="M 153.9483184814453 160.72718811035156 C 151.2381591796875 170.89596557617188 143.89247131347656 178.23036193847656 133.57168579101562 180.9442138671875 C 122.15359497070312 178.19911193847656 114.8213119506836 170.83799743652344 112.06877136230469 159.65350341796875 C 114.80867004394531 149.15701293945312 122.1596450805664 141.8153839111328 133.04055786132812 139.0745849609375 C 143.82684326171875 141.82627868652344 151.18771362304688 149.16702270507812 153.9483184814453 160.72718811035156" stroke-width="0.0" fill="rgb(250, 75, 44)" opacity="1.0"/>
    <path d="M 107.64269256591797 171.55191040039062 C 105.47368621826172 182.0683135986328 98.02398681640625 189.32958984375 87.67166900634766 192.35354614257812 C 77.39037322998047 189.9114532470703 69.99366760253906 182.6410369873047 68.75584411621094 172.3406219482422 C 70.68280792236328 161.7752685546875 77.54715728759766 154.02679443359375 87.3335189819336 151.4349822998047 C 98.52165222167969 154.14212036132812 105.9332275390625 161.454833984375 107.64269256591797 171.55191040039062" stroke-width="0.0" fill="rgb(7, 9, 11)" opacity="0.9900073"/>
    <path d="M 150.6832275390625 108.35285949707031 C 147.3205108642578 119.0 140.0 126.32051086425781 129.6276397705078 129.37916564941406 C 119.36326599121094 126.95764923095703 112.0338363647461 119.63934326171875 109.34367370605469 108.65013885498047 C 111.89965057373047 98.20539855957031 119.17374420166016 90.8109130859375 130.12892150878906 88.06402587890625 C 140.8532257080078 90.79759979248047 148.1565399169922 98.16316986083984 150.6832275390625 108.35285949707031" stroke-width="0.0" fill="rgb(254, 71, 41)" opacity="1.0"/>
    <path d="M 576.93359375 435.71856689453125 C 574.2155151367188 445.8684387207031 566.8590698242188 453.19171142578125 556.30126953125 455.89739990234375 C 545.1649780273438 453.1747741699219 537.8217163085938 445.836181640625 535.0972900390625 435.2148742675781 C 537.8480224609375 424.2032775878906 545.2129516601562 416.8730773925781 555.4341430664062 414.2221984863281 C 566.67041015625 417.0361328125 574.1185302734375 424.27392578125 576.93359375 435.71856689453125" stroke-width="0.0" fill="rgb(184, 174, 139)" opacity="1.0"/>
    <path d="M 507.1417541503906 292.4338073730469 C 504.85552978515625 302.7467346191406 497.90313720703125 310.27838134765625 487.994873046875 312.99786376953125 C 478.0 310.32049560546875 470.67950439453125 303.0 467.41131591796875 292.3892517089844 C 469.8371887207031 282.1343688964844 477.1062316894531 274.7558288574219 488.3886413574219 272.0304870605469 C 498.8828125 274.7551574707031 506.0658874511719 282.1712341308594 507.1417541503906 292.4338073730469" stroke-width="0.0" fill="rgb(3, 4, 4)" opacity="0.99006665"/>
    <path d="M 248.9286346435547 173.38735961914062 C 246.15948486328125 183.8181915283203 238.83229064941406 191.19180297851562 228.43605041503906 193.9354248046875 C 217.15870666503906 191.18804931640625 209.8372344970703 183.8321990966797 207.16497802734375 173.31964111328125 C 209.96726989746094 162.4183349609375 217.55096435546875 155.34756469726562 227.74017333984375 153.31060791015625 C 237.92544555664062 156.01605224609375 246.01116943359375 162.58639526367188 248.9286346435547 173.38735961914062" stroke-width="0.0" fill="rgb(181, 67, 38)" opacity="0.9900173"/>
    <path d="M 480.02691650390625 39.481136322021484 C 477.39678955078125 48.112762451171875 470.152587890625 55.5135612487793 460.47283935546875 58.52328109741211 C 451.0 56.32050704956055 443.67950439453125 49.0 440.18017578125 38.2186279296875 C 442.7752380371094 28.096630096435547 450.0843505859375 20.743284225463867 460.0989685058594 18.04654884338379 C 470.0977783203125 22.568389892578125 477.385498046875 29.91691017150879 480.02691650390625 39.481136322021484" stroke-width="0.0" fill="rgb(4, 6, 7)" opacity="0.99000996"/>
    <path d="M 312.91705322265625 514.54541015625 C 309.4363708496094 524.44384765625 301.31573486328125 531.5643310546875 291.23236083984375 534.206298828125 C 281.2115783691406 533.1234741210938 273.83331298828125 525.8043212890625 271.0790100097656 515.6663208007812 C 273.9183654785156 504.32177734375 281.3993835449219 497.14984130859375 292.85931396484375 494.07135009765625 C 302.88330078125 496.7660217285156 310.1841125488281 504.13629150390625 312.91705322265625 514.54541015625" stroke-width="0.0" fill="rgb(131, 128, 101)" opacity="0.99025905"/>
    <path d="M 445.9031066894531 446.16961669921875 C 442.9031982421875 457.498046875 435.5132141113281 464.9385681152344 424.1215515136719 467.93865966796875 C 414.0736389160156 465.26080322265625 406.74029541015625 457.92584228515625 404.0288391113281 446.8603210449219 C 406.7386779785156 436.0740051269531 414.0753479003906 428.7416687011719 424.70977783203125 426.0324401855469 C 435.9225158691406 428.7435607910156 443.25067138671875 436.0797119140625 445.9031066894531 446.16961669921875" stroke-width="0.0" fill="rgb(3, 3, 3)" opacity="0.99002194"/>
    <path d="M 457.9307556152344 506.1174011230469 C 455.1876220703125 516.842529296875 447.8428649902344 524.1884765625 436.8515930175781 526.9346923828125 C 426.1455383300781 524.1973266601562 418.7961730957031 516.8571166992188 416.056640625 505.7030334472656 C 418.79107666015625 495.1450500488281 426.15374755859375 487.81121826171875 437.0296325683594 485.0666809082031 C 447.8326416015625 487.817138671875 455.1792297363281 495.1688232421875 457.9307556152344 506.1174011230469" stroke-width="0.0" fill="rgb(251, 72, 42)" opacity="1.0"/>
    <path d="M 268.29046630859375 332.7164611816406 C 265.1873779296875 342.98931884765625 258.08197021484375 350.4735412597656 248.0512237548828 353.3498840332031 C 237.75784301757812 350.5948791503906 230.51824951171875 343.20977783203125 227.39242553710938 332.6929016113281 C 230.4268798828125 322.9800109863281 238.11300659179688 315.82855224609375 248.09136962890625 312.9207763671875 C 258.349365234375 315.3624267578125 265.71307373046875 322.62933349609375 268.29046630859375 332.7164611816406" stroke-width="0.0" fill="rgb(255, 246, 230)" opacity="0.9903583"/>
    <path d="M 320.878173828125 435.3711242675781 C 317.9781494140625 446.6070251464844 310.5966796875 453.9504089355469 300.26922607421875 456.7046813964844 C 289.6231689453125 453.74468994140625 282.1809997558594 446.40362548828125 279.1932678222656 435.67291259765625 C 281.96502685546875 425.33270263671875 289.34332275390625 417.992919921875 300.6328125 415.1226806640625 C 310.7689208984375 417.8659362792969 318.1316223144531 425.23211669921875 320.878173828125 435.3711242675781" stroke-width="0.0" fill="rgb(243, 197, 125)" opacity="1.0"/>
    <path d="M 453.8571472167969 405.813232421875 C 451.2344970703125 415.9076232910156 443.9158935546875 423.25537109375 433.531982421875 425.9678039550781 C 422.1158447265625 423.2401428222656 414.86016845703125 415.8486633300781 413.8023376464844 405.78314208984375 C 416.50506591796875 395.7730407714844 423.7276306152344 388.37091064453125 433.2945861816406 385.5704345703125 C 442.8744201660156 387.90643310546875 450.2843322753906 395.0654296875 453.8571472167969 405.813232421875" stroke-width="0.0" fill="rgb(20, 10, 4)" opacity="0.99002564"/>
    <path d="M 495.7873840332031 328.7442626953125 C 493.20623779296875 338.8861999511719 485.9007263183594 346.2447204589844 475.6003723144531 348.96160888671875 C 464.25762939453125 346.1790466308594 457.2728271484375 338.57196044921875 454.9405212402344 328.1053161621094 C 457.67950439453125 318.0 465.0 310.67950439453125 475.0 308.0 C 485.0 310.67950439453125 492.32049560546875 318.0 495.7873840332031 328.7442626953125" stroke-width="0.0" fill="rgb(0, 0, 0)" opacity="1.0"/>
    <path d="M 118.67790222167969 190.3469696044922 C 115.32070922851562 201.00062561035156 108.00440979003906 208.3344268798828 97.76822662353516 211.53123474121094 C 87.92171478271484 208.5094757080078 80.67029571533203 201.02203369140625 77.30540466308594 190.4481964111328 C 80.01302337646484 180.47955322265625 87.7127914428711 173.92417907714844 98.76112365722656 170.1730499267578 C 108.84444427490234 172.81773376464844 116.1617660522461 180.16220092773438 118.67790222167969 190.3469696044922" stroke-width="0.0" fill="rgb(137, 131, 84)" opacity="0.9902442"/>
    <path d="M 136.3565216064453 201.6167755126953 C 133.35162353515625 212.08261108398438 126.27350616455078 219.83554077148438 115.65350341796875 222.88002014160156 C 105.22205352783203 220.1309814453125 97.93011474609375 212.75787353515625 95.61338806152344 202.5225067138672 C 98.89450073242188 192.23007202148438 106.29620361328125 185.0890655517578 116.81627655029297 181.11412048339844 C 126.8033447265625 183.81370544433594 134.0103302001953 191.2591552734375 136.3565216064453 201.6167755126953" stroke-width="0.0" fill="rgb(168, 155, 117)" opacity="1.0"/>
    <path d="M 470.964599609375 183.43853759765625 C 468.25677490234375 194.92430114746094 460.923583984375 202.25538635253906 450.90966796875 204.8807373046875 C 440.6876220703125 200.54884338378906 433.3310852050781 193.36268615722656 429.71514892578125 183.1635284423828 C 431.77777099609375 173.14141845703125 439.23931884765625 167.1116180419922 449.8017883300781 164.96142578125 C 460.7456970214844 167.27511596679688 468.2439270019531 173.1272430419922 470.964599609375 183.43853759765625" stroke-width="0.0" fill="rgb(2, 3, 6)" opacity="0.99001163"/>
    <path d="M 332.96856689453125 13.038994789123535 C 330.5289611816406 23.340646743774414 323.4780578613281 30.939239501953125 313.5370178222656 33.544532775878906 C 302.5477294921875 30.383039474487305 294.90869140625 23.641122817993164 292.1368408203125 13.551087379455566 C 295.0672912597656 2.495680809020996 302.58306884765625 -4.671350955963135 312.8702392578125 -7.101730823516846 C 322.9844665527344 -4.305999279022217 330.3012390136719 3.016937494277954 332.96856689453125 13.038994789123535" stroke-width="0.0" fill="rgb(184, 169, 139)" opacity="1.0"/>
    <path d="M 38.91594314575195 367.788330078125 C 36.144596099853516 378.7618408203125 28.707719802856445 385.9884338378906 18.37352752685547 388.3565979003906 C 8.0 385.32049560546875 0.6794919371604919 378.0 -2.7765767574310303 367.28314208984375 C -0.17491483688354492 357.17803955078125 7.206208229064941 349.91265869140625 17.890052795410156 347.3511657714844 C 28.732324600219727 349.9617004394531 36.151004791259766 357.2265930175781 38.91594314575195 367.788330078125" stroke-width="0.0" fill="rgb(179, 169, 134)" opacity="1.0"/>
    <path d="M 29.590696334838867 324.4382019042969 C 27.249507904052734 334.9776916503906 19.997774124145508 342.31982421875 9.999975204467773 345.0 C 3.552713678800501e-15 342.32049560546875 -7.320508003234863 335.0 -10.092823028564453 324.8636169433594 C -7.742537498474121 314.4593505859375 -0.6634042859077454 306.9040832519531 9.44675350189209 304.1224060058594 C 20.624406814575195 307.05517578125 28.061471939086914 314.32958984375 29.590696334838867 324.4382019042969" stroke-width="0.0" fill="rgb(175, 166, 127)" opacity="1.0"/>
    <path d="M 589.921875 482.4268798828125 C 587.0892944335938 493.50421142578125 578.5397338867188 499.5657958984375 569.5013427734375 502.0654602050781 C 559.8243408203125 499.46234130859375 552.52783203125 492.17987060546875 548.480712890625 482.10791015625 C 550.7737426757812 472.11383056640625 558.1168212890625 464.78125 568.7714233398438 462.0594177246094 C 579.8603515625 464.7941589355469 587.1971435546875 472.14324951171875 589.921875 482.4268798828125" stroke-width="0.0" fill="rgb(242, 81, 49)" opacity="0.99002594"/>
    <path d="M 29.090604782104492 385.6322937011719 C 26.50074577331543 395.2740173339844 19.54790687561035 403.9651794433594 10.36432933807373 406.9424743652344 C -0.6234928369522095 404.0839538574219 -7.665093898773193 396.46783447265625 -10.096668243408203 386.0445251464844 C -7.581824779510498 375.6017150878906 -0.5644547939300537 367.9617614746094 9.157678604125977 366.8422546386719 C 19.172819137573242 369.5386657714844 26.479021072387695 376.8202819824219 29.090604782104492 385.6322937011719" stroke-width="0.0" fill="rgb(10, 4, 4)" opacity="0.99000686"/>
    <path d="M 349.7563781738281 576.334716796875 C 346.3224792480469 587.0005493164062 339.0000305175781 594.3204956054688 328.5204772949219 597.5007934570312 C 318.2485046386719 595.0554809570312 310.8725891113281 587.7749633789062 308.4271545410156 577.7131958007812 C 312.3420104980469 567.6350708007812 319.57830810546875 560.0701293945312 329.570556640625 556.107421875 C 339.80218505859375 558.85009765625 347.1391296386719 566.20166015625 349.7563781738281 576.334716796875" stroke-width="0.0" fill="rgb(137, 133, 81)" opacity="0.9901026"/>
    <path d="M 262.6092529296875 234.20217895507812 C 259.63037109375 244.21961975097656 252.1687469482422 251.46922302246094 242.3057861328125 253.75770568847656 C 232.208984375 250.98988342285156 224.75819396972656 243.87277221679688 221.91453552246094 233.9019775390625 C 224.4841766357422 223.82766723632812 231.86289978027344 216.6126251220703 241.90664672851562 214.43592834472656 C 251.90174865722656 216.87728881835938 259.3315734863281 224.03231811523438 262.6092529296875 234.20217895507812" stroke-width="0.0" fill="rgb(255, 245, 229)" opacity="0.99034375"/>
    <path d="M 423.87530517578125 178.22744750976562 C 421.0748596191406 188.68223571777344 413.66046142578125 196.02279663085938 402.70086669921875 198.82662963867188 C 392.26531982421875 196.0873565673828 384.9032897949219 188.73829650878906 382.16583251953125 178.3380889892578 C 384.98626708984375 167.36782836914062 392.3864440917969 160.03419494628906 403.3427429199219 157.25205993652344 C 413.7233581542969 159.9188690185547 421.0726013183594 167.28073120117188 423.87530517578125 178.22744750976562" stroke-width="0.0" fill="rgb(249, 206, 131)" opacity="1.0"/>
    <path d="M 20.47404670715332 161.502197265625 C 17.38759422302246 172.14720153808594 10.34165096282959 179.88575744628906 0.5991160273551941 182.79855346679688 C -10.0 179.3205108642578 -17.32050895690918 172.0 -20.0 162.0 C -17.32050895690918 152.0 -10.0 144.6794891357422 0.8559155464172363 141.07696533203125 C 10.859444618225098 143.77635192871094 18.09872055053711 151.18441772460938 20.47404670715332 161.502197265625" stroke-width="0.0" fill="rgb(139, 42, 28)" opacity="1.0"/>
    <path d="M 229.6979522705078 520.4517211914062 C 226.48074340820312 531.142333984375 219.09249877929688 538.295166015625 208.66615295410156 541.3638305664062 C 198.72267150878906 538.7293090820312 191.64598083496094 531.1552734375 189.82989501953125 521.496337890625 C 192.32086181640625 511.49151611328125 199.33245849609375 503.8306579589844 209.4801025390625 501.4619445800781 C 219.61892700195312 503.0748291015625 227.0364532470703 510.3423156738281 229.6979522705078 520.4517211914062" stroke-width="0.0" fill="rgb(249, 243, 231)" opacity="1.0"/>
    <path d="M 64.9173355102539 115.04548645019531 C 62.13811492919922 125.7552261352539 54.698524475097656 132.97023010253906 44.344364166259766 135.3140869140625 C 34.0 132.3205108642578 26.67949104309082 125.0 24.759654998779297 115.6847152709961 C 27.513059616088867 105.8134536743164 34.82141876220703 98.53398895263672 44.17778778076172 95.94011688232422 C 53.29108428955078 98.50242614746094 61.958580017089844 105.3680648803711 64.9173355102539 115.04548645019531" stroke-width="0.0" fill="rgb(245, 79, 44)" opacity="0.9900114"/>
    <path d="M 407.594482421875 278.3034362792969 C 405.77197265625 288.3571472167969 398.31378173828125 295.640625 388.2713623046875 298.25506591796875 C 378.2506408691406 295.0231018066406 370.9683532714844 287.7527770996094 367.7271423339844 277.7521057128906 C 370.3871765136719 267.73236083984375 377.7218933105469 260.3556823730469 388.04986572265625 257.5030822753906 C 398.4862365722656 260.2190856933594 405.908447265625 267.4714050292969 407.594482421875 278.3034362792969" stroke-width="0.0" fill="rgb(251, 241, 226)" opacity="0.99416304"/>
    <path d="M 363.9970397949219 596.0032958984375 C 361.32049560546875 606.0 354.0 613.3204956054688 343.9998779296875 616.0000610351562 C 333.9964294433594 613.3218383789062 326.647705078125 606.0122680664062 323.8811340332031 596.1427001953125 C 327.0228576660156 586.3359375 334.3561096191406 579.0888061523438 344.173828125 576.6111450195312 C 353.93353271484375 578.8258056640625 361.3056945800781 586.0264892578125 363.9970397949219 596.0032958984375" stroke-width="0.0" fill="rgb(184, 173, 139)" opacity="0.99021995"/>
    <path d="M 349.95941162109375 486.7900390625 C 347.2240905761719 496.83575439453125 339.7409973144531 503.9442138671875 328.3423156738281 505.3262023925781 C 318.1192321777344 504.18695068359375 310.7475891113281 496.90447998046875 308.03204345703125 486.7244567871094 C 310.79400634765625 475.1948547363281 318.3054504394531 468.1097412109375 328.80963134765625 465.84954833984375 C 339.3461608886719 468.4897155761719 347.0877685546875 475.4167785644531 349.95941162109375 486.7900390625" stroke-width="0.0" fill="rgb(3, 4, 4)" opacity="0.9900416"/>
    <path d="M 583.8917236328125 400.7211608886719 C 581.1350708007812 410.7509460449219 573.7207641601562 418.0606384277344 563.2713623046875 420.68572998046875 C 552.2396850585938 418.05645751953125 544.8218994140625 410.80401611328125 542.11865234375 400.80181884765625 C 545.8837890625 390.15869140625 553.1380004882812 382.8150939941406 563.0620727539062 380.05535888671875 C 573.115234375 382.61865234375 580.7059326171875 389.7744140625 583.8917236328125 400.7211608886719" stroke-width="0.0" fill="rgb(135, 129, 88)" opacity="0.9900776"/>
    <path d="M 351.9604797363281 471.2315979003906 C 349.189453125 481.7652282714844 341.5994873046875 488.66748046875 331.16119384765625 490.4325866699219 C 321.13482666015625 488.01544189453125 313.14471435546875 481.2295837402344 310.2430419921875 471.4556579589844 C 313.3884582519531 461.0474548339844 321.4053649902344 454.32012939453125 331.7113037109375 451.8336181640625 C 341.70428466796875 452.987548828125 349.1850891113281 460.21905517578125 351.9604797363281 471.2315979003906" stroke-width="0.0" fill="rgb(73, 46, 21)" opacity="0.99001426"/>
    <path d="M 475.9322509765625 46.17805480957031 C 471.58306884765625 56.229984283447266 464.1953125 63.47346878051758 454.46142578125 66.07306671142578 C 445.46484375 63.602027893066406 437.0820007324219 57.23912811279297 434.373046875 47.4114875793457 C 437.6192321777344 37.35063171386719 445.5873718261719 30.428421020507812 455.2341613769531 27.922903060913086 C 465.51153564453125 30.251720428466797 473.1888122558594 36.229854583740234 475.9322509765625 46.17805480957031" stroke-width="0.0" fill="rgb(231, 85, 56)" opacity="0.9900127"/>
    <path d="M 539.0133666992188 217.01589965820312 C 536.3751220703125 227.07180786132812 529.1219482421875 234.5363311767578 519.2806396484375 237.39743041992188 C 509.16046142578125 234.28277587890625 502.14013671875 226.69644165039062 499.39190673828125 216.54710388183594 C 501.0672912597656 206.4053497314453 508.40301513671875 199.05613708496094 518.5742797851562 196.46505737304688 C 529.0 199.67935180664062 536.3201904296875 207.00013732910156 539.0133666992188 217.01589965820312" stroke-width="0.0" fill="rgb(249, 244, 233)" opacity="1.0"/>
    <path d="M 306.3347473144531 192.73606872558594 C 303.403076171875 203.21102905273438 296.25531005859375 210.57594299316406 285.9419250488281 213.3014678955078 C 275.81231689453125 210.52838134765625 268.489013671875 203.1826934814453 266.0687561035156 193.1531982421875 C 268.7756652832031 183.04664611816406 276.0201721191406 175.68621826171875 286.0058898925781 172.97010803222656 C 296.091064453125 175.62464904785156 303.5884094238281 182.84092712402344 306.3347473144531 192.73606872558594" stroke-width="0.0" fill="rgb(251, 240, 226)" opacity="0.9908446"/>
    <path d="M 544.8972778320312 175.8292694091797 C 542.1567993164062 186.82130432128906 534.8324584960938 194.18536376953125 524.428955078125 196.9303741455078 C 513.1900024414062 194.164794921875 505.8423767089844 186.80691528320312 503.0651550292969 175.69338989257812 C 505.8216247558594 165.17855834960938 513.1854248046875 157.83837890625 524.7438354492188 155.0579376220703 C 534.8651733398438 157.77783203125 542.1740112304688 165.15504455566406 544.8972778320312 175.8292694091797" stroke-width="0.0" fill="rgb(137, 132, 81)" opacity="1.0"/>
    <path d="M 447.8116149902344 368.5264587402344 C 445.0673522949219 378.68963623046875 437.68621826171875 386.057861328125 426.78961181640625 388.88421630859375 C 416.375732421875 386.0200500488281 409.0320129394531 378.603759765625 406.2165832519531 367.9200744628906 C 409.0363464355469 357.3981628417969 416.38055419921875 349.9928283691406 426.6807861328125 347.19061279296875 C 437.5564270019531 350.06976318359375 444.9085388183594 357.4517822265625 447.8116149902344 368.5264587402344" stroke-width="0.0" fill="rgb(252, 210, 131)" opacity="1.0"/>
    <path d="M 39.667259216308594 168.33566284179688 C 36.07769775390625 178.7312469482422 28.785615921020508 186.3204345703125 18.181434631347656 189.92788696289062 C 8.15627384185791 187.2095947265625 0.9118751883506775 179.80125427246094 -1.4505953788757324 169.4928741455078 C 1.6426401138305664 158.86062622070312 8.643424987792969 151.09104919433594 19.736900329589844 148.06979370117188 C 29.872413635253906 150.78274536132812 37.1733512878418 158.14285278320312 39.667259216308594 168.33566284179688" stroke-width="0.0" fill="rgb(117, 53, 44)" opacity="0.9900904"/>
    <path d="M 410.9089660644531 507.6275634765625 C 408.142578125 518.7821655273438 400.7546081542969 526.0570678710938 390.453125 527.3165893554688 C 380.30389404296875 525.3471069335938 373.3832702636719 517.4658203125 370.8894958496094 508.0077209472656 C 373.45037841796875 498.7244873046875 380.7041015625 491.3913269042969 390.7993469238281 487.1755065917969 C 400.84649658203125 489.80706787109375 408.17864990234375 497.159423828125 410.9089660644531 507.6275634765625" stroke-width="0.0" fill="rgb(148, 141, 99)" opacity="0.9900325"/>
    <path d="M 573.9481201171875 128.90460205078125 C 571.2596435546875 138.92404174804688 563.9166870117188 146.23960876464844 553.5241088867188 148.8301239013672 C 542.1729736328125 146.18145751953125 534.877197265625 138.8056182861328 533.9326782226562 128.8966522216797 C 536.5997314453125 118.89903259277344 543.8970336914062 111.59540557861328 553.0429077148438 108.96758270263672 C 562.1044921875 111.59593200683594 569.4382934570312 118.8837661743164 573.9481201171875 128.90460205078125" stroke-width="0.0" fill="rgb(76, 20, 15)" opacity="0.99000454"/>
    <path d="M 140.92709350585938 536.216064453125 C 138.1837158203125 546.8342895507812 130.8196563720703 554.1409301757812 120.8182144165039 555.1103515625 C 110.82378387451172 552.4657592773438 103.52915954589844 545.1783447265625 100.92394256591797 535.4215087890625 C 103.27569580078125 526.3185424804688 110.025390625 518.5985107421875 120.75618743896484 515.1512451171875 C 130.82972717285156 517.8216552734375 138.1742401123047 525.1719970703125 140.92709350585938 536.216064453125" stroke-width="0.0" fill="rgb(254, 76, 46)" opacity="0.9900151"/>
    <path d="M 367.8002624511719 428.2241516113281 C 365.046875 438.72119140625 357.7559814453125 446.13525390625 347.6264953613281 448.85028076171875 C 336.4095153808594 445.9499816894531 329.0562744140625 438.5890808105469 327.7932434082031 428.6841735839844 C 330.372314453125 418.576416015625 337.501708984375 411.19500732421875 347.7415466308594 407.8164367675781 C 357.7604675292969 409.864990234375 365.0301818847656 417.2779541015625 367.8002624511719 428.2241516113281" stroke-width="0.0" fill="rgb(251, 207, 135)" opacity="0.99008226"/>
    <path d="M 238.0216827392578 240.03004455566406 C 235.48146057128906 250.22848510742188 228.30859375 257.73382568359375 218.37423706054688 260.2450256347656 C 208.03269958496094 257.2306213378906 200.68197631835938 249.99288940429688 198.03262329101562 240.03475952148438 C 200.7698974609375 230.06253051757812 207.9844207763672 222.52362060546875 218.10874938964844 219.3879852294922 C 228.15310668945312 222.40452575683594 235.36489868164062 229.92117309570312 238.0216827392578 240.03004455566406" stroke-width="0.0" fill="rgb(251, 240, 226)" opacity="1.0"/>
    <path d="M 482.0555114746094 540.9135131835938 C 479.32049560546875 551.0 472.0 558.3204956054688 462.0220947265625 560.9678955078125 C 452.0444030761719 558.270751953125 444.7375183105469 550.9532470703125 441.7758483886719 540.6785888671875 C 444.05902099609375 530.3174438476562 451.24346923828125 522.8480224609375 461.6043701171875 520.07080078125 C 472.6141052246094 522.9212646484375 479.6417236328125 530.548095703125 482.0555114746094 540.9135131835938" stroke-width="0.0" fill="rgb(249, 72, 41)" opacity="1.0"/>
    <path d="M 246.2114715576172 365.7973327636719 C 243.6661376953125 376.44854736328125 236.55223083496094 383.9818115234375 225.69937133789062 386.309814453125 C 215.3424072265625 383.986572265625 208.0093231201172 376.6595764160156 205.34164428710938 365.7965393066406 C 208.17921447753906 355.6408386230469 215.73997497558594 348.466552734375 226.25344848632812 345.65606689453125 C 236.41062927246094 348.2242736816406 243.7147674560547 355.6083068847656 246.2114715576172 365.7973327636719" stroke-width="0.0" fill="rgb(251, 241, 225)" opacity="1.0"/>
    <path d="M 239.0005645751953 48.983299255371094 C 236.3205108642578 59.0 229.0 66.32051086425781 218.8209686279297 69.36882019042969 C 208.89846801757812 66.48363494873047 201.53231811523438 59.099761962890625 199.79495239257812 48.9533576965332 C 201.9879150390625 39.156192779541016 209.062255859375 31.70635414123535 219.2494354248047 28.682510375976562 C 229.31903076171875 31.264827728271484 236.44586181640625 38.76972579956055 239.0005645751953 48.983299255371094" stroke-width="0.0" fill="rgb(251, 246, 235)" opacity="1.0"/>
    <path d="M 315.9050598144531 160.78469848632812 C 313.2073669433594 170.86456298828125 305.8584899902344 178.1905975341797 295.82330322265625 179.23526000976562 C 285.7135925292969 176.5379180908203 278.2579345703125 169.35134887695312 275.657470703125 160.27865600585938 C 278.2268981933594 150.488037109375 285.4728088378906 143.18190002441406 294.8326721191406 140.70355224609375 C 304.7156982421875 143.14146423339844 312.6838684082031 149.98316955566406 315.9050598144531 160.78469848632812" stroke-width="0.0" fill="rgb(203, 98, 61)" opacity="0.99002683"/>
    <path d="M 35.8074951171875 337.71417236328125 C 33.10972595214844 347.720458984375 25.661970138549805 354.9383239746094 14.427343368530273 357.7232360839844 C 4.192744731903076 355.1460876464844 -3.105771064758301 347.79449462890625 -5.543941020965576 337.5447998046875 C -2.3069276809692383 327.0130615234375 5.012807846069336 319.6922302246094 14.930002212524414 317.0668640136719 C 24.721240997314453 319.9071350097656 31.93214988708496 327.32867431640625 35.8074951171875 337.71417236328125" stroke-width="0.0" fill="rgb(176, 166, 128)" opacity="1.0"/>
    <path d="M 93.18740844726562 210.69186401367188 C 91.76277160644531 220.37948608398438 84.35174560546875 227.6790008544922 74.16535186767578 230.17276000976562 C 64.0009536743164 227.3192138671875 56.680301666259766 219.9991912841797 53.97132873535156 209.96682739257812 C 56.57331085205078 199.8719482421875 63.8852424621582 192.6400909423828 73.4401626586914 190.86767578125 C 83.24459838867188 193.46974182128906 90.52801513671875 200.75625610351562 93.18740844726562 210.69186401367188" stroke-width="0.0" fill="rgb(252, 245, 234)" opacity="0.99011207"/>
    <path d="M 222.95904541015625 300.9087219238281 C 220.3489990234375 311.1669616699219 213.2489776611328 318.64593505859375 203.31639099121094 321.0765686035156 C 193.0045928955078 318.15771484375 185.62046813964844 311.073486328125 183.88966369628906 301.5788269042969 C 186.32693481445312 291.4625244140625 193.28228759765625 283.84844970703125 203.03302001953125 281.0177917480469 C 212.99545288085938 283.681640625 220.28504943847656 291.01409912109375 222.95904541015625 300.9087219238281" stroke-width="0.0" fill="rgb(251, 241, 222)" opacity="1.0"/>
    <path d="M 522.6464233398438 366.5540466308594 C 519.9712524414062 376.53875732421875 512.4552001953125 383.74041748046875 502.17474365234375 386.4809875488281 C 491.8775634765625 383.4300231933594 484.3904724121094 376.1819763183594 481.0906066894531 365.17144775390625 C 483.7701416015625 355.10723876953125 491.1117248535156 347.78277587890625 501.2486877441406 345.17279052734375 C 512.5684814453125 348.1250915527344 519.8668212890625 355.43212890625 522.6464233398438 366.5540466308594" stroke-width="0.0" fill="rgb(152, 147, 125)" opacity="1.0"/>
    <path d="M 386.07159423828125 552.8443603515625 C 383.2784118652344 562.8978881835938 375.83587646484375 570.09375 366.39630126953125 572.2745971679688 C 356.1831970214844 570.1085205078125 348.8049621582031 562.834228515625 346.59661865234375 552.8922729492188 C 348.5572814941406 542.9234619140625 355.91241455078125 535.529541015625 366.2286071777344 532.4306640625 C 376.1551208496094 535.3878173828125 383.34075927734375 542.9306030273438 386.07159423828125 552.8443603515625" stroke-width="0.0" fill="rgb(251, 244, 233)" opacity="1.0"/>
    <path d="M 120.37957763671875 274.8682556152344 C 119.23049926757812 284.8963317871094 111.89620208740234 292.2308349609375 101.75336456298828 294.9318542480469 C 90.21141052246094 292.1262512207031 82.82540893554688 284.8089294433594 80.07684326171875 273.8583068847656 C 82.8036117553711 263.1475830078125 90.15418243408203 255.82057189941406 100.38639068603516 253.09791564941406 C 110.44366455078125 256.41302490234375 117.52173614501953 264.7144470214844 120.37957763671875 274.8682556152344" stroke-width="0.0" fill="rgb(145, 141, 114)" opacity="1.0"/>
    <path d="M 38.25596237182617 127.6969223022461 C 36.45529556274414 137.27230834960938 29.530702590942383 145.06008911132812 18.190340042114258 147.95655822753906 C 8.077836990356445 145.25460815429688 0.7456933856010437 137.9221649169922 -1.8705320358276367 127.9076919555664 C 2.5929183959960938 117.9144287109375 9.923846244812012 110.61936950683594 19.541610717773438 107.9759521484375 C 28.112712860107422 110.6002426147461 35.46101379394531 117.8629150390625 38.25596237182617 127.6969223022461" stroke-width="0.0" fill="rgb(3, 3, 4)" opacity="0.9900079"/>
    <path d="M 200.92169189453125 377.3533630371094 C 197.9175567626953 388.37445068359375 190.16485595703125 395.3686828613281 179.79583740234375 397.88372802734375 C 169.8864288330078 395.49005126953125 162.57736206054688 388.0929260253906 159.30921936035156 377.3940734863281 C 161.88636779785156 367.2337646484375 169.2389678955078 359.8994140625 179.61672973632812 357.17706298828125 C 190.73265075683594 359.95361328125 198.1566619873047 367.2245788574219 200.92169189453125 377.3533630371094" stroke-width="0.0" fill="rgb(214, 161, 96)" opacity="1.0"/>
    <path d="M 31.91888999938965 239.39956665039062 C 29.104578018188477 250.7231903076172 21.676700592041016 257.9683532714844 11.363808631896973 260.3572692871094 C 1.0 257.32049560546875 -6.320508003234863 250.0 -9.108073234558105 239.84408569335938 C -6.785095691680908 229.41094970703125 0.2801855802536011 221.8521270751953 10.301331520080566 219.09278869628906 C 21.760578155517578 221.91018676757812 29.167261123657227 229.20806884765625 31.91888999938965 239.39956665039062" stroke-width="0.0" fill="rgb(175, 167, 133)" opacity="1.0"/>
    <path d="M 488.1515197753906 300.73095703125 C 486.20880126953125 309.8531188964844 478.814208984375 317.0821533203125 468.8899230957031 319.8327941894531 C 459.0683898925781 317.2665100097656 451.68780517578125 309.9416198730469 448.6586608886719 299.8748779296875 C 451.2578125 289.5850830078125 458.55560302734375 282.1661682128906 468.4512023925781 279.2810974121094 C 478.24102783203125 283.42919921875 485.5007019042969 290.78173828125 488.1515197753906 300.73095703125" stroke-width="0.0" fill="rgb(193, 138, 70)" opacity="0.99001366"/>
    <path d="M 213.29273986816406 481.83258056640625 C 211.16705322265625 491.8260192871094 203.8251953125 499.1646423339844 193.69454956054688 501.8157043457031 C 183.09506225585938 498.3692321777344 175.41708374023438 490.9757995605469 172.14096069335938 480.4795227050781 C 174.94839477539062 470.39715576171875 182.5315399169922 463.3316650390625 192.44064331054688 461.5769958496094 C 202.25320434570312 464.4334411621094 209.51438903808594 471.7653503417969 213.29273986816406 481.83258056640625" stroke-width="0.0" fill="rgb(154, 145, 101)" opacity="1.0"/>
    <path d="M 42.924217224121094 475.3642272949219 C 40.153873443603516 486.8116760253906 32.81985855102539 494.1739807128906 22.763137817382812 496.85662841796875 C 11.957786560058594 493.3961181640625 4.680022239685059 486.01934814453125 2.0609171390533447 476.0054626464844 C 4.674427509307861 465.9414978027344 11.77927303314209 458.2361755371094 22.787315368652344 455.07659912109375 C 32.87588119506836 457.7841491699219 40.217952728271484 465.123046875 42.924217224121094 475.3642272949219" stroke-width="0.0" fill="rgb(126, 48, 40)" opacity="0.9906344"/>
    <path d="M 76.8309097290039 156.2649688720703 C 73.82078552246094 167.62203979492188 66.71940612792969 175.12725830078125 56.52644348144531 177.89743041992188 C 45.353904724121094 175.03732299804688 38.0298957824707 167.62010192871094 35.44258499145508 157.45297241210938 C 38.67949295043945 147.0 46.0 139.6794891357422 56.575469970703125 136.37310791015625 C 66.78463745117188 138.89443969726562 74.16373443603516 146.19439697265625 76.8309097290039 156.2649688720703" stroke-width="0.0" fill="rgb(130, 123, 73)" opacity="1.0"/>
    <path d="M 151.96070861816406 5.862720012664795 C 149.26040649414062 15.926386833190918 141.92706298828125 23.261837005615234 131.74957275390625 25.969009399414062 C 120.15750885009766 23.228899002075195 114.42733764648438 15.615262985229492 111.96378326416016 4.665245532989502 C 114.42597961425781 -4.465773105621338 121.26508331298828 -12.192051887512207 131.0325469970703 -14.999897003173828 C 141.2464599609375 -12.440409660339355 149.0288848876953 -5.49343729019165 151.96070861816406 5.862720012664795" stroke-width="0.0" fill="rgb(3, 3, 3)" opacity="0.9900318"/>
    <path d="M 25.88738441467285 262.26751708984375 C 23.0897159576416 272.7007141113281 15.664463996887207 279.99713134765625 4.417751312255859 282.88543701171875 C -5.4684834480285645 280.0055847167969 -12.433357238769531 272.23236083984375 -15.007662773132324 262.0132751464844 C -12.338671684265137 251.95742797851562 -5.12062406539917 244.42138671875 4.754735469818115 241.344482421875 C 15.24434757232666 244.58351135253906 22.982389450073242 251.5385284423828 25.88738441467285 262.26751708984375" stroke-width="0.0" fill="rgb(136, 133, 113)" opacity="1.0"/>
    <path d="M 119.68050384521484 110.28923797607422 C 117.10569763183594 120.79362487792969 109.8178482055664 128.17530822753906 98.57803344726562 130.9336700439453 C 88.16935729980469 128.1838836669922 80.81725311279297 120.83030700683594 78.0686264038086 109.90863037109375 C 80.80660247802734 99.15150451660156 88.15196990966797 91.80734252929688 98.54229736328125 89.07225799560547 C 109.79375457763672 91.83789825439453 117.04849243164062 99.2450942993164 119.68050384521484 110.28923797607422" stroke-width="0.0" fill="rgb(254, 74, 42)" opacity="1.0"/>
    <path d="M 300.13836669921875 481.170166015625 C 297.76434326171875 491.523681640625 290.61224365234375 499.02911376953125 279.1575927734375 501.92755126953125 C 269.07379150390625 499.2552185058594 261.73785400390625 491.9289855957031 259.07098388671875 481.8876647949219 C 262.67950439453125 471.0 270.0 463.67950439453125 280.0 461.0 C 290.0 463.67950439453125 297.32049560546875 471.0 300.13836669921875 481.170166015625" stroke-width="0.0" fill="rgb(4, 4, 5)" opacity="1.0"/>
    <path d="M 357.9248046875 176.78395080566406 C 355.2101135253906 186.86329650878906 347.8604736328125 194.20352172851562 337.8360595703125 196.8900604248047 C 327.7322082519531 192.5662384033203 320.33367919921875 185.29415893554688 316.0914611816406 175.219482421875 C 318.8072509765625 165.16616821289062 326.1953430175781 157.89137268066406 336.5653381347656 155.55328369140625 C 347.15411376953125 158.39610290527344 354.6722717285156 165.82217407226562 357.9248046875 176.78395080566406" stroke-width="0.0" fill="rgb(183, 76, 41)" opacity="0.99001336"/>
    <path d="M 115.92239379882812 431.858154296875 C 113.02043914794922 442.5031433105469 105.28717803955078 449.47882080078125 94.66796112060547 452.3135681152344 C 84.28133392333984 449.97998046875 76.8235855102539 442.7879333496094 74.0961685180664 432.7650451660156 C 76.99346160888672 421.345703125 84.33882141113281 413.9739685058594 95.44769287109375 411.14227294921875 C 105.64844512939453 413.9713439941406 113.10535430908203 421.31103515625 115.92239379882812 431.858154296875" stroke-width="0.0" fill="rgb(247, 74, 43)" opacity="1.0"/>
    <path d="M 538.9183349609375 410.6961975097656 C 536.158203125 421.8091735839844 528.809814453125 429.15960693359375 517.1901245117188 431.950439453125 C 507.1024475097656 429.2427062988281 499.7881164550781 421.8851623535156 497.0929870605469 411.6017150878906 C 499.8828125 400.2695007324219 507.3291015625 393.06005859375 517.80712890625 391.10882568359375 C 528.7079467773438 393.0694580078125 536.16650390625 400.2186279296875 538.9183349609375 410.6961975097656" stroke-width="0.0" fill="rgb(137, 131, 85)" opacity="1.0"/>
    <path d="M 420.91534423828125 326.27313232421875 C 417.7818908691406 336.8287658691406 409.5191650390625 343.6993103027344 399.44476318359375 346.5055847167969 C 390.6451721191406 343.8158264160156 383.4859924316406 336.2682189941406 380.9304504394531 327.3292541503906 C 383.5272216796875 317.8143310546875 390.81317138671875 310.52447509765625 400.8561096191406 307.78173828125 C 410.8537902832031 308.8072509765625 418.2015075683594 316.1428527832031 420.91534423828125 326.27313232421875" stroke-width="0.0" fill="rgb(182, 69, 35)" opacity="0.99001294"/>
    <path d="M 589.71337890625 372.4546813964844 C 586.9994506835938 382.6322021484375 579.6056518554688 389.9169616699219 569.337646484375 392.3406982421875 C 559.1005859375 389.26849365234375 552.1292114257812 381.7539367675781 549.8273315429688 371.63037109375 C 551.3986206054688 361.5658874511719 558.5255126953125 354.2099304199219 568.786865234375 351.79486083984375 C 579.1051635742188 354.6207275390625 586.6087646484375 361.821533203125 589.71337890625 372.4546813964844" stroke-width="0.0" fill="rgb(139, 133, 85)" opacity="0.9900493"/>
    <path d="M 111.89759826660156 460.8568115234375 C 108.89441680908203 470.4628601074219 101.34193420410156 477.5493469238281 91.51838684082031 480.08416748046875 C 81.42315673828125 477.9922790527344 73.84602355957031 471.747314453125 71.07878112792969 461.0165100097656 C 73.82929992675781 450.18963623046875 81.21617126464844 442.9049377441406 91.46210479736328 440.4414978027344 C 101.99999237060547 443.6795349121094 109.32051086425781 451.0 111.89759826660156 460.8568115234375" stroke-width="0.0" fill="rgb(254, 76, 46)" opacity="0.9900551"/>
    <path d="M 481.9236755371094 389.5709533691406 C 479.196533203125 400.87939453125 471.8997802734375 408.24822998046875 461.769775390625 410.9630126953125 C 450.3481140136719 408.1275939941406 443.4170227050781 400.43865966796875 441.6216125488281 390.4305725097656 C 444.2578430175781 380.4892883300781 451.19281005859375 372.135498046875 461.8556213378906 369.0417175292969 C 471.9095458984375 371.74639892578125 479.21734619140625 379.1050720214844 481.9236755371094 389.5709533691406" stroke-width="0.0" fill="rgb(4, 4, 5)" opacity="0.9901741"/>
    <path d="M 121.9669418334961 313.8885192871094 C 119.25375366210938 324.9208984375 111.92295837402344 332.2585144042969 101.89197540283203 334.90753173828125 C 90.25592041015625 331.9507751464844 82.7932357788086 324.8239440917969 81.75588989257812 314.89404296875 C 84.32518768310547 304.3831787109375 91.23957061767578 297.0699768066406 101.87976837158203 293.0757141113281 C 111.91190338134766 295.75372314453125 119.2509994506836 303.0860595703125 121.9669418334961 313.8885192871094" stroke-width="0.0" fill="rgb(9, 2, 2)" opacity="0.99000704"/>
    <path d="M 315.87872314453125 576.345947265625 C 313.0910949707031 586.6942749023438 305.64068603515625 593.9478149414062 295.59527587890625 595.4398803710938 C 285.4839782714844 592.789794921875 278.1592712402344 585.5303955078125 274.3662109375 575.3754272460938 C 277.0448303222656 565.4905395507812 284.5748291015625 558.2727661132812 295.2596435546875 555.39013671875 C 305.5105895996094 558.1278076171875 312.97412109375 565.4490356445312 315.87872314453125 576.345947265625" stroke-width="0.0" fill="rgb(251, 244, 234)" opacity="1.0"/>
    <path d="M 229.8869171142578 28.47389030456543 C 227.0975341796875 38.6590461730957 219.47683715820312 45.29436492919922 208.30442810058594 48.30897521972656 C 198.2312469482422 46.11440658569336 190.87713623046875 38.77190399169922 188.130859375 28.194515228271484 C 190.8658447265625 17.184476852416992 198.15664672851562 9.79499340057373 208.39222717285156 7.0722479820251465 C 219.71092224121094 9.887239456176758 227.03294372558594 17.324935913085938 229.8869171142578 28.47389030456543" stroke-width="0.0" fill="rgb(180, 169, 137)" opacity="1.0"/>
    <path d="M 488.06365966796875 545.3001098632812 C 485.4792785644531 554.2164306640625 478.3005065917969 561.8793334960938 468.31036376953125 565.9202880859375 C 458.4381408691406 563.073486328125 451.4875183105469 555.3272094726562 448.96246337890625 545.0437622070312 C 451.68145751953125 535.001708984375 459.0017395019531 527.681640625 468.2627868652344 525.8228759765625 C 478.1722717285156 528.531982421875 485.4595642089844 535.8310546875 488.06365966796875 545.3001098632812" stroke-width="0.0" fill="rgb(246, 79, 45)" opacity="0.99002385"/>
    <path d="M 482.0865478515625 325.5245361328125 C 479.4930725097656 335.20208740234375 472.2084655761719 342.5111999511719 462.2308044433594 346.7198486328125 C 452.4429016113281 343.9913330078125 445.16864013671875 336.4937744140625 442.421630859375 326.2757263183594 C 445.241943359375 315.59222412109375 452.62213134765625 308.3433532714844 462.8855285644531 305.9907531738281 C 472.6498718261719 308.8725891113281 479.6266784667969 316.52947998046875 482.0865478515625 325.5245361328125" stroke-width="0.0" fill="rgb(188, 133, 67)" opacity="0.9900161"/>
    <path d="M 287.89813232421875 465.62811279296875 C 284.3930969238281 475.4210205078125 276.28472900390625 482.5257568359375 266.2852783203125 485.10791015625 C 256.5091552734375 483.8909606933594 250.17022705078125 476.2192687988281 246.2003631591797 465.16607666015625 C 248.8462677001953 455.2474365234375 256.3213195800781 448.0412292480469 266.6727294921875 445.7066345214844 C 277.31268310546875 448.5149841308594 285.0118713378906 455.48980712890625 287.89813232421875 465.62811279296875" stroke-width="0.0" fill="rgb(196, 142, 70)" opacity="0.9900308"/>
    <path d="M 256.59625244140625 65.45267486572266 C 252.7766876220703 75.4803695678711 245.48500061035156 82.78790283203125 235.63705444335938 85.70455169677734 C 225.8061981201172 83.50804901123047 218.63760375976562 76.15708923339844 216.32334899902344 65.8941879272461 C 218.70285034179688 56.02068328857422 226.0222930908203 48.7083854675293 236.0844268798828 45.872833251953125 C 246.1626739501953 48.56707763671875 253.7701873779297 55.71793746948242 256.59625244140625 65.45267486572266" stroke-width="0.0" fill="rgb(243, 241, 226)" opacity="0.99066675"/>
    <path d="M 153.90142822265625 209.0996856689453 C 150.1254119873047 220.4282989501953 143.71661376953125 228.17636108398438 132.2310333251953 230.96754455566406 C 122.10540771484375 228.25038146972656 114.9315414428711 220.8462677001953 113.91925811767578 210.71519470214844 C 116.51786804199219 200.81008911132812 123.81236267089844 193.5231170654297 133.91880798339844 189.09585571289062 C 143.9206085205078 191.74424743652344 151.2576904296875 199.07850646972656 153.90142822265625 209.0996856689453" stroke-width="0.0" fill="rgb(2, 3, 3)" opacity="0.99001914"/>
    <path d="M 160.9320526123047 119.34026336669922 C 158.19488525390625 129.84735107421875 150.84640502929688 137.1928253173828 140.42385864257812 139.9336700439453 C 129.2693634033203 137.14093017578125 122.13611602783203 129.6337890625 119.82254028320312 119.22484588623047 C 122.67948913574219 109.0 130.0 101.67948913574219 140.51840209960938 98.45293426513672 C 150.7658233642578 100.92223358154297 158.16470336914062 108.20281219482422 160.9320526123047 119.34026336669922" stroke-width="0.0" fill="rgb(255, 72, 41)" opacity="1.0"/>
    <path d="M 387.5387268066406 246.10157775878906 C 384.7349548339844 256.4054870605469 377.4242858886719 263.7911682128906 367.0233154296875 266.6385498046875 C 356.7930908203125 263.6072692871094 349.4345397949219 256.1929931640625 346.5516052246094 246.1261444091797 C 349.5022277832031 235.81166076660156 356.7967834472656 228.44830322265625 367.23187255859375 225.4342041015625 C 377.3245544433594 228.29237365722656 384.6212158203125 235.70248413085938 387.5387268066406 246.10157775878906" stroke-width="0.0" fill="rgb(255, 246, 230)" opacity="0.9903955"/>
    <path d="M 256.9105529785156 581.5885620117188 C 254.0485382080078 592.6358642578125 246.58914184570312 599.9284057617188 235.32237243652344 602.83740234375 C 225.20494079589844 600.1679077148438 217.95431518554688 592.7507934570312 215.11546325683594 581.2843017578125 C 217.80152893066406 571.1525268554688 225.1795196533203 563.88818359375 236.725830078125 561.2503051757812 C 246.8649444580078 563.7903442382812 254.18450927734375 571.1449584960938 256.9105529785156 581.5885620117188" stroke-width="0.0" fill="rgb(141, 134, 87)" opacity="0.9900618"/>
    <path d="M 480.9510803222656 229.35545349121094 C 478.23553466796875 239.8925018310547 470.88275146484375 247.2104949951172 460.7648010253906 249.83441162109375 C 449.6896667480469 246.64056396484375 442.3868713378906 239.30224609375 439.846435546875 228.81690979003906 C 442.1409912109375 218.4172821044922 449.3175354003906 210.88800048828125 460.6822204589844 208.05990600585938 C 470.8790283203125 210.77761840820312 478.2223815917969 218.1209716796875 480.9510803222656 229.35545349121094" stroke-width="0.0" fill="rgb(193, 138, 69)" opacity="1.0"/>
    <path d="M 411.8274230957031 414.3676452636719 C 409.0663757324219 424.6995544433594 401.7019348144531 432.07318115234375 391.2711181640625 434.866943359375 C 380.33148193359375 432.05731201171875 373.03070068359375 424.6351623535156 370.2489013671875 413.9128723144531 C 373.0119323730469 403.3675537109375 380.35589599609375 395.980712890625 390.7056884765625 393.19708251953125 C 401.60430908203125 396.0374755859375 408.9930114746094 403.38446044921875 411.8274230957031 414.3676452636719" stroke-width="0.0" fill="rgb(251, 207, 134)" opacity="1.0"/>
    <path d="M 126.08179473876953 456.29010009765625 C 123.47630310058594 466.1839294433594 116.17936706542969 473.4655456542969 106.31049346923828 476.0766296386719 C 97.26380157470703 473.8336181640625 89.71916961669922 466.9056396484375 87.0018310546875 456.99554443359375 C 89.67951202392578 447.0000305175781 97.00003051757812 439.6795349121094 107.67828369140625 436.2479248046875 C 117.78630828857422 438.85394287109375 124.92591094970703 446.2662658691406 126.08179473876953 456.29010009765625" stroke-width="0.0" fill="rgb(254, 76, 46)" opacity="0.99001384"/>
    <path d="M 519.7617797851562 315.635498046875 C 516.5685424804688 324.4372863769531 508.2728576660156 331.5041198730469 498.1889343261719 334.23040771484375 C 488.6936340332031 332.83807373046875 481.62359619140625 325.13397216796875 478.1669616699219 314.27679443359375 C 480.86126708984375 304.2342834472656 488.2726745605469 296.97161865234375 498.3861389160156 295.2603759765625 C 508.4393310546875 298.31854248046875 515.9052124023438 305.4891052246094 519.7617797851562 315.635498046875" stroke-width="0.0" fill="rgb(5, 4, 3)" opacity="0.99001"/>
    <path d="M 224.02186584472656 245.0275115966797 C 221.41238403320312 255.10374450683594 214.08599853515625 262.3377990722656 203.84161376953125 265.3809814453125 C 194.25733947753906 262.0764465332031 186.40072631835938 254.87112426757812 183.5322723388672 245.41392517089844 C 186.43170166015625 234.76043701171875 193.8393096923828 227.79896545410156 204.42315673828125 225.8809356689453 C 213.98187255859375 227.7537384033203 221.32237243652344 234.99668884277344 224.02186584472656 245.0275115966797" stroke-width="0.0" fill="rgb(252, 239, 225)" opacity="1.0"/>
    <path d="M 205.1351318359375 454.6672668457031 C 202.8629150390625 464.4958190917969 195.41363525390625 471.5150451660156 185.67982482910156 473.45880126953125 C 175.89862060546875 470.43017578125 168.61520385742188 463.0853576660156 165.97181701660156 453.1785888671875 C 167.58619689941406 443.1763916015625 174.10711669921875 435.7519836425781 184.18418884277344 433.0351867675781 C 194.20265197753906 437.02520751953125 201.4652557373047 444.845947265625 205.1351318359375 454.6672668457031" stroke-width="0.0" fill="rgb(3, 4, 3)" opacity="0.9900039"/>
    <path d="M 156.07102966308594 115.9177474975586 C 153.3205108642578 126.0 146.0 133.3205108642578 135.3895721435547 136.65577697753906 C 125.206787109375 134.12599182128906 117.87928009033203 126.79148864746094 115.36360168457031 116.59675598144531 C 118.67945098876953 105.9999771118164 125.99999237060547 98.67948150634766 136.1576385498047 95.8199234008789 C 146.29393005371094 98.35138702392578 153.5565185546875 105.73410034179688 156.07102966308594 115.9177474975586" stroke-width="0.0" fill="rgb(252, 75, 44)" opacity="1.0"/>
    <path d="M 61.208824157714844 139.4291229248047 C 58.65582275390625 149.3246307373047 51.26014709472656 156.50003051757812 41.1816520690918 159.10830688476562 C 31.131879806518555 158.18643188476562 23.795270919799805 150.87339782714844 21.188011169433594 140.7583465576172 C 24.704566955566406 130.06594848632812 32.20669937133789 123.09288787841797 41.743770599365234 120.88582611083984 C 51.63656997680664 123.20662689208984 59.15608215332031 130.24270629882812 61.208824157714844 139.4291229248047" stroke-width="0.0" fill="rgb(8, 3, 4)" opacity="0.9900119"/>
  </g>
</svg>
