<?xml version="1.0" ?>
<svg xmlns="http://www.w3.org/2000/svg" version="1.1" width="600" height="600">
  <defs/>
  <g>
    <path d="M 190.64404296875 593.1483154296875 C 187.72671508789062 603.2389526367188 180.1197967529297 610.3805541992188 170.00079345703125 613.0086059570312 C 159.8879852294922 610.3762817382812 152.30088806152344 603.221435546875 149.2328338623047 592.48681640625 C 151.9073028564453 582.2531127929688 159.2430877685547 574.880615234375 169.66180419921875 572.1122436523438 C 180.65908813476562 574.9287109375 187.84442138671875 582.4213256835938 190.64404296875 593.1483154296875" stroke-width="0.0" fill="rgb(140, 151, 165)" opacity="1.0"/>
    <path d="M 82.91861724853516 482.8855285644531 C 80.23441314697266 492.8730163574219 72.83157348632812 500.1179504394531 62.52664566040039 502.5119934082031 C 51.801570892333984 499.4325256347656 44.17583465576172 492.3354187011719 41.24032974243164 481.90399169921875 C 44.15851974487305 471.64013671875 51.77215576171875 464.5382080078125 61.964576721191406 461.98419189453125 C 71.90547943115234 464.7211608886719 78.87641143798828 472.2408447265625 82.91861724853516 482.8855285644531" stroke-width="0.0" fill="rgb(121, 125, 139)" opacity="1.0"/>
    <path d="M 152.74978637695312 592.5582885742188 C 149.69427490234375 603.2183837890625 142.1107940673828 610.3759765625 132.0019073486328 613.0074462890625 C 121.90866088867188 610.3651733398438 114.3270492553711 603.1952514648438 111.26828002929688 592.8485107421875 C 114.24877166748047 582.7487182617188 121.87919616699219 575.6204223632812 132.41136169433594 572.5296630859375 C 142.6450653076172 575.02734375 150.0383758544922 582.3322143554688 152.74978637695312 592.5582885742188" stroke-width="0.0" fill="rgb(139, 152, 166)" opacity="1.0"/>
    <path d="M 358.7167053222656 583.2847290039062 C 355.32049560546875 594.0 348.0 601.3204956054688 338.4609375 603.4705810546875 C 328.6051940917969 600.65234375 321.1437683105469 593.456787109375 318.1015319824219 583.8306274414062 C 320.67950439453125 574.0 328.0 566.6795043945312 338.89459228515625 563.0604858398438 C 348.9172058105469 565.7409057617188 356.2084655761719 573.1005859375 358.7167053222656 583.2847290039062" stroke-width="0.0" fill="rgb(6, 2, 2)" opacity="0.990066"/>
    <path d="M 209.54013061523438 103.3633041381836 C 206.85887145996094 113.46946716308594 199.41607666015625 120.6867904663086 188.771240234375 123.60600280761719 C 178.7432861328125 120.66717529296875 171.34185791015625 113.25537872314453 169.7594451904297 102.58927154541016 C 171.0861358642578 92.47237396240234 178.52967834472656 85.27140808105469 188.84698486328125 82.88284301757812 C 199.0006866455078 85.67927551269531 206.33575439453125 92.99515533447266 209.54013061523438 103.3633041381836" stroke-width="0.0" fill="rgb(251, 232, 194)" opacity="1.0"/>
    <path d="M 56.76300811767578 525.6513671875 C 54.10641098022461 535.7457275390625 46.737342834472656 543.0850219726562 35.90538787841797 545.8517456054688 C 25.25631332397461 543.0944213867188 17.895509719848633 535.7476196289062 15.135136604309082 524.8875732421875 C 17.868743896484375 514.21728515625 25.220821380615234 506.8780517578125 35.34846115112305 504.2500305175781 C 46.0 507.67950439453125 53.32050704956055 515.0 56.76300811767578 525.6513671875" stroke-width="0.0" fill="rgb(138, 148, 164)" opacity="1.0"/>
    <path d="M 547.5533447265625 586.4431762695312 C 544.9495239257812 596.57080078125 537.5283813476562 603.81640625 527.1206665039062 606.3102416992188 C 516.682373046875 603.6439208984375 509.37115478515625 596.3131103515625 506.87445068359375 586.12744140625 C 509.67950439453125 576.0 517.0 568.6795043945312 527.0 566.0 C 537.0 568.6795043945312 544.3204956054688 576.0 547.5533447265625 586.4431762695312" stroke-width="0.0" fill="rgb(140, 153, 167)" opacity="0.99305296"/>
    <path d="M 59.27246856689453 183.16317749023438 C 56.52780532836914 193.04356384277344 48.8663444519043 200.0076141357422 38.44871139526367 202.1767578125 C 29.099594116210938 200.15371704101562 21.956817626953125 192.86395263671875 19.89703941345215 183.43548583984375 C 22.44588279724121 173.69285583496094 29.629669189453125 166.26036071777344 39.2903938293457 163.27911376953125 C 49.0 165.6794891357422 56.32050704956055 173.0 59.27246856689453 183.16317749023438" stroke-width="0.0" fill="rgb(9, 5, 3)" opacity="0.99000657"/>
    <path d="M 468.09722900390625 551.37109375 C 465.5971374511719 561.3889770507812 458.47674560546875 568.8244018554688 449.5639343261719 571.0912475585938 C 438.8004455566406 568.6392822265625 430.7920227050781 562.7592163085938 428.0356140136719 552.6783447265625 C 430.8147277832031 541.2271118164062 438.34930419921875 534.15966796875 448.8107604980469 531.8881225585938 C 458.8368835449219 534.7664184570312 465.8262023925781 542.30908203125 468.09722900390625 551.37109375" stroke-width="0.0" fill="rgb(2, 2, 2)" opacity="0.99000686"/>
    <path d="M 456.75482177734375 116.58128356933594 C 453.65185546875 127.2519302368164 446.17620849609375 134.37783813476562 435.8116760253906 137.14976501464844 C 425.95733642578125 134.35110473632812 418.69573974609375 127.0311050415039 416.2317199707031 117.08170318603516 C 418.7395935058594 107.0222396850586 426.0054931640625 99.68148040771484 436.5826416015625 96.32099914550781 C 446.70428466796875 98.92850494384766 454.036865234375 106.30904388427734 456.75482177734375 116.58128356933594" stroke-width="0.0" fill="rgb(251, 238, 198)" opacity="0.99020076"/>
    <path d="M 110.02942657470703 354.009033203125 C 107.50135040283203 364.30816650390625 100.47159576416016 371.95770263671875 90.77854919433594 373.1802673339844 C 80.76302337646484 370.5107116699219 73.47288513183594 363.24407958984375 70.89981079101562 353.4167175292969 C 72.20354461669922 343.29510498046875 79.21737670898438 335.8434753417969 89.48505401611328 333.0960388183594 C 100.48396301269531 336.0041198730469 107.47486114501953 343.7170715332031 110.02942657470703 354.009033203125" stroke-width="0.0" fill="rgb(238, 131, 55)" opacity="0.9900485"/>
    <path d="M 92.05394744873047 175.08743286132812 C 89.64688110351562 185.45753479003906 82.6047592163086 193.06060791015625 71.56982421875 195.90257263183594 C 61.182464599609375 193.1659698486328 53.839805603027344 185.8153533935547 51.207862854003906 175.7057647705078 C 54.54121398925781 164.75021362304688 61.56161880493164 157.04620361328125 71.4001235961914 154.19769287109375 C 82.00287628173828 157.6694793701172 89.320556640625 164.9998321533203 92.05394744873047 175.08743286132812" stroke-width="0.0" fill="rgb(251, 128, 49)" opacity="1.0"/>
    <path d="M 227.5880584716797 81.75141906738281 C 224.48179626464844 92.1707763671875 217.19090270996094 99.5470199584961 207.1199951171875 102.17583465576172 C 196.99964904785156 99.32077026367188 189.67884826660156 92.00047302246094 186.99978637695312 82.00065612792969 C 189.68316650390625 72.00949096679688 197.033447265625 64.76475524902344 207.26126098632812 61.6995735168457 C 217.3129119873047 64.33165740966797 224.7141571044922 71.67288208007812 227.5880584716797 81.75141906738281" stroke-width="0.0" fill="rgb(251, 232, 200)" opacity="0.9905761"/>
    <path d="M 192.05860900878906 146.93409729003906 C 189.3205108642578 157.0 182.0 164.3205108642578 171.99978637695312 167.0000762939453 C 161.99322509765625 164.32296752929688 154.60379028320312 157.02806091308594 151.376708984375 146.773681640625 C 154.33416748046875 136.7263641357422 161.74082946777344 129.38145446777344 171.86407470703125 126.72000885009766 C 182.24314880371094 129.4202423095703 189.5161895751953 136.77621459960938 192.05860900878906 146.93409729003906" stroke-width="0.0" fill="rgb(255, 236, 199)" opacity="0.9912344"/>
    <path d="M 258.8594665527344 546.6746215820312 C 256.0900573730469 556.6651611328125 248.56080627441406 563.7924194335938 237.43637084960938 566.8078002929688 C 227.65994262695312 563.8858032226562 220.6138916015625 556.1443481445312 217.99635314941406 546.0084228515625 C 220.6794891357422 536.0 228.0 528.6795043945312 238.04281616210938 525.9293212890625 C 248.05203247070312 528.6028442382812 255.44723510742188 535.9339599609375 258.8594665527344 546.6746215820312" stroke-width="0.0" fill="rgb(250, 126, 52)" opacity="1.0"/>
    <path d="M 140.77105712890625 568.5694580078125 C 137.65048217773438 579.1719970703125 130.07205200195312 586.3533325195312 119.41746520996094 589.6552124023438 C 109.2537612915039 587.0923461914062 101.9146957397461 579.7433471679688 99.15302276611328 568.8026123046875 C 101.89086151123047 558.2501831054688 109.26654815673828 550.9364624023438 120.28305053710938 548.1825561523438 C 130.69993591308594 550.9312744140625 138.0402374267578 558.3110961914062 140.77105712890625 568.5694580078125" stroke-width="0.0" fill="rgb(139, 151, 165)" opacity="1.0"/>
    <path d="M 485.9627685546875 525.2616577148438 C 483.12713623046875 536.5284423828125 474.6282958984375 542.6795654296875 464.47210693359375 545.3353881835938 C 455.0123291015625 543.2974853515625 447.6825256347656 535.9935913085938 445.0799255371094 526.109375 C 448.0235900878906 516.4393310546875 455.5489196777344 509.346923828125 465.87103271484375 505.1826477050781 C 475.9046325683594 507.759765625 483.2484436035156 515.091796875 485.9627685546875 525.2616577148438" stroke-width="0.0" fill="rgb(34, 5, 4)" opacity="0.99007213"/>
    <path d="M 169.85626220703125 47.542911529541016 C 167.17520141601562 57.85414123535156 159.8711700439453 65.22036743164062 149.75184631347656 67.92279815673828 C 138.23947143554688 65.10990905761719 130.8795623779297 57.76469039916992 128.16183471679688 47.5642204284668 C 131.2287139892578 36.73226547241211 138.86868286132812 29.614028930664062 149.19813537597656 26.815683364868164 C 159.53097534179688 29.20268440246582 167.0016632080078 36.401588439941406 169.85626220703125 47.542911529541016" stroke-width="0.0" fill="rgb(137, 147, 161)" opacity="1.0"/>
    <path d="M 588.8096313476562 568.5782470703125 C 585.7907104492188 579.3046875 578.1781616210938 586.42626953125 568.021728515625 589.0128784179688 C 558.0 586.3204956054688 550.6795043945312 579.0 548.0 569.0 C 550.6795043945312 559.0 558.0 551.6795043945312 568.2555541992188 548.7609252929688 C 578.5836791992188 551.141357421875 586.0427856445312 558.3544921875 588.8096313476562 568.5782470703125" stroke-width="0.0" fill="rgb(138, 150, 164)" opacity="1.0"/>
    <path d="M 386.91485595703125 587.31005859375 C 384.03607177734375 598.580078125 376.44403076171875 605.6550903320312 366.1005859375 608.0709228515625 C 356.0 605.3204956054688 348.67950439453125 598.0 345.8472900390625 587.766357421875 C 348.08929443359375 577.3013916015625 355.2079772949219 569.8120727539062 366.5093688964844 567.04736328125 C 376.8802185058594 569.7753295898438 384.21514892578125 577.1235961914062 386.91485595703125 587.31005859375" stroke-width="0.0" fill="rgb(131, 140, 154)" opacity="1.0"/>
    <path d="M 589.7879638671875 589.4282836914062 C 586.3948364257812 600.029052734375 579.0082397460938 607.3236083984375 568.9985961914062 610.000732421875 C 558.9511108398438 607.3391723632812 551.3363037109375 600.1611938476562 548.176513671875 589.6614990234375 C 551.1184692382812 579.6282958984375 558.79052734375 572.5599975585938 569.0379638671875 569.9487915039062 C 579.32861328125 572.451416015625 586.9588012695312 579.52294921875 589.7879638671875 589.4282836914062" stroke-width="0.0" fill="rgb(139, 151, 166)" opacity="1.0"/>
    <path d="M 580.7283935546875 555.39013671875 C 577.3204345703125 565.9999389648438 569.9999389648438 573.3204956054688 560.0 576.0 C 550.0 573.3204956054688 542.6795043945312 566.0 539.81298828125 555.7886962890625 C 542.1905517578125 545.4531860351562 549.3843383789062 537.982177734375 560.471923828125 535.1370849609375 C 570.7324829101562 537.8983154296875 578.078369140625 545.2764892578125 580.7283935546875 555.39013671875" stroke-width="0.0" fill="rgb(137, 149, 162)" opacity="1.0"/>
    <path d="M 485.5881042480469 598.6109008789062 C 482.32037353515625 608.9999389648438 475.0 616.3204956054688 465.0 619.0 C 454.9999694824219 616.3204956054688 447.67822265625 609.0003662109375 444.2584533691406 598.4607543945312 C 447.1166076660156 588.6281127929688 454.7925720214844 581.5630493164062 464.99365234375 578.980224609375 C 475.15325927734375 581.5948486328125 482.7633056640625 588.7230224609375 485.5881042480469 598.6109008789062" stroke-width="0.0" fill="rgb(146, 156, 169)" opacity="1.0"/>
    <path d="M 464.8539733886719 14.10412883758545 C 462.0885009765625 24.727439880371094 454.718017578125 32.06359100341797 443.78448486328125 34.84244918823242 C 433.277099609375 32.08494186401367 425.9337158203125 24.715816497802734 423.1647644042969 13.815742492675781 C 425.9377136230469 3.3369576930999756 433.4056396484375 -3.857395887374878 444.00115966796875 -6.366000175476074 C 454.5870056152344 -3.8546061515808105 462.0562744140625 3.344910144805908 464.8539733886719 14.10412883758545" stroke-width="0.0" fill="rgb(137, 148, 164)" opacity="1.0"/>
    <path d="M 47.78277587890625 287.56329345703125 C 45.196632385253906 297.8554992675781 37.852535247802734 305.1899108886719 27.456058502197266 307.91937255859375 C 16.181930541992188 305.15362548828125 8.796368598937988 297.8397216796875 6.053651809692383 287.2874755859375 C 8.790102005004883 276.142822265625 16.157506942749023 268.82598876953125 26.926349639892578 266.0856018066406 C 37.82598114013672 268.834228515625 45.15999221801758 276.1753234863281 47.78277587890625 287.56329345703125" stroke-width="0.0" fill="rgb(249, 127, 48)" opacity="1.0"/>
    <path d="M 39.61076354980469 78.37640380859375 C 37.019432067871094 88.68528747558594 29.706708908081055 96.07820129394531 18.88763427734375 98.86825561523438 C 8.291484832763672 96.0739517211914 0.9416123032569885 88.70291137695312 -1.7259622812271118 78.51163482666016 C 1.4119994640350342 67.85205078125 8.926602363586426 60.64313888549805 19.53757667541504 57.36213684082031 C 29.648334503173828 59.96565628051758 36.86087417602539 67.40763854980469 39.61076354980469 78.37640380859375" stroke-width="0.0" fill="rgb(138, 149, 164)" opacity="1.0"/>
    <path d="M 151.0446319580078 19.934083938598633 C 148.3205108642578 30.000009536743164 141.0000457763672 37.32061767578125 131.0001983642578 40.001914978027344 C 120.99999237060547 37.32052993774414 113.67948913574219 30.0 110.99650573730469 19.99241828918457 C 113.6275634765625 9.89144515991211 120.76510620117188 2.26613187789917 131.30718994140625 -0.7927701473236084 C 141.47100830078125 2.0657873153686523 148.5653076171875 9.65677547454834 151.0446319580078 19.934083938598633" stroke-width="0.0" fill="rgb(138, 149, 163)" opacity="1.0"/>
    <path d="M 59.103309631347656 235.38548278808594 C 56.524383544921875 245.2518768310547 49.27309036254883 252.58389282226562 39.21833038330078 256.83697509765625 C 29.188425064086914 254.16079711914062 21.828392028808594 246.81617736816406 19.121824264526367 236.6910400390625 C 21.937355041503906 225.25393676757812 29.232528686523438 217.87405395507812 40.30895233154297 215.1012420654297 C 50.7568244934082 217.8599395751953 57.72990798950195 225.33346557617188 59.103309631347656 235.38548278808594" stroke-width="0.0" fill="rgb(253, 129, 56)" opacity="0.990034"/>
    <path d="M 527.2251586914062 78.2291030883789 C 524.7977905273438 88.48529815673828 517.4930419921875 95.82329559326172 507.25830078125 98.26568603515625 C 496.9908142089844 95.32373046875 489.5752258300781 88.03909301757812 486.1836853027344 77.37066650390625 C 488.94244384765625 67.34607696533203 496.4073791503906 60.116886138916016 506.7117614746094 57.713172912597656 C 517.0 60.67949295043945 524.3204956054688 68.0 527.2251586914062 78.2291030883789" stroke-width="0.0" fill="rgb(142, 152, 166)" opacity="0.99086446"/>
    <path d="M 46.1748046875 347.39141845703125 C 44.56516647338867 358.5884704589844 37.699378967285156 366.0953674316406 26.221298217773438 368.9291076660156 C 16.100183486938477 366.237060546875 8.7611665725708 358.90045166015625 6.048813819885254 348.4942932128906 C 8.778987884521484 337.12939453125 16.14244270324707 329.8109130859375 26.645008087158203 327.0870056152344 C 37.79476547241211 329.8473205566406 45.07404708862305 337.23089599609375 46.1748046875 347.39141845703125" stroke-width="0.0" fill="rgb(248, 120, 47)" opacity="1.0"/>
    <path d="M 167.84744262695312 22.497371673583984 C 164.9155731201172 33.4576416015625 157.33596801757812 40.55894088745117 147.06344604492188 43.04249572753906 C 136.99998474121094 40.32053756713867 129.6794891357422 33.0 126.99744415283203 22.994544982910156 C 129.64207458496094 12.920767784118652 136.8205108642578 5.343945503234863 147.56878662109375 2.1886420249938965 C 157.73779296875 4.902632713317871 165.09463500976562 12.263599395751953 167.84744262695312 22.497371673583984" stroke-width="0.0" fill="rgb(140, 151, 162)" opacity="1.0"/>
    <path d="M 71.42642974853516 72.40580749511719 C 68.98746490478516 82.6757583618164 61.70701599121094 90.0792236328125 51.38520050048828 92.83448791503906 C 40.46697998046875 89.95368194580078 33.2853889465332 82.45295715332031 30.500017166137695 71.70122528076172 C 33.09549331665039 61.47465133666992 40.519344329833984 54.23698043823242 50.80780792236328 51.82038879394531 C 61.0 54.67949295043945 68.32051086425781 62.0 71.42642974853516 72.40580749511719" stroke-width="0.0" fill="rgb(140, 150, 164)" opacity="1.0"/>
    <path d="M 211.49765014648438 541.6080322265625 C 208.78118896484375 552.5999145507812 201.74209594726562 560.169677734375 191.02659606933594 562.9533081054688 C 180.3129425048828 560.1476440429688 173.35609436035156 552.49072265625 170.9364776611328 542.0293579101562 C 173.4705810546875 531.6701049804688 180.5043182373047 524.0169677734375 191.40975952148438 521.1110229492188 C 201.74754333496094 523.8811645507812 209.02586364746094 531.2847900390625 211.49765014648438 541.6080322265625" stroke-width="0.0" fill="rgb(241, 130, 59)" opacity="1.0"/>
    <path d="M 546.9310913085938 160.59457397460938 C 544.1831665039062 170.82203674316406 536.8113403320312 178.15817260742188 525.7434692382812 180.91781616210938 C 515.1663208007812 178.17433166503906 507.8090515136719 170.84060668945312 505.0931701660156 160.46981811523438 C 507.8539123535156 149.20018005371094 515.193359375 141.83763122558594 525.2467651367188 139.19480895996094 C 536.242431640625 142.59255981445312 544.0062866210938 149.5233154296875 546.9310913085938 160.59457397460938" stroke-width="0.0" fill="rgb(248, 123, 45)" opacity="1.0"/>
    <path d="M 587.8738403320312 39.97471237182617 C 585.0792846679688 50.72389602661133 577.7324829101562 58.10048294067383 567.5198974609375 60.870418548583984 C 556.7208862304688 57.80436325073242 549.621337890625 50.12242126464844 546.7833251953125 39.77693176269531 C 549.1825561523438 29.46290397644043 556.40576171875 22.009315490722656 567.4811401367188 19.136375427246094 C 577.7245483398438 21.906131744384766 585.0806884765625 29.2807674407959 587.8738403320312 39.97471237182617" stroke-width="0.0" fill="rgb(137, 149, 164)" opacity="1.0"/>
    <path d="M 417.8533630371094 3.5507326126098633 C 415.0710144042969 13.7022066116333 407.7083435058594 21.08428382873535 397.22216796875 23.870254516601562 C 386.2738037109375 21.082382202148438 378.9200439453125 13.72529411315918 376.22235107421875 3.56864595413208 C 379.5155944824219 -7.065919876098633 386.9825744628906 -14.326894760131836 397.00091552734375 -17.000732421875 C 407.0441589355469 -14.337043762207031 414.6544189453125 -7.153489112854004 417.8533630371094 3.5507326126098633" stroke-width="0.0" fill="rgb(138, 150, 164)" opacity="1.0"/>
    <path d="M 351.8936462402344 548.016357421875 C 349.1383056640625 558.7727661132812 341.7301330566406 565.9930419921875 331.17059326171875 567.561767578125 C 321.0 565.3204956054688 313.67950439453125 558.0 310.5009460449219 547.496337890625 C 312.9160461425781 537.2166748046875 320.1867370605469 529.8274536132812 331.34954833984375 527.0830078125 C 341.83111572265625 529.8172607421875 349.15948486328125 537.1778564453125 351.8936462402344 548.016357421875" stroke-width="0.0" fill="rgb(249, 131, 52)" opacity="1.0"/>
    <path d="M 565.7662353515625 134.01467895507812 C 562.8550415039062 144.53448486328125 555.62158203125 152.061767578125 545.7027587890625 154.85693359375 C 534.7781372070312 151.57550048828125 527.0924682617188 144.37042236328125 524.0653076171875 133.27850341796875 C 526.8505249023438 123.30692291259766 534.4953002929688 116.33785247802734 544.9266967773438 113.9501724243164 C 555.1275634765625 116.61701965332031 562.767333984375 123.73641967773438 565.7662353515625 134.01467895507812" stroke-width="0.0" fill="rgb(137, 148, 163)" opacity="1.0"/>
    <path d="M 535.0020141601562 577.9951782226562 C 532.3204956054688 587.9999389648438 524.9999389648438 595.3203735351562 514.4056396484375 598.7109985351562 C 504.29620361328125 596.067626953125 496.9772033691406 588.6876220703125 494.17413330078125 577.5320434570312 C 496.8876037597656 567.2374877929688 504.2342224121094 559.87939453125 514.45703125 557.1520385742188 C 525.230712890625 560.249755859375 532.359619140625 567.9100341796875 535.0020141601562 577.9951782226562" stroke-width="0.0" fill="rgb(140, 150, 167)" opacity="1.0"/>
    <path d="M 382.89178466796875 38.83803176879883 C 380.1016540527344 48.614234924316406 372.39910888671875 55.560909271240234 362.0360107421875 58.02778625488281 C 351.7984924316406 55.4124641418457 344.00494384765625 48.44654083251953 341.0459289550781 37.20164489746094 C 343.77264404296875 27.151716232299805 351.2480163574219 20.190513610839844 361.66986083984375 18.87080955505371 C 371.2293701171875 21.454347610473633 378.5163269042969 28.780620574951172 382.89178466796875 38.83803176879883" stroke-width="0.0" fill="rgb(2, 2, 2)" opacity="0.9900139"/>
    <path d="M 575.0001831054688 347.00054931640625 C 572.32568359375 357.012939453125 565.01806640625 364.340087890625 554.8856811523438 366.3172302246094 C 544.9246826171875 364.424560546875 537.6892700195312 357.0386657714844 534.503173828125 346.77410888671875 C 537.4255981445312 336.8736572265625 545.0170288085938 329.8515625 555.1243896484375 327.1998596191406 C 565.0 329.67950439453125 572.3204956054688 337.0 575.0001831054688 347.00054931640625" stroke-width="0.0" fill="rgb(255, 255, 255)" opacity="0.9907813"/>
    <path d="M 34.520511627197266 204.73712158203125 C 33.08961868286133 214.78115844726562 25.811246871948242 222.17303466796875 15.731134414672852 224.8046112060547 C 5.0 221.3205108642578 -2.3205080032348633 214.0 -5.248649597167969 203.75125122070312 C -2.8314414024353027 193.4607696533203 4.410216331481934 186.01673889160156 15.295759201049805 183.16619873046875 C 25.292373657226562 186.01339721679688 31.616668701171875 194.46597290039062 34.520511627197266 204.73712158203125" stroke-width="0.0" fill="rgb(135, 149, 163)" opacity="1.0"/>
    <path d="M 194.13473510742188 543.842041015625 C 193.15834045410156 553.838623046875 185.86695861816406 561.2274780273438 174.28237915039062 563.9686279296875 C 164.075439453125 561.2606201171875 156.74627685546875 553.921630859375 154.0355987548828 543.4931640625 C 156.78028869628906 532.15625 164.21759033203125 524.9490356445312 174.31434631347656 523.833740234375 C 184.20887756347656 526.4812622070312 191.47036743164062 533.809814453125 194.13473510742188 543.842041015625" stroke-width="0.0" fill="rgb(31, 4, 4)" opacity="0.99001384"/>
    <path d="M 62.78513717651367 14.788281440734863 C 60.02324295043945 25.687030792236328 52.7083740234375 33.08100891113281 42.168800354003906 35.84804153442383 C 31.285207748413086 33.07195281982422 23.937654495239258 25.71112823486328 21.151399612426758 14.815394401550293 C 23.943422317504883 4.330738544464111 31.378705978393555 -2.9147894382476807 41.97215270996094 -5.4690117835998535 C 52.60586929321289 -2.899224281311035 60.032920837402344 4.3497796058654785 62.78513717651367 14.788281440734863" stroke-width="0.0" fill="rgb(140, 148, 162)" opacity="1.0"/>
    <path d="M 521.11181640625 401.3057556152344 C 518.5174560546875 411.2391662597656 511.2436828613281 418.52850341796875 501.4207763671875 421.1261901855469 C 492.1672668457031 418.96942138671875 484.7006530761719 411.9472351074219 481.9962158203125 401.98760986328125 C 484.6080627441406 391.8507080078125 491.67230224609375 384.13836669921875 502.6576232910156 381.0949401855469 C 512.8169555664062 383.8232116699219 520.025634765625 391.2253112792969 521.11181640625 401.3057556152344" stroke-width="0.0" fill="rgb(243, 129, 60)" opacity="0.99004185"/>
    <path d="M 26.83864974975586 53.38838195800781 C 23.649316787719727 64.17388916015625 16.075441360473633 71.35587310791016 5.799724578857422 74.34777069091797 C -4.146398067474365 71.58316040039062 -11.357484817504883 64.07383728027344 -14.006817817687988 53.99729537963867 C -11.378579139709473 43.8798942565918 -4.255301475524902 36.23958206176758 6.551634788513184 33.16461181640625 C 16.762649536132812 35.882991790771484 24.109127044677734 43.2408447265625 26.83864974975586 53.38838195800781" stroke-width="0.0" fill="rgb(139, 148, 164)" opacity="1.0"/>
    <path d="M 511.17864990234375 143.6031036376953 C 510.11346435546875 153.83372497558594 502.87786865234375 161.2395782470703 492.8992004394531 163.9495849609375 C 482.90301513671875 159.42529296875 475.61566162109375 152.0830535888672 472.9696044921875 142.1793975830078 C 475.27423095703125 132.24415588378906 481.1330261230469 124.7684555053711 491.1584777832031 122.11129760742188 C 501.5267333984375 126.06977844238281 508.67413330078125 133.5557403564453 511.17864990234375 143.6031036376953" stroke-width="0.0" fill="rgb(4, 2, 2)" opacity="0.9900053"/>
    <path d="M 564.9617309570312 414.77923583984375 C 562.2543334960938 424.921875 554.9212646484375 432.2523498535156 544.76611328125 434.9017639160156 C 533.2029418945312 432.1806335449219 527.4635620117188 424.5158996582031 524.9711303710938 414.7100524902344 C 527.6094970703125 404.9158935546875 534.9183349609375 397.6150207519531 544.915283203125 394.95147705078125 C 554.8004150390625 395.8208923339844 562.1438598632812 403.21978759765625 564.9617309570312 414.77923583984375" stroke-width="0.0" fill="rgb(27, 8, 5)" opacity="0.9900044"/>
    <path d="M 576.0001831054688 562.0003051757812 C 573.3211059570312 572.0006713867188 566.000732421875 579.3213500976562 555.913330078125 582.1700439453125 C 545.9441528320312 579.4325561523438 538.667236328125 572.0257568359375 535.9991455078125 562.0018920898438 C 538.6795043945312 552.0 546.0 544.6795654296875 555.9999389648438 542.0003662109375 C 565.9998779296875 544.6796875 573.3203125 552.0001220703125 576.0001831054688 562.0003051757812" stroke-width="0.0" fill="rgb(138, 149, 165)" opacity="1.0"/>
    <path d="M 589.6062622070312 351.4713439941406 C 586.3204956054688 362.0 579.0 369.32049560546875 568.2745971679688 372.8379211425781 C 558.3334350585938 370.1219787597656 552.2864990234375 362.2711486816406 549.9107666015625 351.9311218261719 C 552.4212036132812 342.6392822265625 559.5408325195312 335.1338195800781 569.3505859375 331.8999938964844 C 579.6060180664062 334.1317138671875 587.0401611328125 341.33978271484375 589.6062622070312 351.4713439941406" stroke-width="0.0" fill="rgb(242, 124, 56)" opacity="0.99010557"/>
    <path d="M 206.07766723632812 72.09281921386719 C 203.39111328125 82.08679962158203 196.08779907226562 89.39347076416016 186.0919952392578 92.0588150024414 C 176.0877685546875 91.23419189453125 168.7442626953125 83.91998291015625 166.05078125 73.74388122558594 C 168.75538635253906 62.084228515625 176.08029174804688 54.74509048461914 186.26974487304688 52.035797119140625 C 197.77137756347656 54.801124572753906 204.9622039794922 62.362327575683594 206.07766723632812 72.09281921386719" stroke-width="0.0" fill="rgb(3, 4, 3)" opacity="0.9900116"/>
    <path d="M 118.21226501464844 39.19846725463867 C 115.73102569580078 49.39554214477539 108.3852310180664 56.69719696044922 98.12342071533203 59.18888473510742 C 87.65873718261719 56.54448699951172 80.00120544433594 49.510169982910156 77.13326263427734 39.251216888427734 C 79.94905853271484 28.30868148803711 87.31560516357422 20.969173431396484 97.49118041992188 18.405393600463867 C 108.0 21.67949104309082 115.32051086425781 29.0 118.21226501464844 39.19846725463867" stroke-width="0.0" fill="rgb(137, 150, 164)" opacity="1.0"/>
    <path d="M 37.92499923706055 439.2356262207031 C 35.0810661315918 450.70654296875 27.69696807861328 458.05682373046875 16.82239532470703 460.8514099121094 C 6.286416053771973 458.07464599609375 -1.0223075151443481 450.696044921875 -3.6566390991210938 440.061767578125 C -1.005953311920166 429.31646728515625 6.287285327911377 421.9114685058594 17.539104461669922 419.10711669921875 C 27.88091468811035 421.79437255859375 35.22989273071289 429.11016845703125 37.92499923706055 439.2356262207031" stroke-width="0.0" fill="rgb(136, 147, 161)" opacity="1.0"/>
    <path d="M 129.21072387695312 11.81834888458252 C 126.32044219970703 21.999975204467773 118.99999237060547 29.320505142211914 108.9395751953125 32.03559875488281 C 98.61991882324219 29.5741024017334 90.99308776855469 22.534881591796875 88.13406372070312 12.043224334716797 C 90.99268341064453 1.4287655353546143 98.5338134765625 -5.701456546783447 108.94559478759766 -8.165302276611328 C 119.28715515136719 -5.572559833526611 126.68206024169922 1.6794099807739258 129.21072387695312 11.81834888458252" stroke-width="0.0" fill="rgb(139, 149, 164)" opacity="1.0"/>
    <path d="M 203.18495178222656 160.92218017578125 C 200.47080993652344 171.14723205566406 193.1214599609375 178.3855438232422 182.7626953125 181.5941162109375 C 172.80487060546875 178.653076171875 165.62054443359375 171.10494995117188 162.9937286376953 161.01121520996094 C 165.6794891357422 151.0 173.0 143.6794891357422 183.12928771972656 140.853271484375 C 193.26773071289062 143.39361572265625 200.55963134765625 150.7459259033203 203.18495178222656 160.92218017578125" stroke-width="0.0" fill="rgb(255, 238, 201)" opacity="0.9903168"/>
    <path d="M 610.0946655273438 184.0155487060547 C 607.6212768554688 194.4173126220703 600.550048828125 202.0044403076172 589.6156005859375 204.87168884277344 C 579.2921752929688 202.0860137939453 571.95166015625 194.6929168701172 569.1585693359375 183.87391662597656 C 571.9618530273438 173.34515380859375 579.3853149414062 166.08071899414062 590.3614501953125 163.26080322265625 C 600.475341796875 166.06455993652344 607.5725708007812 173.64971923828125 610.0946655273438 184.0155487060547" stroke-width="0.0" fill="rgb(136, 148, 163)" opacity="1.0"/>
    <path d="M 136.77792358398438 488.3389892578125 C 133.32061767578125 499.0003356933594 126.00321197509766 506.3310852050781 115.2148208618164 509.8956298828125 C 105.45635986328125 507.12884521484375 99.41960144042969 498.5386047363281 96.91445922851562 489.024169921875 C 99.49824523925781 479.785888671875 106.78456115722656 472.4950866699219 116.61498260498047 469.8892822265625 C 126.60314178466797 471.3851623535156 134.0998077392578 478.2923583984375 136.77792358398438 488.3389892578125" stroke-width="0.0" fill="rgb(248, 128, 51)" opacity="0.9900199"/>
    <path d="M 560.0064697265625 560.9869995117188 C 557.3203735351562 570.9999389648438 549.9999389648438 578.3204345703125 540.0 581.0 C 530.0 578.3204956054688 522.6795043945312 571.0 519.21044921875 560.3382568359375 C 521.9020385742188 550.2592163085938 529.2625122070312 542.9113159179688 539.523681640625 540.1839599609375 C 550.2760620117188 543.226806640625 557.3961791992188 550.8563232421875 560.0064697265625 560.9869995117188" stroke-width="0.0" fill="rgb(140, 150, 164)" opacity="1.0"/>
    <path d="M 544.2238159179688 71.25127410888672 C 541.8649291992188 81.5998764038086 534.6632080078125 89.05699157714844 524.5540771484375 91.76966857910156 C 513.9296875 88.49100494384766 506.67205810546875 81.01988220214844 503.999755859375 71.00067901611328 C 506.67950439453125 61.0 514.0 53.67949295043945 524.0 51.0 C 534.0 53.67949295043945 541.3204956054688 61.0 544.2238159179688 71.25127410888672" stroke-width="0.0" fill="rgb(139, 149, 163)" opacity="1.0"/>
    <path d="M 81.85520935058594 553.44921875 C 78.83515167236328 564.3440551757812 71.20465087890625 571.43896484375 61.00357437133789 574.0227661132812 C 50.8210563659668 571.4228515625 43.22309112548828 564.2999267578125 40.199886322021484 553.495361328125 C 42.92366027832031 543.2824096679688 50.284095764160156 535.9281616210938 61.07832717895508 533.1488647460938 C 71.71174621582031 535.9344482421875 79.09459686279297 543.276611328125 81.85520935058594 553.44921875" stroke-width="0.0" fill="rgb(139, 151, 164)" opacity="1.0"/>
    <path d="M 222.9986572265625 577.9967041015625 C 220.2922821044922 587.932861328125 212.8141632080078 594.9515991210938 203.40660095214844 597.1351318359375 C 193.58541870117188 594.6840209960938 186.34466552734375 587.4017333984375 182.5084991455078 577.165771484375 C 184.76556396484375 567.091552734375 192.08456420898438 559.7469482421875 202.1111602783203 557.0603637695312 C 213.0 560.6795043945312 220.3205108642578 568.0 222.9986572265625 577.9967041015625" stroke-width="0.0" fill="rgb(35, 41, 48)" opacity="0.9900217"/>
    <path d="M 527.284912109375 111.45661163330078 C 526.0941162109375 121.82820129394531 518.853515625 129.19290161132812 508.72039794921875 131.74478149414062 C 498.0 128.3205108642578 490.67950439453125 121.0 488.00018310546875 111.0005111694336 C 490.6860046386719 101.01826477050781 498.0857849121094 93.89775085449219 507.306640625 91.8997802734375 C 517.2611083984375 94.48391723632812 524.6502685546875 101.69049072265625 527.284912109375 111.45661163330078" stroke-width="0.0" fill="rgb(4, 4, 4)" opacity="0.9900296"/>
    <path d="M 614.0043334960938 94.99845886230469 C 611.3490600585938 105.06316375732422 604.156982421875 112.63038635253906 593.4284057617188 115.80733489990234 C 583.240966796875 113.10743713378906 575.8775634765625 105.764892578125 573.1520385742188 95.45267486572266 C 575.9453735351562 84.28169250488281 583.2675170898438 76.90730285644531 593.4703979492188 74.21358489990234 C 604.1751708984375 77.35101318359375 611.3573608398438 84.9224853515625 614.0043334960938 94.99845886230469" stroke-width="0.0" fill="rgb(137, 148, 162)" opacity="1.0"/>
    <path d="M 311.1211853027344 529.9187622070312 C 310.0814514160156 539.5679321289062 302.3201599121094 546.4898681640625 292.0019226074219 549.0475463867188 C 282.0086669921875 546.3561401367188 274.7756652832031 538.9505615234375 272.4127197265625 529.4194946289062 C 275.42596435546875 519.7987670898438 282.8532409667969 512.582275390625 291.7445068359375 509.967041015625 C 301.0910339355469 512.60400390625 308.3924560546875 519.9104614257812 311.1211853027344 529.9187622070312" stroke-width="0.0" fill="rgb(30, 32, 34)" opacity="0.9900051"/>
    <path d="M 123.9632339477539 151.13299560546875 C 119.61009979248047 161.14633178710938 112.09831237792969 168.38681030273438 102.10272979736328 171.03379821777344 C 93.0784912109375 169.09535217285156 85.6815414428711 161.9931182861328 83.71627807617188 152.52288818359375 C 86.25753784179688 142.42918395996094 93.2261734008789 134.4930419921875 102.87071990966797 132.8178253173828 C 113.86070251464844 133.88894653320312 121.25379943847656 141.09860229492188 123.9632339477539 151.13299560546875" stroke-width="0.0" fill="rgb(4, 3, 3)" opacity="0.9900073"/>
    <path d="M 212.87506103515625 18.66234588623047 C 210.09552001953125 29.740232467651367 202.74073791503906 37.09793472290039 191.65513610839844 39.893497467041016 C 181.22988891601562 37.1367073059082 173.91407775878906 29.750518798828125 171.16659545898438 19.015369415283203 C 173.94430541992188 8.306164741516113 181.310302734375 0.9563148617744446 192.2383575439453 -1.8021124601364136 C 202.7407989501953 0.9122350811958313 210.11306762695312 8.249692916870117 212.87506103515625 18.66234588623047" stroke-width="0.0" fill="rgb(140, 150, 164)" opacity="1.0"/>
    <path d="M 97.94893646240234 301.52093505859375 C 95.23200225830078 311.8779296875 87.85523223876953 319.17584228515625 77.56243133544922 321.8970642089844 C 67.49385833740234 318.68206787109375 60.455238342285156 310.31884765625 57.90779113769531 300.9545593261719 C 60.413597106933594 291.5211486816406 66.63514709472656 282.9309387207031 77.36227416992188 280.07635498046875 C 87.86182403564453 282.8006591796875 95.21341705322266 290.1326904296875 97.94893646240234 301.52093505859375" stroke-width="0.0" fill="rgb(247, 126, 51)" opacity="1.0"/>
    <path d="M 461.9932861328125 526.038330078125 C 459.3271789550781 536.0107421875 452.0186767578125 543.354248046875 441.3151550292969 546.7151489257812 C 431.14178466796875 544.1818237304688 423.8189697265625 536.858154296875 422.9416198730469 526.9088134765625 C 425.6108093261719 516.9143676757812 432.9119873046875 509.6052551269531 442.65472412109375 506.9676208496094 C 451.3075866699219 509.5184020996094 459.0565185546875 516.4646606445312 461.9932861328125 526.038330078125" stroke-width="0.0" fill="rgb(37, 5, 2)" opacity="0.99000525"/>
    <path d="M 506.02392578125 398.9035949707031 C 503.306396484375 408.9934997558594 495.99713134765625 416.319091796875 485.99993896484375 418.99981689453125 C 476.0092468261719 416.3174743652344 468.8385009765625 408.9430847167969 466.863037109375 399.6064758300781 C 469.39019775390625 389.3614807128906 475.3929443359375 380.85076904296875 485.23480224609375 378.07183837890625 C 496.5406494140625 381.002197265625 503.6214599609375 388.5910339355469 506.02392578125 398.9035949707031" stroke-width="0.0" fill="rgb(247, 122, 55)" opacity="0.99023426"/>
    <path d="M 563.8572998046875 103.50838470458984 C 560.717041015625 114.19342803955078 553.0591430664062 121.34306335449219 542.9093627929688 124.061279296875 C 532.5479736328125 121.64950561523438 524.9442749023438 114.59793090820312 522.11572265625 104.39791870117188 C 524.943359375 93.28480529785156 532.2665405273438 85.89656066894531 542.7830810546875 83.13634490966797 C 553.7055053710938 85.92630004882812 561.072998046875 93.29508972167969 563.8572998046875 103.50838470458984" stroke-width="0.0" fill="rgb(140, 151, 165)" opacity="1.0"/>
    <path d="M 519.2000732421875 349.7428894042969 C 516.3204956054688 360.0 509.0 367.32049560546875 498.1666564941406 370.87939453125 C 488.1006164550781 368.23858642578125 480.8408508300781 360.878173828125 479.96600341796875 350.88494873046875 C 482.6013488769531 340.8596496582031 489.6427917480469 331.9238586425781 499.74493408203125 329.035400390625 C 509.8303527832031 331.7779541015625 516.9378051757812 339.2696838378906 519.2000732421875 349.7428894042969" stroke-width="0.0" fill="rgb(2, 4, 4)" opacity="0.99002665"/>
    <path d="M 270.75872802734375 578.6460571289062 C 268.1800842285156 588.8427124023438 260.8250732421875 596.1193237304688 250.6578369140625 597.22900390625 C 240.4014892578125 594.7775268554688 232.9155731201172 587.7050170898438 229.22222900390625 577.2671508789062 C 231.81610107421875 567.1630859375 239.19107055664062 559.9157104492188 250.0937957763672 558.8499755859375 C 260.65521240234375 560.0286865234375 267.9390563964844 567.355224609375 270.75872802734375 578.6460571289062" stroke-width="0.0" fill="rgb(34, 4, 2)" opacity="0.99002963"/>
    <path d="M 371.93463134765625 596.0904541015625 C 369.3237609863281 606.001220703125 362.00030517578125 613.3206176757812 351.99835205078125 616.0006103515625 C 341.9476318359375 613.3400268554688 334.28350830078125 606.1882934570312 332.25323486328125 596.7649536132812 C 335.5155029296875 586.8067626953125 342.8048095703125 579.5112915039062 352.7093505859375 576.8775024414062 C 361.7076110839844 579.0430908203125 369.08642578125 586.2518310546875 371.93463134765625 596.0904541015625" stroke-width="0.0" fill="rgb(139, 149, 163)" opacity="0.99003506"/>
    <path d="M 139.17555236816406 332.32623291015625 C 136.69189453125 341.4089660644531 129.3893280029297 348.64111328125 119.44974517822266 351.3003845214844 C 109.99156188964844 349.3232421875 102.5459213256836 342.0477600097656 99.12409973144531 331.2244567871094 C 101.7987060546875 321.1473083496094 109.16056823730469 313.8337097167969 119.40105438232422 311.1322326660156 C 130.10365295410156 314.15386962890625 136.69418334960938 322.4093322753906 139.17555236816406 332.32623291015625" stroke-width="0.0" fill="rgb(248, 170, 95)" opacity="0.9900567"/>
    <path d="M 191.0001678466797 154.99998474121094 C 188.32054138183594 165.0 180.99998474121094 172.3204803466797 170.99998474121094 174.9999542236328 C 161.0 172.3205108642578 153.67958068847656 164.99996948242188 150.63876342773438 154.84544372558594 C 153.59735107421875 144.970947265625 160.994384765625 137.6778564453125 171.00001525878906 135.00030517578125 C 181.0 137.67950439453125 188.32057189941406 144.99996948242188 191.0001678466797 154.99998474121094" stroke-width="0.0" fill="rgb(253, 236, 197)" opacity="0.99651384"/>
    <path d="M 604.7377319335938 364.19378662109375 C 602.3204956054688 374.0 595.0 381.32049560546875 585.0477294921875 383.97332763671875 C 575.3544921875 381.09814453125 568.38720703125 373.4624328613281 565.9288940429688 364.55999755859375 C 568.5405883789062 354.83624267578125 575.8368530273438 347.5419616699219 585.8796997070312 343.1687927246094 C 595.6797485351562 345.8426208496094 602.1257934570312 353.6385498046875 604.7377319335938 364.19378662109375" stroke-width="0.0" fill="rgb(4, 3, 2)" opacity="0.9900148"/>
    <path d="M 337.138916015625 576.0773315429688 C 334.4373779296875 586.2300415039062 327.4295654296875 593.9527587890625 317.8175964355469 595.3543090820312 C 307.9071350097656 592.411865234375 300.6063537597656 585.0866088867188 297.87213134765625 575.1316528320312 C 299.13848876953125 565.641357421875 306.7972717285156 558.5714721679688 316.4897155761719 556.5895385742188 C 326.3914489746094 559.3710327148438 333.9511413574219 566.5145263671875 337.138916015625 576.0773315429688" stroke-width="0.0" fill="rgb(36, 4, 3)" opacity="0.990014"/>
    <path d="M 59.327518463134766 580.3063354492188 C 56.88794708251953 590.5802001953125 49.6241569519043 598.0156860351562 38.774688720703125 600.8318481445312 C 28.264013290405273 598.0896606445312 20.907665252685547 590.7364501953125 18.146289825439453 580.3994750976562 C 20.962417602539062 569.3037719726562 28.285219192504883 561.914306640625 38.47819900512695 559.183837890625 C 49.177452087402344 562.3324584960938 56.350955963134766 569.9307250976562 59.327518463134766 580.3063354492188" stroke-width="0.0" fill="rgb(139, 153, 167)" opacity="1.0"/>
    <path d="M 589.9583129882812 327.0218200683594 C 587.2079467773438 337.819091796875 579.725341796875 344.9046936035156 568.6710205078125 347.5477600097656 C 559.6846313476562 343.859619140625 552.53173828125 336.2174987792969 549.9423828125 327.04949951171875 C 552.5249633789062 317.76568603515625 559.5606689453125 309.0860290527344 568.628173828125 306.0747375488281 C 579.808349609375 308.85272216796875 587.20166015625 316.1676330566406 589.9583129882812 327.0218200683594" stroke-width="0.0" fill="rgb(153, 84, 45)" opacity="0.99001753"/>
    <path d="M 589.4191284179688 597.7887573242188 C 586.3171997070312 607.9989013671875 578.9998168945312 615.3204345703125 569.0 618.0 C 558.9996948242188 615.3206176757812 551.6734008789062 608.0020141601562 548.4100341796875 597.6774291992188 C 551.4298706054688 587.8955078125 558.9754638671875 580.6753540039062 568.9990234375 578.0188598632812 C 579.0149536132812 580.6790771484375 586.48779296875 587.9334716796875 589.4191284179688 597.7887573242188" stroke-width="0.0" fill="rgb(143, 156, 167)" opacity="0.9974848"/>
    <path d="M 485.83331298828125 582.4364013671875 C 482.7438049316406 593.2567749023438 475.1351318359375 600.3909912109375 464.9923400878906 603.0130615234375 C 454.799560546875 600.4304809570312 447.1423034667969 593.3543090820312 444.1398620605469 582.4697875976562 C 446.8878479003906 572.2341918945312 454.21771240234375 564.8492431640625 464.613525390625 562.0992431640625 C 475.7261962890625 564.9031372070312 483.08447265625 572.2789306640625 485.83331298828125 582.4364013671875" stroke-width="0.0" fill="rgb(141, 153, 167)" opacity="1.0"/>
    <path d="M 135.368408203125 30.372312545776367 C 132.97528076171875 40.68246078491211 125.72322082519531 48.09730529785156 115.6327133178711 50.75715637207031 C 104.992431640625 47.34324645996094 97.67904663085938 40.0013427734375 94.99994659423828 30.000001907348633 C 97.67945098876953 19.999996185302734 105.0000228881836 12.679537773132324 115.00010681152344 9.999839782714844 C 125.00008392333984 12.679352760314941 132.32054138183594 19.99995231628418 135.368408203125 30.372312545776367" stroke-width="0.0" fill="rgb(137, 150, 161)" opacity="1.0"/>
    <path d="M 175.29734802246094 175.23976135253906 C 172.75205993652344 185.39273071289062 165.40464782714844 192.79144287109375 155.30079650878906 195.6667022705078 C 144.61572265625 192.71188354492188 137.302978515625 185.38023376464844 134.48605346679688 174.8289031982422 C 137.25987243652344 164.65164184570312 144.69256591796875 157.39031982421875 154.88809204101562 154.89779663085938 C 165.0 157.6794891357422 172.3205108642578 165.0 175.29734802246094 175.23976135253906" stroke-width="0.0" fill="rgb(255, 237, 199)" opacity="0.9908598"/>
    <path d="M 508.5136413574219 101.47488403320312 C 506.32049560546875 111.0 499.0 118.32051086425781 488.2568054199219 121.7533950805664 C 478.0983581542969 119.21695709228516 470.7450866699219 111.91519165039062 468.10955810546875 101.84318542480469 C 470.8337097167969 90.14765167236328 478.146240234375 82.8282241821289 488.1640625 81.88270568847656 C 498.2078552246094 84.5234603881836 505.585693359375 91.75314331054688 508.5136413574219 101.47488403320312" stroke-width="0.0" fill="rgb(4, 2, 2)" opacity="0.9900078"/>
    <path d="M 503.6763000488281 408.70098876953125 C 500.73370361328125 418.365478515625 493.3003234863281 425.5449523925781 484.12548828125 428.0955810546875 C 474.7718505859375 425.515380859375 467.4891662597656 418.2262878417969 464.8908386230469 408.46697998046875 C 467.23028564453125 399.3602294921875 474.19805908203125 391.7877502441406 484.0191955566406 389.0098571777344 C 493.999755859375 391.6795959472656 501.3169860839844 399.0011901855469 503.6763000488281 408.70098876953125" stroke-width="0.0" fill="rgb(247, 127, 55)" opacity="0.9900189"/>
    <path d="M 101.11688995361328 170.55020141601562 C 98.51657104492188 180.24606323242188 91.27912902832031 187.61489868164062 82.01084899902344 190.9231719970703 C 72.01615905761719 188.26870727539062 64.68026733398438 180.99819946289062 61.80672073364258 170.83204650878906 C 64.29605102539062 160.55960083007812 71.43536376953125 152.97361755371094 82.43876647949219 150.0844268798828 C 92.60697937011719 152.8931427001953 98.65225982666016 161.10643005371094 101.11688995361328 170.55020141601562" stroke-width="0.0" fill="rgb(248, 126, 51)" opacity="0.990052"/>
    <path d="M 122.02816772460938 352.2227783203125 C 119.38826751708984 362.0965576171875 112.13533020019531 369.5415344238281 102.96053314208984 372.5538024902344 C 92.25535583496094 371.0270690917969 84.8486557006836 363.7843017578125 82.20267486572266 353.798828125 C 86.42073059082031 343.5762939453125 92.60579681396484 334.8780517578125 102.8070297241211 332.053955078125 C 113.65254211425781 334.85552978515625 119.50829315185547 343.42059326171875 122.02816772460938 352.2227783203125" stroke-width="0.0" fill="rgb(3, 4, 4)" opacity="0.99000895"/>
    <path d="M 619.0 296.0 C 616.3204956054688 306.0 608.9998168945312 313.31988525390625 598.1729125976562 316.8968505859375 C 588.1414794921875 314.2159729003906 580.845703125 306.8340148925781 578.22265625 296.7036437988281 C 581.7180786132812 286.0125427246094 589.0018920898438 278.6800842285156 599.0 276.0 C 609.0 278.67950439453125 616.3204956054688 286.0 619.0 296.0" stroke-width="0.0" fill="rgb(138, 144, 155)" opacity="1.0"/>
    <path d="M 558.3036499023438 38.688140869140625 C 555.3204956054688 49.0 548.0 56.32050704956055 537.9983520507812 59.00065994262695 C 527.9627685546875 56.33549118041992 520.427490234375 49.11423110961914 517.216552734375 38.4761962890625 C 519.9249267578125 28.276567459106445 527.2737426757812 20.91703987121582 538.1303100585938 18.13348960876465 C 548.6718139648438 20.938371658325195 555.91357421875 28.37843132019043 558.3036499023438 38.688140869140625" stroke-width="0.0" fill="rgb(137, 149, 164)" opacity="1.0"/>
    <path d="M 404.5216064453125 103.06748962402344 C 401.77691650390625 113.41995239257812 394.40435791015625 120.72743225097656 384.3606872558594 123.18998718261719 C 374.27862548828125 119.97001647949219 366.95452880859375 112.7472152709961 363.6313781738281 102.69290161132812 C 366.2531433105469 92.59532165527344 373.59210205078125 85.24076080322266 383.8534851074219 82.36500549316406 C 394.2575988769531 85.34101104736328 401.5486145019531 92.78001403808594 404.5216064453125 103.06748962402344" stroke-width="0.0" fill="rgb(255, 237, 199)" opacity="0.99016744"/>
    <path d="M 284.1446533203125 527.73681640625 C 281.7408752441406 536.397705078125 274.3461608886719 543.5914306640625 264.65802001953125 546.0921630859375 C 255.82040405273438 543.4976196289062 248.55429077148438 536.1602172851562 245.77207946777344 526.1986694335938 C 248.5400848388672 517.8881225585938 255.9096221923828 510.61126708984375 265.0960693359375 507.9756164550781 C 274.0902099609375 510.61285400390625 281.43048095703125 517.8932495117188 284.1446533203125 527.73681640625" stroke-width="0.0" fill="rgb(3, 5, 5)" opacity="0.99000335"/>
    <path d="M 453.9202880859375 68.89749908447266 C 451.2406311035156 78.8980712890625 443.89373779296875 86.22972106933594 433.8055114746094 88.87267303466797 C 422.2942199707031 85.92182922363281 414.8179931640625 78.79112243652344 412.0770263671875 67.53153991699219 C 414.7763671875 57.13007354736328 422.176513671875 49.968997955322266 432.5774841308594 48.90972137451172 C 442.3160095214844 51.38353729248047 449.56707763671875 58.70354080200195 453.9202880859375 68.89749908447266" stroke-width="0.0" fill="rgb(6, 4, 6)" opacity="0.99001366"/>
    <path d="M 524.0233154296875 112.95943450927734 C 521.1578979492188 122.72482299804688 513.5499267578125 129.6875457763672 503.4029846191406 132.2313995361328 C 494.1264953613281 130.26913452148438 486.96685791015625 122.8010482788086 484.15069580078125 112.80957794189453 C 486.62646484375 102.9629135131836 493.9615173339844 95.62162780761719 503.97113037109375 92.8551025390625 C 514.018310546875 95.65559387207031 521.3423461914062 102.98226928710938 524.0233154296875 112.95943450927734" stroke-width="0.0" fill="rgb(5, 4, 4)" opacity="0.9901938"/>
    <path d="M 84.02730560302734 467.71240234375 C 81.44281768798828 476.234619140625 74.5284423828125 484.8161926269531 65.8110580444336 486.1548767089844 C 55.80439376831055 483.47857666015625 48.51083755493164 476.2001647949219 45.84590530395508 466.14483642578125 C 46.776763916015625 456.100830078125 54.09346008300781 448.75604248046875 64.06622314453125 447.5489501953125 C 74.08545684814453 450.60986328125 81.38761138916016 457.9156188964844 84.02730560302734 467.71240234375" stroke-width="0.0" fill="rgb(37, 3, 4)" opacity="0.9900071"/>
    <path d="M 607.7765502929688 278.0766906738281 C 605.079833984375 287.8205261230469 598.1126098632812 295.79443359375 588.7021484375 298.2918701171875 C 578.4158935546875 294.7007141113281 570.5054321289062 287.8557434082031 568.8059692382812 278.4166564941406 C 571.2149047851562 268.47216796875 578.1203002929688 260.070556640625 588.162841796875 257.04266357421875 C 598.247314453125 259.98895263671875 604.953369140625 268.3125 607.7765502929688 278.0766906738281" stroke-width="0.0" fill="rgb(11, 2, 2)" opacity="0.99000645"/>
    <path d="M 156.9335479736328 86.64884185791016 C 154.21697998046875 96.8758773803711 146.87557983398438 104.21599578857422 136.60968017578125 106.9293441772461 C 125.16400909423828 104.17050170898438 117.7821273803711 96.85678100585938 115.07770538330078 86.84652709960938 C 118.15074157714844 75.51024627685547 125.51445770263672 68.16058349609375 136.62355041503906 65.25224304199219 C 146.84005737304688 67.83211517333984 154.1899871826172 75.15210723876953 156.9335479736328 86.64884185791016" stroke-width="0.0" fill="rgb(221, 129, 71)" opacity="1.0"/>
    <path d="M 547.7205810546875 68.59442138671875 C 545.0518798828125 78.65807342529297 537.5961303710938 85.86509704589844 527.255859375 88.2348403930664 C 517.0 85.32046508789062 509.67950439453125 77.99998474121094 507.0 68.0 C 509.67950439453125 58.0 517.0 50.67949295043945 527.0 48.0 C 537.0 50.67949295043945 544.320556640625 57.99998474121094 547.7205810546875 68.59442138671875" stroke-width="0.0" fill="rgb(138, 149, 164)" opacity="1.0"/>
    <path d="M 24.829242706298828 229.9423065185547 C 22.18014144897461 240.86534118652344 14.881913185119629 248.2274627685547 4.828941345214844 250.9044189453125 C -6.05971097946167 247.4684295654297 -13.326656341552734 240.0164794921875 -16.000207901000977 230.0005645751953 C -13.320507049560547 220.0 -5.999981880187988 212.67955017089844 4.056946754455566 209.97206115722656 C 14.416898727416992 212.4130859375 22.059391021728516 219.4114227294922 24.829242706298828 229.9423065185547" stroke-width="0.0" fill="rgb(137, 150, 165)" opacity="1.0"/>
    <path d="M 239.29910278320312 584.4475708007812 C 237.86978149414062 594.5081787109375 230.47764587402344 601.7730102539062 219.8511199951172 604.4130249023438 C 209.40284729003906 601.8960571289062 201.97267150878906 594.6412353515625 199.2110595703125 584.5712890625 C 203.11729431152344 574.46240234375 210.4713592529297 567.15478515625 220.63815307617188 563.3939208984375 C 230.70701599121094 565.909423828125 237.66334533691406 573.3883056640625 239.29910278320312 584.4475708007812" stroke-width="0.0" fill="rgb(87, 95, 104)" opacity="0.99007607"/>
    <path d="M 299.13970947265625 575.1381225585938 C 296.39642333984375 585.08642578125 289.0832214355469 592.3880615234375 279.1796875 595.0306396484375 C 269.5691833496094 592.644287109375 261.9580993652344 586.6767578125 259.5081481933594 576.484619140625 C 262.6795349121094 566.0 270.0 558.6795043945312 280.01580810546875 555.9925537109375 C 290.18975830078125 558.5811767578125 297.8541564941406 565.6527709960938 299.13970947265625 575.1381225585938" stroke-width="0.0" fill="rgb(34, 5, 2)" opacity="0.9900075"/>
    <path d="M 247.71255493164062 534.3320922851562 C 244.3206329345703 545.0000610351562 237.0 552.3204956054688 226.99998474121094 555.0 C 216.99989318847656 552.320556640625 209.67845153808594 545.0003662109375 206.14466857910156 534.2329711914062 C 208.8171844482422 524.1648559570312 216.16561889648438 516.8187866210938 227.43844604492188 514.0639038085938 C 237.85191345214844 516.7969360351562 245.1630096435547 524.162841796875 247.71255493164062 534.3320922851562" stroke-width="0.0" fill="rgb(249, 128, 51)" opacity="1.0"/>
    <path d="M 531.114501953125 359.3779602050781 C 528.6316528320312 369.6406555175781 522.4575805664062 378.04339599609375 511.6783752441406 380.90521240234375 C 501.243896484375 378.1395568847656 494.4406433105469 370.654052734375 492.9344482421875 360.6134033203125 C 495.53326416015625 350.8196105957031 502.8046569824219 343.4913635253906 512.8015747070312 339.1695556640625 C 522.806640625 341.83270263671875 529.99365234375 349.2398986816406 531.114501953125 359.3779602050781" stroke-width="0.0" fill="rgb(244, 127, 51)" opacity="0.99003917"/>
    <path d="M 442.4757385253906 95.81319427490234 C 440.5010986328125 106.08193969726562 433.0295104980469 113.3328628540039 422.806396484375 116.22638702392578 C 412.6395263671875 113.70722961425781 405.274658203125 106.36476135253906 402.35076904296875 95.82986450195312 C 405.14361572265625 85.58738708496094 413.1243591308594 79.32586669921875 422.2161865234375 76.96228790283203 C 432.11724853515625 79.59725952148438 439.5868225097656 86.8361587524414 442.4757385253906 95.81319427490234" stroke-width="0.0" fill="rgb(248, 232, 193)" opacity="0.9900253"/>
    <path d="M 84.80172729492188 572.9950561523438 C 82.0287857055664 583.68359375 74.69856262207031 591.069580078125 64.55122375488281 593.8238525390625 C 53.69429397583008 590.7611694335938 46.54800033569336 583.2030029296875 43.981285095214844 573.0300903320312 C 46.67935562133789 562.9999389648438 53.99995040893555 555.6795043945312 64.1036605834961 552.9176025390625 C 74.39105987548828 555.3661499023438 81.94324493408203 562.5028686523438 84.80172729492188 572.9950561523438" stroke-width="0.0" fill="rgb(137, 150, 166)" opacity="1.0"/>
    <path d="M 119.9200439453125 535.2160034179688 C 117.07341766357422 546.7228393554688 109.73211669921875 554.097412109375 99.34642791748047 556.8580932617188 C 88.26335144042969 554.0785522460938 80.88787841796875 546.74951171875 78.11595916748047 535.8594970703125 C 80.88182830810547 525.229736328125 88.2169418334961 517.8509521484375 99.51643371582031 515.0692749023438 C 109.88973999023438 517.7759399414062 117.23057556152344 525.1077270507812 119.9200439453125 535.2160034179688" stroke-width="0.0" fill="rgb(136, 147, 160)" opacity="1.0"/>
    <path d="M 26.855972290039062 492.1158752441406 C 24.093551635742188 502.7457275390625 16.757352828979492 510.12322998046875 6.665643692016602 512.8473510742188 C -4.117231845855713 509.5693054199219 -11.339081764221191 502.0428161621094 -14.005694389343262 491.9924011230469 C -11.3855562210083 481.8682556152344 -4.269702434539795 474.2256164550781 6.429216384887695 471.1962585449219 C 16.727243423461914 473.9166564941406 24.07720375061035 481.2755126953125 26.855972290039062 492.1158752441406" stroke-width="0.0" fill="rgb(137, 148, 162)" opacity="1.0"/>
    <path d="M 117.87525939941406 67.41716003417969 C 115.11396026611328 77.75025939941406 107.73975372314453 85.08685302734375 96.7933349609375 87.85723876953125 C 86.26860046386719 85.0887680053711 78.9461441040039 77.71968841552734 76.4374008178711 67.50995635986328 C 79.66642761230469 56.98477554321289 86.98259735107422 49.65922164916992 97.18588256835938 46.8265380859375 C 107.52825164794922 49.21665954589844 115.02803802490234 56.3885612487793 117.87525939941406 67.41716003417969" stroke-width="0.0" fill="rgb(138, 151, 165)" opacity="0.9977003"/>
    <path d="M 417.9206848144531 66.24873352050781 C 415.1146545410156 77.50261688232422 406.348388671875 83.46398162841797 397.6179504394531 86.03179931640625 C 387.90863037109375 83.39549255371094 380.60382080078125 76.09160614013672 377.9428405761719 66.09587097167969 C 378.7597351074219 56.0809440612793 386.07415771484375 48.740074157714844 396.84552001953125 46.029659271240234 C 407.9254150390625 48.73934555053711 415.2485046386719 56.07929992675781 417.9206848144531 66.24873352050781" stroke-width="0.0" fill="rgb(3, 2, 3)" opacity="0.99000514"/>
    <path d="M 80.01468658447266 57.9724006652832 C 77.32051086425781 68.0 70.0 75.32051086425781 60.0 78.0 C 50.0 75.32051086425781 42.67949295043945 68.0 39.20237350463867 57.33445739746094 C 41.90927505493164 47.278717041015625 49.28968048095703 39.937808990478516 60.016151428222656 37.14774703979492 C 70.43050384521484 40.0606803894043 77.46614837646484 47.746429443359375 80.01468658447266 57.9724006652832" stroke-width="0.0" fill="rgb(139, 149, 164)" opacity="1.0"/>
    <path d="M 64.67652130126953 408.46319580078125 C 63.12382888793945 418.79913330078125 55.82516860961914 426.19036865234375 44.505897521972656 428.9476623535156 C 34.1312141418457 426.2190856933594 26.792495727539062 418.86334228515625 24.047061920166016 407.5704345703125 C 26.776498794555664 397.1240539550781 34.133174896240234 389.7986755371094 44.599891662597656 387.07293701171875 C 55.79168701171875 389.8451843261719 63.06596755981445 397.2377014160156 64.67652130126953 408.46319580078125" stroke-width="0.0" fill="rgb(242, 125, 52)" opacity="1.0"/>
    <path d="M 571.848876953125 485.2849426269531 C 569.0931396484375 495.7447509765625 561.7550048828125 503.11907958984375 551.3091430664062 505.888671875 C 540.27294921875 503.0858154296875 532.902099609375 495.7317810058594 530.070556640625 484.3113708496094 C 532.791015625 474.1370544433594 540.1382446289062 466.7938232421875 550.2510375976562 464.0906066894531 C 561.6785888671875 466.9617004394531 569.0390625 474.3214111328125 571.848876953125 485.2849426269531" stroke-width="0.0" fill="rgb(136, 147, 161)" opacity="1.0"/>
    <path d="M 157.91958618164062 507.05450439453125 C 155.17431640625 517.8365478515625 147.85202026367188 525.2099609375 137.5002899169922 527.9472045898438 C 126.13758850097656 525.2030639648438 118.77896118164062 517.870361328125 116.08595275878906 507.8425598144531 C 119.65359497070312 496.9882507324219 126.98954772949219 489.6575012207031 137.70819091796875 486.18212890625 C 147.81149291992188 488.84637451171875 155.16668701171875 496.18353271484375 157.91958618164062 507.05450439453125" stroke-width="0.0" fill="rgb(245, 122, 47)" opacity="1.0"/>
    <path d="M 536.0000610351562 62.99988555908203 C 533.3204956054688 73.00003814697266 526.0000610351562 80.32058715820312 516.0000610351562 83.00009155273438 C 506.0 80.32051086425781 498.67950439453125 73.0 495.3271179199219 62.44297409057617 C 497.95538330078125 52.312530517578125 505.30908203125 44.945587158203125 515.4222412109375 42.2622184753418 C 526.0173950195312 45.63153839111328 533.3219604492188 52.99589920043945 536.0000610351562 62.99988555908203" stroke-width="0.0" fill="rgb(138, 149, 163)" opacity="1.0"/>
    <path d="M 606.926513671875 375.8736572265625 C 603.96630859375 385.5427551269531 596.41259765625 392.6016540527344 586.126708984375 396.3559875488281 C 576.1046142578125 394.2354431152344 568.8065185546875 386.8813171386719 567.7815551757812 376.7579345703125 C 570.0863037109375 366.16595458984375 576.9896850585938 358.61871337890625 587.0337524414062 355.8746337890625 C 597.0943603515625 358.55316162109375 604.3787841796875 365.92620849609375 606.926513671875 375.8736572265625" stroke-width="0.0" fill="rgb(5, 6, 9)" opacity="0.99001473"/>
    <path d="M 381.9581298828125 49.684017181396484 C 379.1570739746094 59.1552734375 370.2147216796875 65.43043518066406 361.59002685546875 68.03321838378906 C 351.9148254394531 65.39110565185547 344.6091613769531 58.08506393432617 341.7979736328125 48.07801818847656 C 342.858154296875 38.32890319824219 350.5432434082031 31.39719581604004 360.9577941894531 28.956300735473633 C 371.2061462402344 31.584150314331055 379.02349853515625 38.52827072143555 381.9581298828125 49.684017181396484" stroke-width="0.0" fill="rgb(3, 3, 3)" opacity="0.990007"/>
    <path d="M 551.6403198242188 578.4479370117188 C 548.8370361328125 588.35546875 541.2249145507812 595.46142578125 531.0313720703125 598.0164794921875 C 521.0007934570312 595.3194580078125 513.6803588867188 587.999267578125 511.0011291503906 577.9996948242188 C 513.6797485351562 568.0001831054688 521.000244140625 560.6798095703125 531.0000610351562 558.0005493164062 C 540.9998779296875 560.6796875 548.3203735351562 568.0001220703125 551.6403198242188 578.4479370117188" stroke-width="0.0" fill="rgb(140, 151, 166)" opacity="1.0"/>
    <path d="M 75.87035369873047 505.34686279296875 C 73.10564422607422 515.7489624023438 65.74783325195312 523.1023559570312 55.641292572021484 525.753173828125 C 45.0 522.3204956054688 37.67949295043945 515.0 34.26417541503906 504.37652587890625 C 36.91876983642578 494.3107604980469 44.37042236328125 487.093994140625 54.73196029663086 484.6436462402344 C 65.24267578125 487.505859375 72.91041564941406 494.5987548828125 75.87035369873047 505.34686279296875" stroke-width="0.0" fill="rgb(140, 149, 163)" opacity="1.0"/>
    <path d="M 598.3515625 149.33950805664062 C 595.92578125 159.6028289794922 588.6038208007812 166.9293212890625 577.4736328125 169.78289794921875 C 567.2779541015625 167.08425903320312 559.9266967773438 159.7177734375 557.20166015625 149.4830780029297 C 560.0584716796875 138.35110473632812 567.3021240234375 130.9174346923828 577.4916381835938 128.19004821777344 C 588.2186889648438 131.2876434326172 595.3683471679688 138.9003448486328 598.3515625 149.33950805664062" stroke-width="0.0" fill="rgb(139, 150, 165)" opacity="1.0"/>
    <path d="M 567.81884765625 118.96328735351562 C 564.9183959960938 129.43618774414062 557.2899780273438 136.5053253173828 547.0333862304688 139.0278778076172 C 536.8799438476562 136.37835693359375 529.2376708984375 129.2562255859375 526.2158203125 119.0611343383789 C 529.3385009765625 108.84123992919922 536.9530029296875 101.66169738769531 547.0665893554688 98.95358276367188 C 557.3538208007812 101.4271011352539 564.94384765625 108.51780700683594 567.81884765625 118.96328735351562" stroke-width="0.0" fill="rgb(140, 151, 165)" opacity="1.0"/>
    <path d="M 301.726318359375 561.6809692382812 C 298.748291015625 571.4537963867188 291.5429382324219 579.2396240234375 282.76971435546875 581.1343994140625 C 272.8036193847656 578.48388671875 265.4968566894531 571.2034301757812 261.2317199707031 561.1830444335938 C 263.84375 551.2034912109375 271.21337890625 543.8675537109375 281.5733642578125 541.1007080078125 C 292.4327392578125 544.0521850585938 299.4591369628906 551.7529907226562 301.726318359375 561.6809692382812" stroke-width="0.0" fill="rgb(247, 129, 55)" opacity="0.9900133"/>
    <path d="M 261.02294921875 33.738765716552734 C 258.377685546875 43.07063293457031 251.06967163085938 50.37556457519531 241.14222717285156 53.02592849731445 C 231.3401336669922 50.57933044433594 223.76327514648438 44.855979919433594 221.06649780273438 34.89113998413086 C 225.4578399658203 24.772335052490234 232.78262329101562 17.489093780517578 241.2696533203125 14.928252220153809 C 251.08377075195312 17.599451065063477 258.380126953125 24.92403793334961 261.02294921875 33.738765716552734" stroke-width="0.0" fill="rgb(2, 3, 2)" opacity="0.99000305"/>
    <path d="M 89.23506164550781 60.94712448120117 C 86.72357177734375 71.49507904052734 79.5941390991211 79.01944732666016 69.57622528076172 81.7157974243164 C 59.00021743774414 78.32022857666016 51.67976760864258 70.99978637695312 49.00066375732422 61.000003814697266 C 51.6798210144043 51.00028610229492 59.000267028808594 43.67975616455078 69.60118103027344 40.257137298583984 C 79.61369323730469 42.96577072143555 86.76993560791016 50.47648620605469 89.23506164550781 60.94712448120117" stroke-width="0.0" fill="rgb(140, 151, 165)" opacity="1.0"/>
    <path d="M 565.3314819335938 47.33137893676758 C 562.9304809570312 57.63713455200195 555.684814453125 65.070556640625 545.6210327148438 67.7464828491211 C 535.0001220703125 64.3204116821289 527.6796264648438 56.99989700317383 525.0000610351562 46.999942779541016 C 527.6795043945312 37.0 535.0 29.67949104309082 545.0 27.0 C 555.0 29.67949104309082 562.3204956054688 37.0 565.3314819335938 47.33137893676758" stroke-width="0.0" fill="rgb(138, 149, 164)" opacity="1.0"/>
    <path d="M 326.5824279785156 553.31982421875 C 323.73419189453125 562.7142333984375 315.3882141113281 569.552490234375 305.5208740234375 572.0810546875 C 296.33056640625 569.7648315429688 288.73663330078125 562.8633422851562 285.5102844238281 552.5631103515625 C 288.02972412109375 542.4271850585938 295.64166259765625 536.1387329101562 306.7262268066406 533.8611450195312 C 316.6423034667969 534.945068359375 323.76220703125 542.4527587890625 326.5824279785156 553.31982421875" stroke-width="0.0" fill="rgb(246, 130, 53)" opacity="0.9900426"/>
    <path d="M 65.07618713378906 161.18667602539062 C 62.455833435058594 171.1716766357422 55.190162658691406 178.50559997558594 45.37934494018555 181.3035888671875 C 36.23365020751953 179.17385864257812 29.23779296875 171.61734008789062 26.86995506286621 162.4364471435547 C 29.411636352539062 152.70538330078125 36.71245574951172 145.42898559570312 46.73675537109375 142.82484436035156 C 56.842140197753906 143.83856201171875 64.14458465576172 151.1620330810547 65.07618713378906 161.18667602539062" stroke-width="0.0" fill="rgb(4, 4, 5)" opacity="0.99000573"/>
    <path d="M 619.0 142.0 C 616.3204956054688 152.0 609.0 159.32054138183594 598.5359497070312 162.69407653808594 C 588.760986328125 159.75816345214844 581.635498046875 152.09703063964844 578.67041015625 141.67526245117188 C 581.0775756835938 131.37803649902344 588.341552734375 123.96663665771484 598.4497680664062 121.3316879272461 C 609.0 124.67943572998047 616.3204956054688 132.0 619.0 142.0" stroke-width="0.0" fill="rgb(139, 149, 164)" opacity="1.0"/>
    <path d="M 616.0010986328125 479.999755859375 C 613.335693359375 490.040283203125 606.1368408203125 497.6224670410156 595.4387817382812 500.8357238769531 C 585.2725830078125 498.0834045410156 577.8963012695312 490.7356872558594 575.1163940429688 480.0914306640625 C 577.8880615234375 469.254638671875 585.2675170898438 461.9202575683594 595.5223999023438 459.17608642578125 C 606.1596069335938 462.3372497558594 613.3384399414062 469.9526062011719 616.0010986328125 479.999755859375" stroke-width="0.0" fill="rgb(137, 148, 162)" opacity="1.0"/>
    <path d="M 240.33689880371094 552.3704223632812 C 237.98008728027344 562.6817626953125 230.6835479736328 569.97998046875 220.68418884277344 571.1347045898438 C 210.7757568359375 568.514892578125 203.46670532226562 561.2305297851562 200.6855926513672 551.4082641601562 C 202.7065887451172 542.0095825195312 210.00262451171875 534.6817626953125 219.99893188476562 532.0105590820312 C 229.99649047851562 534.6838989257812 237.316162109375 542.0034790039062 240.33689880371094 552.3704223632812" stroke-width="0.0" fill="rgb(249, 132, 57)" opacity="1.0"/>
  </g>
</svg>
