<?xml version="1.0" ?>
<svg xmlns="http://www.w3.org/2000/svg" version="1.1" width="600" height="600">
  <defs/>
  <g>
    <path d="M 368.6642150878906 39.9636116027832 C 365.8330383300781 50.411865234375 358.33233642578125 57.586917877197266 348.0850524902344 60.066627502441406 C 338.0 57.32050704956055 330.67950439453125 50.0 328.0 40.0 C 330.67950439453125 30.0 338.0 22.67949104309082 348.2654724121094 19.69588279724121 C 358.4900817871094 22.18438148498535 365.8807067871094 29.488815307617188 368.6642150878906 39.9636116027832" stroke-width="0.0" fill="rgb(244, 205, 152)" opacity="1.0"/>
    <path d="M 489.9551696777344 457.3996887207031 C 487.2197265625 467.85272216796875 479.80474853515625 475.0816650390625 469.19256591796875 477.597412109375 C 458.3631286621094 474.9613342285156 450.9686279296875 467.66046142578125 448.6434631347656 457.580322265625 C 451.2781677246094 446.56280517578125 458.511474609375 439.1148681640625 469.6246032714844 436.32037353515625 C 479.8626708984375 438.8172302246094 487.22540283203125 446.12158203125 489.9551696777344 457.3996887207031" stroke-width="0.0" fill="rgb(142, 26, 2)" opacity="0.9900118"/>
    <path d="M 55.722023010253906 196.9279327392578 C 52.891117095947266 207.5255889892578 45.52323913574219 214.8872528076172 34.793304443359375 217.77232360839844 C 24.342182159423828 214.98968505859375 16.95918083190918 207.67686462402344 14.407014846801758 197.52040100097656 C 17.67949104309082 187.0 25.0 179.6794891357422 35.03966522216797 176.97377014160156 C 45.232017517089844 179.5204315185547 52.80116653442383 186.6597900390625 55.722023010253906 196.9279327392578" stroke-width="0.0" fill="rgb(245, 209, 155)" opacity="0.9922676"/>
    <path d="M 541.8846435546875 244.4578094482422 C 539.1958618164062 254.831298828125 531.7601318359375 261.8006286621094 521.8571166992188 263.0370178222656 C 511.9201965332031 260.3862609863281 504.6116943359375 253.08070373535156 501.97283935546875 244.4268798828125 C 504.61663818359375 234.9201202392578 511.9122619628906 227.59585571289062 521.8843383789062 223.4126739501953 C 531.873291015625 225.78726196289062 539.1983032226562 233.1320343017578 541.8846435546875 244.4578094482422" stroke-width="0.0" fill="rgb(27, 18, 15)" opacity="0.99000347"/>
    <path d="M 601.8781127929688 442.79364013671875 C 599.215576171875 452.8743896484375 591.874267578125 460.2158203125 581.8234252929688 462.89666748046875 C 571.0 459.32049560546875 563.6795043945312 452.0 561.0 442.0 C 563.6795043945312 432.0 571.0 424.67950439453125 581.0015258789062 421.9993896484375 C 591.031982421875 424.6663513183594 598.5167236328125 431.9105224609375 601.8781127929688 442.79364013671875" stroke-width="0.0" fill="rgb(53, 73, 87)" opacity="1.0"/>
    <path d="M 363.02020263671875 39.015960693359375 C 360.3583679199219 49.030006408691406 353.0244140625 56.33979415893555 342.43182373046875 59.68672180175781 C 332.3514709472656 57.04152297973633 325.08441162109375 49.60254669189453 322.3044738769531 38.935646057128906 C 325.1068115234375 28.486785888671875 332.5108642578125 21.176544189453125 342.7027587890625 18.61935043334961 C 353.0 21.67949104309082 360.32049560546875 29.0 363.02020263671875 39.015960693359375" stroke-width="0.0" fill="rgb(242, 205, 152)" opacity="1.0"/>
    <path d="M 74.19356536865234 164.0500030517578 C 71.62930297851562 174.3553466796875 64.42656707763672 181.84695434570312 54.42313766479492 184.6021728515625 C 44.00004577636719 181.32034301757812 36.67949295043945 174.0 34.0 164.0 C 36.67949295043945 154.0 44.0 146.6794891357422 54.00552749633789 143.99671936035156 C 64.04483032226562 146.6526336669922 71.43856811523438 153.92745971679688 74.19356536865234 164.0500030517578" stroke-width="0.0" fill="rgb(244, 209, 155)" opacity="0.99566144"/>
    <path d="M 92.07781982421875 222.1195068359375 C 89.50019836425781 231.21875 82.22044372558594 238.50418090820312 72.28365325927734 241.13076782226562 C 63.0487060546875 239.2677764892578 55.89859390258789 231.8966827392578 53.61167526245117 221.84632873535156 C 55.8607063293457 212.14430236816406 63.15998077392578 204.9117431640625 73.27124786376953 202.34921264648438 C 82.35986328125 205.1592559814453 89.50884246826172 212.73410034179688 92.07781982421875 222.1195068359375" stroke-width="0.0" fill="rgb(233, 125, 49)" opacity="0.99000883"/>
    <path d="M 512.841796875 527.788330078125 C 510.2049255371094 537.8630981445312 502.8625183105469 545.2044067382812 492.6202087402344 547.9376831054688 C 481.4740295410156 545.040771484375 474.5104064941406 537.3035888671875 472.3776550292969 527.39111328125 C 475.3363342285156 517.6814575195312 482.7275390625 510.468994140625 492.39697265625 507.90521240234375 C 501.3976745605469 510.386474609375 508.8935241699219 517.5071411132812 512.841796875 527.788330078125" stroke-width="0.0" fill="rgb(60, 74, 80)" opacity="0.990015"/>
    <path d="M 142.87478637695312 598.292236328125 C 139.3430938720703 609.0067138671875 132.0005340576172 616.3206787109375 122.0 619.0 C 111.99947357177734 616.3206787109375 104.65906524658203 609.006103515625 101.10652160644531 598.2034301757812 C 103.81434631347656 588.1913452148438 111.24877166748047 580.9837036132812 121.62752532958984 578.6624145507812 C 132.25474548339844 581.5513305664062 140.0232696533203 588.5079345703125 142.87478637695312 598.292236328125" stroke-width="0.0" fill="rgb(52, 72, 86)" opacity="1.0"/>
    <path d="M 546.5123291015625 119.22877502441406 C 543.9688720703125 129.60833740234375 536.6124267578125 136.97705078125 526.1952514648438 139.72848510742188 C 515.4608764648438 136.9083251953125 508.174560546875 129.5125732421875 505.62890625 119.15148162841797 C 508.3828125 108.74185180664062 515.7711181640625 101.47881317138672 526.23583984375 98.6882553100586 C 536.5363159179688 101.1468734741211 543.8945922851562 108.4510498046875 546.5123291015625 119.22877502441406" stroke-width="0.0" fill="rgb(240, 206, 156)" opacity="1.0"/>
    <path d="M 552.9251708984375 52.74649429321289 C 550.21044921875 62.87094497680664 542.8740844726562 70.2177734375 532.828857421875 72.90105438232422 C 522.0 69.32051086425781 514.6795043945312 62.0 511.37408447265625 51.39372253417969 C 513.85986328125 41.172611236572266 521.1475830078125 33.7909049987793 531.4881591796875 31.05489730834961 C 542.7661743164062 33.83104705810547 550.0009155273438 41.3071403503418 552.9251708984375 52.74649429321289" stroke-width="0.0" fill="rgb(52, 72, 87)" opacity="1.0"/>
    <path d="M 608.0 157.0 C 605.3204956054688 167.0 598.0 174.3205108642578 587.288818359375 177.7625732421875 C 577.1432495117188 175.18360900878906 569.7853393554688 167.86834716796875 567.0699462890625 157.75494384765625 C 570.10986328125 146.65870666503906 577.8583374023438 139.6157684326172 587.991943359375 136.9965057373047 C 598.0 139.6794891357422 605.3204956054688 147.0 608.0 157.0" stroke-width="0.0" fill="rgb(53, 73, 88)" opacity="1.0"/>
    <path d="M 148.76651000976562 44.15001678466797 C 144.61685180664062 54.35639190673828 137.36582946777344 61.64026641845703 127.2655029296875 64.20885467529297 C 117.15806579589844 63.16160583496094 109.79585266113281 55.856689453125 107.05772399902344 44.54609680175781 C 109.7829818725586 34.126251220703125 117.12645721435547 26.783506393432617 128.41473388671875 24.047914505004883 C 138.8704376220703 26.782934188842773 146.2065887451172 34.133907318115234 148.76651000976562 44.15001678466797" stroke-width="0.0" fill="rgb(57, 77, 94)" opacity="0.9900321"/>
    <path d="M 219.89462280273438 97.37808227539062 C 217.07220458984375 108.69547271728516 209.6764373779297 116.023193359375 198.7028045654297 118.8324203491211 C 188.26919555664062 116.08428955078125 180.8845977783203 108.74340057373047 178.06948852539062 97.39513397216797 C 180.81626892089844 87.18264770507812 188.2039337158203 79.86725616455078 199.50927734375 77.09254455566406 C 209.8471221923828 79.81774139404297 217.1969757080078 87.14694213867188 219.89462280273438 97.37808227539062" stroke-width="0.0" fill="rgb(186, 135, 113)" opacity="1.0"/>
    <path d="M 602.775390625 431.2823486328125 C 599.3675537109375 442.02520751953125 592.0133056640625 449.3274230957031 582.0011596679688 452.0003356933594 C 572.0 449.32049560546875 564.6795043945312 442.0 562.19384765625 432.22406005859375 C 565.1876220703125 422.560546875 572.5892944335938 415.2822570800781 582.8240966796875 411.0890197753906 C 592.871826171875 413.7822570800781 600.187744140625 421.13946533203125 602.775390625 431.2823486328125" stroke-width="0.0" fill="rgb(56, 76, 91)" opacity="0.9901225"/>
    <path d="M 358.12841796875 294.8639831542969 C 355.59344482421875 304.341796875 348.4002380371094 311.78607177734375 338.6931457519531 315.7602844238281 C 328.8835144042969 312.59002685546875 321.6675720214844 305.0315246582031 318.99957275390625 295.0010986328125 C 321.67950439453125 285.0 329.0 277.67950439453125 338.76690673828125 275.2177734375 C 348.43402099609375 278.1916198730469 355.59375 285.6393737792969 358.12841796875 294.8639831542969" stroke-width="0.0" fill="rgb(191, 142, 117)" opacity="0.99003416"/>
    <path d="M 522.6414184570312 485.1512451171875 C 519.8475341796875 495.4932861328125 512.499267578125 502.8636169433594 501.9874267578125 505.62481689453125 C 491.5058898925781 502.86346435546875 484.2275390625 495.4655456542969 481.5103454589844 484.7248229980469 C 484.0130615234375 474.31005859375 491.26605224609375 466.88653564453125 501.4472961425781 464.15948486328125 C 512.4793090820312 467.1263427734375 519.789306640625 474.5496826171875 522.6414184570312 485.1512451171875" stroke-width="0.0" fill="rgb(243, 206, 154)" opacity="1.0"/>
    <path d="M 39.02155303955078 463.04071044921875 C 36.52708053588867 473.3451843261719 29.5516300201416 481.0520324707031 18.35188865661621 483.93743896484375 C 8.12232780456543 481.2174377441406 0.7919098138809204 473.8741455078125 -1.915689468383789 462.82354736328125 C 0.7924874424934387 452.1353759765625 8.145915985107422 444.8221435546875 18.30829620361328 442.26617431640625 C 29.0 445.67950439453125 36.32050704956055 453.0 39.02155303955078 463.04071044921875" stroke-width="0.0" fill="rgb(52, 72, 86)" opacity="1.0"/>
    <path d="M 214.58460998535156 550.2536010742188 C 211.8990020751953 560.5405883789062 204.54273986816406 567.9053344726562 194.18869018554688 570.5962524414062 C 183.47329711914062 567.8320922851562 176.0911865234375 560.5508422851562 173.29380798339844 549.8079223632812 C 176.03382873535156 539.393798828125 183.39369201660156 532.0317993164062 193.73049926757812 529.2365112304688 C 204.51075744628906 532.1099243164062 211.7899627685547 539.5217895507812 214.58460998535156 550.2536010742188" stroke-width="0.0" fill="rgb(240, 205, 152)" opacity="1.0"/>
    <path d="M 145.94970703125 555.4877319335938 C 143.18235778808594 566.7864379882812 135.6975555419922 573.923583984375 124.76512145996094 576.4529418945312 C 114.25508880615234 574.01953125 106.817626953125 566.8021850585938 104.06861114501953 556.6326904296875 C 106.88611602783203 545.300537109375 114.365966796875 538.032958984375 125.80513763427734 535.072021484375 C 135.8862762451172 537.77294921875 143.2254180908203 545.1144409179688 145.94970703125 555.4877319335938" stroke-width="0.0" fill="rgb(52, 72, 86)" opacity="1.0"/>
    <path d="M 600.8680419921875 351.79486083984375 C 598.1027221679688 362.7297058105469 590.707275390625 370.0442199707031 580.3641967773438 372.759033203125 C 569.4090576171875 369.92401123046875 562.0062255859375 362.61541748046875 559.2728271484375 352.42620849609375 C 562.1917114257812 341.52532958984375 569.5156860351562 334.1628723144531 579.7042846679688 331.6345520019531 C 590.1943359375 334.587890625 597.9682006835938 341.5777587890625 600.8680419921875 351.79486083984375" stroke-width="0.0" fill="rgb(241, 205, 152)" opacity="1.0"/>
    <path d="M 199.94467163085938 583.5086059570312 C 197.20054626464844 594.8414306640625 189.8104705810547 602.1122436523438 178.86135864257812 604.7276611328125 C 168.18031311035156 602.1282958984375 160.79739379882812 594.8458862304688 158.05108642578125 583.7160034179688 C 160.78712463378906 573.133056640625 168.1345977783203 565.7908935546875 178.72377014160156 563.0543823242188 C 189.8628387451172 565.7994995117188 197.2172393798828 573.1300659179688 199.94467163085938 583.5086059570312" stroke-width="0.0" fill="rgb(52, 71, 85)" opacity="1.0"/>
    <path d="M 367.7945556640625 5.441885948181152 C 365.9180908203125 15.56683349609375 358.56524658203125 22.91255760192871 348.26373291015625 25.503360748291016 C 337.58447265625 22.722440719604492 330.1355895996094 15.462276458740234 327.3360900878906 5.368602752685547 C 330.5636901855469 -5.048238277435303 337.9845886230469 -12.326744079589844 347.9992370605469 -15.000269889831543 C 358.0015869140625 -12.32069206237793 365.35870361328125 -5.012332916259766 367.7945556640625 5.441885948181152" stroke-width="0.0" fill="rgb(239, 206, 152)" opacity="1.0"/>
    <path d="M 503.925537109375 28.26918601989746 C 500.88970947265625 39.3338623046875 493.12823486328125 46.375335693359375 482.9989318847656 49.005558013916016 C 472.8577880859375 46.3825798034668 465.09222412109375 39.35344314575195 462.06219482421875 28.217010498046875 C 464.7744445800781 18.120153427124023 472.126220703125 10.788618087768555 482.78350830078125 8.05975341796875 C 493.86981201171875 10.792071342468262 501.21356201171875 18.127845764160156 503.925537109375 28.26918601989746" stroke-width="0.0" fill="rgb(52, 72, 86)" opacity="1.0"/>
    <path d="M 466.56011962890625 97.43924713134766 C 463.893798828125 107.29639434814453 455.63043212890625 113.6432113647461 446.252197265625 116.09274291992188 C 436.7646484375 113.5166244506836 429.4852600097656 106.23471069335938 426.8888244628906 96.32632446289062 C 428.3990478515625 86.68161010742188 435.7005615234375 79.44904327392578 445.93365478515625 76.95507049560547 C 456.0 79.67948913574219 463.32049560546875 87.0 466.56011962890625 97.43924713134766" stroke-width="0.0" fill="rgb(232, 128, 53)" opacity="0.9900146"/>
    <path d="M 543.891845703125 515.1747436523438 C 540.3267211914062 526.0186767578125 533.098876953125 533.5718383789062 522.2919921875 536.8965454101562 C 512.2801513671875 534.1344604492188 505.1512145996094 526.6190185546875 503.6973876953125 516.6361083984375 C 506.42877197265625 506.71844482421875 513.7308959960938 499.4605712890625 523.8650512695312 495.3771057128906 C 533.8795166015625 497.7837219238281 541.2225952148438 505.11798095703125 543.891845703125 515.1747436523438" stroke-width="0.0" fill="rgb(58, 76, 90)" opacity="0.99006116"/>
    <path d="M 490.19439697265625 485.364990234375 C 487.67333984375 495.4651184082031 480.5267639160156 502.828369140625 470.63128662109375 505.3103942871094 C 460.96343994140625 503.4018859863281 453.6741943359375 496.0138854980469 450.8197021484375 485.8151550292969 C 453.2693786621094 475.5874328613281 460.5953369140625 468.2995910644531 471.46063232421875 465.59423828125 C 481.7425537109375 467.9326171875 489.0353088378906 475.2660827636719 490.19439697265625 485.364990234375" stroke-width="0.0" fill="rgb(190, 79, 28)" opacity="0.9900256"/>
    <path d="M 103.45045471191406 100.65715789794922 C 100.33126068115234 111.02812957763672 93.09435272216797 118.53909301757812 83.05632781982422 121.5915298461914 C 72.82421875 118.61186981201172 65.62191009521484 111.10050201416016 62.3981819152832 100.45321655273438 C 64.91972351074219 90.25801849365234 72.2528076171875 82.90281677246094 82.84869384765625 80.205322265625 C 93.66370391845703 82.92601013183594 100.88412475585938 90.40668487548828 103.45045471191406 100.65715789794922" stroke-width="0.0" fill="rgb(244, 209, 158)" opacity="1.0"/>
    <path d="M 302.0489501953125 85.18362426757812 C 299.41448974609375 95.11576080322266 292.1170349121094 102.41754913330078 282.3688049316406 105.04417419433594 C 272.57696533203125 102.5893325805664 264.792236328125 96.79226684570312 263.67559814453125 86.91954803466797 C 266.58673095703125 76.88292694091797 273.8785705566406 69.57660675048828 283.7406921386719 66.95183563232422 C 293.6736145019531 68.50389099121094 300.9385986328125 75.28717803955078 302.0489501953125 85.18362426757812" stroke-width="0.0" fill="rgb(167, 30, 16)" opacity="0.9900054"/>
    <path d="M 374.9117736816406 67.3095703125 C 370.5359191894531 77.1518783569336 363.1142272949219 84.40240478515625 353.4524841308594 87.0342025756836 C 344.8993835449219 84.40592193603516 337.6006774902344 77.0978012084961 334.9563293457031 67.17401885986328 C 337.1163330078125 58.080806732177734 344.0739440917969 51.088340759277344 354.4552917480469 48.853233337402344 C 364.62054443359375 50.18338394165039 372.1155090332031 57.28863525390625 374.9117736816406 67.3095703125" stroke-width="0.0" fill="rgb(81, 18, 14)" opacity="0.9900036"/>
    <path d="M 423.9366455078125 105.5909423828125 C 421.1431884765625 116.75843811035156 413.732421875 124.08441162109375 403.32183837890625 126.86754608154297 C 392.5916442871094 123.97749328613281 386.25592041015625 115.78848266601562 383.6469421386719 105.31676483154297 C 384.8808898925781 95.18148803710938 392.1497802734375 87.79057312011719 402.4248962402344 85.06062316894531 C 413.826416015625 87.82576751708984 421.19024658203125 95.16647338867188 423.9366455078125 105.5909423828125" stroke-width="0.0" fill="rgb(185, 137, 112)" opacity="1.0"/>
    <path d="M 449.92254638671875 6.676386833190918 C 447.19921875 16.856382369995117 439.8575744628906 24.202190399169922 428.7285461425781 26.940719604492188 C 418.129150390625 24.211891174316406 410.7862243652344 16.871761322021484 408.0684509277344 6.67352819442749 C 411.0204772949219 -4.443150520324707 418.7783508300781 -11.431930541992188 428.9994812011719 -14.015054702758789 C 439.2146301269531 -11.428218841552734 446.9602355957031 -4.4260430335998535 449.92254638671875 6.676386833190918" stroke-width="0.0" fill="rgb(51, 72, 87)" opacity="1.0"/>
    <path d="M 347.00982666015625 295.9998474121094 C 344.3210754394531 306.00006103515625 336.999755859375 313.32000732421875 326.8373718261719 316.126220703125 C 316.468505859375 313.76141357421875 308.9371032714844 306.63555908203125 306.1312255859375 296.34661865234375 C 308.9443359375 285.3009948730469 316.3015441894531 277.9469909667969 326.4513854980469 275.3567199707031 C 337.00006103515625 278.67950439453125 344.3212890625 285.9997253417969 347.00982666015625 295.9998474121094" stroke-width="0.0" fill="rgb(190, 141, 117)" opacity="1.0"/>
    <path d="M 65.8904037475586 596.25537109375 C 62.59846496582031 607.11865234375 55.0298957824707 614.3313598632812 44.99760818481445 617.0015258789062 C 34.90519714355469 614.357177734375 27.142114639282227 607.294677734375 24.068008422851562 596.2334594726562 C 26.779666900634766 586.1205444335938 34.11931228637695 578.77685546875 44.52067184448242 576.0514526367188 C 55.85456085205078 578.7988891601562 63.191741943359375 586.149169921875 65.8904037475586 596.25537109375" stroke-width="0.0" fill="rgb(52, 72, 86)" opacity="1.0"/>
    <path d="M 543.942138671875 90.44658660888672 C 541.1767578125 101.80853271484375 533.7662353515625 109.04695892333984 523.7305297851562 110.11506652832031 C 513.7391967773438 107.5283432006836 506.43109130859375 100.27684020996094 503.6929626464844 90.41480255126953 C 505.67950439453125 81.0 513.0 73.67948913574219 523.5953979492188 70.3777847290039 C 533.8168334960938 72.86946868896484 541.2036743164062 80.15615844726562 543.942138671875 90.44658660888672" stroke-width="0.0" fill="rgb(57, 77, 89)" opacity="0.9900267"/>
    <path d="M 519.8997802734375 398.4561462402344 C 516.9525756835938 409.4313659667969 509.2379455566406 416.45123291015625 498.6905517578125 419.3600769042969 C 488.52508544921875 416.86468505859375 481.87359619140625 409.3265075683594 479.8462829589844 399.5563659667969 C 482.4078674316406 389.6666564941406 489.656982421875 382.3833923339844 499.8030090332031 378.2568664550781 C 509.82489013671875 380.8341369628906 517.17578125 388.17095947265625 519.8997802734375 398.4561462402344" stroke-width="0.0" fill="rgb(189, 140, 115)" opacity="0.9900588"/>
    <path d="M 200.00030517578125 491.9932861328125 C 197.30552673339844 501.972900390625 189.9504852294922 509.230712890625 180.36012268066406 511.2792663574219 C 170.3010711669922 508.8623352050781 162.78733825683594 501.8188171386719 160.00531005859375 491.9636535644531 C 162.5850830078125 481.81512451171875 169.63218688964844 474.1044006347656 179.51699829101562 471.1994323730469 C 190.1591339111328 474.3693542480469 197.35008239746094 481.9343566894531 200.00030517578125 491.9932861328125" stroke-width="0.0" fill="rgb(208, 99, 38)" opacity="0.99009466"/>
    <path d="M 313.73577880859375 27.913284301757812 C 310.71844482421875 38.2330436706543 303.1184387207031 45.38408279418945 292.88800048828125 48.115596771240234 C 282.6629638671875 45.632442474365234 275.2870788574219 38.361549377441406 272.6298522949219 27.962080001831055 C 275.2256164550781 17.539400100708008 282.511962890625 10.139232635498047 293.2109069824219 7.281717300415039 C 303.5632019042969 10.070296287536621 310.91650390625 17.441139221191406 313.73577880859375 27.913284301757812" stroke-width="0.0" fill="rgb(246, 210, 155)" opacity="0.99167067"/>
    <path d="M 357.1656799316406 266.947265625 C 354.66259765625 276.4328308105469 347.50634765625 283.8839111328125 337.7889709472656 286.8627624511719 C 327.677734375 284.528076171875 320.0227966308594 277.48736572265625 317.4585266113281 267.73309326171875 C 321.3489074707031 257.619384765625 328.6278381347656 250.37017822265625 338.0751647949219 247.844482421875 C 347.39215087890625 250.3457794189453 354.6607666015625 257.60540771484375 357.1656799316406 266.947265625" stroke-width="0.0" fill="rgb(192, 142, 118)" opacity="0.9900146"/>
    <path d="M 593.9429321289062 48.9195442199707 C 591.2128295898438 59.87262725830078 583.8736572265625 67.21525573730469 573.067626953125 69.94158172607422 C 562.1268920898438 67.212890625 554.7850952148438 59.8739128112793 552.1178588867188 49.811668395996094 C 555.6795043945312 39.0 563.0 31.67949104309082 573.563232421875 28.434906005859375 C 583.8204956054688 30.876996994018555 591.2077026367188 38.14979934692383 593.9429321289062 48.9195442199707" stroke-width="0.0" fill="rgb(52, 72, 87)" opacity="1.0"/>
    <path d="M 65.92431640625 475.7687072753906 C 63.2175178527832 485.8739318847656 55.871829986572266 493.21258544921875 44.6845703125 495.9466247558594 C 34.11740493774414 493.2239990234375 26.79021453857422 485.8772277832031 24.174217224121094 475.7712707519531 C 27.679508209228516 465.0 35.00000762939453 457.67950439453125 45.004791259765625 454.998046875 C 55.102081298828125 457.6366271972656 62.82923126220703 464.71881103515625 65.92431640625 475.7687072753906" stroke-width="0.0" fill="rgb(53, 73, 88)" opacity="1.0"/>
    <path d="M 70.13427734375 457.61358642578125 C 68.92401123046875 467.63201904296875 61.63026809692383 474.92584228515625 51.316802978515625 477.2917175292969 C 41.00007629394531 474.32037353515625 33.679561614990234 466.99993896484375 31.00006866455078 457.00006103515625 C 33.68136215209961 447.0058288574219 41.04289245605469 439.8056945800781 50.467796325683594 437.84356689453125 C 60.32765579223633 440.3924560546875 67.57234954833984 447.6873474121094 70.13427734375 457.61358642578125" stroke-width="0.0" fill="rgb(59, 78, 92)" opacity="0.9900218"/>
    <path d="M 468.7760314941406 504.1580810546875 C 465.9030456542969 514.5447998046875 458.5461120605469 521.906005859375 448.31768798828125 524.6024169921875 C 437.89691162109375 521.5211791992188 430.6570129394531 514.0471801757812 427.5722351074219 503.7131652832031 C 430.27752685546875 493.7282409667969 437.82562255859375 486.57318115234375 447.64892578125 484.3643493652344 C 457.45379638671875 487.26104736328125 465.0612487792969 494.4749755859375 468.7760314941406 504.1580810546875" stroke-width="0.0" fill="rgb(249, 194, 140)" opacity="1.0"/>
    <path d="M 149.75494384765625 510.3924255371094 C 146.98699951171875 520.6124267578125 139.6024627685547 527.9592895507812 129.5735321044922 529.4923706054688 C 119.07777404785156 527.1472778320312 111.69219970703125 519.9718627929688 108.7766342163086 509.88720703125 C 111.54975128173828 499.93658447265625 118.971923828125 492.6661682128906 129.06890869140625 489.9425048828125 C 139.28060913085938 492.4544982910156 146.76889038085938 499.6478576660156 149.75494384765625 510.3924255371094" stroke-width="0.0" fill="rgb(240, 205, 152)" opacity="1.0"/>
    <path d="M 420.6336364746094 548.751953125 C 417.7461242675781 559.32666015625 410.2536926269531 566.5183715820312 399.6056823730469 569.5444946289062 C 389.48486328125 566.9127807617188 382.1899719238281 559.4777221679688 379.3252868652344 548.8377685546875 C 382.1243591308594 538.5252685546875 389.5865478515625 531.3158569335938 400.31488037109375 528.5117797851562 C 410.59942626953125 531.066162109375 417.95989990234375 538.391845703125 420.6336364746094 548.751953125" stroke-width="0.0" fill="rgb(246, 205, 151)" opacity="0.9933184"/>
    <path d="M 71.21483612060547 379.2137145996094 C 68.7739486694336 389.4651794433594 61.48788833618164 396.847412109375 50.88808059692383 399.63330078125 C 40.482845306396484 396.87982177734375 33.15320587158203 389.506591796875 30.646793365478516 379.3012390136719 C 33.67949295043945 369.0 41.0 361.67950439453125 51.0 359.0 C 61.0 361.67950439453125 68.32051086425781 369.0 71.21483612060547 379.2137145996094" stroke-width="0.0" fill="rgb(245, 210, 155)" opacity="0.99290544"/>
    <path d="M 145.6141357421875 492.6705627441406 C 142.549072265625 503.1189270019531 135.05455017089844 510.34649658203125 124.91755676269531 513.066650390625 C 114.64230346679688 510.59796142578125 107.08928680419922 503.4635925292969 104.1998519897461 493.02227783203125 C 107.05856323242188 482.45281982421875 114.46832275390625 475.0967102050781 125.3050537109375 472.177734375 C 135.64288330078125 474.97515869140625 142.9550018310547 482.3825378417969 145.6141357421875 492.6705627441406" stroke-width="0.0" fill="rgb(246, 210, 154)" opacity="0.99245703"/>
    <path d="M 61.810489654541016 343.4250793457031 C 58.74951934814453 354.29266357421875 51.19487762451172 361.4561767578125 41.027671813964844 364.0282897949219 C 30.921411514282227 361.3634033203125 23.42156219482422 354.1472473144531 20.38748550415039 343.82470703125 C 23.130260467529297 333.4551086425781 30.424226760864258 326.0400695800781 41.057621002197266 323.206298828125 C 51.64794921875 326.00823974609375 59.069644927978516 333.3211975097656 61.810489654541016 343.4250793457031" stroke-width="0.0" fill="rgb(245, 206, 152)" opacity="1.0"/>
    <path d="M 582.8699340820312 459.80712890625 C 580.2194213867188 469.8819274902344 572.8831176757812 477.2226257324219 562.1433715820312 479.94683837890625 C 551.140380859375 477.2146911621094 543.8823852539062 469.8280334472656 542.8670043945312 459.71759033203125 C 545.4097900390625 449.6135559082031 552.49853515625 442.0791320800781 562.1358642578125 439.1018981933594 C 571.9992065429688 441.6802673339844 579.3190307617188 449.0010070800781 582.8699340820312 459.80712890625" stroke-width="0.0" fill="rgb(54, 76, 87)" opacity="0.99002635"/>
    <path d="M 184.2421417236328 26.123123168945312 C 180.4959716796875 36.22468185424805 173.24502563476562 43.546627044677734 163.44281005859375 46.13124465942383 C 153.31103515625 44.83283615112305 145.8719940185547 37.758399963378906 143.2840576171875 27.64727020263672 C 146.6794891357422 17.0 154.0 9.679491996765137 164.6827392578125 6.272145748138428 C 174.8477020263672 8.828170776367188 182.20726013183594 16.139467239379883 184.2421417236328 26.123123168945312" stroke-width="0.0" fill="rgb(57, 76, 90)" opacity="0.99001825"/>
    <path d="M 542.130615234375 205.64389038085938 C 540.7607421875 215.61935424804688 533.7453002929688 223.16123962402344 522.5853271484375 225.93777465820312 C 512.1357421875 223.2163543701172 504.82733154296875 215.8467254638672 502.0581970214844 204.30224609375 C 504.7863464355469 194.15859985351562 512.2149047851562 186.95008850097656 522.3812866210938 185.28900146484375 C 532.2673950195312 188.40809631347656 539.5278930664062 195.75393676757812 542.130615234375 205.64389038085938" stroke-width="0.0" fill="rgb(184, 67, 17)" opacity="0.99004006"/>
    <path d="M 589.945068359375 107.29537963867188 C 587.2212524414062 117.88130187988281 579.884033203125 125.22750091552734 569.2984008789062 127.95431518554688 C 558.1160278320312 125.22433471679688 550.7809448242188 117.88186645507812 548.0624389648438 107.52452087402344 C 550.8119506835938 96.15345001220703 558.1454467773438 88.79322814941406 569.2571411132812 86.0511245727539 C 579.888671875 88.7701644897461 587.2173461914062 96.11643981933594 589.945068359375 107.29537963867188" stroke-width="0.0" fill="rgb(52, 71, 86)" opacity="1.0"/>
    <path d="M 340.8301086425781 324.616943359375 C 338.0722961425781 335.710693359375 330.6721496582031 342.94000244140625 320.595703125 344.15863037109375 C 310.65985107421875 341.61187744140625 303.4025573730469 334.3343811035156 300.8250427246094 324.5289001464844 C 303.0610656738281 314.8731994628906 309.5914001464844 307.1270446777344 319.6697998046875 304.509765625 C 330.431884765625 307.3501892089844 338.0168762207031 314.43817138671875 340.8301086425781 324.616943359375" stroke-width="0.0" fill="rgb(192, 142, 117)" opacity="0.99002016"/>
    <path d="M 435.9452819824219 580.5389404296875 C 433.22705078125 590.8851928710938 425.8818664550781 598.219482421875 414.59649658203125 600.9498901367188 C 404.1137390136719 598.2262573242188 396.7783508300781 590.8843383789062 394.1437683105469 580.8731689453125 C 398.4781799316406 570.7721557617188 405.77734375 563.491943359375 415.4223327636719 560.9083251953125 C 425.60980224609375 563.0293579101562 433.1814880371094 569.2210083007812 435.9452819824219 580.5389404296875" stroke-width="0.0" fill="rgb(54, 76, 95)" opacity="0.990021"/>
    <path d="M 442.20379638671875 516.6146850585938 C 439.77880859375 526.5718383789062 432.6130676269531 533.8814086914062 422.6530456542969 536.2744750976562 C 412.6205749511719 534.53466796875 405.16412353515625 527.4583740234375 402.6716613769531 517.2940063476562 C 405.67950439453125 507.0 413.0 499.67950439453125 423.7488708496094 496.1377258300781 C 433.71673583984375 498.86767578125 440.7372741699219 506.40106201171875 442.20379638671875 516.6146850585938" stroke-width="0.0" fill="rgb(215, 101, 30)" opacity="0.9900188"/>
    <path d="M 541.3118896484375 424.9217529296875 C 538.6428833007812 435.3197021484375 531.322265625 442.6513366699219 521.1483764648438 445.1596374511719 C 511.0 442.32049560546875 503.67950439453125 435.0 501.0029296875 425.003662109375 C 503.67950439453125 414.96807861328125 510.8133239746094 407.2646484375 520.7477416992188 404.2091369628906 C 531.463623046875 407.14996337890625 538.7386474609375 414.5725402832031 541.3118896484375 424.9217529296875" stroke-width="0.0" fill="rgb(243, 205, 153)" opacity="1.0"/>
    <path d="M 539.3165893554688 176.736328125 C 536.833740234375 186.64239501953125 529.7972412109375 194.39151000976562 519.555419921875 197.4860382080078 C 509.1672668457031 195.1209716796875 501.77581787109375 187.8673553466797 499.11773681640625 177.8818359375 C 503.32293701171875 167.1661376953125 509.4559326171875 158.93093872070312 519.3832397460938 156.12667846679688 C 530.1585083007812 159.3237762451172 537.1773071289062 167.013916015625 539.3165893554688 176.736328125" stroke-width="0.0" fill="rgb(227, 128, 49)" opacity="0.99002504"/>
    <path d="M 102.48876953125 426.03240966796875 C 100.16221618652344 436.118408203125 93.2853775024414 443.7373352050781 82.89755249023438 446.62457275390625 C 72.50384521484375 443.84552001953125 65.12715148925781 436.50567626953125 62.24989700317383 425.7398986816406 C 65.0671157836914 415.4429626464844 72.43163299560547 408.0390625 82.40766906738281 405.28692626953125 C 92.6771469116211 409.0848388671875 99.97806549072266 416.29888916015625 102.48876953125 426.03240966796875" stroke-width="0.0" fill="rgb(246, 212, 159)" opacity="0.9900878"/>
    <path d="M 565.9029541015625 594.209716796875 C 562.9816284179688 604.4529418945312 555.2386474609375 611.442626953125 544.9938354492188 614.0196533203125 C 534.7008056640625 611.4784545898438 526.94677734375 604.5352172851562 524.0596923828125 593.33251953125 C 526.7781982421875 583.1170043945312 534.1168823242188 575.7779541015625 544.3478393554688 573.0621948242188 C 555.6663208007812 575.8981323242188 562.9813232421875 583.3968505859375 565.9029541015625 594.209716796875" stroke-width="0.0" fill="rgb(52, 72, 89)" opacity="1.0"/>
    <path d="M 110.67770385742188 465.9313659667969 C 107.85625457763672 476.4967041015625 100.5123519897461 483.9003601074219 89.8856201171875 486.7601013183594 C 79.30772399902344 484.0232849121094 71.91898345947266 476.7133483886719 69.17893981933594 466.32293701171875 C 72.03186798095703 455.4010314941406 79.40028381347656 448.0303649902344 89.7278060913086 445.2662658691406 C 100.55158233642578 448.09527587890625 107.9100112915039 455.4466857910156 110.67770385742188 465.9313659667969" stroke-width="0.0" fill="rgb(241, 205, 152)" opacity="1.0"/>
    <path d="M 125.86791229248047 527.855712890625 C 123.16790008544922 537.7670288085938 115.7049331665039 545.03271484375 104.3060073852539 547.9241333007812 C 94.14131927490234 545.2010498046875 86.80021667480469 537.8583984375 84.14083862304688 527.7207641601562 C 86.947998046875 516.2335815429688 94.1844253540039 508.8099365234375 104.13196563720703 506.1562805175781 C 114.21713256835938 510.4897766113281 121.51123809814453 517.7825927734375 125.86791229248047 527.855712890625" stroke-width="0.0" fill="rgb(59, 77, 92)" opacity="0.99019074"/>
    <path d="M 615.0030517578125 162.00718688964844 C 612.380615234375 172.13690185546875 605.3424682617188 179.89576721191406 594.2893676757812 182.93115234375 C 584.2053833007812 180.1831817626953 577.0296020507812 172.72067260742188 574.7271118164062 162.3223419189453 C 577.6795043945312 152.0 585.0 144.6794891357422 595.0 142.0 C 605.0 144.6794891357422 612.3204956054688 152.0 615.0030517578125 162.00718688964844" stroke-width="0.0" fill="rgb(53, 73, 87)" opacity="1.0"/>
    <path d="M 75.84817504882812 374.4627685546875 C 72.88776397705078 385.4724426269531 65.41423797607422 392.7139587402344 55.173988342285156 395.1772766113281 C 45.0 392.32049560546875 37.67948913574219 385.0 35.0002555847168 375.0002136230469 C 37.680049896240234 365.0004577636719 45.000396728515625 357.6798400878906 55.47797775268555 354.466552734375 C 65.72608947753906 356.9633483886719 73.12619018554688 364.2424011230469 75.84817504882812 374.4627685546875" stroke-width="0.0" fill="rgb(245, 206, 152)" opacity="1.0"/>
    <path d="M 53.84556579589844 69.757080078125 C 51.203556060791016 79.86263275146484 43.8609619140625 87.19993591308594 32.42823791503906 89.94349670410156 C 22.116256713867188 87.22573852539062 14.781719207763672 79.88066101074219 12.055282592773438 69.10920715332031 C 14.788806915283203 58.13035583496094 22.130401611328125 50.78889083862305 32.989990234375 48.05368423461914 C 43.773902893066406 50.82265853881836 50.89948272705078 58.3241081237793 53.84556579589844 69.757080078125" stroke-width="0.0" fill="rgb(53, 72, 87)" opacity="1.0"/>
    <path d="M 583.886474609375 34.18424987792969 C 580.3203125 44.99988555908203 572.9999389648438 52.3204460144043 562.6659545898438 55.3812255859375 C 552.4820556640625 52.880184173583984 545.1063232421875 45.519615173339844 542.0726318359375 34.225372314453125 C 544.7807006835938 24.118303298950195 552.1160888671875 16.775598526000977 563.4830932617188 14.04564094543457 C 573.8780517578125 16.776094436645508 581.2159423828125 24.12517547607422 583.886474609375 34.18424987792969" stroke-width="0.0" fill="rgb(52, 74, 87)" opacity="1.0"/>
    <path d="M 588.6824951171875 245.82322692871094 C 585.874267578125 256.5211486816406 578.5347290039062 263.9139099121094 568.1712646484375 266.7519836425781 C 557.4534301757812 263.90594482421875 550.125244140625 256.5364990234375 547.3633422851562 246.10140991210938 C 550.46630859375 235.9098358154297 557.9744873046875 228.66981506347656 568.3338012695312 225.60598754882812 C 578.557373046875 228.11341857910156 585.9358520507812 235.4262237548828 588.6824951171875 245.82322692871094" stroke-width="0.0" fill="rgb(246, 209, 153)" opacity="0.9917638"/>
    <path d="M 281.38311767578125 27.051830291748047 C 278.8111572265625 37.50603485107422 271.5426940917969 44.923606872558594 261.26385498046875 47.667259216308594 C 250.54083251953125 44.800052642822266 243.20835876464844 37.456851959228516 240.6436309814453 27.13646697998047 C 243.3401336669922 16.643281936645508 250.60260009765625 9.212574005126953 261.2348937988281 6.2890777587890625 C 271.502197265625 9.106223106384277 278.76629638671875 16.539295196533203 281.38311767578125 27.051830291748047" stroke-width="0.0" fill="rgb(246, 210, 152)" opacity="0.99192476"/>
    <path d="M 512.9423217773438 586.6365966796875 C 510.1799011230469 597.7987060546875 502.7378234863281 605.0036010742188 492.00714111328125 607.4907836914062 C 481.25506591796875 605.0064697265625 473.8125 597.80712890625 471.0579833984375 587.0767822265625 C 473.7968444824219 576.1392211914062 481.1360778808594 568.7894897460938 492.3717956542969 566.0475463867188 C 502.8768615722656 568.7781982421875 510.2118835449219 576.1272583007812 512.9423217773438 586.6365966796875" stroke-width="0.0" fill="rgb(52, 72, 86)" opacity="1.0"/>
    <path d="M 456.8468017578125 175.09059143066406 C 454.0789794921875 185.7261199951172 446.7073059082031 193.0167999267578 435.6526184082031 195.20420837402344 C 425.32318115234375 193.0009002685547 417.94293212890625 185.69554138183594 415.142333984375 174.7568817138672 C 417.8914794921875 164.24615478515625 425.2498474121094 156.900634765625 435.721435546875 154.15802001953125 C 446.6866149902344 156.9553680419922 454.0592956542969 164.3077392578125 456.8468017578125 175.09059143066406" stroke-width="0.0" fill="rgb(191, 142, 118)" opacity="0.99248517"/>
    <path d="M 60.13656234741211 172.1403045654297 C 57.65637969970703 182.3457794189453 50.35587692260742 189.689697265625 40.17103576660156 192.18128967285156 C 30.0 189.3205108642578 22.67949104309082 182.0 19.474435806274414 171.5193328857422 C 21.97628402709961 161.3323974609375 29.357046127319336 154.056396484375 39.73686981201172 152.0968475341797 C 49.999996185302734 154.6794891357422 57.32048797607422 162.00001525878906 60.13656234741211 172.1403045654297" stroke-width="0.0" fill="rgb(241, 207, 153)" opacity="1.0"/>
    <path d="M 531.76025390625 443.260009765625 C 529.6498413085938 453.30242919921875 522.275146484375 460.5563049316406 511.4822998046875 463.45733642578125 C 501.23828125 461.0792541503906 493.8358154296875 453.7933044433594 491.0805969238281 443.7136535644531 C 494.1838684082031 432.7354431152344 501.9131774902344 425.6457214355469 511.919677734375 423.0688171386719 C 521.7415161132812 425.9039611816406 528.9723510742188 433.2967834472656 531.76025390625 443.260009765625" stroke-width="0.0" fill="rgb(226, 141, 76)" opacity="0.9900464"/>
    <path d="M 475.43988037109375 87.26490783691406 C 472.9073486328125 97.5727310180664 465.55548095703125 104.84292602539062 454.3604431152344 107.74063110351562 C 444.28851318359375 105.09170532226562 437.05145263671875 97.66462707519531 434.5416564941406 87.21918487548828 C 437.5255126953125 76.85871887207031 444.7989196777344 69.3558578491211 455.29571533203125 66.279296875 C 465.4298095703125 69.15023040771484 472.6593322753906 76.63355255126953 475.43988037109375 87.26490783691406" stroke-width="0.0" fill="rgb(242, 206, 154)" opacity="0.9900976"/>
    <path d="M 612.0014038085938 327.0088195800781 C 609.3478393554688 337.03875732421875 602.0421142578125 344.3558654785156 591.9805297851562 346.9233093261719 C 581.9434814453125 344.3484191894531 574.45166015625 337.11993408203125 571.302001953125 326.6307373046875 C 574.0924072265625 316.4709167480469 581.4844970703125 309.1329345703125 591.7827758789062 306.3758544921875 C 602.0903930664062 309.4732971191406 609.3229370117188 316.9745178222656 612.0014038085938 327.0088195800781" stroke-width="0.0" fill="rgb(241, 203, 153)" opacity="1.0"/>
    <path d="M 45.62030029296875 550.5591430664062 C 43.13335418701172 560.82421875 35.84916305541992 568.2041625976562 24.82773208618164 570.9451293945312 C 14.134084701538086 568.2088623046875 6.791930198669434 560.8656616210938 4.057694435119629 549.9881591796875 C 6.786016464233398 539.1239013671875 14.119280815124512 531.7750854492188 24.332944869995117 529.057861328125 C 35.70437240600586 531.8655395507812 42.76803207397461 539.4259643554688 45.62030029296875 550.5591430664062" stroke-width="0.0" fill="rgb(52, 71, 85)" opacity="1.0"/>
    <path d="M 594.9526977539062 573.7802734375 C 592.2120971679688 584.8665161132812 584.8641357421875 592.2064208984375 574.3768310546875 594.9420776367188 C 563.2396240234375 592.1629638671875 555.9877319335938 584.6932373046875 553.0708618164062 573.2384643554688 C 555.7871704101562 563.1350708007812 563.141845703125 555.8036499023438 574.4410400390625 553.0629272460938 C 584.8631591796875 555.79541015625 592.2164916992188 563.1316528320312 594.9526977539062 573.7802734375" stroke-width="0.0" fill="rgb(52, 72, 87)" opacity="1.0"/>
    <path d="M 603.7047119140625 207.72503662109375 C 601.0316772460938 218.71121215820312 593.724853515625 226.07345581054688 583.4611206054688 228.72813415527344 C 572.7861328125 225.6654052734375 565.6053466796875 218.12503051757812 562.3734741210938 207.55633544921875 C 565.1173095703125 197.51760864257812 572.5361328125 190.16600036621094 583.3190307617188 187.30715942382812 C 593.769287109375 189.8928985595703 601.0934448242188 197.2350311279297 603.7047119140625 207.72503662109375" stroke-width="0.0" fill="rgb(240, 206, 155)" opacity="1.0"/>
    <path d="M 618.0001220703125 487.99993896484375 C 615.3230590820312 498.00787353515625 608.0477294921875 505.45556640625 597.2139892578125 508.898193359375 C 587.1385498046875 506.2023620605469 579.7874145507812 498.86578369140625 577.050537109375 488.0274658203125 C 579.7825317382812 477.1223449707031 587.1201171875 469.7772521972656 597.1715087890625 467.0835266113281 C 608.0565185546875 470.52484130859375 615.323974609375 477.9895935058594 618.0001220703125 487.99993896484375" stroke-width="0.0" fill="rgb(53, 73, 87)" opacity="1.0"/>
    <path d="M 105.85648345947266 171.41453552246094 C 103.10649871826172 181.72274780273438 95.6550064086914 188.87522888183594 84.49569702148438 191.2611083984375 C 74.46785736083984 188.89915466308594 67.10700225830078 181.53138732910156 64.54469299316406 171.32113647460938 C 67.41230773925781 160.65736389160156 74.55802917480469 153.11541748046875 85.27108001708984 150.2148895263672 C 95.69538116455078 152.94635009765625 103.0400619506836 160.3106231689453 105.85648345947266 171.41453552246094" stroke-width="0.0" fill="rgb(244, 207, 151)" opacity="1.0"/>
    <path d="M 524.2702026367188 426.0579528808594 C 521.974365234375 435.7377624511719 514.785888671875 443.12799072265625 504.5032653808594 446.44940185546875 C 494.21002197265625 444.0776062011719 486.8052978515625 436.8299255371094 484.0903015136719 426.77398681640625 C 487.1756896972656 415.6433410644531 494.7293395996094 408.4042663574219 505.1998291015625 405.40753173828125 C 515.2948608398438 408.23583984375 522.0437622070312 415.9314880371094 524.2702026367188 426.0579528808594" stroke-width="0.0" fill="rgb(226, 122, 49)" opacity="1.0"/>
    <path d="M 91.87115478515625 519.2935180664062 C 89.11578369140625 530.8221435546875 81.85884857177734 538.2197265625 71.8455810546875 540.9176635742188 C 60.89855194091797 537.3626708984375 53.12681579589844 530.3079223632812 50.06965637207031 519.2683715820312 C 52.78715133666992 509.1278991699219 60.12733459472656 501.78594970703125 70.92056274414062 499.0582275390625 C 81.86217498779297 501.7970275878906 89.20458984375 509.136962890625 91.87115478515625 519.2935180664062" stroke-width="0.0" fill="rgb(53, 73, 87)" opacity="1.0"/>
    <path d="M 259.03826904296875 83.25025177001953 C 256.405029296875 93.10408020019531 249.1046905517578 100.40637969970703 239.1765594482422 103.04529571533203 C 229.7154998779297 101.00916290283203 222.02276611328125 94.5125732421875 219.08018493652344 83.48260498046875 C 221.8533935546875 73.23918914794922 229.27081298828125 65.9253158569336 239.91746520996094 63.149417877197266 C 250.69004821777344 65.90924072265625 256.6761169433594 73.57303619384766 259.03826904296875 83.25025177001953" stroke-width="0.0" fill="rgb(94, 27, 15)" opacity="0.99000514"/>
    <path d="M 423.8658752441406 458.7156982421875 C 421.0903015136719 469.7464599609375 413.7630615234375 477.1319274902344 403.427490234375 479.8863525390625 C 392.2402648925781 477.1080322265625 384.893310546875 469.7593994140625 383.62030029296875 459.7486572265625 C 386.3491516113281 449.5298767089844 393.3008117675781 441.4010925292969 403.54254150390625 438.1622314453125 C 413.767333984375 440.8815612792969 421.1196594238281 448.2323303222656 423.8658752441406 458.7156982421875" stroke-width="0.0" fill="rgb(191, 142, 118)" opacity="0.99026227"/>
    <path d="M 118.93704986572266 8.757250785827637 C 116.2203598022461 18.874988555908203 108.87237548828125 26.214269638061523 97.80006408691406 28.94601058959961 C 87.11566925048828 26.2226505279541 79.7723159790039 18.886404037475586 77.05768585205078 8.720626831054688 C 79.91818237304688 -2.606701135635376 87.57636260986328 -9.5968017578125 97.98331451416016 -12.058683395385742 C 108.36063385009766 -9.544906616210938 116.03507995605469 -2.5455667972564697 118.93704986572266 8.757250785827637" stroke-width="0.0" fill="rgb(52, 72, 87)" opacity="1.0"/>
    <path d="M 563.831298828125 152.46347045898438 C 560.9799194335938 163.60362243652344 553.5797119140625 170.91294860839844 543.1224975585938 173.64938354492188 C 532.5108642578125 170.8442840576172 525.1279296875 163.4982147216797 522.29541015625 152.88475036621094 C 525.1239013671875 142.50424194335938 532.5150756835938 135.1544647216797 543.4187622070312 132.2562713623047 C 553.734130859375 134.92637634277344 561.1002197265625 142.2567138671875 563.831298828125 152.46347045898438" stroke-width="0.0" fill="rgb(241, 206, 156)" opacity="1.0"/>
    <path d="M 247.34390258789062 26.059837341308594 C 244.78561401367188 36.48106002807617 237.51321411132812 43.88671875 226.64283752441406 46.76411819458008 C 216.37562561035156 44.00612258911133 209.07369995117188 36.5959358215332 206.3299560546875 25.8979434967041 C 209.04017639160156 15.395323753356934 216.38714599609375 8.01334285736084 227.19906616210938 5.14000129699707 C 237.55967712402344 7.993344306945801 244.73471069335938 15.540993690490723 247.34390258789062 26.059837341308594" stroke-width="0.0" fill="rgb(241, 206, 153)" opacity="1.0"/>
    <path d="M 46.92560958862305 187.9951934814453 C 44.2872200012207 197.97369384765625 36.97444534301758 205.2896728515625 26.71345329284668 208.2620849609375 C 16.465097427368164 205.85198974609375 9.085212707519531 198.55467224121094 6.346068382263184 187.79762268066406 C 8.994730949401855 177.3521270751953 16.35238265991211 169.99803161621094 26.545425415039062 167.40155029296875 C 37.01940155029297 170.6199188232422 44.30215072631836 178.00364685058594 46.92560958862305 187.9951934814453" stroke-width="0.0" fill="rgb(227, 208, 165)" opacity="1.0"/>
    <path d="M 427.54254150390625 504.5246887207031 C 424.9537353515625 514.7081909179688 417.73486328125 522.0349731445312 407.844482421875 524.7709350585938 C 398.0 522.3204956054688 390.67950439453125 515.0 387.4285583496094 504.4934997558594 C 389.9559326171875 494.2900085449219 397.2746276855469 486.9124755859375 408.25469970703125 484.1268310546875 C 418.72235107421875 486.9007568359375 425.983154296875 494.3168640136719 427.54254150390625 504.5246887207031" stroke-width="0.0" fill="rgb(186, 119, 99)" opacity="0.9900851"/>
    <path d="M 72.92694091796875 544.8124389648438 C 70.21558380126953 554.8687133789062 62.865943908691406 562.2091064453125 52.49961853027344 564.943603515625 C 41.25847625732422 562.1575317382812 34.173492431640625 554.6257934570312 31.38048553466797 543.4600830078125 C 33.872169494628906 533.1812744140625 41.155364990234375 525.7990112304688 51.18792724609375 523.1065063476562 C 62.03833770751953 526.665283203125 69.646728515625 533.8544921875 72.92694091796875 544.8124389648438" stroke-width="0.0" fill="rgb(52, 72, 86)" opacity="1.0"/>
    <path d="M 534.999267578125 62.99948501586914 C 532.3193969726562 72.99923706054688 524.9994506835938 80.32012939453125 514.9999389648438 82.99993896484375 C 505.0 80.32051086425781 497.67950439453125 73.0 494.9989013671875 62.99711608886719 C 497.6495666503906 52.92375564575195 504.76116943359375 45.21724319458008 514.46826171875 42.20293426513672 C 525.00537109375 45.661277770996094 532.3206176757812 52.99958419799805 534.999267578125 62.99948501586914" stroke-width="0.0" fill="rgb(54, 73, 88)" opacity="1.0"/>
    <path d="M 565.94677734375 534.0596313476562 C 563.2015380859375 544.853759765625 555.8544311523438 552.2028198242188 544.520263671875 554.9463500976562 C 534.1235961914062 552.2181396484375 526.7803344726562 544.8770751953125 524.1049194335938 534.8255615234375 C 527.6774291992188 523.9937744140625 534.9644165039062 516.5774536132812 545.8024291992188 513.0977783203125 C 555.866943359375 515.791748046875 563.212158203125 523.1314086914062 565.94677734375 534.0596313476562" stroke-width="0.0" fill="rgb(51, 71, 86)" opacity="1.0"/>
    <path d="M 317.67877197265625 49.70497512817383 C 314.391357421875 60.107181549072266 307.3676452636719 67.94818115234375 297.6092224121094 70.79997253417969 C 286.7195739746094 67.44184112548828 279.1324768066406 60.414581298828125 276.2689208984375 50.141929626464844 C 279.2944641113281 39.77516174316406 286.8847961425781 32.616783142089844 297.12371826171875 29.879016876220703 C 307.3978271484375 32.33016586303711 314.8619689941406 39.54060745239258 317.67877197265625 49.70497512817383" stroke-width="0.0" fill="rgb(243, 210, 157)" opacity="0.99020535"/>
    <path d="M 212.87716674804688 492.7033996582031 C 210.20101928710938 502.8507995605469 202.83551025390625 510.1606140136719 192.79647827148438 511.2524108886719 C 182.66551208496094 508.56805419921875 175.2179718017578 501.4088134765625 172.2667999267578 491.7886962890625 C 174.8935546875 482.2642517089844 182.310791015625 475.04473876953125 192.3439483642578 472.5438537597656 C 202.441162109375 474.2311706542969 209.89739990234375 481.5141906738281 212.87716674804688 492.7033996582031" stroke-width="0.0" fill="rgb(150, 28, 3)" opacity="0.9900162"/>
    <path d="M 134.58799743652344 119.45338439941406 C 131.3205108642578 130.0 124.0 137.3205108642578 114.0 140.0 C 104.0 137.3205108642578 96.67948913574219 130.0 94.0000228881836 120.00007629394531 C 96.6807861328125 110.00393676757812 104.02411651611328 102.75093841552734 114.52123260498047 100.13646697998047 C 124.74720001220703 101.9313735961914 132.0850067138672 109.24786376953125 134.58799743652344 119.45338439941406" stroke-width="0.0" fill="rgb(230, 123, 53)" opacity="0.990563"/>
    <path d="M 448.62310791015625 66.84782409667969 C 445.5572204589844 77.18821716308594 438.2764587402344 84.7752914428711 427.3792724609375 87.85680389404297 C 417.2225646972656 85.13652801513672 409.9071960449219 77.76161193847656 407.3676452636719 67.5699691772461 C 410.67950439453125 57.0 418.0 49.67949295043945 428.25421142578125 46.71331787109375 C 438.47772216796875 49.195945739746094 445.8534240722656 56.50664138793945 448.62310791015625 66.84782409667969" stroke-width="0.0" fill="rgb(244, 206, 153)" opacity="1.0"/>
    <path d="M 503.7942199707031 38.4007682800293 C 500.32049560546875 49.0 493.0 56.32050704956055 482.26483154296875 59.79759979248047 C 472.1445007324219 57.18886947631836 464.79376220703125 49.862022399902344 462.0671081542969 39.671653747558594 C 465.0312805175781 28.578899383544922 472.8090515136719 21.59068489074707 482.99853515625 18.991313934326172 C 493.1623229980469 21.604087829589844 500.90228271484375 28.639463424682617 503.7942199707031 38.4007682800293" stroke-width="0.0" fill="rgb(52, 74, 86)" opacity="1.0"/>
    <path d="M 460.4390869140625 480.64178466796875 C 458.7755432128906 491.5321350097656 451.5889587402344 498.97222900390625 440.4961242675781 501.8519592285156 C 430.2213439941406 499.1275329589844 422.8793640136719 491.7757873535156 420.1061096191406 480.7500915527344 C 422.8651123046875 470.21954345703125 430.22088623046875 462.8688049316406 440.6371154785156 460.12603759765625 C 451.7056579589844 462.9292907714844 459.00201416015625 470.3166198730469 460.4390869140625 480.64178466796875" stroke-width="0.0" fill="rgb(184, 138, 114)" opacity="1.0"/>
    <path d="M 489.13690185546875 533.3072509765625 C 486.7005615234375 543.816650390625 480.43414306640625 551.9629516601562 469.6385192871094 554.8441772460938 C 459.4169616699219 552.0139770507812 452.1834411621094 544.5083618164062 449.4556579589844 533.9127197265625 C 452.14208984375 523.4688720703125 459.4416198730469 516.0632934570312 470.4455261230469 513.1972045898438 C 480.739990234375 515.91259765625 488.0520935058594 523.2706909179688 489.13690185546875 533.3072509765625" stroke-width="0.0" fill="rgb(241, 207, 156)" opacity="0.9901489"/>
    <path d="M 532.7385864257812 75.50225830078125 C 529.3200073242188 85.9990234375 521.9971313476562 93.31338500976562 512.0071411132812 95.93064880371094 C 502.007080078125 93.30474090576172 494.680908203125 85.99705505371094 492.0001220703125 75.9997787475586 C 494.67950439453125 66.0 502.0 58.67949295043945 512.0017700195312 55.99941635131836 C 522.056640625 58.65837478637695 529.7278442382812 65.8030014038086 532.7385864257812 75.50225830078125" stroke-width="0.0" fill="rgb(56, 75, 91)" opacity="1.0"/>
    <path d="M 566.5006713867188 311.076904296875 C 564.0565795898438 320.76080322265625 556.7733154296875 328.0970764160156 546.2944946289062 331.8372497558594 C 536.5338134765625 329.0655212402344 530.4008178710938 320.5773620605469 527.8502197265625 310.23101806640625 C 528.87353515625 300.20184326171875 536.1903686523438 292.8395690917969 546.2606201171875 290.14752197265625 C 557.1218872070312 293.5340881347656 564.2708740234375 300.9310607910156 566.5006713867188 311.076904296875" stroke-width="0.0" fill="rgb(229, 120, 47)" opacity="0.99002016"/>
    <path d="M 73.51080322265625 246.44882202148438 C 70.83536529541016 256.65301513671875 63.720394134521484 264.015380859375 53.82798385620117 266.7486877441406 C 44.0 264.32049560546875 36.67949295043945 257.0 33.526607513427734 246.6349334716797 C 36.11867141723633 236.4673614501953 43.45188903808594 229.07374572753906 53.82849884033203 226.23028564453125 C 64.50714111328125 229.13262939453125 71.89849853515625 236.47976684570312 73.51080322265625 246.44882202148438" stroke-width="0.0" fill="rgb(246, 210, 157)" opacity="0.9901174"/>
    <path d="M 251.81118774414062 544.6015014648438 C 248.87966918945312 555.4940795898438 241.487060546875 562.8576049804688 230.7008514404297 565.7377319335938 C 220.41310119628906 562.9560546875 213.11131286621094 555.5651245117188 210.36582946777344 544.7513427734375 C 213.03001403808594 534.3667602539062 220.3399200439453 526.9575805664062 230.37496948242188 524.96240234375 C 241.5980987548828 527.1727905273438 249.0545654296875 534.3344116210938 251.81118774414062 544.6015014648438" stroke-width="0.0" fill="rgb(241, 205, 151)" opacity="1.0"/>
    <path d="M 84.0155029296875 60.0001220703125 C 81.43328857421875 70.2235107421875 74.43302917480469 77.96373748779297 63.27317810058594 80.93148040771484 C 53.202491760253906 78.1888656616211 46.040977478027344 70.71707153320312 43.15578079223633 59.2458610534668 C 45.78865051269531 49.1217041015625 53.11575698852539 41.7733268737793 63.2139778137207 39.069618225097656 C 74.4082260131836 42.06413269042969 81.42884826660156 49.78788375854492 84.0155029296875 60.0001220703125" stroke-width="0.0" fill="rgb(53, 72, 87)" opacity="1.0"/>
    <path d="M 573.1181640625 429.25006103515625 C 570.4987182617188 439.2258605957031 563.2694091796875 446.64263916015625 553.3673095703125 450.84722900390625 C 543.4033203125 448.0224609375 536.1802978515625 440.5216979980469 533.6420288085938 430.1719970703125 C 536.3572387695312 419.64111328125 543.5869140625 412.18780517578125 554.3587646484375 409.2586669921875 C 564.6365356445312 412.0155334472656 571.9911499023438 419.35919189453125 573.1181640625 429.25006103515625" stroke-width="0.0" fill="rgb(240, 205, 151)" opacity="0.99009305"/>
    <path d="M 183.09190368652344 491.748046875 C 181.87709045410156 501.5827941894531 174.6141357421875 508.98223876953125 164.33514404296875 511.736083984375 C 153.40969848632812 508.91839599609375 146.02529907226562 501.60943603515625 143.2720184326172 490.8421325683594 C 145.96194458007812 480.3017578125 153.29815673828125 472.9493103027344 163.54104614257812 470.20806884765625 C 173.3864288330078 473.96685791015625 180.49659729003906 481.7386474609375 183.09190368652344 491.748046875" stroke-width="0.0" fill="rgb(243, 210, 157)" opacity="0.99003786"/>
    <path d="M 435.6911926269531 43.69993209838867 C 432.5167541503906 54.082794189453125 425.0240173339844 61.329689025878906 415.0008850097656 64.0003433227539 C 404.9999084472656 61.32053756713867 397.6768798828125 54.00080871582031 394.4020690917969 43.583980560302734 C 397.1285400390625 33.482215881347656 404.45428466796875 26.055347442626953 415.1412048339844 23.1981143951416 C 425.6083068847656 25.997068405151367 432.9098815917969 33.42674255371094 435.6911926269531 43.69993209838867" stroke-width="0.0" fill="rgb(246, 212, 158)" opacity="0.9921667"/>
    <path d="M 412.7510070800781 517.9420776367188 C 409.8800048828125 528.524658203125 402.48724365234375 535.742431640625 391.3944396972656 537.6181030273438 C 381.162109375 536.1467895507812 373.7798156738281 528.8646240234375 371.0966491699219 518.8471069335938 C 374.42626953125 507.8542175292969 381.8962097167969 500.53173828125 391.4078674316406 498.6826171875 C 401.5066833496094 501.3141174316406 409.57867431640625 508.2693786621094 412.7510070800781 517.9420776367188" stroke-width="0.0" fill="rgb(150, 27, 2)" opacity="0.99001527"/>
    <path d="M 518.3140258789062 56.64698791503906 C 515.3201293945312 66.99979400634766 507.9998779296875 74.3204345703125 498.0039978027344 76.99836730957031 C 488.02081298828125 74.30326080322266 480.46160888671875 67.05520629882812 477.3543701171875 57.371185302734375 C 480.67987060546875 47.00031661987305 488.00030517578125 39.67986297607422 498.68756103515625 36.225040435791016 C 508.7644348144531 38.86061096191406 515.9835205078125 46.28647994995117 518.3140258789062 56.64698791503906" stroke-width="0.0" fill="rgb(54, 72, 85)" opacity="0.99308515"/>
    <path d="M 207.6716766357422 54.94676208496094 C 204.8314666748047 65.46804809570312 197.4948272705078 72.90316772460938 186.73983764648438 75.77893829345703 C 176.37588500976562 73.0077896118164 169.03358459472656 65.60818481445312 166.23736572265625 55.27106475830078 C 169.15863037109375 44.56954574584961 176.6234130859375 37.31565856933594 187.1995849609375 34.49699783325195 C 197.5182342529297 37.143348693847656 204.88729858398438 44.47150802612305 207.6716766357422 54.94676208496094" stroke-width="0.0" fill="rgb(246, 211, 154)" opacity="0.99163747"/>
    <path d="M 44.01045227050781 372.0209045410156 C 41.42401885986328 382.1827087402344 34.35890197753906 389.8866271972656 23.66248893737793 392.8618469238281 C 13.23910903930664 390.1112365722656 5.8799262046813965 382.7641906738281 3.1028904914855957 371.9403381347656 C 5.888357639312744 361.250732421875 13.261056900024414 353.9181213378906 23.42823600769043 351.3294677734375 C 33.99968338012695 354.6784362792969 41.31911849975586 362.0009765625 44.01045227050781 372.0209045410156" stroke-width="0.0" fill="rgb(244, 206, 152)" opacity="1.0"/>
    <path d="M 311.0163879394531 573.023193359375 C 308.42242431640625 583.1551513671875 301.2348327636719 590.6691284179688 290.5554504394531 593.7073364257812 C 280.4021301269531 590.9757080078125 273.0617370605469 583.584716796875 270.31463623046875 572.9972534179688 C 273.065185546875 562.4202270507812 280.4260559082031 555.0823364257812 290.7825012207031 552.3387451171875 C 301.0892028808594 555.4691772460938 308.33013916015625 562.9744262695312 311.0163879394531 573.023193359375" stroke-width="0.0" fill="rgb(245, 209, 154)" opacity="0.9915725"/>
    <path d="M 364.8468322753906 378.8478698730469 C 362.08123779296875 389.71051025390625 354.6568603515625 396.88555908203125 344.470703125 398.2061462402344 C 334.629150390625 395.6404724121094 327.3477478027344 388.375244140625 324.7397766113281 378.44830322265625 C 326.0148010253906 368.3006286621094 333.2605285644531 360.8887634277344 343.78204345703125 358.1134033203125 C 354.7488708496094 360.90155029296875 362.1088562011719 368.24664306640625 364.8468322753906 378.8478698730469" stroke-width="0.0" fill="rgb(190, 141, 118)" opacity="0.9900495"/>
    <path d="M 511.51348876953125 122.6477279663086 C 510.08306884765625 132.75396728515625 502.77117919921875 140.13140869140625 492.777587890625 142.7618865966797 C 482.7789611816406 138.52798461914062 475.5094909667969 131.2074737548828 472.78106689453125 121.17244720458984 C 473.8785705566406 111.24591064453125 481.2762451171875 103.96743774414062 491.44903564453125 102.5638427734375 C 501.61309814453125 105.12471008300781 508.8212585449219 112.40711212158203 511.51348876953125 122.6477279663086" stroke-width="0.0" fill="rgb(231, 126, 51)" opacity="0.9900264"/>
    <path d="M 127.0229263305664 118.99700927734375 C 124.32051086425781 129.0 117.0 136.3205108642578 107.0016860961914 138.99957275390625 C 97.03353118896484 136.3060760498047 89.86192321777344 128.91419982910156 87.77326965332031 119.46285247802734 C 90.31752014160156 109.57615661621094 97.56524658203125 102.28817749023438 107.34800720214844 99.73347473144531 C 116.8902816772461 101.89363098144531 124.29537963867188 109.05064392089844 127.0229263305664 118.99700927734375" stroke-width="0.0" fill="rgb(227, 119, 51)" opacity="0.99005723"/>
    <path d="M 173.7567138671875 15.294402122497559 C 170.32046508789062 25.999963760375977 162.99998474121094 33.32051086425781 152.33628845214844 36.71337127685547 C 142.16342163085938 34.15981674194336 134.79661560058594 26.852685928344727 132.06475830078125 16.00390625 C 134.8033447265625 5.164524078369141 142.196533203125 -2.1059367656707764 153.28790283203125 -4.743658542633057 C 163.82586669921875 -2.1426146030426025 171.176513671875 5.163010120391846 173.7567138671875 15.294402122497559" stroke-width="0.0" fill="rgb(52, 72, 88)" opacity="1.0"/>
    <path d="M 431.99981689453125 52.99992752075195 C 429.3203430175781 62.999855041503906 421.9998474121094 70.32032012939453 411.4278259277344 73.69255828857422 C 401.3042907714844 71.0521240234375 393.9469909667969 63.696128845214844 391.210693359375 53.44584655761719 C 394.3406982421875 42.81768035888672 401.9168395996094 35.63570785522461 411.9922790527344 32.99570846557617 C 422.0 35.67949295043945 429.32049560546875 43.0 431.99981689453125 52.99992752075195" stroke-width="0.0" fill="rgb(245, 207, 154)" opacity="1.0"/>
    <path d="M 96.94188690185547 59.45643615722656 C 94.20861053466797 70.8737564086914 86.88055419921875 78.22528076171875 76.75299072265625 80.94170379638672 C 65.5104751586914 78.01258850097656 58.538360595703125 70.26849365234375 55.98031234741211 60.00196838378906 C 58.550537109375 49.753170013427734 65.54589080810547 42.022117614746094 76.74008178710938 39.066688537597656 C 86.8705062866211 41.78609085083008 94.2162857055664 49.12845230102539 96.94188690185547 59.45643615722656" stroke-width="0.0" fill="rgb(53, 72, 86)" opacity="1.0"/>
    <path d="M 510.1197204589844 82.73246002197266 C 508.9930419921875 92.6762466430664 501.6878356933594 100.03349304199219 491.2485656738281 102.76342010498047 C 480.517822265625 99.88067626953125 473.2655334472656 92.43437957763672 470.4931640625 81.78424835205078 C 473.16741943359375 71.56732177734375 480.7185363769531 64.88050842285156 490.3645935058594 62.90220260620117 C 500.2146911621094 65.50016784667969 507.50335693359375 72.78369903564453 510.1197204589844 82.73246002197266" stroke-width="0.0" fill="rgb(238, 206, 156)" opacity="0.9900235"/>
    <path d="M 325.632568359375 568.82568359375 C 322.81695556640625 579.4761962890625 315.4892883300781 586.8564453125 305.12237548828125 589.6597290039062 C 294.91485595703125 586.5260620117188 287.6710205078125 579.0228271484375 284.98779296875 568.98388671875 C 287.6112976074219 558.9009399414062 294.856201171875 551.466552734375 305.3946228027344 548.374267578125 C 315.5835266113281 551.0599975585938 322.9253234863281 558.42138671875 325.632568359375 568.82568359375" stroke-width="0.0" fill="rgb(246, 209, 156)" opacity="0.9912371"/>
    <path d="M 56.51160430908203 265.7105407714844 C 53.99373245239258 275.82562255859375 46.889095306396484 283.1640625 36.860694885253906 285.6396179199219 C 26.47078514099121 283.807861328125 19.056896209716797 276.5693359375 16.229663848876953 265.9052429199219 C 19.040477752685547 255.4124298095703 26.432432174682617 248.10023498535156 36.645503997802734 245.57138061523438 C 46.99949645996094 248.67970275878906 54.31702423095703 256.0014343261719 56.51160430908203 265.7105407714844" stroke-width="0.0" fill="rgb(246, 210, 156)" opacity="0.9901455"/>
    <path d="M 75.76497650146484 144.82704162597656 C 72.75527954101562 155.2749481201172 65.15927124023438 162.41761779785156 55.023345947265625 165.0065460205078 C 44.95326614379883 162.32818603515625 37.26791000366211 155.1949005126953 34.26079177856445 144.5885467529297 C 36.910274505615234 134.2739715576172 44.290626525878906 126.95716857910156 54.635093688964844 124.35552978515625 C 65.53510284423828 127.13738250732422 72.93399810791016 134.44151306152344 75.76497650146484 144.82704162597656" stroke-width="0.0" fill="rgb(241, 207, 158)" opacity="1.0"/>
    <path d="M 606.41552734375 142.55770874023438 C 603.3204345703125 152.99993896484375 595.9999389648438 160.32040405273438 585.8927001953125 163.06655883789062 C 575.482421875 160.70005798339844 567.8927612304688 153.66290283203125 565.05712890625 142.26512145996094 C 567.7826538085938 132.1271514892578 575.1270141601562 124.78276062011719 585.56689453125 122.05532836914062 C 596.8190307617188 124.8095932006836 604.0535888671875 132.2283477783203 606.41552734375 142.55770874023438" stroke-width="0.0" fill="rgb(52, 73, 87)" opacity="1.0"/>
    <path d="M 161.87574768066406 127.65477752685547 C 159.0898895263672 138.73046875 151.72816467285156 146.08358764648438 141.08375549316406 148.8563690185547 C 130.39547729492188 146.03013610839844 123.2591552734375 138.50648498535156 121.06341552734375 128.1823272705078 C 123.43350982666016 117.51856994628906 130.3367919921875 109.88287353515625 141.57049560546875 107.0576400756836 C 151.82504272460938 109.81238555908203 159.14964294433594 117.19076538085938 161.87574768066406 127.65477752685547" stroke-width="0.0" fill="rgb(183, 130, 106)" opacity="1.0"/>
    <path d="M 130.337158203125 136.79644775390625 C 128.70745849609375 147.56333923339844 121.71371459960938 155.1487579345703 110.37992095947266 157.9568634033203 C 100.12142181396484 155.2294158935547 92.82130432128906 147.8590850830078 91.60047149658203 137.80557250976562 C 94.40308380126953 127.65258026123047 101.62128448486328 120.32185363769531 111.37639617919922 117.74970245361328 C 121.38121032714844 119.47247314453125 128.79710388183594 126.55298614501953 130.337158203125 136.79644775390625" stroke-width="0.0" fill="rgb(153, 29, 5)" opacity="0.9900286"/>
    <path d="M 75.1715316772461 108.17537689208984 C 72.50444793701172 118.23457336425781 65.25892639160156 125.5694351196289 55.20004653930664 129.81222534179688 C 45.14955520629883 127.18289947509766 37.78302764892578 119.86441802978516 35.049781799316406 109.39691925048828 C 37.78396224975586 98.1267318725586 45.12800598144531 90.78689575195312 55.75959014892578 88.05691528320312 C 66.83346557617188 90.8055191040039 74.1469955444336 98.18592834472656 75.1715316772461 108.17537689208984" stroke-width="0.0" fill="rgb(57, 77, 91)" opacity="0.990074"/>
    <path d="M 147.9346466064453 580.6871337890625 C 145.16598510742188 591.7783203125 137.7103729248047 598.968505859375 127.32103729248047 601.292236328125 C 116.751708984375 598.4458618164062 108.9897689819336 591.4788818359375 106.0749740600586 580.6224365234375 C 108.87187194824219 570.2775268554688 116.36511993408203 563.1271362304688 127.23514556884766 560.5676879882812 C 137.7425537109375 562.988525390625 145.1804656982422 570.1991577148438 147.9346466064453 580.6871337890625" stroke-width="0.0" fill="rgb(52, 72, 86)" opacity="1.0"/>
    <path d="M 52.598323822021484 444.4232482910156 C 49.32063293457031 455.0000915527344 42.00006103515625 462.320556640625 32.00008010864258 464.9998474121094 C 21.99951171875 462.320556640625 14.646775245666504 455.009521484375 11.091313362121582 444.1821594238281 C 13.784088134765625 434.1254577636719 21.1225528717041 426.7776184082031 31.413711547851562 424.0557861328125 C 42.83646011352539 426.807373046875 50.12196731567383 434.18841552734375 52.598323822021484 444.4232482910156" stroke-width="0.0" fill="rgb(53, 73, 87)" opacity="1.0"/>
    <path d="M 574.1905517578125 222.0695343017578 C 571.3890380859375 232.02784729003906 564.0089111328125 239.32411193847656 553.5158081054688 242.53224182128906 C 543.2608032226562 240.04660034179688 535.8574829101562 232.77320861816406 533.1663208007812 222.6598663330078 C 536.1087646484375 211.45335388183594 543.443115234375 204.07655334472656 553.8299560546875 201.22630310058594 C 564.2240600585938 204.28981018066406 571.3812255859375 211.8885955810547 574.1905517578125 222.0695343017578" stroke-width="0.0" fill="rgb(242, 205, 151)" opacity="1.0"/>
  </g>
</svg>
