<?xml version="1.0" ?>
<svg xmlns="http://www.w3.org/2000/svg" version="1.1" width="600" height="600">
  <defs/>
  <g>
    <path d="M 52.955711364746094 549.1682739257812 C 50.22940444946289 559.8867797851562 42.877479553222656 567.2042236328125 32.74666976928711 569.7911376953125 C 21.960445404052734 566.3351440429688 14.34949779510498 559.1481323242188 11.064128875732422 548.1568603515625 C 13.76220989227295 538.0980834960938 21.09502601623535 530.7551879882812 31.51758575439453 528.0388793945312 C 42.89247512817383 530.767578125 50.23067855834961 538.1082153320312 52.955711364746094 549.1682739257812" stroke-width="0.0" fill="rgb(39, 44, 53)" opacity="1.0"/>
    <path d="M 420.9563903808594 567.1930541992188 C 418.2366027832031 577.8975830078125 410.8963928222656 585.234130859375 400.8580017089844 587.9217529296875 C 390.0 584.3204956054688 382.67950439453125 577.0 379.8136291503906 566.7483520507812 C 382.0823974609375 556.3040161132812 389.21319580078125 548.8167724609375 400.5296630859375 546.0501098632812 C 410.8898010253906 548.7719116210938 418.23297119140625 556.1080322265625 420.9563903808594 567.1930541992188" stroke-width="0.0" fill="rgb(39, 44, 52)" opacity="1.0"/>
    <path d="M 218.05723571777344 185.1442108154297 C 215.40985107421875 195.11337280273438 208.12754821777344 202.4492950439453 198.1145477294922 206.87701416015625 C 188.13929748535156 204.22601318359375 180.9255828857422 196.81027221679688 178.6492462158203 186.43174743652344 C 181.6859130859375 176.0188446044922 189.10488891601562 168.9459991455078 199.78758239746094 166.61904907226562 C 209.85621643066406 167.7965545654297 217.11709594726562 175.1698455810547 218.05723571777344 185.1442108154297" stroke-width="0.0" fill="rgb(46, 44, 51)" opacity="0.99001336"/>
    <path d="M 585.958740234375 435.55047607421875 C 583.2410888671875 445.89923095703125 575.8951416015625 453.2316589355469 565.8297119140625 455.9074401855469 C 554.2637329101562 452.972412109375 546.793212890625 445.8185119628906 544.0422973632812 435.2422790527344 C 546.7735595703125 424.1157531738281 554.116455078125 416.7752685546875 565.5109252929688 414.042236328125 C 575.895263671875 416.7642517089844 583.2310791015625 424.1067810058594 585.958740234375 435.55047607421875" stroke-width="0.0" fill="rgb(39, 44, 52)" opacity="1.0"/>
    <path d="M 495.9570617675781 490.5380554199219 C 493.2272644042969 501.8883972167969 485.8912353515625 509.2337341308594 475.1422424316406 511.95819091796875 C 464.0987548828125 509.23876953125 456.7680969238281 501.89862060546875 454.1142883300781 491.7908935546875 C 457.01806640625 480.5054931640625 465.0191650390625 474.26385498046875 475.85809326171875 470.2731018066406 C 485.8945617675781 472.77044677734375 493.23858642578125 480.10174560546875 495.9570617675781 490.5380554199219" stroke-width="0.0" fill="rgb(44, 49, 57)" opacity="0.99005723"/>
    <path d="M 278.3240661621094 151.8160858154297 C 275.4769592285156 162.12860107421875 268.1076965332031 169.40821838378906 258.02557373046875 172.02049255371094 C 248.0 169.3205108642578 240.6794891357422 162.0 238.0 152.0 C 240.6794891357422 142.0 248.0 134.6794891357422 258.1041564941406 131.9105224609375 C 268.329833984375 134.38978576660156 275.743896484375 141.62892150878906 278.3240661621094 151.8160858154297" stroke-width="0.0" fill="rgb(252, 225, 162)" opacity="1.0"/>
    <path d="M 326.4938659667969 560.5979614257812 C 323.3232116699219 571.0013427734375 316.0006103515625 578.3206787109375 305.81610107421875 581.1615600585938 C 295.4979248046875 578.76611328125 288.043212890625 571.5631713867188 286.4113464355469 561.6022338867188 C 289.2471923828125 551.5133666992188 296.5218811035156 544.269775390625 306.1726989746094 541.728515625 C 315.8235778808594 544.1217041015625 323.7928771972656 550.7818603515625 326.4938659667969 560.5979614257812" stroke-width="0.0" fill="rgb(253, 198, 118)" opacity="0.9900328"/>
    <path d="M 413.44012451171875 150.59678649902344 C 410.91741943359375 160.51853942871094 403.4897155761719 167.83506774902344 392.5300598144531 170.78076171875 C 382.46710205078125 167.9899139404297 375.6047668457031 160.36448669433594 373.4530944824219 150.10665893554688 C 376.0956115722656 140.35740661621094 383.3461608886719 133.0621795654297 392.7664489746094 130.58868408203125 C 402.6225891113281 133.12936401367188 409.87957763671875 140.3737030029297 413.44012451171875 150.59678649902344" stroke-width="0.0" fill="rgb(252, 230, 163)" opacity="0.9900698"/>
    <path d="M 171.45265197753906 186.35015869140625 C 168.8902587890625 196.52670288085938 161.509033203125 203.8370361328125 150.86143493652344 206.61634826660156 C 140.50466918945312 203.88150024414062 133.21063232421875 196.46328735351562 130.30763244628906 185.76792907714844 C 133.1041259765625 175.4675750732422 140.45860290527344 168.07984924316406 150.654296875 165.27317810058594 C 161.2261199951172 168.34889221191406 168.4316864013672 175.84402465820312 171.45265197753906 186.35015869140625" stroke-width="0.0" fill="rgb(255, 230, 163)" opacity="0.9910107"/>
    <path d="M 266.0090637207031 140.0083465576172 C 263.3437194824219 150.0217742919922 256.0205993652344 157.33982849121094 246.00616455078125 160.0057830810547 C 236.0 157.3205108642578 228.6794891357422 150.0 226.0 140.0 C 228.6794891357422 130.0 236.0 122.67948913574219 246.0 120.0 C 256.0 122.67948913574219 263.32049560546875 130.0 266.0090637207031 140.0083465576172" stroke-width="0.0" fill="rgb(255, 229, 165)" opacity="1.0"/>
    <path d="M 564.0 164.0 C 561.3204956054688 174.0 554.0 181.3205108642578 543.9343872070312 184.0355224609375 C 533.5421142578125 181.61770629882812 525.8759765625 174.65451049804688 523.0435180664062 163.2552947998047 C 525.7620239257812 153.1032257080078 533.1046142578125 145.7652587890625 543.1419677734375 143.07920837402344 C 554.0 146.6794891357422 561.3204956054688 154.0 564.0 164.0" stroke-width="0.0" fill="rgb(39, 43, 53)" opacity="1.0"/>
    <path d="M 286.9164123535156 23.510953903198242 C 284.00518798828125 33.71194076538086 276.7684020996094 41.150115966796875 266.57049560546875 43.7918701171875 C 255.19674682617188 41.08059310913086 247.78173828125 33.85110092163086 245.05172729492188 23.744388580322266 C 247.9778594970703 12.514992713928223 255.7597198486328 5.561694622039795 266.1030578613281 2.8234188556671143 C 275.992919921875 5.5092926025390625 283.56976318359375 12.993621826171875 286.9164123535156 23.510953903198242" stroke-width="0.0" fill="rgb(44, 49, 58)" opacity="0.9900656"/>
    <path d="M 261.02593994140625 143.01708984375 C 258.35455322265625 153.0225067138672 251.0153350830078 160.33058166503906 240.5597381591797 163.5464324951172 C 230.4167938232422 160.9529571533203 223.09664916992188 153.5657958984375 220.48291015625 143.21694946289062 C 223.2307586669922 132.55479431152344 230.54580688476562 125.20230865478516 240.74307250976562 122.70581817626953 C 251.0 125.67948913574219 258.32049560546875 133.0 261.02593994140625 143.01708984375" stroke-width="0.0" fill="rgb(252, 226, 161)" opacity="1.0"/>
    <path d="M 495.9541015625 148.51605224609375 C 493.2293395996094 158.87962341308594 485.85552978515625 166.1572265625 475.4646301269531 167.37977600097656 C 464.71856689453125 165.76226806640625 457.5978698730469 158.1579132080078 454.9464111328125 147.9262237548828 C 457.33172607421875 137.493896484375 464.3197021484375 129.86590576171875 475.6733703613281 127.0498275756836 C 485.892578125 129.76571655273438 493.22467041015625 137.11151123046875 495.9541015625 148.51605224609375" stroke-width="0.0" fill="rgb(39, 44, 52)" opacity="0.99005526"/>
    <path d="M 592.9556884765625 290.57647705078125 C 590.2279663085938 301.8890380859375 582.8875732421875 309.2240295410156 572.8050537109375 311.8724365234375 C 561.3826904296875 308.8029479980469 553.8326416015625 301.74658203125 551.0405883789062 290.24273681640625 C 553.7562866210938 280.09637451171875 561.0991821289062 272.7630310058594 572.052001953125 270.0440979003906 C 582.8814086914062 272.7760314941406 590.2282104492188 280.1166076660156 592.9556884765625 290.57647705078125" stroke-width="0.0" fill="rgb(39, 43, 52)" opacity="1.0"/>
    <path d="M 458.95654296875 47.483341217041016 C 456.1946716308594 58.79925537109375 448.70709228515625 65.92931365966797 438.2608642578125 68.19503021240234 C 428.0 65.32051086425781 420.67950439453125 58.0 418.0 48.0 C 420.67950439453125 38.0 428.0 30.67949104309082 438.8147277832031 27.12945556640625 C 448.8955078125 29.771940231323242 456.2386169433594 37.100337982177734 458.95654296875 47.483341217041016" stroke-width="0.0" fill="rgb(39, 43, 52)" opacity="1.0"/>
    <path d="M 47.94302749633789 473.8611755371094 C 45.107933044433594 484.6246032714844 37.41313171386719 491.57464599609375 26.191659927368164 494.86993408203125 C 16.11060905456543 492.2237548828125 8.764167785644531 484.8942565917969 6.046527862548828 474.6963806152344 C 8.865872383117676 463.32080078125 16.496604919433594 456.3334655761719 27.06183433532715 453.8722229003906 C 37.58262634277344 456.2349853515625 45.152557373046875 463.27789306640625 47.94302749633789 473.8611755371094" stroke-width="0.0" fill="rgb(39, 44, 52)" opacity="1.0"/>
    <path d="M 127.85530090332031 24.21419906616211 C 124.33159637451172 35.031158447265625 117.13009643554688 42.62368392944336 106.17864990234375 45.92301940917969 C 96.11974334716797 43.226280212402344 88.81193542480469 35.86613082885742 86.06536865234375 24.213218688964844 C 88.76158905029297 14.10102367401123 96.10255432128906 6.765215873718262 107.11178588867188 4.042704105377197 C 117.88712310791016 6.767187595367432 125.20897674560547 14.122603416442871 127.85530090332031 24.21419906616211" stroke-width="0.0" fill="rgb(39, 43, 52)" opacity="1.0"/>
    <path d="M 271.1552734375 303.15057373046875 C 268.40966796875 313.10797119140625 261.1073303222656 320.40789794921875 251.9852294921875 323.0350646972656 C 242.8905792236328 320.4089050292969 235.5890350341797 313.1103210449219 232.916748046875 303.1034851074219 C 233.7982940673828 293.15966796875 241.22837829589844 286.1800842285156 251.2711944580078 284.9411926269531 C 261.1630859375 287.55438232421875 268.5785217285156 294.7983093261719 271.1552734375 303.15057373046875" stroke-width="0.0" fill="rgb(40, 43, 55)" opacity="0.9900037"/>
    <path d="M 128.79727172851562 222.4077606201172 C 125.77857971191406 233.37664794921875 118.39019775390625 240.80538940429688 107.8786849975586 243.70960998535156 C 97.481201171875 240.879638671875 90.15650177001953 233.5074462890625 87.65030670166016 223.2969970703125 C 90.67948913574219 213.0 98.0 205.6794891357422 108.23828125 202.7849884033203 C 118.57295227050781 205.15773010253906 126.06391143798828 212.34945678710938 128.79727172851562 222.4077606201172" stroke-width="0.0" fill="rgb(252, 224, 160)" opacity="1.0"/>
    <path d="M 407.3846130371094 575.416259765625 C 405.0372619628906 585.7621459960938 397.816650390625 593.1929321289062 386.3453063964844 595.957763671875 C 376.1174621582031 593.2330932617188 368.82672119140625 585.8606567382812 366.31951904296875 575.66162109375 C 369.67950439453125 565.0 377.0 557.6795043945312 387.0 555.0 C 397.0 557.6795043945312 404.3204650878906 565.0 407.3846130371094 575.416259765625" stroke-width="0.0" fill="rgb(39, 45, 54)" opacity="1.0"/>
    <path d="M 442.9324035644531 26.153526306152344 C 439.49896240234375 37.0655632019043 432.0113830566406 44.32421875 422.00018310546875 46.99992370605469 C 412.0 44.32050323486328 404.67950439453125 37.0 401.15679931640625 26.211441040039062 C 403.78338623046875 16.118545532226562 411.1148986816406 8.773523330688477 422.2550048828125 6.043688774108887 C 432.8930358886719 8.766938209533691 440.2322082519531 16.10741424560547 442.9324035644531 26.153526306152344" stroke-width="0.0" fill="rgb(39, 44, 52)" opacity="1.0"/>
    <path d="M 416.0471496582031 38.91444396972656 C 413.32049560546875 49.0 406.0 56.32050704956055 396.0 59.0 C 386.0 56.32050704956055 378.67950439453125 49.0 375.0994567871094 38.154476165771484 C 377.7613525390625 28.097862243652344 385.0968933105469 20.758899688720703 395.3215026855469 18.044252395629883 C 406.69677734375 20.851360321044922 413.674560546875 28.482769012451172 416.0471496582031 38.91444396972656" stroke-width="0.0" fill="rgb(40, 44, 55)" opacity="1.0"/>
    <path d="M 171.1222381591797 453.40252685546875 C 169.00086975097656 462.8604736328125 161.96568298339844 470.3079528808594 151.91845703125 473.04632568359375 C 141.51846313476562 470.6495056152344 133.8805694580078 463.65875244140625 131.10528564453125 453.7571105957031 C 134.60594177246094 442.9757995605469 141.99664306640625 435.6784362792969 151.98399353027344 433.0076904296875 C 161.80438232421875 435.7799377441406 168.72653198242188 443.3853454589844 171.1222381591797 453.40252685546875" stroke-width="0.0" fill="rgb(140, 92, 92)" opacity="0.9902622"/>
    <path d="M 60.95941925048828 499.430419921875 C 58.22862243652344 510.8921813964844 50.897029876708984 518.23974609375 40.53379821777344 520.9583740234375 C 29.105480194091797 518.2313842773438 21.762617111206055 510.89703369140625 19.04518699645996 500.7270812988281 C 21.876462936401367 489.3428039550781 29.53365135192871 482.3739013671875 40.78289031982422 479.1551513671875 C 50.88911819458008 481.78314208984375 58.24290466308594 489.1004943847656 60.95941925048828 499.430419921875" stroke-width="0.0" fill="rgb(39, 44, 52)" opacity="1.0"/>
    <path d="M 252.74267578125 566.7760620117188 C 250.18057250976562 576.8406982421875 242.84356689453125 584.1885986328125 232.3592071533203 586.9072875976562 C 221.2135772705078 584.1337890625 213.85006713867188 576.793212890625 211.1398468017578 566.5877075195312 C 213.94906616210938 555.3133544921875 221.33656311035156 548.023193359375 231.563232421875 546.6642456054688 C 241.5772247314453 549.1673583984375 248.79481506347656 556.4370727539062 252.74267578125 566.7760620117188" stroke-width="0.0" fill="rgb(232, 179, 113)" opacity="1.0"/>
    <path d="M 177.4352264404297 428.1744079589844 C 174.5301971435547 438.28076171875 167.3415069580078 445.7065124511719 157.68113708496094 448.69854736328125 C 147.99656677246094 446.3216247558594 140.62237548828125 439.0194091796875 137.11105346679688 428.2466735839844 C 139.89512634277344 418.3182067871094 147.3429718017578 410.93927001953125 158.7725830078125 408.0570983886719 C 168.86241149902344 410.7806396484375 176.16726684570312 418.1588439941406 177.4352264404297 428.1744079589844" stroke-width="0.0" fill="rgb(156, 96, 93)" opacity="1.0"/>
    <path d="M 397.04034423828125 285.3929138183594 C 394.4189453125 294.1172790527344 387.1143798828125 301.4123229980469 377.22119140625 304.0429992675781 C 368.4072570800781 301.7523193359375 361.4400939941406 294.4414367675781 358.9349060058594 285.40167236328125 C 361.5264892578125 275.8152160644531 368.81610107421875 268.5285949707031 377.36102294921875 265.9498291015625 C 387.10479736328125 268.5906982421875 394.40484619140625 275.89697265625 397.04034423828125 285.3929138183594" stroke-width="0.0" fill="rgb(40, 44, 58)" opacity="0.9900036"/>
    <path d="M 453.9452209472656 88.79656982421875 C 451.2077941894531 98.82113647460938 443.74285888671875 105.987060546875 433.33087158203125 108.2750244140625 C 423.0 105.32051086425781 415.67950439453125 98.0 413.0 88.0 C 415.67950439453125 78.0 423.0 70.67948913574219 433.0031433105469 67.99884796142578 C 443.0914306640625 70.64422607421875 450.8540954589844 77.70977783203125 453.9452209472656 88.79656982421875" stroke-width="0.0" fill="rgb(39, 45, 54)" opacity="1.0"/>
    <path d="M 88.09214782714844 150.35018920898438 C 85.78033447265625 159.64833068847656 78.73194885253906 166.95816040039062 68.33129119873047 169.15499877929688 C 58.12944412231445 168.1722869873047 50.76253128051758 160.8919219970703 48.0450439453125 150.33457946777344 C 50.77418518066406 139.11575317382812 58.114288330078125 131.77066040039062 68.37431335449219 129.04769897460938 C 79.78553771972656 131.8089599609375 85.84561157226562 139.4110870361328 88.09214782714844 150.35018920898438" stroke-width="0.0" fill="rgb(42, 42, 40)" opacity="0.99000835"/>
    <path d="M 209.6585235595703 133.1555633544922 C 206.91693115234375 143.5442657470703 199.5163116455078 150.8317108154297 188.73077392578125 153.6635284423828 C 178.5498809814453 150.84718322753906 171.2557373046875 143.4156036376953 168.19192504882812 132.43614196777344 C 170.95040893554688 122.328125 178.3356170654297 114.96987915039062 188.49916076660156 112.20606994628906 C 199.42648315429688 115.2027816772461 206.76747131347656 122.5837631225586 209.6585235595703 133.1555633544922" stroke-width="0.0" fill="rgb(252, 226, 163)" opacity="1.0"/>
    <path d="M 459.95489501953125 70.78861236572266 C 457.2126159667969 81.84227752685547 449.7889404296875 89.05608367919922 439.4229431152344 91.3709716796875 C 429.0 88.32051086425781 421.67950439453125 81.0 419.0 71.00000762939453 C 421.6795349121094 61.00004577636719 429.00006103515625 53.67961502075195 439.38623046875 50.679351806640625 C 449.7846374511719 52.96147537231445 457.2184143066406 60.154541015625 459.95489501953125 70.78861236572266" stroke-width="0.0" fill="rgb(40, 44, 53)" opacity="1.0"/>
    <path d="M 349.9437561035156 47.240455627441406 C 346.8634033203125 57.741851806640625 338.4762268066406 64.72662353515625 328.5489196777344 67.44947052001953 C 319.4923400878906 65.39175415039062 312.4645080566406 57.32625198364258 308.0997009277344 47.09785842895508 C 310.7622375488281 37.111732482910156 318.13165283203125 29.815174102783203 328.4957275390625 27.210298538208008 C 339.8264465332031 29.8771915435791 347.21807861328125 37.14027786254883 349.9437561035156 47.240455627441406" stroke-width="0.0" fill="rgb(44, 48, 57)" opacity="0.99001104"/>
    <path d="M 191.80361938476562 374.4345703125 C 188.98883056640625 384.5215759277344 181.41114807128906 391.72674560546875 170.87010192871094 394.6568298339844 C 160.4763946533203 391.86431884765625 153.07342529296875 384.54595947265625 151.76712036132812 374.6623229980469 C 154.12643432617188 364.31280517578125 161.28695678710938 357.0566101074219 171.4291534423828 353.82135009765625 C 181.5173797607422 356.1601257324219 188.91537475585938 363.4575500488281 191.80361938476562 374.4345703125" stroke-width="0.0" fill="rgb(252, 225, 163)" opacity="1.0"/>
    <path d="M 110.9318618774414 174.36813354492188 C 108.08897399902344 185.7001953125 100.73388671875 193.14720153808594 89.67913818359375 195.9476318359375 C 79.1901626586914 193.17762756347656 71.8732681274414 185.78907775878906 69.26742553710938 175.4334716796875 C 71.93864440917969 164.26393127441406 79.24364471435547 156.88070678710938 90.42189025878906 154.0971221923828 C 100.83374786376953 156.83450317382812 108.20447540283203 164.1502685546875 110.9318618774414 174.36813354492188" stroke-width="0.0" fill="rgb(153, 100, 61)" opacity="0.9900713"/>
    <path d="M 452.7937927246094 191.50474548339844 C 450.01239013671875 201.5662078857422 442.46282958984375 208.7295379638672 432.1692810058594 211.1624298095703 C 422.0 208.3205108642578 414.67950439453125 201.0 411.8305969238281 190.9274444580078 C 414.6131591796875 180.97213745117188 421.99029541015625 173.67527770996094 432.08770751953125 170.93348693847656 C 442.35064697265625 173.40020751953125 449.8609924316406 180.56451416015625 452.7937927246094 191.50474548339844" stroke-width="0.0" fill="rgb(252, 229, 158)" opacity="1.0"/>
    <path d="M 141.7695770263672 418.4503173828125 C 139.00949096679688 428.6167907714844 131.60800170898438 435.9900817871094 120.74272918701172 438.8506774902344 C 110.2622299194336 436.08465576171875 102.89697265625 428.7449035644531 100.5775146484375 418.59326171875 C 103.70610809326172 408.0079650878906 111.00066375732422 400.6796875 121.3733901977539 397.5646667480469 C 131.5638427734375 400.08209228515625 138.88539123535156 407.447265625 141.7695770263672 418.4503173828125" stroke-width="0.0" fill="rgb(252, 225, 164)" opacity="1.0"/>
    <path d="M 464.1221008300781 445.1122131347656 C 461.4394836425781 455.17047119140625 454.2396545410156 462.7112731933594 444.2411193847656 466.90948486328125 C 434.1689453125 464.1871337890625 426.8133239746094 456.8305969238281 424.0608215332031 446.67822265625 C 427.9671325683594 436.68597412109375 435.7767028808594 429.5112609863281 445.6496887207031 426.9158630371094 C 455.7186584472656 428.2091064453125 463.17852783203125 435.1981506347656 464.1221008300781 445.1122131347656" stroke-width="0.0" fill="rgb(95, 45, 38)" opacity="0.9900087"/>
    <path d="M 195.8313751220703 510.84716796875 C 193.2064666748047 520.8495483398438 185.82437133789062 528.1387939453125 175.4966583251953 530.8048706054688 C 164.38446044921875 527.9478759765625 156.88980102539062 520.6865234375 154.12742614746094 510.7488708496094 C 157.6794891357422 500.0 165.0 492.67950439453125 175.54884338378906 489.3537902832031 C 185.5712890625 491.9725341796875 191.89073181152344 499.7153015136719 195.8313751220703 510.84716796875" stroke-width="0.0" fill="rgb(178, 63, 36)" opacity="0.990026"/>
    <path d="M 355.6905517578125 120.86837768554688 C 352.9377136230469 131.57872009277344 345.5653381347656 138.89801025390625 335.0765380859375 141.66905212402344 C 324.59197998046875 138.77194213867188 317.2453918457031 131.4033660888672 314.4052734375 120.87753295898438 C 317.3263854980469 110.67986297607422 324.6189270019531 103.16862487792969 335.6040954589844 100.1834716796875 C 345.7433776855469 102.87017059326172 352.9914245605469 110.30731964111328 355.6905517578125 120.86837768554688" stroke-width="0.0" fill="rgb(252, 226, 161)" opacity="1.0"/>
    <path d="M 120.70622253417969 212.6275634765625 C 117.57437133789062 223.141845703125 110.06942749023438 230.34584045410156 99.84064483642578 233.11587524414062 C 89.54978942871094 230.71112060546875 82.0079574584961 223.55044555664062 79.16056060791016 212.5353240966797 C 81.87667846679688 202.22216796875 89.21642303466797 194.8625030517578 99.42977142333984 192.31324768066406 C 110.46528625488281 195.21078491210938 117.92852020263672 202.48379516601562 120.70622253417969 212.6275634765625" stroke-width="0.0" fill="rgb(236, 215, 163)" opacity="1.0"/>
    <path d="M 448.7573547363281 95.69995880126953 C 446.1676330566406 105.81670379638672 438.7831726074219 113.04835510253906 428.5837707519531 114.1708984375 C 418.2742919921875 111.83403015136719 410.7444152832031 104.88490295410156 408.0254211425781 94.98159790039062 C 410.67950439453125 85.0 418.0 77.67948913574219 427.9992370605469 75.00128936767578 C 437.9987487792969 77.68101501464844 445.31903076171875 85.001220703125 448.7573547363281 95.69995880126953" stroke-width="0.0" fill="rgb(43, 47, 54)" opacity="0.99003"/>
    <path d="M 244.83302307128906 67.73345947265625 C 242.1598663330078 77.81526184082031 234.82192993164062 85.17557525634766 224.17031860351562 87.91289520263672 C 213.2367706298828 85.1440658569336 205.9907684326172 77.71520233154297 203.56532287597656 67.40616607666016 C 206.5762176513672 56.860843658447266 213.81898498535156 49.4404182434082 223.87332153320312 46.8271484375 C 234.0 49.67949295043945 241.3202667236328 57.00006866455078 244.83302307128906 67.73345947265625" stroke-width="0.0" fill="rgb(241, 190, 125)" opacity="1.0"/>
    <path d="M 614.0252075195312 227.00039672851562 C 611.4942016601562 237.32322692871094 604.5595703125 245.07064819335938 593.224853515625 247.95181274414062 C 583.0984497070312 245.24057006835938 575.7642211914062 237.8994903564453 573.04443359375 227.3223419189453 C 575.7772216796875 216.1186981201172 583.1171875 208.77381896972656 593.2899780273438 206.05218505859375 C 604.5283813476562 208.9556884765625 611.484375 216.69850158691406 614.0252075195312 227.00039672851562" stroke-width="0.0" fill="rgb(39, 44, 53)" opacity="1.0"/>
    <path d="M 333.95806884765625 576.6754150390625 C 331.2336120605469 586.8929443359375 323.892822265625 594.233154296875 313.5116271972656 596.953857421875 C 302.11285400390625 594.222900390625 294.7637634277344 586.892822265625 292.0637512207031 576.8733520507812 C 296.47442626953125 566.8189697265625 303.8473205566406 559.5610961914062 313.5211181640625 556.9414672851562 C 322.3775939941406 559.47998046875 331.11773681640625 565.6062622070312 333.95806884765625 576.6754150390625" stroke-width="0.0" fill="rgb(44, 48, 57)" opacity="0.99002105"/>
    <path d="M 534.959228515625 445.3623352050781 C 532.230712890625 456.8909606933594 524.892333984375 464.23419189453125 513.6738891601562 466.96240234375 C 503.09637451171875 464.24273681640625 495.7633361816406 456.9010925292969 493.1684265136719 446.86260986328125 C 497.0638732910156 435.55328369140625 503.28729248046875 427.84222412109375 514.7628173828125 425.04339599609375 C 524.90771484375 427.7557678222656 532.2470092773438 435.09100341796875 534.959228515625 445.3623352050781" stroke-width="0.0" fill="rgb(43, 48, 55)" opacity="0.9903755"/>
    <path d="M 339.0933532714844 447.3767395019531 C 336.6572265625 456.5190124511719 329.7007751464844 464.1377258300781 319.9617919921875 466.9782409667969 C 310.0 464.32049560546875 302.67950439453125 457.0 299.119140625 446.19366455078125 C 301.7940979003906 436.1492004394531 309.1632080078125 428.82745361328125 319.34417724609375 426.10791015625 C 329.3844909667969 429.9461975097656 336.5245361328125 437.7236328125 339.0933532714844 447.3767395019531" stroke-width="0.0" fill="rgb(163, 100, 97)" opacity="0.99005514"/>
    <path d="M 58.1021614074707 191.33694458007812 C 55.534629821777344 201.25184631347656 48.266910552978516 208.58145141601562 38.12337875366211 212.93690490722656 C 28.097681045532227 210.2426300048828 20.76565933227539 202.8987274169922 18.04487419128418 192.32736206054688 C 20.776670455932617 181.12086486816406 28.122886657714844 173.78152465820312 39.07680130004883 171.0536346435547 C 49.85741424560547 173.78321838378906 57.060028076171875 181.18780517578125 58.1021614074707 191.33694458007812" stroke-width="0.0" fill="rgb(43, 48, 56)" opacity="0.9900205"/>
    <path d="M 566.0897216796875 168.1432647705078 C 563.7857055664062 178.60841369628906 556.7457885742188 186.1697235107422 545.4176025390625 188.95108032226562 C 535.1149291992188 186.22637939453125 527.783935546875 178.88113403320312 525.150146484375 168.79129028320312 C 528.679443359375 157.99993896484375 535.9999389648438 150.67941284179688 545.9999389648438 147.99993896484375 C 556.0 150.6794891357422 563.3204956054688 157.99998474121094 566.0897216796875 168.1432647705078" stroke-width="0.0" fill="rgb(39, 44, 53)" opacity="1.0"/>
    <path d="M 124.18959045410156 519.7526245117188 C 121.32051086425781 530.0 114.0 537.3204956054688 103.18651580810547 540.8699340820312 C 93.10777282714844 538.2265625 85.76480102539062 530.8955688476562 83.03947448730469 520.1288452148438 C 85.75817108154297 509.09295654296875 93.09040832519531 501.75238037109375 103.33080291748047 499.0407409667969 C 114.7856674194336 501.8125305175781 121.90788269042969 509.31353759765625 124.18959045410156 519.7526245117188" stroke-width="0.0" fill="rgb(39, 44, 53)" opacity="1.0"/>
    <path d="M 614.018798828125 94.99784088134766 C 611.4371337890625 105.22108459472656 604.3972778320312 112.91073608398438 594.4048461914062 115.74501037597656 C 583.2542724609375 112.98494720458984 575.7929077148438 105.82245635986328 573.0468139648438 94.90528106689453 C 575.76806640625 84.10179138183594 583.0979614257812 76.75896453857422 593.2171020507812 74.05547332763672 C 604.4793701171875 76.99392700195312 611.4549560546875 84.74268341064453 614.018798828125 94.99784088134766" stroke-width="0.0" fill="rgb(39, 45, 54)" opacity="1.0"/>
    <path d="M 58.21980285644531 301.3973693847656 C 55.67350769042969 311.443115234375 48.47249221801758 318.7477722167969 38.305633544921875 322.4922180175781 C 28.234771728515625 320.09893798828125 20.860246658325195 312.78033447265625 18.078317642211914 301.3335876464844 C 20.796558380126953 291.15728759765625 28.18477439880371 283.8684387207031 39.44182205200195 281.122802734375 C 49.76601791381836 283.85736083984375 56.978458404541016 291.2862854003906 58.21980285644531 301.3973693847656" stroke-width="0.0" fill="rgb(245, 179, 107)" opacity="0.99050725"/>
    <path d="M 182.3255157470703 494.6614074707031 C 180.18836975097656 503.9170227050781 172.9361572265625 511.24969482421875 162.45716857910156 514.525634765625 C 152.2303924560547 512.0859985351562 144.84840393066406 504.7925109863281 142.10150146484375 494.0818176269531 C 144.88829040527344 483.3075256347656 152.4139404296875 476.1982727050781 162.29090881347656 474.7392883300781 C 172.16600036621094 477.52587890625 179.4659423828125 484.8370361328125 182.3255157470703 494.6614074707031" stroke-width="0.0" fill="rgb(165, 63, 30)" opacity="0.9900139"/>
    <path d="M 303.56634521484375 406.67999267578125 C 301.834228515625 417.5355529785156 294.5661926269531 424.9317932128906 284.06689453125 427.71417236328125 C 273.51763916015625 424.8590393066406 266.1614990234375 417.47564697265625 263.2917785644531 406.84930419921875 C 266.1519470214844 396.5316162109375 273.55914306640625 389.2383117675781 284.5311584472656 386.2457580566406 C 294.668212890625 388.971435546875 302.02862548828125 396.33062744140625 303.56634521484375 406.67999267578125" stroke-width="0.0" fill="rgb(252, 225, 162)" opacity="1.0"/>
    <path d="M 397.2646789550781 565.6722412109375 C 394.32049560546875 576.0 387.0 583.3204956054688 376.24560546875 586.8094482421875 C 366.1300048828125 584.2017822265625 358.77545166015625 576.8788452148438 356.0420227050781 565.8894653320312 C 358.7825622558594 555.1481323242188 366.1972961425781 547.9364624023438 377.8321228027344 545.10595703125 C 387.8230895996094 547.7933349609375 394.989501953125 555.251708984375 397.2646789550781 565.6722412109375" stroke-width="0.0" fill="rgb(44, 48, 53)" opacity="1.0"/>
    <path d="M 88.24726104736328 33.24177932739258 C 85.80320739746094 43.47576904296875 78.46998596191406 50.784088134765625 68.21995544433594 53.215938568115234 C 58.0 50.32050704956055 50.67949295043945 43.0 48.92825698852539 33.85945510864258 C 51.57987594604492 23.85451889038086 58.80598449707031 16.4382266998291 68.45801544189453 13.411130905151367 C 78.0 15.679491996765137 85.32051086425781 23.0 88.24726104736328 33.24177932739258" stroke-width="0.0" fill="rgb(44, 49, 57)" opacity="0.9902028"/>
    <path d="M 392.8253479003906 502.7571105957031 C 390.1929931640625 512.8480224609375 382.8365173339844 520.160888671875 371.2889099121094 522.9176635742188 C 361.1298522949219 520.2155151367188 353.823486328125 512.8563842773438 352.73553466796875 502.77117919921875 C 355.4205017089844 492.7042541503906 362.7063903808594 485.425537109375 372.592041015625 482.7091979980469 C 382.0 484.67950439453125 389.32049560546875 492.0 392.8253479003906 502.7571105957031" stroke-width="0.0" fill="rgb(178, 66, 35)" opacity="0.9900132"/>
    <path d="M 352.9537048339844 17.415863037109375 C 350.23223876953125 27.885957717895508 342.8695373535156 35.187171936035156 332.4875183105469 37.79413604736328 C 321.15185546875 35.141231536865234 313.7643127441406 27.88091278076172 311.07977294921875 17.861106872558594 C 314.67950439453125 7.0 322.0 -0.32050806283950806 332.4798583984375 -3.446352005004883 C 342.80596923828125 -1.0868802070617676 350.21539306640625 6.149699687957764 352.9537048339844 17.415863037109375" stroke-width="0.0" fill="rgb(39, 44, 53)" opacity="1.0"/>
    <path d="M 592.9485473632812 359.55609130859375 C 590.2077026367188 370.8435974121094 582.803466796875 378.0921325683594 571.3472900390625 380.8267517089844 C 561.1320190429688 378.19793701171875 553.7825927734375 370.8751525878906 551.0441284179688 359.31451416015625 C 553.7601928710938 349.1024475097656 561.1046142578125 341.7650146484375 571.5491333007812 339.0431213378906 C 582.8876953125 341.7743225097656 590.2291870117188 349.1107482910156 592.9485473632812 359.55609130859375" stroke-width="0.0" fill="rgb(39, 44, 52)" opacity="1.0"/>
    <path d="M 494.7822265625 188.5821533203125 C 492.12774658203125 198.7851104736328 484.78863525390625 206.1378631591797 473.46710205078125 208.91482543945312 C 463.1690368652344 206.1787109375 455.8076171875 198.83692932128906 453.0679931640625 188.4808807373047 C 455.8310852050781 177.19854736328125 463.2193908691406 169.8809356689453 473.41851806640625 167.205078125 C 484.5268859863281 170.1210174560547 491.8672790527344 177.476806640625 494.7822265625 188.5821533203125" stroke-width="0.0" fill="rgb(235, 151, 63)" opacity="1.0"/>
    <path d="M 90.92161560058594 31.815095901489258 C 88.2226333618164 41.86583709716797 80.83183288574219 49.12271499633789 70.54029846191406 51.512699127197266 C 59.99995422363281 48.32052230834961 52.67842483520508 41.000335693359375 50.47507095336914 31.50836944580078 C 53.46057891845703 21.813514709472656 60.85309600830078 14.574644088745117 70.3103256225586 11.96010684967041 C 79.23938751220703 14.547335624694824 87.7947769165039 21.496597290039062 90.92161560058594 31.815095901489258" stroke-width="0.0" fill="rgb(45, 49, 57)" opacity="0.9900591"/>
    <path d="M 615.0072021484375 186.01669311523438 C 612.4442138671875 196.2537841796875 605.5076904296875 204.042236328125 594.2529296875 206.95501708984375 C 584.1692504882812 204.21365356445312 577.001708984375 196.7556610107422 574.7274169921875 186.3367156982422 C 577.6795043945312 176.0 585.0 168.6794891357422 595.0 166.0 C 605.0 168.6794891357422 612.3204956054688 176.0 615.0072021484375 186.01669311523438" stroke-width="0.0" fill="rgb(41, 45, 54)" opacity="1.0"/>
    <path d="M 514.9205322265625 593.7666015625 C 511.9776916503906 604.4473266601562 504.23284912109375 611.439208984375 494.0020446777344 614.015380859375 C 483.7726745605469 611.432861328125 476.0120544433594 604.4524536132812 473.0558166503906 593.2114868164062 C 475.76678466796875 583.1052856445312 483.10528564453125 575.7669677734375 493.4215087890625 573.046630859375 C 504.777099609375 575.819091796875 512.042724609375 583.2908935546875 514.9205322265625 593.7666015625" stroke-width="0.0" fill="rgb(43, 49, 58)" opacity="1.0"/>
    <path d="M 264.67718505859375 461.8849182128906 C 261.84869384765625 472.4835510253906 254.469970703125 479.8072814941406 244.02664184570312 482.4882507324219 C 233.51246643066406 479.78875732421875 225.9774169921875 472.5782775878906 223.1890869140625 461.86724853515625 C 225.8888397216797 451.2333068847656 233.23863220214844 443.9040832519531 243.52749633789062 441.24700927734375 C 254.55816650390625 444.0950622558594 261.91461181640625 451.4385681152344 264.67718505859375 461.8849182128906" stroke-width="0.0" fill="rgb(252, 227, 161)" opacity="1.0"/>
    <path d="M 39.949764251708984 570.8446655273438 C 37.241188049316406 580.885986328125 29.83566665649414 588.0154418945312 19.79532814025879 589.045654296875 C 9.887890815734863 586.4122314453125 2.581671953201294 579.1145629882812 -0.5365763902664185 569.10546875 C 0.7812490463256836 559.1166381835938 8.116385459899902 551.781005859375 18.20908546447754 549.157470703125 C 29.071714401245117 552.6524658203125 36.80670166015625 559.7506103515625 39.949764251708984 570.8446655273438" stroke-width="0.0" fill="rgb(44, 49, 58)" opacity="0.9900094"/>
    <path d="M 255.47645568847656 358.8674621582031 C 252.6916046142578 369.3675537109375 245.39077758789062 376.76141357421875 235.24981689453125 379.3095397949219 C 225.0 376.32049560546875 217.6794891357422 369.0 215.0 359.0 C 217.6794891357422 349.0 225.00025939941406 341.6803894042969 235.37132263183594 338.708740234375 C 245.4877471923828 341.0718688964844 252.7733154296875 348.57159423828125 255.47645568847656 358.8674621582031" stroke-width="0.0" fill="rgb(252, 227, 161)" opacity="1.0"/>
    <path d="M 183.95445251464844 9.737606048583984 C 181.23834228515625 19.895700454711914 173.8900909423828 27.225299835205078 162.57936096191406 29.954620361328125 C 152.11663818359375 27.22713851928711 144.77734375 19.881439208984375 142.04541015625 9.383646965026855 C 144.82781982421875 -1.7472481727600098 152.39183044433594 -8.788416862487793 162.96871948242188 -11.156569480895996 C 173.55690002441406 -8.736687660217285 181.1410369873047 -1.7035198211669922 183.95445251464844 9.737606048583984" stroke-width="0.0" fill="rgb(38, 43, 52)" opacity="1.0"/>
    <path d="M 583.463134765625 148.46253967285156 C 581.042236328125 158.72427368164062 573.7278442382812 166.0540008544922 563.4864501953125 168.49774169921875 C 553.0 165.3205108642578 545.6795654296875 157.9999542236328 542.1361694335938 147.195068359375 C 544.7786865234375 137.1142578125 552.1104736328125 129.76910400390625 562.1504516601562 127.08610534667969 C 573.0 130.67955017089844 580.3204956054688 138.0 583.463134765625 148.46253967285156" stroke-width="0.0" fill="rgb(40, 44, 53)" opacity="1.0"/>
    <path d="M 249.10987854003906 364.11376953125 C 246.61477661132812 374.3220520019531 239.37098693847656 381.7686462402344 229.1009521484375 384.60638427734375 C 218.53684997558594 381.7744140625 211.06570434570312 374.5196533203125 208.3241424560547 364.5048828125 C 211.6794891357422 354.0 219.0 346.67950439453125 229.00123596191406 343.9984436035156 C 239.00244140625 346.67645263671875 246.3220672607422 353.9980163574219 249.10987854003906 364.11376953125" stroke-width="0.0" fill="rgb(252, 226, 160)" opacity="1.0"/>
    <path d="M 452.9595642089844 548.6588134765625 C 450.2364196777344 558.8984985351562 442.8997497558594 566.2389526367188 431.93511962890625 568.9573974609375 C 421.10150146484375 566.2387084960938 413.7698059082031 558.8948974609375 411.04547119140625 547.8638916015625 C 413.7797546386719 537.13720703125 421.16802978515625 529.8662719726562 431.4461975097656 527.4095458984375 C 442.5472106933594 530.2783203125 450.1520080566406 537.2911987304688 452.9595642089844 548.6588134765625" stroke-width="0.0" fill="rgb(39, 43, 52)" opacity="1.0"/>
    <path d="M 452.4981689453125 256.8895263671875 C 449.49298095703125 267.1117248535156 442.022705078125 274.1925048828125 432.0630187988281 276.4686584472656 C 421.5543518066406 274.4292907714844 413.928955078125 267.6219787597656 411.2209777832031 257.57550048828125 C 414.295654296875 246.66757202148438 421.6972351074219 239.3919677734375 431.8893127441406 236.88304138183594 C 442.0608825683594 239.64756774902344 449.54400634765625 246.8786163330078 452.4981689453125 256.8895263671875" stroke-width="0.0" fill="rgb(251, 223, 166)" opacity="0.99039334"/>
    <path d="M 618.0000610351562 178.99972534179688 C 615.3204956054688 189.0 608.0 196.3205108642578 598.0 198.9999542236328 C 588.0 196.3204803466797 580.6795043945312 188.99998474121094 577.5103759765625 178.4808349609375 C 579.8889770507812 168.17572021484375 587.1359252929688 160.7747344970703 597.1568603515625 158.07266235351562 C 608.0697631835938 161.49354553222656 615.3248901367188 168.98684692382812 618.0000610351562 178.99972534179688" stroke-width="0.0" fill="rgb(41, 45, 54)" opacity="1.0"/>
    <path d="M 603.6992797851562 125.37586212158203 C 600.3204956054688 136.0 593.0 143.3205108642578 582.999755859375 146.0000762939453 C 572.9866943359375 143.3248748779297 565.4712524414062 136.07786560058594 562.0675659179688 125.16268157958984 C 564.772705078125 115.11357879638672 572.1134033203125 107.77259063720703 582.1815795898438 105.10282897949219 C 593.676513671875 108.06700897216797 601.1083984375 115.26818084716797 603.6992797851562 125.37586212158203" stroke-width="0.0" fill="rgb(39, 44, 54)" opacity="1.0"/>
    <path d="M 314.3918762207031 1.4339065551757812 C 312.0589294433594 11.787473678588867 304.8393249511719 19.20969581604004 294.1904602050781 21.951107025146484 C 283.2386169433594 19.18039894104004 276.1278076171875 11.638967514038086 273.6233825683594 1.292857050895691 C 276.67950439453125 -9.0 284.0 -16.32050895690918 294.0 -19.0 C 304.0 -16.32050895690918 311.32049560546875 -9.0 314.3918762207031 1.4339065551757812" stroke-width="0.0" fill="rgb(44, 48, 58)" opacity="0.9900665"/>
    <path d="M 149.95603942871094 41.71698760986328 C 147.2283172607422 52.888954162597656 139.88916015625 60.22880935668945 128.51300048828125 62.95724105834961 C 118.0999526977539 60.23888397216797 110.7626724243164 52.89948654174805 108.09536743164062 42.847293853759766 C 111.66533660888672 31.959604263305664 118.82183837890625 24.286527633666992 129.79794311523438 21.06934356689453 C 139.88827514648438 23.771608352661133 147.22914123535156 31.11151695251465 149.95603942871094 41.71698760986328" stroke-width="0.0" fill="rgb(39, 44, 53)" opacity="1.0"/>
    <path d="M 597.9572143554688 392.22442626953125 C 595.2348022460938 402.89599609375 587.8988037109375 410.2412109375 577.5718994140625 412.96160888671875 C 566.1019897460938 410.2355651855469 558.7628784179688 402.89874267578125 556.0429077148438 391.801513671875 C 558.7698974609375 381.1307373046875 566.1716918945312 373.8877868652344 577.6878051757812 371.1583557128906 C 587.885498046875 373.7876892089844 595.2349853515625 381.10595703125 597.9572143554688 392.22442626953125" stroke-width="0.0" fill="rgb(39, 43, 52)" opacity="1.0"/>
    <path d="M 310.7445983886719 240.7207489013672 C 307.8910827636719 251.5285186767578 300.52740478515625 258.89031982421875 289.93505859375 261.7373962402344 C 279.3709411621094 258.953125 271.9341735839844 251.67198181152344 269.1178894042969 240.9899444580078 C 271.95611572265625 230.3415069580078 279.3507080078125 222.9828338623047 289.6296691894531 220.3052978515625 C 300.49713134765625 223.17593383789062 307.92230224609375 230.4691162109375 310.7445983886719 240.7207489013672" stroke-width="0.0" fill="rgb(252, 226, 161)" opacity="1.0"/>
    <path d="M 343.1042785644531 183.3903350830078 C 340.5052490234375 193.2224578857422 333.22528076171875 200.51222229003906 323.1814880371094 203.25152587890625 C 313.13189697265625 202.1917724609375 305.7765197753906 194.8796844482422 303.05303955078125 184.1573486328125 C 305.782958984375 173.12445068359375 313.124755859375 165.78375244140625 323.3558044433594 163.0708465576172 C 334.7312927246094 165.870849609375 341.531005859375 173.3880615234375 343.1042785644531 183.3903350830078" stroke-width="0.0" fill="rgb(158, 102, 96)" opacity="0.9900377"/>
    <path d="M 46.9445915222168 456.59521484375 C 44.10609436035156 467.6337890625 36.4439582824707 474.6123046875 25.88545799255371 477.1389465332031 C 15.364222526550293 474.8218994140625 7.816622734069824 467.7659912109375 5.044398307800293 456.9075622558594 C 7.804603099822998 446.1961669921875 15.279851913452148 439.0436706542969 26.679658889770508 436.1318664550781 C 36.66846466064453 438.934814453125 44.134944915771484 446.290283203125 46.9445915222168 456.59521484375" stroke-width="0.0" fill="rgb(41, 44, 52)" opacity="1.0"/>
    <path d="M 595.1174926757812 182.91351318359375 C 592.6192626953125 193.46583557128906 585.6702880859375 201.13841247558594 574.3614501953125 203.95753479003906 C 564.1036987304688 201.2359161376953 556.7657470703125 193.8955535888672 554.0817260742188 183.8553009033203 C 557.677001953125 172.99273681640625 564.94970703125 165.53465270996094 575.7854614257812 162.07949829101562 C 585.7349243164062 164.83656311035156 592.7740478515625 172.4062957763672 595.1174926757812 182.91351318359375" stroke-width="0.0" fill="rgb(39, 44, 53)" opacity="1.0"/>
    <path d="M 575.9605102539062 490.6210632324219 C 573.2345581054688 500.8902587890625 565.886962890625 508.2269287109375 555.0798950195312 510.9502258300781 C 544.1043090820312 508.2312316894531 536.7593383789062 500.8996276855469 534.04345703125 490.67034912109375 C 536.806884765625 479.2026672363281 544.2960205078125 472.0775451660156 555.2620849609375 469.5558166503906 C 565.7761840820312 471.9574890136719 573.2084350585938 479.1661376953125 575.9605102539062 490.6210632324219" stroke-width="0.0" fill="rgb(39, 44, 52)" opacity="1.0"/>
    <path d="M 604.6383666992188 142.6236114501953 C 602.1526489257812 152.8407440185547 594.863037109375 160.2153778076172 584.6820068359375 162.9462432861328 C 573.4010620117188 160.08587646484375 566.4370727539062 152.39463806152344 563.974365234375 142.04901123046875 C 566.6795043945312 132.0 574.0 124.67952728271484 584.0 122.00018310546875 C 593.9999389648438 124.6795654296875 601.3204345703125 132.0000457763672 604.6383666992188 142.6236114501953" stroke-width="0.0" fill="rgb(40, 45, 53)" opacity="1.0"/>
    <path d="M 132.81460571289062 524.3350830078125 C 129.3205108642578 535.0 122.0 542.3204956054688 111.60279083251953 545.4513549804688 C 101.43109130859375 542.9405517578125 94.20687866210938 535.5234985351562 91.82917022705078 525.2003784179688 C 94.67948913574219 515.0 102.0 507.67950439453125 111.79304504394531 505.1742248535156 C 121.84822845458984 508.0693054199219 130.02178955078125 514.592041015625 132.81460571289062 524.3350830078125" stroke-width="0.0" fill="rgb(44, 49, 54)" opacity="0.9904347"/>
    <path d="M 169.064697265625 445.6214294433594 C 166.7250518798828 454.61285400390625 159.8015899658203 462.2154541015625 150.01902770996094 464.9527893066406 C 139.9163055419922 462.2706604003906 132.0364532470703 455.38031005859375 129.0567626953125 444.2715759277344 C 131.7925262451172 434.1541442871094 139.18504333496094 426.8753662109375 149.3375701904297 424.30413818359375 C 159.28688049316406 428.3500061035156 166.49484252929688 435.76531982421875 169.064697265625 445.6214294433594" stroke-width="0.0" fill="rgb(56, 48, 56)" opacity="0.99003667"/>
    <path d="M 91.96028900146484 62.53468322753906 C 89.24253845214844 72.90020751953125 81.89572143554688 80.23229217529297 71.51600646972656 82.95299530029297 C 60.12904357910156 80.21451568603516 52.8090934753418 72.86238861083984 50.231346130371094 62.72267532348633 C 53.67949295043945 52.0 61.0 44.67948913574219 71.6624526977539 41.32898712158203 C 81.86935424804688 43.82156753540039 89.23715209960938 51.10993576049805 91.96028900146484 62.53468322753906" stroke-width="0.0" fill="rgb(39, 44, 52)" opacity="1.0"/>
    <path d="M 367.2396240234375 244.13221740722656 C 364.44140625 254.14736938476562 357.1484069824219 261.4438171386719 347.12603759765625 264.138671875 C 337.16595458984375 263.1988220214844 330.2022705078125 255.76065063476562 328.9220886230469 245.2769317626953 C 330.90789794921875 234.3015594482422 337.1694030761719 226.7841339111328 347.084228515625 225.81517028808594 C 357.1642761230469 228.57449340820312 365.6238098144531 235.71327209472656 367.2396240234375 244.13221740722656" stroke-width="0.0" fill="rgb(41, 45, 53)" opacity="0.99000555"/>
    <path d="M 239.79193115234375 348.170654296875 C 235.48095703125 358.1826477050781 228.1779327392578 365.46820068359375 218.11480712890625 369.6478576660156 C 208.20697021484375 367.18743896484375 201.7484130859375 359.6568603515625 199.90249633789062 349.4441223144531 C 202.50086975097656 339.8110656738281 209.83090209960938 332.55035400390625 219.27621459960938 329.94921875 C 228.3483428955078 332.5006103515625 237.0561065673828 338.785888671875 239.79193115234375 348.170654296875" stroke-width="0.0" fill="rgb(86, 76, 60)" opacity="0.9900082"/>
    <path d="M 200.07533264160156 176.19894409179688 C 197.43527221679688 186.13986206054688 190.14610290527344 193.45187377929688 180.2504425048828 196.24989318847656 C 170.69032287597656 194.7173614501953 163.48770141601562 187.24484252929688 160.59324645996094 176.71212768554688 C 163.15602111816406 166.52218627929688 170.53916931152344 159.20538330078125 181.0265350341797 156.3905792236328 C 191.58029174804688 159.11427307128906 198.93479919433594 166.4020233154297 200.07533264160156 176.19894409179688" stroke-width="0.0" fill="rgb(252, 226, 162)" opacity="0.9900267"/>
    <path d="M 573.9512939453125 465.976806640625 C 571.1795043945312 476.7666320800781 563.6489868164062 483.8509216308594 552.6993408203125 486.414306640625 C 542.222412109375 484.0401306152344 534.7864379882812 476.838134765625 532.046630859375 466.3477783203125 C 534.7800903320312 455.1173400878906 542.1126098632812 447.76904296875 552.1611938476562 445.08526611328125 C 563.7195434570312 448.04449462890625 571.1918334960938 455.19879150390625 573.9512939453125 465.976806640625" stroke-width="0.0" fill="rgb(39, 44, 53)" opacity="1.0"/>
    <path d="M 395.5619201660156 56.548152923583984 C 393.0951232910156 66.7596664428711 385.7247314453125 73.93584442138672 374.2750244140625 76.45550537109375 C 364.8169860839844 73.9666748046875 358.3211364746094 65.54532623291016 354.0744934082031 55.1276969909668 C 356.7646789550781 45.10503387451172 364.10546875 37.765846252441406 374.1541748046875 35.07754898071289 C 385.02874755859375 38.59244918823242 392.3216857910156 45.996158599853516 395.5619201660156 56.548152923583984" stroke-width="0.0" fill="rgb(44, 48, 56)" opacity="0.99002"/>
    <path d="M 495.9574279785156 530.9146118164062 C 493.23040771484375 541.889404296875 485.8887634277344 549.22900390625 475.0326232910156 551.9574584960938 C 464.1122131347656 549.2269897460938 456.7693176269531 541.8894653320312 454.0655212402344 531.7509765625 C 456.80169677734375 520.1245727539062 464.1100769042969 512.763671875 474.71063232421875 510.0409240722656 C 485.8998718261719 512.7607421875 493.2342224121094 520.1023559570312 495.9574279785156 530.9146118164062" stroke-width="0.0" fill="rgb(39, 44, 52)" opacity="1.0"/>
    <path d="M 65.0448989868164 52.075374603271484 C 62.6520881652832 62.49094009399414 55.66973114013672 70.1278305053711 44.28608322143555 72.9507064819336 C 34.109153747558594 70.2335433959961 26.77739906311035 62.886207580566406 24.044206619262695 51.4383430480957 C 26.757431030273438 41.09266662597656 34.09107971191406 33.753726959228516 44.18157958984375 31.051088333129883 C 55.3398323059082 34.08866500854492 62.363990783691406 41.88837814331055 65.0448989868164 52.075374603271484" stroke-width="0.0" fill="rgb(40, 45, 53)" opacity="1.0"/>
    <path d="M 531.9593505859375 114.48336029052734 C 529.2391357421875 124.89825439453125 521.8958129882812 132.23345947265625 510.9485168457031 134.9539031982422 C 500.10186767578125 132.23416137695312 492.7593994140625 124.90091705322266 490.0400085449219 114.29759979248047 C 492.7702941894531 103.11328125 500.1161193847656 95.77660369873047 510.6350402832031 93.0474624633789 C 521.8866577148438 95.77446746826172 529.2274780273438 103.1125717163086 531.9593505859375 114.48336029052734" stroke-width="0.0" fill="rgb(39, 44, 53)" opacity="1.0"/>
    <path d="M 460.6154479980469 163.5804901123047 C 458.11444091796875 173.79190063476562 450.8006286621094 181.14068603515625 440.64422607421875 183.69833374023438 C 430.0 180.3205108642578 422.67950439453125 173.0 419.38360595703125 162.6050567626953 C 422.5988464355469 153.60203552246094 430.7495422363281 146.5103302001953 440.6439208984375 143.87832641601562 C 449.91802978515625 145.8972625732422 457.3157958984375 153.01400756835938 460.6154479980469 163.5804901123047" stroke-width="0.0" fill="rgb(45, 49, 59)" opacity="0.99001116"/>
    <path d="M 468.8553466796875 229.19883728027344 C 465.9996032714844 239.58746337890625 458.5413818359375 246.8800048828125 448.4083557128906 249.57403564453125 C 437.9996032714844 246.3209686279297 430.67913818359375 239.0003662109375 427.9938049316406 228.98902893066406 C 430.61968994140625 218.8919677734375 437.80169677734375 211.34556579589844 448.4833679199219 208.2259063720703 C 458.66357421875 210.94784545898438 466.0049133300781 218.35719299316406 468.8553466796875 229.19883728027344" stroke-width="0.0" fill="rgb(252, 226, 162)" opacity="1.0"/>
    <path d="M 278.1319885253906 1.074808955192566 C 275.43511962890625 11.064406394958496 268.03546142578125 18.339685440063477 257.426513671875 21.575754165649414 C 247.1712188720703 19.130659103393555 239.7809295654297 11.860483169555664 237.08209228515625 1.8389191627502441 C 240.64886474609375 -9.009181022644043 247.99923706054688 -16.32073402404785 258.0 -19.000001907348633 C 268.0 -16.32050895690918 275.32049560546875 -9.0 278.1319885253906 1.074808955192566" stroke-width="0.0" fill="rgb(40, 45, 54)" opacity="1.0"/>
    <path d="M 309.57244873046875 152.9881591796875 C 306.81610107421875 163.4637451171875 299.4710388183594 170.83935546875 288.4679260253906 173.81802368164062 C 278.2620544433594 171.09701538085938 270.9707336425781 163.7154998779297 268.4726257324219 153.37863159179688 C 271.23199462890625 142.48805236816406 278.4124450683594 135.00254821777344 288.53167724609375 132.26246643066406 C 299.3855895996094 135.2677764892578 306.79510498046875 142.59225463867188 309.57244873046875 152.9881591796875" stroke-width="0.0" fill="rgb(252, 225, 158)" opacity="1.0"/>
    <path d="M 421.8360900878906 490.3033142089844 C 418.8392639160156 501.4674072265625 411.45654296875 508.80499267578125 401.7080078125 510.13861083984375 C 391.46234130859375 507.64306640625 383.7362060546875 500.7835388183594 381.00860595703125 491.0084228515625 C 383.679931640625 481.0001220703125 391.0 473.67950439453125 401.2293395996094 471.1091003417969 C 411.7406311035156 473.0310363769531 419.1727600097656 480.1993408203125 421.8360900878906 490.3033142089844" stroke-width="0.0" fill="rgb(178, 66, 33)" opacity="0.9900278"/>
    <path d="M 127.40322875976562 398.7222595214844 C 124.32001495361328 408.9996032714844 116.99967956542969 416.3202209472656 106.5447998046875 419.4766540527344 C 96.2738265991211 417.0332946777344 88.86943817138672 409.7601013183594 86.3128433227539 399.7402648925781 C 90.00871276855469 389.2399597167969 97.22117614746094 381.9609375 107.3862533569336 379.262451171875 C 117.43096160888672 381.2220764160156 124.7632827758789 388.5743103027344 127.40322875976562 398.7222595214844" stroke-width="0.0" fill="rgb(252, 227, 159)" opacity="1.0"/>
    <path d="M 504.9579772949219 61.55820846557617 C 502.23919677734375 71.89847564697266 494.89801025390625 79.23815155029297 484.52667236328125 81.95845031738281 C 473.1103820800781 79.22989654541016 465.77520751953125 71.887451171875 463.0477600097656 60.85446548461914 C 465.7767639160156 50.11774444580078 473.1154479980469 42.77166748046875 484.3111267089844 40.041908264160156 C 494.89532470703125 42.76393127441406 502.23260498046875 50.10605239868164 504.9579772949219 61.55820846557617" stroke-width="0.0" fill="rgb(39, 44, 52)" opacity="1.0"/>
    <path d="M 33.921165466308594 424.1722106933594 C 31.018301010131836 435.6390686035156 23.584808349609375 442.8442687988281 12.152188301086426 445.9267272949219 C 2.1632471084594727 443.21490478515625 -5.032387733459473 435.77203369140625 -7.533675670623779 424.9022521972656 C -5.059182167053223 414.20953369140625 2.155634641647339 406.7847900390625 13.556309700012207 404.03900146484375 C 23.901662826538086 406.7587585449219 31.237476348876953 414.0999450683594 33.921165466308594 424.1722106933594" stroke-width="0.0" fill="rgb(39, 44, 52)" opacity="1.0"/>
    <path d="M 132.87403869628906 557.822021484375 C 130.23358154296875 567.9029541015625 122.90748596191406 575.2451171875 112.56946563720703 577.9566650390625 C 101.10030364990234 575.2329711914062 93.75501251220703 567.9047241210938 91.03768920898438 557.3963623046875 C 93.77147674560547 546.1289672851562 101.15982055664062 538.855224609375 111.39508056640625 536.3798828125 C 122.0 539.6795043945312 129.3205108642578 547.0 132.87403869628906 557.822021484375" stroke-width="0.0" fill="rgb(39, 44, 53)" opacity="1.0"/>
    <path d="M 442.3612060546875 204.24317932128906 C 439.6839599609375 214.2540740966797 432.1739807128906 221.43496704101562 421.9994201660156 224.0302734375 C 411.7339172363281 221.47047424316406 404.0425720214844 214.44911193847656 401.2184143066406 204.3321075439453 C 403.99578857421875 193.33993530273438 411.3497009277344 186.02664184570312 421.60284423828125 183.57945251464844 C 432.00030517578125 186.67929077148438 439.3215026855469 193.99945068359375 442.3612060546875 204.24317932128906" stroke-width="0.0" fill="rgb(252, 226, 164)" opacity="1.0"/>
    <path d="M 441.9957580566406 222.002685546875 C 439.32049560546875 232.0000762939453 432.000244140625 239.32107543945312 421.7477111816406 242.34268188476562 C 411.56512451171875 239.76263427734375 404.19427490234375 232.44883728027344 401.3847961425781 221.9442901611328 C 404.3736877441406 211.83084106445312 411.9161376953125 204.63389587402344 421.9912414550781 201.99588012695312 C 431.99737548828125 204.68128967285156 439.3149108886719 212.00376892089844 441.9957580566406 222.002685546875" stroke-width="0.0" fill="rgb(255, 230, 164)" opacity="0.99271065"/>
    <path d="M 580.9583740234375 319.522705078125 C 578.2366333007812 329.89764404296875 570.8963012695312 337.2335205078125 559.8936767578125 339.9565734863281 C 549.1123657226562 337.22967529296875 541.7704467773438 329.8875732421875 539.0421752929688 318.7694091796875 C 541.764404296875 308.1015625 549.101806640625 300.7655334472656 559.1741333007812 298.11529541015625 C 570.600830078125 301.2274475097656 578.1774291992188 308.2503967285156 580.9583740234375 319.522705078125" stroke-width="0.0" fill="rgb(39, 43, 52)" opacity="1.0"/>
    <path d="M 336.224853515625 452.3494873046875 C 333.5332946777344 462.25946044921875 326.2740783691406 469.57110595703125 316.3255310058594 473.55889892578125 C 306.823486328125 470.638671875 299.1626281738281 463.27899169921875 296.0691223144531 452.26513671875 C 298.8423156738281 442.2781982421875 306.4313659667969 435.26055908203125 316.8721008300781 432.9387512207031 C 326.9553527832031 435.71697998046875 334.2369689941406 443.0583190917969 336.224853515625 452.3494873046875" stroke-width="0.0" fill="rgb(158, 99, 94)" opacity="1.0"/>
    <path d="M 457.7574157714844 493.39990234375 C 455.15728759765625 503.7987365722656 447.7693176269531 511.06866455078125 437.2882080078125 513.59716796875 C 426.391357421875 510.9254150390625 419.0231018066406 503.6252136230469 416.6558532714844 492.61444091796875 C 418.87890625 482.1964111328125 426.1720275878906 474.81219482421875 436.4244079589844 472.0762023925781 C 447.74993896484375 474.8825378417969 455.0882568359375 482.26104736328125 457.7574157714844 493.39990234375" stroke-width="0.0" fill="rgb(240, 177, 107)" opacity="1.0"/>
    <path d="M 218.4215087890625 60.5726318359375 C 215.48886108398438 71.28219604492188 208.42889404296875 78.91039276123047 198.01402282714844 81.80519104003906 C 187.4069366455078 78.96793365478516 180.01856994628906 71.5982437133789 177.15789794921875 60.60844421386719 C 179.88784790039062 50.22282028198242 187.20162963867188 42.83409881591797 197.42620849609375 40.10137939453125 C 208.7553253173828 42.879356384277344 216.0245361328125 50.27691650390625 218.4215087890625 60.5726318359375" stroke-width="0.0" fill="rgb(230, 194, 145)" opacity="1.0"/>
    <path d="M 280.7610778808594 53.594051361083984 C 278.5052795410156 64.47688293457031 271.6340026855469 72.07244110107422 260.99786376953125 74.89111328125 C 250.35560607910156 72.06217193603516 243.17543029785156 64.56061553955078 240.7667236328125 54.2022590637207 C 243.59303283691406 43.98471450805664 251.2413787841797 37.201351165771484 260.3627014160156 34.92599868774414 C 270.4451599121094 37.45075988769531 278.7925720214844 43.997867584228516 280.7610778808594 53.594051361083984" stroke-width="0.0" fill="rgb(251, 201, 131)" opacity="0.9901903"/>
    <path d="M 448.2693176269531 175.09832763671875 C 444.8832702636719 184.35403442382812 437.2342224121094 191.4690399169922 427.13897705078125 194.10980224609375 C 417.2046203613281 193.165283203125 410.25494384765625 185.7157440185547 408.9385986328125 175.7456817626953 C 411.55364990234375 165.82803344726562 418.78265380859375 158.4136962890625 428.333251953125 155.3660430908203 C 437.8432312011719 157.88893127441406 445.2004699707031 165.1292266845703 448.2693176269531 175.09832763671875" stroke-width="0.0" fill="rgb(42, 46, 55)" opacity="0.99001205"/>
    <path d="M 174.0460662841797 464.93707275390625 C 171.45579528808594 474.1984558105469 164.2569122314453 481.6109313964844 154.25921630859375 485.359619140625 C 144.16871643066406 483.16058349609375 136.8167266845703 475.839111328125 134.11297607421875 465.6814880371094 C 137.2657012939453 454.79742431640625 144.9360809326172 447.6424865722656 154.8392791748047 444.81549072265625 C 164.34776306152344 448.207763671875 171.47213745117188 455.76031494140625 174.0460662841797 464.93707275390625" stroke-width="0.0" fill="rgb(68, 50, 59)" opacity="0.9900151"/>
    <path d="M 426.99993896484375 59.0 C 424.3204650878906 68.9999771118164 417.0 76.32050323486328 406.25250244140625 79.7884292602539 C 396.12823486328125 77.20390319824219 388.8067626953125 69.86817169189453 386.24981689453125 59.71652603149414 C 389.6796875 49.00016403198242 397.00018310546875 41.679710388183594 407.0000915527344 39.000186920166016 C 416.9999694824219 41.679508209228516 424.3204345703125 49.00003433227539 426.99993896484375 59.0" stroke-width="0.0" fill="rgb(39, 44, 54)" opacity="1.0"/>
    <path d="M 344.78936767578125 4.403303623199463 C 341.3204040527344 14.999930381774902 333.99993896484375 22.320425033569336 323.51727294921875 25.462631225585938 C 313.2239990234375 23.07442283630371 305.8555908203125 15.797904014587402 303.30255126953125 5.649805068969727 C 306.67950439453125 -4.999998092651367 314.0 -12.320508003234863 324.0102233886719 -15.004410743713379 C 334.1680603027344 -12.398476600646973 341.90985107421875 -5.368658542633057 344.78936767578125 4.403303623199463" stroke-width="0.0" fill="rgb(40, 47, 55)" opacity="1.0"/>
    <path d="M 480.0841369628906 149.7720947265625 C 479.01318359375 159.72763061523438 471.7537841796875 167.10653686523438 461.0086669921875 169.87112426757812 C 450.1636962890625 167.15562438964844 442.79022216796875 159.85665893554688 440.0863952636719 149.71737670898438 C 442.92254638671875 138.29367065429688 450.3013000488281 130.9396514892578 460.2847595214844 128.30377197265625 C 470.1955871582031 132.47314453125 477.45916748046875 139.82701110839844 480.0841369628906 149.7720947265625" stroke-width="0.0" fill="rgb(247, 191, 124)" opacity="0.9900179"/>
    <path d="M 35.85786437988281 242.2602996826172 C 33.172813415527344 253.8553009033203 25.871980667114258 261.2197265625 14.88622760772705 263.9500427246094 C 4.14241886138916 261.21502685546875 -3.1258490085601807 253.82640075683594 -5.710485458374023 243.02809143066406 C -3.1238644123077393 232.1737518310547 4.141144752502441 224.78298950195312 15.600190162658691 222.04197692871094 C 25.89804458618164 224.76194763183594 33.22949981689453 232.1053466796875 35.85786437988281 242.2602996826172" stroke-width="0.0" fill="rgb(40, 45, 52)" opacity="1.0"/>
    <path d="M 75.10305786132812 357.1829833984375 C 72.59457397460938 366.4002380371094 65.63154602050781 374.668212890625 55.485313415527344 377.8944396972656 C 45.30617904663086 375.082763671875 37.98440170288086 367.6669616699219 35.22634506225586 357.0733947753906 C 37.96636962890625 346.2841491699219 45.26618957519531 338.9145812988281 55.23427963256836 337.81353759765625 C 65.25008392333984 340.47149658203125 72.53070831298828 347.74920654296875 75.10305786132812 357.1829833984375" stroke-width="0.0" fill="rgb(234, 154, 61)" opacity="0.9900235"/>
    <path d="M 310.0531005859375 474.30889892578125 C 307.40838623046875 484.10308837890625 300.1011047363281 491.40325927734375 290.3459777832031 494.03863525390625 C 281.86328125 491.43414306640625 274.5702209472656 484.13494873046875 271.9552307128906 474.7217712402344 C 274.564697265625 465.8648986816406 281.8659362792969 458.5668029785156 291.880126953125 454.27288818359375 C 301.6010437011719 456.880859375 307.63690185546875 465.196533203125 310.0531005859375 474.30889892578125" stroke-width="0.0" fill="rgb(30, 32, 37)" opacity="0.99000394"/>
    <path d="M 405.84783935546875 471.64935302734375 C 403.1324462890625 481.77593994140625 395.7767333984375 489.1343994140625 385.3106689453125 491.8958435058594 C 374.29248046875 489.09246826171875 367.0076904296875 481.6692810058594 364.5057373046875 470.5794982910156 C 366.9242858886719 460.27001953125 374.2546691894531 452.88623046875 384.359619140625 450.2113342285156 C 395.473388671875 453.2107849121094 402.8629150390625 460.5032043457031 405.84783935546875 471.64935302734375" stroke-width="0.0" fill="rgb(251, 224, 158)" opacity="1.0"/>
    <path d="M 256.72064208984375 49.13358688354492 C 252.49700927734375 59.20657730102539 245.1990203857422 66.47898864746094 236.17718505859375 69.05976104736328 C 226.80772399902344 66.47187042236328 219.44187927246094 59.22103500366211 215.086669921875 49.14263153076172 C 217.77056884765625 39.10702896118164 225.1049041748047 31.765615463256836 235.93252563476562 29.045928955078125 C 246.8717041015625 31.77902603149414 254.19937133789062 39.137451171875 256.72064208984375 49.13358688354492" stroke-width="0.0" fill="rgb(46, 49, 57)" opacity="0.9900125"/>
    <path d="M 435.0048828125 86.00704956054688 C 432.3512878417969 96.04789733886719 425.0782775878906 103.45159149169922 414.671142578125 106.6004867553711 C 404.6232604980469 103.79264068603516 397.2490234375 96.36201477050781 395.729736328125 86.03836822509766 C 397.05963134765625 75.44054412841797 404.50701904296875 68.27922058105469 414.86376953125 65.90471649169922 C 424.99969482421875 68.68001556396484 432.3205261230469 76.00016021728516 435.0048828125 86.00704956054688" stroke-width="0.0" fill="rgb(46, 51, 59)" opacity="0.990023"/>
    <path d="M 544.9595336914062 576.4398193359375 C 542.2348022460938 586.8939819335938 534.8944091796875 594.2355346679688 524.7020263671875 596.9529418945312 C 513.2361450195312 594.1649169921875 505.99993896484375 586.6934814453125 503.0721130371094 575.2378540039062 C 505.7845153808594 565.1222534179688 513.1161499023438 557.770263671875 524.1668701171875 555.0401611328125 C 534.8956298828125 557.7627563476562 542.2293701171875 565.1077880859375 544.9595336914062 576.4398193359375" stroke-width="0.0" fill="rgb(39, 44, 53)" opacity="1.0"/>
    <path d="M 273.35101318359375 124.64728546142578 C 271.7813415527344 135.41087341308594 264.3653564453125 142.6331329345703 254.10977172851562 145.0889892578125 C 244.0 142.3205108642578 236.67942810058594 135.00001525878906 233.5631103515625 124.64751434326172 C 236.12367248535156 114.49278259277344 243.5087127685547 107.16960144042969 254.06784057617188 104.3776626586914 C 264.4531555175781 107.1547622680664 271.6912536621094 114.59561157226562 273.35101318359375 124.64728546142578" stroke-width="0.0" fill="rgb(252, 226, 166)" opacity="0.99060476"/>
    <path d="M 68.10982513427734 431.0401611328125 C 66.01778411865234 441.5632629394531 59.76700973510742 449.18597412109375 49.52022171020508 451.9515075683594 C 38.30022048950195 449.1122741699219 30.883907318115234 441.7030334472656 28.10508918762207 431.407958984375 C 30.820775985717773 420.1364440917969 38.1190185546875 412.7723388671875 48.12470626831055 410.538330078125 C 58.288230895996094 414.4615783691406 65.62442016601562 421.6761779785156 68.10982513427734 431.0401611328125" stroke-width="0.0" fill="rgb(44, 49, 55)" opacity="0.990011"/>
    <path d="M 458.9350280761719 523.2218627929688 C 456.1750793457031 534.8330688476562 448.81768798828125 542.1275024414062 438.5444030761719 544.5951538085938 C 427.40191650390625 541.7766723632812 419.83245849609375 534.739990234375 417.08197021484375 524.80615234375 C 421.2221374511719 514.6266479492188 428.7032165527344 507.46240234375 438.8496398925781 504.6982116699219 C 448.8768310546875 505.79449462890625 456.2311706542969 513.1132202148438 458.9350280761719 523.2218627929688" stroke-width="0.0" fill="rgb(44, 48, 57)" opacity="0.9900808"/>
    <path d="M 153.9561004638672 541.7339477539062 C 151.2334747314453 551.89208984375 143.890625 559.2300415039062 133.84005737304688 561.9249877929688 C 122.95519256591797 558.4481201171875 115.67706298828125 551.0073852539062 112.99980163574219 540.9999389648438 C 115.67662811279297 530.991455078125 122.94546508789062 523.5255737304688 132.3875274658203 521.2279052734375 C 142.65164184570312 524.2355346679688 151.0486297607422 530.6302490234375 153.9561004638672 541.7339477539062" stroke-width="0.0" fill="rgb(44, 49, 57)" opacity="0.9902893"/>
    <path d="M 115.94417572021484 102.25199890136719 C 112.93099212646484 112.76509094238281 104.43268585205078 119.6649169921875 94.14452362060547 123.91373443603516 C 84.10619354248047 121.23182678222656 76.76819610595703 113.89375305175781 74.04634094238281 102.95722198486328 C 76.77078247070312 92.11038970947266 84.11063385009766 84.7713623046875 95.52279663085938 82.04159545898438 C 105.89328002929688 84.76386260986328 113.22776794433594 92.11032104492188 115.94417572021484 102.25199890136719" stroke-width="0.0" fill="rgb(43, 49, 54)" opacity="1.0"/>
    <path d="M 276.9540100097656 171.66122436523438 C 274.2333068847656 181.89161682128906 266.88385009765625 189.21302795410156 256.9089660644531 190.10536193847656 C 246.89584350585938 187.4044952392578 239.5915069580078 180.1059112548828 236.96131896972656 170.54063415527344 C 239.5714874267578 161.86370849609375 246.86050415039062 154.5642547607422 256.5347595214844 151.9513702392578 C 265.39862060546875 154.48150634765625 274.1067810058594 160.57908630371094 276.9540100097656 171.66122436523438" stroke-width="0.0" fill="rgb(40, 46, 60)" opacity="0.990004"/>
    <path d="M 332.18145751953125 94.83575439453125 C 329.9351501464844 103.76477813720703 321.38177490234375 110.57452392578125 311.93548583984375 113.10520935058594 C 302.7218017578125 110.56453704833984 295.4669494628906 103.26527404785156 292.9374694824219 94.61536407470703 C 295.55609130859375 84.8536148071289 302.8565979003906 77.56295013427734 312.43817138671875 74.94480895996094 C 321.1650390625 77.54150390625 328.45880126953125 84.83491516113281 332.18145751953125 94.83575439453125" stroke-width="0.0" fill="rgb(174, 62, 37)" opacity="0.9900052"/>
  </g>
</svg>
