<?xml version="1.0" ?>
<svg xmlns="http://www.w3.org/2000/svg" version="1.1" width="600" height="600">
  <defs/>
  <g>
    <path d="M 386.9595031738281 281.3387451171875 C 384.8821716308594 290.3589172363281 379.3533935546875 295.8704833984375 370.42083740234375 297.9540710449219 C 362.6003112792969 295.9076843261719 357.0918884277344 290.3998718261719 355.0447692871094 282.78533935546875 C 357.2432861328125 273.9082336425781 363.1271057128906 268.79071044921875 371.56524658203125 266.439697265625 C 379.3445739746094 268.1907958984375 384.90509033203125 273.6214599609375 386.9595031738281 281.3387451171875" stroke-width="0.0" fill="rgb(4, 3, 5)" opacity="0.9906232"/>
    <path d="M 353.9559326171875 304.96514892578125 C 351.8971862792969 313.3750305175781 346.3507080078125 318.82989501953125 338.634765625 320.651611328125 C 330.5 317.9903869628906 325.0096130371094 312.5 322.4542236328125 304.4916076660156 C 324.2682800292969 296.76129150390625 329.73602294921875 291.1976623535156 338.5174255371094 289.0813293457031 C 346.3681640625 291.12261962890625 351.8910217285156 296.6260681152344 353.9559326171875 304.96514892578125" stroke-width="0.0" fill="rgb(25, 24, 26)" opacity="0.99018097"/>
    <path d="M 403.0 166.99996948242188 C 400.989990234375 174.49887084960938 395.4979248046875 179.98696899414062 387.5008544921875 182.69943237304688 C 379.9495544433594 180.648681640625 374.4705810546875 175.001708984375 372.4101867675781 167.38272094726562 C 374.96649169921875 159.48321533203125 380.4950866699219 154.0077667236328 387.99981689453125 151.99993896484375 C 395.5 154.00961303710938 400.9903869628906 159.5 403.0 166.99996948242188" stroke-width="0.0" fill="rgb(182, 190, 201)" opacity="1.0"/>
    <path d="M 472.8160705566406 139.12335205078125 C 470.9903869628906 146.5 465.5 151.99038696289062 457.8633117675781 154.1455535888672 C 450.1774597167969 152.30770874023438 444.7094421386719 146.81947326660156 442.8250732421875 138.46066284179688 C 444.4834899902344 131.1184844970703 450.1783447265625 125.63163757324219 457.740234375 123.4805679321289 C 465.3809509277344 126.097900390625 470.77239990234375 131.6588134765625 472.8160705566406 139.12335205078125" stroke-width="0.0" fill="rgb(242, 228, 209)" opacity="1.0"/>
    <path d="M 568.8575439453125 295.7905578613281 C 566.8853759765625 303.38800048828125 561.3985595703125 308.9117431640625 553.5360717773438 310.95843505859375 C 544.7228393554688 308.8628234863281 539.5115356445312 303.1426086425781 537.8912963867188 295.13836669921875 C 539.8484497070312 287.20172119140625 544.974609375 281.2879638671875 552.3860473632812 279.0920104980469 C 560.9110107421875 281.4048767089844 566.1298828125 287.2648010253906 568.8575439453125 295.7905578613281" stroke-width="0.0" fill="rgb(5, 4, 6)" opacity="0.99007595"/>
    <path d="M 306.6493225097656 310.5135192871094 C 304.8118591308594 318.3360595703125 299.36322021484375 323.88824462890625 291.713623046875 325.9317321777344 C 282.6341552734375 323.8545227050781 277.0893249511719 318.3883972167969 275.03277587890625 309.6383972167969 C 277.078369140625 301.58648681640625 282.5909118652344 296.0889892578125 290.9355163574219 294.0392150878906 C 299.32525634765625 296.1168518066406 304.6411437988281 301.7598876953125 306.6493225097656 310.5135192871094" stroke-width="0.0" fill="rgb(3, 2, 4)" opacity="0.9901094"/>
    <path d="M 509.0 196.0 C 506.9903869628906 203.5 501.5 208.99038696289062 494.0 211.0 C 486.5 208.99038696289062 481.0096130371094 203.5 478.2484130859375 195.3573455810547 C 480.22930908203125 187.76612854003906 485.7662048339844 182.2285919189453 493.333984375 180.21788024902344 C 501.4988098144531 183.01361083984375 506.9903564453125 188.50010681152344 509.0 196.0" stroke-width="0.0" fill="rgb(61, 80, 105)" opacity="0.9935851"/>
    <path d="M 475.1021728515625 248.2896270751953 C 473.2433776855469 254.82469177246094 467.8822937011719 260.4143371582031 460.7152099609375 262.7277526855469 C 453.58465576171875 260.9513854980469 448.3936462402344 255.29531860351562 445.1243591308594 247.14755249023438 C 447.1103820800781 239.62367248535156 452.6297302246094 234.12696838378906 460.1889343261719 233.45858764648438 C 467.7861022949219 235.74989318847656 473.2129821777344 241.22816467285156 475.1021728515625 248.2896270751953" stroke-width="0.0" fill="rgb(91, 96, 39)" opacity="0.9900408"/>
    <path d="M 411.61279296875 88.54581451416016 C 408.9895935058594 96.49978637695312 403.5 101.9903793334961 395.79071044921875 104.48039245605469 C 388.7122802734375 101.93418884277344 383.32843017578125 96.22362518310547 381.5482482910156 89.15487670898438 C 383.4477844238281 81.87450408935547 388.78533935546875 76.08719635009766 396.15057373046875 73.38427734375 C 403.9692077636719 75.50869750976562 409.56585693359375 81.00410461425781 411.61279296875 88.54581451416016" stroke-width="0.0" fill="rgb(170, 179, 189)" opacity="0.9901364"/>
    <path d="M 531.7806396484375 307.6463623046875 C 529.733154296875 315.12298583984375 523.997314453125 320.3712158203125 516.1181030273438 322.0811462402344 C 508.5 319.9903869628906 503.0096130371094 314.5 500.14715576171875 306.244384765625 C 502.16094970703125 298.681640625 507.68280029296875 293.1639404296875 515.34814453125 291.1050109863281 C 523.7356567382812 293.5574951171875 529.022216796875 299.4203796386719 531.7806396484375 307.6463623046875" stroke-width="0.0" fill="rgb(133, 136, 153)" opacity="1.0"/>
    <path d="M 401.90643310546875 391.3775939941406 C 399.8330383300781 399.3250732421875 394.3419494628906 404.87261962890625 386.8238220214844 406.9036865234375 C 378.50018310546875 403.98974609375 373.0096130371094 398.5 370.29736328125 390.39141845703125 C 372.2410888671875 382.7835693359375 377.8164367675781 377.3343811035156 385.66497802734375 375.46722412109375 C 394.0490417480469 377.5310363769531 399.736328125 382.85687255859375 401.90643310546875 391.3775939941406" stroke-width="0.0" fill="rgb(174, 115, 33)" opacity="1.0"/>
    <path d="M 330.0923767089844 508.08282470703125 C 328.072509765625 515.5967407226562 322.5936584472656 521.0654296875 315.42327880859375 523.0322265625 C 309.3905334472656 521.081298828125 303.9239807128906 515.607177734375 301.94140625 508.1182556152344 C 302.1366882324219 500.6241760253906 307.6111145019531 495.0984802246094 315.55291748046875 493.04864501953125 C 324.3901672363281 495.1028747558594 329.9002990722656 500.6084289550781 330.0923767089844 508.08282470703125" stroke-width="0.0" fill="rgb(6, 8, 15)" opacity="0.9900056"/>
    <path d="M 327.5247802734375 305.5261535644531 C 324.9903869628906 313.5 319.5 318.9903869628906 311.2065734863281 321.8827209472656 C 303.710205078125 319.8500061035156 298.394287109375 314.20904541015625 296.9636535644531 305.494873046875 C 298.19500732421875 297.6749572753906 303.65667724609375 292.1396179199219 311.3673400878906 290.138671875 C 320.2187805175781 292.2568359375 325.69842529296875 297.79632568359375 327.5247802734375 305.5261535644531" stroke-width="0.0" fill="rgb(74, 78, 89)" opacity="0.99046284"/>
    <path d="M 433.9510498046875 362.3957824707031 C 431.7831726074219 371.23504638671875 426.2677917480469 376.838623046875 417.4378662109375 378.9537658691406 C 409.6376647949219 376.8877868652344 404.17413330078125 371.3389892578125 402.064208984375 362.1663818359375 C 404.0824279785156 354.5917663574219 409.5967102050781 349.0942077636719 417.30908203125 347.06488037109375 C 426.3410949707031 349.1540832519531 431.8831481933594 354.6430358886719 433.9510498046875 362.3957824707031" stroke-width="0.0" fill="rgb(34, 34, 37)" opacity="1.0"/>
    <path d="M 504.5107727050781 384.8833312988281 C 502.72064208984375 393.2649841308594 497.30474853515625 398.84027099609375 489.662841796875 400.8507080078125 C 481.1156005859375 398.5743103027344 476.006103515625 392.6774597167969 474.047119140625 384.967529296875 C 476.0154724121094 377.5166320800781 481.5775146484375 372.2088623046875 489.84197998046875 369.1245422363281 C 497.35577392578125 371.1158447265625 502.7814636230469 376.6787414550781 504.5107727050781 384.8833312988281" stroke-width="0.0" fill="rgb(18, 15, 15)" opacity="0.9900311"/>
    <path d="M 421.0 136.0 C 418.9903869628906 143.5 413.5 148.99038696289062 405.63519287109375 151.4825439453125 C 398.0638732910156 149.52073669433594 392.70672607421875 143.8625946044922 390.7840881347656 136.1184844970703 C 392.8241271972656 128.30703735351562 398.3124694824219 122.835693359375 405.9345703125 120.92884826660156 C 413.5 123.0096206665039 418.9903869628906 128.5 421.0 136.0" stroke-width="0.0" fill="rgb(179, 188, 198)" opacity="0.9908714"/>
    <path d="M 497.837646484375 288.7284851074219 C 495.79937744140625 296.19970703125 490.0682678222656 301.42230224609375 482.2454528808594 302.9634094238281 C 475.0141296386719 300.572021484375 469.7350158691406 294.8814697265625 466.27630615234375 287.16571044921875 C 468.1307067871094 279.6510925292969 473.6751708984375 274.2024841308594 481.4283752441406 272.4228820800781 C 489.5 275.0096130371094 494.9903869628906 280.5 497.837646484375 288.7284851074219" stroke-width="0.0" fill="rgb(30, 35, 46)" opacity="0.9900281"/>
    <path d="M 379.0518798828125 236.33851623535156 C 377.1380615234375 243.71026611328125 371.767333984375 249.29736328125 364.59814453125 251.6103057861328 C 357.5 249.99038696289062 352.0096130371094 244.5 349.87860107421875 236.81922912597656 C 351.4917907714844 228.8546142578125 356.7308654785156 223.14657592773438 364.5308837890625 221.0457305908203 C 373.3001403808594 223.14279174804688 377.76416015625 228.82901000976562 379.0518798828125 236.33851623535156" stroke-width="0.0" fill="rgb(3, 4, 10)" opacity="0.99002004"/>
    <path d="M 281.9624328613281 445.69976806640625 C 279.9150390625 454.4086608886719 274.4080505371094 459.91351318359375 265.9402770996094 461.95977783203125 C 257.6116638183594 459.9012145996094 252.09825134277344 454.3885803222656 250.03895568847656 446.4660949707031 C 252.10516357421875 437.617919921875 257.6177062988281 432.1047058105469 266.5953674316406 430.03692626953125 C 274.40777587890625 432.0829162597656 279.9136962890625 437.5937805175781 281.9624328613281 445.69976806640625" stroke-width="0.0" fill="rgb(0, 2, 8)" opacity="1.0"/>
    <path d="M 501.67510986328125 75.02645111083984 C 499.5143737792969 82.94738006591797 493.93585205078125 88.4862289428711 485.44952392578125 90.82245635986328 C 477.82232666015625 88.75635528564453 472.50396728515625 83.09049224853516 470.726318359375 75.03871154785156 C 472.57061767578125 66.99678039550781 477.9250793457031 61.350868225097656 485.64837646484375 59.32746887207031 C 493.94091796875 61.540687561035156 499.5168762207031 67.03900909423828 501.67510986328125 75.02645111083984" stroke-width="0.0" fill="rgb(159, 167, 179)" opacity="1.0"/>
    <path d="M 545.4027099609375 358.6861572265625 C 543.4609985351562 367.0605773925781 538.1410522460938 372.7127990722656 529.2919921875 374.8792419433594 C 521.6337280273438 372.88006591796875 516.14892578125 367.3554992675781 514.0917358398438 358.3015441894531 C 516.103759765625 350.6027526855469 521.5940551757812 345.0824279785156 529.4599609375 343.0372314453125 C 538.3494873046875 345.1072082519531 543.7167358398438 350.7115478515625 545.4027099609375 358.6861572265625" stroke-width="0.0" fill="rgb(2, 2, 5)" opacity="0.99034965"/>
    <path d="M 497.9263610839844 337.4093933105469 C 495.5920104980469 345.8644104003906 489.6438293457031 351.0513916015625 482.3266296386719 352.7073059082031 C 475.1658020019531 350.3665466308594 469.7099304199219 344.8110046386719 466.1178283691406 337.4177551269531 C 468.4691467285156 330.1937561035156 474.3883361816406 324.9634094238281 481.5486145019531 323.660400390625 C 489.8534851074219 325.3883361816406 495.78564453125 329.85150146484375 497.9263610839844 337.4093933105469" stroke-width="0.0" fill="rgb(25, 25, 29)" opacity="0.99004215"/>
    <path d="M 431.87310791015625 329.76251220703125 C 429.8772277832031 337.3755187988281 424.38433837890625 342.89892578125 415.9866943359375 344.9526672363281 C 407.61163330078125 342.8984375 402.0996398925781 337.3891906738281 400.0823669433594 329.8497314453125 C 403.0047607421875 321.4986572265625 408.49993896484375 316.0096130371094 416.0058898925781 313.9974365234375 C 423.58544921875 315.96893310546875 429.3241882324219 321.3165283203125 431.87310791015625 329.76251220703125" stroke-width="0.0" fill="rgb(62, 65, 76)" opacity="1.0"/>
    <path d="M 421.8540344238281 205.15843200683594 C 418.4813232421875 213.1812286376953 413.335205078125 218.9066162109375 406.1260681152344 220.82606506347656 C 398.2999572753906 218.80938720703125 392.2437438964844 214.0570068359375 390.0502624511719 205.33804321289062 C 392.108642578125 197.62379455566406 397.628662109375 192.1202850341797 405.6964111328125 190.07041931152344 C 414.35797119140625 192.13150024414062 419.8779602050781 197.63818359375 421.8540344238281 205.15843200683594" stroke-width="0.0" fill="rgb(35, 39, 54)" opacity="0.99012476"/>
    <path d="M 428.52752685546875 129.60276794433594 C 426.0735778808594 137.5266876220703 420.4998474121094 142.98358154296875 413.0032043457031 144.99111938476562 C 405.5171203613281 142.9732666015625 400.0318603515625 137.48141479492188 398.05975341796875 130.01364135742188 C 400.0653381347656 122.54991912841797 405.5481262207031 117.05919647216797 413.6466064453125 114.25614166259766 C 421.2225646972656 116.2260513305664 426.66204833984375 121.81828308105469 428.52752685546875 129.60276794433594" stroke-width="0.0" fill="rgb(166, 175, 187)" opacity="1.0"/>
    <path d="M 370.9439392089844 239.98443603515625 C 368.9655456542969 247.4864501953125 363.4922790527344 252.98558044433594 355.99896240234375 254.999267578125 C 348.5030212402344 252.98947143554688 343.0978698730469 247.4717254638672 340.1617736816406 239.18772888183594 C 342.1207275390625 231.6249237060547 347.61553955078125 226.09840393066406 355.1514587402344 224.07308959960938 C 363.5611572265625 226.83265686035156 368.9869079589844 232.4949493408203 370.9439392089844 239.98443603515625" stroke-width="0.0" fill="rgb(4, 4, 5)" opacity="0.9901213"/>
    <path d="M 352.522216796875 396.5347900390625 C 350.80255126953125 404.34710693359375 345.3848571777344 409.9114990234375 337.3209533691406 411.96453857421875 C 328.6080322265625 409.9072570800781 323.12738037109375 404.3787536621094 321.1859436035156 396.65386962890625 C 323.2350769042969 387.6849365234375 328.64068603515625 382.10699462890625 336.4014587402344 380.0447692871094 C 345.1432800292969 382.2096252441406 350.263427734375 388.0653381347656 352.522216796875 396.5347900390625" stroke-width="0.0" fill="rgb(0, 0, 0)" opacity="1.0"/>
    <path d="M 471.8202819824219 262.9727783203125 C 469.661376953125 271.1802673339844 464.2337951660156 276.7975158691406 456.5018615722656 278.87750244140625 C 447.8587341308594 276.7268981933594 442.5287780761719 271.05401611328125 440.56146240234375 262.9110107421875 C 442.6176452636719 255.21170043945312 448.4654541015625 250.40628051757812 456.4833984375 248.8675994873047 C 464.13458251953125 249.43568420410156 469.7139892578125 254.82305908203125 471.8202819824219 262.9727783203125" stroke-width="0.0" fill="rgb(209, 203, 107)" opacity="1.0"/>
    <path d="M 614.0 373.9999694824219 C 611.9893798828125 381.4967956542969 606.4686889648438 386.892822265625 599.7608642578125 388.09759521484375 C 592.304443359375 386.1356506347656 586.4631958007812 380.7725830078125 583.0612182617188 373.3393249511719 C 585.2595825195312 365.94952392578125 591.2001342773438 360.85418701171875 598.976806640625 358.9895324707031 C 606.5 361.0096130371094 611.9903564453125 366.5 614.0 373.9999694824219" stroke-width="0.0" fill="rgb(70, 73, 84)" opacity="0.99009615"/>
    <path d="M 541.5697021484375 254.57118225097656 C 538.9895629882812 262.4993591308594 533.4994506835938 267.9899597167969 525.9410400390625 270.0679016113281 C 518.3640747070312 268.1352233886719 512.8792724609375 262.631591796875 510.9838562011719 255.0627899169922 C 513.0122680664062 247.4550323486328 518.4171142578125 241.88426208496094 525.963623046875 239.62841796875 C 533.8103637695312 241.80262756347656 539.5573120117188 247.0687713623047 541.5697021484375 254.57118225097656" stroke-width="0.0" fill="rgb(190, 198, 215)" opacity="0.9902891"/>
    <path d="M 511.51373291015625 196.3682098388672 C 509.4856872558594 203.85409545898438 503.738037109375 209.14051818847656 496.0329284667969 211.0190887451172 C 488.5 208.99038696289062 483.0096130371094 203.5 481.065673828125 196.02499389648438 C 483.0080261230469 188.44544982910156 488.4005432128906 182.85585021972656 495.9050598144531 180.83999633789062 C 503.5 183.00961303710938 508.9903869628906 188.5 511.51373291015625 196.3682098388672" stroke-width="0.0" fill="rgb(82, 97, 125)" opacity="1.0"/>
    <path d="M 427.5845642089844 281.5724792480469 C 425.78668212890625 289.29010009765625 420.3047180175781 294.8291320800781 411.4390563964844 296.92413330078125 C 403.62957763671875 294.8807678222656 398.10968017578125 289.3744201660156 396.05078125 281.7741394042969 C 398.2922058105469 272.9647216796875 404.1654052734375 267.802978515625 412.253173828125 265.5671691894531 C 419.739990234375 267.63348388671875 425.0703125 273.3580627441406 427.5845642089844 281.5724792480469" stroke-width="0.0" fill="rgb(5, 5, 6)" opacity="0.9900266"/>
    <path d="M 332.1270446777344 270.3182678222656 C 330.2024841308594 277.7508850097656 324.7613220214844 283.23150634765625 317.2466125488281 285.22259521484375 C 309.65838623046875 284.8337707519531 304.1145935058594 279.3611145019531 302.091796875 271.83538818359375 C 305.0096130371094 263.5 310.5 258.0096130371094 318.10260009765625 255.9305877685547 C 325.9215087890625 257.6788330078125 331.5216064453125 263.0181884765625 332.1270446777344 270.3182678222656" stroke-width="0.0" fill="rgb(7, 9, 11)" opacity="0.9900224"/>
    <path d="M 415.181640625 313.52667236328125 C 412.552001953125 321.0573425292969 407.0221252441406 326.44537353515625 399.3966979980469 329.72119140625 C 392.314697265625 327.380615234375 386.9899597167969 321.5522155761719 384.9915466308594 313.984619140625 C 386.893798828125 306.2688903808594 392.0464782714844 300.3429870605469 400.56353759765625 298.072998046875 C 408.2784423828125 300.1708679199219 413.6725769042969 305.77569580078125 415.181640625 313.52667236328125" stroke-width="0.0" fill="rgb(104, 108, 130)" opacity="1.0"/>
    <path d="M 230.0 431.0000305175781 C 227.99057006835938 438.5006103515625 222.50650024414062 444.011962890625 214.16290283203125 446.9093017578125 C 206.61761474609375 444.8956604003906 201.1056671142578 439.3816223144531 199.04745483398438 431.706787109375 C 201.19277954101562 422.7977294921875 206.9527130126953 417.68975830078125 215.1768035888672 416.74090576171875 C 222.4839630126953 418.06182861328125 227.9899444580078 423.50146484375 230.0 431.0000305175781" stroke-width="0.0" fill="rgb(130, 77, 63)" opacity="1.0"/>
    <path d="M 516.2628784179688 260.09686279296875 C 514.323974609375 267.8253173828125 508.8374938964844 273.3612060546875 501.18896484375 275.2253723144531 C 493.5 272.9903869628906 488.0096130371094 267.5 486.1708679199219 260.11651611328125 C 488.22869873046875 252.68504333496094 493.685546875 247.23077392578125 501.1800842285156 245.01055908203125 C 508.68328857421875 246.82492065429688 514.1796875 252.31600952148438 516.2628784179688 260.09686279296875" stroke-width="0.0" fill="rgb(208, 217, 232)" opacity="0.9909869"/>
    <path d="M 428.5597839355469 223.1031036376953 C 426.1494445800781 230.43348693847656 420.30609130859375 235.7051239013672 412.81341552734375 237.70635986328125 C 405.5 235.99038696289062 400.0096130371094 230.5 397.7823486328125 222.75924682617188 C 399.4835510253906 214.92202758789062 404.86151123046875 209.29884338378906 412.8508605957031 207.1824951171875 C 420.8856506347656 209.4358673095703 426.2125244140625 215.25587463378906 428.5597839355469 223.1031036376953" stroke-width="0.0" fill="rgb(205, 217, 233)" opacity="1.0"/>
    <path d="M 408.66375732421875 314.93426513671875 C 406.6061096191406 323.1392822265625 401.2187805175781 328.8037414550781 392.8755798339844 330.94866943359375 C 384.8526611328125 328.7914123535156 379.72900390625 322.9432373046875 377.99285888671875 315.08831787109375 C 380.110107421875 307.59033203125 385.37164306640625 301.5689392089844 393.2802429199219 299.1112365722656 C 401.01116943359375 301.3736877441406 406.4879150390625 307.0459899902344 408.66375732421875 314.93426513671875" stroke-width="0.0" fill="rgb(10, 12, 18)" opacity="0.9900653"/>
    <path d="M 315.8633117675781 365.7303466796875 C 313.852783203125 373.3461608886719 308.3567199707031 378.878173828125 300.1094665527344 380.94293212890625 C 291.63165283203125 378.88348388671875 286.1468811035156 373.357177734375 284.0974426269531 364.3083801269531 C 286.1134033203125 356.6377868652344 291.6661682128906 351.1953125 300.6089172363281 349.1401062011719 C 308.1659851074219 351.21826171875 313.46856689453125 356.96331787109375 315.8633117675781 365.7303466796875" stroke-width="0.0" fill="rgb(95, 98, 116)" opacity="0.9900562"/>
    <path d="M 439.95904541015625 176.4978790283203 C 437.8992919921875 185.3883514404297 432.38702392578125 190.8964385986328 424.5393371582031 192.9523468017578 C 415.6247253417969 190.8856964111328 410.11138916015625 185.3765869140625 408.0623474121094 177.58749389648438 C 410.16241455078125 168.6875762939453 415.67181396484375 163.13096618652344 423.18994140625 161.08462524414062 C 432.2845764160156 163.29171752929688 437.8947448730469 168.65036010742188 439.95904541015625 176.4978790283203" stroke-width="0.0" fill="rgb(13, 17, 26)" opacity="0.99035525"/>
    <path d="M 136.86697387695312 499.1949462890625 C 133.99038696289062 507.5 128.5 512.9903564453125 121.83207702636719 514.1029663085938 C 114.38898468017578 512.0841064453125 108.91949462890625 506.6094970703125 106.9015884399414 499.1603698730469 C 107.89430236816406 492.26202392578125 113.01555633544922 486.3076477050781 121.7326889038086 484.0535888671875 C 129.3793487548828 486.10797119140625 134.8881072998047 491.6220397949219 136.86697387695312 499.1949462890625" stroke-width="0.0" fill="rgb(10, 12, 20)" opacity="0.9900121"/>
    <path d="M 335.9225769042969 248.20269775390625 C 333.7920837402344 257.2795104980469 328.26202392578125 262.7360534667969 320.4657897949219 264.4758605957031 C 312.0984191894531 262.2338562011719 306.2259826660156 257.11712646484375 304.0750427246094 249.77294921875 C 307.7796325683594 242.2650604248047 313.218505859375 236.50775146484375 320.8081359863281 233.07635498046875 C 328.38983154296875 235.10208129882812 333.9007873535156 240.60902404785156 335.9225769042969 248.20269775390625" stroke-width="0.0" fill="rgb(19, 22, 31)" opacity="1.0"/>
    <path d="M 375.9772644042969 262.0289611816406 C 373.9903869628906 269.5 368.5 274.9903869628906 360.2434387207031 277.8347473144531 C 352.69342041015625 275.849609375 347.31927490234375 270.25177001953125 345.7198181152344 262.358642578125 C 348.0096130371094 254.5 353.5 249.00961303710938 360.912109375 247.11082458496094 C 368.34808349609375 249.19708251953125 373.8899841308594 254.62539672851562 375.9772644042969 262.0289611816406" stroke-width="0.0" fill="rgb(3, 2, 3)" opacity="0.9905411"/>
    <path d="M 431.9960021972656 51.00942611694336 C 429.9903869628906 58.5 424.5 63.990379333496094 417.3708190917969 65.65928649902344 C 410.2306823730469 63.3118896484375 404.8703918457031 57.70441818237305 402.95794677734375 51.415042877197266 C 404.9013977050781 44.36839294433594 410.3722839355469 38.91010284423828 417.77166748046875 36.95610046386719 C 424.1002197265625 38.64507293701172 429.9147644042969 43.66694641113281 431.9960021972656 51.00942611694336" stroke-width="0.0" fill="rgb(6, 12, 21)" opacity="0.9900204"/>
    <path d="M 502.95147705078125 350.8336486816406 C 500.88177490234375 359.3669738769531 495.3681640625 364.8846740722656 487.3260192871094 366.9540100097656 C 478.64593505859375 364.876953125 473.14825439453125 359.3434753417969 471.10638427734375 351.6268005371094 C 473.3314514160156 342.9857177734375 479.2031555175781 338.0790100097656 487.4952697753906 336.3042297363281 C 495.3009948730469 337.25421142578125 500.8810729980469 342.65386962890625 502.95147705078125 350.8336486816406" stroke-width="0.0" fill="rgb(82, 85, 99)" opacity="1.0"/>
    <path d="M 601.060546875 345.89990234375 C 598.9903564453125 353.5 593.5 358.9903869628906 586.0 361.0 C 578.4990234375 358.99066162109375 572.9661254882812 353.5130615234375 570.0840454101562 345.1671142578125 C 572.1039428710938 337.60919189453125 577.6033325195312 332.0904235839844 585.2784423828125 330.04156494140625 C 594.193115234375 332.18743896484375 599.3645629882812 337.9757995605469 601.060546875 345.89990234375" stroke-width="0.0" fill="rgb(15, 18, 29)" opacity="1.0"/>
    <path d="M 531.0796508789062 183.55531311035156 C 529.570556640625 191.0063934326172 525.2207641601562 196.81407165527344 517.7528076171875 198.8897247314453 C 509.44232177734375 196.141845703125 504.005126953125 190.5128631591797 502.0 183.0006866455078 C 504.0144348144531 175.51390075683594 509.56939697265625 170.1927947998047 516.2733154296875 168.89093017578125 C 523.6906127929688 170.852783203125 529.1499633789062 176.3082275390625 531.0796508789062 183.55531311035156" stroke-width="0.0" fill="rgb(76, 92, 113)" opacity="0.9900252"/>
    <path d="M 369.8634033203125 390.1930847167969 C 367.0791320800781 398.6927490234375 361.9252014160156 404.6426696777344 353.37701416015625 406.9393005371094 C 345.88525390625 404.7698669433594 340.75970458984375 398.9053955078125 338.86907958984375 390.9578552246094 C 340.8183898925781 383.3429870605469 346.3688659667969 377.9033203125 354.86505126953125 375.0774230957031 C 362.4012451171875 377.08807373046875 367.8953857421875 382.6053771972656 369.8634033203125 390.1930847167969" stroke-width="0.0" fill="rgb(0, 0, 0)" opacity="1.0"/>
    <path d="M 410.9382629394531 420.842529296875 C 408.90728759765625 428.3924255371094 403.38348388671875 433.8861999511719 395.651611328125 435.9211120605469 C 386.64715576171875 433.8511962890625 381.1011047363281 428.373046875 379.0538024902344 420.7777099609375 C 381.2379150390625 411.7665100097656 386.73565673828125 406.1758117675781 394.27349853515625 404.2099914550781 C 402.9788818359375 406.4570617675781 408.4444580078125 412.05859375 410.9382629394531 420.842529296875" stroke-width="0.0" fill="rgb(6, 3, 3)" opacity="0.990018"/>
    <path d="M 481.6070251464844 156.55328369140625 C 479.7566223144531 164.26072692871094 474.2860107421875 169.8240966796875 465.37359619140625 171.93655395507812 C 457.6101989746094 169.89505004882812 452.0964660644531 164.3931884765625 450.0921630859375 156.88893127441406 C 453.87347412109375 149.3482666015625 459.3408203125 143.85162353515625 466.6578063964844 141.69223022460938 C 473.5 143.00961303710938 478.9903869628906 148.5 481.6070251464844 156.55328369140625" stroke-width="0.0" fill="rgb(10, 7, 11)" opacity="0.99005044"/>
    <path d="M 548.9503784179688 263.4310607910156 C 546.8856811523438 271.3436279296875 541.286865234375 276.72088623046875 533.3164672851562 278.4505920410156 C 525.0455322265625 276.42596435546875 519.5089111328125 270.9748229980469 518.6762084960938 263.5109558105469 C 520.6167602539062 256.0638732910156 526.0719604492188 250.63827514648438 533.6882934570312 248.58529663085938 C 541.3352661132812 249.1896514892578 546.8814697265625 254.6405029296875 548.9503784179688 263.4310607910156" stroke-width="0.0" fill="rgb(107, 111, 120)" opacity="1.0"/>
    <path d="M 496.9222106933594 440.725341796875 C 494.84442138671875 449.3331298828125 489.34161376953125 454.8649597167969 481.1320495605469 456.93994140625 C 472.6631164550781 454.8597412109375 467.1500549316406 449.332763671875 465.0637512207031 440.473388671875 C 467.1187744140625 432.6324462890625 472.6317138671875 427.11688232421875 480.4581298828125 425.0612487792969 C 489.3330383300781 427.1502990722656 494.8575744628906 432.6634216308594 496.9222106933594 440.725341796875" stroke-width="0.0" fill="rgb(52, 58, 78)" opacity="1.0"/>
    <path d="M 329.8147888183594 391.3231506347656 C 327.7574157714844 400.3102722167969 322.3583679199219 405.8947448730469 314.3168640136719 407.9620361328125 C 305.59344482421875 405.9120178222656 300.0842590332031 400.40814208984375 298.04058837890625 392.2058410644531 C 300.0877685546875 383.5904235839844 305.58544921875 378.0763244628906 313.3388366699219 376.0368347167969 C 322.4006652832031 378.0886535644531 327.881103515625 383.6103820800781 329.8147888183594 391.3231506347656" stroke-width="0.0" fill="rgb(1, 1, 2)" opacity="1.0"/>
    <path d="M 511.8666076660156 207.37745666503906 C 508.56317138671875 214.95278930664062 502.89459228515625 220.33511352539062 495.82012939453125 222.27647399902344 C 488.8406677246094 220.5065460205078 483.17010498046875 215.26885986328125 481.0404357910156 207.9748077392578 C 483.08062744140625 200.60585021972656 488.6626281738281 195.26173400878906 496.1131286621094 193.52027893066406 C 503.8463134765625 194.8715362548828 509.716552734375 199.94491577148438 511.8666076660156 207.37745666503906" stroke-width="0.0" fill="rgb(131, 139, 154)" opacity="0.9900603"/>
    <path d="M 218.8781280517578 406.2210388183594 C 215.40208435058594 413.9339599609375 209.96229553222656 419.4939270019531 202.1906280517578 422.8955993652344 C 194.6768035888672 420.8531494140625 189.15345764160156 415.3202819824219 187.07101440429688 407.3086853027344 C 189.18798828125 398.75323486328125 194.82485961914062 393.39312744140625 203.69705200195312 391.1564636230469 C 211.29542541503906 393.175537109375 216.83155822753906 398.7016296386719 218.8781280517578 406.2210388183594" stroke-width="0.0" fill="rgb(80, 85, 108)" opacity="1.0"/>
    <path d="M 340.7637634277344 323.6878967285156 C 338.8152770996094 331.26763916015625 333.2076721191406 336.6262512207031 325.25494384765625 338.2739562988281 C 316.99053955078125 336.3424072265625 311.19097900390625 331.1855163574219 309.0807800292969 323.74407958984375 C 311.49359130859375 315.1483459472656 317.2664489746094 309.82427978515625 324.939697265625 307.94268798828125 C 332.5 310.0096130371094 337.9903869628906 315.5 340.7637634277344 323.6878967285156" stroke-width="0.0" fill="rgb(5, 3, 3)" opacity="1.0"/>
    <path d="M 437.3603210449219 310.3943786621094 C 435.18115234375 317.6958923339844 429.6895751953125 323.1618347167969 422.39483642578125 325.170166015625 C 415.4969787597656 323.62982177734375 409.48785400390625 318.82708740234375 407.1867370605469 310.4007568359375 C 409.1596984863281 302.6643371582031 414.6626892089844 297.1542663574219 422.2378234863281 295.2160339355469 C 430.4502868652344 298.145751953125 435.987060546875 303.50970458984375 437.3603210449219 310.3943786621094" stroke-width="0.0" fill="rgb(22, 25, 30)" opacity="0.99002975"/>
    <path d="M 500.92987060546875 306.462158203125 C 498.8772888183594 314.3630065917969 493.34857177734375 319.8345947265625 485.61627197265625 321.5259094238281 C 477.5 318.9903869628906 472.01031494140625 313.49981689453125 469.1428527832031 305.2765808105469 C 471.2489013671875 297.8638916015625 476.9566345214844 292.45977783203125 484.9248046875 290.33453369140625 C 493.206787109375 292.34857177734375 498.83001708984375 297.72900390625 500.92987060546875 306.462158203125" stroke-width="0.0" fill="rgb(49, 54, 66)" opacity="1.0"/>
    <path d="M 448.92413330078125 153.84378051757812 C 446.9092102050781 161.40472412109375 441.4083251953125 166.9175262451172 433.87353515625 168.92642211914062 C 425.1758728027344 166.2481689453125 419.6003112792969 160.8681182861328 417.7642822265625 153.20970153808594 C 420.0096130371094 145.5 425.5 140.00961303710938 433.0007629394531 137.99981689453125 C 440.5359802246094 139.997314453125 446.29400634765625 145.3655242919922 448.92413330078125 153.84378051757812" stroke-width="0.0" fill="rgb(49, 35, 28)" opacity="1.0"/>
    <path d="M 479.8760681152344 408.6352844238281 C 477.7345275878906 417.2164611816406 472.2362060546875 422.7835998535156 464.5223388671875 424.8798828125 C 455.7713928222656 422.750244140625 450.2192687988281 417.2406311035156 448.09832763671875 409.1163635253906 C 450.2222595214844 400.7619323730469 455.7680358886719 395.23687744140625 463.9745178222656 393.1335144042969 C 472.2486877441406 395.2358093261719 477.7938537597656 400.7396240234375 479.8760681152344 408.6352844238281" stroke-width="0.0" fill="rgb(252, 252, 18)" opacity="1.0"/>
    <path d="M 362.0000915527344 253.9996337890625 C 359.98565673828125 261.4854736328125 354.4115905761719 266.7568054199219 346.6885986328125 268.16180419921875 C 338.8727111816406 267.4269104003906 333.162109375 262.2552795410156 331.1088562011719 254.72280883789062 C 333.27789306640625 245.77113342285156 338.7616882324219 240.24923706054688 346.4468078613281 238.3943328857422 C 354.4998474121094 241.01023864746094 359.9905700683594 246.4999237060547 362.0000915527344 253.9996337890625" stroke-width="0.0" fill="rgb(4, 3, 3)" opacity="0.9900487"/>
    <path d="M 432.0484924316406 147.98228454589844 C 430.1813049316406 155.8329315185547 425.0444641113281 161.7181854248047 417.82568359375 163.26962280273438 C 410.2475280761719 160.20297241210938 404.78924560546875 154.75515747070312 402.91131591796875 148.358154296875 C 404.8173522949219 141.2674560546875 410.2589416503906 135.7949981689453 417.7565002441406 132.38616943359375 C 424.9660339355469 134.38059997558594 430.2015686035156 140.18435668945312 432.0484924316406 147.98228454589844" stroke-width="0.0" fill="rgb(36, 42, 54)" opacity="0.990016"/>
    <path d="M 473.3221130371094 22.383085250854492 C 471.5599670410156 29.137828826904297 466.25006103515625 35.06037521362305 458.7144470214844 37.76913070678711 C 450.9490051269531 35.619041442871094 445.4210205078125 30.034440994262695 443.28924560546875 22.258441925048828 C 445.50701904296875 14.020549774169922 450.9820251464844 8.402775764465332 458.50543212890625 6.318276882171631 C 466.06365966796875 9.37153434753418 471.390380859375 15.010133743286133 473.3221130371094 22.383085250854492" stroke-width="0.0" fill="rgb(169, 176, 185)" opacity="0.9901713"/>
    <path d="M 548.9441528320312 386.544189453125 C 546.8936157226562 394.3769226074219 541.3700561523438 399.8778381347656 533.642822265625 401.9279479980469 C 524.9011840820312 399.7335510253906 519.6968994140625 393.9409484863281 517.66259765625 385.7332763671875 C 519.42529296875 377.9013366699219 524.8974609375 372.4173889160156 533.5604858398438 371.51458740234375 C 541.3047485351562 372.2004699707031 546.8529663085938 377.675537109375 548.9441528320312 386.544189453125" stroke-width="0.0" fill="rgb(206, 130, 46)" opacity="1.0"/>
    <path d="M 395.9124450683594 448.3988037109375 C 393.6425476074219 456.97552490234375 387.802734375 462.1773986816406 379.5399475097656 464.44781494140625 C 371.69757080078125 462.75115966796875 366.1119079589844 457.3504943847656 364.0410461425781 448.62969970703125 C 366.0965270996094 440.60772705078125 371.6097412109375 435.1010437011719 379.25360107421875 433.0618896484375 C 388.2942199707031 435.1865234375 393.8359375 440.6961975097656 395.9124450683594 448.3988037109375" stroke-width="0.0" fill="rgb(64, 71, 88)" opacity="1.0"/>
    <path d="M 211.92832946777344 381.4054870605469 C 209.802978515625 390.231689453125 204.15257263183594 395.5760498046875 195.24195861816406 397.8711853027344 C 187.7382354736328 395.8426818847656 183.63414001464844 390.0094909667969 181.9583740234375 382.7463684082031 C 183.91566467285156 375.3811340332031 189.37722778320312 369.9067687988281 196.7446746826172 367.9525146484375 C 204.27374267578125 368.58673095703125 209.87738037109375 373.6544494628906 211.92832946777344 381.4054870605469" stroke-width="0.0" fill="rgb(19, 23, 35)" opacity="0.9900093"/>
    <path d="M 322.9557800292969 445.01239013671875 C 320.8996887207031 453.3902282714844 315.38946533203125 458.89776611328125 306.6404724121094 460.95526123046875 C 298.6170959472656 458.898193359375 293.1080627441406 453.3800354003906 291.042724609375 444.6403503417969 C 293.0968322753906 436.6051330566406 298.6033020019531 431.09259033203125 306.6408386230469 429.0386962890625 C 315.390869140625 431.09918212890625 320.9029846191406 436.6081237792969 322.9557800292969 445.01239013671875" stroke-width="0.0" fill="rgb(10, 15, 24)" opacity="1.0"/>
    <path d="M 480.26812744140625 77.17349243164062 C 478.4661560058594 84.97834777832031 472.9900207519531 90.5044174194336 464.51123046875 92.72669982910156 C 456.8028869628906 90.73311614990234 451.30999755859375 85.18119812011719 449.2567443847656 77.17565155029297 C 451.413818359375 68.9708480834961 456.96563720703125 63.39828109741211 464.7124938964844 61.21833038330078 C 472.95294189453125 63.449317932128906 478.2755126953125 69.13674926757812 480.26812744140625 77.17349243164062" stroke-width="0.0" fill="rgb(152, 166, 192)" opacity="1.0"/>
    <path d="M 447.896484375 419.6557922363281 C 445.837646484375 427.3078918457031 440.29901123046875 432.8163757324219 431.5301513671875 434.89837646484375 C 423.7211608886719 432.8225402832031 418.2105712890625 427.2642517089844 416.1218566894531 418.80157470703125 C 418.2704162597656 410.92132568359375 424.10125732421875 405.7448425292969 432.2254333496094 403.71466064453125 C 440.0612487792969 405.47802734375 445.67767333984375 410.88641357421875 447.896484375 419.6557922363281" stroke-width="0.0" fill="rgb(215, 200, 60)" opacity="1.0"/>
    <path d="M 487.1265563964844 148.66574096679688 C 485.8261413574219 156.99082946777344 481.1326599121094 162.6973114013672 473.51251220703125 164.66119384765625 C 465.4521179199219 162.0234832763672 459.6060485839844 156.68878173828125 457.1980895996094 149.45721435546875 C 460.6625671386719 142.21624755859375 466.2723693847656 136.8405303955078 473.8078918457031 134.8684539794922 C 481.0576171875 135.3383026123047 485.91864013671875 141.10877990722656 487.1265563964844 148.66574096679688" stroke-width="0.0" fill="rgb(64, 51, 53)" opacity="0.9900353"/>
    <path d="M 386.26904296875 402.6431884765625 C 385.64263916015625 410.2077331542969 380.2866516113281 415.8525695800781 371.3921203613281 417.9555358886719 C 363.599365234375 415.9076232910156 358.09765625 410.3986511230469 356.126220703125 402.8226013183594 C 358.95330810546875 394.32696533203125 364.1114196777344 388.400146484375 371.2830810546875 387.2769470214844 C 378.84906005859375 389.6978454589844 384.2816467285156 395.158935546875 386.26904296875 402.6431884765625" stroke-width="0.0" fill="rgb(27, 13, 3)" opacity="0.99003196"/>
    <path d="M 251.95172119140625 470.5094299316406 C 249.9081573486328 478.40020751953125 244.40042114257812 483.9087219238281 236.84469604492188 485.9313659667969 C 228.35394287109375 483.1636047363281 222.45452880859375 477.8160095214844 220.0531463623047 469.159912109375 C 222.084228515625 461.59381103515625 227.60202026367188 456.10577392578125 236.49208068847656 454.0716247558594 C 244.3791961669922 456.1108093261719 249.89126586914062 461.6199645996094 251.95172119140625 470.5094299316406" stroke-width="0.0" fill="rgb(5, 7, 11)" opacity="1.0"/>
    <path d="M 524.5650634765625 184.60781860351562 C 522.1950073242188 192.83551025390625 517.0126342773438 198.67381286621094 509.629150390625 200.80538940429688 C 501.3988037109375 198.13014221191406 495.95880126953125 192.57443237304688 493.32391357421875 184.4061279296875 C 495.2304382324219 176.7383575439453 500.7325744628906 171.21482849121094 508.4383239746094 169.26089477539062 C 516.9420166015625 171.5436553955078 522.5147705078125 177.03839111328125 524.5650634765625 184.60781860351562" stroke-width="0.0" fill="rgb(93, 106, 129)" opacity="1.0"/>
    <path d="M 117.90962982177734 487.1492919921875 C 114.69698333740234 495.08892822265625 108.90129089355469 500.22808837890625 102.72895812988281 502.03753662109375 C 95.38479614257812 500.07904052734375 89.85144805908203 494.6374816894531 86.28604888916016 488.58795166015625 C 89.88812255859375 481.37994384765625 95.39347076416016 475.92596435546875 102.7771224975586 473.961181640625 C 110.30709838867188 474.5003356933594 115.89976501464844 479.6285400390625 117.90962982177734 487.1492919921875" stroke-width="0.0" fill="rgb(4, 6, 13)" opacity="0.9900091"/>
    <path d="M 549.8795776367188 283.1756591796875 C 546.9872436523438 291.49908447265625 541.4999389648438 296.9903564453125 533.98779296875 299.0057067871094 C 526.3281860351562 297.07403564453125 520.4329833984375 291.8620300292969 518.0763549804688 283.2619323730469 C 520.1552124023438 275.71307373046875 525.7720336914062 270.30706787109375 534.610107421875 268.16583251953125 C 542.3718872070312 270.1409606933594 547.8984985351562 275.61407470703125 549.8795776367188 283.1756591796875" stroke-width="0.0" fill="rgb(22, 23, 25)" opacity="1.0"/>
    <path d="M 398.2735595703125 152.8880615234375 C 396.0017395019531 160.50375366210938 390.50067138671875 165.99061584472656 383.0475769042969 167.9651641845703 C 375.7158508300781 165.82394409179688 370.3450012207031 160.231689453125 367.8863525390625 153.0917205810547 C 370.3251953125 145.79872131347656 375.8257751464844 140.40660095214844 383.28460693359375 137.86924743652344 C 390.5665283203125 139.94468688964844 396.1898193359375 145.38807678222656 398.2735595703125 152.8880615234375" stroke-width="0.0" fill="rgb(184, 193, 203)" opacity="0.9900852"/>
    <path d="M 381.6004638671875 265.2841796875 C 379.5889587402344 272.9198303222656 373.7550048828125 278.1357421875 365.9881286621094 280.06011962890625 C 358.4250183105469 278.0812072753906 352.9615783691406 272.5621337890625 351.0391540527344 265.0201110839844 C 353.021240234375 257.5054016113281 358.5024108886719 252.01087951660156 366.5578918457031 249.332763671875 C 374.1592712402344 251.28826904296875 379.6208801269531 256.8741455078125 381.6004638671875 265.2841796875" stroke-width="0.0" fill="rgb(2, 2, 3)" opacity="0.9901034"/>
    <path d="M 548.002685546875 295.007080078125 C 546.0550537109375 302.6521911621094 540.8865356445312 308.6169738769531 533.5176391601562 310.9027404785156 C 525.1470947265625 308.5235290527344 519.7523803710938 302.73956298828125 517.1431274414062 294.3623046875 C 519.29150390625 286.9486999511719 525.1423950195312 281.8359680175781 532.9949951171875 280.35504150390625 C 540.485107421875 282.05023193359375 545.9889526367188 287.5037536621094 548.002685546875 295.007080078125" stroke-width="0.0" fill="rgb(50, 52, 64)" opacity="0.99082845"/>
    <path d="M 405.8838195800781 367.2475280761719 C 403.8511657714844 375.3303527832031 398.30889892578125 380.7874755859375 390.4549560546875 382.01092529296875 C 381.7019958496094 380.71588134765625 376.1121826171875 375.3514404296875 374.0425720214844 366.4532470703125 C 376.0875244140625 358.59661865234375 381.5986633300781 353.09228515625 389.59112548828125 351.04571533203125 C 398.3722229003906 353.11114501953125 403.859375 358.6387939453125 405.8838195800781 367.2475280761719" stroke-width="0.0" fill="rgb(49, 60, 84)" opacity="1.0"/>
    <path d="M 359.95184326171875 367.5567932128906 C 357.84979248046875 376.2811279296875 352.1878967285156 381.5790100097656 343.1795654296875 383.9023742675781 C 335.65277099609375 381.8849792480469 330.2679748535156 376.2958679199219 328.6284484863281 368.42755126953125 C 331.0096130371094 360.5 336.5 355.0096130371094 344.3604736328125 352.6943054199219 C 352.2528991699219 354.3219299316406 357.8681335449219 359.6818542480469 359.95184326171875 367.5567932128906" stroke-width="0.0" fill="rgb(0, 0, 0)" opacity="1.0"/>
    <path d="M 454.8056335449219 293.6317443847656 C 452.3894958496094 301.70867919921875 446.5791015625 307.02337646484375 439.0106506347656 308.9977111816406 C 431.5755920410156 306.95050048828125 426.2689208984375 301.3541259765625 423.6868591308594 293.55078125 C 425.5545959472656 286.1859436035156 431.29510498046875 280.88018798828125 439.46502685546875 278.4102478027344 C 447.1014709472656 280.3553771972656 452.6669921875 285.89129638671875 454.8056335449219 293.6317443847656" stroke-width="0.0" fill="rgb(168, 176, 193)" opacity="1.0"/>
    <path d="M 595.0120239257812 357.0437927246094 C 593.234619140625 364.9046325683594 588.1116943359375 370.76593017578125 579.2171630859375 372.95294189453125 C 571.5900268554688 370.917236328125 566.0895385742188 365.406982421875 564.0369262695312 357.0307922363281 C 566.0984497070312 348.6343078613281 571.6871337890625 343.25628662109375 579.576416015625 341.9458923339844 C 587.491455078125 344.0347900390625 592.9898071289062 349.5016174316406 595.0120239257812 357.0437927246094" stroke-width="0.0" fill="rgb(58, 56, 62)" opacity="1.0"/>
    <path d="M 588.8931884765625 231.80496215820312 C 586.9057006835938 239.3952178955078 581.3888549804688 244.8899383544922 573.8074340820312 246.87034606933594 C 565.3701782226562 244.21603393554688 559.9450073242188 238.5792999267578 558.093505859375 231.1848602294922 C 560.5153198242188 224.13571166992188 566.2591552734375 218.8641815185547 573.17236328125 216.9619598388672 C 579.88623046875 218.8272247314453 586.572998046875 223.39979553222656 588.8931884765625 231.80496215820312" stroke-width="0.0" fill="rgb(2, 3, 3)" opacity="0.99001276"/>
    <path d="M 492.9145202636719 381.0990905761719 C 491.2151794433594 388.74957275390625 485.75244140625 394.21392822265625 477.3374938964844 395.3218078613281 C 469.6337585449219 394.8516540527344 464.103515625 389.38189697265625 462.0609436035156 381.69415283203125 C 464.2544860839844 372.9435729980469 470.1423645019531 367.5901794433594 478.6220397949219 365.0807800292969 C 486.01605224609375 367.28155517578125 491.0778503417969 373.248779296875 492.9145202636719 381.0990905761719" stroke-width="0.0" fill="rgb(38, 37, 48)" opacity="0.9900472"/>
    <path d="M 306.95831298828125 492.2242736816406 C 304.8922424316406 500.3513488769531 299.2635803222656 505.3451232910156 291.30364990234375 506.0521240234375 C 282.78033447265625 504.8537292480469 277.12628173828125 500.3277893066406 275.05035400390625 491.5552062988281 C 277.10894775390625 483.62066650390625 282.61871337890625 478.10467529296875 290.466552734375 476.05230712890625 C 299.3758544921875 478.11334228515625 304.894287109375 483.6210021972656 306.95831298828125 492.2242736816406" stroke-width="0.0" fill="rgb(25, 30, 39)" opacity="0.9901661"/>
    <path d="M 306.9606628417969 418.4002990722656 C 304.9090270996094 427.40484619140625 299.40667724609375 432.91351318359375 291.2781677246094 434.9593200683594 C 282.59625244140625 432.90997314453125 277.0932922363281 427.4023742675781 275.04376220703125 418.5336608886719 C 277.0888366699219 410.5939025878906 282.591796875 405.0840759277344 290.66131591796875 403.0386047363281 C 299.3900146484375 405.09844970703125 304.9081726074219 410.60687255859375 306.9606628417969 418.4002990722656" stroke-width="0.0" fill="rgb(0, 0, 6)" opacity="1.0"/>
    <path d="M 563.0040893554688 231.00982666015625 C 561.0703735351562 238.67672729492188 555.901611328125 244.62110900878906 547.1910400390625 246.94662475585938 C 539.6253051757812 244.9010772705078 534.1798706054688 239.34458923339844 532.120361328125 230.41757202148438 C 534.1483764648438 222.65371704101562 539.6434326171875 217.1233673095703 547.1881103515625 215.12429809570312 C 555.49072265625 218.039794921875 560.9900512695312 223.50100708007812 563.0040893554688 231.00982666015625" stroke-width="0.0" fill="rgb(63, 71, 87)" opacity="1.0"/>
    <path d="M 505.9107971191406 278.8412170410156 C 503.8845520019531 286.34832763671875 498.30657958984375 291.7705078125 490.53704833984375 293.55145263671875 C 482.3517150878906 291.10919189453125 476.8153991699219 285.6706237792969 474.44390869140625 277.703369140625 C 476.6827087402344 270.3450622558594 482.45281982421875 264.99798583984375 490.0018310546875 263.0016174316406 C 497.5145568847656 265.0037536621094 503.0717468261719 270.46295166015625 505.9107971191406 278.8412170410156" stroke-width="0.0" fill="rgb(49, 50, 55)" opacity="1.0"/>
    <path d="M 419.6517028808594 261.5392761230469 C 417.7069091796875 269.1661682128906 412.1347961425781 274.6117248535156 404.2958068847656 275.3200378417969 C 395.99078369140625 274.47064208984375 390.3756103515625 269.0577392578125 388.1886291503906 261.1595153808594 C 390.46807861328125 253.06236267089844 396.10943603515625 247.6022491455078 404.1309814453125 245.4153594970703 C 411.7909851074219 247.61561584472656 417.2205810546875 253.2630157470703 419.6517028808594 261.5392761230469" stroke-width="0.0" fill="rgb(167, 177, 191)" opacity="0.990216"/>
    <path d="M 425.9193420410156 104.04229736328125 C 423.8465270996094 112.30644989013672 418.263427734375 117.72211456298828 410.3858642578125 119.50099182128906 C 402.1795654296875 117.30895233154297 396.59869384765625 111.8509750366211 394.7781066894531 104.2322006225586 C 397.03729248046875 96.52322387695312 402.5225830078125 91.03545379638672 410.71466064453125 88.18376159667969 C 418.29510498046875 90.1839370727539 423.8431396484375 95.6930160522461 425.9193420410156 104.04229736328125" stroke-width="0.0" fill="rgb(176, 187, 197)" opacity="1.0"/>
    <path d="M 592.8399047851562 286.2816162109375 C 590.3721313476562 294.9333190917969 585.0363159179688 300.65362548828125 576.4935913085938 302.8901062011719 C 568.8635864257812 300.75970458984375 564.0293579101562 294.9355773925781 561.7506103515625 286.5009765625 C 563.3953857421875 278.9751281738281 569.0082397460938 273.48004150390625 577.4884643554688 271.26092529296875 C 585.2950439453125 273.2131652832031 590.84130859375 278.68511962890625 592.8399047851562 286.2816162109375" stroke-width="0.0" fill="rgb(155, 161, 180)" opacity="1.0"/>
    <path d="M 399.59967041015625 466.23394775390625 C 397.7424011230469 474.28729248046875 392.3326110839844 479.8713684082031 384.71392822265625 481.9229736328125 C 375.90289306640625 479.7138366699219 370.652587890625 473.9688415527344 368.2053527832031 465.3703918457031 C 370.28875732421875 457.92803955078125 376.0863037109375 452.721923828125 384.2756042480469 450.66522216796875 C 392.095458984375 452.4219665527344 397.61212158203125 457.89410400390625 399.59967041015625 466.23394775390625" stroke-width="0.0" fill="rgb(52, 59, 79)" opacity="1.0"/>
    <path d="M 330.8715515136719 264.2772216796875 C 328.1404113769531 272.62689208984375 322.6241149902344 278.1311950683594 314.86859130859375 280.20538330078125 C 306.841552734375 278.5186462402344 301.1379089355469 273.2811584472656 299.04144287109375 264.8763427734375 C 301.1119384765625 256.6389465332031 306.66815185546875 251.1937713623047 314.42193603515625 249.4227752685547 C 322.8437194824219 251.8106689453125 328.728515625 256.94317626953125 330.8715515136719 264.2772216796875" stroke-width="0.0" fill="rgb(7, 8, 21)" opacity="1.0"/>
    <path d="M 418.0063781738281 229.00192260742188 C 415.9900817871094 236.4810791015625 410.442138671875 241.86288452148438 402.7327575683594 244.05686950683594 C 395.232666015625 242.30320739746094 389.735595703125 236.75445556640625 387.4420471191406 228.87081909179688 C 389.6413879394531 221.10549926757812 394.9541320800781 215.29518127441406 402.3143310546875 213.16262817382812 C 410.4993896484375 216.01113891601562 415.9913635253906 221.49989318847656 418.0063781738281 229.00192260742188" stroke-width="0.0" fill="rgb(205, 215, 235)" opacity="0.99381316"/>
    <path d="M 455.93035888671875 304.82379150390625 C 453.9018859863281 312.3863830566406 448.3627624511719 317.8244323730469 440.68115234375 318.1062316894531 C 432.8639221191406 316.4034118652344 427.10675048828125 311.33154296875 424.9851379394531 304.1518859863281 C 427.53167724609375 297.1191711425781 433.2065734863281 291.79986572265625 440.2585144042969 289.8974609375 C 446.7761535644531 291.796142578125 452.5576171875 297.140380859375 455.93035888671875 304.82379150390625" stroke-width="0.0" fill="rgb(45, 49, 57)" opacity="0.9900354"/>
    <path d="M 395.10125732421875 316.1282043457031 C 393.42913818359375 324.07159423828125 388.21051025390625 329.8135070800781 379.20526123046875 331.9561462402344 C 371.5886535644531 329.9197082519531 366.0859069824219 324.4089050292969 364.0374450683594 315.9909362792969 C 366.0852966308594 307.5953369140625 371.60015869140625 302.0968017578125 379.18377685546875 300.08111572265625 C 387.73260498046875 302.5975646972656 393.0523681640625 308.39007568359375 395.10125732421875 316.1282043457031" stroke-width="0.0" fill="rgb(9, 9, 23)" opacity="1.0"/>
    <path d="M 377.7691650390625 475.7378845214844 C 375.86212158203125 483.35992431640625 370.36846923828125 488.88446044921875 361.3892517089844 490.9543762207031 C 353.5990905761719 488.9082336425781 348.0910339355469 483.4012145996094 346.0429382324219 475.3612976074219 C 348.0873107910156 466.5902099609375 353.5882568359375 461.0823974609375 361.3178405761719 459.0453796386719 C 370.2619323730469 461.1513366699219 375.4309997558594 466.8741455078125 377.7691650390625 475.7378845214844" stroke-width="0.0" fill="rgb(4, 4, 5)" opacity="0.99013346"/>
    <path d="M 494.2225341796875 207.22201538085938 C 492.1710510253906 214.70542907714844 486.6959228515625 220.14822387695312 479.46331787109375 222.07765197753906 C 473.15374755859375 220.24449157714844 466.5753173828125 215.0480194091797 464.0796813964844 207.33140563964844 C 466.1504821777344 199.67807006835938 471.6913146972656 194.18206787109375 479.2821960449219 192.17477416992188 C 487.8896179199219 194.74908447265625 493.62103271484375 199.99127197265625 494.2225341796875 207.22201538085938" stroke-width="0.0" fill="rgb(40, 51, 77)" opacity="0.9900189"/>
    <path d="M 529.064453125 390.0131530761719 C 527.264892578125 397.7503662109375 521.7266235351562 403.18756103515625 513.9400634765625 405.1377868652344 C 506.0590515136719 403.3430480957031 500.33355712890625 398.05291748046875 498.1182861328125 389.5223693847656 C 500.2022399902344 381.7411804199219 505.7590637207031 376.2483215332031 513.6842041015625 374.21826171875 C 521.9944458007812 376.3777770996094 527.2677001953125 382.1289367675781 529.064453125 390.0131530761719" stroke-width="0.0" fill="rgb(229, 157, 43)" opacity="1.0"/>
    <path d="M 493.9564514160156 496.6668395996094 C 491.9161682128906 504.4071960449219 486.4045104980469 509.9098815917969 478.4112854003906 511.9530029296875 C 469.6016845703125 509.9026184082031 464.0865173339844 504.4029541015625 462.0477294921875 496.7900695800781 C 464.2729187011719 487.9657287597656 470.2120361328125 482.8624572753906 478.30743408203125 480.7459411621094 C 486.2501220703125 482.343994140625 491.87799072265625 487.674560546875 493.9564514160156 496.6668395996094" stroke-width="0.0" fill="rgb(0, 0, 0)" opacity="1.0"/>
    <path d="M 345.9205322265625 317.8512268066406 C 343.8947448730469 325.368408203125 338.3370666503906 330.805908203125 330.57611083984375 332.5690002441406 C 322.5001220703125 329.99017333984375 317.00738525390625 324.50054931640625 314.9838562011719 317.02264404296875 C 317.1009826660156 309.6223449707031 322.6643981933594 304.23883056640625 330.10272216796875 302.3663330078125 C 337.4783935546875 304.0747985839844 343.0341491699219 309.4888916015625 345.9205322265625 317.8512268066406" stroke-width="0.0" fill="rgb(10, 9, 9)" opacity="1.0"/>
    <path d="M 231.24461364746094 431.63238525390625 C 230.7557830810547 439.26739501953125 225.28204345703125 444.8009948730469 217.67242431640625 446.78375244140625 C 209.42832946777344 444.0658264160156 203.8937530517578 438.583984375 201.83517456054688 431.0962219238281 C 204.1118927001953 423.6175537109375 209.6613311767578 418.2545166015625 217.60118103027344 416.484619140625 C 225.1553192138672 417.26922607421875 230.07215881347656 422.978515625 231.24461364746094 431.63238525390625" stroke-width="0.0" fill="rgb(132, 75, 62)" opacity="0.99017185"/>
    <path d="M 236.93540954589844 488.7048645019531 C 234.8614501953125 496.2939147949219 229.10714721679688 500.4364929199219 221.64419555664062 502.0411376953125 C 213.54063415527344 500.1819763183594 207.12216186523438 496.2763977050781 205.0387725830078 487.73370361328125 C 207.0908966064453 479.5979309082031 212.59634399414062 474.0873107910156 220.14210510253906 472.0732116699219 C 228.6646270751953 474.8822326660156 234.6105499267578 480.1195983886719 236.93540954589844 488.7048645019531" stroke-width="0.0" fill="rgb(8, 12, 20)" opacity="0.99006706"/>
    <path d="M 506.96563720703125 268.8048400878906 C 504.4295959472656 275.8588562011719 498.7762145996094 281.18475341796875 492.03564453125 283.0717468261719 C 485.2751770019531 281.1600036621094 479.7032165527344 275.7715759277344 477.2274475097656 268.5243835449219 C 478.6192932128906 261.1463928222656 484.1729736328125 255.70849609375 491.8088684082031 254.25852966308594 C 499.3648681640625 256.19287109375 504.8951416015625 261.60870361328125 506.96563720703125 268.8048400878906" stroke-width="0.0" fill="rgb(176, 184, 197)" opacity="0.9900382"/>
    <path d="M 444.772216796875 48.2672004699707 C 442.6704406738281 56.147064208984375 437.1614685058594 61.707523345947266 429.5724792480469 63.70292663574219 C 421.5 60.990379333496094 416.0096130371094 55.5 413.6432189941406 47.651283264160156 C 415.401123046875 39.901763916015625 420.91937255859375 34.465797424316406 428.8948059082031 32.749290466308594 C 436.8335876464844 34.63999557495117 442.47723388671875 40.124149322509766 444.772216796875 48.2672004699707" stroke-width="0.0" fill="rgb(175, 182, 190)" opacity="1.0"/>
    <path d="M 148.0511474609375 511.1263427734375 C 146.0782928466797 518.6083984375 140.6073455810547 524.07568359375 133.5723876953125 526.0342407226562 C 127.39775085449219 524.0745239257812 121.92093658447266 518.6040649414062 119.89278411865234 511.1727600097656 C 121.16860961914062 504.6036376953125 126.57091522216797 499.0609436035156 134.83641052246094 496.10455322265625 C 142.3909912109375 498.0985107421875 147.85743713378906 503.6232604980469 148.0511474609375 511.1263427734375" stroke-width="0.0" fill="rgb(6, 10, 17)" opacity="0.9900074"/>
    <path d="M 527.909912109375 315.82147216796875 C 525.8805541992188 323.36529541015625 520.3670654296875 328.8843994140625 511.6438903808594 330.9529724121094 C 503.6166687011719 328.89886474609375 498.11871337890625 323.3758850097656 496.066162109375 315.55267333984375 C 498.19183349609375 306.763671875 503.8258361816406 301.3441162109375 511.6066589355469 299.2670593261719 C 519.6411743164062 301.81524658203125 525.2306518554688 307.3396911621094 527.909912109375 315.82147216796875" stroke-width="0.0" fill="rgb(73, 80, 96)" opacity="1.0"/>
    <path d="M 522.4007568359375 156.895751953125 C 520.6122436523438 164.39527893066406 515.7642211914062 170.49517822265625 508.2462158203125 172.73532104492188 C 500.10345458984375 170.43360900878906 494.5002136230469 164.9215087890625 492.4685363769531 157.27610778808594 C 494.7061767578125 149.19175720214844 500.16082763671875 143.6116180419922 507.77313232421875 141.6658935546875 C 515.3680419921875 144.11265563964844 520.6741943359375 149.7021026611328 522.4007568359375 156.895751953125" stroke-width="0.0" fill="rgb(187, 196, 207)" opacity="0.99010944"/>
    <path d="M 490.94647216796875 482.1869812011719 C 488.6319580078125 490.9228210449219 482.704833984375 496.08990478515625 474.655029296875 498.2899475097656 C 466.7379455566406 496.6791076660156 461.1192932128906 491.3312072753906 459.03887939453125 482.35235595703125 C 461.09112548828125 474.6039733886719 466.6050109863281 469.0936279296875 474.8799743652344 467.0401611328125 C 483.40008544921875 469.0923767089844 488.90985107421875 474.5989685058594 490.94647216796875 482.1869812011719" stroke-width="0.0" fill="rgb(0, 2, 4)" opacity="1.0"/>
    <path d="M 447.04412841796875 147.73997497558594 C 444.5392761230469 154.961669921875 438.8860168457031 160.29396057128906 431.9063720703125 162.14280700683594 C 425.13104248046875 160.30467224121094 419.6685791015625 154.87893676757812 417.80059814453125 147.95614624023438 C 419.5696716308594 140.91485595703125 424.7568054199219 135.0297393798828 432.73236083984375 132.15370178222656 C 440.2752380371094 134.1741485595703 445.6474304199219 139.78334045410156 447.04412841796875 147.73997497558594" stroke-width="0.0" fill="rgb(155, 106, 88)" opacity="0.99005437"/>
    <path d="M 444.8737487792969 398.62255859375 C 442.6964111328125 407.0812683105469 436.9460144042969 412.27801513671875 429.3191223144531 413.4386901855469 C 421.1775207519531 411.839111328125 415.34423828125 407.0255126953125 413.1709289550781 398.8049011230469 C 415.2267150878906 390.73785400390625 420.720458984375 385.1829528808594 429.04345703125 383.08990478515625 C 437.31182861328125 385.1715393066406 442.81610107421875 390.6926574707031 444.8737487792969 398.62255859375" stroke-width="0.0" fill="rgb(247, 242, 23)" opacity="1.0"/>
    <path d="M 446.78997802734375 271.546630859375 C 444.7581481933594 279.1970520019531 439.1350402832031 284.5731506347656 431.5587158203125 285.5668029785156 C 424.20721435546875 283.2746276855469 418.6936950683594 277.8015441894531 415.3075256347656 270.47991943359375 C 417.55889892578125 263.20562744140625 423.2389831542969 257.6304931640625 431.6184997558594 255.1305389404297 C 439.1668701171875 257.24737548828125 444.57489013671875 262.9023132324219 446.78997802734375 271.546630859375" stroke-width="0.0" fill="rgb(150, 153, 172)" opacity="1.0"/>
    <path d="M 422.9492492675781 465.7791748046875 C 420.8927307128906 474.3821716308594 415.3819885253906 479.89251708984375 407.59466552734375 481.94683837890625 C 398.6773376464844 479.8567199707031 393.23944091796875 474.2887268066406 391.3336181640625 466.17364501953125 C 393.2870178222656 457.7608947753906 398.71881103515625 452.1715393066406 407.6935729980469 450.0521545410156 C 415.3879699707031 452.1007080078125 420.8968200683594 457.613037109375 422.9492492675781 465.7791748046875" stroke-width="0.0" fill="rgb(44, 51, 70)" opacity="1.0"/>
    <path d="M 562.9651489257812 359.54534912109375 C 560.917724609375 368.4112243652344 555.4100341796875 373.9151611328125 547.55078125 375.9588623046875 C 538.6713256835938 373.87884521484375 533.3185424804688 368.2601318359375 531.6063232421875 360.1933898925781 C 533.4144287109375 351.79718017578125 538.6957397460938 346.1274108886719 546.8037719726562 344.0440368652344 C 555.4089965820312 346.0904235839844 560.9223022460938 351.5857849121094 562.9651489257812 359.54534912109375" stroke-width="0.0" fill="rgb(0, 0, 0)" opacity="1.0"/>
    <path d="M 346.5191650390625 360.4574890136719 C 343.9921875 368.5054931640625 338.5306396484375 374.0784912109375 330.135009765625 376.92962646484375 C 322.6055908203125 374.9101257324219 317.1282958984375 369.3796081542969 315.818603515625 361.71990966796875 C 317.4534912109375 352.9574279785156 322.9847412109375 347.5436096191406 331.78070068359375 345.1413269042969 C 339.3564758300781 347.12078857421875 344.7911682128906 352.67254638671875 346.5191650390625 360.4574890136719" stroke-width="0.0" fill="rgb(7, 8, 7)" opacity="0.9900397"/>
    <path d="M 486.686279296875 321.6118469238281 C 484.24456787109375 328.1211853027344 477.8961181640625 333.25238037109375 470.3328857421875 335.10552978515625 C 462.7635498046875 334.6958312988281 457.2035827636719 329.2674865722656 455.1908874511719 321.4559020996094 C 457.28857421875 312.82000732421875 462.82269287109375 307.29534912109375 470.2017822265625 306.8648376464844 C 477.6897277832031 308.8518371582031 483.197021484375 314.29388427734375 486.686279296875 321.6118469238281" stroke-width="0.0" fill="rgb(199, 206, 218)" opacity="0.9900527"/>
    <path d="M 287.89739990234375 333.4747619628906 C 285.678955078125 342.0945739746094 280.0700988769531 347.6202087402344 272.0501708984375 349.7699890136719 C 263.8050842285156 347.693603515625 258.2462158203125 342.2163391113281 256.161376953125 333.7635803222656 C 258.19012451171875 325.70904541015625 263.7025451660156 320.174072265625 272.3849792480469 318.0942077636719 C 280.31298828125 320.15228271484375 285.8260498046875 325.69708251953125 287.89739990234375 333.4747619628906" stroke-width="0.0" fill="rgb(175, 179, 191)" opacity="1.0"/>
    <path d="M 338.9482116699219 338.487060546875 C 336.85498046875 346.2851257324219 331.1905822753906 351.58740234375 322.2287292480469 353.85589599609375 C 314.620361328125 351.8833923339844 309.1051025390625 346.38409423828125 307.04876708984375 337.96600341796875 C 309.1157531738281 329.66046142578125 314.72283935546875 324.2996520996094 322.64935302734375 322.7157287597656 C 330.9994201660156 324.686279296875 336.80926513671875 329.81634521484375 338.9482116699219 338.487060546875" stroke-width="0.0" fill="rgb(10, 12, 25)" opacity="0.9903444"/>
    <path d="M 434.1053161621094 54.717830657958984 C 433.58251953125 62.1822395324707 428.2557067871094 67.81532287597656 419.5882263183594 69.93453979492188 C 411.8973083496094 67.78958129882812 407.1636047363281 61.73530197143555 404.269775390625 53.5226936340332 C 406.3852233886719 45.93068313598633 411.9507751464844 40.44759750366211 419.20208740234375 39.91730499267578 C 426.70941162109375 41.852638244628906 432.18121337890625 47.275447845458984 434.1053161621094 54.717830657958984" stroke-width="0.0" fill="rgb(19, 29, 51)" opacity="0.99002606"/>
    <path d="M 147.9622344970703 474.18115234375 C 145.91026306152344 482.4003601074219 140.39915466308594 487.9074401855469 132.3189239501953 489.9562072753906 C 123.60266876220703 487.9029846191406 118.08963012695312 482.4005126953125 116.0791015625 474.8865051269531 C 119.8771743774414 467.35791015625 125.35005187988281 461.8522644042969 132.8656463623047 458.1632995605469 C 140.3931884765625 460.100830078125 145.90501403808594 465.60455322265625 147.9622344970703 474.18115234375" stroke-width="0.0" fill="rgb(5, 7, 12)" opacity="0.9907565"/>
    <path d="M 408.8562927246094 168.74862670898438 C 406.8379211425781 176.3024444580078 401.2879943847656 181.80442810058594 393.6592712402344 183.82679748535156 C 385.45355224609375 181.152099609375 380.016845703125 175.49441528320312 378.0009460449219 167.9981231689453 C 380.0101623535156 160.50042724609375 385.5003967285156 155.01011657714844 393.1304931640625 152.83773803710938 C 400.7474365234375 154.73768615722656 406.2388000488281 160.25997924804688 408.8562927246094 168.74862670898438" stroke-width="0.0" fill="rgb(180, 188, 200)" opacity="1.0"/>
    <path d="M 567.384765625 230.45127868652344 C 566.602294921875 238.19459533691406 561.2847290039062 243.85369873046875 553.8143310546875 245.91383361816406 C 545.7560424804688 242.7311248779297 540.3286743164062 237.22642517089844 538.425048828125 229.86766052246094 C 540.1773681640625 222.6853790283203 545.7583618164062 217.3961944580078 552.511962890625 215.85633850097656 C 559.916015625 217.7071533203125 565.4945068359375 223.00430297851562 567.384765625 230.45127868652344" stroke-width="0.0" fill="rgb(83, 87, 102)" opacity="0.99013513"/>
    <path d="M 358.5192565917969 366.4523010253906 C 355.9903869628906 374.5 350.5 379.9903869628906 342.5946044921875 382.4100646972656 C 334.83319091796875 380.6592712402344 329.3434143066406 375.1659851074219 327.6015930175781 367.40350341796875 C 330.01593017578125 359.49267578125 335.43914794921875 353.842041015625 343.8543701171875 351.07012939453125 C 351.37542724609375 353.09783935546875 356.7989807128906 358.6601257324219 358.5192565917969 366.4523010253906" stroke-width="0.0" fill="rgb(0, 0, 0)" opacity="1.0"/>
    <path d="M 463.0413513183594 351.92498779296875 C 460.9974670410156 359.5203552246094 455.5927429199219 365.22222900390625 447.1575622558594 367.92742919921875 C 439.6061706542969 365.9049377441406 434.1044006347656 360.389892578125 432.0881652832031 352.8086853027344 C 434.3384704589844 343.7603454589844 439.6885986328125 338.1343078613281 447.5043640136719 336.05767822265625 C 456.1678161621094 338.2028503417969 461.3157043457031 344.0134582519531 463.0413513183594 351.92498779296875" stroke-width="0.0" fill="rgb(89, 94, 108)" opacity="1.0"/>
    <path d="M 554.0821533203125 295.1325988769531 C 552.428955078125 303.07891845703125 547.2279663085938 308.8316955566406 539.7117919921875 310.94287109375 C 531.3176879882812 308.580078125 526.4775390625 302.1982727050781 524.6725463867188 294.7857360839844 C 526.1715698242188 287.5351257324219 531.4407348632812 281.8753356933594 538.9422607421875 279.77069091796875 C 546.5361328125 281.948974609375 552.0030517578125 287.4780578613281 554.0821533203125 295.1325988769531" stroke-width="0.0" fill="rgb(2, 2, 2)" opacity="0.9902229"/>
    <path d="M 529.87939453125 408.4827575683594 C 527.8125610351562 416.3002014160156 522.3088989257812 421.83355712890625 514.3853149414062 423.8681945800781 C 505.7358093261719 421.7974548339844 500.24005126953125 416.2492370605469 498.1128234863281 407.5640563964844 C 500.24267578125 399.8587646484375 505.99383544921875 394.6148681640625 514.0255126953125 392.7680969238281 C 521.9439086914062 394.6386413574219 527.663818359375 399.9492492675781 529.87939453125 408.4827575683594" stroke-width="0.0" fill="rgb(226, 149, 39)" opacity="1.0"/>
    <path d="M 471.8721923828125 354.7991027832031 C 469.8853454589844 362.38079833984375 464.3854064941406 367.89691162109375 456.71881103515625 369.944091796875 C 447.8122253417969 367.78656005859375 442.4621276855469 362.08770751953125 441.10528564453125 354.5098571777344 C 443.52325439453125 346.89178466796875 448.67181396484375 340.6972351074219 456.7835998535156 338.0675964355469 C 464.231689453125 340.1543884277344 469.1636657714844 345.9840087890625 471.8721923828125 354.7991027832031" stroke-width="0.0" fill="rgb(52, 55, 63)" opacity="0.99025565"/>
    <path d="M 610.0193481445312 347.9640808105469 C 607.9965209960938 355.5122985839844 602.524658203125 361.0384826660156 595.091796875 362.855712890625 C 587.5426025390625 360.91961669921875 582.0145874023438 355.47637939453125 579.925537109375 348.02197265625 C 582.0266723632812 340.44488525390625 587.2230224609375 334.4759216308594 595.4592895507812 332.0864562988281 C 603.0408935546875 334.28741455078125 608.1863403320312 340.1645812988281 610.0193481445312 347.9640808105469" stroke-width="0.0" fill="rgb(50, 54, 72)" opacity="0.99017483"/>
  </g>
</svg>
