<?xml version="1.0" ?>
<svg xmlns="http://www.w3.org/2000/svg" version="1.1" width="600" height="600">
  <defs/>
  <g>
    <path d="M 530.9259033203125 345.4461364746094 C 528.8493041992188 353.31964111328125 523.3115844726562 358.8308410644531 514.4835205078125 360.92913818359375 C 506.6499328613281 358.8673400878906 501.1437072753906 353.3454895019531 499.1451110839844 345.7681579589844 C 502.0096130371094 337.5 507.5 332.0096130371094 515.7301635742188 329.1815185546875 C 523.3248901367188 331.16156005859375 528.842041015625 336.6737365722656 530.9259033203125 345.4461364746094" stroke-width="0.0" fill="rgb(141, 36, 36)" opacity="1.0"/>
    <path d="M 94.4050521850586 124.1935806274414 C 92.64767456054688 132.20291137695312 87.25150299072266 137.79615783691406 79.66978454589844 139.76292419433594 C 71.5 136.99038696289062 66.0096206665039 131.5 63.27501678466797 123.37953186035156 C 65.23129272460938 115.7445297241211 70.7243881225586 110.1817855834961 79.50701904296875 108.0570297241211 C 87.29400634765625 110.13684844970703 92.57454681396484 115.8061294555664 94.4050521850586 124.1935806274414" stroke-width="0.0" fill="rgb(63, 200, 42)" opacity="1.0"/>
    <path d="M 260.9253845214844 387.2275695800781 C 258.8573303222656 395.3389587402344 253.33436584472656 400.8448486328125 245.5662384033203 402.8380432128906 C 236.70249938964844 400.7796325683594 231.14944458007812 395.32244873046875 229.07200622558594 387.2755432128906 C 231.16403198242188 378.7083435058594 236.75436401367188 373.2958068847656 245.7588348388672 371.1170349121094 C 253.36143493652344 373.12518310546875 258.8669738769531 378.6416015625 260.9253845214844 387.2275695800781" stroke-width="0.0" fill="rgb(140, 36, 36)" opacity="1.0"/>
    <path d="M 447.7072448730469 404.2137451171875 C 445.4858703613281 411.8671569824219 439.76953125 417.1935729980469 432.0591125488281 419.0455627441406 C 424.5 416.9903869628906 419.0096130371094 411.5 417.0 404.0 C 419.0096130371094 396.5 424.5 391.0096130371094 432.0149841308594 388.9920349121094 C 439.6435546875 390.9292297363281 445.3811340332031 396.25274658203125 447.7072448730469 404.2137451171875" stroke-width="0.0" fill="rgb(255, 237, 136)" opacity="0.99142545"/>
    <path d="M 436.1945495605469 413.6639404296875 C 434.9903869628906 420.5 429.5 425.9903869628906 422.0 428.0 C 414.5 425.9903869628906 409.0096130371094 420.5 406.78875732421875 412.81109619140625 C 408.6271667480469 405.14935302734375 414.1757507324219 399.7140197753906 421.31488037109375 398.8128967285156 C 428.78936767578125 400.7659912109375 434.23272705078125 406.2110595703125 436.1945495605469 413.6639404296875" stroke-width="0.0" fill="rgb(140, 36, 43)" opacity="0.99008185"/>
    <path d="M 325.93768310546875 299.4641418457031 C 323.84619140625 308.3319396972656 318.3375244140625 313.85943603515625 309.79071044921875 315.9365234375 C 301.6471252441406 313.8675842285156 296.13458251953125 308.35211181640625 294.0691223144531 299.7284851074219 C 296.13299560546875 291.64874267578125 301.6511535644531 286.13958740234375 310.370849609375 284.0816345214844 C 318.3533020019531 286.1357727050781 323.8795471191406 291.64007568359375 325.93768310546875 299.4641418457031" stroke-width="0.0" fill="rgb(139, 37, 36)" opacity="1.0"/>
    <path d="M 272.6023864746094 507.3228759765625 C 270.3037109375 514.650390625 264.5519104003906 520.0114135742188 256.93511962890625 522.05908203125 C 249.24163818359375 520.1984252929688 243.52964782714844 514.849853515625 241.2310791015625 506.87371826171875 C 243.42672729492188 499.04583740234375 249.15939331054688 493.76568603515625 256.93475341796875 491.9573669433594 C 264.50030517578125 494.009521484375 270.00030517578125 499.49700927734375 272.6023864746094 507.3228759765625" stroke-width="0.0" fill="rgb(244, 189, 111)" opacity="1.0"/>
    <path d="M 24.925296783447266 140.19007873535156 C 22.75298500061035 149.2752227783203 17.319459915161133 154.86534118652344 8.729898452758789 156.95867919921875 C 0.6616113781929016 154.8863067626953 -4.690384864807129 149.2706756591797 -6.425821781158447 141.13165283203125 C -4.634516716003418 132.76727294921875 0.6814441680908203 127.12179565429688 9.540084838867188 125.03679656982422 C 17.412656784057617 127.08190155029297 22.911842346191406 132.58978271484375 24.925296783447266 140.19007873535156" stroke-width="0.0" fill="rgb(2, 2, 2)" opacity="0.9901328"/>
    <path d="M 381.0143737792969 374.9811096191406 C 378.9903869628906 382.5 373.5 387.9903869628906 365.5779724121094 390.60479736328125 C 358.05316162109375 388.5180969238281 352.5236511230469 382.9320068359375 350.3453674316406 375.0973815917969 C 352.5706481933594 367.0890197753906 358.074951171875 361.5300598144531 365.775634765625 359.42041015625 C 373.645263671875 361.7883605957031 379.06219482421875 367.4009094238281 381.0143737792969 374.9811096191406" stroke-width="0.0" fill="rgb(255, 236, 132)" opacity="0.9924653"/>
    <path d="M 550.2080078125 461.8918151855469 C 548.353759765625 468.915771484375 542.929931640625 474.39410400390625 535.8641357421875 476.330078125 C 529.021484375 474.442138671875 523.6109008789062 468.96044921875 521.8023681640625 461.9346923828125 C 523.621826171875 455.0574035644531 529.062744140625 449.63446044921875 536.2796020507812 447.69091796875 C 542.9492797851562 449.56512451171875 548.3673706054688 455.0728759765625 550.2080078125 461.8918151855469" stroke-width="0.0" fill="rgb(248, 192, 111)" opacity="0.9900239"/>
    <path d="M 277.0231628417969 520.0084838867188 C 275.0859375 527.6598510742188 269.782470703125 533.4396362304688 261.727294921875 535.7931518554688 C 253.9469451904297 533.6181640625 248.39260864257812 528.04833984375 246.27337646484375 520.4632568359375 C 248.89208984375 512.451171875 254.4846649169922 507.0036926269531 262.0150146484375 504.9833984375 C 269.54071044921875 506.9664611816406 275.0267639160156 512.4613037109375 277.0231628417969 520.0084838867188" stroke-width="0.0" fill="rgb(246, 189, 110)" opacity="0.99776566"/>
    <path d="M 267.7133483886719 446.6761169433594 C 265.4037780761719 454.8938293457031 259.9376220703125 460.5252685546875 252.1151580810547 462.7398376464844 C 244.1372528076172 460.4678039550781 238.7655792236328 454.78521728515625 236.9177703857422 447.08673095703125 C 239.00961303710938 439.5 244.5 434.0096130371094 252.23114013671875 431.69830322265625 C 259.92535400390625 433.58489990234375 265.5801086425781 439.0147705078125 267.7133483886719 446.6761169433594" stroke-width="0.0" fill="rgb(255, 235, 133)" opacity="0.9923348"/>
    <path d="M 323.9299621582031 270.6680603027344 C 321.8494873046875 279.3332214355469 316.3346252441406 284.8522033691406 307.6469421386719 286.9178771972656 C 299.6606750488281 284.85711669921875 294.1413269042969 279.3399963378906 292.093994140625 271.7580871582031 C 295.4606018066406 264.1232604980469 301.19415283203125 258.7572326660156 308.78240966796875 256.6551818847656 C 316.3653564453125 257.13623046875 321.8763122558594 262.6307373046875 323.9299621582031 270.6680603027344" stroke-width="0.0" fill="rgb(139, 40, 38)" opacity="1.0"/>
    <path d="M 65.468994140625 13.495019912719727 C 62.990379333496094 21.5 57.5 26.990381240844727 49.21839904785156 29.83149528503418 C 41.62705993652344 27.883893966674805 36.15988540649414 22.358335494995117 34.056827545166016 13.1598539352417 C 36.08485412597656 5.594377040863037 41.59984588623047 0.09866613149642944 49.60863494873047 -1.9249346256256104 C 58.35295486450195 0.12089532613754272 63.773555755615234 5.681587219238281 65.468994140625 13.495019912719727" stroke-width="0.0" fill="rgb(0, 0, 0)" opacity="1.0"/>
    <path d="M 465.9262390136719 233.6382293701172 C 463.82049560546875 242.2309112548828 457.9930419921875 246.46376037597656 450.6499938964844 248.0634307861328 C 443.33209228515625 246.1261749267578 437.86260986328125 240.67263793945312 435.93475341796875 233.7094268798828 C 437.852294921875 227.31643676757812 443.3203125 221.8614959716797 450.7586669921875 219.9148712158203 C 458.2944641113281 220.26058959960938 463.8598937988281 225.66897583007812 465.9262390136719 233.6382293701172" stroke-width="0.0" fill="rgb(143, 42, 41)" opacity="0.99000937"/>
    <path d="M 478.4005126953125 387.10699462890625 C 476.55950927734375 394.1173400878906 471.1646728515625 399.7331848144531 463.7145080566406 402.650634765625 C 456.0152587890625 400.5074157714844 450.4455871582031 395.0015563964844 448.4888610839844 387.3833923339844 C 450.9466247558594 379.3999328613281 456.3368225097656 373.74713134765625 463.7751770019531 371.5343322753906 C 471.24267578125 374.198486328125 476.56146240234375 379.8309631347656 478.4005126953125 387.10699462890625" stroke-width="0.0" fill="rgb(255, 237, 134)" opacity="0.99012"/>
    <path d="M 453.0423278808594 426.6019592285156 C 451.1158752441406 433.6994934082031 445.8914794921875 440.5967102050781 438.4512939453125 442.9366149902344 C 430.65582275390625 440.8628234863281 425.1446838378906 435.3409729003906 423.130615234375 427.78082275390625 C 426.10467529296875 419.63018798828125 431.8013610839844 414.5381164550781 438.23455810546875 412.9476623535156 C 445.6392822265625 414.8958740234375 451.1078186035156 420.3593444824219 453.0423278808594 426.6019592285156" stroke-width="0.0" fill="rgb(4, 5, 3)" opacity="0.9900077"/>
    <path d="M 429.6286926269531 419.52838134765625 C 427.7131042480469 427.2249755859375 422.2611999511719 432.8086242675781 413.6715393066406 434.916015625 C 405.67120361328125 432.8451232910156 400.143798828125 427.33349609375 398.0739440917969 419.3525085449219 C 400.1551513671875 410.6675720214844 405.6612548828125 405.14056396484375 413.2350769042969 403.1624450683594 C 421.469970703125 406.0504150390625 426.9648132324219 411.52557373046875 429.6286926269531 419.52838134765625" stroke-width="0.0" fill="rgb(138, 35, 35)" opacity="1.0"/>
    <path d="M 275.8792724609375 499.4309387207031 C 273.6578674316406 506.8813781738281 267.34515380859375 511.55316162109375 259.97467041015625 513.243896484375 C 252.94766235351562 511.4906311035156 247.4767303466797 506.06243896484375 244.1654815673828 498.2577209472656 C 246.2241973876953 490.81829833984375 251.92922973632812 485.54364013671875 259.88189697265625 483.843994140625 C 267.85693359375 485.7629089355469 273.63629150390625 491.0024719238281 275.8792724609375 499.4309387207031" stroke-width="0.0" fill="rgb(252, 114, 2)" opacity="0.9901457"/>
    <path d="M 184.90170288085938 120.82333374023438 C 182.79502868652344 129.2635040283203 177.26075744628906 134.78860473632812 169.05072021484375 136.8932342529297 C 160.73814392089844 134.78781127929688 155.21055603027344 129.2626953125 153.13714599609375 121.47103118896484 C 155.36349487304688 112.97988891601562 161.09300231933594 107.6939468383789 169.59266662597656 105.30887603759766 C 177.27542114257812 107.21791076660156 182.81488037109375 112.71241760253906 184.90170288085938 120.82333374023438" stroke-width="0.0" fill="rgb(78, 209, 56)" opacity="1.0"/>
    <path d="M 294.7359924316406 521.8281860351562 C 292.41748046875 529.7687377929688 286.6514892578125 535.0739135742188 278.9412841796875 537.0897216796875 C 271.3473205566406 535.1611328125 265.8840637207031 529.6389770507812 263.9390563964844 522.0028686523438 C 265.8493957519531 514.262451171875 271.15533447265625 508.5289001464844 279.1464538574219 506.2713317871094 C 287.049560546875 508.4117431640625 292.5918884277344 513.9489135742188 294.7359924316406 521.8281860351562" stroke-width="0.0" fill="rgb(246, 190, 108)" opacity="0.9970011"/>
    <path d="M 234.2178497314453 440.16192626953125 C 232.3902130126953 447.8854064941406 226.90252685546875 453.443359375 219.4552459716797 455.1478576660156 C 211.71510314941406 452.5965576171875 205.70411682128906 447.5450439453125 203.28941345214844 439.6126708984375 C 205.30628967285156 431.79803466796875 210.77003479003906 426.2294006347656 218.53712463378906 424.1976013183594 C 226.9076690673828 426.48870849609375 232.2624053955078 432.1733093261719 234.2178497314453 440.16192626953125" stroke-width="0.0" fill="rgb(251, 232, 132)" opacity="1.0"/>
    <path d="M 554.03466796875 377.524169921875 C 552.0892333984375 383.6195983886719 546.6157836914062 389.0809326171875 539.9959716796875 391.0340881347656 C 533.3986206054688 389.0731201171875 527.920166015625 383.6041564941406 525.7945556640625 376.0928649902344 C 526.1265869140625 368.6543273925781 531.66162109375 363.14141845703125 539.1339721679688 361.11187744140625 C 546.6158447265625 364.90081787109375 552.0755004882812 370.3929138183594 554.03466796875 377.524169921875" stroke-width="0.0" fill="rgb(23, 4, 4)" opacity="0.99000543"/>
    <path d="M 115.9004898071289 38.466880798339844 C 113.83963012695312 46.31879425048828 108.31978607177734 51.84211349487305 100.28595733642578 53.912322998046875 C 91.68204498291016 51.835262298583984 86.15509033203125 46.32170486450195 84.07046508789062 38.567588806152344 C 86.3749008178711 30.0938777923584 92.31963348388672 24.926881790161133 100.21709442138672 22.80984878540039 C 108.09815216064453 24.485885620117188 113.76049041748047 29.817930221557617 115.9004898071289 38.466880798339844" stroke-width="0.0" fill="rgb(55, 198, 30)" opacity="1.0"/>
    <path d="M 35.925106048583984 14.133752822875977 C 32.990379333496094 22.5 27.5 27.990381240844727 19.782329559326172 30.157819747924805 C 11.829888343811035 28.549104690551758 6.144117832183838 23.2791805267334 4.042168140411377 14.327163696289062 C 6.083280086517334 6.5879645347595215 11.586366653442383 1.0794060230255127 19.484251022338867 -0.9633306860923767 C 28.401439666748047 1.0893746614456177 33.91029739379883 6.598681926727295 35.925106048583984 14.133752822875977" stroke-width="0.0" fill="rgb(0, 0, 0)" opacity="1.0"/>
    <path d="M 121.93489837646484 1.8814934492111206 C 119.91859436035156 9.408854484558105 114.40165710449219 14.900592803955078 106.81494903564453 16.88142204284668 C 97.90576934814453 14.462754249572754 92.17070007324219 9.230131149291992 90.07881927490234 1.826650619506836 C 93.0105209350586 -6.499728679656982 98.50003051757812 -11.990372657775879 106.0 -14.0 C 113.50001525878906 -11.990386962890625 118.99095916748047 -6.500173091888428 121.93489837646484 1.8814934492111206" stroke-width="0.0" fill="rgb(3, 2, 2)" opacity="0.9901215"/>
    <path d="M 476.9400329589844 13.978413581848145 C 474.8760681152344 22.361867904663086 469.3627014160156 27.878206253051758 460.8503723144531 29.9481201171875 C 452.6312561035156 27.88335609436035 447.11663818359375 22.368682861328125 445.05712890625 14.61522388458252 C 447.13482666015625 5.644303798675537 452.6441650390625 0.135003924369812 460.65814208984375 -1.8934916257858276 C 469.3370056152344 0.15554022789001465 474.8685607910156 5.653481960296631 476.9400329589844 13.978413581848145" stroke-width="0.0" fill="rgb(255, 0, 2)" opacity="1.0"/>
    <path d="M 427.2306823730469 389.1209716796875 C 425.3946533203125 396.87982177734375 419.6844482421875 401.5779113769531 411.2481994628906 403.2573547363281 C 403.9036560058594 402.68267822265625 398.4486999511719 397.04571533203125 396.3899841308594 389.24822998046875 C 398.6853332519531 381.2104797363281 404.1822204589844 375.60302734375 412.0697326660156 373.3197937011719 C 419.8366394042969 375.5646057128906 425.2214660644531 381.2335510253906 427.2306823730469 389.1209716796875" stroke-width="0.0" fill="rgb(252, 232, 132)" opacity="1.0"/>
    <path d="M 374.2781066894531 345.20343017578125 C 372.36822509765625 352.87518310546875 366.9170227050781 358.4911804199219 359.181396484375 360.60321044921875 C 351.0987548828125 358.4071044921875 345.47625732421875 352.942626953125 343.12713623046875 344.2887878417969 C 345.1683349609375 336.7315979003906 350.80206298828125 331.3634948730469 358.6543273925781 329.66961669921875 C 366.5 332.0096130371094 371.9903869628906 337.5 374.2781066894531 345.20343017578125" stroke-width="0.0" fill="rgb(252, 231, 130)" opacity="1.0"/>
    <path d="M 47.90010070800781 112.76189422607422 C 45.74413299560547 121.10431671142578 39.93040466308594 126.27227783203125 31.194982528686523 128.86285400390625 C 23.6072998046875 126.8955078125 18.10150718688965 121.39388275146484 16.11494255065918 113.75977325439453 C 18.228248596191406 104.70867156982422 23.68492317199707 99.15906524658203 31.459983825683594 97.10978698730469 C 40.2474479675293 99.22602844238281 45.78908920288086 104.74652862548828 47.90010070800781 112.76189422607422" stroke-width="0.0" fill="rgb(12, 103, 12)" opacity="0.9900873"/>
    <path d="M 20.93403434753418 85.44103240966797 C 18.86639976501465 93.33877563476562 13.31112003326416 98.78743743896484 5.560723304748535 100.5681381225586 C -2.5 97.9903793334961 -7.990381240844727 92.5 -10.020218849182129 84.96026611328125 C -8.200119972229004 77.14421844482422 -3.0622706413269043 71.27105712890625 5.414949893951416 69.07421112060547 C 13.29415512084961 71.1770248413086 18.821474075317383 76.7064208984375 20.93403434753418 85.44103240966797" stroke-width="0.0" fill="rgb(31, 179, 30)" opacity="0.99480003"/>
    <path d="M 274.68048095703125 480.9892578125 C 272.1399230957031 488.2278747558594 266.0180358886719 493.3564758300781 258.8212585449219 495.1616516113281 C 251.618408203125 493.4835510253906 245.4252166748047 488.8669128417969 244.16360473632812 481.4273376464844 C 245.54171752929688 473.08636474609375 251.08164978027344 467.523681640625 259.1053771972656 465.2449645996094 C 266.9814453125 467.4451599121094 272.4635925292969 473.0509338378906 274.68048095703125 480.9892578125" stroke-width="0.0" fill="rgb(252, 232, 135)" opacity="0.9901216"/>
    <path d="M 237.9063720703125 490.4386901855469 C 235.71243286132812 499.1196594238281 230.06141662597656 504.57025146484375 222.057861328125 506.50726318359375 C 214.1475067138672 504.4329833984375 208.5666046142578 498.8525085449219 207.8465118408203 491.75970458984375 C 209.84266662597656 484.29681396484375 215.27810668945312 478.7884216308594 222.81640625 475.1383361816406 C 230.3587188720703 477.1280822753906 235.86062622070312 482.6457824707031 237.9063720703125 490.4386901855469" stroke-width="0.0" fill="rgb(249, 110, 11)" opacity="0.99002206"/>
    <path d="M 482.0533752441406 87.19518280029297 C 480.3708801269531 94.93267822265625 476.21923828125 100.81141662597656 468.5013732910156 102.92056274414062 C 460.0977783203125 100.62570190429688 454.9349060058594 94.67071533203125 452.7706298828125 86.7284927368164 C 454.4065246582031 78.81688690185547 459.73388671875 73.16679382324219 468.2766418457031 71.06468200683594 C 476.235107421875 73.16043853759766 480.30126953125 79.16805267333984 482.0533752441406 87.19518280029297" stroke-width="0.0" fill="rgb(252, 4, 6)" opacity="0.9900865"/>
    <path d="M 318.595947265625 375.6615905761719 C 316.0250549316406 383.5140075683594 310.5046081542969 388.9923095703125 303.000244140625 391.0000915527344 C 295.5 388.9903869628906 290.0096130371094 383.5 287.9735412597656 375.97076416015625 C 289.9182434082031 368.3963623046875 295.38140869140625 362.86865234375 302.9467468261719 360.91094970703125 C 310.6125793457031 362.94696044921875 316.36138916015625 368.2834167480469 318.595947265625 375.6615905761719" stroke-width="0.0" fill="rgb(255, 235, 132)" opacity="0.9946016"/>
    <path d="M 516.0662841796875 240.20339965820312 C 514.1875 246.74188232421875 508.75079345703125 252.21168518066406 501.38812255859375 254.29891967773438 C 494.3652648925781 253.04957580566406 488.4559631347656 247.82763671875 486.14593505859375 240.36154174804688 C 488.5375061035156 232.2390594482422 494.3981018066406 226.9667510986328 502.2508239746094 224.44607543945312 C 508.89593505859375 227.34622192382812 514.1837768554688 233.2211456298828 516.0662841796875 240.20339965820312" stroke-width="0.0" fill="rgb(58, 23, 24)" opacity="0.99001694"/>
    <path d="M 47.69622802734375 300.4111633300781 C 45.61970520019531 308.0878601074219 40.10976791381836 313.67462158203125 32.554866790771484 315.70111083984375 C 24.45975685119629 313.003173828125 18.667850494384766 307.65472412109375 16.21128273010254 299.7595520019531 C 18.54730796813965 292.2503356933594 24.40732192993164 286.9712829589844 31.996498107910156 284.99810791015625 C 39.515968322753906 287.00335693359375 45.12043762207031 292.4466552734375 47.69622802734375 300.4111633300781" stroke-width="0.0" fill="rgb(244, 189, 108)" opacity="1.0"/>
    <path d="M 451.3695068359375 388.2611083984375 C 449.40435791015625 395.84857177734375 443.80712890625 401.27197265625 436.10797119140625 403.10345458984375 C 428.4999084472656 400.990478515625 423.009521484375 395.50006103515625 420.9119873046875 387.9202880859375 C 422.8155517578125 380.31634521484375 428.3232727050781 374.83856201171875 435.9371643066406 372.9382629394531 C 443.5 375.0096130371094 448.9903869628906 380.5 451.3695068359375 388.2611083984375" stroke-width="0.0" fill="rgb(255, 235, 134)" opacity="0.9953667"/>
    <path d="M 114.34441375732422 123.3655014038086 C 112.65530395507812 131.20985412597656 107.266357421875 136.81922912597656 99.73526763916016 138.8370819091797 C 91.5 135.99038696289062 86.0096206665039 130.5 84.0 123.0 C 86.00960540771484 115.49993133544922 91.49846649169922 110.00418090820312 99.05833435058594 107.61331176757812 C 106.50630187988281 109.98837280273438 111.99052429199219 115.49949645996094 114.34441375732422 123.3655014038086" stroke-width="0.0" fill="rgb(48, 200, 31)" opacity="1.0"/>
    <path d="M 478.885498046875 343.79705810546875 C 476.859130859375 351.33404541015625 471.3287353515625 356.8471984863281 463.817626953125 358.8937683105469 C 456.32086181640625 355.1623840332031 450.8627624511719 349.6708984375 448.93096923828125 343.1190490722656 C 450.85137939453125 336.29766845703125 456.26708984375 330.76397705078125 463.5051574707031 328.5198974609375 C 470.5 330.0096130371094 475.9903869628906 335.5 478.885498046875 343.79705810546875" stroke-width="0.0" fill="rgb(143, 40, 42)" opacity="0.99001634"/>
    <path d="M 21.79849624633789 109.3446044921875 C 19.841510772705078 117.35334014892578 14.366899490356445 122.88043212890625 6.786632537841797 124.84719848632812 C -1.5 121.9903793334961 -6.990381240844727 116.5 -8.989776611328125 109.01873016357422 C -6.890769958496094 101.67701721191406 -1.181888461112976 96.50647735595703 6.413561820983887 94.79229736328125 C 14.108616828918457 95.54232025146484 19.750804901123047 100.80996704101562 21.79849624633789 109.3446044921875" stroke-width="0.0" fill="rgb(2, 2, 3)" opacity="0.9900582"/>
    <path d="M 127.91059112548828 176.32589721679688 C 125.81400299072266 184.2834014892578 120.27665710449219 189.79710388183594 111.7920150756836 191.892333984375 C 103.72168731689453 189.80722045898438 98.20098876953125 184.27496337890625 96.10066223144531 175.82469177246094 C 98.18627166748047 167.71185302734375 103.70989990234375 162.18191528320312 112.2530288696289 160.0848846435547 C 120.29127502441406 162.17376708984375 125.80084991455078 167.719482421875 127.91059112548828 176.32589721679688" stroke-width="0.0" fill="rgb(76, 208, 56)" opacity="1.0"/>
    <path d="M 268.2864990234375 323.7881164550781 C 265.9903869628906 331.5 260.5 336.9903869628906 252.88833618164062 339.11724853515625 C 245.24224853515625 337.25616455078125 239.81527709960938 331.7386474609375 238.52967834472656 324.3385925292969 C 240.5044403076172 316.9400939941406 245.9395751953125 311.50421142578125 253.26841735839844 309.67388916015625 C 260.6120300292969 311.15155029296875 266.3448486328125 316.2490234375 268.2864990234375 323.7881164550781" stroke-width="0.0" fill="rgb(255, 237, 136)" opacity="0.99010676"/>
    <path d="M 434.5724792480469 37.896724700927734 C 433.87457275390625 45.36091995239258 428.3600769042969 50.872310638427734 419.8548583984375 52.93157958984375 C 411.6401672363281 50.87261199951172 406.12274169921875 45.361732482910156 405.63330078125 37.903629302978516 C 407.89642333984375 30.36457061767578 413.3669128417969 24.901748657226562 420.3194274902344 22.951766967773438 C 426.6393127441406 24.895828247070312 432.1119689941406 30.3574275970459 434.5724792480469 37.896724700927734" stroke-width="0.0" fill="rgb(255, 6, 7)" opacity="0.9900094"/>
    <path d="M 15.304533004760742 113.35365295410156 C 13.667654037475586 121.24185943603516 8.313161849975586 126.86849975585938 0.8342097997665405 128.91458129882812 C -7.5 125.9903793334961 -12.990381240844727 120.5 -15.0 113.0 C -12.990381240844727 105.5 -7.5 100.0096206665039 -0.0025402221363037825 98.00534057617188 C 7.497154235839844 100.01351928710938 12.988165855407715 105.50235748291016 15.304533004760742 113.35365295410156" stroke-width="0.0" fill="rgb(2, 2, 2)" opacity="1.0"/>
    <path d="M 382.49591064453125 334.0873718261719 C 380.317626953125 341.7718505859375 374.7406921386719 347.2164306640625 367.0863952636719 349.084716796875 C 359.495361328125 346.9918518066406 353.9823913574219 341.5120849609375 351.3000183105469 333.40399169921875 C 353.2389221191406 325.7625732421875 358.7714538574219 320.2629699707031 366.4580993652344 319.6364440917969 C 374.8609313964844 320.60052490234375 380.32208251953125 326.164794921875 382.49591064453125 334.0873718261719" stroke-width="0.0" fill="rgb(252, 227, 131)" opacity="1.0"/>
    <path d="M 526.6605224609375 65.377685546875 C 524.2327880859375 72.7271728515625 518.6943969726562 78.13972473144531 512.36083984375 80.05137634277344 C 505.3616943359375 78.10360717773438 499.88348388671875 72.6433334350586 496.2188415527344 65.12310028076172 C 498.1253356933594 57.640098571777344 503.63958740234375 52.12409210205078 511.8526611328125 50.05720138549805 C 520.2996215820312 52.14847183227539 525.6799926757812 57.76076889038086 526.6605224609375 65.377685546875" stroke-width="0.0" fill="rgb(255, 6, 6)" opacity="0.990013"/>
    <path d="M 517.8621215820312 330.2393493652344 C 514.9902954101562 338.4999694824219 509.4999694824219 343.9903564453125 501.2552795410156 346.8318786621094 C 493.6761474609375 344.84368896484375 488.167724609375 339.3191833496094 486.1573486328125 331.7244873046875 C 488.9334716796875 323.4588623046875 494.433349609375 317.8542785644531 502.7757568359375 315.11138916015625 C 510.32720947265625 317.1468811035156 515.8370361328125 322.6797790527344 517.8621215820312 330.2393493652344" stroke-width="0.0" fill="rgb(139, 37, 36)" opacity="1.0"/>
    <path d="M 56.77244567871094 132.48580932617188 C 54.67535400390625 141.1904754638672 49.20840835571289 146.7301788330078 41.489662170410156 148.61907958984375 C 32.91294860839844 146.45936584472656 27.196001052856445 141.208740234375 25.071857452392578 133.45098876953125 C 27.42406463623047 125.63666534423828 34.01286315917969 120.64061737060547 41.738494873046875 117.46280670166016 C 49.302303314208984 119.18367004394531 54.80210876464844 124.70304107666016 56.77244567871094 132.48580932617188" stroke-width="0.0" fill="rgb(74, 206, 47)" opacity="1.0"/>
    <path d="M 337.0028076171875 469.0043640136719 C 335.0118408203125 476.537109375 329.5692138671875 482.11785888671875 321.7939453125 484.4030456542969 C 314.1026306152344 482.42742919921875 308.5491027832031 476.9051513671875 306.3616027832031 469.0309143066406 C 308.54254150390625 461.1081237792969 314.144287109375 455.6506652832031 321.8145751953125 453.75421142578125 C 329.5 456.0096130371094 334.9903869628906 461.5 337.0028076171875 469.0043640136719" stroke-width="0.0" fill="rgb(255, 236, 135)" opacity="0.9922768"/>
    <path d="M 274.5920715332031 330.736083984375 C 272.1746520996094 338.73883056640625 266.8371276855469 344.46075439453125 258.98492431640625 346.68231201171875 C 251.14105224609375 344.4422912597656 245.68527221679688 338.8163146972656 243.8057861328125 331.1616516113281 C 246.0233917236328 323.5132141113281 251.51339721679688 318.0239562988281 259.0998840332031 315.9141845703125 C 266.8026123046875 317.7475891113281 272.4631652832031 323.12835693359375 274.5920715332031 330.736083984375" stroke-width="0.0" fill="rgb(255, 236, 134)" opacity="0.9930162"/>
    <path d="M 457.4285888671875 376.6847839355469 C 454.9903564453125 384.5 449.5 389.9903869628906 442.0 392.0 C 434.5 389.9903869628906 429.0096130371094 384.5 426.4787902832031 376.6565246582031 C 428.5559387207031 369.10565185546875 434.1059265136719 363.560302734375 442.3713073730469 361.2488098144531 C 450.0274353027344 363.3935852050781 455.4919128417969 369.0145263671875 457.4285888671875 376.6847839355469" stroke-width="0.0" fill="rgb(255, 236, 131)" opacity="0.9936532"/>
    <path d="M 358.77044677734375 440.6978759765625 C 356.6443176269531 449.0105895996094 350.8409729003906 454.0749816894531 343.2845764160156 455.4145202636719 C 335.6547546386719 453.61126708984375 329.6530456542969 448.6336669921875 327.26690673828125 440.7452697753906 C 329.449951171875 432.9878234863281 334.96319580078125 427.3885498046875 342.78277587890625 425.253662109375 C 351.1201477050781 427.3961486816406 356.7073059082031 432.84368896484375 358.77044677734375 440.6978759765625" stroke-width="0.0" fill="rgb(252, 233, 131)" opacity="1.0"/>
    <path d="M 418.9421081542969 72.9319839477539 C 416.8643493652344 81.33898162841797 411.3172607421875 86.80216217041016 403.8228454589844 87.09430694580078 C 396.3550109863281 85.11438751220703 390.88995361328125 79.64325714111328 388.94366455078125 72.30604553222656 C 389.63671875 64.77228546142578 394.6797790527344 59.13227844238281 403.1376647949219 57.05039978027344 C 411.353271484375 59.12819290161133 416.8710021972656 64.64685821533203 418.9421081542969 72.9319839477539" stroke-width="0.0" fill="rgb(233, 12, 17)" opacity="0.99002767"/>
    <path d="M 99.88290405273438 159.3435821533203 C 97.71519470214844 168.18565368652344 92.20071411132812 173.7519073486328 84.05257415771484 175.87570190429688 C 75.74039459228516 173.7725067138672 70.18470764160156 168.27734375 68.1115951538086 160.5199737548828 C 70.25579833984375 151.77536010742188 75.76102447509766 146.22003173828125 84.06941223144531 144.1090850830078 C 92.29251861572266 146.19615173339844 97.8414077758789 151.69190979003906 99.88290405273438 159.3435821533203" stroke-width="0.0" fill="rgb(40, 100, 32)" opacity="0.9900292"/>
    <path d="M 256.9384765625 412.5851745605469 C 254.8577880859375 421.3340759277344 249.31788635253906 426.8140869140625 240.309326171875 428.9093322753906 C 232.6503143310547 426.8662414550781 227.12887573242188 421.351806640625 225.0679931640625 413.49176025390625 C 227.1507568359375 404.667724609375 232.67098999023438 399.1596374511719 240.4226531982422 397.1629333496094 C 249.297119140625 399.2279052734375 254.8657989501953 404.6688232421875 256.9384765625 412.5851745605469" stroke-width="0.0" fill="rgb(139, 36, 35)" opacity="1.0"/>
    <path d="M 255.48817443847656 45.508018493652344 C 253.76907348632812 53.31058120727539 248.3520965576172 58.88652801513672 239.2979736328125 60.96175765991211 C 231.58456420898438 58.922203063964844 226.08338928222656 53.41315460205078 224.04335021972656 45.16057586669922 C 226.08790588378906 36.59364700317383 231.59335327148438 31.0871524810791 239.14988708496094 29.06230926513672 C 247.67294311523438 31.63578224182129 253.0071258544922 37.454139709472656 255.48817443847656 45.508018493652344" stroke-width="0.0" fill="rgb(0, 0, 0)" opacity="1.0"/>
    <path d="M 325.5172119140625 355.3092346191406 C 323.47869873046875 362.9473571777344 317.9412841796875 368.45916748046875 310.2593688964844 370.3263854980469 C 302.41632080078125 368.0348815917969 296.6869201660156 362.67608642578125 294.2398376464844 354.639892578125 C 296.33612060546875 346.8460388183594 301.8084716796875 341.2447204589844 309.5705261230469 339.2710266113281 C 317.7488098144531 341.5876770019531 323.0840759277344 347.3681335449219 325.5172119140625 355.3092346191406" stroke-width="0.0" fill="rgb(252, 232, 130)" opacity="1.0"/>
    <path d="M 126.92291259765625 116.49627685546875 C 124.84857177734375 124.32416534423828 119.32435607910156 129.8489990234375 111.78375244140625 131.87721252441406 C 103.50049591064453 128.98870849609375 98.00963592529297 123.49995422363281 95.62328338623047 115.6029052734375 C 97.31654357910156 107.7650146484375 102.70911407470703 102.15802764892578 110.6505355834961 100.069580078125 C 119.30883026123047 102.16338348388672 124.82323455810547 107.69670104980469 126.92291259765625 116.49627685546875" stroke-width="0.0" fill="rgb(44, 197, 25)" opacity="1.0"/>
    <path d="M 47.73967361450195 45.26579284667969 C 45.779476165771484 53.255001068115234 40.28351593017578 58.840702056884766 32.7261962890625 60.93563461303711 C 24.106346130371094 58.60930252075195 18.92836570739746 52.677513122558594 16.124143600463867 44.198951721191406 C 18.13113021850586 36.683467864990234 23.757898330688477 31.356698989868164 32.728248596191406 29.155126571655273 C 40.314483642578125 31.15062141418457 45.77996826171875 36.71259307861328 47.73967361450195 45.26579284667969" stroke-width="0.0" fill="rgb(2, 2, 2)" opacity="0.9900536"/>
    <path d="M 345.93560791015625 339.4573669433594 C 343.65008544921875 347.4136657714844 336.9101257324219 352.258056640625 329.5746765136719 354.11273193359375 C 322.19207763671875 352.5833740234375 316.24725341796875 348.11248779296875 314.1741943359375 340.69451904296875 C 317.0096130371094 332.5 322.5 327.0096130371094 330.5850524902344 324.3847961425781 C 338.3052062988281 326.2086486816406 343.8599548339844 331.66973876953125 345.93560791015625 339.4573669433594" stroke-width="0.0" fill="rgb(140, 40, 41)" opacity="0.99011934"/>
    <path d="M 507.89703369140625 222.34877014160156 C 505.4858093261719 230.79429626464844 499.7064514160156 236.27439880371094 491.3680419921875 238.78445434570312 C 483.710205078125 236.80508422851562 478.1726989746094 231.29840087890625 476.0690612792969 222.5115203857422 C 478.13458251953125 214.6536102294922 483.6567077636719 209.1414337158203 491.2812805175781 207.09849548339844 C 500.3100280761719 209.21395874023438 505.8565979003906 214.666259765625 507.89703369140625 222.34877014160156" stroke-width="0.0" fill="rgb(139, 35, 36)" opacity="1.0"/>
    <path d="M 471.0195617675781 90.967529296875 C 468.7413024902344 98.06072235107422 462.8669738769531 103.2081069946289 455.35205078125 105.05802154541016 C 447.7120361328125 104.6070556640625 442.1244812011719 99.34556579589844 440.0805969238281 91.3040771484375 C 442.13970947265625 82.65338134765625 447.648681640625 77.1285400390625 455.2548828125 75.06951141357422 C 463.798583984375 77.4793701171875 469.03570556640625 83.39067077636719 471.0195617675781 90.967529296875" stroke-width="0.0" fill="rgb(252, 4, 4)" opacity="0.990064"/>
    <path d="M 561.9471435546875 12.073390007019043 C 559.88916015625 20.376964569091797 554.3762817382812 25.887662887573242 546.4775390625 27.946104049682617 C 537.634033203125 25.876733779907227 532.1174926757812 20.36846923828125 530.057373046875 12.006491661071777 C 532.1307983398438 3.654874563217163 537.677734375 -1.8041884899139404 546.1103515625 -3.7680745124816895 C 554.3323974609375 -1.8147368431091309 559.8797607421875 3.6442456245422363 561.9471435546875 12.073390007019043" stroke-width="0.0" fill="rgb(255, 1, 2)" opacity="1.0"/>
    <path d="M 506.09088134765625 257.32965087890625 C 504.15142822265625 264.7006530761719 498.7078552246094 270.1687316894531 491.2237548828125 272.1382141113281 C 483.6773376464844 271.7990417480469 478.1273498535156 266.3478698730469 476.059326171875 258.33160400390625 C 478.13848876953125 249.6605224609375 483.6706237792969 244.16433715820312 491.30633544921875 242.20542907714844 C 499.4385681152344 244.93511962890625 504.5174865722656 250.75465393066406 506.09088134765625 257.32965087890625" stroke-width="0.0" fill="rgb(104, 43, 40)" opacity="0.9900312"/>
    <path d="M 392.8453063964844 411.7674255371094 C 390.8621520996094 419.3494873046875 385.3504638671875 424.8651428222656 377.79083251953125 426.8794250488281 C 369.4927978515625 424.01220703125 364.00921630859375 418.5012512207031 362.06512451171875 411.04296875 C 364.0926818847656 403.55670166015625 369.5400085449219 398.0372619628906 377.0066833496094 396.0046691894531 C 384.5 398.0096130371094 389.9903869628906 403.5 392.8453063964844 411.7674255371094" stroke-width="0.0" fill="rgb(140, 35, 38)" opacity="1.0"/>
    <path d="M 315.5417785644531 403.8528137207031 C 313.0399475097656 411.51800537109375 307.5042724609375 416.99200439453125 299.9910583496094 419.0051574707031 C 292.4078063964844 417.04022216796875 286.6800842285156 411.68499755859375 284.3382873535156 404.0402526855469 C 286.5451965332031 396.1139221191406 292.1685791015625 390.716796875 299.8924255371094 388.8974304199219 C 307.5326843261719 390.99468994140625 313.1705322265625 396.4159851074219 315.5417785644531 403.8528137207031" stroke-width="0.0" fill="rgb(255, 235, 131)" opacity="0.9943621"/>
    <path d="M 51.91730499267578 154.34666442871094 C 49.826698303222656 162.29261779785156 44.286094665527344 167.81201171875 36.16348648071289 169.9053955078125 C 27.681514739990234 167.8208770751953 22.12513542175293 162.3414306640625 20.061569213867188 154.6116943359375 C 22.180971145629883 145.72372436523438 27.755573272705078 140.2672119140625 35.519798278808594 138.43646240234375 C 43.963199615478516 140.6665496826172 49.74588394165039 145.88429260253906 51.91730499267578 154.34666442871094" stroke-width="0.0" fill="rgb(73, 207, 49)" opacity="1.0"/>
    <path d="M 159.9280548095703 71.12324523925781 C 157.84864807128906 79.32829284667969 152.32742309570312 84.84651184082031 144.606689453125 86.90978240966797 C 136.06443786621094 84.62055969238281 130.87078857421875 78.74866485595703 128.98715209960938 71.02503204345703 C 131.0096435546875 63.500099182128906 136.5015411376953 58.01495361328125 144.80079650878906 55.1207160949707 C 152.34494018554688 57.13229751586914 157.84982299804688 62.662654876708984 159.9280548095703 71.12324523925781" stroke-width="0.0" fill="rgb(39, 196, 24)" opacity="1.0"/>
    <path d="M 310.81781005859375 491.5264587402344 C 308.6340637207031 499.07330322265625 303.09295654296875 504.6760559082031 294.78326416015625 506.82989501953125 C 286.76947021484375 504.7568359375 281.2146911621094 499.2427673339844 280.86651611328125 491.8337097167969 C 282.8623046875 484.3273620605469 288.3267822265625 478.86077880859375 294.4993591308594 476.94293212890625 C 301.671630859375 478.87451171875 307.24053955078125 484.2947082519531 310.81781005859375 491.5264587402344" stroke-width="0.0" fill="rgb(26, 22, 14)" opacity="0.99000674"/>
    <path d="M 84.62970733642578 283.3153381347656 C 81.4986572265625 291.0155029296875 75.9889907836914 296.4205627441406 69.06822967529297 298.2751159667969 C 61.997928619384766 296.4058837890625 56.301753997802734 291.08673095703125 53.264007568359375 283.4747619628906 C 55.35335922241211 275.927001953125 60.9627799987793 270.4487609863281 69.54254913330078 268.20172119140625 C 77.27174377441406 270.2166442871094 82.78701782226562 275.7269287109375 84.62970733642578 283.3153381347656" stroke-width="0.0" fill="rgb(245, 194, 116)" opacity="0.9900758"/>
    <path d="M 74.90449523925781 70.52706146240234 C 72.84754943847656 78.33063507080078 67.33113861083984 83.84825134277344 59.38002395629883 85.91551208496094 C 50.82924270629883 83.7702865600586 45.571231842041016 78.05194854736328 43.89518737792969 70.14801025390625 C 46.009639739990234 62.500003814697266 51.49722671508789 56.9993782043457 59.736934661865234 54.14196014404297 C 67.29591369628906 56.18217086791992 72.80781555175781 61.70774841308594 74.90449523925781 70.52706146240234" stroke-width="0.0" fill="rgb(50, 198, 29)" opacity="1.0"/>
    <path d="M 486.86077880859375 331.7509765625 C 484.825439453125 339.2890319824219 479.2562561035156 344.73138427734375 471.485107421875 346.4973449707031 C 463.5008239746094 343.9895935058594 458.01904296875 338.4967956542969 456.8987731933594 331.79425048828125 C 458.8696594238281 324.3172302246094 464.27349853515625 318.71624755859375 470.6758117675781 315.2236328125 C 478.5008544921875 318.00933837890625 484.0068664550781 323.4946594238281 486.86077880859375 331.7509765625" stroke-width="0.0" fill="rgb(141, 42, 41)" opacity="0.9900672"/>
    <path d="M 596.0197143554688 54.03801727294922 C 594.1865844726562 61.83107376098633 589.0255737304688 67.69469451904297 580.3908081054688 69.92411804199219 C 572.7128295898438 67.84015655517578 567.3367309570312 62.22602462768555 565.6714477539062 54.36283874511719 C 568.0096435546875 46.5 573.5 41.009620666503906 581.0 39.0 C 588.5 41.009620666503906 593.9903564453125 46.5 596.0197143554688 54.03801727294922" stroke-width="0.0" fill="rgb(255, 2, 3)" opacity="1.0"/>
    <path d="M 205.04446411132812 444.47332763671875 C 203.07505798339844 451.60150146484375 197.60081481933594 457.0733337402344 191.3187255859375 459.03131103515625 C 184.3998260498047 457.071044921875 178.9156036376953 451.6053771972656 176.8924560546875 444.1854553222656 C 178.49026489257812 438.17144775390625 184.286376953125 432.8770446777344 191.52467346191406 430.9527587890625 C 197.6441192626953 432.8825378417969 203.10177612304688 438.36236572265625 205.04446411132812 444.47332763671875" stroke-width="0.0" fill="rgb(3, 2, 3)" opacity="0.9900041"/>
    <path d="M 378.6844787597656 420.6329345703125 C 376.8070983886719 428.3051452636719 371.3197021484375 433.8465881347656 362.7856140136719 435.9400939941406 C 354.6692810058594 433.8667907714844 349.2646789550781 428.2867736816406 347.58966064453125 420.47674560546875 C 350.2868347167969 412.883056640625 356.0195617675781 407.67333984375 363.541748046875 405.85791015625 C 370.45086669921875 407.1517028808594 375.98809814453125 412.5069580078125 378.6844787597656 420.6329345703125" stroke-width="0.0" fill="rgb(131, 39, 42)" opacity="0.9900499"/>
    <path d="M 594.0886840820312 51.86910629272461 C 591.9903564453125 59.5 586.5 64.9903793334961 578.508056640625 67.47632598876953 C 570.707275390625 65.75375366210938 565.130126953125 60.333473205566406 563.0553588867188 52.319427490234375 C 565.1271362304688 43.64327621459961 570.64453125 38.129974365234375 578.5595703125 36.05886459350586 C 587.1893920898438 38.20082473754883 592.4087524414062 43.95331954956055 594.0886840820312 51.86910629272461" stroke-width="0.0" fill="rgb(255, 1, 2)" opacity="1.0"/>
    <path d="M 359.93048095703125 289.9485778808594 C 357.8536376953125 298.3313293457031 352.3266296386719 303.84259033203125 343.9931335449219 305.9212341308594 C 335.6756286621094 303.83856201171875 330.1483459472656 298.3297424316406 328.0724792480469 290.05291748046875 C 330.15069580078125 281.6672058105469 335.66217041015625 276.138916015625 343.7156982421875 274.06378173828125 C 352.3441467285156 276.1392822265625 357.8608703613281 281.6557922363281 359.93048095703125 289.9485778808594" stroke-width="0.0" fill="rgb(141, 36, 35)" opacity="1.0"/>
    <path d="M 317.0509338378906 381.9830627441406 C 314.99041748046875 389.5 309.5 394.9903869628906 301.9908142089844 397.00537109375 C 294.421142578125 395.03631591796875 288.78466796875 389.6350402832031 286.73028564453125 382.15869140625 C 289.0096130371094 374.5 294.5 369.0096130371094 302.0 367.0 C 309.5007019042969 369.0093688964844 315.00048828125 374.4965515136719 317.0509338378906 381.9830627441406" stroke-width="0.0" fill="rgb(255, 235, 133)" opacity="0.99767816"/>
    <path d="M 546.0451049804688 233.81021118164062 C 545.6083984375 241.25506591796875 540.3038940429688 246.8290557861328 532.8289184570312 247.16253662109375 C 525.3182983398438 245.1483612060547 519.8607177734375 239.67813110351562 517.9288330078125 232.3783416748047 C 519.6689453125 226.1695556640625 525.2601318359375 220.8626708984375 531.3521728515625 218.96266174316406 C 538.608154296875 220.92298889160156 544.0830688476562 226.38916015625 546.0451049804688 233.81021118164062" stroke-width="0.0" fill="rgb(62, 4, 6)" opacity="0.9900055"/>
    <path d="M 39.90830993652344 23.780733108520508 C 37.84736633300781 31.27247428894043 32.169883728027344 36.55424118041992 23.18781280517578 38.876075744628906 C 15.597018241882324 36.90372085571289 10.082422256469727 31.408504486083984 8.066610336303711 23.879304885864258 C 11.009618759155273 15.5 16.5 10.009618759155273 24.04584312438965 7.963796138763428 C 31.693696975708008 9.855550765991211 37.35725402832031 15.238402366638184 39.90830993652344 23.780733108520508" stroke-width="0.0" fill="rgb(0, 0, 0)" opacity="1.0"/>
    <path d="M 112.99752807617188 123.00144958496094 C 110.99082946777344 130.50027465820312 105.50018310546875 135.9905242919922 97.26311492919922 138.8633575439453 C 89.82990264892578 136.77383422851562 84.5669937133789 131.0482635498047 82.7198257446289 122.87576293945312 C 84.45616149902344 114.87107849121094 89.7851333618164 109.20853424072266 97.28936004638672 107.1582260131836 C 105.50334930419922 109.9957504272461 110.98809814453125 115.50114440917969 112.99752807617188 123.00144958496094" stroke-width="0.0" fill="rgb(48, 197, 30)" opacity="1.0"/>
    <path d="M 162.92514038085938 321.588623046875 C 160.86590576171875 329.3468017578125 155.3434600830078 334.8580322265625 147.84097290039062 336.8451843261719 C 140.32077026367188 333.15765380859375 134.8664093017578 327.67083740234375 132.9386444091797 321.3122253417969 C 134.88241577148438 314.3482971191406 140.3480682373047 308.8819274902344 147.5501251220703 306.9364013671875 C 154.089111328125 308.74755859375 160.74729919433594 312.9922790527344 162.92514038085938 321.588623046875" stroke-width="0.0" fill="rgb(142, 41, 40)" opacity="0.9900098"/>
    <path d="M 63.5092658996582 65.92420959472656 C 61.718772888183594 73.26778411865234 56.27277374267578 78.73527526855469 48.29197692871094 81.78585052490234 C 40.702674865722656 79.80845642089844 35.14813995361328 74.31558990478516 33.04658126831055 65.5796127319336 C 35.124176025390625 57.670921325683594 40.71004104614258 52.209903717041016 48.885467529296875 50.09943771362305 C 57.063323974609375 52.29588317871094 62.16108703613281 58.113868713378906 63.5092658996582 65.92420959472656" stroke-width="0.0" fill="rgb(39, 119, 27)" opacity="0.99581206"/>
    <path d="M 205.87770080566406 51.359161376953125 C 203.38104248046875 59.69786834716797 197.56961059570312 65.0188980102539 189.51060485839844 67.49365234375 C 181.72689819335938 65.74200439453125 176.15859985351562 60.307350158691406 174.06246948242188 51.40140914916992 C 176.12481689453125 43.642303466796875 181.6405029296875 38.12090301513672 189.3480682373047 36.065338134765625 C 198.2963104248047 38.17100524902344 203.80677795410156 43.71359634399414 205.87770080566406 51.359161376953125" stroke-width="0.0" fill="rgb(81, 191, 61)" opacity="1.0"/>
    <path d="M 417.1859130859375 543.1795043945312 C 415.095458984375 550.6198120117188 409.6167297363281 556.0872192382812 403.1330871582031 558.040283203125 C 396.311279296875 556.1080932617188 390.5194091796875 550.79296875 387.6569519042969 544.0447387695312 C 390.0096130371094 536.5 395.5 531.0096435546875 402.88116455078125 529.0848999023438 C 410.05914306640625 531.3678588867188 415.5158996582031 536.9762573242188 417.1859130859375 543.1795043945312" stroke-width="0.0" fill="rgb(16, 14, 12)" opacity="0.99002826"/>
    <path d="M 234.91505432128906 4.854528427124023 C 232.9204864501953 12.415114402770996 227.41453552246094 17.919137954711914 218.52479553222656 19.964767456054688 C 210.57980346679688 17.92533302307129 205.0794219970703 12.41820240020752 203.0502166748047 4.81702184677124 C 205.3476104736328 -3.9355309009552 211.3006591796875 -9.0831937789917 218.99501037597656 -11.00810718536377 C 226.6164093017578 -9.043410301208496 232.44215393066406 -3.7594797611236572 234.91505432128906 4.854528427124023" stroke-width="0.0" fill="rgb(2, 0, 0)" opacity="0.99046105"/>
    <path d="M 317.77685546875 413.9270324707031 C 315.55694580078125 422.03826904296875 310.0728759765625 427.64544677734375 302.30517578125 429.7654113769531 C 294.0724182128906 427.4998474121094 288.5737609863281 421.9012145996094 286.5005798339844 414.2906188964844 C 288.9804992675781 406.4888000488281 294.4967041015625 401.00830078125 302.0302734375 398.98187255859375 C 309.72772216796875 400.86865234375 315.5127258300781 406.13946533203125 317.77685546875 413.9270324707031" stroke-width="0.0" fill="rgb(255, 235, 133)" opacity="0.9919901"/>
    <path d="M 29.853239059448242 56.79645919799805 C 27.888927459716797 64.38121795654297 22.37906265258789 69.88408660888672 13.506114959716797 71.9515151977539 C 5.6065216064453125 69.89942932128906 0.0957595705986023 64.39570617675781 -1.9355494976043701 56.32771301269531 C 0.09873497486114502 47.600589752197266 5.595302581787109 42.08551025390625 13.203619956970215 40.04491424560547 C 21.987712860107422 42.306739807128906 27.109580993652344 48.25614547729492 29.853239059448242 56.79645919799805" stroke-width="0.0" fill="rgb(0, 2, 0)" opacity="1.0"/>
    <path d="M 416.55609130859375 541.3366088867188 C 414.79229736328125 549.3220825195312 409.3536071777344 554.8822631835938 401.62030029296875 556.94873046875 C 392.7500305175781 554.8114013671875 387.2631530761719 549.2174072265625 385.40521240234375 541.6781616210938 C 388.6841125488281 534.1610717773438 394.1790771484375 528.7361450195312 401.0221252441406 526.8467407226562 C 407.84417724609375 528.7318115234375 413.5190734863281 534.0870971679688 416.55609130859375 541.3366088867188" stroke-width="0.0" fill="rgb(190, 156, 101)" opacity="0.99032986"/>
    <path d="M 320.7099609375 389.3062744140625 C 318.51568603515625 396.9095764160156 312.8271789550781 402.2700500488281 305.0992431640625 404.09478759765625 C 297.4677429199219 402.0054626464844 291.8495178222656 396.5768737792969 289.6155700683594 389.18682861328125 C 292.009765625 381.5000915527344 297.50006103515625 376.0096740722656 305.02508544921875 373.9838562011719 C 312.65789794921875 375.9040222167969 318.3213195800781 381.27032470703125 320.7099609375 389.3062744140625" stroke-width="0.0" fill="rgb(255, 235, 131)" opacity="0.99458784"/>
    <path d="M 395.93206787109375 405.3851318359375 C 393.8064880371094 413.19207763671875 388.03143310546875 418.359375 380.1040954589844 419.8894348144531 C 372.50537109375 417.9544982910156 367.0039367675781 412.5082092285156 365.675048828125 405.44390869140625 C 367.5919189453125 397.99554443359375 372.9293518066406 392.3876647949219 380.11767578125 390.2187194824219 C 387.9680480957031 391.80255126953125 393.78570556640625 396.8404235839844 395.93206787109375 405.3851318359375" stroke-width="0.0" fill="rgb(105, 35, 35)" opacity="0.9901035"/>
    <path d="M 500.8738708496094 314.245849609375 C 498.0902404785156 322.55792236328125 492.6128845214844 328.2477722167969 485.34417724609375 330.60308837890625 C 477.4993896484375 327.9906005859375 471.99871826171875 322.5035705566406 469.1507873535156 314.3086853027344 C 471.30670166015625 306.9873962402344 477.19635009765625 301.8380432128906 485.59576416015625 299.3423156738281 C 493.29669189453125 301.2103271484375 498.8467712402344 306.6821594238281 500.8738708496094 314.245849609375" stroke-width="0.0" fill="rgb(138, 36, 36)" opacity="1.0"/>
    <path d="M 393.55718994140625 384.37384033203125 C 391.61572265625 392.15533447265625 386.2183837890625 397.78607177734375 378.2539978027344 399.9029846191406 C 369.89642333984375 397.71478271484375 364.6076354980469 391.98870849609375 362.8713073730469 384.1482238769531 C 365.00970458984375 376.50006103515625 370.50006103515625 371.0096740722656 378.0000305175781 369.0000305175781 C 385.5003662109375 371.0094909667969 391.00396728515625 376.4959411621094 393.55718994140625 384.37384033203125" stroke-width="0.0" fill="rgb(255, 236, 135)" opacity="1.0"/>
    <path d="M 72.95723724365234 18.7487850189209 C 70.90775299072266 27.395816802978516 65.38774108886719 32.8880500793457 57.67363357543945 34.92884826660156 C 48.695098876953125 32.83781814575195 43.27546310424805 27.267688751220703 41.58224105834961 19.446399688720703 C 44.009620666503906 11.5 49.5 6.009618759155273 57.82572937011719 3.1221745014190674 C 65.39997100830078 5.096290588378906 70.9118423461914 10.596837997436523 72.95723724365234 18.7487850189209" stroke-width="0.0" fill="rgb(2, 2, 2)" opacity="0.99038297"/>
    <path d="M 212.6730194091797 66.38113403320312 C 209.99038696289062 74.5 204.5 79.9903793334961 196.26219177246094 82.8469467163086 C 188.70310974121094 80.81914520263672 183.15061950683594 75.31076049804688 181.0889892578125 67.74295043945312 C 183.5670928955078 59.263526916503906 189.40908813476562 53.96480178833008 197.5248260498047 51.45560836791992 C 205.2711639404297 53.24284744262695 210.79470825195312 58.71675109863281 212.6730194091797 66.38113403320312" stroke-width="0.0" fill="rgb(77, 205, 55)" opacity="1.0"/>
    <path d="M 111.8856201171875 23.387420654296875 C 109.4528579711914 31.750425338745117 103.587890625 37.010284423828125 95.68749237060547 39.23686218261719 C 87.78418731689453 37.632102966308594 82.15869903564453 32.285804748535156 80.06918334960938 23.464569091796875 C 82.1241226196289 15.643277168273926 87.64968872070312 10.139908790588379 95.1955337524414 8.227972984313965 C 103.75733184814453 11.371495246887207 109.75192260742188 15.910079956054688 111.8856201171875 23.387420654296875" stroke-width="0.0" fill="rgb(63, 205, 40)" opacity="1.0"/>
    <path d="M 483.94195556640625 46.68621826171875 C 481.8765563964844 55.3656005859375 476.36865234375 60.8836784362793 468.5303649902344 62.941505432128906 C 459.6427001953125 60.866920471191406 454.1246643066406 55.36079025268555 452.0626220703125 47.32355499267578 C 454.13446044921875 38.65099334716797 459.6537780761719 33.141258239746094 468.52935791015625 31.06558609008789 C 476.3732604980469 33.11469268798828 481.88458251953125 38.627113342285156 483.94195556640625 46.68621826171875" stroke-width="0.0" fill="rgb(255, 1, 1)" opacity="1.0"/>
    <path d="M 531.8253173828125 306.8788757324219 C 529.87744140625 314.36041259765625 524.3568115234375 319.8686828613281 515.9138793945312 321.9302062988281 C 507.65399169921875 319.86175537109375 502.13836669921875 314.34600830078125 500.0665283203125 306.2996520996094 C 502.2301330566406 298.0774230957031 509.08087158203125 293.7994384765625 515.4660034179688 291.943115234375 C 522.6513061523438 293.88739013671875 528.1295166015625 299.3419189453125 531.8253173828125 306.8788757324219" stroke-width="0.0" fill="rgb(142, 40, 43)" opacity="0.9900215"/>
    <path d="M 355.8483581542969 411.6195068359375 C 353.79150390625 419.2447509765625 348.2088928222656 424.6938781738281 340.1951599121094 426.71600341796875 C 332.0129089355469 424.5410461425781 326.5191955566406 418.9663391113281 324.3385009765625 410.80950927734375 C 326.5135803222656 403.10760498046875 332.15155029296875 397.6350402832031 339.924072265625 395.462646484375 C 347.8997497558594 397.6042785644531 353.5010070800781 403.064697265625 355.8483581542969 411.6195068359375" stroke-width="0.0" fill="rgb(255, 237, 134)" opacity="0.9933817"/>
    <path d="M 340.8769226074219 512.3150024414062 C 338.5192565917969 520.9033203125 332.8207702636719 526.2839965820312 324.9036560058594 527.584716796875 C 317.3023986816406 526.2854614257812 311.8865051269531 520.635009765625 309.1401062011719 512.3054809570312 C 311.17645263671875 504.69635009765625 316.6933898925781 499.1690979003906 324.947509765625 497.0849304199219 C 333.3166198730469 499.1631774902344 338.8324890136719 504.6851806640625 340.8769226074219 512.3150024414062" stroke-width="0.0" fill="rgb(252, 115, 2)" opacity="0.9900436"/>
    <path d="M 254.929931640625 360.7411193847656 C 252.8228302001953 369.2724304199219 247.21865844726562 374.6668395996094 238.26028442382812 376.8719787597656 C 230.66180419921875 374.85675048828125 225.1380615234375 369.34033203125 223.06689453125 361.3589782714844 C 225.1605682373047 352.7248840332031 230.82521057128906 347.5283203125 238.60958862304688 346.8049621582031 C 246.2176513671875 348.58740234375 252.7694091796875 352.9940185546875 254.929931640625 360.7411193847656" stroke-width="0.0" fill="rgb(137, 40, 41)" opacity="0.99055964"/>
    <path d="M 47.81132888793945 293.5254821777344 C 45.30735397338867 301.653564453125 39.5540657043457 307.0125427246094 31.9910831451416 309.01055908203125 C 24.364999771118164 307.0557861328125 18.481515884399414 301.8115234375 16.139110565185547 293.3170471191406 C 18.16069793701172 285.705810546875 23.749454498291016 280.2782287597656 32.11518859863281 278.3275451660156 C 40.09637451171875 280.37493896484375 45.6887092590332 285.8782043457031 47.81132888793945 293.5254821777344" stroke-width="0.0" fill="rgb(243, 189, 104)" opacity="1.0"/>
    <path d="M 82.74031066894531 136.64627075195312 C 80.78349304199219 144.2667999267578 75.27291107177734 149.79937744140625 66.51458740234375 151.90655517578125 C 58.706382751464844 149.8287353515625 53.209373474121094 144.27857971191406 51.22789764404297 136.48147583007812 C 53.29595947265625 127.76570892333984 58.72809600830078 122.18756866455078 66.29627227783203 120.19981384277344 C 74.49560546875 123.01187133789062 79.96703338623047 128.51046752929688 82.74031066894531 136.64627075195312" stroke-width="0.0" fill="rgb(67, 203, 44)" opacity="1.0"/>
    <path d="M 178.87254333496094 98.23184967041016 C 176.7596893310547 106.16368865966797 171.0475311279297 111.41098022460938 162.31100463867188 113.7579116821289 C 154.67530822753906 111.83659362792969 149.15892028808594 106.32588958740234 147.06741333007812 97.68603515625 C 149.15206909179688 89.67522430419922 154.6769256591797 84.1568374633789 163.11610412597656 82.07144927978516 C 171.2848663330078 84.17252349853516 176.7657012939453 89.74034881591797 178.87254333496094 98.23184967041016" stroke-width="0.0" fill="rgb(56, 165, 47)" opacity="1.0"/>
    <path d="M 225.93740844726562 76.99649047851562 C 223.86529541015625 85.34375762939453 218.33714294433594 90.8491439819336 210.49072265625 92.9013900756836 C 201.76426696777344 90.77783203125 196.30105590820312 85.2074966430664 194.48072814941406 77.47200012207031 C 197.01072692871094 69.50049591064453 202.49981689453125 64.0083999633789 210.72305297851562 61.172664642333984 C 218.31365966796875 63.1763801574707 223.85739135742188 68.67206573486328 225.93740844726562 76.99649047851562" stroke-width="0.0" fill="rgb(72, 202, 54)" opacity="1.0"/>
    <path d="M 37.961360931396484 258.27606201171875 C 35.90092468261719 266.38970947265625 30.38966178894043 271.9007873535156 22.03847312927246 273.9533386230469 C 13.609766960144043 271.9005432128906 8.10112190246582 266.38946533203125 6.057765483856201 258.800048828125 C 8.416123390197754 250.1439666748047 14.36134147644043 244.9510498046875 22.421058654785156 242.62489318847656 C 30.291637420654297 244.2732391357422 35.88925552368164 249.65208435058594 37.961360931396484 258.27606201171875" stroke-width="0.0" fill="rgb(0, 0, 0)" opacity="1.0"/>
    <path d="M 341.35479736328125 465.8733215332031 C 339.4869384765625 473.0938720703125 334.1703796386719 478.72808837890625 326.93017578125 480.9832458496094 C 319.5003662109375 478.9899597167969 314.01007080078125 473.4996337890625 311.99273681640625 465.9884033203125 C 313.9564514160156 458.4107971191406 319.3277587890625 452.7027587890625 327.1878662109375 450.2558898925781 C 334.60101318359375 452.6463317871094 339.65606689453125 458.6621398925781 341.35479736328125 465.8733215332031" stroke-width="0.0" fill="rgb(255, 236, 135)" opacity="0.99019057"/>
    <path d="M 549.9456176757812 64.4526138305664 C 547.8152465820312 73.16397857666016 541.3280029296875 77.25394439697266 534.52490234375 79.056884765625 C 527.3211059570312 77.12313079833984 521.7613525390625 71.71881866455078 518.8470458984375 64.33497619628906 C 520.233642578125 56.700260162353516 525.6661376953125 51.13487243652344 534.3229370117188 49.05937576293945 C 542.3587646484375 51.12758255004883 547.880615234375 56.63764190673828 549.9456176757812 64.4526138305664" stroke-width="0.0" fill="rgb(255, 6, 7)" opacity="0.99003494"/>
    <path d="M 298.94512939453125 32.544185638427734 C 296.8734436035156 41.358543395996094 291.3597717285156 46.87639236450195 282.7132568359375 48.946868896484375 C 274.6308288574219 46.88679122924805 269.1470947265625 41.356224060058594 267.07696533203125 32.407569885253906 C 269.125732421875 24.643007278442383 274.6430358886719 19.12569808959961 282.58587646484375 17.058786392211914 C 291.36822509765625 19.123676300048828 296.88629150390625 24.627704620361328 298.94512939453125 32.544185638427734" stroke-width="0.0" fill="rgb(252, 0, 0)" opacity="1.0"/>
    <path d="M 337.8745422363281 327.21551513671875 C 334.99005126953125 335.499755859375 329.4997863769531 340.9901428222656 321.4865417480469 343.5269775390625 C 313.72119140625 341.75299072265625 308.1521301269531 336.3125 306.0700988769531 327.78460693359375 C 308.1426696777344 319.6641845703125 313.671875 314.16156005859375 322.24310302734375 312.08062744140625 C 330.3216247558594 314.16162109375 335.8538818359375 319.6717224121094 337.8745422363281 327.21551513671875" stroke-width="0.0" fill="rgb(140, 36, 35)" opacity="1.0"/>
    <path d="M 32.937217712402344 244.20384216308594 C 30.58159065246582 252.85595703125 24.64145851135254 258.0506896972656 16.55187225341797 260.4059753417969 C 8.69599437713623 258.7442932128906 3.104644775390625 253.3567657470703 1.0386441946029663 244.55624389648438 C 3.087449312210083 236.594482421875 8.593324661254883 231.08477783203125 16.519611358642578 229.0379638671875 C 25.400651931762695 231.08978271484375 30.90427589416504 236.60191345214844 32.937217712402344 244.20384216308594" stroke-width="0.0" fill="rgb(0, 0, 0)" opacity="1.0"/>
    <path d="M 260.3198547363281 440.7021484375 C 257.9903869628906 448.5 252.5 453.9903869628906 244.82522583007812 456.2157897949219 C 237.17237854003906 454.3391418457031 231.6636962890625 448.82672119140625 229.5375213623047 440.8681640625 C 231.6265869140625 433.3055114746094 237.64698791503906 428.4579772949219 245.72621154785156 426.629638671875 C 253.14535522460938 427.27630615234375 258.5485534667969 432.9180603027344 260.3198547363281 440.7021484375" stroke-width="0.0" fill="rgb(252, 231, 132)" opacity="1.0"/>
    <path d="M 129.71725463867188 468.9523010253906 C 127.54967498779297 477.0376892089844 122.07722473144531 482.6527404785156 114.59640502929688 484.2162170410156 C 107.01075744628906 481.4606628417969 101.61371612548828 475.9632568359375 99.78921508789062 469.067138671875 C 101.64562225341797 462.094482421875 107.10267639160156 456.6665954589844 114.54224395751953 454.66571044921875 C 121.99195098876953 455.5379333496094 127.57516479492188 460.9725646972656 129.71725463867188 468.9523010253906" stroke-width="0.0" fill="rgb(243, 191, 109)" opacity="0.9900952"/>
    <path d="M 376.8405456542969 549.7723388671875 C 374.2342224121094 557.1439208984375 367.97265625 562.3655395507812 361.00604248046875 564.2011108398438 C 354.0227966308594 562.3870239257812 348.576416015625 556.9915771484375 346.478271484375 549.4051513671875 C 347.39129638671875 541.9402465820312 352.9635009765625 536.4546508789062 361.0360412597656 534.285888671875 C 369.045654296875 536.4468383789062 374.67791748046875 541.9053344726562 376.8405456542969 549.7723388671875" stroke-width="0.0" fill="rgb(245, 190, 105)" opacity="0.9900448"/>
    <path d="M 407.89471435546875 444.27880859375 C 404.31573486328125 451.7424621582031 398.6910705566406 457.1337585449219 391.6563415527344 459.0586853027344 C 385.26324462890625 457.1643371582031 379.4762268066406 451.8201904296875 376.0716247558594 444.2147216796875 C 378.1219482421875 436.6394348144531 383.6413879394531 431.1261291503906 391.3890686035156 429.06719970703125 C 400.2969970703125 431.1832275390625 405.8350830078125 436.69500732421875 407.89471435546875 444.27880859375" stroke-width="0.0" fill="rgb(143, 41, 40)" opacity="0.9900213"/>
    <path d="M 403.69390869140625 369.767333984375 C 401.45318603515625 377.9332275390625 395.9404296875 383.47314453125 388.2850646972656 385.35791015625 C 380.5000305175781 382.99029541015625 375.0094909667969 377.5000305175781 372.7944030761719 369.8320617675781 C 374.66778564453125 362.1733093261719 380.15802001953125 356.6189270019531 388.0264587402344 354.44720458984375 C 395.8673095703125 356.62164306640625 401.4942932128906 362.09173583984375 403.69390869140625 369.767333984375" stroke-width="0.0" fill="rgb(255, 236, 133)" opacity="0.9919531"/>
    <path d="M 491.4551086425781 296.5241394042969 C 489.2921447753906 303.7983093261719 483.7727966308594 309.2159423828125 476.33966064453125 311.13531494140625 C 469.00970458984375 310.4958801269531 463.67333984375 304.9443054199219 462.5190734863281 297.2495422363281 C 464.3061218261719 289.6774597167969 469.54681396484375 283.8635559082031 477.1842346191406 281.34637451171875 C 484.9915466308594 283.48504638671875 490.500732421875 289.0125427246094 491.4551086425781 296.5241394042969" stroke-width="0.0" fill="rgb(251, 232, 129)" opacity="0.99005246"/>
    <path d="M 166.9611053466797 38.165611267089844 C 164.86343383789062 47.33910369873047 159.33148193359375 52.84645462036133 150.4100341796875 54.9471435546875 C 142.67947387695312 52.87565994262695 137.3510284423828 47.24260711669922 135.6918487548828 39.20915985107422 C 137.52328491210938 30.880273818969727 142.74905395507812 25.158098220825195 151.7599334716797 23.039621353149414 C 159.41749572753906 25.0770320892334 164.92584228515625 30.58127212524414 166.9611053466797 38.165611267089844" stroke-width="0.0" fill="rgb(0, 0, 0)" opacity="1.0"/>
    <path d="M 36.066768646240234 321.52783203125 C 34.12234115600586 328.6405029296875 28.624982833862305 334.0846862792969 22.336164474487305 336.0340576171875 C 15.329565048217773 334.0903625488281 8.294965744018555 328.8957214355469 6.043737411499023 321.2779235839844 C 8.097987174987793 313.6221923828125 13.660046577453613 308.2276306152344 21.76749610900879 307.7865295410156 C 28.71683692932129 309.7749938964844 34.149784088134766 315.30712890625 36.066768646240234 321.52783203125" stroke-width="0.0" fill="rgb(6, 2, 7)" opacity="0.9900057"/>
    <path d="M 296.77667236328125 343.4908142089844 C 294.4800109863281 351.9141845703125 288.9147033691406 357.4815368652344 281.246826171875 359.648193359375 C 273.1153259277344 357.3950500488281 267.505615234375 351.9192199707031 265.3973693847656 344.3544921875 C 267.8771057128906 336.32843017578125 273.2552185058594 330.6543884277344 281.76904296875 328.13104248046875 C 289.3552551269531 330.12396240234375 294.81365966796875 335.6666564941406 296.77667236328125 343.4908142089844" stroke-width="0.0" fill="rgb(252, 232, 129)" opacity="1.0"/>
    <path d="M 268.9559631347656 39.34391784667969 C 266.9161376953125 47.41315460205078 261.4139404296875 52.91804504394531 253.84075927734375 54.93671798706055 C 245.32138061523438 52.377403259277344 239.9932403564453 46.54507064819336 237.45510864257812 38.43079376220703 C 239.18992614746094 30.652645111083984 244.61924743652344 25.093955993652344 253.46775817871094 23.03429412841797 C 261.40887451171875 25.082014083862305 266.90863037109375 30.595090866088867 268.9559631347656 39.34391784667969" stroke-width="0.0" fill="rgb(0, 0, 0)" opacity="1.0"/>
    <path d="M 295.1300964355469 372.9296569824219 C 293.1798095703125 380.7854919433594 287.9158630371094 386.5570068359375 279.6598205566406 388.8122863769531 C 271.8577880859375 386.6883239746094 266.3307189941406 381.1357116699219 264.22039794921875 372.71966552734375 C 266.2904052734375 364.89447021484375 271.98052978515625 359.5120849609375 280.0728454589844 357.3994140625 C 287.8935241699219 359.5262756347656 293.2802734375 365.16925048828125 295.1300964355469 372.9296569824219" stroke-width="0.0" fill="rgb(252, 231, 129)" opacity="1.0"/>
    <path d="M 606.33740234375 53.97189712524414 C 604.5546264648438 62.148780822753906 599.239990234375 67.81588745117188 591.4647216796875 69.92649841308594 C 583.0023803710938 67.6779556274414 577.8414916992188 61.79570007324219 575.9759521484375 54.012081146240234 C 577.885986328125 46.259151458740234 583.0415649414062 40.342227935791016 591.5863647460938 38.07185745239258 C 599.2675170898438 40.16271209716797 604.581298828125 45.82143020629883 606.33740234375 53.97189712524414" stroke-width="0.0" fill="rgb(255, 1, 2)" opacity="1.0"/>
    <path d="M 150.20880126953125 37.853275299072266 C 148.38250732421875 46.022552490234375 143.16070556640625 51.772090911865234 135.61178588867188 53.850704193115234 C 126.97472381591797 51.617042541503906 121.3833999633789 46.02476119995117 119.22562408447266 37.41392135620117 C 121.15235900878906 29.649761199951172 126.63211822509766 24.1085147857666 134.61029052734375 22.0441951751709 C 143.2809600830078 24.144725799560547 148.56295776367188 29.822715759277344 150.20880126953125 37.853275299072266" stroke-width="0.0" fill="rgb(2, 18, 3)" opacity="0.9900261"/>
    <path d="M 300.6601867675781 538.341796875 C 297.3871765136719 545.939208984375 291.9520568847656 551.4229125976562 284.9646911621094 553.3055419921875 C 278.0039978027344 551.4578857421875 272.5930480957031 545.977294921875 270.03070068359375 538.4564819335938 C 271.642822265625 531.2940673828125 277.4025573730469 525.962158203125 285.14288330078125 523.8528442382812 C 292.9254150390625 525.638916015625 298.637451171875 530.9765014648438 300.6601867675781 538.341796875" stroke-width="0.0" fill="rgb(247, 192, 111)" opacity="0.9900466"/>
    <path d="M 76.92830657958984 199.2097930908203 C 74.8625717163086 207.3424835205078 69.33841705322266 212.8531036376953 60.623050689697266 214.93324279785156 C 52.63509750366211 212.8764190673828 47.123531341552734 207.36492919921875 45.06619644165039 199.29551696777344 C 47.13862609863281 190.65719604492188 52.65776443481445 185.1396484375 61.37596130371094 183.0583953857422 C 69.34912872314453 185.1274871826172 74.85153198242188 190.65980529785156 76.92830657958984 199.2097930908203" stroke-width="0.0" fill="rgb(19, 179, 23)" opacity="1.0"/>
    <path d="M 152.95652770996094 68.95259094238281 C 150.9786834716797 76.49190521240234 145.49362182617188 81.98485565185547 137.21304321289062 84.87480163574219 C 129.652587890625 82.86207580566406 124.13771057128906 77.34745025634766 122.06613159179688 68.80975341796875 C 124.1490249633789 60.678855895996094 129.68771362304688 55.16982650756836 138.3367462158203 53.07170867919922 C 146.1372833251953 55.21577072143555 151.24493408203125 61.070838928222656 152.95652770996094 68.95259094238281" stroke-width="0.0" fill="rgb(47, 198, 28)" opacity="1.0"/>
  </g>
</svg>
