<?xml version="1.0" ?>
<svg xmlns="http://www.w3.org/2000/svg" version="1.1" width="600" height="600">
  <defs/>
  <g>
    <path d="M 531.9168090820312 262.2055969238281 C 529.8297729492188 270.3084411621094 524.3165893554688 275.84716796875 516.77880859375 277.78729248046875 C 508.53289794921875 274.8894958496094 503.0107727050781 269.4962463378906 500.1646728515625 261.2763366699219 C 502.1949157714844 253.74293518066406 507.7704772949219 248.26220703125 515.5643920898438 246.2026824951172 C 524.1410522460938 248.38446044921875 529.8036499023438 253.7808380126953 531.9168090820312 262.2055969238281" stroke-width="0.0" fill="rgb(207, 160, 143)" opacity="1.0"/>
    <path d="M 489.94512939453125 479.3052978515625 C 486.9427490234375 486.8089904785156 480.7040100097656 492.1368408203125 473.1103515625 495.78564453125 C 465.6352233886719 493.8832702636719 460.1175842285156 488.3642883300781 458.0914001464844 480.8470458984375 C 461.5865173339844 473.0133056640625 466.96539306640625 467.4383544921875 474.8456726074219 464.1002197265625 C 482.3759765625 466.10443115234375 487.87548828125 471.63311767578125 489.94512939453125 479.3052978515625" stroke-width="0.0" fill="rgb(86, 53, 36)" opacity="1.0"/>
    <path d="M 389.8896179199219 395.8139343261719 C 387.7895812988281 404.2676086425781 382.2733154296875 409.803955078125 374.1380310058594 411.8998718261719 C 365.7557678222656 409.79107666015625 360.312255859375 404.20721435546875 358.2427062988281 395.60247802734375 C 360.24066162109375 387.754638671875 365.7335510253906 382.1884765625 373.394287109375 380.10345458984375 C 382.22625732421875 382.26092529296875 387.7822570800781 387.75689697265625 389.8896179199219 395.8139343261719" stroke-width="0.0" fill="rgb(5, 206, 184)" opacity="1.0"/>
    <path d="M 355.9351806640625 508.6946716308594 C 353.884033203125 516.3591918945312 348.3462829589844 521.8543090820312 339.6047668457031 523.9263305664062 C 331.64910888671875 521.870361328125 326.1431579589844 516.3451538085938 324.0827331542969 508.57061767578125 C 326.20166015625 499.7255859375 331.7232666015625 494.1964416503906 339.80548095703125 492.11285400390625 C 348.2586364746094 494.21697998046875 353.79815673828125 499.7353515625 355.9351806640625 508.6946716308594" stroke-width="0.0" fill="rgb(188, 96, 37)" opacity="1.0"/>
    <path d="M 107.88084411621094 104.2215805053711 C 104.9903793334961 112.5 99.5 117.9903793334961 92.0 120.0 C 84.5 117.9903793334961 79.0096206665039 112.5 77.90472412109375 105.84672546386719 C 79.9272689819336 98.4045639038086 85.40620422363281 92.93145751953125 92.50761413574219 90.9660415649414 C 98.75868225097656 92.88615417480469 105.79954528808594 97.19313049316406 107.88084411621094 104.2215805053711" stroke-width="0.0" fill="rgb(2, 2, 2)" opacity="0.9900164"/>
    <path d="M 572.2575073242188 376.1119689941406 C 570.1227416992188 383.656494140625 564.6533813476562 389.115234375 557.2072143554688 391.0696105957031 C 549.7073364257812 390.7176208496094 544.1259765625 385.33984375 542.0453491210938 376.3302307128906 C 544.0916748046875 368.606689453125 549.616455078125 363.1151123046875 558.449462890625 361.05718994140625 C 566.3919067382812 363.1022644042969 571.8978271484375 368.6078796386719 572.2575073242188 376.1119689941406" stroke-width="0.0" fill="rgb(69, 54, 42)" opacity="0.9900242"/>
    <path d="M 350.8539123535156 162.60455322265625 C 348.7175598144531 171.19989013671875 343.2295227050781 176.78805541992188 335.6182556152344 178.85574340820312 C 327.7433776855469 176.29893493652344 322.3834228515625 170.1179962158203 320.3105163574219 162.42344665527344 C 321.28192138671875 154.7748260498047 326.73712158203125 149.18643188476562 334.7679748535156 147.1078338623047 C 343.3133850097656 149.16456604003906 348.8021545410156 154.6992950439453 350.8539123535156 162.60455322265625" stroke-width="0.0" fill="rgb(252, 185, 39)" opacity="1.0"/>
    <path d="M 523.9099731445312 420.5701599121094 C 521.8233642578125 429.3236389160156 516.3414306640625 434.8677673339844 508.5129089355469 436.92364501953125 C 499.8324890136719 434.7477722167969 494.3277587890625 429.13409423828125 492.1216735839844 420.3805847167969 C 494.1580810546875 412.6795349121094 499.6894836425781 407.18389892578125 507.56976318359375 405.1430358886719 C 516.2437133789062 407.26947021484375 521.846923828125 412.7076416015625 523.9099731445312 420.5701599121094" stroke-width="0.0" fill="rgb(250, 150, 108)" opacity="1.0"/>
    <path d="M 413.86224365234375 362.5097351074219 C 411.791259765625 370.2566833496094 406.23974609375 375.7470397949219 397.6731262207031 377.86077880859375 C 389.7840881347656 375.7550354003906 384.26812744140625 370.2070007324219 382.1803283691406 362.41693115234375 C 384.6404113769531 354.3160705566406 390.4359130859375 348.98345947265625 398.0928649902344 346.9263000488281 C 405.89141845703125 348.7060852050781 411.62396240234375 353.9951477050781 413.86224365234375 362.5097351074219" stroke-width="0.0" fill="rgb(255, 195, 40)" opacity="0.99536204"/>
    <path d="M 246.94271850585938 109.33193969726562 C 244.86306762695312 117.32804870605469 239.3094482421875 122.82099151611328 230.37106323242188 124.92691802978516 C 222.63099670410156 122.88472747802734 217.15171813964844 117.35575866699219 215.25686645507812 109.66877746582031 C 217.5260772705078 100.91617584228516 222.81130981445312 95.22188568115234 231.32456970214844 93.08338928222656 C 239.30337524414062 95.17449951171875 244.84288024902344 100.68891143798828 246.94271850585938 109.33193969726562" stroke-width="0.0" fill="rgb(153, 62, 52)" opacity="1.0"/>
    <path d="M 86.94143676757812 377.38385009765625 C 84.8821792602539 385.36346435546875 79.35028839111328 390.8486328125 70.95043182373047 392.9136657714844 C 62.678733825683594 390.8352355957031 57.144447326660156 385.329833984375 55.067813873291016 377.4551696777344 C 57.213985443115234 368.8160400390625 62.94077682495117 363.56396484375 71.3176498413086 361.5947570800781 C 79.24577331542969 363.31201171875 84.84970092773438 368.6983947753906 86.94143676757812 377.38385009765625" stroke-width="0.0" fill="rgb(216, 55, 33)" opacity="1.0"/>
    <path d="M 253.8689727783203 299.12042236328125 C 251.73960876464844 307.1833190917969 246.1414794921875 312.6208801269531 238.03582763671875 314.56341552734375 C 229.86195373535156 312.6098937988281 224.24305725097656 307.1912841796875 222.13140869140625 299.32421875 C 224.26779174804688 290.8046569824219 229.81275939941406 285.2889099121094 238.18258666992188 283.1505126953125 C 246.18722534179688 285.2712707519531 251.7224884033203 290.8153076171875 253.8689727783203 299.12042236328125" stroke-width="0.0" fill="rgb(255, 190, 39)" opacity="1.0"/>
    <path d="M 515.914794921875 276.7401428222656 C 513.8544311523438 284.32476806640625 508.3155212402344 289.83258056640625 500.6559753417969 291.8900451660156 C 492.1997375488281 289.4963073730469 486.9449462890625 283.63665771484375 484.5807800292969 275.5954284667969 C 486.32989501953125 267.79803466796875 491.7513427734375 262.1988220214844 499.3451232910156 260.1297302246094 C 508.01141357421875 262.4674072265625 513.6268310546875 267.9521179199219 515.914794921875 276.7401428222656" stroke-width="0.0" fill="rgb(207, 88, 29)" opacity="1.0"/>
    <path d="M 352.7967529296875 357.3699645996094 C 350.0187683105469 365.5086975097656 344.5008850097656 370.99066162109375 336.6661682128906 373.36328125 C 328.8927307128906 371.58251953125 323.2756652832031 366.15777587890625 321.1421813964844 358.0863952636719 C 323.251220703125 349.7818603515625 328.7902526855469 344.2734680175781 337.2394104003906 342.1564636230469 C 345.20684814453125 344.262451171875 350.7561340332031 349.7852478027344 352.7967529296875 357.3699645996094" stroke-width="0.0" fill="rgb(255, 193, 41)" opacity="1.0"/>
    <path d="M 311.8371276855469 294.7445068359375 C 309.8319396972656 302.3086853027344 304.3012390136719 307.8131408691406 296.1233825683594 309.89501953125 C 287.7204284667969 307.8002624511719 282.1772155761719 302.2890319824219 280.0821838378906 293.9786071777344 C 282.15191650390625 285.66387939453125 287.67156982421875 280.1749572753906 295.3517761230469 278.318603515625 C 303.5 281.0096130371094 308.9884948730469 286.5005187988281 311.8371276855469 294.7445068359375" stroke-width="0.0" fill="rgb(4, 207, 185)" opacity="1.0"/>
    <path d="M 480.9103698730469 191.8212890625 C 478.9004821777344 199.37306213378906 473.33367919921875 204.7802734375 465.29803466796875 206.660400390625 C 456.9876708984375 204.57827758789062 451.4647216796875 198.99522399902344 449.158203125 190.30361938476562 C 451.1331481933594 182.62442016601562 456.6097412109375 177.09432983398438 464.5572814941406 175.04287719726562 C 473.31927490234375 177.1294403076172 478.73529052734375 182.7351531982422 480.9103698730469 191.8212890625" stroke-width="0.0" fill="rgb(4, 2, 4)" opacity="0.9900161"/>
    <path d="M 398.8191833496094 254.31668090820312 C 396.02197265625 262.50970458984375 390.5010070800781 267.9906921386719 382.7632141113281 270.20953369140625 C 374.9061584472656 268.52032470703125 369.2452087402344 263.1750183105469 367.1344299316406 255.5063934326172 C 369.4932556152344 247.1707763671875 375.3228454589844 241.91433715820312 383.50860595703125 239.44049072265625 C 391.2443542480469 241.2664794921875 396.80499267578125 246.7301025390625 398.8191833496094 254.31668090820312" stroke-width="0.0" fill="rgb(6, 209, 186)" opacity="1.0"/>
    <path d="M 470.82586669921875 266.6147155761719 C 468.7660217285156 274.22943115234375 463.22625732421875 279.75830078125 455.2286376953125 281.8718566894531 C 446.7728271484375 279.7562561035156 441.2492370605469 274.2247619628906 439.1609191894531 266.45086669921875 C 441.53216552734375 258.2029724121094 447.34228515625 252.9250946044922 454.9866638183594 250.9918212890625 C 462.5341796875 252.99595642089844 468.22686767578125 258.39410400390625 470.82586669921875 266.6147155761719" stroke-width="0.0" fill="rgb(254, 195, 37)" opacity="1.0"/>
    <path d="M 496.0791931152344 81.9071273803711 C 495.8975524902344 89.3897705078125 490.3788146972656 94.86500549316406 482.7639465332031 96.64637756347656 C 475.31280517578125 93.22479248046875 469.91595458984375 87.63870239257812 467.9610900878906 80.20780944824219 C 469.69134521484375 74.19136047363281 475.28399658203125 68.88130950927734 481.368408203125 66.96454620361328 C 488.6065979003906 68.9253921508789 494.08160400390625 74.39027404785156 496.0791931152344 81.9071273803711" stroke-width="0.0" fill="rgb(2, 2, 2)" opacity="0.9900069"/>
    <path d="M 400.93231201171875 476.5570068359375 C 398.8308410644531 485.2982177734375 393.2869873046875 490.8039245605469 385.30291748046875 492.8962097167969 C 376.9031066894531 490.70550537109375 371.32867431640625 485.0763244628906 369.1061096191406 477.47515869140625 C 371.3628845214844 468.92120361328125 376.9222412109375 463.3656921386719 384.8016357421875 461.25262451171875 C 393.2348937988281 463.31170654296875 398.8524475097656 468.7032165527344 400.93231201171875 476.5570068359375" stroke-width="0.0" fill="rgb(144, 81, 44)" opacity="0.9903096"/>
    <path d="M 313.8731994628906 423.8183898925781 C 311.7271423339844 432.1855163574219 306.1784973144531 437.7072448730469 298.4881286621094 439.6564025878906 C 289.97723388671875 437.4319763183594 284.3228454589844 432.10186767578125 282.1605224609375 423.3753662109375 C 284.1805114746094 415.7160339355469 289.73638916015625 410.23211669921875 298.27301025390625 408.12261962890625 C 306.2192077636719 410.24078369140625 311.75775146484375 415.7812805175781 313.8731994628906 423.8183898925781" stroke-width="0.0" fill="rgb(252, 189, 38)" opacity="1.0"/>
    <path d="M 488.8919982910156 451.6830749511719 C 486.8580017089844 459.3390808105469 481.3343505859375 464.8459777832031 473.6570739746094 466.8512268066406 C 464.8665771484375 464.615478515625 459.2143249511719 459.20306396484375 457.0910949707031 450.8104553222656 C 459.1545715332031 442.6678771972656 464.6642761230469 437.1458740234375 472.6727294921875 435.08154296875 C 481.23699951171875 437.1919860839844 486.6962890625 442.8121337890625 488.8919982910156 451.6830749511719" stroke-width="0.0" fill="rgb(252, 144, 105)" opacity="1.0"/>
    <path d="M 108.90910339355469 275.4952087402344 C 106.85469818115234 283.33917236328125 101.33590698242188 288.84625244140625 93.1191635131836 290.9153747558594 C 84.70378112792969 288.8233337402344 79.19856262207031 283.28741455078125 77.08100128173828 274.45233154296875 C 79.15217590332031 266.6800537109375 84.68907165527344 261.1735534667969 93.16940307617188 259.0857238769531 C 101.28154754638672 261.1845397949219 106.79771423339844 266.72589111328125 108.90910339355469 275.4952087402344" stroke-width="0.0" fill="rgb(221, 54, 34)" opacity="1.0"/>
    <path d="M 203.24624633789062 275.2646484375 C 201.61221313476562 283.20294189453125 196.2790985107422 288.8388671875 188.68914794921875 290.8692626953125 C 179.78182983398438 288.7123718261719 174.22354125976562 283.24041748046875 172.09765625 274.663818359375 C 174.18154907226562 266.70770263671875 179.71295166015625 261.1949157714844 187.5683135986328 259.1168518066406 C 195.94854736328125 261.3890686035156 201.17568969726562 267.21002197265625 203.24624633789062 275.2646484375" stroke-width="0.0" fill="rgb(7, 206, 186)" opacity="1.0"/>
    <path d="M 127.9095687866211 410.3594665527344 C 125.81014251708984 418.28826904296875 120.2926254272461 423.82012939453125 112.71240997314453 425.8482360839844 C 104.4754409790039 423.06134033203125 99.00806427001953 417.50457763671875 96.99996185302734 410.0001220703125 C 99.0096206665039 402.5 104.5 397.0096130371094 112.18716430664062 394.8471374511719 C 120.0625228881836 396.53314208984375 125.75865936279297 401.8350830078125 127.9095687866211 410.3594665527344" stroke-width="0.0" fill="rgb(211, 74, 31)" opacity="1.0"/>
    <path d="M 128.7351531982422 115.43809509277344 C 126.6457290649414 123.08773040771484 121.0582504272461 128.56568908691406 113.48461151123047 130.49951171875 C 105.79646301269531 127.62225341796875 100.24348449707031 122.24549102783203 98.54801177978516 115.52112579345703 C 100.79827880859375 108.30142211914062 106.31070709228516 102.82816314697266 113.4921875 100.7769546508789 C 120.69450378417969 101.81637573242188 126.21145629882812 107.30046081542969 128.7351531982422 115.43809509277344" stroke-width="0.0" fill="rgb(249, 249, 250)" opacity="0.99013954"/>
    <path d="M 411.8556213378906 444.68341064453125 C 409.70013427734375 453.171630859375 404.1773681640625 458.7148742675781 395.8619384765625 460.8520812988281 C 387.7866516113281 458.7488708496094 382.2567443847656 453.2105407714844 380.131591796875 445.331298828125 C 382.32061767578125 436.8935546875 387.9549255371094 431.5025329589844 396.6720275878906 429.4765930175781 C 404.2540283203125 431.2135009765625 409.7640380859375 436.75518798828125 411.8556213378906 444.68341064453125" stroke-width="0.0" fill="rgb(252, 189, 36)" opacity="1.0"/>
    <path d="M 429.7138977050781 406.0222473144531 C 427.6224060058594 414.0629577636719 422.05242919921875 419.5990295410156 413.47137451171875 421.87066650390625 C 405.8373718261719 419.7545166015625 400.4368591308594 414.08612060546875 399.59136962890625 406.4726257324219 C 400.8330383300781 398.0237731933594 405.8602294921875 392.24847412109375 413.8503723144531 390.10693359375 C 422.209228515625 392.2437744140625 427.6804504394531 397.81817626953125 429.7138977050781 406.0222473144531" stroke-width="0.0" fill="rgb(227, 194, 89)" opacity="1.0"/>
    <path d="M 437.8563537597656 489.55865478515625 C 435.817626953125 497.30517578125 430.3070983886719 502.8226623535156 422.79681396484375 503.2822570800781 C 414.4331359863281 501.4463806152344 408.3054504394531 497.0244140625 406.11444091796875 488.5900573730469 C 408.2032470703125 480.7441101074219 413.7526550292969 475.2228088378906 421.65313720703125 473.12786865234375 C 430.13348388671875 475.2945251464844 435.6268615722656 480.8992614746094 437.8563537597656 489.55865478515625" stroke-width="0.0" fill="rgb(252, 166, 144)" opacity="1.0"/>
    <path d="M 308.87738037109375 196.95655822753906 C 306.7436828613281 205.17877197265625 301.1184997558594 210.56723022460938 292.7431335449219 212.6996612548828 C 285.2831726074219 210.40394592285156 279.9759826660156 204.5808563232422 277.9909973144531 196.9888916015625 C 279.9240417480469 189.3394775390625 285.1977844238281 183.525634765625 293.6419372558594 181.12802124023438 C 301.2750244140625 183.18885803222656 306.7783203125 188.73834228515625 308.87738037109375 196.95655822753906" stroke-width="0.0" fill="rgb(7, 209, 187)" opacity="1.0"/>
    <path d="M 429.9505920410156 516.65380859375 C 427.90673828125 524.3964233398438 422.3970947265625 529.9080200195312 414.5501403808594 531.955810546875 C 405.6144104003906 529.8928833007812 400.1021728515625 524.3876342773438 398.04736328125 515.8117065429688 C 400.10235595703125 507.6128845214844 405.6189880371094 502.11920166015625 413.80914306640625 500.1531982421875 C 422.3631286621094 502.1364440917969 427.88079833984375 507.6305847167969 429.9505920410156 516.65380859375" stroke-width="0.0" fill="rgb(84, 52, 26)" opacity="1.0"/>
    <path d="M 84.90626525878906 358.4034423828125 C 82.85449981689453 366.311767578125 77.26544952392578 371.7244873046875 69.55777740478516 372.33941650390625 C 61.15185546875 370.7410888671875 55.272850036621094 366.0912780761719 53.143367767333984 357.85247802734375 C 55.22676467895508 349.7506408691406 60.73310470581055 344.1859130859375 69.70738983154297 342.0544738769531 C 77.37074279785156 344.1032409667969 82.8458251953125 349.6508483886719 84.90626525878906 358.4034423828125" stroke-width="0.0" fill="rgb(53, 12, 10)" opacity="0.99003327"/>
    <path d="M 581.9570922851562 344.61480712890625 C 579.9125366210938 352.4057312011719 574.4081420898438 357.91802978515625 566.8147583007812 359.954833984375 C 557.8048706054688 357.7991027832031 552.5747680664062 352.06103515625 550.9022216796875 344.13494873046875 C 552.9509887695312 336.3631286621094 558.1589965820312 330.4371337890625 566.5997924804688 328.0942077636719 C 574.3495483398438 330.1451416015625 579.8849487304688 335.6377868652344 581.9570922851562 344.61480712890625" stroke-width="0.0" fill="rgb(96, 57, 34)" opacity="1.0"/>
    <path d="M 300.0025634765625 198.00917053222656 C 298.064453125 205.64125061035156 292.7660217285156 211.4250030517578 284.3994140625 213.84115600585938 C 276.9980773925781 211.68821716308594 271.84942626953125 205.78817749023438 269.6722412109375 197.6541290283203 C 271.3407897949219 189.7791290283203 276.725830078125 184.17942810058594 284.3788757324219 182.13284301757812 C 292.7306213378906 184.57302856445312 298.0238952636719 190.41612243652344 300.0025634765625 198.00917053222656" stroke-width="0.0" fill="rgb(9, 201, 180)" opacity="1.0"/>
    <path d="M 197.90982055664062 133.36817932128906 C 195.5135498046875 141.85842895507812 189.89419555664062 147.57650756835938 182.6058349609375 149.80050659179688 C 174.5 146.99038696289062 169.00961303710938 141.5 166.16282653808594 133.26779174804688 C 168.17691040039062 125.69646453857422 173.6919403076172 120.16653442382812 181.751708984375 118.08964538574219 C 190.29225158691406 120.18539428710938 195.82479858398438 125.70372772216797 197.90982055664062 133.36817932128906" stroke-width="0.0" fill="rgb(217, 54, 35)" opacity="1.0"/>
    <path d="M 197.88406372070312 302.0272521972656 C 195.76492309570312 310.23046875 190.2233123779297 315.74609375 182.0046844482422 317.84710693359375 C 173.7993621826172 315.7262268066406 168.2541961669922 310.20819091796875 166.1332244873047 302.05023193359375 C 168.2672119140625 293.7843017578125 173.76365661621094 288.2176513671875 181.33187866210938 286.30499267578125 C 190.19676208496094 288.3383483886719 195.7632293701172 293.7717590332031 197.88406372070312 302.0272521972656" stroke-width="0.0" fill="rgb(252, 192, 39)" opacity="1.0"/>
    <path d="M 360.83465576171875 378.6657409667969 C 358.7710876464844 386.1899108886719 353.0978698730469 391.49981689453125 344.8834533691406 393.3590393066406 C 336.896728515625 391.55352783203125 331.2767333984375 386.1604309082031 329.1932678222656 378.4964294433594 C 331.6697692871094 370.3262939453125 337.43157958984375 364.9793701171875 344.9961853027344 362.99822998046875 C 352.5052490234375 365.0078430175781 358.0730895996094 370.47125244140625 360.83465576171875 378.6657409667969" stroke-width="0.0" fill="rgb(251, 191, 41)" opacity="1.0"/>
    <path d="M 215.9234619140625 151.7031707763672 C 213.8871307373047 159.37147521972656 208.36383056640625 164.8687286376953 200.0417022705078 166.93350219726562 C 191.69207763671875 164.8354949951172 186.16583251953125 159.3073272705078 184.09591674804688 151.64161682128906 C 186.41390991210938 143.05958557128906 192.0303192138672 137.3639678955078 200.4600372314453 135.08306884765625 C 208.27999877929688 137.19082641601562 213.7985076904297 142.72421264648438 215.9234619140625 151.7031707763672" stroke-width="0.0" fill="rgb(203, 94, 30)" opacity="1.0"/>
    <path d="M 361.1571960449219 398.2748718261719 C 360.446533203125 405.96661376953125 354.99359130859375 411.5445251464844 347.4725646972656 413.8637390136719 C 340.03466796875 410.43450927734375 334.51507568359375 404.9851989746094 332.9023132324219 398.5306701660156 C 334.80322265625 391.25616455078125 340.24652099609375 385.7747802734375 347.6404724121094 383.5989990234375 C 355.1832275390625 384.3387145996094 360.45849609375 389.8540954589844 361.1571960449219 398.2748718261719" stroke-width="0.0" fill="rgb(11, 2, 3)" opacity="0.9900075"/>
    <path d="M 187.0223388671875 72.00279235839844 C 185.11004638671875 79.71794128417969 179.8822479248047 85.55923461914062 172.100341796875 87.6203384399414 C 164.2216796875 85.45768737792969 158.93899536132812 79.63616943359375 156.99659729003906 72.01725769042969 C 159.0413055419922 64.56015014648438 164.6042938232422 59.183326721191406 172.29461669921875 56.437286376953125 C 179.71487426757812 58.67625427246094 185.0745849609375 64.36577606201172 187.0223388671875 72.00279235839844" stroke-width="0.0" fill="rgb(249, 249, 249)" opacity="1.0"/>
    <path d="M 594.0303344726562 268.16656494140625 C 592.0718994140625 274.61834716796875 586.6764526367188 280.375244140625 580.499755859375 283.92425537109375 C 572.31689453125 281.3854064941406 566.9930419921875 275.54583740234375 564.9984130859375 267.99835205078125 C 566.97705078125 260.4156188964844 572.2256469726562 254.49461364746094 580.3026123046875 252.07151794433594 C 586.6767578125 255.62815856933594 592.07275390625 261.3808898925781 594.0303344726562 268.16656494140625" stroke-width="0.0" fill="rgb(2, 2, 2)" opacity="0.99001443"/>
    <path d="M 243.84902954101562 456.77935791015625 C 241.84080505371094 464.30181884765625 236.28575134277344 469.80377197265625 228.27085876464844 471.8885803222656 C 219.7921142578125 469.748291015625 214.27236938476562 464.1998291015625 212.1555633544922 456.0214538574219 C 214.28512573242188 447.8141784667969 219.7965850830078 442.2414245605469 227.3186492919922 440.1944580078125 C 235.6764678955078 442.7103576660156 241.0958251953125 448.3841552734375 243.84902954101562 456.77935791015625" stroke-width="0.0" fill="rgb(242, 197, 53)" opacity="1.0"/>
    <path d="M 554.0316162109375 416.105224609375 C 552.0742797851562 422.6011657714844 546.5982055664062 428.0675048828125 539.1649169921875 430.0351867675781 C 531.7846069335938 429.0327453613281 526.1453857421875 424.312255859375 524.047607421875 415.25360107421875 C 526.0910034179688 407.60076904296875 531.6016235351562 402.09320068359375 539.1502075195312 400.0699157714844 C 546.7095947265625 403.63079833984375 552.0845336914062 409.35888671875 554.0316162109375 416.105224609375" stroke-width="0.0" fill="rgb(8, 4, 3)" opacity="0.9900061"/>
    <path d="M 340.92901611328125 538.1361694335938 C 337.128173828125 545.621826171875 331.6029357910156 551.0700073242188 324.7473449707031 553.0332641601562 C 318.370361328125 551.0828247070312 312.65728759765625 545.6839599609375 309.0649108886719 538.3617553710938 C 311.12689208984375 530.63916015625 316.634521484375 525.1161499023438 324.5316467285156 523.0536499023438 C 333.3572082519531 525.129150390625 338.8873596191406 530.6353149414062 340.92901611328125 538.1361694335938" stroke-width="0.0" fill="rgb(2, 2, 2)" opacity="0.990008"/>
    <path d="M 451.73516845703125 435.4601135253906 C 449.011474609375 443.50616455078125 443.5003967285156 448.9905090332031 435.8014221191406 451.1754150390625 C 427.96392822265625 449.4630126953125 422.3017272949219 444.1155700683594 420.2554931640625 436.5979309082031 C 423.0096130371094 428.5 428.5 423.0096130371094 436.19891357421875 420.8335266113281 C 444.0492248535156 422.52801513671875 449.7029724121094 427.87420654296875 451.73516845703125 435.4601135253906" stroke-width="0.0" fill="rgb(246, 200, 69)" opacity="1.0"/>
    <path d="M 45.9268798828125 297.1405334472656 C 43.8565673828125 305.3341064453125 38.328224182128906 310.8428955078125 29.782501220703125 312.9239196777344 C 21.64116859436035 310.867431640625 16.142698287963867 305.35546875 14.107930183410645 296.5780944824219 C 16.134227752685547 288.6537780761719 21.665184020996094 283.16241455078125 29.98523712158203 281.08477783203125 C 38.3060302734375 283.1773986816406 43.84360885620117 288.68505859375 45.9268798828125 297.1405334472656" stroke-width="0.0" fill="rgb(217, 51, 33)" opacity="1.0"/>
    <path d="M 519.9054565429688 352.3645935058594 C 517.8261108398438 360.3066711425781 512.3101196289062 365.8338623046875 503.548828125 367.922607421875 C 495.6728515625 365.8520202636719 490.20587158203125 360.3068542480469 488.37176513671875 352.53826904296875 C 490.5382080078125 343.9464111328125 495.83477783203125 338.2325744628906 504.44342041015625 336.069091796875 C 512.3096923828125 338.1602783203125 517.810791015625 343.7018737792969 519.9054565429688 352.3645935058594" stroke-width="0.0" fill="rgb(201, 89, 30)" opacity="1.0"/>
    <path d="M 477.86663818359375 405.3348083496094 C 475.6590576171875 414.10711669921875 470.09124755859375 419.616943359375 461.3506164550781 421.8137512207031 C 453.76861572265625 419.81683349609375 448.5985107421875 414.103759765625 447.129150390625 406.1238098144531 C 449.2900695800781 398.8825378417969 454.994384765625 393.62548828125 462.6341247558594 391.7714538574219 C 470.2821044921875 392.2373046875 475.8313293457031 397.69464111328125 477.86663818359375 405.3348083496094" stroke-width="0.0" fill="rgb(42, 25, 6)" opacity="0.9900125"/>
    <path d="M 314.8849182128906 222.3069610595703 C 311.3325500488281 229.8392333984375 305.8350524902344 235.31150817871094 299.2568664550781 237.0967254638672 C 292.1445007324219 235.31549072265625 286.7615966796875 229.82321166992188 284.82391357421875 222.19732666015625 C 285.2948913574219 215.07449340820312 291.93597412109375 210.73550415039062 299.7135009765625 208.8719024658203 C 307.001220703125 209.48388671875 312.65966796875 214.9442901611328 314.8849182128906 222.3069610595703" stroke-width="0.0" fill="rgb(5, 3, 2)" opacity="0.9900069"/>
    <path d="M 312.832763671875 156.5363311767578 C 310.85321044921875 164.31915283203125 305.2748718261719 169.71510314941406 296.3731689453125 171.7129364013672 C 288.7012939453125 169.83169555664062 283.2496032714844 164.2694091796875 282.7121887207031 156.65516662597656 C 283.5852355957031 147.80975341796875 288.7075500488281 142.1494598388672 296.45880126953125 140.11474609375 C 305.3137512207031 142.1702117919922 310.7887268066406 147.70021057128906 312.832763671875 156.5363311767578" stroke-width="0.0" fill="rgb(52, 6, 9)" opacity="0.99000996"/>
    <path d="M 219.87908935546875 273.21295166015625 C 217.8073272705078 281.2625732421875 212.22499084472656 286.70318603515625 203.56834411621094 288.8545227050781 C 195.9687957763672 286.681396484375 190.76016235351562 280.86895751953125 188.8440399169922 272.8875427246094 C 190.5698699951172 264.966552734375 195.8550567626953 259.25323486328125 203.74928283691406 257.1101989746094 C 212.2520751953125 259.2240295410156 217.79173278808594 264.7416076660156 219.87908935546875 273.21295166015625" stroke-width="0.0" fill="rgb(10, 206, 186)" opacity="1.0"/>
    <path d="M 103.07180786132812 110.10783386230469 C 101.0704574584961 117.59725189208984 95.59749603271484 123.07124328613281 88.12173461914062 125.12940216064453 C 82.3453140258789 123.23297119140625 76.9264907836914 117.61454772949219 74.96749114990234 110.3140640258789 C 76.8738784790039 104.27217864990234 82.15081024169922 98.53231048583984 89.20050048828125 96.06521606445312 C 96.75149536132812 97.86868286132812 102.6351547241211 103.0530776977539 103.07180786132812 110.10783386230469" stroke-width="0.0" fill="rgb(2, 2, 3)" opacity="0.99001324"/>
    <path d="M 494.481689453125 102.62774658203125 C 491.8238220214844 110.30675506591797 486.2969665527344 115.7834701538086 478.7120666503906 117.62064361572266 C 472.0184326171875 116.00993347167969 466.61065673828125 109.8962631225586 464.45977783203125 103.09309387207031 C 465.6580810546875 94.99375915527344 470.8277893066406 89.2048568725586 479.3038024902344 87.05191040039062 C 487.26947021484375 89.15573120117188 492.61614990234375 94.8193359375 494.481689453125 102.62774658203125" stroke-width="0.0" fill="rgb(249, 249, 248)" opacity="1.0"/>
    <path d="M 361.91796875 91.09666442871094 C 359.8161926269531 99.24854278564453 354.16949462890625 104.58678436279297 345.4544677734375 106.6708984375 C 337.67596435546875 104.8115234375 332.1458435058594 99.33843231201172 330.1007080078125 91.57020568847656 C 332.2071228027344 82.71379852294922 337.69415283203125 77.1586685180664 345.66302490234375 75.07217407226562 C 354.314453125 77.16583251953125 359.8336181640625 82.68563079833984 361.91796875 91.09666442871094" stroke-width="0.0" fill="rgb(219, 56, 33)" opacity="1.0"/>
    <path d="M 174.8888397216797 212.28659057617188 C 172.81480407714844 220.29322814941406 167.29345703125 225.8154754638672 159.02561950683594 227.90487670898438 C 150.7006072998047 225.81129455566406 145.1459197998047 220.31787109375 143.1105194091797 212.8031463623047 C 146.01312255859375 204.50025939941406 151.4917449951172 198.9822998046875 159.74659729003906 196.1352996826172 C 167.30470275878906 198.16769409179688 172.80738830566406 203.70506286621094 174.8888397216797 212.28659057617188" stroke-width="0.0" fill="rgb(207, 96, 29)" opacity="1.0"/>
    <path d="M 269.8944396972656 334.3834533691406 C 267.7572326660156 343.2030334472656 262.1822204589844 348.7044982910156 254.54315185546875 350.65997314453125 C 246.5000457763672 347.990234375 241.00961303710938 342.5 238.99989318847656 334.99969482421875 C 241.00567626953125 327.4888610839844 246.4498291015625 321.8760070800781 254.72911071777344 319.15765380859375 C 262.36102294921875 321.1351013183594 267.8717346191406 326.6365966796875 269.8944396972656 334.3834533691406" stroke-width="0.0" fill="rgb(252, 187, 40)" opacity="1.0"/>
    <path d="M 280.9422607421875 541.4567260742188 C 278.85498046875 549.226806640625 272.2520446777344 553.1954956054688 265.7540283203125 555.0338745117188 C 258.37530517578125 553.0739135742188 252.37973022460938 547.69921875 249.0543670654297 540.332763671875 C 251.1278076171875 532.6530151367188 256.6602783203125 527.1432495117188 265.6326599121094 525.0460205078125 C 273.36151123046875 527.1141967773438 278.8617248535156 532.6492309570312 280.9422607421875 541.4567260742188" stroke-width="0.0" fill="rgb(10, 5, 6)" opacity="0.9900146"/>
    <path d="M 328.9029846191406 275.3485412597656 C 326.6731262207031 284.12109375 321.1539001464844 289.7415466308594 313.6882019042969 291.8293151855469 C 305.5 288.9903869628906 300.0096130371094 283.5 297.6575622558594 275.6367492675781 C 299.3489685058594 267.7974853515625 304.74200439453125 262.1882019042969 313.38763427734375 260.0732727050781 C 321.32025146484375 262.1510009765625 326.8306579589844 267.6878662109375 328.9029846191406 275.3485412597656" stroke-width="0.0" fill="rgb(232, 35, 17)" opacity="1.0"/>
    <path d="M 17.062152862548828 298.8302917480469 C 15.207049369812012 305.8072509765625 9.895456314086914 311.4692687988281 2.921708345413208 314.3627624511719 C -4.5079264640808105 312.0094909667969 -9.99150562286377 306.5027770996094 -12.000078201293945 299.00006103515625 C -9.991219520568848 291.4976501464844 -4.513741493225098 285.9683532714844 2.6784534454345703 283.7262878417969 C 9.892369270324707 286.58428955078125 15.209837913513184 292.1852722167969 17.062152862548828 298.8302917480469" stroke-width="0.0" fill="rgb(250, 249, 249)" opacity="0.99041855"/>
    <path d="M 456.9158935546875 402.7314453125 C 454.7852478027344 411.24298095703125 449.2284240722656 416.7501525878906 441.6131896972656 418.7677917480469 C 433.0965270996094 416.32196044921875 427.4427795410156 410.97857666015625 425.2462158203125 402.5958251953125 C 427.2728576660156 394.8017578125 432.8034973144531 389.2766418457031 441.3318786621094 387.1399841308594 C 449.2307434082031 389.2376403808594 454.7903747558594 394.75714111328125 456.9158935546875 402.7314453125" stroke-width="0.0" fill="rgb(255, 193, 41)" opacity="1.0"/>
    <path d="M 406.82818603515625 539.2471923828125 C 403.53399658203125 547.0711059570312 398.0370788574219 552.440673828125 391.2716369628906 554.2094116210938 C 384.1082763671875 552.3246459960938 378.600341796875 546.9173583984375 375.1178894042969 539.1650390625 C 377.1220703125 531.640625 382.6468200683594 526.136962890625 390.5334777832031 524.0892333984375 C 399.28839111328125 526.1813354492188 404.81005859375 531.715576171875 406.82818603515625 539.2471923828125" stroke-width="0.0" fill="rgb(161, 162, 162)" opacity="1.0"/>
    <path d="M 410.85009765625 187.7048797607422 C 408.63818359375 196.08889770507812 403.1077575683594 201.6805419921875 394.7745056152344 203.86097717285156 C 386.79443359375 201.74281311035156 381.25640869140625 196.2059783935547 379.11474609375 187.79600524902344 C 381.2353210449219 179.7740020751953 386.77423095703125 174.23532104492188 395.35784912109375 172.10098266601562 C 403.2618408203125 174.19142150878906 408.7545471191406 179.76077270507812 410.85009765625 187.7048797607422" stroke-width="0.0" fill="rgb(252, 191, 38)" opacity="1.0"/>
    <path d="M 379.9121398925781 493.71539306640625 C 377.8663024902344 501.3511962890625 372.35400390625 506.872802734375 364.10284423828125 508.9425354003906 C 355.65478515625 506.8712158203125 350.15447998046875 501.3339538574219 348.151123046875 493.75579833984375 C 351.0076904296875 485.4944763183594 356.4778747558594 479.95013427734375 364.7680358886719 477.12042236328125 C 372.2213134765625 479.1895751953125 377.6539001464844 484.8531494140625 379.9121398925781 493.71539306640625" stroke-width="0.0" fill="rgb(198, 93, 28)" opacity="1.0"/>
    <path d="M 200.71612548828125 74.21573638916016 C 198.5975799560547 82.08119201660156 193.0873565673828 87.60659790039062 185.30093383789062 88.16523742675781 C 177.03880310058594 87.54913330078125 171.72235107421875 81.87400817871094 169.93739318847656 74.0891342163086 C 172.01963806152344 66.5146484375 177.5127410888672 61.0103759765625 185.04998779296875 58.96684646606445 C 192.87765502929688 60.66625213623047 198.44290161132812 66.09077453613281 200.71612548828125 74.21573638916016" stroke-width="0.0" fill="rgb(249, 249, 249)" opacity="1.0"/>
    <path d="M 446.755859375 426.4204406738281 C 444.0572814941406 434.5303649902344 438.5123596191406 439.9960632324219 430.8297424316406 442.16009521484375 C 423.0011291503906 440.41729736328125 417.32818603515625 435.0841979980469 415.13360595703125 426.60089111328125 C 417.2730712890625 418.86004638671875 422.91204833984375 413.39581298828125 430.5681457519531 411.35260009765625 C 438.95068359375 413.6560363769531 444.6805419921875 418.93292236328125 446.755859375 426.4204406738281" stroke-width="0.0" fill="rgb(252, 189, 41)" opacity="1.0"/>
    <path d="M 318.8541564941406 390.1311340332031 C 316.72467041015625 398.18133544921875 311.1820983886719 403.72711181640625 303.355224609375 405.85888671875 C 294.86480712890625 403.6709899902344 289.3185729980469 398.1392517089844 287.1368408203125 389.6606140136719 C 289.2709045410156 381.8199157714844 294.8323974609375 376.3026428222656 303.2143249511719 374.15985107421875 C 311.19342041015625 376.2683410644531 316.7208557128906 381.81085205078125 318.8541564941406 390.1311340332031" stroke-width="0.0" fill="rgb(245, 158, 41)" opacity="0.9902463"/>
    <path d="M 290.8063049316406 267.4009704589844 C 288.6943664550781 276.17474365234375 283.1907958984375 281.73590087890625 275.2214050292969 283.8540344238281 C 266.79937744140625 281.7291259765625 261.2706604003906 276.2005920410156 259.1540832519531 268.10943603515625 C 261.2771301269531 259.80181884765625 266.7915954589844 254.25146484375 275.09747314453125 252.1373291015625 C 283.23870849609375 254.23902893066406 288.805908203125 259.7419128417969 290.8063049316406 267.4009704589844" stroke-width="0.0" fill="rgb(252, 189, 40)" opacity="1.0"/>
    <path d="M 188.912841796875 482.6832275390625 C 186.82737731933594 491.3281555175781 181.35348510742188 496.88641357421875 173.48333740234375 498.9495544433594 C 164.60797119140625 496.8990478515625 159.10806274414062 491.38922119140625 157.0779571533203 483.6936340332031 C 159.20587158203125 474.7308349609375 164.7268524169922 469.1961975097656 173.14990234375 467.09063720703125 C 181.3069610595703 469.1733093261719 186.83453369140625 474.689697265625 188.912841796875 482.6832275390625" stroke-width="0.0" fill="rgb(201, 90, 33)" opacity="1.0"/>
    <path d="M 466.9509582519531 496.6380615234375 C 464.9031066894531 504.3916320800781 459.39080810546875 509.9014587402344 451.1552429199219 511.95928955078125 C 442.62469482421875 509.8927307128906 437.10736083984375 504.3751525878906 435.0532531738281 496.8248291015625 C 437.68896484375 488.7313537597656 443.9079895019531 483.4855651855469 451.78277587890625 480.2928466796875 C 459.3564453125 482.13055419921875 464.8671875 487.64495849609375 466.9509582519531 496.6380615234375" stroke-width="0.0" fill="rgb(80, 55, 31)" opacity="1.0"/>
    <path d="M 170.9976043701172 70.99694061279297 C 168.97958374023438 78.48774719238281 163.49610900878906 84.01087951660156 156.01873779296875 86.18246459960938 C 148.22683715820312 84.2001953125 142.50099182128906 78.87467956542969 141.82786560058594 71.6241226196289 C 143.24937438964844 63.58646011352539 148.5095672607422 58.012550354003906 156.00010681152344 56.00003433227539 C 163.5 58.009620666503906 168.99037170410156 63.500003814697266 170.9976043701172 70.99694061279297" stroke-width="0.0" fill="rgb(250, 249, 249)" opacity="1.0"/>
    <path d="M 318.3277893066406 282.7596130371094 C 317.71337890625 290.0987243652344 311.80206298828125 294.48394775390625 304.51788330078125 296.0794372558594 C 297.2748107910156 294.17266845703125 291.79193115234375 288.7386474609375 288.16448974609375 281.1711730957031 C 290.1405029296875 273.6527099609375 295.6595764160156 268.15887451171875 303.19268798828125 267.528076171875 C 310.7916564941406 269.76361083984375 316.23321533203125 275.2097473144531 318.3277893066406 282.7596130371094" stroke-width="0.0" fill="rgb(20, 2, 2)" opacity="0.9900139"/>
    <path d="M 531.9483032226562 189.56105041503906 C 529.881103515625 197.3592071533203 524.3533325195312 202.86788940429688 516.4201049804688 204.93557739257812 C 507.696533203125 202.8320770263672 502.17535400390625 197.30039978027344 500.099853515625 189.3871612548828 C 502.19580078125 180.7093505859375 507.6973571777344 175.1663360595703 516.592529296875 173.0605926513672 C 524.3583374023438 175.11654663085938 529.8644409179688 180.65057373046875 531.9483032226562 189.56105041503906" stroke-width="0.0" fill="rgb(214, 55, 32)" opacity="1.0"/>
    <path d="M 306.8752136230469 447.6465148925781 C 304.83782958984375 455.3074951171875 299.30950927734375 460.8423767089844 291.66180419921875 462.88983154296875 C 282.7891540527344 460.718505859375 277.2260437011719 455.23248291015625 275.334716796875 447.6929931640625 C 278.4029235839844 439.6897277832031 283.43292236328125 433.72802734375 290.9058837890625 431.66473388671875 C 298.94903564453125 433.6488037109375 304.6514587402344 438.9501953125 306.8752136230469 447.6465148925781" stroke-width="0.0" fill="rgb(252, 193, 41)" opacity="1.0"/>
    <path d="M 249.8569793701172 250.08261108398438 C 247.73536682128906 258.2127685546875 242.2200469970703 263.7535400390625 233.6519012451172 265.884521484375 C 225.72970581054688 263.7926025390625 220.18589782714844 258.27947998046875 218.09451293945312 249.55636596679688 C 220.18472290039062 241.73638916015625 225.75863647460938 236.2344970703125 233.8383331298828 234.11154174804688 C 242.197509765625 236.25570678710938 247.72128295898438 241.81199645996094 249.8569793701172 250.08261108398438" stroke-width="0.0" fill="rgb(252, 188, 40)" opacity="1.0"/>
    <path d="M 414.85943603515625 291.73687744140625 C 412.7210693359375 300.1912536621094 407.1947937011719 305.7304992675781 399.1241149902344 307.8497009277344 C 390.7795715332031 305.7422180175781 385.22796630859375 300.2320556640625 383.1524658203125 292.5916748046875 C 385.6718444824219 284.3249206542969 391.42803955078125 278.9764404296875 399.15325927734375 276.8683166503906 C 406.9914855957031 278.5945129394531 412.696044921875 283.90728759765625 414.85943603515625 291.73687744140625" stroke-width="0.0" fill="rgb(252, 192, 37)" opacity="1.0"/>
    <path d="M 471.6973876953125 256.8533020019531 C 469.1704406738281 264.4543151855469 463.3219909667969 269.7190856933594 455.8548583984375 271.5196228027344 C 448.6295166015625 269.8414611816406 442.7828063964844 264.48077392578125 440.2053527832031 256.7664794921875 C 442.49420166015625 249.17868041992188 448.3363037109375 243.926025390625 455.98907470703125 241.99256896972656 C 463.5653381347656 243.9838409423828 469.3596496582031 249.3147735595703 471.6973876953125 256.8533020019531" stroke-width="0.0" fill="rgb(252, 110, 21)" opacity="0.990117"/>
    <path d="M 421.9210205078125 267.6466064453125 C 419.8851623535156 275.3728942871094 414.3700866699219 280.87786865234375 406.71868896484375 282.8713073730469 C 397.9375 280.6578063964844 392.63372802734375 274.9659423828125 390.80865478515625 266.9571533203125 C 392.55841064453125 258.94427490234375 397.8326416015625 253.2361297607422 406.1574401855469 251.0989532470703 C 414.26934814453125 253.20057678222656 419.80950927734375 258.726318359375 421.9210205078125 267.6466064453125" stroke-width="0.0" fill="rgb(9, 212, 192)" opacity="1.0"/>
    <path d="M 498.1480712890625 282.46185302734375 C 496.8013000488281 289.85260009765625 492.099853515625 295.74591064453125 484.6737060546875 296.9954528808594 C 475.7408447265625 295.6929626464844 470.15826416015625 290.304931640625 468.51708984375 282.79052734375 C 471.4665832519531 274.92138671875 476.74749755859375 268.6258239746094 483.3360595703125 266.13134765625 C 490.8848876953125 269.5849914550781 496.2635803222656 275.1632080078125 498.1480712890625 282.46185302734375" stroke-width="0.0" fill="rgb(26, 13, 8)" opacity="0.99000925"/>
    <path d="M 364.9237060546875 112.35152435302734 C 362.7698974609375 121.20512390136719 357.1371154785156 126.56704711914062 348.3011779785156 128.81951904296875 C 340.69830322265625 126.8372802734375 335.22467041015625 121.27635955810547 333.1063537597656 112.94622802734375 C 335.2293701171875 104.8427963256836 341.044677734375 100.12800598144531 349.5236511230469 98.60382843017578 C 357.2778625488281 99.27849578857422 362.8629455566406 104.67544555664062 364.9237060546875 112.35152435302734" stroke-width="0.0" fill="rgb(234, 173, 33)" opacity="1.0"/>
    <path d="M 254.00015258789062 347.9994201660156 C 251.99024963378906 355.49993896484375 246.49998474121094 360.9903869628906 239.00035095214844 362.9998779296875 C 231.51617431640625 360.9848937988281 226.24461364746094 355.40966796875 224.65309143066406 347.3999938964844 C 225.4589385986328 340.127197265625 231.28289794921875 334.8941955566406 238.9810333251953 332.9913330078125 C 246.50009155273438 335.00958251953125 251.99085998535156 340.4997863769531 254.00015258789062 347.9994201660156" stroke-width="0.0" fill="rgb(252, 187, 41)" opacity="1.0"/>
    <path d="M 125.85088348388672 173.7523193359375 C 123.8345947265625 181.30760192871094 118.30255889892578 186.82247924804688 109.67887878417969 188.9137420654297 C 101.67583465576172 186.8439178466797 96.15016174316406 181.32635498046875 94.06536865234375 173.27017211914062 C 96.14619445800781 164.64288330078125 101.62482452392578 159.10255432128906 109.15008544921875 157.08639526367188 C 117.50061798095703 160.00852966308594 122.99048614501953 165.4996795654297 125.85088348388672 173.7523193359375" stroke-width="0.0" fill="rgb(214, 54, 34)" opacity="1.0"/>
    <path d="M 457.9395446777344 447.73016357421875 C 455.88916015625 455.37335205078125 450.37091064453125 460.8831787109375 442.5896911621094 462.9268798828125 C 433.6643371582031 460.84539794921875 428.1253356933594 455.3482971191406 426.12750244140625 447.829345703125 C 429.45953369140625 439.8874816894531 434.8742980957031 434.4195861816406 442.6482238769531 431.26531982421875 C 450.2221374511719 433.2723693847656 455.8068542480469 438.7450256347656 457.9395446777344 447.73016357421875" stroke-width="0.0" fill="rgb(198, 84, 23)" opacity="1.0"/>
    <path d="M 354.8603210449219 227.96865844726562 C 352.73968505859375 236.22166442871094 347.2404479980469 241.7858123779297 338.5148010253906 243.91549682617188 C 330.69000244140625 241.84927368164062 325.225341796875 236.28012084960938 323.1212463378906 227.67962646484375 C 325.2121276855469 219.73976135253906 330.7460632324219 214.22901916503906 339.094970703125 212.13717651367188 C 347.1997985839844 214.2633056640625 352.73187255859375 219.8019561767578 354.8603210449219 227.96865844726562" stroke-width="0.0" fill="rgb(249, 195, 38)" opacity="1.0"/>
    <path d="M 361.8154602050781 371.54547119140625 C 359.3884582519531 379.86602783203125 354.00250244140625 385.6755065917969 346.49066162109375 387.8892517089844 C 338.1261901855469 385.5656433105469 332.8210754394531 379.7162780761719 330.4138488769531 372.18035888671875 C 332.9841003417969 364.4921875 338.4991760253906 359.0093688964844 346.36663818359375 356.59722900390625 C 354.1178283691406 358.3922424316406 359.7031555175781 363.84918212890625 361.8154602050781 371.54547119140625" stroke-width="0.0" fill="rgb(255, 190, 42)" opacity="1.0"/>
    <path d="M 148.95559692382812 430.6423034667969 C 146.894775390625 439.3765869140625 141.3585205078125 444.8453674316406 133.55868530273438 446.7868957519531 C 124.7825927734375 444.70123291015625 119.18728637695312 439.25958251953125 117.09757995605469 431.4796447753906 C 119.19544219970703 422.70306396484375 124.68048095703125 417.1419982910156 132.90696716308594 415.0539245605469 C 141.352294921875 417.1335144042969 146.88990783691406 422.6366882324219 148.95559692382812 430.6423034667969" stroke-width="0.0" fill="rgb(118, 55, 27)" opacity="0.9919603"/>
    <path d="M 183.85711669921875 148.7827911376953 C 181.87107849121094 156.36111450195312 176.36505126953125 161.88092041015625 168.6898651123047 163.92864990234375 C 159.71253967285156 161.81118774414062 154.17481994628906 156.29342651367188 152.08392333984375 148.2171630859375 C 154.1912384033203 139.71804809570312 159.71249389648438 134.1787567138672 167.262451171875 132.157958984375 C 175.4991912841797 135.00999450683594 180.9853057861328 140.5021514892578 183.85711669921875 148.7827911376953" stroke-width="0.0" fill="rgb(217, 56, 36)" opacity="1.0"/>
    <path d="M 158.88404846191406 196.18426513671875 C 155.8958282470703 204.42672729492188 150.43612670898438 209.9297332763672 142.29315185546875 212.80282592773438 C 134.67987060546875 210.8367462158203 129.163330078125 205.32000732421875 127.08819580078125 197.02249145507812 C 129.1683349609375 188.68600463867188 134.68402099609375 183.16380310058594 142.87815856933594 181.0916290283203 C 151.32606506347656 183.1682891845703 156.87139892578125 188.6571502685547 158.88404846191406 196.18426513671875" stroke-width="0.0" fill="rgb(223, 57, 41)" opacity="1.0"/>
    <path d="M 608.9992065429688 218.00723266601562 C 607.011474609375 225.54647827148438 601.6146240234375 231.22462463378906 594.2369384765625 233.43946838378906 C 586.5027465820312 230.9895477294922 581.09814453125 225.4718780517578 579.73193359375 217.8522491455078 C 580.875 210.3025360107422 586.2958374023438 204.84329223632812 593.8404541015625 202.85220336914062 C 601.4027099609375 205.1820526123047 606.9639282226562 210.552001953125 608.9992065429688 218.00723266601562" stroke-width="0.0" fill="rgb(254, 254, 253)" opacity="0.99071944"/>
    <path d="M 253.574462890625 323.5260925292969 C 250.98794555664062 331.4989929199219 245.49961853027344 336.990234375 237.99107360839844 339.0043029785156 C 230.3832550048828 337.0480041503906 224.58053588867188 331.7474670410156 222.16668701171875 323.5102844238281 C 224.267333984375 315.81915283203125 229.85482788085938 310.3692626953125 237.919921875 308.4259338378906 C 246.09385681152344 310.4128723144531 251.65374755859375 315.8839111328125 253.574462890625 323.5260925292969" stroke-width="0.0" fill="rgb(254, 182, 46)" opacity="1.0"/>
    <path d="M 494.1094665527344 347.2707214355469 C 492.1775817871094 354.72369384765625 486.7293701171875 360.19195556640625 479.3849792480469 362.1094055175781 C 471.810791015625 361.4712829589844 466.1856384277344 356.2688903808594 464.7046203613281 348.67828369140625 C 467.2259216308594 340.74407958984375 472.7593994140625 335.2796630859375 480.5931701660156 333.68389892578125 C 488.29095458984375 334.2227783203125 493.7664794921875 339.7109069824219 494.1094665527344 347.2707214355469" stroke-width="0.0" fill="rgb(2, 9, 10)" opacity="0.9900078"/>
    <path d="M 205.86630249023438 442.1246643066406 C 203.74183654785156 450.20257568359375 198.19859313964844 455.7309265136719 190.07376098632812 457.8535461425781 C 181.8116912841797 455.7147521972656 176.26576232910156 450.1962585449219 174.1489715576172 441.8489990234375 C 176.25375366210938 433.7939758300781 181.80093383789062 428.2707824707031 190.29940795898438 426.1231384277344 C 198.2366485595703 428.2218322753906 203.74208068847656 433.77789306640625 205.86630249023438 442.1246643066406" stroke-width="0.0" fill="rgb(255, 188, 37)" opacity="1.0"/>
    <path d="M 224.7293243408203 102.43124389648438 C 222.47933959960938 111.0636978149414 217.16421508789062 116.75828552246094 208.78811645507812 118.89324951171875 C 200.70468139648438 116.81595611572266 195.1814422607422 111.29615783691406 193.08526611328125 102.872314453125 C 195.16546630859375 94.69257354736328 200.69482421875 89.1701431274414 209.10032653808594 87.0748062133789 C 217.30433654785156 89.16393280029297 222.78958129882812 94.71345520019531 224.7293243408203 102.43124389648438" stroke-width="0.0" fill="rgb(221, 56, 36)" opacity="1.0"/>
    <path d="M 97.905517578125 220.25315856933594 C 95.83505249023438 228.31591796875 90.32339477539062 233.85235595703125 82.33842468261719 235.93048095703125 C 73.6496810913086 233.85540771484375 68.11335754394531 228.36358642578125 66.04560089111328 220.2423095703125 C 68.10433959960938 211.61341857910156 73.61278533935547 206.1027069091797 81.30753326416016 204.06283569335938 C 90.32254791259766 206.15814208984375 95.82916259765625 211.68255615234375 97.905517578125 220.25315856933594" stroke-width="0.0" fill="rgb(218, 51, 30)" opacity="1.0"/>
    <path d="M 594.0326538085938 234.58404541015625 C 592.0817260742188 240.6181640625 586.6421508789062 246.15939331054688 579.6519165039062 249.6602783203125 C 572.5 246.99038696289062 567.0096435546875 241.5 564.2275390625 233.26089477539062 C 566.1246337890625 225.61724853515625 571.6055908203125 220.09286499023438 579.0719604492188 219.73715209960938 C 586.5958251953125 221.9276123046875 592.0628662109375 227.4083709716797 594.0326538085938 234.58404541015625" stroke-width="0.0" fill="rgb(2, 2, 2)" opacity="0.9900086"/>
    <path d="M 147.7092742919922 458.58551025390625 C 145.83636474609375 466.3552551269531 140.38397216796875 471.9094543457031 132.79632568359375 473.9558410644531 C 123.73070526123047 471.8117980957031 118.23088073730469 466.25244140625 116.07244110107422 457.1634216308594 C 118.09207153320312 449.6169128417969 123.6510238647461 444.1929016113281 131.4241485595703 443.6949462890625 C 139.7873992919922 445.0007019042969 145.5369873046875 450.0729064941406 147.7092742919922 458.58551025390625" stroke-width="0.0" fill="rgb(9, 2, 5)" opacity="0.99001694"/>
    <path d="M 360.5373229980469 432.6963806152344 C 358.75860595703125 440.216552734375 353.2074279785156 445.73565673828125 344.90338134765625 447.874755859375 C 336.9137268066406 445.6973571777344 331.6206970214844 439.9744567871094 329.3641357421875 431.5060729980469 C 331.2810363769531 423.7936096191406 336.780029296875 418.2443542480469 344.8100891113281 416.155517578125 C 352.559326171875 418.4911193847656 357.52734375 424.8324890136719 360.5373229980469 432.6963806152344" stroke-width="0.0" fill="rgb(252, 194, 40)" opacity="1.0"/>
    <path d="M 224.89471435546875 233.41476440429688 C 222.7440948486328 242.27886962890625 217.28732299804688 247.77328491210938 209.52891540527344 248.20028686523438 C 201.2574920654297 246.71981811523438 195.5089874267578 241.9217071533203 193.2978973388672 233.27542114257812 C 195.14913940429688 225.68687438964844 200.71600341796875 220.22096252441406 208.39915466308594 218.55038452148438 C 216.9800567626953 220.5783233642578 222.72201538085938 225.90243530273438 224.89471435546875 233.41476440429688" stroke-width="0.0" fill="rgb(4, 2, 4)" opacity="0.99001044"/>
    <path d="M 127.91177368164062 391.1772766113281 C 125.78559112548828 399.2038269042969 120.11262512207031 404.5238952636719 112.21315002441406 406.2266540527344 C 104.49980163574219 403.9910583496094 99.00821685791016 398.5003967285156 96.19908905029297 390.3078308105469 C 98.19141387939453 382.7047119140625 103.69636535644531 377.17059326171875 112.29716491699219 375.0780944824219 C 120.32131958007812 377.1541748046875 125.83050537109375 382.6849060058594 127.91177368164062 391.1772766113281" stroke-width="0.0" fill="rgb(216, 58, 34)" opacity="1.0"/>
    <path d="M 563.4761352539062 257.3431091308594 C 561.4683837890625 264.9642639160156 556.0724487304688 270.7067565917969 547.3253173828125 272.90692138671875 C 539.6778564453125 270.850830078125 534.1547241210938 265.3199157714844 532.1342163085938 257.7055969238281 C 534.417236328125 248.94943237304688 539.9461669921875 243.40721130371094 547.8057250976562 241.28652954101562 C 555.7695922851562 243.583251953125 561.0740966796875 249.3470916748047 563.4761352539062 257.3431091308594" stroke-width="0.0" fill="rgb(251, 160, 124)" opacity="1.0"/>
    <path d="M 115.13300323486328 413.9695739746094 C 113.51922607421875 421.948486328125 109.25059509277344 427.8602600097656 101.69095611572266 429.9520263671875 C 92.74356079101562 427.81317138671875 87.26348876953125 422.22369384765625 85.2778549194336 414.59564208984375 C 88.0096206665039 406.5 93.5 401.0096130371094 100.83895111083984 399.13592529296875 C 108.01313781738281 401.42724609375 113.31918334960938 407.07183837890625 115.13300323486328 413.9695739746094" stroke-width="0.0" fill="rgb(6, 2, 4)" opacity="0.99004996"/>
    <path d="M 239.9091339111328 210.99559020996094 C 237.80731201171875 219.27706909179688 232.28451538085938 224.8234100341797 224.0052032470703 226.9227752685547 C 215.69203186035156 224.82574462890625 210.15223693847656 219.31800842285156 208.09609985351562 211.59536743164062 C 210.21633911132812 202.71710205078125 215.6987762451172 197.16880798339844 224.3806915283203 195.0789031982422 C 232.32325744628906 197.15235900878906 237.82940673828125 202.6842803955078 239.9091339111328 210.99559020996094" stroke-width="0.0" fill="rgb(234, 38, 19)" opacity="1.0"/>
    <path d="M 361.382568359375 478.324462890625 C 359.4206848144531 486.04400634765625 354.109130859375 491.6029968261719 346.2742614746094 494.77142333984375 C 338.7113037109375 492.81097412109375 333.2198181152344 487.2773742675781 331.1151428222656 478.4365234375 C 333.18658447265625 470.73223876953125 338.7591857910156 465.25213623046875 346.7637634277344 463.15447998046875 C 355.1754455566406 465.2919921875 360.6955871582031 470.82904052734375 361.382568359375 478.324462890625" stroke-width="0.0" fill="rgb(251, 191, 41)" opacity="1.0"/>
    <path d="M 400.47845458984375 273.37249755859375 C 398.5223388671875 280.86883544921875 392.44873046875 285.4739990234375 385.3211669921875 287.0981140136719 C 378.0076599121094 285.2979736328125 371.33648681640625 280.6737976074219 369.08905029296875 273.15020751953125 C 371.2645263671875 264.88739013671875 377.0279541015625 259.6555480957031 384.8945617675781 257.9289245605469 C 392.5002136230469 260.0093688964844 397.9902038574219 265.4999084472656 400.47845458984375 273.37249755859375" stroke-width="0.0" fill="rgb(9, 207, 189)" opacity="0.99126375"/>
    <path d="M 254.892822265625 419.10760498046875 C 252.7976837158203 427.2655334472656 247.26358032226562 432.79351806640625 239.099609375 434.9006652832031 C 230.72219848632812 432.80120849609375 225.16659545898438 427.2919006347656 223.08421325683594 419.574951171875 C 225.18031311035156 410.69073486328125 230.682373046875 405.1595764160156 238.5739288330078 403.11651611328125 C 247.26101684570312 405.2061462402344 252.78741455078125 410.7417907714844 254.892822265625 419.10760498046875" stroke-width="0.0" fill="rgb(10, 205, 184)" opacity="1.0"/>
    <path d="M 408.0885925292969 349.3985900878906 C 406.1463928222656 356.6844177246094 400.6846008300781 362.1468200683594 393.8194885253906 364.07537841796875 C 387.21478271484375 362.1842956542969 380.45672607421875 357.0108337402344 378.0860595703125 350.5274658203125 C 380.2489318847656 341.774658203125 385.7601013183594 336.21466064453125 394.1977233886719 334.1058349609375 C 402.2334289550781 336.1844177246094 406.6062316894531 341.9576721191406 408.0885925292969 349.3985900878906" stroke-width="0.0" fill="rgb(27, 11, 7)" opacity="0.99000937"/>
    <path d="M 278.91259765625 447.5253601074219 C 276.8775634765625 455.3669128417969 271.3675842285156 460.8797607421875 263.4549255371094 462.9291076660156 C 254.7039031982422 460.8368835449219 249.20252990722656 455.279052734375 247.09930419921875 446.71954345703125 C 249.19920349121094 438.73858642578125 254.75180053710938 433.23114013671875 263.45709228515625 431.1051025390625 C 271.2777099609375 433.18988037109375 276.79913330078125 438.72686767578125 278.91259765625 447.5253601074219" stroke-width="0.0" fill="rgb(9, 208, 186)" opacity="1.0"/>
    <path d="M 266.9005432128906 501.8592529296875 C 264.80352783203125 510.2812194824219 259.2874755859375 515.8187866210938 250.42950439453125 517.93798828125 C 242.6927490234375 515.8550415039062 237.2127685546875 510.2767639160156 235.10475158691406 501.7320861816406 C 237.17355346679688 493.6874694824219 242.66952514648438 488.1332092285156 250.4222412109375 486.0599670410156 C 259.3314514160156 488.1479187011719 264.8298645019531 493.67724609375 266.9005432128906 501.8592529296875" stroke-width="0.0" fill="rgb(203, 91, 30)" opacity="1.0"/>
    <path d="M 168.992919921875 64.04986572265625 C 166.99032592773438 71.49993896484375 161.49990844726562 76.99021911621094 153.98324584960938 79.0115737915039 C 146.33245849609375 77.07913970947266 140.44503784179688 71.85086822509766 139.20484924316406 64.6233139038086 C 141.31666564941406 56.692962646484375 146.6929473876953 51.31265640258789 154.150146484375 49.463741302490234 C 161.29220581054688 51.23442077636719 166.80885314941406 56.696163177490234 168.992919921875 64.04986572265625" stroke-width="0.0" fill="rgb(248, 248, 248)" opacity="1.0"/>
    <path d="M 431.871826171875 204.8491668701172 C 429.7430725097656 213.2135772705078 424.2178955078125 218.75389099121094 415.6090087890625 220.8909454345703 C 407.7421569824219 218.79489135742188 402.24884033203125 213.2408447265625 400.1441345214844 205.2477569580078 C 402.3710021972656 196.9210968017578 407.88946533203125 191.3027801513672 416.3741760253906 189.1368865966797 C 424.27996826171875 191.19554138183594 429.7884216308594 196.72637939453125 431.871826171875 204.8491668701172" stroke-width="0.0" fill="rgb(252, 185, 37)" opacity="1.0"/>
    <path d="M 426.9217834472656 101.33826446533203 C 424.8560791015625 109.34516906738281 419.349365234375 114.86626434326172 411.4387512207031 116.92922973632812 C 402.6861267089844 114.83602142333984 397.16204833984375 109.31460571289062 395.0672912597656 100.81840515136719 C 397.1513366699219 92.67473602294922 402.67755126953125 87.15831756591797 411.3040466308594 85.07088470458984 C 419.3127136230469 87.15338897705078 424.824462890625 92.69717407226562 426.9217834472656 101.33826446533203" stroke-width="0.0" fill="rgb(219, 54, 36)" opacity="1.0"/>
    <path d="M 371.92315673828125 136.30654907226562 C 369.78399658203125 145.26171875 364.2725830078125 150.8095245361328 355.5522766113281 152.920654296875 C 347.69122314453125 150.8409881591797 342.1861877441406 145.29737854003906 340.11077880859375 137.2205352783203 C 342.2149658203125 128.7616424560547 347.7889709472656 123.28414916992188 356.6596374511719 121.10736846923828 C 364.3426513671875 123.14364624023438 369.87493896484375 128.64927673339844 371.92315673828125 136.30654907226562" stroke-width="0.0" fill="rgb(204, 92, 27)" opacity="1.0"/>
    <path d="M 583.571044921875 244.6937255859375 C 581.8078002929688 252.27528381347656 576.2372436523438 257.69000244140625 567.3851928710938 259.8152770996094 C 559.7293090820312 257.81280517578125 554.3178100585938 252.22694396972656 552.0858764648438 243.1743927001953 C 554.0971069335938 235.60513305664062 559.6066284179688 230.1007537841797 567.1611328125 228.1109161376953 C 575.130615234375 231.40423583984375 580.5535278320312 236.88308715820312 583.571044921875 244.6937255859375" stroke-width="0.0" fill="rgb(87, 53, 31)" opacity="1.0"/>
    <path d="M 141.92608642578125 158.53091430664062 C 139.83541870117188 167.32345581054688 134.33265686035156 172.8574981689453 126.79032897949219 174.87892150878906 C 118.50016784667969 171.9901885986328 113.00971984863281 166.49986267089844 110.13780975341797 158.22976684570312 C 112.15229797363281 150.67835998535156 117.68795013427734 145.17564392089844 126.55939483642578 143.08139038085938 C 134.33706665039062 145.13967895507812 139.8534393310547 150.6660614013672 141.92608642578125 158.53091430664062" stroke-width="0.0" fill="rgb(220, 56, 38)" opacity="1.0"/>
    <path d="M 254.77288818359375 352.5296936035156 C 252.70567321777344 360.1749267578125 247.17724609375 365.7122497558594 238.82203674316406 367.856201171875 C 230.82688903808594 365.7389221191406 225.46868896484375 360.1058654785156 224.82846069335938 352.37109375 C 226.21853637695312 344.5771484375 231.51220703125 339.0135498046875 239.00033569335938 337.0 C 246.5072784423828 339.0071716308594 252.09335327148438 344.46307373046875 254.77288818359375 352.5296936035156" stroke-width="0.0" fill="rgb(252, 187, 41)" opacity="0.99360967"/>
    <path d="M 236.94638061523438 533.1139526367188 C 234.88958740234375 541.3654174804688 229.32386779785156 546.7301025390625 221.7794189453125 547.0651245117188 C 214.33544921875 545.1162109375 208.65245056152344 539.7169189453125 205.05882263183594 532.2378540039062 C 207.12841796875 524.6448364257812 212.64154052734375 519.1211547851562 221.37701416015625 517.0437622070312 C 229.36843872070312 519.109130859375 234.87283325195312 524.6400146484375 236.94638061523438 533.1139526367188" stroke-width="0.0" fill="rgb(58, 37, 28)" opacity="0.99005634"/>
    <path d="M 282.1037902832031 202.5089874267578 C 280.9256896972656 209.94520568847656 276.11297607421875 215.71539306640625 267.59295654296875 217.89273071289062 C 259.7572326660156 215.78628540039062 254.2493438720703 210.2281036376953 252.1410369873047 202.04293823242188 C 254.26992797851562 193.8011016845703 259.7966613769531 188.25833129882812 267.4399719238281 186.16595458984375 C 274.9642028808594 189.3155975341797 280.2344055175781 195.15753173828125 282.1037902832031 202.5089874267578" stroke-width="0.0" fill="rgb(252, 192, 47)" opacity="0.9900686"/>
    <path d="M 479.9058532714844 240.2230682373047 C 477.8329162597656 248.30992126464844 472.29693603515625 253.7967529296875 464.6219787597656 255.62261962890625 C 456.5273742675781 252.92721557617188 451.01416015625 247.4897918701172 448.93817138671875 239.90634155273438 C 450.6832275390625 232.0557403564453 455.9114990234375 226.28245544433594 464.08392333984375 224.0995635986328 C 472.2677307128906 226.205322265625 477.7980651855469 231.7310333251953 479.9058532714844 240.2230682373047" stroke-width="0.0" fill="rgb(205, 91, 31)" opacity="1.0"/>
    <path d="M 337.6531677246094 438.5362854003906 C 335.75177001953125 446.250732421875 330.2767639160156 451.81890869140625 322.4483947753906 453.9056091308594 C 313.6986999511719 451.8132019042969 308.1806640625 446.3039855957031 306.1447448730469 438.4595642089844 C 308.288330078125 429.8095703125 313.7933044433594 424.2481384277344 321.6529846191406 422.1430969238281 C 330.04742431640625 424.3455505371094 335.34637451171875 430.057373046875 337.6531677246094 438.5362854003906" stroke-width="0.0" fill="rgb(252, 192, 38)" opacity="1.0"/>
    <path d="M 466.2571716308594 241.815673828125 C 464.4695129394531 249.1521759033203 459.2921142578125 254.8515625 451.654052734375 257.35845947265625 C 443.937744140625 255.5327911376953 438.30792236328125 250.11912536621094 436.1600341796875 242.07069396972656 C 438.26995849609375 233.78005981445312 443.7530822753906 228.20294189453125 451.31390380859375 226.1354217529297 C 459.3327331542969 228.73455810546875 464.5334777832031 234.85369873046875 466.2571716308594 241.815673828125" stroke-width="0.0" fill="rgb(250, 195, 38)" opacity="0.99009544"/>
    <path d="M 569.3718872070312 340.7666931152344 C 567.583984375 348.18963623046875 562.3792724609375 354.2897644042969 554.2371215820312 356.9104919433594 C 546.8821411132812 354.8194885253906 542.7125244140625 348.17425537109375 540.910400390625 341.0558776855469 C 542.7426147460938 334.17864990234375 548.1798706054688 328.7457580566406 555.8145751953125 326.814208984375 C 563.21728515625 327.1948547363281 568.3500366210938 332.91534423828125 569.3718872070312 340.7666931152344" stroke-width="0.0" fill="rgb(3, 3, 3)" opacity="0.990012"/>
    <path d="M 583.3734130859375 272.354248046875 C 582.588134765625 280.225341796875 577.3135375976562 285.8712463378906 569.6138305664062 287.9476623535156 C 560.7318725585938 285.8083801269531 555.1572875976562 280.2867431640625 553.061767578125 272.4961242675781 C 555.1746215820312 263.70013427734375 560.7055053710938 258.1891174316406 568.3201904296875 256.2408447265625 C 576.2037963867188 259.25189208984375 581.5514526367188 264.8568420410156 583.3734130859375 272.354248046875" stroke-width="0.0" fill="rgb(92, 62, 37)" opacity="1.0"/>
    <path d="M 213.8883819580078 200.4058074951172 C 211.71815490722656 209.2335205078125 206.27880859375 214.83177185058594 198.15335083007812 216.93124389648438 C 189.76913452148438 214.8170166015625 184.49893188476562 209.12110900878906 182.25369262695312 200.3311004638672 C 184.29515075683594 192.9495391845703 190.09767150878906 187.634033203125 198.65524291992188 185.19915771484375 C 206.32290649414062 187.17156982421875 211.84132385253906 192.67251586914062 213.8883819580078 200.4058074951172" stroke-width="0.0" fill="rgb(144, 40, 28)" opacity="0.99003404"/>
    <path d="M 43.838314056396484 346.2162780761719 C 41.81136703491211 354.30523681640625 36.32596206665039 359.8606872558594 27.63538360595703 361.9540100097656 C 19.968502044677734 359.8290710449219 15.845625877380371 352.8495178222656 13.929338455200195 345.17193603515625 C 14.14953899383545 337.6261901855469 19.61042594909668 332.0994567871094 27.2596492767334 330.0769958496094 C 36.27849197387695 332.2065124511719 41.795677185058594 337.7203369140625 43.838314056396484 346.2162780761719" stroke-width="0.0" fill="rgb(76, 9, 3)" opacity="0.9900269"/>
    <path d="M 391.86944580078125 236.4988555908203 C 389.5287780761719 244.83482360839844 383.6646728515625 250.0728759765625 375.501220703125 252.5325927734375 C 367.733642578125 250.7397003173828 362.1727294921875 245.2965087890625 360.8174743652344 237.7571258544922 C 363.64886474609375 230.07427978515625 369.0428466796875 224.55799865722656 376.7249755859375 222.1529083251953 C 384.3080749511719 223.1744384765625 389.808837890625 228.69871520996094 391.86944580078125 236.4988555908203" stroke-width="0.0" fill="rgb(13, 205, 181)" opacity="0.9903551"/>
    <path d="M 221.8746795654297 320.085205078125 C 219.76531982421875 328.2441101074219 214.26463317871094 333.8128662109375 205.645263671875 335.9261169433594 C 197.7065887451172 333.8419189453125 192.22885131835938 328.26226806640625 190.12721252441406 320.3349914550781 C 192.2898406982422 311.82489013671875 197.82530212402344 306.2913513183594 206.0088348388672 304.1531677246094 C 214.19349670410156 306.2754821777344 219.7482147216797 311.7967834472656 221.8746795654297 320.085205078125" stroke-width="0.0" fill="rgb(252, 190, 40)" opacity="1.0"/>
    <path d="M 253.0022430419922 333.99725341796875 C 250.99000549316406 341.499755859375 245.4998016357422 346.9902038574219 237.9855499267578 348.9908142089844 C 230.18711853027344 347.1443786621094 224.30545043945312 342.02099609375 222.14610290527344 334.56787109375 C 224.5953826904297 326.25897216796875 230.38096618652344 320.9463806152344 237.99317932128906 319.0303039550781 C 245.50648498535156 321.0028381347656 250.9971923828125 326.4935302734375 253.0022430419922 333.99725341796875" stroke-width="0.0" fill="rgb(252, 189, 41)" opacity="1.0"/>
    <path d="M 110.23735046386719 406.6318054199219 C 108.91666412353516 413.44964599609375 103.46234130859375 418.95965576171875 95.85881805419922 421.0900573730469 C 88.05699920654297 419.36761474609375 82.39220428466797 414.0214538574219 80.20771026611328 405.4287414550781 C 82.15381622314453 397.6379699707031 87.6175537109375 392.0987243652344 95.12250518798828 390.3466796875 C 102.76615142822266 393.7847595214844 108.21632385253906 399.2336730957031 110.23735046386719 406.6318054199219" stroke-width="0.0" fill="rgb(2, 2, 5)" opacity="0.990041"/>
    <path d="M 332.90631103515625 96.4873046875 C 330.85430908203125 104.33866882324219 325.3426208496094 109.86399841308594 317.0406799316406 111.93749237060547 C 308.6355285644531 109.8792724609375 303.1407775878906 104.3565673828125 301.08233642578125 96.30632019042969 C 303.18511962890625 87.7159652709961 308.7192077636719 82.19287109375 317.1464538574219 80.09576416015625 C 325.2967834472656 82.18081665039062 330.81494140625 87.7047119140625 332.90631103515625 96.4873046875" stroke-width="0.0" fill="rgb(220, 57, 35)" opacity="1.0"/>
  </g>
</svg>
