<?xml version="1.0" ?>
<svg xmlns="http://www.w3.org/2000/svg" version="1.1" width="600" height="600">
  <defs/>
  <g>
    <path d="M 325.1025085449219 227.90513610839844 C 322.9903869628906 235.5 317.5 240.99038696289062 309.8706970214844 243.240478515625 C 302.4100341796875 241.1575164794922 296.97369384765625 235.54934692382812 294.3802490234375 227.44142150878906 C 296.2409973144531 219.74261474609375 301.7270202636719 214.19732666015625 309.4387512207031 212.11798095703125 C 317.8701171875 214.48248291015625 323.23211669921875 220.23309326171875 325.1025085449219 227.90513610839844" stroke-width="0.0" fill="rgb(255, 70, 46)" opacity="1.0"/>
    <path d="M 364.79278564453125 324.3172607421875 C 362.6737060546875 332.06671142578125 356.9760437011719 337.4305114746094 349.1423034667969 339.4954528808594 C 341.2267761230469 337.29736328125 335.65606689453125 331.7887268066406 333.3405456542969 323.9030456542969 C 335.53594970703125 315.9651794433594 340.84344482421875 310.2308654785156 348.2149353027344 308.6785888671875 C 356.4397888183594 311.2978820800781 362.38946533203125 316.3103332519531 364.79278564453125 324.3172607421875" stroke-width="0.0" fill="rgb(248, 230, 163)" opacity="1.0"/>
    <path d="M 461.937255859375 268.90301513671875 C 459.86102294921875 277.3304443359375 454.3082275390625 282.8029479980469 446.7535400390625 283.2516174316406 C 439.150146484375 281.2707214355469 433.56365966796875 275.9031066894531 430.1501159667969 268.29010009765625 C 432.1905212402344 260.71405029296875 437.7120056152344 255.18576049804688 446.6385498046875 253.07611083984375 C 454.38287353515625 255.10877990722656 459.8852844238281 260.6195983886719 461.937255859375 268.90301513671875" stroke-width="0.0" fill="rgb(252, 67, 44)" opacity="1.0"/>
    <path d="M 327.8580017089844 328.8665771484375 C 325.8791809082031 336.34033203125 320.2919006347656 341.74017333984375 312.4297790527344 343.4733581542969 C 304.45684814453125 341.1679992675781 299.5439453125 335.2425537109375 296.31097412109375 327.1495056152344 C 298.1048583984375 319.6172180175781 303.628662109375 314.13616943359375 311.1845397949219 312.6860046386719 C 318.7510070800781 315.7919616699219 324.214599609375 321.24603271484375 327.8580017089844 328.8665771484375" stroke-width="0.0" fill="rgb(170, 37, 28)" opacity="1.0"/>
    <path d="M 350.9313049316406 353.2384033203125 C 348.7466735839844 362.12103271484375 342.8936767578125 366.7630615234375 334.8941650390625 368.200927734375 C 326.96453857421875 367.1634521484375 321.2223205566406 362.1856689453125 319.2078552246094 354.59600830078125 C 321.3608703613281 345.7972717285156 326.7252197265625 340.161865234375 335.53057861328125 338.0614318847656 C 343.3836975097656 340.1105651855469 348.9013671875 345.6112060546875 350.9313049316406 353.2384033203125" stroke-width="0.0" fill="rgb(252, 66, 43)" opacity="1.0"/>
    <path d="M 378.06390380859375 45.880611419677734 C 377.80755615234375 53.29512405395508 372.2912292480469 58.7970085144043 364.3114318847656 60.77116775512695 C 355.6682434082031 58.79459762573242 350.10589599609375 53.36637496948242 348.232177734375 45.90359115600586 C 351.905029296875 38.380916595458984 357.38720703125 32.92030715942383 364.3936767578125 30.961936950683594 C 370.6163635253906 32.914188385009766 376.08074951171875 38.38591003417969 378.06390380859375 45.880611419677734" stroke-width="0.0" fill="rgb(103, 5, 4)" opacity="0.9900074"/>
    <path d="M 287.47894287109375 307.4548645019531 C 285.1971435546875 314.6828918457031 279.65301513671875 320.1083984375 272.21368408203125 322.14447021484375 C 265.5 320.9903869628906 260.0096130371094 315.5 258.51165771484375 308.47564697265625 C 260.71356201171875 301.1643981933594 266.06134033203125 294.95086669921875 273.5404357910156 292.09375 C 281.0261535644531 294.2950134277344 286.1685791015625 300.18572998046875 287.47894287109375 307.4548645019531" stroke-width="0.0" fill="rgb(2, 2, 2)" opacity="0.99002"/>
    <path d="M 254.12551879882812 55.32395553588867 C 252.38230895996094 62.830718994140625 246.8125 68.3271255493164 239.11671447753906 70.36810302734375 C 231.51492309570312 67.9299087524414 226.10693359375 62.4774169921875 224.835205078125 55.457298278808594 C 225.9504852294922 47.445518493652344 231.6126251220703 42.37815475463867 239.57350158691406 40.88140106201172 C 246.5802001953125 41.68260192871094 251.71768188476562 47.63853073120117 254.12551879882812 55.32395553588867" stroke-width="0.0" fill="rgb(252, 248, 234)" opacity="1.0"/>
    <path d="M 210.9267120361328 129.0592041015625 C 208.99038696289062 136.5 203.5 141.99038696289062 195.99407958984375 144.00376892089844 C 188.4562530517578 142.017578125 182.86834716796875 136.5782928466797 180.66845703125 129.07351684570312 C 183.0369873046875 121.56784057617188 188.5885772705078 116.11064147949219 195.95626831054688 113.66618347167969 C 203.384033203125 116.13121795654297 208.85333251953125 121.62091827392578 210.9267120361328 129.0592041015625" stroke-width="0.0" fill="rgb(255, 242, 192)" opacity="0.9915522"/>
    <path d="M 225.92091369628906 334.5646667480469 C 224.25888061523438 343.0317077636719 219.18014526367188 348.7803649902344 211.486328125 350.8868408203125 C 202.79473876953125 348.7293701171875 197.2361602783203 343.21905517578125 195.10372924804688 334.9677429199219 C 197.26144409179688 326.8955993652344 203.0590057373047 321.7123107910156 210.9527130126953 319.9461669921875 C 218.72036743164062 321.87841796875 224.48243713378906 327.1571044921875 225.92091369628906 334.5646667480469" stroke-width="0.0" fill="rgb(207, 144, 95)" opacity="1.0"/>
    <path d="M 131.2084197998047 341.6473388671875 C 129.5232391357422 348.00634765625 124.09253692626953 354.1667785644531 117.668701171875 356.91180419921875 C 110.34877014160156 353.1578674316406 104.90117645263672 347.6331481933594 102.95783996582031 340.8672180175781 C 104.88763427734375 334.3011779785156 110.10636138916016 327.4291076660156 116.72413635253906 325.0619812011719 C 124.05419158935547 327.4192199707031 129.19639587402344 334.20062255859375 131.2084197998047 341.6473388671875" stroke-width="0.0" fill="rgb(2, 2, 2)" opacity="0.99000704"/>
    <path d="M 278.68701171875 316.8593444824219 C 276.7678527832031 324.13702392578125 270.98602294921875 329.39434814453125 263.14678955078125 331.4494934082031 C 255.22462463378906 329.13385009765625 249.38092041015625 323.9510803222656 247.1869354248047 315.56591796875 C 249.1765899658203 307.6856384277344 254.68898010253906 302.1855163574219 262.38873291015625 300.0989685058594 C 269.68560791015625 303.7530212402344 275.11273193359375 309.3489685058594 278.68701171875 316.8593444824219" stroke-width="0.0" fill="rgb(250, 230, 156)" opacity="0.99001896"/>
    <path d="M 330.9432373046875 562.46728515625 C 328.8769226074219 571.3722534179688 323.3791809082031 576.89404296875 314.5458984375 578.9617919921875 C 306.6136169433594 576.9026489257812 301.1125793457031 571.3798217773438 299.0528869628906 562.7068481445312 C 301.1121826171875 554.62890625 306.6304931640625 549.1158447265625 314.74127197265625 547.0534057617188 C 323.3753662109375 549.1126098632812 328.8899841308594 554.6237182617188 330.9432373046875 562.46728515625" stroke-width="0.0" fill="rgb(16, 142, 0)" opacity="1.0"/>
    <path d="M 472.9582824707031 503.018798828125 C 470.85528564453125 511.26971435546875 465.1404724121094 516.4927368164062 457.1690673828125 518.1022338867188 C 449.6304016113281 515.9338989257812 444.5982666015625 510.15228271484375 442.95648193359375 503.7771301269531 C 444.907958984375 496.37152099609375 450.36614990234375 490.8954772949219 457.91192626953125 488.1489562988281 C 465.3907165527344 489.0959777832031 470.89312744140625 494.6141052246094 472.9582824707031 503.018798828125" stroke-width="0.0" fill="rgb(2, 2, 2)" opacity="0.99001634"/>
    <path d="M 174.897705078125 409.56005859375 C 173.54872131347656 418.0704040527344 168.13308715820312 423.7174987792969 159.7239990234375 425.8349304199219 C 151.76536560058594 423.7647399902344 146.2105712890625 418.2447509765625 144.13401794433594 410.6256408691406 C 146.3594207763672 401.8531188964844 151.8017578125 396.2308349609375 159.30267333984375 394.2594299316406 C 167.6959991455078 396.91363525390625 173.59066772460938 402.10504150390625 174.897705078125 409.56005859375" stroke-width="0.0" fill="rgb(86, 205, 252)" opacity="1.0"/>
    <path d="M 395.32659912109375 417.0857849121094 C 394.5038146972656 424.9139099121094 388.75537109375 429.8209228515625 380.7272644042969 431.1310729980469 C 373.19622802734375 430.26983642578125 367.5887756347656 424.8466491699219 365.4590148925781 417.28778076171875 C 367.8684997558594 409.2817077636719 373.1839599609375 403.5688171386719 380.990478515625 401.309326171875 C 388.7991943359375 403.6041564941406 394.14971923828125 409.2773132324219 395.32659912109375 417.0857849121094" stroke-width="0.0" fill="rgb(252, 229, 168)" opacity="1.0"/>
    <path d="M 468.860107421875 225.32366943359375 C 466.6819763183594 234.10350036621094 461.0882263183594 239.6474151611328 452.4044189453125 241.8671875 C 444.7098083496094 239.81544494628906 439.2159729003906 234.27867126464844 437.19342041015625 225.92530822753906 C 439.3930358886719 218.08082580566406 445.267578125 212.885009765625 453.7414245605469 210.1613311767578 C 461.3231201171875 212.1624755859375 466.8565673828125 217.6686553955078 468.860107421875 225.32366943359375" stroke-width="0.0" fill="rgb(87, 201, 252)" opacity="1.0"/>
    <path d="M 311.9235534667969 184.6185302734375 C 309.84326171875 192.30587768554688 304.29315185546875 197.81507873535156 296.1933898925781 199.9136962890625 C 287.7315979003906 197.7998046875 282.2187194824219 192.26119995117188 280.1288757324219 184.29757690429688 C 282.4519348144531 176.16122436523438 288.3494567871094 170.9398956298828 296.1427307128906 168.88381958007812 C 304.0250549316406 170.58399963378906 309.7393493652344 175.862548828125 311.9235534667969 184.6185302734375" stroke-width="0.0" fill="rgb(255, 68, 42)" opacity="1.0"/>
    <path d="M 162.0412139892578 114.20671081542969 C 160.10595703125 121.70500183105469 155.00579833984375 128.69268798828125 147.18690490722656 130.960693359375 C 139.61180114746094 128.91152954101562 134.15382385253906 123.36248779296875 132.3643035888672 115.83683776855469 C 135.88775634765625 108.37545013427734 141.38882446289062 102.92359161376953 148.82192993164062 100.95933532714844 C 155.2191619873047 102.50260925292969 160.4512481689453 107.80901336669922 162.0412139892578 114.20671081542969" stroke-width="0.0" fill="rgb(2, 2, 2)" opacity="0.9900133"/>
    <path d="M 280.37542724609375 73.92256164550781 C 278.18212890625 81.72171783447266 272.7635803222656 87.31729125976562 264.8385009765625 89.59475708007812 C 257.17889404296875 87.42100524902344 251.71136474609375 81.77383422851562 249.62155151367188 74.08724975585938 C 251.9403076171875 66.43961334228516 257.39569091796875 60.81126022338867 264.9018859863281 58.63869857788086 C 272.68896484375 60.87194061279297 278.26007080078125 66.27230072021484 280.37542724609375 73.92256164550781" stroke-width="0.0" fill="rgb(255, 243, 197)" opacity="0.99070394"/>
    <path d="M 211.26284790039062 86.68444061279297 C 208.81776428222656 94.1871566772461 202.9765625 99.27960968017578 195.32183837890625 101.16972351074219 C 188.5 99.9903793334961 183.00961303710938 94.5 180.1773681640625 86.22200012207031 C 182.1138458251953 78.61824035644531 187.62030029296875 73.11862182617188 195.4678497314453 71.07972717285156 C 204.24652099609375 73.18685150146484 209.6012725830078 78.82765197753906 211.26284790039062 86.68444061279297" stroke-width="0.0" fill="rgb(2, 2, 0)" opacity="0.990109"/>
    <path d="M 154.7860565185547 178.0982208251953 C 153.1360626220703 185.4360809326172 147.3236541748047 190.74119567871094 139.7965850830078 193.05516052246094 C 132.39569091796875 191.10092163085938 126.88106536865234 185.61077880859375 125.012939453125 178.08834838867188 C 127.05244445800781 170.47943115234375 132.38999938964844 164.77154541015625 139.7671661376953 162.4803009033203 C 147.5800018310547 164.9801483154297 153.21217346191406 170.3588104248047 154.7860565185547 178.0982208251953" stroke-width="0.0" fill="rgb(255, 246, 197)" opacity="0.9903503"/>
    <path d="M 155.261962890625 349.2574768066406 C 154.43663024902344 357.0871276855469 149.2300262451172 362.8304138183594 141.84585571289062 364.89361572265625 C 134.2948760986328 361.1798095703125 128.8345947265625 355.7003173828125 126.80865478515625 348.3545837402344 C 128.62823486328125 342.1549987792969 134.16090393066406 336.6392517089844 141.69212341308594 333.092041015625 C 149.1427001953125 335.2439880371094 154.4484405517578 340.9744567871094 155.261962890625 349.2574768066406" stroke-width="0.0" fill="rgb(3, 2, 2)" opacity="0.99000835"/>
    <path d="M 148.80197143554688 237.2174072265625 C 146.6600799560547 245.09884643554688 141.0730438232422 250.59161376953125 132.46615600585938 252.82595825195312 C 124.72085571289062 250.7938690185547 119.17008209228516 245.2937774658203 117.16267395019531 237.71588134765625 C 119.2402572631836 228.71347045898438 124.6854248046875 223.1578369140625 132.39187622070312 221.19883728027344 C 141.13812255859375 223.29595947265625 146.62136840820312 228.89462280273438 148.80197143554688 237.2174072265625" stroke-width="0.0" fill="rgb(98, 201, 252)" opacity="1.0"/>
    <path d="M 277.8420715332031 414.744873046875 C 275.83538818359375 422.3152770996094 270.3162841796875 427.8380432128906 262.42572021484375 429.9145812988281 C 253.7176971435547 427.8081970214844 248.17356872558594 422.2900695800781 246.0693359375 413.51568603515625 C 248.1189727783203 405.63275146484375 253.63796997070312 400.1321105957031 261.2204284667969 398.1405029296875 C 269.5 401.0096130371094 274.9903869628906 406.5 277.8420715332031 414.744873046875" stroke-width="0.0" fill="rgb(252, 68, 42)" opacity="1.0"/>
    <path d="M 438.42034912109375 113.92052459716797 C 436.8224182128906 121.3550033569336 431.3249816894531 126.73636627197266 423.8079528808594 129.09841918945312 C 416.43756103515625 127.05706024169922 410.8842468261719 121.58113098144531 408.8758850097656 114.07234191894531 C 411.0 106.48626708984375 416.50341796875 101.06346893310547 424.21405029296875 99.78118896484375 C 431.8837890625 100.487548828125 437.01483154296875 106.26887512207031 438.42034912109375 113.92052459716797" stroke-width="0.0" fill="rgb(252, 248, 220)" opacity="1.0"/>
    <path d="M 233.40321350097656 154.10098266601562 C 231.14622497558594 161.69114685058594 225.69921875 167.16664123535156 218.27694702148438 169.17457580566406 C 211.01480102539062 168.3194122314453 205.2171630859375 163.15574645996094 204.86712646484375 155.86166381835938 C 206.74070739746094 148.03347778320312 211.84042358398438 142.34698486328125 219.87925720214844 139.099365234375 C 227.40423583984375 141.08798217773438 232.90921020507812 146.59686279296875 233.40321350097656 154.10098266601562" stroke-width="0.0" fill="rgb(2, 2, 2)" opacity="0.99001443"/>
    <path d="M 212.90960693359375 222.06893920898438 C 210.77423095703125 230.17266845703125 205.0520477294922 235.4329071044922 196.80758666992188 237.33079528808594 C 188.84690856933594 235.58824157714844 183.20965576171875 230.22317504882812 181.09800720214844 222.39620971679688 C 183.24948120117188 213.8131561279297 188.86553955078125 208.39393615722656 197.64202880859375 206.13632202148438 C 205.29458618164062 208.18373107910156 210.81857299804688 213.70457458496094 212.90960693359375 222.06893920898438" stroke-width="0.0" fill="rgb(255, 73, 46)" opacity="1.0"/>
    <path d="M 175.04457092285156 150.66725158691406 C 174.51284790039062 158.3052978515625 169.3732452392578 163.90447998046875 161.56784057617188 165.95916748046875 C 152.65931701660156 163.88523864746094 147.2670440673828 158.28382873535156 145.06602478027344 149.17913818359375 C 147.09738159179688 141.6139373779297 152.63095092773438 136.1454315185547 160.12449645996094 135.93743896484375 C 167.61451721191406 137.9180145263672 173.09596252441406 143.37966918945312 175.04457092285156 150.66725158691406" stroke-width="0.0" fill="rgb(2, 2, 2)" opacity="0.9900092"/>
    <path d="M 298.8855895996094 386.63555908203125 C 296.76251220703125 395.19940185546875 291.1348571777344 400.57037353515625 283.28021240234375 402.253662109375 C 275.49603271484375 399.99169921875 269.9471435546875 394.521484375 267.1312255859375 386.24365234375 C 269.1666259765625 378.7165222167969 274.75811767578125 373.26983642578125 283.54962158203125 371.1034851074219 C 291.29766845703125 373.1764831542969 296.8142395019531 378.70611572265625 298.8855895996094 386.63555908203125" stroke-width="0.0" fill="rgb(255, 74, 44)" opacity="1.0"/>
    <path d="M 162.75775146484375 384.61126708984375 C 160.82772827148438 392.3111572265625 155.26992797851562 397.64019775390625 147.27099609375 398.08135986328125 C 140.2172088623047 396.24932861328125 134.79721069335938 390.7641906738281 132.9334716796875 384.3528137207031 C 134.82655334472656 377.21710205078125 139.94674682617188 370.4091491699219 146.77926635742188 368.08685302734375 C 155.10621643066406 370.329833984375 160.57135009765625 375.92730712890625 162.75775146484375 384.61126708984375" stroke-width="0.0" fill="rgb(4, 2, 4)" opacity="0.99000835"/>
    <path d="M 324.1660461425781 350.2568359375 C 323.6926574707031 358.2998046875 318.34783935546875 363.87567138671875 310.880126953125 364.09747314453125 C 303.3409423828125 362.11688232421875 297.8760986328125 356.6621398925781 295.95721435546875 350.5023193359375 C 297.8832092285156 343.2935791015625 303.1688537597656 337.3916931152344 309.3931884765625 334.7344970703125 C 316.8585510253906 337.7166748046875 322.4845886230469 343.0785217285156 324.1660461425781 350.2568359375" stroke-width="0.0" fill="rgb(2, 2, 2)" opacity="0.99000823"/>
    <path d="M 130.2129364013672 181.9960174560547 C 128.19522094726562 189.652099609375 122.58659362792969 194.95933532714844 114.92237091064453 197.09561157226562 C 107.47052001953125 194.9962615966797 101.91757202148438 189.5547637939453 99.53469848632812 181.9561309814453 C 102.04576873779297 174.58802795410156 107.60392761230469 169.11265563964844 115.25765991210938 166.72744750976562 C 122.76495361328125 168.70550537109375 128.24143981933594 174.25074768066406 130.2129364013672 181.9960174560547" stroke-width="0.0" fill="rgb(254, 244, 192)" opacity="0.9902437"/>
    <path d="M 380.939208984375 306.7789001464844 C 378.8298034667969 314.2357177734375 373.149169921875 319.6553955078125 365.66461181640625 320.6091613769531 C 357.283447265625 318.6751708984375 351.211669921875 314.10723876953125 349.05682373046875 306.65008544921875 C 352.69317626953125 299.298095703125 358.3477478027344 293.89654541015625 364.4734802246094 291.962890625 C 371.6291809082031 293.91387939453125 377.24932861328125 299.3292236328125 380.939208984375 306.7789001464844" stroke-width="0.0" fill="rgb(2, 2, 2)" opacity="0.9900093"/>
    <path d="M 469.1162414550781 512.0899658203125 C 467.0659484863281 519.59423828125 461.59735107421875 525.0731811523438 454.09442138671875 527.0733642578125 C 446.60076904296875 526.899169921875 441.0848083496094 521.4054565429688 440.7698669433594 513.9244995117188 C 442.87005615234375 506.2577819824219 448.1172790527344 500.4854736328125 455.15545654296875 498.09228515625 C 462.6690673828125 499.9371032714844 468.650390625 505.0798034667969 469.1162414550781 512.0899658203125" stroke-width="0.0" fill="rgb(2, 2, 2)" opacity="0.9900217"/>
    <path d="M 502.95013427734375 314.21649169921875 C 500.7210693359375 323.04486083984375 494.8288269042969 328.17816162109375 487.0340270996094 330.0167541503906 C 479.5146179199219 327.98583984375 474.2768859863281 322.39825439453125 472.9288024902344 315.7424621582031 C 474.86968994140625 308.3171691894531 480.2634582519531 302.650390625 487.8516845703125 299.0563659667969 C 495.40264892578125 301.0879821777344 500.90887451171875 306.5987548828125 502.95013427734375 314.21649169921875" stroke-width="0.0" fill="rgb(2, 2, 2)" opacity="0.990035"/>
    <path d="M 199.7515869140625 97.82400512695312 C 197.71658325195312 105.05663299560547 191.86019897460938 110.17224884033203 184.09678649902344 111.4426040649414 C 176.53993225097656 109.84549713134766 170.9551239013672 104.52352905273438 168.91221618652344 97.00309753417969 C 171.12255859375 89.81448364257812 177.00144958496094 84.67559814453125 183.18504333496094 82.94902801513672 C 190.61441040039062 84.91970825195312 196.1217803955078 90.37068176269531 199.7515869140625 97.82400512695312" stroke-width="0.0" fill="rgb(249, 248, 227)" opacity="0.99001384"/>
    <path d="M 288.70172119140625 215.43955993652344 C 285.9903869628906 223.5 280.5 228.99038696289062 273.5099792480469 230.4241485595703 C 266.2333679199219 228.25833129882812 260.83612060546875 222.73072814941406 258.9026794433594 215.21131896972656 C 259.239990234375 207.73780822753906 264.7362976074219 202.232666015625 273.010009765625 200.18019104003906 C 281.1645202636719 202.28240966796875 286.6911315917969 207.84654235839844 288.70172119140625 215.43955993652344" stroke-width="0.0" fill="rgb(128, 12, 3)" opacity="0.9900166"/>
    <path d="M 227.8125457763672 321.3709716796875 C 225.47793579101562 329.1928405761719 218.86367797851562 334.2120666503906 211.2436065673828 336.19427490234375 C 204.26382446289062 335.485107421875 199.6626434326172 329.1591796875 197.9215850830078 321.5928039550781 C 198.73265075683594 313.7641296386719 203.6605682373047 308.1116027832031 211.76210021972656 306.0431823730469 C 220.3772735595703 308.1068115234375 225.85653686523438 313.63629150390625 227.8125457763672 321.3709716796875" stroke-width="0.0" fill="rgb(105, 3, 4)" opacity="0.9900143"/>
    <path d="M 519.0311889648438 370.0329284667969 C 517.1052856445312 377.6468505859375 511.6930847167969 383.2533874511719 503.9990539550781 385.4865417480469 C 496.6889953613281 382.9716796875 491.4145202636719 377.2014465332031 489.2291564941406 369.7622985839844 C 491.2418212890625 362.6883544921875 496.67169189453125 357.1893615722656 504.2384948730469 354.5599365234375 C 511.5841064453125 356.8267517089844 517.0037231445312 362.46868896484375 519.0311889648438 370.0329284667969" stroke-width="0.0" fill="rgb(255, 242, 192)" opacity="0.99041533"/>
    <path d="M 360.5140075683594 515.029296875 C 358.1366882324219 522.624267578125 352.65350341796875 528.2168579101562 344.97283935546875 530.4978637695312 C 337.44970703125 528.1116943359375 332.0033264160156 522.5157470703125 329.99444580078125 514.9866333007812 C 331.9337463378906 507.3699035644531 337.2919921875 501.6906433105469 344.86346435546875 499.5229797363281 C 352.6173400878906 501.8730773925781 358.1958923339844 507.3596496582031 360.5140075683594 515.029296875" stroke-width="0.0" fill="rgb(255, 242, 197)" opacity="0.99094963"/>
    <path d="M 125.95552062988281 474.5216064453125 C 123.83744812011719 483.28729248046875 118.26896667480469 488.7989501953125 110.87640380859375 489.1514587402344 C 102.08071899414062 487.2250671386719 96.11609649658203 483.3047180175781 94.07389068603516 475.8811340332031 C 97.89158630371094 468.3851013183594 103.39543914794922 462.9231262207031 110.53632354736328 460.96002197265625 C 116.74987030029297 462.87481689453125 123.78900909423828 467.49127197265625 125.95552062988281 474.5216064453125" stroke-width="0.0" fill="rgb(2, 2, 2)" opacity="0.990009"/>
    <path d="M 447.0404052734375 78.83716583251953 C 446.6324462890625 86.30021667480469 441.36138916015625 91.8950424194336 432.7252197265625 93.96110534667969 C 424.5924377441406 91.9128646850586 419.0837707519531 86.40901184082031 417.07537841796875 78.88750457763672 C 420.8572082519531 71.36113739013672 426.3818054199219 65.91862487792969 432.8164978027344 63.962493896484375 C 439.6029357910156 65.92355346679688 445.06982421875 71.39990997314453 447.0404052734375 78.83716583251953" stroke-width="0.0" fill="rgb(8, 39, 3)" opacity="0.99000716"/>
    <path d="M 189.87147521972656 526.8124389648438 C 187.88619995117188 534.3479614257812 182.24192810058594 538.58447265625 174.7848663330078 540.0357055664062 C 167.36827087402344 538.07861328125 161.5332489013672 532.7031860351562 158.05783081054688 525.201416015625 C 160.09539794921875 517.6090087890625 165.62362670898438 512.1373901367188 173.21908569335938 511.9046936035156 C 181.0548553466797 513.6632690429688 186.86952209472656 518.7340698242188 189.87147521972656 526.8124389648438" stroke-width="0.0" fill="rgb(2, 2, 2)" opacity="0.99001706"/>
    <path d="M 339.93182373046875 205.5127716064453 C 337.86578369140625 213.34149169921875 332.33074951171875 218.83975219726562 324.6170349121094 220.8888397216797 C 315.86767578125 218.64547729492188 310.2332458496094 213.18594360351562 308.0992736816406 205.22972106933594 C 310.21539306640625 196.73583984375 315.73193359375 191.20571899414062 324.6121520996094 189.08758544921875 C 332.3408203125 191.1378173828125 337.8422546386719 196.66749572753906 339.93182373046875 205.5127716064453" stroke-width="0.0" fill="rgb(252, 74, 46)" opacity="1.0"/>
    <path d="M 214.87820434570312 240.1927947998047 C 211.3868408203125 247.92051696777344 205.90267944335938 253.33514404296875 198.33352661132812 255.24566650390625 C 190.7248992919922 254.75738525390625 185.18341064453125 249.29421997070312 183.10150146484375 241.2275390625 C 185.26608276367188 232.879150390625 191.00439453125 227.61944580078125 199.22698974609375 225.6671905517578 C 207.16897583007812 227.39895629882812 212.8223876953125 232.750244140625 214.87820434570312 240.1927947998047" stroke-width="0.0" fill="rgb(252, 74, 45)" opacity="1.0"/>
    <path d="M 195.6651153564453 181.2697296142578 C 193.44537353515625 189.1473388671875 188.3115997314453 194.89352416992188 180.4619140625 197.5144805908203 C 172.6727752685547 195.786865234375 167.1021728515625 190.36660766601562 165.03732299804688 181.90142822265625 C 167.09381103515625 173.60809326171875 172.61257934570312 168.1037139892578 181.63807678222656 166.03822326660156 C 189.3916015625 168.08731079101562 194.8380889892578 173.63510131835938 195.6651153564453 181.2697296142578" stroke-width="0.0" fill="rgb(2, 2, 2)" opacity="0.99018"/>
    <path d="M 244.88037109375 119.21131134033203 C 242.69000244140625 128.22244262695312 237.30311584472656 133.87185668945312 229.6452178955078 135.95863342285156 C 221.80642700195312 133.75120544433594 216.88681030273438 126.72535705566406 214.9583740234375 119.23670959472656 C 215.429443359375 111.70530700683594 220.63966369628906 106.10625457763672 228.77342224121094 104.04463195800781 C 237.39605712890625 106.09601593017578 242.9016571044922 111.60488891601562 244.88037109375 119.21131134033203" stroke-width="0.0" fill="rgb(2, 2, 2)" opacity="0.9900238"/>
    <path d="M 545.9552001953125 311.6033020019531 C 543.9019775390625 319.38909912109375 538.3866577148438 324.8966369628906 530.3148193359375 326.9581604003906 C 521.613525390625 324.89727783203125 516.0943603515625 319.39031982421875 514.1580200195312 311.9212341308594 C 517.9241333007812 304.3974304199219 523.3978271484375 298.9254150390625 530.4403686523438 296.9666442871094 C 536.7423095703125 298.8846435546875 543.7982177734375 303.3860168457031 545.9552001953125 311.6033020019531" stroke-width="0.0" fill="rgb(2, 2, 2)" opacity="0.99000955"/>
    <path d="M 297.92974853515625 122.87586975097656 C 295.9113464355469 130.39764404296875 290.39276123046875 135.9004364013672 282.03973388671875 137.95388793945312 C 273.6094665527344 135.90187072753906 268.1125793457031 130.38470458984375 266.05743408203125 121.60680389404297 C 268.1079406738281 113.61922454833984 273.6180114746094 108.10474395751953 281.1545104980469 106.08639526367188 C 289.4993591308594 109.00980377197266 294.9663391113281 114.50720977783203 297.92974853515625 122.87586975097656" stroke-width="0.0" fill="rgb(202, 8, 5)" opacity="1.0"/>
    <path d="M 443.34234619140625 474.13446044921875 C 441.0220642089844 481.40692138671875 435.34246826171875 486.7812805175781 427.6751708984375 489.47216796875 C 420.3223876953125 487.2884216308594 414.8907470703125 481.61669921875 412.5167541503906 474.0023193359375 C 414.9024963378906 466.5184631347656 420.5796813964844 461.11529541015625 428.11968994140625 458.78631591796875 C 435.470947265625 461.0033874511719 440.90185546875 466.557861328125 443.34234619140625 474.13446044921875" stroke-width="0.0" fill="rgb(255, 242, 193)" opacity="0.9905735"/>
    <path d="M 417.999267578125 107.00737762451172 C 416.1279602050781 114.68111419677734 410.7470397949219 120.33502197265625 403.1004943847656 122.56584167480469 C 395.1632080078125 120.35485076904297 389.6306457519531 114.84033203125 387.3440856933594 106.71653747558594 C 389.3569030761719 98.8499755859375 394.8304443359375 93.29859924316406 402.2958068847656 92.78569793701172 C 410.4519348144531 94.27012634277344 416.07366943359375 99.4334716796875 417.999267578125 107.00737762451172" stroke-width="0.0" fill="rgb(250, 237, 194)" opacity="1.0"/>
    <path d="M 288.9549255371094 39.73807144165039 C 286.87078857421875 48.2775764465332 280.8373718261719 52.24623489379883 273.620361328125 54.039283752441406 C 266.39312744140625 52.07939147949219 260.91912841796875 46.60749435424805 257.3218994140625 39.07992935180664 C 259.0896911621094 31.600439071655273 264.6041564941406 26.09840965270996 273.4394836425781 24.041440963745117 C 281.4088439941406 26.08393096923828 286.9082336425781 31.594425201416016 288.9549255371094 39.73807144165039" stroke-width="0.0" fill="rgb(2, 2, 2)" opacity="0.99001133"/>
    <path d="M 411.80474853515625 204.26243591308594 C 409.7632141113281 212.2377471923828 404.2447509765625 217.78184509277344 396.4179992675781 219.89382934570312 C 387.808349609375 217.75076293945312 382.3656921386719 212.1484832763672 380.3819274902344 204.3546905517578 C 382.6476745605469 196.1018524169922 387.97650146484375 190.3322296142578 396.02734375 188.17189025878906 C 404.2915954589844 190.1870880126953 409.77471923828125 195.721923828125 411.80474853515625 204.26243591308594" stroke-width="0.0" fill="rgb(250, 176, 127)" opacity="1.0"/>
    <path d="M 288.7615966796875 154.5015411376953 C 286.1790771484375 162.6691131591797 280.7641296386719 168.42556762695312 272.2803955078125 170.81260681152344 C 264.7449645996094 168.8072967529297 259.2849426269531 163.2194366455078 257.44342041015625 155.49957275390625 C 260.0096130371094 147.5 265.5 142.00961303710938 273.47857666015625 139.4044952392578 C 281.1103210449219 141.35206604003906 286.6653137207031 146.88339233398438 288.7615966796875 154.5015411376953" stroke-width="0.0" fill="rgb(99, 202, 252)" opacity="1.0"/>
    <path d="M 372.4251708984375 137.5753936767578 C 370.29840087890625 145.95843505859375 365.1351318359375 151.7705078125 357.7988586425781 153.5729217529297 C 348.9587707519531 150.52713012695312 343.135009765625 146.27635192871094 341.0992736816406 138.82183837890625 C 344.0279235839844 130.55088806152344 349.71533203125 125.45986938476562 357.7251281738281 123.89672088623047 C 365.3103942871094 124.17149353027344 370.7337646484375 129.718505859375 372.4251708984375 137.5753936767578" stroke-width="0.0" fill="rgb(3, 2, 2)" opacity="0.9900691"/>
    <path d="M 186.90240478515625 380.8631591796875 C 184.79603576660156 389.2652282714844 179.25917053222656 394.7803649902344 170.43568420410156 396.90484619140625 C 162.69761657714844 394.8323974609375 157.19549560546875 389.29107666015625 155.1021270751953 381.00531005859375 C 157.19969177246094 372.7238464355469 162.72079467773438 367.1917724609375 170.85861206054688 365.09588623046875 C 179.29132080078125 367.18792724609375 184.81373596191406 372.70794677734375 186.90240478515625 380.8631591796875" stroke-width="0.0" fill="rgb(255, 64, 40)" opacity="1.0"/>
    <path d="M 275.94866943359375 478.6226501464844 C 273.8865966796875 486.3773498535156 268.3807678222656 491.8941345214844 259.5137023925781 493.9540710449219 C 251.601318359375 491.9093322753906 246.11148071289062 486.39056396484375 244.0570068359375 477.44183349609375 C 246.10919189453125 469.6463623046875 251.70925903320312 464.34326171875 259.2892761230469 463.9119567871094 C 266.89093017578125 465.80364990234375 273.7657470703125 470.1396484375 275.94866943359375 478.6226501464844" stroke-width="0.0" fill="rgb(114, 8, 9)" opacity="0.99016345"/>
    <path d="M 286.5354309082031 535.463134765625 C 284.47705078125 542.7642211914062 278.5422058105469 547.8679809570312 270.8567199707031 550.4379272460938 C 263.5068664550781 548.0282592773438 257.9185485839844 542.5127563476562 255.8398895263672 535.0798950195312 C 258.00299072265625 527.4852905273438 263.4574279785156 521.9091796875 270.822265625 519.6981811523438 C 278.77691650390625 521.8570556640625 284.5464172363281 527.0903930664062 286.5354309082031 535.463134765625" stroke-width="0.0" fill="rgb(252, 246, 198)" opacity="0.9905497"/>
    <path d="M 308.8731689453125 247.40719604492188 C 306.7204895019531 255.005126953125 300.37445068359375 259.43487548828125 292.5574645996094 261.42010498046875 C 285.6929931640625 259.8925476074219 280.59979248046875 254.1182098388672 278.8980712890625 246.8584442138672 C 280.5893859863281 239.88951110839844 285.7210998535156 234.1339569091797 292.85040283203125 232.2373504638672 C 300.3653869628906 234.28585815429688 306.52557373046875 239.2801055908203 308.8731689453125 247.40719604492188" stroke-width="0.0" fill="rgb(170, 13, 6)" opacity="0.9900233"/>
    <path d="M 308.88226318359375 170.33558654785156 C 306.4547424316406 178.7697296142578 300.6226806640625 184.04676818847656 292.8616027832031 186.10411071777344 C 284.9776306152344 184.40882873535156 279.2469482421875 179.1448974609375 277.07904052734375 170.73216247558594 C 279.2539367675781 162.93014526367188 285.3956298828125 158.5364532470703 293.542724609375 156.88192749023438 C 301.24493408203125 157.34988403320312 306.834228515625 162.70306396484375 308.88226318359375 170.33558654785156" stroke-width="0.0" fill="rgb(243, 69, 43)" opacity="1.0"/>
    <path d="M 489.0223388671875 431.9814147949219 C 486.9903869628906 439.5 481.5 444.9903869628906 474.0 447.0 C 466.4999694824219 444.9903869628906 461.0086364746094 439.5002746582031 458.75439453125 431.8520812988281 C 460.7543029785156 424.31298828125 466.3868408203125 419.0224609375 474.0873718261719 417.19329833984375 C 481.4728698730469 419.098876953125 487.02911376953125 424.4872131347656 489.0223388671875 431.9814147949219" stroke-width="0.0" fill="rgb(255, 242, 194)" opacity="0.9914151"/>
    <path d="M 70.1875228881836 344.3936462402344 C 68.38533782958984 350.9132385253906 62.88371276855469 356.30487060546875 56.36003112792969 358.1346740722656 C 49.21632766723633 356.23797607421875 43.788299560546875 350.77294921875 41.89741516113281 343.96551513671875 C 43.788047790527344 337.217529296875 49.13624954223633 331.42657470703125 56.474639892578125 328.0923767089844 C 63.320350646972656 330.4173583984375 68.28627014160156 337.0700378417969 70.1875228881836 344.3936462402344" stroke-width="0.0" fill="rgb(128, 127, 112)" opacity="0.9900145"/>
    <path d="M 278.5597839355469 145.4874725341797 C 275.9900817871094 153.49966430664062 270.5000305175781 158.9914093017578 262.6358947753906 161.4398193359375 C 254.9296875 159.57818603515625 249.34434509277344 154.0979461669922 247.12612915039062 145.36883544921875 C 249.16346740722656 137.6815643310547 254.67208862304688 132.14207458496094 262.66607666015625 130.08172607421875 C 271.28143310546875 132.17108154296875 276.732666015625 137.75538635253906 278.5597839355469 145.4874725341797" stroke-width="0.0" fill="rgb(97, 198, 252)" opacity="1.0"/>
    <path d="M 508.9356994628906 205.45516967773438 C 506.82867431640625 214.2866973876953 501.2715759277344 219.7953643798828 492.9166564941406 221.9143524169922 C 484.68353271484375 219.83311462402344 479.1514587402344 214.32275390625 477.1120910644531 206.79806518554688 C 480.43768310546875 199.04698181152344 486.1809387207031 193.807861328125 493.85101318359375 191.8988800048828 C 501.374267578125 192.1202392578125 506.87969970703125 197.62625122070312 508.9356994628906 205.45516967773438" stroke-width="0.0" fill="rgb(91, 9, 8)" opacity="0.99004865"/>
    <path d="M 391.29534912109375 154.9090576171875 C 390.9095153808594 162.4033660888672 385.4035949707031 167.9102325439453 377.88751220703125 169.88897705078125 C 370.2767333984375 166.175537109375 364.7461242675781 160.74925231933594 361.1388854980469 153.26290893554688 C 363.3394470214844 146.05386352539062 369.2918395996094 140.91285705566406 376.7336120605469 139.18869018554688 C 383.7912292480469 141.61895751953125 389.11859130859375 147.2985076904297 391.29534912109375 154.9090576171875" stroke-width="0.0" fill="rgb(2, 2, 2)" opacity="0.99004614"/>
    <path d="M 292.86932373046875 399.70794677734375 C 290.81707763671875 407.28375244140625 285.27825927734375 412.8045959472656 277.7193908691406 414.83489990234375 C 269.5002136230469 411.9901428222656 264.0101013183594 406.4997253417969 261.1357421875 398.23602294921875 C 263.1701354980469 390.72540283203125 268.78497314453125 385.3394470214844 276.6294860839844 383.6516418457031 C 284.5043029785156 386.00836181640625 290.08795166015625 391.4675598144531 292.86932373046875 399.70794677734375" stroke-width="0.0" fill="rgb(255, 72, 45)" opacity="1.0"/>
    <path d="M 518.22900390625 440.5660400390625 C 516.6392211914062 447.1507263183594 511.12188720703125 452.5530090332031 503.5630798339844 455.4372253417969 C 496.3177490234375 453.2767639160156 490.9023132324219 447.6255187988281 488.96722412109375 440.038330078125 C 491.0273132324219 432.5323181152344 496.55084228515625 427.087646484375 504.0006103515625 424.654052734375 C 511.21600341796875 427.1513977050781 516.3753051757812 432.9478759765625 518.22900390625 440.5660400390625" stroke-width="0.0" fill="rgb(252, 251, 228)" opacity="1.0"/>
    <path d="M 299.5860900878906 227.51036071777344 C 297.2631530761719 235.7594451904297 291.7432556152344 241.20486450195312 284.4529724121094 242.43472290039062 C 277.1810302734375 240.2982940673828 271.7354431152344 234.8074188232422 268.45758056640625 227.35140991210938 C 270.52972412109375 220.22637939453125 276.3606872558594 214.8533935546875 284.6198425292969 212.1976318359375 C 292.2532653808594 214.217529296875 297.7342834472656 219.76368713378906 299.5860900878906 227.51036071777344" stroke-width="0.0" fill="rgb(219, 52, 35)" opacity="0.9900739"/>
    <path d="M 219.79696655273438 136.75323486328125 C 217.8765869140625 144.38670349121094 212.40084838867188 149.91427612304688 204.864990234375 151.92112731933594 C 196.49703979492188 149.00059509277344 191.00955200195312 143.5001983642578 189.0 136.0 C 191.00961303710938 128.5 196.5 123.00962829589844 204.04212951660156 120.9093017578125 C 211.37728881835938 123.01025390625 216.7145233154297 128.70272827148438 219.79696655273438 136.75323486328125" stroke-width="0.0" fill="rgb(255, 247, 198)" opacity="1.0"/>
    <path d="M 214.96612548828125 136.99842834472656 C 212.9726104736328 144.47979736328125 207.45469665527344 149.88760375976562 199.81385803222656 151.7915802001953 C 192.4123077392578 150.04006958007812 186.7509765625 144.6548309326172 184.75746154785156 137.16323852539062 C 187.0101776123047 129.5004425048828 192.5004425048828 124.01016235351562 199.99932861328125 122.00166320800781 C 207.49615478515625 124.01268768310547 212.98068237304688 129.50576782226562 214.96612548828125 136.99842834472656" stroke-width="0.0" fill="rgb(255, 246, 195)" opacity="0.9911395"/>
    <path d="M 267.3109436035156 523.8169555664062 C 264.99029541015625 531.4999389648438 259.5 536.9903564453125 252.0 539.0 C 244.5 536.9903564453125 239.00961303710938 531.5 237.15066528320312 524.166259765625 C 239.3741912841797 516.8289184570312 244.8077850341797 511.3033752441406 251.93234252929688 509.01123046875 C 259.555908203125 511.06103515625 265.2376708984375 516.3560791015625 267.3109436035156 523.8169555664062" stroke-width="0.0" fill="rgb(255, 243, 194)" opacity="0.99107045"/>
    <path d="M 500.9439392089844 326.8490905761719 C 498.91241455078125 334.3965148925781 493.3849182128906 339.8843688964844 485.783935546875 341.8425598144531 C 477.5 338.9903869628906 472.0096130371094 333.5 470.0 326.0 C 472.0096130371094 318.5 477.5 313.0096130371094 485.0039367675781 310.9985656738281 C 492.60296630859375 312.96856689453125 498.5100402832031 318.2112731933594 500.9439392089844 326.8490905761719" stroke-width="0.0" fill="rgb(0, 2, 0)" opacity="1.0"/>
    <path d="M 487.0350341796875 132.45159912109375 C 485.0799255371094 138.60848999023438 479.61065673828125 144.0851593017578 472.7031555175781 146.03797912597656 C 466.3299255371094 144.09886169433594 459.3848876953125 138.83053588867188 457.0400085449219 131.31263732910156 C 459.1035461425781 123.64755249023438 464.74774169921875 118.88285827636719 472.1600341796875 117.9630126953125 C 479.5868835449219 119.9403305053711 485.066162109375 125.41032409667969 487.0350341796875 132.45159912109375" stroke-width="0.0" fill="rgb(5, 8, 4)" opacity="0.9900057"/>
    <path d="M 266.0036926269531 527.005126953125 C 264.0187072753906 534.5523681640625 258.607666015625 540.1951904296875 250.83621215820312 542.5462646484375 C 243.15316772460938 540.4039306640625 237.59608459472656 534.84619140625 235.47915649414062 527.3110961914062 C 238.0518798828125 519.517578125 243.5056915283203 514.010986328125 250.999755859375 511.9985046386719 C 258.500244140625 514.0093994140625 263.9907531738281 519.499755859375 266.0036926269531 527.005126953125" stroke-width="0.0" fill="rgb(255, 243, 194)" opacity="0.9919023"/>
    <path d="M 75.8972396850586 315.9173889160156 C 73.91450500488281 323.4035339355469 68.39730072021484 328.8995056152344 59.910247802734375 330.9497375488281 C 51.64188003540039 328.88671875 46.14542770385742 323.34307861328125 44.052825927734375 314.5276184082031 C 46.167327880859375 306.9810791015625 53.21499252319336 302.884521484375 60.38655471801758 300.961181640625 C 66.60858154296875 302.91522216796875 72.08711242675781 308.3907165527344 75.8972396850586 315.9173889160156" stroke-width="0.0" fill="rgb(2, 2, 2)" opacity="0.9900093"/>
    <path d="M 399.53302001953125 130.04299926757812 C 397.3165588378906 137.7274169921875 391.6653137207031 143.121826171875 384.04071044921875 145.0371856689453 C 376.5 142.99038696289062 371.0096130371094 137.5 368.3612365722656 129.50485229492188 C 370.3640441894531 121.91059112548828 375.9033508300781 116.34832000732422 383.55474853515625 114.28624725341797 C 391.7314758300781 116.73448944091797 397.30841064453125 122.25228118896484 399.53302001953125 130.04299926757812" stroke-width="0.0" fill="rgb(252, 238, 189)" opacity="1.0"/>
    <path d="M 189.08834838867188 285.0903625488281 C 187.23123168945312 292.7623291015625 181.79283142089844 298.3299560546875 173.9832000732422 300.45648193359375 C 166.11170959472656 298.3956604003906 160.47157287597656 292.9354553222656 158.39796447753906 285.1705627441406 C 160.4422607421875 277.0899658203125 166.2372283935547 271.8808898925781 174.02012634277344 269.7679748535156 C 181.5030517578125 271.9992980957031 186.99046325683594 277.499755859375 189.08834838867188 285.0903625488281" stroke-width="0.0" fill="rgb(250, 227, 160)" opacity="1.0"/>
    <path d="M 299.5749206542969 264.5307312011719 C 297.30633544921875 272.822998046875 291.8638916015625 278.43115234375 283.4112243652344 280.69500732421875 C 275.71575927734375 278.79888916015625 270.1999816894531 273.2845458984375 268.34295654296875 265.6714172363281 C 270.91473388671875 257.3392028808594 276.20782470703125 251.5391845703125 284.6303405761719 249.11561584472656 C 292.2607116699219 251.20298767089844 297.7320556640625 256.762451171875 299.5749206542969 264.5307312011719" stroke-width="0.0" fill="rgb(251, 230, 165)" opacity="1.0"/>
    <path d="M 171.73727416992188 207.7163848876953 C 169.8990478515625 215.3871307373047 164.3697052001953 220.84486389160156 156.6084747314453 221.12083435058594 C 147.63278198242188 220.8042755126953 142.08453369140625 215.39837646484375 140.11090087890625 207.90603637695312 C 143.88058471679688 200.32725524902344 149.2447509765625 194.23094177246094 156.75527954101562 191.0504608154297 C 164.392822265625 193.0973663330078 169.8700408935547 198.6180877685547 171.73727416992188 207.7163848876953" stroke-width="0.0" fill="rgb(2, 2, 2)" opacity="0.99001956"/>
    <path d="M 505.85211181640625 248.08314514160156 C 502.1063537597656 255.63990783691406 496.6585388183594 261.1680603027344 489.1451721191406 264.9331970214844 C 481.6104736328125 262.8978271484375 476.0965270996094 257.3919982910156 474.04119873046875 249.08212280273438 C 476.0945739746094 240.60606384277344 481.6125793457031 235.11117553710938 490.622314453125 233.0682373046875 C 498.40802001953125 235.08792114257812 503.91583251953125 240.59054565429688 505.85211181640625 248.08314514160156" stroke-width="0.0" fill="rgb(2, 2, 2)" opacity="0.990058"/>
    <path d="M 317.94268798828125 453.334228515625 C 315.4853820800781 461.0775451660156 308.8575439453125 466.25689697265625 302.3621826171875 468.0970458984375 C 295.1372985839844 466.27294921875 288.5285339355469 461.06182861328125 286.0615234375 453.7490234375 C 288.316650390625 446.2333984375 294.8225402832031 441.4222412109375 302.2881164550781 439.7825622558594 C 310.1731872558594 440.3925476074219 315.8415222167969 445.7359924316406 317.94268798828125 453.334228515625" stroke-width="0.0" fill="rgb(3, 3, 3)" opacity="0.9900092"/>
    <path d="M 201.3787841796875 196.2849884033203 C 198.71131896972656 204.0269317626953 192.89254760742188 209.26791381835938 185.19314575195312 211.37454223632812 C 177.6448516845703 210.86874389648438 172.20774841308594 205.3323974609375 170.1050567626953 196.34640502929688 C 172.25961303710938 188.94342041015625 178.18389892578125 183.84091186523438 186.41368103027344 181.60716247558594 C 194.26565551757812 183.28704833984375 199.8404541015625 188.69314575195312 201.3787841796875 196.2849884033203" stroke-width="0.0" fill="rgb(4, 3, 2)" opacity="0.9900179"/>
    <path d="M 483.8943176269531 441.9219665527344 C 481.8348388671875 449.3930358886719 476.4554443359375 455.0533447265625 469.1974792480469 457.1934814453125 C 461.73712158203125 454.7464599609375 456.2005310058594 449.27734375 453.51019287109375 441.8658752441406 C 456.0718688964844 434.5902099609375 461.59002685546875 429.07989501953125 469.0191955566406 427.01458740234375 C 476.4999694824219 429.0096740722656 481.9903869628906 434.5000305175781 483.8943176269531 441.9219665527344" stroke-width="0.0" fill="rgb(255, 243, 196)" opacity="0.9907866"/>
    <path d="M 462.1113586425781 331.4337463378906 C 460.2661437988281 339.9143981933594 454.9909362792969 345.55364990234375 447.5362243652344 346.34320068359375 C 439.2453918457031 345.2707214355469 433.6234130859375 339.79046630859375 431.3216857910156 331.82354736328125 C 433.5136413574219 324.0967102050781 439.1415100097656 318.64202880859375 447.3267517089844 316.4078369140625 C 455.04278564453125 318.4104309082031 460.59246826171875 323.9581298828125 462.1113586425781 331.4337463378906" stroke-width="0.0" fill="rgb(252, 232, 169)" opacity="1.0"/>
    <path d="M 91.03654479980469 417.169677734375 C 89.07008361816406 424.59820556640625 83.5976791381836 430.06915283203125 76.10311889648438 432.0641784667969 C 68.80474090576172 431.783935546875 63.555599212646484 426.0820617675781 61.342342376708984 417.38934326171875 C 63.16777801513672 409.6465148925781 68.62206268310547 404.0999755859375 76.40233612060547 402.0420837402344 C 85.35985565185547 404.1088562011719 90.48587799072266 409.70855712890625 91.03654479980469 417.169677734375" stroke-width="0.0" fill="rgb(2, 3, 2)" opacity="0.9900099"/>
    <path d="M 324.0797424316406 131.8936309814453 C 321.51043701171875 138.87864685058594 315.7707214355469 144.17098999023438 308.8390197753906 146.05685424804688 C 302.2510070800781 144.15451049804688 295.3609313964844 138.9972381591797 293.0517578125 131.3057403564453 C 295.10540771484375 123.62037658691406 300.6277160644531 118.12385559082031 308.2276611328125 116.16575622558594 C 316.5 119.0096206665039 321.9903869628906 124.5 324.0797424316406 131.8936309814453" stroke-width="0.0" fill="rgb(2, 2, 2)" opacity="0.99002427"/>
    <path d="M 148.9403839111328 309.6733703613281 C 146.8727569580078 318.3827209472656 141.39389038085938 323.90325927734375 133.88223266601562 324.24810791015625 C 126.32215881347656 322.1476135253906 120.86703491210938 316.67169189453125 118.94217681884766 310.4926452636719 C 120.88521575927734 303.34442138671875 126.33241271972656 297.8528747558594 133.84954833984375 294.08892822265625 C 141.24290466308594 296.17132568359375 146.82225036621094 301.7619934082031 148.9403839111328 309.6733703613281" stroke-width="0.0" fill="rgb(2, 11, 17)" opacity="0.9900092"/>
    <path d="M 304.94781494140625 303.8554382324219 C 302.9164733886719 311.40704345703125 297.4029541015625 316.9068603515625 289.8360595703125 318.933837890625 C 281.69427490234375 315.8146667480469 276.1076354980469 310.33349609375 273.5819396972656 302.5328674316406 C 275.2510681152344 294.6954040527344 280.64410400390625 289.1055908203125 288.0914611816406 287.1176452636719 C 295.66448974609375 290.88543701171875 301.3702087402344 296.2782287597656 304.94781494140625 303.8554382324219" stroke-width="0.0" fill="rgb(2, 2, 2)" opacity="0.9900383"/>
    <path d="M 197.5730438232422 477.80902099609375 C 195.3488311767578 485.83013916015625 189.83242797851562 491.3601989746094 181.9278564453125 493.6080322265625 C 174.32041931152344 491.30621337890625 169.1678009033203 485.5312194824219 167.4326629638672 478.0128479003906 C 169.31861877441406 470.7388000488281 174.72552490234375 465.28021240234375 182.23419189453125 463.1739501953125 C 189.77151489257812 464.7494812011719 195.42904663085938 470.167724609375 197.5730438232422 477.80902099609375" stroke-width="0.0" fill="rgb(255, 243, 194)" opacity="0.9903959"/>
    <path d="M 540.150634765625 344.7867126464844 C 537.9903564453125 352.5 532.5 357.9903869628906 525.0149536132812 359.9876403808594 C 517.5405883789062 357.9449157714844 511.8951721191406 352.50689697265625 509.3328552246094 344.78497314453125 C 511.52569580078125 337.03021240234375 517.020263671875 331.5032653808594 525.475830078125 330.8692626953125 C 533.1119995117188 331.3395080566406 538.4985961914062 336.9383850097656 540.150634765625 344.7867126464844" stroke-width="0.0" fill="rgb(252, 250, 230)" opacity="1.0"/>
    <path d="M 222.87884521484375 176.661376953125 C 220.86135864257812 184.35145568847656 215.34561157226562 189.84498596191406 207.11654663085938 191.8384552001953 C 198.7683563232422 189.76889038085938 193.40541076660156 184.18312072753906 192.37149047851562 175.24705505371094 C 193.16595458984375 167.69480895996094 198.7108154296875 162.2080841064453 206.1756134033203 161.90719604492188 C 213.95143127441406 163.7904510498047 220.6070556640625 168.2752227783203 222.87884521484375 176.661376953125" stroke-width="0.0" fill="rgb(97, 208, 252)" opacity="1.0"/>
    <path d="M 491.74432373046875 273.4976501464844 C 489.8086853027344 281.27484130859375 484.25543212890625 286.75726318359375 476.3864440917969 288.7945251464844 C 467.84814453125 286.6446533203125 462.2248840332031 281.20361328125 460.0774841308594 273.0846252441406 C 462.2211608886719 264.80133056640625 467.86029052734375 259.3645935058594 476.62847900390625 257.1600036621094 C 484.2926940917969 259.1878967285156 489.7917175292969 264.7142333984375 491.74432373046875 273.4976501464844" stroke-width="0.0" fill="rgb(93, 195, 252)" opacity="1.0"/>
    <path d="M 311.1750183105469 106.23179626464844 C 309.55535888671875 114.16323852539062 304.2579345703125 119.83111572265625 296.8359069824219 121.70152282714844 C 289.1262512207031 118.25917053222656 283.1289367675781 113.01941680908203 280.0602111816406 105.12788391113281 C 282.08172607421875 97.58879089355469 287.5882263183594 92.08049774169922 295.12091064453125 90.06846618652344 C 303.5 93.0096206665039 308.9903869628906 98.5 311.1750183105469 106.23179626464844" stroke-width="0.0" fill="rgb(16, 0, 2)" opacity="0.99008894"/>
    <path d="M 230.5716552734375 273.498779296875 C 228.09739685058594 281.6336975097656 222.669921875 287.21533203125 214.73898315429688 289.5216064453125 C 207.12661743164062 287.4299011230469 201.63172912597656 281.8536071777344 199.3564453125 273.5203552246094 C 201.25408935546875 265.75225830078125 206.74319458007812 260.2276306152344 214.51809692382812 258.2371520996094 C 223.01480102539062 260.4809875488281 228.65200805664062 265.9340515136719 230.5716552734375 273.498779296875" stroke-width="0.0" fill="rgb(250, 228, 162)" opacity="1.0"/>
    <path d="M 153.94686889648438 518.3633422851562 C 151.8316192626953 527.02978515625 144.7774200439453 531.1083374023438 137.7071533203125 533.0320434570312 C 131.39584350585938 531.0770263671875 125.93016052246094 525.6010131835938 123.96857452392578 518.3687133789062 C 125.9066390991211 512.3461303710938 131.26991271972656 506.5733337402344 138.3479766845703 503.26617431640625 C 146.3518829345703 505.18048095703125 151.90365600585938 510.618896484375 153.94686889648438 518.3633422851562" stroke-width="0.0" fill="rgb(2, 3, 2)" opacity="0.9900051"/>
    <path d="M 281.32977294921875 364.9654541015625 C 279.6974792480469 372.0979919433594 274.10443115234375 377.78131103515625 266.2048034667969 380.9430847167969 C 258.99969482421875 378.8279724121094 254.84344482421875 371.8388977050781 252.9536590576172 365.5664978027344 C 254.9076690673828 358.3772888183594 260.3769836425781 352.9070129394531 267.8644714355469 350.9405517578125 C 275.31292724609375 351.1658020019531 280.6591491699219 356.73077392578125 281.32977294921875 364.9654541015625" stroke-width="0.0" fill="rgb(2, 2, 2)" opacity="0.99000823"/>
    <path d="M 429.904296875 301.8960266113281 C 427.8836364746094 309.2965393066406 421.91424560546875 313.262451171875 413.35321044921875 315.05792236328125 C 405.7816467285156 313.8769836425781 400.11090087890625 309.3378601074219 398.21087646484375 301.9048156738281 C 401.8719787597656 294.3346862792969 407.335693359375 288.8743896484375 413.6889953613281 286.9513854980469 C 420.6831359863281 288.871826171875 426.1689453125 294.2994079589844 429.904296875 301.8960266113281" stroke-width="0.0" fill="rgb(21, 20, 15)" opacity="0.99000806"/>
    <path d="M 466.778564453125 179.13656616210938 C 464.9555358886719 186.550537109375 459.7406921386719 192.46717834472656 452.527099609375 194.74127197265625 C 443.8159484863281 192.61074829101562 438.2137451171875 187.23866271972656 436.11395263671875 178.56329345703125 C 438.1640930175781 170.6801300048828 443.6760559082031 165.1543731689453 451.2191162109375 163.16212463378906 C 459.1321716308594 166.47129821777344 464.7174072265625 171.80555725097656 466.778564453125 179.13656616210938" stroke-width="0.0" fill="rgb(172, 171, 155)" opacity="1.0"/>
    <path d="M 73.69901275634766 423.66412353515625 C 71.84791564941406 431.3546447753906 66.34628295898438 436.8127136230469 58.878517150878906 437.03741455078125 C 51.414188385009766 435.0600891113281 45.93814468383789 429.5865173339844 43.966617584228516 422.2973327636719 C 45.876102447509766 416.2762145996094 50.97190475463867 409.3038635253906 57.598690032958984 407.0577697753906 C 66.16777038574219 409.2157897949219 71.36610412597656 414.9833068847656 73.69901275634766 423.66412353515625" stroke-width="0.0" fill="rgb(2, 2, 2)" opacity="0.9900082"/>
    <path d="M 178.09463500976562 97.07377624511719 C 176.0670623779297 104.59510040283203 170.5967254638672 110.07078552246094 163.1549530029297 112.04486083984375 C 156.7421417236328 110.57763671875 151.5599365234375 105.18185424804688 149.9556121826172 98.83879089355469 C 151.93202209472656 91.40815734863281 157.40994262695312 85.93630981445312 164.90206909179688 83.95532989501953 C 172.38247680664062 84.12483215332031 177.90098571777344 89.60850524902344 178.09463500976562 97.07377624511719" stroke-width="0.0" fill="rgb(3, 2, 2)" opacity="0.99000776"/>
    <path d="M 445.9608154296875 157.52305603027344 C 443.90289306640625 166.391357421875 438.3880920410156 171.89495849609375 429.5195617675781 173.93846130371094 C 421.60968017578125 171.900634765625 416.0986633300781 166.3905792236328 415.8228759765625 158.91969299316406 C 417.922607421875 151.39178466796875 423.39154052734375 145.92225646972656 430.80694580078125 143.9617462158203 C 438.2636413574219 144.9620361328125 443.9012145996094 149.63943481445312 445.9608154296875 157.52305603027344" stroke-width="0.0" fill="rgb(2, 2, 2)" opacity="0.99000967"/>
    <path d="M 356.12042236328125 78.0150375366211 C 354.0550231933594 85.55538940429688 348.5637512207031 91.08143615722656 341.1431884765625 92.64214324951172 C 333.3756103515625 91.02613067626953 327.81085205078125 85.66742706298828 325.77099609375 78.15322875976562 C 327.9483337402344 70.35167694091797 333.2486877441406 64.62886810302734 341.2021179199219 63.78201675415039 C 348.8468322753906 64.52601623535156 354.1395263671875 70.26504516601562 356.12042236328125 78.0150375366211" stroke-width="0.0" fill="rgb(252, 248, 218)" opacity="0.9915191"/>
    <path d="M 400.7935791015625 550.1190185546875 C 398.13525390625 557.6715087890625 392.66900634765625 563.1295166015625 385.2063903808594 565.0797729492188 C 377.6948547363281 564.7581787109375 372.1377868652344 559.336669921875 370.06744384765625 551.066162109375 C 372.13372802734375 542.6416015625 377.6359558105469 537.1201171875 385.95892333984375 535.0599975585938 C 394.3501281738281 537.1322021484375 399.8651123046875 542.65087890625 400.7935791015625 550.1190185546875" stroke-width="0.0" fill="rgb(252, 19, 21)" opacity="0.9900259"/>
    <path d="M 355.4815673828125 124.4391098022461 C 352.1228332519531 131.627197265625 346.6158752441406 137.08795166015625 339.1919860839844 139.1350555419922 C 332.5 137.99038696289062 327.0096130371094 132.5 325.0150451660156 125.01527404785156 C 327.0550842285156 117.54712677001953 332.5390930175781 112.0234603881836 339.8288269042969 109.8995132446289 C 347.4004211425781 112.08715057373047 352.8690185546875 117.61299133300781 355.4815673828125 124.4391098022461" stroke-width="0.0" fill="rgb(252, 250, 229)" opacity="0.9900762"/>
    <path d="M 236.8695526123047 445.26611328125 C 234.6358184814453 454.145751953125 229.1877899169922 459.7483825683594 220.34585571289062 461.9127197265625 C 212.63702392578125 459.87542724609375 207.12088012695312 454.364501953125 205.0666046142578 446.641845703125 C 207.22467041015625 437.7787170410156 212.78565979003906 432.24249267578125 221.11195373535156 430.1914978027344 C 229.34800720214844 432.166748046875 234.87652587890625 437.6371765136719 236.8695526123047 445.26611328125" stroke-width="0.0" fill="rgb(87, 179, 220)" opacity="1.0"/>
    <path d="M 331.9049987792969 111.0063705444336 C 329.857666015625 118.41651916503906 324.3524169921875 123.67619323730469 317.8428039550781 125.05072021484375 C 310.3865966796875 123.078369140625 304.9051208496094 117.6207046508789 302.9597473144531 110.67144012451172 C 304.8491516113281 104.21644592285156 310.038330078125 98.350830078125 317.17578125 95.7566909790039 C 324.5735168457031 97.82637023925781 329.8956298828125 103.51892852783203 331.9049987792969 111.0063705444336" stroke-width="0.0" fill="rgb(252, 247, 219)" opacity="0.99002284"/>
    <path d="M 498.02581787109375 327.05023193359375 C 496.2427978515625 334.9119567871094 491.1229248046875 340.7762145996094 483.1820373535156 342.9478759765625 C 475.8057556152344 340.6730651855469 470.7692565917969 333.8375549316406 468.92901611328125 327.46490478515625 C 470.8148193359375 320.2248229980469 476.1465148925781 314.587158203125 483.2653503417969 312.22509765625 C 490.5 314.0096130371094 495.9903869628906 319.5 498.02581787109375 327.05023193359375" stroke-width="0.0" fill="rgb(2, 2, 2)" opacity="0.9900732"/>
    <path d="M 248.11888122558594 210.4293212890625 C 247.83816528320312 219.37379455566406 242.39027404785156 224.89675903320312 234.8923797607422 225.0836944580078 C 227.33665466308594 223.1041717529297 221.52783203125 217.7384033203125 218.1039276123047 211.03982543945312 C 220.3495635986328 202.7467041015625 225.66322326660156 197.10987854003906 233.14718627929688 195.083984375 C 242.1070556640625 197.5399169921875 247.7480010986328 202.81256103515625 248.11888122558594 210.4293212890625" stroke-width="0.0" fill="rgb(2, 2, 2)" opacity="0.99000955"/>
    <path d="M 226.95924377441406 92.46004486083984 C 224.91220092773438 100.4032211303711 219.40194702148438 105.90922546386719 211.91793823242188 106.5597152709961 C 204.341552734375 104.10061645507812 198.58151245117188 98.72904205322266 195.16262817382812 92.53997039794922 C 197.89971923828125 84.3218002319336 203.1341094970703 78.42716979980469 211.7372589111328 76.07587432861328 C 219.38339233398438 78.10838317871094 224.8972625732422 83.61433410644531 226.95924377441406 92.46004486083984" stroke-width="0.0" fill="rgb(4, 3, 3)" opacity="0.99004275"/>
    <path d="M 207.59288024902344 516.5477294921875 C 205.76629638671875 524.2011108398438 200.12940979003906 529.5384521484375 192.848876953125 530.0848388671875 C 185.3884735107422 528.0846557617188 179.91513061523438 522.611572265625 177.60446166992188 515.133544921875 C 178.34085083007812 507.9902648925781 184.0800323486328 502.5421447753906 191.79795837402344 500.5479736328125 C 199.7753143310547 502.716064453125 205.22923278808594 508.2424011230469 207.59288024902344 516.5477294921875" stroke-width="0.0" fill="rgb(251, 251, 236)" opacity="0.9900338"/>
    <path d="M 324.49810791015625 86.8437271118164 C 322.2335205078125 94.65735626220703 316.6044616699219 100.06401062011719 309.6576232910156 101.4155502319336 C 302.356689453125 99.13097381591797 296.8946228027344 93.6346435546875 294.9109191894531 86.23931121826172 C 295.6318054199219 79.10796356201172 301.0348815917969 73.41319274902344 308.4672546386719 71.6158447265625 C 316.90118408203125 73.50624084472656 322.39288330078125 79.13581085205078 324.49810791015625 86.8437271118164" stroke-width="0.0" fill="rgb(245, 243, 230)" opacity="0.9901057"/>
    <path d="M 358.8492431640625 580.1932373046875 C 355.4425354003906 587.9971923828125 350.0111389160156 593.484375 343.0657958984375 595.4330444335938 C 335.9020690917969 593.5226440429688 330.3928527832031 588.1254272460938 327.13555908203125 580.1812744140625 C 329.12255859375 572.6311645507812 334.62860107421875 567.1167602539062 342.3909606933594 565.0781860351562 C 351.3212890625 567.1666870117188 356.863037109375 572.6658325195312 358.8492431640625 580.1932373046875" stroke-width="0.0" fill="rgb(177, 169, 163)" opacity="1.0"/>
    <path d="M 347.7291259765625 131.84988403320312 C 345.85784912109375 139.33384704589844 340.32415771484375 144.83282470703125 332.5877990722656 146.80511474609375 C 323.904296875 144.62667846679688 318.5876770019531 139.04266357421875 317.8271484375 131.4797821044922 C 319.6800842285156 124.131591796875 325.14178466796875 118.7063217163086 332.20587158203125 116.8459701538086 C 338.8514709472656 118.68486785888672 344.2507019042969 124.17391204833984 347.7291259765625 131.84988403320312" stroke-width="0.0" fill="rgb(120, 119, 111)" opacity="0.9900569"/>
    <path d="M 212.90711975097656 360.8348083496094 C 210.81166076660156 369.2821350097656 205.2815399169922 374.8106384277344 197.43724060058594 376.90142822265625 C 188.7289276123047 374.78924560546875 183.18832397460938 369.2800598144531 181.08367919921875 360.9283752441406 C 183.18370056152344 352.70941162109375 188.71412658691406 347.19580078125 197.2703857421875 345.1046447753906 C 205.29371643066406 347.1846008300781 210.82008361816406 352.7045593261719 212.90711975097656 360.8348083496094" stroke-width="0.0" fill="rgb(255, 72, 44)" opacity="1.0"/>
    <path d="M 346.0584411621094 521.0592651367188 C 344.1631774902344 528.7083129882812 338.7734680175781 534.3641967773438 331.38397216796875 536.2235107421875 C 323.6485290527344 533.7361450195312 317.9990539550781 528.431884765625 315.4697570800781 520.9301147460938 C 318.0238037109375 513.6139526367188 323.58563232421875 507.9078063964844 330.7337341308594 505.6171875 C 338.4734191894531 508.0751953125 343.98687744140625 513.5084838867188 346.0584411621094 521.0592651367188" stroke-width="0.0" fill="rgb(255, 243, 195)" opacity="0.9905509"/>
    <path d="M 391.614501953125 138.37782287597656 C 390.55615234375 146.01272583007812 384.7196960449219 150.41261291503906 377.54339599609375 152.06094360351562 C 370.3015441894531 150.14654541015625 364.83526611328125 144.7064208984375 362.9279479980469 137.5261993408203 C 364.6804504394531 130.69366455078125 368.9599914550781 124.2724380493164 376.3145751953125 122.20283508300781 C 384.2474670410156 125.29866790771484 389.68878173828125 130.7562255859375 391.614501953125 138.37782287597656" stroke-width="0.0" fill="rgb(187, 185, 169)" opacity="0.9900161"/>
    <path d="M 538.9442749023438 227.73092651367188 C 536.915283203125 235.41009521484375 531.4119262695312 240.9196319580078 523.1510009765625 242.96421813964844 C 514.5874633789062 240.91860961914062 509.0796203613281 235.41331481933594 507.052978515625 227.86212158203125 C 509.24298095703125 218.77120971679688 514.7457885742188 213.18711853027344 523.5506591796875 211.06117248535156 C 531.3815307617188 213.11129760742188 536.8899536132812 218.6177978515625 538.9442749023438 227.73092651367188" stroke-width="0.0" fill="rgb(3, 2, 2)" opacity="0.9900281"/>
    <path d="M 333.8983459472656 233.48678588867188 C 331.6972961425781 242.09645080566406 326.0536193847656 247.60452270507812 317.5149841308594 249.8809051513672 C 309.7882385253906 247.7731475830078 304.3901062011719 242.15492248535156 302.67498779296875 234.332763671875 C 305.0096435546875 226.50003051757812 310.5000305175781 221.00965881347656 318.6844787597656 218.2313995361328 C 326.305419921875 220.18185424804688 331.8350830078125 225.68798828125 333.8983459472656 233.48678588867188" stroke-width="0.0" fill="rgb(255, 70, 45)" opacity="1.0"/>
    <path d="M 373.93194580078125 243.6319122314453 C 371.861083984375 251.28546142578125 366.11041259765625 255.67294311523438 357.6661071777344 257.0885925292969 C 349.8372497558594 256.3250427246094 344.164794921875 251.2720184326172 342.0494079589844 242.29275512695312 C 344.0919494628906 234.60130310058594 349.6084899902344 229.1111297607422 357.13653564453125 228.79864501953125 C 365.1173095703125 230.7674102783203 371.7840881347656 234.91366577148438 373.93194580078125 243.6319122314453" stroke-width="0.0" fill="rgb(148, 4, 2)" opacity="0.9900109"/>
    <path d="M 377.9595642089844 69.59201049804688 C 375.9048156738281 77.36880493164062 370.2757873535156 81.8039321899414 362.7456970214844 83.03582000732422 C 355.3984069824219 81.07322692871094 349.9281005859375 75.60095977783203 347.9441223144531 68.10652923583984 C 348.11956787109375 60.61575698852539 353.6173095703125 55.12348937988281 361.4271240234375 53.15486145019531 C 370.3358154296875 55.18714904785156 375.8890380859375 60.63663864135742 377.9595642089844 69.59201049804688" stroke-width="0.0" fill="rgb(5, 4, 2)" opacity="0.9900092"/>
    <path d="M 272.9263000488281 276.59527587890625 C 270.8388977050781 285.3182067871094 265.3240051269531 290.8514404296875 257.44903564453125 292.9191589355469 C 248.65457153320312 290.85107421875 243.12034606933594 285.3572082519531 241.06565856933594 277.56524658203125 C 243.17709350585938 268.71502685546875 248.7431640625 263.25518798828125 257.67083740234375 261.1553649902344 C 265.3236999511719 263.1593017578125 270.86114501953125 268.6672668457031 272.9263000488281 276.59527587890625" stroke-width="0.0" fill="rgb(252, 66, 43)" opacity="1.0"/>
    <path d="M 503.8486022949219 435.9954528808594 C 501.94232177734375 443.4682312011719 496.4669494628906 448.93701171875 488.6482849121094 451.5328063964844 C 481.3492431640625 449.2945251464844 475.98876953125 443.5561828613281 474.001708984375 436.00250244140625 C 476.0131530761719 428.5024719238281 481.48089599609375 422.93804931640625 488.95599365234375 420.47344970703125 C 496.5271911621094 422.9498596191406 501.96221923828125 428.4989318847656 503.8486022949219 435.9954528808594" stroke-width="0.0" fill="rgb(255, 245, 197)" opacity="0.9910127"/>
    <path d="M 543.6761474609375 348.40673828125 C 540.9743041992188 356.4853210449219 535.5333862304688 362.1153564453125 528.0888671875 364.152587890625 C 520.4989013671875 361.9908447265625 515.0006713867188 356.5035400390625 512.9434814453125 349.0054626464844 C 515.0092163085938 341.50128173828125 520.4943237304688 335.9845275878906 528.1060180664062 333.6178894042969 C 535.83935546875 335.7635498046875 541.694091796875 340.9749755859375 543.6761474609375 348.40673828125" stroke-width="0.0" fill="rgb(252, 246, 217)" opacity="1.0"/>
    <path d="M 201.6190948486328 277.8281555175781 C 199.35491943359375 285.7530822753906 193.69090270996094 291.1690673828125 186.0805206298828 293.0744323730469 C 178.50608825683594 290.98602294921875 173.03927612304688 285.4866027832031 171.103271484375 277.9497985839844 C 172.89227294921875 270.328857421875 178.23342895507812 264.60516357421875 186.2788543701172 262.3070068359375 C 194.15560913085938 264.3230895996094 199.6121368408203 269.865234375 201.6190948486328 277.8281555175781" stroke-width="0.0" fill="rgb(248, 230, 163)" opacity="1.0"/>
    <path d="M 484.2257995605469 195.28836059570312 C 482.403076171875 202.34632873535156 478.01446533203125 208.72711181640625 469.3362121582031 210.917236328125 C 461.6446228027344 208.87130737304688 456.1378479003906 203.35157775878906 454.1127624511719 195.73516845703125 C 456.7266845703125 187.52337646484375 462.7393798828125 182.39187622070312 469.7633056640625 180.6309051513672 C 476.89520263671875 182.62738037109375 482.3016357421875 188.13035583496094 484.2257995605469 195.28836059570312" stroke-width="0.0" fill="rgb(150, 145, 136)" opacity="1.0"/>
    <path d="M 457.95721435546875 204.29937744140625 C 455.85211181640625 213.2655487060547 450.0371398925781 217.4796905517578 441.11114501953125 220.55528259277344 C 433.6023864746094 218.9067840576172 428.0961608886719 213.396240234375 426.072021484375 205.78244018554688 C 428.1476745605469 196.63075256347656 433.6121520996094 191.0953826904297 441.42010498046875 189.04722595214844 C 450.379638671875 191.1158447265625 455.9047546386719 196.61158752441406 457.95721435546875 204.29937744140625" stroke-width="0.0" fill="rgb(4, 2, 2)" opacity="0.99001706"/>
    <path d="M 534.3695068359375 366.2812194824219 C 532.2628784179688 373.6987609863281 526.6976928710938 379.2616271972656 519.3209838867188 381.3690490722656 C 511.5683898925781 378.8542785644531 506.02557373046875 373.46820068359375 503.9818420410156 365.9772644042969 C 505.9486083984375 358.4315185546875 511.41436767578125 352.89117431640625 518.9542846679688 350.8484191894531 C 526.5248413085938 352.9688720703125 531.9442749023438 358.50018310546875 534.3695068359375 366.2812194824219" stroke-width="0.0" fill="rgb(255, 242, 192)" opacity="0.99190474"/>
  </g>
</svg>
