<?xml version="1.0" ?>
<svg xmlns="http://www.w3.org/2000/svg" version="1.1" width="600" height="600">
  <defs/>
  <g>
    <path d="M 455.4085998535156 317.4362487792969 C 453.4986877441406 325.0973205566406 448.1148681640625 330.5449523925781 440.27154541015625 333.64117431640625 C 432.6892395019531 331.81719970703125 427.1433410644531 326.3268737792969 425.0599060058594 317.63543701171875 C 427.1261901855469 309.645263671875 432.6471252441406 304.130126953125 440.5276184082031 302.0567932128906 C 449.2724304199219 304.176025390625 454.69537353515625 309.7745361328125 455.4085998535156 317.4362487792969" stroke-width="0.0" fill="rgb(97, 103, 118)" opacity="1.0"/>
    <path d="M 213.364013671875 369.33245849609375 C 211.56138610839844 377.04022216796875 206.0146026611328 382.4774475097656 197.8043975830078 384.3985595703125 C 189.74864196777344 382.671630859375 184.13894653320312 377.3139343261719 182.13780212402344 369.7846374511719 C 185.00961303710938 361.5 190.5 356.0096130371094 197.99810791015625 354.0047607421875 C 205.49928283691406 356.01141357421875 210.99029541015625 361.5002136230469 213.364013671875 369.33245849609375" stroke-width="0.0" fill="rgb(70, 82, 102)" opacity="1.0"/>
    <path d="M 185.6007537841797 192.23162841796875 C 183.3868865966797 199.77786254882812 177.70785522460938 205.17640686035156 170.10154724121094 206.92430114746094 C 162.74266052246094 204.7945098876953 157.42648315429688 199.18594360351562 155.50271606445312 192.1387939453125 C 157.5392608642578 184.96658325195312 162.92794799804688 179.4175262451172 170.48965454101562 176.31771850585938 C 177.9014434814453 178.47764587402344 183.29522705078125 184.1810302734375 185.6007537841797 192.23162841796875" stroke-width="0.0" fill="rgb(204, 196, 188)" opacity="0.99013823"/>
    <path d="M 405.8840637207031 443.1737060546875 C 402.9903869628906 451.5 397.5 456.9903869628906 389.4964904785156 459.52191162109375 C 381.76971435546875 457.7320861816406 376.29705810546875 452.2214050292969 374.5623779296875 444.4446716308594 C 377.0096130371094 436.5 382.5 431.0096130371094 390.853271484375 428.0904846191406 C 398.40203857421875 430.090087890625 403.9012756347656 435.6014404296875 405.8840637207031 443.1737060546875" stroke-width="0.0" fill="rgb(0, 0, 0)" opacity="1.0"/>
    <path d="M 354.9099426269531 586.56640625 C 352.8434143066406 594.2940673828125 347.2528381347656 599.7410888671875 339.07489013671875 601.774658203125 C 330.7920837402344 599.720947265625 325.2107238769531 594.2353515625 323.1514892578125 586.7254028320312 C 325.9529113769531 578.36962890625 331.1958923339844 572.4918823242188 338.84698486328125 570.3582153320312 C 347.1445617675781 572.387939453125 352.7762756347656 577.7943725585938 354.9099426269531 586.56640625" stroke-width="0.0" fill="rgb(4, 7, 11)" opacity="0.990015"/>
    <path d="M 356.68975830078125 82.33319091796875 C 354.6750183105469 89.21048736572266 349.2639465332031 94.87238311767578 341.9258117675781 97.21353149414062 C 334.16558837890625 95.28524017333984 328.6266784667969 89.86219787597656 327.1455993652344 81.3746109008789 C 328.29937744140625 73.9085693359375 333.978271484375 68.4610595703125 341.4538269042969 66.6544418334961 C 349.0882263183594 69.43584442138672 354.47015380859375 74.9445571899414 356.68975830078125 82.33319091796875" stroke-width="0.0" fill="rgb(212, 207, 198)" opacity="0.9901898"/>
    <path d="M 359.0381774902344 558.0629272460938 C 357.2457275390625 565.8758544921875 352.0225830078125 571.6609497070312 343.76287841796875 573.8418579101562 C 335.74462890625 571.7662963867188 330.1858215332031 566.274169921875 328.06585693359375 557.899169921875 C 330.2231750488281 549.901123046875 336.25225830078125 545.2611694335938 344.22027587890625 543.3206787109375 C 351.5 545.0096435546875 356.9903869628906 550.5 359.0381774902344 558.0629272460938" stroke-width="0.0" fill="rgb(60, 68, 79)" opacity="1.0"/>
    <path d="M 166.9566192626953 265.93798828125 C 164.89886474609375 274.384033203125 159.37991333007812 279.8897399902344 150.56124877929688 281.9561462402344 C 142.59474182128906 279.9116516113281 137.0933837890625 274.40325927734375 135.0458984375 266.0533142089844 C 137.10140991210938 257.6167907714844 142.62139892578125 252.11172485351562 151.47378540039062 250.04478454589844 C 159.388916015625 252.1000518798828 164.90060424804688 257.61083984375 166.9566192626953 265.93798828125" stroke-width="0.0" fill="rgb(4, 9, 17)" opacity="1.0"/>
    <path d="M 145.95018005371094 442.1580810546875 C 143.89688110351562 450.3863830566406 138.3858642578125 455.89556884765625 130.67652893066406 457.94403076171875 C 121.95275115966797 455.73162841796875 116.8421401977539 449.8117370605469 114.11333465576172 441.1754150390625 C 116.10147094726562 433.60516357421875 121.60101318359375 428.0913391113281 129.881591796875 426.0389404296875 C 138.39486694335938 428.09393310546875 143.8989715576172 433.6081237792969 145.95018005371094 442.1580810546875" stroke-width="0.0" fill="rgb(18, 22, 32)" opacity="1.0"/>
    <path d="M 370.9489440917969 236.63951110839844 C 368.9032287597656 244.3880615234375 363.3752136230469 249.8692169189453 355.37689208984375 251.7452850341797 C 346.62835693359375 249.86134338378906 341.1055603027344 244.3831787109375 339.05889892578125 236.2520751953125 C 341.11395263671875 227.6244659423828 346.6239013671875 222.11215209960938 354.75323486328125 220.04782104492188 C 363.3652648925781 222.12013244628906 368.8752746582031 227.6365203857422 370.9489440917969 236.63951110839844" stroke-width="0.0" fill="rgb(41, 49, 56)" opacity="1.0"/>
    <path d="M 246.0 558.0 C 243.99038696289062 565.5 238.5 570.9903564453125 230.45042419433594 573.6262817382812 C 222.76576232910156 571.7398681640625 217.22267150878906 566.2479248046875 215.27394104003906 558.6321411132812 C 218.00961303710938 550.5 223.5 545.0096435546875 231.0 543.0 C 238.5 545.0096435546875 243.99038696289062 550.5 246.0 558.0" stroke-width="0.0" fill="rgb(23, 30, 33)" opacity="0.9901868"/>
    <path d="M 355.2174377441406 299.77252197265625 C 352.8689270019531 307.43487548828125 347.4786071777344 313.01513671875 340.2132873535156 314.6801452636719 C 332.4893798828125 312.9217529296875 327.03594970703125 307.5260925292969 324.6317138671875 299.4395751953125 C 326.3829650878906 292.0406188964844 332.1121826171875 286.5237121582031 339.6474304199219 285.6943664550781 C 347.7855224609375 286.65679931640625 353.3419494628906 292.2160949707031 355.2174377441406 299.77252197265625" stroke-width="0.0" fill="rgb(239, 246, 247)" opacity="1.0"/>
    <path d="M 255.8841094970703 566.2268676757812 C 253.5535888671875 575.1217651367188 248.20018005371094 580.7763671875 239.806884765625 582.911376953125 C 231.68124389648438 580.8344116210938 226.1818389892578 575.3130493164062 224.23696899414062 567.65478515625 C 226.962646484375 559.502197265625 232.51930236816406 554.0256958007812 240.45135498046875 551.5638427734375 C 248.26512145996094 553.2778930664062 253.853271484375 558.6889038085938 255.8841094970703 566.2268676757812" stroke-width="0.0" fill="rgb(97, 108, 131)" opacity="1.0"/>
    <path d="M 302.46051025390625 460.59942626953125 C 299.9903869628906 468.5 294.5 473.9903869628906 286.2743225097656 476.8016052246094 C 278.6710205078125 474.8434753417969 273.1571044921875 469.3285217285156 271.13836669921875 461.72418212890625 C 274.3522033691406 453.9334411621094 279.96380615234375 448.4706726074219 287.6853332519531 445.1142883300781 C 295.142822265625 447.29437255859375 300.62164306640625 452.8874206542969 302.46051025390625 460.59942626953125" stroke-width="0.0" fill="rgb(8, 13, 23)" opacity="0.9900181"/>
    <path d="M 179.56689453125 383.4261474609375 C 176.99038696289062 391.5 171.5 396.9903869628906 163.3330841064453 399.6935119628906 C 155.64048767089844 397.8433532714844 150.100341796875 392.3800354003906 148.03900146484375 383.5628967285156 C 150.08639526367188 375.5934753417969 155.59266662597656 370.0846252441406 163.591552734375 368.0372314453125 C 172.37240600585938 370.1003112792969 177.80564880371094 375.6611022949219 179.56689453125 383.4261474609375" stroke-width="0.0" fill="rgb(0, 0, 1)" opacity="1.0"/>
    <path d="M 306.7625732421875 256.1793518066406 C 303.8489685058594 264.453857421875 298.4960021972656 269.98919677734375 290.7093811035156 272.3445739746094 C 283.4520263671875 270.42803955078125 278.7935485839844 263.9481201171875 275.3087463378906 256.1132507324219 C 277.12969970703125 248.67010498046875 282.6915588378906 243.17385864257812 290.8017272949219 241.08596801757812 C 299.3327331542969 243.15960693359375 304.8706359863281 248.65457153320312 306.7625732421875 256.1793518066406" stroke-width="0.0" fill="rgb(20, 24, 28)" opacity="0.9900269"/>
    <path d="M 453.7045593261719 461.3421936035156 C 451.4377136230469 470.0879211425781 446.2348937988281 475.8360900878906 438.744140625 477.92724609375 C 429.66107177734375 475.8238830566406 424.114013671875 470.3616943359375 422.0392150878906 461.3760986328125 C 424.0834045410156 453.5909118652344 429.5917663574219 448.08563232421875 438.4981994628906 446.0363464355469 C 446.3882141113281 448.0908508300781 451.8497009277344 453.63409423828125 453.7045593261719 461.3421936035156" stroke-width="0.0" fill="rgb(0, 0, 0)" opacity="1.0"/>
    <path d="M 372.18719482421875 502.44769287109375 C 370.6528015136719 510.3283996582031 365.4320983886719 515.9583740234375 357.993896484375 517.9984130859375 C 350.4534606933594 516.0076904296875 344.646240234375 510.66851806640625 342.08868408203125 502.2344055175781 C 344.129638671875 494.6526184082031 349.66485595703125 489.159912109375 357.490966796875 487.1333312988281 C 366.20501708984375 489.2555236816406 371.6712646484375 494.82000732421875 372.18719482421875 502.44769287109375" stroke-width="0.0" fill="rgb(42, 27, 14)" opacity="0.9900448"/>
    <path d="M 221.2193603515625 133.1394805908203 C 219.2536163330078 140.77430725097656 213.8158721923828 146.3799285888672 206.2366485595703 148.32638549804688 C 198.5 145.99038696289062 193.00961303710938 140.5 191.17417907714844 133.12184143066406 C 193.21157836914062 125.57913970947266 198.42774963378906 119.77994537353516 205.8349151611328 117.73570251464844 C 213.5 120.0096206665039 218.99038696289062 125.5 221.2193603515625 133.1394805908203" stroke-width="0.0" fill="rgb(201, 194, 185)" opacity="0.9912314"/>
    <path d="M 232.8470458984375 297.3375244140625 C 230.25843811035156 305.6974792480469 224.67880249023438 311.196533203125 216.6456298828125 313.56732177734375 C 208.99114990234375 311.5516357421875 203.4158935546875 306.0211181640625 201.28224182128906 298.2105712890625 C 203.39459228515625 289.896728515625 208.8793182373047 284.3426513671875 217.1372528076172 282.2195129394531 C 225.15609741210938 284.32440185546875 230.76190185546875 289.8077392578125 232.8470458984375 297.3375244140625" stroke-width="0.0" fill="rgb(171, 183, 190)" opacity="1.0"/>
    <path d="M 386.86492919921875 394.68902587890625 C 384.739990234375 403.1432800292969 379.0338134765625 408.4184265136719 371.14715576171875 410.1080017089844 C 363.5 407.9903869628906 358.0096130371094 402.5 356.0 395.0 C 358.0096130371094 387.5 363.5 382.0096130371094 371.3940734863281 379.6319580078125 C 379.231201171875 381.3182678222656 384.8125915527344 386.7259826660156 386.86492919921875 394.68902587890625" stroke-width="0.0" fill="rgb(103, 113, 137)" opacity="1.0"/>
    <path d="M 287.6143798828125 51.38178634643555 C 285.9903869628906 58.5 280.5 63.990379333496094 272.4719543457031 66.59413146972656 C 264.7562561035156 64.7349853515625 259.1839294433594 59.274261474609375 257.1737060546875 51.76484298706055 C 260.69140625 44.206417083740234 266.254150390625 38.82548904418945 273.2786560058594 36.91837692260742 C 279.7652282714844 38.804988861083984 285.3297119140625 44.18819808959961 287.6143798828125 51.38178634643555" stroke-width="0.0" fill="rgb(65, 100, 127)" opacity="0.99003005"/>
    <path d="M 182.9329071044922 326.3408508300781 C 180.88624572753906 334.3865966796875 175.39808654785156 339.9136962890625 167.42147827148438 341.9669494628906 C 158.59072875976562 339.9171447753906 153.08555603027344 334.4080810546875 151.0445556640625 326.7722473144531 C 153.19586181640625 317.8099670410156 158.9638214111328 312.6129150390625 167.54122924804688 310.3570251464844 C 175.2648162841797 312.2391357421875 180.83770751953125 317.7050476074219 182.9329071044922 326.3408508300781" stroke-width="0.0" fill="rgb(4, 8, 15)" opacity="0.99007493"/>
    <path d="M 399.91229248046875 366.7887878417969 C 397.87628173828125 374.357666015625 392.35211181640625 379.8627014160156 384.6185302734375 381.90875244140625 C 375.8403625488281 379.7176513671875 370.2579650878906 374.1713562011719 368.0788879394531 365.3517761230469 C 370.13043212890625 357.644287109375 375.64019775390625 352.12066650390625 383.37750244140625 350.0531921386719 C 392.1764221191406 352.2100524902344 397.50360107421875 357.9464111328125 399.91229248046875 366.7887878417969" stroke-width="0.0" fill="rgb(112, 125, 145)" opacity="1.0"/>
    <path d="M 53.195499420166016 489.90704345703125 C 50.47525405883789 496.8301086425781 44.72835922241211 502.1401062011719 37.3489990234375 504.0604553222656 C 30.926513671875 502.3536376953125 25.123323440551758 497.2795104980469 22.906082153320312 489.83306884765625 C 24.534061431884766 481.8894958496094 29.75722885131836 476.1643371582031 37.347084045410156 474.0677490234375 C 45.933616638183594 476.3660888671875 51.10563278198242 482.27508544921875 53.195499420166016 489.90704345703125" stroke-width="0.0" fill="rgb(44, 45, 47)" opacity="0.9900452"/>
    <path d="M 187.5959014892578 399.60430908203125 C 185.82345581054688 407.3533630371094 180.38168334960938 412.9042053222656 171.8666534423828 414.9586181640625 C 163.60447692871094 412.90875244140625 158.10719299316406 407.38873291015625 156.0786895751953 399.7620544433594 C 158.48634338378906 391.2113037109375 164.40040588378906 385.9697570800781 171.99607849121094 383.9985046386719 C 179.5 386.0096130371094 184.99038696289062 391.5 187.5959014892578 399.60430908203125" stroke-width="0.0" fill="rgb(0, 0, 0)" opacity="1.0"/>
    <path d="M 400.92193603515625 469.85882568359375 C 398.90478515625 477.39703369140625 393.3988952636719 482.9088439941406 385.587890625 484.9560241699219 C 376.6286315917969 482.8822937011719 371.1151123046875 477.3726806640625 369.06884765625 469.2803039550781 C 371.1338195800781 460.637939453125 376.6295471191406 455.1136474609375 384.1933288574219 453.1297912597656 C 392.5 456.0096130371094 397.9903869628906 461.5 400.92193603515625 469.85882568359375" stroke-width="0.0" fill="rgb(2, 3, 5)" opacity="0.9904827"/>
    <path d="M 287.8950500488281 533.9066162109375 C 285.7645263671875 542.2369384765625 280.2451477050781 547.7833862304688 272.13653564453125 549.8927612304688 C 263.7734069824219 547.7780151367188 258.2857971191406 542.2001342773438 256.1313171386719 533.7987670898438 C 258.25518798828125 525.7894897460938 263.7892761230469 520.2550659179688 272.16632080078125 518.1165161132812 C 280.2408142089844 520.2306518554688 285.77734375 525.756103515625 287.8950500488281 533.9066162109375" stroke-width="0.0" fill="rgb(247, 243, 15)" opacity="0.9914372"/>
    <path d="M 339.9205017089844 457.5780334472656 C 337.8634338378906 465.3507995605469 332.3553466796875 470.8740539550781 324.66717529296875 472.93365478515625 C 315.992431640625 470.6924133300781 310.8483581542969 464.7930603027344 308.22454833984375 456.33233642578125 C 310.21270751953125 448.76190185546875 315.79595947265625 443.30133056640625 323.8561096191406 441.2794189453125 C 332.1543884277344 443.34857177734375 337.77056884765625 448.798095703125 339.9205017089844 457.5780334472656" stroke-width="0.0" fill="rgb(83, 92, 114)" opacity="1.0"/>
    <path d="M 132.9343719482422 361.050537109375 C 130.8671112060547 369.350830078125 125.34793853759766 374.86016845703125 117.1781997680664 376.924560546875 C 108.67204284667969 374.84423828125 103.14614868164062 369.3320617675781 101.09613037109375 361.6405944824219 C 103.26181030273438 352.7964782714844 108.79393768310547 347.2558288574219 117.10063934326172 345.144775390625 C 125.2933349609375 347.20941162109375 130.85443115234375 352.6811828613281 132.9343719482422 361.050537109375" stroke-width="0.0" fill="rgb(88, 98, 118)" opacity="1.0"/>
    <path d="M 183.42457580566406 470.54010009765625 C 180.99038696289062 478.5 175.5 483.9903869628906 167.79537963867188 486.146728515625 C 159.84954833984375 484.529052734375 154.16139221191406 479.2587890625 152.05067443847656 470.3964538574219 C 154.09762573242188 462.6065368652344 159.6071014404297 457.09912109375 168.39288330078125 455.04351806640625 C 176.3507080078125 457.1098937988281 181.74510192871094 462.70050048828125 183.42457580566406 470.54010009765625" stroke-width="0.0" fill="rgb(11, 13, 20)" opacity="1.0"/>
    <path d="M 192.947509765625 477.0357360839844 C 190.8905029296875 485.3802185058594 185.37416076660156 490.8737487792969 177.74986267089844 492.7962646484375 C 169.5 489.9903869628906 164.00961303710938 484.5 162.0001678466797 477.0000915527344 C 164.0098419189453 469.50018310546875 169.5001983642578 464.0098571777344 177.835693359375 461.10064697265625 C 185.3848419189453 463.10260009765625 190.89073181152344 468.6181335449219 192.947509765625 477.0357360839844" stroke-width="0.0" fill="rgb(11, 11, 21)" opacity="1.0"/>
    <path d="M 320.8774719238281 468.7954406738281 C 318.8563537597656 476.30047607421875 313.22772216796875 481.6432189941406 305.3199768066406 483.26556396484375 C 297.5 480.9903869628906 292.0096130371094 475.5 289.72174072265625 467.77923583984375 C 291.5661926269531 460.0069274902344 296.8973083496094 454.28106689453125 304.5362548828125 452.147216796875 C 312.70709228515625 454.5688171386719 317.9375 460.4776611328125 320.8774719238281 468.7954406738281" stroke-width="0.0" fill="rgb(51, 61, 81)" opacity="0.9904874"/>
    <path d="M 176.72186279296875 216.48858642578125 C 173.99038696289062 224.5 168.5 229.99038696289062 160.75930786132812 232.2698974609375 C 153.13906860351562 230.43136596679688 148.26522827148438 224.68943786621094 146.7824249267578 217.37594604492188 C 148.69732666015625 210.1298828125 154.10220336914062 204.61807250976562 161.26174926757812 202.64585876464844 C 168.4103546142578 204.2798309326172 174.495361328125 209.26881408691406 176.72186279296875 216.48858642578125" stroke-width="0.0" fill="rgb(132, 138, 149)" opacity="0.9900641"/>
    <path d="M 383.3802185058594 391.7088623046875 C 381.04400634765625 399.5291442871094 375.5161437988281 404.9999084472656 368.001953125 407.001220703125 C 360.5 404.9903869628906 355.0096130371094 399.5 352.9141540527344 391.8818664550781 C 354.64453125 384.03533935546875 359.91717529296875 378.30419921875 367.66925048828125 376.1558837890625 C 376.1276550292969 378.32366943359375 381.56488037109375 383.9091796875 383.3802185058594 391.7088623046875" stroke-width="0.0" fill="rgb(96, 111, 135)" opacity="0.99241525"/>
    <path d="M 297.9522705078125 214.8162841796875 C 295.906982421875 222.3991241455078 290.3956298828125 227.89735412597656 282.790283203125 229.85121154785156 C 273.8251647949219 227.55140686035156 268.14410400390625 222.2813720703125 266.0655517578125 214.75994873046875 C 269.42864990234375 207.24462890625 275.3354187011719 201.90109252929688 282.1549987792969 199.9619903564453 C 288.62908935546875 201.91436767578125 294.2864990234375 207.3243865966797 297.9522705078125 214.8162841796875" stroke-width="0.0" fill="rgb(14, 7, 4)" opacity="0.99001384"/>
    <path d="M 286.13360595703125 346.8153991699219 C 285.2113342285156 353.59075927734375 279.5228271484375 358.9986572265625 272.00067138671875 361.000244140625 C 264.5 358.9903869628906 259.0096130371094 353.5 257.40606689453125 346.41827392578125 C 259.71112060546875 339.2304382324219 265.274658203125 333.839111328125 271.7209167480469 331.9465637207031 C 278.6637878417969 333.8691101074219 284.11907958984375 339.3412170410156 286.13360595703125 346.8153991699219" stroke-width="0.0" fill="rgb(3, 3, 5)" opacity="0.9900132"/>
    <path d="M 401.6485290527344 306.3408508300781 C 399.576171875 314.03900146484375 394.0426025390625 319.58367919921875 386.3363952636719 321.52685546875 C 378.1539306640625 319.3400573730469 372.5330505371094 313.8890686035156 370.2682800292969 305.7626037597656 C 372.37542724609375 297.92108154296875 377.93585205078125 292.4164733886719 385.6895446777344 290.47467041015625 C 393.8503723144531 292.6357116699219 399.3689880371094 298.1485900878906 401.6485290527344 306.3408508300781" stroke-width="0.0" fill="rgb(164, 183, 200)" opacity="1.0"/>
    <path d="M 272.9864807128906 351.0201721191406 C 270.9903869628906 358.5 265.5 363.9903869628906 257.3409729003906 366.67242431640625 C 249.63514709472656 364.84466552734375 244.09710693359375 359.38543701171875 242.16766357421875 351.875 C 245.78363037109375 344.2670593261719 251.29391479492188 338.8533020019531 258.612548828125 336.9450378417969 C 265.0918273925781 338.6359558105469 270.8819580078125 343.7008056640625 272.9864807128906 351.0201721191406" stroke-width="0.0" fill="rgb(2, 2, 4)" opacity="0.9900201"/>
    <path d="M 313.3973083496094 120.40233612060547 C 311.6999206542969 128.25108337402344 306.30328369140625 133.84970092773438 297.63385009765625 135.94346618652344 C 289.6441955566406 133.87428283691406 284.1312255859375 128.35333251953125 282.0570983886719 119.46017456054688 C 284.0979919433594 111.60472869873047 289.604736328125 106.09793090820312 297.22918701171875 104.06452178955078 C 306.00335693359375 106.3204574584961 311.1668701171875 112.19422149658203 313.3973083496094 120.40233612060547" stroke-width="0.0" fill="rgb(95, 104, 113)" opacity="1.0"/>
    <path d="M 382.9189147949219 405.8147277832031 C 380.8981018066406 413.3867492675781 375.38177490234375 418.8858642578125 367.20684814453125 420.93841552734375 C 358.663330078125 418.8605041503906 353.1590270996094 413.32861328125 351.1673278808594 405.740234375 C 354.00872802734375 397.50030517578125 359.50323486328125 392.0193176269531 367.02337646484375 390.1563720703125 C 374.70611572265625 391.8647766113281 380.4143981933594 397.2035217285156 382.9189147949219 405.8147277832031" stroke-width="0.0" fill="rgb(71, 86, 102)" opacity="1.0"/>
    <path d="M 126.84262084960938 453.77716064453125 C 124.878173828125 461.3745422363281 119.3818588256836 466.8966064453125 111.2763671875 468.9552917480469 C 102.61970520019531 466.892822265625 97.11527252197266 461.3769836425781 95.05278015136719 452.4833984375 C 97.10568237304688 444.6220703125 102.62564086914062 439.11358642578125 110.28829956054688 437.06365966796875 C 119.01213073730469 439.3033752441406 124.15349578857422 445.2038269042969 126.84262084960938 453.77716064453125" stroke-width="0.0" fill="rgb(17, 19, 30)" opacity="1.0"/>
    <path d="M 313.33172607421875 522.152587890625 C 311.112548828125 529.5487060546875 305.5135803222656 534.9954833984375 297.4687194824219 537.6099243164062 C 289.7804870605469 535.725341796875 284.2171936035156 530.2410888671875 282.1003112792969 522.1616821289062 C 284.24847412109375 513.818359375 289.87548828125 508.40533447265625 297.6614685058594 506.6424560546875 C 305.5 509.0096130371094 310.9903869628906 514.5 313.33172607421875 522.152587890625" stroke-width="0.0" fill="rgb(250, 237, 56)" opacity="1.0"/>
    <path d="M 281.8992919921875 574.4283447265625 C 279.7304382324219 583.2012329101562 274.2233581542969 588.7798461914062 265.99737548828125 590.8966064453125 C 257.75927734375 588.7755737304688 252.2291717529297 583.2393188476562 250.20684814453125 575.5276489257812 C 252.2845001220703 566.7227783203125 257.6663818359375 561.12255859375 266.0588073730469 559.05078125 C 274.35107421875 561.1210327148438 279.8427429199219 566.6647338867188 281.8992919921875 574.4283447265625" stroke-width="0.0" fill="rgb(102, 114, 137)" opacity="1.0"/>
    <path d="M 41.15738296508789 492.1917724609375 C 39.16647720336914 499.21038818359375 32.91218948364258 504.2233581542969 26.376815795898438 506.0624694824219 C 19.330875396728516 504.13092041015625 13.849069595336914 498.6766052246094 11.8363676071167 491.3979797363281 C 13.237215995788574 484.6615905761719 18.76468849182129 479.4683532714844 26.632200241088867 476.5086975097656 C 33.7797737121582 478.5295104980469 39.030540466308594 484.37786865234375 41.15738296508789 492.1917724609375" stroke-width="0.0" fill="rgb(65, 69, 74)" opacity="0.9900163"/>
    <path d="M 282.94744873046875 132.65707397460938 C 280.8993835449219 140.38494873046875 275.3818664550781 145.89247131347656 266.4794921875 147.95999145507812 C 258.58563232421875 145.91883850097656 253.07821655273438 140.4155731201172 251.0478515625 132.84156799316406 C 253.31654357910156 123.87625885009766 258.8385009765625 118.25083923339844 267.68170166015625 116.09553527832031 C 275.3462829589844 118.13379669189453 280.85791015625 123.65764617919922 282.94744873046875 132.65707397460938" stroke-width="0.0" fill="rgb(20, 23, 29)" opacity="0.9900534"/>
    <path d="M 260.96063232421875 245.3164520263672 C 258.8448486328125 254.1103515625 251.85861206054688 258.1401062011719 245.13470458984375 260.0369873046875 C 238.3585968017578 258.08990478515625 232.46429443359375 252.71286010742188 229.09246826171875 246.64186096191406 C 231.87506103515625 238.45408630371094 237.4938507080078 233.00765991210938 245.80282592773438 230.1511993408203 C 253.40130615234375 232.1009521484375 258.9165954589844 237.59197998046875 260.96063232421875 245.3164520263672" stroke-width="0.0" fill="rgb(3, 2, 2)" opacity="0.99002105"/>
    <path d="M 71.94129943847656 481.56622314453125 C 69.89091491699219 489.3773193359375 64.37091827392578 494.874755859375 56.638526916503906 496.9113464355469 C 48.0560302734375 494.63739013671875 43.10185623168945 488.69732666015625 40.5137825012207 480.3655090332031 C 42.208580017089844 472.7003173828125 47.675777435302734 467.1439514160156 56.47365188598633 465.0627746582031 C 64.3625259399414 467.11834716796875 69.85884094238281 472.6469421386719 71.94129943847656 481.56622314453125" stroke-width="0.0" fill="rgb(108, 80, 24)" opacity="1.0"/>
    <path d="M 210.79917907714844 521.4328002929688 C 208.78436279296875 529.3070068359375 203.34732055664062 534.8853759765625 195.73358154296875 536.9406127929688 C 186.70745849609375 534.8088989257812 181.1749267578125 529.2994995117188 179.1500701904297 521.5116577148438 C 181.29183959960938 512.8505249023438 186.87451171875 507.34979248046875 194.78683471679688 505.2374267578125 C 202.7637939453125 507.5637512207031 208.4416961669922 513.2325439453125 210.79917907714844 521.4328002929688" stroke-width="0.0" fill="rgb(133, 50, 14)" opacity="0.99001855"/>
    <path d="M 281.9375915527344 293.370361328125 C 279.8406982421875 302.3158264160156 274.3041076660156 307.80914306640625 266.6570129394531 308.2270812988281 C 257.74639892578125 307.6640625 252.15478515625 302.30584716796875 250.0692596435547 294.04522705078125 C 252.14913940429688 285.667724609375 257.6697998046875 280.1553039550781 265.98236083984375 278.1214599609375 C 274.3521423339844 280.145263671875 279.8832092285156 285.6365051269531 281.9375915527344 293.370361328125" stroke-width="0.0" fill="rgb(55, 64, 72)" opacity="1.0"/>
    <path d="M 290.95867919921875 235.6376190185547 C 288.9013366699219 243.3763885498047 283.3592224121094 248.8634033203125 274.47589111328125 250.94354248046875 C 266.6041259765625 248.89895629882812 261.0835266113281 243.40341186523438 259.0357666015625 235.4861602783203 C 261.0896911621094 226.60433959960938 266.6158752441406 221.1188507080078 274.2476501464844 219.17520141601562 C 283.163818359375 221.46022033691406 288.85406494140625 226.72438049316406 290.95867919921875 235.6376190185547" stroke-width="0.0" fill="rgb(0, 0, 0)" opacity="1.0"/>
    <path d="M 212.4321746826172 387.6213073730469 C 209.99038696289062 395.5 204.5 400.9903869628906 197.0 403.0 C 189.5 400.9903869628906 184.00961303710938 395.5 181.6575927734375 387.6638488769531 C 183.41180419921875 379.9075622558594 188.9115447998047 374.4249572753906 196.80068969726562 372.6154479980469 C 205.0012664794922 374.56317138671875 210.59161376953125 379.9513244628906 212.4321746826172 387.6213073730469" stroke-width="0.0" fill="rgb(62, 70, 87)" opacity="1.0"/>
    <path d="M 219.6881103515625 557.625244140625 C 217.79315185546875 565.2839965820312 212.29090881347656 570.8128051757812 203.65682983398438 572.9007568359375 C 195.65306091308594 570.85205078125 190.11666870117188 565.3599243164062 188.04290771484375 556.6528930664062 C 190.09559631347656 548.6063842773438 195.61614990234375 543.12255859375 203.25563049316406 541.2216186523438 C 211.49961853027344 544.009765625 216.98577880859375 549.5016479492188 219.6881103515625 557.625244140625" stroke-width="0.0" fill="rgb(27, 33, 44)" opacity="0.99018097"/>
    <path d="M 293.9413757324219 430.4617614746094 C 291.892333984375 438.38037109375 286.3780517578125 443.88690185546875 278.64434814453125 445.9148254394531 C 269.6427307128906 443.8505554199219 264.1151123046875 438.3698425292969 262.06219482421875 430.5723571777344 C 264.17529296875 421.71258544921875 269.72674560546875 416.2095947265625 278.4156799316406 414.115966796875 C 286.336669921875 416.1613464355469 291.87109375 421.650390625 293.9413757324219 430.4617614746094" stroke-width="0.0" fill="rgb(66, 74, 92)" opacity="1.0"/>
    <path d="M 254.14955139160156 544.8267211914062 C 253.86898803710938 552.3577880859375 248.34194946289062 557.820556640625 240.60903930664062 559.5643920898438 C 232.4578094482422 557.0791015625 227.0018310546875 551.5179443359375 224.91336059570312 543.8692626953125 C 226.59002685546875 535.95556640625 231.83731079101562 530.2400512695312 239.47059631347656 528.2651977539062 C 247.22218322753906 530.5850830078125 252.24720764160156 537.09228515625 254.14955139160156 544.8267211914062" stroke-width="0.0" fill="rgb(14, 4, 10)" opacity="0.9900251"/>
    <path d="M 421.9563903808594 457.0904235839844 C 419.9111633300781 465.406494140625 414.4090881347656 470.91729736328125 406.7968444824219 472.95654296875 C 397.8522033691406 470.7856140136719 392.7060241699219 464.9595642089844 390.961181640625 457.0696105957031 C 393.00958251953125 449.5 398.4999084472656 444.0093078613281 406.8521423339844 441.08526611328125 C 414.3946228027344 443.0961608886719 419.9029846191406 448.6058349609375 421.9563903808594 457.0904235839844" stroke-width="0.0" fill="rgb(0, 0, 0)" opacity="1.0"/>
    <path d="M 339.60614013671875 328.23541259765625 C 337.4044494628906 335.8038330078125 331.7308349609375 341.1800842285156 323.64239501953125 343.3979187011719 C 316.02349853515625 341.54840087890625 310.57098388671875 335.9346923828125 308.6750183105469 328.2306823730469 C 310.9084167480469 320.4346923828125 316.4600830078125 314.9878234863281 324.1612243652344 312.4664306640625 C 331.4754943847656 314.9356994628906 337.1316833496094 320.4980163574219 339.60614013671875 328.23541259765625" stroke-width="0.0" fill="rgb(200, 215, 226)" opacity="0.99113554"/>
    <path d="M 472.9508056640625 466.9047546386719 C 470.9041748046875 475.4009704589844 465.4031982421875 480.9096374511719 456.582275390625 482.95953369140625 C 448.6153869628906 480.90509033203125 443.1599426269531 475.3611755371094 441.33056640625 467.62506103515625 C 443.52716064453125 458.8764953613281 448.7413024902344 453.15087890625 457.64263916015625 451.04034423828125 C 465.3970031738281 453.08984375 470.8988342285156 458.6078796386719 472.9508056640625 466.9047546386719" stroke-width="0.0" fill="rgb(0, 2, 7)" opacity="1.0"/>
    <path d="M 314.3398132324219 477.2552490234375 C 312.44598388671875 484.8621520996094 306.791259765625 490.2237548828125 298.7206115722656 492.2932434082031 C 290.77435302734375 490.6417236328125 285.142822265625 485.29986572265625 283.08837890625 477.7962646484375 C 285.8724670410156 469.4884948730469 291.5831298828125 464.1775817871094 298.9274597167969 462.507080078125 C 306.3583984375 464.26287841796875 312.07275390625 469.53839111328125 314.3398132324219 477.2552490234375" stroke-width="0.0" fill="rgb(23, 27, 40)" opacity="0.9901187"/>
    <path d="M 76.05056762695312 431.9202880859375 C 74.00450897216797 439.53643798828125 68.61492919921875 445.2453918457031 60.7203369140625 447.74371337890625 C 54.206077575683594 444.6317138671875 48.884727478027344 438.68951416015625 46.95759201049805 432.4178466796875 C 48.91064453125 425.3764343261719 54.37202453613281 419.9002685546875 61.87366485595703 417.8548889160156 C 69.09628295898438 418.2709045410156 74.29991912841797 424.0591735839844 76.05056762695312 431.9202880859375" stroke-width="0.0" fill="rgb(30, 35, 52)" opacity="0.99001175"/>
    <path d="M 325.92449951171875 508.6316223144531 C 323.74072265625 517.0675659179688 317.7738952636719 521.77001953125 310.4214172363281 523.1617431640625 C 303.1753845214844 521.2418823242188 297.67840576171875 515.8583984375 295.8158264160156 508.4028625488281 C 297.02142333984375 501.50335693359375 302.5001525878906 496.0096435546875 310.59796142578125 493.3169250488281 C 318.2657470703125 495.2305603027344 323.824462890625 500.7127380371094 325.92449951171875 508.6316223144531" stroke-width="0.0" fill="rgb(51, 53, 74)" opacity="0.99002135"/>
    <path d="M 225.0 96.0 C 222.99038696289062 103.5 217.5 108.9903793334961 209.71189880371094 111.5346450805664 C 202.7301483154297 109.11776733398438 197.48899841308594 103.1220474243164 195.47447204589844 95.75492858886719 C 197.07179260253906 88.45016479492188 202.42718505859375 82.9944839477539 210.12510681152344 81.37832641601562 C 217.49925231933594 83.0121841430664 222.99037170410156 88.50006103515625 225.0 96.0" stroke-width="0.0" fill="rgb(205, 198, 191)" opacity="0.99016154"/>
    <path d="M 534.6806030273438 442.55047607421875 C 532.6812133789062 450.0952453613281 527.029052734375 455.50238037109375 518.3965454101562 457.8200378417969 C 510.755615234375 455.7682189941406 505.2118225097656 450.2530822753906 503.1506652832031 442.5653991699219 C 505.3966369628906 433.9646911621094 510.96356201171875 428.3950500488281 518.5166625976562 426.3584289550781 C 526.5 429.0096130371094 531.9903564453125 434.5 534.6806030273438 442.55047607421875" stroke-width="0.0" fill="rgb(172, 185, 197)" opacity="1.0"/>
    <path d="M 97.95690155029297 441.5262756347656 C 95.896484375 450.3876647949219 90.39026641845703 455.9025573730469 82.3941650390625 457.9584655761719 C 73.63738250732422 455.88836669921875 68.18309020996094 450.3365173339844 66.36744689941406 442.61480712890625 C 69.0096206665039 434.5 74.5 429.0096130371094 82.86150360107422 426.0810546875 C 90.4056396484375 428.08837890625 95.91386413574219 433.5933532714844 97.95690155029297 441.5262756347656" stroke-width="0.0" fill="rgb(2, 2, 3)" opacity="0.9904123"/>
    <path d="M 413.9167175292969 274.2129821777344 C 411.80023193359375 282.2579650878906 406.24578857421875 287.771240234375 398.5323486328125 289.854736328125 C 390.2587585449219 287.4311828613281 384.9660949707031 281.5976257324219 382.99749755859375 274.005615234375 C 385.0096130371094 266.5 390.5 261.0096130371094 398.1069030761719 258.93096923828125 C 405.998779296875 260.6402587890625 411.7590637207031 265.8584899902344 413.9167175292969 274.2129821777344" stroke-width="0.0" fill="rgb(115, 129, 145)" opacity="1.0"/>
    <path d="M 309.83599853515625 392.7000427246094 C 307.84942626953125 400.34820556640625 302.36297607421875 405.88555908203125 293.88897705078125 407.9523010253906 C 285.65032958984375 405.8791198730469 280.16998291015625 400.32940673828125 278.1831359863281 392.6427001953125 C 280.5436706542969 384.1430969238281 286.2261657714844 378.7997131347656 293.9871826171875 376.9198303222656 C 301.7549743652344 378.8248291015625 307.44818115234375 384.1561584472656 309.83599853515625 392.7000427246094" stroke-width="0.0" fill="rgb(83, 97, 113)" opacity="1.0"/>
    <path d="M 447.9578857421875 489.32568359375 C 445.8994445800781 497.3810119628906 440.3616638183594 502.8454284667969 432.6644592285156 504.6798400878906 C 424.41009521484375 502.02490234375 418.4779052734375 496.7881164550781 416.0551452636719 488.185302734375 C 418.1025085449219 480.6146240234375 423.6147155761719 475.10302734375 431.2297058105469 473.0791931152344 C 440.3551940917969 475.1623840332031 445.89825439453125 480.6227111816406 447.9578857421875 489.32568359375" stroke-width="0.0" fill="rgb(0, 0, 0)" opacity="1.0"/>
    <path d="M 318.9503173828125 352.3111572265625 C 316.8026428222656 361.11151123046875 310.3730163574219 365.3816833496094 302.5015563964844 367.3764343261719 C 295.5 365.9903869628906 290.0096130371094 360.5 288.1124267578125 353.454345703125 C 290.787841796875 346.30023193359375 296.3312683105469 340.8802490234375 303.7969970703125 338.93048095703125 C 311.2906494140625 339.31640625 316.8861389160156 344.6513671875 318.9503173828125 352.3111572265625" stroke-width="0.0" fill="rgb(2, 2, 3)" opacity="0.9900213"/>
    <path d="M 84.9264144897461 399.21588134765625 C 82.86587524414062 407.352783203125 77.35479736328125 412.8708801269531 69.66015625 414.935302734375 C 62.18989181518555 412.1466979980469 56.868614196777344 405.6986999511719 54.94607162475586 399.255859375 C 56.887535095214844 392.3514709472656 62.34958267211914 386.8827819824219 69.85521697998047 384.8754577636719 C 77.33330535888672 385.1599426269531 82.85963439941406 390.6591796875 84.9264144897461 399.21588134765625" stroke-width="0.0" fill="rgb(44, 53, 75)" opacity="0.99001354"/>
    <path d="M 202.2130584716797 249.23011779785156 C 200.1251983642578 256.670166015625 194.6874542236328 262.16973876953125 187.1897430419922 264.2215576171875 C 179.6515655517578 263.8332214355469 174.11085510253906 258.3686218261719 172.0626678466797 250.72694396972656 C 174.3190460205078 242.0206298828125 180.25228881835938 236.88499450683594 187.98191833496094 234.99160766601562 C 195.50921630859375 237.00656127929688 201.12820434570312 242.4501495361328 202.2130584716797 249.23011779785156" stroke-width="0.0" fill="rgb(12, 18, 21)" opacity="0.99002683"/>
    <path d="M 279.94476318359375 104.66227722167969 C 277.9061584472656 112.39473724365234 272.3838195800781 117.87641906738281 263.26947021484375 119.9293441772461 C 255.595947265625 117.90949249267578 250.08778381347656 112.40510559082031 248.0398712158203 104.16876220703125 C 250.0984649658203 95.61302947998047 255.6183624267578 90.11103820800781 263.3551330566406 88.0760726928711 C 272.3039245605469 90.18572998046875 277.85333251953125 95.67928314208984 279.94476318359375 104.66227722167969" stroke-width="0.0" fill="rgb(8, 9, 15)" opacity="0.99010724"/>
    <path d="M 220.69168090820312 394.4150085449219 C 217.99038696289062 402.5 212.5 407.9903869628906 205.0 410.0 C 197.5 407.9903869628906 192.00961303710938 402.5 190.0453338623047 395.0329895019531 C 192.07901000976562 387.5472717285156 197.52694702148438 382.01007080078125 205.5634002685547 379.3343505859375 C 213.21780395507812 381.261474609375 218.7415313720703 386.7812805175781 220.69168090820312 394.4150085449219" stroke-width="0.0" fill="rgb(71, 77, 100)" opacity="0.9913473"/>
    <path d="M 86.61393737792969 433.3935852050781 C 83.99559020996094 441.5086669921875 78.51702880859375 447.02410888671875 70.35455322265625 449.80694580078125 C 63.00395202636719 447.68902587890625 58.28925704956055 441.667236328125 56.795501708984375 434.31585693359375 C 58.54771041870117 426.856201171875 63.37084197998047 420.4407043457031 71.77539825439453 418.0628662109375 C 79.37311553955078 420.1039733886719 84.81940460205078 425.6539001464844 86.61393737792969 433.3935852050781" stroke-width="0.0" fill="rgb(4, 6, 10)" opacity="0.9901424"/>
    <path d="M 213.34173583984375 408.4088134765625 C 211.7156524658203 416.2867126464844 206.34677124023438 421.88983154296875 197.59274291992188 423.9593200683594 C 189.60939025878906 421.9050598144531 184.1084442138672 416.3846435546875 182.07479858398438 408.83331298828125 C 184.8430633544922 400.379150390625 190.33912658691406 394.73333740234375 197.68370056152344 392.63409423828125 C 205.32595825195312 395.2635192871094 210.91343688964844 400.61859130859375 213.34173583984375 408.4088134765625" stroke-width="0.0" fill="rgb(12, 16, 27)" opacity="1.0"/>
    <path d="M 193.55813598632812 389.6753234863281 C 191.11314392089844 397.55096435546875 185.51589965820312 402.99664306640625 178.0006561279297 405.0002746582031 C 170.5 402.9903869628906 165.00961303710938 397.5 163.01927185058594 390.0064697265625 C 164.98776245117188 382.41815185546875 170.24745178222656 376.53326416015625 178.76795959472656 374.0686340332031 C 186.2962188720703 376.1420593261719 191.65733337402344 381.77886962890625 193.55813598632812 389.6753234863281" stroke-width="0.0" fill="rgb(3, 8, 12)" opacity="1.0"/>
    <path d="M 233.85330200195312 119.70320129394531 C 231.8020782470703 128.26708984375 226.23744201660156 133.71803283691406 218.48976135253906 135.53933715820312 C 210.5000762939453 132.990234375 205.00961303710938 127.49996948242188 203.07333374023438 120.02945709228516 C 205.02967834472656 112.49267578125 210.48141479492188 106.98942565917969 218.38894653320312 104.60055541992188 C 226.2108917236328 106.33563995361328 231.81805419921875 111.73483276367188 233.85330200195312 119.70320129394531" stroke-width="0.0" fill="rgb(195, 189, 181)" opacity="1.0"/>
    <path d="M 396.4315490722656 437.53680419921875 C 393.9903869628906 445.5 388.5 450.9903869628906 380.1928405761719 453.8980407714844 C 372.7315368652344 451.8465270996094 367.4496765136719 446.1625671386719 365.3186950683594 437.4426574707031 C 367.2021484375 429.6912536621094 372.6622009277344 424.1277770996094 381.38153076171875 422.0516357421875 C 389.3478088378906 424.1138916015625 394.74566650390625 429.7012939453125 396.4315490722656 437.53680419921875" stroke-width="0.0" fill="rgb(2, 2, 3)" opacity="0.99008346"/>
    <path d="M 306.883056640625 279.8020935058594 C 304.86834716796875 287.3420715332031 299.3273010253906 292.83245849609375 290.5445861816406 294.9041442871094 C 282.6333923339844 292.8731689453125 277.119384765625 287.369384765625 275.0660095214844 279.5502624511719 C 277.1506042480469 270.6779479980469 282.7050476074219 265.2301330566406 290.4686279296875 263.46759033203125 C 298.5 266.0096130371094 303.9903869628906 271.5 306.883056640625 279.8020935058594" stroke-width="0.0" fill="rgb(20, 23, 29)" opacity="0.99005157"/>
    <path d="M 194.64842224121094 229.3885955810547 C 191.9903564453125 237.4999237060547 186.49942016601562 242.98849487304688 179.0074462890625 244.93153381347656 C 171.50225830078125 242.9839324951172 166.0098114013672 237.49948120117188 163.88575744628906 229.8880615234375 C 165.73092651367188 222.20469665527344 171.12216186523438 216.49417114257812 179.78811645507812 214.07101440429688 C 187.34933471679688 216.12051391601562 192.80650329589844 221.67825317382812 194.64842224121094 229.3885955810547" stroke-width="0.0" fill="rgb(28, 34, 46)" opacity="0.99021494"/>
    <path d="M 440.9423828125 503.8235168457031 C 438.9098815917969 511.4006042480469 433.39825439453125 516.9044189453125 425.7361755371094 518.9493408203125 C 416.7579345703125 516.7888793945312 411.15423583984375 511.275390625 409.0456237792969 502.486328125 C 411.1009826660156 494.6218566894531 416.6454772949219 489.16717529296875 424.36444091796875 487.353515625 C 432.575927734375 489.9810791015625 438.4822082519531 495.2445373535156 440.9423828125 503.8235168457031" stroke-width="0.0" fill="rgb(0, 0, 5)" opacity="1.0"/>
    <path d="M 135.94378662109375 304.4306640625 C 133.85845947265625 313.3390197753906 128.3387451171875 318.85772705078125 119.35658264160156 320.9454345703125 C 111.59835052490234 318.9071044921875 106.08687591552734 313.40411376953125 104.03578186035156 304.8550109863281 C 106.08573913574219 296.59112548828125 111.58930969238281 291.0818176269531 119.573974609375 289.0396728515625 C 128.39268493652344 291.09442138671875 133.89796447753906 296.6106262207031 135.94378662109375 304.4306640625" stroke-width="0.0" fill="rgb(37, 40, 45)" opacity="1.0"/>
    <path d="M 337.0660095214844 124.10626220703125 C 335.37432861328125 132.02992248535156 330.1927490234375 137.80992126464844 321.3124694824219 139.9484405517578 C 313.5976257324219 137.91270446777344 308.1121826171875 132.392822265625 306.18670654296875 124.81102752685547 C 309.552001953125 116.89340209960938 314.7653503417969 111.17774200439453 322.03717041015625 109.02171325683594 C 329.5 111.0096206665039 334.9903869628906 116.5 337.0660095214844 124.10626220703125" stroke-width="0.0" fill="rgb(22, 29, 42)" opacity="1.0"/>
    <path d="M 208.5361328125 239.23226928710938 C 206.65426635742188 247.1377716064453 201.11557006835938 252.58169555664062 193.3092803955078 254.29869079589844 C 185.49069213867188 251.99461364746094 179.9647216796875 246.52117919921875 177.9326629638672 239.0550079345703 C 180.04612731933594 231.53292846679688 185.54031372070312 226.07119750976562 193.81114196777344 223.10592651367188 C 201.28802490234375 225.1502227783203 206.6224365234375 230.790771484375 208.5361328125 239.23226928710938" stroke-width="0.0" fill="rgb(14, 16, 26)" opacity="0.99030435"/>
    <path d="M 249.92344665527344 230.16127014160156 C 247.12353515625 238.54579162597656 241.50674438476562 243.9932098388672 233.3197479248047 246.78997802734375 C 225.81399536132812 244.77865600585938 220.56283569335938 239.07052612304688 218.25927734375 230.30764770507812 C 220.13607788085938 222.62376403808594 225.61032104492188 217.0980682373047 234.56788635253906 215.0411834716797 C 242.40089416503906 217.0886993408203 247.90460205078125 222.6019744873047 249.92344665527344 230.16127014160156" stroke-width="0.0" fill="rgb(0, 3, 6)" opacity="1.0"/>
    <path d="M 256.9346618652344 416.9943542480469 C 254.87522888183594 425.3627014160156 249.36351013183594 430.8773193359375 241.4581756591797 432.93572998046875 C 232.65492248535156 430.8588562011719 227.128662109375 425.3503112792969 225.0565643310547 417.2820739746094 C 227.13693237304688 408.65582275390625 232.65614318847656 403.13739013671875 241.23770141601562 401.0614318847656 C 249.3668670654297 403.121337890625 254.87779235839844 408.6333923339844 256.9346618652344 416.9943542480469" stroke-width="0.0" fill="rgb(63, 72, 89)" opacity="1.0"/>
    <path d="M 501.8968200683594 527.1716918945312 C 498.1888427734375 534.6810302734375 492.6546630859375 540.10986328125 486.0621643066406 542.0465087890625 C 479.3720703125 540.0997924804688 473.902587890625 534.6266479492188 470.144287109375 527.0982666015625 C 472.1014099121094 519.6140747070312 477.61590576171875 514.1056518554688 485.67047119140625 512.0470581054688 C 494.37615966796875 514.109619140625 499.8808288574219 519.6278686523438 501.8968200683594 527.1716918945312" stroke-width="0.0" fill="rgb(30, 35, 48)" opacity="0.9900115"/>
    <path d="M 278.0 370.0 C 275.9903869628906 377.5 270.5 382.9903869628906 262.98284912109375 385.0086669921875 C 255.3184356689453 383.0885314941406 249.50267028808594 377.8271484375 247.134521484375 369.4554443359375 C 249.38284301757812 362.7576904296875 256.14532470703125 357.7823181152344 263.718994140625 355.8509216308594 C 270.5 357.0096435546875 275.9903869628906 362.5 278.0 370.0" stroke-width="0.0" fill="rgb(146, 159, 182)" opacity="0.99022615"/>
    <path d="M 229.84161376953125 350.6366882324219 C 227.57254028320312 358.8995666503906 221.7359619140625 364.12384033203125 214.0154266357422 366.0179443359375 C 206.3986053466797 364.0440368652344 200.61517333984375 358.7195129394531 198.1532745361328 350.7810974121094 C 200.58323669433594 343.24969482421875 206.2747039794922 337.639892578125 214.38986206054688 335.20379638671875 C 222.17674255371094 337.2984313964844 227.74290466308594 342.806640625 229.84161376953125 350.6366882324219" stroke-width="0.0" fill="rgb(55, 62, 80)" opacity="0.99018323"/>
    <path d="M 446.94354248046875 271.2521667480469 C 444.8870544433594 279.3745422363281 439.3772277832031 284.8928527832031 431.720458984375 286.9367980957031 C 422.7216796875 284.82147216796875 417.24224853515625 279.251953125 415.0911865234375 270.32159423828125 C 417.1095886230469 262.6102600097656 422.60516357421875 257.09625244140625 431.3257141113281 255.04638671875 C 439.395751953125 257.09423828125 444.8957824707031 262.6083068847656 446.94354248046875 271.2521667480469" stroke-width="0.0" fill="rgb(6, 6, 8)" opacity="0.9900399"/>
    <path d="M 228.21580505371094 541.72607421875 C 225.82789611816406 549.224853515625 220.0504913330078 554.358642578125 213.48634338378906 556.0944213867188 C 206.28176879882812 554.1754760742188 200.8140411376953 548.7220458984375 197.29612731933594 541.16064453125 C 199.1592559814453 533.6796875 204.68881225585938 528.1826782226562 212.89598083496094 526.1077880859375 C 221.1937713623047 528.2343139648438 226.5465850830078 533.8810424804688 228.21580505371094 541.72607421875" stroke-width="0.0" fill="rgb(228, 166, 29)" opacity="0.99008113"/>
    <path d="M 309.7515869140625 370.5788269042969 C 307.5397644042969 378.9829406738281 301.94818115234375 384.437255859375 294.4432678222656 385.50830078125 C 286.38934326171875 383.7199401855469 280.5466003417969 378.82666015625 278.6103515625 371.30084228515625 C 281.0177001953125 363.5233154296875 286.61883544921875 358.3011779785156 294.19451904296875 356.87646484375 C 302.093994140625 357.6442565917969 307.7346496582031 362.8182678222656 309.7515869140625 370.5788269042969" stroke-width="0.0" fill="rgb(151, 164, 181)" opacity="0.9901655"/>
    <path d="M 234.8610076904297 92.5825424194336 C 232.8105010986328 100.28330993652344 227.2717742919922 105.77851104736328 219.59930419921875 107.66732025146484 C 211.49867248535156 104.9922103881836 206.00628662109375 99.50177764892578 203.96527099609375 91.96829986572266 C 205.88088989257812 84.31571197509766 211.23069763183594 78.6202163696289 219.15469360351562 76.30420684814453 C 226.9071502685547 78.53717803955078 232.59837341308594 84.03239440917969 234.8610076904297 92.5825424194336" stroke-width="0.0" fill="rgb(200, 194, 186)" opacity="1.0"/>
    <path d="M 407.510498046875 272.1448059082031 C 405.8888244628906 279.42242431640625 400.4250183105469 284.89697265625 392.8930358886719 287.0337829589844 C 385.56591796875 284.9549560546875 380.1642150878906 279.4011535644531 377.76904296875 271.6307067871094 C 379.5832824707031 264.1429443359375 385.1638488769531 258.647705078125 392.8126525878906 256.7687072753906 C 400.47412109375 259.0205993652344 405.8219909667969 264.57452392578125 407.510498046875 272.1448059082031" stroke-width="0.0" fill="rgb(150, 163, 180)" opacity="0.9903109"/>
    <path d="M 312.78985595703125 566.2783203125 C 309.9903869628906 574.5 304.5 579.9903564453125 296.6172790527344 582.4285278320312 C 288.8636779785156 580.6210327148438 283.2496337890625 575.1842651367188 281.0762634277344 566.3403930664062 C 283.14056396484375 558.6781616210938 288.71600341796875 553.2445678710938 296.85791015625 551.4403686523438 C 305.29730224609375 553.2338256835938 310.8438720703125 558.6776733398438 312.78985595703125 566.2783203125" stroke-width="0.0" fill="rgb(89, 100, 118)" opacity="1.0"/>
    <path d="M 164.9572296142578 418.96380615234375 C 162.90499877929688 427.3963317871094 157.39454650878906 432.9006652832031 149.1803436279297 434.949951171875 C 140.5982208251953 432.9047546386719 135.08731079101562 427.40496826171875 133.04139709472656 419.58831787109375 C 135.1034698486328 410.6187438964844 140.6224822998047 405.1116943359375 149.13905334472656 403.04998779296875 C 157.38446044921875 405.10748291015625 162.90106201171875 410.61187744140625 164.9572296142578 418.96380615234375" stroke-width="0.0" fill="rgb(16, 20, 30)" opacity="1.0"/>
    <path d="M 374.7308654785156 442.46356201171875 C 372.7801513671875 450.2835998535156 367.3058166503906 455.83868408203125 359.28790283203125 457.922607421875 C 350.7235412597656 455.80908203125 345.1874084472656 450.2780456542969 343.05694580078125 441.3677673339844 C 345.1156921386719 433.6285705566406 350.62884521484375 428.11669921875 358.89996337890625 426.0562744140625 C 367.3089599609375 428.1390380859375 372.68963623046875 433.7529602050781 374.7308654785156 442.46356201171875" stroke-width="0.0" fill="rgb(51, 62, 85)" opacity="1.0"/>
    <path d="M 230.95022583007812 363.83575439453125 C 228.9224395751953 371.4156494140625 223.41075134277344 376.9100036621094 215.7861785888672 378.9072265625 C 207.6012420654297 376.39697265625 202.3971405029297 370.1718444824219 199.4424285888672 362.60223388671875 C 201.63784790039062 355.3141784667969 207.51303100585938 350.2059020996094 214.86624145507812 348.6522521972656 C 222.43502807617188 350.3655700683594 228.66567993164062 355.0933532714844 230.95022583007812 363.83575439453125" stroke-width="0.0" fill="rgb(3, 3, 8)" opacity="0.99007344"/>
    <path d="M 414.9615173339844 395.4940490722656 C 412.9158935546875 403.41192626953125 407.4154968261719 408.92388916015625 399.6195373535156 410.96142578125 C 390.5999450683594 408.9075622558594 385.10394287109375 403.3957214355469 383.08251953125 395.3102722167969 C 385.12225341796875 386.62567138671875 390.62017822265625 381.10833740234375 399.5938415527344 379.0462951660156 C 407.39599609375 381.09503173828125 412.9062805175781 386.6033935546875 414.9615173339844 395.4940490722656" stroke-width="0.0" fill="rgb(3, 3, 5)" opacity="0.9903789"/>
    <path d="M 322.3666076660156 580.369384765625 C 320.6457824707031 588.1907958984375 315.2482604980469 593.8070678710938 307.10693359375 595.9166870117188 C 298.75006103515625 593.8012084960938 293.2752380371094 588.218994140625 291.2960205078125 580.5615844726562 C 293.955810546875 572.4732055664062 299.49127197265625 567.017578125 307.0178527832031 565.0484619140625 C 314.5004577636719 567.0084228515625 319.9904479980469 572.4998779296875 322.3666076660156 580.369384765625" stroke-width="0.0" fill="rgb(102, 115, 134)" opacity="1.0"/>
    <path d="M 379.07476806640625 565.2772216796875 C 377.1363525390625 572.6937255859375 371.74737548828125 578.331787109375 364.2578125 581.9044189453125 C 356.6884765625 579.8389282226562 351.2008361816406 574.2965698242188 349.29254150390625 566.6312255859375 C 351.99688720703125 558.4942626953125 357.4975280761719 553.0084228515625 365.8192138671875 550.1126098632812 C 373.34759521484375 552.1165771484375 378.6040344238281 557.717529296875 379.07476806640625 565.2772216796875" stroke-width="0.0" fill="rgb(65, 74, 97)" opacity="0.990049"/>
    <path d="M 333.4686584472656 106.32803344726562 C 330.9901123046875 114.49992370605469 325.5 119.9903793334961 318.4057922363281 121.58563995361328 C 311.1905822753906 119.315185546875 305.7686767578125 113.78182220458984 302.1690368652344 106.16707611083984 C 304.15521240234375 98.70696258544922 309.72991943359375 93.19868469238281 318.6908264160156 91.04896545410156 C 326.3892822265625 93.09984588623047 331.8697204589844 98.6214828491211 333.4686584472656 106.32803344726562" stroke-width="0.0" fill="rgb(9, 15, 20)" opacity="0.9900387"/>
    <path d="M 243.13900756835938 545.2511596679688 C 241.19183349609375 552.76171875 235.79159545898438 558.2659301757812 229.02008056640625 560.1478881835938 C 222.12612915039062 558.2830810546875 216.50851440429688 552.9425048828125 214.17697143554688 545.7769775390625 C 215.90194702148438 538.3018798828125 221.13052368164062 532.442626953125 228.8644256591797 530.1600341796875 C 237.17266845703125 532.3302001953125 242.70362854003906 537.8148803710938 243.13900756835938 545.2511596679688" stroke-width="0.0" fill="rgb(215, 166, 36)" opacity="0.99002004"/>
    <path d="M 173.69766235351562 304.53680419921875 C 171.64337158203125 312.9960021972656 165.83782958984375 318.19091796875 157.1768035888672 320.874755859375 C 149.5966339111328 318.9045715332031 144.0839080810547 313.4079284667969 142.0419158935547 305.426025390625 C 144.09326171875 296.6044921875 149.60874938964844 291.1031799316406 157.51339721679688 289.0567321777344 C 166.3517608642578 291.12786865234375 171.84664916992188 296.6581115722656 173.69766235351562 304.53680419921875" stroke-width="0.0" fill="rgb(3, 3, 5)" opacity="0.99004877"/>
    <path d="M 279.4325256347656 372.34674072265625 C 277.5549621582031 380.05804443359375 272.0890197753906 385.6429138183594 264.06103515625 387.7559814453125 C 255.93141174316406 385.6255798339844 250.4271697998047 380.0484619140625 248.4785614013672 372.42974853515625 C 251.12091064453125 364.59954833984375 256.6048583984375 359.138427734375 264.0694580078125 357.11260986328125 C 271.5 359.0096130371094 276.9903869628906 364.5 279.4325256347656 372.34674072265625" stroke-width="0.0" fill="rgb(149, 163, 184)" opacity="1.0"/>
    <path d="M 417.9455871582031 255.60304260253906 C 415.8826904296875 263.3476257324219 410.3079528808594 268.7716064453125 402.6580810546875 269.16552734375 C 395.1175231933594 267.3303527832031 389.6836242675781 261.8751525878906 386.09814453125 254.12234497070312 C 388.0890808105469 246.5999298095703 393.60577392578125 241.10337829589844 402.2013244628906 239.05662536621094 C 410.3608703613281 241.11741638183594 415.86444091796875 246.64700317382812 417.9455871582031 255.60304260253906" stroke-width="0.0" fill="rgb(2, 2, 3)" opacity="0.99002343"/>
    <path d="M 280.92437744140625 175.49435424804688 C 278.81903076171875 184.2908935546875 273.2928771972656 189.8236541748047 265.4918212890625 191.908447265625 C 256.7530822753906 189.7760009765625 251.21644592285156 184.2504425048828 249.1294403076172 175.6865997314453 C 251.15689086914062 167.65684509277344 256.6468505859375 162.13011169433594 265.53955078125 160.0580291748047 C 273.36517333984375 162.11558532714844 278.86871337890625 167.6414794921875 280.92437744140625 175.49435424804688" stroke-width="0.0" fill="rgb(147, 101, 100)" opacity="1.0"/>
    <path d="M 201.8563232421875 356.28668212890625 C 199.3140106201172 364.6291809082031 193.4198455810547 369.739990234375 185.1585235595703 372.8778381347656 C 177.598388671875 370.9045715332031 172.08567810058594 365.40557861328125 170.03712463378906 357.3238525390625 C 172.0888671875 348.5935974121094 177.59207153320312 343.0855407714844 185.14419555664062 341.0786437988281 C 194.2163848876953 343.3720703125 199.8365936279297 348.71588134765625 201.8563232421875 356.28668212890625" stroke-width="0.0" fill="rgb(14, 16, 28)" opacity="1.0"/>
    <path d="M 347.6107482910156 121.68970489501953 C 345.1897888183594 129.71310424804688 339.7973937988281 135.4285888671875 332.5730285644531 137.48162841796875 C 325.2392883300781 134.2462921142578 319.81494140625 128.73924255371094 317.9000549316406 121.56488800048828 C 319.77880859375 115.2538833618164 325.2748107910156 109.83196258544922 332.7727966308594 107.77120208740234 C 339.90386962890625 108.49588775634766 345.4418640136719 114.12085723876953 347.6107482910156 121.68970489501953" stroke-width="0.0" fill="rgb(168, 167, 164)" opacity="0.99001837"/>
    <path d="M 372.86163330078125 509.63104248046875 C 370.71881103515625 518.1972045898438 365.2036437988281 523.7346801757812 356.89056396484375 525.8453369140625 C 348.85797119140625 523.7051391601562 343.34893798828125 518.1203002929688 341.35260009765625 510.62152099609375 C 344.71746826171875 503.1957092285156 350.2044677734375 497.7472839355469 357.5267639160156 495.87860107421875 C 365.0558776855469 496.8219909667969 370.761962890625 501.8155822753906 372.86163330078125 509.63104248046875" stroke-width="0.0" fill="rgb(247, 234, 65)" opacity="0.99003"/>
    <path d="M 323.834228515625 537.8799438476562 C 321.72674560546875 546.2039184570312 316.23492431640625 551.7973022460938 308.5304260253906 553.85009765625 C 299.7681884765625 551.7578735351562 294.23565673828125 546.2344970703125 292.14788818359375 538.5620727539062 C 294.712890625 530.3680419921875 300.4691162109375 525.0149536132812 308.6654357910156 522.1914672851562 C 316.21490478515625 524.2525024414062 321.73577880859375 529.7894287109375 323.834228515625 537.8799438476562" stroke-width="0.0" fill="rgb(247, 252, 22)" opacity="0.99160725"/>
    <path d="M 314.8600158691406 494.26141357421875 C 312.09295654296875 502.6035461425781 306.662109375 508.2704162597656 298.4215393066406 510.787109375 C 290.688232421875 508.8025207519531 285.13873291015625 503.3338623046875 283.0715026855469 495.4332275390625 C 285.1811828613281 486.74200439453125 290.7950134277344 481.3135986328125 299.0970764160156 479.1796569824219 C 307.19195556640625 481.3061218261719 312.8022766113281 486.7625732421875 314.8600158691406 494.26141357421875" stroke-width="0.0" fill="rgb(76, 87, 107)" opacity="1.0"/>
    <path d="M 420.9554443359375 350.6308898925781 C 418.9029235839844 359.4005432128906 413.40679931640625 364.9176330566406 405.81134033203125 366.9551696777344 C 396.8215026855469 364.79315185546875 391.30364990234375 359.11676025390625 389.0513000488281 350.2620849609375 C 391.09332275390625 342.60107421875 396.5978088378906 337.08575439453125 404.3217468261719 335.0360107421875 C 413.3919677734375 337.0960388183594 418.8999938964844 342.60986328125 420.9554443359375 350.6308898925781" stroke-width="0.0" fill="rgb(4, 4, 12)" opacity="0.99025005"/>
    <path d="M 180.27731323242188 236.33932495117188 C 178.6600341796875 244.23733520507812 173.30458068847656 249.8573760986328 164.53392028808594 251.94647216796875 C 156.61343383789062 249.8926544189453 151.09747314453125 244.3907470703125 149.05697631835938 236.71591186523438 C 151.18035888671875 227.736083984375 156.7779541015625 222.28404235839844 164.53179931640625 220.25270080566406 C 172.58871459960938 222.79103088378906 177.9871826171875 228.48245239257812 180.27731323242188 236.33932495117188" stroke-width="0.0" fill="rgb(26, 34, 47)" opacity="1.0"/>
    <path d="M 545.1085205078125 431.5013732910156 C 543.3521728515625 438.09014892578125 538.6773071289062 444.56573486328125 531.5701904296875 446.70941162109375 C 523.8833618164062 443.6239929199219 518.5111083984375 438.0732727050781 516.2291259765625 430.39056396484375 C 517.338623046875 422.927001953125 523.0914916992188 418.1654052734375 530.5194702148438 416.8422546386719 C 537.7671508789062 418.7658996582031 543.190185546875 424.2503662109375 545.1085205078125 431.5013732910156" stroke-width="0.0" fill="rgb(109, 118, 137)" opacity="0.99002016"/>
    <path d="M 230.92872619628906 406.5051574707031 C 228.88357543945312 414.3809509277344 223.38558959960938 419.8952941894531 214.71124267578125 421.95257568359375 C 206.741455078125 419.8554382324219 201.64479064941406 414.0928039550781 200.4625701904297 406.08453369140625 C 202.1007843017578 398.5064697265625 207.46636962890625 392.9678649902344 215.6942596435547 390.2369079589844 C 223.3112030029297 392.1714172363281 228.8255615234375 397.6905212402344 230.92872619628906 406.5051574707031" stroke-width="0.0" fill="rgb(54, 63, 80)" opacity="1.0"/>
    <path d="M 182.89100646972656 489.7937927246094 C 180.8323516845703 497.23675537109375 175.0870361328125 502.3479309082031 166.12954711914062 504.8952941894531 C 158.60626220703125 502.9052734375 153.10281372070312 497.3902893066406 151.05126953125 489.4617919921875 C 153.13717651367188 480.6923522949219 158.7657012939453 475.3516845703125 166.67808532714844 473.7370910644531 C 174.49920654296875 476.01031494140625 179.9889678955078 481.5010070800781 182.89100646972656 489.7937927246094" stroke-width="0.0" fill="rgb(16, 18, 22)" opacity="0.99009275"/>
    <path d="M 212.82705688476562 333.46429443359375 C 210.34913635253906 341.73065185546875 204.801025390625 347.4988708496094 197.62142944335938 349.7708435058594 C 188.8672637939453 347.4027404785156 183.15325927734375 342.26483154296875 181.05081176757812 333.8095397949219 C 183.13369750976562 325.66009521484375 188.67413330078125 320.16876220703125 196.4922637939453 318.1448059082031 C 205.11264038085938 320.3490295410156 210.70758056640625 325.86328125 212.82705688476562 333.46429443359375" stroke-width="0.0" fill="rgb(54, 68, 83)" opacity="1.0"/>
    <path d="M 229.75164794921875 237.71250915527344 C 227.8625946044922 245.36566162109375 222.36607360839844 250.8633575439453 214.2436981201172 252.69290161132812 C 205.7084503173828 250.8317108154297 200.3323516845703 245.23971557617188 198.49252319335938 236.8620147705078 C 200.29275512695312 228.7284698486328 205.66693115234375 223.11964416503906 213.23855590820312 221.05752563476562 C 222.12266540527344 223.25750732421875 227.33177185058594 229.02085876464844 229.75164794921875 237.71250915527344" stroke-width="0.0" fill="rgb(18, 28, 39)" opacity="1.0"/>
    <path d="M 292.8457336425781 357.8421630859375 C 290.37451171875 365.1053161621094 283.8614807128906 370.2278747558594 276.635986328125 372.0979309082031 C 270.085693359375 370.2812194824219 263.89825439453125 365.097900390625 261.1610412597656 357.8546447753906 C 263.6552429199219 350.37774658203125 269.53802490234375 345.0924072265625 277.4038391113281 342.6000671386719 C 285.1983337402344 344.33880615234375 290.7452392578125 349.775634765625 292.8457336425781 357.8421630859375" stroke-width="0.0" fill="rgb(27, 34, 43)" opacity="0.99003345"/>
    <path d="M 423.8442077636719 522.1265869140625 C 420.0989990234375 529.6156005859375 414.6058654785156 535.0732421875 407.52850341796875 537.0331420898438 C 401.38818359375 535.0797729492188 395.8979797363281 529.6201782226562 392.09991455078125 522.0985107421875 C 394.09075927734375 514.59716796875 399.59710693359375 509.0906066894531 407.2576904296875 507.050048828125 C 416.2656555175781 509.1855163574219 421.8423156738281 514.7182006835938 423.8442077636719 522.1265869140625" stroke-width="0.0" fill="rgb(6, 7, 13)" opacity="0.99000907"/>
    <path d="M 365.27520751953125 389.7569885253906 C 362.97369384765625 397.4348449707031 357.4384460449219 403.0038146972656 349.29705810546875 405.85504150390625 C 341.6995544433594 403.8269348144531 336.2099609375 398.2863464355469 334.1561584472656 390.3670654296875 C 336.34906005859375 381.88702392578125 341.8379821777344 376.244873046875 350.2777404785156 374.0796203613281 C 358.22247314453125 376.20172119140625 363.5542907714844 381.86285400390625 365.27520751953125 389.7569885253906" stroke-width="0.0" fill="rgb(103, 115, 136)" opacity="1.0"/>
    <path d="M 191.99020385742188 393.0198669433594 C 190.00033569335938 400.4981689453125 184.495361328125 405.9895324707031 177.00579833984375 407.9958801269531 C 169.50596618652344 405.983154296875 164.01731872558594 400.493896484375 162.00869750976562 392.9932861328125 C 164.00173950195312 385.492919921875 169.49310302734375 380.0023193359375 176.99266052246094 378.0086669921875 C 184.492431640625 380.0185241699219 189.9788818359375 385.50830078125 191.99020385742188 393.0198669433594" stroke-width="0.0" fill="rgb(5, 8, 11)" opacity="0.99591076"/>
    <path d="M 209.21383666992188 143.17062377929688 C 207.3168182373047 150.7843017578125 201.76724243164062 156.26531982421875 194.1016387939453 158.28021240234375 C 186.50387573242188 156.10092163085938 181.2644805908203 150.37774658203125 179.49415588378906 142.79959106445312 C 181.38394165039062 135.86802673339844 186.87789916992188 130.4166717529297 194.259765625 128.38807678222656 C 201.5003662109375 130.00863647460938 206.98753356933594 135.5007781982422 209.21383666992188 143.17062377929688" stroke-width="0.0" fill="rgb(206, 198, 191)" opacity="0.99022216"/>
    <path d="M 312.0392150878906 268.8360595703125 C 310.1026916503906 275.6651611328125 304.7198486328125 281.2588806152344 297.6069641113281 283.49627685546875 C 290.7203063964844 281.77728271484375 285.3565673828125 276.2356872558594 283.5878601074219 269.1051940917969 C 285.43218994140625 261.8313293457031 290.7680969238281 256.234130859375 297.38934326171875 254.63372802734375 C 304.6484680175781 256.8473205566406 310.08868408203125 262.37347412109375 312.0392150878906 268.8360595703125" stroke-width="0.0" fill="rgb(8, 12, 15)" opacity="0.9900129"/>
    <path d="M 336.744384765625 572.2675170898438 C 333.8390197753906 580.6123657226562 328.8215026855469 586.5020751953125 321.3868103027344 588.7968139648438 C 313.4105529785156 586.2019653320312 308.00811767578125 580.523193359375 305.8023681640625 572.7373657226562 C 307.4441833496094 564.8679809570312 312.7930603027344 559.2233276367188 321.4602355957031 557.0908813476562 C 329.2969665527344 559.1652221679688 334.7961120605469 564.7200927734375 336.744384765625 572.2675170898438" stroke-width="0.0" fill="rgb(96, 105, 129)" opacity="1.0"/>
    <path d="M 369.8053894042969 545.86767578125 C 367.684814453125 554.0280151367188 361.8398742675781 559.14794921875 354.0655517578125 560.6650390625 C 346.5691223144531 558.8623046875 340.9184875488281 553.4964599609375 338.4515686035156 545.6511840820312 C 340.3231201171875 537.7929077148438 345.7608337402344 532.226318359375 354.7125549316406 530.1204833984375 C 362.37469482421875 532.1109008789062 367.8377990722656 537.6427612304688 369.8053894042969 545.86767578125" stroke-width="0.0" fill="rgb(91, 78, 30)" opacity="0.9904102"/>
    <path d="M 295.5201721191406 72.32792663574219 C 293.355712890625 79.626953125 287.426025390625 84.8280258178711 279.6148681640625 87.37227630615234 C 271.8949279785156 85.58901977539062 266.2665100097656 80.15904998779297 264.1033630371094 71.83680725097656 C 266.27215576171875 63.91309356689453 272.0899353027344 58.77688217163086 279.9866638183594 57.06292724609375 C 287.5000305175781 59.009613037109375 292.9908752441406 64.49984741210938 295.5201721191406 72.32792663574219" stroke-width="0.0" fill="rgb(138, 156, 173)" opacity="0.990547"/>
    <path d="M 306.88568115234375 57.521690368652344 C 304.7699890136719 65.19691467285156 299.1406555175781 70.6248550415039 291.4570007324219 71.90811920166016 C 283.6346435546875 69.76866149902344 278.0118408203125 64.430419921875 275.8606872558594 57.069374084472656 C 278.0888671875 49.643455505371094 283.7694091796875 44.449981689453125 290.92071533203125 42.80178451538086 C 298.1723327636719 44.523414611816406 304.5263671875 49.36915969848633 306.88568115234375 57.521690368652344" stroke-width="0.0" fill="rgb(77, 111, 134)" opacity="0.9901086"/>
  </g>
</svg>
