<?xml version="1.0" ?>
<svg xmlns="http://www.w3.org/2000/svg" version="1.1" width="600" height="600">
  <defs/>
  <g>
    <path d="M 619.0 119.00001525878906 C 616.3209228515625 129.0014190673828 609.0169677734375 136.37594604492188 598.1534423828125 139.92343139648438 C 588.1039428710938 137.23414611816406 580.763427734375 129.8970947265625 578.0415649414062 119.32393646240234 C 580.7665405273438 108.10811614990234 588.110595703125 100.772216796875 598.1547241210938 98.08708190917969 C 609.0003051757812 101.67835998535156 616.3204956054688 108.99996948242188 619.0 119.00001525878906" stroke-width="0.0" fill="rgb(255, 2, 2)" opacity="1.0"/>
    <path d="M 314.0 226.0 C 311.32049560546875 236.0 304.0 243.3205108642578 293.8832092285156 246.21397399902344 C 283.90679931640625 243.48048400878906 276.5715637207031 236.07579040527344 273.7750244140625 226.10238647460938 C 276.67950439453125 216.0 284.0 208.6794891357422 294.0 206.0 C 304.0 208.6794891357422 311.32049560546875 216.0 314.0 226.0" stroke-width="0.0" fill="rgb(255, 236, 135)" opacity="0.99107957"/>
    <path d="M 73.45252227783203 388.6086730957031 C 70.32051086425781 399.0 63.0 406.32049560546875 53.0 409.0 C 43.0 406.32049560546875 35.67949295043945 399.0 32.95518493652344 388.93743896484375 C 35.452125549316406 378.68426513671875 42.55489730834961 371.083740234375 53.06309509277344 368.1630554199219 C 63.61262130737305 371.0107421875 70.93998718261719 378.4040222167969 73.45252227783203 388.6086730957031" stroke-width="0.0" fill="rgb(246, 190, 106)" opacity="0.9975116"/>
    <path d="M 268.3924560546875 304.6104736328125 C 265.90203857421875 314.7198486328125 258.8047180175781 322.1478271484375 248.92816162109375 324.9065246582031 C 238.98255920410156 322.3276062011719 231.55934143066406 315.05145263671875 228.43414306640625 304.6866455078125 C 231.10296630859375 294.45599365234375 238.46800231933594 287.14190673828125 248.7198486328125 284.6817626953125 C 259.1557312011719 287.58282470703125 266.64337158203125 294.77227783203125 268.3924560546875 304.6104736328125" stroke-width="0.0" fill="rgb(255, 237, 135)" opacity="0.99020165"/>
    <path d="M 425.0857238769531 91.7945556640625 C 423.2279052734375 100.97085571289062 415.9974670410156 108.31975555419922 405.9962158203125 111.00140380859375 C 395.89849853515625 108.36056518554688 388.1362609863281 101.30224609375 385.06219482421875 90.19287872314453 C 387.7686462402344 80.12822723388672 395.1919860839844 73.11395263671875 405.25634765625 71.94788360595703 C 415.1379089355469 74.56724548339844 422.4372863769531 81.86026000976562 425.0857238769531 91.7945556640625" stroke-width="0.0" fill="rgb(141, 42, 39)" opacity="0.9900281"/>
    <path d="M 187.8084716796875 531.6265258789062 C 184.96202087402344 541.4485473632812 177.26036071777344 548.4688110351562 166.9597625732422 551.0501098632812 C 156.55441284179688 548.6116943359375 148.89149475097656 541.6365966796875 146.0778350830078 531.4295043945312 C 148.84266662597656 520.1874389648438 156.19520568847656 512.8655395507812 166.37509155273438 510.325439453125 C 176.9999237060547 513.6795043945312 184.32083129882812 521.0 187.8084716796875 531.6265258789062" stroke-width="0.0" fill="rgb(119, 114, 96)" opacity="1.0"/>
    <path d="M 144.94088745117188 305.63134765625 C 142.213623046875 315.8723449707031 134.876220703125 323.2224426269531 124.66644287109375 325.94573974609375 C 113.26551055908203 323.149169921875 106.1523208618164 315.6278076171875 103.84098052978516 305.20745849609375 C 106.67948913574219 295.0 114.0 287.67950439453125 124.01456451416016 284.993896484375 C 134.24085998535156 287.5653381347656 142.03651428222656 294.5022888183594 144.94088745117188 305.63134765625" stroke-width="0.0" fill="rgb(59, 21, 20)" opacity="0.9900137"/>
    <path d="M 424.7653503417969 340.125732421875 C 421.8671875 350.4088134765625 414.24737548828125 357.2789001464844 404.10894775390625 359.4749755859375 C 394.31353759765625 356.94189453125 387.1061706542969 349.669921875 384.6781921386719 339.951416015625 C 387.11199951171875 330.3008117675781 394.2013854980469 322.81158447265625 404.3880920410156 319.5660705566406 C 414.57708740234375 322.0777587890625 421.93914794921875 329.4176025390625 424.7653503417969 340.125732421875" stroke-width="0.0" fill="rgb(255, 236, 134)" opacity="0.9900458"/>
    <path d="M 372.6979064941406 190.82418823242188 C 369.5624694824219 201.10671997070312 362.0325622558594 208.33311462402344 351.5675354003906 211.56253051757812 C 341.4351501464844 208.9290008544922 334.06732177734375 201.56602478027344 331.23443603515625 191.02696228027344 C 334.08990478515625 180.462158203125 341.47320556640625 173.12469482421875 351.6805114746094 170.58973693847656 C 362.2235107421875 173.53286743164062 369.79229736328125 180.66749572753906 372.6979064941406 190.82418823242188" stroke-width="0.0" fill="rgb(255, 236, 133)" opacity="0.9914838"/>
    <path d="M 472.0 268.0 C 469.32049560546875 278.0 462.0 285.32049560546875 452.1717224121094 287.85748291015625 C 442.5155944824219 284.87933349609375 435.37603759765625 277.3990478515625 431.0937805175781 267.12640380859375 C 433.78326416015625 257.1490173339844 441.1940612792969 249.91285705566406 451.51959228515625 247.55331420898438 C 462.0 250.6794891357422 469.32049560546875 258.0 472.0 268.0" stroke-width="0.0" fill="rgb(139, 37, 40)" opacity="0.9901816"/>
    <path d="M 92.80351257324219 486.13787841796875 C 89.96866607666016 496.4945983886719 82.3496322631836 503.5628356933594 72.06341552734375 506.0438537597656 C 62.0 503.32049560546875 54.67949295043945 496.0 51.949283599853516 485.96026611328125 C 54.574893951416016 475.87701416015625 61.73813247680664 468.207763671875 72.18197631835938 465.1563720703125 C 82.69271087646484 467.93255615234375 90.0362777709961 475.31976318359375 92.80351257324219 486.13787841796875" stroke-width="0.0" fill="rgb(237, 204, 176)" opacity="1.0"/>
    <path d="M 65.09949493408203 400.1241149902344 C 62.6756477355957 410.4303894042969 55.52164077758789 417.9494934082031 44.37460708618164 420.8747863769531 C 34.27826690673828 418.1355285644531 27.170166015625 410.6164855957031 24.84680938720703 400.1945495605469 C 27.67949104309082 390.0 35.0 382.67950439453125 44.999977111816406 380.0000305175781 C 54.99995422363281 382.6795654296875 62.320472717285156 390.0000305175781 65.09949493408203 400.1241149902344" stroke-width="0.0" fill="rgb(243, 187, 106)" opacity="1.0"/>
    <path d="M 503.9033508300781 125.51561737060547 C 501.0571594238281 136.66920471191406 493.6456298828125 143.99647521972656 482.6239318847656 146.8347625732422 C 472.37481689453125 144.04226684570312 465.2101745605469 136.53915405273438 462.8358459472656 126.19197082519531 C 465.67950439453125 116.0 473.0 108.67948913574219 483.05572509765625 105.96778106689453 C 493.3819274902344 108.43281555175781 501.05291748046875 115.43309783935547 503.9033508300781 125.51561737060547" stroke-width="0.0" fill="rgb(244, 187, 108)" opacity="1.0"/>
    <path d="M 27.952878952026367 520.6741943359375 C 25.231884002685547 530.890380859375 17.88748550415039 538.2250366210938 7.5927815437316895 540.9512939453125 C -3.6423425674438477 538.1177368164062 -10.597427368164062 530.4385986328125 -13.030482292175293 520.0579833984375 C -10.320508003234863 510.0 -3.0 502.67950439453125 7.186105728149414 499.8704833984375 C 17.63664436340332 502.1627197265625 25.167495727539062 509.2469787597656 27.952878952026367 520.6741943359375" stroke-width="0.0" fill="rgb(255, 0, 2)" opacity="1.0"/>
    <path d="M 67.09996032714844 495.2089538574219 C 64.82218933105469 505.62237548828125 57.742977142333984 513.1615600585938 47.694313049316406 515.9313354492188 C 36.75553512573242 512.8009643554688 29.65353012084961 505.06915283203125 26.999061584472656 495.0018615722656 C 29.675973892211914 484.9908447265625 36.96974563598633 477.6039123535156 46.574527740478516 475.4685974121094 C 56.598079681396484 478.2143859863281 64.12738800048828 485.2878112792969 67.09996032714844 495.2089538574219" stroke-width="0.0" fill="rgb(252, 5, 5)" opacity="0.99032015"/>
    <path d="M 322.6622619628906 199.16517639160156 C 318.8192138671875 209.61341857910156 311.5765686035156 216.74346923828125 301.4657287597656 219.2713623046875 C 292.0 217.3205108642578 284.67950439453125 210.0 282.5683898925781 200.55868530273438 C 285.47442626953125 190.80885314941406 292.8349609375 183.5498809814453 302.8902587890625 179.22900390625 C 312.8825988769531 181.7787322998047 320.2222900390625 189.11683654785156 322.6622619628906 199.16517639160156" stroke-width="0.0" fill="rgb(143, 41, 41)" opacity="0.9900403"/>
    <path d="M 191.0220184326172 576.0399780273438 C 188.51596069335938 586.3213500976562 181.5074462890625 594.0065307617188 170.3241729736328 596.9282836914062 C 160.14584350585938 594.2008056640625 152.80577087402344 586.8513793945312 150.0625457763672 576.3734130859375 C 152.9231414794922 565.440673828125 160.7073211669922 558.5867919921875 171.0163116455078 556.0342407226562 C 181.0009765625 558.6781005859375 188.32101440429688 565.999267578125 191.0220184326172 576.0399780273438" stroke-width="0.0" fill="rgb(140, 112, 101)" opacity="1.0"/>
    <path d="M 571.4312744140625 214.3836212158203 C 568.9454956054688 224.61575317382812 561.6292114257812 231.98609924316406 550.8707885742188 234.7437744140625 C 540.2597045898438 232.05606079101562 532.8463745117188 224.77735900878906 530.1649780273438 214.73619079589844 C 533.6795043945312 204.0 541.0 196.6794891357422 551.0 194.0 C 561.0 196.6794891357422 568.3204956054688 204.0 571.4312744140625 214.3836212158203" stroke-width="0.0" fill="rgb(247, 210, 143)" opacity="1.0"/>
    <path d="M 200.45126342773438 512.606201171875 C 199.0004119873047 522.6884155273438 191.70285034179688 530.0455322265625 181.6545867919922 531.3016357421875 C 171.59848022460938 528.6724243164062 164.32662963867188 521.4016723632812 161.34591674804688 511.421875 C 163.82652282714844 502.26068115234375 171.29005432128906 494.9609680175781 181.1111297607422 492.1159973144531 C 190.86505126953125 494.7378234863281 197.85366821289062 502.280029296875 200.45126342773438 512.606201171875" stroke-width="0.0" fill="rgb(240, 193, 127)" opacity="0.9900368"/>
    <path d="M 448.7378845214844 191.3239288330078 C 447.087646484375 201.72763061523438 439.7194519042969 209.06732177734375 429.5404052734375 211.76231384277344 C 418.4184265136719 208.9053192138672 411.02117919921875 201.60557556152344 408.2220764160156 191.2738037109375 C 411.0890808105469 180.4329071044922 418.4217224121094 173.057373046875 429.14697265625 170.25180053710938 C 439.5889587402344 173.04713439941406 446.970947265625 180.4042205810547 448.7378845214844 191.3239288330078" stroke-width="0.0" fill="rgb(252, 232, 129)" opacity="1.0"/>
    <path d="M 426.129150390625 96.67426300048828 C 425.0680236816406 106.76216125488281 417.813232421875 114.19477081298828 406.71112060546875 116.955810546875 C 396.115966796875 114.22625732421875 388.7769470214844 106.88272094726562 386.0984191894531 96.83153533935547 C 389.6662902832031 85.98872375488281 396.9830322265625 78.64727783203125 407.0076599121094 75.86891174316406 C 416.9543151855469 78.65057373046875 423.82763671875 86.24669647216797 426.129150390625 96.67426300048828" stroke-width="0.0" fill="rgb(141, 42, 41)" opacity="0.9905155"/>
    <path d="M 395.9234924316406 459.6961669921875 C 393.189208984375 469.8517761230469 385.8616638183594 477.2124328613281 375.6822814941406 479.940673828125 C 364.4534606933594 477.05596923828125 357.5041198730469 469.321533203125 354.9866638183594 459.02874755859375 C 357.6803894042969 449.0029602050781 365.03607177734375 441.79290771484375 374.1856384277344 439.93072509765625 C 384.1834716796875 442.5578918457031 392.02935791015625 449.712646484375 395.9234924316406 459.6961669921875" stroke-width="0.0" fill="rgb(143, 41, 40)" opacity="0.9900811"/>
    <path d="M 413.0804443359375 275.89605712890625 C 410.32049560546875 286.0 403.0 293.32049560546875 392.81964111328125 296.3208312988281 C 382.8770751953125 293.5472412109375 375.6487731933594 286.06085205078125 372.75921630859375 275.77435302734375 C 375.20947265625 265.51556396484375 382.4734802246094 258.08160400390625 392.9059143066406 255.24725341796875 C 403.4795837402344 258.0961608886719 410.6363525390625 265.6078186035156 413.0804443359375 275.89605712890625" stroke-width="0.0" fill="rgb(255, 236, 132)" opacity="0.9933391"/>
    <path d="M 390.6519775390625 214.8756103515625 C 387.9372253417969 225.60450744628906 380.6208801269531 232.98741149902344 370.2807922363281 235.7815399169922 C 359.4363708496094 232.92431640625 352.06683349609375 225.56707763671875 349.3431701660156 215.34217834472656 C 352.55279541015625 204.94760131835938 359.9838562011719 197.6730499267578 370.35577392578125 194.54473876953125 C 380.5447998046875 197.11749267578125 387.9336242675781 204.43746948242188 390.6519775390625 214.8756103515625" stroke-width="0.0" fill="rgb(255, 236, 131)" opacity="0.9926569"/>
    <path d="M 591.9586181640625 564.0281982421875 C 589.2283325195312 574.8860473632812 581.8851318359375 582.226318359375 571.4529418945312 584.9570922851562 C 560.2396240234375 582.1776123046875 553.1705322265625 574.6348266601562 550.8750610351562 564.1708984375 C 553.600830078125 553.82861328125 560.609619140625 546.0604248046875 571.8123168945312 543.0540161132812 C 581.8928833007812 545.7665405273438 589.2315063476562 553.10791015625 591.9586181640625 564.0281982421875" stroke-width="0.0" fill="rgb(255, 1, 2)" opacity="1.0"/>
    <path d="M 134.7129669189453 282.4532775878906 C 132.1425018310547 292.8270568847656 124.84873962402344 300.202880859375 114.79061889648438 302.9227294921875 C 103.8667984008789 299.62982177734375 96.66810607910156 292.0318298339844 93.57809448242188 281.6488342285156 C 96.1048355102539 271.4437561035156 103.42837524414062 264.0594177246094 114.52591705322266 261.18218994140625 C 124.77401733398438 263.8714904785156 132.04019165039062 271.2538757324219 134.7129669189453 282.4532775878906" stroke-width="0.0" fill="rgb(252, 231, 128)" opacity="1.0"/>
    <path d="M 535.2150268554688 428.3493957519531 C 533.5679321289062 438.31390380859375 526.3662719726562 445.7414855957031 516.805419921875 447.0965576171875 C 506.84503173828125 444.4486999511719 499.5484313964844 437.15618896484375 496.9051818847656 427.2647705078125 C 499.1828308105469 418.3450622558594 506.1946105957031 410.7279968261719 516.76318359375 407.2729187011719 C 526.7694091796875 409.842041015625 533.77294921875 417.3254699707031 535.2150268554688 428.3493957519531" stroke-width="0.0" fill="rgb(252, 92, 3)" opacity="0.9900087"/>
    <path d="M 619.0 499.0000305175781 C 616.3204956054688 509.00006103515625 609.0007934570312 516.3232421875 598.1578369140625 519.9100952148438 C 588.1204833984375 517.2255859375 580.8292236328125 509.8611755371094 579.8845825195312 499.78448486328125 C 582.4830322265625 489.765625 589.7721557617188 482.4977111816406 599.6978759765625 479.89984130859375 C 608.9637451171875 481.793212890625 616.319580078125 489.0030517578125 619.0 499.0000305175781" stroke-width="0.0" fill="rgb(243, 3, 5)" opacity="0.9900173"/>
    <path d="M 576.1357421875 560.81640625 C 573.41064453125 571.1926879882812 566.4212036132812 578.9677734375 555.2598876953125 581.9405517578125 C 545.1144409179688 579.2252197265625 537.7734985351562 571.8861083984375 535.041748046875 560.5411987304688 C 537.7591552734375 550.09765625 545.0997924804688 542.7643432617188 555.475341796875 540.0444946289062 C 566.7667846679688 542.8209228515625 573.8489990234375 550.350341796875 576.1357421875 560.81640625" stroke-width="0.0" fill="rgb(255, 0, 2)" opacity="1.0"/>
    <path d="M 96.53019714355469 406.9530029296875 C 93.67157745361328 417.4383239746094 86.53840637207031 424.9705505371094 75.70240020751953 427.8314514160156 C 65.34783172607422 425.0459289550781 58.10920715332031 417.59881591796875 55.69330978393555 407.2991027832031 C 58.67949295043945 397.0 66.0 389.67950439453125 75.86264038085938 387.12548828125 C 85.62805938720703 390.0247802734375 93.00615692138672 397.3671569824219 96.53019714355469 406.9530029296875" stroke-width="0.0" fill="rgb(248, 191, 110)" opacity="0.9905543"/>
    <path d="M 595.9038696289062 203.64820861816406 C 593.1558837890625 213.7660675048828 585.7100830078125 221.0134735107422 575.0311279296875 223.7938232421875 C 564.6922607421875 220.80648803710938 557.5559692382812 213.1776885986328 554.9661254882812 203.03518676757812 C 557.6795043945312 193.0 565.0 185.6794891357422 575.0017700195312 182.9993896484375 C 585.0598754882812 185.65753173828125 592.7603759765625 192.78399658203125 595.9038696289062 203.64820861816406" stroke-width="0.0" fill="rgb(243, 189, 108)" opacity="1.0"/>
    <path d="M 113.42057037353516 324.6439208984375 C 112.03936004638672 334.68597412109375 104.68302154541016 342.0319519042969 94.3794937133789 344.1394348144531 C 83.28569030761719 342.0357666015625 75.88977813720703 334.7407531738281 73.21985626220703 324.6944274902344 C 76.68915557861328 314.0027160644531 84.00009155273438 306.6795349121094 93.754150390625 304.20355224609375 C 103.38629913330078 307.22998046875 110.61436462402344 314.6609802246094 113.42057037353516 324.6439208984375" stroke-width="0.0" fill="rgb(249, 231, 134)" opacity="1.0"/>
    <path d="M 257.572998046875 325.5787353515625 C 254.8251953125 335.5811462402344 247.58200073242188 342.82666015625 237.66433715820312 345.337158203125 C 227.56503295898438 343.6485900878906 220.11465454101562 336.50054931640625 217.27279663085938 325.8230285644531 C 220.0745086669922 315.4666748046875 227.50816345214844 308.1982116699219 237.75611877441406 305.7309875488281 C 248.01075744628906 308.6748352050781 255.39991760253906 315.96734619140625 257.572998046875 325.5787353515625" stroke-width="0.0" fill="rgb(255, 237, 136)" opacity="0.99006706"/>
    <path d="M 184.07691955566406 246.16944885253906 C 181.44200134277344 256.1685791015625 174.23333740234375 263.7211608886719 164.24356079101562 267.9278869628906 C 154.12644958496094 265.2142028808594 146.78582763671875 257.87347412109375 144.0581512451172 247.57627868652344 C 146.90823364257812 236.39466857910156 154.60064697265625 229.43170166015625 165.0743408203125 226.90011596679688 C 175.50680541992188 229.291748046875 183.01214599609375 236.397705078125 184.07691955566406 246.16944885253906" stroke-width="0.0" fill="rgb(142, 41, 40)" opacity="0.9900158"/>
    <path d="M 113.72010040283203 296.6216125488281 C 111.0884780883789 306.6909484863281 103.61405181884766 313.8517761230469 93.21951293945312 316.1744384765625 C 82.9552993774414 313.33740234375 75.34493255615234 306.15411376953125 72.10199737548828 295.2947082519531 C 74.87954711914062 285.3192138671875 82.4734115600586 278.3592834472656 93.1822280883789 275.68646240234375 C 103.02566528320312 278.60516357421875 110.32185363769531 285.99542236328125 113.72010040283203 296.6216125488281" stroke-width="0.0" fill="rgb(252, 230, 127)" opacity="1.0"/>
    <path d="M 616.0007934570312 340.99932861328125 C 613.3279418945312 351.0194091796875 606.0676879882812 358.48468017578125 595.5624389648438 361.7300109863281 C 585.3878173828125 358.98583984375 578.0924682617188 351.58587646484375 575.4955444335938 341.2008361816406 C 578.1989135742188 330.490966796875 585.4337158203125 323.03033447265625 595.7198486328125 320.20660400390625 C 606.1446533203125 323.3614196777344 613.336181640625 330.9583435058594 616.0007934570312 340.99932861328125" stroke-width="0.0" fill="rgb(249, 192, 107)" opacity="0.9902415"/>
    <path d="M 460.05029296875 4.218808174133301 C 457.41326904296875 14.113627433776855 450.1229248046875 21.439311981201172 440.112060546875 25.911645889282227 C 430.108154296875 23.232616424560547 422.77142333984375 15.890178680419922 420.0556945800781 5.725404739379883 C 422.98748779296875 -5.467358589172363 430.7829895019531 -12.421836853027344 440.9778137207031 -15.001378059387207 C 450.8332214355469 -12.244510650634766 457.703369140625 -4.613399982452393 460.05029296875 4.218808174133301" stroke-width="0.0" fill="rgb(255, 5, 8)" opacity="0.9900106"/>
    <path d="M 195.17665100097656 181.56320190429688 C 192.65435791015625 191.39820861816406 185.4276580810547 198.73780822753906 176.01036071777344 201.3858642578125 C 166.5163116455078 198.73199462890625 158.249755859375 191.6935272216797 155.22642517089844 182.2730255126953 C 157.95591735839844 171.27938842773438 165.26690673828125 163.9181671142578 175.43040466308594 161.35794067382812 C 185.98614501953125 164.6846160888672 193.15756225585938 172.06228637695312 195.17665100097656 181.56320190429688" stroke-width="0.0" fill="rgb(232, 72, 8)" opacity="0.99001163"/>
    <path d="M 276.68328857421875 280.3341064453125 C 273.9259338378906 290.557861328125 266.536376953125 297.8587951660156 256.2821960449219 300.31719970703125 C 245.84495544433594 297.4075622558594 238.2145233154297 290.2881164550781 235.20494079589844 279.8918151855469 C 238.0833740234375 269.4700012207031 245.4993133544922 262.1705017089844 255.72323608398438 259.66204833984375 C 266.1102294921875 262.6156921386719 273.6295471191406 269.8104248046875 276.68328857421875 280.3341064453125" stroke-width="0.0" fill="rgb(255, 237, 132)" opacity="0.9921989"/>
    <path d="M 152.71395874023438 407.98944091796875 C 149.9161376953125 418.5963439941406 142.6356964111328 426.02520751953125 132.30130004882812 428.77789306640625 C 121.75291442871094 425.7461853027344 114.62142944335938 418.1183166503906 111.59141540527344 407.6692199707031 C 114.1155776977539 397.4295349121094 121.34584045410156 389.9123840332031 131.43582153320312 387.1012268066406 C 142.6082000732422 389.9716796875 149.90037536621094 397.4427490234375 152.71395874023438 407.98944091796875" stroke-width="0.0" fill="rgb(252, 231, 131)" opacity="1.0"/>
    <path d="M 188.6433563232422 546.4110717773438 C 184.78164672851562 556.4615478515625 177.427978515625 563.6813354492188 168.3592987060547 566.1475219726562 C 158.7406463623047 563.5576171875 151.48487854003906 556.2424926757812 148.8800048828125 546.3233032226562 C 150.85964965820312 537.1216430664062 158.13394165039062 529.8873291015625 168.09808349609375 527.41259765625 C 178.1704559326172 529.6572875976562 185.88259887695312 536.637451171875 188.6433563232422 546.4110717773438" stroke-width="0.0" fill="rgb(89, 74, 59)" opacity="0.99001217"/>
    <path d="M 470.96343994140625 105.06420135498047 C 468.32049560546875 115.0 461.0 122.32051086425781 451.0 125.0 C 441.0 122.32051086425781 433.67950439453125 115.0 431.62872314453125 105.6023941040039 C 434.49359130859375 95.81961059570312 441.84271240234375 88.5577163696289 451.5960998535156 85.946044921875 C 460.3936462402344 88.44125366210938 468.0422058105469 95.42289733886719 470.96343994140625 105.06420135498047" stroke-width="0.0" fill="rgb(93, 73, 46)" opacity="0.9900096"/>
    <path d="M 560.0462036132812 506.52227783203125 C 557.4288330078125 516.1260986328125 550.12109375 523.417236328125 540.4594116210938 526.0433349609375 C 531.644775390625 523.4972534179688 522.9994506835938 517.1370239257812 520.2998046875 507.66705322265625 C 523.3838500976562 496.5970153808594 530.505859375 489.08978271484375 540.9447631835938 486.3529357910156 C 551.2839965820312 489.1227722167969 557.5424194335938 497.49737548828125 560.0462036132812 506.52227783203125" stroke-width="0.0" fill="rgb(23, 21, 15)" opacity="0.9900039"/>
    <path d="M 407.81671142578125 172.49099731445312 C 404.9141540527344 183.5476531982422 397.5514221191406 190.92425537109375 386.979248046875 193.74839782714844 C 376.3992004394531 190.96768188476562 369.09344482421875 183.58045959472656 366.61383056640625 173.34303283691406 C 369.67950439453125 163.0 377.0 155.6794891357422 387.63616943359375 152.2830047607422 C 397.7737121582031 154.87899780273438 405.1181335449219 162.22743225097656 407.81671142578125 172.49099731445312" stroke-width="0.0" fill="rgb(252, 232, 129)" opacity="1.0"/>
    <path d="M 204.87625122070312 482.78521728515625 C 202.018798828125 492.7274475097656 194.73130798339844 500.0275573730469 185.03823852539062 502.51165771484375 C 175.3091278076172 499.97454833984375 167.8325958251953 492.739990234375 164.2525634765625 482.5345153808594 C 167.00697326660156 472.36236572265625 174.3542022705078 464.9862365722656 185.03729248046875 462.18408203125 C 195.51983642578125 465.0368957519531 202.63131713867188 472.59228515625 204.87625122070312 482.78521728515625" stroke-width="0.0" fill="rgb(248, 192, 112)" opacity="0.9901194"/>
    <path d="M 607.353515625 251.7226104736328 C 604.6453247070312 262.4017333984375 597.501220703125 269.9394836425781 587.0054321289062 272.80645751953125 C 576.3878173828125 269.9806213378906 569.031494140625 262.6077575683594 566.2120971679688 251.82791137695312 C 568.9889526367188 241.34840393066406 576.3499755859375 233.9929656982422 587.2633666992188 231.19813537597656 C 597.7046508789062 233.92727661132812 604.9518432617188 241.33380126953125 607.353515625 251.7226104736328" stroke-width="0.0" fill="rgb(243, 186, 103)" opacity="1.0"/>
    <path d="M 415.7087097167969 313.2099609375 C 412.8274841308594 323.36376953125 405.2475280761719 330.4840087890625 395.2474365234375 332.7274169921875 C 385.3773193359375 329.9125061035156 378.1407165527344 322.6051940917969 375.39361572265625 312.557861328125 C 377.1758728027344 302.4881286621094 384.469970703125 295.11627197265625 394.6878967285156 292.56719970703125 C 405.2718811035156 295.46160888671875 412.7644958496094 302.6554870605469 415.7087097167969 313.2099609375" stroke-width="0.0" fill="rgb(255, 235, 134)" opacity="0.99016404"/>
    <path d="M 191.93406677246094 218.69540405273438 C 189.1807403564453 228.78871154785156 181.70994567871094 235.95492553710938 171.304931640625 238.25497436523438 C 161.0 235.3205108642578 153.67947387695312 228.0 150.08412170410156 217.1914825439453 C 152.89547729492188 207.59950256347656 161.5271453857422 201.40122985839844 171.35203552246094 198.86572265625 C 180.36050415039062 201.38917541503906 188.632568359375 208.4871063232422 191.93406677246094 218.69540405273438" stroke-width="0.0" fill="rgb(142, 39, 40)" opacity="0.9900335"/>
    <path d="M 499.71380615234375 88.32268524169922 C 496.32049560546875 99.0 489.0 106.32051086425781 479.0880126953125 108.9326171875 C 469.3599853515625 106.0390396118164 462.2635498046875 98.538330078125 459.93280029296875 89.82637786865234 C 462.58953857421875 79.88980865478516 469.887939453125 72.58522033691406 479.9185485839844 69.66841125488281 C 489.8739013671875 70.77594757080078 497.1739196777344 78.14472961425781 499.71380615234375 88.32268524169922" stroke-width="0.0" fill="rgb(255, 5, 6)" opacity="0.9900069"/>
    <path d="M 142.82339477539062 222.5583038330078 C 140.05999755859375 233.71263122558594 132.72213745117188 241.08248901367188 122.58073425292969 243.65911865234375 C 112.0 240.3205108642578 104.67948913574219 233.0 101.6837387084961 222.65310668945312 C 104.02776336669922 212.30078125 111.24876403808594 204.87054443359375 122.25724029541016 202.1397705078125 C 132.71665954589844 204.88372802734375 140.05128479003906 212.31411743164062 142.82339477539062 222.5583038330078" stroke-width="0.0" fill="rgb(252, 231, 128)" opacity="1.0"/>
    <path d="M 459.0000915527344 127.00022888183594 C 456.3230895996094 137.00706481933594 449.0262145996094 144.38902282714844 439.0849304199219 147.20242309570312 C 428.9947204589844 144.3222198486328 421.58428955078125 137.03260803222656 418.1909484863281 126.52159881591797 C 421.309814453125 116.83035278320312 428.95574951171875 109.66303253173828 438.9985656738281 106.99947357177734 C 449.0 109.67948913574219 456.32049560546875 117.0 459.0000915527344 127.00022888183594" stroke-width="0.0" fill="rgb(140, 36, 37)" opacity="1.0"/>
    <path d="M 262.0964050292969 198.8560791015625 C 259.3133850097656 208.97927856445312 251.89450073242188 216.0564422607422 242.68609619140625 218.09274291992188 C 232.78724670410156 215.49407958984375 225.5037384033203 208.21368408203125 222.9193115234375 198.43460083007812 C 225.2155303955078 188.58815002441406 231.27529907226562 180.8343048095703 241.99269104003906 178.05743408203125 C 252.71749877929688 180.85055541992188 259.76837158203125 188.42117309570312 262.0964050292969 198.8560791015625" stroke-width="0.0" fill="rgb(106, 38, 36)" opacity="0.99001306"/>
    <path d="M 594.8445434570312 197.2364501953125 C 591.3182983398438 207.9969940185547 583.9972534179688 215.31874084472656 573.9995727539062 217.99923706054688 C 563.999755859375 215.32061767578125 556.6791381835938 208.00030517578125 553.997802734375 197.99533081054688 C 556.638671875 187.90455627441406 563.7520141601562 180.22332763671875 574.7474365234375 177.1328582763672 C 584.859375 179.79742431640625 592.1957397460938 187.1433868408203 594.8445434570312 197.2364501953125" stroke-width="0.0" fill="rgb(243, 189, 109)" opacity="1.0"/>
    <path d="M 536.9578247070312 575.5225219726562 C 534.2342529296875 585.8930053710938 526.8905029296875 593.228271484375 515.9732666015625 595.9545288085938 C 505.0997009277344 593.2366333007812 497.7625427246094 585.9005737304688 495.04608154296875 575.7785034179688 C 498.65008544921875 565.6847534179688 506.7891540527344 558.52490234375 516.8539428710938 555.8486328125 C 526.8540649414062 556.8162841796875 534.2160034179688 564.1333618164062 536.9578247070312 575.5225219726562" stroke-width="0.0" fill="rgb(250, 5, 6)" opacity="0.9900836"/>
    <path d="M 107.26888275146484 311.99957275390625 C 105.37366485595703 322.0548400878906 98.05589294433594 329.37890625 87.8377456665039 332.1661376953125 C 77.43903350830078 329.7891540527344 69.90434265136719 322.6690368652344 67.11351776123047 312.3728332519531 C 69.93119049072266 301.3502502441406 77.4472427368164 294.217529296875 87.82730865478516 291.8639221191406 C 98.0475082397461 294.6602478027344 105.55665588378906 301.8828430175781 107.26888275146484 311.99957275390625" stroke-width="0.0" fill="rgb(252, 229, 128)" opacity="1.0"/>
    <path d="M 307.53826904296875 209.5502166748047 C 304.6116027832031 219.27407836914062 297.234375 226.49977111816406 287.2887268066406 229.10195922851562 C 278.11328125 227.05860900878906 270.69158935546875 219.96861267089844 268.00067138671875 209.99942016601562 C 270.68780517578125 200.023681640625 278.10272216796875 192.92999267578125 288.34454345703125 190.62167358398438 C 297.9966735839844 192.68922424316406 305.32421875 199.99952697753906 307.53826904296875 209.5502166748047" stroke-width="0.0" fill="rgb(142, 40, 40)" opacity="0.9900822"/>
    <path d="M 223.0 555.0 C 220.3205108642578 565.0 213.0 572.3204956054688 202.99935913085938 575.000244140625 C 192.97994995117188 572.327880859375 185.48878479003906 565.0774536132812 182.38400268554688 554.8544311523438 C 185.01788330078125 544.312255859375 192.26318359375 536.8781127929688 202.27415466308594 534.1528930664062 C 213.0 537.6795043945312 220.3205108642578 545.0 223.0 555.0" stroke-width="0.0" fill="rgb(121, 114, 98)" opacity="0.994081"/>
    <path d="M 208.182861328125 577.23583984375 C 205.87435913085938 587.6342163085938 198.71888732910156 595.1232299804688 188.52308654785156 597.8867797851562 C 178.0798797607422 594.9059448242188 171.4093780517578 586.4400024414062 168.85711669921875 576.2530517578125 C 170.00755310058594 566.3515014648438 177.34295654296875 558.983154296875 187.46664428710938 556.337158203125 C 198.0 559.6795043945312 205.3205108642578 567.0 208.182861328125 577.23583984375" stroke-width="0.0" fill="rgb(238, 202, 170)" opacity="0.99013156"/>
    <path d="M 573.937255859375 112.66886901855469 C 571.21533203125 122.87368774414062 563.8731079101562 130.21401977539062 552.4363403320312 132.95236206054688 C 542.1033325195312 130.2351837158203 534.7664794921875 122.8959732055664 532.0509033203125 112.73434448242188 C 534.8959350585938 101.36748504638672 542.5551147460938 94.3863525390625 552.9609375 91.94791412353516 C 563.3157958984375 94.5030746459961 571.0457763671875 101.46466064453125 573.937255859375 112.66886901855469" stroke-width="0.0" fill="rgb(255, 1, 1)" opacity="1.0"/>
    <path d="M 346.78985595703125 255.35043334960938 C 343.9627990722656 265.4879455566406 336.29632568359375 272.286376953125 326.21112060546875 274.3155822753906 C 316.4434814453125 271.8074035644531 309.0940856933594 264.5888977050781 306.2431640625 254.7920684814453 C 308.67950439453125 245.0 316.0 237.6794891357422 326.16192626953125 234.8262939453125 C 336.3854675292969 237.31344604492188 343.8482971191406 244.56082153320312 346.78985595703125 255.35043334960938" stroke-width="0.0" fill="rgb(252, 233, 144)" opacity="0.990116"/>
    <path d="M 231.0565643310547 477.9843444824219 C 228.44911193847656 487.1544494628906 221.1531219482422 494.4460144042969 211.6354217529297 497.05487060546875 C 202.7526397705078 494.4949035644531 195.37554931640625 487.2998046875 192.78123474121094 477.5787658691406 C 194.35781860351562 467.4188537597656 201.2848358154297 459.8664245605469 211.159423828125 457.2362060546875 C 221.16871643066406 461.51507568359375 228.4447479248047 468.8459167480469 231.0565643310547 477.9843444824219" stroke-width="0.0" fill="rgb(252, 111, 3)" opacity="0.99000835"/>
    <path d="M 86.29875183105469 494.272705078125 C 83.86225891113281 504.599365234375 76.6973876953125 512.1198120117188 66.59941101074219 514.8948364257812 C 56.192962646484375 511.6961669921875 49.07891845703125 503.6265563964844 45.932369232177734 493.6626892089844 C 48.20583724975586 483.5120544433594 55.49769592285156 476.1587219238281 65.71946716308594 473.7013854980469 C 75.99822998046875 476.6812438964844 83.31814575195312 484.001953125 86.29875183105469 494.272705078125" stroke-width="0.0" fill="rgb(238, 204, 175)" opacity="0.9901368"/>
    <path d="M 389.260009765625 285.22906494140625 C 386.7679748535156 295.4329833984375 379.4315490722656 302.7620544433594 369.42999267578125 304.4309997558594 C 359.34771728515625 301.8953857421875 352.0884704589844 294.65679931640625 349.2059326171875 284.5362548828125 C 351.0325622558594 274.3305969238281 358.3059997558594 266.9520568847656 368.5220947265625 264.294677734375 C 379.0936279296875 267.4942932128906 386.3402404785156 274.95782470703125 389.260009765625 285.22906494140625" stroke-width="0.0" fill="rgb(250, 231, 140)" opacity="0.9902536"/>
    <path d="M 208.15167236328125 160.4157257080078 C 205.65582275390625 170.41140747070312 198.4380340576172 177.7278289794922 188.63873291015625 180.4493408203125 C 179.13404846191406 178.1940460205078 171.95652770996094 170.8168182373047 169.55628967285156 161.08204650878906 C 172.38816833496094 151.7647705078125 179.7971649169922 144.5051727294922 189.8239288330078 140.81793212890625 C 199.80673217773438 142.82603454589844 206.9757537841797 150.24856567382812 208.15167236328125 160.4157257080078" stroke-width="0.0" fill="rgb(246, 66, 2)" opacity="0.9900118"/>
    <path d="M 460.78277587890625 510.812255859375 C 457.72265625 521.2273559570312 450.1056823730469 528.3721313476562 440.0078430175781 531.0037231445312 C 429.9992980957031 528.3207397460938 422.65948486328125 521.0061645507812 419.21820068359375 510.36383056640625 C 421.89862060546875 500.2445983886719 429.2471618652344 492.90728759765625 439.43951416015625 490.35784912109375 C 450.3228454589844 493.44305419921875 457.8966369628906 500.5611267089844 460.78277587890625 510.812255859375" stroke-width="0.0" fill="rgb(241, 186, 105)" opacity="1.0"/>
    <path d="M 346.7073669433594 223.94102478027344 C 343.88433837890625 234.5008544921875 336.46759033203125 241.7821044921875 326.2284851074219 244.24575805664062 C 316.0 241.3205108642578 308.67950439453125 234.0 305.406005859375 223.466064453125 C 307.9323425292969 213.2655792236328 315.25732421875 205.90829467773438 325.7533264160156 203.18531799316406 C 336.6128234863281 206.0070037841797 343.9395446777344 213.40663146972656 346.7073669433594 223.94102478027344" stroke-width="0.0" fill="rgb(255, 236, 134)" opacity="0.9930759"/>
    <path d="M 165.94837951660156 279.4917297363281 C 163.2078857421875 290.864013671875 155.8531036376953 298.1759033203125 145.34828186035156 300.76544189453125 C 134.56275939941406 297.97357177734375 128.33657836914062 289.75531005859375 125.8404769897461 279.1976013183594 C 126.81591033935547 269.1352844238281 134.11935424804688 261.7724609375 144.96780395507812 259.04827880859375 C 155.88510131835938 261.7753601074219 163.22740173339844 269.11370849609375 165.94837951660156 279.4917297363281" stroke-width="0.0" fill="rgb(142, 39, 42)" opacity="0.99007076"/>
    <path d="M 52.959014892578125 588.1981201171875 C 50.20838165283203 598.8231811523438 42.746131896972656 605.9879760742188 31.938766479492188 608.4351196289062 C 21.22866439819336 606.0165405273438 13.778120040893555 598.8428344726562 11.037631034851074 588.2207641601562 C 13.773737907409668 577.1189575195312 21.12166404724121 569.77978515625 32.16372299194336 567.0426025390625 C 42.88930130004883 569.7698974609375 50.22812271118164 577.1116333007812 52.959014892578125 588.1981201171875" stroke-width="0.0" fill="rgb(255, 0, 2)" opacity="1.0"/>
    <path d="M 479.0585632324219 262.2620544433594 C 476.4466857910156 272.1745910644531 469.21160888671875 279.5452575683594 459.45562744140625 282.42169189453125 C 449.98394775390625 280.3341064453125 442.65643310546875 273.0188903808594 439.98724365234375 263.0093078613281 C 442.67926025390625 252.99989318847656 449.9999694824219 245.67947387695312 459.987548828125 243.0055389404297 C 469.8145751953125 245.76866149902344 476.70794677734375 253.39280700683594 479.0585632324219 262.2620544433594" stroke-width="0.0" fill="rgb(141, 40, 40)" opacity="0.9900412"/>
    <path d="M 429.7186584472656 280.9884948730469 C 426.88720703125 291.5370788574219 419.5638732910156 298.9600830078125 409.5387268066406 301.71160888671875 C 398.9999694824219 298.3204650878906 391.6794738769531 291.0000305175781 388.99957275390625 280.99853515625 C 391.66387939453125 270.959716796875 398.8688659667969 263.39111328125 409.30328369140625 260.21832275390625 C 419.5345458984375 263.06695556640625 426.8683776855469 270.4898986816406 429.7186584472656 280.9884948730469" stroke-width="0.0" fill="rgb(255, 236, 134)" opacity="0.9915695"/>
    <path d="M 574.94921875 96.63105773925781 C 572.123779296875 107.66558074951172 564.4911499023438 114.66130828857422 554.0552978515625 117.06591796875 C 543.6642456054688 114.5121841430664 535.9378662109375 107.55653381347656 533.0521240234375 96.307373046875 C 535.776123046875 86.11258697509766 543.1102294921875 78.77082824707031 553.098388671875 77.8960952758789 C 563.4140625 80.51812744140625 572.1557006835938 86.39006042480469 574.94921875 96.63105773925781" stroke-width="0.0" fill="rgb(255, 6, 6)" opacity="0.99013877"/>
    <path d="M 386.943115234375 121.26782989501953 C 384.0769348144531 132.6033477783203 376.4245300292969 139.59938049316406 366.06396484375 142.0360565185547 C 356.0 139.3205108642578 348.67950439453125 132.0 346.07275390625 122.09925079345703 C 348.99945068359375 112.4151611328125 356.53863525390625 105.3516616821289 366.876708984375 101.12020111083984 C 376.8703308105469 103.78096008300781 384.2151794433594 111.13145446777344 386.943115234375 121.26782989501953" stroke-width="0.0" fill="rgb(139, 41, 42)" opacity="0.990959"/>
    <path d="M 134.1356201171875 229.2142333984375 C 131.83200073242188 239.58534240722656 124.65797424316406 247.05618286132812 114.02046203613281 249.840576171875 C 103.24260711669922 247.07884216308594 95.84801483154297 239.78506469726562 93.1143798828125 229.5948028564453 C 96.19373321533203 218.5631561279297 103.49224090576172 211.04287719726562 113.51368713378906 208.4031982421875 C 123.99162292480469 211.69552612304688 131.3128662109375 219.0059051513672 134.1356201171875 229.2142333984375" stroke-width="0.0" fill="rgb(252, 231, 130)" opacity="1.0"/>
    <path d="M 472.28564453125 131.37850952148438 C 469.5498352050781 141.31732177734375 462.54522705078125 149.85804748535156 453.5931091308594 152.71405029296875 C 442.2875061035156 150.0564727783203 435.0643615722656 142.677490234375 432.7637634277344 132.293212890625 C 435.67950439453125 122.0 443.0 114.67948913574219 453.0 112.0 C 463.0 114.67948913574219 470.32049560546875 122.0 472.28564453125 131.37850952148438" stroke-width="0.0" fill="rgb(23, 23, 17)" opacity="0.9900132"/>
    <path d="M 362.8155822753906 485.9781799316406 C 360.064697265625 496.728759765625 352.7266540527344 504.0567932128906 342.54705810546875 506.23992919921875 C 332.2606201171875 503.0023498535156 325.03521728515625 495.7256774902344 322.5625305175781 486.04876708984375 C 324.9851989746094 476.1990661621094 332.13037109375 468.76806640625 342.312255859375 465.68609619140625 C 352.58013916015625 468.11444091796875 360.00555419921875 475.3796081542969 362.8155822753906 485.9781799316406" stroke-width="0.0" fill="rgb(249, 231, 145)" opacity="1.0"/>
    <path d="M 561.8511352539062 473.89404296875 C 559.0440673828125 484.6617431640625 551.6166381835938 491.90460205078125 541.5223388671875 493.31597900390625 C 531.35302734375 490.8219909667969 523.8262939453125 483.7659912109375 520.2920532226562 473.4147033691406 C 522.9556274414062 463.32684326171875 530.3362426757812 455.9792175292969 541.1702880859375 453.1689453125 C 551.6808471679688 455.9655456542969 559.072265625 463.3038024902344 561.8511352539062 473.89404296875" stroke-width="0.0" fill="rgb(245, 190, 107)" opacity="1.0"/>
    <path d="M 113.07675170898438 529.6620483398438 C 111.82634735107422 539.7306518554688 104.80359649658203 547.173095703125 93.48885345458984 549.9207763671875 C 83.13536071777344 547.2113647460938 75.81029510498047 539.8558959960938 73.06916046142578 528.7454833984375 C 75.81806945800781 518.2274169921875 83.48594665527344 512.3195190429688 93.4950180053711 509.9408874511719 C 103.16282653808594 512.5426025390625 110.46168518066406 519.8355712890625 113.07675170898438 529.6620483398438" stroke-width="0.0" fill="rgb(41, 33, 27)" opacity="0.99000514"/>
    <path d="M 276.9792175292969 204.96377563476562 C 274.14764404296875 214.71676635742188 266.54327392578125 221.68240356445312 257.147705078125 224.095703125 C 247.55130004882812 221.62583923339844 239.71499633789062 214.6331787109375 236.5010986328125 205.2332763671875 C 239.7687530517578 195.03114318847656 246.99082946777344 187.63941955566406 256.9779052734375 184.96849060058594 C 267.0 187.6794891357422 274.32049560546875 195.0 276.9792175292969 204.96377563476562" stroke-width="0.0" fill="rgb(144, 39, 42)" opacity="0.99004537"/>
    <path d="M 89.92327117919922 401.0730285644531 C 87.32051086425781 411.0 80.0 418.32049560546875 69.7236099243164 421.30963134765625 C 59.53640365600586 418.8207702636719 52.27886962890625 411.4331359863281 49.85002899169922 401.1661376953125 C 52.679481506347656 390.9999694824219 59.999961853027344 383.6794128417969 70.31658935546875 380.4371337890625 C 79.98359680175781 383.44891357421875 87.14582061767578 391.1394958496094 89.92327117919922 401.0730285644531" stroke-width="0.0" fill="rgb(248, 191, 110)" opacity="0.99095404"/>
    <path d="M 240.18223571777344 582.2169189453125 C 237.82492065429688 592.563720703125 230.61843872070312 599.9996337890625 219.64593505859375 602.752197265625 C 209.2280731201172 600.1113891601562 201.92538452148438 592.7603149414062 199.47705078125 582.5069580078125 C 202.67269897460938 571.9954223632812 209.99681091308594 564.6773681640625 219.99949645996094 561.9996948242188 C 230.0 564.6795043945312 237.3205108642578 572.0 240.18223571777344 582.2169189453125" stroke-width="0.0" fill="rgb(236, 202, 172)" opacity="1.0"/>
    <path d="M 306.9415283203125 162.29563903808594 C 303.7358703613281 172.32151794433594 295.18365478515625 179.44000244140625 285.44537353515625 182.047119140625 C 276.2503662109375 179.54029846191406 267.83294677734375 173.6974334716797 265.0539245605469 162.50765991210938 C 267.7778015136719 152.11595153808594 275.1131591796875 144.7711181640625 285.54132080078125 142.04786682128906 C 296.8789978027344 144.78207397460938 304.2238464355469 152.11843872070312 306.9415283203125 162.29563903808594" stroke-width="0.0" fill="rgb(143, 41, 40)" opacity="0.9900111"/>
    <path d="M 426.843505859375 220.40713500976562 C 424.1288757324219 231.7973175048828 416.8056945800781 239.1521759033203 406.566162109375 241.8554229736328 C 395.4375 238.9472198486328 388.0990295410156 231.54551696777344 385.348876953125 221.21536254882812 C 388.1043395996094 210.42010498046875 395.3974914550781 203.0336151123047 406.0835266113281 200.24391174316406 C 416.7216491699219 202.98004150390625 424.1532287597656 210.22886657714844 426.843505859375 220.40713500976562" stroke-width="0.0" fill="rgb(252, 232, 129)" opacity="1.0"/>
    <path d="M 479.057373046875 252.75051879882812 C 476.7239685058594 261.6292724609375 469.83984375 269.2560729980469 459.995849609375 271.99761962890625 C 449.99114990234375 269.3226013183594 442.53485107421875 262.0520324707031 439.08392333984375 251.1787872314453 C 441.79583740234375 241.18370056152344 449.3289489746094 235.08489990234375 459.3390808105469 232.94570922851562 C 469.1450500488281 235.5575714111328 476.4335632324219 242.8587646484375 479.057373046875 252.75051879882812" stroke-width="0.0" fill="rgb(145, 41, 41)" opacity="0.99001163"/>
    <path d="M 372.1110534667969 127.70491027832031 C 370.1650085449219 136.94607543945312 363.0016784667969 144.34970092773438 352.6828308105469 147.55575561523438 C 342.45135498046875 144.89013671875 335.0671081542969 137.56321716308594 332.1792297363281 126.47338104248047 C 334.88836669921875 116.2455825805664 342.2602233886719 108.93061065673828 352.49237060546875 106.25129699707031 C 362.26934814453125 110.3259506225586 369.4961242675781 117.77943420410156 372.1110534667969 127.70491027832031" stroke-width="0.0" fill="rgb(251, 232, 126)" opacity="0.99001783"/>
    <path d="M 456.7451171875 115.85352325439453 C 454.046630859375 125.90479278564453 447.1668701171875 133.71841430664062 437.3232116699219 136.5864715576172 C 426.5998229980469 133.57057189941406 418.9033508300781 126.60958862304688 416.0597839355469 116.37722778320312 C 418.9441223144531 105.52552795410156 427.314208984375 99.34122467041016 437.59918212890625 96.78682708740234 C 446.8757019042969 98.83741760253906 454.2229309082031 106.1063232421875 456.7451171875 115.85352325439453" stroke-width="0.0" fill="rgb(142, 41, 40)" opacity="0.9901183"/>
    <path d="M 300.9873962402344 209.99493408203125 C 298.30096435546875 219.9563751220703 290.8442687988281 226.978515625 281.59912109375 229.09786987304688 C 271.69598388671875 226.5483856201172 264.28546142578125 219.36256408691406 261.3164367675781 209.6770782470703 C 263.67950439453125 200.0 271.0 192.6794891357422 280.99737548828125 190.00466918945312 C 290.99737548828125 192.68402099609375 298.31939697265625 200.00161743164062 300.9873962402344 209.99493408203125" stroke-width="0.0" fill="rgb(139, 40, 39)" opacity="0.99008846"/>
    <path d="M 383.00439453125 164.0076141357422 C 380.36083984375 174.07269287109375 373.1293029785156 181.54103088378906 363.1479187011719 184.26583862304688 C 352.9072265625 181.3721466064453 345.36865234375 174.1776123046875 342.25921630859375 163.71139526367188 C 345.0979919433594 153.48568725585938 352.50616455078125 146.1588897705078 362.696044921875 143.6350555419922 C 373.0 146.6794891357422 380.32049560546875 154.0 383.00439453125 164.0076141357422" stroke-width="0.0" fill="rgb(255, 237, 132)" opacity="0.9918383"/>
    <path d="M 574.482177734375 393.4231262207031 C 571.9688720703125 403.6190185546875 564.626953125 410.9929504394531 554.028564453125 413.7674865722656 C 543.3536376953125 410.9744873046875 535.9629516601562 403.66949462890625 533.3651123046875 393.46307373046875 C 536.5858154296875 382.809326171875 543.6862182617188 375.21978759765625 553.6646118164062 372.5242614746094 C 564.0 375.67950439453125 571.3204956054688 383.0 574.482177734375 393.4231262207031" stroke-width="0.0" fill="rgb(252, 227, 172)" opacity="1.0"/>
    <path d="M 184.8584442138672 231.7111358642578 C 182.04322814941406 241.54714965820312 174.35052490234375 248.5336151123047 163.93685913085938 251.08203125 C 153.47943115234375 248.6938934326172 145.8624267578125 241.68734741210938 143.04641723632812 230.38648986816406 C 145.78988647460938 220.1638641357422 153.22177124023438 212.95814514160156 163.59597778320312 210.66456604003906 C 173.99847412109375 213.6832275390625 181.32000732421875 221.00064086914062 184.8584442138672 231.7111358642578" stroke-width="0.0" fill="rgb(138, 36, 36)" opacity="1.0"/>
    <path d="M 23.935274124145508 505.1915588378906 C 20.808496475219727 516.2573852539062 13.08251667022705 523.3526000976562 3.0029420852661133 526.001220703125 C -7.000010013580322 523.3204956054688 -14.32050895690918 516.0 -17.00086212158203 505.9976501464844 C -14.34721851348877 495.9296875 -7.233242511749268 488.2205810546875 3.7846834659576416 485.07452392578125 C 13.879964828491211 487.78033447265625 21.225374221801758 495.1175842285156 23.935274124145508 505.1915588378906" stroke-width="0.0" fill="rgb(255, 0, 2)" opacity="1.0"/>
    <path d="M 467.8864440917969 481.2660827636719 C 464.6780700683594 492.1018981933594 456.86431884765625 499.0281677246094 446.80426025390625 501.2377014160156 C 436.3586120605469 499.7586975097656 428.8484802246094 492.74969482421875 426.0729064941406 481.5047607421875 C 428.7904052734375 471.144287109375 436.1706237792969 463.8672790527344 446.3941650390625 462.7586669921875 C 457.6558837890625 464.3323974609375 465.1722412109375 471.22589111328125 467.8864440917969 481.2660827636719" stroke-width="0.0" fill="rgb(252, 103, 2)" opacity="0.9900259"/>
    <path d="M 360.005615234375 454.0296325683594 C 357.380859375 464.0748596191406 350.0906066894531 471.43280029296875 340.12060546875 473.96612548828125 C 330.2015075683594 471.1315002441406 323.04058837890625 463.7418212890625 320.4656677246094 453.8265075683594 C 322.96575927734375 444.2116394042969 330.1903076171875 436.9078063964844 340.0030517578125 434.5284118652344 C 349.8398742675781 436.9452819824219 357.26171875 444.0943908691406 360.005615234375 454.0296325683594" stroke-width="0.0" fill="rgb(255, 238, 136)" opacity="0.99004686"/>
    <path d="M 588.2977905273438 376.6410827636719 C 585.7865600585938 386.5214538574219 578.50439453125 393.74176025390625 568.9215087890625 396.2147521972656 C 559.5375366210938 393.732666015625 552.2701416015625 386.46124267578125 549.5941162109375 376.5450744628906 C 551.4423828125 366.7178039550781 558.6464233398438 359.2228088378906 569.1180419921875 356.3393249511719 C 579.5989379882812 359.0442199707031 586.8240966796875 366.4374694824219 588.2977905273438 376.6410827636719" stroke-width="0.0" fill="rgb(249, 194, 109)" opacity="0.9900273"/>
    <path d="M 596.66845703125 456.27020263671875 C 592.799560546875 466.5056457519531 585.492919921875 473.7605895996094 575.189697265625 477.81927490234375 C 565.1599731445312 475.189453125 557.8233032226562 467.83514404296875 555.2103881835938 457.701171875 C 558.1508178710938 446.43450927734375 565.3411865234375 438.9098205566406 576.0648193359375 436.0759582519531 C 586.8310546875 438.82666015625 594.1651000976562 446.1716613769531 596.66845703125 456.27020263671875" stroke-width="0.0" fill="rgb(122, 115, 94)" opacity="0.9902108"/>
    <path d="M 253.8003387451172 575.6068115234375 C 250.9044952392578 586.5241088867188 243.5057830810547 593.8536987304688 233.37989807128906 596.2892456054688 C 223.00582885742188 593.2999877929688 215.67965698242188 585.999755859375 212.94207763671875 575.9544677734375 C 215.54837036132812 565.8248291015625 222.74200439453125 558.29931640625 233.6074676513672 555.268798828125 C 243.69174194335938 557.9300537109375 251.0310821533203 565.323974609375 253.8003387451172 575.6068115234375" stroke-width="0.0" fill="rgb(236, 201, 171)" opacity="1.0"/>
    <path d="M 406.0850524902344 39.09001159667969 C 403.4044494628906 49.105735778808594 396.1109619140625 56.4176139831543 386.10443115234375 60.84672164916992 C 376.12225341796875 58.220272064208984 368.77801513671875 50.878501892089844 366.04705810546875 40.386749267578125 C 368.7742614746094 29.11502456665039 376.1168212890625 21.77838897705078 387.0965270996094 19.047809600830078 C 397.88446044921875 21.774438858032227 405.21624755859375 29.11910629272461 406.0850524902344 39.09001159667969" stroke-width="0.0" fill="rgb(255, 6, 7)" opacity="0.9900217"/>
    <path d="M 569.81591796875 179.24514770507812 C 566.3203125 189.9999237060547 559.0 197.3206329345703 548.9951782226562 200.00289916992188 C 538.957275390625 197.34515380859375 531.5511474609375 190.07424926757812 528.2948608398438 179.46556091308594 C 530.9481201171875 169.29510498046875 538.2701416015625 161.88583374023438 549.5950317382812 159.07696533203125 C 559.8541259765625 161.8012237548828 567.195556640625 169.14697265625 569.81591796875 179.24514770507812" stroke-width="0.0" fill="rgb(241, 187, 108)" opacity="1.0"/>
    <path d="M 286.1765441894531 195.75437927246094 C 284.32073974609375 205.00018310546875 277.0001525878906 212.32066345214844 267.0007019042969 214.99862670898438 C 257.0001220703125 212.32022094726562 249.6797637939453 204.99986267089844 246.47601318359375 194.46311950683594 C 248.88658142089844 184.18186950683594 256.1487121582031 176.79017639160156 266.23040771484375 174.06602478027344 C 276.20758056640625 178.36289978027344 283.4517822265625 185.8359832763672 286.1765441894531 195.75437927246094" stroke-width="0.0" fill="rgb(144, 41, 41)" opacity="0.9900304"/>
    <path d="M 473.3987121582031 292.04559326171875 C 470.7519226074219 302.4829406738281 463.5383605957031 309.92791748046875 452.97308349609375 312.71990966796875 C 442.3954162597656 309.9490661621094 435.0126953125 302.618408203125 432.200439453125 291.9347229003906 C 435.0268249511719 281.4385070800781 442.6717224121094 275.15350341796875 452.487060546875 272.9311828613281 C 462.4173278808594 275.4506530761719 470.6000061035156 282.23095703125 473.3987121582031 292.04559326171875" stroke-width="0.0" fill="rgb(252, 232, 132)" opacity="0.99007493"/>
    <path d="M 531.30078125 488.5403137207031 C 529.080810546875 499.3791198730469 522.59326171875 507.0445556640625 511.4898986816406 509.9040222167969 C 501.2980651855469 507.0996398925781 493.9837341308594 499.667236328125 491.16802978515625 488.7823181152344 C 493.95977783203125 478.3216247558594 501.32037353515625 470.9577941894531 511.58905029296875 468.21240234375 C 522.2767944335938 471.25531005859375 529.4248046875 478.8309326171875 531.30078125 488.5403137207031" stroke-width="0.0" fill="rgb(243, 188, 108)" opacity="1.0"/>
    <path d="M 128.82748413085938 421.59600830078125 C 126.12125396728516 431.7589111328125 118.73995971679688 439.07037353515625 108.04696655273438 441.8222961425781 C 97.31806182861328 439.0381774902344 89.94918823242188 431.6864929199219 87.24060821533203 421.59527587890625 C 90.42037200927734 410.6607360839844 97.52888488769531 403.054443359375 108.1741943359375 400.11993408203125 C 118.4281234741211 403.0578308105469 125.70191955566406 410.68634033203125 128.82748413085938 421.59600830078125" stroke-width="0.0" fill="rgb(234, 183, 115)" opacity="1.0"/>
    <path d="M 388.0027770996094 457.0086364746094 C 385.32073974609375 467.00054931640625 378.0052795410156 474.33795166015625 368.1401062011719 477.622314453125 C 358.5513916015625 473.7060852050781 351.0921630859375 466.5108642578125 348.1190185546875 456.8479919433594 C 350.67950439453125 447.0 358.0 439.67950439453125 367.54400634765625 437.6438903808594 C 377.66278076171875 440.20361328125 385.2369079589844 447.1789855957031 388.0027770996094 457.0086364746094" stroke-width="0.0" fill="rgb(143, 41, 41)" opacity="0.99120885"/>
    <path d="M 500.11151123046875 457.6371154785156 C 497.7768249511719 466.61175537109375 490.7601318359375 474.2390441894531 480.20611572265625 477.8728332519531 C 470.1944580078125 475.17962646484375 462.9981689453125 467.7500305175781 461.8894958496094 457.7684020996094 C 464.5464172363281 447.84521484375 471.8489990234375 440.55596923828125 481.2037353515625 437.94708251953125 C 490.1667175292969 440.5465087890625 497.4814758300781 447.8222351074219 500.11151123046875 457.6371154785156" stroke-width="0.0" fill="rgb(252, 100, 2)" opacity="0.9900086"/>
    <path d="M 392.68084716796875 592.0936889648438 C 389.698974609375 602.2141723632812 382.1036682128906 609.3753662109375 371.9983825683594 612.0115356445312 C 361.9021911621094 609.3772583007812 354.4161376953125 602.1634521484375 351.5220642089844 591.8665161132812 C 354.10858154296875 581.3802490234375 361.3119201660156 573.9119262695312 371.7688903808594 571.1474609375 C 382.6896667480469 573.9080200195312 389.9051818847656 581.3778076171875 392.68084716796875 592.0936889648438" stroke-width="0.0" fill="rgb(237, 203, 172)" opacity="1.0"/>
    <path d="M 70.90774536132812 457.43829345703125 C 68.08397674560547 468.6485900878906 60.54756546020508 475.83447265625 50.335838317871094 478.4613952636719 C 39.30085754394531 475.9735107421875 31.892261505126953 468.73980712890625 29.401580810546875 458.6494445800781 C 32.66639709472656 447.9192199707031 39.73749923706055 440.1861267089844 50.39269256591797 437.1687316894531 C 60.81283187866211 439.8559265136719 68.1890640258789 447.1689758300781 70.90774536132812 457.43829345703125" stroke-width="0.0" fill="rgb(237, 204, 173)" opacity="1.0"/>
    <path d="M 371.9579162597656 21.90130043029785 C 369.2360534667969 32.89724349975586 361.8982849121094 40.23853302001953 351.5562438964844 42.95833969116211 C 340.11724853515625 40.22282791137695 332.7835693359375 32.88037872314453 330.1344909667969 22.759334564208984 C 332.95257568359375 11.219305992126465 340.1643371582031 3.7920310497283936 351.41455078125 1.0457651615142822 C 361.8951416015625 3.7667195796966553 369.2372131347656 11.103158950805664 371.9579162597656 21.90130043029785" stroke-width="0.0" fill="rgb(255, 1, 1)" opacity="1.0"/>
    <path d="M 288.4755554199219 247.0958709716797 C 285.4281311035156 257.0439453125 278.0135192871094 264.32598876953125 268.0005798339844 267.0002746582031 C 257.9975891113281 264.3212890625 250.63864135742188 257.01373291015625 247.31605529785156 246.54766845703125 C 250.09043884277344 236.4752960205078 257.4884033203125 229.1280059814453 267.8528747558594 226.2881622314453 C 278.1837158203125 229.34317016601562 285.40533447265625 236.90353393554688 288.4755554199219 247.0958709716797" stroke-width="0.0" fill="rgb(255, 236, 132)" opacity="0.9926676"/>
    <path d="M 524.9539184570312 97.61567687988281 C 522.233154296875 108.8956069946289 514.8965454101562 116.23567962646484 504.739501953125 118.9542236328125 C 493.3077697753906 116.12501525878906 486.2010192871094 108.57070922851562 483.8025207519531 98.1482925415039 C 486.4073486328125 87.57795715332031 493.39178466796875 79.91569519042969 504.73626708984375 77.05426025390625 C 514.8896484375 79.77365112304688 522.2362060546875 87.10601043701172 524.9539184570312 97.61567687988281" stroke-width="0.0" fill="rgb(255, 0, 1)" opacity="1.0"/>
    <path d="M 260.3568115234375 138.5561981201172 C 257.8704528808594 148.54840087890625 250.64002990722656 156.08065795898438 240.4015655517578 158.89898681640625 C 229.38067626953125 156.0298309326172 222.02085876464844 148.5974884033203 219.22103881835938 138.48204040527344 C 222.50572204589844 127.93206787109375 229.98419189453125 120.67405700683594 239.9996337890625 117.9998779296875 C 249.99961853027344 120.67959594726562 257.28497314453125 128.0101776123047 260.3568115234375 138.5561981201172" stroke-width="0.0" fill="rgb(251, 231, 139)" opacity="1.0"/>
    <path d="M 261.37255859375 133.44778442382812 C 258.1617431640625 143.88668823242188 250.90191650390625 151.21104431152344 240.96456909179688 153.8220672607422 C 231.01954650878906 151.29119873046875 223.74105834960938 143.97120666503906 220.2027587890625 133.31158447265625 C 222.99171447753906 123.47611236572266 230.61276245117188 116.32379913330078 241.35858154296875 113.34553527832031 C 251.54698181152344 116.10977172851562 258.9988708496094 123.41011047363281 261.37255859375 133.44778442382812" stroke-width="0.0" fill="rgb(249, 232, 146)" opacity="1.0"/>
    <path d="M 24.357290267944336 437.7699279785156 C 21.842361450195312 448.6370544433594 14.751173973083496 456.1653747558594 4.779093265533447 458.92156982421875 C -6.177572250366211 455.6908874511719 -13.341269493103027 448.0543518066406 -16.00210189819336 437.99822998046875 C -13.358206748962402 427.90509033203125 -6.286581516265869 420.1549072265625 4.771059036254883 417.0653076171875 C 14.824810028076172 419.7956237792969 22.00599479675293 427.24261474609375 24.357290267944336 437.7699279785156" stroke-width="0.0" fill="rgb(255, 0, 1)" opacity="1.0"/>
    <path d="M 442.94061279296875 148.83172607421875 C 440.20123291015625 158.76881408691406 432.4603271484375 164.78794860839844 421.15533447265625 167.8292999267578 C 411.11279296875 166.2246551513672 403.7745056152344 158.88722229003906 401.0443115234375 147.69223022460938 C 403.769775390625 137.11111450195312 411.11553955078125 129.78102111816406 421.2005310058594 127.13595581054688 C 432.23931884765625 130.50033569335938 439.7986755371094 137.65994262695312 442.94061279296875 148.83172607421875" stroke-width="0.0" fill="rgb(137, 39, 34)" opacity="1.0"/>
    <path d="M 379.80419921875 452.24090576171875 C 377.3207702636719 462.0006103515625 370.00164794921875 469.3244323730469 360.6317138671875 471.27496337890625 C 350.77301025390625 468.5279846191406 343.50164794921875 461.2156982421875 340.9316711425781 452.54833984375 C 343.55303955078125 442.84942626953125 350.85174560546875 435.55865478515625 360.3688049316406 432.9509582519531 C 369.2520446777344 435.5138854980469 376.7568664550781 442.65277099609375 379.80419921875 452.24090576171875" stroke-width="0.0" fill="rgb(142, 41, 41)" opacity="0.9900128"/>
    <path d="M 339.8501281738281 13.277383804321289 C 337.0331726074219 24.770122528076172 329.8305969238281 32.20705032348633 319.0710144042969 34.95695877075195 C 308.1859130859375 32.20813751220703 302.37811279296875 24.585147857666016 299.95965576171875 14.643001556396484 C 302.5793151855469 4.859823226928711 309.8221740722656 -2.529259204864502 319.6764221191406 -5.906095027923584 C 329.79962158203125 -4.090382099151611 337.1913146972656 3.1669368743896484 339.8501281738281 13.277383804321289" stroke-width="0.0" fill="rgb(255, 6, 7)" opacity="0.9900137"/>
    <path d="M 152.95114135742188 366.0106201171875 C 150.21435546875 376.8679504394531 142.86431884765625 384.2059631347656 131.9343719482422 386.9442443847656 C 121.1575927734375 384.2047424316406 113.87566375732422 376.8112487792969 111.0713882446289 365.3258972167969 C 113.78910827636719 355.1263427734375 121.11953735351562 347.7731018066406 131.34539794921875 345.0481262207031 C 142.849609375 347.8122863769531 150.21316528320312 355.1392822265625 152.95114135742188 366.0106201171875" stroke-width="0.0" fill="rgb(143, 37, 39)" opacity="1.0"/>
    <path d="M 111.9505844116211 569.8668823242188 C 109.22393035888672 580.885009765625 101.8870620727539 588.2288208007812 91.23284912109375 590.9572143554688 C 80.10834503173828 588.2315673828125 72.77314758300781 580.8897094726562 70.0440673828125 569.8785400390625 C 72.7745361328125 559.1121826171875 80.10918426513672 551.7677001953125 90.69979095458984 549.042724609375 C 101.88228607177734 551.7763671875 109.2239761352539 559.1174926757812 111.9505844116211 569.8668823242188" stroke-width="0.0" fill="rgb(255, 1, 2)" opacity="1.0"/>
    <path d="M 328.9997863769531 242.9950408935547 C 326.29486083984375 252.9618377685547 318.94256591796875 260.23028564453125 308.7987365722656 263.1723937988281 C 298.5552978515625 260.6958312988281 291.05474853515625 253.52597045898438 288.31988525390625 243.51316833496094 C 291.6796569824219 233.00018310546875 299.0002746582031 225.67991638183594 308.99993896484375 223.00164794921875 C 318.9996337890625 225.68003845214844 326.3203125 233.000244140625 328.9997863769531 242.9950408935547" stroke-width="0.0" fill="rgb(255, 236, 137)" opacity="0.9906141"/>
    <path d="M 60.80424118041992 495.81671142578125 C 58.12786865234375 505.7189025878906 50.65079116821289 512.9683227539062 39.180198669433594 515.9397583007812 C 29.112581253051758 513.2281494140625 21.77225112915039 505.8873291015625 19.043134689331055 494.8074035644531 C 21.77157211303711 484.11260986328125 29.113441467285156 476.7735900878906 39.20685577392578 474.0675048828125 C 49.41530227661133 477.9017028808594 56.55418395996094 485.6947326660156 60.80424118041992 495.81671142578125" stroke-width="0.0" fill="rgb(252, 5, 4)" opacity="1.0"/>
    <path d="M 490.7096252441406 404.6180419921875 C 487.67974853515625 415.2235412597656 480.0384216308594 422.09405517578125 470.0328369140625 424.3790283203125 C 460.387451171875 421.8739929199219 453.1405334472656 414.6077575683594 450.65655517578125 404.8813171386719 C 453.1059265136719 395.35516357421875 460.3542785644531 388.10662841796875 470.5747375488281 384.82952880859375 C 480.5623474121094 387.07733154296875 487.9532165527344 394.4262390136719 490.7096252441406 404.6180419921875" stroke-width="0.0" fill="rgb(255, 236, 136)" opacity="0.9900338"/>
    <path d="M 396.94281005859375 147.8212127685547 C 394.17950439453125 158.7929229736328 386.69818115234375 165.77272033691406 376.6451110839844 167.08587646484375 C 366.7994384765625 164.48912048339844 359.51763916015625 157.19781494140625 356.9239807128906 147.4319610595703 C 359.16876220703125 137.54322814941406 365.3117980957031 129.8916778564453 376.349365234375 127.13460540771484 C 386.8495178222656 129.81834411621094 394.2049560546875 137.14183044433594 396.94281005859375 147.8212127685547" stroke-width="0.0" fill="rgb(141, 37, 39)" opacity="0.9900208"/>
    <path d="M 493.35614013671875 117.57516479492188 C 491.3493347167969 127.01537322998047 484.0082702636719 134.32516479492188 473.2632141113281 137.8159942626953 C 463.15826416015625 135.17947387695312 455.80914306640625 127.84626007080078 453.13934326171875 117.58770751953125 C 455.923583984375 106.27757263183594 463.25042724609375 98.86180877685547 473.2532653808594 96.08753204345703 C 483.3016052246094 100.32745361328125 490.5611572265625 107.72864532470703 493.35614013671875 117.57516479492188" stroke-width="0.0" fill="rgb(242, 187, 107)" opacity="0.9900983"/>
    <path d="M 45.0579719543457 438.1889343261719 C 42.43227767944336 448.16046142578125 35.231815338134766 455.755615234375 25.832048416137695 459.8603820800781 C 16.367584228515625 456.82080078125 9.47513198852539 448.3327941894531 6.924882888793945 438.8466796875 C 9.447546005249023 429.555908203125 15.673688888549805 420.9565124511719 25.132814407348633 419.91766357421875 C 35.15898895263672 422.5689392089844 42.61164474487305 429.78485107421875 45.0579719543457 438.1889343261719" stroke-width="0.0" fill="rgb(7, 3, 4)" opacity="0.99000376"/>
    <path d="M 58.999427795410156 393.99981689453125 C 56.320316314697266 403.9998779296875 48.99985885620117 411.3202819824219 38.84036636352539 414.15106201171875 C 28.60684585571289 411.6953125 21.21537971496582 404.42083740234375 18.391578674316406 393.5909729003906 C 20.925687789916992 383.2442932128906 28.226089477539062 375.8713073730469 38.32829666137695 373.1775817871094 C 49.03258514404297 376.59027099609375 56.32286071777344 383.99285888671875 58.999427795410156 393.99981689453125" stroke-width="0.0" fill="rgb(244, 187, 105)" opacity="1.0"/>
    <path d="M 458.76507568359375 519.6055908203125 C 456.07440185546875 529.7114868164062 448.7030334472656 537.0520629882812 437.9859924316406 539.822265625 C 427.3544616699219 537.0169677734375 419.9979553222656 529.6400146484375 417.2452087402344 519.3741455078125 C 420.3284606933594 508.8069152832031 427.9110412597656 501.63665771484375 437.9936218261719 498.9969787597656 C 448.0010681152344 501.6791687011719 455.3468322753906 508.99169921875 458.76507568359375 519.6055908203125" stroke-width="0.0" fill="rgb(246, 191, 105)" opacity="0.998831"/>
    <path d="M 563.4093627929688 202.02890014648438 C 561.0089111328125 211.7696075439453 553.8213500976562 219.17613220214844 543.8214111328125 222.2027587890625 C 533.654296875 219.65328979492188 526.2749633789062 212.36831665039062 523.5307006835938 202.0477294921875 C 526.2903442382812 191.688232421875 533.76416015625 184.55209350585938 543.8326416015625 182.52732849121094 C 553.707275390625 185.01327514648438 560.9689331054688 192.29859924316406 563.4093627929688 202.02890014648438" stroke-width="0.0" fill="rgb(252, 228, 177)" opacity="0.99012715"/>
    <path d="M 287.7183837890625 254.48472595214844 C 284.9430847167969 264.5514831542969 277.51654052734375 271.8408203125 267.2790832519531 274.3392333984375 C 256.8437805175781 271.4112548828125 249.2698974609375 264.2632751464844 246.45494079589844 254.2965087890625 C 249.624267578125 243.9777374267578 256.992919921875 236.67662048339844 266.99969482421875 233.99986267089844 C 277.001220703125 236.67909240722656 284.34881591796875 243.99099731445312 287.7183837890625 254.48472595214844" stroke-width="0.0" fill="rgb(255, 236, 132)" opacity="0.9930714"/>
    <path d="M 511.7633361816406 534.2349243164062 C 508.1039733886719 544.9550170898438 501.03387451171875 552.3319702148438 491.0429992675781 554.3632202148438 C 480.3152160644531 552.8854370117188 472.8501892089844 545.7623901367188 470.077392578125 535.3861083984375 C 472.9737854003906 524.4273071289062 480.50628662109375 517.1539306640625 491.5793762207031 514.1978149414062 C 501.81243896484375 516.8447265625 509.16607666015625 524.1836547851562 511.7633361816406 534.2349243164062" stroke-width="0.0" fill="rgb(125, 121, 107)" opacity="0.99004847"/>
    <path d="M 226.9081268310547 553.4315795898438 C 224.02171325683594 564.5279541015625 216.1980438232422 570.9249877929688 206.2987823486328 573.1583862304688 C 196.63441467285156 570.6394653320312 189.355712890625 563.3668823242188 186.617431640625 553.5017700195312 C 188.66860961914062 543.96826171875 195.8781280517578 536.3976440429688 205.56024169921875 533.3408813476562 C 216.6647491455078 536.2930297851562 224.1573486328125 543.232666015625 226.9081268310547 553.4315795898438" stroke-width="0.0" fill="rgb(125, 120, 101)" opacity="0.99006957"/>
  </g>
</svg>
