<?xml version="1.0" ?>
<svg xmlns="http://www.w3.org/2000/svg" version="1.1" width="600" height="600">
  <defs/>
  <g>
    <path d="M 161.2125244140625 545.9275512695312 C 158.52420043945312 556.1719360351562 151.12286376953125 563.3418579101562 140.79043579101562 565.9712524414062 C 130.81138610839844 563.4924926757812 123.48096466064453 556.1958618164062 121.12147521972656 546.1109619140625 C 123.553466796875 535.7955322265625 130.74574279785156 528.3751831054688 140.7797088623047 525.5850830078125 C 151.189453125 528.482421875 158.54742431640625 535.8026123046875 161.2125244140625 545.9275512695312" stroke-width="0.0" fill="rgb(254, 254, 254)" opacity="0.99061924"/>
    <path d="M 485.314208984375 521.8690185546875 C 482.32049560546875 532.0 475.0 539.3204956054688 465.0490417480469 541.9196166992188 C 454.96649169921875 539.2592163085938 447.5137939453125 532.103271484375 444.3241271972656 521.4981689453125 C 447.1556701660156 511.7091369628906 454.8985900878906 504.6414794921875 464.997314453125 501.99932861328125 C 475.0055847167969 504.6775207519531 482.3957824707031 511.9731750488281 485.314208984375 521.8690185546875" stroke-width="0.0" fill="rgb(249, 249, 249)" opacity="0.99092597"/>
    <path d="M 307.0 585.0 C 304.32049560546875 595.0 297.0 602.3204956054688 287.0 605.0 C 277.0 602.3204956054688 269.67950439453125 595.0 267.0 585.0 C 269.67950439453125 575.0 277.0 567.6795043945312 287.0 565.0 C 297.0 567.6795043945312 304.32049560546875 575.0 307.0 585.0" stroke-width="0.0" fill="rgb(251, 251, 251)" opacity="1.0"/>
    <path d="M 29.99921417236328 41.9981803894043 C 27.305999755859375 51.966224670410156 19.90857696533203 59.122467041015625 9.819296836853027 61.545108795166016 C -0.04186812788248062 59.35942840576172 -7.345890998840332 52.03688049316406 -10.003841400146484 42.00596618652344 C -7.320508003234863 32.0 -8.881784197001252e-15 24.67949104309082 10.0 22.0 C 20.0 24.67949104309082 27.32050895690918 32.0 29.99921417236328 41.9981803894043" stroke-width="0.0" fill="rgb(253, 252, 252)" opacity="0.99286634"/>
    <path d="M 551.0 457.0 C 548.3204956054688 467.0 541.0 474.32049560546875 531.0 477.0 C 521.0 474.32049560546875 513.6795043945312 467.0 511.0 457.0 C 513.6795043945312 447.0 521.0 439.67950439453125 531.0 437.0 C 541.0 439.67950439453125 548.3204956054688 447.0 551.0 457.0" stroke-width="0.0" fill="rgb(253, 252, 252)" opacity="0.9956176"/>
    <path d="M 317.37322998046875 576.174560546875 C 314.45751953125 586.0562744140625 307.0167541503906 593.3270874023438 297.00067138671875 596.000244140625 C 287.0 593.3204956054688 279.67950439453125 586.0 277.0 576.0 C 279.67950439453125 566.0 287.0 558.6795043945312 297.0 556.0 C 307.0 558.6795043945312 314.320556640625 566.0 317.37322998046875 576.174560546875" stroke-width="0.0" fill="rgb(252, 252, 252)" opacity="0.99791175"/>
    <path d="M 85.0 113.0 C 82.32051086425781 123.0 75.0 130.3205108642578 64.99993896484375 132.99998474121094 C 54.994659423828125 130.3221893310547 47.600563049316406 123.02776336669922 44.51911544799805 113.02265930175781 C 47.65525817871094 102.99284362792969 54.99947738647461 95.67933654785156 65.0 93.0 C 75.0 95.67948913574219 82.32051086425781 103.0 85.0 113.0" stroke-width="0.0" fill="rgb(253, 252, 252)" opacity="0.9955588"/>
    <path d="M 566.268798828125 483.197265625 C 563.6427001953125 493.2619934082031 556.2418823242188 500.5862121582031 546.0106201171875 503.5089111328125 C 535.9622802734375 500.4114685058594 528.6090698242188 493.0301818847656 525.4564208984375 483.02825927734375 C 528.4667358398438 472.8811950683594 535.9374389648438 465.6458435058594 545.993896484375 462.9965515136719 C 555.9996337890625 465.67962646484375 563.3157348632812 473.0016174316406 566.268798828125 483.197265625" stroke-width="0.0" fill="rgb(254, 254, 254)" opacity="0.9908761"/>
    <path d="M 318.0 570.0 C 315.32049560546875 580.0 308.0 587.3204956054688 298.0 590.0 C 288.0 587.3204956054688 280.67950439453125 580.0 277.8891296386719 569.9000854492188 C 280.4468994140625 559.7845458984375 287.79766845703125 552.4901733398438 297.9320373535156 549.9362182617188 C 308.0 552.6795043945312 315.32049560546875 560.0 318.0 570.0" stroke-width="0.0" fill="rgb(252, 252, 252)" opacity="0.99759525"/>
    <path d="M 488.0014343261719 595.9970092773438 C 485.32049560546875 606.0 478.0 613.3204956054688 468.0003662109375 615.9998779296875 C 458.0113525390625 613.3163452148438 450.7890625 605.957275390625 448.29864501953125 595.793701171875 C 450.3787841796875 585.6564331054688 457.61865234375 578.2500610351562 467.91949462890625 575.3606567382812 C 478.0926513671875 578.490234375 485.3396911621094 585.9603271484375 488.0014343261719 595.9970092773438" stroke-width="0.0" fill="rgb(254, 254, 254)" opacity="0.9911279"/>
    <path d="M 268.1875305175781 20.935611724853516 C 265.32049560546875 31.0 258.0 38.32050704956055 247.96763610839844 41.02457046508789 C 237.845947265625 38.4371337890625 230.39329528808594 31.206884384155273 227.76451110839844 21.331443786621094 C 231.04986572265625 11.304661750793457 238.3015899658203 4.041331768035889 248.02374267578125 1.5267308950424194 C 257.78607177734375 4.006535530090332 265.29193115234375 11.123283386230469 268.1875305175781 20.935611724853516" stroke-width="0.0" fill="rgb(254, 254, 254)" opacity="0.9908669"/>
    <path d="M 618.0 383.00006103515625 C 615.3216552734375 393.0035095214844 608.0202026367188 400.3800964355469 597.9548950195312 403.50579833984375 C 588.0403442382812 400.31817626953125 580.7175903320312 392.9515075683594 578.0070190429688 382.98992919921875 C 580.6795043945312 373.0 588.0 365.67950439453125 598.0 363.0 C 608.0 365.67950439453125 615.3204956054688 373.0 618.0 383.00006103515625" stroke-width="0.0" fill="rgb(254, 254, 254)" opacity="0.9935929"/>
    <path d="M 56.051048278808594 396.6074523925781 C 53.62403869628906 405.8636779785156 47.274784088134766 412.98345947265625 37.725101470947266 415.0537109375 C 27.8612117767334 412.4343566894531 20.56624984741211 405.1384582519531 17.955211639404297 396.3321228027344 C 20.56109619140625 386.8264465332031 27.775856018066406 379.4317626953125 36.294673919677734 376.940185546875 C 46.14099884033203 379.56396484375 53.437110900878906 386.85845947265625 56.051048278808594 396.6074523925781" stroke-width="0.0" fill="rgb(67, 68, 66)" opacity="0.99000484"/>
    <path d="M 619.0 440.0 C 616.3204956054688 450.0 609.0 457.32049560546875 599.0020141601562 459.9986572265625 C 589.0012817382812 457.31500244140625 581.5398559570312 450.0428466796875 578.3329467773438 439.9502868652344 C 581.29248046875 429.720703125 588.8322143554688 422.67449951171875 598.9662475585938 419.8370666503906 C 608.9998168945312 422.6800537109375 616.3204956054688 430.0 619.0 440.0" stroke-width="0.0" fill="rgb(254, 254, 253)" opacity="0.9914036"/>
    <path d="M 324.11590576171875 43.081092834472656 C 321.5088806152344 53.213478088378906 314.2615661621094 60.65872573852539 303.936279296875 63.624183654785156 C 293.7318115234375 60.72114181518555 286.8489074707031 53.10197067260742 284.5576171875 42.80153274536133 C 286.89825439453125 33.10453796386719 294.0369567871094 25.691261291503906 304.0066223144531 23.01964569091797 C 314.0004577636719 25.678926467895508 321.32080078125 32.99961853027344 324.11590576171875 43.081092834472656" stroke-width="0.0" fill="rgb(254, 254, 254)" opacity="0.9908507"/>
    <path d="M 225.82351684570312 28.030029296875 C 223.3205108642578 38.0 216.0 45.32050704956055 206.0 48.0 C 196.0 45.32050704956055 188.6794891357422 38.0 185.86825561523438 27.890888214111328 C 188.45547485351562 17.839378356933594 195.94102478027344 10.810165405273438 206.2583465576172 8.311397552490234 C 216.255859375 10.393902778625488 223.46624755859375 17.782440185546875 225.82351684570312 28.030029296875" stroke-width="0.0" fill="rgb(254, 254, 254)" opacity="0.99104214"/>
    <path d="M 47.99707794189453 124.00303649902344 C 45.32050704956055 134.0 38.0 141.3205108642578 27.999881744384766 144.00006103515625 C 17.99803924560547 141.32138061523438 10.665821075439453 134.00559997558594 7.603170394897461 123.7533187866211 C 10.294655799865723 113.6865005493164 17.728233337402344 106.42609405517578 28.107385635375977 103.5776596069336 C 38.01007080078125 106.63813781738281 45.312747955322266 114.00411987304688 47.99707794189453 124.00303649902344" stroke-width="0.0" fill="rgb(254, 254, 254)" opacity="0.9911576"/>
    <path d="M 408.0 34.0 C 405.32049560546875 44.0 398.0 51.32050704956055 388.0 54.0 C 378.0 51.32050704956055 370.67950439453125 44.0 368.183349609375 34.08534622192383 C 370.7710876464844 24.040685653686523 378.01556396484375 16.686452865600586 388.0009460449219 14.000438690185547 C 398.0 16.67949104309082 405.32049560546875 24.0 408.0 34.0" stroke-width="0.0" fill="rgb(252, 252, 251)" opacity="0.9952416"/>
    <path d="M 489.5538635253906 5.184877395629883 C 486.7232360839844 15.351753234863281 479.3123474121094 22.59178924560547 469.0762023925781 24.9434814453125 C 458.8262634277344 22.445220947265625 451.37384033203125 15.226792335510254 448.3548278808594 5.2482099533081055 C 451.7164611816406 -4.974847793579102 459.0159912109375 -12.312769889831543 469.0019836425781 -14.999780654907227 C 479.01385498046875 -12.326591491699219 486.39801025390625 -5.034985065460205 489.5538635253906 5.184877395629883" stroke-width="0.0" fill="rgb(254, 254, 254)" opacity="0.9909591"/>
    <path d="M 288.0 580.0 C 285.32049560546875 590.0 278.0 597.3204956054688 268.0 600.0 C 258.0 597.3204956054688 250.6794891357422 590.0 248.0 580.0 C 250.6794891357422 570.0 258.0 562.6795043945312 268.0 560.0 C 278.0 562.6795043945312 285.32049560546875 570.0 288.0 580.0" stroke-width="0.0" fill="rgb(252, 252, 252)" opacity="1.0"/>
    <path d="M 420.8298645019531 39.8742561340332 C 418.0781555175781 49.80171203613281 410.7911071777344 57.0417366027832 400.79840087890625 59.47898864746094 C 391.1038513183594 57.138702392578125 383.71173095703125 49.94245910644531 381.0033874511719 39.99388885498047 C 383.67950439453125 30.0 391.0 22.67949104309082 401.0 20.0 C 411.0 22.67949104309082 418.32049560546875 30.0 420.8298645019531 39.8742561340332" stroke-width="0.0" fill="rgb(253, 252, 252)" opacity="0.9916851"/>
    <path d="M 65.21766662597656 433.729248046875 C 62.54326629638672 444.1002502441406 55.03303527832031 451.3329772949219 44.94963073730469 454.0562438964844 C 34.86935806274414 451.4538269042969 27.43380355834961 444.1645812988281 24.44154930114746 434.2672119140625 C 27.46522331237793 423.8143005371094 34.89900588989258 416.7970275878906 45.50322341918945 413.6814880371094 C 55.3279914855957 416.1670227050781 62.43025588989258 423.8327331542969 65.21766662597656 433.729248046875" stroke-width="0.0" fill="rgb(250, 249, 249)" opacity="1.0"/>
    <path d="M 598.96142578125 72.0343246459961 C 596.3204956054688 82.0 589.0 89.32051086425781 579.0 92.0 C 569.0 89.32051086425781 561.6795043945312 82.0 559.0 72.0 C 561.6795043945312 62.0 569.0 54.67949295043945 578.9960327148438 52.00224304199219 C 588.9666137695312 54.69926452636719 596.2423095703125 62.051185607910156 598.96142578125 72.0343246459961" stroke-width="0.0" fill="rgb(252, 252, 252)" opacity="0.9957747"/>
    <path d="M 164.91241455078125 9.213263511657715 C 162.52305603027344 19.243627548217773 155.26043701171875 26.58063316345215 145.08160400390625 28.938495635986328 C 135.17755126953125 26.104747772216797 127.81562805175781 18.847015380859375 125.04574584960938 8.953292846679688 C 127.67948913574219 -1.0 135.0 -8.320508003234863 144.99440002441406 -10.996256828308105 C 154.95883178710938 -8.295029640197754 162.17965698242188 -0.9238909482955933 164.91241455078125 9.213263511657715" stroke-width="0.0" fill="rgb(254, 254, 254)" opacity="0.9909293"/>
    <path d="M 247.03170776367188 545.8255004882812 C 244.4137420654297 554.0968017578125 237.08447265625 561.3829956054688 227.689453125 564.0232543945312 C 218.9268341064453 561.3792724609375 211.61634826660156 554.0750732421875 208.9646759033203 544.1724243164062 C 211.58067321777344 535.9044189453125 218.9170379638672 528.61572265625 227.5046844482422 525.9754028320312 C 237.06956481933594 528.6216430664062 244.3765411376953 535.9312744140625 247.03170776367188 545.8255004882812" stroke-width="0.0" fill="rgb(2, 3, 4)" opacity="0.99000186"/>
    <path d="M 536.5699462890625 75.83116149902344 C 534.0939331054688 85.9212875366211 527.0338134765625 93.43284606933594 517.1978149414062 96.43043518066406 C 507.0 93.32049560546875 499.67950439453125 86.0 497.0 76.0 C 499.67950439453125 66.0 507.0 58.67949295043945 516.824462890625 56.31536102294922 C 526.8512573242188 58.90510940551758 534.1228637695312 66.1407699584961 536.5699462890625 75.83116149902344" stroke-width="0.0" fill="rgb(254, 253, 253)" opacity="0.9909817"/>
    <path d="M 45.026329040527344 220.21299743652344 C 42.380428314208984 230.07275390625 35.071868896484375 237.37847900390625 26.07767677307129 240.02487182617188 C 16.931198120117188 237.3767852783203 9.616545677185059 230.0714111328125 6.908049583435059 220.13194274902344 C 8.679491996765137 211.0 16.0 203.6794891357422 25.918588638305664 201.04356384277344 C 35.47480010986328 204.03260803222656 42.47270965576172 211.71768188476562 45.026329040527344 220.21299743652344" stroke-width="0.0" fill="rgb(2, 2, 2)" opacity="0.9900079"/>
    <path d="M 493.0151062011719 504.017822265625 C 490.3774719238281 514.0617065429688 483.0630187988281 521.3812866210938 473.0545654296875 523.8797607421875 C 463.0169982910156 521.2791137695312 455.68182373046875 513.9942626953125 453.001220703125 504.00201416015625 C 455.6933288574219 494.0273742675781 463.0526428222656 486.777099609375 473.0636291503906 484.1130676269531 C 483.0 486.67950439453125 490.32049560546875 494.0 493.0151062011719 504.017822265625" stroke-width="0.0" fill="rgb(240, 240, 241)" opacity="0.9908181"/>
    <path d="M 451.5965270996094 538.8903198242188 C 448.3021545410156 548.8646240234375 440.77947998046875 556.0064086914062 430.7704162597656 558.623046875 C 421.0 556.3204956054688 413.67950439453125 549.0 410.9521179199219 538.941162109375 C 413.48175048828125 528.7398681640625 420.6441345214844 521.1953125 430.7927551269531 518.3096313476562 C 441.2090148925781 521.4375 448.61370849609375 528.7744140625 451.5965270996094 538.8903198242188" stroke-width="0.0" fill="rgb(250, 249, 250)" opacity="0.99100655"/>
    <path d="M 78.4102554321289 483.01788330078125 C 75.55402374267578 493.2460632324219 68.267333984375 500.626953125 58.14316177368164 503.27386474609375 C 47.81623077392578 500.46392822265625 40.36625671386719 493.23681640625 37.72978210449219 483.1872863769531 C 40.67949295043945 473.0 48.0 465.67950439453125 58.13270568847656 462.8117980957031 C 68.17986297607422 465.4380798339844 75.48269653320312 472.8476867675781 78.4102554321289 483.01788330078125" stroke-width="0.0" fill="rgb(254, 254, 254)" opacity="0.99088466"/>
    <path d="M 570.0247802734375 161.23207092285156 C 567.4232788085938 170.2554168701172 561.5673828125 179.17283630371094 551.92236328125 180.05841064453125 C 541.9218139648438 177.385498046875 534.6190185546875 170.07614135742188 531.9733276367188 160.3795166015625 C 534.590576171875 151.82952880859375 541.6026611328125 143.15634155273438 550.0927734375 141.9639434814453 C 560.0736694335938 144.6226043701172 567.385009765625 151.92291259765625 570.0247802734375 161.23207092285156" stroke-width="0.0" fill="rgb(2, 2, 2)" opacity="0.9900025"/>
    <path d="M 522.0 46.0 C 519.3204956054688 56.0 512.0 63.32050704956055 501.9024353027344 66.09569549560547 C 491.8338928222656 63.541873931884766 484.64971923828125 56.109474182128906 481.97686767578125 45.9063720703125 C 484.4549255371094 35.74097442626953 491.71368408203125 28.368074417114258 501.940185546875 26.16245460510254 C 512.0 28.67949104309082 519.3204956054688 36.0 522.0 46.0" stroke-width="0.0" fill="rgb(253, 253, 253)" opacity="0.9914657"/>
    <path d="M 61.502464294433594 5.841454029083252 C 58.51153564453125 16.19597816467285 51.213871002197266 23.570236206054688 41.132850646972656 26.191282272338867 C 31.0 23.32050895690918 23.67949104309082 16.0 20.834857940673828 5.923901557922363 C 23.597558975219727 -4.035976409912109 30.986583709716797 -11.326191902160645 40.99944305419922 -14.00035285949707 C 51.00529098510742 -11.32236385345459 58.40852737426758 -4.030365467071533 61.502464294433594 5.841454029083252" stroke-width="0.0" fill="rgb(252, 253, 253)" opacity="0.9916816"/>
    <path d="M 147.46810913085938 585.8018188476562 C 144.5924530029297 596.2219848632812 137.1819610595703 603.4629516601562 126.92851257324219 606.135498046875 C 116.74864959716797 603.5802612304688 109.47437286376953 596.2359008789062 106.42675018310547 585.8887329101562 C 109.66216278076172 576.077880859375 117.08796691894531 568.7062377929688 126.87113189697266 565.5709228515625 C 137.18365478515625 568.4926147460938 144.60586547851562 575.7872314453125 147.46810913085938 585.8018188476562" stroke-width="0.0" fill="rgb(255, 254, 254)" opacity="0.9906216"/>
    <path d="M 124.33187103271484 69.37739562988281 C 121.62232971191406 79.55835723876953 115.2989501953125 87.96345520019531 105.53285217285156 90.66294860839844 C 95.0 87.32051086425781 87.67948913574219 80.0 84.98248291015625 70.01010131835938 C 87.73172760009766 60.04019546508789 95.0297622680664 52.698238372802734 105.05638885498047 49.96215057373047 C 115.23307800292969 52.498817443847656 122.69097137451172 59.70747375488281 124.33187103271484 69.37739562988281" stroke-width="0.0" fill="rgb(249, 249, 248)" opacity="1.0"/>
    <path d="M 201.6212615966797 586.8895874023438 C 198.5668182373047 597.1875610351562 191.14987182617188 604.4443969726562 181.0546112060547 607.0237426757812 C 171.1017303466797 604.2495727539062 163.85025024414062 596.867431640625 160.84078979492188 587.1395263671875 C 163.6102294921875 576.7640991210938 170.70773315429688 569.379150390625 180.8753662109375 567.346923828125 C 191.1504364013672 569.6093139648438 198.62973022460938 576.7805786132812 201.6212615966797 586.8895874023438" stroke-width="0.0" fill="rgb(255, 254, 254)" opacity="0.99063146"/>
    <path d="M 49.17376708984375 134.0191192626953 C 46.215084075927734 143.95433044433594 39.01258850097656 151.40228271484375 29.10525131225586 154.40931701660156 C 18.833765029907227 151.49966430664062 11.539506912231445 144.15443420410156 9.016712188720703 134.05455017089844 C 11.778624534606934 124.04002380371094 19.011886596679688 116.68389129638672 29.00039291381836 114.0001449584961 C 38.99995803833008 116.67950439453125 46.319759368896484 124.000244140625 49.17376708984375 134.0191192626953" stroke-width="0.0" fill="rgb(254, 253, 253)" opacity="0.99098265"/>
    <path d="M 482.1109924316406 504.1573791503906 C 479.3902282714844 514.078369140625 472.075439453125 521.38232421875 463.0205383300781 524.023681640625 C 453.90594482421875 521.3912353515625 446.60498046875 514.095947265625 443.9736328125 505.5068359375 C 446.6169128417969 495.92218017578125 453.9218444824219 488.6162109375 463.6847229003906 485.9732666015625 C 472.19903564453125 488.5650634765625 479.76507568359375 495.6825866699219 482.1109924316406 504.1573791503906" stroke-width="0.0" fill="rgb(3, 3, 3)" opacity="0.99000233"/>
    <path d="M 67.15826416015625 532.8614501953125 C 64.05036926269531 542.7603759765625 56.82452392578125 550.3018798828125 46.997703552246094 553.5448608398438 C 36.639217376708984 550.682861328125 29.239459991455078 543.386474609375 26.804269790649414 533.2994384765625 C 29.734493255615234 523.0009155273438 36.98016357421875 515.6605834960938 47.00086212158203 512.9922485351562 C 57.03964614868164 515.652587890625 64.396484375 522.9454956054688 67.15826416015625 532.8614501953125" stroke-width="0.0" fill="rgb(254, 254, 254)" opacity="0.99069643"/>
    <path d="M 612.0057373046875 87.00640106201172 C 609.3558349609375 97.05660247802734 602.087158203125 104.4559326171875 592.0767822265625 107.12010955810547 C 582.0 104.32051086425781 574.6795043945312 97.0 572.0000610351562 87.0000228881836 C 574.6795654296875 77.0000228881836 582.0 69.67950439453125 591.9658203125 67.07278442382812 C 601.9857177734375 69.72005462646484 609.3228149414062 77.00175476074219 612.0057373046875 87.00640106201172" stroke-width="0.0" fill="rgb(254, 251, 253)" opacity="0.99563825"/>
    <path d="M 57.80496597290039 81.12596893310547 C 55.32110595703125 91.00225830078125 48.00706481933594 98.33798217773438 37.96289825439453 101.1738510131836 C 28.113380432128906 98.30335998535156 21.014789581298828 90.7879638671875 18.441869735717773 80.85413360595703 C 20.838970184326172 71.10746765136719 28.07429313659668 63.73011779785156 38.0096549987793 61.00908279418945 C 47.95984649658203 63.697486877441406 55.11856460571289 71.0980224609375 57.80496597290039 81.12596893310547" stroke-width="0.0" fill="rgb(253, 253, 253)" opacity="0.9910666"/>
    <path d="M 20.467239379882812 541.1903686523438 C 18.001741409301758 550.8056640625 10.888794898986816 558.2570190429688 0.9875174164772034 560.9926147460938 C -9.0 558.3204956054688 -16.32050895690918 551.0 -19.0 541.0 C -16.32050132751465 531.0 -8.999614715576172 523.6808471679688 1.1919976472854614 520.6650390625 C 11.115145683288574 523.4600830078125 18.022153854370117 531.0704345703125 20.467239379882812 541.1903686523438" stroke-width="0.0" fill="rgb(254, 253, 253)" opacity="0.99119246"/>
    <path d="M 562.7330322265625 550.7642211914062 C 560.3184814453125 561.0639038085938 553.0821533203125 568.3945922851562 543.0233154296875 571.0203857421875 C 533.0 568.3204956054688 525.6795043945312 561.0 522.9985961914062 550.9972534179688 C 525.6620483398438 540.9644775390625 532.9140014648438 533.4991455078125 542.71484375 530.5487670898438 C 553.1893310546875 533.5258178710938 560.5505981445312 540.7896118164062 562.7330322265625 550.7642211914062" stroke-width="0.0" fill="rgb(254, 254, 254)" opacity="0.9909792"/>
    <path d="M 398.17156982421875 561.1251831054688 C 395.5832214355469 571.2719116210938 388.2953186035156 578.6564331054688 378.1707763671875 581.201904296875 C 367.9975891113281 578.3310546875 360.7933654785156 570.9630737304688 358.2108459472656 561.048583984375 C 360.5021057128906 550.7278442382812 367.6590881347656 543.2628173828125 377.65875244140625 540.634521484375 C 387.93701171875 543.8217163085938 395.3106689453125 551.0226440429688 398.17156982421875 561.1251831054688" stroke-width="0.0" fill="rgb(254, 254, 254)" opacity="0.9907113"/>
    <path d="M 80.8809814453125 55.09855270385742 C 78.25640869140625 64.9219970703125 70.90153503417969 72.17971801757812 60.85105514526367 74.7161636352539 C 50.997135162353516 72.32941436767578 43.67953109741211 65.00037384033203 41.00004196166992 54.999942779541016 C 43.67949295043945 45.0 51.0 37.67949295043945 61.00212097167969 34.998878479003906 C 71.01812744140625 37.668731689453125 78.31881713867188 44.984134674072266 80.8809814453125 55.09855270385742" stroke-width="0.0" fill="rgb(254, 253, 253)" opacity="0.99175084"/>
    <path d="M 23.934629440307617 567.0341796875 C 21.364652633666992 577.05224609375 14.050891876220703 584.3579711914062 3.7318780422210693 587.5869140625 C -6.079516410827637 584.509765625 -13.329708099365234 577.023193359375 -16.000391006469727 567.0009765625 C -13.32050895690918 557.0 -6.000003814697266 549.6795043945312 4.070394515991211 546.9225463867188 C 14.13779354095459 549.5130004882812 21.352020263671875 556.90087890625 23.934629440307617 567.0341796875" stroke-width="0.0" fill="rgb(253, 253, 253)" opacity="0.991687"/>
    <path d="M 326.45892333984375 11.912599563598633 C 323.33856201171875 22.0052490234375 316.00048828125 29.321069717407227 306.03106689453125 31.964603424072266 C 296.0664978027344 29.243661880493164 288.7300109863281 21.94147491455078 286.0130615234375 11.984758377075195 C 288.67950439453125 2.0 296.0 -5.320508003234863 306.0385437011719 -8.031010627746582 C 316.1607971191406 -5.449986934661865 323.59417724609375 1.7947860956192017 326.45892333984375 11.912599563598633" stroke-width="0.0" fill="rgb(254, 253, 253)" opacity="0.9924834"/>
    <path d="M 518.0 563.0 C 515.3204956054688 573.0 508.0 580.3204956054688 497.99945068359375 583.0010986328125 C 488.02703857421875 580.3134765625 480.863037109375 572.9176025390625 478.3129577636719 562.8357543945312 C 480.67950439453125 553.0 488.0 545.6795043945312 498.0 543.0 C 508.0 545.6795043945312 515.3204956054688 553.0 518.0 563.0" stroke-width="0.0" fill="rgb(252, 252, 252)" opacity="0.9964123"/>
    <path d="M 567.4969482421875 119.82964324951172 C 564.2570190429688 129.99122619628906 557.0228881835938 137.35079956054688 546.6275634765625 140.5583038330078 C 537.0695190429688 137.5218505859375 530.1136474609375 129.7329864501953 527.8870239257812 119.62863159179688 C 529.2363891601562 109.65695190429688 536.7308349609375 102.4679183959961 546.9423828125 99.971923828125 C 557.0162963867188 102.67286682128906 564.4434204101562 109.94874572753906 567.4969482421875 119.82964324951172" stroke-width="0.0" fill="rgb(249, 248, 248)" opacity="1.0"/>
    <path d="M 100.00216674804688 82.9962387084961 C 97.32051086425781 93.0 90.0 100.32051086425781 80.0 103.0 C 70.0 100.32051086425781 62.67949295043945 93.0 60.338096618652344 83.1907958984375 C 62.92545700073242 73.15966796875 70.11109924316406 65.77304077148438 79.90426635742188 63.25495910644531 C 90.01194763183594 65.71177673339844 97.33710479736328 72.97589111328125 100.00216674804688 82.9962387084961" stroke-width="0.0" fill="rgb(254, 254, 253)" opacity="0.991733"/>
    <path d="M 521.390625 483.08941650390625 C 518.7012939453125 493.3439025878906 511.31744384765625 500.6165771484375 501.11871337890625 503.1202087402344 C 491.0 500.32049560546875 483.67950439453125 493.0 481.0001220703125 483.0003356933594 C 483.6837158203125 473.0118713378906 491.0487976074219 465.80657958984375 501.20892333984375 463.0135192871094 C 510.987060546875 465.6625671386719 518.2315673828125 473.045654296875 521.390625 483.08941650390625" stroke-width="0.0" fill="rgb(247, 247, 247)" opacity="0.99069315"/>
    <path d="M 49.13048553466797 198.94692993164062 C 46.46337127685547 209.1810760498047 39.18277359008789 216.47930908203125 29.051279067993164 219.04180908203125 C 19.017601013183594 216.31419372558594 11.858865737915039 208.92861938476562 9.151541709899902 198.69395446777344 C 11.688420295715332 189.01182556152344 19.009824752807617 181.68405151367188 29.0003719329834 179.00038146972656 C 38.992523193359375 181.68235778808594 46.27714920043945 189.01934814453125 49.13048553466797 198.94692993164062" stroke-width="0.0" fill="rgb(221, 221, 221)" opacity="0.99069864"/>
    <path d="M 513.0869140625 585.0611572265625 C 510.4530334472656 595.12109375 503.1182861328125 602.4425048828125 493.04638671875 605.0496826171875 C 483.0 602.3204956054688 475.67950439453125 595.0 472.8655090332031 584.9051513671875 C 475.48974609375 574.8388061523438 482.8524169921875 567.5352172851562 492.94598388671875 564.9430541992188 C 503.0 567.6795043945312 510.32049560546875 575.0 513.0869140625 585.0611572265625" stroke-width="0.0" fill="rgb(254, 253, 253)" opacity="0.99207574"/>
    <path d="M 559.042724609375 432.28704833984375 C 556.5477905273438 442.40325927734375 549.5226440429688 449.7406005859375 539.4554443359375 452.2517395019531 C 530.2468872070312 450.2004699707031 523.392822265625 442.5023498535156 520.947998046875 432.48504638671875 C 523.1183471679688 423.1988830566406 530.0359497070312 415.6915283203125 539.999755859375 413.00054931640625 C 549.9595336914062 415.6935119628906 556.8801879882812 423.2027587890625 559.042724609375 432.28704833984375" stroke-width="0.0" fill="rgb(2, 2, 3)" opacity="0.9900165"/>
    <path d="M 605.0723266601562 3.05924129486084 C 602.4559326171875 13.112433433532715 595.0951538085938 20.398942947387695 585.11572265625 22.807376861572266 C 574.8661499023438 20.274877548217773 567.4354858398438 13.211313247680664 564.8770141601562 2.905841112136841 C 567.6646118164062 -7.004032135009766 575.0 -14.320472717285156 585.0 -16.999996185302734 C 595.0 -14.320508003234863 602.3204956054688 -7.0 605.0723266601562 3.05924129486084" stroke-width="0.0" fill="rgb(254, 253, 253)" opacity="0.9916482"/>
    <path d="M 30.02590560913086 15.968733787536621 C 27.32050895690918 26.0 20.0 33.32050704956055 10.0 36.0 C 3.552713678800501e-15 33.32050704956055 -7.320508003234863 26.0 -9.983543395996094 16.022493362426758 C -7.23637056350708 6.112285137176514 0.144211083650589 -1.1320074796676636 10.156031608581543 -3.95938777923584 C 20.14328956604004 -1.4904426336288452 27.423667907714844 5.876988887786865 30.02590560913086 15.968733787536621" stroke-width="0.0" fill="rgb(253, 253, 253)" opacity="0.99473685"/>
    <path d="M 68.26846313476562 512.8531494140625 C 65.04627227783203 522.7900390625 57.83934783935547 530.204833984375 47.957000732421875 532.9873657226562 C 37.91447448730469 530.3784790039062 30.535863876342773 523.112060546875 27.516773223876953 512.83837890625 C 30.320186614990234 502.6642761230469 37.64987564086914 495.27703857421875 47.77885818481445 492.6263427734375 C 58.211830139160156 495.5149841308594 65.6364517211914 502.74127197265625 68.26846313476562 512.8531494140625" stroke-width="0.0" fill="rgb(255, 254, 254)" opacity="0.99087155"/>
    <path d="M 510.0375671386719 480.2850646972656 C 507.4862976074219 490.30859375 500.51690673828125 498.00982666015625 490.9931640625 500.9370422363281 C 481.4700927734375 498.02508544921875 474.5152282714844 490.3111267089844 471.972900390625 481.75628662109375 C 474.6181945800781 471.92486572265625 481.9261169433594 464.62115478515625 491.7205505371094 461.976806640625 C 500.14190673828125 464.59490966796875 507.56640625 471.7893371582031 510.0375671386719 480.2850646972656" stroke-width="0.0" fill="rgb(2, 2, 2)" opacity="0.9900041"/>
    <path d="M 497.0 598.0 C 494.32049560546875 608.0 487.0 615.3204956054688 477.0 618.0 C 467.0 615.3204956054688 459.67950439453125 608.0 457.00006103515625 597.9999389648438 C 459.6787109375 587.99755859375 466.9865417480469 580.6397094726562 476.9271545410156 577.8065795898438 C 487.0 580.6795043945312 494.32049560546875 588.0 497.0 598.0" stroke-width="0.0" fill="rgb(251, 252, 252)" opacity="0.99934834"/>
    <path d="M 609.9872436523438 196.99217224121094 C 607.2487182617188 206.87640380859375 599.7810668945312 213.96128845214844 589.67529296875 216.5465087890625 C 580.2432250976562 214.22152709960938 573.0138549804688 206.6917724609375 570.8861083984375 197.12599182128906 C 572.2534790039062 186.61282348632812 579.66162109375 179.42108154296875 589.8076171875 176.62567138671875 C 599.9102172851562 179.83216857910156 607.288818359375 187.05274963378906 609.9872436523438 196.99217224121094" stroke-width="0.0" fill="rgb(249, 249, 249)" opacity="1.0"/>
    <path d="M 121.44667053222656 50.80104064941406 C 119.083740234375 60.89079666137695 111.96160125732422 68.30416870117188 102.01435089111328 70.98822784423828 C 92.10757446289062 68.25042724609375 84.95863342285156 60.82597351074219 82.38543701171875 50.76090621948242 C 84.66754150390625 40.995540618896484 91.998779296875 33.67904281616211 102.03160095214844 31.08988380432129 C 112.1630859375 33.48999786376953 119.1820297241211 40.92819595336914 121.44667053222656 50.80104064941406" stroke-width="0.0" fill="rgb(253, 253, 252)" opacity="0.99128747"/>
    <path d="M 107.5621337890625 28.02518653869629 C 104.49754333496094 38.07508087158203 97.02291107177734 45.32948684692383 86.95845031738281 48.07586669921875 C 76.96284484863281 45.387691497802734 69.66850280761719 38.02037048339844 66.87635040283203 27.905405044555664 C 69.47945404052734 17.84099006652832 76.85958099365234 10.533504486083984 86.85802459716797 7.4903483390808105 C 97.10670471191406 10.7265043258667 104.62094116210938 17.791275024414062 107.5621337890625 28.02518653869629" stroke-width="0.0" fill="rgb(253, 254, 253)" opacity="0.99108416"/>
    <path d="M 43.950645446777344 215.89645385742188 C 41.261783599853516 225.92620849609375 33.9260368347168 233.26148986816406 23.362579345703125 235.97535705566406 C 12.091992378234863 233.2544708251953 4.804321765899658 225.8864288330078 2.1994848251342773 215.64564514160156 C 5.209300518035889 204.6171417236328 12.677225112915039 197.3970184326172 22.900724411010742 194.90394592285156 C 33.04917907714844 197.65374755859375 40.57840347290039 204.8757781982422 43.950645446777344 215.89645385742188" stroke-width="0.0" fill="rgb(248, 248, 249)" opacity="0.9900211"/>
    <path d="M 434.9281311035156 550.9734497070312 C 432.33685302734375 561.0895385742188 425.13592529296875 568.4964599609375 415.10321044921875 570.9403686523438 C 405.03265380859375 568.2627563476562 397.6937561035156 560.9800415039062 395.0028076171875 550.9966430664062 C 397.68182373046875 541.005859375 405.0133972167969 533.70751953125 414.9799499511719 530.9012451171875 C 425.0 533.6795654296875 432.32049560546875 541.0 434.9281311035156 550.9734497070312" stroke-width="0.0" fill="rgb(254, 253, 253)" opacity="0.9914917"/>
    <path d="M 536.3780517578125 531.74072265625 C 533.3182373046875 541.999267578125 525.9998779296875 549.3204345703125 516.0 552.0 C 506.0 549.3204956054688 498.67950439453125 542.0 496.3087463378906 532.100830078125 C 498.5184326171875 521.6719360351562 505.580322265625 514.1806030273438 515.7115478515625 511.40966796875 C 526.2281494140625 514.520751953125 533.701171875 521.7042236328125 536.3780517578125 531.74072265625" stroke-width="0.0" fill="rgb(254, 254, 254)" opacity="0.9909404"/>
    <path d="M 320.6529235839844 567.58935546875 C 317.16558837890625 577.9078369140625 309.94659423828125 585.2914428710938 299.99468994140625 587.9971313476562 C 290.0 585.3204956054688 282.67950439453125 578.0 279.9073791503906 567.9241943359375 C 282.55267333984375 558.0371704101562 290.299072265625 551.224853515625 300.239013671875 548.869384765625 C 310.0862731933594 551.0360717773438 317.80999755859375 557.6550903320312 320.6529235839844 567.58935546875" stroke-width="0.0" fill="rgb(249, 249, 249)" opacity="1.0"/>
    <path d="M 488.15142822265625 41.150455474853516 C 485.65264892578125 51.300865173339844 478.28369140625 58.6005973815918 468.1944580078125 61.103275299072266 C 457.9795837402344 58.3321533203125 450.8031311035156 50.97746276855469 448.51641845703125 41.101924896240234 C 450.9394226074219 31.1168155670166 458.0539855957031 23.762821197509766 468.202392578125 20.959701538085938 C 478.2273254394531 23.399227142333984 485.44525146484375 30.818756103515625 488.15142822265625 41.150455474853516" stroke-width="0.0" fill="rgb(255, 254, 254)" opacity="0.9906697"/>
    <path d="M 127.75053405761719 553.8072509765625 C 125.11038970947266 563.9447631835938 118.05550384521484 571.434326171875 107.8201675415039 574.508544921875 C 97.97771453857422 571.436767578125 90.70691680908203 563.978759765625 88.04286193847656 553.9960327148438 C 90.62799072265625 543.8890991210938 97.84549713134766 536.4811401367188 107.81395721435547 533.5596313476562 C 117.98291778564453 536.8261108398438 125.41995239257812 543.9385375976562 127.75053405761719 553.8072509765625" stroke-width="0.0" fill="rgb(254, 254, 254)" opacity="0.99080235"/>
    <path d="M 557.2196044921875 560.14208984375 C 554.56494140625 570.1964721679688 547.171875 577.4849243164062 537.0638427734375 580.0721435546875 C 527.0 577.3204956054688 519.6795043945312 570.0 517.0 560.0 C 519.6795043945312 550.0 527.0 542.6795043945312 537.0 540.0 C 547.0 542.6795043945312 554.3204956054688 550.0 557.2196044921875 560.14208984375" stroke-width="0.0" fill="rgb(253, 253, 253)" opacity="0.9924525"/>
    <path d="M 564.0265502929688 418.5137023925781 C 561.400146484375 428.1244812011719 554.1795043945312 435.5633850097656 544.5719604492188 438.6489562988281 C 535.0 436.32049560546875 527.6795043945312 429.0 525.814697265625 419.7889404296875 C 528.592041015625 409.913818359375 535.924560546875 402.6213073730469 545.8950805664062 399.9664611816406 C 555.1149291992188 401.0032958984375 561.4297485351562 409.7439880371094 564.0265502929688 418.5137023925781" stroke-width="0.0" fill="rgb(2, 2, 2)" opacity="0.99000794"/>
    <path d="M 353.91558837890625 31.304349899291992 C 351.3472900390625 41.00806427001953 344.0007019042969 48.32072067260742 334.0 51.00000762939453 C 323.9999694824219 48.320526123046875 316.679443359375 41.00003433227539 313.9969177246094 30.996984481811523 C 316.6685791015625 20.98527717590332 323.9868469238281 13.676292419433594 334.1270446777344 10.825460433959961 C 343.93194580078125 13.69405460357666 351.0306396484375 21.15791893005371 353.91558837890625 31.304349899291992" stroke-width="0.0" fill="rgb(254, 253, 253)" opacity="0.9913021"/>
    <path d="M 576.0 96.0 C 573.3204956054688 106.00001525878906 566.0000610351562 113.3205795288086 556.002685546875 115.99884033203125 C 546.0277709960938 113.3056640625 538.7921752929688 105.94280242919922 536.3187255859375 96.02327728271484 C 538.9076538085938 86.0951919555664 545.9920043945312 78.5950698852539 555.9489135742188 75.92589569091797 C 566.0 78.67948913574219 573.3204956054688 86.0 576.0 96.0" stroke-width="0.0" fill="rgb(253, 253, 253)" opacity="0.9916579"/>
    <path d="M 609.0056762695312 377.9896240234375 C 606.3204345703125 387.9999694824219 598.9999389648438 395.3204040527344 588.9442138671875 397.9986877441406 C 578.8435668945312 395.5046691894531 571.9512939453125 388.0188293457031 569.904296875 377.4393310546875 C 571.9164428710938 368.1267395019531 579.0974731445312 360.82403564453125 589.2025756835938 357.5086975097656 C 599.15869140625 360.42242431640625 606.3743286132812 367.90576171875 609.0056762695312 377.9896240234375" stroke-width="0.0" fill="rgb(253, 253, 250)" opacity="0.9909867"/>
    <path d="M 612.0064697265625 538.0043334960938 C 609.3555297851562 548.0538330078125 602.0662231445312 555.3931884765625 591.985107421875 557.6997680664062 C 581.7735595703125 555.4674072265625 574.3810424804688 548.2689208984375 571.7460327148438 538.0707397460938 C 574.4158325195312 527.7198486328125 581.6929321289062 520.3253784179688 591.9700927734375 517.3560180664062 C 602.1105346679688 520.4594116210938 609.3435668945312 527.9518432617188 612.0064697265625 538.0043334960938" stroke-width="0.0" fill="rgb(255, 254, 254)" opacity="0.9906908"/>
    <path d="M 526.4034423828125 44.716468811035156 C 523.4833984375 55.176597595214844 516.1689453125 62.463348388671875 506.04388427734375 65.03482055664062 C 496.0 62.32050704956055 488.67950439453125 55.0 485.99993896484375 44.99998474121094 C 488.67950439453125 34.999996185302734 496.0 27.67949104309082 506.03314208984375 24.975082397460938 C 516.1573486328125 27.560007095336914 523.6044921875 34.79159164428711 526.4034423828125 44.716468811035156" stroke-width="0.0" fill="rgb(253, 253, 253)" opacity="0.99191606"/>
    <path d="M 396.1116638183594 50.08232879638672 C 393.4908142089844 60.14725112915039 386.2953796386719 67.84790802001953 376.65435791015625 70.80511474609375 C 366.36016845703125 66.87290954589844 358.8023986816406 59.733734130859375 355.76165771484375 49.86518478393555 C 358.3399963378906 39.662933349609375 365.658203125 32.325016021728516 375.83648681640625 29.823732376098633 C 385.99993896484375 32.679534912109375 393.3204345703125 40.000057220458984 396.1116638183594 50.08232879638672" stroke-width="0.0" fill="rgb(250, 248, 248)" opacity="1.0"/>
    <path d="M 582.0283813476562 456.9640197753906 C 579.3204956054688 467.0 572.0 474.32049560546875 562.0000610351562 476.9999084472656 C 552.0000610351562 474.32037353515625 544.6795043945312 466.99993896484375 541.1373291015625 456.1784362792969 C 543.7614135742188 446.09063720703125 551.0887451171875 438.7562561035156 561.1598510742188 436.1036376953125 C 572.207275390625 439.410400390625 579.4462280273438 446.8371887207031 582.0283813476562 456.9640197753906" stroke-width="0.0" fill="rgb(255, 254, 255)" opacity="1.0"/>
    <path d="M 537.0 550.0 C 534.3204956054688 560.0 527.0 567.3204956054688 517.0 570.0 C 507.0 567.3204956054688 499.67950439453125 560.0 497.0 550.0 C 499.67950439453125 540.0 506.9999694824219 532.679443359375 517.0 530.0 C 527.0 532.6795043945312 534.320556640625 539.9999389648438 537.0 550.0" stroke-width="0.0" fill="rgb(252, 252, 252)" opacity="0.99998623"/>
    <path d="M 569.0745239257812 27.93665885925293 C 566.3837280273438 38.161773681640625 559.21142578125 45.564109802246094 549.2743530273438 48.14468765258789 C 539.0360717773438 45.225162506103516 531.6824340820312 37.99116134643555 529.0 27.99983024597168 C 531.6795043945312 17.999950408935547 538.9986572265625 10.674593925476074 548.9324951171875 7.802331447601318 C 558.9827270507812 10.733012199401855 566.294189453125 18.008710861206055 569.0745239257812 27.93665885925293" stroke-width="0.0" fill="rgb(255, 254, 254)" opacity="0.99083596"/>
    <path d="M 233.7757110595703 41.85536575317383 C 231.13612365722656 52.06418991088867 224.20794677734375 59.623111724853516 214.14015197753906 62.489723205566406 C 204.03842163085938 59.24170684814453 196.6768035888672 51.98662567138672 193.9967803955078 42.00310134887695 C 196.6794891357422 32.0 204.0 24.67949104309082 213.9824981689453 22.01053810119629 C 223.89158630371094 24.753917694091797 231.1638946533203 32.1341438293457 233.7757110595703 41.85536575317383" stroke-width="0.0" fill="rgb(254, 254, 254)" opacity="0.99085766"/>
    <path d="M 561.001220703125 24.997888565063477 C 558.3204345703125 34.99995803833008 551.0 42.32050323486328 541.1375732421875 44.70907974243164 C 530.9743041992188 42.21298599243164 523.5272827148438 35.102664947509766 520.9116821289062 25.069541931152344 C 523.6692504882812 14.983162879943848 530.9661865234375 7.611196994781494 540.871337890625 4.590703964233398 C 550.9935302734375 7.719610691070557 558.3276977539062 14.993077278137207 561.001220703125 24.997888565063477" stroke-width="0.0" fill="rgb(254, 253, 253)" opacity="0.99136794"/>
    <path d="M 590.072509765625 461.9880065917969 C 587.4067993164062 472.0637512207031 580.0147094726562 479.2391052246094 569.8238525390625 482.4722595214844 C 559.9490966796875 479.4419860839844 552.6727905273438 472.01641845703125 549.9996337890625 462.00079345703125 C 552.6795043945312 452.0 560.0 444.6794738769531 570.2609252929688 441.5926818847656 C 580.2612915039062 444.3171691894531 587.4735717773438 451.80560302734375 590.072509765625 461.9880065917969" stroke-width="0.0" fill="rgb(254, 253, 254)" opacity="0.99183357"/>
    <path d="M 602.2525024414062 53.17829895019531 C 599.6283569335938 63.23796844482422 592.18798828125 70.4675064086914 582.0427856445312 73.03315734863281 C 572.0 70.32050323486328 564.6795043945312 63.0 561.7955322265625 52.84129333496094 C 564.3560180664062 42.681766510009766 571.6675415039062 35.312503814697266 581.8125 32.77458190917969 C 592.0 35.67949295043945 599.3204956054688 43.0 602.2525024414062 53.17829895019531" stroke-width="0.0" fill="rgb(254, 253, 253)" opacity="0.99196357"/>
    <path d="M 310.9998779296875 6.999927520751953 C 308.3202819824219 16.999706268310547 301.0046081542969 24.3383731842041 290.99603271484375 27.49685287475586 C 281.1419982910156 24.231922149658203 273.9576721191406 16.80156898498535 270.80670166015625 6.656331539154053 C 273.5185546875 -3.091134786605835 280.9493408203125 -10.349406242370605 290.9944152832031 -13.003090858459473 C 301.0 -10.32050895690918 308.32049560546875 -3.0000030994415283 310.9998779296875 6.999927520751953" stroke-width="0.0" fill="rgb(254, 253, 253)" opacity="0.9913157"/>
    <path d="M 511.7999572753906 494.3100891113281 C 508.7023010253906 505.3890075683594 501.438232421875 512.843994140625 490.4991760253906 515.72900390625 C 480.1757507324219 513.1526489257812 472.9634704589844 505.7997741699219 470.0722961425781 494.1075134277344 C 472.7503662109375 484.0849304199219 480.0836181640625 476.7474365234375 490.1344909667969 474.0498962402344 C 501.65478515625 477.2852478027344 509.16229248046875 484.2314758300781 511.7999572753906 494.3100891113281" stroke-width="0.0" fill="rgb(249, 248, 248)" opacity="0.9900096"/>
    <path d="M 53.021949768066406 571.9494018554688 C 50.32414627075195 582.0020751953125 43.001129150390625 589.321044921875 32.925716400146484 592.068115234375 C 22.77339744567871 589.5289306640625 15.416288375854492 582.2432861328125 12.865157127380371 572.0962524414062 C 15.601794242858887 561.9007568359375 22.873811721801758 554.51318359375 33.013282775878906 551.808349609375 C 43.14519500732422 554.5415649414062 50.474586486816406 561.8487548828125 53.021949768066406 571.9494018554688" stroke-width="0.0" fill="rgb(254, 254, 254)" opacity="0.99094695"/>
    <path d="M 404.2278137207031 17.816686630249023 C 401.3204650878906 27.999956130981445 393.99993896484375 35.32041549682617 384.0151672363281 37.98918533325195 C 374.09490966796875 35.257164001464844 366.89910888671875 27.85651206970215 363.8528137207031 17.737775802612305 C 366.3365478515625 7.656320571899414 373.658203125 0.3428195118904114 384.02880859375 -2.277404308319092 C 394.3016357421875 0.37004080414772034 401.6742248535156 7.683818817138672 404.2278137207031 17.816686630249023" stroke-width="0.0" fill="rgb(254, 254, 253)" opacity="0.9910972"/>
    <path d="M 115.10897827148438 97.50804138183594 C 112.53956604003906 107.2646484375 105.26544952392578 114.54220581054688 95.67382049560547 117.11177062988281 C 86.49142456054688 114.66544342041016 78.89326477050781 107.6684341430664 76.66082000732422 98.56063842773438 C 79.43507385253906 88.73209381103516 86.74417877197266 81.46755981445312 96.30826568603516 78.90046691894531 C 105.47969818115234 81.36557006835938 112.83993530273438 88.41248321533203 115.10897827148438 97.50804138183594" stroke-width="0.0" fill="rgb(122, 123, 123)" opacity="0.9900075"/>
    <path d="M 527.9937133789062 79.98953247070312 C 525.2667846679688 89.90487670898438 517.8195190429688 97.00630950927734 507.76763916015625 99.47411346435547 C 497.9152526855469 97.31976318359375 490.45989990234375 90.14799499511719 487.66845703125 80.1229248046875 C 490.503173828125 69.76000213623047 497.7375793457031 62.415863037109375 507.89471435546875 59.8981819152832 C 517.9999389648438 62.679588317871094 525.3204345703125 70.00005340576172 527.9937133789062 79.98953247070312" stroke-width="0.0" fill="rgb(251, 254, 254)" opacity="0.9909854"/>
    <path d="M 579.0003662109375 67.99899291992188 C 576.3204956054688 78.0 569.0 85.320556640625 559.0284423828125 87.98116302490234 C 549.1522216796875 85.21007537841797 541.8907470703125 77.81632232666016 538.41259765625 67.76390838623047 C 541.3296508789062 57.710533142089844 548.7456665039062 50.45075607299805 559.2692260742188 47.46709060668945 C 569.0797729492188 50.4900016784668 576.329833984375 57.97657012939453 579.0003662109375 67.99899291992188" stroke-width="0.0" fill="rgb(253, 254, 253)" opacity="0.9910417"/>
    <path d="M 550.9776611328125 590.189453125 C 548.4337768554688 600.0576782226562 541.029052734375 607.3380126953125 531.0185546875 609.9930419921875 C 521.1146240234375 607.2507934570312 514.0133056640625 599.7987670898438 511.4531555175781 589.724609375 C 513.6795043945312 580.0 521.0 572.6795043945312 531.03271484375 569.9676513671875 C 541.06982421875 572.59326171875 548.2420654296875 579.97705078125 550.9776611328125 590.189453125" stroke-width="0.0" fill="rgb(254, 253, 253)" opacity="0.9914199"/>
    <path d="M 598.61474609375 102.8182373046875 C 596.2559814453125 113.17171478271484 589.2857055664062 120.69196319580078 579.169677734375 123.50434112548828 C 568.9588012695312 120.40199279785156 561.6806640625 113.01609802246094 559.0055541992188 102.99637603759766 C 561.679443359375 92.99994659423828 568.9999389648438 85.67941284179688 579.0 82.99983978271484 C 589.0 85.67947387695312 596.3204345703125 93.00003051757812 598.61474609375 102.8182373046875" stroke-width="0.0" fill="rgb(254, 254, 254)" opacity="0.9913627"/>
    <path d="M 559.0722045898438 425.9938659667969 C 556.3338623046875 436.00628662109375 549.0028686523438 443.3219299316406 539.06396484375 445.83697509765625 C 529.25830078125 443.1971435546875 522.4402465820312 435.4538269042969 519.973388671875 426.8543701171875 C 522.619140625 416.9130859375 529.8873901367188 409.5464172363281 539.6592407226562 406.63427734375 C 549.0138549804688 408.6615295410156 556.345458984375 415.98406982421875 559.0722045898438 425.9938659667969" stroke-width="0.0" fill="rgb(2, 2, 3)" opacity="0.99003506"/>
    <path d="M 284.88177490234375 565.0781860351562 C 282.32049560546875 575.0 275.0 582.3204956054688 265.0 585.0 C 255.0 582.3204956054688 247.6794891357422 575.0 244.76473999023438 564.9476928710938 C 247.93190002441406 555.44384765625 255.56309509277344 548.344970703125 265.40899658203125 545.5867309570312 C 274.80987548828125 547.93701171875 282.1587829589844 555.1593627929688 284.88177490234375 565.0781860351562" stroke-width="0.0" fill="rgb(249, 249, 249)" opacity="0.99349666"/>
    <path d="M 99.00517272949219 565.0029907226562 C 96.36442565917969 575.1084594726562 89.1688003540039 582.566162109375 79.01055908203125 585.6102294921875 C 68.72734069824219 582.6746826171875 61.56403732299805 575.2007446289062 58.53170394897461 564.9966430664062 C 61.659671783447266 554.9943237304688 68.99971008300781 547.679443359375 79.0 545.0 C 89.0 547.6795043945312 96.32051849365234 555.0 99.00517272949219 565.0029907226562" stroke-width="0.0" fill="rgb(255, 254, 254)" opacity="0.99086666"/>
    <path d="M 49.67719268798828 190.35806274414062 C 47.44792175292969 200.11367797851562 40.10595703125 207.42294311523438 30.034076690673828 210.07598876953125 C 19.961698532104492 207.34317016601562 12.530542373657227 200.07699584960938 9.513199806213379 189.91766357421875 C 12.533120155334473 179.93936157226562 19.981775283813477 172.67230224609375 29.891687393188477 170.0607452392578 C 39.599937438964844 173.0148468017578 46.81276321411133 180.45172119140625 49.67719268798828 190.35806274414062" stroke-width="0.0" fill="rgb(247, 248, 249)" opacity="0.99009687"/>
    <path d="M 614.0 31.999996185302734 C 611.3204956054688 42.0 604.0 49.32050704956055 594.0003051757812 51.999881744384766 C 584.0101928710938 49.31678009033203 576.7809448242188 41.960853576660156 573.4840698242188 31.584806442260742 C 576.3336791992188 21.76520347595215 583.8357543945312 14.553597450256348 593.9642944335938 11.971383094787598 C 604.0001220703125 14.67920207977295 611.3204956054688 21.999937057495117 614.0 31.999996185302734" stroke-width="0.0" fill="rgb(254, 253, 253)" opacity="0.99276114"/>
    <path d="M 544.8612060546875 457.19512939453125 C 541.3068237304688 468.0032958984375 534.0316162109375 475.40130615234375 523.9736938476562 478.2929992675781 C 513.7589111328125 475.5496520996094 506.32965087890625 468.2795104980469 503.3670654296875 458.0352783203125 C 506.38543701171875 447.75042724609375 513.721923828125 440.2999572753906 523.2471923828125 438.7189025878906 C 534.6446533203125 441.37506103515625 542.2124633789062 447.1689453125 544.8612060546875 457.19512939453125" stroke-width="0.0" fill="rgb(240, 238, 239)" opacity="0.99004513"/>
    <path d="M 361.4169921875 45.079856872558594 C 358.8327331542969 55.52326583862305 351.5396728515625 62.88673782348633 341.1890563964844 65.61690521240234 C 330.7295227050781 62.66619873046875 323.53155517578125 55.210140228271484 320.9788818359375 45.03583526611328 C 323.6796569824219 35.000125885009766 331.0001220703125 27.679656982421875 341.07049560546875 24.939735412597656 C 351.2478942871094 27.468076705932617 358.67193603515625 34.70881652832031 361.4169921875 45.079856872558594" stroke-width="0.0" fill="rgb(249, 249, 248)" opacity="0.99141103"/>
    <path d="M 486.9872131347656 551.9848022460938 C 484.2675476074219 561.9334716796875 476.91033935546875 569.1904296875 467.0067443847656 571.919189453125 C 456.7415466308594 569.5531005859375 449.45257568359375 562.2550048828125 446.5202331542969 551.8519287109375 C 449.33233642578125 541.6903686523438 456.71124267578125 534.40185546875 466.8896789550781 531.8916625976562 C 477.0 534.6795043945312 484.32049560546875 542.0 486.9872131347656 551.9848022460938" stroke-width="0.0" fill="rgb(254, 253, 253)" opacity="0.9909188"/>
    <path d="M 277.80804443359375 33.909767150878906 C 275.0157470703125 43.753116607666016 267.7783203125 51.0931396484375 257.8541564941406 54.209007263183594 C 247.84393310546875 51.49626159667969 240.5569305419922 44.139888763427734 237.96592712402344 34.039241790771484 C 240.6794891357422 24.0 248.0 16.67949104309082 258.1080322265625 13.856402397155762 C 268.1721496582031 16.463958740234375 275.4340515136719 23.858318328857422 277.80804443359375 33.909767150878906" stroke-width="0.0" fill="rgb(255, 254, 254)" opacity="0.99086654"/>
    <path d="M 318.5208740234375 586.317626953125 C 315.7908020019531 596.4087524414062 308.3633728027344 603.6460571289062 298.12530517578125 606.1157836914062 C 288.0 603.3204956054688 280.67950439453125 596.0 277.99993896484375 585.9999389648438 C 280.6794738769531 576.0 288.0 568.6795043945312 297.9989013671875 566.0006103515625 C 307.9802551269531 568.6881103515625 315.2304992675781 576.044189453125 318.5208740234375 586.317626953125" stroke-width="0.0" fill="rgb(251, 253, 253)" opacity="0.99251693"/>
    <path d="M 87.373046875 117.51632690429688 C 85.02899932861328 126.53434753417969 77.42855072021484 133.65646362304688 67.30184173583984 136.1929473876953 C 57.740814208984375 134.7784423828125 50.56610107421875 127.1309814453125 47.94600296020508 117.04339599609375 C 50.679500579833984 107.0 58.0 99.67948913574219 68.2216796875 96.79266357421875 C 78.46556091308594 99.2100601196289 85.14205169677734 106.6385498046875 87.373046875 117.51632690429688" stroke-width="0.0" fill="rgb(249, 249, 248)" opacity="1.0"/>
    <path d="M 72.772216796875 451.337890625 C 69.62256622314453 462.29364013671875 62.27997589111328 469.579345703125 52.096534729003906 472.0892028808594 C 42.0 469.32049560546875 34.67949295043945 462.0 31.962905883789062 451.98370361328125 C 34.660789489746094 441.99188232421875 41.996891021728516 434.6781921386719 52.3099479675293 431.7200927734375 C 62.67317581176758 434.062255859375 70.11946868896484 441.26629638671875 72.772216796875 451.337890625" stroke-width="0.0" fill="rgb(252, 252, 252)" opacity="0.9930199"/>
    <path d="M 60.070953369140625 589.7179565429688 C 57.231224060058594 599.9808959960938 50.013824462890625 607.3411254882812 40.02211380004883 609.996826171875 C 30.10152816772461 607.2549438476562 22.929109573364258 599.8406982421875 20.040681838989258 589.8629760742188 C 22.75857925415039 580.0318603515625 30.009716033935547 572.6831665039062 40.089725494384766 569.915283203125 C 50.26569366455078 572.4375610351562 57.67722702026367 579.6988525390625 60.070953369140625 589.7179565429688" stroke-width="0.0" fill="rgb(253, 253, 253)" opacity="0.99127734"/>
    <path d="M 423.0062255859375 547.9872436523438 C 420.3160705566406 557.9884033203125 412.9609680175781 565.2235717773438 402.77056884765625 568.4068603515625 C 392.9554138183594 565.416015625 385.6688232421875 558.0194702148438 382.8135070800781 547.8321533203125 C 385.324462890625 537.6739501953125 392.7110595703125 530.4572143554688 403.32781982421875 527.3977661132812 C 413.2223815917969 530.3090209960938 420.3871154785156 537.87939453125 423.0062255859375 547.9872436523438" stroke-width="0.0" fill="rgb(254, 253, 253)" opacity="0.99114096"/>
    <path d="M 435.2008361816406 23.167505264282227 C 432.39984130859375 32.93648910522461 424.8219909667969 40.02787780761719 414.81964111328125 42.74131393432617 C 405.0000305175781 40.32047653198242 397.6795654296875 32.99994659423828 394.9241943359375 22.918495178222656 C 397.45806884765625 12.765562057495117 404.7483825683594 5.399731636047363 414.8016052246094 2.454589605331421 C 425.0572204589844 5.6437177658081055 432.4073791503906 12.927730560302734 435.2008361816406 23.167505264282227" stroke-width="0.0" fill="rgb(254, 254, 254)" opacity="0.9909791"/>
    <path d="M 151.9998779296875 0.999961256980896 C 149.3204345703125 10.9999361038208 141.99993896484375 18.320430755615234 131.69644165039062 21.44317054748535 C 121.65502166748047 18.75603675842285 114.50367736816406 11.268059730529785 111.94986724853516 0.8466746211051941 C 114.65899658203125 -9.00607681274414 121.99951934814453 -16.32065200805664 132.0 -19.000001907348633 C 142.0 -16.32050895690918 149.3205108642578 -9.0 151.9998779296875 0.999961256980896" stroke-width="0.0" fill="rgb(253, 253, 253)" opacity="0.9916624"/>
    <path d="M 284.9999694824219 598.0 C 282.32049560546875 608.0 275.0 615.3204956054688 265.0 618.0 C 255.0 615.3204956054688 247.6794891357422 608.0 245.0 598.0 C 247.6794891357422 588.0 255.0 580.6795043945312 265.0000305175781 577.9999389648438 C 275.0000305175781 580.679443359375 282.3205261230469 588.0 284.9999694824219 598.0" stroke-width="0.0" fill="rgb(251, 252, 250)" opacity="0.99992"/>
    <path d="M 53.021602630615234 54.973487854003906 C 50.32050323486328 65.0 43.0 72.32051086425781 32.93622970581055 75.0741195678711 C 22.863054275512695 72.47314453125 15.589061737060547 65.11911010742188 13.028338432312012 55.01138687133789 C 15.679491996765137 45.0 23.0 37.67949295043945 33.06760787963867 34.91767501831055 C 43.12743377685547 37.52659225463867 50.40997314453125 44.89181900024414 53.021602630615234 54.973487854003906" stroke-width="0.0" fill="rgb(253, 253, 253)" opacity="0.99305266"/>
    <path d="M 260.0010681152344 580.9976806640625 C 257.32049560546875 591.0 250.0 598.3204956054688 240.0 601.0 C 229.99957275390625 598.3206176757812 222.66012573242188 591.0057373046875 219.90060424804688 581.1831665039062 C 222.7865447998047 571.1187133789062 230.1995849609375 564.0194702148438 240.40176391601562 561.1482543945312 C 250.0865020751953 563.5001831054688 257.3369140625 570.964111328125 260.0010681152344 580.9976806640625" stroke-width="0.0" fill="rgb(254, 253, 253)" opacity="0.99137026"/>
    <path d="M 273.0 29.999988555908203 C 270.32049560546875 40.0 263.0 47.32050704956055 253.0096893310547 49.95985794067383 C 242.92361450195312 47.351627349853516 235.5109100341797 40.117130279541016 232.88461303710938 30.08587646484375 C 235.67958068847656 20.00006866455078 243.00006103515625 12.679574012756348 253.00003051757812 10.000162124633789 C 263.0 12.679500579833984 270.3205261230469 19.999975204467773 273.0 29.999988555908203" stroke-width="0.0" fill="rgb(253, 253, 253)" opacity="0.99234015"/>
    <path d="M 40.39705276489258 169.83242797851562 C 37.32627868652344 180.0023651123047 30.000885009765625 187.321044921875 19.9676456451416 190.02699279785156 C 9.9048490524292 187.41799926757812 2.686220407485962 180.06796264648438 -0.5042861104011536 169.66529846191406 C 2.2661139965057373 159.67654418945312 9.739410400390625 152.46978759765625 19.874767303466797 149.80064392089844 C 29.99696922302246 152.69659423828125 37.37728500366211 159.98196411132812 40.39705276489258 169.83242797851562" stroke-width="0.0" fill="rgb(254, 254, 254)" opacity="0.99086314"/>
    <path d="M 616.0 460.0 C 613.320556640625 470.00006103515625 605.9996948242188 477.3192443847656 595.5867919921875 480.6203918457031 C 585.6504516601562 477.7857666015625 578.4686279296875 470.26611328125 575.9095458984375 460.02972412109375 C 578.5828857421875 449.9124755859375 585.9197387695312 442.6068420410156 595.9767456054688 439.9790344238281 C 606.0 442.67950439453125 613.3204956054688 450.0 616.0 460.0" stroke-width="0.0" fill="rgb(254, 254, 253)" opacity="0.9924166"/>
    <path d="M 511.99993896484375 545.9999389648438 C 509.32049560546875 556.0 501.9999694824219 563.3204345703125 491.9999694824219 565.9998779296875 C 482.0 563.3204956054688 474.67950439453125 556.0 472.0 546.0 C 474.67950439453125 536.0 482.0 528.6795043945312 492.2075500488281 525.5524291992188 C 502.0433044433594 528.5635986328125 509.32330322265625 535.990478515625 511.99993896484375 545.9999389648438" stroke-width="0.0" fill="rgb(253, 252, 252)" opacity="0.9959916"/>
    <path d="M 502.99530029296875 542.0062866210938 C 500.32049560546875 552.0 493.0 559.3204956054688 483.0 562.0 C 473.0 559.3204956054688 465.6795654296875 552.0 463.0003662109375 542.0 C 465.6795654296875 532.0000610351562 473.0000305175781 524.6795043945312 482.98455810546875 522.0206298828125 C 492.96710205078125 524.7169189453125 500.2973937988281 532.028564453125 502.99530029296875 542.0062866210938" stroke-width="0.0" fill="rgb(253, 250, 250)" opacity="0.9951143"/>
    <path d="M 47.2459831237793 30.16259002685547 C 44.50107192993164 40.10957717895508 37.06606674194336 47.360172271728516 27.00824737548828 50.00498580932617 C 17.0 47.32050704956055 9.679491996765137 40.0 7.0 30.0 C 9.679491996765137 20.0 17.0 12.679491996765137 26.997329711914062 10.001169204711914 C 36.956451416015625 12.699132919311523 44.12736511230469 20.097929000854492 47.2459831237793 30.16259002685547" stroke-width="0.0" fill="rgb(253, 253, 253)" opacity="0.9942604"/>
    <path d="M 99.04509735107422 557.94775390625 C 96.32051849365234 568.0 89.0 575.3204956054688 78.99996185302734 578.0 C 68.99886322021484 575.3209228515625 61.66899108886719 568.0039672851562 58.77754592895508 557.9442138671875 C 61.69419860839844 548.05126953125 69.1136703491211 540.890625 79.21184539794922 538.1575317382812 C 89.22561645507812 540.4107666015625 96.48336791992188 547.8069458007812 99.04509735107422 557.94775390625" stroke-width="0.0" fill="rgb(254, 254, 254)" opacity="0.9911201"/>
    <path d="M 78.998779296875 51.00040817260742 C 76.32046508789062 60.99994659423828 68.99993133544922 68.32042694091797 58.9999885559082 70.99980163574219 C 49.000030517578125 68.3204574584961 41.67950439453125 60.99998092651367 38.986263275146484 50.9932861328125 C 41.673797607421875 41.00661849975586 49.014625549316406 33.700584411621094 59.00851821899414 31.00956916809082 C 68.99998474121094 33.67949676513672 76.32027435302734 41.00008010864258 78.998779296875 51.00040817260742" stroke-width="0.0" fill="rgb(253, 252, 252)" opacity="0.9971809"/>
    <path d="M 53.000083923339844 467.9997863769531 C 50.316837310791016 477.98883056640625 42.947872161865234 485.1813659667969 33.01186752319336 487.4376220703125 C 23.261085510253906 484.9927673339844 15.913166046142578 477.7679138183594 12.965469360351562 468.0452880859375 C 15.805289268493652 457.99041748046875 22.913532257080078 450.5533142089844 32.9109992980957 447.8238525390625 C 42.999977111816406 450.6795349121094 50.32052993774414 458.0 53.000083923339844 467.9997863769531" stroke-width="0.0" fill="rgb(254, 254, 254)" opacity="0.9909473"/>
    <path d="M 51.572486877441406 126.30133819580078 C 48.61387634277344 136.15753173828125 41.0731086730957 143.35621643066406 31.005502700805664 146.00245666503906 C 20.999988555908203 143.32049560546875 13.679436683654785 136.00003051757812 10.999934196472168 126.00003051757812 C 13.679491996765137 116.0 21.0 108.67948913574219 30.960556030273438 106.0694351196289 C 41.006900787353516 108.73104858398438 48.41441345214844 115.94847106933594 51.572486877441406 126.30133819580078" stroke-width="0.0" fill="rgb(253, 253, 252)" opacity="0.99258024"/>
    <path d="M 256.0 592.0 C 253.3205108642578 602.0 246.0 609.3204956054688 236.00413513183594 611.997802734375 C 226.04812622070312 609.2959594726562 218.87246704101562 601.8992919921875 216.03173828125 591.9097290039062 C 218.77467346191406 582.0557861328125 226.03297424316406 574.6988525390625 236.0038604736328 572.002197265625 C 246.0 574.6795043945312 253.3205108642578 582.0 256.0 592.0" stroke-width="0.0" fill="rgb(254, 253, 253)" opacity="0.9923582"/>
    <path d="M 397.16656494140625 596.8472290039062 C 394.2424621582031 606.9684448242188 386.9903564453125 614.31689453125 377.0 616.999755859375 C 367.009765625 614.31689453125 359.75927734375 606.9678344726562 356.6016845703125 596.7564697265625 C 359.3069763183594 586.6483154296875 366.6618957519531 579.353759765625 377.1869812011719 576.6238403320312 C 387.4476318359375 579.1961059570312 394.72906494140625 586.5750732421875 397.16656494140625 596.8472290039062" stroke-width="0.0" fill="rgb(254, 254, 254)" opacity="0.99097025"/>
    <path d="M 210.99659729003906 37.994136810302734 C 208.2910919189453 47.94947052001953 200.91441345214844 55.17645263671875 191.0697784423828 57.61060333251953 C 180.98892211914062 55.18545150756836 173.59022521972656 48.07971954345703 171.35736083984375 38.0463981628418 C 173.65318298339844 27.884899139404297 180.80455017089844 20.383434295654297 190.73605346679688 17.537073135375977 C 201.0 20.67949104309082 208.3205108642578 28.0 210.99659729003906 37.994136810302734" stroke-width="0.0" fill="rgb(254, 254, 254)" opacity="0.9907968"/>
    <path d="M 542.0 569.0 C 539.3204956054688 579.0 532.0 586.3204956054688 522.0 589.0 C 512.0000610351562 586.3204345703125 504.6795959472656 578.9999389648438 502.00018310546875 569.0 C 504.6795349121094 559.0 512.0 551.6795043945312 522.0 549.0 C 532.0 551.6795043945312 539.3204956054688 559.0 542.0 569.0" stroke-width="0.0" fill="rgb(254, 252, 252)" opacity="0.99993134"/>
    <path d="M 85.17597198486328 36.141197204589844 C 82.61905670166016 46.25822448730469 75.22663879394531 53.5156364440918 65.06446838378906 56.054161071777344 C 55.00553894042969 53.318458557128906 47.73823928833008 45.978111267089844 44.8424072265625 35.850341796875 C 47.751949310302734 26.053546905517578 55.01412582397461 18.61937141418457 65.24017333984375 15.45727825164795 C 75.1300277709961 18.4409122467041 82.35450744628906 25.934974670410156 85.17597198486328 36.141197204589844" stroke-width="0.0" fill="rgb(253, 253, 253)" opacity="0.991447"/>
    <path d="M 536.2211303710938 15.814032554626465 C 533.3030395507812 25.96895408630371 525.9483642578125 33.234954833984375 515.9315795898438 35.94544219970703 C 505.87615966796875 33.412322998046875 498.46270751953125 26.162208557128906 495.6268005371094 15.94858169555664 C 498.38751220703125 5.668086051940918 505.63690185546875 -1.717928171157837 515.8776245117188 -4.291623115539551 C 526.291748046875 -1.5896435976028442 533.6793212890625 5.680698871612549 536.2211303710938 15.814032554626465" stroke-width="0.0" fill="rgb(254, 254, 254)" opacity="0.99122643"/>
    <path d="M 81.82574462890625 100.50057220458984 C 78.54277038574219 111.09146881103516 71.02304077148438 118.32879638671875 60.99661636352539 121.00174713134766 C 50.93916320800781 118.34939575195312 43.466758728027344 111.11874389648438 40.471988677978516 101.11973571777344 C 43.65867233276367 91.00214385986328 51.03437805175781 83.76985168457031 61.13396453857422 81.26081848144531 C 71.22332763671875 83.55490112304688 78.91219329833984 90.6020736694336 81.82574462890625 100.50057220458984" stroke-width="0.0" fill="rgb(251, 253, 250)" opacity="0.9945639"/>
  </g>
</svg>
