<?xml version="1.0" ?>
<svg xmlns="http://www.w3.org/2000/svg" version="1.1" width="600" height="600">
  <defs/>
  <g>
    <path d="M 42.13866424560547 87.86387634277344 C 39.322078704833984 98.00067901611328 31.984012603759766 105.26335906982422 21.72062873840332 108.36140441894531 C 11.672703742980957 105.66728973388672 4.320151329040527 98.33138275146484 1.672802209854126 88.23320007324219 C 4.707695960998535 77.90302276611328 11.812801361083984 70.3988037109375 21.9193058013916 67.60623931884766 C 32.36436462402344 70.28608703613281 39.647857666015625 77.65625762939453 42.13866424560547 87.86387634277344" stroke-width="0.0" fill="rgb(255, 245, 238)" opacity="0.99064016"/>
    <path d="M 582.0200805664062 13.331330299377441 C 579.714599609375 23.399192810058594 572.416748046875 30.76853370666504 562.2355346679688 33.26826858520508 C 551.9777221679688 30.329153060913086 544.49658203125 23.07655143737793 541.5110473632812 13.18925666809082 C 544.5132446289062 2.858276605606079 551.8748779296875 -4.431543827056885 561.9563598632812 -7.029253005981445 C 571.918701171875 -4.274018287658691 579.0747680664062 3.144076347351074 582.0200805664062 13.331330299377441" stroke-width="0.0" fill="rgb(255, 245, 238)" opacity="0.9912311"/>
    <path d="M 453.1971435546875 2.178612470626831 C 450.6537780761719 12.317896842956543 443.31207275390625 19.6392879486084 433.12579345703125 22.468278884887695 C 422.99462890625 19.338499069213867 415.6793518066406 12.000460624694824 413.0 2.0000061988830566 C 415.67950439453125 -8.0 423.0 -15.320508003234863 433.0 -17.999998092651367 C 442.99969482421875 -15.320406913757324 450.3144836425781 -7.998060703277588 453.1971435546875 2.178612470626831" stroke-width="0.0" fill="rgb(255, 245, 238)" opacity="0.99218506"/>
    <path d="M 73.37775421142578 48.75246047973633 C 70.32051086425781 59.0 63.0 66.32051086425781 52.824241638183594 69.18402099609375 C 42.61574935913086 66.7047119140625 35.28902053833008 59.38660430908203 32.663002014160156 48.930747985839844 C 35.3820686340332 38.734886169433594 42.783203125 31.561899185180664 52.86655044555664 29.264625549316406 C 63.161800384521484 31.74578094482422 70.68627166748047 38.724239349365234 73.37775421142578 48.75246047973633" stroke-width="0.0" fill="rgb(255, 246, 238)" opacity="0.9907398"/>
    <path d="M 46.49299240112305 509.8929748535156 C 44.26201629638672 520.0857543945312 37.13666534423828 527.46435546875 27.05243682861328 530.0489501953125 C 17.0 527.3204956054688 9.679491996765137 520.0 7.144591808319092 509.95367431640625 C 9.374143600463867 499.6506042480469 16.621084213256836 492.2701110839844 26.759464263916016 489.6109619140625 C 37.206642150878906 492.5196838378906 44.441890716552734 499.8034362792969 46.49299240112305 509.8929748535156" stroke-width="0.0" fill="rgb(255, 245, 238)" opacity="0.9908724"/>
    <path d="M 595.81298828125 126.93724060058594 C 593.3359985351562 137.06494140625 586.0614624023438 144.33094787597656 575.9139404296875 147.1831817626953 C 565.9335327148438 144.33572387695312 558.4178466796875 137.14451599121094 555.5192260742188 127.24713897705078 C 558.4293823242188 116.7094497680664 565.6817016601562 109.33463287353516 575.8381958007812 106.82367706298828 C 586.0 109.67948913574219 593.3204956054688 117.0 595.81298828125 126.93724060058594" stroke-width="0.0" fill="rgb(255, 245, 238)" opacity="0.99105084"/>
    <path d="M 30.0 367.0 C 27.32050895690918 377.0 20.0 384.32049560546875 9.973262786865234 387.0413818359375 C -0.03302072733640671 384.371826171875 -7.3341522216796875 377.021728515625 -10.001800537109375 367.0029296875 C -7.320508003234863 357.0 -8.881784197001252e-15 349.67950439453125 10.0 347.0 C 20.0 349.67950439453125 27.32050895690918 357.0 30.0 367.0" stroke-width="0.0" fill="rgb(253, 244, 237)" opacity="0.9975796"/>
    <path d="M 462.63568115234375 78.75948333740234 C 461.20733642578125 88.88275146484375 453.8704528808594 96.15543365478516 443.88861083984375 97.03182983398438 C 433.9281005859375 94.37962341308594 426.6197204589844 87.07217407226562 423.9410705566406 77.07025146484375 C 424.7656555175781 67.13446044921875 432.28277587890625 61.4122314453125 442.3307800292969 58.97233581542969 C 452.12158203125 61.596439361572266 459.5188903808594 68.83840942382812 462.63568115234375 78.75948333740234" stroke-width="0.0" fill="rgb(2, 2, 2)" opacity="0.9900028"/>
    <path d="M 57.57749557495117 318.4648132324219 C 55.32050704956055 328.0 48.0 335.32049560546875 38.44052505493164 337.6128845214844 C 28.800870895385742 334.57098388671875 21.580488204956055 327.1470642089844 18.964828491210938 317.3758239746094 C 21.486719131469727 307.631591796875 27.170454025268555 299.76641845703125 37.06423568725586 298.230224609375 C 47.143829345703125 301.5826110839844 54.559200286865234 308.806640625 57.57749557495117 318.4648132324219" stroke-width="0.0" fill="rgb(17, 76, 2)" opacity="0.9900493"/>
    <path d="M 84.03303527832031 63.97083282470703 C 81.32051086425781 74.0 74.0 81.32051086425781 63.8232421875 84.23326873779297 C 53.74311828613281 81.64281463623047 46.54093551635742 74.20159149169922 43.97813415527344 64.03296661376953 C 46.6795654296875 54.00004959106445 54.00003433227539 46.679508209228516 64.04795837402344 43.937278747558594 C 74.08997344970703 46.571800231933594 81.39955139160156 53.918724060058594 84.03303527832031 63.97083282470703" stroke-width="0.0" fill="rgb(255, 245, 238)" opacity="0.991607"/>
    <path d="M 581.0813598632812 430.9367370605469 C 578.3204956054688 441.0 571.0 448.32049560546875 561.0 451.0 C 551.0 448.32049560546875 543.6795043945312 441.0 540.2595825195312 430.4306335449219 C 543.0355834960938 420.5040283203125 550.64306640625 413.4313659667969 560.9544677734375 410.9438781738281 C 571.0846557617188 413.6130065917969 578.4572143554688 420.89385986328125 581.0813598632812 430.9367370605469" stroke-width="0.0" fill="rgb(255, 245, 237)" opacity="0.9920716"/>
    <path d="M 603.2289428710938 276.0743713378906 C 600.6215209960938 286.2847900390625 593.2486572265625 293.4820861816406 582.9085083007812 296.21014404296875 C 572.6942749023438 293.4195556640625 565.0160522460938 286.4978942871094 562.35595703125 276.5238037109375 C 565.6795043945312 266.0 573.0 258.67950439453125 583.0086059570312 255.99440002441406 C 593.0579833984375 258.6416320800781 600.4493408203125 265.9143371582031 603.2289428710938 276.0743713378906" stroke-width="0.0" fill="rgb(250, 240, 233)" opacity="1.0"/>
    <path d="M 513.0 16.0 C 510.32049560546875 26.0 503.0 33.32050704956055 492.9970703125 36.00155258178711 C 482.97918701171875 33.334163665771484 475.68194580078125 26.017440795898438 472.4920959472656 15.65670394897461 C 475.3963317871094 5.779125690460205 482.8000183105469 -1.5316814184188843 492.9116516113281 -4.0978474617004395 C 503.0 -1.3205081224441528 510.32049560546875 6.0 513.0 16.0" stroke-width="0.0" fill="rgb(255, 245, 238)" opacity="0.9918106"/>
    <path d="M 524.5049438476562 560.8373413085938 C 521.4188232421875 571.0773315429688 514.06298828125 578.3739624023438 504.06500244140625 581.1773681640625 C 493.9767150878906 578.330078125 486.5306701660156 571.06591796875 483.7420959472656 561.1530151367188 C 486.6866149902344 551.0023193359375 494.0003662109375 543.6796264648438 504.02587890625 540.9806518554688 C 514.1345825195312 543.5818481445312 521.6015625 550.8078002929688 524.5049438476562 560.8373413085938" stroke-width="0.0" fill="rgb(255, 245, 238)" opacity="0.99104977"/>
    <path d="M 209.214111328125 581.1450805664062 C 206.57330322265625 591.1907348632812 199.15084838867188 598.444580078125 188.85328674316406 601.3291015625 C 178.86703491210938 598.5450439453125 171.61578369140625 591.082275390625 168.97561645507812 581.0209350585938 C 171.6794891357422 571.0 179.0 563.6795043945312 189.0 561.0 C 199.0 563.6795043945312 206.3205108642578 571.0 209.214111328125 581.1450805664062" stroke-width="0.0" fill="rgb(255, 245, 238)" opacity="0.99126995"/>
    <path d="M 572.4482421875 33.21725845336914 C 569.7288818359375 43.37659454345703 562.36376953125 50.68649673461914 552.166259765625 53.485252380371094 C 542.1246337890625 50.16790008544922 534.7517700195312 42.90036392211914 531.6942138671875 32.770347595214844 C 534.3134155273438 22.683870315551758 541.7127685546875 15.408181190490723 551.8955078125 12.900202751159668 C 562.0126953125 15.674251556396484 569.3997192382812 22.965431213378906 572.4482421875 33.21725845336914" stroke-width="0.0" fill="rgb(255, 245, 238)" opacity="0.99087346"/>
    <path d="M 595.5951538085938 546.1849365234375 C 593.596923828125 556.2813720703125 586.2755737304688 563.5816040039062 576.1014404296875 566.0997314453125 C 566.0 563.3204956054688 558.6795043945312 556.0 555.9991455078125 545.9982299804688 C 558.6687622070312 535.9783935546875 565.9556274414062 528.5927124023438 576.1557006835938 525.4716186523438 C 586.1763305664062 528.4407958984375 593.277099609375 535.8994140625 595.5951538085938 546.1849365234375" stroke-width="0.0" fill="rgb(255, 245, 237)" opacity="0.99119306"/>
    <path d="M 616.9998168945312 329.9999084472656 C 614.3170166015625 339.9905090332031 606.9636840820312 347.22613525390625 596.9577026367188 349.59869384765625 C 586.961181640625 347.28887939453125 579.5659790039062 340.0794677734375 576.6685791015625 329.8869323730469 C 579.4036865234375 319.7727966308594 586.7725830078125 312.4033508300781 596.836181640625 309.6844482421875 C 606.9879760742188 312.7052917480469 614.3184814453125 320.0050354003906 616.9998168945312 329.9999084472656" stroke-width="0.0" fill="rgb(255, 245, 237)" opacity="0.9907865"/>
    <path d="M 392.1788635253906 583.0949096679688 C 389.62786865234375 593.2921752929688 382.28472900390625 600.60400390625 372.1950378417969 602.9920043945312 C 362.1492614746094 600.1377563476562 354.9240417480469 592.83154296875 352.2759094238281 582.82568359375 C 354.6795349121094 572.97607421875 361.9552307128906 565.6063232421875 372.30023193359375 562.3619384765625 C 382.3601989746094 565.2068481445312 389.5178527832031 572.7290649414062 392.1788635253906 583.0949096679688" stroke-width="0.0" fill="rgb(251, 240, 236)" opacity="0.9908682"/>
    <path d="M 524.69873046875 488.18231201171875 C 522.3204956054688 498.0 515.0 505.32049560546875 504.9559326171875 508.0235290527344 C 494.65130615234375 505.53472900390625 486.9957275390625 498.5199279785156 484.2314147949219 488.56451416015625 C 487.3894958496094 477.72589111328125 494.84283447265625 470.9036560058594 504.6144104003906 468.89324951171875 C 514.5748291015625 471.2259216308594 522.00732421875 478.3423767089844 524.69873046875 488.18231201171875" stroke-width="0.0" fill="rgb(251, 242, 234)" opacity="1.0"/>
    <path d="M 527.5916137695312 12.699576377868652 C 524.2392578125 22.952123641967773 516.9708251953125 30.301803588867188 506.9956970214844 32.99697494506836 C 497.0 30.32050895690918 489.67950439453125 23.0 487.0003662109375 13.000125885009766 C 489.6796569824219 3.0000948905944824 497.00006103515625 -4.320466995239258 507.0560607910156 -7.048151969909668 C 517.2196655273438 -4.498363971710205 524.7096557617188 2.7124624252319336 527.5916137695312 12.699576377868652" stroke-width="0.0" fill="rgb(255, 244, 237)" opacity="0.99190176"/>
    <path d="M 100.14997100830078 75.14071655273438 C 97.63851928710938 85.308349609375 90.30042266845703 92.6114501953125 80.1120376586914 95.09625244140625 C 70.0 92.32051086425781 62.67947769165039 85.00000762939453 59.99991226196289 75.00004577636719 C 62.679595947265625 65.0000991821289 70.0001220703125 57.67966079711914 79.98810577392578 55.04432678222656 C 89.99894714355469 57.68311309814453 97.32049560546875 65.00007629394531 100.14997100830078 75.14071655273438" stroke-width="0.0" fill="rgb(254, 242, 235)" opacity="0.99444246"/>
    <path d="M 102.0 136.0 C 99.32051086425781 146.0 92.0 153.3205108642578 82.0 156.0 C 72.0 153.3205108642578 64.67948913574219 146.0 62.0 136.0 C 64.67948913574219 126.0 72.0 118.67948913574219 82.0 116.0 C 92.0 118.67948913574219 99.32051086425781 126.0 102.0 136.0" stroke-width="0.0" fill="rgb(224, 216, 211)" opacity="0.99200994"/>
    <path d="M 112.02969360351562 140.70889282226562 C 109.42127227783203 150.15858459472656 102.22798156738281 157.62173461914062 92.64083862304688 160.7078857421875 C 83.04647827148438 158.3042755126953 76.14008331298828 150.78182983398438 73.93387603759766 140.70848083496094 C 76.07836151123047 131.17642211914062 83.0340805053711 123.69120788574219 92.91642761230469 121.01100158691406 C 102.3865737915039 124.10134887695312 109.44598388671875 131.77220153808594 112.02969360351562 140.70889282226562" stroke-width="0.0" fill="rgb(4, 5, 4)" opacity="0.99001414"/>
    <path d="M 146.57044982910156 40.20026397705078 C 143.5803680419922 50.21826171875 136.23269653320312 57.616912841796875 126.16712188720703 60.23286056518555 C 116.00028991699219 57.32038879394531 108.66948699951172 50.002418518066406 105.5138168334961 39.901771545410156 C 108.5302505493164 29.93241310119629 115.97421264648438 22.667282104492188 125.9981460571289 19.999073028564453 C 136.00025939941406 22.679418563842773 143.33580017089844 29.995582580566406 146.57044982910156 40.20026397705078" stroke-width="0.0" fill="rgb(255, 245, 238)" opacity="0.991534"/>
    <path d="M 99.95783996582031 538.9945678710938 C 97.3780746459961 549.1143798828125 90.16105651855469 556.5353393554688 80.1141128540039 559.1608276367188 C 70.0 556.3204956054688 62.67949295043945 549.0 59.96398162841797 538.955078125 C 62.53392791748047 528.8272094726562 69.81371307373047 521.4925537109375 79.9922103881836 519.1492919921875 C 90.0 521.6795043945312 97.32051086425781 529.0 99.95783996582031 538.9945678710938" stroke-width="0.0" fill="rgb(255, 245, 237)" opacity="0.9919689"/>
    <path d="M 101.5103988647461 578.3135986328125 C 99.67582702636719 588.3350219726562 92.30419158935547 595.5699462890625 81.78692626953125 598.5042114257812 C 71.68793487548828 595.6751708984375 64.3910903930664 588.2918701171875 61.87010955810547 578.121826171875 C 64.67948913574219 568.0 72.0 560.6795043945312 81.96247100830078 558.008056640625 C 91.90332794189453 560.7962646484375 99.04510498046875 568.149169921875 101.5103988647461 578.3135986328125" stroke-width="0.0" fill="rgb(255, 246, 239)" opacity="0.99076736"/>
    <path d="M 605.1576538085938 88.89942932128906 C 602.3841552734375 99.04871368408203 595.0380859375 106.34896087646484 584.9785766601562 109.03569030761719 C 574.9413452148438 106.39299011230469 567.6956787109375 99.03363037109375 565.0382690429688 88.97191619873047 C 567.6029663085938 78.85598754882812 574.8199462890625 71.4727554321289 584.8521118164062 69.34025573730469 C 595.260009765625 71.48533630371094 602.6099853515625 78.71583557128906 605.1576538085938 88.89942932128906" stroke-width="0.0" fill="rgb(255, 245, 238)" opacity="0.9908904"/>
    <path d="M 63.04694366455078 95.937255859375 C 60.295196533203125 105.93929290771484 52.861839294433594 113.0560302734375 42.6793098449707 115.76886749267578 C 32.84564971923828 113.4720687866211 25.49603271484375 106.16522979736328 22.917224884033203 96.07569122314453 C 25.679031372070312 86.00035858154297 33.0136604309082 78.72632598876953 43.431121826171875 75.48107147216797 C 53.35745620727539 78.20362091064453 60.525848388671875 85.73152160644531 63.04694366455078 95.937255859375" stroke-width="0.0" fill="rgb(255, 245, 238)" opacity="0.99127036"/>
    <path d="M 561.3646850585938 449.27203369140625 C 558.765869140625 459.3871154785156 551.3495483398438 466.6448059082031 540.8799438476562 469.3949279785156 C 530.5652465820312 466.76214599609375 523.0829467773438 459.49041748046875 520.14453125 448.2980651855469 C 522.858154296875 438.2170715332031 530.2265014648438 430.8843688964844 540.3923950195312 428.3119201660156 C 551.0009155273438 431.6761779785156 558.3204956054688 438.9999694824219 561.3646850585938 449.27203369140625" stroke-width="0.0" fill="rgb(250, 240, 232)" opacity="1.0"/>
    <path d="M 110.74053192138672 119.40047454833984 C 107.48106384277344 129.1408233642578 100.12134552001953 136.4193115234375 90.19678497314453 139.1436767578125 C 81.0 137.3205108642578 73.67948913574219 130.0 71.0 120.0 C 73.67948913574219 110.0 81.0 102.67948913574219 91.21451568603516 99.71139526367188 C 101.38496398925781 102.28697204589844 108.80887603759766 109.58160400390625 110.74053192138672 119.40047454833984" stroke-width="0.0" fill="rgb(251, 241, 234)" opacity="0.99003893"/>
    <path d="M 578.0321044921875 579.0394287109375 C 575.4484252929688 589.1505126953125 568.160400390625 596.4775390625 557.86669921875 598.8561401367188 C 547.7406005859375 596.6243896484375 540.552001953125 589.2088012695312 538.22265625 579.1002197265625 C 540.8235473632812 569.04736328125 547.9856567382812 561.6331176757812 557.982666015625 558.9906005859375 C 568.0 561.6795043945312 575.3204956054688 569.0 578.0321044921875 579.0394287109375" stroke-width="0.0" fill="rgb(255, 246, 239)" opacity="0.9910365"/>
    <path d="M 50.53935623168945 176.190673828125 C 47.69533157348633 186.31378173828125 40.27100372314453 193.55357360839844 30.192594528198242 195.86888122558594 C 20.022777557373047 193.2775115966797 12.872035026550293 185.92503356933594 10.115612030029297 175.90591430664062 C 12.86519718170166 166.1533203125 20.105932235717773 158.68881225585938 29.895402908325195 155.5534210205078 C 40.243568420410156 158.4675750732422 47.63982391357422 165.7250518798828 50.53935623168945 176.190673828125" stroke-width="0.0" fill="rgb(255, 246, 239)" opacity="0.9905343"/>
    <path d="M 58.98149490356445 470.979736328125 C 56.30112838745117 480.9616394042969 48.92310333251953 488.1754455566406 39.039676666259766 490.8713073730469 C 28.80633544921875 488.4362487792969 21.426618576049805 481.2308654785156 18.564769744873047 471.0093994140625 C 21.386545181274414 460.73785400390625 28.7546443939209 453.44390869140625 38.927730560302734 450.5871887207031 C 49.07260513305664 453.6787109375 56.41114044189453 460.9027099609375 58.98149490356445 470.979736328125" stroke-width="0.0" fill="rgb(255, 245, 238)" opacity="0.9907545"/>
    <path d="M 201.1250762939453 566.8275756835938 C 198.3205108642578 577.0 191.0 584.3204956054688 181.00003051757812 586.9996337890625 C 171.00001525878906 584.3204956054688 163.6794891357422 577.0 161.00308227539062 567.001953125 C 163.68540954589844 557.0112915039062 171.0804443359375 549.9005126953125 181.72900390625 546.7295532226562 C 191.69570922851562 548.8863525390625 198.7999725341797 556.4110717773438 201.1250762939453 566.8275756835938" stroke-width="0.0" fill="rgb(251, 240, 231)" opacity="1.0"/>
    <path d="M 84.99981689453125 543.999755859375 C 82.32044982910156 554.0 74.99998474121094 561.3204956054688 64.99372100830078 564.0037841796875 C 54.94913864135742 561.3508911132812 47.52302551269531 554.0894165039062 44.71806716918945 543.9837036132812 C 47.335960388183594 533.6824340820312 54.727840423583984 526.5074462890625 65.15373992919922 523.7510986328125 C 75.0365982055664 526.5812377929688 82.32355499267578 533.991455078125 84.99981689453125 543.999755859375" stroke-width="0.0" fill="rgb(255, 245, 237)" opacity="0.99132985"/>
    <path d="M 98.20574188232422 107.8600845336914 C 95.32051086425781 118.0 88.0 125.32051086425781 77.95743560791016 128.03326416015625 C 67.82119750976562 125.46414947509766 60.41545867919922 118.21571350097656 57.834102630615234 108.13175201416016 C 60.67949295043945 98.0 68.0 90.67948913574219 77.96755981445312 88.06009674072266 C 88.06182861328125 90.70267486572266 95.55464935302734 97.85912322998047 98.20574188232422 107.8600845336914" stroke-width="0.0" fill="rgb(255, 245, 238)" opacity="0.9936877"/>
    <path d="M 521.2396240234375 112.88788604736328 C 518.3182983398438 122.99258422851562 510.92059326171875 130.09422302246094 500.3714599609375 132.18072509765625 C 491.275146484375 130.34353637695312 484.05072021484375 122.6456298828125 481.8309631347656 112.95063018798828 C 483.2109680175781 102.65074920654297 490.7365417480469 95.47080993652344 500.9679260253906 93.07344818115234 C 510.9795227050781 95.8061294555664 518.4385375976562 102.94290161132812 521.2396240234375 112.88788604736328" stroke-width="0.0" fill="rgb(250, 240, 234)" opacity="1.0"/>
    <path d="M 117.01565551757812 66.01367950439453 C 114.35494232177734 76.02223205566406 107.0116958618164 83.32218170166016 97.0781478881836 86.24263763427734 C 86.99911499023438 83.32274627685547 79.67938232421875 76.00028228759766 76.94707489013672 65.9518814086914 C 79.54755401611328 55.855186462402344 86.83126831054688 48.47042465209961 96.99263000488281 45.66105270385742 C 107.01873779296875 48.63763427734375 114.3238296508789 55.99247741699219 117.01565551757812 66.01367950439453" stroke-width="0.0" fill="rgb(255, 245, 238)" opacity="0.99160594"/>
    <path d="M 53.532718658447266 379.4387512207031 C 50.953678131103516 389.5689392089844 43.5242919921875 396.8205261230469 33.27862548828125 399.35931396484375 C 23.0 396.32049560546875 15.679491996765137 389.0 12.999752044677734 378.9993896484375 C 15.673916816711426 368.98614501953125 22.958715438842773 361.5816650390625 32.89896011352539 358.7783508300781 C 43.0 361.67950439453125 50.32050704956055 369.0 53.532718658447266 379.4387512207031" stroke-width="0.0" fill="rgb(247, 241, 233)" opacity="1.0"/>
    <path d="M 40.251617431640625 522.1728515625 C 37.61170959472656 532.2145385742188 30.16111946105957 539.4408569335938 19.873207092285156 542.1818237304688 C 9.650752067565918 539.6643676757812 2.261430263519287 532.372314453125 -0.6563093662261963 522.0510864257812 C 2.4395816326141357 511.8923645019531 9.965862274169922 504.6676330566406 19.999759674072266 502.0016174316406 C 29.999971389770508 504.6795349121094 37.32054901123047 512.0 40.251617431640625 522.1728515625" stroke-width="0.0" fill="rgb(255, 245, 237)" opacity="0.9912025"/>
    <path d="M 146.2378387451172 93.26883697509766 C 143.8684844970703 103.60275268554688 136.67745971679688 111.08335876464844 125.28105926513672 113.88554382324219 C 115.14445495605469 111.22489929199219 109.33007049560547 103.72216796875 106.96985626220703 93.80989837646484 C 109.5965576171875 83.87281799316406 116.82142639160156 76.44639587402344 125.36997985839844 73.87751770019531 C 135.50718688964844 76.38343811035156 143.1946258544922 83.25363159179688 146.2378387451172 93.26883697509766" stroke-width="0.0" fill="rgb(2, 2, 3)" opacity="0.9900048"/>
    <path d="M 22.132286071777344 272.1190185546875 C 19.598514556884766 282.2780456542969 12.287566184997559 289.63128662109375 2.047322988510132 292.57861328125 C -8.023686408996582 289.3918151855469 -15.321651458740234 282.0035400390625 -18.000019073486328 272.00006103515625 C -15.3204345703125 262.0002136230469 -7.99882173538208 254.6830291748047 2.006366491317749 252.0189666748047 C 12.0 254.6794891357422 19.32050895690918 262.0 22.132286071777344 272.1190185546875" stroke-width="0.0" fill="rgb(254, 244, 237)" opacity="0.99212384"/>
    <path d="M 527.6535034179688 534.6866455078125 C 524.378173828125 545.0643310546875 517.0811767578125 552.4284057617188 507.0463562011719 555.0538940429688 C 497.0 552.3204956054688 489.67950439453125 545.0 487.0 535.0 C 489.67950439453125 525.0 497.0 517.6795043945312 507.0357971191406 514.9756469726562 C 517.205810546875 517.5374145507812 524.751953125 524.6985473632812 527.6535034179688 534.6866455078125" stroke-width="0.0" fill="rgb(254, 244, 237)" opacity="0.99155843"/>
    <path d="M 495.99774169921875 67.99701690673828 C 493.31256103515625 77.99758911132812 486.02734375 85.41233825683594 475.8050231933594 88.12789916992188 C 465.2321472167969 85.99886322021484 457.7787780761719 78.84197235107422 455.0511474609375 68.8403549194336 C 458.27069091796875 57.81319046020508 465.9707336425781 50.70023727416992 476.0148010253906 48.0175666809082 C 486.0 50.67949295043945 493.32049560546875 58.0 495.99774169921875 67.99701690673828" stroke-width="0.0" fill="rgb(255, 245, 238)" opacity="1.0"/>
    <path d="M 148.3220977783203 31.77119255065918 C 145.16737365722656 41.92881774902344 137.97207641601562 49.308319091796875 127.99837493896484 51.99931335449219 C 117.99748229980469 49.32130432128906 110.62100982666016 42.01891326904297 107.67335510253906 32.215511322021484 C 110.73640441894531 22.033367156982422 118.02032470703125 14.692011833190918 128.00279235839844 12.000846862792969 C 138.0085906982422 14.67611312866211 145.40109252929688 21.968839645385742 148.3220977783203 31.77119255065918" stroke-width="0.0" fill="rgb(255, 245, 238)" opacity="0.9920239"/>
    <path d="M 421.0 2.0 C 418.32049560546875 12.0 411.0 19.32050895690918 401.0 22.0 C 391.0 19.32050895690918 383.67950439453125 12.0 381.0 2.0 C 383.67950439453125 -8.0 391.0 -15.320508003234863 401.0 -18.0 C 411.0 -15.320508003234863 418.32049560546875 -8.0 421.0 2.0" stroke-width="0.0" fill="rgb(252, 243, 236)" opacity="0.9999971"/>
    <path d="M 40.061187744140625 579.0690307617188 C 37.5403938293457 589.2635498046875 30.324296951293945 596.7327270507812 20.331825256347656 599.57666015625 C 9.704943656921387 596.56787109375 2.347687005996704 589.3173217773438 -0.268767386674881 579.25732421875 C 2.735851287841797 569.0012817382812 9.96990966796875 561.630126953125 19.980314254760742 558.96630859375 C 30.0096435546875 561.6695556640625 37.32941818237305 568.9906616210938 40.061187744140625 579.0690307617188" stroke-width="0.0" fill="rgb(255, 245, 238)" opacity="0.9909759"/>
    <path d="M 599.2457275390625 267.8279113769531 C 596.3204956054688 277.99993896484375 588.9998779296875 285.32025146484375 579.1016845703125 287.9256896972656 C 569.4470825195312 284.98382568359375 562.3920288085938 277.4200134277344 559.9251098632812 267.37030029296875 C 561.5693969726562 257.8427734375 568.8014526367188 250.43017578125 579.1340942382812 247.53689575195312 C 589.354248046875 250.26315307617188 596.6466674804688 257.67523193359375 599.2457275390625 267.8279113769531" stroke-width="0.0" fill="rgb(250, 241, 234)" opacity="1.0"/>
    <path d="M 188.9994354248047 571.0004272460938 C 186.3176727294922 580.9921875 178.9690704345703 588.23876953125 168.7977294921875 590.8406982421875 C 158.71205139160156 588.6006469726562 151.4073486328125 581.2838745117188 148.740478515625 571.0752563476562 C 151.44386291503906 560.7172241210938 158.66554260253906 553.2775268554688 168.70741271972656 550.8794555664062 C 178.98097229003906 553.7271118164062 186.31704711914062 561.0064086914062 188.9994354248047 571.0004272460938" stroke-width="0.0" fill="rgb(252, 242, 236)" opacity="0.99133563"/>
    <path d="M 560.139892578125 497.7598876953125 C 557.4207763671875 508.14068603515625 550.1433715820312 515.4315795898438 539.8013916015625 518.1138305664062 C 529.6782836914062 515.6347045898438 522.308349609375 508.3389892578125 519.6998901367188 498.1064147949219 C 522.4122924804688 487.72332763671875 529.716796875 480.3924255371094 539.8695678710938 477.7877502441406 C 550.2542114257812 480.4936218261719 557.6626586914062 487.7013244628906 560.139892578125 497.7598876953125" stroke-width="0.0" fill="rgb(255, 245, 238)" opacity="0.9905884"/>
    <path d="M 584.0 434.9999694824219 C 581.3204956054688 445.0 573.9999389648438 452.3203125 563.8646240234375 455.27783203125 C 553.9418334960938 452.4482727050781 546.6695556640625 445.02252197265625 543.9993286132812 435.00146484375 C 546.6796264648438 425.00006103515625 554.0 417.67950439453125 564.0000610351562 414.99993896484375 C 574.0001220703125 417.6793518066406 581.3206176757812 424.9998779296875 584.0 434.9999694824219" stroke-width="0.0" fill="rgb(254, 244, 235)" opacity="0.9962183"/>
    <path d="M 612.9984130859375 225.00347900390625 C 610.3240966796875 235.00827026367188 603.0152587890625 242.34722900390625 592.7528686523438 245.4211883544922 C 582.79150390625 242.59226989746094 575.6122436523438 235.15199279785156 572.7210693359375 224.91879272460938 C 575.6724243164062 215.00607299804688 583.0333862304688 207.76634216308594 592.9671630859375 205.44134521484375 C 602.934814453125 207.81076049804688 610.303955078125 215.03050231933594 612.9984130859375 225.00347900390625" stroke-width="0.0" fill="rgb(255, 245, 237)" opacity="0.9909501"/>
    <path d="M 612.0037841796875 476.0059814453125 C 609.3468017578125 486.03973388671875 602.0548095703125 493.3960876464844 592.0012817382812 496.05035400390625 C 581.85400390625 493.4297180175781 574.4619140625 486.1794128417969 571.7219848632812 475.943603515625 C 574.6650390625 465.9959411621094 581.9998779296875 458.679443359375 592.0 456.0 C 602.0 458.67950439453125 609.3204956054688 466.0 612.0037841796875 476.0059814453125" stroke-width="0.0" fill="rgb(255, 245, 237)" opacity="0.9926953"/>
    <path d="M 64.0247573852539 255.60604858398438 C 61.38103485107422 265.0727844238281 54.071533203125 272.3780822753906 44.065555572509766 275.0646667480469 C 34.16372299194336 274.2132568359375 26.982107162475586 266.7699279785156 25.198060989379883 256.4745788574219 C 27.580089569091797 245.3566436767578 34.18006134033203 237.7743682861328 44.177711486816406 235.03866577148438 C 54.238521575927734 238.57821655273438 61.40089416503906 246.8675537109375 64.0247573852539 255.60604858398438" stroke-width="0.0" fill="rgb(4, 2, 3)" opacity="0.99000514"/>
    <path d="M 407.0 13.000003814697266 C 404.32049560546875 23.0 397.0 30.32050895690918 386.9603271484375 32.98244094848633 C 376.7401428222656 30.51627540588379 369.3133239746094 23.310667037963867 366.61181640625 13.156410217285156 C 369.4131164550781 2.7147977352142334 376.7161865234375 -4.586968898773193 386.89990234375 -7.090884685516357 C 397.0 -4.320497512817383 404.32049560546875 3.0000112056732178 407.0 13.000003814697266" stroke-width="0.0" fill="rgb(255, 244, 236)" opacity="0.9913157"/>
    <path d="M 541.0589599609375 42.121131896972656 C 538.6817626953125 52.39503479003906 531.4274291992188 59.789493560791016 521.267333984375 62.36271286010742 C 511.09869384765625 59.13047409057617 503.768310546875 51.935646057128906 501.1177062988281 41.9387092590332 C 503.67950439453125 32.0 511.0 24.67949104309082 520.7264404296875 22.45435333251953 C 530.8173217773438 25.003765106201172 538.2957763671875 32.084068298339844 541.0589599609375 42.121131896972656" stroke-width="0.0" fill="rgb(255, 245, 238)" opacity="0.9910831"/>
    <path d="M 149.0 6.0 C 146.3205108642578 16.0 139.0 23.32050895690918 129.0 26.0 C 119.0 23.32050895690918 111.67948913574219 16.0 109.0 6.0 C 111.67948913574219 -4.0 119.0 -11.320508003234863 129.0 -14.0 C 139.0 -11.320508003234863 146.3205108642578 -4.0 149.0 6.0" stroke-width="0.0" fill="rgb(253, 243, 235)" opacity="1.0"/>
    <path d="M 59.03779602050781 320.5475158691406 C 56.4428596496582 329.18206787109375 49.24725341796875 336.6325378417969 39.591575622558594 339.75103759765625 C 29.622791290283203 337.6350402832031 22.087427139282227 330.4718017578125 19.17762565612793 320.153564453125 C 22.250240325927734 309.9308776855469 30.26888656616211 303.111572265625 40.13905334472656 299.4269104003906 C 49.198551177978516 303.39666748046875 56.4174919128418 310.8572692871094 59.03779602050781 320.5475158691406" stroke-width="0.0" fill="rgb(35, 155, 2)" opacity="0.9900855"/>
    <path d="M 110.32888793945312 16.066694259643555 C 107.49710845947266 26.219036102294922 100.27308654785156 33.668113708496094 90.1398696899414 36.445369720458984 C 79.6883773803711 33.62765121459961 72.3804931640625 26.30980110168457 69.81426239013672 16.0199031829834 C 72.31954193115234 5.655680179595947 79.66827392578125 -1.6403818130493164 89.85289001464844 -4.092453956604004 C 100.07293701171875 -1.333571434020996 107.47731018066406 5.8846116065979 110.32888793945312 16.066694259643555" stroke-width="0.0" fill="rgb(255, 246, 238)" opacity="0.9906218"/>
    <path d="M 157.0190887451172 560.00634765625 C 154.3921356201172 570.0855712890625 147.10220336914062 577.4472045898438 137.05825805664062 580.0767211914062 C 127.0025634765625 577.3197021484375 119.70097351074219 569.9915161132812 116.79781341552734 559.9581298828125 C 119.70281219482422 550.0029907226562 126.98143768310547 542.6284790039062 137.095458984375 539.5222778320312 C 147.24307250976562 542.3910522460938 154.4323272705078 549.8068237304688 157.0190887451172 560.00634765625" stroke-width="0.0" fill="rgb(255, 244, 235)" opacity="0.9915844"/>
    <path d="M 578.1416625976562 404.1100158691406 C 575.5283203125 414.16070556640625 568.1278076171875 421.4207763671875 558.0291137695312 424.01922607421875 C 548.0003051757812 421.31982421875 540.6795654296875 413.9998779296875 538.0 404.0 C 540.6795043945312 394.0 548.0 386.67950439453125 558.0748291015625 383.75982666015625 C 567.9733276367188 386.699951171875 575.3011474609375 394.02569580078125 578.1416625976562 404.1100158691406" stroke-width="0.0" fill="rgb(254, 243, 234)" opacity="0.99068433"/>
    <path d="M 60.05187225341797 345.849609375 C 58.13624572753906 354.9370422363281 50.99370193481445 362.3185729980469 40.53586196899414 365.57440185546875 C 30.502578735351562 362.9483337402344 23.712018966674805 355.3259582519531 21.938806533813477 345.7947082519531 C 24.518077850341797 335.71142578125 31.49872589111328 327.7815856933594 40.45219421386719 325.2654724121094 C 50.183998107910156 328.4545593261719 57.414825439453125 335.86163330078125 60.05187225341797 345.849609375" stroke-width="0.0" fill="rgb(23, 105, 9)" opacity="0.99003077"/>
    <path d="M 595.6262817382812 441.13421630859375 C 593.3252563476562 451.0075378417969 586.0067138671875 458.32391357421875 576.1336669921875 460.79632568359375 C 566.1298828125 458.10382080078125 558.715576171875 450.9268798828125 556.0012817382812 440.994873046875 C 558.6795043945312 431.0 566.0 423.67950439453125 575.994384765625 421.1644592285156 C 586.1088256835938 423.5307922363281 593.1723022460938 430.9826354980469 595.6262817382812 441.13421630859375" stroke-width="0.0" fill="rgb(255, 245, 236)" opacity="0.9912149"/>
    <path d="M 579.0259399414062 328.33526611328125 C 576.3917236328125 337.1042175292969 569.1593627929688 344.7126159667969 559.296630859375 348.95452880859375 C 550.635498046875 346.1015930175781 543.5985717773438 337.1408996582031 540.9727172851562 328.5791015625 C 543.620361328125 318.9282531738281 550.9282836914062 311.62054443359375 560.673583984375 308.975341796875 C 569.1102294921875 311.5919189453125 576.3936157226562 318.8974304199219 579.0259399414062 328.33526611328125" stroke-width="0.0" fill="rgb(3, 5, 5)" opacity="0.9900028"/>
    <path d="M 84.94827270507812 560.0177612304688 C 82.32037353515625 569.9998779296875 74.99988555908203 577.3203735351562 64.99993133544922 579.9998779296875 C 55.0 577.3204956054688 47.67949295043945 570.0 45.391807556152344 560.200927734375 C 47.86886215209961 550.078857421875 55.02031707763672 542.682861328125 64.99884796142578 539.9987182617188 C 74.99928283691406 542.6797485351562 82.31019592285156 550.0035400390625 84.94827270507812 560.0177612304688" stroke-width="0.0" fill="rgb(252, 245, 237)" opacity="0.99414665"/>
    <path d="M 606.0556030273438 396.0045166015625 C 603.3995361328125 406.0718078613281 596.0823364257812 413.4388122558594 586.2664794921875 416.08612060546875 C 575.9901733398438 413.22906494140625 568.5841064453125 406.0641784667969 565.8809204101562 396.00982666015625 C 568.592529296875 385.8998107910156 575.88916015625 378.56048583984375 586.0615234375 375.9750671386719 C 596.0990600585938 378.5653991699219 603.4022827148438 385.910400390625 606.0556030273438 396.0045166015625" stroke-width="0.0" fill="rgb(255, 246, 238)" opacity="0.99091905"/>
    <path d="M 443.26153564453125 582.2306518554688 C 440.7329406738281 592.354248046875 433.3189697265625 599.621337890625 423.2268371582031 601.9788208007812 C 413.2115173339844 599.0691528320312 405.8385314941406 591.8165893554688 403.0452575683594 581.9480590820312 C 405.67950439453125 572.0 413.0 564.6795043945312 423.0005798339844 561.999755859375 C 433.00946044921875 564.6752319335938 440.35443115234375 571.981689453125 443.26153564453125 582.2306518554688" stroke-width="0.0" fill="rgb(255, 245, 238)" opacity="0.99155146"/>
    <path d="M 156.62884521484375 12.870336532592773 C 153.6488037109375 23.271211624145508 146.2369842529297 30.537919998168945 136.08056640625 33.0789909362793 C 126.00003814697266 30.320417404174805 118.67949676513672 22.999988555908203 116.0 12.999999046325684 C 118.67948913574219 3.0 126.0 -4.320508003234863 136.05056762695312 -7.046036243438721 C 146.16758728027344 -4.470519542694092 153.61656188964844 2.787385940551758 156.62884521484375 12.870336532592773" stroke-width="0.0" fill="rgb(255, 244, 237)" opacity="0.9917495"/>
    <path d="M 107.03626251220703 154.1164093017578 C 104.37834930419922 164.0699005126953 97.06950378417969 171.37744140625 87.0801010131836 174.04173278808594 C 77.12432098388672 173.20065307617188 69.78512573242188 165.88058471679688 67.19331359863281 155.78819274902344 C 71.11053466796875 145.39833068847656 78.37433624267578 138.03273010253906 88.56615447998047 134.34490966796875 C 98.49530029296875 137.0279998779297 104.96636962890625 144.77688598632812 107.03626251220703 154.1164093017578" stroke-width="0.0" fill="rgb(2, 2, 8)" opacity="0.99000853"/>
    <path d="M 102.85442352294922 121.73297119140625 C 99.69139862060547 131.26382446289062 92.16973876953125 138.42108154296875 82.10445404052734 141.06048583984375 C 72.29129791259766 140.1343994140625 65.23702239990234 132.58038330078125 62.69508743286133 122.22229766845703 C 65.6918716430664 112.0042953491211 73.00093078613281 104.67981719970703 83.00011444091797 102.00003814697266 C 93.00190734863281 104.67864990234375 100.33155822753906 111.99517059326172 102.85442352294922 121.73297119140625" stroke-width="0.0" fill="rgb(251, 241, 233)" opacity="0.99004245"/>
    <path d="M 504.8466796875 44.919776916503906 C 502.2109375 54.941680908203125 494.96990966796875 62.30450439453125 484.9971618652344 64.99845886230469 C 475.0 62.32050704956055 467.67950439453125 55.0 465.1289978027344 45.10247802734375 C 467.8778991699219 35.12994384765625 475.0999450683594 27.784053802490234 485.050537109375 25.07834243774414 C 495.0 27.67949104309082 502.32049560546875 35.0 504.8466796875 44.919776916503906" stroke-width="0.0" fill="rgb(255, 244, 237)" opacity="0.99196345"/>
    <path d="M 132.32325744628906 536.7896728515625 C 129.25515747070312 547.047119140625 122.14668273925781 554.580078125 112.29187774658203 556.8876342773438 C 102.16192626953125 554.0453491210938 94.7218017578125 546.9127807617188 92.00091552734375 536.994384765625 C 94.67948913574219 527.0 102.0 519.6795043945312 112.05016326904297 516.9564819335938 C 122.17827606201172 519.5252075195312 129.59825134277344 526.7840576171875 132.32325744628906 536.7896728515625" stroke-width="0.0" fill="rgb(255, 245, 238)" opacity="0.9907759"/>
    <path d="M 84.99984741210938 98.00003051757812 C 82.32049560546875 107.99999237060547 75.0 115.32051086425781 64.85693359375 118.26774597167969 C 54.88029098510742 115.50621795654297 47.60989761352539 108.08440399169922 44.970462799072266 98.00727844238281 C 47.62466049194336 87.92610168457031 54.90412521362305 80.5523452758789 64.93942260742188 77.91890716552734 C 74.99993896484375 80.6795654296875 82.3204345703125 88.00006103515625 84.99984741210938 98.00003051757812" stroke-width="0.0" fill="rgb(252, 242, 238)" opacity="0.9933781"/>
    <path d="M 41.428550720214844 418.1304931640625 C 38.58274841308594 428.25787353515625 31.260915756225586 435.5893859863281 20.82072639465332 438.5007019042969 C 10.725857734680176 435.64349365234375 3.3184969425201416 428.28790283203125 0.46326905488967896 418.2772521972656 C 3.618293046951294 407.9534606933594 10.960013389587402 400.6418151855469 20.993669509887695 397.98931884765625 C 31.049026489257812 400.6474304199219 38.41181564331055 407.9333801269531 41.428550720214844 418.1304931640625" stroke-width="0.0" fill="rgb(255, 245, 238)" opacity="0.9907724"/>
    <path d="M 501.97015380859375 51.991241455078125 C 499.3188171386719 61.999515533447266 491.9999694824219 69.32050323486328 482.00006103515625 71.9999771118164 C 472.0018005371094 69.31982421875 464.68499755859375 61.996726989746094 461.960205078125 52.17878723144531 C 464.8516540527344 42.09019470214844 472.0435791015625 34.70110321044922 482.0034484863281 32.001705169677734 C 492.0 34.67949295043945 499.32049560546875 42.0 501.97015380859375 51.991241455078125" stroke-width="0.0" fill="rgb(253, 244, 237)" opacity="0.9935192"/>
    <path d="M 606.995361328125 113.97747039794922 C 604.2673950195312 123.93094635009766 596.9070434570312 131.1886749267578 586.9302368164062 133.89541625976562 C 577.0000610351562 131.32041931152344 569.6795654296875 123.99993133544922 567.2127075195312 114.11493682861328 C 569.82373046875 104.0496826171875 576.9935913085938 96.64704132080078 586.9865112304688 93.98492431640625 C 597.0121459960938 96.67155456542969 604.33984375 103.98440551757812 606.995361328125 113.97747039794922" stroke-width="0.0" fill="rgb(255, 244, 237)" opacity="0.99241924"/>
    <path d="M 586.9999389648438 556.0 C 584.3204956054688 566.0 577.0 573.3204956054688 567.004638671875 575.9976196289062 C 557.0577392578125 573.2916870117188 549.9197998046875 565.874755859375 547.4039916992188 555.7780151367188 C 549.679443359375 546.0 557.0 538.6795043945312 567.0 536.0 C 577.0 538.6795043945312 584.3204956054688 546.0 586.9999389648438 556.0" stroke-width="0.0" fill="rgb(254, 243, 236)" opacity="0.9955803"/>
    <path d="M 449.2928161621094 565.2269897460938 C 446.72259521484375 575.34765625 439.3069152832031 582.590576171875 429.0965270996094 585.0836791992188 C 419.0000915527344 582.3203125 411.6795349121094 574.9999389648438 408.4095764160156 564.5089111328125 C 411.0024108886719 554.3864135742188 418.4453125 547.192626953125 428.8041076660156 544.8524780273438 C 439.0 547.6795043945312 446.32049560546875 555.0 449.2928161621094 565.2269897460938" stroke-width="0.0" fill="rgb(251, 240, 232)" opacity="1.0"/>
    <path d="M 26.01923179626465 231.20468139648438 C 23.40645408630371 241.01165771484375 15.980862617492676 248.30072021484375 5.892050743103027 251.1885528564453 C -4.0742340087890625 248.46078491210938 -11.339221000671387 241.0370635986328 -14.001534461975098 231.00308227539062 C -11.320508003234863 221.0 -4.0 213.6794891357422 5.9997663497924805 211.00009155273438 C 15.992377281188965 213.6822509765625 23.24046516418457 221.0301971435547 26.01923179626465 231.20468139648438" stroke-width="0.0" fill="rgb(255, 245, 238)" opacity="0.9927042"/>
    <path d="M 146.32591247558594 581.1365966796875 C 143.38052368164062 591.0498046875 136.033203125 598.3238525390625 125.93070983886719 600.9615478515625 C 115.74264526367188 598.5578002929688 108.4156494140625 591.2645263671875 106.11023712158203 581.2067260742188 C 108.59903717041016 570.8424072265625 115.79979705810547 563.445068359375 125.89054870605469 560.8685913085938 C 135.99070739746094 563.68310546875 143.24563598632812 571.0302124023438 146.32591247558594 581.1365966796875" stroke-width="0.0" fill="rgb(255, 245, 238)" opacity="0.9907371"/>
    <path d="M 149.00018310546875 12.000014305114746 C 146.32061767578125 22.000104904174805 139.0001220703125 29.32066535949707 128.99661254882812 32.00175094604492 C 118.96753692626953 29.33878517150879 111.58134460449219 22.056570053100586 108.8933334350586 12.06135368347168 C 111.67948913574219 2.0 119.0 -5.320508003234863 129.0 -8.000001907348633 C 139.00001525878906 -5.320521354675293 146.32057189941406 1.9999667406082153 149.00018310546875 12.000014305114746" stroke-width="0.0" fill="rgb(254, 244, 237)" opacity="0.9965571"/>
    <path d="M 516.0 545.0 C 513.3204956054688 555.0 506.0 562.3204956054688 495.894287109375 565.1066284179688 C 485.7307434082031 562.583740234375 478.3468933105469 555.2900390625 475.6883544921875 545.203857421875 C 478.67950439453125 535.0 486.0 527.6795043945312 496.0 525.0 C 506.0 527.6795043945312 513.3204956054688 535.0 516.0 545.0" stroke-width="0.0" fill="rgb(254, 244, 237)" opacity="0.9927501"/>
    <path d="M 570.0293579101562 401.5552978515625 C 567.3963623046875 410.0903625488281 560.0867919921875 417.3881530761719 550.1015625 420.0384826660156 C 540.1214599609375 419.1983947753906 532.830810546875 411.8713073730469 531.9673461914062 401.8910217285156 C 534.6177368164062 391.92510986328125 541.9237670898438 384.6138916015625 551.8818359375 380.2367248535156 C 560.145751953125 384.40234375 567.3934326171875 391.8974609375 570.0293579101562 401.5552978515625" stroke-width="0.0" fill="rgb(4, 5, 6)" opacity="0.99000347"/>
    <path d="M 574.9715576171875 167.03428649902344 C 572.3206176757812 177.0004119873047 565.0051879882812 184.33792114257812 554.7437133789062 187.6017303466797 C 544.6990356445312 184.66978454589844 537.4091796875 177.27735900878906 534.8862915039062 167.09820556640625 C 537.6396484375 156.953125 544.940185546875 149.59503173828125 554.9129028320312 146.68052673339844 C 564.8158569335938 149.9158477783203 572.2042236328125 157.14706420898438 574.9715576171875 167.03428649902344" stroke-width="0.0" fill="rgb(255, 245, 239)" opacity="0.9911962"/>
    <path d="M 436.03790283203125 11.031684875488281 C 433.39898681640625 21.0727481842041 426.07183837890625 28.395545959472656 416.010498046875 31.372596740722656 C 405.99615478515625 28.333925247192383 398.679443359375 21.000186920166016 396.0 11.000007629394531 C 398.6795349121094 1.000015139579773 406.0 -6.320497989654541 416.0 -8.999984741210938 C 425.9998779296875 -6.320434093475342 433.3202209472656 1.0001691579818726 436.03790283203125 11.031684875488281" stroke-width="0.0" fill="rgb(255, 244, 237)" opacity="0.99221957"/>
    <path d="M 75.05360412597656 150.1111602783203 C 72.41071319580078 160.14210510253906 65.2112808227539 167.63587951660156 55.87451171875 171.00222778320312 C 45.85040283203125 168.41177368164062 38.48346710205078 161.17823791503906 36.150943756103516 151.1083526611328 C 38.69178771972656 141.00091552734375 45.997398376464844 133.6781005859375 56.04868698120117 130.97445678710938 C 66.38367462158203 133.4416961669922 74.02139282226562 140.45130920410156 75.05360412597656 150.1111602783203" stroke-width="0.0" fill="rgb(250, 240, 233)" opacity="0.9900491"/>
    <path d="M 68.02548217773438 584.0750732421875 C 65.55989837646484 594.2492065429688 58.254215240478516 601.5791015625 48.06511306762695 604.1604614257812 C 37.842227935791016 601.4638671875 30.46337127685547 594.1800537109375 27.863956451416016 584.1047973632812 C 30.67949867248535 574.0 38.0 566.6795043945312 48.0 564.0 C 58.0 566.6795043945312 65.32050323486328 574.0 68.02548217773438 584.0750732421875" stroke-width="0.0" fill="rgb(254, 244, 237)" opacity="0.9919948"/>
    <path d="M 496.040283203125 527.9542846679688 C 493.32049560546875 538.0 486.00006103515625 545.3206787109375 475.96826171875 548.1002807617188 C 465.7785339355469 545.4194946289062 458.1969909667969 538.3428344726562 455.5009765625 527.826171875 C 458.1136169433594 517.5489501953125 465.6813659667969 510.6373291015625 476.7109375 508.798095703125 C 486.3092041015625 510.1891784667969 493.4679870605469 517.8146362304688 496.040283203125 527.9542846679688" stroke-width="0.0" fill="rgb(250, 240, 232)" opacity="1.0"/>
    <path d="M 37.029720306396484 259.4753723144531 C 34.42544174194336 268.17803955078125 27.2886905670166 275.79193115234375 17.977466583251953 279.26910400390625 C 8.000031471252441 276.3205261230469 0.6796152591705322 268.99993896484375 -2.050731897354126 258.97039794921875 C 0.6291440725326538 248.9706268310547 7.982607841491699 241.66932678222656 17.646644592285156 239.24757385253906 C 27.212961196899414 242.38804626464844 34.41165542602539 249.85487365722656 37.029720306396484 259.4753723144531" stroke-width="0.0" fill="rgb(251, 241, 233)" opacity="0.9900163"/>
    <path d="M 463.34442138671875 37.8648567199707 C 460.48809814453125 48.153560638427734 453.0915222167969 55.25569534301758 442.6855163574219 58.07122802734375 C 432.7856750488281 55.6246223449707 425.7362060546875 48.115474700927734 422.60186767578125 37.662357330322266 C 425.2622375488281 27.600250244140625 432.58917236328125 20.230146408081055 442.9918212890625 17.387157440185547 C 453.4520263671875 20.18682098388672 460.73748779296875 27.570646286010742 463.34442138671875 37.8648567199707" stroke-width="0.0" fill="rgb(255, 246, 238)" opacity="0.99055153"/>
    <path d="M 511.0001525878906 534.9995727539062 C 508.32049560546875 545.0 500.9999694824219 552.3204345703125 491.0 554.9998168945312 C 481.0000305175781 552.3204345703125 473.6795349121094 544.9999389648438 471.000244140625 535.0001220703125 C 473.6805419921875 525.0027465820312 481.0124816894531 517.7149047851562 491.1455383300781 514.6310424804688 C 501.03375244140625 517.595947265625 508.3245849609375 524.9896240234375 511.0001525878906 534.9995727539062" stroke-width="0.0" fill="rgb(252, 244, 235)" opacity="0.9934641"/>
    <path d="M 604.015625 162.9925079345703 C 601.349853515625 173.02236938476562 594.0162963867188 180.32981872558594 584.0010986328125 182.9988555908203 C 574.0 180.3205108642578 566.6795043945312 173.0 563.8712768554688 162.87979125976562 C 566.3991088867188 152.72654724121094 573.7283935546875 145.4050750732422 584.012451171875 142.64300537109375 C 594.1048583984375 145.5697021484375 601.4034423828125 152.90225219726562 604.015625 162.9925079345703" stroke-width="0.0" fill="rgb(255, 245, 237)" opacity="0.99167705"/>
    <path d="M 505.94598388671875 584.9881591796875 C 503.1697082519531 594.9190063476562 495.98358154296875 602.3753662109375 485.94012451171875 605.1507568359375 C 475.8053283691406 602.5382690429688 468.52777099609375 595.17431640625 465.8758239746094 585.2321166992188 C 468.80126953125 574.975830078125 475.92755126953125 567.6338500976562 485.97021484375 564.9158935546875 C 495.9942321777344 567.6815185546875 503.2702941894531 575.0197143554688 505.94598388671875 584.9881591796875" stroke-width="0.0" fill="rgb(255, 245, 238)" opacity="0.9909861"/>
    <path d="M 590.5184326171875 203.8497772216797 C 587.32861328125 213.9971160888672 579.9829711914062 221.27899169921875 569.95361328125 223.9623565673828 C 559.7985229492188 221.43272399902344 552.1547241210938 214.34825134277344 549.74365234375 204.37770080566406 C 552.79931640625 194.04373168945312 559.990234375 186.63050842285156 569.9752197265625 183.96653747558594 C 580.022705078125 186.67047119140625 587.4932861328125 193.9265594482422 590.5184326171875 203.8497772216797" stroke-width="0.0" fill="rgb(255, 245, 238)" opacity="0.9909159"/>
    <path d="M 243.88726806640625 29.165843963623047 C 241.4498291015625 39.13498306274414 234.04745483398438 46.13132858276367 223.2030792236328 48.251548767089844 C 213.24302673339844 47.156681060791016 206.0838165283203 39.67194366455078 203.53176879882812 29.355817794799805 C 206.66961669921875 18.933725357055664 213.90721130371094 11.574660301208496 223.9762725830078 8.94116497039795 C 233.9923858642578 11.648763656616211 241.13339233398438 19.0775146484375 243.88726806640625 29.165843963623047" stroke-width="0.0" fill="rgb(250, 241, 234)" opacity="1.0"/>
    <path d="M 574.0248413085938 232.42202758789062 C 571.3931884765625 241.1085205078125 564.1668090820312 248.70985412597656 555.9174194335938 251.1177520751953 C 545.9329833984375 248.3769989013672 538.6277465820312 241.0650177001953 535.9768676757812 231.19900512695312 C 538.554443359375 222.6508331298828 544.3235473632812 213.8114471435547 554.0728149414062 212.9272003173828 C 564.0770874023438 215.61669921875 571.38134765625 222.9237518310547 574.0248413085938 232.42202758789062" stroke-width="0.0" fill="rgb(2, 3, 2)" opacity="0.99000275"/>
    <path d="M 612.9971923828125 467.005126953125 C 610.3204956054688 477.0 603.0 484.32049560546875 593.0 487.0 C 583.0 484.32049560546875 575.6795043945312 477.0 573.0 467.0 C 575.6795043945312 457.0 583.0 449.67950439453125 592.910888671875 447.1510009765625 C 602.9173583984375 449.8201904296875 610.2935791015625 457.0478210449219 612.9971923828125 467.005126953125" stroke-width="0.0" fill="rgb(254, 244, 236)" opacity="1.0"/>
    <path d="M 73.0595932006836 138.03164672851562 C 70.33779907226562 148.00624084472656 63.00145721435547 155.32081604003906 53.00242614746094 157.99761962890625 C 43.02014923095703 155.3085479736328 35.74153137207031 147.96495056152344 33.00566864013672 137.91122436523438 C 35.55012512207031 127.93923950195312 42.99079513549805 120.7138900756836 53.162689208984375 117.68989562988281 C 62.95188903808594 120.70955657958984 70.28815460205078 128.0469512939453 73.0595932006836 138.03164672851562" stroke-width="0.0" fill="rgb(254, 243, 235)" opacity="0.9911787"/>
    <path d="M 119.00004577636719 519.9998779296875 C 116.32051086425781 530.0 109.0 537.3204956054688 98.99996948242188 540.0000610351562 C 88.99992370605469 537.320556640625 81.67940521240234 530.0000610351562 78.41948699951172 519.615966796875 C 81.220947265625 509.6515808105469 88.7083740234375 502.38751220703125 98.94622802734375 499.8727111816406 C 109.0156021118164 502.63800048828125 116.32202911376953 509.995849609375 119.00004577636719 519.9998779296875" stroke-width="0.0" fill="rgb(255, 245, 238)" opacity="0.9906875"/>
    <path d="M 25.93653678894043 223.71331787109375 C 23.226736068725586 233.96417236328125 15.990833282470703 241.31719970703125 5.999734401702881 243.99993896484375 C -4.0 241.3205108642578 -11.320508003234863 234.0 -13.999454498291016 224.0012969970703 C -11.309860229492188 214.02520751953125 -3.9333226680755615 206.82568359375 6.317117691040039 203.64111328125 C 16.42324447631836 206.22833251953125 23.728870391845703 213.5900421142578 25.93653678894043 223.71331787109375" stroke-width="0.0" fill="rgb(253, 245, 238)" opacity="0.991407"/>
    <path d="M 527.96435546875 494.9704284667969 C 525.2581176757812 504.9657287597656 518.014892578125 512.4180908203125 508.0367126464844 515.276611328125 C 497.8597106933594 512.4761962890625 490.78759765625 505.0729675292969 488.6158142089844 494.6434326171875 C 490.6124572753906 484.9453125 497.94500732421875 477.61138916015625 507.9681701660156 474.8892822265625 C 518.0022583007812 477.6737365722656 525.3215942382812 484.9990234375 527.96435546875 494.9704284667969" stroke-width="0.0" fill="rgb(251, 241, 233)" opacity="1.0"/>
    <path d="M 420.00286865234375 580.0239868164062 C 417.3860168457031 590.1026611328125 410.16192626953125 597.5743408203125 400.2474365234375 600.1577758789062 C 390.0046691894531 597.2555541992188 382.6574401855469 590.0203857421875 379.87744140625 579.8444213867188 C 382.25970458984375 569.5247192382812 389.47802734375 562.10595703125 399.7940673828125 560.608154296875 C 409.9593505859375 562.6781005859375 417.2831726074219 570.0492553710938 420.00286865234375 580.0239868164062" stroke-width="0.0" fill="rgb(251, 240, 232)" opacity="1.0"/>
    <path d="M 547.841552734375 159.75071716308594 C 545.3046875 170.20802307128906 538.446533203125 177.97314453125 528.4550170898438 180.71481323242188 C 517.8661499023438 177.6768798828125 510.7003173828125 170.00045776367188 507.9459228515625 159.83587646484375 C 510.4127197265625 149.81556701660156 517.8810424804688 142.62045288085938 528.0984497070312 139.9326171875 C 538.3496704101562 142.37156677246094 545.7318115234375 149.6194610595703 547.841552734375 159.75071716308594" stroke-width="0.0" fill="rgb(215, 209, 205)" opacity="1.0"/>
    <path d="M 459.248291015625 551.7254028320312 C 456.15631103515625 561.9979858398438 449.107666015625 569.5017700195312 439.09429931640625 572.1239624023438 C 428.9996337890625 569.3204956054688 421.67413330078125 562.0018310546875 419.0909118652344 551.978759765625 C 421.4530334472656 541.765380859375 428.7715148925781 534.47021484375 439.3043518066406 531.4131469726562 C 449.4552917480469 534.132568359375 456.69281005859375 541.60498046875 459.248291015625 551.7254028320312" stroke-width="0.0" fill="rgb(251, 239, 231)" opacity="1.0"/>
    <path d="M 525.0007934570312 533.0020751953125 C 522.3204956054688 543.0 515.0 550.3204956054688 504.9999694824219 553.0000610351562 C 494.99993896484375 550.320556640625 487.6794128417969 543.0000610351562 484.99505615234375 532.9918823242188 C 487.6419372558594 522.9407958984375 494.91827392578125 515.5689086914062 504.87933349609375 513.158935546875 C 514.9202270507812 515.8215942382812 522.3010864257812 523.0421142578125 525.0007934570312 533.0020751953125" stroke-width="0.0" fill="rgb(255, 245, 238)" opacity="0.9925406"/>
    <path d="M 581.0121459960938 543.9810791015625 C 578.3204956054688 554.0 571.0 561.3204956054688 560.9469604492188 564.0415649414062 C 550.7822265625 561.4957275390625 543.3482055664062 554.2660522460938 540.6566162109375 544.094482421875 C 543.3577880859375 533.664306640625 550.6597290039062 526.3381958007812 561.126953125 523.4173583984375 C 571.203369140625 526.36572265625 578.4038696289062 533.8704833984375 581.0121459960938 543.9810791015625" stroke-width="0.0" fill="rgb(255, 245, 238)" opacity="0.9910492"/>
    <path d="M 29.90753936767578 359.16656494140625 C 26.32132339477539 370.0005798339844 19.000463485717773 377.3208923339844 9.000112533569336 380.0000915527344 C -1.000000238418579 377.32049560546875 -8.320508003234863 370.0 -10.992743492126465 360.0118713378906 C -8.264420509338379 350.0921936035156 -0.8469318151473999 342.9285888671875 9.55321216583252 339.5469055175781 C 19.788562774658203 341.93212890625 27.210430145263672 349.1606140136719 29.90753936767578 359.16656494140625" stroke-width="0.0" fill="rgb(255, 245, 238)" opacity="1.0"/>
    <path d="M 611.0025634765625 465.9953918457031 C 608.3204956054688 476.0 601.0 483.32049560546875 590.9998779296875 486.0000915527344 C 581.0040283203125 483.3197021484375 573.7525024414062 475.97509765625 571.2411499023438 465.92626953125 C 573.8071899414062 456.0629577636719 581.0281982421875 448.6927490234375 591.1049194335938 445.807373046875 C 601.079345703125 448.53851318359375 608.3449096679688 455.95623779296875 611.0025634765625 465.9953918457031" stroke-width="0.0" fill="rgb(255, 245, 237)" opacity="0.9931936"/>
    <path d="M 214.6400146484375 572.42626953125 C 210.99700927734375 582.78662109375 203.86041259765625 590.2273559570312 193.9780731201172 592.984375 C 184.00035095214844 590.3200073242188 176.67977905273438 582.9996948242188 173.9997100830078 572.9990234375 C 176.67779541015625 563.0015869140625 184.07720947265625 555.911376953125 194.75997924804688 553.6633911132812 C 204.45396423339844 555.041259765625 211.8424072265625 562.6099243164062 214.6400146484375 572.42626953125" stroke-width="0.0" fill="rgb(250, 240, 231)" opacity="1.0"/>
    <path d="M 418.52435302734375 39.54936599731445 C 415.9757995605469 49.6025276184082 408.5827331542969 56.92429733276367 398.6255798339844 58.25204086303711 C 388.3708801269531 55.90360641479492 380.8409729003906 48.69343948364258 378.8495788574219 38.71346664428711 C 380.7813415527344 29.033884048461914 388.00537109375 21.68302345275879 398.001708984375 18.999528884887695 C 407.98028564453125 21.683246612548828 415.1418762207031 29.074373245239258 418.52435302734375 39.54936599731445" stroke-width="0.0" fill="rgb(251, 241, 233)" opacity="1.0"/>
    <path d="M 68.99992370605469 577.9999389648438 C 66.32048034667969 588.0 58.999996185302734 595.3204956054688 49.0 598.0 C 39.0 595.3204956054688 31.679492950439453 588.0 28.92933464050293 577.9256591796875 C 31.481563568115234 567.8030395507812 38.829750061035156 560.5858764648438 49.0570068359375 558.2080078125 C 59.00006103515625 560.679443359375 66.3205795288086 567.9999389648438 68.99992370605469 577.9999389648438" stroke-width="0.0" fill="rgb(254, 244, 237)" opacity="0.9938391"/>
    <path d="M 145.0 5.999999523162842 C 142.3205108642578 16.0 135.0 23.32050895690918 124.9579849243164 26.035402297973633 C 114.8441162109375 23.453981399536133 107.47264099121094 16.178184509277344 104.68111419677734 5.960638523101807 C 107.54397583007812 -4.064964771270752 114.97212219238281 -11.33396053314209 124.99790954589844 -14.001041412353516 C 135.0 -11.320508003234863 142.3205108642578 -4.000000476837158 145.0 5.999999523162842" stroke-width="0.0" fill="rgb(254, 244, 237)" opacity="0.9951429"/>
    <path d="M 138.0284423828125 508.80865478515625 C 135.51268005371094 517.3092041015625 128.26319885253906 524.461669921875 119.6185302734375 527.0303955078125 C 109.9152603149414 524.3902587890625 102.6121826171875 517.083740234375 99.9682846069336 507.160400390625 C 101.8303451538086 497.2934265136719 108.25006103515625 490.03814697265625 118.14566040039062 488.96875 C 128.0786895751953 491.6142883300781 135.3815460205078 498.9231872558594 138.0284423828125 508.80865478515625" stroke-width="0.0" fill="rgb(2, 3, 2)" opacity="0.99000293"/>
    <path d="M 542.2288208007812 131.8698272705078 C 539.3628540039062 142.05662536621094 532.0855102539062 149.45603942871094 522.6556396484375 151.21934509277344 C 512.6617431640625 148.5785675048828 505.37872314453125 141.35934448242188 502.79107666015625 131.3739471435547 C 504.6796569824219 122.00007629394531 512.0001220703125 114.6799087524414 522.2228393554688 111.56087493896484 C 532.1502685546875 114.47862243652344 539.4949340820312 121.8578109741211 542.2288208007812 131.8698272705078" stroke-width="0.0" fill="rgb(250, 241, 233)" opacity="1.0"/>
    <path d="M 597.1632080078125 575.8445434570312 C 594.3215942382812 585.909423828125 586.8421020507812 593.0957641601562 576.863037109375 596.24267578125 C 567.0274047851562 593.2725219726562 559.6863403320312 585.9849853515625 557.000244140625 575.9989624023438 C 559.6793212890625 565.9998779296875 566.9998779296875 558.6793823242188 577.0826416015625 555.9125366210938 C 587.2152709960938 558.4691162109375 594.580078125 565.7699584960938 597.1632080078125 575.8445434570312" stroke-width="0.0" fill="rgb(255, 245, 236)" opacity="0.9911309"/>
    <path d="M 72.02176666259766 363.3620910644531 C 69.37952423095703 372.0743713378906 62.076297760009766 379.3839416503906 52.062904357910156 382.2855529785156 C 42.07847595214844 381.2563781738281 34.750064849853516 373.9187927246094 32.06315994262695 363.8712158203125 C 35.28360366821289 352.7418518066406 42.835514068603516 345.54840087890625 52.18539810180664 343.83294677734375 C 62.087276458740234 346.5939636230469 69.37757110595703 353.9238586425781 72.02176666259766 363.3620910644531" stroke-width="0.0" fill="rgb(2, 2, 2)" opacity="0.9900043"/>
    <path d="M 133.6377716064453 61.436248779296875 C 132.09974670410156 71.83391571044922 124.88032531738281 79.24087524414062 114.876708984375 81.94171142578125 C 104.01322937011719 78.30015563964844 96.68267822265625 70.99217987060547 93.9666748046875 60.96065902709961 C 96.55571746826172 50.85504150390625 103.83065795898438 43.4754524230957 113.90171813964844 40.87260055541992 C 123.99146270751953 43.682647705078125 131.2327880859375 51.033355712890625 133.6377716064453 61.436248779296875" stroke-width="0.0" fill="rgb(255, 246, 238)" opacity="1.0"/>
    <path d="M 519.0789184570312 71.85070037841797 C 516.5116577148438 82.21815490722656 509.2409973144531 89.58927154541016 498.89599609375 92.43765258789062 C 488.6679382324219 89.68040466308594 481.3879699707031 82.31124114990234 478.893310546875 72.11331176757812 C 481.67950439453125 62.0 489.0 54.67949295043945 499.1077880859375 51.89390182495117 C 509.30609130859375 54.39991760253906 516.7012329101562 61.6624755859375 519.0789184570312 71.85070037841797" stroke-width="0.0" fill="rgb(255, 245, 238)" opacity="0.9908116"/>
    <path d="M 520.0 26.0 C 517.3204956054688 36.0 510.0 43.320499420166016 500.0 45.9998893737793 C 490.0000305175781 43.32046890258789 482.6795654296875 35.99995422363281 480.0004577636719 26.000083923339844 C 482.6796875 16.000120162963867 490.0000915527344 8.67955207824707 500.0000305175781 6.000012397766113 C 510.0 8.679491996765137 517.3204956054688 16.0 520.0 26.0" stroke-width="0.0" fill="rgb(255, 244, 237)" opacity="0.9999033"/>
    <path d="M 38.02606964111328 393.0406188964844 C 35.42728805541992 403.097900390625 28.08807373046875 410.3953857421875 17.989627838134766 413.0419921875 C 7.845761775970459 410.4366149902344 0.39106351137161255 403.2080993652344 -2.252204418182373 393.2027587890625 C 0.7569758892059326 383.0569763183594 8.042412757873535 375.70904541015625 18.00750160217285 373.00439453125 C 28.00016975402832 375.678955078125 35.318538665771484 383.00054931640625 38.02606964111328 393.0406188964844" stroke-width="0.0" fill="rgb(255, 245, 237)" opacity="0.9922998"/>
    <path d="M 247.33155822753906 1.0520281791687012 C 244.44338989257812 11.1830415725708 237.22076416015625 18.5745906829834 227.1083221435547 21.146617889404297 C 217.04090881347656 18.325559616088867 209.92169189453125 10.87968635559082 207.37200927734375 0.7887980937957764 C 209.6790008544922 -9.000141143798828 216.99998474121094 -16.320512771606445 227.0 -19.0 C 237.0001983642578 -16.32056999206543 244.32945251464844 -9.002626419067383 247.33155822753906 1.0520281791687012" stroke-width="0.0" fill="rgb(254, 244, 236)" opacity="0.99175495"/>
    <path d="M 84.6796875 480.565673828125 C 81.35575103759766 491.02203369140625 74.02841186523438 498.3783874511719 63.84534454345703 501.4783630371094 C 53.80336380004883 498.55035400390625 46.45782470703125 491.1955261230469 43.86432647705078 481.1059875488281 C 46.68635559082031 471.0147705078125 54.03656005859375 463.7601623535156 64.45467376708984 460.5501403808594 C 74.60769653320312 463.0469055175781 81.95608520507812 470.39202880859375 84.6796875 480.565673828125" stroke-width="0.0" fill="rgb(255, 245, 237)" opacity="0.9907644"/>
    <path d="M 43.663291931152344 550.7517700195312 C 40.63167953491211 561.24072265625 33.203033447265625 568.5096435546875 23.024187088012695 571.1096801757812 C 12.87253475189209 568.45263671875 5.5678558349609375 561.1207275390625 2.652751922607422 551.1748046875 C 5.64935827255249 540.9174194335938 12.892714500427246 533.5607299804688 23.106952667236328 530.8115234375 C 33.343994140625 533.3496704101562 40.78398513793945 540.6129150390625 43.663291931152344 550.7517700195312" stroke-width="0.0" fill="rgb(255, 245, 239)" opacity="0.9907701"/>
    <path d="M 597.5306396484375 186.34295654296875 C 594.738037109375 196.34628295898438 587.3012084960938 203.593994140625 577.1013793945312 206.0952606201172 C 566.972412109375 203.33155822753906 559.4710083007812 196.09007263183594 556.4674072265625 186.2827911376953 C 559.6796264648438 176.00006103515625 567.0000610351562 168.67950439453125 576.9992065429688 166.00071716308594 C 587.0030517578125 168.680419921875 594.350341796875 175.98782348632812 597.5306396484375 186.34295654296875" stroke-width="0.0" fill="rgb(255, 245, 238)" opacity="0.99182534"/>
    <path d="M 602.2822875976562 505.2180480957031 C 599.6871337890625 515.3264770507812 592.3182373046875 522.6592407226562 582.01611328125 525.4037475585938 C 571.632568359375 522.6793212890625 564.2366333007812 515.3944702148438 561.657470703125 505.314697265625 C 564.6746215820312 494.8417663574219 571.7513427734375 487.3519287109375 581.8168334960938 484.76519775390625 C 591.9844970703125 487.6909484863281 599.291015625 495.0209045410156 602.2822875976562 505.2180480957031" stroke-width="0.0" fill="rgb(255, 246, 238)" opacity="0.99067813"/>
    <path d="M 164.91726684570312 86.8870620727539 C 161.89134216308594 96.42488098144531 154.2740020751953 103.4805908203125 144.1145782470703 106.15341186523438 C 134.38084411621094 105.07410430908203 127.28598022460938 97.48194885253906 124.22409057617188 86.95100402832031 C 128.26556396484375 77.75843048095703 135.84046936035156 70.57694244384766 145.77734375 67.96041870117188 C 154.53709411621094 70.36024475097656 162.20880126953125 77.22805786132812 164.91726684570312 86.8870620727539" stroke-width="0.0" fill="rgb(75, 7, 5)" opacity="0.9900212"/>
    <path d="M 178.05274963378906 84.35887145996094 C 175.43528747558594 94.13667297363281 168.1341552734375 101.42926788330078 158.30532836914062 104.05152130126953 C 149.47645568847656 101.60816192626953 141.90870666503906 94.7844467163086 139.8844757080078 85.37078094482422 C 142.25718688964844 75.43331909179688 149.4927978515625 68.35320281982422 159.88485717773438 64.13739776611328 C 169.8314971923828 66.7818374633789 175.82066345214844 74.322021484375 178.05274963378906 84.35887145996094" stroke-width="0.0" fill="rgb(249, 20, 30)" opacity="0.99000776"/>
  </g>
</svg>
