<?xml version="1.0" ?>
<svg xmlns="http://www.w3.org/2000/svg" version="1.1" width="600" height="600">
  <defs/>
  <g>
    <path d="M 123.0 220.0 C 120.9903793334961 227.5 115.5 232.99038696289062 108.0 235.0 C 100.5 232.99038696289062 95.0096206665039 227.5 93.0 220.0 C 95.0096206665039 212.5 100.5 207.00961303710938 108.0 205.0 C 115.5 207.00961303710938 120.9903793334961 212.5 123.0 220.0" stroke-width="0.0" fill="rgb(36, 49, 71)" opacity="1.0"/>
    <path d="M 300.94049072265625 344.77691650390625 C 298.8874816894531 352.34735107421875 293.2934265136719 357.73101806640625 284.8219909667969 359.71539306640625 C 277.0639343261719 357.58978271484375 271.8385009765625 351.7846984863281 269.9818115234375 344.03436279296875 C 272.0096130371094 336.5 277.5 331.0096130371094 285.0062561035156 328.9975280761719 C 292.64044189453125 330.9505920410156 298.5950012207031 336.1352844238281 300.94049072265625 344.77691650390625" stroke-width="0.0" fill="rgb(11, 15, 21)" opacity="1.0"/>
    <path d="M 317.0395812988281 310.76580810546875 C 315.07720947265625 317.6061706542969 309.6089172363281 323.0838928222656 302.1053161621094 325.60052490234375 C 294.7306213378906 324.8074645996094 289.1646728515625 319.2845764160156 287.0467834472656 310.23577880859375 C 289.08294677734375 302.59417724609375 294.599853515625 297.0957946777344 302.09564208984375 295.1950378417969 C 309.6300964355469 298.8975524902344 315.09149169921875 304.3743896484375 317.0395812988281 310.76580810546875" stroke-width="0.0" fill="rgb(20, 23, 30)" opacity="0.99000835"/>
    <path d="M 188.31466674804688 479.6181335449219 C 185.96888732910156 487.4405822753906 180.2523651123047 492.4938049316406 173.7451629638672 494.04693603515625 C 166.27407836914062 492.12615966796875 160.45628356933594 486.8564758300781 157.3262176513672 479.36248779296875 C 159.16943359375 471.6391906738281 164.6099395751953 466.0875549316406 172.46585083007812 464.037841796875 C 181.34422302246094 466.1116638183594 186.70468139648438 471.7182922363281 188.31466674804688 479.6181335449219" stroke-width="0.0" fill="rgb(3, 2, 3)" opacity="0.99003106"/>
    <path d="M 165.63218688964844 291.56890869140625 C 163.754150390625 299.2311706542969 158.2095947265625 304.687744140625 150.43350219726562 306.44561767578125 C 142.5 303.9903869628906 137.00961303710938 298.5 135.0 291.0 C 137.00961303710938 283.5 142.5 278.0096130371094 150.0 276.0 C 157.5 278.0096130371094 162.99038696289062 283.5 165.63218688964844 291.56890869140625" stroke-width="0.0" fill="rgb(130, 101, 35)" opacity="1.0"/>
    <path d="M 192.0 181.0 C 189.99038696289062 188.5 184.5 193.99038696289062 177.0 196.0 C 169.5 193.99038696289062 164.00961303710938 188.5 162.0 181.0 C 164.00961303710938 173.5 169.5 168.00961303710938 177.0 166.0 C 184.5 168.00961303710938 189.99038696289062 173.5 192.0 181.0" stroke-width="0.0" fill="rgb(141, 154, 177)" opacity="1.0"/>
    <path d="M 277.77899169921875 263.7236328125 C 275.844970703125 271.3404235839844 270.3539733886719 276.87786865234375 262.8152770996094 278.890869140625 C 254.49916076660156 275.99066162109375 248.98899841308594 270.5064697265625 246.0784912109375 262.1516418457031 C 248.11163330078125 254.65240478515625 253.7066650390625 249.2674102783203 261.5628967285156 247.61012268066406 C 269.4526062011719 250.0366668701172 274.9332275390625 255.55807495117188 277.77899169921875 263.7236328125" stroke-width="0.0" fill="rgb(18, 15, 15)" opacity="0.99016726"/>
    <path d="M 185.3352813720703 163.46060180664062 C 183.99038696289062 170.5 178.5 175.99038696289062 171.00003051757812 177.99998474121094 C 163.50137329101562 175.9899444580078 158.03628540039062 170.49130249023438 156.64967346191406 163.36029052734375 C 158.296630859375 155.25547790527344 162.97030639648438 149.3068389892578 170.36337280273438 147.2139892578125 C 178.3258056640625 150.10450744628906 183.489013671875 155.81936645507812 185.3352813720703 163.46060180664062" stroke-width="0.0" fill="rgb(139, 138, 107)" opacity="0.99003786"/>
    <path d="M 221.35556030273438 66.58670043945312 C 219.99038696289062 73.5 214.5 78.9903793334961 206.99940490722656 81.00020599365234 C 199.48194885253906 78.99708557128906 193.87547302246094 73.55673217773438 192.56381225585938 66.56538391113281 C 194.77931213378906 59.26676559448242 200.29237365722656 53.8485221862793 207.1265106201172 51.934085845947266 C 213.70535278320312 53.843902587890625 219.20413208007812 59.2771110534668 221.35556030273438 66.58670043945312" stroke-width="0.0" fill="rgb(81, 84, 93)" opacity="0.99003553"/>
    <path d="M 185.0 404.0 C 182.99038696289062 411.5 177.5 416.9903869628906 170.0 419.0 C 162.5 416.9903869628906 157.00961303710938 411.5 154.18650817871094 403.25128173828125 C 156.13494873046875 395.6360168457031 161.62753295898438 390.1129455566406 169.18125915527344 388.1119079589844 C 177.5 391.0096130371094 182.99038696289062 396.5 185.0 404.0" stroke-width="0.0" fill="rgb(5, 5, 10)" opacity="1.0"/>
    <path d="M 135.87322998046875 205.2451934814453 C 133.03480529785156 213.51373291015625 127.50139617919922 218.99081420898438 120.00001525878906 221.0 C 112.5 218.99038696289062 107.0096206665039 213.5 104.11453247070312 205.21499633789062 C 106.17321014404297 197.76580810546875 111.89395141601562 192.53598022460938 120.26296997070312 190.64251708984375 C 128.22703552246094 192.3417510986328 133.84019470214844 197.7113494873047 135.87322998046875 205.2451934814453" stroke-width="0.0" fill="rgb(100, 111, 128)" opacity="1.0"/>
    <path d="M 157.90138244628906 341.45220947265625 C 155.57557678222656 349.8722839355469 149.68115234375 355.0805358886719 142.01365661621094 357.00653076171875 C 134.5 354.9903869628906 129.00961303710938 349.5 127.0 342.0 C 129.00961303710938 334.5 134.5 329.0096130371094 142.65896606445312 326.2100524902344 C 150.23086547851562 328.2391662597656 155.79661560058594 333.7531433105469 157.90138244628906 341.45220947265625" stroke-width="0.0" fill="rgb(82, 91, 109)" opacity="0.99073505"/>
    <path d="M 143.8004608154297 233.7637939453125 C 141.88572692871094 241.3913116455078 136.4002685546875 246.9100799560547 128.3617401123047 248.9575653076172 C 119.69490814208984 246.87391662597656 114.4184799194336 241.20164489746094 112.82736206054688 233.23849487304688 C 115.0096206665039 225.5 120.5 220.00961303710938 128.0 218.0 C 135.5 220.00961303710938 140.99038696289062 225.5 143.8004608154297 233.7637939453125" stroke-width="0.0" fill="rgb(0, 0, 0)" opacity="1.0"/>
    <path d="M 194.0 253.0 C 191.99038696289062 260.5 186.5 265.9903869628906 178.7970733642578 268.14300537109375 C 170.83738708496094 266.5343933105469 165.1466064453125 261.27508544921875 163.09934997558594 253.8137664794922 C 166.00961303710938 245.5 171.5 240.00961303710938 179.0 238.0 C 186.5 240.00961303710938 191.99038696289062 245.5 194.0 253.0" stroke-width="0.0" fill="rgb(45, 50, 67)" opacity="0.9918859"/>
    <path d="M 181.95101928710938 428.3796081542969 C 179.8026580810547 437.194580078125 174.0517120361328 442.4082336425781 165.30780029296875 444.75360107421875 C 157.64427185058594 442.8533020019531 152.1314697265625 437.36102294921875 150.1858673095703 429.7550354003906 C 153.00961303710938 421.5 158.5 416.0096130371094 166.4314422607422 413.6238098144531 C 174.2978973388672 415.2653503417969 179.8871612548828 420.650634765625 181.95101928710938 428.3796081542969" stroke-width="0.0" fill="rgb(0, 0, 0)" opacity="1.0"/>
    <path d="M 273.8851623535156 303.151611328125 C 271.2921447753906 311.8145751953125 265.55035400390625 316.49652099609375 257.09930419921875 319.9120788574219 C 249.5880584716797 317.9195251464844 244.08299255371094 312.410888671875 242.0428466796875 304.72100830078125 C 244.18052673339844 295.7958068847656 249.961669921875 290.62359619140625 258.865234375 288.0722351074219 C 266.4008483886719 290.0906982421875 271.9068298339844 295.60009765625 273.8851623535156 303.151611328125" stroke-width="0.0" fill="rgb(3, 2, 3)" opacity="0.9900618"/>
    <path d="M 297.9303283691406 435.202392578125 C 295.8516540527344 444.3678894042969 290.385009765625 449.9003601074219 282.7619323730469 451.9440612792969 C 273.9685363769531 449.71270751953125 268.83551025390625 443.8121032714844 266.9849853515625 436.03021240234375 C 269.00836181640625 428.4961853027344 274.4792175292969 422.9491271972656 282.84405517578125 420.08038330078125 C 290.388427734375 422.1048278808594 295.9062805175781 427.6067199707031 297.9303283691406 435.202392578125" stroke-width="0.0" fill="rgb(13, 17, 24)" opacity="1.0"/>
    <path d="M 106.66561889648438 281.6051025390625 C 104.77981567382812 289.25823974609375 99.24323272705078 294.7383728027344 91.12255859375 296.8033447265625 C 83.04901123046875 294.6117858886719 77.83853149414062 288.7886047363281 75.98238372802734 281.0335998535156 C 78.0096206665039 273.5 83.5 268.0096130371094 91.0 266.0 C 98.5 268.0096130371094 103.9903793334961 273.5 106.66561889648438 281.6051025390625" stroke-width="0.0" fill="rgb(106, 108, 114)" opacity="0.99021447"/>
    <path d="M 170.0019989013672 233.99508666992188 C 167.99038696289062 241.5 162.5 246.99038696289062 154.5633087158203 249.37701416015625 C 146.69703674316406 247.74020385742188 141.11769104003906 242.34915161132812 139.13250732421875 234.80490112304688 C 142.00961303710938 226.5 147.5001220703125 221.01007080078125 155.59230041503906 218.19976806640625 C 162.7922821044922 220.4873809814453 168.03512573242188 226.39297485351562 170.0019989013672 233.99508666992188" stroke-width="0.0" fill="rgb(2, 4, 13)" opacity="0.9918499"/>
    <path d="M 144.93118286132812 385.2519226074219 C 142.56973266601562 393.83856201171875 136.62380981445312 399.0406188964844 128.42251586914062 401.7173767089844 C 121.90442657470703 399.6139221191406 116.88177490234375 392.7397766113281 114.9598159790039 386.1925354003906 C 116.9078140258789 379.3486022949219 122.2582015991211 373.23046875 129.7841339111328 370.05181884765625 C 137.3845977783203 372.1000061035156 142.88519287109375 377.6218566894531 144.93118286132812 385.2519226074219" stroke-width="0.0" fill="rgb(18, 21, 28)" opacity="0.99002033"/>
    <path d="M 305.1061706542969 274.7039794921875 C 304.7305908203125 282.30474853515625 299.3529357910156 287.8868713378906 291.80853271484375 289.9118957519531 C 282.71356201171875 287.75970458984375 277.13934326171875 282.3229064941406 275.0574035644531 274.4209289550781 C 277.1380615234375 265.6629333496094 282.68402099609375 260.1968688964844 290.699951171875 258.2230224609375 C 298.7607116699219 260.37200927734375 303.2386169433594 267.01385498046875 305.1061706542969 274.7039794921875" stroke-width="0.0" fill="rgb(83, 85, 89)" opacity="1.0"/>
    <path d="M 188.95932006835938 448.6209411621094 C 186.91473388671875 457.4090881347656 181.40940856933594 462.9155578613281 173.5061492919922 464.9559326171875 C 164.6207275390625 462.89471435546875 159.12069702148438 457.372802734375 157.0517578125 448.7907409667969 C 159.16197204589844 440.75933837890625 164.90074157714844 435.5503234863281 173.7706756591797 433.1825256347656 C 181.40036010742188 435.1061706542969 186.91867065429688 440.59039306640625 188.95932006835938 448.6209411621094" stroke-width="0.0" fill="rgb(0, 0, 2)" opacity="1.0"/>
    <path d="M 187.0 283.0 C 184.99038696289062 290.5 179.5 295.9903869628906 172.0 298.0 C 164.5 295.9903869628906 159.00961303710938 290.5 157.0 283.0 C 159.00961303710938 275.5 164.5 270.0096130371094 172.0 268.0 C 179.5 270.0096130371094 184.99038696289062 275.5 187.0 283.0" stroke-width="0.0" fill="rgb(247, 224, 58)" opacity="1.0"/>
    <path d="M 225.5978546142578 71.04247283935547 C 223.1729278564453 78.52763366699219 217.4481964111328 83.92295837402344 209.97531127929688 85.977294921875 C 202.5 83.9903793334961 197.00961303710938 78.5 195.01028442382812 70.91797637939453 C 196.74147033691406 63.2577018737793 202.24795532226562 57.68501663208008 210.6322784423828 55.115333557128906 C 218.2145233154297 57.21635055541992 223.5677490234375 62.85898971557617 225.5978546142578 71.04247283935547" stroke-width="0.0" fill="rgb(246, 250, 250)" opacity="0.99004436"/>
    <path d="M 169.95530700683594 418.9683532714844 C 167.92037963867188 426.4406433105469 162.44454956054688 431.9336853027344 154.17138671875 434.8846740722656 C 146.6046905517578 432.901611328125 141.0977325439453 427.3953857421875 139.07838439941406 419.84765625 C 141.88034057617188 411.4263916015625 147.3733673095703 405.7325439453125 154.65101623535156 403.3972473144531 C 162.5 406.0096130371094 167.99038696289062 411.5 169.95530700683594 418.9683532714844" stroke-width="0.0" fill="rgb(13, 16, 25)" opacity="0.9922957"/>
    <path d="M 255.92147827148438 468.3750305175781 C 253.83602905273438 476.29180908203125 248.2681121826172 481.7807312011719 239.65663146972656 483.8835754394531 C 231.74041748046875 481.77423095703125 226.1671905517578 476.28546142578125 224.1554718017578 468.789794921875 C 227.09385681152344 460.5269775390625 232.5029296875 455.010498046875 240.38101196289062 452.6459655761719 C 248.229736328125 454.3262939453125 253.83676147460938 459.7138366699219 255.92147827148438 468.3750305175781" stroke-width="0.0" fill="rgb(216, 183, 67)" opacity="1.0"/>
    <path d="M 121.93512725830078 247.84312438964844 C 119.89984893798828 255.3810577392578 114.36780548095703 260.8665466308594 106.72708892822266 262.8014221191406 C 98.07849884033203 260.3760986328125 92.44136810302734 254.98126220703125 90.46147918701172 247.46568298339844 C 93.0372543334961 239.50897216796875 98.50139617919922 234.0100860595703 105.93260955810547 232.05235290527344 C 113.23909759521484 234.22442626953125 118.85836791992188 239.74783325195312 121.93512725830078 247.84312438964844" stroke-width="0.0" fill="rgb(90, 92, 100)" opacity="1.0"/>
    <path d="M 176.00582885742188 240.01226806640625 C 174.0780029296875 247.6835479736328 168.89373779296875 253.60557556152344 160.31492614746094 255.9136962890625 C 152.7581787109375 253.83055114746094 147.5084228515625 248.12124633789062 145.87466430664062 240.17800903320312 C 148.00961303710938 232.5 153.5 227.00961303710938 161.0 225.0 C 168.5 227.00961303710938 173.99038696289062 232.5 176.00582885742188 240.01226806640625" stroke-width="0.0" fill="rgb(4, 6, 16)" opacity="0.9918415"/>
    <path d="M 287.1851806640625 431.75067138671875 C 284.98980712890625 439.49951171875 279.49957275390625 444.9899597167969 271.9998474121094 446.9998474121094 C 264.5 444.9903869628906 259.0096130371094 439.5 256.139404296875 431.1903076171875 C 258.10107421875 423.6014099121094 263.5960693359375 418.08740234375 271.5161437988281 416.0413818359375 C 280.29742431640625 418.1341247558594 285.5868835449219 423.80072021484375 287.1851806640625 431.75067138671875" stroke-width="0.0" fill="rgb(12, 16, 22)" opacity="1.0"/>
    <path d="M 150.785888671875 451.2493591308594 C 147.99038696289062 459.4999694824219 142.4995574951172 464.98883056640625 134.1941375732422 467.90911865234375 C 126.79510498046875 465.8117370605469 121.31886291503906 460.1297302246094 119.13005065917969 452.5901794433594 C 121.75264739990234 444.3621826171875 127.3325424194336 438.6808166503906 135.83592224121094 436.0733947753906 C 143.38983154296875 438.10009765625 148.8789825439453 443.6176452636719 150.785888671875 451.2493591308594" stroke-width="0.0" fill="rgb(17, 21, 31)" opacity="0.9906399"/>
    <path d="M 216.86024475097656 322.6644287109375 C 214.77557373046875 331.2715759277344 209.3048858642578 336.8526916503906 200.30584716796875 338.95550537109375 C 192.59303283691406 336.91302490234375 187.09024047851562 331.4057312011719 185.07669067382812 323.7915954589844 C 187.28323364257812 314.8736572265625 192.9630126953125 309.5427551269531 201.30282592773438 307.5176696777344 C 209.17164611816406 309.3481140136719 214.76300048828125 314.78912353515625 216.86024475097656 322.6644287109375" stroke-width="0.0" fill="rgb(36, 43, 61)" opacity="0.9900683"/>
    <path d="M 253.62371826171875 194.21322631835938 C 251.99038696289062 201.5 246.5 206.99038696289062 239.0 209.0 C 231.5 206.99038696289062 226.00961303710938 201.5 223.99961853027344 193.99891662597656 C 225.9962158203125 186.46307373046875 231.35342407226562 180.67861938476562 239.7082977294922 178.0839080810547 C 247.07923889160156 180.24278259277344 251.84078979492188 186.22120666503906 253.62371826171875 194.21322631835938" stroke-width="0.0" fill="rgb(2, 5, 5)" opacity="0.9900354"/>
    <path d="M 197.78836059570312 143.71495056152344 C 195.83680725097656 151.310546875 190.2877960205078 156.77345275878906 182.7444305419922 157.156982421875 C 174.82498168945312 155.35694885253906 168.35838317871094 150.85455322265625 166.07687377929688 142.2265167236328 C 168.10281372070312 134.6060791015625 173.60186767578125 129.09249877929688 181.20001220703125 127.05296325683594 C 189.86178588867188 129.40618896484375 195.0476531982422 135.36334228515625 197.78836059570312 143.71495056152344" stroke-width="0.0" fill="rgb(4, 7, 21)" opacity="0.9900404"/>
    <path d="M 185.0 194.0 C 182.9901580810547 201.49920654296875 177.4878692626953 206.94943237304688 169.1659393310547 209.8583221435547 C 161.59971618652344 207.90426635742188 156.08944702148438 202.4027557373047 154.0469512939453 194.71971130371094 C 156.22021484375 185.8734588623047 162.0868377685547 180.75762939453125 169.95034790039062 178.97459411621094 C 177.5 181.00961303710938 182.99038696289062 186.5 185.0 194.0" stroke-width="0.0" fill="rgb(13, 16, 34)" opacity="1.0"/>
    <path d="M 202.0 357.0 C 199.99038696289062 364.5 194.5 369.9903869628906 186.34217834472656 372.6633605957031 C 178.6322479248047 370.8465576171875 173.09410095214844 365.38861083984375 171.04983520507812 357.79315185546875 C 173.40504455566406 349.1396484375 179.36753845214844 343.9544982910156 186.99423217773438 341.99774169921875 C 194.5 344.0096130371094 199.99038696289062 349.5 202.0 357.0" stroke-width="0.0" fill="rgb(0, 0, 0)" opacity="1.0"/>
    <path d="M 88.64134216308594 288.7242431640625 C 86.85549926757812 296.3514709472656 81.34272766113281 301.8280029296875 73.77794647216797 302.8985290527344 C 66.3585205078125 300.1437072753906 60.921104431152344 294.6183776855469 58.96455383300781 287.92095947265625 C 60.92043685913086 281.38037109375 66.35684204101562 275.8547668457031 73.64009094238281 273.6494140625 C 80.4786148071289 275.0190124511719 85.85649108886719 280.55908203125 88.64134216308594 288.7242431640625" stroke-width="0.0" fill="rgb(8, 9, 13)" opacity="0.9900086"/>
    <path d="M 182.9715118408203 181.03143310546875 C 180.99038696289062 188.5 175.5 193.99038696289062 168.1787109375 195.74810791015625 C 160.4725341796875 193.73497009277344 154.50218200683594 188.80430603027344 152.50363159179688 181.37286376953125 C 155.01626586914062 173.5138702392578 160.53250122070312 168.0795135498047 167.94090270996094 166.34996032714844 C 175.36216735839844 168.18942260742188 180.8919219970703 173.61338806152344 182.9715118408203 181.03143310546875" stroke-width="0.0" fill="rgb(117, 135, 161)" opacity="0.99020964"/>
    <path d="M 144.79864501953125 324.3381042480469 C 141.58164978027344 332.0946044921875 136.09555053710938 337.5797119140625 128.79383850097656 339.7580261230469 C 121.5 337.9903869628906 116.0096206665039 332.5 113.14599609375 324.2162780761719 C 115.12106323242188 316.6196594238281 120.61090850830078 311.0983581542969 128.1703338623047 309.0692138671875 C 136.9512481689453 311.6199951171875 142.72634887695312 316.9088134765625 144.79864501953125 324.3381042480469" stroke-width="0.0" fill="rgb(3, 2, 7)" opacity="0.9900569"/>
    <path d="M 119.09247589111328 332.8955383300781 C 116.917724609375 340.34112548828125 111.11892700195312 345.37493896484375 103.41641998291016 347.0621337890625 C 95.65872192382812 346.7711181640625 90.10115814208984 341.3768615722656 88.04705810546875 333.713134765625 C 90.26559448242188 324.96014404296875 96.21409606933594 319.86480712890625 104.0879135131836 317.8848571777344 C 111.752197265625 319.75311279296875 117.23609161376953 325.2510681152344 119.09247589111328 332.8955383300781" stroke-width="0.0" fill="rgb(9, 10, 16)" opacity="0.99035496"/>
    <path d="M 113.97659301757812 217.98951721191406 C 111.9903793334961 225.5 106.5 230.99038696289062 99.53050994873047 232.49339294433594 C 92.32645416259766 230.19509887695312 86.9146499633789 224.6350860595703 84.96177673339844 217.6590576171875 C 86.91362762451172 211.3861083984375 92.38873291015625 205.91969299316406 99.84672546386719 203.94589233398438 C 106.97796630859375 204.41087341308594 112.16172790527344 210.1560821533203 113.97659301757812 217.98951721191406" stroke-width="0.0" fill="rgb(14, 17, 32)" opacity="0.9900096"/>
    <path d="M 214.94296264648438 300.6712646484375 C 212.8477325439453 309.2876281738281 207.2197265625 314.66583251953125 199.18911743164062 316.6681823730469 C 191.0992431640625 314.4627685546875 185.6876678466797 308.8533020019531 183.8842010498047 301.1270751953125 C 186.0223846435547 293.52496337890625 191.55755615234375 288.1308288574219 199.6180419921875 285.8268737792969 C 207.32940673828125 287.1904296875 212.87875366210938 292.645751953125 214.94296264648438 300.6712646484375" stroke-width="0.0" fill="rgb(84, 98, 108)" opacity="1.0"/>
    <path d="M 193.0 292.0 C 190.99038696289062 299.5 185.5 304.9903869628906 177.77528381347656 307.1816711425781 C 169.89920043945312 305.51873779296875 164.27685546875 300.16546630859375 162.3647003173828 292.552734375 C 165.00961303710938 284.5 170.5 279.0096130371094 178.0 277.0 C 185.5 279.0096130371094 190.99038696289062 284.5 193.0 292.0" stroke-width="0.0" fill="rgb(102, 83, 30)" opacity="1.0"/>
    <path d="M 208.83328247070312 246.2562713623047 C 205.99038696289062 254.5 200.5 259.9903869628906 193.00172424316406 261.9985656738281 C 185.5072021484375 259.984375 180.01968383789062 254.4915771484375 178.00474548339844 246.9960479736328 C 180.00961303710938 239.5 185.5 234.00961303710938 193.23220825195312 231.82949829101562 C 201.17352294921875 233.4379425048828 206.83047485351562 238.7371826171875 208.83328247070312 246.2562713623047" stroke-width="0.0" fill="rgb(68, 76, 94)" opacity="1.0"/>
    <path d="M 185.99330139160156 275.011962890625 C 183.99038696289062 282.5 178.5 287.9903869628906 171.0 290.0 C 163.5 287.9903869628906 158.00961303710938 282.5 155.67433166503906 274.6961669921875 C 157.44888305664062 266.92767333984375 162.91510009765625 261.4121398925781 170.48876953125 260.8475036621094 C 178.26210021972656 262.4242858886719 183.92642211914062 267.6156921386719 185.99330139160156 275.011962890625" stroke-width="0.0" fill="rgb(247, 232, 78)" opacity="0.99023426"/>
    <path d="M 323.0718078613281 443.83477783203125 C 322.8499755859375 451.3582763671875 317.37158203125 456.8879089355469 308.9860534667969 458.9530334472656 C 300.61474609375 456.89508056640625 295.10418701171875 451.3855895996094 293.07635498046875 443.7678527832031 C 295.1599426269531 434.6470642089844 300.62884521484375 429.1094665527344 308.5478210449219 427.0474548339844 C 317.1644592285156 429.15936279296875 321.1833190917969 435.9726257324219 323.0718078613281 443.83477783203125" stroke-width="0.0" fill="rgb(21, 25, 31)" opacity="0.99013853"/>
    <path d="M 183.82012939453125 408.7706604003906 C 181.87820434570312 416.3644714355469 176.34544372558594 421.81964111328125 168.60020446777344 423.59759521484375 C 160.50794982910156 420.99176025390625 155.04251098632812 415.48211669921875 152.36524963378906 407.49462890625 C 154.3849639892578 400.0177307128906 160.14901733398438 394.7623291015625 167.92825317382812 392.9322204589844 C 175.50001525878906 395.0095520019531 180.99038696289062 400.5 183.82012939453125 408.7706604003906" stroke-width="0.0" fill="rgb(9, 13, 20)" opacity="1.0"/>
    <path d="M 274.85162353515625 178.5894317626953 C 272.6977233886719 186.08998107910156 267.0210266113281 191.52978515625 259.3343811035156 193.30653381347656 C 251.058349609375 191.2914276123047 245.33651733398438 186.05740356445312 243.09266662597656 177.6310577392578 C 245.38082885742188 170.10264587402344 251.32859802246094 164.9319610595703 258.99072265625 162.99578857421875 C 266.5155944824219 165.00424194335938 272.1836853027344 170.42547607421875 274.85162353515625 178.5894317626953" stroke-width="0.0" fill="rgb(59, 61, 74)" opacity="0.9904078"/>
    <path d="M 216.9343719482422 367.48388671875 C 214.8854522705078 375.37542724609375 209.37954711914062 380.8949890136719 201.72637939453125 382.95062255859375 C 192.93267822265625 380.74578857421875 187.82981872558594 374.8318176269531 186.00180053710938 367.0247497558594 C 188.00961303710938 359.5 193.5 354.0096130371094 201.81292724609375 351.1164855957031 C 209.3618621826172 353.1175537109375 214.8608856201172 358.6475524902344 216.9343719482422 367.48388671875" stroke-width="0.0" fill="rgb(11, 15, 24)" opacity="0.99044037"/>
    <path d="M 216.9244384765625 224.71649169921875 C 214.8483428955078 233.34034729003906 209.34181213378906 238.8518524169922 201.72642517089844 240.7889404296875 C 193.5 237.99037170410156 188.00961303710938 232.5 186.0 225.0 C 188.00961303710938 217.5 193.5 212.00961303710938 201.13565063476562 209.90090942382812 C 209.03004455566406 211.5963897705078 214.786865234375 216.82772827148438 216.9244384765625 224.71649169921875" stroke-width="0.0" fill="rgb(89, 101, 120)" opacity="1.0"/>
    <path d="M 88.3261947631836 310.65765380859375 C 86.00409698486328 318.5382995605469 80.65760040283203 324.3435363769531 73.78819274902344 326.31781005859375 C 66.38079833984375 323.1029968261719 60.918312072753906 317.61151123046875 58.96066665649414 311.3992004394531 C 60.92057800292969 304.3798522949219 66.35438537597656 298.8484802246094 73.7068862915039 296.3782958984375 C 81.16558837890625 297.3221435546875 86.61724090576172 302.8529052734375 88.3261947631836 310.65765380859375" stroke-width="0.0" fill="rgb(11, 13, 22)" opacity="0.9900098"/>
    <path d="M 140.78460693359375 270.26837158203125 C 138.4110870361328 279.0574645996094 133.20387268066406 284.81158447265625 124.29068756103516 286.9532775878906 C 116.65957641601562 284.886962890625 111.29719543457031 279.2760925292969 109.38179779052734 270.65972900390625 C 111.2208251953125 262.6871643066406 116.65242004394531 257.12164306640625 125.57487487792969 255.0457305908203 C 133.3916778564453 257.0943603515625 138.87435913085938 262.6200866699219 140.78460693359375 270.26837158203125" stroke-width="0.0" fill="rgb(2, 1, 1)" opacity="1.0"/>
    <path d="M 118.51787567138672 272.3688049316406 C 116.75035858154297 280.2858581542969 111.323486328125 285.8584289550781 103.77482604980469 287.8946533203125 C 95.23419952392578 285.34942626953125 89.82835388183594 279.70941162109375 88.11527252197266 272.1692810058594 C 90.2356948852539 264.6341857910156 95.5384292602539 258.9311218261719 103.44174194335938 256.6540832519531 C 111.16925811767578 258.3187561035156 116.60497283935547 263.8530578613281 118.51787567138672 272.3688049316406" stroke-width="0.0" fill="rgb(66, 66, 72)" opacity="0.9903825"/>
    <path d="M 159.9276123046875 355.5868225097656 C 157.8663330078125 363.34893798828125 152.35044860839844 368.8702087402344 144.41343688964844 370.947998046875 C 135.6878204345703 368.86151123046875 130.32411193847656 363.2491149902344 128.6805877685547 355.3502502441406 C 130.9427032470703 347.435791015625 136.45010375976562 341.99603271484375 143.88856506347656 340.4455261230469 C 151.88970947265625 341.9606628417969 157.7505340576172 346.8930969238281 159.9276123046875 355.5868225097656" stroke-width="0.0" fill="rgb(36, 46, 63)" opacity="0.99017787"/>
    <path d="M 218.0601043701172 84.21221160888672 C 216.15235900878906 90.73455810546875 210.81097412109375 96.3766860961914 203.71292114257812 98.76325225830078 C 196.5 96.9903793334961 191.00961303710938 91.5 188.99984741210938 83.99958038330078 C 191.00482177734375 76.48694610595703 196.45213317871094 70.8887939453125 204.50289916992188 68.16437530517578 C 210.7699737548828 71.57901763916016 216.13746643066406 77.29933166503906 218.0601043701172 84.21221160888672" stroke-width="0.0" fill="rgb(52, 65, 85)" opacity="0.990037"/>
    <path d="M 241.91708374023438 429.1907958984375 C 239.0247039794922 437.4817199707031 233.45797729492188 442.9384460449219 225.12791442871094 445.9291076660156 C 217.6028289794922 443.91131591796875 212.1002655029297 438.3918762207031 210.05235290527344 430.746337890625 C 212.32818603515625 422.04632568359375 218.2948455810547 416.91595458984375 226.21080017089844 414.83709716796875 C 234.1630859375 416.4546203613281 239.84571838378906 421.7313232421875 241.91708374023438 429.1907958984375" stroke-width="0.0" fill="rgb(5, 8, 17)" opacity="0.9903009"/>
    <path d="M 199.9551239013672 483.15869140625 C 196.4528350830078 490.70166015625 190.63246154785156 496.0798645019531 183.67799377441406 498.0315246582031 C 177.33485412597656 496.0945129394531 171.69586181640625 490.7384948730469 169.2823944091797 483.6522521972656 C 170.9886016845703 476.44317626953125 176.2893524169922 470.57574462890625 184.82736206054688 468.0613708496094 C 192.40135192871094 470.0898132324219 197.91017150878906 475.5987854003906 199.9551239013672 483.15869140625" stroke-width="0.0" fill="rgb(3, 2, 4)" opacity="0.9900167"/>
    <path d="M 197.9608154296875 398.76495361328125 C 195.92222595214844 406.41375732421875 190.40928649902344 411.91180419921875 182.85784912109375 413.9308166503906 C 174.4653778076172 411.08026123046875 169.01499938964844 405.50701904296875 167.0719451904297 398.00091552734375 C 169.02352905273438 390.5067443847656 174.50326538085938 385.01141357421875 182.16610717773438 382.8871154785156 C 190.11529541015625 384.52166748046875 195.83909606933594 389.7535705566406 197.9608154296875 398.76495361328125" stroke-width="0.0" fill="rgb(0, 0, 0)" opacity="1.0"/>
    <path d="M 158.71841430664062 150.26014709472656 C 155.22850036621094 157.77828979492188 149.81109619140625 163.33181762695312 142.6311798095703 165.64886474609375 C 135.5 163.99038696289062 130.00961303710938 158.5 128.7309112548828 151.68418884277344 C 130.86013793945312 144.3448028564453 136.3582000732422 138.89633178710938 143.4313507080078 136.95632934570312 C 149.8568878173828 138.81747436523438 156.52383422851562 143.7080841064453 158.71841430664062 150.26014709472656" stroke-width="0.0" fill="rgb(20, 24, 29)" opacity="0.9900143"/>
    <path d="M 118.88700103759766 311.31939697265625 C 116.46499633789062 319.2597961425781 109.90367126464844 324.2343444824219 102.7834243774414 326.0792236328125 C 96.07546997070312 324.2645263671875 90.2946548461914 319.0860900878906 87.73473358154297 311.6591491699219 C 89.40276336669922 303.8335876464844 94.7509994506836 298.17742919921875 102.47824096679688 296.08612060546875 C 111.30525207519531 298.1749572753906 116.83480834960938 303.6908874511719 118.88700103759766 311.31939697265625" stroke-width="0.0" fill="rgb(185, 188, 192)" opacity="1.0"/>
    <path d="M 157.8695831298828 303.7525939941406 C 155.83984375 311.3055419921875 150.29005432128906 316.8031921386719 142.6365966796875 318.85760498046875 C 133.94078063964844 316.43548583984375 128.169189453125 311.2190246582031 126.05879211425781 303.7075500488281 C 128.37013244628906 295.0845947265625 134.30751037597656 289.9189147949219 141.99267578125 287.99224853515625 C 149.55421447753906 289.9815368652344 155.19615173339844 295.39007568359375 157.8695831298828 303.7525939941406" stroke-width="0.0" fill="rgb(55, 62, 84)" opacity="1.0"/>
    <path d="M 100.772216796875 316.6160888671875 C 98.77882385253906 324.2378234863281 93.2603988647461 329.8249206542969 84.59375 331.9507751464844 C 76.67095184326172 329.8741455078125 71.294921875 324.2708435058594 69.65705108642578 316.39984130859375 C 72.00395965576172 308.4584045410156 77.30260467529297 302.5853576660156 85.80335998535156 300.0615539550781 C 93.33377838134766 302.118408203125 98.7079086303711 307.728515625 100.772216796875 316.6160888671875" stroke-width="0.0" fill="rgb(18, 17, 19)" opacity="1.0"/>
    <path d="M 161.8484649658203 483.3316955566406 C 158.51336669921875 490.9257507324219 152.85641479492188 496.2748107910156 145.6343231201172 498.15533447265625 C 138.0219268798828 496.8101806640625 132.2046356201172 492.1852722167969 130.09886169433594 484.4047546386719 C 132.24517822265625 475.7855224609375 137.8080596923828 470.3100891113281 145.89796447753906 468.37286376953125 C 154.23431396484375 470.301513671875 159.80197143554688 475.7318420410156 161.8484649658203 483.3316955566406" stroke-width="0.0" fill="rgb(203, 188, 73)" opacity="1.0"/>
    <path d="M 276.0043029785156 203.9918670654297 C 273.9903869628906 211.5 268.5 216.99038696289062 260.30926513671875 219.81129455566406 C 252.83609008789062 217.76992797851562 247.60763549804688 212.0325469970703 245.388916015625 203.5480499267578 C 247.338623046875 195.88914489746094 252.926513671875 190.4486541748047 260.6881103515625 188.726318359375 C 268.6201171875 190.82835388183594 274.03375244140625 196.4228515625 276.0043029785156 203.9918670654297" stroke-width="0.0" fill="rgb(92, 104, 122)" opacity="1.0"/>
    <path d="M 255.79359436035156 213.84600830078125 C 253.8990020751953 221.39601135253906 248.39878845214844 226.9063720703125 239.61508178710938 228.95925903320312 C 231.6031036376953 226.91085815429688 226.10459899902344 221.39010620117188 224.06141662597656 213.58502197265625 C 226.17617797851562 204.75399780273438 231.85231018066406 199.45855712890625 239.58404541015625 198.1953887939453 C 246.9236602783203 200.56842041015625 252.31472778320312 206.11508178710938 255.79359436035156 213.84600830078125" stroke-width="0.0" fill="rgb(2, 2, 2)" opacity="0.9900608"/>
    <path d="M 206.7352294921875 266.59344482421875 C 204.6676025390625 273.860107421875 198.14520263671875 278.3641662597656 190.49957275390625 280.371826171875 C 183.5 278.9903869628906 178.00961303710938 273.5 176.1481170654297 266.06781005859375 C 178.07684326171875 258.51080322265625 183.4755401611328 252.9599151611328 190.97337341308594 250.95960998535156 C 198.5 253.00961303710938 203.99038696289062 258.5 206.7352294921875 266.59344482421875" stroke-width="0.0" fill="rgb(47, 51, 64)" opacity="0.99010026"/>
    <path d="M 207.7057342529297 173.54718017578125 C 204.8675537109375 181.33619689941406 199.2895050048828 186.71664428710938 191.96334838867188 188.74234008789062 C 184.91763305664062 186.645263671875 179.55447387695312 181.02052307128906 176.82862854003906 174.30076599121094 C 179.75808715820312 167.26063537597656 185.29641723632812 161.8570556640625 191.5372772216797 159.94981384277344 C 198.70913696289062 161.8760223388672 204.7611846923828 167.16525268554688 207.7057342529297 173.54718017578125" stroke-width="0.0" fill="rgb(56, 53, 42)" opacity="0.99001324"/>
    <path d="M 133.96253967285156 338.0158386230469 C 131.99038696289062 345.5 126.5 350.9903869628906 119.0 353.0 C 111.50006103515625 350.9903564453125 106.01071166992188 345.4996337890625 104.02727508544922 338.00592041015625 C 106.02299499511719 330.51116943359375 111.51116180419922 325.0231018066406 119.00714111328125 323.01361083984375 C 126.4952621459961 325.01214599609375 131.97268676757812 330.5091247558594 133.96253967285156 338.0158386230469" stroke-width="0.0" fill="rgb(2, 2, 3)" opacity="0.9975846"/>
    <path d="M 274.0879821777344 172.91043090820312 C 273.6738586425781 179.95457458496094 267.6908874511719 185.039306640625 260.44378662109375 186.4499969482422 C 252.99014282226562 184.4209442138672 247.37503051757812 179.07261657714844 244.12503051757812 171.27708435058594 C 246.27642822265625 163.9551544189453 252.1768035888672 158.82891845703125 259.3088684082031 157.67568969726562 C 266.6180114746094 159.88357543945312 272.06610107421875 165.39990234375 274.0879821777344 172.91043090820312" stroke-width="0.0" fill="rgb(6, 6, 12)" opacity="0.9900444"/>
    <path d="M 230.1178741455078 181.88351440429688 C 227.99038696289062 189.5 222.5 194.99038696289062 214.9963836669922 197.00181579589844 C 207.4547882080078 195.01283264160156 201.80039978027344 189.60397338867188 199.20619201660156 181.48916625976562 C 201.32151794433594 173.8246307373047 206.7726593017578 168.20242309570312 214.25099182128906 166.22508239746094 C 222.65921020507812 169.1241455078125 228.26365661621094 174.2506103515625 230.1178741455078 181.88351440429688" stroke-width="0.0" fill="rgb(104, 127, 145)" opacity="0.99060225"/>
    <path d="M 191.62750244140625 278.32470703125 C 189.99038696289062 285.5 184.5 290.9903869628906 177.0 293.0 C 169.5 290.9903869628906 164.00961303710938 285.5 161.8965301513672 277.8753356933594 C 163.65863037109375 270.077880859375 168.988037109375 264.3897705078125 176.39532470703125 262.572021484375 C 183.9862823486328 265.54132080078125 189.43795776367188 271.021240234375 191.62750244140625 278.32470703125" stroke-width="0.0" fill="rgb(202, 164, 29)" opacity="0.9904941"/>
    <path d="M 132.93426513671875 187.50953674316406 C 130.75735473632812 196.11949157714844 124.94740295410156 201.29893493652344 116.5535659790039 203.47206115722656 C 108.74413299560547 201.73072814941406 103.24122619628906 196.26466369628906 102.82084655761719 188.71836853027344 C 104.792236328125 181.23887634277344 110.2177505493164 175.73074340820312 117.80117797851562 172.1466827392578 C 125.3463134765625 174.1407928466797 130.86183166503906 179.65284729003906 132.93426513671875 187.50953674316406" stroke-width="0.0" fill="rgb(102, 111, 129)" opacity="1.0"/>
    <path d="M 264.91650390625 279.8298034667969 C 262.8948669433594 287.36676025390625 257.32916259765625 292.78326416015625 249.5157470703125 294.4755859375 C 241.5 291.9903869628906 236.00961303710938 286.5 233.8794708251953 278.8153381347656 C 235.4912872314453 270.86260986328125 240.75088500976562 265.1684875488281 248.22267150878906 263.1241149902344 C 256.4879455566406 266.0135192871094 262.088623046875 271.4822998046875 264.91650390625 279.8298034667969" stroke-width="0.0" fill="rgb(2, 2, 2)" opacity="1.0"/>
    <path d="M 264.2796936035156 442.1237487792969 C 262.599853515625 450.20587158203125 257.2976989746094 455.8633117675781 249.82203674316406 457.90521240234375 C 241.4997100830078 454.9914245605469 236.00961303710938 449.5 233.92630004882812 441.80224609375 C 235.44615173339844 433.8189392089844 240.7115020751953 428.1382141113281 249.246826171875 426.04486083984375 C 257.2689514160156 428.1460876464844 262.50537109375 433.85638427734375 264.2796936035156 442.1237487792969" stroke-width="0.0" fill="rgb(7, 8, 11)" opacity="1.0"/>
    <path d="M 212.27774047851562 82.88079071044922 C 209.99081420898438 90.5001220703125 204.5 95.9903793334961 197.0 98.0 C 189.5 95.9903793334961 184.00961303710938 90.5 181.15020751953125 82.24960327148438 C 183.17298889160156 74.72457122802734 188.7648468017578 69.27383422851562 196.53665161132812 67.72172546386719 C 204.62380981445312 69.79837799072266 210.12554931640625 75.40154266357422 212.27774047851562 82.88079071044922" stroke-width="0.0" fill="rgb(60, 70, 91)" opacity="0.9902257"/>
    <path d="M 183.34494018554688 230.63426208496094 C 180.99038696289062 238.5 175.5 243.99038696289062 168.0 246.0 C 160.5 243.99038696289062 155.00961303710938 238.5 152.84933471679688 230.7975616455078 C 154.48590087890625 222.8734130859375 159.7715301513672 217.19003295898438 167.6053466796875 215.0892333984375 C 176.25283813476562 217.19805908203125 181.652587890625 222.797607421875 183.34494018554688 230.63426208496094" stroke-width="0.0" fill="rgb(48, 56, 73)" opacity="1.0"/>
    <path d="M 214.16221618652344 133.19068908691406 C 212.4523468017578 141.02159118652344 207.08152770996094 146.64117431640625 198.69537353515625 148.58973693847656 C 191.21934509277344 146.4913787841797 185.95425415039062 140.61058044433594 183.1769561767578 132.2733154296875 C 185.1922149658203 124.85498046875 191.93545532226562 120.82479858398438 199.8126983642578 118.94377899169922 C 206.4566192626953 120.14369201660156 211.9893035888672 125.50364685058594 214.16221618652344 133.19068908691406" stroke-width="0.0" fill="rgb(2, 3, 2)" opacity="0.9900377"/>
    <path d="M 216.92123413085938 255.29226684570312 C 214.7978973388672 264.28350830078125 209.29788208007812 269.83123779296875 201.72450256347656 271.8068542480469 C 193.51634216308594 268.962646484375 188.01625061035156 263.489990234375 185.8829345703125 255.91714477539062 C 187.8719024658203 248.4092254638672 193.43772888183594 242.96505737304688 201.726318359375 240.21731567382812 C 209.3634033203125 242.13815307617188 214.88671875 247.62744140625 216.92123413085938 255.29226684570312" stroke-width="0.0" fill="rgb(41, 51, 63)" opacity="1.0"/>
    <path d="M 276.79315185546875 333.2399597167969 C 273.9839782714844 341.49652099609375 268.498046875 346.98931884765625 260.3584899902344 349.65313720703125 C 252.64013671875 347.836669921875 247.0946502685547 342.3845520019531 245.04017639160156 333.8901672363281 C 247.09298706054688 325.6021423339844 252.6057586669922 320.10247802734375 261.09912109375 318.1147155761719 C 269.3965759277344 320.0997009277344 274.8851013183594 325.60870361328125 276.79315185546875 333.2399597167969" stroke-width="0.0" fill="rgb(5, 5, 10)" opacity="0.99091387"/>
    <path d="M 264.1294860839844 153.64036560058594 C 263.0100402832031 160.6023712158203 257.5425109863281 165.82655334472656 249.2084197998047 168.81834411621094 C 241.63475036621094 166.8738250732422 236.1170196533203 161.36871337890625 234.05870056152344 153.54364013671875 C 236.17617797851562 144.7572784423828 241.91195678710938 140.06005859375 249.54087829589844 138.88037109375 C 256.7460632324219 140.79202270507812 262.1876220703125 146.26193237304688 264.1294860839844 153.64036560058594" stroke-width="0.0" fill="rgb(89, 107, 131)" opacity="0.9900589"/>
    <path d="M 250.9606475830078 356.72723388671875 C 248.90232849121094 365.3887634277344 243.3841552734375 370.8916320800781 235.24267578125 372.9477844238281 C 226.63465881347656 370.88165283203125 221.13516235351562 365.3586120605469 219.09115600585938 357.2781677246094 C 221.1690216064453 348.6935729980469 226.69642639160156 343.17608642578125 235.63818359375 341.0759582519531 C 243.3831787109375 343.1120910644531 248.9078826904297 348.60821533203125 250.9606475830078 356.72723388671875" stroke-width="0.0" fill="rgb(31, 39, 55)" opacity="0.99028724"/>
    <path d="M 289.9582214355469 392.598388671875 C 287.9024353027344 400.38677978515625 282.3824157714844 405.8924865722656 274.1663818359375 407.9508361816406 C 265.6112976074219 405.8946838378906 260.0915832519531 400.39471435546875 258.0387878417969 392.3690490722656 C 260.11358642578125 383.6610107421875 265.72747802734375 378.30548095703125 274.0835266113281 376.4979248046875 C 282.2737121582031 378.290283203125 287.8760986328125 383.668701171875 289.9582214355469 392.598388671875" stroke-width="0.0" fill="rgb(14, 17, 24)" opacity="1.0"/>
    <path d="M 249.96253967285156 397.45965576171875 C 247.89927673339844 406.3870544433594 242.3854522705078 411.8951110839844 234.82359313964844 413.8881530761719 C 226.1597137451172 411.1941833496094 220.30125427246094 406.0325927734375 218.06837463378906 397.27252197265625 C 220.10826110839844 389.6186828613281 225.61962890625 384.1104431152344 234.52508544921875 382.04962158203125 C 242.403076171875 384.0937194824219 247.917724609375 389.5919189453125 249.96253967285156 397.45965576171875" stroke-width="0.0" fill="rgb(27, 34, 46)" opacity="1.0"/>
    <path d="M 220.92872619628906 204.57333374023438 C 218.8372039794922 212.2765350341797 213.19842529296875 217.59767150878906 205.19207763671875 218.74940490722656 C 197.71835327148438 216.84933471679688 192.45277404785156 211.1824493408203 190.4333953857422 203.69216918945312 C 192.00961303710938 196.5 197.5 191.00961303710938 205.01580810546875 188.9927520751953 C 212.72244262695312 190.8998260498047 218.65943908691406 196.04876708984375 220.92872619628906 204.57333374023438" stroke-width="0.0" fill="rgb(11, 13, 27)" opacity="0.9903365"/>
    <path d="M 214.08746337890625 89.57954406738281 C 212.2258758544922 97.0383529663086 207.7458038330078 103.39825439453125 200.11886596679688 104.07949829101562 C 192.61550903320312 102.68299865722656 187.0116729736328 97.48958587646484 185.0010223388672 90.00272369384766 C 187.0261993408203 82.53545379638672 192.58880615234375 77.1973648071289 199.83084106445312 75.63919067382812 C 206.93603515625 77.53459167480469 212.2523193359375 83.1419906616211 214.08746337890625 89.57954406738281" stroke-width="0.0" fill="rgb(13, 14, 26)" opacity="0.9900663"/>
    <path d="M 135.01040649414062 218.93832397460938 C 132.88633728027344 226.36502075195312 127.3154296875 231.7269287109375 119.86534881591797 233.53533935546875 C 112.5309829711914 231.91371154785156 106.99494934082031 226.4956817626953 104.70687103271484 218.89645385742188 C 106.89871978759766 211.5342559814453 112.66863250732422 206.32118225097656 120.158203125 204.64633178710938 C 127.5268783569336 206.09527587890625 133.07981872558594 211.42428588867188 135.01040649414062 218.93832397460938" stroke-width="0.0" fill="rgb(36, 48, 59)" opacity="0.9901646"/>
    <path d="M 191.0002899169922 196.0242462158203 C 188.99774169921875 203.46466064453125 183.36553955078125 208.70164489746094 176.34620666503906 210.18785095214844 C 168.7679443359375 208.56126403808594 163.07818603515625 203.35304260253906 160.5619354248047 195.7980499267578 C 163.00953674316406 188.86740112304688 169.0507049560547 183.6986846923828 176.3213653564453 181.87806701660156 C 183.15000915527344 183.55648803710938 188.89344787597656 188.6835174560547 191.0002899169922 196.0242462158203" stroke-width="0.0" fill="rgb(6, 7, 13)" opacity="0.99004745"/>
    <path d="M 173.0 238.0 C 170.99038696289062 245.5 165.5 250.99038696289062 157.25733947753906 253.79190063476562 C 149.63565063476562 251.867919921875 144.14207458496094 246.36094665527344 142.24853515625 238.71151733398438 C 145.00677490234375 230.49778747558594 150.49803161621094 225.00787353515625 157.99053955078125 223.11654663085938 C 165.4986572265625 225.01414489746094 170.9903564453125 230.5001220703125 173.0 238.0" stroke-width="0.0" fill="rgb(6, 6, 14)" opacity="1.0"/>
    <path d="M 163.13072204589844 174.99713134765625 C 161.44723510742188 183.08326721191406 156.20663452148438 188.8022003173828 147.35499572753906 190.93850708007812 C 139.6134796142578 188.89321899414062 134.10032653808594 183.38916015625 132.08444213867188 175.84922790527344 C 135.00933837890625 167.50015258789062 140.50331115722656 162.0208740234375 148.31239318847656 159.5289306640625 C 155.5432891845703 161.7884521484375 161.05026245117188 167.51504516601562 163.13072204589844 174.99713134765625" stroke-width="0.0" fill="rgb(95, 112, 137)" opacity="1.0"/>
    <path d="M 161.031982421875 275.89892578125 C 158.99038696289062 283.5 153.5 288.9903869628906 146.03030395507812 290.9836730957031 C 138.76223754882812 288.83612060546875 133.62672424316406 283.0663757324219 131.91859436035156 276.5901184082031 C 133.80506896972656 269.1517028808594 138.67323303222656 262.36370849609375 145.80625915527344 260.1540832519531 C 154.10240173339844 262.28985595703125 159.3596649169922 268.0160217285156 161.031982421875 275.89892578125" stroke-width="0.0" fill="rgb(229, 182, 13)" opacity="0.990054"/>
    <path d="M 204.12217712402344 233.09375 C 202.1617431640625 240.5784149169922 196.4828643798828 245.86709594726562 188.90634155273438 247.83457946777344 C 181.5 245.99038696289062 176.00961303710938 240.5 174.04933166503906 233.0359649658203 C 176.08668518066406 225.55711364746094 181.5435791015625 220.0418701171875 189.0083465576172 218.00616455078125 C 196.5 220.00961303710938 201.99038696289062 225.5 204.12217712402344 233.09375" stroke-width="0.0" fill="rgb(23, 30, 36)" opacity="0.99146926"/>
    <path d="M 296.0594787597656 245.9103546142578 C 294.0411376953125 253.61732482910156 288.8024597167969 259.51959228515625 280.93682861328125 261.8785095214844 C 273.0740966796875 259.5948791503906 267.77276611328125 253.78463745117188 265.90447998046875 246.08786010742188 C 268.0096130371094 238.5 273.5 233.00961303710938 281.74896240234375 230.13059997558594 C 289.16015625 232.21707153320312 294.345947265625 238.00033569335938 296.0594787597656 245.9103546142578" stroke-width="0.0" fill="rgb(68, 66, 71)" opacity="0.99038213"/>
    <path d="M 197.9390869140625 383.7649841308594 C 195.85205078125 391.26727294921875 190.1428985595703 396.5044860839844 182.13182067871094 398.145751953125 C 174.0605010986328 396.2720031738281 168.2196807861328 391.1362609863281 166.05111694335938 382.26190185546875 C 168.09396362304688 374.6054382324219 173.60910034179688 369.1026916503906 181.17462158203125 367.1123962402344 C 189.6018829345703 369.9520263671875 195.4818878173828 375.2322692871094 197.9390869140625 383.7649841308594" stroke-width="0.0" fill="rgb(0, 0, 2)" opacity="1.0"/>
    <path d="M 207.0877227783203 90.93799591064453 C 205.05465698242188 98.46211242675781 199.18673706054688 103.40465545654297 191.3727264404297 105.08853912353516 C 183.66014099121094 104.7691879272461 178.09756469726562 99.37841796875 176.0693817138672 91.80521392822266 C 178.2123565673828 82.7588882446289 183.8190155029297 77.41197967529297 191.82591247558594 76.20845794677734 C 199.69725036621094 77.8170394897461 205.2148895263672 83.2934341430664 207.0877227783203 90.93799591064453" stroke-width="0.0" fill="rgb(30, 40, 53)" opacity="0.99008"/>
    <path d="M 287.0791320800781 221.78005981445312 C 286.8321228027344 229.31947326660156 281.29229736328125 234.73809814453125 273.3615417480469 236.15802001953125 C 264.9944152832031 234.33802795410156 259.19781494140625 229.17864990234375 257.0847473144531 221.75717163085938 C 259.6897888183594 213.46762084960938 265.65594482421875 208.23373413085938 273.5271911621094 205.46072387695312 C 281.1883239746094 207.27427673339844 285.4626159667969 212.9799346923828 287.0791320800781 221.78005981445312" stroke-width="0.0" fill="rgb(23, 26, 42)" opacity="0.9901285"/>
    <path d="M 93.25393676757812 271.5881042480469 C 91.33390808105469 278.9267883300781 85.99351501464844 284.5369567871094 78.74964904785156 286.9352111816406 C 71.56110382080078 285.125732421875 66.67877197265625 279.09466552734375 64.96112060546875 272.7995300292969 C 66.92903137207031 265.4014587402344 72.40169525146484 259.9294738769531 79.87846374511719 257.94622802734375 C 87.16820526123047 258.2593688964844 92.18390655517578 263.95703125 93.25393676757812 271.5881042480469" stroke-width="0.0" fill="rgb(15, 15, 17)" opacity="0.99001044"/>
    <path d="M 203.90797424316406 352.1532897949219 C 200.9653778076172 360.4937438964844 195.50831604003906 366.01470947265625 188.01585388183594 368.057373046875 C 180.49949645996094 365.9925842285156 175.02059936523438 360.49688720703125 172.08612060546875 352.1410217285156 C 174.08958435058594 344.595947265625 179.59417724609375 339.08544921875 188.0479736328125 337.03717041015625 C 196.40182495117188 339.0895690917969 201.90382385253906 344.6008605957031 203.90797424316406 352.1532897949219" stroke-width="0.0" fill="rgb(0, 1, 2)" opacity="1.0"/>
    <path d="M 163.95339965820312 461.6005859375 C 161.8918914794922 469.3576965332031 156.30038452148438 474.6758728027344 147.2675323486328 475.3246765136719 C 139.6768341064453 474.83056640625 134.1810760498047 469.3193359375 132.3148956298828 461.6448974609375 C 135.01417541503906 453.5025939941406 140.49517822265625 447.9874267578125 148.8396759033203 445.0859069824219 C 156.3837127685547 447.1016540527344 161.88133239746094 452.62353515625 163.95339965820312 461.6005859375" stroke-width="0.0" fill="rgb(14, 16, 21)" opacity="0.9901921"/>
    <path d="M 293.08331298828125 195.0947723388672 C 291.1839904785156 201.7531280517578 285.8345031738281 207.5429229736328 279.527099609375 210.5621337890625 C 271.6672058105469 207.66366577148438 265.9385681152344 202.46337890625 263.42578125 194.6490020751953 C 265.45794677734375 186.9446563720703 270.8446044921875 181.23207092285156 278.1584777832031 179.67698669433594 C 285.7019958496094 182.83279418945312 291.1570129394531 188.30203247070312 293.08331298828125 195.0947723388672" stroke-width="0.0" fill="rgb(86, 92, 111)" opacity="0.9900372"/>
    <path d="M 288.3043518066406 373.2530517578125 C 286.4608154296875 380.9225158691406 280.8822021484375 386.329345703125 272.5582275390625 388.47601318359375 C 264.6826477050781 386.764892578125 259.1040954589844 381.3624267578125 257.0452880859375 373.6562194824219 C 259.1487121582031 364.72021484375 264.8193054199219 359.43536376953125 272.8999328613281 357.65533447265625 C 280.6624450683594 359.7588806152344 286.05303955078125 365.396728515625 288.3043518066406 373.2530517578125" stroke-width="0.0" fill="rgb(10, 14, 20)" opacity="1.0"/>
    <path d="M 225.03897094726562 126.70587921142578 C 223.13938903808594 132.76417541503906 218.0161895751953 139.380859375 211.437744140625 141.44044494628906 C 203.41624450683594 139.1515655517578 198.03501892089844 133.5267333984375 195.83096313476562 125.9466552734375 C 198.13848876953125 118.32246398925781 202.94053649902344 112.2318344116211 210.10464477539062 111.80440521240234 C 217.60440063476562 113.91991424560547 223.06900024414062 119.40037536621094 225.03897094726562 126.70587921142578" stroke-width="0.0" fill="rgb(16, 21, 38)" opacity="0.9900094"/>
    <path d="M 180.04489135742188 282.9364013671875 C 177.99032592773438 290.4998779296875 172.50035095214844 295.9921569824219 164.38330078125 298.8123779296875 C 157.1116943359375 296.5903625488281 151.89906311035156 290.6974792480469 150.07568359375 283.06768798828125 C 152.21681213378906 275.8648376464844 157.9661865234375 270.56866455078125 165.60546875 267.41748046875 C 172.93621826171875 269.43267822265625 178.2205352783203 275.18280029296875 180.04489135742188 282.9364013671875" stroke-width="0.0" fill="rgb(111, 76, 11)" opacity="0.9900506"/>
    <path d="M 303.9508361816406 332.6430969238281 C 301.8553466796875 341.2877502441406 296.1932678222656 346.5791931152344 288.2413635253906 348.1741027832031 C 280.49957275390625 345.98992919921875 275.00250244140625 340.5025939941406 272.1492614746094 332.20562744140625 C 274.1116027832031 324.6180725097656 279.6189880371094 319.1135559082031 287.37176513671875 317.07659912109375 C 296.2707214355469 319.2299499511719 301.8633728027344 324.68701171875 303.9508361816406 332.6430969238281" stroke-width="0.0" fill="rgb(9, 14, 17)" opacity="1.0"/>
    <path d="M 306.0402526855469 248.32289123535156 C 304.0919494628906 254.62985229492188 298.6493835449219 260.14849853515625 291.5221252441406 262.2471923828125 C 284.81207275390625 260.574462890625 279.41546630859375 255.18894958496094 277.7193298339844 248.1495361328125 C 279.47552490234375 240.91268920898438 285.0131530761719 235.6893768310547 291.2370300292969 233.95094299316406 C 298.6095886230469 235.9175567626953 304.0796813964844 241.39163208007812 306.0402526855469 248.32289123535156" stroke-width="0.0" fill="rgb(18, 18, 20)" opacity="0.9900079"/>
    <path d="M 243.22833251953125 189.81930541992188 C 240.98951721191406 197.48683166503906 235.5052947998047 203.0547637939453 227.1582489013672 205.9236602783203 C 219.6472625732422 203.8925018310547 214.26824951171875 198.29739379882812 213.37844848632812 190.57969665527344 C 215.61647033691406 183.0930938720703 221.12521362304688 177.7049102783203 228.7083282470703 175.75518798828125 C 236.13157653808594 176.2959747314453 241.46739196777344 181.9452362060547 243.22833251953125 189.81930541992188" stroke-width="0.0" fill="rgb(10, 18, 30)" opacity="0.9900704"/>
    <path d="M 128.7682647705078 467.7317199707031 C 126.81610870361328 475.2798767089844 121.29190063476562 480.83990478515625 112.37214660644531 482.9481201171875 C 104.61510467529297 480.8987121582031 99.13402557373047 475.373046875 98.93933868408203 467.8529357910156 C 100.72589111328125 458.91015625 104.67333221435547 453.11053466796875 112.44737243652344 451.04736328125 C 121.2744369506836 453.150634765625 126.50788116455078 458.8358154296875 128.7682647705078 467.7317199707031" stroke-width="0.0" fill="rgb(8, 6, 9)" opacity="0.99003834"/>
    <path d="M 280.5748291015625 441.5817565917969 C 278.807861328125 449.3365173339844 273.3653869628906 454.89044189453125 265.6499938964844 456.95147705078125 C 256.7808532714844 454.81793212890625 251.55477905273438 449.0855407714844 249.81161499023438 440.9661865234375 C 251.57102966308594 433.0014343261719 256.9491882324219 427.4011535644531 264.6097106933594 425.5505676269531 C 272.49945068359375 428.00994873046875 277.9891662597656 433.50079345703125 280.5748291015625 441.5817565917969" stroke-width="0.0" fill="rgb(10, 12, 21)" opacity="1.0"/>
    <path d="M 192.2910614013672 242.1086883544922 C 190.12466430664062 249.59371948242188 184.57591247558594 255.0643768310547 177.0501708984375 256.997314453125 C 169.5452423095703 254.93658447265625 164.0464630126953 249.4597930908203 162.01148986816406 241.98802185058594 C 164.00930786132812 234.4994354248047 169.4986572265625 229.00656127929688 177.01942443847656 226.8890380859375 C 184.5017852783203 229.0014190673828 189.98902893066406 234.5009307861328 192.2910614013672 242.1086883544922" stroke-width="0.0" fill="rgb(50, 59, 69)" opacity="0.9911276"/>
    <path d="M 174.70350646972656 238.20225524902344 C 173.0043182373047 245.5081787109375 167.5101776123047 251.0088653564453 160.0088653564453 253.02957153320312 C 152.49888610839844 250.99160766601562 147.0083465576172 245.5011444091797 144.9960174560547 237.99974060058594 C 147.00808715820312 230.49647521972656 152.49462890625 225.002197265625 159.81076049804688 223.28843688964844 C 167.16773986816406 225.38026428222656 172.6463623046875 230.82342529296875 174.70350646972656 238.20225524902344" stroke-width="0.0" fill="rgb(7, 7, 20)" opacity="0.99060726"/>
    <path d="M 134.517822265625 340.9582214355469 C 132.9423065185547 348.48333740234375 127.49647521972656 353.98870849609375 120.34780883789062 355.68609619140625 C 113.19513702392578 353.3385314941406 107.78971099853516 347.7645263671875 105.66883087158203 340.39892578125 C 107.01075744628906 333.5008239746094 112.50069427490234 328.0103454589844 119.9997787475586 326.0010070800781 C 127.4952392578125 328.0121765136719 132.94808959960938 333.51605224609375 134.517822265625 340.9582214355469" stroke-width="0.0" fill="rgb(2, 2, 2)" opacity="0.99029136"/>
    <path d="M 153.90060424804688 402.2026672363281 C 151.13140869140625 410.5894470214844 145.6649627685547 416.3327941894531 137.20582580566406 418.9080810546875 C 129.6054229736328 416.896484375 124.08544921875 411.4021301269531 122.04820251464844 403.8289794921875 C 124.33233642578125 395.0421142578125 130.2790985107422 389.90753173828125 138.69113159179688 387.2533264160156 C 146.34347534179688 389.1578674316406 151.87448120117188 394.6444091796875 153.90060424804688 402.2026672363281" stroke-width="0.0" fill="rgb(19, 22, 31)" opacity="1.0"/>
    <path d="M 116.15702056884766 236.33917236328125 C 114.56465911865234 243.1953582763672 109.25531768798828 248.73876953125 101.76971435546875 251.18234252929688 C 94.25990295410156 249.24795532226562 89.10629272460938 243.6609344482422 87.81138610839844 236.12844848632812 C 88.59507751464844 227.87107849121094 93.80148315429688 222.27178955078125 101.40531921386719 221.42007446289062 C 108.96546936035156 223.56362915039062 114.33968353271484 229.07022094726562 116.15702056884766 236.33917236328125" stroke-width="0.0" fill="rgb(108, 112, 122)" opacity="0.99006146"/>
    <path d="M 133.9258575439453 435.16845703125 C 131.14703369140625 443.5235595703125 125.58635711669922 449.2950134277344 117.1891860961914 451.93487548828125 C 109.72821807861328 449.86724853515625 105.81843566894531 443.5854187011719 103.96739959716797 436.62701416015625 C 105.92291259765625 429.3892822265625 111.36772155761719 423.8509826660156 118.86048126220703 420.056396484375 C 126.39741516113281 422.0910949707031 131.9002227783203 427.6063232421875 133.9258575439453 435.16845703125" stroke-width="0.0" fill="rgb(2, 2, 2)" opacity="0.99002165"/>
    <path d="M 138.1277618408203 357.4836120605469 C 136.7262725830078 365.27801513671875 131.32876586914062 370.87109375 123.91231536865234 371.3212585449219 C 116.39817810058594 369.0740661621094 110.92726135253906 363.60125732421875 108.96232604980469 356.28302001953125 C 110.8272933959961 350.1880798339844 116.01753997802734 344.36572265625 123.08897399902344 342.02880859375 C 130.43746948242188 344.0343322753906 135.80653381347656 349.611083984375 138.1277618408203 357.4836120605469" stroke-width="0.0" fill="rgb(4, 7, 10)" opacity="0.9900101"/>
    <path d="M 146.55116271972656 159.8810272216797 C 144.958740234375 167.7531280517578 139.93792724609375 173.58694458007812 131.2930908203125 175.8916778564453 C 123.73611450195312 173.83419799804688 119.51107025146484 168.0817108154297 117.95950317382812 160.79318237304688 C 119.92500305175781 153.39796447753906 125.39832305908203 147.92572021484375 132.8421173095703 145.91427612304688 C 139.34983825683594 147.25418090820312 144.8814239501953 152.60633850097656 146.55116271972656 159.8810272216797" stroke-width="0.0" fill="rgb(10, 11, 21)" opacity="0.9900133"/>
    <path d="M 219.1226043701172 201.98300170898438 C 217.10113525390625 209.60789489746094 211.6207733154297 215.1439666748047 204.1052703857422 217.1548614501953 C 196.493408203125 214.994384765625 190.99496459960938 209.50978088378906 188.9904022216797 202.0082244873047 C 191.0097198486328 194.48899841308594 196.42367553710938 188.8044891357422 203.74063110351562 186.93280029296875 C 211.64566040039062 188.87933349609375 217.1376495361328 194.35089111328125 219.1226043701172 201.98300170898438" stroke-width="0.0" fill="rgb(18, 20, 33)" opacity="0.9918087"/>
    <path d="M 238.92184448242188 417.4555969238281 C 236.60304260253906 425.88140869140625 230.66221618652344 431.0628662109375 222.73263549804688 433.21307373046875 C 214.79550170898438 431.6042785644531 209.14642333984375 426.2899475097656 207.04727172851562 417.4203186035156 C 209.1052703857422 409.6199035644531 214.62213134765625 404.11041259765625 222.17408752441406 402.1076354980469 C 230.8548583984375 404.8391418457031 236.7544403076172 409.9140930175781 238.92184448242188 417.4555969238281" stroke-width="0.0" fill="rgb(7, 10, 15)" opacity="0.99013317"/>
    <path d="M 155.8927459716797 219.18418884277344 C 153.02374267578125 227.5150146484375 147.50636291503906 232.9943084716797 140.01295471191406 234.94879150390625 C 132.44720458984375 233.00625610351562 126.84209442138672 227.59881591796875 124.70098876953125 219.975830078125 C 126.58497619628906 211.93898010253906 131.78614807128906 206.17727661132812 140.4204864501953 204.04974365234375 C 148.3737030029297 206.11151123046875 153.8821258544922 211.62899780273438 155.8927459716797 219.18418884277344" stroke-width="0.0" fill="rgb(8, 9, 18)" opacity="1.0"/>
    <path d="M 202.97146606445312 195.04806518554688 C 200.98629760742188 202.50479125976562 195.55838012695312 208.1581573486328 187.33868408203125 210.85311889648438 C 179.9882354736328 208.68869018554688 174.82168579101562 202.8123321533203 172.80963134765625 194.9201202392578 C 174.849365234375 187.45387268066406 180.59046936035156 182.24606323242188 187.89100646972656 180.4601593017578 C 195.1992950439453 182.38682556152344 200.81227111816406 187.7390594482422 202.97146606445312 195.04806518554688" stroke-width="0.0" fill="rgb(16, 18, 31)" opacity="0.99012965"/>
    <path d="M 182.29782104492188 115.30323028564453 C 181.50552368164062 123.21725463867188 176.31578063964844 128.87350463867188 168.87547302246094 130.91404724121094 C 161.34390258789062 127.13745880126953 155.889892578125 121.64628601074219 153.95355224609375 115.26852416992188 C 155.8990936279297 108.36497497558594 161.35684204101562 102.87684631347656 168.80975341796875 99.22271728515625 C 175.76885986328125 101.37069702148438 180.5178680419922 107.78582000732422 182.29782104492188 115.30323028564453" stroke-width="0.0" fill="rgb(39, 47, 55)" opacity="0.99000806"/>
    <path d="M 196.7893829345703 283.6846008300781 C 194.4907684326172 291.83270263671875 188.69773864746094 297.10455322265625 181.1083526611328 298.9479064941406 C 173.89382934570312 296.6900329589844 168.62881469726562 290.9997863769531 166.72108459472656 283.4008483886719 C 167.4896240234375 276.074951171875 173.23104858398438 271.158203125 180.85479736328125 269.73681640625 C 188.81539916992188 271.2578125 194.67042541503906 275.958251953125 196.7893829345703 283.6846008300781" stroke-width="0.0" fill="rgb(248, 232, 68)" opacity="0.9901689"/>
    <path d="M 249.69479370117188 456.43505859375 C 247.2308349609375 463.4156188964844 241.38368225097656 469.1452941894531 233.40203857421875 471.8765563964844 C 225.6839599609375 469.8150939941406 220.12596130371094 464.3406677246094 218.04745483398438 455.5441589355469 C 220.10414123535156 447.6336975097656 225.67031860351562 442.20758056640625 233.4530792236328 440.4530944824219 C 241.52291870117188 442.97119140625 246.98944091796875 448.4885559082031 249.69479370117188 456.43505859375" stroke-width="0.0" fill="rgb(17, 20, 27)" opacity="1.0"/>
    <path d="M 275.79425048828125 242.16986083984375 C 273.9330139160156 249.45176696777344 268.48822021484375 255.0554656982422 260.42633056640625 257.6313171386719 C 252.6500244140625 255.8164520263672 247.09104919433594 250.38316345214844 245.03733825683594 242.44866943359375 C 247.088623046875 233.5965118408203 252.5970916748047 228.08987426757812 260.13568115234375 226.07662963867188 C 268.4460144042969 229.03977966308594 273.8026123046875 234.60299682617188 275.79425048828125 242.16986083984375" stroke-width="0.0" fill="rgb(24, 25, 31)" opacity="1.0"/>
    <path d="M 254.142578125 285.11199951171875 C 252.3108367919922 291.96844482421875 247.55636596679688 298.66204833984375 239.3167266845703 300.9387512207031 C 231.6328887939453 298.8826904296875 226.1315460205078 293.3614196777344 224.0819091796875 285.47369384765625 C 226.1852264404297 276.7295837402344 231.75741577148438 271.2537536621094 239.27479553222656 269.3125915527344 C 246.80982971191406 272.7182312011719 252.24276733398438 278.2042236328125 254.142578125 285.11199951171875" stroke-width="0.0" fill="rgb(173, 131, 40)" opacity="0.99007934"/>
    <path d="M 208.30792236328125 224.78025817871094 C 206.03009033203125 232.49806213378906 200.4162139892578 237.7777557373047 193.1092987060547 239.34637451171875 C 185.76954650878906 237.625244140625 180.18441772460938 232.2909393310547 177.27061462402344 224.3548583984375 C 179.2122039794922 216.72743225097656 184.719482421875 211.19122314453125 192.4161376953125 209.13796997070312 C 201.00473022460938 211.41217041015625 206.4265899658203 217.05137634277344 208.30792236328125 224.78025817871094" stroke-width="0.0" fill="rgb(77, 89, 108)" opacity="0.99031335"/>
    <path d="M 282.6304626464844 352.5278625488281 C 280.68499755859375 360.1009521484375 275.0091552734375 365.401123046875 266.28759765625 367.77130126953125 C 258.6253967285156 365.8666687011719 253.0991668701172 360.3871765136719 251.04931640625 352.600341796875 C 253.18209838867188 343.8023376464844 258.97918701171875 338.6531982421875 266.9217224121094 336.9390563964844 C 274.503662109375 339.0005798339844 279.98919677734375 344.4992980957031 282.6304626464844 352.5278625488281" stroke-width="0.0" fill="rgb(6, 9, 17)" opacity="1.0"/>
    <path d="M 155.26820373535156 293.63275146484375 C 154.24835205078125 300.58099365234375 148.43267822265625 305.8166198730469 140.65155029296875 307.6922912597656 C 132.87245178222656 306.5534973144531 127.16914367675781 301.23870849609375 125.04438781738281 292.40838623046875 C 127.11151123046875 284.6466979980469 132.6915283203125 279.2422790527344 140.24472045898438 278.8985595703125 C 147.75271606445312 280.8206787109375 153.26513671875 286.21197509765625 155.26820373535156 293.63275146484375" stroke-width="0.0" fill="rgb(6, 4, 4)" opacity="0.9900306"/>
    <path d="M 196.5374298095703 298.2801208496094 C 194.75148010253906 305.4179992675781 189.7056884765625 311.4622802734375 181.59474182128906 313.7877197265625 C 173.73773193359375 311.76922607421875 168.1884765625 306.27874755859375 166.18905639648438 298.6800842285156 C 169.21336364746094 290.9109802246094 175.0460205078125 285.6763610839844 181.59384155273438 283.9051513671875 C 188.78662109375 285.7845458984375 194.32603454589844 291.1742858886719 196.5374298095703 298.2801208496094" stroke-width="0.0" fill="rgb(43, 47, 54)" opacity="0.9900254"/>
    <path d="M 304.0804748535156 367.9423828125 C 303.8182678222656 376.35504150390625 298.3792724609375 381.8968505859375 290.5962219238281 383.9505920410156 C 281.81396484375 381.8132629394531 276.67596435546875 375.9989013671875 274.5096435546875 367.57000732421875 C 276.3091735839844 359.8152160644531 281.8275451660156 354.3494873046875 290.73895263671875 352.15283203125 C 298.3695373535156 354.1212158203125 303.82073974609375 359.6471862792969 304.0804748535156 367.9423828125" stroke-width="0.0" fill="rgb(16, 19, 25)" opacity="0.99027133"/>
  </g>
</svg>
