<?xml version="1.0" ?>
<svg xmlns="http://www.w3.org/2000/svg" version="1.1" width="600" height="600">
  <defs/>
  <g>
    <path d="M 374.0 135.0 C 371.9903869628906 142.5 366.5 147.99038696289062 359.0 150.0 C 351.5 147.99038696289062 346.0096130371094 142.5 344.0 135.0 C 346.0096130371094 127.5 351.5 122.0096206665039 359.0 120.0 C 366.5 122.0096206665039 371.9903869628906 127.5 374.0 135.0" stroke-width="0.0" fill="rgb(197, 130, 116)" opacity="1.0"/>
    <path d="M 381.0 197.0 C 378.9903869628906 204.5 373.5 209.99038696289062 366.0 212.0 C 358.5 209.99038696289062 353.0096130371094 204.5 351.0 197.0 C 353.0096130371094 189.5 358.5 184.00961303710938 366.0 182.0 C 373.5 184.00961303710938 378.9903869628906 189.5 381.0 197.0" stroke-width="0.0" fill="rgb(255, 255, 53)" opacity="1.0"/>
    <path d="M 430.1245422363281 247.81922912597656 C 427.9903869628906 255.5 422.5 260.9903869628906 415.0 263.0 C 407.5 260.9903869628906 402.0096130371094 255.5 400.0 248.0 C 402.0096130371094 240.5 407.5 235.00961303710938 415.780029296875 232.12342834472656 C 423.2484130859375 234.16688537597656 428.50048828125 239.8678741455078 430.1245422363281 247.81922912597656" stroke-width="0.0" fill="rgb(0, 0, 1)" opacity="1.0"/>
    <path d="M 336.3677978515625 221.36776733398438 C 334.1470642089844 228.6442108154297 328.6219177246094 234.083251953125 322.29058837890625 236.0364227294922 C 315.4042663574219 234.07064819335938 309.93072509765625 228.59519958496094 307.9453430175781 221.1312255859375 C 309.0673522949219 214.51690673828125 314.500732421875 209.0098114013672 322.0 207.0 C 329.5 209.00961303710938 334.9903869628906 214.5 336.3677978515625 221.36776733398438" stroke-width="0.0" fill="rgb(4, 3, 13)" opacity="0.9900963"/>
    <path d="M 388.98565673828125 126.05842590332031 C 387.3518981933594 134.0560302734375 382.2188415527344 139.82521057128906 374.7818603515625 141.8817901611328 C 366.5 138.99038696289062 361.0096130371094 133.5 359.0 126.0 C 361.0096130371094 118.5 366.5 113.0096206665039 374.0 111.0 C 381.5 113.0096206665039 386.9903869628906 118.5 388.98565673828125 126.05842590332031" stroke-width="0.0" fill="rgb(59, 35, 26)" opacity="0.99032664"/>
    <path d="M 469.0 249.0 C 466.9903869628906 256.5 461.5 261.9903869628906 454.0 264.0 C 446.5 261.9903869628906 441.0096130371094 256.5 439.0 249.0 C 441.0096130371094 241.5 446.5 236.00961303710938 454.0 234.0 C 461.5 236.00961303710938 466.9903869628906 241.5 469.0 249.0" stroke-width="0.0" fill="rgb(1, 2, 3)" opacity="1.0"/>
    <path d="M 413.0 170.0 C 410.9903869628906 177.5 405.5 182.99038696289062 398.0 185.0 C 390.5 182.99038696289062 385.0096130371094 177.5 383.0 170.0 C 385.0096130371094 162.5 390.5 157.00961303710938 398.0 155.0 C 405.5 157.00961303710938 410.9903869628906 162.5 413.0 170.0" stroke-width="0.0" fill="rgb(0, 10, 18)" opacity="1.0"/>
    <path d="M 404.0 228.0 C 401.9903869628906 235.5 396.5 240.99038696289062 389.0 243.0 C 381.5 240.99038696289062 376.0096130371094 235.5 374.0 228.0 C 376.0096130371094 220.5 381.5 215.00961303710938 389.0 213.0 C 396.5 215.00961303710938 401.9903869628906 220.5 404.0 228.0" stroke-width="0.0" fill="rgb(29, 35, 51)" opacity="1.0"/>
    <path d="M 381.0 103.0 C 378.9903869628906 110.5 373.5 115.9903793334961 366.0 118.0 C 358.5 115.9903793334961 353.0096130371094 110.5 351.0 103.0 C 353.0096130371094 95.5 358.5 90.0096206665039 366.0 88.0 C 373.5 90.0096206665039 378.9903869628906 95.5 381.0 103.0" stroke-width="0.0" fill="rgb(4, 5, 7)" opacity="1.0"/>
    <path d="M 391.0 100.0 C 388.9903869628906 107.5 383.5 112.9903793334961 376.0 115.0 C 368.5 112.9903793334961 363.0096130371094 107.5 361.0 100.0 C 363.0096130371094 92.5 368.5 87.0096206665039 376.0 85.0 C 383.5 87.0096206665039 388.9903869628906 92.5 391.0 100.0" stroke-width="0.0" fill="rgb(0, 1, 5)" opacity="1.0"/>
    <path d="M 382.0 193.0 C 379.9903869628906 200.5 374.5 205.99038696289062 367.0 208.0 C 359.5 205.99038696289062 354.0096130371094 200.5 352.0 193.0 C 354.0096130371094 185.5 359.5 180.00961303710938 367.0 178.0 C 374.5 180.00961303710938 379.9903869628906 185.5 382.0 193.0" stroke-width="0.0" fill="rgb(254, 255, 55)" opacity="1.0"/>
    <path d="M 384.0 221.0 C 381.9903869628906 228.5 376.5 233.99038696289062 369.0 236.0 C 361.5 233.99038696289062 356.0096130371094 228.5 354.0 221.0 C 356.0096130371094 213.5 361.5 208.00961303710938 369.0 206.0 C 376.5 208.00961303710938 381.9903869628906 213.5 384.0 221.0" stroke-width="0.0" fill="rgb(3, 1, 9)" opacity="1.0"/>
    <path d="M 419.0 195.0 C 416.9903869628906 202.5 411.5 207.99038696289062 404.0 210.0 C 396.5 207.99038696289062 391.0096130371094 202.5 389.0 195.0 C 391.0096130371094 187.5 396.5 182.00961303710938 404.0 180.0 C 411.5 182.00961303710938 416.9903869628906 187.5 419.0 195.0" stroke-width="0.0" fill="rgb(13, 18, 31)" opacity="1.0"/>
    <path d="M 426.0006408691406 251.99928283691406 C 423.9903869628906 259.5 418.5 264.9903869628906 410.9894104003906 267.0048828125 C 403.3521423339844 265.0622863769531 397.5048828125 259.8064270019531 395.317626953125 252.47596740722656 C 398.0096130371094 244.5 403.5 239.00961303710938 411.00128173828125 236.99855041503906 C 418.50299072265625 239.00621032714844 423.9927673339844 244.497314453125 426.0006408691406 251.99928283691406" stroke-width="0.0" fill="rgb(2, 2, 2)" opacity="1.0"/>
    <path d="M 363.0 126.0 C 360.9903869628906 133.5 355.5 138.99038696289062 348.0 141.0 C 340.5 138.99038696289062 335.0096130371094 133.5 333.0 126.0 C 335.0096130371094 118.5 340.5 113.0096206665039 348.0 111.0 C 355.5 113.0096206665039 360.9903869628906 118.5 363.0 126.0" stroke-width="0.0" fill="rgb(201, 209, 224)" opacity="1.0"/>
    <path d="M 419.9227294921875 278.5508728027344 C 417.7027587890625 286.07720947265625 412.0556335449219 291.6585388183594 404.5588684082031 293.71142578125 C 396.5 290.9903869628906 391.0096130371094 285.5 389.0 278.0 C 391.0096130371094 270.5 396.5 265.0096130371094 404.0037841796875 262.99847412109375 C 411.58868408203125 264.9735107421875 417.489990234375 270.232421875 419.9227294921875 278.5508728027344" stroke-width="0.0" fill="rgb(82, 42, 17)" opacity="1.0"/>
    <path d="M 439.0 207.0 C 436.9903869628906 214.5 431.5 219.99038696289062 423.2919006347656 222.85594177246094 C 415.9676513671875 220.71005249023438 410.8288879394531 214.8192901611328 408.98406982421875 207.03216552734375 C 411.0096130371094 199.5 416.5 194.00961303710938 424.0 192.0 C 431.5 194.00961303710938 436.9903869628906 199.5 439.0 207.0" stroke-width="0.0" fill="rgb(0, 1, 4)" opacity="1.0"/>
    <path d="M 481.34539794921875 255.66537475585938 C 479.9903869628906 262.5 474.5 267.9903869628906 467.0 270.0 C 459.5 267.9903869628906 454.0096130371094 262.5 452.0 255.0 C 454.0096130371094 247.5 459.5 242.00961303710938 466.1982421875 240.8617706298828 C 473.6232604980469 242.9071502685547 479.13055419921875 248.36404418945312 481.34539794921875 255.66537475585938" stroke-width="0.0" fill="rgb(18, 25, 36)" opacity="0.99031043"/>
    <path d="M 396.0 180.0 C 393.9903869628906 187.5 388.5 192.99038696289062 381.0 195.0 C 373.5 192.99038696289062 368.0096130371094 187.5 366.0 180.0 C 368.0096130371094 172.5 373.5 167.00961303710938 381.0 165.0 C 388.5 167.00961303710938 393.9903869628906 172.5 396.0 180.0" stroke-width="0.0" fill="rgb(255, 255, 59)" opacity="1.0"/>
    <path d="M 362.0 165.0 C 359.9903869628906 172.5 354.5 177.99038696289062 347.0 180.0 C 339.5 177.99038696289062 334.0096130371094 172.5 332.38006591796875 165.2579345703125 C 334.3859558105469 157.75547790527344 339.6661682128906 152.11167907714844 347.0216064453125 150.01248168945312 C 354.5 152.00961303710938 359.9903869628906 157.5 362.0 165.0" stroke-width="0.0" fill="rgb(21, 25, 35)" opacity="1.0"/>
    <path d="M 502.5615234375 270.5376281738281 C 500.2502746582031 277.73614501953125 494.7138366699219 283.1783447265625 487.3719482421875 285.3274230957031 C 480.5 283.9903869628906 475.0096130371094 278.5 473.0 271.0 C 475.0096130371094 263.5 480.5 258.0096130371094 488.0 256.0 C 495.5 258.0096130371094 500.9903869628906 263.5 502.5615234375 270.5376281738281" stroke-width="0.0" fill="rgb(1, 3, 9)" opacity="0.9908325"/>
    <path d="M 418.0 201.0 C 415.9903869628906 208.5 410.5 213.99038696289062 403.0 216.0 C 395.5 213.99038696289062 390.0096130371094 208.5 388.0 201.0 C 390.0096130371094 193.5 395.5 188.00961303710938 403.0 186.0 C 410.5 188.00961303710938 415.9903869628906 193.5 418.0 201.0" stroke-width="0.0" fill="rgb(6, 8, 21)" opacity="1.0"/>
    <path d="M 458.05328369140625 268.08404541015625 C 456.3027038574219 275.9378356933594 451.07464599609375 281.69708251953125 443.4927673339844 283.7924499511719 C 435.24560546875 281.3824768066406 429.911376953125 275.6568908691406 427.98663330078125 268.0216369628906 C 430.0096130371094 260.5 435.5 255.00961303710938 443.0 253.0 C 450.5 255.00961303710938 455.9903869628906 260.5 458.05328369140625 268.08404541015625" stroke-width="0.0" fill="rgb(202, 208, 214)" opacity="1.0"/>
    <path d="M 362.1535339355469 84.61665344238281 C 359.9826354980469 92.49784088134766 354.49993896484375 97.99036407470703 347.0 100.0 C 339.4999084472656 97.99040985107422 334.0009765625 92.50244140625 331.9808654785156 85.28385162353516 C 334.44891357421875 77.83092498779297 339.74267578125 72.16920471191406 347.5550231933594 69.2308120727539 C 355.0913391113281 71.32555389404297 360.5460510253906 76.9593734741211 362.1535339355469 84.61665344238281" stroke-width="0.0" fill="rgb(211, 215, 221)" opacity="1.0"/>
    <path d="M 372.0 262.0 C 369.9903869628906 269.5 364.5 274.9903869628906 357.0 277.0 C 349.5 274.9903869628906 344.0096130371094 269.5 342.7571716308594 262.5848083496094 C 344.64990234375 254.9495086669922 349.7608337402344 249.1507110595703 357.0236511230469 247.0113067626953 C 364.5 249.00961303710938 369.9903869628906 254.5 372.0 262.0" stroke-width="0.0" fill="rgb(22, 26, 34)" opacity="1.0"/>
    <path d="M 400.0 179.0 C 397.9903869628906 186.5 392.5 191.99038696289062 385.0 194.0 C 377.5 191.99038696289062 372.0096130371094 186.5 370.0 179.0 C 372.0096130371094 171.5 377.5 166.00961303710938 385.0 164.0 C 392.5 166.00961303710938 397.9903869628906 171.5 400.0 179.0" stroke-width="0.0" fill="rgb(37, 44, 28)" opacity="1.0"/>
    <path d="M 383.0 200.0 C 380.9903869628906 207.5 375.5 212.99038696289062 368.0 215.0 C 360.5 212.99038696289062 355.0096130371094 207.5 353.0 200.0 C 355.0096130371094 192.5 360.5 187.00961303710938 368.0 185.0 C 375.5 187.00961303710938 380.9903869628906 192.5 383.0 200.0" stroke-width="0.0" fill="rgb(255, 255, 67)" opacity="1.0"/>
    <path d="M 425.066162109375 163.7113494873047 C 423.73516845703125 170.40406799316406 418.4864501953125 175.98602294921875 410.9997863769531 177.9999237060547 C 403.5 175.99038696289062 398.0096130371094 170.5 396.0 163.0 C 398.0096130371094 155.5 403.5 150.00961303710938 410.9581298828125 148.02133178710938 C 418.1288146972656 150.22967529296875 423.2261047363281 156.08905029296875 425.066162109375 163.7113494873047" stroke-width="0.0" fill="rgb(9, 9, 24)" opacity="0.99010944"/>
    <path d="M 360.0 274.0 C 357.9903869628906 281.5 352.5 286.9903869628906 345.020751953125 288.9905090332031 C 337.7666320800781 286.8531494140625 332.73065185546875 280.9883117675781 330.96160888671875 274.7566223144531 C 332.92242431640625 267.391357421875 338.3877258300781 261.9133605957031 345.8161926269531 259.87738037109375 C 352.5 261.0096130371094 357.9903869628906 266.5 360.0 274.0" stroke-width="0.0" fill="rgb(8, 8, 14)" opacity="0.99001795"/>
    <path d="M 417.8420104980469 112.4223861694336 C 416.2294006347656 119.69013977050781 410.67852783203125 125.19181060791016 402.8568115234375 127.45880889892578 C 395.4004821777344 125.20659637451172 389.9950866699219 119.53544616699219 387.99932861328125 112.00163269042969 C 390.0096130371094 104.5 395.5 99.0096206665039 402.9590148925781 97.02515411376953 C 410.2639465332031 99.17412567138672 415.5447998046875 104.8274917602539 417.8420104980469 112.4223861694336" stroke-width="0.0" fill="rgb(192, 198, 209)" opacity="0.99055296"/>
    <path d="M 408.97613525390625 87.03372192382812 C 406.9903869628906 94.5 401.5 99.9903793334961 394.0 102.0 C 386.5 99.9903793334961 381.0096130371094 94.5 378.84136962890625 86.79969787597656 C 380.50433349609375 78.90349578857422 385.8114318847656 73.23109436035156 393.2999572753906 71.25564575195312 C 401.237060546875 74.37875366210938 406.8594055175781 79.68647003173828 408.97613525390625 87.03372192382812" stroke-width="0.0" fill="rgb(196, 202, 211)" opacity="1.0"/>
    <path d="M 357.0 124.0 C 354.9903869628906 131.5 349.5 136.99038696289062 342.01739501953125 138.98951721191406 C 334.631103515625 136.90940856933594 329.3345947265625 131.29019165039062 327.1650695800781 123.72390747070312 C 329.0251770019531 116.50743865966797 334.5032043457031 111.01081085205078 342.0001220703125 109.00003814697266 C 349.5 111.0096206665039 354.9903869628906 116.5 357.0 124.0" stroke-width="0.0" fill="rgb(195, 200, 212)" opacity="0.9908924"/>
    <path d="M 444.1901550292969 267.0828552246094 C 442.0666198730469 274.5348815917969 436.5529479980469 280.1246337890625 428.6448974609375 282.6211853027344 C 421.0863952636719 280.56988525390625 416.1742858886719 274.69012451171875 413.95733642578125 266.6181335449219 C 415.38494873046875 258.8106689453125 420.75128173828125 253.20086669921875 428.33148193359375 251.2471466064453 C 436.5 254.00961303710938 441.9903869628906 259.5 444.1901550292969 267.0828552246094" stroke-width="0.0" fill="rgb(199, 203, 215)" opacity="1.0"/>
    <path d="M 385.85882568359375 267.3916320800781 C 383.0411376953125 275.5153503417969 377.5011901855469 280.99072265625 370.0 283.0 C 362.5 280.9903869628906 357.0096130371094 275.5 355.0 268.0 C 357.0096130371094 260.5 362.5 255.00961303710938 370.00653076171875 252.9974365234375 C 377.6427917480469 254.94915771484375 383.59130859375 260.1366271972656 385.85882568359375 267.3916320800781" stroke-width="0.0" fill="rgb(4, 8, 16)" opacity="1.0"/>
    <path d="M 413.0 186.0 C 410.9903869628906 193.5 405.5 198.99038696289062 398.0 201.0 C 390.5 198.99038696289062 385.0096130371094 193.5 383.0 186.0 C 385.0096130371094 178.5 390.5 173.00961303710938 398.0 171.0 C 405.5 173.00961303710938 410.9903869628906 178.5 413.0 186.0" stroke-width="0.0" fill="rgb(20, 36, 51)" opacity="1.0"/>
    <path d="M 372.0096740722656 98.97982788085938 C 369.9903869628906 106.5 364.5 111.9903793334961 357.0 114.0 C 349.5 111.9903793334961 344.0096130371094 106.5 342.2633361816406 99.24496459960938 C 344.4463806152344 91.78072357177734 349.1682434082031 85.31187438964844 356.5308532714844 83.07904052734375 C 364.9357604980469 85.37091827392578 370.11474609375 91.26387023925781 372.0096740722656 98.97982788085938" stroke-width="0.0" fill="rgb(16, 25, 36)" opacity="1.0"/>
    <path d="M 392.66033935546875 92.44705963134766 C 389.9903869628906 100.5 384.5 105.9903793334961 377.0 108.0 C 369.5 105.9903793334961 364.0096130371094 100.5 362.0 93.0 C 364.0096130371094 85.5 369.5 80.0096206665039 377.1523132324219 77.88899230957031 C 385.0284118652344 79.57754516601562 390.70196533203125 84.88074493408203 392.66033935546875 92.44705963134766" stroke-width="0.0" fill="rgb(4, 10, 25)" opacity="0.9906267"/>
    <path d="M 482.1247863769531 255.88986206054688 C 479.9903869628906 263.5 474.5 268.9903869628906 467.0 271.0 C 459.5 268.9903869628906 454.0096130371094 263.5 452.0 256.0 C 454.0096130371094 248.5 459.5 243.00961303710938 467.13043212890625 240.842529296875 C 474.75830078125 242.73072814941406 480.2461853027344 248.248779296875 482.1247863769531 255.88986206054688" stroke-width="0.0" fill="rgb(25, 34, 45)" opacity="1.0"/>
    <path d="M 380.3344421386719 326.3394775390625 C 378.13232421875 333.6297607421875 372.6077575683594 339.0705261230469 365.2605285644531 341.0380554199219 C 359.1856994628906 339.1734313964844 353.37445068359375 333.9844970703125 351.0567626953125 326.90435791015625 C 353.0096130371094 319.5 358.5 314.0096130371094 366.0 312.0 C 373.5 314.0096130371094 378.9903869628906 319.5 380.3344421386719 326.3394775390625" stroke-width="0.0" fill="rgb(13, 18, 22)" opacity="0.9900493"/>
    <path d="M 379.8539123535156 148.2945098876953 C 376.9903869628906 156.5 371.5 161.99038696289062 364.0 164.0 C 356.5 161.99038696289062 351.0096130371094 156.5 349.0 149.0 C 351.0096130371094 141.5 356.5 136.00961303710938 364.09405517578125 133.93333435058594 C 371.9354248046875 135.68772888183594 377.71746826171875 140.91629028320312 379.8539123535156 148.2945098876953" stroke-width="0.0" fill="rgb(70, 41, 40)" opacity="0.9901696"/>
    <path d="M 383.0 188.0 C 380.9903869628906 195.5 375.5 200.99038696289062 368.0 203.0 C 360.5 200.99038696289062 355.0096130371094 195.5 353.0 188.0 C 355.0096130371094 180.5 360.5 175.00961303710938 368.0 173.0 C 375.5 175.00961303710938 380.9903869628906 180.5 383.0 188.0" stroke-width="0.0" fill="rgb(255, 255, 39)" opacity="0.9969007"/>
    <path d="M 373.9954528808594 274.0024108886719 C 371.9903869628906 281.5 366.5 286.9903869628906 359.0 289.0 C 351.5 286.9903869628906 346.0096130371094 281.5 344.00048828125 274.00030517578125 C 346.0102233886719 266.5003662109375 351.500244140625 261.009765625 358.9998474121094 259.0001525878906 C 366.4985656738281 261.0105285644531 371.98638916015625 266.5023498535156 373.9954528808594 274.0024108886719" stroke-width="0.0" fill="rgb(4, 7, 12)" opacity="0.99216175"/>
    <path d="M 393.0 289.0 C 390.9903869628906 296.5 385.5 301.9903869628906 378.0 304.0 C 370.5 301.9903869628906 365.0096130371094 296.5 363.0 289.0 C 365.0096130371094 281.5 370.5 276.0096130371094 378.0 274.0 C 385.5 276.0096130371094 390.9903869628906 281.5 393.0 289.0" stroke-width="0.0" fill="rgb(142, 101, 45)" opacity="1.0"/>
    <path d="M 357.0 203.0 C 354.9903869628906 210.5 349.5 215.99038696289062 342.0 218.0 C 334.5 215.99038696289062 329.0096130371094 210.5 326.3827209472656 202.5054931640625 C 328.3385925292969 194.86563110351562 333.8506774902344 189.29859924316406 341.395751953125 187.24325561523438 C 349.5 190.00961303710938 354.9903869628906 195.5 357.0 203.0" stroke-width="0.0" fill="rgb(173, 148, 35)" opacity="0.9901807"/>
    <path d="M 398.0 116.0 C 395.9903869628906 123.5 390.5 128.99038696289062 383.0 131.0 C 375.5 128.99038696289062 370.0096130371094 123.5 368.0 116.0 C 370.0096130371094 108.5 375.5 103.0096206665039 382.99737548828125 101.00894165039062 C 390.49981689453125 103.01020050048828 395.9903869628906 108.50001525878906 398.0 116.0" stroke-width="0.0" fill="rgb(18, 19, 23)" opacity="1.0"/>
    <path d="M 378.0611572265625 124.0737075805664 C 376.2048645019531 131.7377471923828 370.773193359375 137.3214569091797 363.0400695800781 139.58236694335938 C 355.4087829589844 137.18478393554688 349.99395751953125 131.53524780273438 347.9990539550781 124.0020980834961 C 350.0096130371094 116.5 355.5 111.0096206665039 363.0 109.0 C 370.5 111.0096206665039 375.9903869628906 116.5 378.0611572265625 124.0737075805664" stroke-width="0.0" fill="rgb(108, 94, 80)" opacity="1.0"/>
    <path d="M 369.0 322.0 C 366.99041748046875 329.5000305175781 361.50006103515625 334.9904479980469 354.0000305175781 337.00006103515625 C 346.5 334.9903869628906 341.0096130371094 329.5 338.96783447265625 321.96136474609375 C 340.894287109375 314.38555908203125 346.431640625 309.0752258300781 354.2853088378906 307.5736999511719 C 361.5 309.0096130371094 366.9903869628906 314.5 369.0 322.0" stroke-width="0.0" fill="rgb(22, 22, 28)" opacity="0.99006355"/>
    <path d="M 436.0 199.0 C 433.9903869628906 206.5 428.5 211.99038696289062 421.0 214.0 C 413.5 211.99038696289062 408.0096130371094 206.5 406.0 199.0 C 408.0096130371094 191.5 413.5 186.00961303710938 421.0 184.0 C 428.5 186.00961303710938 433.9903869628906 191.5 436.0 199.0" stroke-width="0.0" fill="rgb(0, 1, 2)" opacity="0.9999331"/>
    <path d="M 411.9922180175781 162.00868225097656 C 410.02227783203125 169.5067138671875 404.494140625 174.9796142578125 396.99578857421875 176.9958953857422 C 389.5 174.99038696289062 384.0096130371094 169.5 381.5558166503906 161.5155029296875 C 383.2372741699219 153.68756103515625 388.6452941894531 148.1127166748047 396.1855163574219 146.07852172851562 C 404.6259460449219 148.71507263183594 410.0012512207031 154.46951293945312 411.9922180175781 162.00868225097656" stroke-width="0.0" fill="rgb(20, 30, 46)" opacity="1.0"/>
    <path d="M 437.0448913574219 294.3381652832031 C 435.0885009765625 301.6197814941406 429.6192321777344 307.0872497558594 422.5041198730469 309.043212890625 C 416.3297424316406 307.1142272949219 410.7294921875 301.71905517578125 407.1888732910156 294.3034973144531 C 409.3214416503906 286.8838195800781 414.81854248046875 281.20794677734375 422.13287353515625 279.5830383300781 C 429.6791687011719 282.86199951171875 435.1427001953125 288.3184814453125 437.0448913574219 294.3381652832031" stroke-width="0.0" fill="rgb(36, 26, 29)" opacity="0.99000704"/>
    <path d="M 384.67236328125 323.60174560546875 C 382.76727294921875 331.2250061035156 377.1733703613281 336.5990295410156 369.2798767089844 338.0249938964844 C 361.5061340332031 335.9749450683594 356.010986328125 330.497802734375 354.009521484375 323.0052490234375 C 356.0340270996094 315.5396423339844 361.5525817871094 310.0771484375 369.0289001464844 308.0359191894531 C 376.5 310.0096130371094 381.9903869628906 315.5 384.67236328125 323.60174560546875" stroke-width="0.0" fill="rgb(12, 13, 19)" opacity="1.0"/>
    <path d="M 377.9947509765625 296.9889221191406 C 375.9190673828125 304.3574523925781 370.2113342285156 309.5122985839844 362.25994873046875 312.46331787109375 C 354.73455810546875 310.7869873046875 349.2157897949219 305.264404296875 347.26123046875 297.6371765136719 C 350.0187683105469 289.5236511230469 355.5735778808594 284.18017578125 363.1926574707031 282.3878479003906 C 370.5 284.0096130371094 375.9903869628906 289.5 377.9947509765625 296.9889221191406" stroke-width="0.0" fill="rgb(231, 181, 27)" opacity="1.0"/>
    <path d="M 418.00030517578125 241.9998779296875 C 415.99041748046875 249.5000457763672 410.50006103515625 254.99046325683594 402.4237060546875 257.6441955566406 C 394.7911071777344 255.75135803222656 389.40863037109375 250.15904235839844 387.75653076171875 242.2884521484375 C 390.0096130371094 234.5 395.5 229.00961303710938 403.0 227.0 C 410.5000305175781 229.0095977783203 415.9905700683594 234.4999237060547 418.00030517578125 241.9998779296875" stroke-width="0.0" fill="rgb(0, 0, 1)" opacity="0.99576396"/>
    <path d="M 360.7951354980469 283.64813232421875 C 358.7250671386719 291.141845703125 353.1085510253906 296.6581115722656 345.8328552246094 298.5733642578125 C 338.3786926269531 295.1016845703125 332.9190979003906 289.6133117675781 330.9568786621094 282.2421569824219 C 332.6185302734375 275.6862487792969 337.1820373535156 269.5364074707031 344.6309509277344 267.44525146484375 C 352.49725341796875 270.00592041015625 357.98681640625 275.5049133300781 360.7951354980469 283.64813232421875" stroke-width="0.0" fill="rgb(14, 24, 30)" opacity="0.99002105"/>
    <path d="M 385.57501220703125 97.42150115966797 C 383.5335693359375 104.89251708984375 377.7623291015625 110.1537094116211 370.0351257324219 112.01968383789062 C 362.50146484375 109.98966979980469 357.01715087890625 104.49656677246094 355.0001220703125 96.98558807373047 C 357.0047607421875 89.50218963623047 362.5057373046875 84.01701354980469 370.0027770996094 82.00291442871094 C 377.5 84.0096206665039 382.9903869628906 89.5 385.57501220703125 97.42150115966797" stroke-width="0.0" fill="rgb(4, 14, 25)" opacity="0.99546605"/>
    <path d="M 375.19720458984375 251.76278686523438 C 372.9903869628906 259.5 367.5 264.9903869628906 360.0 267.0 C 352.5 264.9903869628906 347.0096130371094 259.5 345.0 252.0 C 347.0096130371094 244.5 352.5 239.00961303710938 360.55096435546875 236.3659210205078 C 368.1669616699219 238.2777557373047 373.5300598144531 243.89395141601562 375.19720458984375 251.76278686523438" stroke-width="0.0" fill="rgb(6, 8, 14)" opacity="0.99049973"/>
    <path d="M 390.7706604003906 67.6213150024414 C 388.7467041015625 75.16439056396484 383.0747985839844 80.4794921875 375.1730041503906 82.15376281738281 C 367.38580322265625 80.08031463623047 361.82489013671875 74.64289855957031 359.8398132324219 67.10540771484375 C 362.0121154785156 59.50042724609375 367.4997253417969 54.009456634521484 374.9706115722656 52.022830963134766 C 382.3942565917969 54.10544204711914 388.04931640625 59.5681266784668 390.7706604003906 67.6213150024414" stroke-width="0.0" fill="rgb(187, 193, 201)" opacity="1.0"/>
    <path d="M 401.1247253417969 120.28266143798828 C 399.17889404296875 127.73208618164062 393.75311279296875 133.2368621826172 386.64166259765625 135.1352081298828 C 379.72796630859375 133.58656311035156 374.09124755859375 128.38438415527344 372.01947021484375 120.97767639160156 C 374.0096130371094 113.5 379.5 108.0096206665039 386.9999694824219 106.00000762939453 C 394.4979553222656 108.01024627685547 399.9290771484375 113.5192642211914 401.1247253417969 120.28266143798828" stroke-width="0.0" fill="rgb(26, 47, 54)" opacity="0.99004287"/>
    <path d="M 470.0 248.0 C 467.9903869628906 255.5 462.5 260.9903869628906 455.0 263.0 C 447.5 260.9903869628906 442.0096130371094 255.5 440.0 248.0 C 442.0096130371094 240.5 447.5 235.00961303710938 455.0 233.0 C 462.5 235.00961303710938 467.9903869628906 240.5 470.0 248.0" stroke-width="0.0" fill="rgb(0, 1, 2)" opacity="1.0"/>
    <path d="M 359.0 238.0 C 356.9903869628906 245.5 351.5 250.99038696289062 344.14166259765625 252.90257263183594 C 337.0553283691406 250.55630493164062 331.80865478515625 244.81454467773438 329.943603515625 238.37954711914062 C 331.8427734375 231.21937561035156 337.0177001953125 224.921630859375 343.72119140625 222.54452514648438 C 351.5 225.00961303710938 356.9903869628906 230.5 359.0 238.0" stroke-width="0.0" fill="rgb(45, 53, 73)" opacity="0.990054"/>
    <path d="M 429.283447265625 148.3390350341797 C 427.3011779785156 155.7209930419922 421.27392578125 160.37937927246094 414.6077880859375 162.06629943847656 C 407.3074035644531 160.15057373046875 401.8506774902344 154.69189453125 399.87005615234375 147.20590209960938 C 400.5150451660156 140.0807342529297 406.0703430175781 134.48826599121094 413.46502685546875 132.62893676757812 C 421.05206298828125 135.4801788330078 426.52960205078125 140.94529724121094 429.283447265625 148.3390350341797" stroke-width="0.0" fill="rgb(187, 197, 208)" opacity="0.9900215"/>
    <path d="M 464.0 235.0 C 461.9903869628906 242.5 456.5 247.99038696289062 449.0 250.0 C 441.5 247.99038696289062 436.0096130371094 242.5 434.0 235.0 C 436.0096130371094 227.5 441.5 222.00961303710938 449.0 220.0 C 456.5 222.00961303710938 461.9903869628906 227.5 464.0 235.0" stroke-width="0.0" fill="rgb(4, 10, 15)" opacity="1.0"/>
    <path d="M 411.00909423828125 107.01813507080078 C 409.09808349609375 114.70287322998047 403.8847961425781 120.5777816772461 396.48687744140625 122.85066223144531 C 388.5677795410156 120.03925323486328 383.08831787109375 114.40326690673828 381.7797546386719 107.66199493408203 C 383.78192138671875 100.14732360839844 388.95416259765625 94.00363159179688 395.8116455078125 91.67008972167969 C 403.5 94.0096206665039 408.9903869628906 99.49999237060547 411.00909423828125 107.01813507080078" stroke-width="0.0" fill="rgb(186, 194, 203)" opacity="0.99004596"/>
    <path d="M 472.0 266.0 C 469.9903869628906 273.5 464.5 278.9903869628906 456.181884765625 281.90606689453125 C 448.710693359375 279.8544616699219 443.7439880371094 274.16845703125 442.8164978027344 265.4313049316406 C 444.0096130371094 258.5 449.5 253.00961303710938 457.0 251.0 C 464.5 253.00961303710938 469.9903869628906 258.5 472.0 266.0" stroke-width="0.0" fill="rgb(3, 8, 11)" opacity="0.99047935"/>
    <path d="M 447.0 209.0 C 444.9903869628906 216.5 439.5 221.99038696289062 432.0002136230469 223.99981689453125 C 424.50091552734375 221.9896240234375 419.0108947753906 216.49893188476562 417.0006103515625 208.99949645996094 C 419.0096130371094 201.5 424.5 196.00961303710938 432.0 194.0 C 439.5 196.00961303710938 444.9903869628906 201.5 447.0 209.0" stroke-width="0.0" fill="rgb(5, 7, 13)" opacity="0.9995185"/>
    <path d="M 359.4102783203125 132.4888916015625 C 357.28460693359375 139.85281372070312 351.90484619140625 145.4496307373047 344.7535705566406 147.78575134277344 C 337.5250244140625 145.98162841796875 332.17413330078125 140.42677307128906 329.7191162109375 132.8047637939453 C 332.00103759765625 125.49903106689453 337.50140380859375 120.01026153564453 345.0000915527344 118.00005340576172 C 352.5 120.0096206665039 357.9903869628906 125.5 359.4102783203125 132.4888916015625" stroke-width="0.0" fill="rgb(196, 201, 209)" opacity="0.9905427"/>
    <path d="M 402.0460510253906 316.3335266113281 C 400.10308837890625 323.6399230957031 394.6410217285156 329.1058349609375 387.233642578125 331.05859375 C 380.08837890625 330.3196716308594 374.69757080078125 324.8990478515625 372.9447021484375 317.09283447265625 C 375.0096130371094 309.5 380.5 304.0096130371094 387.9148864746094 302.0509338378906 C 395.02978515625 304.33905029296875 400.21588134765625 310.13458251953125 402.0460510253906 316.3335266113281" stroke-width="0.0" fill="rgb(16, 23, 26)" opacity="0.99001354"/>
    <path d="M 476.2447509765625 252.5314483642578 C 474.9349365234375 259.4814758300781 469.4969787597656 264.9893798828125 461.99993896484375 266.9999694824219 C 454.5 264.9903869628906 449.0096130371094 259.5 447.0 252.0 C 449.0096130371094 244.5 454.5 239.00961303710938 462.1714782714844 236.5023956298828 C 468.9581298828125 239.3760986328125 474.2958068847656 245.12539672851562 476.2447509765625 252.5314483642578" stroke-width="0.0" fill="rgb(4, 5, 8)" opacity="0.9905121"/>
    <path d="M 394.0 214.0 C 391.9903869628906 221.5 386.5 226.99038696289062 379.0 229.0 C 371.5 226.99038696289062 366.0096130371094 221.5 363.9776611328125 213.99546813964844 C 366.0093078613281 206.4999237060547 371.5 201.00961303710938 379.0 199.0 C 386.5 201.00961303710938 391.9903869628906 206.5 394.0 214.0" stroke-width="0.0" fill="rgb(20, 38, 53)" opacity="1.0"/>
    <path d="M 360.1578674316406 335.2190856933594 C 358.10223388671875 342.6302185058594 352.6304931640625 348.1021423339844 346.468017578125 350.0400695800781 C 339.3908996582031 348.0791015625 333.91009521484375 342.6134948730469 331.8780517578125 335.1873779296875 C 333.0096130371094 328.5 338.5 323.0096130371094 346.0013122558594 320.99896240234375 C 353.5064697265625 323.0047302246094 359.0029296875 328.49127197265625 360.1578674316406 335.2190856933594" stroke-width="0.0" fill="rgb(19, 24, 33)" opacity="0.9900126"/>
    <path d="M 507.0365295410156 267.5278625488281 C 505.0924987792969 273.6244812011719 499.63165283203125 279.1120300292969 492.258544921875 281.21075439453125 C 485.5 279.9903869628906 480.0096130371094 274.5 478.0447692871094 267.0788879394531 C 480.3353271484375 259.978759765625 486.1575927734375 254.80838012695312 492.19573974609375 252.96487426757812 C 499.5948181152344 254.93588256835938 505.07275390625 260.40130615234375 507.0365295410156 267.5278625488281" stroke-width="0.0" fill="rgb(5, 9, 18)" opacity="0.99001217"/>
    <path d="M 466.0731201171875 235.83169555664062 C 465.4388427734375 242.76446533203125 459.6251220703125 248.0457763671875 452.0067138671875 250.0026092529297 C 444.5 247.99038696289062 439.0096130371094 242.5 436.9967041015625 234.99827575683594 C 439.0067138671875 227.49783325195312 444.4886474609375 221.97349548339844 452.8152770996094 219.08477783203125 C 460.1741638183594 221.1558380126953 464.1600646972656 228.0132598876953 466.0731201171875 235.83169555664062" stroke-width="0.0" fill="rgb(4, 7, 13)" opacity="0.9901835"/>
    <path d="M 393.0 204.0 C 390.9903869628906 211.5 385.5 216.99038696289062 378.1689453125 218.80763244628906 C 370.8354187011719 216.63681030273438 365.3397521972656 211.17181396484375 363.57025146484375 204.3929901123047 C 365.66229248046875 197.0938262939453 371.04595947265625 191.5113525390625 378.2273254394531 189.2074737548828 C 385.5 191.00961303710938 390.9903869628906 196.5 393.0 204.0" stroke-width="0.0" fill="rgb(88, 106, 149)" opacity="0.9901096"/>
    <path d="M 356.08349609375 148.27906799316406 C 354.3935546875 155.11361694335938 349.3056945800781 160.89076232910156 342.0474548339844 162.94142150878906 C 334.7243347167969 160.80047607421875 329.36907958984375 155.22239685058594 327.2346496582031 147.85523986816406 C 329.0381774902344 140.4385528564453 334.3964538574219 134.88465881347656 341.9096984863281 132.96351623535156 C 349.1607971191406 135.21751403808594 354.28753662109375 141.02749633789062 356.08349609375 148.27906799316406" stroke-width="0.0" fill="rgb(196, 202, 207)" opacity="0.9900845"/>
    <path d="M 374.0181884765625 227.032470703125 C 372.08819580078125 234.6228790283203 366.64923095703125 240.17465209960938 359.0854797363281 242.1061248779297 C 351.5 239.99038696289062 346.0096130371094 234.5 344.0 227.0 C 346.0096130371094 219.5 351.5 214.00961303710938 358.98223876953125 212.0245819091797 C 366.47076416015625 214.0486602783203 371.97283935546875 219.5227813720703 374.0181884765625 227.032470703125" stroke-width="0.0" fill="rgb(4, 5, 12)" opacity="0.9902919"/>
    <path d="M 426.0030822753906 202.00225830078125 C 423.9957580566406 209.50411987304688 418.5032653808594 214.99293518066406 411.00067138671875 217.00054931640625 C 403.5 214.99038696289062 398.0096130371094 209.5 396.0 202.0 C 398.0096130371094 194.5 403.5 189.00961303710938 411.0000305175781 186.99996948242188 C 418.5001220703125 189.00950622558594 423.99053955078125 194.4998779296875 426.0030822753906 202.00225830078125" stroke-width="0.0" fill="rgb(0, 1, 2)" opacity="1.0"/>
    <path d="M 421.11602783203125 266.76593017578125 C 420.7095642089844 274.1501159667969 415.07757568359375 279.4720153808594 407.1430969238281 281.0904541015625 C 399.4976806640625 278.9975891113281 394.0048522949219 273.50164794921875 391.0772705078125 265.1492614746094 C 393.1099548339844 257.64642333984375 398.69512939453125 252.25228881835938 406.5209045410156 250.6405792236328 C 414.0799255371094 253.30197143554688 419.24603271484375 259.09063720703125 421.11602783203125 266.76593017578125" stroke-width="0.0" fill="rgb(28, 13, 6)" opacity="0.99017704"/>
    <path d="M 353.9795227050781 325.0312194824219 C 351.9903869628906 332.5 346.5 337.9903869628906 339.1532287597656 339.895263671875 C 332.0885009765625 337.5282897949219 326.84033203125 331.7778015136719 324.91497802734375 324.136962890625 C 325.11639404296875 316.6128845214844 330.6106872558594 311.1095275878906 338.18414306640625 309.7264404296875 C 346.13775634765625 312.5357360839844 351.849365234375 317.7274169921875 353.9795227050781 325.0312194824219" stroke-width="0.0" fill="rgb(18, 26, 37)" opacity="0.9901228"/>
    <path d="M 399.0 204.0 C 396.9903869628906 211.5 391.5 216.99038696289062 383.9936828613281 219.00511169433594 C 376.4691467285156 217.01370239257812 370.9428405761719 211.543701171875 369.2523193359375 204.20127868652344 C 371.2445373535156 196.65325927734375 376.6018371582031 191.0794677734375 384.01727294921875 189.01234436035156 C 391.5 191.00961303710938 396.9903869628906 196.5 399.0 204.0" stroke-width="0.0" fill="rgb(82, 89, 153)" opacity="0.9923381"/>
    <path d="M 400.722900390625 170.04669189453125 C 398.96697998046875 177.4918975830078 393.498291015625 182.98977661132812 385.99993896484375 184.99998474121094 C 378.5 182.99038696289062 373.0096130371094 177.5 371.0 170.0 C 373.0096130371094 162.5 378.5 157.00961303710938 385.98419189453125 155.01901245117188 C 393.4439392089844 157.05592346191406 398.8680114746094 162.5791015625 400.722900390625 170.04669189453125" stroke-width="0.0" fill="rgb(31, 50, 81)" opacity="0.99148047"/>
    <path d="M 416.151611328125 221.09588623046875 C 414.15289306640625 228.60330200195312 408.565673828125 234.03045654296875 401.0084228515625 236.00502014160156 C 393.5 233.99038696289062 388.0096130371094 228.5 386.0 221.0 C 388.0096130371094 213.5 393.5 208.00961303710938 401.0 206.0 C 408.5 208.00961303710938 413.9903869628906 213.5 416.151611328125 221.09588623046875" stroke-width="0.0" fill="rgb(25, 31, 39)" opacity="1.0"/>
    <path d="M 331.57867431640625 211.41026306152344 C 329.9903869628906 218.5 324.5 223.99038696289062 317.0 226.0 C 309.5 223.99038696289062 304.0096130371094 218.5 302.0 211.0 C 304.0096130371094 203.5 309.5 198.00961303710938 316.3550720214844 196.74851989746094 C 323.76715087890625 198.79452514648438 329.3111877441406 204.19671630859375 331.57867431640625 211.41026306152344" stroke-width="0.0" fill="rgb(32, 37, 49)" opacity="0.9903454"/>
    <path d="M 356.0 172.0 C 353.9903869628906 179.5 348.5 184.99038696289062 340.3038635253906 187.77389526367188 C 332.6935729980469 185.82614135742188 327.2169494628906 180.29150390625 326.93414306640625 172.8592529296875 C 328.9068298339844 165.36593627929688 334.34442138671875 159.84671020507812 341.6349182128906 157.6541290283203 C 348.5 159.00961303710938 353.9903869628906 164.5 356.0 172.0" stroke-width="0.0" fill="rgb(22, 27, 34)" opacity="0.99006176"/>
    <path d="M 386.7277526855469 56.34386444091797 C 384.986328125 63.498043060302734 379.4992370605469 68.99031066894531 372.0029602050781 70.99977111816406 C 364.5584411621094 68.96492767333984 359.2757263183594 63.36344528198242 357.393798828125 55.89472198486328 C 359.3835144042969 48.83830642700195 364.8618469238281 43.453338623046875 372.20458984375 41.46876525878906 C 379.15045166015625 43.38374328613281 384.5279235839844 48.880516052246094 386.7277526855469 56.34386444091797" stroke-width="0.0" fill="rgb(191, 197, 208)" opacity="0.99009925"/>
    <path d="M 374.0008239746094 173.99842834472656 C 371.9903869628906 181.5 366.5 186.99038696289062 359.0 189.0 C 351.5 186.99038696289062 346.0096130371094 181.5 344.0 174.0 C 346.0096130371094 166.5 351.5 161.00961303710938 359.0636901855469 158.8681182861328 C 366.5390930175781 160.93081665039062 371.999755859375 166.48153686523438 374.0008239746094 173.99842834472656" stroke-width="0.0" fill="rgb(2, 6, 16)" opacity="0.99625486"/>
    <path d="M 389.95068359375 181.0316619873047 C 387.9903869628906 188.5 382.5 193.99038696289062 374.5188293457031 196.69644165039062 C 367.2177429199219 194.47763061523438 361.976806640625 188.61627197265625 360.2513732910156 181.22406005859375 C 362.45660400390625 173.92645263671875 367.91119384765625 168.40655517578125 375.1714782714844 166.1706085205078 C 382.4743957519531 168.02590942382812 387.9303283691406 173.5387420654297 389.95068359375 181.0316619873047" stroke-width="0.0" fill="rgb(204, 196, 55)" opacity="0.99009633"/>
    <path d="M 418.9602355957031 185.9694061279297 C 416.9158020019531 193.4342041015625 411.4374084472656 198.92640686035156 403.9752197265625 200.9698486328125 C 396.5 198.99038696289062 391.0096130371094 193.5 388.9961853027344 185.9955596923828 C 390.9925537109375 178.47544860839844 396.46051025390625 172.9420928955078 403.94659423828125 170.91302490234375 C 411.4914855957031 173.02450561523438 416.987548828125 178.5049591064453 418.9602355957031 185.9694061279297" stroke-width="0.0" fill="rgb(14, 22, 36)" opacity="0.99172044"/>
    <path d="M 372.99334716796875 259.9941101074219 C 370.979248046875 267.488525390625 365.4848937988281 272.96685791015625 357.98236083984375 274.9505920410156 C 350.4220275878906 273.0299072265625 344.72137451171875 267.65863037109375 342.6597900390625 260.3955993652344 C 345.2235412597656 252.60203552246094 350.5396423339844 247.02664184570312 358.0225830078125 244.96261596679688 C 365.5181884765625 246.9770050048828 370.99627685546875 252.4897003173828 372.99334716796875 259.9941101074219" stroke-width="0.0" fill="rgb(20, 22, 30)" opacity="0.9969357"/>
    <path d="M 448.3432312011719 244.51181030273438 C 446.98199462890625 251.47967529296875 441.43450927734375 256.83447265625 434.1554260253906 258.3023376464844 C 426.55865478515625 256.71075439453125 421.3046875 251.43931579589844 419.8037109375 243.47232055664062 C 420.2279357910156 235.67153930664062 425.6383361816406 230.11627197265625 433.17706298828125 228.1443634033203 C 440.93768310546875 231.5815887451172 446.332763671875 237.09246826171875 448.3432312011719 244.51181030273438" stroke-width="0.0" fill="rgb(117, 119, 125)" opacity="0.9900629"/>
    <path d="M 368.4742431640625 182.13841247558594 C 366.1377868652344 189.69065856933594 360.7196960449219 195.21900939941406 353.4051513671875 197.51321411132812 C 345.95697021484375 196.49801635742188 340.3431701660156 191.095458984375 338.3841247558594 183.48965454101562 C 340.99273681640625 175.49234008789062 346.4967346191406 170.00802612304688 354.2131042480469 167.8291473388672 C 362.1121826171875 169.48655700683594 367.794189453125 174.7897491455078 368.4742431640625 182.13841247558594" stroke-width="0.0" fill="rgb(24, 18, 16)" opacity="0.990058"/>
    <path d="M 400.0 292.0 C 397.9903869628906 299.5 392.5 304.9903869628906 385.0 307.0 C 377.5 304.9903869628906 372.0096130371094 299.5 370.0 292.0 C 372.0096130371094 284.5 377.5 279.0096130371094 385.0 277.0 C 392.5 279.0096130371094 397.9903869628906 284.5 400.0 292.0" stroke-width="0.0" fill="rgb(131, 80, 23)" opacity="1.0"/>
    <path d="M 437.06439208984375 179.88999938964844 C 436.84381103515625 187.29791259765625 431.2345275878906 192.64210510253906 423.29901123046875 194.2459259033203 C 415.4548645019531 192.03636169433594 409.9564208984375 186.54718017578125 407.90301513671875 179.00189208984375 C 409.98828125 171.4988250732422 415.5162353515625 166.0477294921875 422.1884460449219 164.87722778320312 C 429.6161804199219 166.91053771972656 435.08282470703125 172.38644409179688 437.06439208984375 179.88999938964844" stroke-width="0.0" fill="rgb(7, 12, 17)" opacity="0.990028"/>
    <path d="M 495.3401184082031 278.30303955078125 C 493.12542724609375 285.6396484375 487.6266174316406 291.09039306640625 480.6988525390625 293.0435791015625 C 474.36279296875 291.09765625 468.8324279785156 285.660400390625 466.2359313964844 278.4657897949219 C 468.0096130371094 271.5 473.5 266.0096130371094 480.9987487792969 264.00067138671875 C 488.4866638183594 266.01666259765625 493.9567565917969 271.5214538574219 495.3401184082031 278.30303955078125" stroke-width="0.0" fill="rgb(30, 37, 40)" opacity="0.9900155"/>
    <path d="M 367.8629150390625 205.61569213867188 C 365.6180419921875 213.21107482910156 360.2705383300781 218.8069305419922 352.94390869140625 220.95480346679688 C 345.5002136230469 218.99032592773438 340.0190734863281 213.4972381591797 338.4725036621094 206.13014221191406 C 340.0426940917969 198.4686279296875 345.5892333984375 193.33567810058594 353.6822509765625 190.3899688720703 C 360.9981994628906 192.34283447265625 366.3222351074219 198.14260864257812 367.8629150390625 205.61569213867188" stroke-width="0.0" fill="rgb(128, 124, 34)" opacity="0.99035674"/>
    <path d="M 337.0157775878906 221.0205535888672 C 335.06793212890625 228.60679626464844 329.6547546386719 234.2226104736328 321.9784851074219 236.4872283935547 C 314.2619323730469 234.27468872070312 308.8140869140625 228.7127227783203 307.7053527832031 220.63052368164062 C 309.0096130371094 213.5 314.5 208.00961303710938 322.0 206.0 C 329.5 208.00961303710938 334.9903869628906 213.5 337.0157775878906 221.0205535888672" stroke-width="0.0" fill="rgb(8, 8, 18)" opacity="1.0"/>
    <path d="M 394.25018310546875 163.81736755371094 C 392.03985595703125 171.5363311767578 386.5361633300781 177.03607177734375 378.5167236328125 179.00274658203125 C 370.7790832519531 177.74249267578125 365.31390380859375 172.2025146484375 363.4961853027344 164.39138793945312 C 365.7811584472656 156.2972869873047 371.2984619140625 150.78518676757812 379.8271789550781 148.08848571777344 C 387.2985534667969 150.133056640625 392.57763671875 155.8016815185547 394.25018310546875 163.81736755371094" stroke-width="0.0" fill="rgb(10, 16, 26)" opacity="0.99024826"/>
    <path d="M 362.2149658203125 242.87762451171875 C 359.8887023925781 250.37704467773438 354.35125732421875 255.8011016845703 347.7164001464844 257.1918029785156 C 340.3434753417969 255.1316680908203 334.8783874511719 249.6527099609375 332.8428955078125 242.26119995117188 C 334.2669677734375 235.6769256591797 339.62249755859375 230.0902099609375 347.041748046875 227.96730041503906 C 354.6113586425781 229.9162139892578 360.1833190917969 235.3583526611328 362.2149658203125 242.87762451171875" stroke-width="0.0" fill="rgb(40, 49, 63)" opacity="0.990076"/>
    <path d="M 451.0003356933594 216.0006103515625 C 448.9945373535156 223.50921630859375 443.5341796875 229.07981872558594 435.1966552734375 231.880615234375 C 427.62042236328125 229.89109802246094 422.1431579589844 224.36752319335938 420.2716979980469 216.69911193847656 C 423.02099609375 208.50668334960938 428.50408935546875 203.01219177246094 436.0005798339844 201.00038146972656 C 443.5 203.00961303710938 448.9903869628906 208.5 451.0003356933594 216.0006103515625" stroke-width="0.0" fill="rgb(9, 12, 17)" opacity="1.0"/>
    <path d="M 401.1425476074219 190.3660888671875 C 399.4803466796875 197.1742401123047 394.3215026855469 202.89015197753906 386.8058776855469 205.15286254882812 C 379.02276611328125 203.42454528808594 373.4526672363281 198.01492309570312 372.1204528808594 190.33714294433594 C 373.7706604003906 182.07492065429688 378.96441650390625 176.380615234375 386.3515625 175.72723388671875 C 393.8321838378906 177.7197265625 399.2681884765625 183.17251586914062 401.1425476074219 190.3660888671875" stroke-width="0.0" fill="rgb(168, 171, 62)" opacity="0.9900533"/>
    <path d="M 350.1787109375 98.58235931396484 C 348.7440185546875 106.41875457763672 343.5031433105469 111.99925231933594 336.0268859863281 113.98544311523438 C 328.65704345703125 111.88844299316406 323.40435791015625 106.24537658691406 321.4078674316406 98.64068603515625 C 322.9245300292969 91.47907257080078 328.6026611328125 86.27671813964844 336.3192443847656 84.37411499023438 C 344.0082092285156 85.57384490966797 349.5908508300781 90.942138671875 350.1787109375 98.58235931396484" stroke-width="0.0" fill="rgb(195, 200, 210)" opacity="0.9901837"/>
    <path d="M 353.0145263671875 111.98885345458984 C 350.9903869628906 119.5 345.5 124.9903793334961 338.0564270019531 126.95263671875 C 330.7320861816406 124.80706024169922 325.4402160644531 119.1868667602539 323.4569396972656 111.66358184814453 C 325.0411071777344 104.52448272705078 330.5179138183594 99.02006530761719 338.00518798828125 96.9980239868164 C 345.5158996582031 98.997314453125 351.016357421875 104.47998809814453 353.0145263671875 111.98885345458984" stroke-width="0.0" fill="rgb(195, 200, 211)" opacity="0.99045557"/>
    <path d="M 326.7413330078125 208.21372985839844 C 324.990478515625 215.5003204345703 319.50360107421875 221.00247192382812 312.7034912109375 222.31198120117188 C 305.3735046386719 220.11863708496094 299.9236145019531 214.61106872558594 297.9639892578125 207.67283630371094 C 299.92083740234375 201.3914794921875 305.3865661621094 195.90805053710938 312.84783935546875 192.2867889404297 C 319.6838073730469 194.3979949951172 324.60479736328125 200.783935546875 326.7413330078125 208.21372985839844" stroke-width="0.0" fill="rgb(20, 21, 25)" opacity="0.99002016"/>
    <path d="M 420.3443298339844 216.34268188476562 C 418.5995788574219 224.109130859375 413.10980224609375 229.601806640625 405.3460693359375 231.34922790527344 C 397.5 228.99038696289062 392.0096130371094 223.5 390.0 216.0 C 392.0096130371094 208.5 397.5 203.00961303710938 405.0 201.0 C 412.5 203.00961303710938 417.9903869628906 208.5 420.3443298339844 216.34268188476562" stroke-width="0.0" fill="rgb(0, 0, 1)" opacity="1.0"/>
    <path d="M 452.93603515625 201.5688018798828 C 450.7757263183594 209.1146240234375 444.8904113769531 214.22268676757812 437.04388427734375 216.0226287841797 C 429.4987487792969 213.99131774902344 424.0074462890625 208.50161743164062 421.9938049316406 200.9906005859375 C 423.9299011230469 193.32296752929688 429.080078125 187.35427856445312 437.7757263183594 185.05039978027344 C 445.3496398925781 187.1062469482422 450.77728271484375 192.7007293701172 452.93603515625 201.5688018798828" stroke-width="0.0" fill="rgb(0, 0, 2)" opacity="1.0"/>
    <path d="M 477.0218200683594 268.00421142578125 C 475.12139892578125 275.7548522949219 469.98101806640625 281.67926025390625 462.2603454589844 283.9176025390625 C 454.011474609375 281.68316650390625 448.95013427734375 275.7470397949219 447.0748596191406 267.9671325683594 C 449.0096130371094 260.5 454.5 255.00961303710938 462.0415954589844 252.9500274658203 C 469.5807189941406 254.91136169433594 475.0455627441406 260.4323425292969 477.0218200683594 268.00421142578125" stroke-width="0.0" fill="rgb(26, 32, 48)" opacity="1.0"/>
    <path d="M 415.9999694824219 213.00010681152344 C 413.9903869628906 220.5 408.5 225.99038696289062 401.0 228.0 C 393.5 225.99038696289062 388.0096130371094 220.5 386.0 213.0 C 388.0096130371094 205.5 393.5 200.00961303710938 400.9844970703125 198.043212890625 C 408.4954528808594 200.02056884765625 413.9896545410156 205.50164794921875 415.9999694824219 213.00010681152344" stroke-width="0.0" fill="rgb(0, 0, 0)" opacity="0.99879223"/>
    <path d="M 341.5498352050781 218.45809936523438 C 339.673095703125 226.13023376464844 334.0954895019531 231.5731201171875 326.0340881347656 233.71702575683594 C 318.0420837402344 231.5106964111328 312.5476379394531 225.9383087158203 310.6360778808594 218.27540588378906 C 313.0101318359375 210.49916076660156 318.5018310546875 205.02005004882812 325.4740905761719 203.7382354736328 C 333.1374206542969 205.59426879882812 339.0360412597656 210.62890625 341.5498352050781 218.45809936523438" stroke-width="0.0" fill="rgb(17, 20, 37)" opacity="1.0"/>
    <path d="M 389.66143798828125 114.28590393066406 C 386.4518127441406 121.99210357666016 380.980712890625 127.41898345947266 373.60784912109375 129.41946411132812 C 366.4584655761719 128.0294952392578 360.9818115234375 122.53740692138672 359.1085510253906 115.1344985961914 C 361.352783203125 107.89069366455078 366.9416809082031 102.51580047607422 374.46337890625 100.20638275146484 C 382.15277099609375 101.40845489501953 387.7709655761719 106.78739929199219 389.66143798828125 114.28590393066406" stroke-width="0.0" fill="rgb(94, 103, 122)" opacity="0.9900668"/>
    <path d="M 454.9418640136719 213.34239196777344 C 452.7602844238281 222.1079864501953 446.90826416015625 227.24530029296875 439.0538330078125 229.0314483642578 C 431.49896240234375 226.99127197265625 426.00714111328125 221.50148010253906 423.9957580566406 214.00389099121094 C 426.01763916015625 206.50917053222656 431.5124816894531 201.0291290283203 439.27252197265625 198.8462371826172 C 447.21624755859375 200.39073181152344 452.8672790527344 205.6951141357422 454.9418640136719 213.34239196777344" stroke-width="0.0" fill="rgb(4, 11, 18)" opacity="1.0"/>
    <path d="M 410.7907409667969 298.3861389160156 C 407.4290466308594 304.7646484375 401.7190246582031 310.19049072265625 394.4393310546875 312.5138244628906 C 387.5 310.9903869628906 382.0096130371094 305.5 380.0 298.0 C 382.0096130371094 290.5 387.5 285.0096130371094 395.02740478515625 282.98236083984375 C 402.6787109375 284.8923034667969 408.34600830078125 290.2451477050781 410.7907409667969 298.3861389160156" stroke-width="0.0" fill="rgb(103, 53, 9)" opacity="0.990173"/>
    <path d="M 417.9200134277344 233.16481018066406 C 414.98822021484375 241.4980926513672 409.4977111816406 246.9869384765625 401.99737548828125 248.9919891357422 C 394.4981994628906 246.99215698242188 389.0082092285156 241.50169372558594 386.99969482421875 234.00039672851562 C 389.0096130371094 226.5 394.5 221.00961303710938 402.1645202636719 218.8936767578125 C 410.1358642578125 220.51036071777344 415.854248046875 225.7329864501953 417.9200134277344 233.16481018066406" stroke-width="0.0" fill="rgb(0, 1, 4)" opacity="1.0"/>
    <path d="M 496.2596740722656 266.8782043457031 C 494.06878662109375 274.5699157714844 488.5721130371094 280.07562255859375 481.186279296875 281.70965576171875 C 473.61981201171875 279.7894592285156 467.99761962890625 274.4434814453125 466.1333312988281 267.1490783691406 C 468.1361389160156 259.5460510253906 473.4951477050781 253.97433471679688 481.659912109375 251.18817138671875 C 489.0853271484375 253.28756713867188 494.3680419921875 259.044189453125 496.2596740722656 266.8782043457031" stroke-width="0.0" fill="rgb(14, 13, 26)" opacity="0.9903279"/>
    <path d="M 390.77813720703125 89.77718353271484 C 388.64337158203125 98.10020446777344 383.08160400390625 103.59358215332031 375.1832580566406 105.77080535888672 C 367.2467041015625 103.41410827636719 361.9361267089844 97.63098907470703 359.39678955078125 89.63624572753906 C 361.8713684082031 83.02686309814453 368.20367431640625 77.81549835205078 375.3741760253906 75.92518615722656 C 382.1522521972656 77.70710754394531 388.6645202636719 82.07154083251953 390.77813720703125 89.77718353271484" stroke-width="0.0" fill="rgb(16, 34, 59)" opacity="0.99005955"/>
    <path d="M 363.087890625 164.85060119628906 C 360.9829406738281 172.51318359375 355.5325622558594 178.04893493652344 348.0393371582031 180.09906005859375 C 340.4930114746094 177.99317932128906 334.9948425292969 172.5105438232422 333.69549560546875 165.64056396484375 C 335.829833984375 158.30918884277344 341.3199462890625 152.8601837158203 348.7779846191406 150.9034423828125 C 356.0102844238281 151.4210968017578 361.35601806640625 157.06109619140625 363.087890625 164.85060119628906" stroke-width="0.0" fill="rgb(17, 24, 31)" opacity="0.99006134"/>
    <path d="M 356.0155334472656 327.99951171875 C 354.0118103027344 335.5339660644531 348.5564880371094 341.0870056152344 341.40545654296875 342.8344421386719 C 334.245849609375 340.29168701171875 328.84014892578125 334.7126770019531 326.75335693359375 327.3131408691406 C 328.0050048828125 320.4990234375 333.4995422363281 315.0068054199219 341.00396728515625 312.9472351074219 C 348.50531005859375 314.999267578125 353.9966735839844 320.4958801269531 356.0155334472656 327.99951171875" stroke-width="0.0" fill="rgb(19, 28, 36)" opacity="0.9911874"/>
    <path d="M 371.75848388671875 116.98175048828125 C 369.31781005859375 124.5232925415039 363.33148193359375 129.75917053222656 355.8954772949219 131.889404296875 C 348.5 129.99038696289062 343.0096130371094 124.5 341.8862609863281 117.78728485107422 C 343.8596496582031 110.30288696289062 349.2694091796875 104.76616668701172 356.54351806640625 102.49435424804688 C 363.8466491699219 103.6872329711914 369.4836730957031 109.09770202636719 371.75848388671875 116.98175048828125" stroke-width="0.0" fill="rgb(8, 18, 29)" opacity="0.99008745"/>
    <path d="M 363.5024719238281 215.6905975341797 C 360.94110107421875 223.46131896972656 355.4678955078125 228.96389770507812 347.8136291503906 231.2508544921875 C 340.1795959472656 229.33900451660156 334.7093505859375 223.80587768554688 333.1751403808594 216.34750366210938 C 335.5728759765625 209.09341430664062 341.1194763183594 203.65777587890625 347.45513916015625 201.83213806152344 C 354.99835205078125 203.69708251953125 361.22027587890625 208.7206268310547 363.5024719238281 215.6905975341797" stroke-width="0.0" fill="rgb(15, 18, 33)" opacity="0.99004984"/>
    <path d="M 466.7651062011719 256.8893737792969 C 464.8581848144531 264.41497802734375 459.43243408203125 269.91607666015625 452.2410583496094 271.65203857421875 C 445.1610412597656 269.411376953125 439.841064453125 263.75091552734375 437.9300231933594 256.3896789550781 C 439.59588623046875 249.5798797607422 444.0796203613281 243.4274444580078 451.5713195800781 241.44947814941406 C 459.5013122558594 244.00782775878906 464.9944152832031 249.498046875 466.7651062011719 256.8893737792969" stroke-width="0.0" fill="rgb(6, 6, 8)" opacity="0.99004155"/>
    <path d="M 394.9168701171875 251.85467529296875 C 392.9035339355469 259.38946533203125 387.3778076171875 264.8723449707031 379.7391662597656 266.779052734375 C 371.486572265625 263.9960021972656 365.973876953125 258.5221862792969 363.8896789550781 250.9191436767578 C 365.7392272949219 243.220458984375 371.2142028808594 237.718017578125 378.8769226074219 235.8738555908203 C 386.5010986328125 238.00894165039062 391.9939270019531 243.498046875 394.9168701171875 251.85467529296875" stroke-width="0.0" fill="rgb(2, 5, 8)" opacity="0.99058586"/>
    <path d="M 405.47869873046875 280.9552917480469 C 403.78485107421875 288.31964111328125 398.3080749511719 293.7501525878906 390.8901672363281 295.565185546875 C 383.5246887207031 293.9275207519531 378.01226806640625 288.4927978515625 376.144287109375 281.11517333984375 C 378.1763610839844 273.3670959472656 383.004638671875 267.2808532714844 390.244140625 265.166748046875 C 398.19415283203125 268.46893310546875 403.8639831542969 273.68896484375 405.47869873046875 280.9552917480469" stroke-width="0.0" fill="rgb(144, 91, 45)" opacity="0.9906903"/>
    <path d="M 419.34124755859375 90.21698760986328 C 417.48699951171875 97.06317901611328 412.09503173828125 102.58503723144531 404.8061828613281 104.77796936035156 C 397.5588073730469 102.96296691894531 392.2878723144531 97.35912322998047 390.7229309082031 89.83027648925781 C 392.0458984375 82.50464630126953 397.50146484375 77.03022766113281 404.60595703125 75.49064636230469 C 412.0826416015625 77.48556518554688 417.4440002441406 82.94605255126953 419.34124755859375 90.21698760986328" stroke-width="0.0" fill="rgb(190, 196, 207)" opacity="0.9901158"/>
    <path d="M 365.4049987792969 127.19622039794922 C 363.3338317871094 134.94947814941406 358.0735778808594 140.69004821777344 350.7190856933594 141.62823486328125 C 343.1029357910156 139.33047485351562 337.67510986328125 133.89511108398438 335.8597106933594 126.74456787109375 C 337.39569091796875 119.24980926513672 341.9287414550781 113.2719497680664 349.2547607421875 111.28845977783203 C 356.982177734375 114.5965576171875 362.5162048339844 119.98123168945312 365.4049987792969 127.19622039794922" stroke-width="0.0" fill="rgb(98, 102, 113)" opacity="0.9900642"/>
    <path d="M 392.0001220703125 228.99972534179688 C 389.9903869628906 236.50001525878906 384.5001525878906 241.99090576171875 376.40081787109375 244.64503479003906 C 368.7375793457031 242.78282165527344 363.3055419921875 237.2352294921875 361.6197814941406 229.41033935546875 C 363.98968505859375 221.45870971679688 369.4059753417969 215.82052612304688 376.7929382324219 213.76158142089844 C 384.5119934082031 215.98570251464844 389.9927062988281 221.49441528320312 392.0001220703125 228.99972534179688" stroke-width="0.0" fill="rgb(6, 8, 11)" opacity="0.99100506"/>
    <path d="M 405.07025146484375 205.90679931640625 C 402.9903869628906 213.5 397.5 218.99038696289062 389.9703063964844 221.02293395996094 C 382.35528564453125 219.09835815429688 376.7070007324219 213.70619201660156 375.4325256347656 206.6092529296875 C 377.77056884765625 199.25563049316406 383.2729797363281 193.8194122314453 390.76422119140625 191.3908233642578 C 397.99346923828125 192.38694763183594 403.2880859375 198.11798095703125 405.07025146484375 205.90679931640625" stroke-width="0.0" fill="rgb(29, 53, 78)" opacity="0.99006903"/>
    <path d="M 397.11126708984375 308.2651672363281 C 395.0793151855469 315.50250244140625 389.4579162597656 320.9277648925781 381.96185302734375 322.94879150390625 C 374.47869873046875 321.00677490234375 368.88427734375 315.55401611328125 366.20263671875 307.38677978515625 C 368.3140869140625 299.95831298828125 374.1163330078125 294.7498474121094 381.7700500488281 293.223876953125 C 389.1810607910156 295.3592529296875 394.6456604003906 300.8174743652344 397.11126708984375 308.2651672363281" stroke-width="0.0" fill="rgb(5, 2, 5)" opacity="0.990071"/>
    <path d="M 422.73394775390625 214.68545532226562 C 420.835693359375 222.32150268554688 415.3020324707031 227.7740020751953 407.5289306640625 229.51315307617188 C 399.47943115234375 226.99484252929688 393.8850402832031 221.5569610595703 391.6494445800781 214.03805541992188 C 393.8948974609375 206.41903686523438 399.4281311035156 200.92713928222656 406.9684143066406 198.98277282714844 C 414.50018310546875 201.01011657714844 419.9935302734375 206.49879455566406 422.73394775390625 214.68545532226562" stroke-width="0.0" fill="rgb(2, 2, 3)" opacity="1.0"/>
    <path d="M 400.8249816894531 229.9127960205078 C 398.8789978027344 237.4148406982422 393.4233093261719 242.9073944091797 386.0052185058594 244.81390380859375 C 378.5580139160156 242.91143798828125 373.05877685546875 237.4507598876953 371.18035888671875 230.03956604003906 C 373.097412109375 222.54983520507812 378.5181579589844 216.98924255371094 386.086669921875 214.7118682861328 C 393.6074523925781 216.84896850585938 399.0647277832031 222.4185028076172 400.8249816894531 229.9127960205078" stroke-width="0.0" fill="rgb(20, 26, 40)" opacity="0.9904017"/>
    <path d="M 389.7967834472656 287.0272216796875 C 388.1969909667969 294.67266845703125 382.6774597167969 300.2134704589844 374.7005310058594 302.6257629394531 C 367.3216857910156 300.4490661621094 362.0357360839844 294.4454650878906 359.1692810058594 286.71044921875 C 361.57159423828125 279.2752685546875 367.4344787597656 274.0106201171875 375.3058776855469 271.6817321777344 C 382.97686767578125 273.4926452636719 388.3638916015625 279.0638122558594 389.7967834472656 287.0272216796875" stroke-width="0.0" fill="rgb(30, 26, 11)" opacity="0.99011934"/>
  </g>
</svg>
