<?xml version="1.0" ?>
<svg xmlns="http://www.w3.org/2000/svg" version="1.1" width="600" height="600">
  <defs/>
  <g>
    <path d="M 331.55584716796875 89.64106750488281 C 329.0143737792969 97.51457977294922 323.5089111328125 102.9954605102539 316.0009765625 105.00054931640625 C 308.5 102.9903793334961 303.0096130371094 97.5 301.0 90.0 C 303.0096130371094 82.5 308.5 77.0096206665039 316.0948486328125 74.88967895507812 C 323.7652893066406 76.77274322509766 329.4540100097656 82.15767669677734 331.55584716796875 89.64106750488281" stroke-width="0.0" fill="rgb(201, 203, 208)" opacity="0.99162817"/>
    <path d="M 360.0 229.0 C 357.9903869628906 236.5 352.5 241.99038696289062 345.0 244.0 C 337.5 241.99038696289062 332.0096130371094 236.5 329.54620361328125 228.5646209716797 C 331.32354736328125 220.82595825195312 336.83465576171875 215.3519744873047 344.6145935058594 213.6177215576172 C 352.5 216.00961303710938 357.9903869628906 221.5 360.0 229.0" stroke-width="0.0" fill="rgb(0, 0, 0)" opacity="1.0"/>
    <path d="M 354.10565185546875 450.83270263671875 C 351.9903564453125 458.4998474121094 346.4938659667969 463.9684143066406 339.8695983886719 465.057373046875 C 332.4019470214844 463.0719299316406 326.930419921875 457.5970153808594 324.9664611816406 450.45953369140625 C 326.9156494140625 444.389404296875 332.39013671875 438.9169921875 339.901611328125 435.2398986816406 C 347.2764587402344 437.1407775878906 352.5004577636719 442.8503112792969 354.10565185546875 450.83270263671875" stroke-width="0.0" fill="rgb(4, 5, 5)" opacity="0.9900104"/>
    <path d="M 412.0458984375 227.50933837890625 C 410.1198425292969 233.68443298339844 404.79083251953125 240.1181182861328 397.3061218261719 242.939453125 C 389.6246337890625 240.88629150390625 384.111328125 235.37648010253906 382.115966796875 227.8172149658203 C 385.07421875 219.64520263671875 390.86773681640625 214.6160430908203 397.291015625 212.94725036621094 C 404.6218566894531 214.9056854248047 410.08746337890625 220.38101196289062 412.0458984375 227.50933837890625" stroke-width="0.0" fill="rgb(28, 30, 36)" opacity="0.9900079"/>
    <path d="M 394.2005920410156 215.64443969726562 C 393.1245422363281 222.65484619140625 387.8238830566406 228.53726196289062 380.39288330078125 230.8475341796875 C 372.2798767089844 228.39212036132812 366.96630859375 222.59466552734375 364.9012756347656 214.85145568847656 C 366.52740478515625 206.87606811523438 371.7388610839844 201.14813232421875 380.35296630859375 199.0417938232422 C 388.3058776855469 201.1270294189453 392.591064453125 206.85903930664062 394.2005920410156 215.64443969726562" stroke-width="0.0" fill="rgb(33, 34, 38)" opacity="1.0"/>
    <path d="M 328.01861572265625 66.02066040039062 C 326.0561218261719 73.57463073730469 320.58624267578125 79.09492492675781 313.04852294921875 81.06779479980469 C 305.5 78.9903793334961 300.0096130371094 73.5 298.0138854980469 66.00767517089844 C 299.990478515625 58.4063606262207 305.3068542480469 52.68539810180664 312.7816162109375 50.67433547973633 C 320.5 53.009620666503906 325.9903869628906 58.5 328.01861572265625 66.02066040039062" stroke-width="0.0" fill="rgb(206, 207, 211)" opacity="1.0"/>
    <path d="M 322.28961181640625 197.65696716308594 C 319.9903869628906 205.5 314.5 210.99038696289062 307.0 213.0 C 299.5 210.99038696289062 294.0096130371094 205.5 291.1026306152344 197.1815185546875 C 293.12310791015625 189.64039611816406 298.6390686035156 184.1196746826172 306.6684875488281 182.04759216308594 C 315.3105163574219 184.1361846923828 320.66265869140625 189.7587890625 322.28961181640625 197.65696716308594" stroke-width="0.0" fill="rgb(39, 39, 41)" opacity="1.0"/>
    <path d="M 363.8087158203125 191.55670166015625 C 361.58941650390625 198.89920043945312 355.7162170410156 204.1066131591797 348.0199279785156 206.01010131835938 C 340.5 203.99038696289062 335.0096130371094 198.5 333.0 191.0 C 335.0096130371094 183.5 340.5 178.00961303710938 348.0000305175781 175.99998474121094 C 355.5018310546875 178.00904846191406 361.03875732421875 183.4846954345703 363.8087158203125 191.55670166015625" stroke-width="0.0" fill="rgb(48, 48, 56)" opacity="0.99042517"/>
    <path d="M 450.0558166503906 312.7267150878906 C 448.50067138671875 319.2547912597656 443.4378967285156 324.967529296875 435.9981689453125 326.99932861328125 C 428.5 324.9903869628906 423.0096130371094 319.5 421.08734130859375 312.14276123046875 C 423.4776306152344 305.1136474609375 429.2530517578125 299.8653259277344 435.50445556640625 297.96356201171875 C 442.62115478515625 299.9105529785156 448.0951843261719 305.3765869140625 450.0558166503906 312.7267150878906" stroke-width="0.0" fill="rgb(15, 15, 20)" opacity="0.9900106"/>
    <path d="M 456.1246337890625 325.8040466308594 C 454.9903869628906 332.5 449.5 337.9903869628906 441.59381103515625 340.3907165527344 C 433.79278564453125 338.6778869628906 428.2596130371094 333.2264709472656 426.4338073730469 325.5299072265625 C 429.01007080078125 317.4983215332031 434.4935607910156 311.9935607910156 441.4393310546875 310.5321960449219 C 448.6749267578125 312.81396484375 454.1026306152344 318.353515625 456.1246337890625 325.8040466308594" stroke-width="0.0" fill="rgb(15, 15, 22)" opacity="0.9900849"/>
    <path d="M 431.5999450683594 327.4197692871094 C 429.1480407714844 334.63458251953125 423.6108093261719 340.0747375488281 416.9682312011719 342.0343322753906 C 410.3951416015625 340.07501220703125 404.9271240234375 334.6039123535156 402.9604797363281 327.14581298828125 C 403.2452087402344 319.7034606933594 408.7012939453125 314.2275695800781 416.476806640625 312.4965515136719 C 424.513671875 314.9980773925781 430.0173645019531 320.4818115234375 431.5999450683594 327.4197692871094" stroke-width="0.0" fill="rgb(4, 3, 5)" opacity="0.9900063"/>
    <path d="M 385.37255859375 298.4578552246094 C 382.4358215332031 305.8260192871094 376.7103271484375 311.11407470703125 370.30706787109375 313.03338623046875 C 363.3796081542969 311.07940673828125 357.8439636230469 305.6471252441406 355.5997009277344 298.3919372558594 C 357.0096130371094 291.5 362.5 286.0096130371094 370.7891540527344 283.1496276855469 C 378.3496398925781 285.1224060058594 383.7611999511719 290.68804931640625 385.37255859375 298.4578552246094" stroke-width="0.0" fill="rgb(4, 3, 5)" opacity="0.99001193"/>
    <path d="M 320.1351318359375 87.7704086303711 C 318.9903869628906 94.5 313.5 99.9903793334961 306.0 102.0 C 298.5 99.9903793334961 293.0096130371094 94.5 291.0 87.0 C 293.0096130371094 79.5 298.5 74.0096206665039 305.67510986328125 72.27753448486328 C 312.7854919433594 74.6579360961914 318.1422119140625 80.28247833251953 320.1351318359375 87.7704086303711" stroke-width="0.0" fill="rgb(3, 2, 3)" opacity="0.99005985"/>
    <path d="M 371.0001220703125 176.00022888183594 C 368.99176025390625 183.502685546875 363.50616455078125 189.0038604736328 355.9717102050781 191.12701416015625 C 348.4681701660156 189.0450897216797 342.99688720703125 183.51943969726562 340.9979553222656 176.00294494628906 C 343.0096130371094 168.5 348.5 163.00961303710938 356.0 161.0 C 363.5 163.00961303710938 368.9903869628906 168.5 371.0001220703125 176.00022888183594" stroke-width="0.0" fill="rgb(52, 55, 64)" opacity="1.0"/>
    <path d="M 303.901123046875 173.6040802001953 C 301.8354187011719 181.30287170410156 296.2786865234375 186.7711639404297 287.5811462402344 188.85809326171875 C 279.7686462402344 186.78158569335938 274.2296142578125 181.22537231445312 272.1734619140625 173.69581604003906 C 275.0096130371094 165.5 280.5 160.00961303710938 288.00665283203125 157.99725341796875 C 295.6298828125 159.95306396484375 301.5379638671875 165.17889404296875 303.901123046875 173.6040802001953" stroke-width="0.0" fill="rgb(138, 140, 155)" opacity="1.0"/>
    <path d="M 349.0 236.0 C 346.9902648925781 243.49960327148438 341.4940185546875 248.9698944091797 333.21905517578125 251.79177856445312 C 325.625 249.88450622558594 320.137939453125 244.36700439453125 318.11175537109375 235.4870147705078 C 320.1082763671875 227.6068115234375 325.6022033691406 222.09556579589844 333.15802001953125 220.09844970703125 C 341.5 223.00961303710938 346.9903869628906 228.5 349.0 236.0" stroke-width="0.0" fill="rgb(2, 2, 2)" opacity="0.9903588"/>
    <path d="M 226.92637634277344 170.77041625976562 C 224.87091064453125 178.32911682128906 219.28497314453125 183.7522430419922 211.5189666748047 185.51031494140625 C 203.7701873779297 182.80247497558594 198.55862426757812 177.10423278808594 196.69198608398438 169.50526428222656 C 198.00961303710938 162.5 203.5 157.00961303710938 211.00665283203125 154.99734497070312 C 218.6354217529297 156.9512176513672 224.54554748535156 162.17074584960938 226.92637634277344 170.77041625976562" stroke-width="0.0" fill="rgb(129, 132, 146)" opacity="1.0"/>
    <path d="M 363.40380859375 299.39166259765625 C 360.7442626953125 305.8734436035156 354.7459411621094 311.15447998046875 348.3335876464844 313.0575866699219 C 341.3371887207031 311.11956787109375 335.8312072753906 305.6807861328125 333.6744079589844 298.36993408203125 C 335.0096130371094 291.5 340.5 286.0096130371094 347.9983825683594 284.000732421875 C 355.47442626953125 286.02117919921875 360.845703125 291.5661926269531 363.40380859375 299.39166259765625" stroke-width="0.0" fill="rgb(61, 61, 71)" opacity="0.99001676"/>
    <path d="M 428.0572204589844 298.87188720703125 C 426.9711608886719 305.4946594238281 421.4998779296875 310.9903564453125 414.0 313.0 C 406.5 310.9903869628906 401.0096130371094 305.5 398.2712097167969 297.306396484375 C 400.14703369140625 289.6358337402344 405.6171569824219 284.0975341796875 413.15380859375 282.056396484375 C 420.6474304199219 285.7981262207031 426.0726318359375 291.3878173828125 428.0572204589844 298.87188720703125" stroke-width="0.0" fill="rgb(3, 3, 5)" opacity="0.9900825"/>
    <path d="M 288.0 141.0 C 285.9903869628906 148.5 280.5 153.99038696289062 273.0 156.0 C 265.5 153.99038696289062 260.0096130371094 148.5 258.0 141.0 C 260.0096130371094 133.5 265.5 128.00961303710938 273.0 126.0 C 280.5 128.00961303710938 285.9903869628906 133.5 288.0 141.0" stroke-width="0.0" fill="rgb(72, 76, 88)" opacity="1.0"/>
    <path d="M 312.8717041015625 211.75384521484375 C 310.7875671386719 219.15769958496094 304.9815673828125 224.31698608398438 297.0785827636719 226.0444793701172 C 289.5 223.99038696289062 284.0096130371094 218.5 281.2142028808594 210.27369689941406 C 283.14422607421875 202.64739990234375 288.6470642089844 197.14364624023438 296.28497314453125 195.2257843017578 C 304.5482482910156 197.92918395996094 310.0093688964844 203.47012329101562 312.8717041015625 211.75384521484375" stroke-width="0.0" fill="rgb(23, 24, 28)" opacity="0.9909493"/>
    <path d="M 243.05914306640625 195.89662170410156 C 240.99038696289062 203.5 235.5 208.99038696289062 227.2288360595703 211.8171844482422 C 219.62142944335938 209.88265991210938 214.13388061523438 204.37295532226562 212.24002075195312 196.69903564453125 C 214.503173828125 187.89129638671875 219.78329467773438 182.19546508789062 228.5960235595703 180.05625915527344 C 236.22698974609375 182.16326904296875 241.38766479492188 187.94088745117188 243.05914306640625 195.89662170410156" stroke-width="0.0" fill="rgb(1, 1, 2)" opacity="0.99668884"/>
    <path d="M 333.2868347167969 27.263275146484375 C 331.01483154296875 34.51082229614258 325.5091857910156 40.005943298339844 318.0068359375 42.00846862792969 C 310.5 39.990379333496094 305.0096130371094 34.5 302.9823913574219 26.97023582458496 C 304.87078857421875 19.274700164794922 310.1423034667969 13.490311622619629 317.614501953125 11.304506301879883 C 325.27301025390625 14.120665550231934 330.7183837890625 19.765531539916992 333.2868347167969 27.263275146484375" stroke-width="0.0" fill="rgb(195, 196, 201)" opacity="0.9901938"/>
    <path d="M 466.03857421875 342.6962890625 C 464.0863342285156 349.61285400390625 458.609375 355.0780029296875 451.9232177734375 357.03521728515625 C 445.4021301269531 355.0714416503906 439.9314270019531 349.5966491699219 437.9498596191406 342.13714599609375 C 439.166015625 335.5513610839844 444.5041809082031 330.0108642578125 451.7813720703125 328.16162109375 C 458.83782958984375 330.5643005371094 464.1306457519531 336.2713317871094 466.03857421875 342.6962890625" stroke-width="0.0" fill="rgb(16, 16, 24)" opacity="0.9900079"/>
    <path d="M 313.8995056152344 131.18690490722656 C 310.9903869628906 139.5 305.5 144.99038696289062 298.0 147.0 C 290.5 144.99038696289062 285.0096130371094 139.5 282.7897033691406 131.72500610351562 C 284.3879089355469 123.78462982177734 289.6983947753906 118.1365737915039 297.8763427734375 116.05351257324219 C 306.35601806640625 118.12584686279297 311.8674621582031 123.64695739746094 313.8995056152344 131.18690490722656" stroke-width="0.0" fill="rgb(77, 82, 93)" opacity="1.0"/>
    <path d="M 306.9972839355469 135.99957275390625 C 304.9903869628906 143.5 299.5 148.99038696289062 292.0 151.0 C 284.5 148.99038696289062 279.0096130371094 143.5 276.99993896484375 135.9998321533203 C 279.00799560546875 128.4958953857422 284.4860534667969 122.97360229492188 292.05316162109375 120.71025085449219 C 299.5611877441406 122.89723205566406 305.0034484863281 128.46878051757812 306.9972839355469 135.99957275390625" stroke-width="0.0" fill="rgb(57, 64, 83)" opacity="0.99075097"/>
    <path d="M 304.0231018066406 219.9952850341797 C 301.9903869628906 227.5 296.5 232.99038696289062 289.0 235.0 C 281.5 232.99038696289062 276.0096130371094 227.5 273.8795471191406 219.83480834960938 C 275.5557861328125 211.9532012939453 280.8727722167969 206.3017578125 288.4488220214844 204.52392578125 C 296.3964538574219 207.18577575683594 301.966796875 212.5571746826172 304.0231018066406 219.9952850341797" stroke-width="0.0" fill="rgb(4, 4, 5)" opacity="0.9922343"/>
    <path d="M 212.87132263183594 219.19479370117188 C 209.99038696289062 227.5 204.5 232.99038696289062 196.96234130859375 235.02024841308594 C 189.18637084960938 233.17855834960938 183.35037231445312 227.9868621826172 182.9067840576172 220.8506622314453 C 184.88035583496094 213.31051635742188 190.20492553710938 207.16168212890625 197.78216552734375 204.06704711914062 C 205.38446044921875 206.1033172607422 210.88682556152344 211.6195831298828 212.87132263183594 219.19479370117188" stroke-width="0.0" fill="rgb(25, 28, 29)" opacity="0.99009013"/>
    <path d="M 322.848388671875 237.7919464111328 C 320.88861083984375 245.38650512695312 315.39263916015625 250.9041290283203 307.702392578125 252.94970703125 C 298.7324523925781 250.84434509277344 293.4561462402344 245.162353515625 291.83990478515625 237.21694946289062 C 294.0096130371094 229.5 299.5 224.00961303710938 307.0 222.0 C 314.50030517578125 224.00950622558594 319.9945373535156 229.49856567382812 322.848388671875 237.7919464111328" stroke-width="0.0" fill="rgb(12, 12, 14)" opacity="0.9920564"/>
    <path d="M 323.0 324.0 C 320.9903869628906 331.5 315.5 336.9903869628906 308.0 339.0 C 300.5 336.9903869628906 295.0096130371094 331.5 293.0 324.0 C 295.0096130371094 316.5 300.5 311.0096130371094 308.0 309.0 C 315.5 311.0096130371094 320.9903869628906 316.5 323.0 324.0" stroke-width="0.0" fill="rgb(30, 30, 36)" opacity="1.0"/>
    <path d="M 296.4399719238281 162.3120574951172 C 294.4194641113281 169.72821044921875 288.488525390625 174.77505493164062 280.9080505371094 177.5299072265625 C 273.4388122558594 175.04244995117188 267.9251403808594 169.57192993164062 265.9673767089844 162.03199768066406 C 268.0096130371094 154.5 273.5 149.00961303710938 281.0 147.0 C 288.5 149.00961303710938 293.9903869628906 154.5 296.4399719238281 162.3120574951172" stroke-width="0.0" fill="rgb(54, 58, 76)" opacity="1.0"/>
    <path d="M 318.9992370605469 95.0025405883789 C 317.00311279296875 102.53485107421875 311.64068603515625 108.31168365478516 303.15643310546875 110.93675231933594 C 295.60400390625 108.907958984375 290.1235656738281 103.38449096679688 288.2275695800781 95.7399673461914 C 291.0096130371094 87.5 296.5 82.0096206665039 303.9936218261719 80.0090560913086 C 311.4898681640625 82.02355194091797 316.9846496582031 87.50767517089844 318.9992370605469 95.0025405883789" stroke-width="0.0" fill="rgb(1, 0, 0)" opacity="1.0"/>
    <path d="M 381.751220703125 215.84164428710938 C 379.9190979003906 223.7122344970703 374.9925231933594 229.69309997558594 366.8799133300781 231.91380310058594 C 359.0535583496094 229.65525817871094 353.9053649902344 223.71778869628906 351.9923400878906 216.009765625 C 353.9682922363281 208.39883422851562 359.2160949707031 202.4957275390625 367.58819580078125 200.08795166015625 C 375.12286376953125 202.2330780029297 380.28985595703125 208.0621795654297 381.751220703125 215.84164428710938" stroke-width="0.0" fill="rgb(10, 11, 11)" opacity="0.99086434"/>
    <path d="M 315.0343322753906 312.935791015625 C 312.9903869628906 320.5 307.5 325.9903869628906 300.0 328.0 C 292.4993591308594 325.9906005859375 286.9927062988281 320.5052490234375 284.0662841796875 312.1243591308594 C 286.0855407714844 304.5962219238281 291.5997009277344 299.0933837890625 299.2862854003906 297.04541015625 C 308.15911865234375 299.2019348144531 313.2867126464844 305.0399475097656 315.0343322753906 312.935791015625" stroke-width="0.0" fill="rgb(4, 4, 8)" opacity="1.0"/>
    <path d="M 319.8874206542969 141.19720458984375 C 316.9903869628906 149.5 311.5 154.99038696289062 304.0 157.0 C 296.5 154.99038696289062 291.0096130371094 149.5 289.32916259765625 142.32199096679688 C 291.6050109863281 135.12081909179688 297.16839599609375 129.74452209472656 304.6882629394531 127.74755096435547 C 312.2629699707031 128.2949676513672 317.8608093261719 133.68362426757812 319.8874206542969 141.19720458984375" stroke-width="0.0" fill="rgb(3, 4, 9)" opacity="0.9900862"/>
    <path d="M 282.0 84.0 C 279.9903869628906 91.5 274.5 96.9903793334961 267.02166748046875 98.98574829101562 C 259.6448059082031 96.89662170410156 254.3509521484375 91.27511596679688 252.7128143310547 84.16496276855469 C 254.5517578125 76.97844696044922 259.85638427734375 70.92224884033203 266.5289306640625 68.25725555419922 C 274.5 71.0096206665039 279.9903869628906 76.5 282.0 84.0" stroke-width="0.0" fill="rgb(127, 98, 89)" opacity="0.9900392"/>
    <path d="M 271.53564453125 166.42271423339844 C 269.5829772949219 173.9874725341797 263.8937683105469 179.29452514648438 256.0928649902344 181.06605529785156 C 248.5 178.99038696289062 243.00961303710938 173.5 241.0 166.0 C 243.00961303710938 158.5 248.5 153.00961303710938 256.0 151.0 C 263.5 153.00961303710938 268.9903869628906 158.5 271.53564453125 166.42271423339844" stroke-width="0.0" fill="rgb(57, 59, 68)" opacity="1.0"/>
    <path d="M 352.0 285.0 C 349.9903869628906 292.5 344.5 297.9903869628906 337.0 300.0 C 329.5 297.9903869628906 324.0096130371094 292.5 321.365966796875 284.55572509765625 C 323.5023193359375 277.19195556640625 329.3598937988281 271.9638977050781 337.00177001953125 270.00775146484375 C 344.5 272.0096130371094 349.9903869628906 277.5 352.0 285.0" stroke-width="0.0" fill="rgb(2, 2, 2)" opacity="0.9909322"/>
    <path d="M 366.003173828125 221.0029754638672 C 363.9928283691406 228.50112915039062 358.50048828125 233.9906463623047 351.00006103515625 236.00003051757812 C 343.5 233.99038696289062 338.0096130371094 228.5 336.0 221.0 C 338.0096130371094 213.5 343.5 208.00961303710938 351.0000305175781 205.99998474121094 C 358.500244140625 208.00949096679688 363.9909973144531 213.49961853027344 366.003173828125 221.0029754638672" stroke-width="0.0" fill="rgb(0, 0, 0)" opacity="0.99968654"/>
    <path d="M 237.43801879882812 276.07879638671875 C 235.1964111328125 283.5801696777344 229.5757598876953 289.17877197265625 222.31198120117188 291.51177978515625 C 214.4410858154297 288.9179382324219 208.75369262695312 283.6544494628906 206.46047973632812 276.05877685546875 C 208.7307586669922 268.2601318359375 214.23780822753906 262.6681823730469 221.859130859375 260.602294921875 C 229.7968292236328 262.7036437988281 235.3894805908203 268.1725769042969 237.43801879882812 276.07879638671875" stroke-width="0.0" fill="rgb(213, 212, 222)" opacity="1.0"/>
    <path d="M 348.89349365234375 289.8758544921875 C 346.6299133300781 297.0452575683594 340.897216796875 302.24310302734375 333.2279357910156 304.09832763671875 C 326.5 302.9903869628906 321.0096130371094 297.5 318.91912841796875 289.9327392578125 C 320.85595703125 282.3706970214844 326.389404296875 276.91766357421875 333.9726867675781 274.9779052734375 C 341.5 277.0096130371094 346.9903869628906 282.5 348.89349365234375 289.8758544921875" stroke-width="0.0" fill="rgb(2, 2, 2)" opacity="0.9905329"/>
    <path d="M 312.0 324.0 C 309.9903869628906 331.5 304.5 336.9903869628906 296.4494934082031 339.6025085449219 C 288.7849426269531 337.7442321777344 283.3717346191406 332.1793518066406 281.7024230957031 324.3341064453125 C 284.0084228515625 316.4985046386719 289.4980163574219 311.00677490234375 296.99853515625 308.99755859375 C 304.5 311.0096130371094 309.9903869628906 316.5 312.0 324.0" stroke-width="0.0" fill="rgb(5, 5, 9)" opacity="0.9938425"/>
    <path d="M 296.0646057128906 67.92534637451172 C 293.9903869628906 75.5 288.5 80.9903793334961 281.0939636230469 82.8971939086914 C 273.734130859375 80.7598876953125 268.2773742675781 75.25413513183594 265.6876220703125 67.9243392944336 C 267.9989929199219 60.49685287475586 273.4997253417969 55.00954055786133 281.1434020996094 52.83571243286133 C 288.771484375 54.70561218261719 294.2075500488281 60.25494384765625 296.0646057128906 67.92534637451172" stroke-width="0.0" fill="rgb(82, 94, 105)" opacity="0.99044234"/>
    <path d="M 257.0 170.0 C 254.99038696289062 177.5 249.5 182.99038696289062 241.30499267578125 185.7103271484375 C 233.62020874023438 183.86241149902344 228.08424377441406 178.39927673339844 226.0352783203125 170.7035369873047 C 228.1300506591797 161.7030487060547 233.81259155273438 156.437255859375 241.77719116210938 154.84097290039062 C 249.5 157.00961303710938 254.99038696289062 162.5 257.0 170.0" stroke-width="0.0" fill="rgb(0, 0, 0)" opacity="1.0"/>
    <path d="M 385.0441589355469 179.834228515625 C 384.7198486328125 187.3047637939453 379.3453674316406 192.87185668945312 371.6237487792969 194.92236328125 C 362.8316955566406 192.7664031982422 357.56591796875 187.05316162109375 355.8946533203125 179.15167236328125 C 358.0096130371094 171.5 363.5 166.00961303710938 370.4988708496094 164.46974182128906 C 377.6827697753906 166.7897491455078 383.0859069824219 172.36090087890625 385.0441589355469 179.834228515625" stroke-width="0.0" fill="rgb(10, 10, 14)" opacity="0.9900302"/>
    <path d="M 309.9486083984375 10.982514381408691 C 307.9810791015625 18.49713134765625 302.4996643066406 23.99032211303711 294.9989013671875 26.000986099243164 C 287.4959716796875 23.993988037109375 282.0046691894531 18.504423141479492 279.9975891113281 11.00068473815918 C 282.0055847167969 3.496344804763794 287.496826171875 -1.9928510189056396 294.9993591308594 -4.000476837158203 C 302.5 -1.9903810024261475 307.9903869628906 3.5 309.9486083984375 10.982514381408691" stroke-width="0.0" fill="rgb(191, 193, 198)" opacity="1.0"/>
    <path d="M 286.8824462890625 13.971454620361328 C 285.0329895019531 21.65019989013672 279.80731201171875 27.483266830444336 271.4938049316406 29.721790313720703 C 264.09320068359375 27.58871078491211 258.846435546875 21.741369247436523 256.47833251953125 13.690815925598145 C 258.5439147949219 6.155391693115234 264.23931884765625 0.795608401298523 272.20709228515625 -1.4111919403076172 C 279.7296142578125 0.6574274301528931 285.0708923339844 6.358338832855225 286.8824462890625 13.971454620361328" stroke-width="0.0" fill="rgb(209, 211, 216)" opacity="1.0"/>
    <path d="M 316.0 344.0 C 313.9903869628906 351.5 308.5 356.9903869628906 300.6915588378906 359.2406921386719 C 292.75933837890625 357.6455993652344 287.1246032714844 352.31964111328125 285.0445861816406 344.46441650390625 C 287.1573181152344 335.745849609375 292.8714294433594 330.5058288574219 300.8254089355469 328.86602783203125 C 308.5007629394531 331.0074157714844 313.99041748046875 336.4998474121094 316.0 344.0" stroke-width="0.0" fill="rgb(7, 7, 12)" opacity="1.0"/>
    <path d="M 335.9046630859375 202.84896850585938 C 333.90899658203125 210.40150451660156 328.40045166015625 215.90670776367188 320.4212951660156 217.95558166503906 C 311.6893615722656 215.87136840820312 306.37469482421875 210.2249755859375 304.8563232421875 202.26351928710938 C 306.85687255859375 194.24435424804688 312.0227355957031 188.32205200195312 319.2961730957031 186.13973999023438 C 327.5 189.00961303710938 332.9903869628906 194.5 335.9046630859375 202.84896850585938" stroke-width="0.0" fill="rgb(6, 6, 8)" opacity="1.0"/>
    <path d="M 225.88136291503906 166.23260498046875 C 223.21853637695312 174.66506958007812 217.63229370117188 180.11192321777344 210.08465576171875 182.0111083984375 C 202.67034912109375 179.85098266601562 197.3318328857422 174.27178955078125 195.4228057861328 166.74740600585938 C 197.00961303710938 159.5 202.5 154.00961303710938 210.281982421875 151.764404296875 C 218.18777465820312 153.40097045898438 223.83599853515625 158.73008728027344 225.88136291503906 166.23260498046875" stroke-width="0.0" fill="rgb(118, 121, 133)" opacity="1.0"/>
    <path d="M 311.1118469238281 69.83631896972656 C 308.9903869628906 77.5 303.5 82.9903793334961 296.0322265625 84.98011779785156 C 288.71282958984375 82.85123443603516 283.4438781738281 77.19039916992188 281.6682434082031 69.81566619873047 C 282.75445556640625 62.00469207763672 287.80657958984375 56.181617736816406 296.41729736328125 54.0410270690918 C 304.2499084472656 56.156471252441406 309.4758605957031 61.8851318359375 311.1118469238281 69.83631896972656" stroke-width="0.0" fill="rgb(8, 3, 3)" opacity="1.0"/>
    <path d="M 277.20489501953125 272.0160827636719 C 275.3398742675781 279.90643310546875 270.00653076171875 285.623291015625 261.2407531738281 287.91546630859375 C 253.6757354736328 285.85986328125 248.20315551757812 280.2989501953125 246.20343017578125 272.63006591796875 C 248.9551544189453 264.48260498046875 254.49783325195312 259.0089416503906 262.3445129394531 256.57452392578125 C 269.9638671875 258.4698181152344 275.33087158203125 264.0989990234375 277.20489501953125 272.0160827636719" stroke-width="0.0" fill="rgb(244, 192, 35)" opacity="1.0"/>
    <path d="M 314.0120849609375 22.989465713500977 C 311.9903869628906 30.5 306.5 35.990379333496094 298.599609375 38.4683837890625 C 290.847900390625 36.63097381591797 285.2506408691406 31.194494247436523 283.2507019042969 23.630495071411133 C 286.0230407714844 15.507464408874512 291.5042419433594 10.012099266052246 299.007080078125 7.994331359863281 C 306.52313232421875 9.988530158996582 312.0182800292969 15.474832534790039 314.0120849609375 22.989465713500977" stroke-width="0.0" fill="rgb(196, 199, 203)" opacity="1.0"/>
    <path d="M 365.91796875 285.9430236816406 C 363.8795471191406 293.4275207519531 358.4580078125 298.9809875488281 350.9615783691406 301.106201171875 C 343.5455627441406 299.04266357421875 338.2669677734375 293.357666015625 336.32427978515625 285.80804443359375 C 338.0096130371094 278.5 343.5 273.0096130371094 351.0 271.0 C 358.5 273.0096130371094 363.9903869628906 278.5 365.91796875 285.9430236816406" stroke-width="0.0" fill="rgb(50, 53, 57)" opacity="0.99053323"/>
    <path d="M 351.1932678222656 169.73712158203125 C 348.9903869628906 177.5 343.5 182.99038696289062 336.0 185.0 C 328.5 182.99038696289062 323.0096130371094 177.5 320.9731140136719 169.9470977783203 C 322.7427978515625 162.06646728515625 327.85498046875 156.2078094482422 336.57598876953125 154.05003356933594 C 344.3087463378906 156.1284942626953 349.60662841796875 161.7825927734375 351.1932678222656 169.73712158203125" stroke-width="0.0" fill="rgb(0, 0, 0)" opacity="1.0"/>
    <path d="M 255.03744506835938 448.54547119140625 C 253.1006622314453 454.6742858886719 247.83538818359375 461.58258056640625 240.27122497558594 463.95623779296875 C 232.62408447265625 461.89886474609375 227.2869873046875 456.3324279785156 226.95960998535156 448.8285827636719 C 228.9312744140625 441.4024658203125 234.3998565673828 435.9251708984375 240.79559326171875 433.964599609375 C 247.60414123535156 435.9239807128906 253.07369995117188 441.39691162109375 255.03744506835938 448.54547119140625" stroke-width="0.0" fill="rgb(16, 17, 18)" opacity="0.99000573"/>
    <path d="M 281.9039611816406 188.39537048339844 C 279.49658203125 196.7838897705078 273.6085510253906 202.0362548828125 266.005126953125 204.00205993652344 C 258.5 201.99038696289062 253.00961303710938 196.5 251.0 189.0 C 253.00955200195312 181.49978637695312 258.4975891113281 176.00155639648438 266.749755859375 173.15704345703125 C 274.31146240234375 175.15663146972656 279.801513671875 180.70616149902344 281.9039611816406 188.39537048339844" stroke-width="0.0" fill="rgb(82, 89, 103)" opacity="1.0"/>
    <path d="M 275.0 143.0 C 272.9903869628906 150.5 267.5 155.99038696289062 260.0 158.0 C 252.5 155.99038696289062 247.00961303710938 150.5 245.0 143.0 C 247.00961303710938 135.5 252.5 130.00961303710938 260.0 128.0 C 267.5 130.00961303710938 272.9903869628906 135.5 275.0 143.0" stroke-width="0.0" fill="rgb(3, 4, 34)" opacity="0.9901501"/>
    <path d="M 372.08941650390625 164.86102294921875 C 369.9903869628906 172.5 364.5 177.99038696289062 357.0 180.0 C 349.5 177.99038696289062 344.0096130371094 172.5 341.3229675292969 164.36373901367188 C 343.181640625 156.67037963867188 348.64593505859375 151.1177978515625 356.4908447265625 149.04783630371094 C 365.2296447753906 151.16981506347656 370.43890380859375 156.9131622314453 372.08941650390625 164.86102294921875" stroke-width="0.0" fill="rgb(43, 45, 51)" opacity="1.0"/>
    <path d="M 316.0039978027344 154.0765838623047 C 314.21710205078125 161.87205505371094 309.0791931152344 167.7427978515625 301.70355224609375 169.890380859375 C 293.2927551269531 167.3172607421875 287.8692626953125 161.64573669433594 285.93914794921875 154.07814025878906 C 288.11639404296875 146.67318725585938 293.7809143066406 141.43673706054688 300.92645263671875 139.7675018310547 C 308.16851806640625 141.48483276367188 313.84619140625 146.71986389160156 316.0039978027344 154.0765838623047" stroke-width="0.0" fill="rgb(94, 111, 133)" opacity="1.0"/>
    <path d="M 331.9244689941406 63.14374923706055 C 329.76025390625 70.43912506103516 324.5986328125 76.2157211303711 316.4945373535156 78.77523040771484 C 309.2225646972656 76.49127197265625 303.96673583984375 70.60295867919922 302.5772399902344 63.31905746459961 C 304.10491943359375 55.2143440246582 309.0986022949219 49.55495834350586 316.81573486328125 47.606109619140625 C 324.2889404296875 50.0358772277832 329.5669860839844 55.822776794433594 331.9244689941406 63.14374923706055" stroke-width="0.0" fill="rgb(194, 195, 200)" opacity="0.99044955"/>
    <path d="M 296.305419921875 90.51909637451172 C 294.48114013671875 98.68798065185547 290.1068115234375 104.76419067382812 282.5947570800781 106.8395004272461 C 274.0690002441406 104.60389709472656 269.1581726074219 98.70264434814453 267.79888916015625 90.852294921875 C 268.6902770996094 83.02254486083984 273.9115295410156 77.3164291381836 281.5303649902344 75.18443298339844 C 289.6382751464844 77.72257232666016 295.1097106933594 83.42110443115234 296.305419921875 90.51909637451172" stroke-width="0.0" fill="rgb(227, 178, 165)" opacity="1.0"/>
    <path d="M 322.0003356933594 314.99908447265625 C 319.9903869628906 322.5 314.5 327.9903869628906 307.0107116699219 329.99169921875 C 299.5435485839844 327.9534606933594 294.0901184082031 322.4436340332031 292.2421569824219 315.0242919921875 C 294.1300964355469 307.5953674316406 299.56658935546875 302.02197265625 307.5338439941406 299.1595764160156 C 314.6666259765625 301.63470458984375 320.0032958984375 307.4632568359375 322.0003356933594 314.99908447265625" stroke-width="0.0" fill="rgb(24, 24, 31)" opacity="0.9912045"/>
    <path d="M 274.0001220703125 336.9996643066406 C 271.9903869628906 344.5 266.5 349.9903869628906 258.4707946777344 352.54345703125 C 250.71229553222656 350.7635498046875 245.14559936523438 345.3201599121094 243.06178283691406 337.1671142578125 C 245.1405487060547 328.6544189453125 250.6454315185547 323.1203918457031 258.1727600097656 321.0713806152344 C 266.574462890625 323.8148498535156 271.9955139160156 329.48504638671875 274.0001220703125 336.9996643066406" stroke-width="0.0" fill="rgb(11, 10, 19)" opacity="0.990089"/>
    <path d="M 297.92242431640625 271.8058776855469 C 295.8994140625 279.3861999511719 290.38311767578125 284.89251708984375 282.4034423828125 286.94879150390625 C 273.66241455078125 284.86883544921875 268.1831359863281 279.316162109375 266.1257629394531 271.57794189453125 C 268.4607849121094 262.9906921386719 273.9095764160156 257.28594970703125 281.746826171875 255.10159301757812 C 290.2049255371094 257.255615234375 295.7129211425781 262.806884765625 297.92242431640625 271.8058776855469" stroke-width="0.0" fill="rgb(147, 110, 3)" opacity="0.9900819"/>
    <path d="M 268.92169189453125 257.17547607421875 C 265.8462219238281 265.05914306640625 259.9465026855469 270.35784912109375 252.42559814453125 273.37884521484375 C 244.8970489501953 271.59405517578125 239.2548065185547 266.1622314453125 237.091552734375 257.6044921875 C 239.15232849121094 249.66233825683594 244.65737915039062 244.1399688720703 253.2063446044922 242.07684326171875 C 261.37353515625 244.1207733154297 266.89227294921875 249.62120056152344 268.92169189453125 257.17547607421875" stroke-width="0.0" fill="rgb(110, 51, 2)" opacity="0.9900198"/>
    <path d="M 261.7952880859375 189.10601806640625 C 260.2095642089844 196.83285522460938 254.9680938720703 202.60304260253906 247.485107421875 204.6311492919922 C 239.5 201.99038696289062 234.00961303710938 196.5 231.3633575439453 188.47279357910156 C 233.32174682617188 180.91529846191406 239.01722717285156 175.6333465576172 246.88455200195312 173.915283203125 C 254.54080200195312 175.98516845703125 260.04107666015625 181.4500732421875 261.7952880859375 189.10601806640625" stroke-width="0.0" fill="rgb(16, 17, 23)" opacity="0.9900942"/>
    <path d="M 348.898193359375 175.00086975097656 C 346.9124450683594 182.44699096679688 341.46295166015625 187.96539306640625 333.994140625 189.99606323242188 C 326.5 187.99038696289062 321.0096130371094 182.5 319.0 175.0 C 321.0096130371094 167.5 326.5 162.00961303710938 333.9826354980469 160.0142059326172 C 341.4293212890625 162.0688018798828 346.8932189941406 167.5821533203125 348.898193359375 175.00086975097656" stroke-width="0.0" fill="rgb(2, 2, 2)" opacity="0.99385923"/>
    <path d="M 301.0043640136719 221.99642944335938 C 298.9903869628906 229.5 293.5 234.99038696289062 285.7626037597656 237.1946258544922 C 277.8709716796875 235.54013061523438 272.2091369628906 230.21505737304688 270.06854248046875 221.33432006835938 C 272.1314392089844 213.66151428222656 277.6778564453125 208.17123413085938 285.31341552734375 206.23736572265625 C 293.5152282714844 208.9856414794922 299.0005187988281 214.48878479003906 301.0043640136719 221.99642944335938" stroke-width="0.0" fill="rgb(5, 6, 8)" opacity="0.99038184"/>
    <path d="M 322.51129150390625 31.40802001953125 C 320.9903869628906 38.5 315.5 43.990379333496094 307.7003479003906 46.25261306762695 C 299.8147277832031 44.61008834838867 294.1929016113281 39.250484466552734 292.1308898925781 31.705963134765625 C 295.51092529296875 23.977502822875977 300.8877258300781 18.06657600402832 307.3810729980469 16.669099807739258 C 314.8788146972656 18.688892364501953 320.3651428222656 24.102109909057617 322.51129150390625 31.40802001953125" stroke-width="0.0" fill="rgb(90, 91, 95)" opacity="0.99020743"/>
    <path d="M 379.05010986328125 168.8543243408203 C 377.7603759765625 175.39828491210938 372.4635009765625 180.96531677246094 364.9930725097656 182.99310302734375 C 357.5 180.99038696289062 352.0096130371094 175.5 349.9835510253906 167.9796142578125 C 351.93585205078125 160.4022216796875 357.3497619628906 154.7672882080078 364.1781311035156 153.78970336914062 C 371.6063232421875 155.9178924560547 377.0745849609375 161.39651489257812 379.05010986328125 168.8543243408203" stroke-width="0.0" fill="rgb(4, 5, 9)" opacity="0.990036"/>
    <path d="M 331.9383239746094 155.13392639160156 C 329.0721130371094 163.52560424804688 323.5022888183594 168.9910430908203 315.7633056640625 171.25135803222656 C 308.0508117675781 169.45639038085938 302.6162414550781 163.9287109375 301.6672058105469 156.45687866210938 C 303.5442199707031 148.92044067382812 308.81378173828125 143.19216918945312 316.7511291503906 140.1752471923828 C 324.37939453125 142.125 329.9083557128906 147.60752868652344 331.9383239746094 155.13392639160156" stroke-width="0.0" fill="rgb(30, 38, 46)" opacity="1.0"/>
    <path d="M 406.60308837890625 300.9897766113281 C 404.76171875 309.31463623046875 399.3520812988281 314.87872314453125 391.7970886230469 315.2124938964844 C 383.6204833984375 313.6864318847656 378.0157165527344 308.4811706542969 376.00006103515625 300.99951171875 C 378.0067443847656 293.4913330078125 383.4535217285156 287.880615234375 391.8614807128906 285.0661926269531 C 399.3656311035156 287.1003723144531 404.764404296875 292.68109130859375 406.60308837890625 300.9897766113281" stroke-width="0.0" fill="rgb(2, 2, 4)" opacity="1.0"/>
    <path d="M 337.0046691894531 168.99252319335938 C 334.9903259277344 176.49996948242188 329.5 181.99038696289062 321.1452941894531 184.9180145263672 C 313.6136779785156 182.90171813964844 308.1054382324219 177.38291931152344 306.0656433105469 169.8319091796875 C 308.7349548339844 161.51129150390625 314.65704345703125 156.20901489257812 322.1708984375 153.9828643798828 C 329.57415771484375 155.88949584960938 335.02203369140625 161.4525146484375 337.0046691894531 168.99252319335938" stroke-width="0.0" fill="rgb(3, 3, 4)" opacity="1.0"/>
    <path d="M 274.1152038574219 105.28448486328125 C 272.720703125 112.39385223388672 267.4811706542969 117.9839859008789 259.99957275390625 119.9998550415039 C 252.5 117.9903793334961 247.00961303710938 112.5 244.9998016357422 104.99922943115234 C 246.9999237060547 97.47339630126953 252.40963745117188 91.79900360107422 259.6699523925781 89.42147827148438 C 266.9825439453125 92.51681518554688 272.3946228027344 98.0434341430664 274.1152038574219 105.28448486328125" stroke-width="0.0" fill="rgb(206, 208, 209)" opacity="1.0"/>
    <path d="M 365.0052185058594 214.00140380859375 C 362.9915466308594 221.5004119873047 357.5000915527344 226.9904327392578 349.97979736328125 229.00906372070312 C 342.2261962890625 227.12924194335938 336.2810363769531 222.0214385986328 334.0605773925781 214.3075408935547 C 336.2960205078125 206.0014190673828 342.2520751953125 200.8902587890625 349.9842834472656 198.99330139160156 C 357.50006103515625 201.00958251953125 362.990966796875 206.49977111816406 365.0052185058594 214.00140380859375" stroke-width="0.0" fill="rgb(0, 0, 0)" opacity="1.0"/>
    <path d="M 283.9508056640625 200.68482971191406 C 281.9019470214844 208.3885040283203 276.38153076171875 213.88490295410156 267.5343322753906 215.93934631347656 C 259.6296081542969 213.887451171875 254.13101196289062 208.36277770996094 252.15414428710938 200.78807067871094 C 255.32034301757812 192.856689453125 260.9737243652344 187.63253784179688 268.35540771484375 185.86061096191406 C 275.86767578125 187.34657287597656 281.7985534667969 191.83941650390625 283.9508056640625 200.68482971191406" stroke-width="0.0" fill="rgb(4, 5, 9)" opacity="0.9900242"/>
    <path d="M 281.95184326171875 345.6741027832031 C 279.90142822265625 353.39215087890625 274.3939208984375 358.905517578125 266.30517578125 360.9570617675781 C 257.6147766113281 358.89764404296875 252.12191772460938 353.3777770996094 250.181884765625 345.7662353515625 C 253.0285186767578 337.51202392578125 258.5085754394531 332.0167541503906 266.0395202636719 329.9841613769531 C 273.8638000488281 331.80072021484375 279.76318359375 336.9059753417969 281.95184326171875 345.6741027832031" stroke-width="0.0" fill="rgb(5, 5, 8)" opacity="1.0"/>
    <path d="M 331.05999755859375 323.59942626953125 C 329.1594543457031 330.76312255859375 323.87725830078125 336.4969787597656 316.8426818847656 338.9205627441406 C 309.5056457519531 336.98736572265625 304.0332336425781 331.4884033203125 302.12548828125 324.01483154296875 C 304.0679016113281 316.54296875 309.53411865234375 311.0372619628906 317.3260498046875 308.5666809082031 C 324.3898620605469 310.5773010253906 329.2171630859375 317.0735778808594 331.05999755859375 323.59942626953125" stroke-width="0.0" fill="rgb(43, 44, 51)" opacity="0.990058"/>
    <path d="M 328.0889892578125 341.51123046875 C 327.69171142578125 349.20343017578125 322.1849365234375 354.63006591796875 314.3304748535156 356.2858581542969 C 306.5 353.9903869628906 301.0096130371094 348.5 298.9990234375 340.9986572265625 C 301.0041809082031 333.4922180175781 306.4881896972656 327.99041748046875 314.0753173828125 325.9248046875 C 321.84967041015625 327.72650146484375 327.00299072265625 333.1896667480469 328.0889892578125 341.51123046875" stroke-width="0.0" fill="rgb(32, 32, 41)" opacity="0.9904235"/>
    <path d="M 361.7595520019531 234.63755798339844 C 359.742919921875 242.14413452148438 354.0296325683594 247.40565490722656 346.1355285644531 249.0944366455078 C 338.5 246.99038696289062 333.0096130371094 241.5 331.0 234.0 C 333.0096130371094 226.5 338.5 221.00961303710938 346.0 219.0 C 353.5 221.00961303710938 358.9903869628906 226.5 361.7595520019531 234.63755798339844" stroke-width="0.0" fill="rgb(1, 1, 1)" opacity="0.9924053"/>
    <path d="M 365.0379943847656 458.5985107421875 C 363.19171142578125 465.00103759765625 358.77978515625 471.3929138183594 351.7929382324219 472.0495910644531 C 344.3485412597656 470.0952453613281 338.7655029296875 464.6993408203125 336.41668701171875 457.54132080078125 C 338.0096130371094 450.5 343.5 445.0096130371094 350.303955078125 443.73809814453125 C 357.6415710449219 445.86981201171875 363.0857849121094 451.375244140625 365.0379943847656 458.5985107421875" stroke-width="0.0" fill="rgb(12, 12, 13)" opacity="0.9900203"/>
    <path d="M 289.9002380371094 121.1780014038086 C 286.9532165527344 129.44131469726562 281.4388732910156 134.9399871826172 273.7554931640625 137.2529296875 C 266.0485534667969 135.4528350830078 260.55072021484375 129.9503631591797 258.62841796875 121.96966552734375 C 260.4435119628906 113.8551254272461 265.7708435058594 108.19800567626953 274.6781311035156 106.06568145751953 C 282.37921142578125 108.10803985595703 287.8857116699219 113.62355041503906 289.9002380371094 121.1780014038086" stroke-width="0.0" fill="rgb(33, 40, 47)" opacity="1.0"/>
    <path d="M 260.0 160.0 C 257.9903869628906 167.5 252.5 172.99038696289062 245.1487579345703 174.87135314941406 C 237.9337615966797 172.60719299316406 232.46209716796875 167.04376220703125 229.09117126464844 159.20742797851562 C 231.13784790039062 151.67686462402344 236.72044372558594 146.26187133789062 244.52403259277344 144.52403259277344 C 252.5 147.00961303710938 257.9903869628906 152.5 260.0 160.0" stroke-width="0.0" fill="rgb(117, 126, 144)" opacity="0.99024296"/>
    <path d="M 402.9999694824219 300.99920654296875 C 400.9820556640625 308.4747314453125 395.3504333496094 313.63311767578125 388.8245544433594 315.0491943359375 C 381.3577575683594 313.0891418457031 375.78564453125 307.68572998046875 373.35150146484375 300.4216613769531 C 374.36663818359375 292.7625427246094 379.67816162109375 287.12078857421875 387.1690368652344 285.0752258300781 C 395.5757751464844 287.8117980957031 400.9954833984375 293.48486328125 402.9999694824219 300.99920654296875" stroke-width="0.0" fill="rgb(4, 4, 6)" opacity="0.99011236"/>
    <path d="M 348.5213928222656 189.12413024902344 C 346.94482421875 196.50721740722656 341.6221923828125 202.29122924804688 334.45794677734375 204.72225952148438 C 326.5037841796875 201.98822021484375 321.0191345214844 196.49412536621094 318.16412353515625 188.30665588378906 C 320.27655029296875 180.94175720214844 326.144287109375 175.80043029785156 333.9536437988281 173.98419189453125 C 341.43670654296875 176.04644775390625 346.783447265625 181.6163787841797 348.5213928222656 189.12413024902344" stroke-width="0.0" fill="rgb(2, 2, 2)" opacity="0.9923996"/>
    <path d="M 259.2029113769531 134.5652313232422 C 257.542724609375 142.22518920898438 252.3541717529297 147.91329956054688 244.56280517578125 150.46994018554688 C 236.7705078125 148.69325256347656 231.16732788085938 143.28048706054688 229.08236694335938 135.50347900390625 C 231.19064331054688 126.71621704101562 236.73016357421875 121.2301025390625 244.42662048339844 119.3737564086914 C 252.53427124023438 121.99429321289062 258.10247802734375 127.43592834472656 259.2029113769531 134.5652313232422" stroke-width="0.0" fill="rgb(156, 163, 171)" opacity="1.0"/>
    <path d="M 321.9195556640625 230.13710021972656 C 318.9909362792969 238.4988555908203 313.49609375 243.98143005371094 305.99713134765625 245.968505859375 C 298.503662109375 243.9832000732422 293.0105895996094 238.49813842773438 290.9804992675781 230.98779296875 C 292.9866027832031 223.4844512939453 298.4859619140625 217.99095153808594 306.82977294921875 215.12171936035156 C 314.4056396484375 217.0917205810547 319.9128112792969 222.5927276611328 321.9195556640625 230.13710021972656" stroke-width="0.0" fill="rgb(7, 9, 13)" opacity="1.0"/>
    <path d="M 221.27491760253906 189.50271606445312 C 219.66323852539062 197.86106872558594 215.13412475585938 203.7686309814453 206.3462677001953 205.93203735351562 C 198.7032470703125 203.8625030517578 193.7032012939453 198.17379760742188 192.85043334960938 190.4228515625 C 194.76156616210938 183.201904296875 200.17076110839844 177.6690673828125 207.43731689453125 175.38023376464844 C 214.91574096679688 176.67417907714844 220.5402069091797 182.01806640625 221.27491760253906 189.50271606445312" stroke-width="0.0" fill="rgb(123, 124, 137)" opacity="0.99008036"/>
    <path d="M 260.9549255371094 216.40206909179688 C 258.8908386230469 225.38014221191406 253.37884521484375 230.8880615234375 245.8196563720703 232.92161560058594 C 238.2999267578125 229.2619171142578 232.8889923095703 223.6580810546875 230.87196350097656 216.20504760742188 C 232.00961303710938 209.5 237.5 204.00961303710938 245.51133728027344 201.50094604492188 C 253.31195068359375 203.23049926757812 258.8926696777344 208.6434783935547 260.9549255371094 216.40206909179688" stroke-width="0.0" fill="rgb(5, 6, 9)" opacity="0.9900335"/>
    <path d="M 320.0 351.0 C 317.9903869628906 358.5 312.5 363.9903869628906 304.177734375 366.8813171386719 C 296.607177734375 364.8981018066406 291.0931091308594 359.3963623046875 289.08135986328125 351.8582458496094 C 292.0096435546875 343.5023193359375 297.5035400390625 338.01385498046875 305.0016174316406 336.0018615722656 C 312.5 338.0096130371094 317.9903869628906 343.5 320.0 351.0" stroke-width="0.0" fill="rgb(5, 5, 9)" opacity="1.0"/>
    <path d="M 363.8883972167969 230.7646484375 C 361.765380859375 238.12022399902344 355.9317932128906 243.2750244140625 348.0659484863281 245.03790283203125 C 340.5 242.99038696289062 335.0096130371094 237.5 333.0 230.0 C 335.0096130371094 222.5 340.5 217.00961303710938 348.0 215.0 C 355.5 217.00961303710938 360.989501953125 222.50025939941406 363.8883972167969 230.7646484375" stroke-width="0.0" fill="rgb(2, 2, 2)" opacity="1.0"/>
    <path d="M 330.2671203613281 99.35121154785156 C 328.6296691894531 107.17215728759766 323.2271728515625 112.78599548339844 315.5616455078125 114.813720703125 C 307.8288269042969 112.47921752929688 302.8187561035156 105.8331069946289 300.94677734375 99.39176177978516 C 302.8815612792969 92.3363265991211 308.3088684082031 86.79739379882812 315.70892333984375 83.14472961425781 C 322.9980773925781 85.32313537597656 328.1550598144531 91.20284271240234 330.2671203613281 99.35121154785156" stroke-width="0.0" fill="rgb(202, 204, 210)" opacity="0.9900157"/>
    <path d="M 253.919921875 298.4584045410156 C 251.81504821777344 307.276123046875 246.23228454589844 312.6735534667969 238.59495544433594 313.2173156738281 C 231.16412353515625 311.275634765625 225.6914825439453 305.8479919433594 223.75439453125 298.822265625 C 225.55615234375 291.9776306152344 230.96878051757812 286.5313720703125 238.7593994140625 283.2960510253906 C 246.3341827392578 285.15948486328125 251.86126708984375 290.6578369140625 253.919921875 298.4584045410156" stroke-width="0.0" fill="rgb(138, 137, 145)" opacity="0.99005306"/>
    <path d="M 462.0735778808594 334.8060607910156 C 460.857421875 341.4488525390625 455.48223876953125 346.9695129394531 448.252197265625 348.7687683105469 C 441.1813049316406 346.39910888671875 435.8464660644531 340.7368469238281 433.81622314453125 333.2702331542969 C 435.01202392578125 326.5006408691406 440.49725341796875 321.0001220703125 447.4743957519531 319.47967529296875 C 454.6859130859375 321.7968444824219 460.1021423339844 327.3488464355469 462.0735778808594 334.8060607910156" stroke-width="0.0" fill="rgb(17, 16, 22)" opacity="0.99005616"/>
    <path d="M 360.8111267089844 454.5186462402344 C 359.1092834472656 461.5721435546875 353.57073974609375 467.10479736328125 346.5365905761719 468.429931640625 C 338.9757995605469 466.3401794433594 332.72021484375 461.3065490722656 330.2873840332031 453.9004211425781 C 332.5179748535156 446.0996398925781 338.1606750488281 440.7057189941406 345.1280517578125 439.9305419921875 C 352.6259765625 441.9221496582031 358.1982116699219 447.3335266113281 360.8111267089844 454.5186462402344" stroke-width="0.0" fill="rgb(16, 17, 18)" opacity="0.9903381"/>
    <path d="M 365.7972412109375 205.29998779296875 C 362.9861755371094 213.4982452392578 357.4992980957031 218.9898681640625 349.9847717285156 221.00567626953125 C 342.2610168457031 219.10504150390625 336.3022766113281 213.98944091796875 334.0751037597656 206.58200073242188 C 336.4871826171875 198.21849060058594 342.4193115234375 193.0076904296875 349.83319091796875 191.5668487548828 C 358.057861328125 192.75953674316406 363.7978210449219 197.79425048828125 365.7972412109375 205.29998779296875" stroke-width="0.0" fill="rgb(3, 3, 4)" opacity="0.9902428"/>
    <path d="M 314.6429138183594 74.47530364990234 C 312.61676025390625 81.7629165649414 306.0978698730469 86.34383392333984 298.32672119140625 88.31526184082031 C 290.9554443359375 87.57352447509766 285.4144287109375 82.04825592041016 284.60430908203125 74.70832824707031 C 286.7542419433594 67.21037292480469 292.2131652832031 61.76177215576172 299.6818542480469 59.81782531738281 C 307.14617919921875 60.33816909790039 312.5679931640625 65.88146209716797 314.6429138183594 74.47530364990234" stroke-width="0.0" fill="rgb(156, 128, 109)" opacity="0.9900217"/>
    <path d="M 219.8547821044922 157.1675262451172 C 216.44436645507812 164.99752807617188 211.00714111328125 170.4749298095703 204.71896362304688 172.13729858398438 C 197.31321716308594 170.15426635742188 191.8692169189453 164.6769561767578 189.94931030273438 158.56324768066406 C 191.9052276611328 151.3711700439453 197.36709594726562 145.89547729492188 204.81832885742188 143.92506408691406 C 212.32742309570312 144.21336364746094 217.88333129882812 149.64144897460938 219.8547821044922 157.1675262451172" stroke-width="0.0" fill="rgb(48, 50, 57)" opacity="0.99001044"/>
    <path d="M 293.0521240234375 142.69537353515625 C 291.65875244140625 149.7480926513672 286.8938903808594 155.39100646972656 279.179443359375 157.171142578125 C 271.5 154.99038696289062 266.0100402832031 149.4998779296875 264.9046325683594 142.75802612304688 C 266.6078796386719 134.24940490722656 271.0169982910156 128.64378356933594 279.2878112792969 127.91075134277344 C 286.758056640625 128.59927368164062 291.2159423828125 134.9607696533203 293.0521240234375 142.69537353515625" stroke-width="0.0" fill="rgb(244, 245, 244)" opacity="0.9900105"/>
    <path d="M 428.0 304.0 C 425.9903869628906 311.5 420.5 316.9903869628906 412.2542419433594 319.79278564453125 C 404.634765625 317.86993408203125 399.1494140625 312.3587951660156 397.2875061035156 304.68621826171875 C 400.0096740722656 296.5000305175781 405.5000305175781 291.0096130371094 413.0 289.0 C 420.5 291.0096130371094 425.9903869628906 296.5 428.0 304.0" stroke-width="0.0" fill="rgb(0, 0, 1)" opacity="1.0"/>
    <path d="M 292.482177734375 325.3724365234375 C 290.7519226074219 333.3034362792969 285.3453063964844 338.87774658203125 277.80718994140625 340.8785095214844 C 269.503173828125 337.9918212890625 264.0218505859375 332.4928283691406 262.0268859863281 324.99371337890625 C 264.01031494140625 317.5002136230469 269.5000305175781 312.0096130371094 277.6268615722656 309.28228759765625 C 285.2032775878906 311.2327880859375 290.5314025878906 316.8723449707031 292.482177734375 325.3724365234375" stroke-width="0.0" fill="rgb(1, 1, 1)" opacity="1.0"/>
    <path d="M 327.5082092285156 37.02769470214844 C 325.20550537109375 44.684295654296875 319.67041015625 50.158111572265625 311.3843688964844 52.73606491088867 C 303.7785949707031 50.761932373046875 298.379150390625 45.179466247558594 297.8899841308594 37.66960144042969 C 299.79901123046875 30.249414443969727 305.23876953125 24.767297744750977 312.6693115234375 21.46586799621582 C 320.0197448730469 23.383686065673828 325.380859375 29.061595916748047 327.5082092285156 37.02769470214844" stroke-width="0.0" fill="rgb(200, 202, 208)" opacity="0.9900295"/>
    <path d="M 274.1325988769531 154.8250732421875 C 271.9134521484375 162.3800506591797 266.32208251953125 167.72874450683594 258.8418273925781 169.7645721435547 C 251.5015869140625 167.99009704589844 246.0354766845703 162.49119567871094 244.0531463623047 154.90399169921875 C 245.970703125 147.54693603515625 251.63632202148438 142.26080322265625 258.76739501953125 140.8022918701172 C 266.93841552734375 141.64016723632812 272.3935852050781 147.05775451660156 274.1325988769531 154.8250732421875" stroke-width="0.0" fill="rgb(151, 178, 195)" opacity="0.99019724"/>
    <path d="M 354.9967956542969 266.00091552734375 C 352.9903869628906 273.5 347.5 278.9903869628906 340.008056640625 280.9950256347656 C 332.5389099121094 278.9589538574219 326.8327331542969 273.5248718261719 324.38458251953125 265.5773620605469 C 326.2217712402344 257.7362365722656 331.74090576171875 252.23561096191406 339.4295654296875 250.3740997314453 C 347.5 253.00961303710938 352.9902648925781 258.5000305175781 354.9967956542969 266.00091552734375" stroke-width="0.0" fill="rgb(2, 2, 2)" opacity="0.9900555"/>
    <path d="M 364.9105224609375 253.5167999267578 C 362.8464660644531 261.3116455078125 357.2805480957031 266.7607116699219 349.53887939453125 268.57562255859375 C 341.4940185546875 265.9940490722656 336.0199890136719 260.5025634765625 334.60235595703125 252.8937530517578 C 336.025390625 245.50375366210938 341.49957275390625 240.00975036621094 349.5054016113281 237.49441528320312 C 357.2787170410156 239.2479705810547 362.83428955078125 244.693603515625 364.9105224609375 253.5167999267578" stroke-width="0.0" fill="rgb(5, 2, 4)" opacity="0.9900734"/>
    <path d="M 302.4441223144531 240.4838409423828 C 300.7442932128906 248.2809600830078 295.3215637207031 253.85977172851562 286.8536376953125 255.93978881835938 C 278.66033935546875 253.86846923828125 273.18194580078125 248.31944274902344 271.07366943359375 239.27601623535156 C 273.1440734863281 231.71533203125 278.81597900390625 226.43472290039062 286.7539367675781 224.92385864257812 C 294.4580078125 227.06533813476562 299.9478454589844 232.53814697265625 302.4441223144531 240.4838409423828" stroke-width="0.0" fill="rgb(3, 3, 2)" opacity="0.9900455"/>
    <path d="M 327.85809326171875 342.00933837890625 C 325.98590087890625 349.5010681152344 320.5028076171875 354.9925842285156 313.0098571777344 356.99151611328125 C 305.5345458984375 354.9605407714844 300.0660705566406 349.4575500488281 298.10504150390625 341.9898681640625 C 300.0357666015625 334.51666259765625 305.5113220214844 329.0175476074219 312.9985046386719 327.00567626953125 C 320.4942932128906 329.015869140625 325.9702453613281 334.50958251953125 327.85809326171875 342.00933837890625" stroke-width="0.0" fill="rgb(29, 29, 34)" opacity="0.99203163"/>
    <path d="M 265.4294738769531 171.43179321289062 C 263.4148254394531 179.00799560546875 258.0629577636719 184.58123779296875 250.9782257080078 186.59642028808594 C 243.6855010986328 184.7386016845703 238.1420135498047 179.35150146484375 235.3756103515625 171.544921875 C 237.54696655273438 164.52655029296875 243.9744873046875 159.69276428222656 250.9863739013672 157.90585327148438 C 257.911376953125 159.73397827148438 264.1901550292969 164.87091064453125 265.4294738769531 171.43179321289062" stroke-width="0.0" fill="rgb(2, 2, 2)" opacity="0.9900322"/>
    <path d="M 230.7433319091797 239.10289001464844 C 228.97891235351562 246.5675811767578 223.67535400390625 252.31138610839844 215.70904541015625 254.6896209716797 C 207.88504028320312 252.62252807617188 202.3074188232422 247.14102172851562 201.5709686279297 239.49578857421875 C 203.06942749023438 231.51461791992188 208.5163116455078 226.0772247314453 216.07562255859375 224.8272247314453 C 223.53526306152344 225.9600830078125 228.83154296875 231.5353240966797 230.7433319091797 239.10289001464844" stroke-width="0.0" fill="rgb(205, 205, 209)" opacity="1.0"/>
    <path d="M 337.5351867675781 296.5583190917969 C 335.3058166503906 303.8773498535156 330.25543212890625 310.7016906738281 323.7835693359375 312.9007873535156 C 315.45623779296875 309.884521484375 309.42669677734375 304.8206481933594 307.05914306640625 296.20477294921875 C 309.08941650390625 288.5940856933594 314.5935363769531 283.0878601074219 322.1321716308594 281.0741882324219 C 330.47552490234375 284.0394287109375 335.9622497558594 289.5240173339844 337.5351867675781 296.5583190917969" stroke-width="0.0" fill="rgb(10, 10, 20)" opacity="0.9901594"/>
    <path d="M 249.9619903564453 202.02737426757812 C 247.99038696289062 209.5 242.5 214.99038696289062 234.88357543945312 217.0911102294922 C 227.10133361816406 215.32550048828125 221.4829864501953 209.95816040039062 219.61875915527344 202.32156372070312 C 222.01318359375 194.50392150878906 227.50416564941406 189.01385498046875 234.96524047851562 187.04002380371094 C 242.43829345703125 189.08248901367188 247.9265899658203 194.55899047851562 249.9619903564453 202.02737426757812" stroke-width="0.0" fill="rgb(5, 6, 8)" opacity="1.0"/>
    <path d="M 282.4567565917969 310.2176513671875 C 280.1224365234375 317.5452575683594 274.5044860839844 322.9870910644531 266.3442687988281 325.6761169433594 C 258.6541748046875 323.835693359375 253.13345336914062 318.35614013671875 251.07958984375 309.7764587402344 C 253.16946411132812 301.7150573730469 258.7547607421875 296.2774353027344 266.51800537109375 294.491943359375 C 274.5 297.0096130371094 279.9903869628906 302.5 282.4567565917969 310.2176513671875" stroke-width="0.0" fill="rgb(9, 10, 10)" opacity="0.99007547"/>
    <path d="M 267.23040771484375 105.99824523925781 C 265.04522705078125 113.52613830566406 259.5118103027344 118.996337890625 251.97640991210938 121.01692962646484 C 244.35720825195312 119.089599609375 238.75592041015625 113.6907730102539 236.61412048339844 106.20977020263672 C 239.2888641357422 98.79086303710938 244.7996063232422 93.31661224365234 252.3275604248047 90.6751480102539 C 259.621337890625 92.76786804199219 265.06109619140625 98.43476867675781 267.23040771484375 105.99824523925781" stroke-width="0.0" fill="rgb(205, 207, 210)" opacity="0.99035347"/>
    <path d="M 379.9505920410156 276.0050964355469 C 377.8767395019531 284.3272705078125 372.2553405761719 289.6528015136719 364.2314147949219 290.7330627441406 C 356.5003356933594 288.9747619628906 351.0009460449219 283.50665283203125 348.78936767578125 275.7540283203125 C 350.4505920410156 267.8646545410156 355.7742919921875 262.1952819824219 364.6365661621094 260.0638122558594 C 372.3921203613281 262.10076904296875 377.8981018066406 267.60833740234375 379.9505920410156 276.0050964355469" stroke-width="0.0" fill="rgb(61, 63, 68)" opacity="1.0"/>
    <path d="M 214.94802856445312 224.4226531982422 C 212.88217163085938 232.36215209960938 207.35964965820312 237.87681579589844 198.5072479248047 239.95516967773438 C 190.6060028076172 237.90151977539062 185.10000610351562 232.39349365234375 183.11944580078125 224.8379669189453 C 186.30418395996094 216.70025634765625 191.6403350830078 211.11373901367188 199.16055297851562 208.91004943847656 C 207.08584594726562 210.55673217773438 212.830078125 215.7711944580078 214.94802856445312 224.4226531982422" stroke-width="0.0" fill="rgb(2, 2, 2)" opacity="1.0"/>
    <path d="M 290.962158203125 299.48248291015625 C 288.9153137207031 307.3972473144531 283.37432861328125 312.8515319824219 275.6666564941406 314.6763610839844 C 267.50677490234375 311.9872131347656 262.0307922363281 306.4880065917969 259.0991516113281 298.1628112792969 C 261.1011047363281 290.60809326171875 266.6079406738281 285.1007995605469 275.22601318359375 283.0457763671875 C 283.39398193359375 285.0982666015625 288.9085998535156 290.60296630859375 290.962158203125 299.48248291015625" stroke-width="0.0" fill="rgb(2, 2, 4)" opacity="1.0"/>
    <path d="M 289.9661560058594 157.67459106445312 C 288.13653564453125 165.58106994628906 282.50018310546875 170.8770751953125 274.5477600097656 173.50181579589844 C 267.0016784667969 171.5580291748047 261.4967956542969 165.97930908203125 260.578369140625 158.5458526611328 C 262.5492248535156 150.84173583984375 267.3534851074219 144.46112060546875 274.4848937988281 142.20355224609375 C 283.1988830566406 144.33609008789062 288.6733703613281 149.79917907714844 289.9661560058594 157.67459106445312" stroke-width="0.0" fill="rgb(77, 86, 103)" opacity="0.9901817"/>
    <path d="M 330.1012878417969 361.8252868652344 C 329.8807373046875 369.3843994140625 324.3952941894531 374.9093322753906 316.463134765625 376.9607849121094 C 307.6168518066406 374.8985900878906 302.12152099609375 369.3751525878906 300.17181396484375 361.7741394042969 C 303.0427551269531 353.5202331542969 308.51312255859375 348.0185852050781 316.5126647949219 345.47406005859375 C 324.2179870605469 347.2647399902344 328.790283203125 352.8785705566406 330.1012878417969 361.8252868652344" stroke-width="0.0" fill="rgb(25, 26, 30)" opacity="1.0"/>
    <path d="M 313.5870056152344 4.79327392578125 C 311.24945068359375 12.637106895446777 305.4944763183594 17.81773567199707 297.8540344238281 19.759925842285156 C 290.48370361328125 18.005029678344727 284.9716491699219 12.5231294631958 282.8463134765625 4.964453220367432 C 284.9247741699219 -2.5430266857147217 290.479248046875 -8.000697135925293 298.0020751953125 -10.002504348754883 C 305.56402587890625 -8.018813133239746 311.3048095703125 -2.659742593765259 313.5870056152344 4.79327392578125" stroke-width="0.0" fill="rgb(189, 191, 196)" opacity="1.0"/>
    <path d="M 268.4156188964844 118.7281265258789 C 266.3976745605469 126.96269226074219 261.0148010253906 132.56619262695312 253.2220916748047 133.58204650878906 C 244.91017150878906 132.5746612548828 239.36659240722656 127.10755157470703 238.88734436035156 119.79080963134766 C 240.8623809814453 112.32272338867188 246.31942749023438 106.85411071777344 253.65127563476562 104.90337371826172 C 260.8077697753906 106.32475280761719 266.5665283203125 111.00606536865234 268.4156188964844 118.7281265258789" stroke-width="0.0" fill="rgb(54, 58, 72)" opacity="0.9900513"/>
    <path d="M 431.274658203125 305.54345703125 C 429.9854736328125 312.50750732421875 424.5120849609375 318.0027160644531 417.0043029785156 320.0047912597656 C 409.5000915527344 317.9903259277344 404.009765625 312.4998779296875 402.0005187988281 305.0000305175781 C 404.00982666015625 297.5001525878906 409.5001220703125 292.0097351074219 416.9013671875 290.0652160644531 C 424.05413818359375 292.34490966796875 429.3116149902344 298.0610046386719 431.274658203125 305.54345703125" stroke-width="0.0" fill="rgb(3, 4, 4)" opacity="0.99082327"/>
    <path d="M 356.3652038574219 273.7206726074219 C 354.5907287597656 281.2355041503906 349.3741455078125 287.0632629394531 342.0104064941406 289.44622802734375 C 334.43572998046875 287.13031005859375 329.1170349121094 281.4898376464844 327.7080383300781 273.712890625 C 328.90557861328125 266.4386291503906 334.45849609375 260.9722595214844 341.9906311035156 258.9794006347656 C 349.5205078125 260.9927673339844 354.95611572265625 266.4929504394531 356.3652038574219 273.7206726074219" stroke-width="0.0" fill="rgb(4, 3, 4)" opacity="0.9904816"/>
    <path d="M 372.6515197753906 173.1205291748047 C 370.9537658691406 180.52850341796875 365.5902404785156 186.15673828125 358.1304016113281 188.1471405029297 C 350.4784240722656 185.97230529785156 344.89947509765625 180.56016540527344 342.7839660644531 172.93348693847656 C 344.84613037109375 165.4088134765625 350.4539489746094 159.9943389892578 357.80615234375 158.39730834960938 C 365.25421142578125 160.31080627441406 370.7391357421875 165.72964477539062 372.6515197753906 173.1205291748047" stroke-width="0.0" fill="rgb(44, 45, 53)" opacity="0.9904527"/>
    <path d="M 352.9570007324219 134.1884765625 C 350.9054870605469 142.3999786376953 345.4035339355469 147.9137420654297 337.3055419921875 149.96368408203125 C 328.5920104980469 147.91552734375 323.08978271484375 142.40577697753906 321.0473327636719 134.4803466796875 C 323.1087646484375 125.6222152709961 328.6226501464844 120.10978698730469 336.5394287109375 118.05267333984375 C 345.3730163574219 120.11808776855469 350.8923645019531 125.62262725830078 352.9570007324219 134.1884765625" stroke-width="0.0" fill="rgb(21, 23, 30)" opacity="1.0"/>
    <path d="M 253.84751892089844 206.30874633789062 C 250.9889678955078 214.49884033203125 245.49832153320312 219.98709106445312 238.476806640625 221.4876251220703 C 231.1521759033203 219.28602600097656 224.67941284179688 213.99082946777344 222.2397003173828 207.54107666015625 C 225.00306701660156 199.49468994140625 230.49481201171875 194.00350952148438 238.00497436523438 192.02413940429688 C 245.7659149169922 193.88121032714844 251.6856231689453 199.00799560546875 253.84751892089844 206.30874633789062" stroke-width="0.0" fill="rgb(5, 6, 8)" opacity="0.99023557"/>
    <path d="M 289.8963623046875 55.222320556640625 C 286.84393310546875 63.231014251708984 281.1076965332031 68.46015930175781 273.4406433105469 70.3467788696289 C 265.96063232421875 69.58409118652344 261.3801574707031 63.86783981323242 259.93682861328125 56.440025329589844 C 261.6999816894531 48.841773986816406 266.1864929199219 42.48258590698242 274.5673522949219 40.633201599121094 C 282.271728515625 42.217098236083984 287.82159423828125 47.71329116821289 289.8963623046875 55.222320556640625" stroke-width="0.0" fill="rgb(10, 11, 16)" opacity="0.9900145"/>
    <path d="M 194.95358276367188 247.41099548339844 C 192.88604736328125 255.36349487304688 187.35064697265625 260.853759765625 179.18301391601562 262.8966979980469 C 171.5438995361328 260.68963623046875 166.8252410888672 253.8320770263672 164.9368896484375 247.06800842285156 C 166.86785888671875 240.33489990234375 172.3361053466797 234.87075805664062 179.87741088867188 232.6083221435547 C 187.3694610595703 233.1219940185547 192.88339233398438 238.62850952148438 194.95358276367188 247.41099548339844" stroke-width="0.0" fill="rgb(65, 65, 70)" opacity="0.9900397"/>
  </g>
</svg>
