<?xml version="1.0" ?>
<svg xmlns="http://www.w3.org/2000/svg" version="1.1" width="600" height="600">
  <defs/>
  <g>
    <path d="M 338.6993713378906 281.5726013183594 C 336.69769287109375 289.0993957519531 330.9929504394531 294.3792724609375 323.1270446777344 296.0901794433594 C 315.5 293.9903869628906 310.0096130371094 288.5 307.13189697265625 280.2651672363281 C 309.2528076171875 272.9168395996094 315.1288146972656 267.790283203125 322.9585876464844 265.9790344238281 C 330.5 268.0096130371094 335.9903869628906 273.5 338.6993713378906 281.5726013183594" stroke-width="0.0" fill="rgb(12, 35, 68)" opacity="1.0"/>
    <path d="M 292.1979675292969 423.8228454589844 C 289.9966735839844 431.472900390625 284.46661376953125 436.96728515625 276.9945068359375 438.996337890625 C 269.5 436.9903869628906 264.0096130371094 431.5 261.99261474609375 423.9864196777344 C 263.9383239746094 416.3740539550781 269.28607177734375 410.6692199707031 276.77093505859375 409.6186218261719 C 284.8279113769531 410.75286865234375 290.57501220703125 416.0561218261719 292.1979675292969 423.8228454589844" stroke-width="0.0" fill="rgb(243, 247, 248)" opacity="1.0"/>
    <path d="M 321.0198059082031 252.0386199951172 C 319.1943054199219 259.8470153808594 314.05328369140625 265.72222900390625 305.5857849121094 267.90667724609375 C 297.6465759277344 265.8607177734375 292.1437683105469 260.3520812988281 290.2283020019531 252.72109985351562 C 293.0096130371094 244.5 298.5 239.00961303710938 306.0 237.0 C 313.5 239.00961303710938 318.9903869628906 244.5 321.0198059082031 252.0386199951172" stroke-width="0.0" fill="rgb(6, 3, 13)" opacity="0.99010086"/>
    <path d="M 313.7672119140625 97.50550079345703 C 311.1118469238281 105.54261779785156 305.50714111328125 110.99272918701172 297.84783935546875 113.15170288085938 C 290.1462707519531 111.34210205078125 284.6671447753906 105.85137939453125 282.894287109375 98.12876892089844 C 284.9592590332031 90.39322662353516 290.2847595214844 84.63850402832031 298.5860900878906 82.22412109375 C 306.2569274902344 84.20687103271484 311.7354431152344 89.76470947265625 313.7672119140625 97.50550079345703" stroke-width="0.0" fill="rgb(250, 252, 67)" opacity="1.0"/>
    <path d="M 307.0 199.0 C 304.9903869628906 206.5 299.5 211.99038696289062 292.0 214.0 C 284.5 211.99038696289062 279.0096130371094 206.5 277.0 199.0 C 279.0096130371094 191.5 284.5 186.00961303710938 292.0 184.0 C 299.5 186.00961303710938 304.9903869628906 191.5 307.0 199.0" stroke-width="0.0" fill="rgb(118, 164, 179)" opacity="1.0"/>
    <path d="M 330.0 127.0 C 327.9903869628906 134.5 322.5 139.99038696289062 315.0 142.0 C 307.49993896484375 139.9904022216797 302.005615234375 134.5011444091797 300.1004333496094 127.08098602294922 C 302.0151062011719 119.50155639648438 307.50006103515625 114.0096435546875 315.0 112.0 C 322.5 114.0096206665039 327.9903869628906 119.5 330.0 127.0" stroke-width="0.0" fill="rgb(19, 55, 94)" opacity="0.99676114"/>
    <path d="M 341.3261413574219 56.6436767578125 C 339.9903869628906 63.5 334.5 68.9903793334961 326.2017822265625 71.90155792236328 C 318.797119140625 69.81653594970703 313.61114501953125 64.04317474365234 311.1522216796875 55.26352310180664 C 313.19049072265625 47.836490631103516 319.3566589355469 43.63131332397461 326.20758056640625 41.945194244384766 C 333.6350402832031 43.90793991088867 339.15277099609375 49.34248733520508 341.3261413574219 56.6436767578125" stroke-width="0.0" fill="rgb(6, 14, 50)" opacity="0.99001545"/>
    <path d="M 356.0 229.0 C 353.9903869628906 236.5 348.5 241.99038696289062 340.8373107910156 244.12335205078125 C 332.9573059082031 242.43760681152344 327.25994873046875 237.14602661132812 325.1192626953125 228.906494140625 C 327.2001953125 220.70359802246094 332.68017578125 215.143798828125 340.205322265625 213.1265411376953 C 348.4986877441406 216.014404296875 353.9903869628906 221.50003051757812 356.0 229.0" stroke-width="0.0" fill="rgb(217, 166, 18)" opacity="1.0"/>
    <path d="M 325.05682373046875 139.0541534423828 C 323.131591796875 146.63531494140625 317.6304626464844 152.1155242919922 309.233154296875 154.89512634277344 C 301.9137268066406 152.7549591064453 296.7958984375 146.8634490966797 294.97869873046875 139.0398406982422 C 297.00848388671875 131.4995574951172 302.5005187988281 126.01168060302734 310.0013732910156 124.00241088867188 C 317.5 126.0096206665039 322.9903869628906 131.5 325.05682373046875 139.0541534423828" stroke-width="0.0" fill="rgb(13, 31, 59)" opacity="0.9902033"/>
    <path d="M 353.0693054199219 65.12602233886719 C 351.22430419921875 72.01854705810547 347.0669250488281 78.8062973022461 338.3150634765625 80.95423889160156 C 330.6167297363281 78.90161895751953 325.15093994140625 73.36421203613281 323.3250732421875 65.65953063964844 C 325.8434753417969 57.12693786621094 330.945068359375 51.30032730102539 338.17352294921875 50.48939514160156 C 345.7077941894531 52.835567474365234 351.156494140625 58.2957878112793 353.0693054199219 65.12602233886719" stroke-width="0.0" fill="rgb(51, 84, 115)" opacity="0.99002695"/>
    <path d="M 400.9592590332031 186.1600341796875 C 398.9080810546875 194.40130615234375 393.4022216796875 199.91017150878906 384.7009582519531 201.9577178955078 C 376.5940246582031 199.91273498535156 371.0845031738281 194.40711975097656 369.0343322753906 185.96786499023438 C 371.082275390625 177.59091186523438 376.5940856933594 172.0896759033203 384.504150390625 170.04104614257812 C 393.387451171875 172.1011505126953 398.90185546875 177.61126708984375 400.9592590332031 186.1600341796875" stroke-width="0.0" fill="rgb(1, 1, 5)" opacity="1.0"/>
    <path d="M 355.1430969238281 268.7655334472656 C 353.9903869628906 275.5 348.5 280.9903869628906 341.0 283.0 C 333.5 280.9903869628906 328.0096130371094 275.5 326.0 268.0 C 328.0096130371094 260.5 333.5 255.00961303710938 340.5397033691406 253.44985961914062 C 347.73529052734375 255.74591064453125 353.1368713378906 261.30517578125 355.1430969238281 268.7655334472656" stroke-width="0.0" fill="rgb(14, 30, 45)" opacity="0.99007875"/>
    <path d="M 333.1481018066406 192.79281616210938 C 330.9903869628906 200.5 325.5 205.99038696289062 318.0 208.0 C 310.5 205.99038696289062 305.0096130371094 200.5 303.0000305175781 193.00010681152344 C 305.0112609863281 185.50485229492188 310.5235595703125 180.076171875 318.7458190917969 177.17808532714844 C 326.248291015625 179.1774139404297 331.5316162109375 184.8493194580078 333.1481018066406 192.79281616210938" stroke-width="0.0" fill="rgb(2, 15, 24)" opacity="0.9916143"/>
    <path d="M 384.01104736328125 243.98080444335938 C 381.9853515625 251.49249267578125 376.4892578125 256.9744873046875 369.046630859375 258.8650817871094 C 361.52215576171875 256.9391174316406 356.0186462402344 251.48980712890625 354.00311279296875 243.99700927734375 C 356.0096130371094 236.5 361.5 231.00961303710938 369.1325988769531 228.8040313720703 C 376.6607360839844 230.77940368652344 382.0664367675781 236.38710021972656 384.01104736328125 243.98080444335938" stroke-width="0.0" fill="rgb(212, 213, 217)" opacity="0.9944742"/>
    <path d="M 329.052978515625 505.1265563964844 C 327.07501220703125 512.604248046875 321.6056213378906 518.0777587890625 315.4461975097656 520.0313720703125 C 308.4049987792969 518.0662841796875 302.927490234375 512.5977172851562 300.9627380371094 505.23529052734375 C 302.5666809082031 497.8128662109375 306.6714172363281 492.12274169921875 315.0859375 490.06915283203125 C 323.383544921875 492.10406494140625 328.8531494140625 497.6307373046875 329.052978515625 505.1265563964844" stroke-width="0.0" fill="rgb(18, 15, 14)" opacity="0.99000573"/>
    <path d="M 385.9999694824219 292.99993896484375 C 383.98974609375 300.49822998046875 378.492431640625 305.9691467285156 371.01708984375 307.81451416015625 C 363.5110168457031 305.95068359375 357.895751953125 300.5353698730469 355.6679992675781 293.10546875 C 358.009033203125 285.4998474121094 363.5 280.0096130371094 371.0 278.0 C 378.5 280.0096130371094 383.9903869628906 285.5 385.9999694824219 292.99993896484375" stroke-width="0.0" fill="rgb(217, 218, 222)" opacity="0.9910628"/>
    <path d="M 247.73501586914062 91.89550018310547 C 245.68885803222656 100.15650177001953 240.11874389648438 105.5661392211914 232.27993774414062 107.24777221679688 C 224.5 104.9903793334961 219.00961303710938 99.5 217.0 92.0 C 219.00955200195312 84.49976348876953 224.49661254882812 78.99798583984375 232.80752563476562 76.09764099121094 C 240.2942657470703 78.14791870117188 245.7045135498047 83.76513671875 247.73501586914062 91.89550018310547" stroke-width="0.0" fill="rgb(31, 51, 76)" opacity="1.0"/>
    <path d="M 357.5699768066406 245.52224731445312 C 355.7315979003906 253.22079467773438 350.20599365234375 258.68194580078125 342.2696838378906 260.2681884765625 C 334.0324401855469 258.4128112792969 328.45147705078125 253.00930786132812 326.23309326171875 244.54733276367188 C 328.3389587402344 236.9571075439453 334.078369140625 231.6920166015625 341.90570068359375 229.93458557128906 C 349.5 232.00961303710938 354.9903869628906 237.5 357.5699768066406 245.52224731445312" stroke-width="0.0" fill="rgb(204, 156, 11)" opacity="1.0"/>
    <path d="M 299.8667907714844 21.33420181274414 C 297.755126953125 30.194034576416016 292.14544677734375 35.620269775390625 283.5009765625 37.74814224243164 C 275.9313659667969 35.6561393737793 270.3582458496094 30.062536239624023 268.174072265625 21.732662200927734 C 270.22943115234375 13.746482849121094 275.73974609375 8.212449073791504 283.7109680175781 6.3186798095703125 C 292.28216552734375 8.231807708740234 297.857177734375 13.68289852142334 299.8667907714844 21.33420181274414" stroke-width="0.0" fill="rgb(233, 197, 195)" opacity="1.0"/>
    <path d="M 314.15118408203125 206.18629455566406 C 312.453369140625 214.02806091308594 307.0867919921875 219.6417236328125 298.1740417480469 221.9217987060547 C 290.62060546875 219.89857482910156 285.1603088378906 214.35836791992188 283.332275390625 206.65255737304688 C 286.0096130371094 198.5 291.5 193.00961303710938 299.0 191.0 C 306.5 193.00961303710938 311.9903869628906 198.5 314.15118408203125 206.18629455566406" stroke-width="0.0" fill="rgb(23, 54, 78)" opacity="1.0"/>
    <path d="M 372.9639587402344 170.8737335205078 C 370.90911865234375 179.39097595214844 365.3637390136719 184.82070922851562 357.7629699707031 185.06466674804688 C 349.0641174316406 183.28118896484375 343.1257629394531 179.28651428222656 341.0431823730469 171.2584228515625 C 343.1076965332031 162.619140625 348.6169128417969 157.1024932861328 357.4251708984375 155.0384521484375 C 365.40679931640625 157.08534240722656 370.9156188964844 162.5927734375 372.9639587402344 170.8737335205078" stroke-width="0.0" fill="rgb(13, 13, 14)" opacity="0.9900228"/>
    <path d="M 263.36932373046875 445.42462158203125 C 261.7381896972656 453.30694580078125 256.3630676269531 458.9014587402344 248.86972045898438 460.9311218261719 C 240.5 457.9903869628906 235.00961303710938 452.5 232.14430236816406 444.28570556640625 C 234.2669677734375 436.91058349609375 240.08428955078125 431.7359924316406 247.96359252929688 429.9312744140625 C 255.55308532714844 431.9430847167969 261.0248718261719 437.4565734863281 263.36932373046875 445.42462158203125" stroke-width="0.0" fill="rgb(0, 0, 1)" opacity="1.0"/>
    <path d="M 332.85540771484375 207.8019256591797 C 330.8943176269531 215.3936767578125 325.4000549316406 220.910400390625 317.67730712890625 222.9547119140625 C 308.68536376953125 220.86143493652344 303.2970275878906 215.2592010498047 301.61260986328125 207.41262817382812 C 304.0096130371094 199.5 309.5 194.00961303710938 317.0 192.0 C 324.5 194.00961303710938 329.9903869628906 199.5 332.85540771484375 207.8019256591797" stroke-width="0.0" fill="rgb(8, 31, 56)" opacity="1.0"/>
    <path d="M 285.40350341796875 308.2232971191406 C 283.44000244140625 315.84942626953125 277.7677917480469 321.1842956542969 269.6936950683594 323.524169921875 C 262.26416015625 321.38726806640625 256.94842529296875 315.6212463378906 254.8134765625 307.7648010253906 C 256.4355773925781 299.83209228515625 261.7428283691406 294.1727294921875 269.56390380859375 292.0791015625 C 278.14849853515625 294.23175048828125 283.3530578613281 300.001220703125 285.40350341796875 308.2232971191406" stroke-width="0.0" fill="rgb(22, 51, 85)" opacity="1.0"/>
    <path d="M 430.8623046875 220.4281768798828 C 428.780517578125 229.26910400390625 423.27203369140625 234.7882843017578 415.631103515625 236.71209716796875 C 407.5 233.99038696289062 402.0096130371094 228.5 399.35247802734375 220.42494201660156 C 401.24005126953125 212.74591064453125 406.7417297363281 207.22909545898438 414.55474853515625 205.30076599121094 C 423.2059020996094 207.34402465820312 428.8096008300781 212.74136352539062 430.8623046875 220.4281768798828" stroke-width="0.0" fill="rgb(231, 185, 21)" opacity="1.0"/>
    <path d="M 263.37554931640625 208.97091674804688 C 261.5351867675781 217.1060791015625 256.1906433105469 222.7725830078125 248.6215057373047 224.87899780273438 C 240.2301483154297 222.54830932617188 235.73794555664062 216.0665283203125 233.95152282714844 209.1845245361328 C 235.7649688720703 202.01173400878906 240.5470428466797 195.72874450683594 248.52903747558594 193.32249450683594 C 256.1947021484375 195.25726318359375 261.56939697265625 200.85986328125 263.37554931640625 208.97091674804688" stroke-width="0.0" fill="rgb(19, 27, 39)" opacity="0.99002403"/>
    <path d="M 294.830810546875 274.2349548339844 C 291.99591064453125 282.51611328125 286.5801086425781 288.19793701171875 278.21783447265625 290.90631103515625 C 270.6573791503906 288.8682861328125 265.1883544921875 283.32171630859375 263.3326110839844 275.6174011230469 C 265.7598571777344 267.091064453125 270.881103515625 261.2272644042969 279.74713134765625 259.0481262207031 C 287.38775634765625 261.0943908691406 292.87286376953125 266.6256408691406 294.830810546875 274.2349548339844" stroke-width="0.0" fill="rgb(14, 42, 78)" opacity="1.0"/>
    <path d="M 279.2894592285156 443.35870361328125 C 277.17486572265625 450.69384765625 271.67755126953125 456.13189697265625 264.1919860839844 458.0973205566406 C 256.8203430175781 457.738037109375 251.58328247070312 452.09185791015625 250.45420837402344 443.9203796386719 C 251.6269073486328 436.0555114746094 257.0136413574219 430.4826965332031 264.7008361816406 428.66644287109375 C 272.5 431.0096130371094 277.9903869628906 436.5 279.2894592285156 443.35870361328125" stroke-width="0.0" fill="rgb(57, 61, 76)" opacity="0.990031"/>
    <path d="M 310.00238037109375 347.0060119628906 C 308.0462646484375 354.6328125 302.849365234375 360.578857421875 294.1700439453125 362.9500732421875 C 286.5928955078125 360.9143371582031 281.09234619140625 355.4045104980469 279.1158142089844 347.8334045410156 C 282.0096130371094 339.5 287.5 334.0096130371094 295.0 332.0 C 302.5 334.0096130371094 307.9903869628906 339.5 310.00238037109375 347.0060119628906" stroke-width="0.0" fill="rgb(0, 0, 0)" opacity="1.0"/>
    <path d="M 362.4090576171875 226.46994018554688 C 360.9903869628906 233.5 355.5 238.99041748046875 348.00897216796875 240.9907684326172 C 340.5297546386719 238.9654083251953 335.0611572265625 233.46241760253906 332.85833740234375 225.78123474121094 C 334.5296630859375 217.94017028808594 339.8397216796875 212.2467498779297 347.23504638671875 211.51156616210938 C 354.84552001953125 213.72169494628906 360.3331604003906 219.13438415527344 362.4090576171875 226.46994018554688" stroke-width="0.0" fill="rgb(214, 145, 18)" opacity="0.9900537"/>
    <path d="M 333.03363037109375 405.77825927734375 C 331.08612060546875 412.62249755859375 325.6399841308594 418.1373291015625 318.14349365234375 421.9089050292969 C 310.6293029785156 419.8902893066406 305.1712951660156 414.3492126464844 303.3465881347656 406.5970764160156 C 305.5107421875 397.87884521484375 310.760986328125 392.17376708984375 319.6240539550781 390.0509948730469 C 327.1280212402344 392.1474914550781 331.1175842285156 399.1810302734375 333.03363037109375 405.77825927734375" stroke-width="0.0" fill="rgb(2, 4, 8)" opacity="0.9900117"/>
    <path d="M 307.07489013671875 241.10360717773438 C 305.32403564453125 248.93299865722656 300.0538635253906 254.67234802246094 291.6163330078125 256.87646484375 C 283.72723388671875 254.80010986328125 278.2464599609375 249.2564239501953 276.3863220214844 241.5056610107422 C 278.57086181640625 232.95504760742188 283.8372802734375 227.2356414794922 291.313720703125 225.14659118652344 C 299.5242919921875 227.9381866455078 304.99176025390625 233.49588012695312 307.07489013671875 241.10360717773438" stroke-width="0.0" fill="rgb(228, 171, 15)" opacity="0.9906885"/>
    <path d="M 285.4712219238281 204.49673461914062 C 283.76763916015625 212.31307983398438 278.3555908203125 217.8894500732422 270.8094482421875 219.93231201171875 C 261.7710876464844 217.78265380859375 256.4331359863281 212.16175842285156 254.39312744140625 203.50201416015625 C 256.21380615234375 195.68772888183594 261.6533508300781 190.12062072753906 269.3011169433594 188.05706787109375 C 277.93341064453125 190.3447265625 283.0755615234375 196.3105010986328 285.4712219238281 204.49673461914062" stroke-width="0.0" fill="rgb(16, 18, 28)" opacity="0.99014914"/>
    <path d="M 315.64959716796875 401.3980712890625 C 313.46923828125 410.11102294921875 308.2463684082031 415.8404846191406 300.56292724609375 417.9411926269531 C 291.8518371582031 415.8079528808594 287.8150939941406 409.1034240722656 285.957763671875 401.2889404296875 C 286.5574035644531 393.7295227050781 291.64837646484375 388.10919189453125 300.4614562988281 386.0439758300781 C 308.3789367675781 388.0999450683594 313.8315124511719 393.6453857421875 315.64959716796875 401.3980712890625" stroke-width="0.0" fill="rgb(5, 6, 7)" opacity="0.99003726"/>
    <path d="M 319.9149475097656 186.0675506591797 C 317.9903869628906 193.5 312.5 198.99038696289062 305.0 201.0 C 297.5 198.99038696289062 292.0096130371094 193.5 289.967529296875 185.94857788085938 C 291.7822265625 178.1422119140625 296.9373474121094 172.26876831054688 304.3540344238281 170.07810974121094 C 312.6668701171875 172.5762481689453 317.85797119140625 178.55517578125 319.9149475097656 186.0675506591797" stroke-width="0.0" fill="rgb(7, 16, 32)" opacity="0.9901831"/>
    <path d="M 328.99658203125 114.00564575195312 C 326.9906311035156 121.50068664550781 321.50341796875 127.00040435791016 313.9648742675781 129.15733337402344 C 306.466552734375 127.0544204711914 301.00030517578125 121.51725006103516 299.004150390625 114.01295471191406 C 301.0891418457031 106.6654281616211 306.85748291015625 101.5846176147461 314.3974609375 99.89019775390625 C 321.3394775390625 101.34270477294922 326.9598083496094 106.5575180053711 328.99658203125 114.00564575195312" stroke-width="0.0" fill="rgb(34, 47, 82)" opacity="0.99012405"/>
    <path d="M 394.43829345703125 270.2251892089844 C 392.17144775390625 277.5784912109375 386.5252685546875 283.0004577636719 379.0010681152344 285.00042724609375 C 371.5 282.9903869628906 366.0096130371094 277.5 364.00018310546875 270.00042724609375 C 366.0126037597656 262.5066833496094 371.5160827636719 257.044921875 378.9958190917969 255.09596252441406 C 386.4239196777344 257.09234619140625 391.9164733886719 262.5733642578125 394.43829345703125 270.2251892089844" stroke-width="0.0" fill="rgb(211, 211, 215)" opacity="0.9938824"/>
    <path d="M 248.90574645996094 460.83233642578125 C 246.88558959960938 468.366943359375 241.3594512939453 473.8681945800781 233.55532836914062 475.9407958984375 C 226.27638244628906 472.7719421386719 220.91299438476562 466.64093017578125 218.9646759033203 460.439453125 C 220.926513671875 453.3995666503906 226.3985137939453 447.9239501953125 233.86398315429688 445.92822265625 C 240.49697875976562 447.012939453125 245.98635864257812 452.50323486328125 248.90574645996094 460.83233642578125" stroke-width="0.0" fill="rgb(7, 8, 6)" opacity="0.9900099"/>
    <path d="M 334.9586181640625 163.70010375976562 C 332.88250732421875 172.34622192382812 327.31353759765625 177.80380249023438 319.6799011230469 179.75131225585938 C 310.89990234375 177.40182495117188 305.1703796386719 172.23744201660156 303.0482177734375 163.3163604736328 C 305.10516357421875 155.6413116455078 310.69097900390625 150.25155639648438 319.7152404785156 148.15818786621094 C 327.3634338378906 150.13339233398438 332.8948059082031 155.6249542236328 334.9586181640625 163.70010375976562" stroke-width="0.0" fill="rgb(3, 10, 17)" opacity="0.9900487"/>
    <path d="M 341.95294189453125 196.63160705566406 C 339.89630126953125 205.37612915039062 334.3542175292969 210.8354034423828 326.6568603515625 212.6682586669922 C 318.5755615234375 209.89146423339844 313.065185546875 204.4373321533203 311.0171203613281 196.9817352294922 C 313.0085144042969 189.498779296875 318.4991455078125 184.0098419189453 326.8343505859375 181.10044860839844 C 334.38818359375 183.10345458984375 339.9007873535156 188.6100616455078 341.95294189453125 196.63160705566406" stroke-width="0.0" fill="rgb(2, 9, 23)" opacity="0.9901746"/>
    <path d="M 369.0403747558594 93.70575714111328 C 367.2491455078125 99.95822143554688 362.2019958496094 105.83369445800781 354.9758605957031 107.989013671875 C 347.5 105.9903793334961 342.0096130371094 100.5 339.16375732421875 92.20862579345703 C 341.10821533203125 84.61460876464844 346.6321105957031 79.17327117919922 354.1695251464844 78.94749450683594 C 361.61627197265625 80.91254425048828 367.08270263671875 86.38581085205078 369.0403747558594 93.70575714111328" stroke-width="0.0" fill="rgb(2, 3, 26)" opacity="0.9900136"/>
    <path d="M 329.0768127441406 251.51528930664062 C 327.2771301269531 257.94268798828125 322.1095275878906 263.7325134277344 314.9456481933594 265.97314453125 C 307.53814697265625 263.954345703125 302.0784912109375 258.4529724121094 299.9957275390625 250.64892578125 C 301.63079833984375 243.28009033203125 307.3897705078125 237.95372009277344 314.37957763671875 236.6826629638672 C 321.7099609375 238.81256103515625 327.1525573730469 244.3027801513672 329.0768127441406 251.51528930664062" stroke-width="0.0" fill="rgb(2, 2, 2)" opacity="0.99002934"/>
    <path d="M 319.0 320.0 C 316.9903869628906 327.5 311.5 332.9903869628906 304.0 335.0 C 296.5 332.9903869628906 291.0096130371094 327.5 289.0 320.0 C 291.0096130371094 312.5 296.5 307.0096130371094 304.0 305.0 C 311.5 307.0096130371094 316.9903869628906 312.5 319.0 320.0" stroke-width="0.0" fill="rgb(0, 0, 0)" opacity="1.0"/>
    <path d="M 300.7686767578125 183.2109832763672 C 298.9903869628906 190.5 293.5 195.99038696289062 285.88787841796875 198.07098388671875 C 277.97540283203125 196.37867736816406 272.2113037109375 191.1736602783203 270.0855712890625 183.61392211914062 C 272.4052429199219 174.9519805908203 277.84869384765625 169.21792602539062 285.68743896484375 167.05572509765625 C 293.7673034667969 169.3343963623047 298.59088134765625 175.79246520996094 300.7686767578125 183.2109832763672" stroke-width="0.0" fill="rgb(21, 34, 61)" opacity="0.9901485"/>
    <path d="M 285.25982666015625 235.5348663330078 C 283.6628112792969 243.41354370117188 278.6656188964844 249.3391876220703 271.3548889160156 251.58233642578125 C 263.5 248.99038696289062 258.0096130371094 243.5 255.21075439453125 235.3568878173828 C 257.2828369140625 227.8838348388672 262.9759216308594 222.527587890625 270.80987548828125 220.27096557617188 C 279.0369567871094 222.57595825195312 284.6307067871094 227.90426635742188 285.25982666015625 235.5348663330078" stroke-width="0.0" fill="rgb(59, 41, 4)" opacity="0.990018"/>
    <path d="M 310.16851806640625 141.27841186523438 C 308.53948974609375 148.67300415039062 304.1059875488281 154.78009033203125 295.75201416015625 156.92800903320312 C 287.7613830566406 154.8189697265625 282.474365234375 149.13687133789062 280.84429931640625 141.2099151611328 C 283.0096130371094 133.5 288.5 128.00961303710938 296.4029846191406 125.30229187011719 C 303.0340576171875 128.1538848876953 308.31805419921875 134.08517456054688 310.16851806640625 141.27841186523438" stroke-width="0.0" fill="rgb(85, 138, 174)" opacity="0.9901487"/>
    <path d="M 305.0 301.0 C 302.9903869628906 308.5 297.5 313.9903869628906 289.8555603027344 316.200439453125 C 282.3468017578125 314.2414245605469 277.0966491699219 308.55084228515625 274.3150329589844 300.31622314453125 C 276.17987060546875 292.7066345214844 281.7392578125 287.2825012207031 289.5621643066406 285.59051513671875 C 297.5 288.0096130371094 302.9903869628906 293.5 305.0 301.0" stroke-width="0.0" fill="rgb(8, 16, 27)" opacity="0.9901492"/>
    <path d="M 288.50604248046875 435.13323974609375 C 286.38470458984375 442.9324645996094 281.05029296875 448.6841735839844 273.4248046875 450.8974304199219 C 266.24102783203125 447.4576416015625 260.8792419433594 441.68328857421875 258.92779541015625 434.2106628417969 C 260.1944580078125 427.56451416015625 265.5077819824219 422.0120544433594 273.0004577636719 419.9997253417969 C 280.5019226074219 422.0082702636719 286.0184631347656 427.49066162109375 288.50604248046875 435.13323974609375" stroke-width="0.0" fill="rgb(245, 248, 249)" opacity="0.9900565"/>
    <path d="M 295.57373046875 91.5028076171875 C 293.1267395019531 99.72691345214844 287.8729553222656 105.53905487060547 279.5823669433594 107.75206756591797 C 271.8772888183594 105.73313903808594 266.6360168457031 99.99523162841797 264.9231262207031 92.10124206542969 C 266.921630859375 84.317626953125 272.1181945800781 78.41136932373047 279.9672546386719 76.15463256835938 C 288.1737060546875 78.29684448242188 293.6840515136719 83.83267211914062 295.57373046875 91.5028076171875" stroke-width="0.0" fill="rgb(221, 231, 112)" opacity="1.0"/>
    <path d="M 185.031982421875 214.0918426513672 C 183.06747436523438 220.59434509277344 177.5938262939453 226.0662078857422 170.0961151123047 228.06552124023438 C 162.94427490234375 227.7738037109375 158.76414489746094 221.0862274169922 156.90838623046875 213.25030517578125 C 157.21592712402344 205.66348266601562 162.6300048828125 200.10684204101562 170.07723999023438 199.73045349121094 C 177.5924530029297 201.934326171875 183.0685272216797 207.40631103515625 185.031982421875 214.0918426513672" stroke-width="0.0" fill="rgb(2, 2, 4)" opacity="0.9900053"/>
    <path d="M 320.94110107421875 324.8592224121094 C 318.9090270996094 332.3926086425781 313.374267578125 337.8589172363281 305.6970520019531 339.7257080078125 C 297.5 336.9903869628906 292.0096130371094 331.5 290.0 324.0 C 292.0096130371094 316.5 297.5 311.0096130371094 305.0003662109375 308.9998779296875 C 312.5169372558594 311.0038757324219 318.2191467285156 316.411376953125 320.94110107421875 324.8592224121094" stroke-width="0.0" fill="rgb(0, 0, 0)" opacity="1.0"/>
    <path d="M 346.62750244140625 314.5611267089844 C 344.7419738769531 322.201171875 339.1537780761719 327.5897216796875 330.1809997558594 329.9071350097656 C 322.6491394042969 327.88330078125 317.2290954589844 322.31182861328125 315.51177978515625 314.5104675292969 C 318.0096130371094 306.5 323.5 301.0096130371094 331.0 299.0 C 338.5 301.0096130371094 343.9903869628906 306.5 346.62750244140625 314.5611267089844" stroke-width="0.0" fill="rgb(10, 20, 36)" opacity="1.0"/>
    <path d="M 263.2548522949219 272.31024169921875 C 261.633056640625 280.2177734375 256.2894592285156 285.84576416015625 248.8890838623047 286.1338806152344 C 241.37619018554688 284.09307861328125 235.90382385253906 278.6251525878906 233.95497131347656 271.97198486328125 C 235.87477111816406 265.3030700683594 241.23974609375 259.69317626953125 248.36851501464844 257.32684326171875 C 255.5 259.0096130371094 260.9903869628906 264.5 263.2548522949219 272.31024169921875" stroke-width="0.0" fill="rgb(20, 22, 37)" opacity="0.9900179"/>
    <path d="M 419.0919189453125 230.67767333984375 C 418.73272705078125 238.32228088378906 413.37115478515625 243.90176391601562 405.828125 245.9512176513672 C 397.2413635253906 243.58607482910156 392.2573547363281 237.36392211914062 389.09564208984375 229.141357421875 C 391.0946044921875 221.60317993164062 396.6047668457031 216.09860229492188 404.1895446777344 214.07737731933594 C 411.86627197265625 217.42562866210938 417.1926574707031 223.22657775878906 419.0919189453125 230.67767333984375" stroke-width="0.0" fill="rgb(2, 2, 2)" opacity="0.9900455"/>
    <path d="M 201.92007446289062 96.47026062011719 C 199.6016387939453 104.87596893310547 193.65306091308594 110.05616760253906 185.14117431640625 112.9181900024414 C 177.61817932128906 110.90538787841797 172.27398681640625 105.3376693725586 171.89974975585938 96.39959716796875 C 173.0260467529297 89.50457763671875 178.50010681152344 84.00965118408203 186.10601806640625 81.93319702148438 C 194.01510620117188 83.63331604003906 199.78701782226562 88.8311538696289 201.92007446289062 96.47026062011719" stroke-width="0.0" fill="rgb(4, 5, 8)" opacity="0.99029064"/>
    <path d="M 226.01341247558594 79.02701568603516 C 224.1468505859375 86.7840805053711 218.9976348876953 92.68477630615234 210.31689453125 94.93862915039062 C 202.71600341796875 92.8517837524414 197.39743041992188 87.19561767578125 195.77101135253906 79.28021240234375 C 198.00961303710938 71.5 203.5 66.0096206665039 211.0 64.0 C 218.5 66.0096206665039 223.99038696289062 71.5 226.01341247558594 79.02701568603516" stroke-width="0.0" fill="rgb(11, 23, 34)" opacity="1.0"/>
    <path d="M 371.94580078125 103.70283508300781 C 369.8917236328125 111.3608627319336 364.3240051269531 116.7883529663086 356.5452880859375 118.53650665283203 C 348.5 115.9903793334961 343.0096130371094 110.5 340.99993896484375 102.99992370605469 C 343.0093688964844 95.4997787475586 348.49993896484375 90.0100326538086 356.04254150390625 87.99652862548828 C 363.90032958984375 89.76895141601562 369.7633972167969 94.89205169677734 371.94580078125 103.70283508300781" stroke-width="0.0" fill="rgb(2, 5, 23)" opacity="0.99014664"/>
    <path d="M 321.869140625 233.101318359375 C 319.78411865234375 241.27084350585938 314.2824401855469 246.81307983398438 306.7677001953125 248.48403930664062 C 298.7079772949219 245.54933166503906 292.94427490234375 240.482421875 290.7565612792969 232.69851684570312 C 292.4227294921875 224.91905212402344 297.9530334472656 219.56993103027344 306.818115234375 217.1246337890625 C 314.322265625 219.14541625976562 319.79803466796875 224.6995849609375 321.869140625 233.101318359375" stroke-width="0.0" fill="rgb(197, 155, 20)" opacity="0.99143314"/>
    <path d="M 258.7497253417969 427.51165771484375 C 256.5043029785156 435.8591003417969 250.72421264648438 441.1008605957031 243.48873901367188 442.4814453125 C 236.3010711669922 440.22247314453125 230.89768981933594 434.65692138671875 228.95835876464844 428.0316467285156 C 230.90084838867188 421.341796875 236.26254272460938 415.4773254394531 243.81541442871094 412.0566101074219 C 251.3754119873047 414.1011657714844 256.824951171875 419.65118408203125 258.7497253417969 427.51165771484375" stroke-width="0.0" fill="rgb(13, 33, 57)" opacity="0.9900218"/>
    <path d="M 394.0546569824219 135.64854431152344 C 392.3125915527344 142.7959442138672 388.22210693359375 148.8341522216797 379.43646240234375 150.95057678222656 C 371.6328125 148.88973999023438 366.1744079589844 143.34414672851562 364.354248046875 135.6259307861328 C 366.88458251953125 127.26343536376953 372.05853271484375 121.36255645751953 380.4134521484375 119.07337188720703 C 386.8435974121094 121.62713623046875 392.1228332519531 128.29901123046875 394.0546569824219 135.64854431152344" stroke-width="0.0" fill="rgb(25, 52, 90)" opacity="0.99005413"/>
    <path d="M 265.9580383300781 369.4714660644531 C 263.9112854003906 377.404052734375 258.40240478515625 382.9072570800781 249.76589965820312 384.9571838378906 C 241.6538848876953 382.886962890625 236.5872344970703 377.2625732421875 235.94699096679688 369.54058837890625 C 237.669677734375 361.0888977050781 241.77171325683594 355.1787414550781 249.27716064453125 353.13909912109375 C 258.2294616699219 355.36004638671875 263.868896484375 360.6902160644531 265.9580383300781 369.4714660644531" stroke-width="0.0" fill="rgb(14, 27, 47)" opacity="0.99022734"/>
    <path d="M 365.64434814453125 279.6787414550781 C 363.3351135253906 286.81011962890625 357.78411865234375 292.2496643066406 350.18267822265625 295.8431091308594 C 342.6276550292969 293.8789978027344 337.12652587890625 288.370361328125 335.1819152832031 280.7607727050781 C 338.0093994140625 272.4994201660156 343.4969787597656 267.0005798339844 350.60919189453125 265.45977783203125 C 358.0472717285156 267.5701904296875 363.7198181152344 272.8585510253906 365.64434814453125 279.6787414550781" stroke-width="0.0" fill="rgb(23, 29, 48)" opacity="0.99004555"/>
    <path d="M 402.6686706542969 285.5895690917969 C 400.97698974609375 293.4660339355469 395.4617004394531 298.9589538574219 387.9916687011719 300.9945068359375 C 380.5 298.9903869628906 375.0096435546875 293.4999694824219 373.0000305175781 286.0 C 375.0096130371094 278.5 380.5 273.0096130371094 388.1233215332031 270.8455505371094 C 395.7657775878906 272.7423095703125 401.4690856933594 278.1592102050781 402.6686706542969 285.5895690917969" stroke-width="0.0" fill="rgb(212, 214, 216)" opacity="1.0"/>
    <path d="M 384.00225830078125 278.001220703125 C 381.9925231933594 285.5014953613281 376.50115966796875 290.99139404296875 368.5825500488281 293.4019775390625 C 360.7547607421875 291.6977233886719 355.15753173828125 286.29583740234375 353.0662841796875 278.0157775878906 C 355.1806640625 269.76116943359375 360.86285400390625 264.47283935546875 368.7875671386719 262.8401184082031 C 376.5 265.0096130371094 381.9903869628906 270.5 384.00225830078125 278.001220703125" stroke-width="0.0" fill="rgb(214, 215, 219)" opacity="1.0"/>
    <path d="M 352.0135803222656 101.97430419921875 C 349.9905700683594 109.50006866455078 344.5000305175781 114.99038696289062 337.0 117.0 C 329.5 114.9903793334961 324.0096130371094 109.5 322.35186767578125 102.29478454589844 C 324.4747009277344 94.743896484375 329.09173583984375 88.28450012207031 337.07012939453125 86.06275177001953 C 345.03570556640625 88.27569580078125 350.15069580078125 94.20099639892578 352.0135803222656 101.97430419921875" stroke-width="0.0" fill="rgb(3, 2, 20)" opacity="0.99112344"/>
    <path d="M 209.0 134.0 C 206.99038696289062 141.5 201.5 146.99038696289062 193.94863891601562 149.0301971435547 C 186.15390014648438 147.21485900878906 180.34153747558594 142.00686645507812 178.10977172851562 133.35247802734375 C 180.15760803222656 125.70298767089844 185.74851989746094 120.28328704833984 193.5341033935547 118.50936126708984 C 201.5 121.0096206665039 206.99038696289062 126.5 209.0 134.0" stroke-width="0.0" fill="rgb(5, 13, 31)" opacity="0.9900761"/>
    <path d="M 400.8157043457031 301.7210998535156 C 398.61578369140625 309.2032165527344 393.2455139160156 314.74578857421875 385.9901123046875 316.81915283203125 C 378.5448303222656 314.85675048828125 372.9311828613281 309.52197265625 370.92181396484375 302.0503234863281 C 373.0106506347656 294.50042724609375 378.49993896484375 289.0089111328125 386.01251220703125 286.9870300292969 C 393.56005859375 288.9615173339844 399.0291748046875 294.44122314453125 400.8157043457031 301.7210998535156" stroke-width="0.0" fill="rgb(213, 214, 218)" opacity="0.99029565"/>
    <path d="M 321.8653869628906 65.80753326416016 C 319.8885498046875 73.35845184326172 314.2947998046875 78.56504821777344 305.2474365234375 79.16986083984375 C 298.00994873046875 78.67525482177734 292.86114501953125 72.78038024902344 290.9791564941406 65.00254821777344 C 292.8779602050781 57.249725341796875 298.03924560546875 51.344993591308594 306.56500244140625 49.081783294677734 C 314.1988220214844 51.194454193115234 319.39129638671875 56.94711685180664 321.8653869628906 65.80753326416016" stroke-width="0.0" fill="rgb(7, 10, 22)" opacity="0.99007356"/>
    <path d="M 238.81869506835938 498.17388916015625 C 235.2543182373047 505.8372802734375 229.89944458007812 511.4418640136719 222.74339294433594 513.76806640625 C 215.5243682861328 511.9816589355469 210.26133728027344 506.39630126953125 208.8629150390625 499.59173583984375 C 210.78334045410156 492.2328796386719 216.22970581054688 486.7734375 223.85406494140625 483.1133117675781 C 231.33302307128906 485.13385009765625 236.83689880371094 490.680419921875 238.81869506835938 498.17388916015625" stroke-width="0.0" fill="rgb(148, 123, 82)" opacity="1.0"/>
    <path d="M 320.9202880859375 294.0448303222656 C 318.9903869628906 301.5 313.5 306.9903869628906 306.0 309.0 C 298.5 306.9903869628906 293.0096130371094 301.5 291.0 294.0 C 293.0096130371094 286.5 298.5 281.0096130371094 306.3311462402344 278.4156188964844 C 313.5696105957031 280.7618408203125 318.9178466796875 286.5373229980469 320.9202880859375 294.0448303222656" stroke-width="0.0" fill="rgb(11, 26, 38)" opacity="1.0"/>
    <path d="M 346.9969787597656 107.00291442871094 C 344.9903869628906 114.5 339.5 119.9903793334961 332.03204345703125 121.9600830078125 C 324.54327392578125 119.9201431274414 318.9561767578125 114.4936294555664 317.6629943847656 107.60749053955078 C 319.7807922363281 100.24562072753906 325.23272705078125 94.74034118652344 332.47381591796875 92.49903106689453 C 339.4853820800781 94.03243255615234 344.9812316894531 99.51066589355469 346.9969787597656 107.00291442871094" stroke-width="0.0" fill="rgb(2, 6, 33)" opacity="0.9902273"/>
    <path d="M 272.8268737792969 253.74908447265625 C 270.7015075683594 261.0263366699219 264.8210144042969 266.175537109375 257.03424072265625 268.01739501953125 C 249.5 265.9903869628906 244.00961303710938 260.5 242.0 253.0 C 244.00961303710938 245.5 249.5 240.00961303710938 257.2237854003906 237.564697265625 C 264.1098937988281 240.00938415527344 269.34356689453125 246.04176330566406 272.8268737792969 253.74908447265625" stroke-width="0.0" fill="rgb(215, 138, 11)" opacity="1.0"/>
    <path d="M 303.9985656738281 339.0008239746094 C 301.9903869628906 346.5 296.4999694824219 351.99029541015625 288.4699401855469 354.5220947265625 C 280.6909484863281 352.7760314941406 275.1356201171875 347.3387451171875 273.16650390625 339.7659912109375 C 276.0096130371094 331.5 281.5 326.0096130371094 288.9998779296875 324.0000915527344 C 296.49932861328125 326.0101013183594 301.9888916015625 331.5009765625 303.9985656738281 339.0008239746094" stroke-width="0.0" fill="rgb(2, 3, 8)" opacity="0.99379593"/>
    <path d="M 356.2065734863281 113.98885345458984 C 354.0223693847656 121.512939453125 348.5042724609375 126.99215698242188 341.0002136230469 129.00009155273438 C 333.4999694824219 126.99038696289062 328.0092468261719 121.5001220703125 325.991455078125 113.99842071533203 C 328.0084228515625 106.5012435913086 333.503173828125 101.01509857177734 340.9968566894531 99.0233383178711 C 348.5010986328125 101.01712799072266 354.03411865234375 106.4839859008789 356.2065734863281 113.98885345458984" stroke-width="0.0" fill="rgb(2, 11, 40)" opacity="0.9904468"/>
    <path d="M 300.74652099609375 132.81756591796875 C 298.2960510253906 140.64138793945312 292.54443359375 146.0079803466797 285.0018005371094 148.00071716308594 C 277.4993591308594 145.9905548095703 271.9747314453125 140.51025390625 269.17041015625 132.26797485351562 C 271.1351623535156 124.64112854003906 276.63970947265625 119.13056182861328 284.7889709472656 117.06484985351562 C 293.2923583984375 119.15255737304688 298.6802673339844 124.76911926269531 300.74652099609375 132.81756591796875" stroke-width="0.0" fill="rgb(18, 35, 72)" opacity="0.9922579"/>
    <path d="M 232.8726043701172 112.81990814208984 C 230.90208435058594 120.4006118774414 225.40280151367188 125.90802001953125 217.5377960205078 127.95063781738281 C 208.7415771484375 125.84722137451172 203.52099609375 120.1271743774414 201.56068420410156 111.62705993652344 C 203.27671813964844 103.72985076904297 208.6954345703125 98.16802978515625 216.30316162109375 96.2411880493164 C 224.5 99.0096206665039 229.99038696289062 104.5 232.8726043701172 112.81990814208984" stroke-width="0.0" fill="rgb(1, 0, 0)" opacity="1.0"/>
    <path d="M 310.4839172363281 286.5145568847656 C 307.9888000488281 294.492919921875 302.4881896972656 299.97265625 294.9885559082031 301.9184265136719 C 287.3631286621094 300.0697021484375 281.6021423339844 294.7482604980469 279.4756774902344 287.3741455078125 C 282.00909423828125 279.43939208984375 287.3571472167969 273.74481201171875 295.76568603515625 271.1148681640625 C 303.32269287109375 273.1426696777344 308.746826171875 278.7153015136719 310.4839172363281 286.5145568847656" stroke-width="0.0" fill="rgb(12, 27, 46)" opacity="0.99046314"/>
    <path d="M 321.0671691894531 196.04054260253906 C 319.05633544921875 203.53436279296875 313.51483154296875 208.9919891357422 306.00927734375 211.0384063720703 C 298.5411071777344 208.9498748779297 293.0462646484375 203.46023559570312 290.9929504394531 195.9732666015625 C 292.9672546386719 188.45770263671875 298.4552307128906 182.9590301513672 305.97784423828125 180.98492431640625 C 313.4993591308594 183.01177978515625 318.990234375 188.5000762939453 321.0671691894531 196.04054260253906" stroke-width="0.0" fill="rgb(8, 13, 29)" opacity="0.9912174"/>
    <path d="M 273.9300842285156 345.6574401855469 C 271.87335205078125 353.3595886230469 266.36181640625 358.8784484863281 258.7870788574219 360.8858947753906 C 249.76393127441406 358.654296875 244.14222717285156 353.3048400878906 242.0605926513672 344.9898986816406 C 244.1329803466797 336.6524353027344 249.65377807617188 331.13604736328125 257.9977722167969 329.0584411621094 C 266.2485046386719 331.1733703613281 271.7288818359375 336.80267333984375 273.9300842285156 345.6574401855469" stroke-width="0.0" fill="rgb(21, 45, 79)" opacity="1.0"/>
    <path d="M 276.6739501953125 267.3872985839844 C 274.18035888671875 275.82666015625 269.0200500488281 281.68902587890625 261.4486083984375 283.8757019042969 C 253.25958251953125 281.4429931640625 247.9738311767578 275.5865783691406 245.99844360351562 268.00390625 C 248.00961303710938 260.5 253.5 255.00961303710938 261.6007080078125 252.33615112304688 C 269.2816162109375 254.2168731689453 274.7948303222656 259.7142028808594 276.6739501953125 267.3872985839844" stroke-width="0.0" fill="rgb(20, 47, 72)" opacity="1.0"/>
    <path d="M 365.05621337890625 308.731201171875 C 363.16754150390625 315.8460693359375 358.8210144042969 322.766357421875 350.66265869140625 324.9384460449219 C 342.7147216796875 322.8528137207031 337.42401123046875 317.19110107421875 335.7820129394531 309.1627502441406 C 337.6346740722656 300.9879150390625 342.8437194824219 295.2290344238281 350.3130187988281 293.1284484863281 C 357.7490234375 296.6596374511719 363.1386413574219 302.30535888671875 365.05621337890625 308.731201171875" stroke-width="0.0" fill="rgb(11, 23, 40)" opacity="0.9900233"/>
    <path d="M 271.9073791503906 111.12210083007812 C 269.79913330078125 119.30186462402344 264.3348083496094 124.8753662109375 255.7051544189453 126.95819854736328 C 247.63601684570312 124.8910140991211 242.15733337402344 119.34332275390625 240.08035278320312 111.2257080078125 C 242.19224548339844 102.77018737792969 247.86412048339844 97.46388244628906 255.8025360107422 95.80184936523438 C 263.8418273925781 97.79644775390625 269.6939697265625 102.97129821777344 271.9073791503906 111.12210083007812" stroke-width="0.0" fill="rgb(71, 82, 114)" opacity="1.0"/>
    <path d="M 378.00628662109375 239.9907989501953 C 375.9903564453125 247.49993896484375 370.4999084472656 252.9902801513672 363.2318420410156 254.80859375 C 356.0602722167969 252.47357177734375 350.7120361328125 246.8777313232422 348.8765563964844 240.03993225097656 C 350.7086181640625 233.0729217529297 355.8652038574219 226.76898193359375 362.693359375 224.2938995361328 C 370.655029296875 226.74122619628906 376.0368347167969 232.41629028320312 378.00628662109375 239.9907989501953" stroke-width="0.0" fill="rgb(211, 211, 214)" opacity="0.99007183"/>
    <path d="M 298.23431396484375 137.40072631835938 C 296.2840270996094 144.9022216796875 291.089111328125 151.2434844970703 283.2295227050781 153.91635131835938 C 275.6211242675781 151.8852081298828 270.1054992675781 146.38272094726562 268.0957946777344 138.8392791748047 C 271.33087158203125 130.82888793945312 276.8194580078125 125.30448913574219 283.8294677734375 123.3858871459961 C 291.1718444824219 125.40291595458984 296.74365234375 130.7832489013672 298.23431396484375 137.40072631835938" stroke-width="0.0" fill="rgb(6, 7, 26)" opacity="0.99005306"/>
    <path d="M 261.95050048828125 185.7076873779297 C 259.8872985839844 193.34857177734375 254.30361938476562 198.76583862304688 246.45263671875 200.6395721435547 C 239.11380004882812 197.7097625732422 233.86474609375 191.73822021484375 231.94891357421875 184.33279418945312 C 233.33641052246094 176.80035400390625 237.66966247558594 171.11668395996094 245.9354705810547 169.04344177246094 C 254.33181762695312 171.1246337890625 259.8326416015625 176.69021606445312 261.95050048828125 185.7076873779297" stroke-width="0.0" fill="rgb(39, 39, 48)" opacity="0.990288"/>
    <path d="M 293.8230285644531 328.85809326171875 C 291.8800964355469 336.4381103515625 286.47503662109375 342.0050964355469 278.3988342285156 344.73223876953125 C 270.8291015625 342.7327575683594 265.2412109375 337.1815490722656 263.0657958984375 328.8458251953125 C 265.2153015136719 320.8418884277344 271.01190185546875 315.67938232421875 279.574462890625 313.28436279296875 C 287.0842590332031 315.29840087890625 292.309814453125 321.04931640625 293.8230285644531 328.85809326171875" stroke-width="0.0" fill="rgb(14, 30, 50)" opacity="0.99014723"/>
    <path d="M 342.8827819824219 136.8269805908203 C 340.90032958984375 144.3896026611328 335.383544921875 149.88592529296875 327.55438232421875 151.94036865234375 C 318.8764343261719 149.7781524658203 314.0285949707031 143.8674774169922 312.3656921386719 135.88902282714844 C 314.2138366699219 128.7030487060547 319.7066650390625 123.22644805908203 327.09222412109375 121.10549926757812 C 334.5 123.0096206665039 339.9903869628906 128.5 342.8827819824219 136.8269805908203" stroke-width="0.0" fill="rgb(4, 4, 17)" opacity="0.99007004"/>
    <path d="M 321.7808837890625 349.2571105957031 C 319.07586669921875 357.6847229003906 313.91192626953125 363.6302185058594 305.237548828125 365.9410400390625 C 297.68035888671875 363.87823486328125 292.37347412109375 358.2331848144531 290.7897033691406 350.2804870605469 C 293.007568359375 342.49835205078125 298.4984130859375 337.00775146484375 306.7573547363281 334.19854736328125 C 314.3777770996094 336.1218566894531 319.87457275390625 341.6233825683594 321.7808837890625 349.2571105957031" stroke-width="0.0" fill="rgb(0, 0, 0)" opacity="1.0"/>
    <path d="M 222.9532928466797 140.8934783935547 C 220.89901733398438 149.38914489746094 215.39064025878906 154.9022979736328 207.78106689453125 156.94287109375 C 199.0082550048828 154.68777465820312 193.87599182128906 148.76315307617188 191.99124145507812 141.01962280273438 C 194.00961303710938 133.5 199.5 128.00961303710938 207.86715698242188 125.0774154663086 C 215.40805053710938 127.08536529541016 220.91065979003906 132.5935516357422 222.9532928466797 140.8934783935547" stroke-width="0.0" fill="rgb(0, 0, 0)" opacity="1.0"/>
    <path d="M 267.65386962890625 261.04150390625 C 265.873046875 268.44622802734375 260.47857666015625 273.9805908203125 252.99932861328125 275.99908447265625 C 245.534423828125 273.97869873046875 240.42617797851562 268.314208984375 238.94212341308594 261.380859375 C 240.5176239013672 253.73231506347656 245.51974487304688 248.00672912597656 252.72164916992188 246.28514099121094 C 259.99627685546875 248.53163146972656 265.56134033203125 253.9775848388672 267.65386962890625 261.04150390625" stroke-width="0.0" fill="rgb(8, 2, 2)" opacity="0.99014395"/>
    <path d="M 338.0098876953125 357.9794616699219 C 335.9903869628906 365.5 330.5 370.9903869628906 322.197265625 373.8565368652344 C 314.6141052246094 371.8926696777344 309.1235656738281 366.3800964355469 307.21124267578125 358.7485046386719 C 309.9364929199219 350.32098388671875 315.0809326171875 344.3581848144531 323.22515869140625 342.0757751464844 C 330.9713134765625 344.32879638671875 336.11968994140625 350.25213623046875 338.0098876953125 357.9794616699219" stroke-width="0.0" fill="rgb(1, 2, 9)" opacity="1.0"/>
    <path d="M 348.8979187011719 269.1167907714844 C 346.94805908203125 276.46435546875 341.4658203125 281.9523620605469 333.97906494140625 283.9288635253906 C 326.4992370605469 281.9918212890625 321.00946044921875 276.5003967285156 319.02630615234375 269.0399475097656 C 321.1606750488281 261.7048034667969 326.73760986328125 256.26531982421875 333.31103515625 254.86712646484375 C 340.86749267578125 256.7618713378906 346.5958557128906 262.007080078125 348.8979187011719 269.1167907714844" stroke-width="0.0" fill="rgb(11, 14, 30)" opacity="0.99013555"/>
    <path d="M 338.8564758300781 271.0497741699219 C 336.9897766113281 278.5025329589844 331.5040283203125 283.9952392578125 323.9970397949219 286.0035095214844 C 316.36260986328125 284.0469055175781 310.4162902832031 278.85546875 308.0826110839844 270.5809631347656 C 310.2563171386719 262.89984130859375 316.07470703125 257.72607421875 324.06817626953125 256.0462646484375 C 331.5542907714844 257.87017822265625 336.9190368652344 263.5125732421875 338.8564758300781 271.0497741699219" stroke-width="0.0" fill="rgb(15, 33, 62)" opacity="0.99076927"/>
    <path d="M 347.70556640625 302.3226623535156 C 344.9950256347656 310.50323486328125 339.5025634765625 315.9927673339844 332.000244140625 318.0025634765625 C 324.4999694824219 315.990478515625 319.0096130371094 310.5 317.0027770996094 303.00323486328125 C 319.0207824707031 295.5133361816406 324.5156555175781 290.0284423828125 332.806884765625 287.1307067871094 C 340.3736877441406 289.1124572753906 345.8473205566406 294.6404113769531 347.70556640625 302.3226623535156" stroke-width="0.0" fill="rgb(13, 26, 43)" opacity="0.99590737"/>
    <path d="M 376.9299621582031 128.4605712890625 C 375.0891418457031 136.9303436279297 370.1673889160156 142.80731201171875 361.30963134765625 144.95794677734375 C 353.6302185058594 142.8920440673828 348.14068603515625 137.3562469482422 346.18701171875 129.74932861328125 C 349.17608642578125 121.67022705078125 354.6893615722656 116.23949432373047 362.838134765625 113.10298919677734 C 370.3595886230469 115.11004638671875 375.7791748046875 120.67855072021484 376.9299621582031 128.4605712890625" stroke-width="0.0" fill="rgb(2, 2, 2)" opacity="0.9900417"/>
    <path d="M 398.7691345214844 243.58700561523438 C 396.44921875 251.86143493652344 390.78485107421875 257.2066345214844 383.05023193359375 259.0010681152344 C 375.4995422363281 256.9911193847656 370.009521484375 251.50027465820312 367.9902038574219 243.98394775390625 C 369.9455871582031 236.41110229492188 375.39208984375 230.88499450683594 383.0531311035156 229.0518341064453 C 390.88128662109375 230.73658752441406 396.6444091796875 235.98599243164062 398.7691345214844 243.58700561523438" stroke-width="0.0" fill="rgb(212, 212, 216)" opacity="0.9910042"/>
    <path d="M 215.39122009277344 115.28582000732422 C 213.63214111328125 123.15558624267578 208.16879272460938 128.6754608154297 200.43836975097656 130.44815063476562 C 192.23899841308594 128.10568237304688 186.39749145507812 122.93584442138672 184.13429260253906 115.14735412597656 C 186.54556274414062 107.25563049316406 192.4168243408203 101.97624969482422 200.79202270507812 99.10890197753906 C 208.2345428466797 101.17048645019531 213.4527587890625 106.89944458007812 215.39122009277344 115.28582000732422" stroke-width="0.0" fill="rgb(3, 2, 8)" opacity="0.9900651"/>
    <path d="M 336.7520751953125 308.0122375488281 C 334.89141845703125 315.42474365234375 329.4332580566406 320.9201965332031 321.55902099609375 323.6716003417969 C 314.3286437988281 321.3531494140625 308.99041748046875 315.55072021484375 306.9756164550781 307.9908142089844 C 309.00311279296875 300.5167541503906 314.5454406738281 295.0996398925781 321.9942321777344 293.3346862792969 C 329.3990478515625 295.134521484375 334.8674011230469 300.6005554199219 336.7520751953125 308.0122375488281" stroke-width="0.0" fill="rgb(2, 2, 5)" opacity="0.99067765"/>
    <path d="M 315.0030212402344 314.996826171875 C 312.9905090332031 322.50006103515625 307.5000305175781 327.9903869628906 299.982421875 330.0259704589844 C 292.4759826660156 328.0259094238281 286.8186340332031 322.572021484375 284.5095520019531 315.4521484375 C 287.1483154296875 307.57037353515625 292.5224304199219 301.9866027832031 300.00244140625 299.81585693359375 C 307.536376953125 301.94696044921875 313.0045471191406 307.4779968261719 315.0030212402344 314.996826171875" stroke-width="0.0" fill="rgb(2, 2, 2)" opacity="0.9909679"/>
    <path d="M 266.3692626953125 305.5966796875 C 263.9903869628906 313.5 258.5 318.9903869628906 251.2194061279297 320.8311462402344 C 244.13531494140625 318.4495544433594 238.83383178710938 312.7657775878906 236.94793701171875 306.5002136230469 C 238.89137268066406 299.3565368652344 244.35311889648438 293.8823547363281 251.87945556640625 290.17437744140625 C 259.3123474121094 292.13983154296875 264.6980895996094 297.744384765625 266.3692626953125 305.5966796875" stroke-width="0.0" fill="rgb(28, 48, 72)" opacity="0.99002075"/>
    <path d="M 232.04296875 510.2320251464844 C 230.0836944580078 517.6146850585938 224.6147003173828 523.0836791992188 217.1162872314453 525.0700073242188 C 209.6187744140625 524.8756713867188 204.1033935546875 519.3883666992188 202.93629455566406 511.90924072265625 C 205.9034881591797 504.34564208984375 211.28286743164062 498.6773681640625 218.31369018554688 495.2825012207031 C 225.82469177246094 497.5719909667969 230.4077911376953 503.6138610839844 232.04296875 510.2320251464844" stroke-width="0.0" fill="rgb(25, 17, 8)" opacity="0.990014"/>
    <path d="M 279.0945129394531 88.71629333496094 C 278.7978210449219 96.29058837890625 273.27569580078125 101.75118255615234 265.5080871582031 103.51495361328125 C 257.5 100.9903793334961 252.00961303710938 95.5 250.0 88.0 C 252.00961303710938 80.5 257.5 75.0096206665039 265.8118896484375 72.13001251220703 C 273.36053466796875 74.11095428466797 278.5841979980469 79.6995620727539 279.0945129394531 88.71629333496094" stroke-width="0.0" fill="rgb(6, 7, 23)" opacity="0.9901995"/>
    <path d="M 219.9638671875 75.0626449584961 C 217.98973083496094 82.49859619140625 212.4965362548828 87.98253631591797 204.24473571777344 90.8397216796875 C 196.7435760498047 88.83710479736328 192.6224822998047 83.00997161865234 190.9495086669922 75.59657287597656 C 192.89724731445312 68.36827850341797 198.37120056152344 62.904422760009766 205.6883087158203 60.9494743347168 C 211.9013214111328 62.76704788208008 217.718994140625 67.91291809082031 219.9638671875 75.0626449584961" stroke-width="0.0" fill="rgb(12, 37, 71)" opacity="0.9900157"/>
    <path d="M 263.3899841308594 246.40443420410156 C 261.6418762207031 254.07760620117188 256.01116943359375 259.4324035644531 247.88250732421875 261.3324890136719 C 239.892578125 259.53338623046875 234.20761108398438 254.2034912109375 232.0689239501953 245.72259521484375 C 234.15672302246094 237.68714904785156 239.69570922851562 232.17666625976562 248.16259765625 230.07489013671875 C 256.19683837890625 232.20765686035156 261.460693359375 237.91903686523438 263.3899841308594 246.40443420410156" stroke-width="0.0" fill="rgb(158, 109, 11)" opacity="1.0"/>
    <path d="M 267.1562805175781 267.82855224609375 C 264.9568176269531 275.47760009765625 259.48309326171875 280.9760437011719 251.7095184326172 283.3810729980469 C 244.05458068847656 281.46917724609375 238.49481201171875 275.9574279785156 236.2583770751953 267.8818054199219 C 238.51336669921875 260.2469177246094 244.63906860351562 255.42803955078125 252.20738220214844 253.71664428710938 C 259.6600341796875 255.06126403808594 265.28057861328125 260.2566223144531 267.1562805175781 267.82855224609375" stroke-width="0.0" fill="rgb(26, 37, 57)" opacity="1.0"/>
    <path d="M 388.00360107421875 271.00250244140625 C 385.99310302734375 278.5015869140625 380.5009765625 283.9910583496094 373.0001525878906 286.0001220703125 C 365.5 283.9903869628906 360.0096130371094 278.5 357.4314270019531 270.6828918457031 C 359.7842712402344 263.4830322265625 365.5990905761719 258.14788818359375 373.0643005371094 256.0750427246094 C 380.4998779296875 258.009033203125 385.9896545410156 263.50048828125 388.00360107421875 271.00250244140625" stroke-width="0.0" fill="rgb(213, 214, 218)" opacity="0.9941345"/>
    <path d="M 288.841796875 59.290740966796875 C 286.736328125 68.2938003540039 281.3457336425781 73.8856430053711 273.7460632324219 75.9478759765625 C 264.8915100097656 73.73870086669922 259.31402587890625 68.07466888427734 257.1048889160156 60.654109954833984 C 259.7759094238281 52.4073486328125 265.4805908203125 47.0029411315918 273.81524658203125 44.124576568603516 C 281.3811340332031 46.10715103149414 286.875 51.625797271728516 288.841796875 59.290740966796875" stroke-width="0.0" fill="rgb(11, 18, 50)" opacity="1.0"/>
    <path d="M 319.0984191894531 113.13866424560547 C 317.0913391113281 120.57418060302734 311.5589294433594 126.03953552246094 303.31207275390625 128.7540740966797 C 295.6506042480469 126.8400650024414 290.1080322265625 121.36947631835938 288.0530090332031 113.5444107055664 C 290.1681213378906 104.77766418457031 296.1335144042969 100.63241577148438 304.63909912109375 98.89826965332031 C 311.3890380859375 99.97116088867188 316.7801208496094 105.67797088623047 319.0984191894531 113.13866424560547" stroke-width="0.0" fill="rgb(17, 28, 63)" opacity="0.9900716"/>
    <path d="M 343.2697448730469 361.0872497558594 C 341.1066589355469 368.6994934082031 336.0254211425781 375.7463684082031 328.5871276855469 377.9511413574219 C 320.67547607421875 375.8726806640625 315.3140563964844 370.26068115234375 313.68450927734375 362.36700439453125 C 316.0064697265625 354.4987487792969 321.50018310546875 349.0113830566406 329.346435546875 346.71563720703125 C 337.2506408691406 348.3302917480469 342.8704528808594 353.68072509765625 343.2697448730469 361.0872497558594" stroke-width="0.0" fill="rgb(3, 5, 11)" opacity="0.9900947"/>
    <path d="M 276.92315673828125 43.22050857543945 C 274.26043701171875 51.623680114746094 268.5458068847656 57.02268600463867 260.2159729003906 59.84748840332031 C 252.6219482421875 57.88093948364258 247.09747314453125 52.38688278198242 245.05130004882812 44.72405242919922 C 247.18228149414062 35.741554260253906 252.78842163085938 30.29520034790039 260.26837158203125 28.242502212524414 C 268.9136962890625 31.47051429748535 274.8385009765625 35.7796630859375 276.92315673828125 43.22050857543945" stroke-width="0.0" fill="rgb(20, 20, 32)" opacity="0.99015117"/>
    <path d="M 434.0374450683594 194.850341796875 C 432.0926513671875 201.649658203125 426.7061462402344 207.27700805664062 419.2475280761719 209.34976196289062 C 411.6417236328125 208.8506622314453 406.111572265625 203.37213134765625 404.05841064453125 195.36976623535156 C 406.1531066894531 186.73301696777344 412.0050048828125 182.6767578125 419.2627258300781 180.96034240722656 C 426.6138916015625 182.9177703857422 432.0812683105469 188.38662719726562 434.0374450683594 194.850341796875" stroke-width="0.0" fill="rgb(8, 17, 38)" opacity="0.9900069"/>
    <path d="M 277.9464416503906 154.1899871826172 C 275.5762634277344 162.8473663330078 269.63232421875 168.04603576660156 261.6077880859375 170.3356170654297 C 253.7200927734375 168.7092742919922 248.12176513671875 163.3364715576172 246.0522003173828 154.36709594726562 C 248.0901336669922 146.6014404296875 253.60533142089844 141.09930419921875 261.3383483886719 139.0928955078125 C 270.3693542480469 141.13906860351562 275.9039611816406 146.6139678955078 277.9464416503906 154.1899871826172" stroke-width="0.0" fill="rgb(4, 5, 8)" opacity="0.9900816"/>
    <path d="M 283.0381774902344 424.4757385253906 C 281.082275390625 431.6134948730469 275.6141052246094 437.08367919921875 268.09173583984375 439.2023010253906 C 260.720458984375 438.8440856933594 255.37884521484375 433.2007751464844 253.15235900878906 424.21533203125 C 255.1021270751953 416.6007080078125 260.5960693359375 411.08978271484375 268.4214172363281 409.0455627441406 C 277.1083679199219 411.1672668457031 281.161865234375 418.08282470703125 283.0381774902344 424.4757385253906" stroke-width="0.0" fill="rgb(4, 5, 5)" opacity="0.9900114"/>
    <path d="M 330.512451171875 23.964900970458984 C 328.68310546875 31.47715950012207 323.7663879394531 37.46110153198242 316.28338623046875 39.66587448120117 C 308.0958251953125 37.38340377807617 302.338623046875 32.017967224121094 300.0970764160156 23.74186134338379 C 302.24005126953125 15.839024543762207 307.91705322265625 10.424551963806152 315.47821044921875 8.41641902923584 C 323.04473876953125 11.512347221374512 328.5678405761719 16.929582595825195 330.512451171875 23.964900970458984" stroke-width="0.0" fill="rgb(178, 180, 187)" opacity="0.990082"/>
    <path d="M 281.9407043457031 166.20919799804688 C 279.619140625 175.04917907714844 274.13299560546875 180.76495361328125 265.75579833984375 182.93531799316406 C 257.7105407714844 180.8291015625 252.1645050048828 175.29257202148438 250.09735107421875 167.72164916992188 C 252.53492736816406 159.18801879882812 258.30316162109375 153.8701934814453 266.2637634277344 151.80783081054688 C 274.2423400878906 153.36428833007812 279.88104248046875 158.67471313476562 281.9407043457031 166.20919799804688" stroke-width="0.0" fill="rgb(30, 41, 64)" opacity="1.0"/>
    <path d="M 212.03025817871094 142.0561981201172 C 210.24526977539062 149.89707946777344 205.06234741210938 155.7042999267578 196.36627197265625 157.6682891845703 C 188.61395263671875 155.88906860351562 183.10791015625 150.38711547851562 181.19830322265625 142.82196044921875 C 184.34999084472656 134.7696990966797 189.74758911132812 129.2796173095703 197.1378631591797 127.19561767578125 C 204.4997100830078 129.01019287109375 209.99014282226562 134.5001983642578 212.03025817871094 142.0561981201172" stroke-width="0.0" fill="rgb(2, 2, 4)" opacity="0.9901258"/>
    <path d="M 355.9531555175781 338.5111389160156 C 353.91314697265625 346.40802001953125 348.408203125 351.9137878417969 340.8573913574219 353.9272155761719 C 331.98846435546875 351.35870361328125 326.1822814941406 346.19281005859375 324.05340576171875 337.7837219238281 C 326.12945556640625 329.67510986328125 331.7347412109375 324.305419921875 340.8242492675781 322.0849914550781 C 348.37353515625 324.1090393066406 353.88861083984375 329.6275329589844 355.9531555175781 338.5111389160156" stroke-width="0.0" fill="rgb(9, 14, 29)" opacity="0.99204123"/>
    <path d="M 311.919189453125 65.01068115234375 C 309.9776916503906 72.50831604003906 304.4891357421875 77.89942932128906 297.6886291503906 79.07530975341797 C 289.8277587890625 77.25553131103516 283.2164306640625 73.091552734375 281.16693115234375 65.63238525390625 C 283.2887268066406 56.72734069824219 288.6742858886719 51.13216018676758 296.4372253417969 49.06484603881836 C 305.0237731933594 51.28627014160156 310.1100158691406 57.216644287109375 311.919189453125 65.01068115234375" stroke-width="0.0" fill="rgb(3, 5, 12)" opacity="0.9900434"/>
    <path d="M 242.8280029296875 100.75057983398438 C 240.81809997558594 108.28273010253906 235.26602172851562 113.77442932128906 227.69573974609375 114.79135131835938 C 219.95655822753906 112.43272399902344 214.35662841796875 107.11384582519531 211.1490936279297 99.24119567871094 C 213.19622802734375 91.79511260986328 218.92442321777344 86.5636215209961 226.72276306152344 85.30726623535156 C 234.22817993164062 87.31491088867188 239.67384338378906 92.77582550048828 242.8280029296875 100.75057983398438" stroke-width="0.0" fill="rgb(86, 85, 100)" opacity="0.9903118"/>
    <path d="M 172.96031188964844 180.46348571777344 C 170.8988037109375 189.38763427734375 165.38694763183594 194.89715576171875 157.3834228515625 196.94728088378906 C 148.62765502929688 194.88449096679688 143.11874389648438 189.37109375 141.05747985839844 180.67098999023438 C 143.1036834716797 172.60830688476562 148.60508728027344 167.095947265625 157.48297119140625 165.0452880859375 C 165.40574645996094 167.08824157714844 170.91586303710938 172.59251403808594 172.96031188964844 180.46348571777344" stroke-width="0.0" fill="rgb(7, 17, 41)" opacity="0.9921111"/>
    <path d="M 270.4587097167969 313.5186767578125 C 268.78045654296875 321.32421875 263.3605651855469 326.8886413574219 255.7222137451172 328.9372253417969 C 247.82534790039062 326.66607666015625 242.8524169921875 319.7738037109375 240.8793487548828 312.23272705078125 C 242.27134704589844 305.7113037109375 247.6876678466797 300.1939392089844 255.0650634765625 298.09149169921875 C 262.4851989746094 300.0255432128906 267.96405029296875 305.517822265625 270.4587097167969 313.5186767578125" stroke-width="0.0" fill="rgb(22, 40, 72)" opacity="0.99011725"/>
    <path d="M 243.95448303222656 158.52061462402344 C 241.891357421875 167.3625030517578 236.30569458007812 172.6178436279297 228.79884338378906 173.03968811035156 C 221.3873748779297 171.08175659179688 215.91651916503906 165.6132354736328 213.64218139648438 158.0750274658203 C 214.0869140625 150.59286499023438 219.5932159423828 145.08766174316406 228.17510986328125 143.03643798828125 C 236.40489196777344 145.08660888671875 241.9096221923828 150.59666442871094 243.95448303222656 158.52061462402344" stroke-width="0.0" fill="rgb(2, 2, 2)" opacity="0.9900105"/>
    <path d="M 299.0721740722656 199.11680603027344 C 297.175537109375 206.72679138183594 291.9080810546875 212.61135864257812 283.7945251464844 214.92250061035156 C 276.07684326171875 212.6453399658203 270.9316711425781 206.68344116210938 268.9305419921875 198.90699768066406 C 270.80010986328125 191.30418395996094 276.31024169921875 185.81951904296875 283.92279052734375 183.88088989257812 C 291.4913635253906 186.0068817138672 296.9468994140625 191.52227783203125 299.0721740722656 199.11680603027344" stroke-width="0.0" fill="rgb(11, 25, 49)" opacity="1.0"/>
    <path d="M 232.9297637939453 74.19937133789062 C 230.3758544921875 82.69153594970703 224.593994140625 88.11482238769531 217.0952911376953 90.19810485839844 C 209.4667510986328 88.01677703857422 203.96133422851562 82.53978729248047 202.4726104736328 75.34313201904297 C 204.55075073242188 68.08934020996094 210.19921875 62.8199577331543 217.65106201171875 60.94739532470703 C 225.2676544189453 61.479087829589844 230.8807373046875 66.65841674804688 232.9297637939453 74.19937133789062" stroke-width="0.0" fill="rgb(14, 28, 47)" opacity="0.99004483"/>
    <path d="M 273.739990234375 96.65644073486328 C 271.7893981933594 104.2364273071289 266.16925048828125 109.56803894042969 258.3165283203125 110.41874694824219 C 250.36293029785156 108.79791259765625 244.43243408203125 103.8857192993164 242.32437133789062 96.34699249267578 C 244.63450622558594 88.20775604248047 250.2698516845703 82.8322982788086 257.9455871582031 80.965576171875 C 265.4885559082031 83.02047729492188 270.9724426269531 88.51348876953125 273.739990234375 96.65644073486328" stroke-width="0.0" fill="rgb(5, 13, 45)" opacity="0.9902558"/>
    <path d="M 269.4685974121094 76.68994903564453 C 266.99981689453125 84.50821685791016 261.5068359375 89.99495697021484 253.60397338867188 92.4251937866211 C 245.86727905273438 90.63154602050781 240.2416229248047 85.18183135986328 238.0505828857422 76.22950744628906 C 240.09205627441406 68.60566711425781 245.6099090576172 63.101558685302734 253.31289672851562 61.0514030456543 C 262.12103271484375 63.23655700683594 267.4554443359375 69.02191162109375 269.4685974121094 76.68994903564453" stroke-width="0.0" fill="rgb(0, 2, 22)" opacity="1.0"/>
    <path d="M 351.58502197265625 125.54084014892578 C 349.755615234375 133.25880432128906 344.2615051269531 138.76409912109375 336.55963134765625 140.60018920898438 C 328.4744567871094 138.0067596435547 322.9498291015625 132.53829956054688 320.8509216308594 125.03667449951172 C 323.0665588378906 117.56144714355469 328.5615234375 112.0697021484375 336.0184020996094 110.0504379272461 C 343.4738464355469 112.02859497070312 348.9420166015625 117.53521728515625 351.58502197265625 125.54084014892578" stroke-width="0.0" fill="rgb(5, 8, 23)" opacity="0.9902272"/>
    <path d="M 198.80763244628906 89.41569519042969 C 195.94940185546875 97.45919036865234 190.45358276367188 102.9306869506836 182.9168243408203 104.9149169921875 C 175.837158203125 102.95394897460938 170.80294799804688 96.88426208496094 168.95571899414062 90.62837219238281 C 170.91465759277344 83.38532257080078 176.3863983154297 77.91738891601562 183.60804748535156 75.96052551269531 C 189.72108459472656 77.87091827392578 196.0760040283203 83.13011932373047 198.80763244628906 89.41569519042969" stroke-width="0.0" fill="rgb(12, 24, 54)" opacity="0.9900131"/>
  </g>
</svg>
