<?xml version="1.0" ?>
<svg xmlns="http://www.w3.org/2000/svg" version="1.1" width="600" height="600">
  <defs/>
  <g>
    <path d="M 49.999996185302734 292.0 C 47.990291595458984 299.499755859375 42.49936294555664 304.9889831542969 34.608577728271484 307.5494689941406 C 26.928354263305664 305.56439208984375 21.28914451599121 300.1282958984375 19.23105812072754 292.6225280761719 C 22.009618759155273 284.5 27.5 279.0096130371094 35.0 277.0 C 42.5 279.0096130371094 47.990379333496094 284.5 49.999996185302734 292.0" stroke-width="0.0" fill="rgb(249, 226, 190)" opacity="1.0"/>
    <path d="M 253.0 76.0 C 250.99038696289062 83.5 245.5 88.9903793334961 238.3390350341797 90.38909149169922 C 230.58164978027344 88.77932739257812 225.0152130126953 83.48357391357422 222.69239807128906 75.68190002441406 C 224.41017150878906 67.87557220458984 229.84657287597656 62.31793212890625 237.5232391357422 60.458961486816406 C 245.5 63.009620666503906 250.99038696289062 68.5 253.0 76.0" stroke-width="0.0" fill="rgb(119, 43, 25)" opacity="0.9901688"/>
    <path d="M 422.59356689453125 214.30471801757812 C 420.6094055175781 222.12896728515625 415.17498779296875 227.73463439941406 406.66876220703125 229.81719970703125 C 398.88751220703125 227.71316528320312 393.5332336425781 222.02137756347656 391.51116943359375 214.01353454589844 C 393.80755615234375 206.4080047607422 399.4751281738281 201.02598571777344 407.58856201171875 198.3665008544922 C 415.06231689453125 200.3474578857422 420.4432373046875 206.0097198486328 422.59356689453125 214.30471801757812" stroke-width="0.0" fill="rgb(245, 226, 191)" opacity="1.0"/>
    <path d="M 23.78360366821289 408.5167541503906 C 21.828081130981445 416.32147216796875 16.3331298828125 421.8573303222656 7.553225517272949 423.94256591796875 C -0.2751964330673218 421.8504943847656 -5.553977966308594 416.1708679199219 -7.25404691696167 408.0752258300781 C -5.460618019104004 399.9281921386719 -0.17436838150024414 394.2369384765625 8.445577621459961 392.0997314453125 C 16.32166290283203 394.1554870605469 21.79795265197754 399.6948547363281 23.78360366821289 408.5167541503906" stroke-width="0.0" fill="rgb(193, 12, 11)" opacity="0.9900476"/>
    <path d="M 259.9999694824219 115.00005340576172 C 257.9903869628906 122.5 252.5 127.9903793334961 245.0 130.0 C 237.5000457763672 127.99036407470703 232.01296997070312 122.4990463256836 229.1289520263672 114.23252868652344 C 231.18338012695312 106.7593994140625 236.8643798828125 101.53639221191406 245.10049438476562 100.72876739501953 C 252.4762725830078 102.0817642211914 257.98931884765625 107.50332641601562 259.9999694824219 115.00005340576172" stroke-width="0.0" fill="rgb(218, 109, 76)" opacity="0.99015814"/>
    <path d="M 230.54515075683594 73.50887298583984 C 228.01182556152344 81.50796508789062 222.5021209716797 86.99117279052734 214.655029296875 89.33332824707031 C 206.8365020751953 87.62271881103516 201.24993896484375 82.20536041259766 199.110595703125 73.42290496826172 C 201.15365600585938 65.66571807861328 206.65963745117188 60.13892364501953 215.1334686279297 58.06061935424805 C 223.31101989746094 60.145938873291016 228.73916625976562 65.73133850097656 230.54515075683594 73.50887298583984" stroke-width="0.0" fill="rgb(169, 29, 17)" opacity="0.9900857"/>
    <path d="M 606.2755737304688 136.11492919921875 C 604.5726318359375 144.1726531982422 599.2620239257812 149.83238220214844 590.4093627929688 151.9456024169922 C 582.6361083984375 149.88063049316406 577.1232299804688 144.3623046875 575.0623779296875 136.4340057373047 C 577.156982421875 127.67664337158203 582.6744995117188 122.15261840820312 590.8270263671875 120.06963348388672 C 599.2073364257812 122.19834899902344 604.4671020507812 127.91096496582031 606.2755737304688 136.11492919921875" stroke-width="0.0" fill="rgb(165, 43, 20)" opacity="0.99013776"/>
    <path d="M 117.0 23.0 C 114.9903793334961 30.5 109.5 35.990379333496094 102.0 38.0 C 94.5 35.990379333496094 89.0096206665039 30.5 86.85387420654297 22.80653953552246 C 88.50350189208984 14.892401695251465 93.78770446777344 9.201687812805176 101.2695541381836 7.161660194396973 C 109.49922180175781 10.01239013671875 114.99037170410156 15.500035285949707 117.0 23.0" stroke-width="0.0" fill="rgb(213, 50, 37)" opacity="1.0"/>
    <path d="M 23.614694595336914 328.78228759765625 C 21.84197998046875 336.33099365234375 16.333642959594727 341.8489990234375 7.525312900543213 343.935791015625 C -0.24344390630722046 341.8302917480469 -5.511655807495117 336.1289978027344 -7.252477645874023 328.0184020996094 C -5.472917079925537 319.9306945800781 -0.1462535858154297 314.28546142578125 8.605132102966309 312.1248779296875 C 15.979223251342773 314.2796325683594 20.41840362548828 320.69879150390625 23.614694595336914 328.78228759765625" stroke-width="0.0" fill="rgb(113, 15, 8)" opacity="0.9900334"/>
    <path d="M 15.230670928955078 368.28515625 C 13.608133316040039 376.1986083984375 8.279853820800781 381.8437194824219 0.7928037047386169 383.88623046875 C -7.5 380.9903869628906 -12.990381240844727 375.5 -15.0 368.0 C -12.990381240844727 360.5 -7.5 355.0096130371094 -0.004885727073997259 353.0165710449219 C 7.499665260314941 355.0107421875 12.990370750427246 360.5000305175781 15.230670928955078 368.28515625" stroke-width="0.0" fill="rgb(144, 14, 7)" opacity="0.9908107"/>
    <path d="M 60.6414794921875 296.3429260253906 C 58.61912155151367 303.9891052246094 52.8619384765625 309.25238037109375 44.95070266723633 311.2474365234375 C 37.44462966918945 309.1361083984375 32.045528411865234 303.4984436035156 30.043031692504883 295.9754333496094 C 32.00960159301758 288.49993896484375 37.49899673461914 283.006103515625 45.057350158691406 281.0523681640625 C 52.92953872680664 282.6395263671875 58.5504264831543 288.0105895996094 60.6414794921875 296.3429260253906" stroke-width="0.0" fill="rgb(248, 237, 203)" opacity="1.0"/>
    <path d="M 428.8604736328125 14.352071762084961 C 426.81365966796875 23.323877334594727 421.34197998046875 28.864221572875977 413.7554016113281 30.8861083984375 C 405.4192199707031 28.196977615356445 400.003662109375 22.51729393005371 397.9751892089844 14.953071594238281 C 399.77618408203125 7.119623184204102 404.9261474609375 1.2689833641052246 413.683349609375 -0.9390835762023926 C 421.3441162109375 1.1321862936019897 426.8569030761719 6.66047477722168 428.8604736328125 14.352071762084961" stroke-width="0.0" fill="rgb(192, 103, 90)" opacity="1.0"/>
    <path d="M 522.3657836914062 33.76344680786133 C 519.7632446289062 41.32297134399414 514.3919677734375 47.01367950439453 506.7335205078125 48.7466926574707 C 499.177001953125 47.48048400878906 494.0168151855469 41.66640853881836 492.0024108886719 33.69643783569336 C 493.6811828613281 26.242717742919922 499.2510681152344 20.700969696044922 506.6927185058594 18.78133201599121 C 514.4092407226562 21.177236557006836 520.1828002929688 26.47207260131836 522.3657836914062 33.76344680786133" stroke-width="0.0" fill="rgb(220, 219, 228)" opacity="0.99325866"/>
    <path d="M 21.013015747070312 472.9798583984375 C 18.990381240844727 480.5 13.5 485.9903869628906 5.960719108581543 488.0637512207031 C -1.5436081886291504 486.06085205078125 -7.007108688354492 480.5274658203125 -9.008292198181152 472.99212646484375 C -7.049426555633545 465.3960876464844 -1.674269437789917 459.7303161621094 5.898879051208496 458.00689697265625 C 13.67231273651123 459.7730407714844 19.07495880126953 465.3748779296875 21.013015747070312 472.9798583984375" stroke-width="0.0" fill="rgb(244, 224, 192)" opacity="1.0"/>
    <path d="M 171.53306579589844 112.41062927246094 C 169.67079162597656 120.18565368652344 164.22047424316406 125.76734924316406 156.7499542236328 127.08465576171875 C 149.17942810058594 124.27902221679688 143.7454071044922 118.81095886230469 140.70999145507812 111.23995208740234 C 142.24859619140625 103.80435943603516 147.83555603027344 98.32817840576172 155.59214782714844 96.28783416748047 C 163.61581420898438 98.79161071777344 169.08184814453125 104.42559814453125 171.53306579589844 112.41062927246094" stroke-width="0.0" fill="rgb(218, 142, 83)" opacity="0.99004894"/>
    <path d="M 77.07530975341797 336.8749084472656 C 75.15784454345703 343.71630859375 69.75223541259766 349.2616271972656 62.54337692260742 351.5553894042969 C 55.50362777709961 349.98614501953125 50.01231002807617 344.4968566894531 48.00066375732422 336.99920654296875 C 50.009620666503906 329.5 55.5 324.0096130371094 62.46875 322.458984375 C 69.72114562988281 324.7933349609375 75.1568603515625 330.29638671875 77.07530975341797 336.8749084472656" stroke-width="0.0" fill="rgb(90, 84, 86)" opacity="0.9900171"/>
    <path d="M 65.2240982055664 318.4432067871094 C 63.386474609375 326.1090087890625 58.64585876464844 332.54620361328125 51.527076721191406 334.7075500488281 C 43.6161003112793 331.920654296875 38.316734313964844 326.3075256347656 36.53565979003906 318.80712890625 C 38.078514099121094 311.53814697265625 43.52323913574219 306.0271301269531 51.15869140625 303.8476257324219 C 58.961517333984375 305.61761474609375 64.6336898803711 310.9539489746094 65.2240982055664 318.4432067871094" stroke-width="0.0" fill="rgb(249, 243, 219)" opacity="0.99049604"/>
    <path d="M 316.5738220214844 193.319091796875 C 314.5619201660156 201.06149291992188 309.11614990234375 206.70249938964844 301.6317443847656 208.77951049804688 C 293.50128173828125 205.98609924316406 288.0096435546875 200.4998779296875 285.3424377441406 192.4665985107422 C 287.3196105957031 184.87876892089844 292.9084167480469 179.39901733398438 300.6057434082031 177.42921447753906 C 308.5127868652344 179.98565673828125 314.0608825683594 185.4735107421875 316.5738220214844 193.319091796875" stroke-width="0.0" fill="rgb(218, 167, 118)" opacity="1.0"/>
    <path d="M 136.9151611328125 50.78209686279297 C 134.8743896484375 58.34053421020508 129.30108642578125 63.75845718383789 121.62769317626953 64.18064880371094 C 114.08436584472656 62.35578918457031 108.57991790771484 56.93681335449219 106.61206817626953 49.57769012451172 C 108.00984191894531 42.50006103515625 113.5 37.009620666503906 121.0243911743164 34.98771286010742 C 128.7438507080078 36.87363052368164 134.58444213867188 42.0886344909668 136.9151611328125 50.78209686279297" stroke-width="0.0" fill="rgb(132, 35, 19)" opacity="0.99003094"/>
    <path d="M 410.90594482421875 189.12356567382812 C 408.6792907714844 196.9936981201172 402.7847595214844 202.14910888671875 395.028076171875 204.0142059326172 C 387.5 201.99038696289062 382.0096130371094 196.5 379.7070007324219 188.77662658691406 C 381.6540832519531 181.3311004638672 387.6534423828125 176.43809509277344 394.5625915527344 174.8430938720703 C 402.6162414550781 176.55775451660156 408.7344055175781 180.92889404296875 410.90594482421875 189.12356567382812" stroke-width="0.0" fill="rgb(242, 112, 95)" opacity="0.99017423"/>
    <path d="M 495.44171142578125 225.25863647460938 C 493.56085205078125 233.08349609375 488.12884521484375 238.69027709960938 480.54278564453125 240.66297912597656 C 472.5097961425781 237.98667907714844 467.09771728515625 232.46534729003906 464.5856628417969 224.61447143554688 C 466.5135803222656 217.00558471679688 471.91839599609375 211.30125427246094 480.0724182128906 209.1041259765625 C 488.09857177734375 211.27603149414062 493.337646484375 217.04116821289062 495.44171142578125 225.25863647460938" stroke-width="0.0" fill="rgb(236, 190, 123)" opacity="0.9909417"/>
    <path d="M 191.81622314453125 43.70016098022461 C 189.78646850585938 51.20111846923828 184.09774780273438 56.482479095458984 176.1413116455078 58.15576171875 C 168.11376953125 56.23738479614258 162.28822326660156 51.06182861328125 160.0826873779297 42.36669158935547 C 162.15199279785156 34.70140075683594 167.75265502929688 29.29090690612793 175.54443359375 27.517595291137695 C 183.50006103515625 30.009601593017578 188.9927215576172 35.49930953979492 191.81622314453125 43.70016098022461" stroke-width="0.0" fill="rgb(221, 119, 112)" opacity="1.0"/>
    <path d="M 551.8450317382812 237.75643920898438 C 549.8435668945312 245.2951202392578 544.23486328125 250.661865234375 536.3478393554688 252.2983856201172 C 528.5 249.99038696289062 523.0096435546875 244.5 521.1193237304688 237.11766052246094 C 523.2943115234375 229.78526306152344 528.7858276367188 224.295654296875 536.1159057617188 222.11048889160156 C 543.50244140625 224.0086669921875 549.010009765625 229.49224853515625 551.8450317382812 237.75643920898438" stroke-width="0.0" fill="rgb(171, 137, 97)" opacity="0.99171793"/>
    <path d="M 558.8364868164062 75.9459457397461 C 556.51904296875 83.84951782226562 550.70166015625 89.10603332519531 542.685791015625 91.3208236694336 C 534.8388671875 89.60725402832031 529.214111328125 84.22339630126953 527.1034545898438 75.54583740234375 C 529.1387329101562 67.64674377441406 534.6446533203125 62.133140563964844 542.2276000976562 60.16205978393555 C 550.5520629882812 62.998069763183594 556.3889770507812 68.30908203125 558.8364868164062 75.9459457397461" stroke-width="0.0" fill="rgb(226, 75, 55)" opacity="1.0"/>
    <path d="M 491.5429382324219 31.299049377441406 C 489.3897705078125 38.909358978271484 483.9678649902344 44.55596160888672 475.4991455078125 46.81330490112305 C 467.77490234375 44.78141403198242 462.4041442871094 39.163841247558594 460.7397766113281 31.29642677307129 C 463.01324462890625 23.50685691833496 468.512939453125 18.033910751342773 476.0154113769531 16.029098510742188 C 483.49639892578125 18.010879516601562 488.95458984375 23.51348114013672 491.5429382324219 31.299049377441406" stroke-width="0.0" fill="rgb(210, 187, 178)" opacity="1.0"/>
    <path d="M 488.72711181640625 152.3184051513672 C 486.70947265625 160.15261840820312 481.1116943359375 165.59573364257812 472.4526062011719 167.81192016601562 C 464.75592041015625 165.79220581054688 459.2339782714844 160.23153686523438 457.1557922363281 152.53369140625 C 459.4117736816406 144.1019287109375 465.3880310058594 139.27645874023438 472.99041748046875 137.641845703125 C 480.5658264160156 139.3114013671875 486.55926513671875 144.13165283203125 488.72711181640625 152.3184051513672" stroke-width="0.0" fill="rgb(249, 185, 154)" opacity="1.0"/>
    <path d="M 55.31124496459961 435.90460205078125 C 53.42660140991211 443.00982666015625 48.06583023071289 448.60650634765625 40.47529220581055 451.6555480957031 C 32.86134719848633 449.6711730957031 27.314794540405273 444.14361572265625 25.148929595947266 435.738037109375 C 27.25575065612793 427.80548095703125 32.821285247802734 422.29510498046875 40.445064544677734 420.3276672363281 C 48.35638427734375 423.0975036621094 53.60523223876953 428.7427062988281 55.31124496459961 435.90460205078125" stroke-width="0.0" fill="rgb(250, 191, 123)" opacity="0.9902492"/>
    <path d="M 188.40447998046875 92.5411605834961 C 186.90716552734375 100.47370910644531 181.49745178222656 105.98960876464844 173.99996948242188 107.99999237060547 C 166.50009155273438 105.99034881591797 161.01283264160156 100.49903869628906 158.1396026611328 92.2330551147461 C 160.1615753173828 84.7076187133789 165.75906372070312 79.31248474121094 173.623779296875 77.62462615966797 C 181.8363800048828 79.78997802734375 187.58319091796875 85.0392074584961 188.40447998046875 92.5411605834961" stroke-width="0.0" fill="rgb(100, 7, 4)" opacity="0.99110234"/>
    <path d="M 257.3498229980469 145.41586303710938 C 256.3800048828125 152.76576232910156 250.7391357421875 158.3081512451172 242.85227966308594 160.5986328125 C 235.03018188476562 158.4951629638672 229.4008331298828 153.0092315673828 227.3965606689453 145.5355224609375 C 229.9578094482422 137.46986389160156 235.4832000732422 132.001708984375 242.69973754882812 130.33767700195312 C 250.0009002685547 132.5391082763672 255.60589599609375 137.96006774902344 257.3498229980469 145.41586303710938" stroke-width="0.0" fill="rgb(248, 236, 200)" opacity="1.0"/>
    <path d="M 343.642578125 164.44503784179688 C 340.9903869628906 172.5 335.5 177.99038696289062 328.0 180.0 C 320.5 177.99038696289062 315.0096130371094 172.5 312.9215087890625 164.88758850097656 C 314.644775390625 157.02162170410156 319.88848876953125 151.27003479003906 327.789794921875 149.12281799316406 C 336.2214050292969 151.24728393554688 341.7333984375 156.7853240966797 343.642578125 164.44503784179688" stroke-width="0.0" fill="rgb(244, 162, 58)" opacity="1.0"/>
    <path d="M 385.0390625 187.85696411132812 C 382.7209777832031 195.08505249023438 376.90887451171875 200.24514770507812 370.35992431640625 202.06008911132812 C 363.2061462402344 200.17974853515625 357.09539794921875 194.9556121826172 354.0989685058594 187.2705841064453 C 356.1904602050781 179.78285217285156 361.8527526855469 174.32838439941406 370.2944641113281 172.09024047851562 C 377.994140625 174.33168029785156 383.2707824707031 180.16990661621094 385.0390625 187.85696411132812" stroke-width="0.0" fill="rgb(115, 8, 4)" opacity="0.99002296"/>
    <path d="M 203.04098510742188 20.94655418395996 C 200.99038696289062 28.5 195.5 33.990379333496094 188.00021362304688 35.99992752075195 C 180.5088653564453 33.987335205078125 175.1334686279297 28.455028533935547 173.49905395507812 20.76007652282715 C 175.00961303710938 13.5 180.5 8.009618759155273 188.17398071289062 5.781096458435059 C 195.76988220214844 7.6804633140563965 201.16883850097656 13.27660846710205 203.04098510742188 20.94655418395996" stroke-width="0.0" fill="rgb(139, 139, 110)" opacity="0.9906592"/>
    <path d="M 275.9996032714844 101.98684692382812 C 273.9540100097656 109.45283508300781 268.4407653808594 114.9140625 260.9720764160156 116.8902816772461 C 253.2050323486328 115.13835144042969 247.42393493652344 109.93820190429688 245.26644897460938 102.47108459472656 C 247.9574737548828 94.48271179199219 253.49725341796875 89.00872802734375 261.0000305175781 86.99994659423828 C 268.5010070800781 89.00914764404297 273.9950866699219 94.49776458740234 275.9996032714844 101.98684692382812" stroke-width="0.0" fill="rgb(206, 187, 199)" opacity="1.0"/>
    <path d="M 264.7937316894531 65.32958221435547 C 261.9903869628906 73.5 256.5 78.9903793334961 249.01449584960938 80.97747802734375 C 241.47625732421875 78.97425842285156 235.84580993652344 73.57958221435547 233.4040069580078 65.6220932006836 C 235.350830078125 57.82413864135742 240.75172424316406 52.17556381225586 248.6865997314453 50.06446075439453 C 257.2728576660156 52.18095779418945 262.7768859863281 57.745849609375 264.7937316894531 65.32958221435547" stroke-width="0.0" fill="rgb(171, 52, 19)" opacity="0.9900883"/>
    <path d="M 296.8636474609375 31.27255630493164 C 294.1129455566406 39.546630859375 288.5111083984375 44.994346618652344 280.7456359863281 47.2067985534668 C 272.8428649902344 45.566654205322266 267.1877746582031 40.241329193115234 265.0751037597656 31.954471588134766 C 267.1864318847656 23.726764678955078 272.7354736328125 18.206270217895508 280.56024169921875 16.11216926574707 C 289.2231140136719 18.27625274658203 294.8135986328125 23.73960304260254 296.8636474609375 31.27255630493164" stroke-width="0.0" fill="rgb(227, 120, 89)" opacity="1.0"/>
    <path d="M 356.8142395019531 188.58212280273438 C 354.45404052734375 196.7563934326172 348.6022644042969 202.03472900390625 340.991943359375 203.9372100830078 C 333.26739501953125 202.1473846435547 327.5318603515625 196.83877563476562 325.39447021484375 189.34597778320312 C 327.9421691894531 181.4720458984375 333.4906005859375 176.00564575195312 341.2372741699219 173.79856872558594 C 349.1122741699219 175.46856689453125 354.7545166015625 180.8138427734375 356.8142395019531 188.58212280273438" stroke-width="0.0" fill="rgb(216, 139, 86)" opacity="1.0"/>
    <path d="M 223.78323364257812 16.43378257751465 C 221.6405487060547 25.13290786743164 216.16702270507812 30.733009338378906 208.46397399902344 32.854736328125 C 200.13172912597656 30.54388427734375 194.89187622070312 24.709917068481445 193.35784912109375 17.085784912109375 C 194.73744201660156 9.065191268920898 199.95187377929688 3.356092929840088 207.5923309326172 2.3474574089050293 C 216.22866821289062 3.3110785484313965 221.79617309570312 8.73720932006836 223.78323364257812 16.43378257751465" stroke-width="0.0" fill="rgb(68, 63, 56)" opacity="0.99002403"/>
    <path d="M 400.5517883300781 84.51937866210938 C 397.9903869628906 92.50003051757812 392.50054931640625 97.99232482910156 384.35595703125 100.78925323486328 C 376.8647155761719 98.7282943725586 371.5377197265625 93.04193115234375 369.81536865234375 85.1922607421875 C 371.95526123046875 77.39318084716797 377.27105712890625 71.60452270507812 385.66387939453125 69.14765167236328 C 393.2182312011719 71.22525024414062 398.6894226074219 76.81468200683594 400.5517883300781 84.51937866210938" stroke-width="0.0" fill="rgb(246, 169, 135)" opacity="1.0"/>
    <path d="M 236.19139099121094 87.35386657714844 C 234.23077392578125 94.89122009277344 229.12008666992188 101.02217864990234 221.42605590820312 103.65904998779297 C 213.8124542236328 101.74427032470703 208.34002685546875 96.15391540527344 206.77969360351562 88.64105987548828 C 209.41537475585938 80.83599853515625 214.8418426513672 75.42855072021484 221.78793334960938 73.72738647460938 C 229.0630340576172 75.54751586914062 234.641357421875 80.87226104736328 236.19139099121094 87.35386657714844" stroke-width="0.0" fill="rgb(75, 7, 2)" opacity="0.9900176"/>
    <path d="M 466.8787536621094 45.47315216064453 C 464.499755859375 53.80116271972656 458.66400146484375 59.162933349609375 450.64215087890625 61.06361389160156 C 442.8381042480469 59.648406982421875 437.25250244140625 54.197086334228516 435.16082763671875 46.25502395629883 C 437.289794921875 37.84038162231445 442.8891906738281 32.44108581542969 450.74560546875 30.733375549316406 C 458.8542785644531 32.796470642089844 464.7092590332031 37.95339584350586 466.8787536621094 45.47315216064453" stroke-width="0.0" fill="rgb(157, 143, 99)" opacity="0.99014866"/>
    <path d="M 298.30548095703125 65.43509674072266 C 297.4632568359375 72.95440673828125 291.9190673828125 78.34394073486328 284.1355285644531 79.88446044921875 C 276.16314697265625 78.17127227783203 270.2878112792969 73.04293060302734 268.09869384765625 64.63761901855469 C 270.1602478027344 56.68470764160156 275.7109069824219 51.23954772949219 283.3948974609375 49.64154815673828 C 290.8973083496094 52.604644775390625 296.3775329589844 58.10834503173828 298.30548095703125 65.43509674072266" stroke-width="0.0" fill="rgb(81, 18, 11)" opacity="0.9900162"/>
    <path d="M 408.8513488769531 195.60960388183594 C 406.6493835449219 202.786376953125 400.0919189453125 207.34341430664062 392.8279113769531 209.1344757080078 C 386.12127685546875 207.29931640625 380.5116882324219 201.9373779296875 378.45562744140625 194.8846435546875 C 379.98846435546875 187.42681884765625 385.44708251953125 182.06044006347656 393.2386169433594 180.13189697265625 C 400.7355651855469 181.7404327392578 406.2953796386719 187.25326538085938 408.8513488769531 195.60960388183594" stroke-width="0.0" fill="rgb(233, 68, 41)" opacity="0.9900543"/>
    <path d="M 116.38671875 37.33583450317383 C 114.56706237792969 45.07868194580078 109.1203842163086 50.68437576293945 101.56688690185547 52.70261001586914 C 93.49564361572266 50.001861572265625 88.00919342041016 44.501224517822266 85.99999237060547 37.000030517578125 C 88.0096206665039 29.5 93.5 24.009618759155273 101.0 22.0 C 108.5 24.009618759155273 113.9903793334961 29.5 116.38671875 37.33583450317383" stroke-width="0.0" fill="rgb(244, 185, 77)" opacity="1.0"/>
    <path d="M 191.77093505859375 74.6972427368164 C 189.659423828125 82.03712463378906 183.9220733642578 87.3349838256836 175.9746551513672 89.18087768554688 C 168.0067138671875 87.39191436767578 162.33143615722656 82.08319091796875 160.53904724121094 74.28639221191406 C 162.4874267578125 66.1293716430664 168.2555694580078 60.85545349121094 175.85108947753906 59.07493591308594 C 183.06130981445312 61.368873596191406 188.4119110107422 67.00684356689453 191.77093505859375 74.6972427368164" stroke-width="0.0" fill="rgb(87, 18, 18)" opacity="0.9900476"/>
    <path d="M 135.95501708984375 11.520393371582031 C 133.8510284423828 20.28022003173828 128.18431091308594 25.577350616455078 120.24886322021484 27.19258689880371 C 112.5 24.990381240844727 107.0096206665039 19.5 104.22437286376953 11.285673141479492 C 106.15373229980469 3.664766311645508 111.67476654052734 -1.8164912462234497 119.47265625 -3.7085700035095215 C 128.2254180908203 -1.6580054759979248 133.8623809814453 3.698857545852661 135.95501708984375 11.520393371582031" stroke-width="0.0" fill="rgb(91, 9, 3)" opacity="0.9900615"/>
    <path d="M 331.95965576171875 175.95689392089844 C 329.8664245605469 183.37039184570312 324.3721618652344 188.874755859375 317.12060546875 190.74972534179688 C 309.7048034667969 188.75 304.2308349609375 183.30126953125 302.2304382324219 175.86549377441406 C 304.0096130371094 168.5 309.5 163.00961303710938 317.0085754394531 160.981689453125 C 324.50537109375 162.99832153320312 329.9915771484375 168.49752807617188 331.95965576171875 175.95689392089844" stroke-width="0.0" fill="rgb(238, 157, 58)" opacity="0.99009156"/>
    <path d="M 189.9281005859375 57.704524993896484 C 187.680419921875 65.8687973022461 181.21929931640625 70.4525375366211 173.47166442871094 72.2947998046875 C 165.85391235351562 71.5614242553711 160.2015380859375 66.2269287109375 158.0657196044922 57.38838577270508 C 160.15927124023438 49.72669219970703 165.80511474609375 44.37133026123047 173.7776641845703 42.56413269042969 C 182.021240234375 44.53807067871094 187.7635040283203 49.85649871826172 189.9281005859375 57.704524993896484" stroke-width="0.0" fill="rgb(202, 98, 44)" opacity="1.0"/>
    <path d="M 501.0440979003906 15.396563529968262 C 498.2061462402344 22.72538185119629 492.70892333984375 28.16101837158203 485.4594421386719 30.089889526367188 C 478.9541931152344 28.333919525146484 472.74658203125 23.35555076599121 470.26934814453125 15.451807022094727 C 472.28076171875 7.779566764831543 477.7469482421875 2.197862148284912 485.3553466796875 0.11515557765960693 C 493.6302795410156 2.705615520477295 499.0439758300781 8.457530975341797 501.0440979003906 15.396563529968262" stroke-width="0.0" fill="rgb(226, 74, 39)" opacity="0.9900367"/>
    <path d="M 483.8529357910156 242.796142578125 C 481.8195495605469 250.202880859375 475.8243103027344 254.3715362548828 467.53076171875 256.0916442871094 C 459.7918701171875 255.37326049804688 454.1283874511719 250.3146209716797 452.07635498046875 242.8297576904297 C 455.3841247558594 235.04745483398438 461.1456298828125 229.740478515625 468.07470703125 227.88682556152344 C 474.8706359863281 229.71115112304688 480.37652587890625 235.09742736816406 483.8529357910156 242.796142578125" stroke-width="0.0" fill="rgb(97, 77, 59)" opacity="0.9900416"/>
    <path d="M 370.8763732910156 166.4911651611328 C 368.74468994140625 174.13714599609375 363.0705261230469 179.60708618164062 354.6791687011719 181.88461303710938 C 347.11456298828125 179.596435546875 341.92254638671875 173.67999267578125 339.45330810546875 165.5155487060547 C 341.2935485839844 157.7876739501953 346.7605895996094 152.2189483642578 355.0422668457031 150.10963439941406 C 363.2096252441406 152.2315673828125 368.6980285644531 157.81948852539062 370.8763732910156 166.4911651611328" stroke-width="0.0" fill="rgb(252, 125, 96)" opacity="1.0"/>
    <path d="M 338.4742126464844 3.2573423385620117 C 336.38665771484375 10.794562339782715 330.6393737792969 15.787093162536621 323.1230773925781 17.13726806640625 C 315.6788635253906 15.659330368041992 309.7172546386719 10.550982475280762 307.7896728515625 3.326951503753662 C 310.1044616699219 -4.4614996910095215 315.5118103027344 -9.985699653625488 323.0022277832031 -12.000480651855469 C 330.5385437011719 -10.006053924560547 336.20648193359375 -4.6022515296936035 338.4742126464844 3.2573423385620117" stroke-width="0.0" fill="rgb(244, 246, 243)" opacity="1.0"/>
    <path d="M 140.9193878173828 33.44892883300781 C 138.71820068359375 42.099124908447266 132.961669921875 47.30451583862305 125.07037353515625 48.51255798339844 C 117.45752716064453 47.00703048706055 112.1491928100586 41.489402770996094 110.21935272216797 33.85587692260742 C 111.88456726074219 26.298337936401367 117.17439270019531 20.525074005126953 125.47362518310547 18.20582389831543 C 133.3116455078125 20.195951461791992 138.8555908203125 25.66942024230957 140.9193878173828 33.44892883300781" stroke-width="0.0" fill="rgb(168, 62, 45)" opacity="1.0"/>
    <path d="M 29.148204803466797 355.3546447753906 C 27.384532928466797 363.0880126953125 22.266328811645508 368.858642578125 14.968932151794434 371.0141906738281 C 7.567317485809326 368.9663391113281 2.1966800689697266 363.38323974609375 -0.7728971242904663 355.2567443847656 C 1.1420917510986328 347.6455383300781 6.6395721435546875 342.1260986328125 14.628236770629883 340.0628356933594 C 23.261985778808594 342.1838073730469 28.6710205078125 347.78887939453125 29.148204803466797 355.3546447753906" stroke-width="0.0" fill="rgb(195, 35, 23)" opacity="0.9901198"/>
    <path d="M 251.7686004638672 128.66705322265625 C 249.7992706298828 136.22647094726562 244.04971313476562 140.59030151367188 235.97547912597656 142.09962463378906 C 229.25979614257812 140.211669921875 223.81521606445312 134.7299041748047 220.17648315429688 127.1342544555664 C 222.1304168701172 119.66026306152344 227.68325805664062 114.1898193359375 235.28662109375 112.50797271728516 C 243.17628479003906 115.49264526367188 249.0146942138672 120.665283203125 251.7686004638672 128.66705322265625" stroke-width="0.0" fill="rgb(136, 16, 2)" opacity="0.99002504"/>
    <path d="M 520.6976928710938 214.41514587402344 C 518.0206909179688 222.52088928222656 512.5530395507812 228.12527465820312 504.99114990234375 230.310791015625 C 497.29095458984375 228.25914001464844 491.8258972167969 222.68148803710938 489.2810974121094 214.49697875976562 C 491.3210144042969 206.84243774414062 496.8206787109375 201.2659912109375 504.9159851074219 199.17874145507812 C 513.2650756835938 201.21202087402344 518.7557983398438 206.74652099609375 520.6976928710938 214.41514587402344" stroke-width="0.0" fill="rgb(248, 232, 134)" opacity="1.0"/>
    <path d="M 299.8550109863281 137.60955810546875 C 297.787353515625 146.28805541992188 292.3027038574219 151.8263397216797 284.6969299316406 153.77239990234375 C 276.5 150.99038696289062 271.0096130371094 145.5 268.9328918457031 137.8969268798828 C 270.6563415527344 130.0264434814453 275.90325927734375 124.29356384277344 283.7150573730469 122.20062255859375 C 292.1936340332031 124.29396057128906 297.7685546875 129.7825469970703 299.8550109863281 137.60955810546875" stroke-width="0.0" fill="rgb(99, 3, 2)" opacity="0.9900798"/>
    <path d="M 558.4075927734375 151.37364196777344 C 556.4934692382812 159.14654541015625 551.3448486328125 165.19024658203125 544.0780639648438 166.31932067871094 C 535.78759765625 165.62847900390625 530.2069702148438 160.2592010498047 528.2820434570312 152.63681030273438 C 530.8297119140625 144.20309448242188 536.0401611328125 138.379638671875 544.55029296875 136.12876892089844 C 552.282470703125 138.19039916992188 557.7568359375 143.73574829101562 558.4075927734375 151.37364196777344" stroke-width="0.0" fill="rgb(184, 46, 39)" opacity="0.99002784"/>
    <path d="M 500.8153381347656 114.57127380371094 C 498.6808166503906 122.11017608642578 493.07373046875 127.57840728759766 485.34588623046875 129.38323974609375 C 477.5 126.9903793334961 472.0096130371094 121.5 470.0 114.0 C 472.0096130371094 106.5 477.5 101.0096206665039 485.0023193359375 98.9990234375 C 492.5471496582031 100.98983001708984 498.2574462890625 106.37202453613281 500.8153381347656 114.57127380371094" stroke-width="0.0" fill="rgb(125, 35, 30)" opacity="0.990483"/>
    <path d="M 38.10337448120117 374.9871826171875 C 36.06061935424805 382.64959716796875 30.766902923583984 388.4128723144531 22.65159797668457 390.7723693847656 C 14.893067359924316 388.6388244628906 9.344249725341797 383.1146240234375 8.67424201965332 375.6116638183594 C 10.669828414916992 368.11328125 16.096376419067383 362.6202087402344 23.53345489501953 359.4726257324219 C 30.628469467163086 361.6828308105469 36.02388381958008 367.4782409667969 38.10337448120117 374.9871826171875" stroke-width="0.0" fill="rgb(244, 211, 134)" opacity="0.9900869"/>
    <path d="M 431.7172546386719 106.43303680419922 C 429.5270690917969 115.0740737915039 424.1401062011719 120.71623229980469 416.36529541015625 122.8497314453125 C 408.2180480957031 120.48941040039062 402.9621887207031 114.61178588867188 400.99566650390625 106.99980163574219 C 402.9599609375 99.38277435302734 408.198974609375 93.48320007324219 416.5829772949219 91.10519409179688 C 424.2879333496094 93.18035888671875 429.77618408203125 98.72859191894531 431.7172546386719 106.43303680419922" stroke-width="0.0" fill="rgb(163, 162, 95)" opacity="1.0"/>
    <path d="M 274.4028625488281 77.58898162841797 C 271.9903869628906 85.5 266.5 90.9903793334961 259.0 93.0 C 251.5 90.9903793334961 246.00961303710938 85.5 244.02566528320312 78.02189636230469 C 246.0664825439453 70.55414581298828 251.5662841796875 65.10871887207031 259.6265563964844 62.35391616821289 C 267.2502136230469 64.21952819824219 272.6827087402344 69.78144073486328 274.4028625488281 77.58898162841797" stroke-width="0.0" fill="rgb(176, 19, 6)" opacity="0.99018866"/>
    <path d="M 484.9541931152344 75.62512969970703 C 482.88348388671875 84.35855102539062 477.33392333984375 89.81507110595703 469.7015075683594 90.25343322753906 C 462.192626953125 88.32475280761719 456.7732238769531 82.77619934082031 453.69720458984375 75.184326171875 C 455.1553649902344 67.70208740234375 460.77392578125 62.41440200805664 469.8207702636719 60.10740661621094 C 477.38958740234375 62.103607177734375 482.9024658203125 67.60795593261719 484.9541931152344 75.62512969970703" stroke-width="0.0" fill="rgb(58, 8, 9)" opacity="0.990027"/>
    <path d="M 523.0 135.0 C 520.9903564453125 142.5 515.5 147.99038696289062 507.9820251464844 150.0092010498047 C 500.3006896972656 148.09629821777344 494.4324035644531 142.87667846679688 492.1907653808594 135.45579528808594 C 494.72650146484375 127.3680419921875 500.4559326171875 121.9919204711914 507.99810791015625 119.99925231933594 C 515.5 122.0096206665039 520.9903564453125 127.5 523.0 135.0" stroke-width="0.0" fill="rgb(184, 79, 24)" opacity="0.9920325"/>
    <path d="M 326.8965148925781 117.66896057128906 C 324.8486633300781 126.33650970458984 319.32818603515625 131.8251495361328 311.3122863769531 133.83380126953125 C 302.7887878417969 131.75762939453125 297.3814697265625 126.16535949707031 296.7513122558594 118.68053436279297 C 298.78411865234375 111.2719497680664 304.3021545410156 105.8609390258789 311.8760070800781 103.64830780029297 C 319.3414306640625 104.1451644897461 324.85491943359375 109.65838623046875 326.8965148925781 117.66896057128906" stroke-width="0.0" fill="rgb(116, 21, 18)" opacity="0.990016"/>
    <path d="M 537.8648071289062 134.23512268066406 C 535.0517578125 142.52210998535156 529.5049438476562 147.9921112060547 522.0001220703125 150.0000457763672 C 514.5 147.99038696289062 509.0096130371094 142.5 506.9997863769531 134.99940490722656 C 509.0025329589844 127.48051452636719 514.426513671875 121.82903289794922 522.7805786132812 119.1077651977539 C 530.3283081054688 121.14852142333984 535.850830078125 126.67183685302734 537.8648071289062 134.23512268066406" stroke-width="0.0" fill="rgb(245, 127, 69)" opacity="1.0"/>
    <path d="M 298.42144775390625 110.26612854003906 C 296.52264404296875 117.99310302734375 290.933837890625 123.28162384033203 283.3141784667969 124.14189910888672 C 275.3985900878906 122.81839752197266 269.774658203125 117.70181274414062 267.8592834472656 110.25897979736328 C 270.3816223144531 102.87286376953125 275.8751525878906 97.38957214355469 283.17578125 95.1793212890625 C 290.5301818847656 96.99349212646484 296.10821533203125 102.43909454345703 298.42144775390625 110.26612854003906" stroke-width="0.0" fill="rgb(241, 233, 235)" opacity="1.0"/>
    <path d="M 73.13084411621094 360.512451171875 C 71.23880767822266 367.8197326660156 65.90098571777344 373.5409240722656 59.54472732543945 376.23883056640625 C 52.14201736450195 373.3236083984375 46.714752197265625 367.8442687988281 44.76914596557617 360.4646911621094 C 46.20115661621094 353.56524658203125 51.40823745727539 347.74224853515625 58.75091552734375 345.37530517578125 C 66.72034454345703 347.70220947265625 71.57038116455078 353.5530700683594 73.13084411621094 360.512451171875" stroke-width="0.0" fill="rgb(139, 129, 123)" opacity="0.9900277"/>
    <path d="M 538.5321655273438 143.05763244628906 C 536.9334106445312 150.7369384765625 531.997314453125 156.68775939941406 523.555419921875 158.91575622558594 C 515.8724975585938 156.76473999023438 510.70135498046875 150.95216369628906 508.9542541503906 143.0762176513672 C 511.0097961425781 135.5006561279297 516.507080078125 130.03309631347656 523.7528686523438 128.56021118164062 C 531.133544921875 130.4376983642578 536.6451416015625 135.83935546875 538.5321655273438 143.05763244628906" stroke-width="0.0" fill="rgb(145, 46, 26)" opacity="0.99007636"/>
    <path d="M 596.8203125 67.66275024414062 C 594.765869140625 75.24761199951172 589.2742309570312 80.82528686523438 581.1372680664062 82.92120361328125 C 572.6541137695312 80.85588073730469 567.1583862304688 75.34102630615234 565.2714233398438 67.70222473144531 C 568.4046020507812 60.00550079345703 574.1289672851562 54.75749969482422 580.7018432617188 52.91640853881836 C 587.7717895507812 54.813053131103516 593.5223999023438 60.135948181152344 596.8203125 67.66275024414062" stroke-width="0.0" fill="rgb(228, 64, 42)" opacity="0.99004513"/>
    <path d="M 44.220733642578125 282.4298400878906 C 42.278499603271484 289.8199157714844 36.80311584472656 295.2362365722656 29.31253433227539 297.1812744140625 C 21.811113357543945 296.6303405761719 16.187097549438477 291.2525939941406 14.065834045410156 282.39404296875 C 16.128887176513672 274.6598815917969 21.687978744506836 269.20367431640625 29.39266014099121 267.35894775390625 C 37.5029182434082 270.03704833984375 43.15822219848633 275.4361572265625 44.220733642578125 282.4298400878906" stroke-width="0.0" fill="rgb(226, 78, 20)" opacity="0.99003136"/>
    <path d="M 461.91522216796875 204.5319366455078 C 459.80474853515625 212.2244873046875 454.1129455566406 217.42140197753906 445.63238525390625 218.1825714111328 C 437.8727722167969 217.4291534423828 432.1521911621094 212.26173400878906 430.0533447265625 204.26675415039062 C 432.11981201171875 195.63140869140625 437.63018798828125 190.11705017089844 445.197265625 188.1227569580078 C 453.7970275878906 190.75535583496094 459.64007568359375 196.04086303710938 461.91522216796875 204.5319366455078" stroke-width="0.0" fill="rgb(146, 16, 8)" opacity="0.99003977"/>
    <path d="M 166.0840606689453 15.127679824829102 C 164.3927764892578 23.024581909179688 159.1573486328125 28.767148971557617 150.24244689941406 30.941791534423828 C 142.6223602294922 28.89417839050293 137.12142944335938 23.37082290649414 135.04824829101562 14.715030670166016 C 137.10446166992188 6.620204448699951 142.63833618164062 1.1582815647125244 150.2877960205078 0.8750483989715576 C 158.2694549560547 2.4659996032714844 163.963134765625 7.568906784057617 166.0840606689453 15.127679824829102" stroke-width="0.0" fill="rgb(97, 27, 11)" opacity="0.9900886"/>
    <path d="M 198.70443725585938 2.4338536262512207 C 196.51861572265625 9.883085250854492 190.77481079101562 15.208492279052734 183.02081298828125 17.1826171875 C 175.4739990234375 15.049306869506836 170.00509643554688 9.51008129119873 167.9997100830078 2.0006275177001953 C 170.00961303710938 -5.5 175.5 -10.990381240844727 183.0000762939453 -13.00002384185791 C 190.50299072265625 -10.9913969039917 196.037353515625 -5.5160298347473145 198.70443725585938 2.4338536262512207" stroke-width="0.0" fill="rgb(162, 119, 114)" opacity="1.0"/>
    <path d="M 300.9234924316406 43.06229782104492 C 298.82373046875 51.2564697265625 293.1559143066406 56.45784378051758 285.154296875 57.17516326904297 C 276.8721008300781 56.317134857177734 271.1750183105469 51.250999450683594 269.125244140625 43.72626876831055 C 271.732177734375 35.33342361450195 277.3990783691406 29.939857482910156 285.1898193359375 27.799894332885742 C 293.086669921875 29.519140243530273 298.7906494140625 34.80282211303711 300.9234924316406 43.06229782104492" stroke-width="0.0" fill="rgb(222, 112, 74)" opacity="1.0"/>
    <path d="M 319.24761962890625 158.9574737548828 C 317.87872314453125 166.58175659179688 312.6977233886719 172.28550720214844 305.1797180175781 174.25999450683594 C 297.5 171.99038696289062 292.0096130371094 166.5 289.91998291015625 158.8900146484375 C 291.6712646484375 151.07736206054688 297.0078430175781 145.44662475585938 304.88983154296875 144.70654296875 C 312.8935546875 145.54771423339844 318.0513916015625 151.20639038085938 319.24761962890625 158.9574737548828" stroke-width="0.0" fill="rgb(117, 14, 9)" opacity="0.99005634"/>
    <path d="M 266.2412109375 87.29446411132812 C 264.49432373046875 94.97785186767578 258.8815612792969 99.95650482177734 251.71920776367188 101.07737731933594 C 244.2899932861328 99.14601135253906 238.7418975830078 93.7509536743164 236.5124969482422 86.49388122558594 C 237.8011474609375 79.30693054199219 243.33177185058594 73.8937759399414 250.67527770996094 72.65321350097656 C 258.1402587890625 74.4836654663086 263.7859191894531 79.77176666259766 266.2412109375 87.29446411132812" stroke-width="0.0" fill="rgb(75, 7, 5)" opacity="0.99002606"/>
    <path d="M 258.8700256347656 2.6812801361083984 C 256.76153564453125 10.166413307189941 251.07943725585938 15.535428047180176 243.2804718017578 17.304931640625 C 235.4044952392578 15.030465126037598 229.54742431640625 9.751371383666992 227.24685668945312 2.453075885772705 C 229.9444122314453 -5.522885322570801 235.49542236328125 -10.991961479187012 243.00039672851562 -13.000218391418457 C 250.51927185058594 -10.99716854095459 256.1961669921875 -5.582211494445801 258.8700256347656 2.6812801361083984" stroke-width="0.0" fill="rgb(192, 120, 60)" opacity="1.0"/>
    <path d="M 95.0 24.0 C 92.9903793334961 31.5 87.5 36.990379333496094 80.55347442626953 38.36723709106445 C 73.22502899169922 36.242191314697266 67.7837905883789 30.765792846679688 65.8665542602539 23.445608139038086 C 67.36195373535156 16.677379608154297 72.5663070678711 11.038933753967285 80.00379943847656 9.00167179107666 C 87.5 11.009618759155273 92.9903793334961 16.5 95.0 24.0" stroke-width="0.0" fill="rgb(214, 128, 32)" opacity="0.99007034"/>
    <path d="M 424.686767578125 106.92742156982422 C 423.0052185058594 114.67168426513672 417.8851318359375 120.58967590332031 409.3899230957031 122.91559600830078 C 401.68719482421875 120.83568572998047 396.1518859863281 115.31846618652344 394.13385009765625 107.77449798583984 C 397.0096130371094 99.5 402.5 94.0096206665039 410.2348327636719 91.63821411132812 C 417.77880859375 93.6574935913086 423.1733093261719 99.27203369140625 424.686767578125 106.92742156982422" stroke-width="0.0" fill="rgb(155, 110, 63)" opacity="1.0"/>
    <path d="M 573.823486328125 59.51292037963867 C 572.272216796875 66.82382202148438 566.9484252929688 72.59960174560547 559.5181884765625 74.77195739746094 C 551.5298461914062 72.03409576416016 546.0187377929688 66.45719909667969 543.1055908203125 58.184967041015625 C 545.124267578125 50.65293502807617 550.6812744140625 45.20279312133789 558.2445678710938 44.78116226196289 C 565.788818359375 46.76702880859375 571.2828979492188 52.19363021850586 573.823486328125 59.51292037963867" stroke-width="0.0" fill="rgb(216, 100, 78)" opacity="0.99009037"/>
    <path d="M 200.15911865234375 28.757070541381836 C 198.39369201660156 36.014495849609375 193.04393005371094 41.462154388427734 185.37583923339844 44.27192306518555 C 178.21417236328125 42.49591827392578 173.22122192382812 36.524574279785156 171.14547729492188 28.9484806060791 C 173.72608947753906 22.25687599182129 179.2885284423828 16.834075927734375 186.63478088378906 14.865249633789062 C 193.01742553710938 16.548444747924805 198.4265899658203 21.992084503173828 200.15911865234375 28.757070541381836" stroke-width="0.0" fill="rgb(49, 14, 2)" opacity="0.9900167"/>
    <path d="M 524.8507080078125 141.55093383789062 C 522.5816650390625 149.28700256347656 517.7081909179688 155.52793884277344 509.3175964355469 157.9182586669922 C 501.77032470703125 155.80995178222656 496.3685302734375 150.1562042236328 494.5216064453125 142.4147491455078 C 496.9944763183594 134.50018310546875 502.5055847167969 129.01438903808594 510.0309753417969 126.98009490966797 C 517.67041015625 128.89141845703125 523.3451538085938 134.2536163330078 524.8507080078125 141.55093383789062" stroke-width="0.0" fill="rgb(200, 101, 46)" opacity="0.990202"/>
    <path d="M 285.25958251953125 84.79202270507812 C 283.0602722167969 92.63707733154297 277.7821350097656 98.46353912353516 269.839111328125 100.81808471679688 C 262.0137939453125 98.61834716796875 256.8025817871094 92.84722900390625 255.18231201171875 84.87694549560547 C 256.83935546875 77.40947723388672 262.4886169433594 72.09400177001953 270.4026794433594 69.4999008178711 C 277.9241027832031 71.52837371826172 283.4073486328125 77.09659576416016 285.25958251953125 84.79202270507812" stroke-width="0.0" fill="rgb(173, 5, 2)" opacity="0.9902001"/>
    <path d="M 382.73193359375 79.4521255493164 C 380.3241271972656 87.82894897460938 374.9226379394531 93.56450653076172 366.5177307128906 95.86290740966797 C 358.93035888671875 93.68940734863281 353.5439147949219 87.97322845458984 351.12530517578125 79.30095672607422 C 353.1640319824219 71.68887329101562 358.69281005859375 66.17279052734375 366.65496826171875 64.08760070800781 C 375.269775390625 66.19271087646484 380.7460632324219 71.75357055664062 382.73193359375 79.4521255493164" stroke-width="0.0" fill="rgb(215, 120, 93)" opacity="1.0"/>
    <path d="M 346.59820556640625 172.2092742919922 C 344.80657958984375 179.30282592773438 339.2721862792969 184.7076873779297 331.73504638671875 187.02952575683594 C 324.3249206542969 185.22422790527344 318.9122009277344 179.6341552734375 317.28955078125 172.14109802246094 C 319.2208251953125 164.6702423095703 324.6701965332031 159.22225952148438 331.8844299316406 157.5270233154297 C 339.160400390625 159.3867645263672 344.5911865234375 164.8472900390625 346.59820556640625 172.2092742919922" stroke-width="0.0" fill="rgb(249, 180, 77)" opacity="0.9902936"/>
    <path d="M 373.9314880371094 53.237648010253906 C 371.88555908203125 61.37796401977539 366.37713623046875 66.88358306884766 357.79974365234375 68.93903350830078 C 349.62298583984375 66.88772583007812 344.1172180175781 61.375022888183594 342.11968994140625 53.80829620361328 C 345.4635314941406 46.053794860839844 351.11328125 40.678466796875 358.8129577636719 37.25048065185547 C 366.3312683105469 39.15146255493164 371.8621520996094 44.66265869140625 373.9314880371094 53.237648010253906" stroke-width="0.0" fill="rgb(62, 78, 6)" opacity="0.99005944"/>
    <path d="M 492.0000305175781 106.99993896484375 C 489.9903869628906 114.5 484.5 119.9903793334961 476.8191833496094 122.13067626953125 C 468.8887634277344 120.48835754394531 463.18951416015625 115.22315979003906 461.0828857421875 107.33586883544922 C 463.2151184082031 98.79942321777344 468.88690185546875 93.44800567626953 476.7103271484375 91.4404525756836 C 484.51605224609375 93.9620590209961 489.9913330078125 99.49717712402344 492.0000305175781 106.99993896484375" stroke-width="0.0" fill="rgb(187, 81, 64)" opacity="1.0"/>
    <path d="M 290.7884826660156 147.74984741210938 C 288.86309814453125 155.35655212402344 283.3541259765625 160.85601806640625 275.8042907714844 161.3227996826172 C 268.21142578125 159.23484802246094 262.6668395996094 153.8187713623047 259.1059875488281 146.250732421875 C 261.2434997558594 138.89369201660156 267.08807373046875 133.75051879882812 274.7876281738281 132.31410217285156 C 282.2853698730469 134.2794952392578 287.81134033203125 139.6860809326172 290.7884826660156 147.74984741210938" stroke-width="0.0" fill="rgb(164, 27, 15)" opacity="0.9901011"/>
    <path d="M 334.884521484375 73.40092468261719 C 332.8265380859375 81.32185363769531 327.3320007324219 86.85279083251953 318.6479187011719 88.9285659790039 C 310.63592529296875 86.87507629394531 305.1335144042969 81.36068725585938 303.0787658691406 73.2588119506836 C 305.1553649902344 64.67975616455078 310.6794128417969 59.15376663208008 318.5259704589844 57.069366455078125 C 327.2827453613281 59.18306350708008 332.77813720703125 64.73245239257812 334.884521484375 73.40092468261719" stroke-width="0.0" fill="rgb(177, 77, 45)" opacity="0.9901007"/>
    <path d="M 65.27307891845703 413.7810974121094 C 63.39865493774414 420.96697998046875 57.990535736083984 426.4696350097656 50.692386627197266 428.7175598144531 C 43.252323150634766 427.1512756347656 37.45069885253906 421.889892578125 35.17136001586914 413.8713073730469 C 37.34950256347656 405.9107666015625 42.9169807434082 400.3637390136719 50.704185485839844 398.19287109375 C 58.67375564575195 400.5731506347656 63.61867141723633 406.65557861328125 65.27307891845703 413.7810974121094" stroke-width="0.0" fill="rgb(235, 176, 145)" opacity="0.99021274"/>
    <path d="M 495.34149169921875 181.23208618164062 C 493.1296081542969 188.61727905273438 487.65447998046875 194.23715209960938 480.0958557128906 196.39404296875 C 472.3396911621094 194.134521484375 466.7252197265625 188.7063446044922 464.4903564453125 181.17160034179688 C 467.07415771484375 173.53138732910156 472.3266906738281 167.57559204101562 479.5407409667969 165.31332397460938 C 487.7242431640625 167.66595458984375 493.0160217285156 173.37435913085938 495.34149169921875 181.23208618164062" stroke-width="0.0" fill="rgb(238, 237, 238)" opacity="1.0"/>
    <path d="M 366.5817565917969 207.15098571777344 C 364.53411865234375 215.0294952392578 359.06817626953125 220.63958740234375 350.8955993652344 222.7862548828125 C 342.8749084472656 220.67025756835938 337.365478515625 215.11192321777344 335.2923889160156 207.20669555664062 C 337.571533203125 199.1464080810547 343.17279052734375 193.64926147460938 351.2109375 191.60794067382812 C 359.101806640625 193.38253784179688 364.5484619140625 198.91903686523438 366.5817565917969 207.15098571777344" stroke-width="0.0" fill="rgb(237, 204, 164)" opacity="1.0"/>
    <path d="M 501.92022705078125 103.32658386230469 C 499.7124938964844 112.10469818115234 494.0055847167969 117.44589233398438 486.2131652832031 119.22802734375 C 478.5435485839844 116.96732330322266 473.1700439453125 111.41421508789062 471.1337890625 103.73981475830078 C 472.5628967285156 95.93293762207031 477.7922668457031 90.18639373779297 486.26580810546875 88.06135559082031 C 494.3627624511719 90.12484741210938 499.8756408691406 95.6370620727539 501.92022705078125 103.32658386230469" stroke-width="0.0" fill="rgb(223, 99, 44)" opacity="1.0"/>
    <path d="M 281.8404541015625 185.5848388671875 C 279.7887268066406 193.2228240966797 274.085693359375 197.8350372314453 266.7178955078125 199.0616912841797 C 259.3524475097656 197.11163330078125 253.88555908203125 191.64871215820312 251.7008514404297 184.11830139160156 C 252.15756225585938 176.69326782226562 257.7117919921875 171.20156860351562 265.3829040527344 169.21072387695312 C 274.103271484375 171.3997802734375 279.6598205566406 176.8764190673828 281.8404541015625 185.5848388671875" stroke-width="0.0" fill="rgb(110, 56, 25)" opacity="0.99001575"/>
    <path d="M 179.37159729003906 11.306656837463379 C 177.50880432128906 18.98171043395996 171.97853088378906 24.502653121948242 164.4376678466797 25.695470809936523 C 157.18289184570312 23.379079818725586 151.83103942871094 17.748313903808594 149.83575439453125 10.167417526245117 C 150.2125244140625 2.7608885765075684 155.8139190673828 -2.62522029876709 163.67210388183594 -4.295826435089111 C 171.5 -1.9903810024261475 176.99038696289062 3.5 179.37159729003906 11.306656837463379" stroke-width="0.0" fill="rgb(226, 220, 226)" opacity="0.9900684"/>
    <path d="M 457.8771667480469 147.78775024414062 C 455.86309814453125 155.3514404296875 450.3598327636719 160.88209533691406 442.8064270019531 162.9285125732422 C 435.137939453125 159.4868927001953 429.7786865234375 153.7925567626953 427.850341796875 146.36920166015625 C 428.5162353515625 138.9904327392578 433.993408203125 133.50999450683594 442.0214538574219 131.2838897705078 C 449.7548522949219 133.6186981201172 455.1375427246094 139.32730102539062 457.8771667480469 147.78775024414062" stroke-width="0.0" fill="rgb(115, 153, 102)" opacity="0.9900359"/>
    <path d="M 301.6421813964844 205.6425323486328 C 299.7744445800781 213.22134399414062 294.1040344238281 217.9969482421875 286.5858154296875 219.10203552246094 C 279.2980651855469 217.16261291503906 273.8399658203125 211.7010040283203 271.8893737792969 204.29534912109375 C 272.4188232421875 196.79733276367188 277.737060546875 191.19447326660156 285.2884216308594 189.2113037109375 C 293.2398376464844 192.2899169921875 298.6749267578125 197.7713165283203 301.6421813964844 205.6425323486328" stroke-width="0.0" fill="rgb(152, 103, 61)" opacity="0.99002093"/>
    <path d="M 413.8692932128906 93.2262954711914 C 411.1438293457031 101.63667297363281 405.64422607421875 107.16845703125 397.3107604980469 109.81505584716797 C 389.7470703125 107.8035888671875 384.32427978515625 102.20729064941406 383.3091735839844 94.49365234375 C 385.3119201660156 86.55239868164062 390.2073974609375 80.46770477294922 398.7530212402344 78.08221435546875 C 406.346923828125 80.13380432128906 411.8588562011719 85.65605163574219 413.8692932128906 93.2262954711914" stroke-width="0.0" fill="rgb(192, 74, 37)" opacity="0.9904505"/>
    <path d="M 24.414762496948242 474.9935302734375 C 22.227357864379883 482.7104187011719 16.724960327148438 488.27166748046875 9.243321418762207 490.2386474609375 C 1.4613538980484009 488.00433349609375 -4.030309677124023 482.5450744628906 -6.008999824523926 475.0128479003906 C -3.986307382583618 467.5059814453125 1.5096426010131836 462.0262145996094 9.043383598327637 460.0306091308594 C 16.646900177001953 461.8836669921875 22.23822593688965 467.31658935546875 24.414762496948242 474.9935302734375" stroke-width="0.0" fill="rgb(244, 229, 196)" opacity="0.9913539"/>
    <path d="M 418.69073486328125 15.764291763305664 C 417.4747314453125 23.958412170410156 411.9460754394531 29.437406539916992 404.06219482421875 31.34263801574707 C 395.96893310546875 29.447511672973633 390.26287841796875 24.134872436523438 388.06781005859375 15.281063079833984 C 390.1131286621094 7.625723838806152 395.6247863769531 2.111082077026367 403.2930908203125 0.06456714868545532 C 412.10980224609375 2.2862000465393066 417.5528869628906 7.9561262130737305 418.69073486328125 15.764291763305664" stroke-width="0.0" fill="rgb(152, 31, 16)" opacity="1.0"/>
    <path d="M 188.40771484375 95.64559936523438 C 187.8052215576172 103.33238983154297 182.36314392089844 108.89058685302734 174.87664794921875 110.87242889404297 C 167.26101684570312 107.20044708251953 161.78787231445312 101.74327087402344 159.84063720703125 94.41645812988281 C 161.25411987304688 87.66873931884766 166.64622497558594 82.18263244628906 174.0565643310547 80.3007583618164 C 181.37059020996094 82.13397979736328 186.69912719726562 87.6833724975586 188.40771484375 95.64559936523438" stroke-width="0.0" fill="rgb(78, 6, 2)" opacity="0.9901178"/>
    <path d="M 43.7073860168457 255.30624389648438 C 42.34617614746094 262.8889465332031 36.909481048583984 268.4185485839844 28.456972122192383 270.2652282714844 C 20.75345230102539 268.7547912597656 15.205592155456543 263.2610778808594 13.139749526977539 255.544189453125 C 15.386514663696289 246.94789123535156 20.953033447265625 241.4012908935547 28.472553253173828 239.4706268310547 C 35.99765396118164 242.52880859375 41.46809005737305 248.0030517578125 43.7073860168457 255.30624389648438" stroke-width="0.0" fill="rgb(247, 213, 149)" opacity="1.0"/>
    <path d="M 572.7569580078125 97.7843017578125 C 570.8717651367188 105.37147521972656 565.3811645507812 110.89645385742188 557.7039794921875 112.9446029663086 C 548.8546752929688 110.7770767211914 543.6832275390625 104.97288513183594 541.9514770507812 97.08228302001953 C 544.0103149414062 89.49983215332031 549.485107421875 83.95807647705078 557.4837036132812 81.22724914550781 C 564.3128051757812 83.66532135009766 569.53125 89.88320922851562 572.7569580078125 97.7843017578125" stroke-width="0.0" fill="rgb(109, 13, 8)" opacity="0.9900336"/>
    <path d="M 493.602294921875 123.51323699951172 C 491.7035827636719 131.18630981445312 486.16357421875 136.6219940185547 478.6781921386719 137.14199829101562 C 471.2677307128906 135.19273376464844 465.81298828125 129.72988891601562 463.8697204589844 122.37544250488281 C 464.73223876953125 115.11615753173828 470.0779113769531 109.56770324707031 477.7745666503906 107.6487808227539 C 485.56494140625 109.9324951171875 491.03094482421875 115.4449691772461 493.602294921875 123.51323699951172" stroke-width="0.0" fill="rgb(157, 81, 68)" opacity="0.99002343"/>
    <path d="M 189.2015380859375 0.4626004695892334 C 187.32606506347656 7.9349775314331055 182.01583862304688 13.56723690032959 174.85693359375 15.89768123626709 C 167.52474975585938 13.965309143066406 162.05282592773438 8.469922065734863 160.09007263183594 0.9763815999031067 C 162.01132202148438 -6.499486446380615 167.5000457763672 -11.990365982055664 174.99998474121094 -13.999993324279785 C 182.49819946289062 -11.98983097076416 187.9359893798828 -6.4829888343811035 189.2015380859375 0.4626004695892334" stroke-width="0.0" fill="rgb(208, 202, 210)" opacity="0.99017805"/>
    <path d="M 560.2774047851562 96.41899871826172 C 558.909912109375 103.6985092163086 553.9703979492188 109.67314910888672 545.250732421875 111.93336486816406 C 537.6129760742188 109.89586639404297 532.1001586914062 104.38862609863281 530.0601196289062 96.7581558227539 C 532.2769165039062 88.10250854492188 538.9432983398438 83.70500946044922 546.4536743164062 81.87666320800781 C 552.9475708007812 83.61622619628906 558.3704833984375 89.0580062866211 560.2774047851562 96.41899871826172" stroke-width="0.0" fill="rgb(30, 2, 2)" opacity="0.9900295"/>
    <path d="M 446.9417419433594 247.30686950683594 C 443.4171142578125 254.7257080078125 437.65576171875 260.09820556640625 430.73529052734375 262.03839111328125 C 424.38262939453125 260.087646484375 418.9167785644531 254.61553955078125 416.9497985839844 247.14303588867188 C 417.21563720703125 239.71209716796875 422.7078857421875 234.1980743408203 430.4543151855469 232.20401000976562 C 439.1849365234375 234.33212280273438 444.8308410644531 239.74484252929688 446.9417419433594 247.30686950683594" stroke-width="0.0" fill="rgb(17, 16, 14)" opacity="0.9900082"/>
    <path d="M 217.90274047851562 161.79922485351562 C 215.66790771484375 169.6639404296875 208.940185546875 174.24404907226562 202.44827270507812 176.08489990234375 C 195.3032684326172 174.1528778076172 189.83627319335938 168.70120239257812 187.9093475341797 161.53384399414062 C 189.65789794921875 154.5093231201172 193.88648986816406 148.22567749023438 201.84695434570312 146.09121704101562 C 210.2683868408203 148.19973754882812 215.79530334472656 153.73362731933594 217.90274047851562 161.79922485351562" stroke-width="0.0" fill="rgb(145, 96, 60)" opacity="0.9900159"/>
    <path d="M 416.85321044921875 38.30850601196289 C 414.7296447753906 47.2666130065918 409.3097839355469 52.851375579833984 401.7582092285156 54.87055587768555 C 393.01434326171875 52.50511169433594 387.471923828125 46.994564056396484 385.39654541015625 38.46390914916992 C 387.2361145019531 30.758068084716797 392.7643737792969 25.253501892089844 400.5232849121094 23.271787643432617 C 409.1278076171875 25.443923950195312 414.807373046875 30.777374267578125 416.85321044921875 38.30850601196289" stroke-width="0.0" fill="rgb(88, 124, 38)" opacity="0.99002314"/>
    <path d="M 518.8441162109375 1.7425174713134766 C 516.8405151367188 9.333296775817871 511.34503173828125 14.86894416809082 503.7635498046875 16.913257598876953 C 495.3495788574219 14.356717109680176 490.0403137207031 8.506573677062988 487.7336730957031 0.9543552398681641 C 489.9948425292969 -6.504459381103516 495.49957275390625 -11.99051570892334 503.0 -14.00000286102295 C 510.500244140625 -11.990458488464355 515.9984741210938 -6.5024518966674805 518.8441162109375 1.7425174713134766" stroke-width="0.0" fill="rgb(178, 70, 55)" opacity="1.0"/>
    <path d="M 102.66276550292969 44.1961669921875 C 101.38565063476562 51.981258392333984 96.05033874511719 57.612178802490234 88.72376251220703 58.195045471191406 C 81.23297119140625 56.20843505859375 75.76800537109375 50.77667236328125 73.86402893066406 43.59706115722656 C 75.55663299560547 36.835872650146484 80.6406021118164 31.02646255493164 87.98014831542969 28.962787628173828 C 95.45130157470703 31.034189224243164 100.8426742553711 36.58607864379883 102.66276550292969 44.1961669921875" stroke-width="0.0" fill="rgb(199, 127, 75)" opacity="0.9900323"/>
    <path d="M 522.562255859375 128.16241455078125 C 521.140380859375 135.502197265625 515.325927734375 140.63539123535156 508.2205505371094 142.28936767578125 C 501.02789306640625 140.40956115722656 495.43389892578125 135.01719665527344 492.31036376953125 127.60309600830078 C 494.4939880371094 119.97455596923828 499.904296875 114.31375885009766 507.6995849609375 112.21001434326172 C 516.0146484375 114.40440368652344 521.2381591796875 120.08497619628906 522.562255859375 128.16241455078125" stroke-width="0.0" fill="rgb(243, 173, 131)" opacity="0.9901084"/>
    <path d="M 118.63351440429688 22.57309341430664 C 116.11912536621094 30.559358596801758 110.44264221191406 35.768375396728516 103.17797088623047 37.26919937133789 C 95.89629364013672 35.506507873535156 90.33354187011719 30.15611457824707 88.14879608154297 22.862810134887695 C 90.01239776611328 15.503457069396973 95.5053482055664 10.019099235534668 103.63526916503906 7.197789669036865 C 111.06651306152344 9.34457015991211 116.59072875976562 14.959409713745117 118.63351440429688 22.57309341430664" stroke-width="0.0" fill="rgb(215, 58, 43)" opacity="0.99045956"/>
    <path d="M 96.2971420288086 18.492691040039062 C 93.86316680908203 26.398473739624023 88.35814666748047 31.74422836303711 81.12898254394531 33.358421325683594 C 73.8971176147461 31.543973922729492 68.4897232055664 26.09148406982422 66.85655212402344 19.020559310913086 C 67.5658950805664 10.877875328063965 72.796630859375 5.240477085113525 81.44373321533203 3.1056339740753174 C 89.27975463867188 5.184422492980957 94.72959899902344 10.750102996826172 96.2971420288086 18.492691040039062" stroke-width="0.0" fill="rgb(214, 104, 16)" opacity="0.9901775"/>
    <path d="M 57.85951614379883 342.08697509765625 C 55.6580810546875 350.0743408203125 50.02170944213867 355.5144348144531 41.884830474853516 357.5999450683594 C 33.94048309326172 355.5478210449219 28.31073760986328 350.1122741699219 26.14643096923828 341.708740234375 C 28.24094009399414 333.79388427734375 33.84437561035156 328.3918151855469 41.550048828125 327.42156982421875 C 49.6188850402832 329.2455139160156 55.6033821105957 334.0934753417969 57.85951614379883 342.08697509765625" stroke-width="0.0" fill="rgb(252, 197, 104)" opacity="1.0"/>
    <path d="M 471.0 26.0 C 468.9903869628906 33.5 463.5 38.990379333496094 456.0 41.000003814697266 C 448.4993591308594 38.9905891418457 442.99822998046875 33.50374984741211 440.4330749511719 25.819828033447266 C 443.3524169921875 18.911718368530273 448.92333984375 13.411467552185059 456.17236328125 11.162439346313477 C 463.5 13.009618759155273 468.9903869628906 18.5 471.0 26.0" stroke-width="0.0" fill="rgb(245, 130, 86)" opacity="0.99121064"/>
    <path d="M 302.496826171875 92.87065124511719 C 300.34613037109375 99.81839752197266 294.767333984375 105.19464111328125 287.8285217285156 107.08427429199219 C 281.0409240722656 105.2504653930664 274.54669189453125 100.41755676269531 272.9864501953125 93.44324493408203 C 275.2418518066406 85.60189819335938 280.4136657714844 79.71075439453125 287.826416015625 77.28190612792969 C 295.23779296875 80.0383529663086 300.6064147949219 85.84542846679688 302.496826171875 92.87065124511719" stroke-width="0.0" fill="rgb(231, 63, 49)" opacity="0.99002486"/>
    <path d="M 277.3179626464844 125.22850036621094 C 274.2942810058594 132.8912811279297 268.949462890625 138.45652770996094 261.2478332519531 141.82843017578125 C 253.8059539794922 139.78317260742188 248.73248291015625 134.0604705810547 247.82322692871094 126.2857894897461 C 249.52508544921875 118.90068054199219 254.86947631835938 113.44666290283203 262.0113220214844 111.75962829589844 C 269.7442932128906 113.25804138183594 275.6763000488281 117.98779296875 277.3179626464844 125.22850036621094" stroke-width="0.0" fill="rgb(245, 120, 100)" opacity="1.0"/>
    <path d="M 559.4923095703125 221.89576721191406 C 557.1051635742188 229.55165100097656 551.4609985351562 234.8221893310547 543.8198852539062 236.42813110351562 C 536.2463989257812 235.13131713867188 530.5409545898438 229.85385131835938 528.4777221679688 222.36614990234375 C 530.779296875 214.15806579589844 536.0394897460938 208.4187774658203 543.7431640625 206.28189086914062 C 551.9389038085938 208.48529052734375 557.3709716796875 214.1100616455078 559.4923095703125 221.89576721191406" stroke-width="0.0" fill="rgb(246, 229, 188)" opacity="0.994727"/>
    <path d="M 314.8815612792969 161.89138793945312 C 312.66192626953125 169.072509765625 306.9388122558594 174.29078674316406 300.273681640625 176.08993530273438 C 293.1693115234375 174.22332763671875 286.699462890625 169.01048278808594 284.060791015625 161.2279052734375 C 286.1095886230469 153.6219024658203 291.6265563964844 148.1218719482422 299.2258605957031 146.1660919189453 C 307.5029602050781 149.00503540039062 312.99066162109375 154.4982452392578 314.8815612792969 161.89138793945312" stroke-width="0.0" fill="rgb(113, 13, 14)" opacity="0.9900582"/>
    <path d="M 474.60308837890625 23.417299270629883 C 471.5902404785156 31.20595932006836 466.2850341796875 36.83613204956055 458.9590759277344 38.97089767456055 C 451.5 36.990379333496094 446.0096130371094 31.5 444.3584289550781 24.241830825805664 C 446.3719177246094 16.750513076782227 451.577880859375 10.777849197387695 459.44134521484375 8.214705467224121 C 467.12548828125 10.337480545043945 472.6517639160156 15.877399444580078 474.60308837890625 23.417299270629883" stroke-width="0.0" fill="rgb(199, 99, 69)" opacity="0.9905307"/>
    <path d="M 243.83453369140625 175.10488891601562 C 241.4915008544922 182.1862030029297 234.8655548095703 187.21829223632812 228.16375732421875 189.08657836914062 C 221.29385375976562 187.16644287109375 215.8339385986328 181.70599365234375 213.8043670654297 174.19808959960938 C 214.2057647705078 166.7132568359375 219.70193481445312 161.17535400390625 227.39195251464844 159.11463928222656 C 236.1143798828125 161.33499145507812 241.65975952148438 166.88742065429688 243.83453369140625 175.10488891601562" stroke-width="0.0" fill="rgb(149, 99, 57)" opacity="0.99002373"/>
    <path d="M 240.906494140625 38.7249755859375 C 238.80763244628906 47.31233215332031 233.3378448486328 52.870628356933594 225.41058349609375 54.94059371948242 C 216.71717834472656 52.836429595947266 211.2446746826172 47.24716567993164 209.08734130859375 38.403560638427734 C 211.19248962402344 30.742597579956055 216.7423553466797 25.19259262084961 224.27220153808594 23.15108871459961 C 232.9888916015625 25.655193328857422 238.7642364501953 30.858726501464844 240.906494140625 38.7249755859375" stroke-width="0.0" fill="rgb(161, 33, 28)" opacity="0.99014705"/>
    <path d="M 17.931411743164062 298.00592041015625 C 15.855091094970703 306.33245849609375 10.319831848144531 311.82330322265625 2.6836981773376465 313.87103271484375 C -5.583780765533447 311.2034912109375 -10.996650695800781 305.5180358886719 -13.00023078918457 298.000244140625 C -10.99333381652832 290.491455078125 -5.543175220489502 284.8904113769531 2.544933319091797 282.19561767578125 C 10.212135314941406 284.288330078125 15.82718563079834 289.7372741699219 17.931411743164062 298.00592041015625" stroke-width="0.0" fill="rgb(213, 66, 50)" opacity="1.0"/>
    <path d="M 469.86962890625 31.415891647338867 C 468.44512939453125 38.86133575439453 462.72161865234375 43.87974548339844 455.0580139160156 45.266632080078125 C 447.2624816894531 43.8100700378418 441.3091125488281 39.01142501831055 439.1124267578125 31.366535186767578 C 441.4813232421875 23.12160873413086 447.1781921386719 17.625324249267578 454.6053771972656 15.711682319641113 C 462.1358947753906 18.400922775268555 467.5598449707031 23.877309799194336 469.86962890625 31.415891647338867" stroke-width="0.0" fill="rgb(245, 139, 65)" opacity="0.9903427"/>
    <path d="M 534.676025390625 242.30679321289062 C 532.9903564453125 249.5 527.5 254.99038696289062 520.6285400390625 256.2418518066406 C 512.9163818359375 254.27273559570312 506.2135009765625 250.0384063720703 504.0886535644531 242.69227600097656 C 506.7890625 234.95416259765625 513.127197265625 229.7373504638672 519.9776611328125 227.8976593017578 C 526.843505859375 229.7455596923828 532.4172973632812 235.09902954101562 534.676025390625 242.30679321289062" stroke-width="0.0" fill="rgb(88, 69, 52)" opacity="0.99003386"/>
    <path d="M 251.87225341796875 17.680057525634766 C 249.83209228515625 25.31835174560547 244.3221893310547 30.841400146484375 236.76173400878906 32.81621170043945 C 228.29994201660156 29.89517593383789 222.45077514648438 24.89371681213379 220.15219116210938 16.402856826782227 C 222.17617797851562 8.709473609924316 227.74229431152344 3.2722980976104736 235.5302276611328 1.4833122491836548 C 243.57481384277344 3.9541401863098145 249.36546325683594 9.311079025268555 251.87225341796875 17.680057525634766" stroke-width="0.0" fill="rgb(208, 91, 52)" opacity="1.0"/>
    <path d="M 545.3719482421875 250.32086181640625 C 543.2653198242188 257.82373046875 537.8208618164062 263.2584228515625 530.628662109375 265.1597900390625 C 524.1243896484375 263.2983093261719 518.3490600585938 257.9621887207031 515.5492553710938 251.49708557128906 C 518.5231323242188 243.9027099609375 523.7944946289062 238.16033935546875 530.846435546875 235.76687622070312 C 538.4954833984375 238.09535217285156 544.3028564453125 243.36871337890625 545.3719482421875 250.32086181640625" stroke-width="0.0" fill="rgb(135, 139, 144)" opacity="0.99003303"/>
  </g>
</svg>
