<?xml version="1.0" ?>
<svg xmlns="http://www.w3.org/2000/svg" version="1.1" width="600" height="600">
  <defs/>
  <g>
    <path d="M 222.85342407226562 275.20306396484375 C 219.9665069580078 285.50054931640625 212.42324829101562 292.79376220703125 201.8878631591797 295.74951171875 C 191.48614501953125 292.926025390625 184.3008270263672 285.4397277832031 181.8748321533203 275.14019775390625 C 184.64833068847656 264.9322814941406 191.84234619140625 257.3766784667969 202.24172973632812 254.3040313720703 C 212.5313262939453 257.1073303222656 219.9616241455078 264.442138671875 222.85342407226562 275.20306396484375" stroke-width="0.0" fill="rgb(159, 167, 178)" opacity="0.99033916"/>
    <path d="M 289.8562316894531 76.56736755371094 C 286.97308349609375 87.55474853515625 279.5072326660156 94.8572998046875 268.6722106933594 97.82972717285156 C 258.4441833496094 94.98347473144531 251.27098083496094 87.46866607666016 248.8306427001953 77.11981964111328 C 251.46458435058594 66.6825180053711 258.5297546386719 59.04414749145508 268.83123779296875 56.16025924682617 C 279.7032165527344 58.947731018066406 287.083251953125 66.28534698486328 289.8562316894531 76.56736755371094" stroke-width="0.0" fill="rgb(144, 154, 165)" opacity="1.0"/>
    <path d="M 34.547733306884766 462.47991943359375 C 31.32050895690918 473.0 24.0 480.32049560546875 13.349798202514648 483.74676513671875 C 3.259753704071045 481.1133117675781 -3.982320547103882 473.697021484375 -6.494235515594482 463.0662536621094 C -3.9717206954956055 452.29351806640625 3.233989715576172 444.8512878417969 14.358716011047363 442.0811767578125 C 24.80105209350586 444.8329162597656 32.080318450927734 452.22998046875 34.547733306884766 462.47991943359375" stroke-width="0.0" fill="rgb(102, 106, 114)" opacity="1.0"/>
    <path d="M 102.47688293457031 539.4584350585938 C 100.03529357910156 549.7250366210938 92.75804138183594 557.1295166015625 81.71637725830078 559.9132690429688 C 71.17133331298828 557.1731567382812 63.81932830810547 549.8317260742188 61.121070861816406 539.7027587890625 C 63.97665786743164 528.2848510742188 71.26213073730469 520.9076538085938 81.41638946533203 518.349609375 C 92.0 521.6795043945312 99.32051086425781 529.0 102.47688293457031 539.4584350585938" stroke-width="0.0" fill="rgb(104, 108, 116)" opacity="0.99023974"/>
    <path d="M 115.00004577636719 517.9999389648438 C 112.32051086425781 528.0 105.0 535.3204956054688 94.9956283569336 538.0035400390625 C 84.95918273925781 535.3421630859375 77.42472839355469 528.116455078125 74.46958923339844 518.3051147460938 C 77.6796646118164 508.00006103515625 85.0 500.67950439453125 95.00033569335938 497.99951171875 C 105.00050354003906 500.67877197265625 112.32076263427734 507.9996337890625 115.00004577636719 517.9999389648438" stroke-width="0.0" fill="rgb(116, 121, 129)" opacity="0.9950789"/>
    <path d="M 280.4650573730469 34.42856979370117 C 277.99822998046875 44.67967224121094 270.7071533203125 52.07779312133789 259.90020751953125 54.85152816772461 C 249.2466583251953 52.09892654418945 241.885009765625 44.759521484375 239.1731414794922 34.58066177368164 C 242.2863006591797 23.778017044067383 249.89674377441406 16.630151748657227 259.9927978515625 13.99669075012207 C 270.0 16.67949104309082 277.32049560546875 24.0 280.4650573730469 34.42856979370117" stroke-width="0.0" fill="rgb(144, 151, 160)" opacity="1.0"/>
    <path d="M 399.95526123046875 538.1998901367188 C 397.0707702636719 549.6117553710938 389.6072692871094 557.0650024414062 378.2254943847656 559.95947265625 C 368.1933898925781 557.2188720703125 362.3175048828125 549.5214233398438 359.92132568359375 538.294921875 C 360.9460144042969 528.1813354492188 368.1332092285156 520.7735595703125 379.5206604003906 518.040771484375 C 389.90765380859375 520.7551879882812 397.24517822265625 528.0921630859375 399.95526123046875 538.1998901367188" stroke-width="0.0" fill="rgb(15, 17, 26)" opacity="0.99005073"/>
    <path d="M 204.72145080566406 357.4508056640625 C 201.31680297851562 367.99896240234375 193.99996948242188 375.32049560546875 183.9955291748047 378.0021057128906 C 173.9374237060547 375.35040283203125 166.40975952148438 368.1404113769531 163.3393096923828 357.8143310546875 C 166.21429443359375 347.6797180175781 173.79298400878906 340.55023193359375 183.97933959960938 337.9797668457031 C 194.12803649902344 340.62078857421875 201.8477020263672 347.69287109375 204.72145080566406 357.4508056640625" stroke-width="0.0" fill="rgb(154, 162, 175)" opacity="1.0"/>
    <path d="M 124.01240539550781 530.0230102539062 C 121.4420166015625 540.2132568359375 114.37000274658203 547.8741455078125 103.61262512207031 550.8726196289062 C 93.5539779663086 547.970458984375 86.56424713134766 540.2384033203125 83.99967193603516 529.975830078125 C 86.60566711425781 519.9429321289062 93.95516204833984 512.6459350585938 103.9912338256836 509.9935302734375 C 114.0 512.6795043945312 121.32051086425781 520.0 124.01240539550781 530.0230102539062" stroke-width="0.0" fill="rgb(123, 128, 136)" opacity="1.0"/>
    <path d="M 256.7914123535156 591.6758422851562 C 253.78179931640625 602.2921752929688 246.1636199951172 609.4122924804688 236.01719665527344 612.0093383789062 C 226.0 609.3204956054688 218.6794891357422 602.0 216.0 592.0 C 218.6794891357422 582.0 226.0 574.6795043945312 236.21046447753906 571.813720703125 C 246.5384521484375 574.1943359375 254.00234985351562 581.3970947265625 256.7914123535156 591.6758422851562" stroke-width="0.0" fill="rgb(139, 144, 155)" opacity="0.9908599"/>
    <path d="M 234.8845672607422 43.23691177368164 C 232.13723754882812 53.785804748535156 224.78309631347656 61.129798889160156 214.00392150878906 63.878196716308594 C 203.24505615234375 61.10549545288086 195.85934448242188 53.76963424682617 193.0890350341797 43.27859878540039 C 195.85865783691406 32.21714401245117 203.22206115722656 24.869752883911133 213.8936767578125 22.099464416503906 C 224.77395629882812 24.86316680908203 232.11151123046875 32.23664093017578 234.8845672607422 43.23691177368164" stroke-width="0.0" fill="rgb(128, 135, 144)" opacity="1.0"/>
    <path d="M 311.73382568359375 159.1932373046875 C 308.9239196777344 169.5356903076172 301.4955139160156 176.8023223876953 291.2397155761719 179.25633239746094 C 280.9950866699219 176.32229614257812 273.62939453125 169.018798828125 270.66729736328125 158.9620819091797 C 273.62554931640625 148.9785614013672 280.98583984375 141.65130615234375 291.4835510253906 138.34730529785156 C 301.48248291015625 141.06787109375 308.7366943359375 148.5968780517578 311.73382568359375 159.1932373046875" stroke-width="0.0" fill="rgb(164, 172, 184)" opacity="1.0"/>
    <path d="M 169.80641174316406 167.8092803955078 C 167.0142364501953 178.66607666015625 159.67311096191406 186.0333251953125 148.48233032226562 188.85963439941406 C 138.23995971679688 186.1207733154297 130.89524841308594 178.75375366210938 128.1555938720703 168.45359802246094 C 131.11062622070312 157.6031951904297 138.75411987304688 150.533447265625 149.44647216796875 147.47320556640625 C 159.6547088623047 150.00257873535156 167.03001403808594 157.33428955078125 169.80641174316406 167.8092803955078" stroke-width="0.0" fill="rgb(138, 145, 156)" opacity="0.9918893"/>
    <path d="M 96.92160034179688 14.04941177368164 C 94.1801986694336 24.83444595336914 86.83879852294922 32.19071578979492 76.4175033569336 34.930511474609375 C 65.17476654052734 32.17728042602539 57.86807632446289 24.809139251708984 55.233421325683594 14.310489654541016 C 57.93931198120117 3.291351079940796 65.31596374511719 -3.98197078704834 75.96455383300781 -6.518550395965576 C 86.71701049804688 -3.988428831100464 94.16020202636719 3.223545789718628 96.92160034179688 14.04941177368164" stroke-width="0.0" fill="rgb(94, 98, 106)" opacity="1.0"/>
    <path d="M 238.99647521972656 598.9995727539062 C 236.32034301757812 608.9999389648438 229.0 616.3204956054688 219.0 619.0 C 209.0 616.3204956054688 201.6795654296875 609.0 198.22303771972656 598.3609008789062 C 200.9419708251953 588.3659057617188 208.4639129638672 581.2263793945312 218.82508850097656 578.8565673828125 C 228.99978637695312 581.6796264648438 236.31971740722656 589.0004272460938 238.99647521972656 598.9995727539062" stroke-width="0.0" fill="rgb(135, 140, 148)" opacity="1.0"/>
    <path d="M 273.6685791015625 12.456952095031738 C 270.3293762207031 23.01218032836914 263.0182800292969 30.35024070739746 252.62994384765625 33.40793228149414 C 242.32278442382812 30.97403335571289 234.8937225341797 23.72313690185547 232.1102752685547 13.346233367919922 C 234.9542236328125 2.3716611862182617 242.4556427001953 -4.802303791046143 252.96531677246094 -7.2865495681762695 C 263.524169921875 -4.774322509765625 271.0130615234375 2.3968708515167236 273.6685791015625 12.456952095031738" stroke-width="0.0" fill="rgb(129, 136, 145)" opacity="1.0"/>
    <path d="M 88.87651062011719 401.9350891113281 C 86.11387634277344 412.7549743652344 78.74637603759766 420.0908508300781 68.54497528076172 422.7080078125 C 57.41106414794922 419.8341369628906 49.908172607421875 412.6781005859375 47.113243103027344 402.2891845703125 C 49.939849853515625 391.37261962890625 57.48777389526367 384.2763366699219 68.53978729248047 381.3441467285156 C 78.74943542480469 383.91412353515625 86.11952209472656 391.2384033203125 88.87651062011719 401.9350891113281" stroke-width="0.0" fill="rgb(123, 132, 140)" opacity="1.0"/>
    <path d="M 204.09774780273438 269.8822021484375 C 201.34632873535156 280.05706787109375 194.13229370117188 287.5791320800781 183.3750457763672 290.8114929199219 C 173.2336883544922 288.1163635253906 165.87353515625 280.7701110839844 163.1197509765625 270.3621520996094 C 165.9046630859375 259.2707214355469 173.29537963867188 251.97561645507812 183.76307678222656 249.35488891601562 C 194.46707153320312 252.13308715820312 201.6597137451172 259.59857177734375 204.09774780273438 269.8822021484375" stroke-width="0.0" fill="rgb(156, 166, 177)" opacity="1.0"/>
    <path d="M 289.37286376953125 268.78106689453125 C 286.95367431640625 278.8106384277344 279.92730712890625 286.2906799316406 269.99688720703125 288.9990234375 C 260.0001220703125 286.3204650878906 252.6813201904297 278.9993591308594 249.49700927734375 268.59857177734375 C 252.08453369140625 258.465576171875 259.5101013183594 251.22520446777344 269.799560546875 248.81385803222656 C 279.9878845214844 251.68377685546875 287.1871032714844 259.0510559082031 289.37286376953125 268.78106689453125" stroke-width="0.0" fill="rgb(181, 190, 202)" opacity="0.9908592"/>
    <path d="M 230.38705444335938 566.6130981445312 C 227.3204345703125 576.9998168945312 219.99903869628906 584.317626953125 209.47108459472656 587.5916137695312 C 199.25558471679688 585.0648193359375 191.8606719970703 577.7716674804688 189.0998077392578 567.02685546875 C 191.86956787109375 556.23291015625 199.24143981933594 548.889892578125 209.74813842773438 546.1239624023438 C 220.726806640625 548.9010009765625 227.98562622070312 556.3111572265625 230.38705444335938 566.6130981445312" stroke-width="0.0" fill="rgb(143, 149, 157)" opacity="1.0"/>
    <path d="M 323.7188720703125 561.9124145507812 C 320.9132080078125 572.5118408203125 313.4523010253906 579.7305908203125 302.604248046875 582.5738525390625 C 292.33380126953125 580.0035400390625 284.94891357421875 572.6829833984375 282.1556701660156 562.2615356445312 C 285.1360168457031 551.6152954101562 292.6676330566406 544.257568359375 303.3084716796875 541.2827758789062 C 313.6488037109375 543.9949951171875 320.98284912109375 551.359130859375 323.7188720703125 561.9124145507812" stroke-width="0.0" fill="rgb(158, 165, 176)" opacity="0.9901591"/>
    <path d="M 111.85807037353516 151.84718322753906 C 109.12525939941406 162.79214477539062 101.8049087524414 170.1592254638672 91.24488067626953 172.89785766601562 C 80.21188354492188 170.13540649414062 72.85794067382812 162.7909698486328 70.11883544921875 152.15078735351562 C 72.8813247680664 141.23011779785156 80.22559356689453 133.87013244628906 91.31410217285156 131.10572814941406 C 101.80598449707031 133.8402862548828 109.13385009765625 141.20399475097656 111.85807037353516 151.84718322753906" stroke-width="0.0" fill="rgb(120, 126, 136)" opacity="1.0"/>
    <path d="M 296.5574951171875 540.0235595703125 C 293.5679626464844 550.1930541992188 286.2377014160156 557.6867065429688 275.6283874511719 560.7210083007812 C 265.3303527832031 558.0175170898438 257.9654541015625 550.6756591796875 255.2088623046875 540.26123046875 C 258.09765625 529.5399169921875 265.6391296386719 522.391845703125 275.9085998535156 519.9236450195312 C 286.0412902832031 522.660888671875 293.52825927734375 529.8990478515625 296.5574951171875 540.0235595703125" stroke-width="0.0" fill="rgb(163, 170, 181)" opacity="1.0"/>
    <path d="M 306.7665710449219 108.48711395263672 C 303.8905944824219 119.57687377929688 296.60211181640625 126.9688949584961 286.3480224609375 129.6989288330078 C 275.6959533691406 126.61583709716797 268.13525390625 119.3991470336914 265.20477294921875 108.76948547363281 C 268.0329284667969 98.46484375 275.5477600097656 91.25984954833984 286.4887390136719 88.23552703857422 C 296.6698303222656 90.96691131591797 304.05084228515625 98.32270812988281 306.7665710449219 108.48711395263672" stroke-width="0.0" fill="rgb(149, 157, 168)" opacity="0.9901583"/>
    <path d="M 85.7509765625 183.35321044921875 C 82.32051086425781 194.0 75.0 201.3205108642578 64.4204330444336 204.62924194335938 C 54.22370147705078 202.10548400878906 46.86174774169922 194.7876434326172 44.1021728515625 183.58091735839844 C 46.83257293701172 173.188232421875 54.197303771972656 165.85443115234375 65.02835083007812 163.09890747070312 C 75.77037048339844 165.8647003173828 83.1117172241211 173.23927307128906 85.7509765625 183.35321044921875" stroke-width="0.0" fill="rgb(113, 119, 128)" opacity="0.9903244"/>
    <path d="M 22.889253616333008 323.58184814453125 C 20.06922149658203 334.6811218261719 12.631048202514648 341.9218444824219 2.319380760192871 344.3127136230469 C -8.0 341.32049560546875 -15.320508003234863 334.0 -18.00002098083496 323.99993896484375 C -15.321613311767578 313.99664306640625 -8.019332885742188 306.6224060058594 2.6978516578674316 303.16961669921875 C 12.783792495727539 305.86083984375 20.133460998535156 313.21868896484375 22.889253616333008 323.58184814453125" stroke-width="0.0" fill="rgb(109, 116, 124)" opacity="0.9904132"/>
    <path d="M 79.89961242675781 372.4354553222656 C 76.9880142211914 383.51837158203125 69.374755859375 390.5853576660156 58.468997955322266 393.605224609375 C 48.239295959472656 391.0844421386719 40.85710525512695 383.7815856933594 38.10275650024414 373.2296447753906 C 40.876060485839844 362.2400207519531 48.258060455322266 354.9252624511719 59.12318420410156 352.21356201171875 C 69.73731994628906 354.92138671875 77.13282012939453 362.24127197265625 79.89961242675781 372.4354553222656" stroke-width="0.0" fill="rgb(122, 129, 138)" opacity="0.9909541"/>
    <path d="M 287.6763000488281 137.5531768798828 C 284.37127685546875 148.0209503173828 277.00946044921875 155.3308868408203 266.4962158203125 158.62437438964844 C 256.3187561035156 156.0132598876953 248.92758178710938 148.7030792236328 246.2499237060547 138.44081115722656 C 249.0344696044922 127.3595199584961 256.3448181152344 119.98914337158203 266.59576416015625 117.30845642089844 C 277.3653564453125 120.34497833251953 284.9162292480469 127.53702545166016 287.6763000488281 137.5531768798828" stroke-width="0.0" fill="rgb(158, 166, 177)" opacity="0.99093634"/>
    <path d="M 242.3434600830078 101.28971099853516 C 239.82040405273438 111.4503402709961 232.4120330810547 118.69673919677734 222.15213012695312 121.13892364501953 C 212.0 118.32051086425781 204.6794891357422 111.0 202.0 101.0 C 204.6794891357422 91.0 212.0 83.67948913574219 222.0 81.0 C 232.0 83.67948913574219 239.3205108642578 91.0 242.3434600830078 101.28971099853516" stroke-width="0.0" fill="rgb(139, 147, 157)" opacity="0.99951726"/>
    <path d="M 78.65447235107422 335.4633483886719 C 75.61042022705078 346.395751953125 68.50760650634766 353.94757080078125 57.59761428833008 356.7908935546875 C 47.236717224121094 354.1055603027344 39.85934066772461 346.77667236328125 37.08794403076172 336.20855712890625 C 39.87328338623047 325.2574768066406 47.30824279785156 318.0180358886719 58.428993225097656 315.2690734863281 C 68.71570587158203 317.9300537109375 76.06065368652344 325.28765869140625 78.65447235107422 335.4633483886719" stroke-width="0.0" fill="rgb(121, 128, 138)" opacity="1.0"/>
    <path d="M 534.623291015625 134.47866821289062 C 531.9414672851562 144.58438110351562 524.5914916992188 151.95932006835938 514.4515991210938 154.60520935058594 C 503.8631286621094 151.33607482910156 496.49359130859375 144.18565368652344 494.5817565917969 134.29502868652344 C 496.85626220703125 124.0586166381836 503.99237060546875 116.648681640625 513.9857177734375 113.9842529296875 C 523.9993286132812 116.67970275878906 531.3091430664062 124.00374603271484 534.623291015625 134.47866821289062" stroke-width="0.0" fill="rgb(181, 188, 199)" opacity="0.99008936"/>
    <path d="M 59.09016418457031 473.124755859375 C 56.69581985473633 483.4678955078125 49.55731964111328 490.9730224609375 39.47759246826172 493.58172607421875 C 29.0 490.32049560546875 21.67949104309082 483.0 18.984176635742188 472.97088623046875 C 21.53292465209961 462.7520751953125 28.602800369262695 455.11260986328125 38.51866912841797 452.3416748046875 C 49.0 455.67950439453125 56.32050704956055 463.0 59.09016418457031 473.124755859375" stroke-width="0.0" fill="rgb(107, 112, 122)" opacity="1.0"/>
    <path d="M 149.8911590576172 559.6397094726562 C 147.0889892578125 570.6954345703125 139.6300506591797 577.8929443359375 128.66900634765625 580.541015625 C 118.2505874633789 578.0509643554688 110.84842681884766 570.7839965820312 108.08688354492188 560.296142578125 C 110.91690826416016 549.3609619140625 118.49284362792969 542.2852172851562 129.37649536132812 539.52001953125 C 139.70523071289062 541.989990234375 147.12608337402344 549.2532958984375 149.8911590576172 559.6397094726562" stroke-width="0.0" fill="rgb(130, 135, 144)" opacity="1.0"/>
    <path d="M 387.60980224609375 157.57545471191406 C 384.8875427246094 167.67230224609375 377.72454833984375 175.0406494140625 367.550048828125 178.63145446777344 C 357.513671875 175.8402099609375 350.0826721191406 168.51478576660156 347.27496337890625 158.27186584472656 C 350.09735107421875 147.42434692382812 357.39190673828125 140.005126953125 367.64459228515625 137.2362518310547 C 378.5289306640625 140.0963134765625 385.7679443359375 147.5119171142578 387.60980224609375 157.57545471191406" stroke-width="0.0" fill="rgb(190, 199, 210)" opacity="0.9902296"/>
    <path d="M 377.53424072265625 105.55140686035156 C 374.32049560546875 116.0 367.0 123.32051086425781 356.8427429199219 126.1717529296875 C 346.66534423828125 123.66442108154297 339.34307861328125 116.3324203491211 336.52374267578125 105.86982727050781 C 339.38433837890625 95.83214569091797 346.89373779296875 88.56227111816406 357.4478759765625 85.39013671875 C 367.64984130859375 87.99636840820312 374.98291015625 95.35739135742188 377.53424072265625 105.55140686035156" stroke-width="0.0" fill="rgb(162, 170, 182)" opacity="1.0"/>
    <path d="M 590.9657592773438 475.26898193359375 C 588.1701049804688 486.7239990234375 580.5399169921875 493.69073486328125 569.1143798828125 496.93780517578125 C 559.0789184570312 494.254150390625 551.743408203125 486.922119140625 549.0321044921875 476.2315368652344 C 551.7538452148438 465.0918884277344 559.0916748046875 457.7535095214844 570.6484375 455.03192138671875 C 580.9249877929688 457.73870849609375 588.2546997070312 465.07794189453125 590.9657592773438 475.26898193359375" stroke-width="0.0" fill="rgb(1, 3, 9)" opacity="1.0"/>
    <path d="M 604.3704223632812 37.63922119140625 C 601.3212280273438 48.00053024291992 594.0004272460938 55.32080078125 583.9453125 58.037227630615234 C 573.7020263671875 55.529666900634766 566.1238403320312 48.41590118408203 563.1593627929688 37.44708251953125 C 565.8931884765625 27.261438369750977 573.27734375 19.93377113342285 584.1154174804688 17.156545639038086 C 594.6884155273438 19.9329891204834 601.9526977539062 27.350290298461914 604.3704223632812 37.63922119140625" stroke-width="0.0" fill="rgb(140, 147, 156)" opacity="1.0"/>
    <path d="M 427.8572082519531 579.424072265625 C 424.9464416503906 590.5833740234375 417.60589599609375 598.0028076171875 407.15228271484375 600.8468627929688 C 396.3648376464844 598.0079956054688 389.02130126953125 590.6246948242188 386.3500061035156 580.4144897460938 C 389.50030517578125 569.9154663085938 396.9666748046875 562.6649780273438 407.2193603515625 559.8259887695312 C 417.6252746582031 562.143310546875 425.12030029296875 569.28564453125 427.8572082519531 579.424072265625" stroke-width="0.0" fill="rgb(175, 181, 192)" opacity="1.0"/>
    <path d="M 134.7183074951172 337.42047119140625 C 131.36058044433594 348.0145263671875 124.00346374511719 355.3217468261719 113.86006164550781 358.18359375 C 103.79029846191406 355.58843994140625 96.55326080322266 348.166015625 93.45428466796875 337.5286560058594 C 95.97073364257812 327.298583984375 103.27442169189453 319.90338134765625 113.56966400146484 317.1438903808594 C 124.69679260253906 319.957275390625 132.06663513183594 327.29425048828125 134.7183074951172 337.42047119140625" stroke-width="0.0" fill="rgb(134, 141, 151)" opacity="0.9902441"/>
    <path d="M 224.0 105.0 C 221.3205108642578 115.0 214.0 122.32051086425781 203.35601806640625 125.7405776977539 C 193.2499542236328 123.11227416992188 185.93118286132812 115.73368072509766 183.18157958984375 105.40711975097656 C 186.31898498535156 94.82937622070312 193.94886779785156 87.66006469726562 203.99822998046875 84.99934387207031 C 214.0 87.67948913574219 221.3205108642578 95.0 224.0 105.0" stroke-width="0.0" fill="rgb(132, 140, 150)" opacity="0.99276847"/>
    <path d="M 525.7420654296875 11.40351390838623 C 522.368896484375 22.106752395629883 515.260498046875 29.78737449645996 504.918701171875 32.81135940551758 C 494.3568420410156 30.005233764648438 486.990234375 22.644969940185547 484.1441345214844 11.613529205322266 C 486.9787902832031 1.434436559677124 494.56451416015625 -5.656455993652344 505.0604553222656 -8.181572914123535 C 515.5093994140625 -5.743553638458252 523.0294799804688 1.394212245941162 525.7420654296875 11.40351390838623" stroke-width="0.0" fill="rgb(136, 143, 153)" opacity="0.9901078"/>
    <path d="M 233.00082397460938 111.00019836425781 C 230.3207550048828 121.00010681152344 223.0000457763672 128.32052612304688 212.34588623046875 131.77459716796875 C 202.31336975097656 129.08949279785156 195.13760375976562 121.60975646972656 192.7825469970703 111.24369812011719 C 195.6794891357422 101.0 203.0 93.67948913574219 213.0 91.0 C 223.0 93.67948913574219 230.3205108642578 101.0 233.00082397460938 111.00019836425781" stroke-width="0.0" fill="rgb(140, 147, 159)" opacity="0.99407077"/>
    <path d="M 279.5411071777344 216.5775604248047 C 276.3528137207031 227.06826782226562 269.154296875 234.61436462402344 258.5809326171875 237.74143981933594 C 248.39781188964844 234.9940643310547 241.097900390625 227.56838989257812 238.2555694580078 216.59376525878906 C 240.95314025878906 206.31314086914062 248.32376098632812 198.98306274414062 258.6057434082031 196.36170959472656 C 269.51605224609375 199.1823272705078 276.9307861328125 206.447509765625 279.5411071777344 216.5775604248047" stroke-width="0.0" fill="rgb(176, 183, 194)" opacity="1.0"/>
    <path d="M 222.0 200.0 C 219.3205108642578 210.0 212.0 217.3205108642578 201.97482299804688 220.01376342773438 C 191.7823486328125 217.4480743408203 184.15512084960938 210.3568572998047 181.3697967529297 200.44554138183594 C 184.6794891357422 190.0 192.0 182.6794891357422 202.0 180.0 C 212.0 182.6794891357422 219.3205108642578 190.0 222.0 200.0" stroke-width="0.0" fill="rgb(149, 157, 168)" opacity="0.99686366"/>
    <path d="M 328.6646728515625 594.4853515625 C 325.3692321777344 605.020263671875 318.0069885253906 612.3233642578125 307.9993896484375 615.00048828125 C 297.9744567871094 612.330322265625 290.4756774902344 605.0867919921875 287.20941162109375 594.4744262695312 C 289.98333740234375 584.3826904296875 297.4374694824219 577.1439819335938 308.2211608886719 574.466552734375 C 318.6319580078125 577.041015625 326.0154724121094 584.3491821289062 328.6646728515625 594.4853515625" stroke-width="0.0" fill="rgb(157, 164, 174)" opacity="1.0"/>
    <path d="M 305.803466796875 235.45802307128906 C 303.0422058105469 245.64688110351562 295.5909423828125 252.87757873535156 285.2798156738281 255.27520751953125 C 274.9730529785156 252.33055114746094 267.45648193359375 245.09503173828125 264.50726318359375 235.2620849609375 C 267.65460205078125 224.95252990722656 274.8984680175781 217.48182678222656 285.3720397949219 214.3636016845703 C 295.5882568359375 217.04371643066406 302.9142150878906 224.42694091796875 305.803466796875 235.45802307128906" stroke-width="0.0" fill="rgb(177, 185, 197)" opacity="0.9910328"/>
    <path d="M 302.8183288574219 184.29991149902344 C 300.0080871582031 194.6163330078125 292.5971984863281 201.96163940429688 282.4166564941406 204.75201416015625 C 271.8063659667969 201.64747619628906 264.62115478515625 194.10545349121094 261.9940490722656 184.0108642578125 C 264.6796569824219 174.0003662109375 272.0015563964844 166.68386840820312 282.0047302246094 164.05715942382812 C 292.1304626464844 166.62466430664062 299.78466796875 173.72445678710938 302.8183288574219 184.29991149902344" stroke-width="0.0" fill="rgb(172, 181, 192)" opacity="1.0"/>
    <path d="M 597.6618041992188 74.54710388183594 C 595.0422973632812 84.69337463378906 587.6973266601562 92.05331420898438 576.9956665039062 94.83257293701172 C 566.3652954101562 92.00919342041016 558.9606323242188 84.64751434326172 556.1693115234375 74.36032104492188 C 559.0277709960938 63.42149353027344 566.4768676757812 56.19802474975586 576.7846069335938 53.80144500732422 C 587.0 56.67949295043945 594.3206787109375 63.99993896484375 597.6618041992188 74.54710388183594" stroke-width="0.0" fill="rgb(155, 162, 173)" opacity="0.9912623"/>
    <path d="M 242.81480407714844 304.8983154296875 C 239.9855499267578 315.61834716796875 232.60829162597656 322.9566345214844 221.55747985839844 325.8182067871094 C 211.3523406982422 323.03948974609375 204.03594970703125 315.61859130859375 201.2706756591797 305.1008605957031 C 204.13018798828125 294.56988525390625 211.65602111816406 287.3763122558594 222.43263244628906 284.3243408203125 C 232.61672973632812 287.0201110839844 239.9881591796875 294.38067626953125 242.81480407714844 304.8983154296875" stroke-width="0.0" fill="rgb(166, 175, 186)" opacity="0.99041"/>
    <path d="M 139.0 530.0 C 136.3205108642578 540.0 129.0 547.3204956054688 119.00369262695312 549.9949340820312 C 109.00615692138672 547.3121948242188 101.68302154541016 539.9953002929688 99.00069427490234 529.9990844726562 C 101.67948913574219 520.0 109.0 512.6795043945312 119.0 510.0 C 129.0 512.6795043945312 136.3205108642578 520.0 139.0 530.0" stroke-width="0.0" fill="rgb(129, 135, 144)" opacity="0.9999167"/>
    <path d="M 205.76373291015625 342.1635437011719 C 202.8427276611328 352.34942626953125 195.2086639404297 359.4452209472656 185.01380920410156 362.0205993652344 C 174.84561157226562 359.3979797363281 167.1541748046875 352.3210754394531 164.18414306640625 342.0891418457031 C 166.9894256591797 331.32318115234375 174.30471801757812 323.9387512207031 184.82745361328125 321.19061279296875 C 195.6366729736328 323.98602294921875 202.94097900390625 331.38922119140625 205.76373291015625 342.1635437011719" stroke-width="0.0" fill="rgb(159, 167, 179)" opacity="0.99297947"/>
    <path d="M 63.90868377685547 561.91015625 C 61.154518127441406 572.8109130859375 53.821266174316406 580.1787719726562 42.62493896484375 582.93359375 C 32.144107818603516 580.197021484375 24.787410736083984 572.8626098632812 22.056800842285156 562.5648193359375 C 24.819698333740234 551.1787109375 32.19336700439453 543.8563842773438 42.52126693725586 541.18603515625 C 53.780818939208984 543.908203125 61.164207458496094 551.1941528320312 63.90868377685547 561.91015625" stroke-width="0.0" fill="rgb(91, 95, 102)" opacity="0.9902216"/>
    <path d="M 204.66925048828125 235.54745483398438 C 202.02857971191406 245.65525817871094 194.62725830078125 252.9463653564453 183.7754669189453 255.65220642089844 C 173.3153839111328 253.0172882080078 165.93023681640625 245.70318603515625 163.1676025390625 235.10691833496094 C 165.9356231689453 224.2976837158203 173.31040954589844 216.97071838378906 183.4821014404297 214.37649536132812 C 194.0 217.6794891357422 201.3205108642578 225.0 204.66925048828125 235.54745483398438" stroke-width="0.0" fill="rgb(156, 163, 174)" opacity="1.0"/>
    <path d="M 540.7557983398438 119.74507141113281 C 537.8782958984375 130.4429168701172 530.348388671875 137.5914764404297 520.1058349609375 139.983154296875 C 510.1192932128906 137.2239990234375 502.91497802734375 129.83750915527344 500.3695068359375 120.03894805908203 C 502.5652160644531 109.66304016113281 509.5345153808594 102.1016616821289 519.9859008789062 99.29875946044922 C 530.6174926757812 102.03820037841797 538.001220703125 109.3685302734375 540.7557983398438 119.74507141113281" stroke-width="0.0" fill="rgb(169, 178, 188)" opacity="0.9902086"/>
    <path d="M 87.88671112060547 277.05126953125 C 85.1136245727539 287.7510681152344 77.73973846435547 295.0835266113281 67.5869369506836 297.68145751953125 C 57.0 294.32049560546875 49.67949295043945 287.0 47.0 277.0 C 49.67949295043945 267.0 57.0 259.67950439453125 67.35918426513672 256.64794921875 C 77.67359924316406 259.0355529785156 85.1009292602539 266.2800598144531 87.88671112060547 277.05126953125" stroke-width="0.0" fill="rgb(126, 131, 142)" opacity="0.99190295"/>
    <path d="M 594.4570922851562 213.4842529296875 C 591.60986328125 223.3030548095703 584.2759399414062 230.53802490234375 574.6769409179688 233.10662841796875 C 565.6979370117188 230.57492065429688 558.4290161132812 223.3006591796875 555.6204833984375 213.18748474121094 C 556.8198852539062 203.16993713378906 564.1925659179688 195.8885498046875 574.4236450195312 194.2902069091797 C 584.9508056640625 196.83041381835938 592.4273071289062 203.9703826904297 594.4570922851562 213.4842529296875" stroke-width="0.0" fill="rgb(114, 125, 142)" opacity="0.99001247"/>
    <path d="M 50.21440505981445 481.167724609375 C 47.635650634765625 491.2540283203125 40.20676803588867 498.482666015625 29.402620315551758 501.65203857421875 C 19.197927474975586 499.1266784667969 11.823081016540527 491.8202819824219 9.132930755615234 481.7733459472656 C 12.681472778320312 471.0015563964844 20.001333236694336 463.68072509765625 29.99797248840332 461.0074157714844 C 39.99739456176758 463.6837158203125 47.31923294067383 471.0017395019531 50.21440505981445 481.167724609375" stroke-width="0.0" fill="rgb(105, 105, 116)" opacity="1.0"/>
    <path d="M 297.5660705566406 252.7247314453125 C 294.0248718261719 262.7554016113281 286.8005676269531 270.16754150390625 276.9500427246094 272.9581298828125 C 266.9732360839844 270.3349304199219 259.4918518066406 263.0807189941406 256.2213134765625 252.49729919433594 C 259.006591796875 242.40997314453125 266.4676818847656 235.17726135253906 276.76007080078125 232.77227783203125 C 287.02392578125 235.67552185058594 294.5523986816406 242.90269470214844 297.5660705566406 252.7247314453125" stroke-width="0.0" fill="rgb(174, 183, 194)" opacity="0.9914067"/>
    <path d="M 67.86963653564453 526.3201904296875 C 65.03701782226562 537.7440795898438 57.78171157836914 545.14794921875 47.528282165527344 547.822021484375 C 36.218971252441406 545.0905151367188 28.815227508544922 537.8157348632812 26.056583404541016 527.7593994140625 C 29.16500473022461 516.72802734375 36.91911697387695 509.6488342285156 47.63374328613281 506.34442138671875 C 57.833492279052734 508.8465881347656 65.18779754638672 516.1549682617188 67.86963653564453 526.3201904296875" stroke-width="0.0" fill="rgb(104, 108, 115)" opacity="1.0"/>
    <path d="M 143.8343048095703 533.7385864257812 C 141.15072631835938 543.7395629882812 133.62669372558594 550.804443359375 122.70341491699219 553.4198608398438 C 112.4729232788086 550.9063110351562 105.26216125488281 543.4749755859375 102.86549377441406 533.1630859375 C 105.67948913574219 523.0 113.0 515.6795043945312 123.0 513.0 C 133.0 515.6795043945312 140.3205108642578 523.0 143.8343048095703 533.7385864257812" stroke-width="0.0" fill="rgb(138, 142, 152)" opacity="1.0"/>
    <path d="M 551.8396606445312 30.417896270751953 C 549.09814453125 40.732791900634766 541.716796875 48.05642318725586 531.26513671875 50.78916931152344 C 520.375 47.97605895996094 512.986328125 40.63889694213867 510.29833984375 30.548561096191406 C 513.5963745117188 19.84814453125 520.6807250976562 12.152219772338867 530.468505859375 9.250710487365723 C 541.2467651367188 12.534722328186035 548.8984375 19.597402572631836 551.8396606445312 30.417896270751953" stroke-width="0.0" fill="rgb(147, 154, 164)" opacity="1.0"/>
    <path d="M 543.8447875976562 68.39155578613281 C 541.0786743164062 78.71060180664062 533.6953125 86.03707885742188 523.1240844726562 88.77740478515625 C 512.3638916015625 85.99024200439453 504.9850769042969 78.64563751220703 502.187255859375 67.73904418945312 C 504.9519348144531 57.34151077270508 512.3639526367188 50.004478454589844 522.7561645507812 47.17868423461914 C 533.6217041015625 50.02035903930664 541.0055541992188 57.36827087402344 543.8447875976562 68.39155578613281" stroke-width="0.0" fill="rgb(151, 158, 168)" opacity="0.990119"/>
    <path d="M 20.838783264160156 371.7421875 C 18.162673950195312 381.8038330078125 10.791177749633789 389.13116455078125 0.6830215454101562 391.792724609375 C -10.0 388.32049560546875 -17.32050895690918 381.0 -20.0 371.0 C -17.32050895690918 361.0 -10.0 353.67950439453125 -3.673940187178589e-15 351.0 C 10.0 353.67950439453125 17.32050895690918 361.0 20.838783264160156 371.7421875" stroke-width="0.0" fill="rgb(109, 115, 124)" opacity="1.0"/>
    <path d="M 96.89628601074219 196.47645568847656 C 94.08297729492188 207.7129669189453 86.6800765991211 214.98422241210938 76.19246673583984 217.49761962890625 C 65.34325408935547 214.9168243408203 57.88954544067383 207.7210693359375 55.23390579223633 197.65980529785156 C 58.66184616088867 186.9874725341797 65.98953247070312 179.66885375976562 76.5119400024414 176.44200134277344 C 86.74363708496094 178.93614196777344 94.1431884765625 186.22738647460938 96.89628601074219 196.47645568847656" stroke-width="0.0" fill="rgb(121, 128, 136)" opacity="0.9905821"/>
    <path d="M 400.2479553222656 69.7968978881836 C 397.8548278808594 79.71601867675781 390.9364929199219 87.5341567993164 380.5231628417969 90.75601196289062 C 370.33062744140625 88.0430679321289 362.9986572265625 80.65280151367188 360.20599365234375 70.17179107666016 C 363.0162048339844 59.39202880859375 370.42254638671875 52.10738754272461 380.6775207519531 49.64706039428711 C 390.94818115234375 52.702003479003906 398.0287170410156 60.14108657836914 400.2479553222656 69.7968978881836" stroke-width="0.0" fill="rgb(165, 174, 185)" opacity="0.9901234"/>
    <path d="M 123.89691925048828 62.93496322631836 C 121.13626098632812 73.7816390991211 113.78372192382812 81.14167785644531 103.05258178710938 83.91360473632812 C 92.19937896728516 81.15458679199219 84.85889434814453 73.79522705078125 82.09150695800781 62.68467712402344 C 84.84361267089844 52.1943359375 92.19417572021484 44.84346389770508 103.39736938476562 42.07977294921875 C 113.80502319335938 44.834712982177734 121.14750671386719 52.202335357666016 123.89691925048828 62.93496322631836" stroke-width="0.0" fill="rgb(111, 116, 124)" opacity="1.0"/>
    <path d="M 566.736083984375 585.5384521484375 C 563.9987182617188 595.603515625 556.5501708984375 602.8388061523438 545.9392700195312 605.419677734375 C 535.426513671875 602.8736572265625 528.010009765625 595.6114501953125 525.217529296875 584.6917114257812 C 527.8792114257812 574.1900634765625 535.1693725585938 566.8193359375 545.273681640625 564.2144165039062 C 556.0025634765625 567.6786499023438 563.3646240234375 574.9851684570312 566.736083984375 585.5384521484375" stroke-width="0.0" fill="rgb(168, 175, 185)" opacity="1.0"/>
    <path d="M 29.889713287353516 357.202392578125 C 27.09882926940918 367.7167053222656 19.67123031616211 374.9657897949219 9.367128372192383 377.345703125 C -0.9960407614707947 374.31146240234375 -8.319756507873535 366.9984130859375 -10.999696731567383 357.00030517578125 C -8.318178176879883 347.0042724609375 -0.9913663864135742 339.6968994140625 9.628044128417969 336.2967224121094 C 19.77176284790039 338.88433837890625 27.118139266967773 346.22760009765625 29.889713287353516 357.202392578125" stroke-width="0.0" fill="rgb(115, 121, 130)" opacity="1.0"/>
    <path d="M 490.6355895996094 585.4132080078125 C 487.32049560546875 596.0 480.0 603.3204956054688 469.970703125 606.019775390625 C 459.8200988769531 603.4412231445312 452.2855224609375 596.2693481445312 449.2904052734375 585.6207275390625 C 451.9863586425781 575.3494262695312 459.3656311035156 568.0325317382812 470.55633544921875 565.1836547851562 C 480.78790283203125 567.8679809570312 488.1106262207031 575.2191772460938 490.6355895996094 585.4132080078125" stroke-width="0.0" fill="rgb(170, 177, 188)" opacity="1.0"/>
    <path d="M 206.7209930419922 363.2769775390625 C 202.85601806640625 373.94451904296875 196.4751434326172 382.03399658203125 185.58013916015625 384.9122314453125 C 175.19772338867188 382.1708068847656 167.91043090820312 374.77105712890625 165.31224060058594 364.5910339355469 C 168.69215393066406 354.0086975097656 176.00750732421875 346.68798828125 186.01809692382812 343.9961853027344 C 196.22056579589844 346.57269287109375 203.98211669921875 353.5546875 206.7209930419922 363.2769775390625" stroke-width="0.0" fill="rgb(159, 166, 177)" opacity="1.0"/>
    <path d="M 72.87336730957031 301.6910400390625 C 70.14755249023438 311.77374267578125 62.73207092285156 319.0278015136719 51.46495056152344 321.79400634765625 C 41.23615264892578 319.1207580566406 33.889888763427734 311.75933837890625 31.112239837646484 300.7312927246094 C 33.871089935302734 290.23150634765625 41.241111755371094 282.8966979980469 51.38898468017578 280.3002624511719 C 62.08820343017578 283.6390686035156 69.69690704345703 290.7959899902344 72.87336730957031 301.6910400390625" stroke-width="0.0" fill="rgb(119, 125, 135)" opacity="1.0"/>
    <path d="M 290.0035095214844 181.9941864013672 C 287.32781982421875 192.0164794921875 280.0476989746094 199.43264770507812 269.7973327636719 202.45225524902344 C 259.4330139160156 199.8743133544922 252.0369873046875 192.59530639648438 249.2257080078125 181.72947692871094 C 251.97442626953125 171.3485565185547 259.3711242675781 164.03778076171875 269.5736083984375 161.4761199951172 C 280.01422119140625 164.6658477783203 287.3374328613281 171.98487854003906 290.0035095214844 181.9941864013672" stroke-width="0.0" fill="rgb(166, 174, 186)" opacity="1.0"/>
    <path d="M 566.7553100585938 2.595593214035034 C 564.0780639648438 12.722403526306152 556.7186279296875 20.067890167236328 546.58740234375 22.704648971557617 C 535.8231811523438 19.410310745239258 528.1951904296875 12.313677787780762 525.3450927734375 2.4154701232910156 C 528.6566772460938 -8.007514953613281 535.9987182617188 -15.320921897888184 546.0 -18.000022888183594 C 556.0025024414062 -15.321332931518555 563.3661499023438 -8.015218734741211 566.7553100585938 2.595593214035034" stroke-width="0.0" fill="rgb(139, 146, 155)" opacity="0.9922605"/>
    <path d="M 253.6785430908203 91.54823303222656 C 251.04461669921875 101.69432067871094 243.6942901611328 109.04302978515625 233.51734924316406 111.58900451660156 C 223.00259399414062 108.31744384765625 215.68125915527344 100.997802734375 212.99935913085938 90.99801635742188 C 215.6731414794922 80.99069213867188 222.98683166503906 73.66020965576172 232.9907684326172 70.98644256591797 C 243.0005645751953 73.67930603027344 250.33197021484375 80.9963150024414 253.6785430908203 91.54823303222656" stroke-width="0.0" fill="rgb(144, 152, 162)" opacity="1.0"/>
    <path d="M 579.7990112304688 564.8207397460938 C 576.8692016601562 575.5147094726562 569.5146484375 582.8650512695312 559.32470703125 585.3614501953125 C 548.9996948242188 582.3065795898438 541.5098266601562 575.05712890625 538.0853271484375 564.2238159179688 C 540.8387451171875 554.2510375976562 548.347412109375 547.090087890625 558.7242431640625 544.689208984375 C 569.2308349609375 547.5254516601562 576.853515625 554.6348876953125 579.7990112304688 564.8207397460938" stroke-width="0.0" fill="rgb(179, 185, 195)" opacity="1.0"/>
    <path d="M 133.1732635498047 526.1162109375 C 130.52735900878906 536.1494140625 123.11515045166016 543.4173583984375 113.03095245361328 546.0977783203125 C 103.01285552978516 543.3134765625 95.70329284667969 535.982421875 93.04847717285156 525.9948120117188 C 95.68856048583984 516.004150390625 103.00177764892578 508.6802978515625 113.00010681152344 506.0000305175781 C 123.0 508.67950439453125 130.3205108642578 516.0 133.1732635498047 526.1162109375" stroke-width="0.0" fill="rgb(127, 131, 142)" opacity="1.0"/>
    <path d="M 144.86546325683594 357.2138671875 C 142.11256408691406 367.7540588378906 134.75238037109375 375.1090393066406 123.67488861083984 377.9000549316406 C 113.21757507324219 375.1409606933594 105.87994384765625 367.7742004394531 103.17369842529297 357.6351013183594 C 106.47666931152344 346.91412353515625 113.97220611572266 339.6602783203125 124.39163208007812 336.5831604003906 C 134.66873168945312 339.0195007324219 142.0657501220703 346.302978515625 144.86546325683594 357.2138671875" stroke-width="0.0" fill="rgb(143, 150, 161)" opacity="0.99115384"/>
    <path d="M 550.8063354492188 535.3572387695312 C 548.149169921875 546.8600463867188 540.890869140625 554.2423706054688 529.7787475585938 556.9655151367188 C 519.0825805664062 554.2512817382812 511.7444763183594 546.919189453125 509.03765869140625 536.810546875 C 511.91265869140625 525.5164794921875 519.569091796875 517.95458984375 530.7703857421875 515.0448608398438 C 540.893310546875 517.7633666992188 548.2068481445312 525.1178588867188 550.8063354492188 535.3572387695312" stroke-width="0.0" fill="rgb(17, 18, 27)" opacity="0.990053"/>
    <path d="M 162.9686737060547 517.375 C 160.2527313232422 527.9114990234375 152.90557861328125 535.2396240234375 142.80934143066406 537.9511108398438 C 131.2698516845703 535.1226806640625 124.07359313964844 527.6633911132812 122.0798110961914 517.5116577148438 C 125.4020004272461 507.7937927246094 132.8587188720703 500.5907287597656 142.6813507080078 497.9714050292969 C 152.38705444335938 500.50628662109375 160.2322540283203 506.1658935546875 162.9686737060547 517.375" stroke-width="0.0" fill="rgb(5, 7, 11)" opacity="0.99000835"/>
    <path d="M 422.9618835449219 562.3963012695312 C 420.19049072265625 573.7550659179688 412.2531433105469 579.5852661132812 402.05328369140625 582.0521240234375 C 392.0439453125 579.5379028320312 383.7845458984375 573.7771606445312 381.0365905761719 563.7154541015625 C 383.8957214355469 552.3644409179688 391.4120178222656 544.9647216796875 402.7210998535156 542.05615234375 C 412.89996337890625 544.7659301757812 420.24505615234375 552.0953979492188 422.9618835449219 562.3963012695312" stroke-width="0.0" fill="rgb(7, 8, 13)" opacity="0.9900416"/>
    <path d="M 233.79916381835938 195.94297790527344 C 231.005859375 206.63803100585938 223.61854553222656 213.94789123535156 213.38650512695312 216.43540954589844 C 202.9996795654297 213.32064819335938 195.67709350585938 206.00096130371094 192.97300720214844 195.967529296875 C 195.52427673339844 185.75697326660156 202.63809204101562 178.173095703125 213.19198608398438 175.267333984375 C 223.60708618164062 178.04466247558594 231.00942993164062 185.37225341796875 233.79916381835938 195.94297790527344" stroke-width="0.0" fill="rgb(155, 163, 174)" opacity="0.9907028"/>
    <path d="M 57.95747756958008 507.1831359863281 C 54.967742919921875 518.36328125 46.94419479370117 525.04248046875 36.270973205566406 528.65576171875 C 26.12511444091797 526.1948852539062 18.770553588867188 518.8871459960938 16.054771423339844 508.6601257324219 C 18.85567855834961 497.2854919433594 26.424840927124023 490.26312255859375 37.66639709472656 487.3269958496094 C 47.84770965576172 489.83135986328125 55.2266845703125 497.1295471191406 57.95747756958008 507.1831359863281" stroke-width="0.0" fill="rgb(42, 48, 63)" opacity="1.0"/>
    <path d="M 62.73537063598633 13.079124450683594 C 60.087730407714844 23.769336700439453 52.794944763183594 31.15898323059082 41.62311553955078 33.93146896362305 C 31.165529251098633 31.184785842895508 23.821462631225586 23.83197021484375 21.076969146728516 13.188145637512207 C 23.85191535949707 2.2483739852905273 31.324764251708984 -4.9278082847595215 41.95759201049805 -7.3921709060668945 C 52.614845275878906 -4.885251045227051 60.03704833984375 2.3374061584472656 62.73537063598633 13.079124450683594" stroke-width="0.0" fill="rgb(86, 89, 97)" opacity="0.99016196"/>
    <path d="M 605.2952880859375 59.28702926635742 C 602.8518676757812 69.51858520507812 595.5086669921875 76.8190689086914 585.2445068359375 79.22859191894531 C 575.00732421875 76.31134796142578 567.67919921875 68.9952392578125 564.3640747070312 58.58664321899414 C 567.1714477539062 48.6573600769043 574.796630859375 41.577335357666016 584.9681396484375 39.11501693725586 C 594.96533203125 41.731727600097656 602.3013916015625 49.02487564086914 605.2952880859375 59.28702926635742" stroke-width="0.0" fill="rgb(155, 162, 172)" opacity="1.0"/>
    <path d="M 494.6830139160156 592.7034301757812 C 491.58734130859375 603.137939453125 484.0605773925781 610.348876953125 473.9994812011719 613.00439453125 C 463.9544982910156 610.3455200195312 456.5386962890625 603.0809326171875 453.8504943847656 593.0943603515625 C 456.6898498535156 583.01123046875 464.0149841308594 575.7027587890625 474.11346435546875 572.9365234375 C 484.3470458984375 575.400146484375 491.8822021484375 582.557373046875 494.6830139160156 592.7034301757812" stroke-width="0.0" fill="rgb(168, 174, 186)" opacity="0.9918475"/>
    <path d="M 159.8408660888672 142.65383911132812 C 156.9007110595703 153.3982391357422 149.23484802246094 160.451171875 138.49362182617188 163.5612335205078 C 128.25686645507812 161.0627899169922 120.86907196044922 153.76730346679688 118.11937713623047 143.2026824951172 C 120.88777923583984 132.2448272705078 128.23776245117188 124.87031555175781 138.61099243164062 122.09902954101562 C 149.74623107910156 124.89413452148438 157.09022521972656 132.2597198486328 159.8408660888672 142.65383911132812" stroke-width="0.0" fill="rgb(128, 135, 145)" opacity="0.9902593"/>
    <path d="M 183.0 580.0 C 180.32052612304688 590.0000610351562 173.00057983398438 597.3224487304688 162.3103790283203 600.8215942382812 C 152.3275146484375 598.092041015625 145.18577575683594 590.575439453125 142.33697509765625 579.48291015625 C 144.91197204589844 569.246337890625 152.23353576660156 561.8761596679688 162.319091796875 559.2071533203125 C 173.0001983642578 562.6788330078125 180.3205108642578 570.0 183.0 580.0" stroke-width="0.0" fill="rgb(117, 124, 132)" opacity="1.0"/>
    <path d="M 613.0028686523438 580.0061645507812 C 610.3624267578125 590.0880126953125 603.193603515625 597.6741333007812 592.597412109375 600.7595825195312 C 582.3681640625 598.0100708007812 575.0336303710938 590.6145629882812 572.21142578125 580.2572631835938 C 575.2021484375 569.5924682617188 582.6177978515625 562.2844848632812 592.8106689453125 559.7948608398438 C 603.0 562.6795043945312 610.3204956054688 570.0 613.0028686523438 580.0061645507812" stroke-width="0.0" fill="rgb(167, 173, 184)" opacity="1.0"/>
    <path d="M 114.81822967529297 590.8745727539062 C 111.98461151123047 601.52001953125 104.37889862060547 608.5814208984375 94.00064849853516 611.07763671875 C 83.61859893798828 608.5813598632812 75.99021911621094 601.5361938476562 73.09114074707031 590.3779907226562 C 75.80663299560547 580.1482543945312 83.14595031738281 572.8007202148438 93.45958709716797 570.077392578125 C 104.80145263671875 572.8410034179688 112.10846710205078 580.217041015625 114.81822967529297 590.8745727539062" stroke-width="0.0" fill="rgb(104, 108, 116)" opacity="0.99251556"/>
    <path d="M 175.88804626464844 69.90987396240234 C 173.1441192626953 80.79898834228516 165.80458068847656 88.15864562988281 155.5723876953125 90.89195251464844 C 144.28533935546875 88.0711898803711 136.91656494140625 80.71952056884766 134.11805725097656 69.59977722167969 C 136.85076904296875 59.19837188720703 144.1949462890625 51.84193801879883 154.482666015625 49.106590270996094 C 165.76454162597656 51.89716339111328 173.14059448242188 59.22065353393555 175.88804626464844 69.90987396240234" stroke-width="0.0" fill="rgb(121, 127, 138)" opacity="1.0"/>
    <path d="M 137.0633544921875 515.4791259765625 C 134.49436950683594 525.09765625 126.83494567871094 531.8541870117188 117.51470947265625 534.1005859375 C 107.75160217285156 531.5263061523438 100.45320892333984 524.25634765625 97.79478454589844 514.2847290039062 C 98.95391845703125 504.2222595214844 106.18341064453125 496.8269958496094 116.1117935180664 495.95440673828125 C 126.12843322753906 498.5933837890625 133.54641723632812 505.8244934082031 137.0633544921875 515.4791259765625" stroke-width="0.0" fill="rgb(9, 12, 17)" opacity="0.9900136"/>
    <path d="M 75.5047378540039 449.7308654785156 C 72.32051086425781 460.0 65.0 467.32049560546875 54.99967575073242 470.0001220703125 C 44.988563537597656 467.3245849609375 37.54963302612305 460.04925537109375 34.176753997802734 449.35955810546875 C 36.91314697265625 439.3253479003906 44.41706466674805 432.1860656738281 54.808292388916016 429.8501281738281 C 65.03131103515625 432.6667175292969 72.54133605957031 439.90240478515625 75.5047378540039 449.7308654785156" stroke-width="0.0" fill="rgb(112, 117, 125)" opacity="1.0"/>
    <path d="M 418.8951721191406 41.4473876953125 C 415.44854736328125 51.7941780090332 407.7234802246094 59.0712776184082 397.9085998535156 61.91281509399414 C 388.0 59.32050704956055 380.67950439453125 52.0 377.6756591796875 41.67499923706055 C 380.07427978515625 31.36441993713379 387.316162109375 23.93149757385254 397.90631103515625 21.155141830444336 C 408.6840515136719 23.942970275878906 416.0675048828125 31.312652587890625 418.8951721191406 41.4473876953125" stroke-width="0.0" fill="rgb(152, 158, 171)" opacity="0.9906102"/>
    <path d="M 224.0215301513672 97.0044174194336 C 221.3261260986328 107.00294494628906 214.00201416015625 114.32282257080078 204.00015258789062 117.0050048828125 C 193.95286560058594 114.33781433105469 186.3322296142578 107.16178894042969 183.19122314453125 96.7149887084961 C 186.0787353515625 86.5579833984375 193.701416015625 79.4853744506836 203.95521545410156 76.97303771972656 C 214.00001525878906 79.67948913574219 221.32102966308594 86.99984741210938 224.0215301513672 97.0044174194336" stroke-width="0.0" fill="rgb(137, 144, 154)" opacity="1.0"/>
    <path d="M 221.75860595703125 218.43870544433594 C 219.02874755859375 228.67185974121094 211.67251586914062 236.03012084960938 201.5358428955078 238.65008544921875 C 190.9998321533203 235.3203582763672 183.67787170410156 228.00067138671875 180.4362030029297 217.6068878173828 C 183.1811981201172 207.64466857910156 190.76010131835938 200.522705078125 200.96324157714844 197.97650146484375 C 211.03489685058594 200.66493225097656 218.5690460205078 207.88931274414062 221.75860595703125 218.43870544433594" stroke-width="0.0" fill="rgb(154, 164, 173)" opacity="0.99204886"/>
    <path d="M 278.9955749511719 286.9913635253906 C 276.26806640625 296.8968200683594 268.7820739746094 303.93414306640625 258.4969177246094 306.48602294921875 C 248.42578125 304.8984069824219 241.0129852294922 297.6036071777344 238.20791625976562 287.327392578125 C 241.05735778808594 276.4416198730469 248.48443603515625 269.189208984375 258.7654113769531 266.7630920410156 C 269.0000915527344 269.6792297363281 276.32049560546875 276.9999694824219 278.9955749511719 286.9913635253906" stroke-width="0.0" fill="rgb(179, 186, 196)" opacity="0.9913029"/>
    <path d="M 152.7204132080078 588.5795288085938 C 150.07810974121094 598.6780395507812 142.59896850585938 605.8348388671875 132.07705688476562 608.2503051757812 C 121.5167007446289 605.7301025390625 114.03810119628906 598.5576171875 111.16635131835938 587.4788208007812 C 113.91781616210938 577.3321533203125 121.4215316772461 570.1773681640625 132.0414581298828 567.6495361328125 C 142.43002319335938 570.2155151367188 149.68846130371094 577.5992431640625 152.7204132080078 588.5795288085938" stroke-width="0.0" fill="rgb(110, 116, 124)" opacity="0.9902368"/>
    <path d="M 587.7703247070312 535.66943359375 C 584.9133911132812 546.5604248046875 577.5514526367188 553.8845825195312 567.3109130859375 556.3678588867188 C 556.7892456054688 553.4537353515625 549.14697265625 546.3541259765625 546.204345703125 536.2090454101562 C 549.1102905273438 525.5072021484375 556.5379028320312 518.1994018554688 567.323486328125 515.333251953125 C 577.6181640625 518.0239868164062 584.9827880859375 525.380126953125 587.7703247070312 535.66943359375" stroke-width="0.0" fill="rgb(188, 195, 205)" opacity="0.9904791"/>
    <path d="M 500.9688415527344 547.312744140625 C 498.2622375488281 557.9298706054688 490.9307556152344 565.2643432617188 480.92926025390625 567.9323120117188 C 470.87713623046875 563.4290771484375 463.58111572265625 556.1189575195312 460.9630126953125 547.46630859375 C 463.57904052734375 537.831787109375 470.612548828125 528.9508056640625 480.8006896972656 526.033447265625 C 490.92926025390625 528.7379150390625 498.2607116699219 536.0712890625 500.9688415527344 547.312744140625" stroke-width="0.0" fill="rgb(2, 2, 2)" opacity="0.9900075"/>
    <path d="M 264.2646179199219 72.74427032470703 C 261.34942626953125 83.04564666748047 254.0640106201172 90.4103775024414 244.03575134277344 93.06217193603516 C 233.9927215576172 90.3309097290039 226.66287231445312 83.00888061523438 223.2890167236328 72.4196548461914 C 225.93267822265625 62.278507232666016 233.27047729492188 54.911808013916016 243.7087860107422 52.16909408569336 C 254.57777404785156 55.024681091308594 261.8310241699219 62.47100067138672 264.2646179199219 72.74427032470703" stroke-width="0.0" fill="rgb(137, 145, 156)" opacity="1.0"/>
    <path d="M 76.89356231689453 453.71295166015625 C 74.07239532470703 463.5752868652344 66.36267852783203 470.53668212890625 56.04411315917969 473.0199890136719 C 46.01047897338867 470.3121032714844 38.70040512084961 462.9858703613281 36.056846618652344 452.999755859375 C 38.697505950927734 443.01177978515625 46.00840759277344 435.68597412109375 56.00261688232422 433.00115966796875 C 66.02808380126953 435.6692199707031 73.5597915649414 442.89788818359375 76.89356231689453 453.71295166015625" stroke-width="0.0" fill="rgb(118, 124, 133)" opacity="1.0"/>
    <path d="M 191.8848114013672 31.31759262084961 C 189.1522674560547 41.804866790771484 181.80685424804688 49.157283782958984 170.9651641845703 51.900306701660156 C 160.18173217773438 49.164825439453125 152.84561157226562 41.81419372558594 150.11268615722656 31.38008689880371 C 152.89749145507812 20.25279998779297 160.2471466064453 12.883234024047852 171.09912109375 10.105979919433594 C 181.7937774658203 12.855480194091797 189.13497924804688 20.209697723388672 191.8848114013672 31.31759262084961" stroke-width="0.0" fill="rgb(117, 123, 132)" opacity="1.0"/>
    <path d="M 250.82557678222656 575.5042114257812 C 247.66412353515625 586.1640014648438 240.0540313720703 593.3456420898438 230.01156616210938 595.9801635742188 C 220.01319885253906 593.3021850585938 212.68539428710938 585.9904174804688 209.99375915527344 575.9989013671875 C 212.67221069335938 565.9813842773438 219.93252563476562 558.5137939453125 230.58274841308594 555.204833984375 C 240.71926879882812 557.9274291992188 248.08486938476562 565.275634765625 250.82557678222656 575.5042114257812" stroke-width="0.0" fill="rgb(144, 150, 158)" opacity="0.9908118"/>
    <path d="M 76.90646362304688 125.47029113769531 C 74.11933135986328 136.76953125 66.77424621582031 144.13150024414062 55.76632308959961 146.90672302246094 C 45.20825958251953 144.142333984375 37.83788299560547 136.8002166748047 35.08674240112305 126.42634582519531 C 37.84541702270508 115.185791015625 45.17695617675781 107.82310485839844 56.22085952758789 105.0698471069336 C 66.82465362548828 107.81560516357422 74.16432189941406 115.18435668945312 76.90646362304688 125.47029113769531" stroke-width="0.0" fill="rgb(107, 113, 121)" opacity="1.0"/>
    <path d="M 339.7647399902344 138.03668212890625 C 336.9710388183594 148.63128662109375 329.6454162597656 156.01104736328125 319.3205261230469 158.7531280517578 C 308.6383361816406 155.79754638671875 301.2290954589844 148.3479461669922 298.16943359375 137.62718200683594 C 301.0103454589844 127.46151733398438 308.5842590332031 120.36499786376953 318.9156494140625 117.92833709716797 C 329.13671875 120.6089096069336 336.7802734375 127.72491455078125 339.7647399902344 138.03668212890625" stroke-width="0.0" fill="rgb(168, 176, 188)" opacity="0.99156916"/>
    <path d="M 106.69624328613281 348.6080322265625 C 104.11363220214844 358.7702941894531 96.77367401123047 366.1236877441406 86.3811264038086 368.86370849609375 C 75.32637023925781 366.0406799316406 67.97859191894531 358.66650390625 65.37052917480469 348.5123291015625 C 68.48945617675781 337.70050048828125 75.5670394897461 330.0987548828125 86.26461029052734 327.18701171875 C 96.47089385986328 330.05224609375 103.54286193847656 337.6731872558594 106.69624328613281 348.6080322265625" stroke-width="0.0" fill="rgb(134, 141, 152)" opacity="1.0"/>
    <path d="M 149.94735717773438 427.2605285644531 C 147.17935180664062 438.8255310058594 139.81947326660156 446.16497802734375 128.31101989746094 448.9337158203125 C 118.1020736694336 446.2331848144531 110.75959777832031 438.90081787109375 108.08536529541016 428.87457275390625 C 112.12543487548828 418.32257080078125 119.21588134765625 410.7959899902344 129.80186462402344 407.1741638183594 C 139.89894104003906 409.7705383300781 147.2418670654297 417.0963439941406 149.94735717773438 427.2605285644531" stroke-width="0.0" fill="rgb(28, 34, 47)" opacity="0.9900215"/>
    <path d="M 251.6690216064453 134.61203002929688 C 248.88290405273438 145.5757293701172 241.61341857910156 152.99537658691406 230.78466796875 155.81053161621094 C 220.30335998535156 153.05242919921875 212.9521026611328 145.6952667236328 210.25759887695312 135.470947265625 C 213.5229949951172 124.94061279296875 220.98483276367188 117.66624450683594 231.56947326660156 114.32250213623047 C 241.7063751220703 116.9371109008789 249.0399169921875 124.30177307128906 251.6690216064453 134.61203002929688" stroke-width="0.0" fill="rgb(150, 158, 169)" opacity="1.0"/>
    <path d="M 104.92826843261719 501.1843566894531 C 100.81232452392578 511.424072265625 93.34098815917969 518.5701293945312 83.33727264404297 521.135986328125 C 73.17768096923828 520.056884765625 65.76126098632812 512.876220703125 63.03329086303711 502.330322265625 C 65.79373931884766 491.19482421875 73.26053619384766 483.9130554199219 83.22860717773438 481.123779296875 C 93.14698028564453 485.5534973144531 101.5041732788086 492.78741455078125 104.92826843261719 501.1843566894531" stroke-width="0.0" fill="rgb(5, 6, 14)" opacity="0.9900147"/>
    <path d="M 204.6688232421875 181.4496307373047 C 201.32003784179688 191.99916076660156 193.99838256835938 199.31739807128906 183.36851501464844 202.76072692871094 C 173.27215576171875 200.08181762695312 165.9072265625 192.732177734375 163.13665771484375 182.32301330566406 C 165.9827117919922 171.3603057861328 173.36839294433594 164.0039520263672 184.27154541015625 161.17723083496094 C 194.68951416015625 163.9466552734375 202.03915405273438 171.3155059814453 204.6688232421875 181.4496307373047" stroke-width="0.0" fill="rgb(151, 159, 170)" opacity="1.0"/>
    <path d="M 290.39910888671875 286.03570556640625 C 288.2200927734375 296.05511474609375 281.11328125 303.42510986328125 271.0517883300781 305.6336975097656 C 260.9533386230469 303.38360595703125 253.67230224609375 296.02972412109375 251.09170532226562 286.01324462890625 C 253.71478271484375 276.02655029296875 261.0263366699219 268.71405029296875 271.0396423339844 266.04302978515625 C 281.08099365234375 268.6167297363281 288.36480712890625 275.9215087890625 290.39910888671875 286.03570556640625" stroke-width="0.0" fill="rgb(191, 197, 207)" opacity="0.9901155"/>
    <path d="M 342.5924987792969 117.22698974609375 C 339.8624572753906 127.43133544921875 332.3422546386719 134.59124755859375 322.0753479003906 137.0662841796875 C 311.8211975097656 134.41116333007812 304.1435546875 127.34175109863281 301.2496337890625 117.37455749511719 C 304.0897521972656 106.38707733154297 311.34808349609375 98.97136688232422 321.6509094238281 96.28163146972656 C 332.5771179199219 99.07733917236328 339.8739318847656 106.43769073486328 342.5924987792969 117.22698974609375" stroke-width="0.0" fill="rgb(168, 176, 187)" opacity="1.0"/>
    <path d="M 80.87584686279297 433.31854248046875 C 78.06069946289062 443.6263732910156 70.51655578613281 450.74896240234375 60.15480041503906 453.1297607421875 C 49.9476318359375 450.3445129394531 42.3494873046875 443.1569519042969 39.11238098144531 432.284423828125 C 41.83531951904297 422.191162109375 49.20289611816406 414.8665771484375 59.39671325683594 412.26568603515625 C 70.58615112304688 415.16204833984375 78.06478118896484 422.3382873535156 80.87584686279297 433.31854248046875" stroke-width="0.0" fill="rgb(120, 123, 134)" opacity="1.0"/>
    <path d="M 619.0 555.0 C 616.3204956054688 565.0 609.0 572.3203735351562 598.9814453125 575.0046997070312 C 588.8457641601562 572.4134521484375 581.2914428710938 565.2518920898438 578.3410034179688 554.8382568359375 C 581.0884399414062 544.425537109375 588.3973388671875 537.0103759765625 598.4591674804688 534.2984619140625 C 609.0005493164062 537.6776123046875 616.3204956054688 544.9999389648438 619.0 555.0" stroke-width="0.0" fill="rgb(173, 182, 193)" opacity="0.99127454"/>
    <path d="M 304.8366394042969 23.72603988647461 C 302.059814453125 34.69873809814453 294.69549560546875 42.05162048339844 283.9797058105469 44.853668212890625 C 273.5860900878906 41.92927932739258 266.5428161621094 34.23478698730469 263.8604431152344 23.884033203125 C 266.2782287597656 13.50988483428955 273.39215087890625 5.948914527893066 284.02154541015625 3.1037657260894775 C 294.7716979980469 5.881924629211426 302.1227722167969 13.225992202758789 304.8366394042969 23.72603988647461" stroke-width="0.0" fill="rgb(134, 141, 151)" opacity="1.0"/>
    <path d="M 227.45236206054688 82.57618713378906 C 224.30126953125 92.9856948852539 216.9857940673828 100.30172729492188 206.98452758789062 102.97359466552734 C 196.9691619873047 100.33921813964844 189.48736572265625 93.08507537841797 186.16592407226562 82.35597229003906 C 188.9016571044922 72.26383972167969 196.26351928710938 64.90149688720703 206.97421264648438 62.120628356933594 C 217.7035369873047 64.91293334960938 224.98545837402344 72.33332061767578 227.45236206054688 82.57618713378906" stroke-width="0.0" fill="rgb(133, 141, 151)" opacity="1.0"/>
    <path d="M 301.8946228027344 521.2175903320312 C 298.88677978515625 532.4677124023438 291.3858947753906 539.6347045898438 281.1079406738281 542.0650634765625 C 270.9705505371094 539.3269653320312 263.4932556152344 532.0856323242188 260.26971435546875 521.3963012695312 C 262.85552978515625 511.17315673828125 270.1568908691406 503.80902099609375 280.5852966308594 501.1146545410156 C 291.8400573730469 503.8274841308594 299.2015686035156 511.1487731933594 301.8946228027344 521.2175903320312" stroke-width="0.0" fill="rgb(169, 177, 188)" opacity="1.0"/>
    <path d="M 185.905517578125 580.294189453125 C 183.139892578125 590.7747192382812 175.7728271484375 598.135498046875 165.7272186279297 600.841796875 C 155.00741577148438 597.3085327148438 147.6754608154297 589.9971923828125 144.9617462158203 579.9996337890625 C 147.66880798339844 569.9906005859375 154.98960876464844 562.665771484375 165.6820526123047 559.2108154296875 C 175.78262329101562 561.8687133789062 183.13682556152344 569.2151489257812 185.905517578125 580.294189453125" stroke-width="0.0" fill="rgb(126, 131, 140)" opacity="1.0"/>
    <path d="M 386.7410583496094 116.86996459960938 C 383.951171875 127.60457611083984 376.6280517578125 135.0140380859375 366.3643798828125 137.79940795898438 C 355.4607849121094 134.9216766357422 348.13134765625 127.52021789550781 345.54095458984375 117.35122680664062 C 348.67462158203125 106.99726104736328 355.99810791015625 99.67749786376953 366.2877197265625 96.70829010009766 C 376.5808410644531 99.12105560302734 383.9912109375 106.38277435302734 386.7410583496094 116.86996459960938" stroke-width="0.0" fill="rgb(169, 177, 189)" opacity="0.9905686"/>
    <path d="M 342.554931640625 198.60433959960938 C 340.3663330078125 209.13050842285156 333.2621765136719 216.7512969970703 322.7548522949219 219.72129821777344 C 312.47381591796875 216.93057250976562 305.0419921875 209.53790283203125 302.201416015625 199.36746215820312 C 305.08050537109375 188.4522247314453 312.4707336425781 181.13414001464844 323.06683349609375 178.37319946289062 C 333.4762878417969 181.1633758544922 340.8533935546875 188.51712036132812 342.554931640625 198.60433959960938" stroke-width="0.0" fill="rgb(183, 189, 200)" opacity="1.0"/>
    <path d="M 606.1315307617188 504.0455017089844 C 603.6341552734375 514.3226928710938 596.3381958007812 521.6854858398438 585.9647216796875 524.42431640625 C 575.5606079101562 521.7548217773438 568.1458129882812 514.4716186523438 566.6298828125 504.5998840332031 C 569.4892578125 494.8434753417969 576.8739013671875 487.5851135253906 586.8917236328125 484.9078369140625 C 596.6982421875 485.8752136230469 603.7291870117188 493.432373046875 606.1315307617188 504.0455017089844" stroke-width="0.0" fill="rgb(199, 207, 217)" opacity="1.0"/>
    <path d="M 411.998291015625 47.92107009887695 C 409.0791320800781 57.75981521606445 401.75634765625 65.06350708007812 391.861328125 67.8145523071289 C 381.8702392578125 65.38401794433594 374.1921691894531 58.28541946411133 371.18170166015625 47.745628356933594 C 373.96649169921875 37.34861373901367 381.3917541503906 30.095733642578125 391.6887512207031 27.695152282714844 C 401.9976501464844 30.684099197387695 409.32342529296875 38.00012969970703 411.998291015625 47.92107009887695" stroke-width="0.0" fill="rgb(161, 170, 180)" opacity="0.9910535"/>
    <path d="M 83.8966293334961 69.16043090820312 C 81.14461517333984 79.79344177246094 73.7930679321289 87.14374542236328 62.57891845703125 89.912353515625 C 52.16590881347656 87.18162536621094 44.832664489746094 79.82868194580078 42.09537124633789 68.77203369140625 C 44.83296203613281 58.173622131347656 52.16289138793945 50.80724334716797 62.73042678833008 48.06129837036133 C 73.81661224365234 50.82211685180664 81.14002990722656 58.198787689208984 83.8966293334961 69.16043090820312" stroke-width="0.0" fill="rgb(100, 105, 113)" opacity="1.0"/>
    <path d="M 354.7942810058594 80.71328735351562 C 351.74853515625 91.26498413085938 344.2391662597656 98.69119262695312 333.9155578613281 101.73143768310547 C 323.38409423828125 98.94932556152344 316.0063171386719 91.6310806274414 313.24176025390625 81.0771713256836 C 316.0186767578125 70.36781311035156 323.3545227050781 62.9827880859375 334.0558776855469 60.20258712768555 C 344.6773681640625 62.96080017089844 352.0326232910156 70.3252182006836 354.7942810058594 80.71328735351562" stroke-width="0.0" fill="rgb(165, 173, 183)" opacity="1.0"/>
    <path d="M 82.38690948486328 271.58465576171875 C 79.2882308959961 281.9754943847656 71.97718811035156 289.2942199707031 61.91341781616211 292.00958251953125 C 51.604393005371094 289.6051330566406 43.98711013793945 282.54315185546875 41.09978103637695 271.59869384765625 C 43.87413787841797 261.24713134765625 51.26128005981445 253.90721130371094 61.889976501464844 251.11859130859375 C 72.7409439086914 253.8875274658203 80.0036392211914 261.29595947265625 82.38690948486328 271.58465576171875" stroke-width="0.0" fill="rgb(117, 123, 133)" opacity="0.9905319"/>
    <path d="M 46.9096794128418 166.4547119140625 C 44.1295280456543 177.78485107421875 36.791046142578125 185.1456298828125 25.883493423461914 187.90513610839844 C 15.215115547180176 185.13719177246094 7.8481125831604 177.79122924804688 5.081212997436523 167.14561462402344 C 7.846330165863037 156.19212341308594 15.189014434814453 148.83924865722656 26.192068099975586 146.0899200439453 C 36.80387878417969 148.84274291992188 44.16453552246094 156.1930389404297 46.9096794128418 166.4547119140625" stroke-width="0.0" fill="rgb(106, 111, 120)" opacity="0.9902612"/>
    <path d="M 94.8893051147461 225.59849548339844 C 92.10403442382812 236.7486114501953 84.74268341064453 244.08868408203125 73.51983642578125 246.87583923339844 C 63.201351165771484 244.15036010742188 55.84956359863281 236.79861450195312 53.09494400024414 225.84432983398438 C 55.84910583496094 215.22093200683594 63.26145935058594 207.96678161621094 73.66903686523438 205.50233459472656 C 84.5793685913086 208.17079162597656 92.09296417236328 215.32684326171875 94.8893051147461 225.59849548339844" stroke-width="0.0" fill="rgb(123, 128, 138)" opacity="1.0"/>
    <path d="M 81.94156646728516 473.3076477050781 C 79.11802673339844 484.7249755859375 71.71747589111328 492.105224609375 60.404563903808594 494.9395751953125 C 50.196250915527344 492.19110107421875 43.039764404296875 484.7261047363281 41.301513671875 474.3664855957031 C 43.941925048828125 464.2235412597656 51.2315788269043 456.9667663574219 61.448509216308594 454.40435791015625 C 71.7747802734375 455.9613037109375 79.2050552368164 463.1687927246094 81.94156646728516 473.3076477050781" stroke-width="0.0" fill="rgb(69, 75, 93)" opacity="0.99441224"/>
  </g>
</svg>
