<?xml version="1.0" ?>
<svg xmlns="http://www.w3.org/2000/svg" version="1.1" width="600" height="600">
  <defs/>
  <g>
    <path d="M 538.0637817382812 494.6528625488281 C 535.770263671875 503.6647033691406 528.8461303710938 511.24505615234375 518.7973022460938 514.2858276367188 C 508.7884521484375 511.6300964355469 501.5896301269531 504.1416931152344 498.9870300292969 494.0171203613281 C 501.6467590332031 483.91400146484375 508.7122802734375 476.1446533203125 519.7872924804688 473.04962158203125 C 529.7012939453125 475.81536865234375 535.5567016601562 484.302490234375 538.0637817382812 494.6528625488281" stroke-width="0.0" fill="rgb(12, 20, 26)" opacity="0.99004483"/>
    <path d="M 85.65989685058594 13.915894508361816 C 82.89012145996094 24.534412384033203 75.52635192871094 31.866268157958984 64.80268859863281 34.65409469604492 C 54.41200256347656 31.94287109375 47.0676155090332 24.58409309387207 44.30982208251953 14.158161163330078 C 47.155975341796875 3.5440828800201416 54.59234619140625 -3.690981388092041 65.02515411376953 -6.2533721923828125 C 75.4484634399414 -3.72510027885437 82.90076446533203 3.4950084686279297 85.65989685058594 13.915894508361816" stroke-width="0.0" fill="rgb(184, 189, 200)" opacity="0.99222267"/>
    <path d="M 568.7437133789062 46.96228790283203 C 565.9779052734375 57.6317253112793 558.6397705078125 64.99944305419922 548.27587890625 67.69120025634766 C 537.5337524414062 64.86199188232422 530.3167114257812 57.409332275390625 527.8763427734375 47.14421081542969 C 530.68994140625 37.0088996887207 538.0077514648438 29.68610382080078 548.4063720703125 26.533306121826172 C 558.612548828125 29.04505729675293 565.9791870117188 36.37966537475586 568.7437133789062 46.96228790283203" stroke-width="0.0" fill="rgb(174, 181, 192)" opacity="0.99476093"/>
    <path d="M 523.38330078125 63.23149490356445 C 520.6187744140625 73.17201232910156 513.0900268554688 80.3670425415039 502.972900390625 83.02722930908203 C 492.79656982421875 80.45924377441406 485.2550048828125 73.29751586914062 482.2390441894531 62.592472076416016 C 485.0046691894531 52.37782287597656 492.3904724121094 45.04049301147461 502.5631408691406 42.463462829589844 C 513.0 45.67949295043945 520.3204956054688 53.0 523.38330078125 63.23149490356445" stroke-width="0.0" fill="rgb(178, 186, 196)" opacity="0.99491817"/>
    <path d="M 25.724042892456055 215.75367736816406 C 22.906875610351562 226.54830932617188 15.551362037658691 233.9146728515625 5.15357780456543 236.70834350585938 C -5.1355695724487305 233.6129913330078 -12.338013648986816 226.0438995361328 -15.001182556152344 216.0008087158203 C -12.32878303527832 205.9806365966797 -5.0522284507751465 198.56202697753906 5.407074451446533 195.39385986328125 C 15.642343521118164 198.01947021484375 23.014835357666016 205.34555053710938 25.724042892456055 215.75367736816406" stroke-width="0.0" fill="rgb(183, 188, 198)" opacity="0.996238"/>
    <path d="M 28.7471866607666 108.17073059082031 C 25.939712524414062 118.56500244140625 18.55069351196289 125.89781951904297 8.285602569580078 128.5713653564453 C -2.1197094917297363 125.53299713134766 -9.355012893676758 118.0638656616211 -12.006766319274902 107.99983978271484 C -9.356475830078125 97.93258666992188 -2.126676082611084 90.45562744140625 8.472240447998047 87.2818374633789 C 18.594186782836914 90.03278350830078 25.939594268798828 97.41519165039062 28.7471866607666 108.17073059082031" stroke-width="0.0" fill="rgb(185, 187, 198)" opacity="0.99402624"/>
    <path d="M 151.69740295410156 168.8050994873047 C 148.8895263671875 179.53138732910156 141.52182006835938 186.86068725585938 131.11505126953125 189.5840301513672 C 120.8096923828125 186.64173889160156 113.62490844726562 179.10296630859375 110.99011993408203 169.00059509277344 C 113.63774108886719 158.9312286376953 120.88719940185547 151.49520874023438 131.3769989013672 148.36175537109375 C 141.5140380859375 151.1261444091797 148.9244384765625 158.46630859375 151.69740295410156 168.8050994873047" stroke-width="0.0" fill="rgb(189, 193, 204)" opacity="0.99198526"/>
    <path d="M 219.65753173828125 573.17578125 C 216.8180389404297 583.4019775390625 209.33908081054688 590.624755859375 199.115966796875 593.1082153320312 C 189.0 590.3204956054688 181.6794891357422 583.0 178.98533630371094 572.9776000976562 C 181.5850830078125 562.8584594726562 188.78717041015625 555.361572265625 199.0112762451172 552.38427734375 C 209.44293212890625 555.23486328125 216.81565856933594 562.541259765625 219.65753173828125 573.17578125" stroke-width="0.0" fill="rgb(213, 216, 222)" opacity="0.9914004"/>
    <path d="M 286.9714660644531 485.58209228515625 C 284.2597351074219 496.9222717285156 276.9134826660156 504.2366943359375 266.80938720703125 506.8476257324219 C 256.0 503.32049560546875 248.6794891357422 496.0 245.0738067626953 485.128173828125 C 247.75498962402344 475.0981750488281 255.10394287109375 467.767578125 266.749267578125 465.0322265625 C 276.9281311035156 467.738037109375 284.2626647949219 475.0716247558594 286.9714660644531 485.58209228515625" stroke-width="0.0" fill="rgb(33, 37, 42)" opacity="1.0"/>
    <path d="M 318.76776123046875 51.847225189208984 C 315.8569641113281 62.47962951660156 308.4684753417969 69.82147979736328 297.9930114746094 72.57624053955078 C 287.5116882324219 69.83924865722656 280.1300964355469 62.49778366088867 277.3888854980469 52.4205207824707 C 280.586669921875 41.86650085449219 287.8077087402344 34.39973068237305 297.9695129394531 31.644338607788086 C 308.4291687011719 34.29218673706055 315.9046936035156 41.50615692138672 318.76776123046875 51.847225189208984" stroke-width="0.0" fill="rgb(191, 197, 208)" opacity="0.991445"/>
    <path d="M 194.7271728515625 41.87417221069336 C 191.8834228515625 52.53769302368164 184.55673217773438 59.93479919433594 174.23126220703125 62.664955139160156 C 163.6316680908203 59.77182388305664 156.4084930419922 52.31083679199219 153.51695251464844 41.71200942993164 C 156.13560485839844 31.485246658325195 163.4818878173828 24.125627517700195 174.07864379882812 21.362167358398438 C 184.59829711914062 24.065061569213867 191.96990966796875 31.389835357666016 194.7271728515625 41.87417221069336" stroke-width="0.0" fill="rgb(188, 193, 204)" opacity="0.9913632"/>
    <path d="M 27.662750244140625 162.0074005126953 C 24.902130126953125 172.53456115722656 17.523916244506836 179.87107849121094 7.070240020751953 182.67132568359375 C -3.1257121562957764 179.59886169433594 -10.334716796875 172.0382537841797 -13.001727104187012 161.9985809326172 C -10.33573055267334 151.9705810546875 -3.0589048862457275 144.566650390625 7.380084037780762 141.43887329101562 C 17.574968338012695 144.07162475585938 24.927486419677734 151.42520141601562 27.662750244140625 162.0074005126953" stroke-width="0.0" fill="rgb(183, 187, 198)" opacity="1.0"/>
    <path d="M 267.9999694824219 93.00006103515625 C 265.32049560546875 103.0 258.0 110.32051086425781 247.70477294921875 113.4976806640625 C 237.8129425048828 110.64511108398438 230.6154022216797 103.1005630493164 227.58505249023438 92.68318939208984 C 230.0945281982422 82.4280776977539 237.42022705078125 75.0704574584961 247.59222412109375 72.5721664428711 C 257.9906005859375 75.70619201660156 265.31976318359375 83.0020980834961 267.9999694824219 93.00006103515625" stroke-width="0.0" fill="rgb(190, 195, 206)" opacity="0.9927283"/>
    <path d="M 333.55853271484375 428.10516357421875 C 330.80499267578125 438.4911193847656 323.5140075683594 445.8747863769531 313.1383056640625 448.5155029296875 C 302.565673828125 445.7797546386719 295.2485656738281 438.4254455566406 292.7620544433594 428.21380615234375 C 295.67950439453125 418.0 303.0 410.67950439453125 313.0024108886719 407.9987487792969 C 323.03753662109375 410.6624755859375 330.54083251953125 417.8978576660156 333.55853271484375 428.10516357421875" stroke-width="0.0" fill="rgb(211, 214, 222)" opacity="0.9946398"/>
    <path d="M 476.0657653808594 193.79144287109375 C 473.47259521484375 203.22096252441406 466.380615234375 211.8229217529297 457.9074401855469 213.14259338378906 C 447.9059143066406 210.40045166015625 440.6073303222656 203.0908203125 437.95904541015625 193.12367248535156 C 438.8916320800781 183.16134643554688 446.142578125 175.81153869628906 456.23748779296875 173.3442840576172 C 466.25665283203125 177.39869689941406 473.48406982421875 184.78431701660156 476.0657653808594 193.79144287109375" stroke-width="0.0" fill="rgb(25, 31, 43)" opacity="0.99000454"/>
    <path d="M 211.56019592285156 240.2462158203125 C 208.90859985351562 250.556640625 201.56271362304688 257.9263000488281 190.73184204101562 260.76116943359375 C 180.37875366210938 257.9812927246094 173.0095672607422 250.6250457763672 170.2588653564453 240.32029724121094 C 173.13046264648438 229.5033416748047 180.512939453125 222.1575469970703 190.9248504638672 219.36961364746094 C 201.42173767089844 222.2115936279297 208.73193359375 229.59637451171875 211.56019592285156 240.2462158203125" stroke-width="0.0" fill="rgb(189, 196, 206)" opacity="0.99152565"/>
    <path d="M 116.73188018798828 479.4190979003906 C 113.99190521240234 489.60906982421875 106.58612060546875 496.9278564453125 95.6144790649414 499.7745056152344 C 85.37338256835938 497.0098876953125 78.03034973144531 489.6105651855469 75.20445251464844 479.1715393066406 C 78.09424591064453 468.4851379394531 85.49785614013672 461.1270751953125 95.8687515258789 458.2684326171875 C 106.55061340332031 461.09442138671875 113.87565612792969 468.4586486816406 116.73188018798828 479.4190979003906" stroke-width="0.0" fill="rgb(184, 186, 199)" opacity="0.99201244"/>
    <path d="M 486.28228759765625 425.8512878417969 C 485.23486328125 435.9072570800781 477.9131164550781 443.2503356933594 467.2189636230469 445.96380615234375 C 456.0858459472656 443.2491149902344 448.7507629394531 435.9141845703125 446.0389404296875 425.45654296875 C 448.75994873046875 414.0982360839844 456.0977783203125 406.7588806152344 466.13726806640625 404.080078125 C 476.84600830078125 407.7515869140625 483.7426452636719 415.35302734375 486.28228759765625 425.8512878417969" stroke-width="0.0" fill="rgb(19, 28, 44)" opacity="0.9900546"/>
    <path d="M 172.76991271972656 352.8431396484375 C 169.71322631835938 363.2256774902344 162.11203002929688 370.3822021484375 152.00921630859375 373.0079040527344 C 141.96701049804688 370.33636474609375 134.53379821777344 363.0727233886719 131.757568359375 353.11383056640625 C 134.62042236328125 342.889892578125 141.77947998046875 335.2965393066406 152.10598754882812 332.2674865722656 C 162.51564025878906 335.0929260253906 169.87490844726562 342.498046875 172.76991271972656 352.8431396484375" stroke-width="0.0" fill="rgb(189, 193, 204)" opacity="0.9924522"/>
    <path d="M 363.6656188964844 407.8621826171875 C 360.8851013183594 418.5397033691406 353.5417785644531 425.8918151855469 343.3094787597656 428.54364013671875 C 332.85504150390625 425.48883056640625 325.26019287109375 418.2371826171875 323.5184020996094 408.5164489746094 C 325.2645568847656 397.4320373535156 332.3140563964844 389.8932189941406 342.8404846191406 387.1286315917969 C 353.5631103515625 390.0076599121094 360.85638427734375 397.492431640625 363.6656188964844 407.8621826171875" stroke-width="0.0" fill="rgb(198, 203, 213)" opacity="1.0"/>
    <path d="M 562.8478393554688 350.8204345703125 C 560.0157470703125 361.6327209472656 552.611572265625 368.9585266113281 542.0731811523438 371.707275390625 C 531.4545288085938 368.91925048828125 524.1720581054688 361.51605224609375 521.4828491210938 350.8333740234375 C 524.1002197265625 340.45574951171875 531.4750366210938 333.1607971191406 542.4089965820312 330.3319396972656 C 552.67578125 332.9779968261719 560.0567016601562 340.3116149902344 562.8478393554688 350.8204345703125" stroke-width="0.0" fill="rgb(178, 184, 195)" opacity="1.0"/>
    <path d="M 423.6843566894531 11.360929489135742 C 420.9124755859375 21.54200553894043 413.5330505371094 28.885236740112305 403.31024169921875 31.5261173248291 C 392.9367370605469 28.45197105407715 385.66656494140625 21.02715492248535 382.7574157714844 10.858856201171875 C 385.4398193359375 0.8266322016716003 392.87152099609375 -6.41489839553833 402.9925231933594 -9.030203819274902 C 413.1163330078125 -6.396650314331055 420.60357666015625 0.8179588317871094 423.6843566894531 11.360929489135742" stroke-width="0.0" fill="rgb(185, 193, 204)" opacity="0.9924479"/>
    <path d="M 154.75022888183594 113.17607879638672 C 151.9176025390625 123.5278549194336 144.51502990722656 130.88424682617188 134.06832885742188 133.73948669433594 C 123.44406127929688 130.934814453125 116.1421890258789 123.52885437011719 113.2798080444336 112.75769805908203 C 116.12046813964844 102.52445983886719 123.54826354980469 95.18399810791016 134.10752868652344 92.28870391845703 C 144.60072326660156 95.05050659179688 151.93899536132812 102.40292358398438 154.75022888183594 113.17607879638672" stroke-width="0.0" fill="rgb(188, 192, 203)" opacity="0.991193"/>
    <path d="M 162.7185516357422 431.93707275390625 C 159.9146728515625 442.5677490234375 152.580322265625 449.9493408203125 142.11268615722656 452.68731689453125 C 131.4522705078125 449.9040832519531 124.1248779296875 442.53814697265625 121.25605773925781 431.6595458984375 C 124.04742431640625 421.42193603515625 131.43600463867188 414.089111328125 142.252685546875 411.2679748535156 C 152.54306030273438 414.0611572265625 159.8760986328125 421.48101806640625 162.7185516357422 431.93707275390625" stroke-width="0.0" fill="rgb(184, 189, 202)" opacity="0.9934073"/>
    <path d="M 169.63246154785156 263.657958984375 C 166.7267303466797 274.3672790527344 159.35079956054688 281.6739196777344 149.15676879882812 284.1973571777344 C 138.9840850830078 281.3414306640625 131.63710021972656 274.0218505859375 128.8428192138672 264.01318359375 C 131.67222595214844 253.99777221679688 138.99974060058594 246.67941284179688 149.37539672851562 243.5422821044922 C 159.57379150390625 246.0864715576172 166.95262145996094 253.4127655029297 169.63246154785156 263.657958984375" stroke-width="0.0" fill="rgb(189, 193, 204)" opacity="0.9915527"/>
    <path d="M 99.33348846435547 589.03125 C 96.45584106445312 599.1074829101562 89.0860824584961 606.3859252929688 79.02767181396484 609.00634765625 C 69.06095886230469 606.2780151367188 61.8006591796875 598.9151611328125 58.441402435302734 588.6189575195312 C 61.33637619018555 578.75146484375 68.80300903320312 571.5046997070312 79.01953887939453 568.8516845703125 C 88.91353607177734 571.7567749023438 96.31230926513672 579.067138671875 99.33348846435547 589.03125" stroke-width="0.0" fill="rgb(231, 234, 240)" opacity="0.99064887"/>
    <path d="M 383.5357666015625 461.19598388671875 C 380.8318176269531 471.4888000488281 373.50927734375 478.8895568847656 363.1082458496094 481.645263671875 C 352.5063781738281 478.8647766113281 345.13189697265625 471.4932861328125 342.2969055175781 461.18121337890625 C 345.1234130859375 450.46490478515625 352.4644470214844 443.1219482421875 362.89056396484375 440.4430236816406 C 373.43572998046875 443.21514892578125 380.76165771484375 450.57122802734375 383.5357666015625 461.19598388671875" stroke-width="0.0" fill="rgb(195, 201, 212)" opacity="0.99109477"/>
    <path d="M 560.7662963867188 18.02920150756836 C 557.814697265625 28.316810607910156 550.1784057617188 35.42451477050781 540.0122680664062 38.00547409057617 C 529.8709106445312 35.39166259765625 522.3289794921875 28.220088958740234 519.2174072265625 17.482603073120117 C 521.9595947265625 7.343317985534668 529.3786010742188 0.059633731842041016 539.9711303710938 -2.5931615829467773 C 550.5980224609375 0.07246994972229004 557.968017578125 7.388846397399902 560.7662963867188 18.02920150756836" stroke-width="0.0" fill="rgb(175, 181, 192)" opacity="0.99292225"/>
    <path d="M 605.2138061523438 144.787353515625 C 602.3204956054688 155.0 595.0 162.3205108642578 585.0 165.0 C 575.0 162.3205108642578 567.6795043945312 155.0 564.4368896484375 144.58897399902344 C 567.1254272460938 134.5251922607422 574.5645141601562 127.24067687988281 585.0310668945312 124.57476806640625 C 595.4659423828125 127.19876861572266 602.770263671875 134.54354858398438 605.2138061523438 144.787353515625" stroke-width="0.0" fill="rgb(173, 180, 190)" opacity="0.99218917"/>
    <path d="M 272.9027404785156 502.85736083984375 C 270.229248046875 512.8853759765625 262.874755859375 520.2003173828125 252.78834533691406 521.2930908203125 C 242.51364135742188 518.6845092773438 235.03668212890625 511.583740234375 232.1403045654297 501.87982177734375 C 234.739501953125 492.0509948730469 242.0371856689453 484.69598388671875 251.6590118408203 482.6840515136719 C 261.58123779296875 485.1865539550781 268.8988342285156 492.3874816894531 272.9027404785156 502.85736083984375" stroke-width="0.0" fill="rgb(90, 92, 98)" opacity="0.9900225"/>
    <path d="M 355.0979919433594 305.7946472167969 C 352.5332946777344 315.2532653808594 345.2476806640625 322.52044677734375 335.4706726074219 325.0995178222656 C 325.8834533691406 322.7937316894531 317.9357604980469 316.5630798339844 315.0765380859375 305.4249572753906 C 317.80999755859375 295.1581726074219 325.15570068359375 287.8042907714844 335.3238830566406 285.06829833984375 C 345.4429626464844 288.40167236328125 352.54876708984375 296.6994934082031 355.0979919433594 305.7946472167969" stroke-width="0.0" fill="rgb(229, 187, 36)" opacity="0.9900163"/>
    <path d="M 503.736572265625 400.1666259765625 C 500.95758056640625 410.5755920410156 493.5563659667969 417.9061279296875 482.3216552734375 420.9060363769531 C 472.5760192871094 418.08282470703125 466.2242736816406 409.6394958496094 462.30645751953125 399.6130065917969 C 465.16162109375 389.5299072265625 472.5115661621094 382.11529541015625 483.2083740234375 379.2056884765625 C 493.60546875 382.0199890136719 500.9480285644531 389.4057312011719 503.736572265625 400.1666259765625" stroke-width="0.0" fill="rgb(185, 191, 202)" opacity="0.99041796"/>
    <path d="M 588.6466064453125 179.43603515625 C 585.7935791015625 189.3129425048828 578.193603515625 196.4485321044922 568.031005859375 199.02154541015625 C 558.0 196.3205108642578 550.6795043945312 189.0 548.0 179.0 C 550.6795043945312 169.0 558.0 161.6794891357422 568.0 159.0 C 578.0 161.6794891357422 585.3204956054688 169.0 588.6466064453125 179.43603515625" stroke-width="0.0" fill="rgb(174, 181, 191)" opacity="1.0"/>
    <path d="M 169.7055206298828 297.7201843261719 C 166.81024169921875 308.44207763671875 159.43348693847656 315.7856750488281 149.0347442626953 318.5401611328125 C 138.5987091064453 315.73052978515625 131.15174865722656 308.4432373046875 128.52084350585938 298.3606262207031 C 131.6766357421875 287.9952392578125 138.9923095703125 280.666748046875 149.2569580078125 277.7122802734375 C 159.5044403076172 280.177001953125 166.91693115234375 287.4649963378906 169.7055206298828 297.7201843261719" stroke-width="0.0" fill="rgb(189, 193, 204)" opacity="0.99166524"/>
    <path d="M 293.5979919433594 348.2629699707031 C 291.0979919433594 358.7842712402344 283.8145446777344 366.1791076660156 273.7344970703125 368.8611755371094 C 262.5111999511719 365.85833740234375 255.23825073242188 358.4576416015625 252.453125 347.78912353515625 C 255.1202392578125 337.480224609375 262.5046081542969 330.19879150390625 272.7893371582031 327.7559814453125 C 283.18499755859375 330.5539855957031 290.8050842285156 337.68798828125 293.5979919433594 348.2629699707031" stroke-width="0.0" fill="rgb(192, 196, 210)" opacity="1.0"/>
    <path d="M 235.0003204345703 138.00086975097656 C 232.33023071289062 148.02603149414062 225.09243774414062 155.53857421875 214.89039611816406 158.63494873046875 C 204.5524139404297 155.8323211669922 197.2295379638672 148.42530822753906 194.42076110839844 137.86679077148438 C 197.15689086914062 127.52799987792969 204.55477905273438 120.24200439453125 214.7926025390625 117.78458404541016 C 225.0 120.67948913574219 232.3205108642578 128.0 235.0003204345703 138.00086975097656" stroke-width="0.0" fill="rgb(190, 194, 205)" opacity="0.99314004"/>
    <path d="M 436.5938415527344 104.09947967529297 C 433.884033203125 114.54686737060547 426.5756530761719 121.96498107910156 416.5310974121094 124.69538879394531 C 405.9977111816406 121.22731018066406 398.5556945800781 114.07149505615234 396.3822326660156 104.36087799072266 C 399.05462646484375 94.11672973632812 405.85186767578125 86.37049865722656 416.2829895019531 83.40679168701172 C 426.48779296875 86.12915802001953 433.8031311035156 93.53569793701172 436.5938415527344 104.09947967529297" stroke-width="0.0" fill="rgb(189, 196, 207)" opacity="0.99007726"/>
    <path d="M 208.0 577.0 C 205.3205108642578 587.0 198.0 594.3204956054688 188.0 597.0 C 177.9996795654297 594.3206176757812 170.6671905517578 587.003662109375 167.65399169921875 576.8590698242188 C 170.30621337890625 566.6233520507812 177.60977172851562 559.2628173828125 187.85800170898438 556.6175537109375 C 198.00741577148438 559.6555786132812 205.32078552246094 566.9991455078125 208.0 577.0" stroke-width="0.0" fill="rgb(217, 220, 227)" opacity="0.99117726"/>
    <path d="M 584.6681518554688 520.739990234375 C 581.8598022460938 531.5068969726562 574.506103515625 538.857421875 563.835693359375 541.70556640625 C 553.6515502929688 538.7903442382812 546.4259643554688 531.2745971679688 543.7129516601562 520.8998413085938 C 546.2664184570312 510.5709533691406 553.5260620117188 503.1292724609375 563.8580322265625 500.3604431152344 C 574.6026611328125 503.0741271972656 581.98583984375 510.3772277832031 584.6681518554688 520.739990234375" stroke-width="0.0" fill="rgb(192, 194, 201)" opacity="1.0"/>
    <path d="M 490.37548828125 142.69607543945312 C 487.32049560546875 153.0 480.0 160.3205108642578 470.0 163.0 C 460.0 160.3205108642578 452.67950439453125 153.0 449.99957275390625 142.99887084960938 C 452.66729736328125 132.9677734375 459.89019775390625 125.42886352539062 470.140869140625 122.33625793457031 C 480.5165100097656 125.1133041381836 487.8383483886719 132.4999542236328 490.37548828125 142.69607543945312" stroke-width="0.0" fill="rgb(184, 190, 202)" opacity="0.9944562"/>
    <path d="M 331.9549865722656 393.3085021972656 C 329.2090759277344 404.8592529296875 321.84002685546875 412.15411376953125 310.72265625 414.79925537109375 C 300.12786865234375 412.18341064453125 292.75994873046875 404.89251708984375 290.0370178222656 393.92950439453125 C 292.7525939941406 383.0882263183594 300.086669921875 375.7490539550781 311.3484802246094 373.03265380859375 C 321.9179992675781 375.7453918457031 329.24932861328125 383.084228515625 331.9549865722656 393.3085021972656" stroke-width="0.0" fill="rgb(3, 8, 13)" opacity="1.0"/>
    <path d="M 426.00018310546875 452.9999694824219 C 423.3209228515625 463.0 415.9970397949219 470.3103332519531 405.9609680175781 472.9866027832031 C 395.8146057128906 470.4415588378906 388.2985534667969 463.2692565917969 385.4606628417969 453.0050964355469 C 388.2931823730469 442.66766357421875 395.68585205078125 435.3506774902344 405.94207763671875 432.7197265625 C 416.02880859375 435.6025085449219 423.3230285644531 442.9928894042969 426.00018310546875 452.9999694824219" stroke-width="0.0" fill="rgb(194, 200, 211)" opacity="0.9912719"/>
    <path d="M 160.32672119140625 55.7619514465332 C 157.3256072998047 66.0022201538086 150.00083923339844 73.32083129882812 139.90101623535156 76.0869140625 C 129.67816162109375 73.59889221191406 122.22122955322266 66.37882232666016 119.28286743164062 55.64158248901367 C 122.05101013183594 45.418827056884766 129.4148712158203 38.040340423583984 139.6158447265625 35.27094268798828 C 150.45663452148438 38.176212310791016 157.74655151367188 45.568199157714844 160.32672119140625 55.7619514465332" stroke-width="0.0" fill="rgb(185, 189, 202)" opacity="0.9932649"/>
    <path d="M 279.961669921875 410.1945495605469 C 277.13763427734375 421.6803894042969 269.49798583984375 428.6579895019531 259.1988525390625 430.9346618652344 C 249.50259399414062 427.9170227050781 242.4299774169922 420.3726806640625 239.93746948242188 411.5336608886719 C 242.52928161621094 401.79345703125 249.7627716064453 394.45965576171875 259.84564208984375 391.7744140625 C 269.9093322753906 392.7657775878906 277.25372314453125 400.08343505859375 279.961669921875 410.1945495605469" stroke-width="0.0" fill="rgb(32, 37, 47)" opacity="0.99000907"/>
    <path d="M 330.246826171875 424.4564208984375 C 327.6665954589844 434.40277099609375 320.4112243652344 441.68817138671875 310.7548522949219 444.18646240234375 C 300.4185485839844 442.1968688964844 292.7969055175781 435.78302001953125 290.0374755859375 425.4239807128906 C 292.7759704589844 414.1324462890625 300.1712951660156 406.9047546386719 310.8040771484375 405.81304931640625 C 321.6595153808594 407.0682678222656 328.9415283203125 414.3389892578125 330.246826171875 424.4564208984375" stroke-width="0.0" fill="rgb(113, 116, 122)" opacity="0.9913977"/>
    <path d="M 235.63307189941406 203.86434936523438 C 232.80934143066406 214.46336364746094 225.4928436279297 221.8932342529297 215.361083984375 224.70191955566406 C 204.5999755859375 221.7550811767578 197.15792846679688 214.43084716796875 194.28807067871094 204.19825744628906 C 197.15737915039062 193.5161590576172 204.52398681640625 186.1804962158203 215.2065887451172 183.35775756835938 C 225.5546875 186.0920867919922 232.90499877929688 193.44602966308594 235.63307189941406 203.86434936523438" stroke-width="0.0" fill="rgb(192, 197, 207)" opacity="0.9910428"/>
    <path d="M 495.9417419433594 468.1056823730469 C 492.49658203125 479.323974609375 485.5576477050781 487.0682678222656 475.87005615234375 489.08856201171875 C 465.83697509765625 485.4527893066406 458.5387268066406 478.1664123535156 455.9394836425781 468.4816589355469 C 457.2506103515625 458.2071533203125 464.1268310546875 450.76080322265625 475.2219543457031 448.02984619140625 C 485.9208679199219 450.7447814941406 493.2582092285156 458.0777893066406 495.9417419433594 468.1056823730469" stroke-width="0.0" fill="rgb(17, 25, 34)" opacity="0.9900119"/>
    <path d="M 297.5350341796875 319.8565368652344 C 294.7167053222656 330.3734436035156 287.3672180175781 337.69635009765625 277.0449523925781 340.2666931152344 C 266.4629211425781 337.7476806640625 258.9164733886719 330.65313720703125 256.0992126464844 319.46026611328125 C 258.8277587890625 309.1723937988281 266.17333984375 301.8317565917969 276.29522705078125 299.2270812988281 C 287.0464782714844 302.6607971191406 294.5875244140625 309.87237548828125 297.5350341796875 319.8565368652344" stroke-width="0.0" fill="rgb(194, 199, 211)" opacity="1.0"/>
    <path d="M 526.6170654296875 81.149658203125 C 523.8843994140625 91.51578521728516 516.4906005859375 98.80522155761719 506.23516845703125 101.25810241699219 C 495.8975830078125 98.38072967529297 488.39141845703125 91.1755599975586 485.4454345703125 81.02063751220703 C 488.4497375488281 70.88335418701172 495.948974609375 63.655784606933594 506.025634765625 60.97793960571289 C 516.1676025390625 63.56463623046875 523.69287109375 70.74849700927734 526.6170654296875 81.149658203125" stroke-width="0.0" fill="rgb(177, 185, 195)" opacity="0.99459857"/>
    <path d="M 98.33377838134766 216.30355834960938 C 95.87275695800781 226.556640625 88.58350372314453 233.9542694091797 77.9388656616211 236.73439025878906 C 67.43841552734375 233.92013549804688 60.07878494262695 226.5630340576172 57.28700256347656 215.80862426757812 C 60.09074020385742 205.4610595703125 67.4594955444336 198.0891571044922 77.59654998779297 195.48428344726562 C 88.0 198.6794891357422 95.32051086425781 206.0 98.33377838134766 216.30355834960938" stroke-width="0.0" fill="rgb(186, 189, 202)" opacity="0.9919804"/>
    <path d="M 468.76971435546875 61.65497589111328 C 465.8905029296875 72.52922821044922 458.5268249511719 79.8826904296875 447.7115173339844 82.73362731933594 C 437.4302062988281 79.95199584960938 430.09368896484375 72.55364990234375 427.28680419921875 61.94908142089844 C 430.13873291015625 51.50602722167969 437.50408935546875 44.13548278808594 447.9834899902344 41.360599517822266 C 458.59149169921875 44.08626174926758 466.0057678222656 51.37637710571289 468.76971435546875 61.65497589111328" stroke-width="0.0" fill="rgb(182, 188, 201)" opacity="0.9933201"/>
    <path d="M 223.65823364257812 408.82354736328125 C 220.8455810546875 419.4730529785156 213.4416961669922 426.7462158203125 203.19532775878906 429.19891357421875 C 193.0 426.32049560546875 185.6794891357422 419.0 182.67294311523438 408.7254333496094 C 185.19227600097656 398.54541015625 192.55963134765625 391.23675537109375 203.23292541503906 388.4297180175781 C 213.55368041992188 391.1034240722656 220.93272399902344 398.4335632324219 223.65823364257812 408.82354736328125" stroke-width="0.0" fill="rgb(190, 195, 206)" opacity="0.9923417"/>
    <path d="M 214.23129272460938 419.2009582519531 C 211.72877502441406 429.4083557128906 204.4523162841797 436.85980224609375 194.23846435546875 439.7138366699219 C 183.46852111816406 436.8648986816406 176.07618713378906 429.5509033203125 173.3419952392578 419.3850402832031 C 176.30467224121094 408.65179443359375 183.65786743164062 401.3253479003906 193.83319091796875 398.8121032714844 C 203.99989318847656 401.6795654296875 211.32028198242188 409.0001525878906 214.23129272460938 419.2009582519531" stroke-width="0.0" fill="rgb(188, 194, 205)" opacity="0.99210393"/>
    <path d="M 166.69879150390625 70.80619812011719 C 163.8427276611328 81.49858093261719 156.5098419189453 88.87732696533203 146.175048828125 91.63772583007812 C 135.5067596435547 88.82774353027344 128.06201171875 81.53306579589844 125.24781799316406 71.4123764038086 C 128.49667358398438 60.92681121826172 135.98170471191406 53.67291259765625 146.06036376953125 50.94927215576172 C 156.24749755859375 53.48331069946289 163.79190063476562 60.66020202636719 166.69879150390625 70.80619812011719" stroke-width="0.0" fill="rgb(187, 192, 203)" opacity="0.99147826"/>
    <path d="M 521.6051635742188 485.3760070800781 C 518.3192138671875 495.9996032714844 510.99993896484375 503.3204650878906 500.9647521972656 506.0167236328125 C 490.6346740722656 503.5267333984375 482.9038391113281 496.5975646972656 480.103271484375 486.7747802734375 C 483.51837158203125 475.6874694824219 490.4455871582031 467.9309387207031 501.7918701171875 465.0416564941406 C 511.8913879394531 467.75830078125 519.1660766601562 475.1351318359375 521.6051635742188 485.3760070800781" stroke-width="0.0" fill="rgb(16, 23, 30)" opacity="1.0"/>
    <path d="M 539.209228515625 47.21194839477539 C 536.7890014648438 57.495887756347656 529.5353393554688 64.9132080078125 519.4031982421875 67.50786590576172 C 509.00164794921875 64.31844329833984 501.6816711425781 56.99832534790039 498.4723815917969 46.58785629272461 C 501.07879638671875 36.43456268310547 508.4298400878906 29.066036224365234 518.9779663085938 26.25877571105957 C 529.2202758789062 29.2749080657959 536.3626098632812 36.90708541870117 539.209228515625 47.21194839477539" stroke-width="0.0" fill="rgb(177, 183, 194)" opacity="0.9915954"/>
    <path d="M 608.0716552734375 159.08787536621094 C 605.5861206054688 169.32273864746094 598.404541015625 176.83534240722656 588.4240112304688 179.61207580566406 C 578.0003662109375 176.3199920654297 570.6796264648438 168.99977111816406 568.0 158.99996948242188 C 570.6795043945312 149.0 578.0 141.6794891357422 588.0 139.0 C 598.0 141.6794891357422 605.3204956054688 149.0 608.0716552734375 159.08787536621094" stroke-width="0.0" fill="rgb(173, 180, 190)" opacity="0.9937463"/>
    <path d="M 132.0061798095703 167.99774169921875 C 129.3493194580078 178.05615234375 122.11038970947266 185.5225067138672 111.59754180908203 188.67640686035156 C 101.48902893066406 185.88583374023438 94.12553405761719 178.5079803466797 91.35303497314453 167.98040771484375 C 94.1142578125 157.46600341796875 101.46342468261719 150.1069793701172 111.70307159423828 147.44895935058594 C 122.12271881103516 150.46937561035156 129.35842895507812 157.93121337890625 132.0061798095703 167.99774169921875" stroke-width="0.0" fill="rgb(185, 190, 201)" opacity="0.9933176"/>
    <path d="M 143.0270538330078 285.99346923828125 C 140.36378479003906 296.0853576660156 133.18646240234375 303.66400146484375 122.78156280517578 306.7155456542969 C 112.4322509765625 303.94696044921875 105.12959289550781 296.54107666015625 102.4332275390625 286.0798645019531 C 105.2030029296875 275.55010986328125 112.53264617919922 268.15252685546875 122.68948364257812 265.45440673828125 C 133.06324768066406 268.563720703125 140.3511962890625 275.9625549316406 143.0270538330078 285.99346923828125" stroke-width="0.0" fill="rgb(188, 190, 204)" opacity="0.9923468"/>
    <path d="M 290.1266174316406 442.30889892578125 C 289.1893310546875 453.8887939453125 281.9096374511719 461.2533874511719 271.5730285644531 463.9687805175781 C 260.0821533203125 461.25152587890625 252.7449188232422 453.9194030761719 250.0760498046875 443.8777160644531 C 253.6794891357422 433.0 261.0 425.67950439453125 271.7022399902344 422.2814636230469 C 281.8792724609375 424.80517578125 289.22607421875 432.1102600097656 290.1266174316406 442.30889892578125" stroke-width="0.0" fill="rgb(6, 8, 12)" opacity="0.9900626"/>
    <path d="M 519.6846313476562 106.20497131347656 C 516.9143676757812 116.54497528076172 509.5330505371094 123.87976837158203 498.688720703125 126.73932647705078 C 488.46490478515625 123.93451690673828 481.1617126464844 116.50048828125 478.3283386230469 105.83499908447266 C 481.1172180175781 95.5032730102539 488.5440979003906 88.24397277832031 498.8107604980469 85.78980255126953 C 509.14422607421875 88.5953598022461 516.7091674804688 95.75411224365234 519.6846313476562 106.20497131347656" stroke-width="0.0" fill="rgb(181, 188, 199)" opacity="0.9918297"/>
    <path d="M 449.7373352050781 443.5435791015625 C 446.8954772949219 454.4248962402344 439.2981262207031 461.5310363769531 429.05560302734375 464.0379943847656 C 419.0000305175781 461.3204650878906 411.6795654296875 453.99993896484375 409.00048828125 444.0001525878906 C 411.67987060546875 434.0002136230469 419.0001220703125 426.6795654296875 429.6083679199219 423.3434753417969 C 439.79229736328125 425.8761291503906 447.1380920410156 433.20294189453125 449.7373352050781 443.5435791015625" stroke-width="0.0" fill="rgb(190, 195, 205)" opacity="1.0"/>
    <path d="M 452.7038269042969 468.9881591796875 C 449.92132568359375 479.552001953125 442.529052734375 486.8518981933594 432.02850341796875 489.4907531738281 C 421.5628356933594 486.781982421875 414.173583984375 479.4523620605469 411.55511474609375 469.33056640625 C 414.67962646484375 459.0001220703125 422.0001220703125 451.67962646484375 432.1415100097656 448.8614501953125 C 442.36346435546875 451.3374328613281 449.81610107421875 458.58721923828125 452.7038269042969 468.9881591796875" stroke-width="0.0" fill="rgb(195, 197, 208)" opacity="0.99170345"/>
    <path d="M 149.32675170898438 582.8611450195312 C 146.68783569335938 593.3630981445312 139.35487365722656 600.6626586914062 129.1355438232422 603.1240844726562 C 118.84171295166016 600.4192504882812 111.41908264160156 593.2069091796875 108.86981964111328 583.120849609375 C 111.67948913574219 573.0 119.0 565.6795043945312 129.12158203125 562.869873046875 C 139.27249145507812 565.3977661132812 146.62857055664062 572.7202758789062 149.32675170898438 582.8611450195312" stroke-width="0.0" fill="rgb(226, 229, 235)" opacity="0.9915223"/>
    <path d="M 133.16856384277344 567.8572387695312 C 130.3187713623047 577.9986572265625 122.99871063232422 585.3190307617188 113.0259017944336 587.8738403320312 C 102.84603118896484 585.4056396484375 95.43598937988281 578.1992797851562 92.6126708984375 568.1669311523438 C 95.812255859375 558.0404663085938 102.96761322021484 550.5912475585938 113.06352233886719 548.1022338867188 C 123.27227783203125 550.4208984375 130.6232147216797 557.7149047851562 133.16856384277344 567.8572387695312" stroke-width="0.0" fill="rgb(233, 236, 242)" opacity="0.99069005"/>
    <path d="M 31.74591827392578 346.72967529296875 C 28.906713485717773 357.54632568359375 21.553800582885742 364.92974853515625 11.31808853149414 367.7363586425781 C 0.7013476490974426 364.7470397949219 -6.459153652191162 357.2037353515625 -9.032085418701172 347.019775390625 C -6.393937110900879 336.87689208984375 0.7955950498580933 329.3553161621094 11.429203033447266 326.26605224609375 C 21.583986282348633 329.03857421875 28.94963264465332 336.4203796386719 31.74591827392578 346.72967529296875" stroke-width="0.0" fill="rgb(185, 189, 200)" opacity="0.9915635"/>
    <path d="M 205.114990234375 586.114501953125 C 202.59693908691406 596.270751953125 195.26600646972656 603.5814819335938 185.00796508789062 606.1810913085938 C 174.7328643798828 603.5719604492188 167.302001953125 596.3063354492188 164.33767700195312 586.0715942382812 C 167.4622039794922 575.8853149414062 174.9419708251953 568.6426391601562 184.9907684326172 565.9913940429688 C 195.0 568.6795043945312 202.3205108642578 576.0 205.114990234375 586.114501953125" stroke-width="0.0" fill="rgb(223, 226, 232)" opacity="0.99169743"/>
    <path d="M 415.6034240722656 482.2825012207031 C 412.8526916503906 492.4800720214844 405.4651794433594 499.8078918457031 394.6458740234375 502.6829528808594 C 384.44744873046875 499.942138671875 377.1833801269531 492.51031494140625 374.3526611328125 481.73858642578125 C 377.1239013671875 471.47802734375 384.460693359375 464.07855224609375 394.5853271484375 461.46881103515625 C 405.0786437988281 464.6332092285156 412.55023193359375 471.8636779785156 415.6034240722656 482.2825012207031" stroke-width="0.0" fill="rgb(194, 200, 211)" opacity="0.99098295"/>
    <path d="M 186.62921142578125 487.14630126953125 C 183.92381286621094 497.58111572265625 176.59681701660156 504.9697265625 166.08082580566406 507.8030090332031 C 155.43223571777344 504.9426574707031 148.05064392089844 497.5701904296875 145.23727416992188 487.27166748046875 C 148.09072875976562 476.4458312988281 155.43490600585938 469.05889892578125 165.80897521972656 466.229248046875 C 176.4484100341797 469.1647033691406 183.81082153320312 476.5594787597656 186.62921142578125 487.14630126953125" stroke-width="0.0" fill="rgb(187, 192, 202)" opacity="0.9916967"/>
    <path d="M 479.3509521484375 163.28964233398438 C 476.853759765625 173.57252502441406 469.67034912109375 181.1017303466797 459.7540588378906 183.87501525878906 C 448.3165283203125 180.7421417236328 440.81317138671875 173.79348754882812 438.1132507324219 163.7825164794922 C 441.2685852050781 152.68923950195312 448.766357421875 145.50990295410156 458.95440673828125 142.96791076660156 C 469.0 145.6794891357422 476.32049560546875 153.0 479.3509521484375 163.28964233398438" stroke-width="0.0" fill="rgb(183, 189, 200)" opacity="1.0"/>
    <path d="M 593.7589111328125 394.6872863769531 C 590.9293212890625 405.5863037109375 583.6095581054688 412.9930419921875 573.1793212890625 415.7957763671875 C 562.373779296875 412.995361328125 555.0299682617188 405.61602783203125 552.2379760742188 395.2275695800781 C 555.059814453125 384.40277099609375 562.3851928710938 377.01007080078125 573.025634765625 374.1982116699219 C 583.6942138671875 376.952392578125 591.0355224609375 384.3102722167969 593.7589111328125 394.6872863769531" stroke-width="0.0" fill="rgb(177, 183, 194)" opacity="0.9908605"/>
    <path d="M 467.0616455078125 387.67706298828125 C 466.0458984375 397.83355712890625 458.8802185058594 405.235107421875 447.97320556640625 407.9584655761719 C 437.11199951171875 405.2291564941406 429.76080322265625 397.8927307128906 427.03411865234375 387.59503173828125 C 429.7957763671875 376.18402099609375 437.21942138671875 368.857666015625 447.885009765625 366.0574035644531 C 458.3508605957031 368.9035949707031 464.5278625488281 377.61016845703125 467.0616455078125 387.67706298828125" stroke-width="0.0" fill="rgb(18, 27, 39)" opacity="0.9900449"/>
    <path d="M 489.8358154296875 508.33990478515625 C 486.8299560546875 519.4886474609375 479.4989929199219 526.86083984375 469.0129089355469 529.635009765625 C 458.5298156738281 526.8375244140625 451.1680603027344 519.467529296875 448.3271484375 509.0432434082031 C 451.0925598144531 498.4406433105469 458.4347839355469 491.07562255859375 469.27313232421875 488.29144287109375 C 479.70458984375 490.9536437988281 487.11151123046875 498.2705383300781 489.8358154296875 508.33990478515625" stroke-width="0.0" fill="rgb(190, 194, 203)" opacity="1.0"/>
    <path d="M 281.90460205078125 429.1610412597656 C 278.28094482421875 439.9637145996094 270.95806884765625 447.2620849609375 260.31243896484375 450.6927795410156 C 250.13526916503906 448.1828918457031 242.7873992919922 440.8747253417969 241.8453826904297 430.8583679199219 C 244.46902465820312 420.684326171875 251.5830535888672 413.1993103027344 261.44775390625 410.0115051269531 C 271.7688903808594 411.9960021972656 279.2181701660156 419.1596374511719 281.90460205078125 429.1610412597656" stroke-width="0.0" fill="rgb(23, 26, 27)" opacity="0.9900872"/>
    <path d="M 549.0509033203125 518.6090087890625 C 546.8146362304688 528.7034912109375 540.844482421875 536.2252807617188 529.350341796875 538.9683227539062 C 519.0822143554688 536.2543334960938 511.74609375 528.9175415039062 509.0387878417969 518.8402709960938 C 511.9298400878906 507.4412536621094 519.6773681640625 500.5050964355469 529.380859375 498.6602783203125 C 539.1925659179688 501.4896240234375 546.4523315429688 508.8292236328125 549.0509033203125 518.6090087890625" stroke-width="0.0" fill="rgb(8, 13, 20)" opacity="0.9900146"/>
    <path d="M 246.86306762695312 496.0904235839844 C 244.03338623046875 506.63983154296875 236.5935821533203 513.9021606445312 226.0863800048828 516.5670776367188 C 215.5635528564453 513.795654296875 208.20205688476562 506.4372253417969 205.34841918945312 495.7308654785156 C 208.0609893798828 485.4461669921875 215.4782257080078 478.15313720703125 226.04896545410156 475.4089050292969 C 236.5718994140625 478.109375 244.01589965820312 485.3828430175781 246.86306762695312 496.0904235839844" stroke-width="0.0" fill="rgb(192, 196, 205)" opacity="1.0"/>
    <path d="M 584.0023803710938 163.0001983642578 C 581.3215942382812 173.0006561279297 574.0004272460938 180.32081604003906 563.9862060546875 183.00753784179688 C 553.85546875 180.3984375 546.216796875 173.28091430664062 543.22705078125 162.85964965820312 C 545.9976806640625 152.35812377929688 553.3722534179688 145.03900146484375 563.5833740234375 142.49942016601562 C 574.0011596679688 145.6767578125 581.3211669921875 152.99942016601562 584.0023803710938 163.0001983642578" stroke-width="0.0" fill="rgb(176, 180, 193)" opacity="0.9924516"/>
    <path d="M 372.9684143066406 359.32275390625 C 370.25787353515625 369.92401123046875 362.9245910644531 377.2592468261719 351.9636535644531 379.97125244140625 C 341.0765380859375 377.2594909667969 333.7464599609375 369.9208068847656 331.0304260253906 359.1300048828125 C 333.74847412109375 348.08660888671875 341.089111328125 340.75439453125 351.4194641113281 338.0807189941406 C 362.9142150878906 340.7537536621094 370.2513732910156 348.08392333984375 372.9684143066406 359.32275390625" stroke-width="0.0" fill="rgb(6, 11, 15)" opacity="1.0"/>
    <path d="M 261.7672424316406 380.4095764160156 C 259.0660095214844 390.7454833984375 251.77035522460938 398.13330078125 241.5811004638672 400.77801513671875 C 230.4674835205078 397.8876647949219 223.0880584716797 390.5402526855469 220.2685089111328 380.19573974609375 C 223.11705017089844 369.4705810546875 230.46241760253906 362.094482421875 240.89598083496094 359.318359375 C 251.5103302001953 362.14007568359375 258.8932189941406 369.4776916503906 261.7672424316406 380.4095764160156" stroke-width="0.0" fill="rgb(193, 198, 208)" opacity="0.99116457"/>
    <path d="M 469.2249755859375 131.77354431152344 C 466.32049560546875 142.0 459.0 149.32049560546875 448.6113586425781 152.4766845703125 C 438.4283142089844 149.92066955566406 431.087158203125 142.56912231445312 428.3882751464844 132.12112426757812 C 431.1674499511719 121.50568389892578 438.4707946777344 114.0710678100586 449.2923278808594 111.20912170410156 C 459.6036376953125 113.98873138427734 466.8104553222656 121.46478271484375 469.2249755859375 131.77354431152344" stroke-width="0.0" fill="rgb(186, 190, 205)" opacity="0.99186903"/>
    <path d="M 566.0000610351562 295.0001525878906 C 563.3220825195312 305.00433349609375 556.0156860351562 312.3616638183594 545.5730590820312 315.5944519042969 C 535.4198608398438 312.9410400390625 528.066162109375 305.57769775390625 525.3109741210938 295.0800476074219 C 528.0927124023438 284.4470520019531 535.4533081054688 277.1125793457031 545.6537475585938 274.5802001953125 C 556.0 277.67950439453125 563.3204956054688 285.0 566.0000610351562 295.0001525878906" stroke-width="0.0" fill="rgb(179, 186, 197)" opacity="0.9922218"/>
    <path d="M 522.957275390625 494.1026916503906 C 520.6587524414062 504.5158996582031 513.705322265625 512.1576538085938 502.2843933105469 514.9610595703125 C 492.09246826171875 512.2462158203125 484.76202392578125 504.9040832519531 482.0868835449219 494.84527587890625 C 485.6593322753906 484.0280456542969 493.0474853515625 476.7332458496094 502.9977722167969 474.07562255859375 C 512.9649047851562 476.7244567871094 520.2716674804688 484.0360412597656 522.957275390625 494.1026916503906" stroke-width="0.0" fill="rgb(24, 29, 39)" opacity="1.0"/>
    <path d="M 608.0890502929688 111.02936553955078 C 605.5472412109375 121.27281188964844 598.322998046875 128.7088623046875 587.8119506835938 131.48489379882812 C 577.3972778320312 128.91976928710938 570.0010986328125 121.62844848632812 567.2052612304688 111.13297271728516 C 569.9932861328125 100.36062622070312 577.3751220703125 93.03307342529297 588.132568359375 90.2199478149414 C 598.3977661132812 93.12346649169922 605.5038452148438 100.7330551147461 608.0890502929688 111.02936553955078" stroke-width="0.0" fill="rgb(174, 180, 191)" opacity="0.99149156"/>
    <path d="M 444.9555969238281 360.3728332519531 C 442.1722106933594 371.7936096191406 434.8052673339844 379.1916809082031 424.8377685546875 381.9371643066406 C 413.9763488769531 378.3966979980469 406.67889404296875 371.00201416015625 403.0674133300781 360.1274108886719 C 405.76055908203125 350.1004943847656 413.1001892089844 342.76031494140625 423.59869384765625 340.0419616699219 C 434.89404296875 342.7682800292969 442.2366027832031 350.10382080078125 444.9555969238281 360.3728332519531" stroke-width="0.0" fill="rgb(20, 34, 42)" opacity="0.9901742"/>
    <path d="M 611.0237426757812 239.99258422851562 C 608.40234375 250.1366424560547 601.2266235351562 257.67669677734375 590.6819458007812 260.688232421875 C 580.4193115234375 257.9544372558594 573.0819702148438 250.5675048828125 570.2452392578125 239.79705810546875 C 573.0830688476562 229.4652557373047 580.4712524414062 222.101318359375 591.1497802734375 219.24020385742188 C 601.3370361328125 222.17018127441406 608.438720703125 229.80099487304688 611.0237426757812 239.99258422851562" stroke-width="0.0" fill="rgb(175, 179, 192)" opacity="0.9943181"/>
    <path d="M 551.7410888671875 233.01669311523438 C 548.9331665039062 243.5974578857422 541.6162109375 250.98573303222656 531.2517700195312 253.70730590820312 C 520.4462890625 250.8997039794922 513.0707397460938 243.5637969970703 510.319580078125 233.14891052246094 C 513.0958862304688 222.43202209472656 520.4213256835938 215.0640869140625 530.5869750976562 212.51458740234375 C 541.1082153320312 215.62806701660156 548.7330932617188 222.7659454345703 551.7410888671875 233.01669311523438" stroke-width="0.0" fill="rgb(178, 187, 196)" opacity="0.9927808"/>
    <path d="M 98.76695251464844 363.8612060546875 C 95.97880554199219 374.6261291503906 88.62881469726562 381.9862365722656 78.3156509399414 384.7266845703125 C 67.88643646240234 381.57989501953125 60.66722106933594 374.0326843261719 57.99964904785156 364.001220703125 C 60.68015670776367 354.0011901855469 68.0004653930664 346.6772155761719 78.45733642578125 343.40997314453125 C 88.60259246826172 346.031005859375 95.96009063720703 353.40142822265625 98.76695251464844 363.8612060546875" stroke-width="0.0" fill="rgb(185, 190, 201)" opacity="0.9917786"/>
    <path d="M 536.7670288085938 317.3072509765625 C 533.9385375976562 327.5177001953125 526.4791259765625 334.8405456542969 515.9513549804688 337.6202697753906 C 505.2950134277344 334.9928283691406 497.89605712890625 327.74078369140625 495.15380859375 316.3043212890625 C 497.8130187988281 306.1827697753906 505.2228088378906 298.9201354980469 515.6834716796875 296.2355041503906 C 526.6095581054688 299.0222473144531 533.9260864257812 306.4087829589844 536.7670288085938 317.3072509765625" stroke-width="0.0" fill="rgb(181, 187, 198)" opacity="1.0"/>
    <path d="M 240.57504272460938 136.2529296875 C 237.9119415283203 146.5581817626953 230.55264282226562 153.89569091796875 220.3702392578125 156.47052001953125 C 210.00013732910156 153.32037353515625 202.67970275878906 145.9998321533203 200.0005340576172 135.99996948242188 C 202.6796112060547 126.00006866455078 210.0000457763672 118.67951202392578 220.0595703125 115.95087432861328 C 230.23013305664062 118.4905776977539 237.67576599121094 125.7179946899414 240.57504272460938 136.2529296875" stroke-width="0.0" fill="rgb(189, 193, 206)" opacity="0.99263585"/>
    <path d="M 145.5480499267578 338.5846862792969 C 142.35891723632812 349.0665283203125 135.1149444580078 356.51483154296875 124.74296569824219 359.5279846191406 C 114.48680114746094 356.8657531738281 107.0999526977539 349.5242919921875 104.2806625366211 339.1902160644531 C 107.10518646240234 328.4658203125 114.47856903076172 321.1437072753906 125.19937896728516 318.36590576171875 C 135.54689025878906 321.0798645019531 142.91220092773438 328.45623779296875 145.5480499267578 338.5846862792969" stroke-width="0.0" fill="rgb(185, 192, 203)" opacity="0.9926024"/>
    <path d="M 396.5113525390625 29.381980895996094 C 393.8795166015625 39.529014587402344 386.5372619628906 46.90283966064453 376.11676025390625 49.66133117675781 C 365.5064697265625 46.85371780395508 358.1805114746094 39.48286056518555 355.33416748046875 28.73577117919922 C 358.1213684082031 18.478891372680664 365.4635009765625 11.082452774047852 375.5867919921875 8.476457595825195 C 385.9952392578125 11.683486938476562 393.31719970703125 19.004392623901367 396.5113525390625 29.381980895996094" stroke-width="0.0" fill="rgb(189, 195, 206)" opacity="0.99145913"/>
    <path d="M 75.7174072265625 339.7743835449219 C 72.60445404052734 350.1317443847656 65.04349517822266 357.3381042480469 54.62754821777344 360.4220275878906 C 44.40156173706055 357.9327697753906 37.03847122192383 350.6075744628906 34.28158187866211 340.0804138183594 C 37.06229782104492 329.4408264160156 44.462520599365234 322.12261962890625 55.29476547241211 319.2420349121094 C 65.53573608398438 322.07794189453125 72.91751098632812 329.4646301269531 75.7174072265625 339.7743835449219" stroke-width="0.0" fill="rgb(185, 190, 200)" opacity="0.9917559"/>
    <path d="M 157.45362854003906 539.29833984375 C 154.8503875732422 549.48828125 147.4777374267578 556.819091796875 137.08018493652344 559.652587890625 C 126.70294952392578 556.6675415039062 119.38121032714844 549.283203125 116.8498764038086 539.1344604492188 C 119.67952728271484 529.0001220703125 127.00176239013672 521.685546875 137.22866821289062 518.7139282226562 C 147.25857543945312 521.37841796875 154.5117645263672 528.7732543945312 157.45362854003906 539.29833984375" stroke-width="0.0" fill="rgb(225, 227, 232)" opacity="0.9906834"/>
    <path d="M 170.78814697265625 369.3316650390625 C 167.98818969726562 379.6189270019531 160.61236572265625 386.96905517578125 150.45965576171875 389.5701599121094 C 140.00009155273438 386.3201904296875 132.6794891357422 379.0 129.64840698242188 368.7532653808594 C 132.2966766357422 358.7178039550781 139.7943115234375 351.5364990234375 149.96839904785156 348.9747619628906 C 160.07489013671875 351.64581298828125 167.6852569580078 358.81085205078125 170.78814697265625 369.3316650390625" stroke-width="0.0" fill="rgb(188, 190, 203)" opacity="0.9931936"/>
    <path d="M 289.51751708984375 79.17921447753906 C 286.84661865234375 89.50057983398438 279.4936828613281 96.82354736328125 269.26611328125 99.29010772705078 C 259.0 96.32051086425781 251.6794891357422 89.0 248.58639526367188 78.65690612792969 C 251.12327575683594 68.48489379882812 258.4952087402344 61.15196990966797 268.8885803222656 58.4041862487793 C 279.37823486328125 61.2428092956543 286.7010498046875 68.64035034179688 289.51751708984375 79.17921447753906" stroke-width="0.0" fill="rgb(191, 196, 207)" opacity="0.99152213"/>
    <path d="M 423.9301452636719 380.8739318847656 C 421.2471923828125 390.9122619628906 413.9147033691406 398.2525939941406 403.88421630859375 400.9447021484375 C 393.8363952636719 396.5104675292969 386.55670166015625 389.1441650390625 382.0696105957031 379.0844421386719 C 384.750732421875 369.0928955078125 392.0987854003906 361.76422119140625 402.153564453125 359.0806579589844 C 413.0403747558594 362.6210021972656 420.3876647949219 369.95623779296875 423.9301452636719 380.8739318847656" stroke-width="0.0" fill="rgb(19, 24, 30)" opacity="0.99040616"/>
    <path d="M 492.54266357421875 148.2714080810547 C 489.8070373535156 158.42723083496094 482.4083251953125 165.7492218017578 472.2320251464844 168.28790283203125 C 462.00042724609375 165.3200225830078 454.6801452636719 157.99952697753906 452.0013732910156 147.99966430664062 C 454.67938232421875 137.9998016357422 461.99969482421875 130.6790008544922 472.00189208984375 127.99845123291016 C 482.0310974121094 130.6648406982422 489.4637756347656 137.9296112060547 492.54266357421875 148.2714080810547" stroke-width="0.0" fill="rgb(182, 191, 200)" opacity="0.99616927"/>
    <path d="M 104.6801528930664 408.9337158203125 C 101.83839416503906 419.3932800292969 94.29019165039062 426.5265197753906 84.04985809326172 429.0383605957031 C 73.94115447998047 426.3500061035156 66.44477081298828 419.1241149902344 63.397117614746094 408.73260498046875 C 66.07434844970703 398.4212951660156 73.41871643066406 391.06610107421875 84.27693939208984 388.2382507324219 C 94.61652374267578 391.018310546875 101.94779968261719 398.394775390625 104.6801528930664 408.9337158203125" stroke-width="0.0" fill="rgb(184, 188, 198)" opacity="0.9931127"/>
    <path d="M 608.0856323242188 281.95880126953125 C 605.47412109375 292.22552490234375 598.35009765625 299.83111572265625 587.6041870117188 302.8283996582031 C 577.3143920898438 300.0544128417969 569.9765625 292.6737365722656 567.23388671875 282.362548828125 C 570.0558471679688 271.3972473144531 577.386474609375 264.024169921875 587.9708862304688 261.22418212890625 C 598.4205932617188 264.1269226074219 605.568603515625 271.6829528808594 608.0856323242188 281.95880126953125" stroke-width="0.0" fill="rgb(175, 182, 193)" opacity="0.99114144"/>
    <path d="M 140.19366455078125 527.82763671875 C 137.31594848632812 537.9948120117188 129.99661254882812 545.3231201171875 119.8892822265625 548.3191528320312 C 109.64111328125 545.6981811523438 102.3236312866211 538.351318359375 99.40974426269531 527.8134155273438 C 102.26200103759766 517.6232299804688 109.59432983398438 510.1842041015625 120.11447143554688 507.32965087890625 C 130.4131317138672 510.17431640625 137.6864471435547 517.6332397460938 140.19366455078125 527.82763671875" stroke-width="0.0" fill="rgb(215, 218, 224)" opacity="1.0"/>
    <path d="M 308.04193115234375 292.17486572265625 C 305.4163513183594 302.1174621582031 298.11700439453125 309.4156188964844 288.5719909667969 312.0397644042969 C 279.7423095703125 309.4478454589844 270.8316955566406 303.4219055175781 268.0442199707031 293.745849609375 C 270.9681396484375 282.4940490722656 278.728759765625 275.5393981933594 289.2524108886719 272.7771301269531 C 299.6273498535156 275.1074523925781 306.9035949707031 282.3652648925781 308.04193115234375 292.17486572265625" stroke-width="0.0" fill="rgb(2, 2, 5)" opacity="0.9900054"/>
    <path d="M 324.6264343261719 18.282413482666016 C 321.9326171875 28.57242202758789 314.56207275390625 35.90133285522461 304.3028259277344 38.4608154296875 C 293.6669616699219 35.61305236816406 286.2214050292969 28.38532829284668 283.4182434082031 17.837854385375977 C 286.10430908203125 7.458909511566162 293.46649169921875 0.12707769870758057 303.97125244140625 -2.5631771087646484 C 314.4461364746094 0.17566651105880737 321.7542419433594 7.577743053436279 324.6264343261719 18.282413482666016" stroke-width="0.0" fill="rgb(191, 196, 205)" opacity="0.9917162"/>
    <path d="M 440.96478271484375 419.300537109375 C 438.1976623535156 430.7684020996094 430.3929138183594 436.64556884765625 420.4665222167969 439.060791015625 C 410.84002685546875 436.45458984375 403.544677734375 429.1603088378906 400.94415283203125 419.57568359375 C 403.41522216796875 409.79351806640625 409.2456359863281 401.806396484375 420.5516357421875 399.0413818359375 C 430.9104919433594 401.7566833496094 438.2530517578125 409.0853271484375 440.96478271484375 419.300537109375" stroke-width="0.0" fill="rgb(31, 36, 42)" opacity="0.9900077"/>
    <path d="M 240.35841369628906 111.26447296142578 C 237.75762939453125 121.3450698852539 230.27679443359375 128.5435791015625 220.05581665039062 131.06600952148438 C 209.85964965820312 128.40237426757812 202.26414489746094 121.25440979003906 199.28659057617188 111.10566711425781 C 202.15496826171875 100.51710510253906 209.5143585205078 93.14727020263672 219.84458923339844 90.4003677368164 C 230.18467712402344 93.3759765625 237.381591796875 100.8936767578125 240.35841369628906 111.26447296142578" stroke-width="0.0" fill="rgb(191, 193, 206)" opacity="0.99248713"/>
    <path d="M 115.7052001953125 201.76414489746094 C 112.89488983154297 212.56324768066406 105.5817642211914 219.94871520996094 95.42195129394531 222.5064697265625 C 84.99996948242188 219.32058715820312 77.67955780029297 211.99998474121094 74.59690856933594 201.6431427001953 C 77.08206939697266 191.41363525390625 84.39896392822266 184.03662109375 94.693603515625 181.283935546875 C 105.49375915527344 184.15867614746094 112.9054183959961 191.48379516601562 115.7052001953125 201.76414489746094" stroke-width="0.0" fill="rgb(186, 191, 202)" opacity="0.9918516"/>
    <path d="M 286.4671630859375 38.63433074951172 C 283.41693115234375 49.13103103637695 276.18011474609375 56.574832916259766 265.83428955078125 59.50886535644531 C 255.57559204101562 56.7740364074707 248.19671630859375 49.43433380126953 245.37583923339844 38.8476448059082 C 248.1240692138672 28.50186538696289 255.53506469726562 21.227312088012695 266.3538818359375 18.339391708374023 C 276.5646057128906 21.073823928833008 283.90899658203125 28.440683364868164 286.4671630859375 38.63433074951172" stroke-width="0.0" fill="rgb(188, 194, 205)" opacity="0.99215424"/>
    <path d="M 499.8374938964844 31.26863670349121 C 497.0421447753906 41.668426513671875 489.65521240234375 49.00703430175781 479.2608642578125 51.72672653198242 C 468.4259948730469 48.926856994628906 461.0740051269531 41.5738410949707 458.328369140625 31.071229934692383 C 461.1347351074219 20.5058536529541 468.51177978515625 13.152262687683105 479.3465576171875 10.25367546081543 C 489.5674133300781 13.050594329833984 496.9583740234375 20.42910385131836 499.8374938964844 31.26863670349121" stroke-width="0.0" fill="rgb(181, 187, 198)" opacity="0.9913073"/>
    <path d="M 214.156494140625 297.8302917480469 C 211.32211303710938 308.00408935546875 204.01242065429688 315.35107421875 193.6146240234375 318.5050964355469 C 183.41358947753906 315.9241943359375 175.9950714111328 308.6157531738281 173.1973419189453 298.3276672363281 C 176.12307739257812 287.5079650878906 183.5219268798828 280.1644592285156 194.18783569335938 277.34930419921875 C 204.51806640625 280.08453369140625 211.7322998046875 287.54107666015625 214.156494140625 297.8302917480469" stroke-width="0.0" fill="rgb(189, 194, 206)" opacity="0.99257475"/>
    <path d="M 529.4484252929688 352.90228271484375 C 526.7991943359375 363.48095703125 519.4985961914062 370.8553161621094 508.7017822265625 373.7218322753906 C 498.4448547363281 370.9294128417969 491.09228515625 363.5480651855469 488.1065368652344 352.2281799316406 C 490.8135070800781 342.1787109375 498.1948547363281 334.8514404296875 508.3459777832031 332.20220947265625 C 519.5225830078125 335.1615905761719 526.8659057617188 342.46893310546875 529.4484252929688 352.90228271484375" stroke-width="0.0" fill="rgb(186, 192, 203)" opacity="1.0"/>
    <path d="M 569.7060546875 294.09246826171875 C 566.9498291015625 304.6046142578125 559.624755859375 312.00555419921875 549.566162109375 314.7225036621094 C 539.000244140625 311.3202209472656 531.6799926757812 303.99969482421875 529.0017700195312 294.0000305175781 C 531.6798706054688 283.9998474121094 539.00048828125 276.682373046875 549.4832153320312 273.355712890625 C 559.5515747070312 276.073974609375 566.9027099609375 283.4564514160156 569.7060546875 294.09246826171875" stroke-width="0.0" fill="rgb(179, 186, 197)" opacity="0.995553"/>
    <path d="M 150.49209594726562 386.40203857421875 C 147.93939208984375 396.60638427734375 140.62322998046875 403.98797607421875 130.05235290527344 406.7409973144531 C 119.37973022460938 403.98004150390625 112.02989196777344 396.61663818359375 109.22541046142578 385.745361328125 C 112.00405883789062 375.38604736328125 119.41352081298828 368.0811462402344 129.60997009277344 365.5073547363281 C 139.99996948242188 368.6795654296875 147.3205108642578 376.0000305175781 150.49209594726562 386.40203857421875" stroke-width="0.0" fill="rgb(187, 192, 203)" opacity="0.9915654"/>
    <path d="M 587.7896118164062 201.0059814453125 C 584.9972534179688 211.63763427734375 577.6417846679688 219.00975036621094 567.4868774414062 221.76573181152344 C 556.884521484375 218.5540313720703 549.656982421875 211.04812622070312 546.9984741210938 201.0032958984375 C 549.6795043945312 191.0 557.0 183.6794891357422 567.0366821289062 180.9765167236328 C 577.2454833984375 183.5211639404297 584.8720703125 190.615234375 587.7896118164062 201.0059814453125" stroke-width="0.0" fill="rgb(174, 180, 191)" opacity="1.0"/>
    <path d="M 154.4567413330078 243.70111083984375 C 151.3257293701172 254.0015869140625 144.00013732910156 261.3204040527344 133.60243225097656 264.4741516113281 C 123.40042114257812 261.9395446777344 116.02899169921875 254.61033630371094 113.37722778320312 244.34080505371094 C 116.18437194824219 233.4784393310547 123.42052459716797 226.01596069335938 133.68885803222656 223.2030029296875 C 144.41574096679688 226.16946411132812 151.76577758789062 233.60791015625 154.4567413330078 243.70111083984375" stroke-width="0.0" fill="rgb(185, 192, 201)" opacity="0.993837"/>
    <path d="M 301.7312316894531 230.19561767578125 C 298.78741455078125 240.25396728515625 291.0956726074219 247.36056518554688 280.7604675292969 250.30531311035156 C 270.62994384765625 247.74644470214844 263.3736267089844 240.33242797851562 260.88018798828125 230.12034606933594 C 263.6680603027344 219.9705047607422 270.90350341796875 212.4580841064453 281.1943359375 209.3724822998047 C 291.57904052734375 212.08624267578125 298.95220947265625 219.40792846679688 301.7312316894531 230.19561767578125" stroke-width="0.0" fill="rgb(195, 200, 211)" opacity="0.99079996"/>
    <path d="M 431.3653564453125 544.6988525390625 C 428.36309814453125 555.081298828125 421.16864013671875 562.62841796875 411.1304016113281 565.5877685546875 C 400.553955078125 562.7532348632812 393.1901550292969 555.4634399414062 390.5918273925781 544.9984741210938 C 393.25323486328125 534.6141967773438 400.6180725097656 527.2631225585938 411.071044921875 524.4243774414062 C 421.5031433105469 527.1567993164062 428.84674072265625 534.49560546875 431.3653564453125 544.6988525390625" stroke-width="0.0" fill="rgb(206, 208, 216)" opacity="1.0"/>
    <path d="M 233.5883026123047 305.8187561035156 C 230.7613983154297 316.4327087402344 223.47386169433594 323.87939453125 213.0050048828125 326.7202453613281 C 202.41375732421875 323.9599609375 195.15821838378906 316.5484619140625 192.75003051757812 306.2546081542969 C 195.67727661132812 295.9944152832031 202.98245239257812 288.6358337402344 213.29635620117188 285.51837158203125 C 223.4659881591797 288.1745910644531 230.84024047851562 295.52899169921875 233.5883026123047 305.8187561035156" stroke-width="0.0" fill="rgb(192, 197, 207)" opacity="0.99112785"/>
    <path d="M 342.96453857421875 262.9475402832031 C 340.2478942871094 273.90985107421875 332.90289306640625 281.2288818359375 322.6526184082031 282.1914367675781 C 311.1011657714844 281.2047119140625 303.7524108886719 273.9118957519531 301.09344482421875 263.7935791015625 C 303.8209533691406 252.11720275878906 311.0892333984375 244.74105834960938 321.1849365234375 242.03761291503906 C 332.8938903808594 244.7786865234375 340.249267578125 252.09449768066406 342.96453857421875 262.9475402832031" stroke-width="0.0" fill="rgb(11, 13, 19)" opacity="0.99003285"/>
    <path d="M 217.11167907714844 575.1132202148438 C 214.59764099121094 585.2854614257812 207.30589294433594 592.6651000976562 197.196044921875 595.2508544921875 C 187.01307678222656 592.3045043945312 179.69369506835938 584.9874267578125 177.02525329589844 574.9988403320312 C 179.6910400390625 565.0090942382812 187.00802612304688 557.6873779296875 197.0026092529297 554.9987182617188 C 206.99868774414062 557.680419921875 214.31832885742188 565.0016479492188 217.11167907714844 575.1132202148438" stroke-width="0.0" fill="rgb(214, 218, 224)" opacity="0.99257344"/>
    <path d="M 281.1917419433594 221.80709838867188 C 278.3546447753906 232.07281494140625 271.159423828125 239.61793518066406 260.9040832519531 242.5722198486328 C 250.50672912597656 239.84156799316406 243.1034698486328 232.5116729736328 240.24830627441406 222.1138153076172 C 243.05853271484375 211.4214630126953 250.4335174560547 204.09361267089844 261.1690673828125 201.31610107421875 C 271.5279235839844 204.07962036132812 278.7627258300781 211.523193359375 281.1917419433594 221.80709838867188" stroke-width="0.0" fill="rgb(193, 198, 209)" opacity="0.9917845"/>
    <path d="M 87.00482177734375 366.0090026855469 C 84.37054443359375 376.0925598144531 77.1717758178711 383.6148986816406 66.7361068725586 386.6293029785156 C 56.46381759643555 383.9002685546875 49.12284469604492 376.5283508300781 46.45790100097656 366.2790222167969 C 49.47365188598633 355.8849792480469 56.93959426879883 348.64794921875 66.99456787109375 345.9971923828125 C 77.0 348.67950439453125 84.32051086425781 356.0 87.00482177734375 366.0090026855469" stroke-width="0.0" fill="rgb(183, 189, 200)" opacity="0.9930419"/>
    <path d="M 285.5375671386719 110.19670104980469 C 282.8769836425781 120.5267333984375 275.52685546875 127.8772201538086 264.80975341796875 130.69921875 C 254.45156860351562 127.90304565429688 247.0607147216797 120.56216430664062 244.3917999267578 110.46285247802734 C 247.6794891357422 100.0 255.0 92.67948913574219 265.13104248046875 89.87442779541016 C 275.34765625 92.3538818359375 282.7343444824219 99.62520599365234 285.5375671386719 110.19670104980469" stroke-width="0.0" fill="rgb(192, 197, 207)" opacity="0.99122024"/>
    <path d="M 579.0 188.00001525878906 C 576.3204956054688 198.0 569.0 205.3205108642578 559.0 208.0 C 549.0001831054688 205.32046508789062 541.6826782226562 197.99896240234375 538.3301391601562 187.5109100341797 C 541.0932006835938 177.49722290039062 548.545166015625 170.23712158203125 558.7906494140625 167.7827606201172 C 569.0 170.67950439453125 576.3204345703125 178.00003051757812 579.0 188.00001525878906" stroke-width="0.0" fill="rgb(177, 183, 194)" opacity="0.9936773"/>
    <path d="M 459.51312255859375 556.096435546875 C 456.68634033203125 566.3443603515625 449.3838195800781 573.7935791015625 438.97723388671875 576.6488647460938 C 428.5028381347656 573.847412109375 421.13531494140625 566.503662109375 418.56610107421875 556.3698120117188 C 421.7203063964844 545.90478515625 428.73663330078125 538.2257080078125 438.7646179199219 535.2517700195312 C 449.3303527832031 538.28173828125 456.6853332519531 545.6790161132812 459.51312255859375 556.096435546875" stroke-width="0.0" fill="rgb(178, 181, 191)" opacity="0.9900717"/>
    <path d="M 569.0278930664062 205.03903198242188 C 566.4671630859375 215.20510864257812 559.290283203125 222.72860717773438 549.2914428710938 225.46510314941406 C 538.9281005859375 222.36119079589844 531.4458618164062 215.13299560546875 528.4708862304688 204.81570434570312 C 531.1749267578125 194.54283142089844 538.569091796875 187.25830078125 548.803466796875 184.79434204101562 C 558.9999389648438 187.67947387695312 566.3203125 195.0001220703125 569.0278930664062 205.03903198242188" stroke-width="0.0" fill="rgb(178, 185, 196)" opacity="0.9916021"/>
    <path d="M 309.8832092285156 256.20404052734375 C 306.9630126953125 267.6164855957031 299.5920715332031 274.8824768066406 289.29071044921875 277.24603271484375 C 279.2513122558594 274.18017578125 272.3058776855469 266.5653381347656 269.9354248046875 257.721435546875 C 272.5594177246094 247.8516845703125 279.84814453125 240.55088806152344 289.708984375 237.9349365234375 C 299.7826232910156 239.23667907714844 307.2227783203125 246.14117431640625 309.8832092285156 256.20404052734375" stroke-width="0.0" fill="rgb(24, 30, 39)" opacity="0.99001"/>
    <path d="M 305.9513854980469 275.6038513183594 C 303.0419921875 286.45001220703125 294.98834228515625 293.0595397949219 284.67584228515625 295.491455078125 C 274.33001708984375 293.88482666015625 266.8363037109375 286.76318359375 264.9615783691406 276.85125732421875 C 268.4258117675781 266.5704040527344 275.2193908691406 258.2855224609375 284.5545959472656 255.477294921875 C 295.2811279296875 258.7934875488281 303.11602783203125 265.39349365234375 305.9513854980469 275.6038513183594" stroke-width="0.0" fill="rgb(45, 56, 76)" opacity="0.99009323"/>
    <path d="M 101.69451141357422 427.43902587890625 C 98.95333099365234 437.59027099609375 91.58349609375 444.93212890625 80.7782974243164 447.7499694824219 C 70.40132904052734 444.9593811035156 63.057708740234375 437.5933532714844 60.25048065185547 426.8428649902344 C 63.13853073120117 416.6128845214844 70.73828125 409.49969482421875 80.95621490478516 406.9674987792969 C 91.03699493408203 409.662841796875 98.49848175048828 416.9128723144531 101.69451141357422 427.43902587890625" stroke-width="0.0" fill="rgb(182, 186, 198)" opacity="0.9963674"/>
    <path d="M 50.826358795166016 30.994449615478516 C 47.98493576049805 41.59041976928711 40.55611038208008 48.89065933227539 29.743288040161133 51.69731140136719 C 19.359039306640625 48.99124526977539 11.980780601501465 41.65092468261719 9.186901092529297 31.233964920043945 C 12.08223819732666 20.468242645263672 19.474937438964844 13.102500915527344 30.068458557128906 10.29245376586914 C 40.58472442626953 13.062807083129883 47.990177154541016 20.39569854736328 50.826358795166016 30.994449615478516" stroke-width="0.0" fill="rgb(183, 189, 200)" opacity="0.99159306"/>
  </g>
</svg>
