<?xml version="1.0" ?>
<svg xmlns="http://www.w3.org/2000/svg" version="1.1" width="600" height="600">
  <defs/>
  <g>
    <path d="M 495.9407653808594 317.34100341796875 C 493.50750732421875 324.84283447265625 486.6910705566406 330.1164855957031 480.1460876464844 332.0453796386719 C 473.3598327636719 330.1022644042969 467.8131408691406 324.6653137207031 464.103271484375 317.36077880859375 C 466.42413330078125 310.151123046875 472.3644104003906 304.9521179199219 480.5452575683594 302.47113037109375 C 488.3276062011719 304.20794677734375 493.8853454589844 309.6406555175781 495.9407653808594 317.34100341796875" stroke-width="0.0" fill="rgb(23, 28, 31)" opacity="0.9900171"/>
    <path d="M 223.930419921875 244.64501953125 C 221.87432861328125 252.3551483154297 216.34852600097656 257.85858154296875 208.83432006835938 259.71478271484375 C 201.2529296875 256.21112060546875 195.8238525390625 250.73304748535156 193.80641174316406 243.16761779785156 C 194.17498779296875 235.6864471435547 199.67941284179688 230.1565399169922 207.25180053710938 228.1439208984375 C 216.06594848632812 230.55215454101562 221.77728271484375 235.8191375732422 223.930419921875 244.64501953125" stroke-width="0.0" fill="rgb(173, 35, 28)" opacity="0.9902611"/>
    <path d="M 491.0485534667969 286.8338317871094 C 489.6415100097656 293.3551940917969 484.4757995605469 298.982421875 476.9995422363281 300.9998474121094 C 469.5 298.9903869628906 464.0096130371094 293.5 462.5722351074219 286.5784912109375 C 464.8249816894531 279.3343505859375 470.3642883300781 273.9097900390625 476.5760498046875 271.9645080566406 C 483.60321044921875 273.9261169433594 489.07781982421875 279.39501953125 491.0485534667969 286.8338317871094" stroke-width="0.0" fill="rgb(13, 14, 16)" opacity="0.9900152"/>
    <path d="M 248.924560546875 183.9144744873047 C 246.74732971191406 191.22471618652344 241.19070434570312 196.63644409179688 233.81854248046875 198.78048706054688 C 226.50946044921875 196.9866485595703 221.06822204589844 191.47442626953125 218.50027465820312 183.71609497070312 C 220.57949829101562 176.0762176513672 226.04635620117188 170.49424743652344 233.6833038330078 168.6090850830078 C 241.5 171.00961303710938 246.99038696289062 176.5 248.924560546875 183.9144744873047" stroke-width="0.0" fill="rgb(253, 250, 232)" opacity="0.9926153"/>
    <path d="M 308.8504333496094 300.75811767578125 C 306.8014831542969 308.2236633300781 301.1323547363281 313.53765869140625 293.2317810058594 315.18731689453125 C 285.5 312.9903869628906 280.0096130371094 307.5 278.326904296875 300.358154296875 C 280.6737365722656 293.2126770019531 286.2663269042969 287.8341064453125 293.69818115234375 285.8085632324219 C 300.02215576171875 287.3853759765625 305.3522644042969 293.0592041015625 308.8504333496094 300.75811767578125" stroke-width="0.0" fill="rgb(165, 30, 22)" opacity="0.990025"/>
    <path d="M 303.882568359375 309.7996826171875 C 301.86859130859375 317.3494873046875 296.33917236328125 322.8415832519531 287.72406005859375 324.9079895019531 C 279.7698974609375 322.8141174316406 274.58721923828125 317.1073913574219 273.1177673339844 309.0478515625 C 275.0088195800781 301.4978332519531 280.4903869628906 295.9824523925781 288.0902099609375 293.65716552734375 C 295.59344482421875 295.8497314453125 301.0282287597656 301.4439392089844 303.882568359375 309.7996826171875" stroke-width="0.0" fill="rgb(176, 32, 29)" opacity="1.0"/>
    <path d="M 257.0 289.0 C 254.99038696289062 296.5 249.5 301.9903869628906 241.99717712402344 304.0011291503906 C 234.43679809570312 302.0162658691406 228.64744567871094 296.6800842285156 226.61692810058594 289.6166076660156 C 229.65455627441406 282.02569580078125 234.9114990234375 276.3114013671875 242.08485412597656 274.0557861328125 C 249.5 276.0096130371094 254.99038696289062 281.5 257.0 289.0" stroke-width="0.0" fill="rgb(153, 42, 30)" opacity="0.9901636"/>
    <path d="M 280.92596435546875 282.4306335449219 C 278.6936340332031 291.00897216796875 272.79425048828125 296.15277099609375 265.0279541015625 298.0138244628906 C 257.5 295.9903869628906 252.00961303710938 290.5 249.9998779296875 282.9998474121094 C 252.0091094970703 275.4993896484375 257.4992980957031 270.0087890625 265.5550537109375 267.41131591796875 C 273.2829895019531 269.2302551269531 278.84527587890625 274.6893005371094 280.92596435546875 282.4306335449219" stroke-width="0.0" fill="rgb(172, 29, 24)" opacity="1.0"/>
    <path d="M 427.9511413574219 176.4842529296875 C 425.8846740722656 185.37603759765625 420.3804016113281 190.89483642578125 412.0333251953125 192.95126342773438 C 403.6172790527344 190.8958282470703 398.1209411621094 185.37620544433594 396.0658264160156 176.48367309570312 C 398.10211181640625 168.60870361328125 403.6083984375 163.10105895996094 412.3498840332031 161.04312133789062 C 420.3834533691406 163.1003875732422 425.89312744140625 168.61953735351562 427.9511413574219 176.4842529296875" stroke-width="0.0" fill="rgb(18, 24, 28)" opacity="1.0"/>
    <path d="M 394.4482421875 163.4133758544922 C 393.5555419921875 170.91473388671875 387.78985595703125 176.19654846191406 380.0553283691406 178.03904724121094 C 372.5 175.99038696289062 367.0096130371094 170.5 365.0 163.0 C 367.0096130371094 155.5 372.5 150.00961303710938 380.06536865234375 147.9691619873047 C 387.9011535644531 149.73426818847656 393.6205139160156 154.98419189453125 394.4482421875 163.4133758544922" stroke-width="0.0" fill="rgb(252, 248, 232)" opacity="1.0"/>
    <path d="M 212.74517822265625 433.69964599609375 C 210.85183715820312 441.36065673828125 205.37400817871094 446.8884582519531 197.89120483398438 447.12286376953125 C 190.26803588867188 445.12750244140625 183.3644256591797 440.0104675292969 181.0561981201172 432.2583312988281 C 183.1060333251953 424.6325378417969 188.66371154785156 419.19403076171875 196.42184448242188 417.4259948730469 C 204.5 420.0096130371094 209.99038696289062 425.5 212.74517822265625 433.69964599609375" stroke-width="0.0" fill="rgb(23, 28, 32)" opacity="0.9902152"/>
    <path d="M 306.0098876953125 372.99822998046875 C 303.9442443847656 380.3970031738281 298.3114013671875 385.6778564453125 290.2750244140625 388.46453857421875 C 282.89990234375 386.712158203125 277.3500671386719 381.0675354003906 275.41259765625 373.5487365722656 C 278.038818359375 365.50885009765625 283.5008239746094 360.0098571777344 291.0 358.0 C 298.5 360.0096130371094 303.9903869628906 365.5 306.0098876953125 372.99822998046875" stroke-width="0.0" fill="rgb(251, 248, 233)" opacity="1.0"/>
    <path d="M 132.0 285.0 C 129.99038696289062 292.5 124.5 297.9903869628906 117.00491333007812 299.9963684082031 C 109.52447509765625 297.9716491699219 104.04627227783203 292.4700622558594 102.01407623291016 284.9862060546875 C 104.0096206665039 277.5 109.5 272.0096130371094 117.0 270.0 C 124.5 272.0096130371094 129.99038696289062 277.5 132.0 285.0" stroke-width="0.0" fill="rgb(255, 252, 239)" opacity="0.99284196"/>
    <path d="M 288.2106018066406 301.1405334472656 C 286.142822265625 308.69683837890625 280.7323303222656 314.2497253417969 273.6078186035156 316.65655517578125 C 266.365234375 315.0315246582031 260.79583740234375 309.6820373535156 258.8859558105469 302.0964660644531 C 261.01116943359375 294.5049743652344 266.5422668457031 289.1363525390625 273.7961120605469 287.85577392578125 C 282.2161560058594 288.4206848144531 287.8309326171875 293.71575927734375 288.2106018066406 301.1405334472656" stroke-width="0.0" fill="rgb(251, 249, 233)" opacity="0.99006593"/>
    <path d="M 404.41143798828125 333.4259033203125 C 402.1865539550781 340.6818542480469 396.64984130859375 346.09930419921875 389.2491149902344 348.0450744628906 C 381.860107421875 346.8182373046875 376.24432373046875 342.2349548339844 374.434326171875 334.5450134277344 C 377.0096130371094 326.5 382.5 321.0096130371094 390.0 319.0 C 397.5 321.0096130371094 402.9903869628906 326.5 404.41143798828125 333.4259033203125" stroke-width="0.0" fill="rgb(24, 28, 32)" opacity="0.9900238"/>
    <path d="M 188.1304168701172 319.8508605957031 C 185.87094116210938 327.4349060058594 180.47265625 332.99395751953125 173.00392150878906 335.01507568359375 C 165.4691619873047 333.0089111328125 159.8826141357422 327.5633850097656 157.82034301757812 320.16229248046875 C 159.85586547851562 312.34912109375 165.34695434570312 306.843505859375 172.8241729736328 305.0439147949219 C 180.45079040527344 307.15032958984375 186.07896423339844 312.4786682128906 188.1304168701172 319.8508605957031" stroke-width="0.0" fill="rgb(255, 254, 237)" opacity="0.9905665"/>
    <path d="M 207.23414611816406 266.9897155761719 C 205.0569305419922 274.5213623046875 199.48809814453125 279.9468994140625 191.89678955078125 282.05377197265625 C 184.34152221679688 280.1706848144531 178.8287353515625 274.6575012207031 177.1660614013672 267.2032165527344 C 179.05255126953125 259.4632263183594 184.38858032226562 253.80010986328125 191.78782653808594 251.58059692382812 C 199.49655151367188 254.06500244140625 205.13497924804688 259.4399108886719 207.23414611816406 266.9897155761719" stroke-width="0.0" fill="rgb(255, 253, 238)" opacity="0.99092627"/>
    <path d="M 245.0 416.0 C 242.99038696289062 423.5 237.5 428.9903869628906 230.0668182373047 430.85791015625 C 222.51190185546875 428.92169189453125 217.005615234375 423.50970458984375 214.99932861328125 415.99993896484375 C 217.00961303710938 408.5 222.5 403.0096130371094 230.0 401.0 C 237.5 403.0096130371094 242.99038696289062 408.5 245.0 416.0" stroke-width="0.0" fill="rgb(254, 251, 235)" opacity="0.9927697"/>
    <path d="M 393.8348388671875 315.20501708984375 C 391.9903869628906 322.5 386.5 327.9903869628906 378.8955078125 330.0692138671875 C 371.054443359375 328.3338623046875 365.4221496582031 323.0198059082031 364.8777160644531 315.72607421875 C 366.82965087890625 308.2860412597656 372.28424072265625 302.8254089355469 379.0294494628906 300.916748046875 C 385.8148193359375 302.7889709472656 391.4840393066406 308.0911865234375 393.8348388671875 315.20501708984375" stroke-width="0.0" fill="rgb(84, 84, 82)" opacity="0.99001956"/>
    <path d="M 274.2750244140625 292.1652526855469 C 272.1511535644531 299.6887512207031 266.6827087402344 305.1372985839844 259.2912902832031 307.0856018066406 C 252.62110900878906 305.69500732421875 247.01797485351562 300.4758605957031 245.0001983642578 292.9994201660156 C 247.00961303710938 285.5 252.50001525878906 280.0096740722656 260.0343933105469 277.98541259765625 C 267.8190612792969 279.82415771484375 273.68597412109375 284.9858093261719 274.2750244140625 292.1652526855469" stroke-width="0.0" fill="rgb(172, 28, 28)" opacity="0.99002886"/>
    <path d="M 238.0323944091797 322.9499206542969 C 235.99038696289062 330.5 230.5 335.9903869628906 222.9599609375 338.0350341796875 C 215.36868286132812 336.1116943359375 209.86119079589844 330.6393127441406 207.42564392089844 322.74127197265625 C 209.7611846923828 315.3637390136719 215.38214111328125 309.8131103515625 223.27281188964844 308.08441162109375 C 230.9318084716797 309.42559814453125 236.19261169433594 315.2012634277344 238.0323944091797 322.9499206542969" stroke-width="0.0" fill="rgb(251, 249, 233)" opacity="1.0"/>
    <path d="M 291.9519348144531 488.6747741699219 C 289.8857727050781 497.36163330078125 284.3266906738281 502.7657470703125 276.8319396972656 503.0532531738281 C 269.38592529296875 501.0851135253906 263.9162292480469 495.61346435546875 261.9565124511719 488.5927429199219 C 263.9106140136719 482.38092041015625 269.3832092285156 476.91607666015625 276.71734619140625 474.95965576171875 C 284.0644226074219 476.6677551269531 289.871826171875 480.699951171875 291.9519348144531 488.6747741699219" stroke-width="0.0" fill="rgb(23, 26, 31)" opacity="0.99000597"/>
    <path d="M 259.8683776855469 304.12835693359375 C 257.49176025390625 311.7966003417969 251.66339111328125 317.1496887207031 244.07337951660156 319.0996398925781 C 236.5111846923828 316.983642578125 231.03916931152344 311.4820251464844 229.0266571044922 303.98382568359375 C 231.00961303710938 296.5 236.5 291.0096130371094 243.7540740966797 289.22784423828125 C 250.989013671875 291.51708984375 256.9151306152344 296.9395446777344 259.8683776855469 304.12835693359375" stroke-width="0.0" fill="rgb(255, 250, 234)" opacity="0.99108785"/>
    <path d="M 363.16766357421875 300.6351318359375 C 360.7129821777344 308.3332214355469 355.40362548828125 313.9329833984375 347.97894287109375 315.9968566894531 C 340.3721008300781 314.05267333984375 334.5514221191406 308.7694091796875 332.26495361328125 301.3179016113281 C 334.8291320800781 293.47137451171875 340.58990478515625 288.1906433105469 348.0307312011719 286.0616760253906 C 355.3666076660156 288.27838134765625 361.18414306640625 293.47698974609375 363.16766357421875 300.6351318359375" stroke-width="0.0" fill="rgb(255, 253, 237)" opacity="0.990668"/>
    <path d="M 73.78539276123047 315.42169189453125 C 71.24591827392578 323.6103820800781 65.53067016601562 329.0018615722656 58.010135650634766 330.99609375 C 50.6255989074707 328.9293212890625 45.48209762573242 323.22503662109375 43.85838317871094 316.2450866699219 C 45.693790435791016 309.0905456542969 50.94712829589844 302.9734191894531 58.68265914916992 300.1017761230469 C 66.31805419921875 302.1646728515625 71.81575012207031 307.6885986328125 73.78539276123047 315.42169189453125" stroke-width="0.0" fill="rgb(204, 73, 27)" opacity="0.9900908"/>
    <path d="M 117.51763916015625 338.223876953125 C 115.23948669433594 345.5870666503906 109.379638671875 350.6640319824219 101.72832489013672 352.1189880371094 C 94.49541473388672 350.8643798828125 89.07747650146484 345.51885986328125 86.48745727539062 337.8276672363281 C 89.12054443359375 330.7562561035156 94.7632064819336 325.1458740234375 101.74333953857422 322.610595703125 C 109.4076919555664 325.1452941894531 115.05428314208984 330.5335388183594 117.51763916015625 338.223876953125" stroke-width="0.0" fill="rgb(252, 248, 235)" opacity="1.0"/>
    <path d="M 316.7658996582031 278.25848388671875 C 315.0653076171875 285.4195556640625 309.4604187011719 291.16473388671875 301.29156494140625 293.8599548339844 C 293.72967529296875 291.816162109375 288.316650390625 286.2249450683594 286.8134765625 278.4948425292969 C 289.39208984375 270.7582092285156 294.6673278808594 265.11419677734375 302.0228576660156 263.0138244628906 C 309.4999084472656 265.0096435546875 314.9778747558594 270.50347900390625 316.7658996582031 278.25848388671875" stroke-width="0.0" fill="rgb(250, 249, 233)" opacity="1.0"/>
    <path d="M 456.6219787597656 329.4659118652344 C 454.8878479003906 336.36322021484375 449.36749267578125 341.9054870605469 441.92645263671875 344.41595458984375 C 434.72247314453125 341.9119873046875 429.3706359863281 336.2017517089844 427.2435607910156 328.8210144042969 C 429.06549072265625 321.5211181640625 434.50555419921875 316.0115661621094 441.5686950683594 314.44696044921875 C 448.8173522949219 316.69659423828125 454.3032531738281 322.1826171875 456.6219787597656 329.4659118652344" stroke-width="0.0" fill="rgb(252, 247, 239)" opacity="0.99102813"/>
    <path d="M 134.75469970703125 355.34893798828125 C 131.99038696289062 363.5 126.5 368.9903869628906 119.0 371.0 C 111.5 368.9903869628906 106.0096206665039 363.5 103.13231658935547 355.2173156738281 C 105.1478042602539 347.7080078125 110.86770629882812 343.4996337890625 119.7658462524414 341.9012145996094 C 127.10411071777344 342.503173828125 132.77064514160156 347.8056945800781 134.75469970703125 355.34893798828125" stroke-width="0.0" fill="rgb(23, 29, 32)" opacity="0.990272"/>
    <path d="M 210.0 403.0 C 207.99038696289062 410.5 202.5 415.9903869628906 194.7864227294922 418.0581359863281 C 187.04620361328125 416.4844055175781 181.6375732421875 410.9154357910156 179.8992462158203 403.3265380859375 C 182.2535400390625 395.6410217285156 187.58363342285156 390.07244873046875 195.0192108154297 388.02008056640625 C 202.5 390.0096130371094 207.99038696289062 395.5 210.0 403.0" stroke-width="0.0" fill="rgb(252, 248, 228)" opacity="1.0"/>
    <path d="M 279.7591857910156 140.28684997558594 C 276.9903869628906 148.5 271.5 153.99038696289062 264.0229797363281 155.98934936523438 C 256.77587890625 153.84490966796875 251.7146453857422 147.99728393554688 249.95068359375 141.6846923828125 C 251.89697265625 134.36907958984375 257.3741149902344 128.90853881835938 264.88330078125 126.91690063476562 C 272.3642272949219 127.12832641601562 277.85614013671875 132.64134216308594 279.7591857910156 140.28684997558594" stroke-width="0.0" fill="rgb(23, 27, 25)" opacity="0.99003285"/>
    <path d="M 255.53817749023438 395.5634765625 C 253.4232177734375 403.060302734375 248.17596435546875 408.77191162109375 240.94705200195312 410.96795654296875 C 233.5 408.9903869628906 228.00961303710938 403.5 226.0 396.0 C 228.00961303710938 388.5 233.50006103515625 383.00982666015625 241.19956970214844 380.68963623046875 C 248.8285369873047 382.6785583496094 254.45574951171875 388.12353515625 255.53817749023438 395.5634765625" stroke-width="0.0" fill="rgb(251, 249, 235)" opacity="1.0"/>
    <path d="M 441.2377014160156 436.7117614746094 C 440.8664855957031 444.3653869628906 435.3768615722656 449.8955993652344 427.81640625 451.9424743652344 C 419.1708984375 449.5528564453125 413.9560852050781 443.6271057128906 411.9977111816406 436.00579833984375 C 414.0096130371094 428.5 419.5 423.0096130371094 427.0201721191406 420.98974609375 C 434.6897888183594 422.9016418457031 440.3526306152344 428.2291564941406 441.2377014160156 436.7117614746094" stroke-width="0.0" fill="rgb(23, 28, 30)" opacity="1.0"/>
    <path d="M 494.05084228515625 295.57989501953125 C 492.38592529296875 302.6900939941406 488.02197265625 308.58380126953125 480.3561706542969 310.3724365234375 C 472.5 307.9903564453125 467.0096130371094 302.5 465.0 295.0 C 467.0095520019531 287.4997863769531 472.4971008300781 281.9997253417969 480.3060302734375 279.4027099609375 C 487.1089172363281 281.824951171875 492.177734375 288.1622314453125 494.05084228515625 295.57989501953125" stroke-width="0.0" fill="rgb(24, 30, 31)" opacity="0.99004036"/>
    <path d="M 140.53005981445312 301.7874755859375 C 137.8435821533203 309.3080749511719 132.27334594726562 314.7232360839844 124.71253204345703 317.21954345703125 C 117.37165832519531 315.17620849609375 111.92596435546875 309.5975646972656 109.97602844238281 302.0263366699219 C 112.00959777832031 294.4999694824219 117.49998474121094 289.00958251953125 125.06168365478516 286.9438781738281 C 132.72044372558594 288.823974609375 138.3424072265625 294.2271423339844 140.53005981445312 301.7874755859375" stroke-width="0.0" fill="rgb(255, 254, 240)" opacity="0.99082696"/>
    <path d="M 485.93572998046875 290.9836120605469 C 483.983642578125 298.4974060058594 478.4991760253906 303.989990234375 470.99993896484375 305.99993896484375 C 463.5 303.9903869628906 458.0096130371094 298.5 455.1865539550781 290.3080139160156 C 457.2451477050781 282.9775390625 463.78839111328125 278.6558532714844 471.6002197265625 276.0357360839844 C 478.78070068359375 277.59588623046875 484.093994140625 283.3204650878906 485.93572998046875 290.9836120605469" stroke-width="0.0" fill="rgb(25, 28, 30)" opacity="1.0"/>
    <path d="M 203.40859985351562 291.88909912109375 C 201.01202392578125 299.5083923339844 195.50250244140625 304.9913024902344 187.98275756835938 307.01190185546875 C 180.40103149414062 305.06005859375 174.82290649414062 299.6348876953125 173.29417419433594 292.32965087890625 C 175.45196533203125 284.8624267578125 180.81723022460938 279.3172302246094 188.13998413085938 277.1959228515625 C 195.43299865722656 279.0533752441406 200.91224670410156 284.5788879394531 203.40859985351562 291.88909912109375" stroke-width="0.0" fill="rgb(252, 248, 234)" opacity="1.0"/>
    <path d="M 245.9769287109375 391.0125732421875 C 243.99026489257812 398.49993896484375 238.49996948242188 403.9903869628906 231.02725219726562 405.98309326171875 C 223.6922607421875 403.86859130859375 218.42945861816406 398.2094421386719 216.68304443359375 391.1466064453125 C 218.26242065429688 383.6656188964844 223.77029418945312 378.50225830078125 231.73741149902344 376.5570373535156 C 238.93031311035156 377.3612976074219 244.03884887695312 383.3045349121094 245.9769287109375 391.0125732421875" stroke-width="0.0" fill="rgb(252, 247, 236)" opacity="1.0"/>
    <path d="M 310.277099609375 228.32228088378906 C 308.1135559082031 235.55682373046875 302.5050354003906 240.9385528564453 295.0596008300781 243.11781311035156 C 287.6798400878906 240.89590454101562 282.4880676269531 235.1879119873047 280.7835693359375 227.5167999267578 C 281.3843078613281 219.89617919921875 286.8592224121094 214.2897491455078 294.62005615234375 212.6077423095703 C 302.3943176269531 214.84898376464844 307.6479797363281 220.7437744140625 310.277099609375 228.32228088378906" stroke-width="0.0" fill="rgb(248, 247, 225)" opacity="1.0"/>
    <path d="M 397.9989013671875 323.002685546875 C 395.9903869628906 330.5 390.5 335.9903869628906 383.0 338.0 C 375.5 335.9903869628906 370.0096130371094 330.5 368.485107421875 323.4486999511719 C 370.7059020996094 316.2001037597656 376.23046875 310.7922058105469 383.5707702636719 308.87286376953125 C 390.3273010253906 310.36517333984375 395.96661376953125 315.55755615234375 397.9989013671875 323.002685546875" stroke-width="0.0" fill="rgb(23, 29, 31)" opacity="0.9901993"/>
    <path d="M 253.8003692626953 322.8244934082031 C 251.7381591796875 330.068359375 245.85263061523438 335.1955261230469 238.0425567626953 337.0171813964844 C 230.5962371826172 334.9488525390625 225.4799041748047 329.2442321777344 223.89566040039062 322.3207092285156 C 225.46658325195312 314.29583740234375 230.0557098388672 308.496337890625 237.51258850097656 307.03436279296875 C 244.81265258789062 309.65631103515625 250.1953582763672 315.23687744140625 253.8003692626953 322.8244934082031" stroke-width="0.0" fill="rgb(86, 85, 82)" opacity="0.9900228"/>
    <path d="M 366.054443359375 236.1321563720703 C 364.0807800292969 243.61160278320312 358.61260986328125 249.0832061767578 351.0864562988281 251.17715454101562 C 343.6245422363281 250.88429260253906 338.1158447265625 245.37539672851562 336.1060791015625 237.8303680419922 C 339.78765869140625 230.27188110351562 345.25115966796875 224.7010498046875 352.8221435546875 221.07363891601562 C 360.36724853515625 223.1113739013672 365.8081359863281 228.65892028808594 366.054443359375 236.1321563720703" stroke-width="0.0" fill="rgb(24, 29, 32)" opacity="0.9900437"/>
    <path d="M 43.91497802734375 299.49493408203125 C 42.41191864013672 306.8472595214844 36.81929016113281 312.32696533203125 28.376028060913086 314.76861572265625 C 20.73016929626465 312.789306640625 15.207886695861816 307.27117919921875 13.56960391998291 299.70361328125 C 16.5132999420166 291.9344177246094 21.935211181640625 286.5140380859375 28.800132751464844 284.7130432128906 C 35.95401382446289 286.6164245605469 41.4821891784668 292.0131530761719 43.91497802734375 299.49493408203125" stroke-width="0.0" fill="rgb(203, 225, 142)" opacity="0.99019516"/>
    <path d="M 273.81671142578125 175.86473083496094 C 271.7270812988281 183.2715301513672 266.2816162109375 188.75991821289062 258.89642333984375 190.87303161621094 C 251.5 188.99038696289062 246.00961303710938 183.5 244.0 176.0 C 246.00961303710938 168.5 251.5 163.00961303710938 259.0 161.0 C 266.5 163.00961303710938 271.9903869628906 168.5 273.81671142578125 175.86473083496094" stroke-width="0.0" fill="rgb(255, 251, 236)" opacity="0.993172"/>
    <path d="M 398.0655517578125 183.6734619140625 C 396.45928955078125 190.16549682617188 391.3385314941406 195.9195556640625 383.80419921875 198.4129180908203 C 376.3447265625 196.21739196777344 370.9669189453125 190.60020446777344 368.5290832519531 182.79444885253906 C 370.9164733886719 175.46771240234375 376.494384765625 170.00775146484375 383.8285217285156 168.1257781982422 C 390.9222412109375 170.48248291015625 396.190185546875 176.19400024414062 398.0655517578125 183.6734619140625" stroke-width="0.0" fill="rgb(252, 248, 232)" opacity="1.0"/>
    <path d="M 269.8123779296875 241.20318603515625 C 267.99542236328125 248.5081329345703 262.5091247558594 253.998779296875 255.1971435546875 255.71478271484375 C 247.69993591308594 253.6807098388672 241.99081420898438 248.3997802734375 239.90431213378906 241.0465545654297 C 242.00961303710938 233.5 247.5 228.00961303710938 255.0816192626953 225.9052734375 C 262.65765380859375 227.82347106933594 267.99212646484375 233.3911895751953 269.8123779296875 241.20318603515625" stroke-width="0.0" fill="rgb(255, 254, 241)" opacity="0.99089974"/>
    <path d="M 253.99388122558594 179.98751831054688 C 251.9129180908203 187.3483428955078 246.1934356689453 192.4881591796875 238.48043823242188 194.26083374023438 C 231.59686279296875 192.94631958007812 226.45089721679688 187.25936889648438 224.833984375 179.43399047851562 C 225.26683044433594 171.74684143066406 230.725830078125 166.201904296875 238.34661865234375 164.2635040283203 C 246.5 167.00961303710938 251.99038696289062 172.5 253.99388122558594 179.98751831054688" stroke-width="0.0" fill="rgb(183, 85, 53)" opacity="0.9900616"/>
    <path d="M 185.64305114746094 252.83775329589844 C 183.11492919921875 260.5714111328125 177.56932067871094 266.1048278808594 169.6248779296875 268.56097412109375 C 161.9976806640625 266.60595703125 156.56741333007812 260.93817138671875 154.67294311523438 253.35052490234375 C 157.2885284423828 245.67572021484375 162.48379516601562 239.71405029296875 169.87225341796875 238.31947326660156 C 177.79624938964844 239.5917510986328 183.2697296142578 245.25686645507812 185.64305114746094 252.83775329589844" stroke-width="0.0" fill="rgb(252, 248, 233)" opacity="1.0"/>
    <path d="M 415.936767578125 311.04144287109375 C 413.9903869628906 318.5 408.5 323.9903869628906 400.9699401855469 326.01513671875 C 393.1966552734375 324.16033935546875 387.2950744628906 319.0213317871094 385.0790710449219 311.434326171875 C 387.3804016113281 303.0808410644531 393.3154296875 298.04803466796875 401.1506042480469 295.9460144042969 C 408.4552001953125 298.076416015625 413.9129638671875 303.548828125 415.936767578125 311.04144287109375" stroke-width="0.0" fill="rgb(255, 254, 241)" opacity="0.99272835"/>
    <path d="M 370.21942138671875 207.5783233642578 C 369.68621826171875 215.12876892089844 364.1661376953125 220.7604522705078 356.7399597167969 222.813720703125 C 348.620361328125 219.78346252441406 343.4364929199219 214.28880310058594 341.8442687988281 206.47470092773438 C 343.2545471191406 199.7078094482422 348.6502685546875 194.03125 355.8211669921875 191.46827697753906 C 363.1889343261719 194.32986450195312 368.6033630371094 199.8299560546875 370.21942138671875 207.5783233642578" stroke-width="0.0" fill="rgb(248, 249, 231)" opacity="1.0"/>
    <path d="M 340.1717834472656 371.0843811035156 C 338.0771484375 378.6051940917969 332.6062927246094 384.07965087890625 326.2702941894531 386.03778076171875 C 319.3908996582031 384.0787048339844 313.913818359375 378.6121520996094 311.83209228515625 371.1208190917969 C 312.1418762207031 363.63671875 317.6227111816406 358.1050720214844 325.67254638671875 356.05010986328125 C 334.3784484863281 358.1130676269531 339.8916015625 363.6195373535156 340.1717834472656 371.0843811035156" stroke-width="0.0" fill="rgb(23, 29, 35)" opacity="0.9900094"/>
    <path d="M 269.6544494628906 357.654541015625 C 267.3669738769531 364.85302734375 261.8100891113281 370.2397766113281 254.4545135498047 372.1214294433594 C 246.7735595703125 371.5286560058594 241.15225219726562 366.3031311035156 239.1778564453125 358.74761962890625 C 242.00961303710938 350.5 247.5 345.0096130371094 255.0 343.0 C 262.5 345.0096130371094 267.9903869628906 350.5 269.6544494628906 357.654541015625" stroke-width="0.0" fill="rgb(97, 97, 89)" opacity="0.9900566"/>
    <path d="M 395.0636291503906 326.9541320800781 C 393.01116943359375 334.5182189941406 387.5162658691406 340.004638671875 379.15362548828125 342.9078674316406 C 371.6046142578125 340.90362548828125 366.09716796875 335.39508056640625 364.05767822265625 327.72418212890625 C 366.2515563964844 318.9102783203125 372.110107421875 313.75506591796875 379.9738464355469 311.8385925292969 C 387.621826171875 313.89312744140625 393.127685546875 319.37158203125 395.0636291503906 326.9541320800781" stroke-width="0.0" fill="rgb(24, 29, 33)" opacity="1.0"/>
    <path d="M 153.22177124023438 232.46678161621094 C 152.1840362548828 239.58836364746094 146.53671264648438 245.01882934570312 139.0091552734375 247.01100158691406 C 131.49380493164062 244.99281311035156 125.94895935058594 239.52301025390625 123.5137710571289 231.95030212402344 C 125.81820678710938 224.3849334716797 131.45703125 219.0546112060547 139.09461975097656 216.8233184814453 C 146.36151123046875 219.06727600097656 151.56248474121094 224.76438903808594 153.22177124023438 232.46678161621094" stroke-width="0.0" fill="rgb(252, 249, 238)" opacity="0.9905145"/>
    <path d="M 251.06809997558594 211.9295654296875 C 248.99038696289062 219.5 243.5 224.99038696289062 236.00962829589844 226.9877471923828 C 228.5144805908203 224.96868896484375 223.0157470703125 219.49020385742188 221.00079345703125 211.99868774414062 C 223.00961303710938 204.5 228.5 199.00961303710938 236.14227294921875 196.8076629638672 C 243.7335662841797 198.73574829101562 249.18434143066406 204.29074096679688 251.06809997558594 211.9295654296875" stroke-width="0.0" fill="rgb(255, 251, 236)" opacity="0.9961195"/>
    <path d="M 190.95399475097656 196.4326934814453 C 188.85260009765625 205.2321014404297 182.42416381835938 209.2162322998047 175.5819091796875 211.04420471191406 C 168.36636352539062 209.09725952148438 162.89865112304688 203.63552856445312 160.72354125976562 196.0891876220703 C 161.10287475585938 188.61273193359375 166.6122589111328 183.10150146484375 174.41258239746094 181.0519256591797 C 183.3714599609375 183.12188720703125 188.89878845214844 188.61961364746094 190.95399475097656 196.4326934814453" stroke-width="0.0" fill="rgb(23, 28, 33)" opacity="0.9900216"/>
    <path d="M 140.95350646972656 281.37567138671875 C 138.8297882080078 290.1258544921875 131.98834228515625 294.18548583984375 125.66020202636719 296.0392761230469 C 118.36172485351562 294.0917663574219 112.83352661132812 288.6658935546875 110.62836456298828 281.3759765625 C 111.71009063720703 274.0583190917969 116.88054656982422 268.24005126953125 125.73214721679688 266.0552978515625 C 133.38243103027344 268.10418701171875 138.8967742919922 273.6172180175781 140.95350646972656 281.37567138671875" stroke-width="0.0" fill="rgb(20, 22, 15)" opacity="0.9900115"/>
    <path d="M 478.0022277832031 301.00439453125 C 476.0328369140625 308.6029968261719 470.7829895019531 314.50079345703125 462.2108459472656 316.9268493652344 C 454.6142272949219 314.8939514160156 449.0961608886719 309.39007568359375 447.0457763671875 301.6063537597656 C 449.1169738769531 292.6362609863281 454.6541748046875 287.167236328125 462.3501281738281 285.32562255859375 C 470.5001220703125 288.0094909667969 475.9906005859375 293.4998474121094 478.0022277832031 301.00439453125" stroke-width="0.0" fill="rgb(19, 24, 27)" opacity="1.0"/>
    <path d="M 301.9195251464844 444.92913818359375 C 299.821533203125 452.3492126464844 294.3634948730469 457.8686828613281 286.96038818359375 459.96502685546875 C 279.5 457.9903869628906 274.0096130371094 452.5 272.0 445.0 C 274.0096130371094 437.5 279.5 432.0096130371094 287.0 430.0 C 294.5 432.0096130371094 299.9903869628906 437.5 301.9195251464844 444.92913818359375" stroke-width="0.0" fill="rgb(255, 250, 235)" opacity="0.998576"/>
    <path d="M 258.998779296875 231.99986267089844 C 256.9896240234375 239.4993438720703 251.4993438720703 244.98963928222656 244.3837432861328 246.5335235595703 C 237.03244018554688 244.40164184570312 231.47702026367188 239.00701904296875 229.7697296142578 231.6107177734375 C 231.13577270507812 224.59271240234375 236.56845092773438 219.0563507080078 244.01100158691406 217.00704956054688 C 251.49986267089844 219.00967407226562 256.98980712890625 224.5002899169922 258.998779296875 231.99986267089844" stroke-width="0.0" fill="rgb(251, 249, 232)" opacity="1.0"/>
    <path d="M 391.3480529785156 149.5513916015625 C 389.40118408203125 157.09097290039062 384.256591796875 162.85757446289062 376.9928283691406 164.9784698486328 C 369.58001708984375 162.92965698242188 364.0750732421875 157.4167022705078 361.516845703125 149.94586181640625 C 363.7306213378906 142.1973419189453 369.1815185546875 136.6776123046875 376.718017578125 134.8508758544922 C 384.1977233886719 137.30419921875 389.6246032714844 142.8257598876953 391.3480529785156 149.5513916015625" stroke-width="0.0" fill="rgb(252, 248, 237)" opacity="0.990704"/>
    <path d="M 148.05203247070312 245.73263549804688 C 147.573974609375 253.2914581298828 142.35523986816406 258.8877868652344 134.50160217285156 260.94866943359375 C 125.72367858886719 258.84661865234375 120.42742156982422 253.1816864013672 118.19509887695312 244.37063598632812 C 120.28590393066406 237.43701171875 127.18601989746094 232.8449249267578 133.5652313232422 230.95484924316406 C 140.6305694580078 232.90093994140625 146.09970092773438 238.36924743652344 148.05203247070312 245.73263549804688" stroke-width="0.0" fill="rgb(23, 23, 20)" opacity="0.9900083"/>
    <path d="M 253.4111328125 409.9234313964844 C 251.78919982910156 417.42822265625 246.52505493164062 423.0831298828125 239.018798828125 425.13739013671875 C 231.44815063476562 423.06732177734375 225.98580932617188 417.53582763671875 223.9963836669922 410.0054931640625 C 226.0095977783203 402.4999694824219 231.4999542236328 397.0095520019531 239.0096893310547 394.9947814941406 C 246.57806396484375 396.9624328613281 252.13534545898438 402.391357421875 253.4111328125 409.9234313964844" stroke-width="0.0" fill="rgb(255, 250, 233)" opacity="0.99563086"/>
    <path d="M 255.83099365234375 345.2857360839844 C 253.2835693359375 353.8123779296875 247.85055541992188 359.4053649902344 239.16200256347656 361.92559814453125 C 231.6509552001953 359.883056640625 226.2169647216797 354.3122863769531 224.43853759765625 346.5513000488281 C 227.00961303710938 338.5 232.5 333.0096130371094 240.18943786621094 330.8639221191406 C 248.1226043701172 332.4978332519531 253.80833435058594 337.7732849121094 255.83099365234375 345.2857360839844" stroke-width="0.0" fill="rgb(18, 23, 25)" opacity="1.0"/>
    <path d="M 357.95404052734375 333.5326843261719 C 355.907470703125 341.401123046875 350.4013671875 346.9083251953125 342.47491455078125 348.95703125 C 333.6285705566406 346.892333984375 328.1490173339844 341.3552551269531 327.90740966796875 333.8675537109375 C 329.8894348144531 326.3421630859375 335.3132629394531 320.8066711425781 342.606201171875 318.5130615234375 C 350.16839599609375 319.44744873046875 355.84991455078125 324.7264099121094 357.95404052734375 333.5326843261719" stroke-width="0.0" fill="rgb(23, 29, 31)" opacity="0.9900262"/>
    <path d="M 300.404052734375 462.4160461425781 C 299.7153625488281 470.1684875488281 294.1147155761719 475.5296325683594 286.4429016113281 476.1523742675781 C 278.5177307128906 474.9308776855469 272.9747619628906 469.50927734375 270.9582214355469 462.0237731933594 C 273.0096130371094 454.5 278.5 449.0096130371094 285.9911804199219 447.0088195800781 C 293.545166015625 449.0159912109375 299.38433837890625 454.31085205078125 300.404052734375 462.4160461425781" stroke-width="0.0" fill="rgb(252, 248, 231)" opacity="1.0"/>
    <path d="M 254.41529846191406 299.49993896484375 C 253.17141723632812 306.79730224609375 247.96929931640625 312.6363220214844 239.58612060546875 314.8844909667969 C 231.79351806640625 312.76727294921875 226.37655639648438 307.1556701660156 225.7203369140625 298.6770324707031 C 226.33282470703125 290.8538513183594 231.8487091064453 285.3211669921875 239.47702026367188 283.48876953125 C 246.99049377441406 286.4387512207031 252.3201904296875 292.08673095703125 254.41529846191406 299.49993896484375" stroke-width="0.0" fill="rgb(250, 249, 233)" opacity="0.99034566"/>
    <path d="M 168.90834045410156 357.8367614746094 C 166.9019775390625 365.39208984375 161.39077758789062 370.8992004394531 153.80270385742188 372.93548583984375 C 145.2462615966797 370.47259521484375 139.9771728515625 364.5821533203125 137.35324096679688 356.40472412109375 C 139.2214813232422 348.74139404296875 144.76547241210938 343.29827880859375 152.568603515625 341.5838317871094 C 160.50106811523438 344.0093078613281 166.02842712402344 349.4884033203125 168.90834045410156 357.8367614746094" stroke-width="0.0" fill="rgb(19, 24, 27)" opacity="1.0"/>
    <path d="M 296.1825256347656 358.879150390625 C 293.9903869628906 366.4999694824219 288.4998779296875 371.9900207519531 281.1256408691406 373.82940673828125 C 273.70947265625 371.7413635253906 268.1891784667969 366.3122253417969 266.0858154296875 358.9284973144531 C 268.0171813964844 351.51959228515625 273.5667724609375 346.1706237792969 281.1950988769531 344.4298095703125 C 288.6021423339844 345.9432373046875 294.2001037597656 351.3539733886719 296.1825256347656 358.879150390625" stroke-width="0.0" fill="rgb(255, 253, 238)" opacity="0.9914854"/>
    <path d="M 74.90972137451172 323.6599426269531 C 72.84220123291016 331.32489013671875 67.32972717285156 336.85333251953125 59.60875701904297 338.9243469238281 C 51.140419006347656 336.6741943359375 46.62771987915039 330.152587890625 44.83485794067383 322.56085205078125 C 46.24253845214844 315.6010437011719 51.53209686279297 310.02728271484375 59.020206451416016 307.995361328125 C 66.69546508789062 309.908203125 72.56976318359375 315.123779296875 74.90972137451172 323.6599426269531" stroke-width="0.0" fill="rgb(203, 73, 26)" opacity="0.9901647"/>
    <path d="M 129.62193298339844 364.61737060546875 C 127.82415008544922 372.34722900390625 122.37113189697266 377.8923645019531 114.41901397705078 379.9499816894531 C 105.63371276855469 377.8810119628906 100.11211395263672 372.3694152832031 98.04952239990234 364.2241516113281 C 100.12924194335938 355.67431640625 105.73273468017578 350.301025390625 113.6118392944336 348.6647644042969 C 121.5 351.0096130371094 126.99036407470703 356.5 129.62193298339844 364.61737060546875" stroke-width="0.0" fill="rgb(19, 24, 28)" opacity="1.0"/>
    <path d="M 430.0741271972656 464.1269226074219 C 428.1051025390625 471.6407470703125 422.6394958496094 477.1025085449219 415.17230224609375 479.06500244140625 C 408.28271484375 478.3504333496094 402.9581604003906 472.61407470703125 400.7456359863281 464.6864013671875 C 402.3473205566406 456.7529602050781 407.67413330078125 451.1194152832031 415.5227355957031 449.0490417480469 C 424.3782958984375 451.11077880859375 429.8691101074219 456.6288146972656 430.0741271972656 464.1269226074219" stroke-width="0.0" fill="rgb(23, 28, 31)" opacity="0.990025"/>
    <path d="M 175.76173400878906 345.68499755859375 C 173.81741333007812 353.2860107421875 168.251953125 358.7135009765625 160.44244384765625 360.4287414550781 C 152.5000457763672 357.9903259277344 147.0096435546875 352.4999694824219 144.1026153564453 344.19439697265625 C 146.16261291503906 336.8099060058594 152.4915313720703 332.681884765625 160.60205078125 330.7381896972656 C 167.5 332.0096130371094 172.99038696289062 337.5 175.76173400878906 345.68499755859375" stroke-width="0.0" fill="rgb(23, 29, 31)" opacity="0.9905976"/>
    <path d="M 252.04737854003906 435.7629699707031 C 250.6605224609375 443.1232604980469 246.28384399414062 448.8537902832031 237.52195739746094 450.94921875 C 229.62548828125 448.88946533203125 224.120361328125 443.3703918457031 222.07546997070312 435.7769470214844 C 225.68882751464844 428.29833984375 231.35159301757812 422.9023132324219 238.21954345703125 420.958251953125 C 244.6151580810547 422.9130554199219 250.0863800048828 428.3851013183594 252.04737854003906 435.7629699707031" stroke-width="0.0" fill="rgb(11, 16, 11)" opacity="0.9900069"/>
    <path d="M 286.9319763183594 402.34368896484375 C 284.8341064453125 411.32159423828125 279.33251953125 416.85986328125 270.81085205078125 418.9410095214844 C 262.64703369140625 416.8714294433594 257.1397399902344 411.34844970703125 255.07501220703125 403.046630859375 C 257.14837646484375 394.6690979003906 262.6714172363281 389.15386962890625 271.4787902832031 387.071044921875 C 279.3650817871094 389.1241760253906 284.8824157714844 394.6322021484375 286.9319763183594 402.34368896484375" stroke-width="0.0" fill="rgb(170, 29, 23)" opacity="1.0"/>
    <path d="M 268.0116271972656 182.02919006347656 C 266.1025695800781 189.63673400878906 260.672607421875 195.22238159179688 252.82569885253906 197.36529541015625 C 244.84695434570312 195.5969696044922 239.2286376953125 190.21192932128906 238.69564819335938 182.82321166992188 C 240.8019561767578 175.202880859375 246.11508178710938 169.5494842529297 253.2345428466797 167.19740295410156 C 260.5 169.00961303710938 265.9903869628906 174.5 268.0116271972656 182.02919006347656" stroke-width="0.0" fill="rgb(252, 249, 233)" opacity="0.9901037"/>
    <path d="M 277.8702392578125 260.85400390625 C 276.8111877441406 268.24798583984375 271.1819763183594 273.6252746582031 263.32989501953125 275.3258361816406 C 255.31153869628906 273.08941650390625 249.43643188476562 267.8681945800781 247.1251220703125 260.12158203125 C 250.05096435546875 253.11451721191406 256.24749755859375 247.83656311035156 262.9233703613281 245.93348693847656 C 269.67254638671875 247.8629608154297 275.14068603515625 253.3261260986328 277.8702392578125 260.85400390625" stroke-width="0.0" fill="rgb(178, 32, 26)" opacity="0.9900311"/>
    <path d="M 304.0 437.0 C 301.9903869628906 444.5 296.5 449.9903869628906 289.0 452.0 C 281.5000305175781 449.9903869628906 276.0110168457031 444.4996032714844 273.83837890625 436.9378967285156 C 276.0087890625 429.4936218261719 281.492431640625 424.0038146972656 288.9985656738281 421.9991149902344 C 296.5 424.0096130371094 301.9903869628906 429.5 304.0 437.0" stroke-width="0.0" fill="rgb(255, 251, 234)" opacity="0.99416107"/>
    <path d="M 101.33865356445312 311.3980407714844 C 99.67328643798828 319.2298583984375 94.28556823730469 324.83538818359375 86.2492904663086 326.9248046875 C 77.77725219726562 324.7914733886719 72.33671569824219 319.17169189453125 70.16644287109375 310.5299072265625 C 72.3817138671875 303.3655090332031 79.05860137939453 298.7716369628906 86.44100952148438 296.9217834472656 C 92.9862289428711 298.6933898925781 98.77494812011719 303.83941650390625 101.33865356445312 311.3980407714844" stroke-width="0.0" fill="rgb(193, 59, 24)" opacity="0.99002016"/>
    <path d="M 391.0152893066406 167.99803161621094 C 388.9912414550781 175.50027465820312 383.5000305175781 180.9903564453125 376.050537109375 182.93051147460938 C 368.5649719238281 180.88796997070312 362.90924072265625 175.4954071044922 360.573486328125 168.0132598876953 C 362.8180847167969 160.32275390625 368.33685302734375 154.86343383789062 375.9510192871094 152.9557342529297 C 383.5003967285156 155.0094757080078 388.99322509765625 160.49884033203125 391.0152893066406 167.99803161621094" stroke-width="0.0" fill="rgb(253, 252, 237)" opacity="0.9913114"/>
    <path d="M 184.11402893066406 335.89373779296875 C 183.88259887695312 343.3746032714844 178.37278747558594 348.87799072265625 170.77587890625 350.8364562988281 C 162.5001220703125 347.9901428222656 157.00950622558594 342.4999694824219 155.8074493408203 335.74822998046875 C 157.88648986816406 328.3660888671875 163.37452697753906 322.9085388183594 169.9827117919922 320.9578552246094 C 176.61856079101562 322.9107360839844 182.089599609375 328.38134765625 184.11402893066406 335.89373779296875" stroke-width="0.0" fill="rgb(24, 30, 33)" opacity="0.99001163"/>
    <path d="M 238.01806640625 340.039306640625 C 236.1838836669922 347.82904052734375 231.02828979492188 353.69964599609375 223.68995666503906 355.8585510253906 C 215.49620056152344 353.0035095214844 210.00955200195312 347.5002136230469 208.48529052734375 340.4974365234375 C 210.77366638183594 333.28924560546875 216.32611083984375 327.8799133300781 223.74533081054688 325.9376220703125 C 230.28131103515625 327.4508056640625 235.9652557373047 332.5635070800781 238.01806640625 340.039306640625" stroke-width="0.0" fill="rgb(25, 27, 30)" opacity="0.9900207"/>
    <path d="M 277.9395751953125 215.57504272460938 C 275.8781433105469 223.35134887695312 270.3294677734375 228.8206024169922 262.8072204589844 229.11944580078125 C 255.20974731445312 227.18231201171875 249.50881958007812 221.8982696533203 247.3388671875 215.10818481445312 C 249.51866149902344 207.9879913330078 254.88497924804688 201.90184020996094 262.6700134277344 199.10458374023438 C 270.3088684082031 201.17112731933594 275.83978271484375 206.6866455078125 277.9395751953125 215.57504272460938" stroke-width="0.0" fill="rgb(175, 35, 28)" opacity="0.99009824"/>
    <path d="M 120.06218719482422 276.8268127441406 C 119.82965850830078 284.33636474609375 114.3327865600586 289.819580078125 106.62432861328125 291.6498718261719 C 98.71804809570312 288.8031921386719 93.32376098632812 283.24383544921875 90.7953872680664 275.9599609375 C 93.26406860351562 268.7384948730469 98.70269012451172 263.12701416015625 105.85260009765625 260.82275390625 C 112.95665740966797 263.40069580078125 118.16926574707031 269.1996765136719 120.06218719482422 276.8268127441406" stroke-width="0.0" fill="rgb(250, 247, 236)" opacity="0.9900545"/>
    <path d="M 241.0000762939453 410.000244140625 C 238.99191284179688 417.5025939941406 233.5041961669922 422.9973449707031 226.0203857421875 424.9967956542969 C 218.60140991210938 422.9201354980469 213.20062255859375 417.36163330078125 211.1989288330078 409.8987731933594 C 213.07373046875 402.58245849609375 218.60272216796875 397.1404724121094 226.0604705810547 395.07745361328125 C 233.50021362304688 397.00921630859375 238.990478515625 402.4998779296875 241.0000762939453 410.000244140625" stroke-width="0.0" fill="rgb(254, 251, 236)" opacity="0.9933164"/>
    <path d="M 300.9981994628906 122.98572540283203 C 298.9205322265625 130.347412109375 293.1441345214844 135.4074249267578 285.11669921875 138.8282928466797 C 277.611083984375 136.90025329589844 272.1016540527344 131.38815307617188 270.07769775390625 123.74764251708984 C 272.1291809082031 114.62293243408203 277.6141052246094 109.10393524169922 285.2198486328125 107.06413269042969 C 293.82171630859375 109.45217895507812 299.04034423828125 115.38013458251953 300.9981994628906 122.98572540283203" stroke-width="0.0" fill="rgb(21, 26, 28)" opacity="1.0"/>
    <path d="M 118.07966613769531 307.0291442871094 C 115.98590087890625 314.4395751953125 110.37996673583984 319.7850341796875 103.55413818359375 321.2503967285156 C 96.28182983398438 319.2091064453125 90.85343170166016 313.6955871582031 88.77601623535156 306.1662902832031 C 89.25785827636719 298.87506103515625 95.01776885986328 293.6703186035156 102.95637512207031 291.5709533691406 C 110.50498962402344 293.990478515625 115.9902114868164 299.500244140625 118.07966613769531 307.0291442871094" stroke-width="0.0" fill="rgb(252, 249, 236)" opacity="0.99003637"/>
    <path d="M 257.1186218261719 217.6813201904297 C 256.6709289550781 225.11590576171875 251.04945373535156 230.45535278320312 243.1928253173828 232.10958862304688 C 235.54725646972656 229.9381561279297 230.0634307861328 224.45217895507812 227.96240234375 216.95179748535156 C 229.98101806640625 209.48805236816406 235.4957733154297 204.0078582763672 243.31015014648438 201.61849975585938 C 250.84739685058594 203.51870727539062 255.3999786376953 209.64154052734375 257.1186218261719 217.6813201904297" stroke-width="0.0" fill="rgb(252, 249, 234)" opacity="0.9901827"/>
    <path d="M 153.63681030273438 365.5442810058594 C 151.68710327148438 372.9764709472656 145.05352783203125 377.2088928222656 137.18991088867188 379.06805419921875 C 129.6654052734375 378.8230895996094 124.17669677734375 373.3340148925781 122.34494018554688 365.6271667480469 C 124.80430603027344 357.1484680175781 129.935791015625 351.266357421875 137.3648681640625 349.0936279296875 C 145.7237548828125 351.5707702636719 151.018798828125 357.4277038574219 153.63681030273438 365.5442810058594" stroke-width="0.0" fill="rgb(23, 28, 31)" opacity="0.9901273"/>
    <path d="M 223.64817810058594 353.7735290527344 C 221.84774780273438 361.3446044921875 216.35989379882812 366.8844299316406 208.6310272216797 368.9413757324219 C 199.85964965820312 366.7940368652344 195.42701721191406 360.7761535644531 193.57989501953125 352.5958251953125 C 195.0095977783203 345.5 200.5 340.0096130371094 207.97183227539062 338.0171813964844 C 215.2982940673828 340.1366882324219 220.5178985595703 345.819580078125 223.64817810058594 353.7735290527344" stroke-width="0.0" fill="rgb(126, 129, 121)" opacity="1.0"/>
    <path d="M 415.07415771484375 326.0614318847656 C 413.12384033203125 333.59130859375 407.60040283203125 339.1683044433594 400.5463562011719 341.8118591308594 C 393.3568115234375 338.15423583984375 387.912841796875 332.6222229003906 385.95733642578125 325.3211364746094 C 387.8243713378906 319.2208251953125 393.11871337890625 313.5323791503906 400.2068786621094 311.158447265625 C 407.5 313.0096130371094 412.9903869628906 318.5 415.07415771484375 326.0614318847656" stroke-width="0.0" fill="rgb(250, 249, 237)" opacity="0.99001294"/>
    <path d="M 340.59716796875 225.8058624267578 C 338.25048828125 233.73013305664062 332.7120666503906 239.18812561035156 324.97491455078125 241.097412109375 C 317.44879150390625 239.08712768554688 312.02081298828125 233.51849365234375 309.697509765625 226.06930541992188 C 312.0693054199219 218.5642852783203 317.6326599121094 213.2698211669922 325.4535827636719 210.91427612304688 C 333.0464782714844 212.42263793945312 338.49530029296875 217.98004150390625 340.59716796875 225.8058624267578" stroke-width="0.0" fill="rgb(251, 248, 235)" opacity="1.0"/>
    <path d="M 359.74591064453125 313.98211669921875 C 357.5876770019531 320.9895324707031 351.8363342285156 326.1941833496094 344.11297607421875 328.399169921875 C 336.66143798828125 327.8744812011719 331.2469787597656 322.2961730957031 329.505859375 314.4920959472656 C 331.9997253417969 306.49114990234375 337.491943359375 301.0022888183594 344.9973449707031 298.9960021972656 C 352.4856872558594 301.01507568359375 357.8883972167969 306.5430908203125 359.74591064453125 313.98211669921875" stroke-width="0.0" fill="rgb(252, 250, 234)" opacity="0.9904678"/>
    <path d="M 215.93997192382812 388.1717834472656 C 213.52505493164062 396.802978515625 207.61209106445312 402.03680419921875 200.1995086669922 403.8583984375 C 193.12831115722656 401.4703674316406 187.8448028564453 395.76007080078125 185.95321655273438 388.8277893066406 C 187.81336975097656 382.0223083496094 191.8970489501953 375.17974853515625 200.5885467529297 373.0498352050781 C 208.3856658935547 375.1074523925781 213.90621948242188 380.6082763671875 215.93997192382812 388.1717834472656" stroke-width="0.0" fill="rgb(23, 27, 31)" opacity="0.9900306"/>
    <path d="M 262.0029602050781 158.99400329589844 C 259.9906311035156 166.50079345703125 254.50636291503906 172.01077270507812 246.73712158203125 174.658447265625 C 239.38784790039062 171.93728637695312 233.29713439941406 166.963623046875 231.21084594726562 159.73370361328125 C 234.6166229248047 152.06155395507812 240.05801391601562 146.60716247558594 247.493408203125 144.39273071289062 C 254.63302612304688 145.77566528320312 260.0264892578125 151.4296875 262.0029602050781 158.99400329589844" stroke-width="0.0" fill="rgb(223, 164, 131)" opacity="0.99040127"/>
    <path d="M 127.83509826660156 252.76255798339844 C 125.88587188720703 260.3887023925781 120.39615631103516 265.905517578125 112.74809265136719 267.9465026855469 C 105.19390106201172 265.4501647949219 99.89551544189453 258.6734924316406 97.95970153808594 252.26341247558594 C 99.90373229980469 245.32650756835938 105.1402587890625 238.36505126953125 112.47477722167969 236.05429077148438 C 120.25682830810547 238.16397094726562 125.54317474365234 243.84690856933594 127.83509826660156 252.76255798339844" stroke-width="0.0" fill="rgb(23, 28, 31)" opacity="0.9900255"/>
    <path d="M 335.08807373046875 308.8424987792969 C 333.18145751953125 315.73529052734375 327.764892578125 321.2731628417969 320.2034912109375 324.89093017578125 C 312.6622619628906 322.85528564453125 307.14056396484375 317.339599609375 305.0649719238281 309.21856689453125 C 307.1867370605469 300.8155822753906 313.2183532714844 296.6036682128906 320.6275939941406 294.9093933105469 C 327.73565673828125 296.8137512207031 333.1948547363281 302.26068115234375 335.08807373046875 308.8424987792969" stroke-width="0.0" fill="rgb(166, 73, 55)" opacity="0.990017"/>
    <path d="M 158.9536590576172 170.62161254882812 C 156.8370361328125 179.18092346191406 150.12730407714844 183.1959991455078 143.398681640625 185.04652404785156 C 136.37892150878906 183.09429931640625 130.91409301757812 177.61764526367188 128.96023559570312 170.86549377441406 C 130.91212463378906 164.38360595703125 136.3841552734375 158.91339111328125 143.73886108398438 156.95181274414062 C 151.2275390625 157.85809326171875 156.87893676757812 162.6689453125 158.9536590576172 170.62161254882812" stroke-width="0.0" fill="rgb(23, 29, 31)" opacity="0.9900081"/>
    <path d="M 219.8767852783203 342.1916809082031 C 216.99038696289062 350.5 211.5 355.9903869628906 203.9999542236328 358.0000305175781 C 196.5009307861328 355.9902648925781 191.0432891845703 350.48968505859375 189.01853942871094 342.9430236816406 C 191.19813537597656 335.6725158691406 196.6118927001953 329.960693359375 204.51296997070312 327.3184509277344 C 212.31687927246094 329.21875 217.88059997558594 334.64862060546875 219.8767852783203 342.1916809082031" stroke-width="0.0" fill="rgb(255, 253, 235)" opacity="1.0"/>
    <path d="M 144.66278076171875 332.6805419921875 C 142.5391082763672 340.2691650390625 137.51669311523438 346.178955078125 130.8004913330078 347.0621337890625 C 123.27920532226562 345.13165283203125 117.5837631225586 339.8169860839844 114.66673278808594 332.6988525390625 C 117.01869201660156 325.54937744140625 122.57133483886719 320.0990295410156 129.80677795410156 317.9997863769531 C 137.26608276367188 320.3348693847656 142.84909057617188 325.6754150390625 144.66278076171875 332.6805419921875" stroke-width="0.0" fill="rgb(252, 249, 235)" opacity="0.9902078"/>
    <path d="M 205.5801544189453 303.1193542480469 C 203.2730255126953 310.7659912109375 197.81088256835938 316.4002990722656 190.21803283691406 318.639892578125 C 182.46151733398438 316.10040283203125 177.01019287109375 310.5045471191406 174.55970764160156 302.9844665527344 C 176.86669921875 295.4315185546875 182.4712371826172 289.99664306640625 189.99932861328125 287.9986572265625 C 197.51528930664062 290.0025634765625 203.11756896972656 295.4486083984375 205.5801544189453 303.1193542480469" stroke-width="0.0" fill="rgb(255, 253, 238)" opacity="0.9915497"/>
    <path d="M 253.9365997314453 332.4640197753906 C 251.73179626464844 341.06048583984375 245.84500122070312 346.1875915527344 238.0355987548828 348.0166015625 C 230.5023651123047 345.9890441894531 225.02639770507812 340.4932556152344 223.45458984375 333.3890075683594 C 225.66798400878906 326.1747741699219 231.2180633544922 320.79046630859375 238.5509033203125 318.88848876953125 C 245.89334106445312 320.2872619628906 251.80030822753906 324.83575439453125 253.9365997314453 332.4640197753906" stroke-width="0.0" fill="rgb(22, 27, 29)" opacity="0.99012864"/>
    <path d="M 279.8522033691406 351.0990905761719 C 277.985107421875 358.48724365234375 272.4625244140625 363.9015808105469 264.3234558105469 366.81854248046875 C 257.700439453125 364.64166259765625 252.8516845703125 357.7990417480469 250.95428466796875 350.72894287109375 C 252.84088134765625 344.2429504394531 258.1877136230469 338.7294006347656 265.6815490722656 336.8894958496094 C 272.4143981933594 338.1307373046875 277.8151550292969 343.6065673828125 279.8522033691406 351.0990905761719" stroke-width="0.0" fill="rgb(250, 248, 234)" opacity="0.9900247"/>
    <path d="M 219.06103515625 345.2621154785156 C 217.11398315429688 352.6510925292969 211.65452575683594 358.122314453125 204.21006774902344 360.09588623046875 C 196.88006591796875 359.62640380859375 191.42637634277344 354.1033020019531 189.7227020263672 346.3006896972656 C 192.00938415527344 338.49981689453125 197.4998016357422 333.00933837890625 204.99713134765625 331.000244140625 C 212.42376708984375 333.0395202636719 217.5088348388672 338.7493896484375 219.06103515625 345.2621154785156" stroke-width="0.0" fill="rgb(252, 247, 231)" opacity="0.9900717"/>
    <path d="M 241.6736297607422 198.393310546875 C 238.991455078125 206.50294494628906 233.51011657714844 212.01661682128906 226.0041961669922 214.09010314941406 C 218.36758422851562 212.0879364013672 212.82420349121094 206.65989685058594 211.4471435546875 199.21302795410156 C 213.30349731445312 191.7028045654297 218.6545867919922 186.15301513671875 226.7029266357422 183.18185424804688 C 234.28131103515625 185.1939697265625 239.78192138671875 190.72732543945312 241.6736297607422 198.393310546875" stroke-width="0.0" fill="rgb(255, 254, 238)" opacity="0.99662554"/>
    <path d="M 312.10699462890625 367.3570861816406 C 310.3547058105469 375.049560546875 305.2226257324219 380.8214416503906 297.9943542480469 383.0850524902344 C 290.4981384277344 380.9926452636719 285.0080871582031 375.50164794921875 282.99951171875 367.9992370605469 C 285.0012512207031 360.4822692871094 290.4678649902344 354.9536437988281 298.0762023925781 352.8008117675781 C 305.2425842285156 355.1273498535156 310.6374206542969 360.8194274902344 312.10699462890625 367.3570861816406" stroke-width="0.0" fill="rgb(250, 248, 232)" opacity="1.0"/>
    <path d="M 217.387451171875 400.58148193359375 C 215.96017456054688 407.4593505859375 210.4488525390625 412.92584228515625 202.9087677001953 415.0983581542969 C 195.4349365234375 413.10211181640625 189.98834228515625 407.5376281738281 187.19241333007812 399.2932434082031 C 189.20809936523438 391.8761901855469 195.86611938476562 387.7922058105469 202.388427734375 385.9536437988281 C 209.64784240722656 387.8995056152344 215.18421936035156 393.3219909667969 217.387451171875 400.58148193359375" stroke-width="0.0" fill="rgb(252, 249, 230)" opacity="0.99001515"/>
    <path d="M 436.0029296875 436.00738525390625 C 434.0570373535156 443.65484619140625 428.87890625 449.6044921875 420.3324279785156 451.9337463378906 C 413.294677734375 449.786865234375 408.87506103515625 442.7665100097656 406.9556884765625 435.6010437011719 C 408.8835144042969 429.3262023925781 414.2810363769531 423.750732421875 421.4477844238281 421.4134521484375 C 428.5 423.0096130371094 433.9903869628906 428.5 436.0029296875 436.00738525390625" stroke-width="0.0" fill="rgb(25, 30, 33)" opacity="0.9900281"/>
    <path d="M 320.5769348144531 270.34765625 C 317.9930419921875 278.4944763183594 312.5521240234375 284.1466064453125 305.1021728515625 286.13348388671875 C 297.50830078125 283.9798583984375 292.0188903808594 278.4920349121094 289.7280578613281 270.93707275390625 C 292.0758361816406 263.5760498046875 297.58984375 258.1259460449219 305.2300109863281 255.56871032714844 C 312.8622131347656 257.6787109375 318.6712646484375 262.99139404296875 320.5769348144531 270.34765625" stroke-width="0.0" fill="rgb(241, 241, 230)" opacity="1.0"/>
    <path d="M 232.57423400878906 221.83084106445312 C 230.83493041992188 229.32391357421875 225.33285522460938 234.8568572998047 217.7694854736328 236.87127685546875 C 208.86048889160156 234.51461791992188 203.16319274902344 229.2533416748047 201.10487365722656 221.8204345703125 C 204.79685974121094 214.29466247558594 210.31582641601562 208.86041259765625 217.10850524902344 206.94151306152344 C 223.68019104003906 208.86080932617188 229.15460205078125 214.31407165527344 232.57423400878906 221.83084106445312" stroke-width="0.0" fill="rgb(176, 32, 29)" opacity="0.9900289"/>
    <path d="M 440.333251953125 429.82269287109375 C 439.4579772949219 436.7434997558594 433.5787658691406 442.0212097167969 426.0029296875 444.0010986328125 C 418.5 441.9903869628906 413.0096130371094 436.5 411.84503173828125 429.78399658203125 C 413.9013366699219 422.3787536621094 419.38360595703125 416.9139099121094 425.7012634277344 414.959716796875 C 432.61590576171875 416.9171447753906 438.1031799316406 422.3761291503906 440.333251953125 429.82269287109375" stroke-width="0.0" fill="rgb(25, 30, 33)" opacity="0.990019"/>
    <path d="M 307.0406799316406 122.61329650878906 C 305.0881042480469 129.6172637939453 299.6156921386719 135.08441162109375 292.256103515625 137.0447998046875 C 285.9568786621094 135.30874633789062 280.1121826171875 130.28663635253906 278.0070495605469 122.97879791259766 C 279.93963623046875 115.33639526367188 285.1037292480469 109.37772369384766 293.6277160644531 107.06336212158203 C 300.9060974121094 109.20154571533203 305.13433837890625 116.19441986083984 307.0406799316406 122.61329650878906" stroke-width="0.0" fill="rgb(19, 25, 28)" opacity="0.99001485"/>
    <path d="M 217.67330932617188 426.9090270996094 C 216.89125061035156 434.36749267578125 211.33905029296875 439.8091735839844 203.58438110351562 441.58245849609375 C 195.5001678466797 438.9901123046875 190.00970458984375 433.4998779296875 187.2558135986328 425.3528747558594 C 189.23947143554688 417.90887451171875 195.90087890625 413.8052978515625 202.37400817871094 411.9617919921875 C 209.61807250976562 413.9149475097656 215.09378051757812 419.3781433105469 217.67330932617188 426.9090270996094" stroke-width="0.0" fill="rgb(25, 28, 31)" opacity="0.9900184"/>
    <path d="M 281.55462646484375 143.43641662597656 C 278.66717529296875 151.3314208984375 273.4293518066406 156.95919799804688 265.98876953125 159.00572204589844 C 258.46893310546875 157.01455688476562 252.85372924804688 151.57083129882812 250.08572387695312 143.18540954589844 C 252.1157684326172 135.63035583496094 257.6403503417969 130.14352416992188 265.2022399902344 129.79327392578125 C 272.9508361816406 131.73019409179688 279.4964599609375 136.64012145996094 281.55462646484375 143.43641662597656" stroke-width="0.0" fill="rgb(172, 175, 154)" opacity="0.99003553"/>
    <path d="M 418.2958984375 469.3465881347656 C 416.666748046875 477.24188232421875 411.30572509765625 482.8559875488281 402.5447998046875 484.9439392089844 C 394.64190673828125 482.8841857910156 389.2667541503906 477.31689453125 388.9480285644531 469.8180236816406 C 390.9136962890625 462.3851623535156 396.3871765136719 456.9183349609375 403.8678894042969 454.92535400390625 C 410.7945556640625 455.5020446777344 416.0434265136719 461.37603759765625 418.2958984375 469.3465881347656" stroke-width="0.0" fill="rgb(24, 29, 32)" opacity="0.99004763"/>
    <path d="M 304.69439697265625 426.1806945800781 C 302.9903869628906 433.5 297.5 438.9903869628906 290.00262451171875 440.9986267089844 C 282.52301025390625 438.9769287109375 277.0035400390625 433.4807434082031 274.4366149902344 425.7261962890625 C 276.3956604003906 417.9065246582031 281.92779541015625 412.47247314453125 289.56988525390625 411.86285400390625 C 297.338134765625 413.28466796875 302.740478515625 418.6572265625 304.69439697265625 426.1806945800781" stroke-width="0.0" fill="rgb(252, 248, 230)" opacity="1.0"/>
    <path d="M 297.0000305175781 449.0000305175781 C 294.99041748046875 456.5000305175781 289.5000305175781 461.99041748046875 281.9999694824219 464.0 C 274.4999694824219 461.99041748046875 269.0089416503906 456.5002136230469 267.4654235839844 449.2627258300781 C 269.2705078125 441.6104431152344 274.51080322265625 435.970458984375 281.97747802734375 433.9724426269531 C 289.5 436.0096435546875 294.9903869628906 441.5 297.0000305175781 449.0000305175781" stroke-width="0.0" fill="rgb(255, 251, 233)" opacity="0.99353594"/>
    <path d="M 329.0376892089844 96.71939849853516 C 327.0827331542969 103.62271118164062 321.6351013183594 109.11113739013672 314.1793212890625 111.06731414794922 C 306.6365661621094 110.84304809570312 301.0982666015625 105.38363647460938 299.0426940917969 97.53026580810547 C 301.1391906738281 88.72945404052734 307.0898132324219 84.72250366210938 314.343017578125 82.95746612548828 C 321.6177978515625 84.91004180908203 327.0811767578125 90.38611602783203 329.0376892089844 96.71939849853516" stroke-width="0.0" fill="rgb(24, 28, 31)" opacity="0.99000967"/>
    <path d="M 176.9004364013672 288.2348327636719 C 173.76571655273438 295.8952331542969 167.76243591308594 301.1656494140625 160.14781188964844 303.1413879394531 C 152.61886596679688 302.8771667480469 147.09921264648438 297.3899230957031 145.0485382080078 288.9815979003906 C 147.09927368164062 280.6065673828125 152.604248046875 275.0938415527344 160.5963897705078 273.043212890625 C 169.3746795654297 275.10882568359375 174.87850952148438 280.6304626464844 176.9004364013672 288.2348327636719" stroke-width="0.0" fill="rgb(24, 29, 31)" opacity="0.992904"/>
    <path d="M 430.0349426269531 321.047607421875 C 428.14129638671875 328.65850830078125 422.6647644042969 334.1654357910156 415.1285400390625 336.42816162109375 C 407.468017578125 334.0526428222656 402.00140380859375 328.5159606933594 399.99896240234375 321.0013122558594 C 402.0094909667969 313.5 407.50030517578125 308.0106506347656 415.1047058105469 305.8085632324219 C 422.5562438964844 307.8887023925781 428.0001220703125 313.4773864746094 430.0349426269531 321.047607421875" stroke-width="0.0" fill="rgb(255, 254, 241)" opacity="0.9915762"/>
    <path d="M 277.9004211425781 169.9441680908203 C 275.91326904296875 177.48403930664062 270.52325439453125 183.03907775878906 263.0217590332031 185.02455139160156 C 255.50396728515625 182.98916625976562 250.08380126953125 177.47500610351562 248.48301696777344 169.75518798828125 C 249.5874481201172 162.08497619628906 255.078857421875 156.566162109375 262.7628173828125 154.71676635742188 C 270.5 157.00961303710938 275.9903869628906 162.5 277.9004211425781 169.9441680908203" stroke-width="0.0" fill="rgb(253, 251, 234)" opacity="0.9931374"/>
    <path d="M 312.0898742675781 505.1172790527344 C 310.0934753417969 512.6264038085938 304.6259460449219 518.0922241210938 298.33551025390625 520.0382690429688 C 291.3723449707031 518.0850830078125 285.7932434082031 512.6627807617188 282.0763854980469 505.175048828125 C 284.10247802734375 497.6063537597656 289.6013488769531 492.0905456542969 297.58624267578125 490.0457458496094 C 306.38861083984375 492.10125732421875 311.8804931640625 497.6180114746094 312.0898742675781 505.1172790527344" stroke-width="0.0" fill="rgb(23, 27, 30)" opacity="0.9900205"/>
    <path d="M 313.37664794921875 438.33184814453125 C 311.3457946777344 445.8320007324219 305.8509216308594 451.40325927734375 298.2718811035156 453.39898681640625 C 290.4999694824219 450.99041748046875 285.0095520019531 445.5000305175781 282.9999084472656 438.0000305175781 C 285.0096435546875 430.50006103515625 290.50006103515625 425.0096740722656 297.9602355957031 423.0354309082031 C 305.34912109375 425.13580322265625 310.7556457519531 430.68408203125 313.37664794921875 438.33184814453125" stroke-width="0.0" fill="rgb(255, 252, 235)" opacity="0.99139476"/>
    <path d="M 259.0576477050781 278.0061950683594 C 257.23138427734375 285.87384033203125 252.0484161376953 291.7012939453125 244.81484985351562 292.47601318359375 C 237.2745361328125 290.17108154296875 231.79000854492188 284.741943359375 229.92396545410156 278.2453308105469 C 231.82528686523438 271.2468566894531 237.1324462890625 265.12518310546875 244.115966796875 262.09246826171875 C 252.03758239746094 264.3060302734375 257.217041015625 270.1398620605469 259.0576477050781 278.0061950683594" stroke-width="0.0" fill="rgb(176, 35, 30)" opacity="0.9900417"/>
    <path d="M 449.4541931152344 312.35467529296875 C 446.75238037109375 320.3763122558594 441.4436340332031 325.9632873535156 433.996337890625 327.99609375 C 426.50091552734375 325.9892883300781 421.0107116699219 320.49908447265625 419.091064453125 313.05645751953125 C 421.1246032714844 305.6098327636719 426.6502990722656 300.2496643066406 434.2541198730469 298.1541442871094 C 441.8326110839844 299.73468017578125 447.64599609375 305.01751708984375 449.4541931152344 312.35467529296875" stroke-width="0.0" fill="rgb(248, 249, 234)" opacity="1.0"/>
    <path d="M 286.6341247558594 162.0309295654297 C 284.209716796875 169.61444091796875 278.54132080078125 174.9709930419922 270.9698181152344 176.9354248046875 C 263.5 174.9903564453125 258.00958251953125 169.50001525878906 255.72227478027344 161.76499938964844 C 257.5652770996094 154.07276916503906 263.0558166503906 148.5121307373047 270.9122314453125 146.3500213623047 C 278.8312072753906 148.6067352294922 284.3126220703125 154.1956329345703 286.6341247558594 162.0309295654297" stroke-width="0.0" fill="rgb(255, 253, 237)" opacity="0.99214387"/>
    <path d="M 274.2091064453125 461.1730651855469 C 272.308837890625 468.7552795410156 266.6952209472656 474.10870361328125 258.7740783691406 476.483642578125 C 251.0901641845703 474.4005432128906 245.3432159423828 469.0155944824219 243.2494659423828 461.361083984375 C 245.34869384765625 452.92242431640625 250.9718017578125 447.4835510253906 258.83135986328125 445.4149169921875 C 266.5539245605469 447.863525390625 271.9772033691406 453.4955749511719 274.2091064453125 461.1730651855469" stroke-width="0.0" fill="rgb(251, 248, 231)" opacity="1.0"/>
    <path d="M 309.9110412597656 336.3108825683594 C 307.06243896484375 343.8550109863281 300.7245178222656 349.1421813964844 293.6228942871094 351.0610656738281 C 287.3150939941406 349.14373779296875 281.85870361328125 343.68402099609375 279.9154052734375 336.2243347167969 C 280.2721252441406 328.7264404296875 285.7019958496094 323.1856994628906 294.6759338378906 321.0843505859375 C 302.3499450683594 323.1336975097656 307.8625793457031 328.6513671875 309.9110412597656 336.3108825683594" stroke-width="0.0" fill="rgb(172, 35, 29)" opacity="0.9900176"/>
  </g>
</svg>
