<?xml version="1.0" ?>
<svg xmlns="http://www.w3.org/2000/svg" version="1.1" width="600" height="600">
  <defs/>
  <g>
    <path d="M 607.0 45.0 C 604.9903564453125 52.5 599.5 57.990379333496094 592.0 60.0 C 584.5 57.990379333496094 579.0096435546875 52.5 577.0 45.0 C 579.0096435546875 37.5 584.5 32.009620666503906 592.0 30.0 C 599.5 32.009620666503906 604.9903564453125 37.5 607.0 45.0" stroke-width="0.0" fill="rgb(249, 111, 30)" opacity="1.0"/>
    <path d="M 35.0 29.0 C 32.990379333496094 36.5 27.5 41.990379333496094 20.0 44.0 C 12.5 41.990379333496094 7.009618759155273 36.5 5.0 29.0 C 7.009618759155273 21.5 12.5 16.009618759155273 20.0 14.0 C 27.5 16.009618759155273 32.990379333496094 21.5 35.0 29.0" stroke-width="0.0" fill="rgb(254, 111, 39)" opacity="1.0"/>
    <path d="M 25.0 44.0 C 22.990381240844727 51.5 17.5 56.990379333496094 10.0 59.0 C 2.5 56.990379333496094 -2.9903810024261475 51.5 -5.0 44.0 C -2.9903810024261475 36.5 2.5 31.009618759155273 10.0 29.0 C 17.5 31.009618759155273 22.990381240844727 36.5 25.0 44.0" stroke-width="0.0" fill="rgb(253, 114, 39)" opacity="1.0"/>
    <path d="M 17.0 29.0 C 14.990381240844727 36.5 9.5 41.990379333496094 2.0 44.0 C -5.5 41.990379333496094 -10.990381240844727 36.5 -13.0 29.0 C -10.990381240844727 21.5 -5.5 16.009618759155273 2.0 14.0 C 9.5 16.009618759155273 14.990381240844727 21.5 17.0 29.0" stroke-width="0.0" fill="rgb(254, 113, 37)" opacity="1.0"/>
    <path d="M 18.0 54.0 C 15.990381240844727 61.5 10.5 66.9903793334961 3.0 69.0 C -4.5 66.9903793334961 -9.990381240844727 61.5 -12.0 54.0 C -9.990381240844727 46.5 -4.5 41.009620666503906 3.0 39.0 C 10.5 41.009620666503906 15.990381240844727 46.5 18.0 54.0" stroke-width="0.0" fill="rgb(251, 116, 38)" opacity="1.0"/>
    <path d="M 28.0 44.0 C 25.990381240844727 51.5 20.5 56.990379333496094 13.0 59.0 C 5.5 56.990379333496094 0.009618943557143211 51.5 -2.0 44.0 C 0.009618943557143211 36.5 5.5 31.009618759155273 13.0 29.0 C 20.5 31.009618759155273 25.990381240844727 36.5 28.0 44.0" stroke-width="0.0" fill="rgb(252, 112, 37)" opacity="1.0"/>
    <path d="M 607.0 545.0 C 604.9903564453125 552.5 599.5 557.9903564453125 592.0 560.0 C 584.5 557.9903564453125 579.0096435546875 552.5 577.0 545.0 C 579.0096435546875 537.5 584.5 532.0096435546875 592.0 530.0 C 599.5 532.0096435546875 604.9903564453125 537.5 607.0 545.0" stroke-width="0.0" fill="rgb(0, 0, 0)" opacity="1.0"/>
    <path d="M 15.0 574.0 C 12.990381240844727 581.5 7.5 586.9903564453125 9.184850467946473e-16 589.0 C -7.5 586.9903564453125 -12.990381240844727 581.5 -15.0 574.0 C -12.990381240844727 566.5 -7.5 561.0096435546875 -2.7554553521421787e-15 559.0 C 7.5 561.0096435546875 12.990381240844727 566.5 15.0 574.0" stroke-width="0.0" fill="rgb(255, 117, 38)" opacity="1.0"/>
    <path d="M 19.0 586.0 C 16.990381240844727 593.5 11.5 598.9903564453125 4.0 601.0 C -3.5 598.9903564453125 -8.990381240844727 593.5 -11.0 586.0 C -8.990381240844727 578.5 -3.5 573.0096435546875 4.0 571.0 C 11.5 573.0096435546875 16.990381240844727 578.5 19.0 586.0" stroke-width="0.0" fill="rgb(254, 115, 39)" opacity="1.0"/>
    <path d="M 17.0 19.0 C 14.990381240844727 26.5 9.5 31.990381240844727 2.0 34.0 C -5.5 31.990381240844727 -10.990381240844727 26.5 -13.0 19.0 C -10.990381240844727 11.5 -5.5 6.009618759155273 2.0 4.0 C 9.5 6.009618759155273 14.990381240844727 11.5 17.0 19.0" stroke-width="0.0" fill="rgb(254, 113, 37)" opacity="1.0"/>
    <path d="M 19.0 548.0 C 16.990381240844727 555.5 11.5 560.9903564453125 4.0 563.0 C -3.5 560.9903564453125 -8.990381240844727 555.5 -11.0 548.0 C -8.990381240844727 540.5 -3.5 535.0096435546875 4.0 533.0 C 11.5 535.0096435546875 16.990381240844727 540.5 19.0 548.0" stroke-width="0.0" fill="rgb(50, 20, 4)" opacity="1.0"/>
    <path d="M 22.0 44.0 C 19.990381240844727 51.5 14.5 56.990379333496094 7.0 59.0 C -0.5 56.990379333496094 -5.990381240844727 51.5 -8.0 44.0 C -5.990381240844727 36.5 -0.5 31.009618759155273 7.0 29.0 C 14.5 31.009618759155273 19.990381240844727 36.5 22.0 44.0" stroke-width="0.0" fill="rgb(254, 113, 38)" opacity="1.0"/>
    <path d="M 41.19052505493164 34.33313751220703 C 39.24177932739258 41.83269119262695 33.9021110534668 47.446231842041016 26.746747970581055 49.77098846435547 C 19.5 47.990379333496094 14.009618759155273 42.5 12.0 35.0 C 14.009618759155273 27.5 19.5 22.009618759155273 27.0 20.0 C 34.5 22.009618759155273 39.990379333496094 27.5 41.19052505493164 34.33313751220703" stroke-width="0.0" fill="rgb(239, 116, 54)" opacity="0.99015415"/>
    <path d="M 593.0 24.0 C 590.9903564453125 31.5 585.5 36.990379333496094 578.0 39.0 C 570.5 36.990379333496094 565.0096435546875 31.5 563.0 24.0 C 565.0096435546875 16.5 570.5 11.009618759155273 578.0 9.0 C 585.5 11.009618759155273 590.9903564453125 16.5 593.0 24.0" stroke-width="0.0" fill="rgb(253, 111, 36)" opacity="1.0"/>
    <path d="M 177.0 352.0 C 174.99038696289062 359.5 169.5 364.9903869628906 162.38682556152344 366.6645202636719 C 155.26553344726562 364.2835693359375 149.89158630371094 358.6742248535156 147.95982360839844 352.2371826171875 C 149.9133758544922 345.3760986328125 155.35952758789062 339.86834716796875 162.68777465820312 337.724365234375 C 169.5 339.0096130371094 174.99038696289062 344.5 177.0 352.0" stroke-width="0.0" fill="rgb(28, 31, 32)" opacity="0.9901066"/>
    <path d="M 295.9999694824219 323.99993896484375 C 293.9888000488281 331.49481201171875 288.4496154785156 336.8395690917969 281.80535888671875 338.0656433105469 C 274.27276611328125 336.13018798828125 268.5552673339844 330.8375549316406 266.14300537109375 323.7955017089844 C 268.0096130371094 316.5 273.5 311.0096130371094 281.0 309.0 C 288.5 311.0096130371094 293.9903869628906 316.5 295.9999694824219 323.99993896484375" stroke-width="0.0" fill="rgb(28, 31, 35)" opacity="0.9901509"/>
    <path d="M 17.0 41.0 C 14.990381240844727 48.5 9.5 53.990379333496094 2.0 56.0 C -5.5 53.990379333496094 -10.990381240844727 48.5 -13.0 41.0 C -10.990381240844727 33.5 -5.5 28.009618759155273 2.0 26.0 C 9.5 28.009618759155273 14.990381240844727 33.5 17.0 41.0" stroke-width="0.0" fill="rgb(254, 113, 39)" opacity="1.0"/>
    <path d="M 606.0 46.0 C 603.9903564453125 53.5 598.5 58.990379333496094 591.0 61.0 C 583.5 58.990379333496094 578.0096435546875 53.5 576.0 46.0 C 578.0096435546875 38.5 583.5 33.009620666503906 591.0 31.0 C 598.5 33.009620666503906 603.9903564453125 38.5 606.0 46.0" stroke-width="0.0" fill="rgb(232, 113, 59)" opacity="1.0"/>
    <path d="M 609.0 17.0 C 606.9903564453125 24.5 601.5 29.990381240844727 594.0 32.0 C 586.5 29.990381240844727 581.0096435546875 24.5 579.0 17.0 C 581.0096435546875 9.5 586.5 4.009618759155273 594.0 2.0 C 601.5 4.009618759155273 606.9903564453125 9.5 609.0 17.0" stroke-width="0.0" fill="rgb(253, 110, 36)" opacity="1.0"/>
    <path d="M 606.0 35.0 C 603.9903564453125 42.5 598.5 47.990379333496094 591.0 50.0 C 583.5 47.990379333496094 578.0096435546875 42.5 576.0 35.0 C 578.0096435546875 27.5 583.5 22.009618759155273 591.0 20.0 C 598.5 22.009618759155273 603.9903564453125 27.5 606.0 35.0" stroke-width="0.0" fill="rgb(251, 111, 35)" opacity="1.0"/>
    <path d="M 25.167694091796875 584.4174194335938 C 23.355966567993164 592.0435791015625 18.212827682495117 597.8138427734375 10.962654113769531 599.9785766601562 C 3.5 597.9903564453125 -1.9903810024261475 592.5 -4.0 585.0 C -1.9903810024261475 577.5 3.5 572.0096435546875 10.999984741210938 570.0 C 18.498620986938477 572.0100708007812 23.942567825317383 577.5147094726562 25.167694091796875 584.4174194335938" stroke-width="0.0" fill="rgb(255, 118, 42)" opacity="0.9908719"/>
    <path d="M 588.0 11.0 C 585.9903564453125 18.5 580.5 23.990381240844727 573.0003662109375 25.999866485595703 C 565.5162963867188 23.984771728515625 560.2229614257812 18.41765022277832 558.81201171875 11.084503173828125 C 560.2833251953125 3.61552357673645 565.5282592773438 -1.9800794124603271 573.0008544921875 -3.999685525894165 C 580.5 -1.9903810024261475 585.9903564453125 3.5 588.0 11.0" stroke-width="0.0" fill="rgb(252, 112, 38)" opacity="0.99120915"/>
    <path d="M 28.0 37.0 C 25.990381240844727 44.5 20.5 49.990379333496094 13.0 52.0 C 5.5 49.990379333496094 0.009618943557143211 44.5 -2.0 37.0 C 0.009618943557143211 29.5 5.5 24.009618759155273 13.0 22.0 C 20.5 24.009618759155273 25.990381240844727 29.5 28.0 37.0" stroke-width="0.0" fill="rgb(254, 112, 40)" opacity="1.0"/>
    <path d="M 608.0 552.0 C 605.9903564453125 559.5 600.5 564.9903564453125 593.0 567.0 C 585.5 564.9903564453125 580.0096435546875 559.5 578.0 552.0 C 580.0096435546875 544.5 585.5 539.0096435546875 593.0 537.0 C 600.5 539.0096435546875 605.9903564453125 544.5 608.0 552.0" stroke-width="0.0" fill="rgb(70, 20, 0)" opacity="1.0"/>
    <path d="M 614.0 42.0 C 611.9903564453125 49.5 606.5 54.990379333496094 599.0 57.0 C 591.5 54.990379333496094 586.0096435546875 49.5 584.0 42.0 C 586.0096435546875 34.5 591.5 29.009618759155273 599.0 27.0 C 606.5 29.009618759155273 611.9903564453125 34.5 614.0 42.0" stroke-width="0.0" fill="rgb(251, 108, 36)" opacity="1.0"/>
    <path d="M 591.0 27.0 C 588.9903564453125 34.5 583.5 39.990379333496094 576.0 42.0 C 568.5 39.990379333496094 563.0096435546875 34.5 561.4115600585938 27.171554565429688 C 563.062744140625 19.516538619995117 568.501708984375 14.010135650634766 576.0 12.000005722045898 C 583.5 14.009618759155273 588.9903564453125 19.5 591.0 27.0" stroke-width="0.0" fill="rgb(252, 109, 37)" opacity="1.0"/>
    <path d="M 605.0 29.0 C 602.9903564453125 36.5 597.5 41.990379333496094 590.0 44.0 C 582.5 41.990379333496094 577.0096435546875 36.5 575.0 29.0 C 577.0096435546875 21.5 582.5 16.009618759155273 590.0 14.0 C 597.5 16.009618759155273 602.9903564453125 21.5 605.0 29.0" stroke-width="0.0" fill="rgb(253, 111, 36)" opacity="1.0"/>
    <path d="M 604.0 552.0 C 601.9903564453125 559.5 596.5 564.9903564453125 589.4075927734375 566.59716796875 C 582.1851806640625 564.3118896484375 576.7105712890625 558.8080444335938 574.4622802734375 551.5510864257812 C 576.0096435546875 544.5 581.5 539.0096435546875 589.0 537.0 C 596.5 539.0096435546875 601.9903564453125 544.5 604.0 552.0" stroke-width="0.0" fill="rgb(1, 2, 3)" opacity="0.9913531"/>
    <path d="M 601.0 46.0 C 598.9903564453125 53.5 593.5 58.990379333496094 586.2699584960938 60.79461669921875 C 579.210693359375 58.37419128417969 573.876708984375 52.70426940917969 571.8775634765625 45.205039978027344 C 573.0096435546875 38.5 578.5 33.009620666503906 586.0 31.0 C 593.5 33.009620666503906 598.9903564453125 38.5 601.0 46.0" stroke-width="0.0" fill="rgb(2, 2, 2)" opacity="0.9902896"/>
    <path d="M 23.0 586.0 C 20.990381240844727 593.5 15.5 598.9903564453125 8.0 601.0 C 0.5 598.9903564453125 -4.990381240844727 593.5 -7.0 586.0 C -4.990381240844727 578.5 0.5 573.0096435546875 8.0 571.0 C 15.5 573.0096435546875 20.990381240844727 578.5 23.0 586.0" stroke-width="0.0" fill="rgb(254, 116, 39)" opacity="1.0"/>
    <path d="M 592.0 31.0 C 589.9903564453125 38.5 584.5 43.990379333496094 577.0 46.0 C 569.5 43.990379333496094 564.0096435546875 38.5 562.0 31.0 C 564.0096435546875 23.5 569.5 18.009618759155273 577.0 16.0 C 584.5 18.009618759155273 589.9903564453125 23.5 592.0 31.0" stroke-width="0.0" fill="rgb(252, 110, 32)" opacity="1.0"/>
    <path d="M 595.0 8.0 C 592.9903564453125 15.5 587.5 20.990381240844727 580.0 23.0 C 572.5 20.990381240844727 567.0096435546875 15.5 565.0 8.0 C 567.0096435546875 0.5 572.5 -4.990381240844727 580.0 -7.0 C 587.5 -4.990381240844727 592.9903564453125 0.5 595.0 8.0" stroke-width="0.0" fill="rgb(252, 112, 35)" opacity="1.0"/>
    <path d="M 23.0 554.0 C 20.990381240844727 561.5 15.5 566.9903564453125 8.0 569.0 C 0.5 566.9903564453125 -4.990381240844727 561.5 -7.0 554.0 C -4.990381240844727 546.5 0.5 541.0096435546875 8.0 539.0 C 15.5 541.0096435546875 20.990381240844727 546.5 23.0 554.0" stroke-width="0.0" fill="rgb(182, 89, 40)" opacity="1.0"/>
    <path d="M 30.0 8.0 C 27.990381240844727 15.5 22.5 20.990381240844727 15.0 23.0 C 7.5 20.990381240844727 2.0096189975738525 15.5 0.0 8.0 C 2.0096189975738525 0.5 7.5 -4.990381240844727 15.0 -7.0 C 22.5 -4.990381240844727 27.990381240844727 0.5 30.0 8.0" stroke-width="0.0" fill="rgb(253, 111, 40)" opacity="1.0"/>
    <path d="M 26.0 16.0 C 23.990381240844727 23.5 18.5 28.990381240844727 11.0 31.0 C 3.5 28.990381240844727 -1.9903810024261475 23.5 -4.0 16.0 C -1.9903810024261475 8.5 3.5 3.0096189975738525 11.0 1.0 C 18.5 3.0096189975738525 23.990381240844727 8.5 26.0 16.0" stroke-width="0.0" fill="rgb(254, 113, 39)" opacity="1.0"/>
    <path d="M 25.15729331970215 583.6456909179688 C 23.929262161254883 590.480712890625 18.49788475036621 595.9896850585938 10.99997329711914 598.0 C 3.5 595.9903564453125 -1.9903810024261475 590.5 -4.0 583.0 C -1.9903810024261475 575.5 3.5 570.0096435546875 10.716592788696289 568.266357421875 C 17.88155746459961 570.5828857421875 23.2332763671875 576.18115234375 25.15729331970215 583.6456909179688" stroke-width="0.0" fill="rgb(255, 118, 42)" opacity="0.99041134"/>
    <path d="M 46.0 22.0 C 43.990379333496094 29.5 38.5 34.990379333496094 31.0 37.0 C 23.5 34.990379333496094 18.009618759155273 29.5 16.0 22.0 C 18.009618759155273 14.5 23.5 9.009618759155273 31.0 7.0 C 38.5 9.009618759155273 43.990379333496094 14.5 46.0 22.0" stroke-width="0.0" fill="rgb(253, 110, 39)" opacity="1.0"/>
    <path d="M 19.0 546.0 C 16.990381240844727 553.5 11.5 558.9903564453125 4.0 561.0 C -3.5 558.9903564453125 -8.990381240844727 553.5 -11.0 546.0 C -8.990381240844727 538.5 -3.5 533.0096435546875 4.0 531.0 C 11.5 533.0096435546875 16.990381240844727 538.5 19.0 546.0" stroke-width="0.0" fill="rgb(1, 0, 4)" opacity="1.0"/>
    <path d="M 23.133874893188477 594.7083740234375 C 21.43964958190918 602.1517333984375 16.323566436767578 607.899169921875 8.98516845703125 609.99267578125 C 1.5 607.9903564453125 -3.9903810024261475 602.5 -6.0 595.0 C -3.9903810024261475 587.5 1.5 582.0096435546875 8.99704360961914 580.001220703125 C 16.43575668334961 582.0361328125 21.604949951171875 587.6913452148438 23.133874893188477 594.7083740234375" stroke-width="0.0" fill="rgb(255, 116, 41)" opacity="0.9902198"/>
    <path d="M 588.0 15.0 C 585.9903564453125 22.5 580.5 27.990381240844727 573.08837890625 29.939029693603516 C 565.91015625 27.685670852661133 560.6922607421875 21.956302642822266 558.8621826171875 14.47704792022705 C 560.2215576171875 7.5824666023254395 565.51708984375 2.0155937671661377 573.0004272460938 0.00015586295921821147 C 580.5 2.0096189975738525 585.9903564453125 7.5 588.0 15.0" stroke-width="0.0" fill="rgb(254, 113, 38)" opacity="0.9904093"/>
    <path d="M 607.0 47.0 C 604.9903564453125 54.5 599.5 59.990379333496094 592.0 62.0 C 584.5 59.990379333496094 579.0096435546875 54.5 577.0 47.0 C 579.0096435546875 39.5 584.5 34.009620666503906 592.0 32.0 C 599.5 34.009620666503906 604.9903564453125 39.5 607.0 47.0" stroke-width="0.0" fill="rgb(240, 118, 62)" opacity="1.0"/>
    <path d="M 23.400226593017578 545.5947875976562 C 21.990381240844727 552.5 16.5 557.9903564453125 9.0 560.0 C 1.5 557.9903564453125 -3.9903810024261475 552.5 -5.999484539031982 545.00146484375 C -3.9712212085723877 537.5533447265625 1.7304424047470093 532.4838256835938 8.19914722442627 530.9567260742188 C 15.634659767150879 532.911376953125 21.16973304748535 538.3360595703125 23.400226593017578 545.5947875976562" stroke-width="0.0" fill="rgb(3, 3, 4)" opacity="0.9900494"/>
    <path d="M 43.14619064331055 1.493562936782837 C 41.38706588745117 9.087939262390137 36.26313400268555 14.855730056762695 28.974777221679688 16.986602783203125 C 21.5 14.990381240844727 16.009618759155273 9.5 14.0 2.0 C 16.009618759155273 -5.5 21.5 -10.990381240844727 28.99965476989746 -12.999879837036133 C 36.48585891723633 -10.985498428344727 41.80289840698242 -5.428863048553467 43.14619064331055 1.493562936782837" stroke-width="0.0" fill="rgb(253, 115, 41)" opacity="0.9902912"/>
    <path d="M 19.0 34.0 C 16.990381240844727 41.5 11.5 46.990379333496094 4.0 49.0 C -3.5 46.990379333496094 -8.990381240844727 41.5 -11.0 34.0 C -8.990381240844727 26.5 -3.5 21.009618759155273 4.0 19.0 C 11.5 21.009618759155273 16.990381240844727 26.5 19.0 34.0" stroke-width="0.0" fill="rgb(255, 113, 38)" opacity="1.0"/>
    <path d="M 25.0 54.0 C 22.990381240844727 61.5 17.5 66.9903793334961 10.0 69.0 C 2.5 66.9903793334961 -2.9903810024261475 61.5 -5.0 54.0 C -2.9903810024261475 46.5 2.5 41.009620666503906 10.0 39.0 C 17.5 41.009620666503906 22.990381240844727 46.5 25.0 54.0" stroke-width="0.0" fill="rgb(71, 19, 10)" opacity="1.0"/>
    <path d="M 28.0 8.0 C 25.990381240844727 15.5 20.5 20.990381240844727 13.0 23.0 C 5.5 20.990381240844727 0.009618943557143211 15.5 -2.0 8.0 C 0.009618943557143211 0.5 5.5 -4.990381240844727 13.0 -7.0 C 20.5 -4.990381240844727 25.990381240844727 0.5 28.0 8.0" stroke-width="0.0" fill="rgb(253, 111, 38)" opacity="1.0"/>
    <path d="M 600.0 545.0 C 597.9903564453125 552.5 592.5 557.9903564453125 585.0 560.0 C 577.5 557.9903564453125 572.0096435546875 552.5 570.3287353515625 545.3553466796875 C 572.6650390625 538.1973266601562 578.2415771484375 532.8016967773438 585.6341552734375 530.71630859375 C 592.5 532.0096435546875 597.9903564453125 537.5 600.0 545.0" stroke-width="0.0" fill="rgb(56, 65, 76)" opacity="0.9908698"/>
    <path d="M 357.03387451171875 398.23486328125 C 355.0655517578125 404.5893859863281 349.5896301269531 410.066162109375 342.2592468261719 412.03680419921875 C 336.1905212402344 410.17352294921875 330.4018249511719 404.968505859375 328.0724792480469 397.8868713378906 C 330.0096130371094 390.5 335.5 385.0096130371094 342.1528015136719 383.9046936035156 C 349.59625244140625 385.9273986816406 355.0677490234375 391.4056396484375 357.03387451171875 398.23486328125" stroke-width="0.0" fill="rgb(2, 8, 5)" opacity="0.9900104"/>
    <path d="M 46.149593353271484 17.568391799926758 C 44.862953186035156 24.456865310668945 39.49433517456055 29.988595962524414 31.999916076660156 31.99997329711914 C 24.5 29.990381240844727 19.009618759155273 24.5 17.0 17.0 C 19.009618759155273 9.5 24.5 4.009618759155273 31.810081481933594 2.160008430480957 C 38.96128845214844 4.477730751037598 44.271549224853516 10.123566627502441 46.149593353271484 17.568391799926758" stroke-width="0.0" fill="rgb(254, 113, 42)" opacity="0.9901946"/>
    <path d="M 604.0 8.0 C 601.9903564453125 15.5 596.5 20.990381240844727 589.0 23.0 C 581.5 20.990381240844727 576.0096435546875 15.5 574.0 8.0 C 576.0096435546875 0.5 581.5 -4.990381240844727 589.0 -7.0 C 596.5 -4.990381240844727 601.9903564453125 0.5 604.0 8.0" stroke-width="0.0" fill="rgb(253, 112, 36)" opacity="1.0"/>
    <path d="M 21.0 582.0 C 18.990381240844727 589.5 13.5 594.9903564453125 6.0 597.0 C -1.5 594.9903564453125 -6.990381240844727 589.5 -9.0 582.0 C -6.990381240844727 574.5 -1.5 569.0096435546875 6.0 567.0 C 13.5 569.0096435546875 18.990381240844727 574.5 21.0 582.0" stroke-width="0.0" fill="rgb(254, 116, 39)" opacity="1.0"/>
    <path d="M 20.999784469604492 593.9999389648438 C 18.990304946899414 601.4999389648438 13.499982833862305 606.9903564453125 5.999998569488525 609.0 C -1.5 606.9903564453125 -6.990381240844727 601.5 -9.0 594.0 C -6.990381240844727 586.5 -1.5 581.0096435546875 6.0 579.0 C 13.5 581.0096435546875 18.990379333496094 586.5 20.999784469604492 593.9999389648438" stroke-width="0.0" fill="rgb(253, 116, 41)" opacity="0.999996"/>
    <path d="M 18.0 47.0 C 15.990381240844727 54.5 10.5 59.990379333496094 3.0 62.0 C -4.5 59.990379333496094 -9.990381240844727 54.5 -12.0 47.0 C -9.990381240844727 39.5 -4.5 34.009620666503906 3.0 32.0 C 10.5 34.009620666503906 15.990381240844727 39.5 18.0 47.0" stroke-width="0.0" fill="rgb(254, 114, 39)" opacity="1.0"/>
    <path d="M 35.13560104370117 50.32780456542969 C 33.4914665222168 58.2491340637207 28.43781852722168 63.96798324584961 20.998329162597656 65.9994125366211 C 13.5 63.990379333496094 8.009618759155273 58.5 6.0 51.0 C 8.009618759155273 43.5 13.5 38.009620666503906 21.0 36.0 C 28.5 38.009620666503906 33.990379333496094 43.5 35.13560104370117 50.32780456542969" stroke-width="0.0" fill="rgb(0, 2, 2)" opacity="0.9932576"/>
    <path d="M 48.11421585083008 23.556928634643555 C 46.217384338378906 30.78714370727539 40.827880859375 36.333370208740234 33.5897331237793 38.50065994262695 C 26.50050926208496 36.988582611083984 21.009626388549805 31.49997329711914 19.0 24.0 C 21.009618759155273 16.5 26.5 11.009618759155273 33.964237213134766 9.025832176208496 C 41.25995635986328 11.162005424499512 46.42217254638672 16.890911102294922 48.11421585083008 23.556928634643555" stroke-width="0.0" fill="rgb(254, 113, 39)" opacity="0.99009955"/>
    <path d="M 24.000003814697266 585.0 C 21.990381240844727 592.5 16.5 597.9903564453125 9.0 600.0 C 1.5 597.9903564453125 -3.9903810024261475 592.5 -6.0 585.0 C -3.9903810024261475 577.5 1.5 572.0096435546875 9.000007629394531 570.0 C 16.500019073486328 572.0096435546875 21.99039649963379 577.5 24.000003814697266 585.0" stroke-width="0.0" fill="rgb(254, 118, 42)" opacity="1.0"/>
    <path d="M 16.0 44.0 C 13.990381240844727 51.5 8.5 56.990379333496094 1.0 59.0 C -6.5 56.990379333496094 -11.990381240844727 51.5 -14.0 44.0 C -11.990381240844727 36.5 -6.5 31.009618759155273 1.0 29.0 C 8.5 31.009618759155273 13.990381240844727 36.5 16.0 44.0" stroke-width="0.0" fill="rgb(255, 113, 39)" opacity="1.0"/>
    <path d="M 181.94842529296875 348.086181640625 C 179.99038696289062 355.5 174.5 360.9903869628906 167.0 363.0 C 159.5 360.9903869628906 154.00961303710938 355.5 152.40408325195312 348.4291687011719 C 154.73023986816406 341.2579345703125 160.3050994873047 335.86712646484375 167.41152954101562 333.94891357421875 C 173.85411071777344 335.7956237792969 179.65652465820312 340.976806640625 181.94842529296875 348.086181640625" stroke-width="0.0" fill="rgb(27, 31, 34)" opacity="0.9900491"/>
    <path d="M 305.0 322.0 C 302.9903869628906 329.5 297.5 334.9903869628906 290.0 337.0 C 282.5 334.9903869628906 277.0096130371094 329.5 275.0 322.0 C 277.0096130371094 314.5 282.5 309.0096130371094 290.0 307.0 C 297.5 309.0096130371094 302.9903869628906 314.5 305.0 322.0" stroke-width="0.0" fill="rgb(25, 29, 33)" opacity="1.0"/>
    <path d="M 302.8048400878906 316.2138977050781 C 300.9903869628906 323.5 295.5 328.9903869628906 288.0 331.0 C 280.5 328.9903869628906 275.0096130371094 323.5 273.0 316.0 C 275.0096130371094 308.5 280.5 303.0096130371094 287.6772766113281 301.3511962890625 C 294.9689025878906 303.5712890625 300.5155334472656 309.0046691894531 302.8048400878906 316.2138977050781" stroke-width="0.0" fill="rgb(28, 30, 34)" opacity="0.9921326"/>
    <path d="M 22.195880889892578 564.356201171875 C 20.29458236694336 571.9476928710938 15.091331481933594 577.6970825195312 7.919931411743164 579.9473266601562 C 0.5 577.9903564453125 -4.990381240844727 572.5 -7.0 565.0 C -4.990381240844727 557.5 0.5 552.0096435546875 8.0 550.0 C 15.5 552.0096435546875 20.990381240844727 557.5 22.195880889892578 564.356201171875" stroke-width="0.0" fill="rgb(255, 119, 41)" opacity="0.99017805"/>
    <path d="M 25.0 20.0 C 22.990381240844727 27.5 17.5 32.990379333496094 10.0 35.0 C 2.5 32.990379333496094 -2.9903810024261475 27.5 -5.0 20.0 C -2.9903810024261475 12.5 2.5 7.009618759155273 10.0 5.0 C 17.5 7.009618759155273 22.990381240844727 12.5 25.0 20.0" stroke-width="0.0" fill="rgb(254, 112, 39)" opacity="1.0"/>
    <path d="M 611.0 27.0 C 608.9903564453125 34.5 603.5 39.990379333496094 596.0 42.0 C 588.5 39.990379333496094 583.0096435546875 34.5 581.0 27.0 C 583.0096435546875 19.5 588.5 14.009618759155273 596.0 12.0 C 603.5 14.009618759155273 608.9903564453125 19.5 611.0 27.0" stroke-width="0.0" fill="rgb(254, 111, 35)" opacity="1.0"/>
    <path d="M 34.08684539794922 53.170841217041016 C 32.103546142578125 60.64026641845703 26.650901794433594 66.13186645507812 19.290985107421875 68.2337875366211 C 12.5 66.9903793334961 7.009618759155273 61.5 5.0 54.0 C 7.009618759155273 46.5 12.5 41.009620666503906 20.000001907348633 39.0 C 27.50031280517578 41.00952911376953 33.0028076171875 46.49631118774414 34.08684539794922 53.170841217041016" stroke-width="0.0" fill="rgb(29, 38, 40)" opacity="0.990168"/>
    <path d="M 609.0 27.0 C 606.9903564453125 34.5 601.5 39.990379333496094 594.0 42.0 C 586.5 39.990379333496094 581.0096435546875 34.5 579.0 27.0 C 581.0096435546875 19.5 586.5 14.009618759155273 594.0 12.0 C 601.5 14.009618759155273 606.9903564453125 19.5 609.0 27.0" stroke-width="0.0" fill="rgb(253, 111, 35)" opacity="1.0"/>
    <path d="M 16.0 59.0 C 13.990381240844727 66.5 8.5 71.9903793334961 1.0 74.0 C -6.5 71.9903793334961 -11.990381240844727 66.5 -14.0 59.0 C -11.990381240844727 51.5 -6.5 46.009620666503906 1.0 44.0 C 8.5 46.009620666503906 13.990381240844727 51.5 16.0 59.0" stroke-width="0.0" fill="rgb(251, 118, 40)" opacity="1.0"/>
    <path d="M 19.001951217651367 579.9987182617188 C 16.990381240844727 587.5 11.5 592.9903564453125 4.0 595.0 C -3.5 592.9903564453125 -8.990381240844727 587.5 -11.0 580.0 C -8.990381240844727 572.5 -3.5 567.0096435546875 4.000202178955078 564.9998779296875 C 11.501294136047363 567.0087890625 16.993080139160156 572.4981689453125 19.001951217651367 579.9987182617188" stroke-width="0.0" fill="rgb(254, 117, 42)" opacity="1.0"/>
    <path d="M 589.0 32.0 C 586.9903564453125 39.5 581.5 44.990379333496094 574.408935546875 46.586158752441406 C 567.205810546875 44.307273864746094 561.814208984375 38.752037048339844 559.8912963867188 31.43032455444336 C 561.5403442382812 24.842357635498047 566.6865234375 19.111310958862305 574.0180053710938 17.00927734375 C 581.5 19.009618759155273 586.9903564453125 24.5 589.0 32.0" stroke-width="0.0" fill="rgb(184, 95, 51)" opacity="0.9901466"/>
    <path d="M 26.0 60.0 C 23.990381240844727 67.5 18.5 72.9903793334961 11.0 75.0 C 3.5 72.9903793334961 -1.9903810024261475 67.5 -4.0 60.0 C -1.9903810024261475 52.5 3.5 47.009620666503906 11.0 45.0 C 18.5 47.009620666503906 23.990381240844727 52.5 26.0 60.0" stroke-width="0.0" fill="rgb(0, 0, 0)" opacity="1.0"/>
    <path d="M 25.999616622924805 550.9995727539062 C 23.981176376342773 558.4739379882812 18.375024795532227 563.689453125 11.631645202636719 565.0960693359375 C 4.247347831726074 563.1815185546875 -1.325819969177246 557.8025512695312 -3.63142728805542 550.62255859375 C -1.9903810024261475 543.5 3.5 538.0096435546875 10.98549747467041 536.0308227539062 C 18.491046905517578 538.028564453125 23.98847770690918 543.5040283203125 25.999616622924805 550.9995727539062" stroke-width="0.0" fill="rgb(2, 2, 2)" opacity="0.9901128"/>
    <path d="M 285.99932861328125 320.99810791015625 C 283.96649169921875 328.4349060058594 278.2480163574219 333.4925842285156 271.7774963378906 335.0515441894531 C 264.3855895996094 333.0848388671875 258.9142150878906 327.6148986816406 256.95904541015625 320.619873046875 C 258.9103088378906 314.3792724609375 264.3724670410156 308.8918762207031 271.7522277832031 306.8041076660156 C 278.5 308.0096130371094 283.9903869628906 313.5 285.99932861328125 320.99810791015625" stroke-width="0.0" fill="rgb(28, 32, 35)" opacity="0.9900111"/>
    <path d="M 41.01106262207031 12.003450393676758 C 38.99127960205078 19.500268936157227 33.50002670288086 24.990388870239258 26.0 27.0 C 18.5 24.990381240844727 13.009618759155273 19.5 11.0 12.0 C 13.009618759155273 4.5 18.5 -0.9903810620307922 25.999998092651367 -2.999999523162842 C 33.49998474121094 -0.9903742671012878 38.990299224853516 4.500035285949707 41.01106262207031 12.003450393676758" stroke-width="0.0" fill="rgb(252, 112, 42)" opacity="1.0"/>
    <path d="M 600.0 5.0 C 597.9903564453125 12.5 592.5 17.990381240844727 585.0 20.0 C 577.5 17.990381240844727 572.0096435546875 12.5 570.0 5.0 C 572.0096435546875 -2.5 577.5 -7.990381240844727 585.0 -10.0 C 592.5 -7.990381240844727 597.9903564453125 -2.5 600.0 5.0" stroke-width="0.0" fill="rgb(253, 112, 35)" opacity="1.0"/>
    <path d="M 192.05484008789062 356.2673645019531 C 190.10035705566406 363.6282958984375 184.62258911132812 369.08709716796875 177.22145080566406 371.045654296875 C 170.95159912109375 369.32696533203125 165.1283416748047 364.26727294921875 163.00830078125 356.98193359375 C 165.00961303710938 349.5 170.5 344.0096130371094 177.98622131347656 342.0062561035156 C 185.30715942382812 344.1043701171875 190.3673553466797 349.9034118652344 192.05484008789062 356.2673645019531" stroke-width="0.0" fill="rgb(28, 31, 34)" opacity="0.9900197"/>
    <path d="M 39.0 4.999978542327881 C 36.990379333496094 12.5 31.5 17.990381240844727 24.0 20.0 C 16.5 17.990381240844727 11.009618759155273 12.5 9.0 5.0 C 11.009618759155273 -2.5 16.5 -7.990381240844727 24.000001907348633 -10.000000953674316 C 31.50001335144043 -7.9903883934021 36.99042510986328 -2.500025510787964 39.0 4.999978542327881" stroke-width="0.0" fill="rgb(253, 111, 40)" opacity="0.999996"/>
    <path d="M 299.0 323.0 C 296.9903869628906 330.5 291.5 335.9903869628906 284.0031433105469 337.9969787597656 C 276.5121154785156 335.9800720214844 271.03228759765625 330.4842834472656 269.0328674316406 322.9853515625 C 271.0096435546875 315.5 276.5 310.0096130371094 284.0 308.0 C 291.5 310.0096130371094 296.9903869628906 315.5 299.0 323.0" stroke-width="0.0" fill="rgb(28, 31, 35)" opacity="0.99880993"/>
    <path d="M 588.0 6.0 C 585.9903564453125 13.5 580.5 18.990381240844727 572.9998168945312 21.000558853149414 C 565.5258178710938 18.98320198059082 560.2925415039062 13.381978034973145 558.871337890625 6.486772537231445 C 560.6492919921875 -1.0396990776062012 565.7877807617188 -6.8153581619262695 573.0362548828125 -8.97972583770752 C 580.5 -6.990381240844727 585.9903564453125 -1.5 588.0 6.0" stroke-width="0.0" fill="rgb(254, 113, 39)" opacity="0.9902452"/>
    <path d="M 36.007686614990234 25.003173828125 C 33.99348449707031 32.50123977661133 28.500408172607422 37.990543365478516 21.000017166137695 40.00000762939453 C 13.5 37.990379333496094 8.009618759155273 32.5 6.0 25.0 C 8.009618759155273 17.5 13.5 12.009618759155273 21.0 10.0 C 28.5 12.009618759155273 33.9903678894043 17.500003814697266 36.007686614990234 25.003173828125" stroke-width="0.0" fill="rgb(252, 111, 38)" opacity="0.9999798"/>
    <path d="M 32.06033706665039 551.5719604492188 C 30.11454200744629 558.6546020507812 24.665496826171875 564.1424560546875 17.28446388244629 566.141357421875 C 9.95431137084961 565.4985961914062 4.421651840209961 560.0671997070312 2.603040933609009 552.34912109375 C 4.972024917602539 544.4122314453125 10.26205825805664 538.5625610351562 17.233179092407227 536.5476684570312 C 24.6760196685791 539.854248046875 30.136083602905273 545.3275146484375 32.06033706665039 551.5719604492188" stroke-width="0.0" fill="rgb(64, 67, 73)" opacity="0.99002856"/>
    <path d="M 609.0 544.0 C 606.9903564453125 551.5 601.5 556.9903564453125 594.0 559.0 C 586.5 556.9903564453125 581.0096435546875 551.5 579.0 544.0 C 581.0096435546875 536.5 586.5 531.0096435546875 594.0 529.0 C 601.5 531.0096435546875 606.9903564453125 536.5 609.0 544.0" stroke-width="0.0" fill="rgb(0, 0, 0)" opacity="1.0"/>
    <path d="M 36.05272674560547 48.62621307373047 C 34.25154495239258 54.827518463134766 28.855342864990234 60.32822036743164 21.565372467041016 62.50196838378906 C 14.5 60.990379333496094 9.009618759155273 55.5 7.0 48.0 C 9.009618759155273 40.5 14.5 35.009620666503906 21.810972213745117 33.1375732421875 C 28.881153106689453 35.51853942871094 34.15766143798828 41.234375 36.05272674560547 48.62621307373047" stroke-width="0.0" fill="rgb(2, 4, 3)" opacity="0.990083"/>
    <path d="M 26.157258987426758 60.22366714477539 C 24.100818634033203 67.6148452758789 18.60442543029785 73.07329559326172 11.148715019226074 75.09144592285156 C 4.5 73.9903793334961 -0.9903810620307922 68.5 -3.0 61.0 C -0.9903810620307922 53.5 4.5 48.009620666503906 12.0 46.0 C 19.499996185302734 48.009620666503906 24.990184783935547 53.500057220458984 26.157258987426758 60.22366714477539" stroke-width="0.0" fill="rgb(2, 3, 3)" opacity="0.9901128"/>
    <path d="M 609.9944458007812 534.01220703125 C 607.9903564453125 541.5 602.5 546.9903564453125 595.0 549.0 C 587.5 546.9903564453125 582.0096435546875 541.5 580.8359375 534.7550048828125 C 582.8718872070312 527.33349609375 588.3320922851562 521.8692016601562 595.6461181640625 519.9312133789062 C 602.1237182617188 521.605224609375 607.9051513671875 526.6759033203125 609.9944458007812 534.01220703125" stroke-width="0.0" fill="rgb(60, 67, 78)" opacity="0.99002403"/>
    <path d="M 296.0 315.0 C 293.9903869628906 322.5 288.5 327.9903869628906 281.0 330.0 C 273.5 327.9903869628906 268.009521484375 322.5000305175781 265.9758605957031 314.99298095703125 C 268.00274658203125 307.4970703125 273.4989013671875 302.0091247558594 280.99993896484375 299.9999694824219 C 288.5 302.0096130371094 293.9903869628906 307.5 296.0 315.0" stroke-width="0.0" fill="rgb(28, 31, 34)" opacity="1.0"/>
    <path d="M 36.39417266845703 33.39358139038086 C 34.6280517578125 41.113948822021484 29.094602584838867 46.56486892700195 21.29702377319336 48.284423828125 C 13.5 45.990379333496094 8.009618759155273 40.5 6.0 33.0 C 8.009618759155273 25.5 13.5 20.009618759155273 20.999948501586914 18.000022888183594 C 28.498960494995117 20.01004981994629 33.98161697387695 25.503387451171875 36.39417266845703 33.39358139038086" stroke-width="0.0" fill="rgb(252, 111, 37)" opacity="0.99035823"/>
    <path d="M 591.0 25.0 C 588.9903564453125 32.5 583.5 37.990379333496094 575.9949951171875 40.00303649902344 C 568.4605712890625 38.01423645019531 562.9471435546875 32.55195236206055 561.752685546875 25.313867568969727 C 563.2587280273438 17.60218048095703 568.5238037109375 12.018193244934082 576.0006713867188 10.000249862670898 C 583.5 12.009618759155273 588.9903564453125 17.5 591.0 25.0" stroke-width="0.0" fill="rgb(254, 112, 38)" opacity="0.99218684"/>
    <path d="M 609.0108642578125 566.0189819335938 C 607.0780029296875 573.638671875 601.6654663085938 579.157958984375 594.6357421875 580.1415405273438 C 587.2485961914062 578.2103271484375 581.8093872070312 572.7433471679688 579.8699340820312 565.337890625 C 580.9346313476562 558.3919067382812 586.4007568359375 552.9495239257812 593.9877319335938 550.993408203125 C 601.5 553.0096435546875 606.9903564453125 558.5 609.0108642578125 566.0189819335938" stroke-width="0.0" fill="rgb(255, 116, 42)" opacity="0.9900457"/>
    <path d="M 182.94288635253906 357.9097595214844 C 180.64682006835938 365.01092529296875 174.84146118164062 370.1945495605469 168.62185668945312 372.0455017089844 C 161.34889221191406 370.10089111328125 155.80369567871094 364.6850891113281 153.55075073242188 357.4513854980469 C 155.00961303710938 350.5 160.5 345.0096130371094 168.0 343.0 C 175.5 345.0096130371094 180.99038696289062 350.5 182.94288635253906 357.9097595214844" stroke-width="0.0" fill="rgb(27, 31, 34)" opacity="0.99004155"/>
    <path d="M 296.1654968261719 308.769287109375 C 294.9903869628906 315.5 289.5 320.9903869628906 282.0 323.0 C 274.5001525878906 320.9903259277344 269.0106506347656 315.49957275390625 267.91497802734375 308.8453369140625 C 269.9142761230469 301.3863525390625 275.3879089355469 295.9176330566406 282.2325134277344 293.95806884765625 C 288.6206970214844 295.9117431640625 294.1067810058594 301.3720703125 296.1654968261719 308.769287109375" stroke-width="0.0" fill="rgb(28, 32, 35)" opacity="0.9900155"/>
    <path d="M 600.0 39.0 C 597.9903564453125 46.5 592.5 51.990379333496094 585.0 54.0 C 577.5 51.990379333496094 572.0096435546875 46.5 570.0 39.0 C 572.0096435546875 31.5 577.5 26.009618759155273 585.0 24.0 C 592.5 26.009618759155273 597.9903564453125 31.5 600.0 39.0" stroke-width="0.0" fill="rgb(252, 113, 42)" opacity="1.0"/>
    <path d="M 16.142602920532227 544.5645751953125 C 14.821216583251953 551.33447265625 9.24459457397461 556.5851440429688 1.7025084495544434 558.605712890625 C -5.50291633605957 556.9990234375 -10.990574836730957 551.5005493164062 -12.999621391296387 544.0010986328125 C -10.973990440368652 536.547119140625 -5.275396823883057 531.4807739257812 1.4934086799621582 529.947265625 C 8.89950180053711 531.7540893554688 14.330231666564941 537.05224609375 16.142602920532227 544.5645751953125" stroke-width="0.0" fill="rgb(6, 3, 5)" opacity="0.9900937"/>
    <path d="M 24.024538040161133 586.0184326171875 C 22.034963607788086 593.5409545898438 16.54258155822754 599.0405883789062 9.023665428161621 601.0339965820312 C 1.5005459785461426 598.989501953125 -3.9901154041290283 593.4996337890625 -5.999950408935547 585.9999389648438 C -3.9903810024261475 578.5 1.5 573.0096435546875 9.00005054473877 570.9999389648438 C 16.50010108947754 573.009521484375 21.990449905395508 578.4999389648438 24.024538040161133 586.0184326171875" stroke-width="0.0" fill="rgb(254, 118, 42)" opacity="1.0"/>
    <path d="M 25.0 19.0 C 22.990381240844727 26.5 17.5 31.990381240844727 10.0 34.0 C 2.5 31.990381240844727 -2.9903810024261475 26.5 -5.0 19.0 C -2.9903810024261475 11.5 2.5 6.009618759155273 10.0 4.0 C 17.5 6.009618759155273 22.990381240844727 11.5 25.0 19.0" stroke-width="0.0" fill="rgb(254, 113, 39)" opacity="1.0"/>
    <path d="M 303.5223388671875 326.5017395019531 C 301.2200622558594 333.69940185546875 295.66094970703125 339.1084289550781 288.87823486328125 341.04473876953125 C 282.2409973144531 339.147216796875 276.4900207519531 333.8887939453125 274.10479736328125 326.84112548828125 C 276.0096130371094 319.5 281.5 314.0096130371094 289.0 312.0 C 296.5 314.0096130371094 301.9903869628906 319.5 303.5223388671875 326.5017395019531" stroke-width="0.0" fill="rgb(28, 31, 35)" opacity="0.99004006"/>
    <path d="M 34.99991989135742 19.99991798400879 C 32.9901237487793 27.499719619750977 27.49969482421875 32.99003982543945 19.999876022338867 34.9998664855957 C 12.5 32.990379333496094 7.009618759155273 27.5 5.0 20.0 C 7.009618759155273 12.5 12.5 7.009618759155273 20.0 5.0 C 27.5 7.009618759155273 32.990379333496094 12.5 34.99991989135742 19.99991798400879" stroke-width="0.0" fill="rgb(253, 111, 38)" opacity="0.9999636"/>
    <path d="M 614.0 563.0 C 611.9903564453125 570.5 606.5 575.9903564453125 599.0391235351562 577.94091796875 C 591.57275390625 575.9071044921875 586.1036376953125 570.4241333007812 584.1152954101562 562.9420166015625 C 586.00732421875 555.4991455078125 591.499755859375 550.0095825195312 599.0 548.0 C 606.5 550.0096435546875 611.9903564453125 555.5 614.0 563.0" stroke-width="0.0" fill="rgb(255, 116, 38)" opacity="0.9932505"/>
    <path d="M 177.99063110351562 352.9898986816406 C 175.95361328125 360.45361328125 170.43673706054688 365.8969421386719 163.57574462890625 367.34893798828125 C 156.27084350585938 365.20111083984375 150.75839233398438 359.7418518066406 148.53868103027344 352.5202331542969 C 150.11192321777344 345.58734130859375 155.5922088623047 340.12786865234375 163.0420684814453 338.2186279296875 C 170.48443603515625 340.0444030761719 175.9873809814453 345.5063781738281 177.99063110351562 352.9898986816406" stroke-width="0.0" fill="rgb(26, 29, 32)" opacity="0.9907652"/>
    <path d="M 601.0 44.0 C 598.9903564453125 51.5 593.5 56.990379333496094 585.9602661132812 59.03054428100586 C 578.3206787109375 57.12910461425781 572.7176513671875 51.72681427001953 570.781982421875 44.160552978515625 C 573.0096435546875 36.5 578.5 31.009618759155273 586.0 29.0 C 593.5 31.009618759155273 598.9903564453125 36.5 601.0 44.0" stroke-width="0.0" fill="rgb(33, 8, 2)" opacity="1.0"/>
    <path d="M 192.0542755126953 349.74114990234375 C 190.3842315673828 356.126953125 185.35340881347656 361.95501708984375 177.97811889648438 364.1469421386719 C 170.4673614501953 362.0484313964844 164.99856567382812 356.5187072753906 162.8670654296875 348.93707275390625 C 164.9989471435547 341.6846618652344 170.95497131347656 336.6907653808594 177.2849578857422 334.9508972167969 C 184.6267547607422 336.9056701660156 190.0969696044922 342.3722229003906 192.0542755126953 349.74114990234375" stroke-width="0.0" fill="rgb(28, 32, 35)" opacity="0.9900189"/>
    <path d="M 28.90017318725586 54.98998260498047 C 26.951358795166016 62.47219467163086 21.47600746154785 67.96459197998047 13.98901653289795 69.98429107666016 C 6.5 67.9903793334961 1.0096189975738525 62.5 -1.0 55.0 C 1.0096189975738525 47.5 6.5 42.009620666503906 13.999805450439453 40.000091552734375 C 21.497081756591797 42.010963439941406 26.973617553710938 47.50734329223633 28.90017318725586 54.98998260498047" stroke-width="0.0" fill="rgb(3, 2, 2)" opacity="0.99583066"/>
    <path d="M 312.0370788574219 320.96539306640625 C 310.0807800292969 327.61114501953125 304.6153869628906 333.09136962890625 297.1890869140625 335.12261962890625 C 290.5 333.9903869628906 285.0096130371094 328.5 283.0001220703125 321.0002136230469 C 285.0113220214844 313.5041809082031 290.53021240234375 308.1010437011719 297.1607666015625 306.9317626953125 C 304.61505126953125 308.9141540527344 310.08282470703125 314.38623046875 312.0370788574219 320.96539306640625" stroke-width="0.0" fill="rgb(28, 31, 35)" opacity="0.9900135"/>
    <path d="M 595.0 27.0 C 592.9903564453125 34.5 587.5 39.990379333496094 580.0 42.0 C 572.5 39.990379333496094 567.0096435546875 34.5 565.0 27.0 C 567.0096435546875 19.5 572.5 14.009618759155273 580.0 12.0 C 587.5 14.009618759155273 592.9903564453125 19.5 595.0 27.0" stroke-width="0.0" fill="rgb(254, 110, 35)" opacity="1.0"/>
    <path d="M 597.999267578125 546.9982299804688 C 595.9751586914062 554.463134765625 590.382080078125 559.7273559570312 583.4434814453125 561.1973266601562 C 576.2976684570312 559.2000732421875 570.8644409179688 553.6800537109375 568.9361572265625 546.9970092773438 C 570.8551635742188 540.2918090820312 576.2446899414062 534.7173461914062 583.4090576171875 532.3602294921875 C 590.5001220703125 534.0093383789062 595.9903564453125 539.5 597.999267578125 546.9982299804688" stroke-width="0.0" fill="rgb(58, 69, 81)" opacity="0.9900858"/>
    <path d="M 24.783615112304688 55.6083984375 C 22.69900131225586 63.117740631103516 17.042409896850586 68.47777557373047 9.214014053344727 70.1958999633789 C 1.5 67.9903793334961 -3.9903810024261475 62.5 -6.0 55.0 C -3.9903810024261475 47.5 1.5 42.009620666503906 9.000001907348633 40.0 C 16.50021743774414 42.00955581665039 22.000192642211914 47.49712371826172 24.783615112304688 55.6083984375" stroke-width="0.0" fill="rgb(75, 25, 12)" opacity="1.0"/>
    <path d="M 601.98095703125 545.977294921875 C 599.8508911132812 553.2664184570312 594.11376953125 558.4268798828125 586.6297607421875 560.1705322265625 C 579.8846435546875 558.5473022460938 574.4446411132812 553.117919921875 572.6513061523438 546.0160522460938 C 574.4522705078125 538.8914184570312 579.8909301757812 533.4505615234375 587.1557006835938 531.6044311523438 C 594.38037109375 533.2298583984375 599.957763671875 538.560546875 601.98095703125 545.977294921875" stroke-width="0.0" fill="rgb(49, 58, 67)" opacity="0.99015146"/>
    <path d="M 26.000150680541992 32.99990463256836 C 23.99032974243164 40.49998092651367 18.4999942779541 45.990379333496094 11.0 48.0 C 3.5 45.990379333496094 -1.9903810024261475 40.5 -4.0 33.0 C -1.9903810024261475 25.5 3.5 20.009618759155273 11.0 18.0 C 18.500001907348633 20.009618759155273 23.990407943725586 25.499990463256836 26.000150680541992 32.99990463256836" stroke-width="0.0" fill="rgb(253, 112, 38)" opacity="0.9999669"/>
    <path d="M 610.0 9.0 C 607.9903564453125 16.5 602.5 21.990381240844727 595.0 24.0 C 587.5 21.990381240844727 582.0096435546875 16.5 580.0 9.0 C 582.0096435546875 1.5 587.5 -3.9903810024261475 595.0 -6.0 C 602.5 -3.9903810024261475 607.9903564453125 1.5 610.0 9.0" stroke-width="0.0" fill="rgb(251, 110, 35)" opacity="0.99976194"/>
    <path d="M 18.999956130981445 30.00002670288086 C 16.990381240844727 37.5 11.5 42.990379333496094 4.0 45.0 C -3.5 42.990379333496094 -8.990381240844727 37.5 -11.0 30.0 C -8.990381240844727 22.5 -3.5 17.009618759155273 3.9999985694885254 15.000000953674316 C 11.499991416931152 17.009624481201172 16.9903564453125 22.50001335144043 18.999956130981445 30.00002670288086" stroke-width="0.0" fill="rgb(254, 112, 37)" opacity="0.99999785"/>
    <path d="M 24.0 8.0 C 21.990381240844727 15.500000953674316 16.5 20.990381240844727 9.000102996826172 22.9997615814209 C 1.5001283884048462 20.990192413330078 -3.990309476852417 15.499906539916992 -5.9999847412109375 7.999980926513672 C -3.9903810024261475 0.5 1.5 -4.990381240844727 9.0 -7.0 C 16.5 -4.990381240844727 21.990381240844727 0.5 24.0 8.0" stroke-width="0.0" fill="rgb(254, 112, 37)" opacity="0.99995583"/>
    <path d="M 17.27858543395996 66.74468231201172 C 15.203218460083008 73.67668151855469 9.632278442382812 79.0792236328125 2.1649863719940186 81.03963470458984 C -4.223324775695801 79.46215057373047 -9.961958885192871 74.4250717163086 -11.998748779296875 66.99827575683594 C -9.98339557647705 59.517391204833984 -4.4476823806762695 54.13250732421875 3.1342556476593018 52.269874572753906 C 10.387372016906738 54.037017822265625 15.528112411499023 59.767913818359375 17.27858543395996 66.74468231201172" stroke-width="0.0" fill="rgb(2, 3, 2)" opacity="0.99001914"/>
    <path d="M 612.0 18.0 C 609.9903564453125 25.5 604.5 30.990381240844727 597.0 33.0 C 589.5 30.990381240844727 584.0096435546875 25.5 582.0 18.0 C 584.0096435546875 10.5 589.5 5.009618759155273 597.0 3.0 C 604.5 5.009618759155273 609.9903564453125 10.5 612.0 18.0" stroke-width="0.0" fill="rgb(253, 109, 36)" opacity="0.9999994"/>
    <path d="M 16.90402603149414 578.9952392578125 C 14.955216407775879 586.4781494140625 9.485493659973145 591.9801025390625 1.9974757432937622 593.9978637695312 C -5.499993801116943 591.9903564453125 -10.990381240844727 586.5 -13.0 579.0 C -10.990382194519043 571.5 -5.500007152557373 566.0096435546875 1.9993849992752075 564.0001220703125 C 9.494261741638184 566.0127563476562 14.967585563659668 571.511474609375 16.90402603149414 578.9952392578125" stroke-width="0.0" fill="rgb(253, 118, 40)" opacity="0.9966398"/>
    <path d="M 593.0 35.0 C 590.9903564453125 42.5 585.5 47.990379333496094 578.0 50.0 C 570.5 47.990379333496094 565.0091552734375 42.50014114379883 562.887939453125 34.972137451171875 C 564.995361328125 27.495586395263672 570.49951171875 22.009557723999023 578.0 20.000015258789062 C 585.5 22.009618759155273 590.9903564453125 27.5 593.0 35.0" stroke-width="0.0" fill="rgb(197, 97, 49)" opacity="1.0"/>
    <path d="M 20.000001907348633 39.0 C 17.990459442138672 46.500267028808594 12.503923416137695 52.003841400146484 4.449493408203125 54.779056549072266 C -2.879802942276001 52.57247543334961 -8.09465503692627 46.699161529541016 -10.0084810256958 39.01715850830078 C -7.990372657775879 31.500017166137695 -2.4999613761901855 26.009700775146484 5.000041961669922 24.000314712524414 C 12.499999046325684 26.009634017944336 17.990386962890625 31.499996185302734 20.000001907348633 39.0" stroke-width="0.0" fill="rgb(255, 113, 37)" opacity="1.0"/>
    <path d="M 41.09626007080078 14.032551765441895 C 39.044193267822266 21.533571243286133 33.5223503112793 27.006221771240234 26.003955841064453 29.003028869628906 C 18.500036239624023 26.990388870239258 13.009735107421875 21.499927520751953 11.000113487243652 13.999935150146484 C 13.009618759155273 6.5 18.5 1.0096189975738525 26.000001907348633 -1.000001311302185 C 33.50007629394531 1.009590744972229 38.99202346801758 6.49948263168335 41.09626007080078 14.032551765441895" stroke-width="0.0" fill="rgb(252, 113, 42)" opacity="1.0"/>
    <path d="M 610.0 38.0 C 607.9903564453125 45.5 602.5 50.990379333496094 595.0 53.0 C 587.5 50.990379333496094 582.0096435546875 45.5 580.0 38.0 C 582.0096435546875 30.5 587.5 25.009618759155273 595.0 23.0 C 602.5 25.009618759155273 607.9903564453125 30.5 610.0 38.0" stroke-width="0.0" fill="rgb(252, 110, 36)" opacity="1.0"/>
    <path d="M 602.0083618164062 8.993699073791504 C 599.9901123046875 16.499834060668945 594.4998779296875 21.99029541015625 587.0 23.999984741210938 C 579.5 21.990381240844727 574.0096435546875 16.5 571.9999389648438 8.999960899353027 C 574.0095825195312 1.4999605417251587 579.5 -3.9903922080993652 587.001708984375 -6.001375675201416 C 594.5082397460938 -3.9967756271362305 600.0043334960938 1.4895007610321045 602.0083618164062 8.993699073791504" stroke-width="0.0" fill="rgb(249, 109, 37)" opacity="1.0"/>
    <path d="M 593.0 36.0 C 590.9903564453125 43.5 585.5 48.990379333496094 578.3174438476562 51.3156623840332 C 571.263427734375 48.26078796386719 565.8314208984375 42.709354400634766 563.8706665039062 35.423954010009766 C 565.4757080078125 28.77536964416504 570.6319580078125 23.076200485229492 578.0106201171875 21.005239486694336 C 585.5 23.009618759155273 590.9903564453125 28.5 593.0 36.0" stroke-width="0.0" fill="rgb(107, 47, 22)" opacity="0.9900868"/>
    <path d="M 352.7990417480469 395.12127685546875 C 350.6198425292969 403.08099365234375 345.0845642089844 408.6292419433594 337.85809326171875 409.1222839355469 C 330.37640380859375 407.0893859863281 324.90216064453125 401.6273193359375 322.9590148925781 395.31243896484375 C 324.9024353027344 388.3564147949219 330.322998046875 382.797607421875 336.2585754394531 380.845947265625 C 343.8677673339844 382.8127136230469 350.4186706542969 387.742431640625 352.7990417480469 395.12127685546875" stroke-width="0.0" fill="rgb(14, 49, 14)" opacity="0.990023"/>
    <path d="M 592.0045166015625 24.00748062133789 C 590.0213012695312 31.54188346862793 584.4906616210938 36.84490203857422 576.4710083007812 38.29428482055664 C 568.8419189453125 37.68202209472656 563.3903198242188 32.1347541809082 561.644775390625 24.349197387695312 C 564.009765625 16.500038146972656 569.5 11.00961971282959 577.0 9.0 C 584.5 11.009618759155273 589.9903564453125 16.5 592.0045166015625 24.00748062133789" stroke-width="0.0" fill="rgb(250, 112, 37)" opacity="0.9906223"/>
    <path d="M 30.902921676635742 44.81122589111328 C 28.870502471923828 52.344093322753906 23.320581436157227 57.80514907836914 15.702855110168457 58.18862533569336 C 7.332212924957275 56.642757415771484 1.653714895248413 51.83571243286133 -0.1419704556465149 44.15472412109375 C 2.0109095573425293 36.50117492675781 7.501269817352295 31.011245727539062 15.001167297363281 29.0028018951416 C 22.50585174560547 31.006755828857422 28.031864166259766 36.48313522338867 30.902921676635742 44.81122589111328" stroke-width="0.0" fill="rgb(250, 108, 36)" opacity="0.990046"/>
    <path d="M 26.999967575073242 1.9998890161514282 C 24.990198135375977 9.499844551086426 19.499845504760742 14.990200996398926 12.000065803527832 16.999412536621094 C 4.500086307525635 14.990212440490723 -0.990374743938446 9.499960899353027 -3.0000181198120117 2.000007152557373 C -0.9903810620307922 -5.5 4.5 -10.990381240844727 12.0 -13.0 C 19.500001907348633 -10.990382194519043 24.990400314331055 -5.500006198883057 26.999967575073242 1.9998890161514282" stroke-width="0.0" fill="rgb(253, 110, 38)" opacity="0.9997758"/>
    <path d="M 296.0212097167969 315.98968505859375 C 293.9903564453125 323.4999694824219 288.4999694824219 328.9903564453125 280.9919738769531 331.01263427734375 C 273.48590087890625 329.00738525390625 267.9969787597656 323.5128479003906 266.01434326171875 316.0120849609375 C 268.0176086425781 308.5035705566406 273.5014953613281 303.01031494140625 281.0007629394531 300.9996032714844 C 288.5049133300781 303.0065612792969 294.005126953125 308.4916687011719 296.0212097167969 315.98968505859375" stroke-width="0.0" fill="rgb(28, 32, 35)" opacity="0.9990316"/>
    <path d="M 592.0000610351562 18.999969482421875 C 589.9903564453125 26.5 584.5 31.990381240844727 577.0 34.0 C 569.5 31.990381240844727 564.0096435546875 26.5 562.0010375976562 19.00122833251953 C 564.0138549804688 11.504974365234375 569.5057983398438 6.016571521759033 577.0027465820312 4.003490924835205 C 584.5 6.009606838226318 589.9904174804688 11.499980926513672 592.0000610351562 18.999969482421875" stroke-width="0.0" fill="rgb(252, 112, 37)" opacity="0.9999434"/>
    <path d="M 590.9999389648438 20.000024795532227 C 588.9903564453125 27.499996185302734 583.5 32.99031066894531 575.9955444335938 35.00165557861328 C 568.4883422851562 33.00337600708008 562.9973754882812 27.511474609375 561.0396728515625 20.0235595703125 C 563.04736328125 12.529043197631836 568.5248413085938 7.032927513122559 576.0079956054688 5.008844375610352 C 583.5 7.009636878967285 588.9902954101562 12.500019073486328 590.9999389648438 20.000024795532227" stroke-width="0.0" fill="rgb(250, 113, 37)" opacity="0.99529505"/>
    <path d="M 611.0001220703125 32.00026321411133 C 608.9921264648438 39.50372314453125 603.5082397460938 45.00764465332031 595.8946533203125 47.12164306640625 C 588.1383666992188 45.30649948120117 582.5355834960938 39.91086196899414 580.648681640625 32.281734466552734 C 583.0096435546875 24.50001335144043 588.5 19.009614944458008 596.0 16.999879837036133 C 603.5 19.009599685668945 608.9903564453125 24.499998092651367 611.0001220703125 32.00026321411133" stroke-width="0.0" fill="rgb(255, 112, 36)" opacity="1.0"/>
    <path d="M 604.4913940429688 54.65349197387695 C 602.2279663085938 61.69208908081055 596.64208984375 67.08551025390625 589.8385009765625 69.03500366210938 C 583.4119262695312 67.06537628173828 577.9374389648438 61.5870246887207 575.9580688476562 54.148963928222656 C 577.680419921875 48.05472183227539 583.0162353515625 42.60287857055664 589.5785522460938 40.900657653808594 C 596.8133544921875 42.775794982910156 602.4352416992188 48.11526870727539 604.4913940429688 54.65349197387695" stroke-width="0.0" fill="rgb(2, 2, 3)" opacity="0.99000865"/>
    <path d="M 614.0 546.0 C 611.9899291992188 553.49853515625 606.4853515625 558.9430541992188 599.4318237304688 560.2238159179688 C 591.7365112304688 558.54638671875 586.0282592773438 553.4201049804688 584.5765991210938 546.3543701171875 C 586.5220336914062 538.95361328125 591.9410400390625 533.48486328125 599.2857666015625 531.4603881835938 C 606.49755859375 533.0177001953125 611.9902954101562 538.500244140625 614.0 546.0" stroke-width="0.0" fill="rgb(79, 39, 16)" opacity="0.9901881"/>
  </g>
</svg>
