<?xml version="1.0" ?>
<svg xmlns="http://www.w3.org/2000/svg" version="1.1" width="600" height="600">
  <defs/>
  <g>
    <path d="M 352.5808410644531 237.4547119140625 C 350.9903869628906 244.5 345.5 249.99038696289062 338.0 252.0 C 330.5 249.99038696289062 325.0096130371094 244.5 323.0163879394531 237.03424072265625 C 325.2056579589844 229.84597778320312 331.06884765625 224.76080322265625 337.2749938964844 222.96043395996094 C 344.6548156738281 224.90426635742188 350.2402038574219 230.29446411132812 352.5808410644531 237.4547119140625" stroke-width="0.0" fill="rgb(6, 2, 2)" opacity="0.99004686"/>
    <path d="M 357.4556579589844 324.1434326171875 C 355.8834533691406 331.45831298828125 350.4888000488281 336.9861145019531 342.99957275390625 338.99981689453125 C 335.5 336.9903869628906 330.0096130371094 331.5 328.0 324.0 C 330.0096130371094 316.5 335.5 311.0096130371094 342.9918518066406 309.00433349609375 C 350.4152526855469 311.0552062988281 355.7046203613281 316.6625061035156 357.4556579589844 324.1434326171875" stroke-width="0.0" fill="rgb(255, 181, 113)" opacity="0.9904324"/>
    <path d="M 299.0 328.0 C 296.9903869628906 335.5 291.5 340.9903869628906 284.0 343.0 C 276.5 340.9903869628906 271.0096130371094 335.5 269.0 328.0 C 271.0096130371094 320.5 276.5 315.0096130371094 284.0 313.0 C 291.5 315.0096130371094 296.9903869628906 320.5 299.0 328.0" stroke-width="0.0" fill="rgb(206, 208, 206)" opacity="1.0"/>
    <path d="M 262.0390930175781 296.040283203125 C 260.1037902832031 303.6137390136719 254.61183166503906 309.0971374511719 247.0349884033203 311.0290832519531 C 239.5 308.9903869628906 234.00961303710938 303.5 232.0 296.0 C 234.00961303710938 288.5 239.5 283.0096130371094 247.0 281.0 C 254.5 283.0096130371094 259.9903869628906 288.5 262.0390930175781 296.040283203125" stroke-width="0.0" fill="rgb(253, 174, 106)" opacity="1.0"/>
    <path d="M 222.28501892089844 255.1404571533203 C 220.13661193847656 262.5656433105469 214.5240020751953 268.0003967285156 207.0011749267578 270.00048828125 C 199.5 267.9903869628906 194.00961303710938 262.5 192.0 255.0 C 194.00961303710938 247.5 199.5 242.00961303710938 207.0 240.0 C 214.5 242.00961303710938 219.99038696289062 247.5 222.28501892089844 255.1404571533203" stroke-width="0.0" fill="rgb(0, 0, 0)" opacity="1.0"/>
    <path d="M 317.6341857910156 278.453857421875 C 315.53436279296875 285.8973693847656 309.77593994140625 291.1803283691406 302.0480651855469 293.0318908691406 C 294.5 290.9903869628906 289.0096130371094 285.5 287.0 278.0 C 289.0096130371094 270.5 294.5 265.0096130371094 302.0 263.0 C 309.5 265.0096130371094 314.9903869628906 270.5 317.6341857910156 278.453857421875" stroke-width="0.0" fill="rgb(255, 178, 112)" opacity="0.9998977"/>
    <path d="M 306.0 285.0 C 303.9903869628906 292.5 298.5 297.9903869628906 291.0 300.0 C 283.5 297.9903869628906 278.0096130371094 292.5 276.0 285.0 C 278.0096130371094 277.5 283.5 272.0096130371094 291.0 270.0 C 298.5 272.0096130371094 303.9903869628906 277.5 306.0 285.0" stroke-width="0.0" fill="rgb(255, 179, 113)" opacity="1.0"/>
    <path d="M 342.0 271.0 C 339.9903869628906 278.5 334.5 283.9903869628906 326.967529296875 286.0301818847656 C 319.3958740234375 284.08758544921875 313.8912353515625 278.61053466796875 311.9507751464844 271.0456848144531 C 314.0096130371094 263.5 319.5 258.0096130371094 327.0 256.0 C 334.5 258.0096130371094 339.9903869628906 263.5 342.0 271.0" stroke-width="0.0" fill="rgb(255, 178, 111)" opacity="1.0"/>
    <path d="M 298.0 336.0 C 295.9903869628906 343.5 290.4999084472656 348.99005126953125 282.81121826171875 351.169189453125 C 275.1518249511719 349.3756408691406 269.6328430175781 343.844482421875 267.390380859375 336.24224853515625 C 269.967529296875 328.4839782714844 275.495361328125 323.0074768066406 282.99969482421875 320.9998474121094 C 290.5 323.0096130371094 295.9903869628906 328.5 298.0 336.0" stroke-width="0.0" fill="rgb(255, 255, 255)" opacity="0.9917935"/>
    <path d="M 287.0 273.0 C 284.9903869628906 280.5 279.5 285.9903869628906 272.0 288.0 C 264.5 285.9903869628906 259.0096130371094 280.5 257.0 273.0 C 259.0096130371094 265.5 264.5 260.0096130371094 272.0 258.0 C 279.5 260.0096130371094 284.9903869628906 265.5 287.0 273.0" stroke-width="0.0" fill="rgb(255, 179, 111)" opacity="0.9944655"/>
    <path d="M 246.0 308.0 C 243.99038696289062 315.5 238.5 320.9903869628906 231.0 323.0 C 223.5 320.9903869628906 218.00961303710938 315.5 216.0 308.0 C 218.00961303710938 300.5 223.5 295.0096130371094 231.0 293.0 C 238.5 295.0096130371094 243.99038696289062 300.5 246.0 308.0" stroke-width="0.0" fill="rgb(255, 178, 103)" opacity="1.0"/>
    <path d="M 307.0 289.0 C 304.9903869628906 296.5 299.5 301.9903869628906 292.0 304.0 C 284.5 301.9903869628906 279.0096130371094 296.5 276.9999694824219 289.0 C 279.00958251953125 281.5 284.5 276.0096130371094 292.0 274.0 C 299.5 276.0096130371094 304.9903869628906 281.5 307.0 289.0" stroke-width="0.0" fill="rgb(255, 179, 112)" opacity="1.0"/>
    <path d="M 306.0 312.0 C 303.9903869628906 319.5 298.5 324.9903869628906 291.0 327.0 C 283.5 324.9903869628906 278.0096130371094 319.5 276.0 312.0 C 278.0096130371094 304.5 283.5 299.0096130371094 291.0 297.0 C 298.5 299.0096130371094 303.9903869628906 304.5 306.0 312.0" stroke-width="0.0" fill="rgb(19, 5, 0)" opacity="1.0"/>
    <path d="M 223.0 269.0 C 220.99038696289062 276.5 215.5 281.9903869628906 208.0 284.0 C 200.5 281.9903869628906 195.00961303710938 276.5 193.0 269.0 C 195.00961303710938 261.5 200.5 256.0096130371094 208.0 254.0 C 215.5 256.0096130371094 220.99038696289062 261.5 223.0 269.0" stroke-width="0.0" fill="rgb(0, 0, 0)" opacity="1.0"/>
    <path d="M 320.7295227050781 330.5477294921875 C 318.59503173828125 337.9208068847656 312.7499084472656 343.1300964355469 305.0248718261719 345.0119934082031 C 297.5 342.9903869628906 292.0096130371094 337.5 290.0 330.0 C 292.0096130371094 322.5 297.5 317.0096130371094 305.0 315.0 C 312.5 317.0096130371094 317.9903869628906 322.5 320.7295227050781 330.5477294921875" stroke-width="0.0" fill="rgb(253, 252, 249)" opacity="1.0"/>
    <path d="M 409.0328063964844 268.09967041015625 C 407.08551025390625 274.63189697265625 401.66339111328125 280.17333984375 394.41571044921875 282.4130859375 C 387.5 280.9903869628906 382.0096130371094 275.5 379.9642028808594 267.93316650390625 C 381.70623779296875 260.03350830078125 386.84661865234375 254.21177673339844 394.1015625 253.91473388671875 C 401.6125183105469 255.9161834716797 407.07586669921875 261.39105224609375 409.0328063964844 268.09967041015625" stroke-width="0.0" fill="rgb(2, 2, 2)" opacity="0.9900093"/>
    <path d="M 305.0007019042969 339.00140380859375 C 302.99578857421875 346.5055847167969 297.4367370605469 351.7799072265625 289.4725646972656 353.18646240234375 C 282.40570068359375 352.1781311035156 276.9940490722656 346.540283203125 274.9833984375 338.9833984375 C 276.95489501953125 331.4416198730469 282.4382629394531 325.94378662109375 289.9756774902344 323.9739990234375 C 297.5 326.0096130371094 302.9903869628906 331.5 305.0007019042969 339.00140380859375" stroke-width="0.0" fill="rgb(255, 252, 252)" opacity="1.0"/>
    <path d="M 253.0 245.0 C 250.99038696289062 252.5 245.5 257.9903869628906 238.0 260.0 C 230.5 257.9903869628906 225.00961303710938 252.5 223.0 245.0 C 225.00961303710938 237.5 230.5 232.00961303710938 238.0 230.0 C 245.5 232.00961303710938 250.99038696289062 237.5 253.0 245.0" stroke-width="0.0" fill="rgb(255, 255, 255)" opacity="1.0"/>
    <path d="M 244.0 232.0 C 241.99038696289062 239.5 236.5 244.99038696289062 229.0 247.0 C 221.5 244.99038696289062 216.00961303710938 239.5 214.0 232.0 C 216.00961303710938 224.5 221.5 219.00961303710938 229.0 217.0 C 236.5 219.00961303710938 241.99038696289062 224.5 244.0 232.0" stroke-width="0.0" fill="rgb(15, 15, 14)" opacity="1.0"/>
    <path d="M 384.0 245.0 C 381.9903869628906 252.5 376.5 257.9903869628906 369.0 260.0 C 361.5 257.9903869628906 356.0096130371094 252.5 354.0 245.0 C 356.0096130371094 237.5 361.5 232.00961303710938 369.0 230.0 C 376.5 232.00961303710938 381.9903869628906 237.5 384.0 245.0" stroke-width="0.0" fill="rgb(255, 255, 255)" opacity="1.0"/>
    <path d="M 307.0 292.0 C 304.9903869628906 299.5 299.5 304.9903869628906 292.0 307.0 C 284.5 304.9903869628906 279.0096130371094 299.5 277.0 292.0 C 279.0096130371094 284.5 284.5 279.0096130371094 292.0 277.0 C 299.5 279.0096130371094 304.9903869628906 284.5 307.0 292.0" stroke-width="0.0" fill="rgb(255, 180, 113)" opacity="1.0"/>
    <path d="M 324.94439697265625 242.07310485839844 C 322.9903869628906 249.5 317.5 254.99038696289062 310.0 257.0 C 302.5 254.99038696289062 297.0096130371094 249.5 295.0274963378906 242.03851318359375 C 297.1568603515625 234.7081756591797 302.7996520996094 229.4348907470703 309.8011779785156 227.71983337402344 C 317.0843505859375 229.54779052734375 322.74688720703125 234.8174591064453 324.94439697265625 242.07310485839844" stroke-width="0.0" fill="rgb(255, 178, 111)" opacity="0.9901601"/>
    <path d="M 379.0 238.0 C 376.9903869628906 245.5 371.5 250.99038696289062 364.0 253.0 C 356.5 250.99038696289062 351.0096130371094 245.5 348.98040771484375 237.9832763671875 C 350.9724426269531 230.4804229736328 356.47747802734375 224.95523071289062 363.8104248046875 222.5546112060547 C 371.5000305175781 225.00955200195312 376.9903869628906 230.5 379.0 238.0" stroke-width="0.0" fill="rgb(255, 255, 255)" opacity="0.99350417"/>
    <path d="M 303.0 271.0 C 300.9903869628906 278.5 295.5 283.9903869628906 287.9990234375 286.0004577636719 C 280.48699951171875 283.99664306640625 274.9529113769531 278.52789306640625 272.72589111328125 270.9433898925781 C 274.93609619140625 263.4720764160156 280.4927062988281 258.0069580078125 287.9997863769531 255.9999237060547 C 295.5 258.0096130371094 300.9903869628906 263.5 303.0 271.0" stroke-width="0.0" fill="rgb(255, 179, 112)" opacity="1.0"/>
    <path d="M 355.0 304.0 C 352.9903869628906 311.5 347.5 316.9903869628906 340.0 319.0 C 332.5 316.9903869628906 327.0096130371094 311.5 325.0 304.0 C 327.0096130371094 296.5 332.5 291.0096130371094 340.0 289.0 C 347.5 291.0096130371094 352.9903869628906 296.5 355.0 304.0" stroke-width="0.0" fill="rgb(255, 180, 110)" opacity="1.0"/>
    <path d="M 377.0969543457031 258.1410827636719 C 375.42034912109375 266.04736328125 370.16455078125 271.7625732421875 362.6696472167969 273.7893371582031 C 354.5 270.9903869628906 349.0096130371094 265.5 347.0 258.0 C 349.0096130371094 250.5 354.5 245.00961303710938 362.0 243.0 C 369.5 245.00961303710938 374.9903869628906 250.5 377.0969543457031 258.1410827636719" stroke-width="0.0" fill="rgb(0, 0, 0)" opacity="1.0"/>
    <path d="M 266.9584045410156 219.05654907226562 C 264.9903869628906 226.5 259.5 231.99038696289062 252.0 234.0 C 244.5 231.99038696289062 239.00961303710938 226.5 236.9998779296875 218.99972534179688 C 239.0081024169922 211.49729919433594 244.50518798828125 206.0375213623047 251.613037109375 204.70606994628906 C 259.1180114746094 206.52830505371094 264.788330078125 211.77491760253906 266.9584045410156 219.05654907226562" stroke-width="0.0" fill="rgb(255, 181, 115)" opacity="0.99043906"/>
    <path d="M 284.0 316.0 C 281.9903869628906 323.5 276.5 328.9903869628906 269.0 331.0 C 261.5 328.9903869628906 256.0096130371094 323.5 254.0191650390625 316.014404296875 C 256.0423583984375 308.52471923828125 261.5191955566406 303.0240478515625 269.0037536621094 301.0028076171875 C 276.5 303.0096130371094 281.9903869628906 308.5 284.0 316.0" stroke-width="0.0" fill="rgb(220, 221, 221)" opacity="1.0"/>
    <path d="M 399.0136413574219 267.97650146484375 C 396.9903869628906 275.5 391.5 280.9903869628906 383.9767150878906 283.0113220214844 C 376.2364807128906 281.1314392089844 370.3343200683594 275.9745178222656 368.1736755371094 268.6614685058594 C 371.0096130371094 260.5 376.5 255.00961303710938 384.26611328125 252.6125030517578 C 391.7677001953125 254.62037658691406 397.0999450683594 260.323486328125 399.0136413574219 267.97650146484375" stroke-width="0.0" fill="rgb(1, 1, 1)" opacity="1.0"/>
    <path d="M 380.12689208984375 237.8812713623047 C 377.9903869628906 245.5 372.5 250.99038696289062 365.0 253.0 C 357.5 250.99038696289062 352.0096130371094 245.5 350.0 238.0 C 352.0096130371094 230.5 357.49993896484375 225.0094451904297 365.15972900390625 222.7386016845703 C 372.7698059082031 224.7300262451172 378.267822265625 230.2304229736328 380.12689208984375 237.8812713623047" stroke-width="0.0" fill="rgb(252, 251, 252)" opacity="0.99316686"/>
    <path d="M 308.0 280.0 C 305.9903869628906 287.5 300.5 292.9903869628906 293.0 295.0 C 285.5 292.9903869628906 280.0096130371094 287.5 278.00006103515625 280.0 C 280.00958251953125 272.5 285.5 267.0096130371094 293.0 265.0 C 300.5 267.0096130371094 305.9903869628906 272.5 308.0 280.0" stroke-width="0.0" fill="rgb(255, 178, 112)" opacity="0.9999993"/>
    <path d="M 309.0 282.0 C 306.9903869628906 289.5 301.5 294.9903869628906 294.0 297.0 C 286.5 294.9903869628906 281.0096130371094 289.5 279.0 282.0 C 281.0096130371094 274.5 286.5 269.0096130371094 294.0 267.0 C 301.5 269.0096130371094 306.9903869628906 274.5 309.0 282.0" stroke-width="0.0" fill="rgb(255, 178, 112)" opacity="0.9999999"/>
    <path d="M 388.0 255.0 C 385.9903869628906 262.5 380.5 267.9903869628906 373.0 270.0 C 365.5 267.9903869628906 360.0096130371094 262.5 358.0 255.0 C 360.0096130371094 247.5 365.5 242.00961303710938 373.0 240.0 C 380.5 242.00961303710938 385.9903869628906 247.5 388.0 255.0" stroke-width="0.0" fill="rgb(0, 0, 0)" opacity="1.0"/>
    <path d="M 249.00009155273438 298.0000305175781 C 246.99041748046875 305.5 241.5 310.9903869628906 234.0 313.0 C 226.5 310.9903869628906 221.00961303710938 305.5 219.0 298.0 C 221.00961303710938 290.5 226.5 285.0096130371094 234.0 283.0 C 241.5 285.0096130371094 246.99038696289062 290.5 249.00009155273438 298.0000305175781" stroke-width="0.0" fill="rgb(255, 181, 108)" opacity="1.0"/>
    <path d="M 335.0000915527344 302.99957275390625 C 332.9903869628906 310.5 327.5 315.9903869628906 320.0 318.0 C 312.5 315.9903869628906 307.0096130371094 310.5 304.9913024902344 302.98370361328125 C 306.92364501953125 295.3485107421875 312.2467956542969 289.61761474609375 319.8155212402344 287.5899963378906 C 327.5634765625 289.8592834472656 332.9970703125 295.4805908203125 335.0000915527344 302.99957275390625" stroke-width="0.0" fill="rgb(245, 69, 40)" opacity="0.9901292"/>
    <path d="M 314.0 262.0 C 311.9903869628906 269.5 306.5 274.9903869628906 299.0 277.0 C 291.5 274.9903869628906 286.0096130371094 269.5 284.0 262.0 C 286.0096130371094 254.5 291.5 249.00961303710938 299.0 247.0 C 306.5 249.00961303710938 311.9903869628906 254.5 314.0 262.0" stroke-width="0.0" fill="rgb(255, 176, 111)" opacity="1.0"/>
    <path d="M 367.0 264.0 C 364.9903869628906 271.5 359.5 276.9903869628906 352.0 279.0 C 344.5 276.9903869628906 339.0096130371094 271.5 337.0 264.0 C 339.0096130371094 256.5 344.5 251.00961303710938 352.0 249.0 C 359.5 251.00961303710938 364.9903869628906 256.5 367.0 264.0" stroke-width="0.0" fill="rgb(0, 0, 0)" opacity="1.0"/>
    <path d="M 351.0 278.0 C 348.9903869628906 285.5 343.5 290.9903869628906 336.0 293.0 C 328.5 290.9903869628906 323.0096130371094 285.5 321.0 278.0 C 323.0096130371094 270.5 328.5 265.0096130371094 336.0 263.0 C 343.5 265.0096130371094 348.9903869628906 270.5 351.0 278.0" stroke-width="0.0" fill="rgb(255, 185, 120)" opacity="1.0"/>
    <path d="M 261.9986877441406 220.00193786621094 C 259.9903869628906 227.5 254.5 232.99038696289062 247.0 235.0 C 239.5 232.99038696289062 234.00961303710938 227.5 232.0001678466797 220.00045776367188 C 234.01483154296875 212.5142364501953 239.55484008789062 207.14883422851562 247.1802520751953 205.3657989501953 C 254.48023986816406 207.04010009765625 259.98187255859375 212.51318359375 261.9986877441406 220.00193786621094" stroke-width="0.0" fill="rgb(255, 181, 111)" opacity="0.99258673"/>
    <path d="M 253.0 254.0 C 250.99038696289062 261.5 245.5 266.9903869628906 237.9165496826172 269.0557861328125 C 230.1138458251953 267.2798156738281 224.41685485839844 261.984619140625 222.4699249267578 254.42095947265625 C 225.00961303710938 246.5 230.5 241.00961303710938 238.0 239.0 C 245.5 241.00961303710938 250.99038696289062 246.5 253.0 254.0" stroke-width="0.0" fill="rgb(0, 0, 0)" opacity="1.0"/>
    <path d="M 216.9994659423828 245.00152587890625 C 214.99038696289062 252.5 209.5 257.9903869628906 202.00013732910156 259.9999694824219 C 194.5102996826172 257.9871826171875 189.24278259277344 252.41543579101562 187.9508819580078 245.85736083984375 C 189.9274139404297 238.3992919921875 195.4007110595703 232.93040466308594 202.82640075683594 230.96054077148438 C 209.23634338378906 232.5300750732422 214.9686737060547 237.56129455566406 216.9994659423828 245.00152587890625" stroke-width="0.0" fill="rgb(3, 2, 2)" opacity="0.9900404"/>
    <path d="M 220.978271484375 245.0448455810547 C 218.99038696289062 252.5 213.5 257.9903869628906 206.0 260.0 C 198.5 257.9903869628906 193.00961303710938 252.5 191.00575256347656 245.0062255859375 C 193.04055786132812 237.56089782714844 198.716796875 232.45419311523438 205.27944946289062 230.9495849609375 C 212.8681182861328 232.80618286132812 218.74766540527344 237.90907287597656 220.978271484375 245.0448455810547" stroke-width="0.0" fill="rgb(2, 2, 2)" opacity="0.9901896"/>
    <path d="M 255.0342254638672 218.9683380126953 C 252.99038696289062 226.5 247.5 231.99038696289062 240.0 234.0 C 232.5 231.99038696289062 227.00961303710938 226.5 225.00099182128906 219.0022430419922 C 227.02749633789062 211.54161071777344 232.61488342285156 206.25460815429688 239.90902709960938 204.67843627929688 C 247.40423583984375 206.30235290527344 253.06222534179688 211.46780395507812 255.0342254638672 218.9683380126953" stroke-width="0.0" fill="rgb(255, 193, 125)" opacity="0.9909561"/>
    <path d="M 246.0 228.0 C 243.99038696289062 235.5 238.5 240.99038696289062 231.0 243.0 C 223.5 240.99038696289062 218.00961303710938 235.5 216.8332977294922 228.72377014160156 C 218.81613159179688 221.19590759277344 224.0629425048828 215.43492126464844 231.12782287597656 213.08062744140625 C 238.5 215.00961303710938 243.99038696289062 220.5 246.0 228.0" stroke-width="0.0" fill="rgb(3, 3, 2)" opacity="0.9908075"/>
    <path d="M 241.5280303955078 285.5553283691406 C 239.3006134033203 292.8241271972656 233.8326416015625 298.3282165527344 226.60609436035156 300.60345458984375 C 219.5 298.9903869628906 214.00961303710938 293.5 212.0 286.0 C 214.00961303710938 278.5 219.5 273.0096130371094 227.0 271.0 C 234.5 273.0096130371094 239.99038696289062 278.5 241.5280303955078 285.5553283691406" stroke-width="0.0" fill="rgb(2, 2, 1)" opacity="0.990811"/>
    <path d="M 346.34979248046875 237.60496520996094 C 343.9903869628906 245.5 338.5 250.99038696289062 331.0 253.0 C 323.5000305175781 250.99037170410156 318.0096740722656 245.4999542236328 316.2942199707031 238.26956176757812 C 318.521240234375 231.01336669921875 324.0455322265625 225.6186065673828 331.799560546875 222.23965454101562 C 339.31280517578125 224.1461639404297 344.6986083984375 229.73846435546875 346.34979248046875 237.60496520996094" stroke-width="0.0" fill="rgb(255, 179, 112)" opacity="0.9904187"/>
    <path d="M 346.0 269.0 C 343.9903869628906 276.5 338.5 281.9903869628906 331.0 284.0 C 323.5 281.9903869628906 318.0096130371094 276.5 316.0 269.0 C 318.0096130371094 261.5 323.5 256.0096130371094 331.0 254.0 C 338.5 256.0096130371094 343.9903869628906 261.5 346.0 269.0" stroke-width="0.0" fill="rgb(254, 183, 118)" opacity="1.0"/>
    <path d="M 221.99984741210938 286.99957275390625 C 219.9853057861328 294.4860534667969 214.44482421875 299.849365234375 207.40591430664062 301.31011962890625 C 200.10910034179688 299.3386535644531 194.6455078125 293.8966369628906 192.7836151123047 286.9860534667969 C 194.5199432373047 279.83905029296875 199.701171875 274.128662109375 207.02410888671875 272.0138244628906 C 214.5 274.0096130371094 219.99038696289062 279.5 221.99984741210938 286.99957275390625" stroke-width="0.0" fill="rgb(255, 179, 106)" opacity="0.9900727"/>
    <path d="M 250.00132751464844 279.00250244140625 C 248.00460815429688 286.52679443359375 242.5500946044922 292.08209228515625 235.06082153320312 294.11065673828125 C 227.5 291.9903869628906 222.00961303710938 286.5 220.0 279.0 C 222.00961303710938 271.5 227.5 266.0096130371094 235.0 264.0 C 242.5 266.0096130371094 247.99038696289062 271.5 250.00132751464844 279.00250244140625" stroke-width="0.0" fill="rgb(1, 1, 1)" opacity="1.0"/>
    <path d="M 221.99996948242188 264.0000305175781 C 219.99038696289062 271.5 214.5 276.9903869628906 207.0 279.0 C 199.5 276.9903869628906 194.00961303710938 271.5 192.8776397705078 264.7007141113281 C 194.5616912841797 256.8056335449219 199.5983428955078 251.04945373535156 207.00405883789062 249.0016326904297 C 214.4999237060547 251.0096893310547 219.9903106689453 256.50006103515625 221.99996948242188 264.0000305175781" stroke-width="0.0" fill="rgb(2, 2, 3)" opacity="0.9924396"/>
    <path d="M 240.0 236.0 C 237.99038696289062 243.5 232.5 248.99038696289062 225.0 251.0 C 217.50001525878906 248.99037170410156 212.0096893310547 243.49996948242188 210.82379150390625 236.7705841064453 C 212.89598083496094 229.36346435546875 218.34628295898438 223.84384155273438 225.6174774169922 221.6181182861328 C 232.5 223.00961303710938 237.99038696289062 228.5 240.0 236.0" stroke-width="0.0" fill="rgb(3, 3, 3)" opacity="0.99037844"/>
    <path d="M 368.6120300292969 265.5664367675781 C 366.7603759765625 273.2388916015625 361.2112731933594 278.6708068847656 353.38665771484375 280.35791015625 C 345.5 277.9903869628906 340.0096130371094 272.5 338.0 265.0 C 340.0096130371094 257.5 345.5 252.00961303710938 353.0 250.0 C 360.5 252.00961303710938 365.9903869628906 257.5 368.6120300292969 265.5664367675781" stroke-width="0.0" fill="rgb(0, 0, 0)" opacity="1.0"/>
    <path d="M 255.180908203125 311.86962890625 C 252.99038696289062 319.5 247.5 324.9903869628906 240.43826293945312 326.42242431640625 C 232.96128845214844 324.40838623046875 227.27732849121094 319.1432800292969 225.05621337890625 311.9232482910156 C 227.0192413330078 304.5201110839844 232.5481414794922 299.1130065917969 240.00802612304688 297.44000244140625 C 247.57337951660156 299.0618591308594 253.22593688964844 304.3429260253906 255.180908203125 311.86962890625" stroke-width="0.0" fill="rgb(246, 116, 72)" opacity="0.9903771"/>
    <path d="M 314.0001220703125 244.99977111816406 C 311.9903564453125 252.49998474121094 306.5 257.9903869628906 299.0 260.0 C 291.5 257.9903869628906 286.0096130371094 252.5 284.0119323730469 245.0206298828125 C 286.11077880859375 237.6705322265625 291.78472900390625 232.4470977783203 299.2852783203125 230.6337127685547 C 306.4642333984375 232.1112823486328 311.98919677734375 237.506103515625 314.0001220703125 244.99977111816406" stroke-width="0.0" fill="rgb(255, 178, 112)" opacity="0.99048215"/>
    <path d="M 284.0 242.0 C 281.9903869628906 249.5 276.5 254.99038696289062 269.0 257.0 C 261.5 254.99038696289062 256.0096130371094 249.5 254.0 242.0 C 256.0096130371094 234.5 261.5 229.00961303710938 269.0 227.0 C 276.5 229.00961303710938 281.9903869628906 234.5 284.0 242.0" stroke-width="0.0" fill="rgb(255, 177, 107)" opacity="0.9978059"/>
    <path d="M 358.0 247.0 C 355.9903869628906 254.5 350.5 259.9903869628906 343.0 262.0 C 335.5 259.9903869628906 330.0096130371094 254.5 328.0 247.0 C 330.0096130371094 239.5 335.5 234.00961303710938 343.0 232.0 C 350.5 234.00961303710938 355.9903869628906 239.5 358.0 247.0" stroke-width="0.0" fill="rgb(0, 0, 0)" opacity="1.0"/>
    <path d="M 314.0 303.0 C 311.9903869628906 310.5 306.5 315.9903869628906 299.0 318.0 C 291.5 315.9903869628906 286.0096130371094 310.5 284.0 303.0 C 286.0096130371094 295.5 291.5 290.0096130371094 299.0 288.0 C 306.5 290.0096130371094 311.9903869628906 295.5 314.0 303.0" stroke-width="0.0" fill="rgb(255, 180, 111)" opacity="1.0"/>
    <path d="M 329.0 264.0 C 326.9903869628906 271.5 321.5 276.9903564453125 314.0000915527344 278.9994812011719 C 306.5000915527344 276.990234375 301.0096435546875 271.4999694824219 299.0 264.0 C 301.0096435546875 256.5000305175781 306.50006103515625 251.0097198486328 314.00006103515625 249.00042724609375 C 321.5 251.00962829589844 326.9903869628906 256.5 329.0 264.0" stroke-width="0.0" fill="rgb(255, 176, 112)" opacity="0.99971056"/>
    <path d="M 242.20480346679688 309.8910827636719 C 240.16494750976562 317.701904296875 234.71673583984375 323.2110290527344 227.54766845703125 324.2928161621094 C 220.10549926757812 322.3291931152344 214.67874145507812 316.8911437988281 212.78724670410156 309.5681457519531 C 214.213623046875 302.59185791015625 219.53237915039062 297.0245361328125 227.0337677001953 294.97222900390625 C 234.6257781982422 296.9067687988281 240.21524047851562 302.33673095703125 242.20480346679688 309.8910827636719" stroke-width="0.0" fill="rgb(255, 179, 107)" opacity="0.99013305"/>
    <path d="M 332.0066833496094 317.0091247558594 C 330.01983642578125 324.5267333984375 324.4810485839844 329.86834716796875 316.8431396484375 331.66607666015625 C 309.4999694824219 329.9904479980469 304.0096130371094 324.5000305175781 302.0 317.0 C 304.0096130371094 309.5 309.5 304.0096130371094 317.0 302.0 C 324.5 304.0096130371094 329.9903869628906 309.5 332.0066833496094 317.0091247558594" stroke-width="0.0" fill="rgb(253, 252, 252)" opacity="1.0"/>
    <path d="M 352.0 314.0 C 349.9903869628906 321.5 344.5 326.9903869628906 337.0 329.0 C 329.5 326.9903869628906 324.0096130371094 321.5 322.0 314.0 C 324.0096130371094 306.5 329.5 301.0096130371094 337.0 299.0 C 344.5 301.0096130371094 349.9903869628906 306.5 352.0 314.0" stroke-width="0.0" fill="rgb(255, 179, 113)" opacity="1.0"/>
    <path d="M 401.0 273.0 C 398.9903869628906 280.5 393.5 285.9903869628906 386.0 288.0 C 378.5 285.9903869628906 373.0096130371094 280.5 371.0 273.0 C 373.0096130371094 265.5 378.5 260.0096130371094 386.0 258.0 C 393.5 260.0096130371094 398.9903869628906 265.5 401.0 273.0" stroke-width="0.0" fill="rgb(2, 2, 2)" opacity="1.0"/>
    <path d="M 265.1376953125 248.91807556152344 C 262.9903869628906 256.5 257.5 261.9903869628906 250.0 264.0 C 242.50001525878906 261.9903869628906 237.00962829589844 256.5 235.00001525878906 248.99998474121094 C 237.00961303710938 241.5 242.5 236.00961303710938 250.0050811767578 233.9971466064453 C 257.54608154296875 235.9833221435547 263.1224365234375 241.42164611816406 265.1376953125 248.91807556152344" stroke-width="0.0" fill="rgb(0, 0, 0)" opacity="1.0"/>
    <path d="M 317.0491943359375 321.0172119140625 C 315.0007019042969 328.5030822753906 309.5001525878906 333.9901428222656 301.9998779296875 335.9998779296875 C 294.5 333.9903869628906 289.0096130371094 328.5 287.0 321.0 C 289.0096130371094 313.5 294.5 308.0096130371094 302.0 306.0 C 309.5 308.0096130371094 314.9903869628906 313.5 317.0491943359375 321.0172119140625" stroke-width="0.0" fill="rgb(254, 254, 252)" opacity="0.99834484"/>
    <path d="M 361.8948059082031 243.15538024902344 C 359.9903869628906 250.5 354.5 255.99038696289062 347.0 258.0 C 339.5 255.99038696289062 334.0096130371094 250.5 332.0 243.0 C 334.0096130371094 235.5 339.5 230.00961303710938 346.3423156738281 228.76490783691406 C 353.8177185058594 230.78866577148438 359.53118896484375 236.07591247558594 361.8948059082031 243.15538024902344" stroke-width="0.0" fill="rgb(1, 1, 1)" opacity="0.9928446"/>
    <path d="M 280.9986267089844 230.0029754638672 C 278.9903869628906 237.5 273.5 242.99041748046875 266.6053466796875 244.25762939453125 C 259.054443359375 242.28176879882812 253.26345825195312 237.1105499267578 251.0329132080078 229.942138671875 C 253.00961303710938 222.5 258.5 217.00961303710938 265.9050598144531 215.1705322265625 C 273.42620849609375 217.1464080810547 278.97161865234375 222.53768920898438 280.9986267089844 230.0029754638672" stroke-width="0.0" fill="rgb(252, 176, 109)" opacity="0.9910117"/>
    <path d="M 360.2708435058594 335.6773986816406 C 358.34149169921875 342.8970947265625 352.90380859375 348.3608703613281 345.842041015625 350.3262023925781 C 338.8462219238281 348.5010681152344 332.66888427734375 343.4095153808594 330.3529052734375 336.3365783691406 C 332.9250183105469 328.46630859375 338.49005126953125 323.00579833984375 345.9786071777344 321.0115661621094 C 353.3353576660156 323.1101379394531 358.58563232421875 328.76580810546875 360.2708435058594 335.6773986816406" stroke-width="0.0" fill="rgb(255, 181, 114)" opacity="0.9900521"/>
    <path d="M 277.6884765625 258.7225341796875 C 275.483154296875 266.0283508300781 270.0588684082031 271.583251953125 262.8312683105469 273.8494873046875 C 255.5 271.9903869628906 250.00961303710938 266.5 247.9999542236328 258.9999694824219 C 250.00955200195312 251.50003051757812 255.5001678466797 246.01002502441406 263.0144348144531 243.65399169921875 C 270.3399353027344 246.29530334472656 275.9537658691406 251.57891845703125 277.6884765625 258.7225341796875" stroke-width="0.0" fill="rgb(5, 4, 5)" opacity="0.99075985"/>
    <path d="M 295.0 301.0 C 292.9903869628906 308.5 287.5 313.9903869628906 280.0 316.0 C 272.5 313.9903869628906 267.0096130371094 308.5 265.0 301.0 C 267.0096130371094 293.5 272.5 288.0096130371094 279.9997863769531 286.0006103515625 C 287.4998779296875 288.00982666015625 292.9903564453125 293.50006103515625 295.0 301.0" stroke-width="0.0" fill="rgb(255, 181, 111)" opacity="0.9998288"/>
    <path d="M 346.0 310.0 C 343.9903869628906 317.5 338.5 322.9903869628906 331.0 325.0 C 323.5 322.9903869628906 318.0096130371094 317.5 315.9857482910156 309.98516845703125 C 317.96368408203125 302.4494323730469 323.44329833984375 296.9432678222656 330.972412109375 294.9654541015625 C 338.5 297.0096130371094 343.9903869628906 302.5 346.0 310.0" stroke-width="0.0" fill="rgb(252, 74, 49)" opacity="1.0"/>
    <path d="M 216.00003051757812 250.00001525878906 C 213.9904022216797 257.5 208.5 262.9903869628906 201.56114196777344 264.4533386230469 C 194.33717346191406 262.1797180175781 188.9215087890625 256.6266174316406 186.96066284179688 249.17404174804688 C 188.62498474121094 242.88726806640625 193.67385864257812 237.09896850585938 201.01551818847656 235.01034545898438 C 208.5 237.00961303710938 213.99038696289062 242.5 216.00003051757812 250.00001525878906" stroke-width="0.0" fill="rgb(2, 2, 2)" opacity="0.9900452"/>
    <path d="M 320.5989685058594 300.6749267578125 C 318.00811767578125 308.5053405761719 312.5005187988281 313.99053955078125 305.0 316.0 C 297.5 313.9903869628906 292.0096130371094 308.5 290.0 301.0 C 292.0096130371094 293.5 297.5 288.0096130371094 305.06353759765625 285.94903564453125 C 312.76153564453125 287.80279541015625 318.43829345703125 293.1602478027344 320.5989685058594 300.6749267578125" stroke-width="0.0" fill="rgb(255, 181, 110)" opacity="1.0"/>
    <path d="M 309.0 320.0 C 306.9903869628906 327.5 301.5 332.9903869628906 294.8387145996094 334.0928649902344 C 287.3360900878906 332.0946350097656 281.6822814941406 326.73876953125 279.2408752441406 319.6825866699219 C 281.0096130371094 312.5 286.5 307.0096130371094 294.0 305.0 C 301.5 307.0096130371094 306.9903869628906 312.5 309.0 320.0" stroke-width="0.0" fill="rgb(2, 2, 3)" opacity="0.9901024"/>
    <path d="M 353.0 292.0 C 350.9903869628906 299.5 345.5 304.9903869628906 337.9813537597656 307.01171875 C 330.3646545410156 305.07501220703125 324.66357421875 299.7206115722656 322.4510498046875 292.2095031738281 C 324.9257507324219 284.4665832519531 330.4900817871094 279.0057067871094 337.9996032714844 276.9998474121094 C 345.5 279.0096130371094 350.9903869628906 284.5 353.0 292.0" stroke-width="0.0" fill="rgb(255, 181, 112)" opacity="1.0"/>
    <path d="M 363.9999694824219 282.0000305175781 C 361.9903869628906 289.5 356.5 294.9903869628906 349.0 297.0 C 341.5 294.9903869628906 336.0096130371094 289.5 334.0 282.0 C 336.0096130371094 274.5 341.5 269.0096130371094 349.0 267.0 C 356.4999694824219 269.0096435546875 361.9903259277344 274.5000305175781 363.9999694824219 282.0000305175781" stroke-width="0.0" fill="rgb(0, 0, 0)" opacity="1.0"/>
    <path d="M 248.7139434814453 220.3022918701172 C 246.99038696289062 227.5 241.5 232.99038696289062 234.08135986328125 234.91940307617188 C 226.62353515625 232.80197143554688 220.54580688476562 227.64537048339844 219.8404083251953 220.80242919921875 C 221.85147094726562 213.3082733154297 227.3057098388672 207.84495544433594 234.3591766357422 205.91812133789062 C 240.79537963867188 207.78955078125 246.39512634277344 213.14076232910156 248.7139434814453 220.3022918701172" stroke-width="0.0" fill="rgb(119, 87, 57)" opacity="0.9900537"/>
    <path d="M 384.0 251.0 C 381.9903869628906 258.5 376.5 263.9903869628906 369.0 266.0 C 361.5 263.9903869628906 356.0096130371094 258.5 354.0 251.0 C 356.0096130371094 243.5 361.5 238.00961303710938 369.0 236.0 C 376.5 238.00961303710938 381.9903869628906 243.5 384.0 251.0" stroke-width="0.0" fill="rgb(0, 0, 0)" opacity="1.0"/>
    <path d="M 341.0 259.0 C 338.9903869628906 266.5 333.5 271.9903869628906 326.0000305175781 273.9999694824219 C 318.50006103515625 271.9903259277344 313.0097351074219 266.4999084472656 311.0003662109375 259.0 C 313.0097351074219 251.50010681152344 318.5000915527344 246.0097198486328 326.0000305175781 244.00006103515625 C 333.5 246.00961303710938 338.9903869628906 251.5 341.0 259.0" stroke-width="0.0" fill="rgb(255, 178, 111)" opacity="0.99363303"/>
    <path d="M 397.033447265625 242.51710510253906 C 395.1234436035156 248.8028564453125 390.781005859375 255.71572875976562 383.6073913574219 257.7036437988281 C 375.49456787109375 254.99546813964844 370.0033874511719 249.50579833984375 368.4200744628906 242.4285888671875 C 370.7282409667969 235.264892578125 376.3272399902344 229.8966827392578 382.4721984863281 227.96559143066406 C 389.59893798828125 229.92857360839844 395.0732421875 235.40020751953125 397.033447265625 242.51710510253906" stroke-width="0.0" fill="rgb(2, 2, 2)" opacity="0.9900072"/>
    <path d="M 267.0 267.0 C 264.9903869628906 274.5 259.5 279.9903869628906 252.0 282.0 C 244.5 279.9903869628906 239.00961303710938 274.5 237.0 267.0 C 239.00961303710938 259.5 244.5 254.00961303710938 252.0 252.0 C 259.5 254.00961303710938 264.9903869628906 259.5 267.0 267.0" stroke-width="0.0" fill="rgb(0, 0, 0)" opacity="1.0"/>
    <path d="M 274.0691223144531 273.44287109375 C 272.33538818359375 280.0454406738281 267.2479248046875 285.8549499511719 259.9774169921875 287.98907470703125 C 252.5 285.9903869628906 247.00961303710938 280.5 245.0 273.0 C 247.00961303710938 265.5 252.5 260.0096130371094 259.88372802734375 258.1053466796875 C 267.0877685546875 260.3406677246094 272.26983642578125 266.0639343261719 274.0691223144531 273.44287109375" stroke-width="0.0" fill="rgb(3, 3, 6)" opacity="0.9901256"/>
    <path d="M 244.00022888183594 275.00042724609375 C 241.99285888671875 282.50469970703125 236.5089569091797 288.0073547363281 229.01087951660156 290.0205993652344 C 221.5 287.9903869628906 216.00961303710938 282.5 213.97683715820312 274.9560546875 C 215.7963409423828 267.15374755859375 220.98678588867188 261.3344421386719 228.41676330566406 259.2639465332031 C 236.5 262.0096130371094 241.99038696289062 267.5 244.00022888183594 275.00042724609375" stroke-width="0.0" fill="rgb(0, 0, 0)" opacity="1.0"/>
    <path d="M 392.0 285.0 C 389.9903869628906 292.5 384.5 297.9903869628906 377.0 300.0 C 369.5 297.9903869628906 364.0096130371094 292.5 361.4852600097656 284.4668884277344 C 363.22174072265625 276.6943359375 368.6767578125 271.165283203125 376.3211364746094 269.2799377441406 C 384.49981689453125 272.0100402832031 389.9903564453125 277.50006103515625 392.0 285.0" stroke-width="0.0" fill="rgb(0, 0, 1)" opacity="1.0"/>
    <path d="M 307.9999084472656 267.00006103515625 C 305.9903869628906 274.5 300.5 279.9903869628906 293.0000305175781 281.99993896484375 C 285.5000305175781 279.9903259277344 280.0096435546875 274.4999694824219 278.0 267.0 C 280.0096130371094 259.5 285.5 254.00961303710938 292.9998779296875 252.00021362304688 C 300.4998474121094 254.0098114013672 305.9902648925781 259.5001220703125 307.9999084472656 267.00006103515625" stroke-width="0.0" fill="rgb(255, 176, 111)" opacity="0.9998618"/>
    <path d="M 221.0 267.0 C 218.99038696289062 274.5 213.5 279.9903869628906 206.10772705078125 281.93572998046875 C 199.04637145996094 279.5953369140625 193.84271240234375 273.7897033691406 191.9573516845703 266.3403625488281 C 193.6270294189453 259.8644714355469 198.6155242919922 254.03622436523438 205.9933624267578 251.9879608154297 C 213.5 254.00962829589844 218.99038696289062 259.5 221.0 267.0" stroke-width="0.0" fill="rgb(3, 3, 3)" opacity="0.99016625"/>
    <path d="M 259.0 240.0 C 256.9903869628906 247.5 251.5 252.99038696289062 244.6857452392578 254.1831817626953 C 237.10989379882812 252.23239135742188 231.291015625 247.0650634765625 229.0330352783203 239.93809509277344 C 231.00961303710938 232.5 236.5 227.00961303710938 244.0 225.0 C 251.5 227.00961303710938 256.9903869628906 232.5 259.0 240.0" stroke-width="0.0" fill="rgb(252, 252, 252)" opacity="0.9902362"/>
    <path d="M 266.0481872558594 321.0927429199219 C 264.2062072753906 328.7522888183594 258.7864685058594 334.3175964355469 251.3280029296875 335.77789306640625 C 243.68203735351562 333.6599426269531 237.59877014160156 328.6047668457031 235.47840881347656 321.62066650390625 C 238.67967224121094 314.16253662109375 244.19712829589844 308.7720947265625 251.44821166992188 306.9010314941406 C 258.150390625 308.5462951660156 263.8731994628906 313.6968994140625 266.0481872558594 321.0927429199219" stroke-width="0.0" fill="rgb(253, 252, 245)" opacity="0.9900416"/>
    <path d="M 262.691650390625 237.57534790039062 C 260.6131591796875 244.9259490966797 254.73464965820312 250.10671997070312 246.48468017578125 252.6790313720703 C 239.04293823242188 250.611328125 233.8276824951172 244.8008270263672 231.98056030273438 237.03677368164062 C 234.00961303710938 229.5 239.5 224.00961303710938 247.0 222.0 C 254.49989318847656 224.0096435546875 259.9807434082031 229.50271606445312 262.691650390625 237.57534790039062" stroke-width="0.0" fill="rgb(19, 19, 18)" opacity="1.0"/>
    <path d="M 285.99810791015625 304.0010070800781 C 283.9903869628906 311.5 278.5 316.9903869628906 270.994384765625 319.00274658203125 C 263.42572021484375 317.026611328125 257.7069091796875 311.662109375 255.52667236328125 304.276611328125 C 258.0097351074219 296.5000305175781 263.5 291.0096130371094 270.99981689453125 289.0001525878906 C 278.499267578125 291.01019287109375 283.9886779785156 296.5010681152344 285.99810791015625 304.0010070800781" stroke-width="0.0" fill="rgb(255, 175, 105)" opacity="1.0"/>
    <path d="M 359.553955078125 309.6816711425781 C 357.530029296875 317.1493835449219 352.2349853515625 322.7942199707031 344.9452209472656 324.9603576660156 C 337.5 322.9903869628906 332.0096130371094 317.5 330.0 310.0 C 332.0096130371094 302.5 337.5 297.0096130371094 345.0 295.0 C 352.5 297.0096130371094 357.9903869628906 302.5 359.553955078125 309.6816711425781" stroke-width="0.0" fill="rgb(255, 180, 113)" opacity="0.99042535"/>
    <path d="M 356.0 248.0 C 353.9903869628906 255.5 348.5 260.9903869628906 341.0 263.0 C 333.5 260.9903869628906 328.0096130371094 255.5 326.0 248.0 C 328.0096130371094 240.5 333.5 235.00961303710938 341.0 233.0 C 348.5 235.00961303710938 353.9903869628906 240.5 356.0 248.0" stroke-width="0.0" fill="rgb(0, 0, 0)" opacity="1.0"/>
    <path d="M 267.1739196777344 261.8905029296875 C 264.985595703125 269.4981384277344 259.4994201660156 274.9901428222656 251.99996948242188 277.0 C 244.5 274.9903869628906 239.00961303710938 269.5 236.5030975341797 261.5133056640625 C 238.2742156982422 253.76687622070312 243.76602172851562 248.27134704589844 251.51382446289062 246.46954345703125 C 259.586669921875 248.93548583984375 265.14971923828125 254.3871307373047 267.1739196777344 261.8905029296875" stroke-width="0.0" fill="rgb(0, 0, 1)" opacity="1.0"/>
    <path d="M 272.6897888183594 223.28587341308594 C 271.00872802734375 230.53421020507812 265.50469970703125 235.89523315429688 258.2791748046875 237.12962341308594 C 250.72544860839844 235.556640625 245.04319763183594 230.42063903808594 243.00833129882812 223.00440979003906 C 245.03875732421875 215.535400390625 250.54168701171875 210.0595245361328 257.59954833984375 208.526123046875 C 264.9513854980469 210.607177734375 270.4627380371094 216.0259552001953 272.6897888183594 223.28587341308594" stroke-width="0.0" fill="rgb(252, 180, 114)" opacity="0.9902004"/>
    <path d="M 378.0038757324219 289.9919128417969 C 375.9903869628906 297.5 370.5 302.9903869628906 363.0 305.0 C 355.5 302.9903869628906 350.0096130371094 297.5 347.9999084472656 289.9999084472656 C 350.0086975097656 282.4974365234375 355.4766540527344 276.9361267089844 363.5650329589844 274.15447998046875 C 370.8620910644531 276.41607666015625 376.0566711425781 282.3497009277344 378.0038757324219 289.9919128417969" stroke-width="0.0" fill="rgb(0, 0, 0)" opacity="1.0"/>
    <path d="M 223.0 276.0 C 220.99038696289062 283.5 215.5 288.9903869628906 208.0318145751953 290.9850158691406 C 200.84597778320312 288.7989196777344 195.7823028564453 282.9123840332031 193.95114135742188 275.3123474121094 C 195.51934814453125 268.765869140625 200.57652282714844 263.0401916503906 208.003173828125 261.00140380859375 C 215.5 263.0096130371094 220.99038696289062 268.5 223.0 276.0" stroke-width="0.0" fill="rgb(3, 2, 2)" opacity="0.9903426"/>
    <path d="M 280.0010681152344 289.0010681152344 C 277.99407958984375 296.50604248046875 272.5108642578125 302.01043701171875 265.00848388671875 304.036865234375 C 257.49957275390625 301.99176025390625 252.0095977783203 296.50006103515625 250.0 289.0 C 252.00961303710938 281.5 257.5 276.0096130371094 264.9999694824219 274.0000305175781 C 272.4999084472656 276.0096740722656 277.990234375 281.5000915527344 280.0010681152344 289.0010681152344" stroke-width="0.0" fill="rgb(255, 178, 109)" opacity="0.9992741"/>
    <path d="M 318.2691650390625 341.58355712890625 C 316.91558837890625 349.595703125 311.6784973144531 355.2293701171875 304.10162353515625 357.4008483886719 C 296.6895751953125 354.84161376953125 291.19073486328125 349.3033447265625 288.6162414550781 341.60906982421875 C 290.4097900390625 333.93890380859375 295.9727478027344 328.5205383300781 303.7808532714844 326.8056640625 C 311.5169982910156 329.00677490234375 317.1337585449219 334.4397277832031 318.2691650390625 341.58355712890625" stroke-width="0.0" fill="rgb(255, 250, 250)" opacity="1.0"/>
    <path d="M 362.0 263.0 C 359.99041748046875 270.5000305175781 354.50006103515625 275.9904479980469 346.99957275390625 278.0015563964844 C 339.49993896484375 275.9906311035156 334.0096130371094 270.5 332.0 263.0 C 334.0096130371094 255.5 339.5 250.00961303710938 347.0 248.0 C 354.5 250.00961303710938 359.9903869628906 255.5 362.0 263.0" stroke-width="0.0" fill="rgb(0, 0, 0)" opacity="1.0"/>
    <path d="M 313.0697937011719 319.13800048828125 C 311.0718688964844 326.593994140625 305.59136962890625 332.06549072265625 298.212890625 334.0398254394531 C 292.01025390625 332.28106689453125 286.1631774902344 327.2138366699219 284.00970458984375 319.9757385253906 C 286.0096130371094 312.5 291.5 307.0096130371094 299.0 305.0 C 306.49993896484375 307.0096435546875 311.981689453125 312.5024108886719 313.0697937011719 319.13800048828125" stroke-width="0.0" fill="rgb(4, 4, 4)" opacity="0.9900199"/>
    <path d="M 300.9961853027344 315.99517822265625 C 298.9719543457031 323.4749755859375 293.4649963378906 328.9383239746094 286.8385925292969 330.0704650878906 C 279.29888916015625 328.1171875 273.62249755859375 322.79150390625 271.2124328613281 315.7445068359375 C 273.0697326660156 308.5652770996094 278.570068359375 303.08563232421875 286.02874755859375 301.03131103515625 C 293.5 303.0096130371094 298.9903869628906 308.5 300.9961853027344 315.99517822265625" stroke-width="0.0" fill="rgb(2, 3, 3)" opacity="0.9902239"/>
    <path d="M 241.99920654296875 244.9991912841797 C 239.9879608154297 252.49752807617188 234.49746704101562 257.98773193359375 226.24197387695312 260.8744812011719 C 218.84739685058594 258.7886962890625 213.70864868164062 252.96359252929688 211.9653778076172 245.06625366210938 C 214.0102081298828 237.50076293945312 219.50106811523438 232.01123046875 227.0008087158203 230.00128173828125 C 234.5 232.00961303710938 239.99038696289062 237.5 241.99920654296875 244.9991912841797" stroke-width="0.0" fill="rgb(0, 0, 0)" opacity="1.0"/>
    <path d="M 352.99908447265625 260.9998474121094 C 350.9896240234375 268.4991455078125 345.4989013671875 273.9888916015625 338.0074157714844 275.9954528808594 C 330.62939453125 273.9305419921875 325.5475769042969 268.1858825683594 323.9315490722656 261.5580749511719 C 325.7957458496094 254.17335510253906 331.0501708984375 248.44888305664062 338.1502380371094 246.10818481445312 C 345.4999694824219 248.00962829589844 350.990234375 253.5000762939453 352.99908447265625 260.9998474121094" stroke-width="0.0" fill="rgb(3, 3, 4)" opacity="0.99005306"/>
    <path d="M 292.9998779296875 252.99984741210938 C 290.99017333984375 260.49981689453125 285.49981689453125 265.9901428222656 277.3851318359375 268.72235107421875 C 269.8932189941406 266.7369689941406 265.63531494140625 260.663330078125 263.92041015625 252.54464721679688 C 265.5948486328125 245.84083557128906 270.6031799316406 240.00222778320312 277.9813232421875 237.97959899902344 C 285.5000305175781 240.0095977783203 290.990478515625 245.49993896484375 292.9998779296875 252.99984741210938" stroke-width="0.0" fill="rgb(252, 175, 107)" opacity="0.9901021"/>
    <path d="M 223.99859619140625 277.99957275390625 C 221.99012756347656 285.4999084472656 216.49998474121094 290.9903869628906 209.80612182617188 292.1285705566406 C 202.37518310546875 290.094482421875 196.89939880371094 284.6272888183594 194.85751342773438 277.20941162109375 C 196.00961303710938 270.5 201.5 265.0096130371094 209.0 263.0 C 216.5 265.0096130371094 221.99037170410156 270.5 223.99859619140625 277.99957275390625" stroke-width="0.0" fill="rgb(3, 2, 2)" opacity="0.9902214"/>
    <path d="M 342.0 314.0 C 339.9903869628906 321.5 334.5 326.9903869628906 326.4916076660156 329.7395935058594 C 319.9056701660156 327.3126220703125 314.6907043457031 320.9084777832031 312.5619812011719 313.5130310058594 C 314.01055908203125 306.50177001953125 319.50640869140625 301.0271911621094 327.081298828125 299.2481994628906 C 334.4999694824219 301.0096740722656 339.9903869628906 306.5 342.0 314.0" stroke-width="0.0" fill="rgb(250, 73, 49)" opacity="0.99012864"/>
    <path d="M 376.2774658203125 242.09158325195312 C 374.0793151855469 249.60073852539062 368.5951232910156 255.0657501220703 361.4361267089844 257.0335998535156 C 355.33935546875 255.098876953125 349.732421875 249.7179718017578 347.3427429199219 242.5989990234375 C 349.0093078613281 235.49961853027344 354.49951171875 230.00900268554688 362.35552978515625 227.71539306640625 C 370.27484130859375 229.31077575683594 375.8851013183594 234.65989685058594 376.2774658203125 242.09158325195312" stroke-width="0.0" fill="rgb(252, 252, 252)" opacity="0.9900121"/>
    <path d="M 353.0333251953125 320.99334716796875 C 350.9921569824219 328.5006103515625 345.5001525878906 333.9904479980469 337.6434020996094 336.40496826171875 C 329.9682922363281 334.572265625 324.648193359375 328.97149658203125 323.6797790527344 321.3371276855469 C 325.4832458496094 313.91583251953125 330.90087890625 308.4367980957031 338.2360534667969 306.2991943359375 C 345.50244140625 308.00836181640625 351.00115966796875 313.49481201171875 353.0333251953125 320.99334716796875" stroke-width="0.0" fill="rgb(252, 176, 109)" opacity="0.99014467"/>
    <path d="M 366.6975402832031 296.3304748535156 C 364.9903869628906 303.5 359.4999694824219 308.9903564453125 352.0000305175781 310.99957275390625 C 344.5000305175781 308.99029541015625 339.0096130371094 303.4999694824219 337.0234069824219 296.0436706542969 C 339.2222900390625 288.8469543457031 345.0341796875 283.7166442871094 351.4174499511719 281.93646240234375 C 358.73797607421875 283.8446960449219 364.3529052734375 289.19189453125 366.6975402832031 296.3304748535156" stroke-width="0.0" fill="rgb(252, 177, 109)" opacity="0.9900414"/>
    <path d="M 246.09486389160156 240.1787872314453 C 244.1207733154297 247.6653289794922 238.6615447998047 253.1121368408203 232.4264678955078 255.0347137451172 C 225.3933868408203 253.07809448242188 219.9302978515625 247.60284423828125 217.9725341796875 240.89967346191406 C 219.93023681640625 234.40234375 225.4005126953125 228.92547607421875 232.84661865234375 226.9059295654297 C 239.5000457763672 228.0095977783203 244.99658203125 233.49827575683594 246.09486389160156 240.1787872314453" stroke-width="0.0" fill="rgb(252, 252, 252)" opacity="0.99000615"/>
    <path d="M 226.7078857421875 267.3627014160156 C 224.13189697265625 275.73162841796875 218.8544921875 281.4934387207031 211.38780212402344 283.5304870605469 C 203.5220489501953 280.96453857421875 198.0396270751953 275.4767761230469 196.13417053222656 268.0234680175781 C 198.06549072265625 260.531982421875 203.51902770996094 255.0216827392578 211.35020446777344 252.6992645263672 C 219.21568298339844 254.34579467773438 224.79627990722656 259.7398986816406 226.7078857421875 267.3627014160156" stroke-width="0.0" fill="rgb(2, 2, 2)" opacity="1.0"/>
    <path d="M 283.7212829589844 316.7721862792969 C 281.5298767089844 324.0719909667969 276.0977478027344 329.6138610839844 268.77154541015625 332.2176208496094 C 261.3683776855469 330.1943664550781 255.99166870117188 324.57470703125 254.2941436767578 317.235107421875 C 256.5115051269531 310.0276184082031 262.0693359375 304.6405334472656 269.2578430175781 302.7611389160156 C 276.2298278808594 304.4180603027344 281.88031005859375 309.6708984375 283.7212829589844 316.7721862792969" stroke-width="0.0" fill="rgb(232, 233, 232)" opacity="0.9900387"/>
    <path d="M 272.99383544921875 282.9986267089844 C 270.98675537109375 290.4969177246094 265.49713134765625 295.9874572753906 257.9989318847656 297.9988098144531 C 250.5 295.9903869628906 245.00961303710938 290.5 243.0 283.0 C 245.00961303710938 275.5 250.5 270.0096130371094 258.0 268.0 C 265.4999694824219 270.0096130371094 270.9900817871094 275.5000915527344 272.99383544921875 282.9986267089844" stroke-width="0.0" fill="rgb(255, 183, 116)" opacity="1.0"/>
    <path d="M 315.6293640136719 291.5985412597656 C 312.9909362792969 299.500244140625 307.5000915527344 304.99041748046875 299.9898986816406 307.0073547363281 C 292.4464416503906 305.02972412109375 286.91497802734375 299.5703125 284.93914794921875 292.04449462890625 C 287.009521484375 284.4999694824219 292.5 279.0096435546875 300.00689697265625 276.9969787597656 C 307.59808349609375 278.96282958984375 313.3883972167969 284.2796325683594 315.6293640136719 291.5985412597656" stroke-width="0.0" fill="rgb(255, 181, 114)" opacity="1.0"/>
    <path d="M 321.54742431640625 308.12310791015625 C 319.8069152832031 315.6568908691406 314.9681091308594 321.67596435546875 307.1251525878906 323.9115295410156 C 298.9900207519531 321.6752624511719 293.80523681640625 315.8291320800781 292.2101745605469 308.2254638671875 C 294.4130859375 300.9021301269531 299.9347229003906 295.5130615234375 306.8560791015625 293.7584533691406 C 313.9891662597656 295.58355712890625 319.5069885253906 300.98101806640625 321.54742431640625 308.12310791015625" stroke-width="0.0" fill="rgb(228, 63, 32)" opacity="0.9901189"/>
    <path d="M 347.9967041015625 239.98770141601562 C 345.9175720214844 247.34722900390625 340.1614990234375 252.43458557128906 332.2932434082031 254.1963653564453 C 325.0514831542969 253.6089324951172 319.8447570800781 247.78564453125 317.96826171875 240.00823974609375 C 319.9486999511719 232.43772888183594 325.42822265625 226.91622924804688 332.9836120605469 224.8071746826172 C 340.5295104980469 226.95567321777344 346.00030517578125 232.4834747314453 347.9967041015625 239.98770141601562" stroke-width="0.0" fill="rgb(246, 180, 118)" opacity="0.9902"/>
    <path d="M 265.0 282.0 C 262.9903869628906 289.5 257.5 294.9903869628906 250.0008087158203 296.9993896484375 C 242.50430297851562 294.9872131347656 237.01736450195312 289.49432373046875 235.0060272216797 281.9969177246094 C 237.01036071777344 274.5006103515625 242.50064086914062 269.0104064941406 250.00045776367188 267.0008850097656 C 257.5 269.0096130371094 262.9903869628906 274.5 265.0 282.0" stroke-width="0.0" fill="rgb(0, 0, 0)" opacity="0.9992506"/>
    <path d="M 345.05535888671875 277.5487060546875 C 343.2850341796875 283.9887390136719 338.203369140625 289.82421875 330.7633972167969 292.2198486328125 C 323.0135498046875 290.4512023925781 317.39642333984375 285.0372314453125 315.4317321777344 277.4159240722656 C 317.71636962890625 269.06341552734375 322.88946533203125 263.24969482421875 330.15313720703125 261.9172058105469 C 337.678466796875 264.8596496582031 343.130615234375 270.3255920410156 345.05535888671875 277.5487060546875" stroke-width="0.0" fill="rgb(252, 176, 109)" opacity="0.9900241"/>
    <path d="M 267.9130554199219 286.9687194824219 C 265.9678649902344 294.48468017578125 260.4864807128906 299.9744873046875 253.0142364501953 301.961669921875 C 245.6983642578125 299.8834228515625 240.62564086914062 294.099853515625 238.9312286376953 287.5289306640625 C 240.80792236328125 280.1910705566406 246.07394409179688 274.47943115234375 253.1715850830078 272.1297607421875 C 260.5 274.0096130371094 265.9903869628906 279.5 267.9130554199219 286.9687194824219" stroke-width="0.0" fill="rgb(238, 168, 113)" opacity="0.99004656"/>
    <path d="M 402.1290283203125 282.64056396484375 C 400.74053955078125 290.4042053222656 395.484130859375 295.9851379394531 388.00067138671875 297.99945068359375 C 380.51470947265625 295.9836120605469 375.09344482421875 290.4624938964844 373.4541320800781 283.10723876953125 C 375.2909851074219 275.74261474609375 380.7438049316406 270.29376220703125 388.25421142578125 268.4172668457031 C 396.0428161621094 269.54815673828125 401.61676025390625 274.9097900390625 402.1290283203125 282.64056396484375" stroke-width="0.0" fill="rgb(65, 41, 29)" opacity="0.9903193"/>
    <path d="M 260.06793212890625 226.56613159179688 C 258.4334716796875 233.63394165039062 253.9503173828125 239.50534057617188 246.8782958984375 240.06005859375 C 239.3840789794922 238.07778930664062 233.8237762451172 232.6448211669922 230.2123260498047 226.63351440429688 C 233.81588745117188 219.3079376220703 239.32827758789062 213.87344360351562 245.36106872558594 211.95899963378906 C 252.62469482421875 213.91534423828125 258.1180419921875 219.36143493652344 260.06793212890625 226.56613159179688" stroke-width="0.0" fill="rgb(3, 2, 2)" opacity="0.9900086"/>
    <path d="M 302.3028869628906 314.7130432128906 C 301.44488525390625 321.80279541015625 295.6850891113281 327.0981140136719 287.4580383300781 329.5341491699219 C 279.6731872558594 327.791015625 274.10894775390625 322.36187744140625 272.0702209472656 314.8530578613281 C 275.7705383300781 307.2809753417969 281.3121337890625 301.8638916015625 288.16607666015625 299.9384460449219 C 294.6859436035156 301.8601989746094 300.1766662597656 307.2998962402344 302.3028869628906 314.7130432128906" stroke-width="0.0" fill="rgb(4, 2, 2)" opacity="0.99003935"/>
    <path d="M 235.3656005859375 294.7771911621094 C 234.34332275390625 301.66925048828125 228.5542449951172 307.0120544433594 221.13510131835938 308.8710632324219 C 213.82936096191406 306.6680603027344 208.3631134033203 301.16107177734375 205.14413452148438 293.2501220703125 C 207.23873901367188 286.090087890625 214.09872436523438 281.8155212402344 220.67010498046875 279.9464111328125 C 227.66183471679688 281.8785705566406 233.13653564453125 287.3321533203125 235.3656005859375 294.7771911621094" stroke-width="0.0" fill="rgb(252, 177, 104)" opacity="0.9900186"/>
    <path d="M 272.1087951660156 277.21441650390625 C 270.1376647949219 284.67498779296875 264.6731872558594 290.1333312988281 257.45416259765625 292.0651550292969 C 250.19749450683594 290.3597106933594 244.2032928466797 286.18115234375 242.1395263671875 278.74609375 C 245.00936889648438 270.4998779296875 250.4999542236328 265.0096740722656 257.9991455078125 263.001220703125 C 265.495849609375 265.0130310058594 270.98199462890625 270.50555419921875 272.1087951660156 277.21441650390625" stroke-width="0.0" fill="rgb(4, 3, 3)" opacity="0.9900148"/>
    <path d="M 403.3584899902344 288.3481140136719 C 401.3238525390625 295.89349365234375 395.9214782714844 301.4046630859375 389.013916015625 303.3396911621094 C 381.7765808105469 301.5641174316406 376.1069641113281 296.33447265625 374.8695373535156 289.776611328125 C 376.87164306640625 282.3340759277344 382.3343200683594 276.872314453125 389.717041015625 274.92633056640625 C 397.1433410644531 275.6018981933594 402.7327880859375 280.7905578613281 403.3584899902344 288.3481140136719" stroke-width="0.0" fill="rgb(252, 176, 110)" opacity="0.99002266"/>
    <path d="M 292.3447265625 231.40028381347656 C 290.8978271484375 238.46603393554688 285.4924621582031 243.9878387451172 278.00006103515625 245.99945068359375 C 270.5001220703125 243.9901123046875 265.00958251953125 238.49996948242188 263.00439453125 231.00881958007812 C 265.0636291503906 223.60641479492188 270.7218017578125 218.3994140625 277.7301330566406 216.7654266357422 C 284.93035888671875 218.64212036132812 290.3835144042969 224.05995178222656 292.3447265625 231.40028381347656" stroke-width="0.0" fill="rgb(255, 180, 114)" opacity="0.9900673"/>
    <path d="M 360.8445739746094 242.6520233154297 C 358.8999938964844 250.3842010498047 353.3619384765625 255.83303833007812 345.52008056640625 257.6754455566406 C 336.8834533691406 255.61178588867188 331.7744445800781 250.0533905029297 330.93353271484375 242.70779418945312 C 332.8901672363281 235.35765075683594 338.3529052734375 229.87710571289062 345.5736999511719 227.88241577148438 C 353.12200927734375 229.36456298828125 358.8243713378906 233.73326110839844 360.8445739746094 242.6520233154297" stroke-width="0.0" fill="rgb(2, 2, 2)" opacity="0.990039"/>
    <path d="M 355.9833679199219 296.0381774902344 C 353.9903564453125 303.4999694824219 348.4999694824219 308.9903564453125 341.0990905761719 310.8919677734375 C 333.72003173828125 308.756103515625 328.1579895019531 303.3036193847656 325.88824462890625 296.0014343261719 C 328.0098876953125 288.5002136230469 333.5002136230469 283.00982666015625 340.4356689453125 281.7222595214844 C 348.0080261230469 283.665771484375 353.7930603027344 288.8270568847656 355.9833679199219 296.0381774902344" stroke-width="0.0" fill="rgb(252, 177, 107)" opacity="0.99044347"/>
    <path d="M 381.3884582519531 299.5757751464844 C 379.3553161621094 306.9062194824219 373.90020751953125 312.3390808105469 366.9226989746094 314.1916198730469 C 359.8707275390625 312.45074462890625 354.1517028808594 307.2698059082031 352.03472900390625 299.9996643066406 C 354.1691589355469 292.77789306640625 359.9756164550781 287.6785888671875 366.63720703125 285.9314270019531 C 373.8484802246094 287.7865905761719 379.60833740234375 293.00958251953125 381.3884582519531 299.5757751464844" stroke-width="0.0" fill="rgb(252, 179, 114)" opacity="0.990034"/>
  </g>
</svg>
