<?xml version="1.0" ?>
<svg xmlns="http://www.w3.org/2000/svg" version="1.1" width="600" height="600">
  <defs/>
  <g>
    <path d="M 388.0 360.0 C 385.9903869628906 367.5 380.5 372.9903869628906 373.15814208984375 374.7942199707031 C 365.7363586425781 372.6927795410156 360.1347961425781 367.3153991699219 357.388427734375 359.38262939453125 C 359.18499755859375 351.6719665527344 364.6554260253906 346.13775634765625 372.2458801269531 344.18084716796875 C 380.5 347.0096130371094 385.9903869628906 352.5 388.0 360.0" stroke-width="0.0" fill="rgb(249, 35, 19)" opacity="0.99005663"/>
    <path d="M 309.8688659667969 0.647294819355011 C 306.650146484375 6.853797912597656 300.7572021484375 12.179509162902832 294.52471923828125 14.058357238769531 C 287.34527587890625 12.109382629394531 281.7452087402344 6.694354057312012 278.1279602050781 0.5710620880126953 C 281.0096130371094 -7.5 286.5 -12.990381240844727 294.0 -15.0 C 301.5 -12.990381240844727 306.9903869628906 -7.5 309.8688659667969 0.647294819355011" stroke-width="0.0" fill="rgb(2, 2, 2)" opacity="0.9900135"/>
    <path d="M 33.78276062011719 299.3707275390625 C 31.65494728088379 307.09906005859375 26.092002868652344 312.6356506347656 18.047800064086914 314.7822265625 C 9.94522476196289 312.5902099609375 4.3349151611328125 307.085693359375 2.176135778427124 299.2532653808594 C 4.378961086273193 290.9511413574219 9.989668846130371 285.4852600097656 18.13736915588379 283.3384704589844 C 25.997779846191406 285.4588928222656 31.53097152709961 291.00567626953125 33.78276062011719 299.3707275390625" stroke-width="0.0" fill="rgb(255, 192, 117)" opacity="0.99598837"/>
    <path d="M 257.92938232421875 114.72032928466797 C 255.88417053222656 122.36215209960938 250.35177612304688 127.86028289794922 242.6026153564453 129.91610717773438 C 233.73219299316406 127.78871154785156 228.18992614746094 122.27686309814453 226.104248046875 114.25359344482422 C 228.21200561523438 105.75709533691406 233.7979736328125 100.33168029785156 242.61932373046875 98.17838287353516 C 250.280029296875 100.19151306152344 255.7949981689453 105.7256851196289 257.92938232421875 114.72032928466797" stroke-width="0.0" fill="rgb(60, 100, 112)" opacity="1.0"/>
    <path d="M 291.7059020996094 23.32466697692871 C 289.6842346191406 31.182594299316406 284.2088317871094 36.75491714477539 276.49908447265625 38.82075500488281 C 268.6376037597656 36.32954025268555 263.53448486328125 30.115888595581055 261.6399841308594 22.74212646484375 C 263.4449462890625 15.897078514099121 268.8873291015625 10.414088249206543 276.4208984375 7.615114688873291 C 283.95806884765625 9.501161575317383 289.4737548828125 15.050894737243652 291.7059020996094 23.32466697692871" stroke-width="0.0" fill="rgb(252, 194, 127)" opacity="0.9900989"/>
    <path d="M 251.01832580566406 88.02214813232422 C 249.0650177001953 95.58943176269531 243.604736328125 101.11550903320312 235.2794952392578 103.8316421508789 C 227.7118682861328 101.81758117675781 222.1981964111328 96.28168487548828 220.12322998046875 88.48600006103516 C 222.4043731689453 80.0849838256836 228.26144409179688 74.87785339355469 235.9766387939453 72.9881820678711 C 243.5 75.0096206665039 248.99038696289062 80.5 251.01832580566406 88.02214813232422" stroke-width="0.0" fill="rgb(60, 101, 113)" opacity="1.0"/>
    <path d="M 180.7384796142578 178.48092651367188 C 178.12330627441406 186.56195068359375 172.5250701904297 192.00181579589844 164.87364196777344 194.12277221679688 C 157.1410675048828 192.31492614746094 151.5031280517578 186.91795349121094 149.25901794433594 178.8147430419922 C 151.37486267089844 170.92247009277344 156.9440460205078 165.4373016357422 165.14614868164062 163.36476135253906 C 173.0777130126953 165.3975067138672 178.65806579589844 170.90187072753906 180.7384796142578 178.48092651367188" stroke-width="0.0" fill="rgb(255, 156, 123)" opacity="1.0"/>
    <path d="M 355.885986328125 283.6890563964844 C 353.8716125488281 291.3636169433594 348.36883544921875 296.8844299316406 340.65435791015625 298.92889404296875 C 331.7474670410156 296.8199768066406 326.37078857421875 291.1811828613281 324.251708984375 282.7383728027344 C 326.41448974609375 275.0173645019531 332.0697937011719 269.5467224121094 340.3251953125 267.3114013671875 C 348.06915283203125 269.37884521484375 353.60638427734375 274.9371032714844 355.885986328125 283.6890563964844" stroke-width="0.0" fill="rgb(149, 228, 152)" opacity="1.0"/>
    <path d="M 445.3710021972656 234.7069854736328 C 442.9903869628906 242.5 437.5 247.99038696289062 429.9913635253906 250.00428771972656 C 422.3884582519531 248.04556274414062 416.5920715332031 242.73841857910156 414.22613525390625 234.83287048339844 C 416.4496154785156 227.02951049804688 422.0333557128906 221.45790100097656 429.8300476074219 219.2479705810547 C 438.00299072265625 221.44459533691406 443.48931884765625 227.01979064941406 445.3710021972656 234.7069854736328" stroke-width="0.0" fill="rgb(148, 236, 150)" opacity="0.9945556"/>
    <path d="M 462.9206237792969 384.85638427734375 C 460.87646484375 392.34307861328125 455.31268310546875 397.79974365234375 447.74896240234375 398.6436767578125 C 440.2664489746094 396.2179870605469 434.82708740234375 390.7181396484375 432.801025390625 383.14483642578125 C 433.1044006347656 375.60693359375 438.61407470703125 370.1265563964844 446.17291259765625 369.8707275390625 C 453.69610595703125 371.8359375 459.1979675292969 377.2936706542969 462.9206237792969 384.85638427734375" stroke-width="0.0" fill="rgb(2, 2, 2)" opacity="0.990011"/>
    <path d="M 485.9424133300781 314.78387451171875 C 483.8932189941406 322.35406494140625 478.2903747558594 327.67431640625 470.51513671875 328.1461181640625 C 462.90570068359375 326.40972900390625 457.1627197265625 321.2484436035156 455.0174865722656 313.96624755859375 C 456.9888916015625 306.4458923339844 462.3130187988281 300.6186218261719 470.808349609375 298.0634765625 C 478.3341064453125 300.12567138671875 483.8020324707031 305.6972351074219 485.9424133300781 314.78387451171875" stroke-width="0.0" fill="rgb(60, 21, 9)" opacity="0.9900912"/>
    <path d="M 141.82028198242188 506.63519287109375 C 139.8424530029297 514.2554931640625 133.76673889160156 518.2071533203125 126.53227233886719 520.0361328125 C 119.364990234375 518.0878295898438 113.8638916015625 512.6561279296875 111.89981842041016 505.1645202636719 C 112.1239013671875 497.616455078125 117.61193084716797 492.1095275878906 125.30960083007812 490.13067626953125 C 134.1764373779297 492.294189453125 139.728515625 497.8136901855469 141.82028198242188 506.63519287109375" stroke-width="0.0" fill="rgb(2, 2, 2)" opacity="0.99000996"/>
    <path d="M 340.5365905761719 502.68670654296875 C 338.38372802734375 510.8998107910156 332.91900634765625 516.4465942382812 325.2593994140625 518.3241577148438 C 317.5 515.9903564453125 312.0096130371094 510.5 309.8418884277344 502.8775939941406 C 311.758544921875 495.27691650390625 317.2481384277344 489.6672058105469 324.8371887207031 487.5802001953125 C 332.8484802246094 489.6412353515625 338.4835205078125 495.108642578125 340.5365905761719 502.68670654296875" stroke-width="0.0" fill="rgb(252, 160, 126)" opacity="0.9901907"/>
    <path d="M 303.89532470703125 69.0755615234375 C 301.77880859375 77.24349975585938 296.2300109863281 82.74250030517578 288.38287353515625 84.76654815673828 C 279.9371337890625 82.58080291748047 274.34393310546875 77.09137725830078 272.22119140625 69.13220977783203 C 274.3201599121094 60.793495178222656 279.7403869628906 55.182071685791016 288.45233154296875 53.07939147949219 C 296.28741455078125 55.16433334350586 301.77587890625 60.73966598510742 303.89532470703125 69.0755615234375" stroke-width="0.0" fill="rgb(252, 157, 123)" opacity="1.0"/>
    <path d="M 373.91143798828125 65.62190246582031 C 371.7862854003906 74.19922637939453 366.0922546386719 79.46778869628906 358.15484619140625 81.08869934082031 C 350.3777160644531 79.04238891601562 344.462890625 73.8162612915039 342.08538818359375 65.33441162109375 C 344.1412353515625 57.662445068359375 349.6687316894531 52.156219482421875 358.3551940917969 50.07578659057617 C 366.3475341796875 52.13169860839844 371.8518371582031 57.659263610839844 373.91143798828125 65.62190246582031" stroke-width="0.0" fill="rgb(247, 35, 21)" opacity="1.0"/>
    <path d="M 388.6927490234375 490.6014099121094 C 386.4605407714844 498.9637451171875 381.01513671875 504.6012268066406 373.1501770019531 506.7664794921875 C 364.94012451171875 504.5994873046875 359.3824462890625 499.0660095214844 357.2574157714844 491.3222351074219 C 359.5220031738281 483.0426940917969 365.0013732910156 477.4133605957031 372.9154357910156 475.2288818359375 C 381.1415100097656 477.349853515625 386.6860656738281 482.8457336425781 388.6927490234375 490.6014099121094" stroke-width="0.0" fill="rgb(144, 233, 148)" opacity="1.0"/>
    <path d="M 359.9211730957031 136.59019470214844 C 357.81390380859375 145.2655029296875 352.2314758300781 150.7270050048828 343.2120666503906 152.90570068359375 C 335.652587890625 150.8815155029297 330.3757019042969 145.2863311767578 329.9185485839844 137.53419494628906 C 331.80084228515625 130.264892578125 337.2534484863281 124.76136779785156 344.8738708496094 121.05402374267578 C 352.3644104003906 123.10502624511719 357.8537902832031 128.65451049804688 359.9211730957031 136.59019470214844" stroke-width="0.0" fill="rgb(7, 14, 14)" opacity="0.9900181"/>
    <path d="M 77.81278991699219 288.58966064453125 C 75.79837799072266 296.279541015625 70.29012298583984 301.8235778808594 61.34669494628906 303.92919921875 C 53.6132926940918 301.8947448730469 48.10310745239258 296.3875732421875 46.04560852050781 287.59271240234375 C 48.100486755371094 279.6137390136719 53.613433837890625 274.0998840332031 61.42877960205078 272.0437927246094 C 70.31779479980469 274.13421630859375 75.70394897460938 279.7395324707031 77.81278991699219 288.58966064453125" stroke-width="0.0" fill="rgb(57, 93, 103)" opacity="1.0"/>
    <path d="M 166.7669219970703 327.0337829589844 C 164.4752960205078 334.8237609863281 158.70281982421875 340.127197265625 150.7864990234375 342.2575988769531 C 142.9534912109375 340.4875183105469 137.26382446289062 335.1383972167969 135.1139678955078 327.404052734375 C 137.35728454589844 318.9359130859375 142.9625244140625 313.4259033203125 150.82411193847656 311.2948303222656 C 159.00424194335938 313.477783203125 164.58413696289062 318.9732666015625 166.7669219970703 327.0337829589844" stroke-width="0.0" fill="rgb(255, 153, 122)" opacity="1.0"/>
    <path d="M 104.08749389648438 352.9400329589844 C 101.9925765991211 360.50592041015625 96.52428436279297 366.05609130859375 88.72761535644531 368.6001892089844 C 81.2340087890625 366.39031982421875 75.90055084228516 360.6697692871094 73.98391723632812 353.02496337890625 C 76.0096206665039 345.5 81.5 340.0096130371094 89.00957489013672 337.9935302734375 C 96.55827331542969 339.96966552734375 102.10771942138672 345.418212890625 104.08749389648438 352.9400329589844" stroke-width="0.0" fill="rgb(255, 154, 122)" opacity="1.0"/>
    <path d="M 520.9014892578125 330.17388916015625 C 517.331298828125 337.8283996582031 511.79071044921875 343.22015380859375 504.3278503417969 345.110595703125 C 497.5810852050781 343.7829284667969 492.01568603515625 338.482666015625 489.6915283203125 330.6575012207031 C 491.3620910644531 322.8062438964844 496.7531433105469 317.2025146484375 504.7032470703125 315.1395568847656 C 513.3538208007812 317.159912109375 518.8919677734375 322.6269836425781 520.9014892578125 330.17388916015625" stroke-width="0.0" fill="rgb(2, 2, 3)" opacity="0.9900233"/>
    <path d="M 91.0037841796875 351.00799560546875 C 89.04393768310547 358.6108093261719 83.7435073852539 364.4191589355469 75.73574829101562 366.80047607421875 C 67.9032974243164 364.6461486816406 62.35904312133789 359.0943908691406 60.17742919921875 350.86358642578125 C 62.31382369995117 342.87548828125 67.8989028930664 337.37158203125 75.50480651855469 335.34619140625 C 83.5 338.0096130371094 88.9903793334961 343.5 91.0037841796875 351.00799560546875" stroke-width="0.0" fill="rgb(255, 151, 119)" opacity="1.0"/>
    <path d="M 241.24783325195312 68.69985961914062 C 238.99034118652344 76.49988555908203 233.49964904785156 81.98948669433594 225.3765411376953 84.70686340332031 C 217.72634887695312 82.7837905883789 212.17974853515625 77.28770446777344 210.0557403564453 68.25340270996094 C 212.1012725830078 60.614715576171875 217.61448669433594 55.100826263427734 225.3997344970703 53.046295166015625 C 234.29238891601562 55.145729064941406 239.62326049804688 60.78807067871094 241.24783325195312 68.69985961914062" stroke-width="0.0" fill="rgb(55, 97, 106)" opacity="1.0"/>
    <path d="M 485.890625 141.12786865234375 C 483.78033447265625 149.22824096679688 478.19293212890625 154.68821716308594 470.47930908203125 156.62942504882812 C 462.4822998046875 154.03761291503906 457.00787353515625 148.50466918945312 454.9957275390625 140.99244689941406 C 456.9636535644531 133.40963745117188 462.2960510253906 127.63367462158203 470.67718505859375 125.1216049194336 C 478.2889709472656 127.17984008789062 483.79266357421875 132.72203063964844 485.890625 141.12786865234375" stroke-width="0.0" fill="rgb(252, 152, 121)" opacity="1.0"/>
    <path d="M 442.28509521484375 6.138927459716797 C 440.2207946777344 13.684834480285645 434.5655517578125 18.78371238708496 426.2443542480469 20.23897933959961 C 418.7744445800781 19.809438705444336 413.5253601074219 14.11409854888916 411.57177734375 5.872138977050781 C 413.8756408691406 -1.558146595954895 419.4796142578125 -6.999476432800293 427.0046691894531 -9.004215240478516 C 434.5394592285156 -7.0163445472717285 440.0569152832031 -1.552083134651184 442.28509521484375 6.138927459716797" stroke-width="0.0" fill="rgb(247, 248, 246)" opacity="1.0"/>
    <path d="M 420.0087890625 383.982177734375 C 417.9903869628906 391.5 412.5 396.9903869628906 404.5320129394531 399.6401062011719 C 396.9925842285156 397.57623291015625 391.4476318359375 391.99749755859375 389.344970703125 384.46173095703125 C 391.9469299316406 376.37823486328125 397.25250244140625 370.5865173339844 405.3177490234375 368.19354248046875 C 412.873291015625 370.4411315917969 418.09716796875 376.298095703125 420.0087890625 383.982177734375" stroke-width="0.0" fill="rgb(255, 153, 122)" opacity="1.0"/>
    <path d="M 522.032470703125 446.3291320800781 C 520.0765991210938 452.6055908203125 514.6058349609375 458.0772705078125 508.54949951171875 460.03265380859375 C 501.4141845703125 458.0602111816406 495.94024658203125 452.585693359375 493.95318603515625 445.1063537597656 C 494.3489990234375 437.81292724609375 499.76458740234375 432.2112121582031 507.222900390625 430.4730529785156 C 514.6442260742188 433.8427429199219 520.0775756835938 439.38238525390625 522.032470703125 446.3291320800781" stroke-width="0.0" fill="rgb(2, 2, 2)" opacity="0.9900041"/>
    <path d="M 262.8648986816406 537.2654418945312 C 260.2415771484375 545.7523193359375 254.57510375976562 550.6157836914062 247.70230102539062 552.0721435546875 C 240.31886291503906 550.1360473632812 234.85128784179688 544.6864013671875 232.796142578125 537.1548461914062 C 233.17349243164062 529.6803588867188 238.67201232910156 524.1522216796875 246.275390625 522.1849975585938 C 255.12107849121094 524.4374389648438 260.78704833984375 529.79541015625 262.8648986816406 537.2654418945312" stroke-width="0.0" fill="rgb(249, 46, 28)" opacity="0.99002767"/>
    <path d="M 219.9050750732422 458.3959045410156 C 217.8260498046875 466.2894592285156 212.27871704101562 471.8012390136719 203.9214324951172 473.8921203613281 C 195.68841552734375 471.8199462890625 190.14797973632812 466.3245544433594 188.08505249023438 458.54638671875 C 190.1962432861328 449.71417236328125 195.7037811279297 444.17132568359375 204.12123107910156 442.0780029296875 C 212.3123321533203 444.1600341796875 217.814453125 449.69793701171875 219.9050750732422 458.3959045410156" stroke-width="0.0" fill="rgb(60, 99, 111)" opacity="1.0"/>
    <path d="M 358.7306823730469 230.0840606689453 C 356.60125732421875 238.0712890625 351.07733154296875 243.6175079345703 342.581787109375 245.80563354492188 C 334.8033447265625 243.73854064941406 329.29998779296875 238.18165588378906 327.3443908691406 230.51458740234375 C 329.8108825683594 222.28741455078125 335.266357421875 216.74081420898438 343.5063171386719 214.2501220703125 C 351.0906982421875 216.34197998046875 356.5814514160156 221.93849182128906 358.7306823730469 230.0840606689453" stroke-width="0.0" fill="rgb(255, 150, 119)" opacity="1.0"/>
    <path d="M 413.9248046875 74.43216705322266 C 411.7950134277344 83.21983337402344 406.13189697265625 88.53626251220703 397.83172607421875 90.38737487792969 C 389.78802490234375 88.6413345336914 384.1654357910156 83.2781753540039 382.0755615234375 75.00663757324219 C 384.14410400390625 66.65509033203125 389.64910888671875 61.12979507446289 398.7091064453125 59.05302810668945 C 406.37274169921875 61.105072021484375 411.86871337890625 66.63862609863281 413.9248046875 74.43216705322266" stroke-width="0.0" fill="rgb(248, 39, 23)" opacity="1.0"/>
    <path d="M 156.7742462158203 217.69195556640625 C 154.48150634765625 225.8925323486328 148.8559112548828 231.38490295410156 141.2439422607422 233.31495666503906 C 133.2899932861328 231.24166870117188 127.86993408203125 225.67576599121094 126.03794860839844 217.5997772216797 C 127.42952728271484 209.9588165283203 132.9551544189453 204.41744995117188 141.2705841064453 202.221923828125 C 149.0828857421875 204.3526153564453 154.6116180419922 209.93215942382812 156.7742462158203 217.69195556640625" stroke-width="0.0" fill="rgb(252, 153, 123)" opacity="0.99017966"/>
    <path d="M 309.5299987792969 185.66836547851562 C 307.1914367675781 193.70184326171875 301.7043151855469 199.1996612548828 293.5719299316406 201.5819091796875 C 285.8902282714844 199.63888549804688 280.355224609375 194.11141967773438 278.3515319824219 186.45973205566406 C 280.9287414550781 178.46595764160156 286.4877624511719 173.0025177001953 294.49005126953125 170.3387451171875 C 302.037841796875 172.38973999023438 307.52667236328125 177.99346923828125 309.5299987792969 185.66836547851562" stroke-width="0.0" fill="rgb(144, 232, 146)" opacity="0.99325293"/>
    <path d="M 266.0003967285156 210.0010223388672 C 264.00103759765625 217.52767944335938 258.59130859375 223.20166015625 250.3115234375 225.8327178955078 C 242.65963745117188 223.84130859375 237.1392364501953 218.34762573242188 235.12615966796875 210.68817138671875 C 237.46337890625 202.1143798828125 243.24810791015625 196.84542846679688 250.96165466308594 194.97584533691406 C 258.5 197.00961303710938 263.9903869628906 202.5 266.0003967285156 210.0010223388672" stroke-width="0.0" fill="rgb(142, 230, 141)" opacity="1.0"/>
    <path d="M 302.3160400390625 307.8711853027344 C 300.24578857421875 315.828125 294.9299011230469 321.5479431152344 286.9021301269531 323.78216552734375 C 278.9657287597656 321.6040344238281 273.50030517578125 315.99761962890625 271.13775634765625 307.3232421875 C 273.2691650390625 299.9314880371094 279.13140869140625 294.7847900390625 286.9783020019531 292.9580383300781 C 294.63604736328125 294.9136962890625 300.27691650390625 300.3038330078125 302.3160400390625 307.8711853027344" stroke-width="0.0" fill="rgb(155, 231, 152)" opacity="1.0"/>
    <path d="M 397.6826171875 350.33428955078125 C 395.9903869628906 357.5 390.5 362.9903869628906 383.3277893066406 364.68426513671875 C 376.153076171875 362.3735656738281 370.7740783691406 356.7975158691406 367.16839599609375 349.1362609863281 C 369.1204528808594 341.672119140625 374.7994079589844 337.3016052246094 383.10137939453125 335.9098815917969 C 389.80926513671875 337.7496032714844 395.3674621582031 343.15313720703125 397.6826171875 350.33428955078125" stroke-width="0.0" fill="rgb(3, 2, 2)" opacity="0.9900211"/>
    <path d="M 294.4321594238281 166.453125 C 292.4368591308594 174.0095672607422 287.0201721191406 179.46734619140625 279.5531921386719 181.99398803710938 C 272.4111328125 180.1873016357422 266.99658203125 174.53111267089844 264.5011291503906 166.5965576171875 C 266.40509033203125 158.93984985351562 271.9347839355469 153.38836669921875 280.1815185546875 151.18487548828125 C 288.04132080078125 153.36952209472656 293.4978332519531 159.00906372070312 294.4321594238281 166.453125" stroke-width="0.0" fill="rgb(252, 153, 123)" opacity="0.9902089"/>
    <path d="M 318.75262451171875 380.0430603027344 C 316.57550048828125 388.01678466796875 311.0030517578125 393.5368957519531 302.4717102050781 395.8070983886719 C 294.7444152832031 393.76800537109375 289.1723937988281 388.2809753417969 287.1087646484375 380.51495361328125 C 289.18878173828125 371.6933898925781 294.68505859375 366.16741943359375 302.38671875 364.1598205566406 C 311.09344482421875 366.37109375 316.613525390625 371.9122619628906 318.75262451171875 380.0430603027344" stroke-width="0.0" fill="rgb(142, 230, 145)" opacity="1.0"/>
    <path d="M 440.30401611328125 514.7310180664062 C 438.2442321777344 522.8416137695312 432.9337158203125 528.52978515625 425.35430908203125 530.4734497070312 C 417.2100830078125 528.151123046875 411.318359375 522.998046875 409.0832214355469 514.4544677734375 C 411.1532897949219 506.6744079589844 416.6786804199219 501.16387939453125 424.8240661621094 499.0874328613281 C 433.2477111816406 501.18951416015625 438.6077575683594 506.82220458984375 440.30401611328125 514.7310180664062" stroke-width="0.0" fill="rgb(249, 42, 25)" opacity="1.0"/>
    <path d="M 114.81759643554688 385.44537353515625 C 112.66275024414062 393.02880859375 106.88765716552734 398.258544921875 99.06455993652344 400.0301208496094 C 91.5 397.9903869628906 86.0096206665039 392.5 83.82867431640625 384.83502197265625 C 85.63862609863281 377.1202697753906 91.09902954101562 371.5700988769531 98.85639953613281 369.637451171875 C 106.92597961425781 371.6439208984375 112.5714340209961 377.0047302246094 114.81759643554688 385.44537353515625" stroke-width="0.0" fill="rgb(252, 153, 121)" opacity="1.0"/>
    <path d="M 318.8966979980469 105.3112564086914 C 316.6116943359375 114.02247619628906 310.99078369140625 119.53001403808594 302.7100830078125 121.74121856689453 C 294.9202880859375 119.63160705566406 289.3641052246094 114.08158111572266 287.23504638671875 105.93807983398438 C 289.29229736328125 97.77851104736328 294.7414245605469 92.1939926147461 303.1842346191406 90.08638000488281 C 311.31256103515625 92.17167663574219 316.84521484375 97.68032836914062 318.8966979980469 105.3112564086914" stroke-width="0.0" fill="rgb(252, 105, 80)" opacity="1.0"/>
    <path d="M 412.0004577636719 97.00121307373047 C 410.00311279296875 104.5333251953125 404.6112365722656 110.24246978759766 396.2432556152344 112.88472747802734 C 388.6995849609375 110.84362030029297 383.267578125 105.25971984863281 381.4210205078125 97.34738159179688 C 383.54742431640625 89.16011810302734 389.2545166015625 83.83476257324219 396.95391845703125 81.9681167602539 C 404.5 84.0096206665039 409.9903869628906 89.5 412.0004577636719 97.00121307373047" stroke-width="0.0" fill="rgb(252, 157, 124)" opacity="1.0"/>
    <path d="M 454.93414306640625 99.42428588867188 C 452.84027099609375 108.32077026367188 447.31866455078125 113.83458709716797 439.7005310058594 115.76929473876953 C 430.9657897949219 113.53172302246094 425.5057067871094 108.02264404296875 423.1424255371094 99.26005554199219 C 425.1517028808594 91.6646957397461 430.6587219238281 86.13721466064453 439.59661865234375 84.05841827392578 C 447.3802185058594 86.104736328125 452.884521484375 91.62431335449219 454.93414306640625 99.42428588867188" stroke-width="0.0" fill="rgb(244, 38, 21)" opacity="1.0"/>
    <path d="M 21.74911117553711 263.77972412109375 C 19.519235610961914 271.998779296875 14.028860092163086 277.5995788574219 6.237070083618164 279.75726318359375 C -1.7636398077011108 277.4180603027344 -7.063236236572266 271.64166259765625 -9.00818157196045 264.0049133300781 C -7.038880348205566 256.3976135253906 -1.7160168886184692 250.6288604736328 6.212562561035156 248.76885986328125 C 14.050271987915039 250.40213012695312 19.59527015686035 255.95167541503906 21.74911117553711 263.77972412109375" stroke-width="0.0" fill="rgb(252, 193, 116)" opacity="1.0"/>
    <path d="M 432.7528076171875 394.1003112792969 C 430.6218566894531 402.0939636230469 425.11236572265625 407.67083740234375 417.1481018066406 409.80517578125 C 408.9577941894531 407.6067199707031 403.45758056640625 402.01995849609375 401.5896911621094 394.3379821777344 C 404.00958251953125 386.5 409.5 381.0096130371094 417.01226806640625 378.993408203125 C 424.63031005859375 380.9400634765625 430.4191589355469 386.2445983886719 432.7528076171875 394.1003112792969" stroke-width="0.0" fill="rgb(252, 151, 118)" opacity="1.0"/>
    <path d="M 566.862548828125 320.21624755859375 C 563.774169921875 327.9288330078125 557.7863159179688 333.1807556152344 550.1835327148438 335.1571044921875 C 543.0560302734375 334.6309814453125 537.8761596679688 328.7497253417969 535.9892578125 321.0221252441406 C 538.0096435546875 313.5 543.5 308.0096130371094 551.7401733398438 305.2007141113281 C 559.3597412109375 307.13726806640625 564.8771362304688 312.6348571777344 566.862548828125 320.21624755859375" stroke-width="0.0" fill="rgb(245, 37, 22)" opacity="1.0"/>
    <path d="M 298.121826171875 292.90277099609375 C 296.2385559082031 299.7788391113281 290.7696533203125 305.2132873535156 283.1921081542969 307.1781005859375 C 275.63677978515625 306.8523864746094 270.10455322265625 301.3790588378906 268.3707275390625 293.8610534667969 C 271.5304870605469 285.0494689941406 275.7551574707031 279.14971923828125 284.37823486328125 277.04388427734375 C 292.25567626953125 279.1429138183594 296.682373046875 284.9788818359375 298.121826171875 292.90277099609375" stroke-width="0.0" fill="rgb(28, 47, 26)" opacity="0.9900211"/>
    <path d="M 433.828369140625 532.1558227539062 C 430.1672058105469 539.6864624023438 424.6715087890625 545.1277465820312 417.1861267089844 547.07568359375 C 409.6441650390625 546.8341674804688 404.11151123046875 541.3735961914062 402.1032409667969 533.765380859375 C 404.4154357910156 525.1201782226562 410.5988464355469 520.523681640625 417.6708984375 518.9075927734375 C 425.40155029296875 520.653076171875 431.7879333496094 524.8922729492188 433.828369140625 532.1558227539062" stroke-width="0.0" fill="rgb(2, 2, 3)" opacity="0.99001324"/>
    <path d="M 319.0812683105469 240.5671844482422 C 317.7717590332031 249.12779235839844 313.2967224121094 254.87149047851562 305.8597412109375 256.93048095703125 C 298.3245544433594 253.1630096435547 292.86676025390625 247.6660614013672 290.94476318359375 240.93605041503906 C 292.850830078125 234.30511474609375 298.30267333984375 228.84518432617188 305.7456970214844 226.85118103027344 C 312.5036926269531 228.00607299804688 317.7445068359375 233.5782012939453 319.0812683105469 240.5671844482422" stroke-width="0.0" fill="rgb(2, 3, 2)" opacity="0.9900087"/>
    <path d="M 102.09420776367188 280.902099609375 C 100.11831665039062 288.73382568359375 94.91156768798828 294.5939636230469 86.56172943115234 296.88055419921875 C 78.83275604248047 294.7527160644531 73.5035400390625 289.07818603515625 71.15852355957031 280.27886962890625 C 73.16321563720703 272.6807861328125 78.67561340332031 267.1508483886719 86.38017272949219 265.0887756347656 C 95.10260772705078 267.2802734375 100.35635375976562 273.0259094238281 102.09420776367188 280.902099609375" stroke-width="0.0" fill="rgb(58, 99, 112)" opacity="1.0"/>
    <path d="M 166.733642578125 439.19403076171875 C 164.60931396484375 447.0437927246094 159.01373291015625 452.5269775390625 150.56106567382812 454.774658203125 C 142.87265014648438 452.68157958984375 137.28640747070312 447.1411437988281 135.12734985351562 438.82806396484375 C 137.3838653564453 431.05853271484375 143.17672729492188 425.6504821777344 151.59912109375 423.2348937988281 C 159.1940460205078 425.2371826171875 164.61045837402344 430.8633117675781 166.733642578125 439.19403076171875" stroke-width="0.0" fill="rgb(252, 164, 128)" opacity="1.0"/>
    <path d="M 556.2803344726562 319.3121337890625 C 553.6200561523438 326.10711669921875 548.1055908203125 331.6078186035156 540.8325805664062 333.83380126953125 C 533.5 331.9903869628906 528.0096435546875 326.5 525.2122802734375 318.3132629394531 C 527.2044677734375 310.765869140625 532.8343505859375 305.4082336425781 540.6603393554688 303.7953186035156 C 548.1353149414062 306.30548095703125 553.4740600585938 311.9342956542969 556.2803344726562 319.3121337890625" stroke-width="0.0" fill="rgb(71, 11, 6)" opacity="0.990087"/>
    <path d="M 475.0677490234375 312.6326599121094 C 473.66571044921875 320.0167236328125 469.18060302734375 325.75244140625 461.474609375 327.8218688964844 C 452.9198913574219 325.61053466796875 447.3443603515625 320.0972900390625 445.305419921875 312.5343933105469 C 448.00335693359375 304.4979553222656 453.4996643066406 299.0094909667969 460.46600341796875 297.5458679199219 C 467.7105407714844 299.7862243652344 473.1332092285156 305.3175048828125 475.0677490234375 312.6326599121094" stroke-width="0.0" fill="rgb(252, 152, 118)" opacity="0.99003905"/>
    <path d="M 285.9434814453125 549.6355590820312 C 283.88787841796875 557.3610229492188 278.32147216796875 562.7537841796875 270.75823974609375 563.0918579101562 C 263.31500244140625 561.14453125 257.8204345703125 555.697265625 255.262451171875 548.4144897460938 C 256.5400085449219 540.917724609375 261.8013916015625 535.207275390625 270.49151611328125 533.0709838867188 C 278.3523254394531 535.1350708007812 283.8691711425781 540.6459350585938 285.9434814453125 549.6355590820312" stroke-width="0.0" fill="rgb(247, 45, 25)" opacity="0.99007565"/>
    <path d="M 328.86181640625 309.1456298828125 C 326.8075256347656 318.3465576171875 321.3739318847656 323.89410400390625 313.8878173828125 324.20263671875 C 306.3128356933594 322.159912109375 300.8816223144531 316.6692199707031 298.94061279296875 309.4540100097656 C 300.85791015625 303.3271484375 306.33526611328125 297.87744140625 313.68975830078125 295.94085693359375 C 321.2580261230469 296.62396240234375 326.8965148925781 301.6479797363281 328.86181640625 309.1456298828125" stroke-width="0.0" fill="rgb(3, 3, 3)" opacity="0.990008"/>
    <path d="M 249.0852508544922 501.37786865234375 C 247.196044921875 508.7358093261719 241.73736572265625 514.2017211914062 234.24073791503906 516.4674072265625 C 226.67239379882812 515.8082275390625 221.10800170898438 510.3602600097656 219.05035400390625 502.7170104980469 C 221.23431396484375 493.83282470703125 226.89608764648438 488.3691711425781 235.7850341796875 486.08026123046875 C 243.36898803710938 488.1104736328125 248.7847442626953 493.6615295410156 249.0852508544922 501.37786865234375" stroke-width="0.0" fill="rgb(3, 2, 2)" opacity="0.990012"/>
    <path d="M 419.9529724121094 488.6365051269531 C 417.864501953125 497.3091735839844 412.24749755859375 502.7059326171875 404.2763977050781 503.87158203125 C 397.0741271972656 501.6974182128906 391.7867736816406 495.80816650390625 388.4837341308594 488.11578369140625 C 390.0860595703125 480.59930419921875 395.6137390136719 475.12371826171875 403.3511047363281 473.139404296875 C 412.2696533203125 475.24334716796875 417.87298583984375 480.6795959472656 419.9529724121094 488.6365051269531" stroke-width="0.0" fill="rgb(2, 2, 2)" opacity="0.99001396"/>
    <path d="M 103.86732482910156 339.37933349609375 C 101.52880096435547 347.85540771484375 95.70150756835938 353.10205078125 88.02057647705078 355.0090026855469 C 80.50099182128906 352.9892883300781 75.01099395751953 347.4989318847656 72.29387664794922 339.3622131347656 C 74.19638061523438 331.6960144042969 79.67327880859375 326.1394958496094 87.33206176757812 324.09716796875 C 96.31671905517578 326.17901611328125 101.83662414550781 331.677734375 103.86732482910156 339.37933349609375" stroke-width="0.0" fill="rgb(252, 155, 121)" opacity="1.0"/>
    <path d="M 268.9004821777344 269.689453125 C 266.7201843261719 278.12066650390625 261.0762939453125 283.62164306640625 252.94956970214844 285.8043518066406 C 244.95614624023438 283.6216735839844 239.43533325195312 278.020263671875 237.24497985839844 270.1844787597656 C 239.4326629638672 261.9718017578125 244.97410583496094 256.43963623046875 253.72352600097656 254.14369201660156 C 261.3408203125 256.14373779296875 266.8544006347656 261.65985107421875 268.9004821777344 269.689453125" stroke-width="0.0" fill="rgb(149, 228, 147)" opacity="1.0"/>
    <path d="M 475.99530029296875 143.025634765625 C 474.0968322753906 150.68418884277344 468.8079528808594 156.457275390625 460.8040466308594 158.75820922851562 C 452.9908142089844 156.569580078125 447.41680908203125 151.01473999023438 445.20233154296875 143.05055236816406 C 447.41552734375 134.9661865234375 452.9691162109375 129.425537109375 460.59320068359375 127.387939453125 C 468.5156555175781 129.96243286132812 473.98431396484375 135.49969482421875 475.99530029296875 143.025634765625" stroke-width="0.0" fill="rgb(255, 153, 121)" opacity="1.0"/>
    <path d="M 314.8312072753906 211.25830078125 C 312.0120544433594 219.5452880859375 306.6029052734375 225.19532775878906 298.5067138671875 227.74595642089844 C 290.91436767578125 225.65574645996094 285.4552307128906 220.04507446289062 283.2718200683594 211.76321411132812 C 285.4408874511719 204.03451538085938 291.1012878417969 198.6367950439453 299.4182434082031 196.4407196044922 C 307.25518798828125 198.27883911132812 312.8358459472656 203.70436096191406 314.8312072753906 211.25830078125" stroke-width="0.0" fill="rgb(138, 226, 142)" opacity="1.0"/>
    <path d="M 277.5205993652344 178.4134979248047 C 275.59527587890625 186.05276489257812 270.0447998046875 191.5751495361328 262.42120361328125 193.56590270996094 C 254.5 190.99038696289062 249.00961303710938 185.5 246.49700927734375 177.62135314941406 C 248.43768310546875 169.93382263183594 253.88368225097656 164.3058319091797 261.5231018066406 162.1901397705078 C 269.65869140625 164.6870880126953 275.0146179199219 170.442138671875 277.5205993652344 178.4134979248047" stroke-width="0.0" fill="rgb(255, 150, 120)" opacity="1.0"/>
    <path d="M 401.91558837890625 521.4661865234375 C 399.8497314453125 529.3303833007812 394.33087158203125 534.8507080078125 386.36114501953125 536.9180908203125 C 377.69451904296875 534.8313598632812 372.2066345214844 529.2913818359375 371.5827941894531 521.6997680664062 C 373.5765380859375 514.082763671875 379.1415710449219 508.7367858886719 386.6186828613281 506.87579345703125 C 394.19769287109375 507.4268798828125 399.7998046875 512.7423095703125 401.91558837890625 521.4661865234375" stroke-width="0.0" fill="rgb(247, 42, 25)" opacity="0.990027"/>
    <path d="M 410.62969970703125 234.7042236328125 C 408.3716125488281 242.86636352539062 402.92608642578125 248.53253173828125 395.3891296386719 250.63938903808594 C 387.0127258300781 248.38641357421875 381.2986145019531 243.0959930419922 379.165771484375 235.44761657714844 C 381.44061279296875 227.00502014160156 387.00732421875 221.44630432128906 394.9704895019531 219.24700927734375 C 403.0396423339844 221.41807556152344 408.5832214355469 226.95985412597656 410.62969970703125 234.7042236328125" stroke-width="0.0" fill="rgb(196, 201, 137)" opacity="1.0"/>
    <path d="M 225.86219787597656 156.9247589111328 C 224.31126403808594 164.82888793945312 218.88108825683594 170.4666290283203 210.60568237304688 172.7598876953125 C 202.84024047851562 170.6957550048828 197.2921905517578 165.16421508789062 195.2692413330078 157.5569610595703 C 197.6531982421875 149.06204223632812 202.9459686279297 143.32655334472656 211.36386108398438 141.11447143554688 C 219.072021484375 143.2943572998047 224.39576721191406 149.0506591796875 225.86219787597656 156.9247589111328" stroke-width="0.0" fill="rgb(153, 229, 143)" opacity="0.9902844"/>
    <path d="M 264.95513916015625 84.36986541748047 C 262.8736572265625 93.33869934082031 257.310791015625 98.80624389648438 249.45516967773438 100.86917114257812 C 241.19253540039062 98.51641845703125 235.9531707763672 92.62858581542969 233.99815368652344 85.0064926147461 C 236.00961303710938 77.5 241.5 72.0096206665039 249.7448272705078 69.21285247802734 C 257.38287353515625 71.1245346069336 262.9085388183594 76.6047134399414 264.95513916015625 84.36986541748047" stroke-width="0.0" fill="rgb(55, 98, 109)" opacity="1.0"/>
    <path d="M 429.3358154296875 109.58769989013672 C 427.6375427246094 117.06661987304688 422.0189514160156 122.50102233886719 413.2599792480469 124.77145385742188 C 405.63446044921875 122.86871337890625 400.12310791015625 117.36872100830078 398.16009521484375 109.7772216796875 C 401.0096130371094 101.5 406.5 96.0096206665039 414.730224609375 93.14869689941406 C 422.1964111328125 95.2139663696289 427.3451843261719 100.93004608154297 429.3358154296875 109.58769989013672" stroke-width="0.0" fill="rgb(252, 155, 121)" opacity="1.0"/>
    <path d="M 169.71942138671875 247.0725555419922 C 167.33175659179688 254.6625213623047 161.51148986816406 259.8721008300781 153.20677185058594 262.8084716796875 C 145.68087768554688 260.8473205566406 140.17893981933594 255.30810546875 138.16452026367188 247.6833038330078 C 140.51708984375 239.03475952148438 146.02430725097656 233.4862060546875 153.90875244140625 231.383544921875 C 161.9368896484375 233.53826904296875 167.4918212890625 239.05276489257812 169.71942138671875 247.0725555419922" stroke-width="0.0" fill="rgb(144, 228, 145)" opacity="1.0"/>
    <path d="M 538.1448974609375 394.1744079589844 C 536.1473999023438 401.6814270019531 530.6762084960938 407.134521484375 523.1778564453125 409.1050109863281 C 515.6982421875 408.8005065917969 510.16473388671875 403.3139343261719 508.1319274902344 395.7199401855469 C 510.8123474121094 387.4212341308594 516.4811401367188 382.0029296875 524.6334838867188 379.3116760253906 C 532.304931640625 381.1933898925781 537.8202514648438 386.6902160644531 538.1448974609375 394.1744079589844" stroke-width="0.0" fill="rgb(248, 46, 26)" opacity="0.99003184"/>
    <path d="M 263.4461364746094 193.22581481933594 C 261.1759033203125 200.5814208984375 255.5269775390625 206.00140380859375 248.28704833984375 207.5804901123047 C 240.77757263183594 205.58387756347656 235.01641845703125 200.3444061279297 232.34548950195312 192.4600372314453 C 234.30560302734375 184.86196899414062 239.88650512695312 179.3686065673828 247.5174102783203 177.3676300048828 C 255.5004119873047 180.00924682617188 260.99114990234375 185.49948120117188 263.4461364746094 193.22581481933594" stroke-width="0.0" fill="rgb(252, 152, 122)" opacity="0.99035376"/>
    <path d="M 318.9265441894531 570.442626953125 C 315.66558837890625 577.8145751953125 309.7260437011719 583.1610717773438 303.3567810058594 585.0601806640625 C 296.3565368652344 583.1216430664062 290.9134826660156 577.6284790039062 288.95025634765625 570.1445922851562 C 289.3095397949219 562.83544921875 294.83740234375 557.3101806640625 303.5069580078125 555.2932739257812 C 311.20166015625 557.2412109375 316.77130126953125 562.7938842773438 318.9265441894531 570.442626953125" stroke-width="0.0" fill="rgb(2, 2, 4)" opacity="0.99000823"/>
    <path d="M 335.3534851074219 193.69850158691406 C 332.99041748046875 201.50006103515625 327.5004577636719 206.99191284179688 319.3059387207031 209.76889038085938 C 311.70758056640625 207.82374572753906 306.2529602050781 202.26502990722656 304.3482971191406 194.40135192871094 C 306.352783203125 185.7837371826172 311.7158203125 180.15809631347656 319.30145263671875 178.09796142578125 C 328.1033630371094 180.31585693359375 333.5282287597656 185.95375061035156 335.3534851074219 193.69850158691406" stroke-width="0.0" fill="rgb(132, 195, 119)" opacity="1.0"/>
    <path d="M 351.33935546875 562.1195678710938 C 348.10748291015625 569.6461181640625 342.6506042480469 575.1176147460938 335.1856689453125 577.0816040039062 C 327.6777648925781 576.7794799804688 322.1190490722656 571.3548583984375 320.07171630859375 563.634521484375 C 322.1805114746094 554.7110595703125 327.7159423828125 549.1920776367188 335.75018310546875 547.1054077148438 C 344.2874450683594 549.1953125 349.83380126953125 554.7003784179688 351.33935546875 562.1195678710938" stroke-width="0.0" fill="rgb(120, 27, 17)" opacity="0.9900156"/>
    <path d="M 218.28245544433594 188.85092163085938 C 217.89894104003906 196.3982696533203 212.3974151611328 201.89645385742188 204.8563232421875 202.1680145263672 C 197.29690551757812 200.15621948242188 191.819091796875 194.7130126953125 189.8496856689453 187.28526306152344 C 190.2266082763672 179.67601013183594 195.635986328125 174.10581970214844 203.098388671875 172.3197479248047 C 210.71702575683594 175.84507751464844 216.2030029296875 181.26255798339844 218.28245544433594 188.85092163085938" stroke-width="0.0" fill="rgb(2, 2, 2)" opacity="0.990011"/>
    <path d="M 370.6668395996094 514.936279296875 C 368.5440673828125 523.0233154296875 363.0292053222656 528.56103515625 355.1824035644531 530.5594482421875 C 347.0456237792969 528.4575805664062 341.4498291015625 522.9864501953125 339.2407531738281 514.6900024414062 C 341.365966796875 506.9646301269531 347.0250549316406 501.52203369140625 355.13165283203125 499.3249816894531 C 362.99578857421875 501.4601745605469 368.5395202636719 507.0043640136719 370.6668395996094 514.936279296875" stroke-width="0.0" fill="rgb(147, 230, 148)" opacity="0.99208885"/>
    <path d="M 413.2889404296875 354.8497009277344 C 412.8949279785156 362.3902282714844 407.3814392089844 367.86785888671875 399.6194152832031 368.309814453125 C 391.5041198730469 366.9508361816406 385.9364929199219 361.5283203125 383.81573486328125 354.09722900390625 C 386.10888671875 346.68218994140625 391.8520812988281 341.5630798339844 398.3619079589844 339.9282531738281 C 405.7276306152344 341.8316345214844 411.2015686035156 347.2585754394531 413.2889404296875 354.8497009277344" stroke-width="0.0" fill="rgb(2, 2, 3)" opacity="0.9900138"/>
    <path d="M 178.34738159179688 151.78643798828125 C 176.34242248535156 159.8778533935547 170.9115753173828 165.45057678222656 162.84933471679688 167.55751037597656 C 154.99139404296875 165.5350341796875 149.40504455566406 160.02978515625 147.23019409179688 152.24313354492188 C 149.42855834960938 143.93402099609375 154.86480712890625 138.264892578125 163.61231994628906 136.0771942138672 C 171.27305603027344 138.16091918945312 176.61532592773438 143.8064727783203 178.34738159179688 151.78643798828125" stroke-width="0.0" fill="rgb(252, 153, 115)" opacity="1.0"/>
    <path d="M 170.7840118408203 347.6907958984375 C 168.5815887451172 356.0322265625 163.0343475341797 361.5893249511719 155.23040771484375 363.7581481933594 C 146.93307495117188 361.57666015625 141.3253936767578 356.1039123535156 139.15521240234375 348.0185241699219 C 141.34689331054688 339.9786071777344 147.1128692626953 334.7292175292969 155.1328887939453 332.7785949707031 C 162.99734497070312 334.5639953613281 168.65780639648438 339.9272766113281 170.7840118408203 347.6907958984375" stroke-width="0.0" fill="rgb(255, 158, 123)" opacity="1.0"/>
    <path d="M 321.7370300292969 469.69384765625 C 319.50146484375 477.96929931640625 313.9765319824219 483.52081298828125 306.00531005859375 485.66033935546875 C 297.9880676269531 483.5296936035156 292.38568115234375 478.043212890625 290.1859436035156 469.8818359375 C 292.3594055175781 461.9442443847656 297.99163818359375 456.4838562011719 306.17254638671875 454.3105773925781 C 314.0664978027344 456.4103088378906 319.6423645019531 461.91363525390625 321.7370300292969 469.69384765625" stroke-width="0.0" fill="rgb(140, 233, 143)" opacity="1.0"/>
    <path d="M 546.2138671875 154.20953369140625 C 544.4126586914062 160.9529571533203 538.9415893554688 166.38241577148438 531.5902099609375 168.4992218017578 C 524.3937377929688 167.03472900390625 518.5310668945312 161.7674102783203 516.2562255859375 153.861328125 C 518.4894409179688 146.05303955078125 524.0693359375 140.5364990234375 531.4519653320312 139.18482971191406 C 538.9517822265625 141.6183319091797 544.3941040039062 147.04249572753906 546.2138671875 154.20953369140625" stroke-width="0.0" fill="rgb(255, 193, 123)" opacity="0.990061"/>
    <path d="M 108.7070541381836 404.36492919921875 C 106.64494323730469 412.131591796875 101.15507507324219 417.7067565917969 93.14888000488281 419.8096618652344 C 84.85360717773438 417.6792907714844 79.3326644897461 412.1419982910156 77.34255981445312 404.5176696777344 C 80.0096206665039 396.5 85.5 391.0096130371094 92.8530044555664 389.1726989746094 C 100.26890563964844 391.30548095703125 106.15230560302734 396.6089172363281 108.7070541381836 404.36492919921875" stroke-width="0.0" fill="rgb(162, 233, 144)" opacity="1.0"/>
    <path d="M 97.00019836425781 390.9997863769531 C 94.9903793334961 398.5 89.5 403.9903869628906 81.2842788696289 406.7931213378906 C 73.6793212890625 404.8370056152344 68.15520477294922 399.32342529296875 66.06646728515625 391.043212890625 C 68.1662368774414 382.7237243652344 73.78959655761719 377.35369873046875 81.54157257080078 376.4670715332031 C 89.47000885009766 378.0997619628906 94.98980712890625 383.5038757324219 97.00019836425781 390.9997863769531" stroke-width="0.0" fill="rgb(238, 32, 22)" opacity="0.9905617"/>
    <path d="M 370.89202880859375 337.9041748046875 C 368.9068908691406 345.379150390625 363.342041015625 350.80029296875 355.81646728515625 351.0964660644531 C 348.338623046875 349.11920166015625 342.8473815917969 343.6746826171875 339.1122741699219 336.1013488769531 C 341.10870361328125 328.6595153808594 346.75421142578125 323.4945983886719 354.4171142578125 322.89727783203125 C 361.74462890625 324.788818359375 367.17510986328125 330.27001953125 370.89202880859375 337.9041748046875" stroke-width="0.0" fill="rgb(2, 2, 2)" opacity="0.9900099"/>
    <path d="M 257.69671630859375 409.46197509765625 C 254.99038696289062 417.5 249.5 422.9903869628906 241.5545654296875 425.5848083496094 C 233.94976806640625 423.59759521484375 228.42098999023438 418.0430908203125 226.19386291503906 409.64715576171875 C 228.312744140625 401.8558044433594 233.85459899902344 396.3105163574219 241.89947509765625 394.1978454589844 C 250.1046600341797 396.3398132324219 255.652099609375 401.89935302734375 257.69671630859375 409.46197509765625" stroke-width="0.0" fill="rgb(255, 154, 122)" opacity="1.0"/>
    <path d="M 493.880615234375 245.79483032226562 C 491.8955078125 253.38284301757812 486.3783874511719 258.88482666015625 478.5083923339844 260.9396057128906 C 469.7191467285156 258.8117980957031 464.1781311035156 253.28619384765625 462.0784912109375 244.62771606445312 C 464.1476135253906 236.661376953125 469.6570129394531 231.1375274658203 477.7058410644531 229.07296752929688 C 486.2907409667969 231.17018127441406 491.7381591796875 236.74209594726562 493.880615234375 245.79483032226562" stroke-width="0.0" fill="rgb(252, 40, 29)" opacity="0.9901018"/>
    <path d="M 465.84539794921875 296.1849365234375 C 462.8299865722656 304.4449462890625 457.4932556152344 309.9881591796875 449.6009216308594 312.49688720703125 C 441.95562744140625 310.5856018066406 436.44000244140625 305.03460693359375 434.2607727050781 296.894775390625 C 436.39532470703125 288.9245300292969 441.9165344238281 283.373779296875 450.00140380859375 281.244384765625 C 458.2059631347656 283.3183288574219 463.83660888671875 288.7303161621094 465.84539794921875 296.1849365234375" stroke-width="0.0" fill="rgb(252, 150, 119)" opacity="1.0"/>
    <path d="M 414.8260498046875 93.28653717041016 C 411.9659423828125 101.48750305175781 406.4927673339844 106.98426055908203 398.9910888671875 109.01258087158203 C 391.49493408203125 107.00009155273438 386.0095520019531 101.50225830078125 383.4211730957031 93.52877044677734 C 385.37591552734375 86.00831604003906 391.247802734375 81.2982406616211 399.1866760253906 79.7673568725586 C 407.0728759765625 80.68653106689453 412.7872009277344 85.79903411865234 414.8260498046875 93.28653717041016" stroke-width="0.0" fill="rgb(251, 154, 128)" opacity="0.99116015"/>
    <path d="M 505.93621826171875 412.2602233886719 C 503.8401184082031 421.32830810546875 498.3382568359375 426.8634033203125 490.7870788574219 428.8924560546875 C 482.4555969238281 426.0668640136719 476.81768798828125 420.5828857421875 475.12030029296875 412.85089111328125 C 476.3330993652344 404.76171875 481.7068786621094 399.1620178222656 490.6717529296875 397.0634460449219 C 498.393798828125 399.0990295410156 503.90411376953125 404.6050720214844 505.93621826171875 412.2602233886719" stroke-width="0.0" fill="rgb(228, 45, 25)" opacity="0.99022335"/>
    <path d="M 399.4167175292969 371.1450500488281 C 397.05517578125 378.6204833984375 391.74359130859375 384.4080810546875 383.6825866699219 386.79290771484375 C 375.9425964355469 384.6266174316406 370.45556640625 379.02728271484375 368.29595947265625 371.0174865722656 C 370.5650329589844 363.1021728515625 376.0864562988281 357.531494140625 383.1937561035156 356.918701171875 C 390.7029724121094 358.86956787109375 396.3637390136719 364.22467041015625 399.4167175292969 371.1450500488281" stroke-width="0.0" fill="rgb(252, 152, 125)" opacity="0.9900674"/>
    <path d="M 254.89041137695312 72.1801528930664 C 252.02850341796875 80.5182876586914 246.50796508789062 85.99313354492188 239.00184631347656 87.99095153808594 C 231.5032196044922 85.98600769042969 226.01275634765625 80.49713897705078 223.98965454101562 72.98332977294922 C 225.93821716308594 65.3695068359375 231.19163513183594 59.478641510009766 239.80413818359375 57.06322479248047 C 247.39193725585938 59.09724426269531 252.89175415039062 64.61258697509766 254.89041137695312 72.1801528930664" stroke-width="0.0" fill="rgb(53, 95, 105)" opacity="1.0"/>
    <path d="M 182.86985778808594 482.57379150390625 C 180.8524932861328 490.36077880859375 175.37803649902344 495.8970947265625 167.80564880371094 497.890380859375 C 159.0113525390625 495.61297607421875 153.73272705078125 489.8695068359375 151.5583953857422 481.65618896484375 C 153.3828887939453 473.8793029785156 158.86175537109375 468.3304138183594 166.5518341064453 466.4258728027344 C 174.9238739013672 468.6953430175781 180.67079162597656 473.9497985839844 182.86985778808594 482.57379150390625" stroke-width="0.0" fill="rgb(2, 2, 2)" opacity="0.9900251"/>
    <path d="M 507.5135498046875 336.8533630371094 C 506.80841064453125 344.2583923339844 501.217529296875 349.7000732421875 493.2004089355469 351.7537536621094 C 484.95068359375 349.5948486328125 479.3917541503906 344.05377197265625 477.2130126953125 335.98992919921875 C 479.3331298828125 327.8312072753906 484.7851257324219 322.2186584472656 492.1731872558594 320.4541320800781 C 499.6639709472656 323.86053466796875 505.126220703125 329.3409118652344 507.5135498046875 336.8533630371094" stroke-width="0.0" fill="rgb(252, 149, 116)" opacity="0.9900335"/>
    <path d="M 98.46418762207031 392.6577453613281 C 97.50867462158203 399.5229187011719 91.01647186279297 404.30035400390625 83.29656982421875 406.1982116699219 C 76.15568542480469 405.498046875 70.89237976074219 399.7088317871094 68.99275970458984 392.0218811035156 C 71.01240539550781 384.5035095214844 76.5050048828125 379.0174865722656 83.59601593017578 377.5139465332031 C 90.93934631347656 379.6106262207031 96.36780548095703 385.06781005859375 98.46418762207031 392.6577453613281" stroke-width="0.0" fill="rgb(235, 31, 23)" opacity="0.99023706"/>
    <path d="M 161.904052734375 485.2532653808594 C 159.82749938964844 493.3172607421875 154.32749938964844 498.85272216796875 145.6165313720703 500.9374694824219 C 137.6791229248047 498.85491943359375 132.1743927001953 493.30792236328125 130.07672119140625 484.5692443847656 C 132.15269470214844 476.6749267578125 137.6790771484375 471.16302490234375 146.2392120361328 469.07611083984375 C 154.2959747314453 471.1719665527344 159.8031768798828 476.71453857421875 161.904052734375 485.2532653808594" stroke-width="0.0" fill="rgb(253, 44, 25)" opacity="1.0"/>
    <path d="M 349.71539306640625 203.83148193359375 C 347.4065246582031 211.74807739257812 341.553466796875 216.8021240234375 333.823974609375 218.50221252441406 C 326.5087890625 216.95655822753906 321.0032958984375 211.5028839111328 319.2190246582031 204.02859497070312 C 320.9849548339844 196.4621124267578 326.4542236328125 190.95521545410156 334.4831237792969 188.3558349609375 C 342.0497131347656 190.37464904785156 347.5571594238281 195.97808837890625 349.71539306640625 203.83148193359375" stroke-width="0.0" fill="rgb(170, 220, 134)" opacity="0.9903938"/>
    <path d="M 358.0084228515625 84.01576232910156 C 356.0619201660156 91.62004852294922 350.7044372558594 97.32079315185547 342.7437438964844 99.67601013183594 C 334.9396667480469 97.581298828125 329.34326171875 92.08920288085938 327.196044921875 83.6177749633789 C 329.2738952636719 75.87062072753906 334.9476013183594 70.47138214111328 342.6098937988281 69.6654052734375 C 350.4203796386719 71.20100402832031 355.98126220703125 76.5226058959961 358.0084228515625 84.01576232910156" stroke-width="0.0" fill="rgb(146, 228, 145)" opacity="1.0"/>
    <path d="M 302.7520751953125 340.5157775878906 C 300.7405090332031 348.2412414550781 295.2745666503906 353.82293701171875 287.6838684082031 355.88055419921875 C 278.8778076171875 353.6097412109375 273.2237548828125 348.1914978027344 271.14251708984375 340.4159851074219 C 273.2705383300781 331.8475036621094 278.8896179199219 326.3714599609375 286.9188232421875 324.21112060546875 C 294.96868896484375 326.43896484375 300.4179382324219 332.0836181640625 302.7520751953125 340.5157775878906" stroke-width="0.0" fill="rgb(160, 233, 147)" opacity="1.0"/>
    <path d="M 116.91681671142578 283.77191162109375 C 114.81417083740234 292.28363037109375 109.27861022949219 297.80218505859375 101.35267639160156 299.892822265625 C 92.8768310546875 297.72454833984375 87.5899887084961 292.0145263671875 85.8825912475586 284.1408386230469 C 87.9379653930664 276.3528137207031 93.1771469116211 270.4740905761719 101.54853820800781 268.11212158203125 C 109.30488586425781 270.1784362792969 114.8334732055664 275.69036865234375 116.91681671142578 283.77191162109375" stroke-width="0.0" fill="rgb(59, 100, 113)" opacity="1.0"/>
    <path d="M 331.2160949707031 511.1938171386719 C 329.4012145996094 518.9296264648438 323.9945983886719 524.5878295898438 315.95562744140625 526.8112182617188 C 307.9378967285156 524.6238403320312 302.3865661621094 519.0577392578125 300.242919921875 511.293701171875 C 302.4734802246094 502.99884033203125 307.9923400878906 497.4563293457031 315.6480407714844 495.5601806640625 C 323.5 498.0094909667969 328.9901428222656 503.5001220703125 331.2160949707031 511.1938171386719" stroke-width="0.0" fill="rgb(255, 155, 122)" opacity="1.0"/>
    <path d="M 549.8082885742188 328.37481689453125 C 547.7813720703125 336.2892150878906 542.3134155273438 341.84625244140625 534.6852416992188 343.9197998046875 C 526.40625 341.5225830078125 521.393310546875 335.2155456542969 518.1173095703125 327.1473693847656 C 520.1220703125 319.6617126464844 525.7205200195312 314.3233337402344 533.4378662109375 313.86578369140625 C 541.0946044921875 315.65118408203125 547.5079345703125 320.36846923828125 549.8082885742188 328.37481689453125" stroke-width="0.0" fill="rgb(241, 35, 27)" opacity="0.9900471"/>
    <path d="M 90.89000701904297 312.6918640136719 C 88.82365417480469 321.32977294921875 83.35425567626953 326.88385009765625 74.52312469482422 328.953369140625 C 66.60958862304688 326.9028625488281 61.098899841308594 321.3894958496094 59.0468635559082 313.6765441894531 C 61.148231506347656 304.6728210449219 66.67611694335938 299.1565856933594 75.14993286132812 297.08056640625 C 83.32572174072266 299.1546325683594 88.83597564697266 304.6779479980469 90.89000701904297 312.6918640136719" stroke-width="0.0" fill="rgb(58, 99, 113)" opacity="1.0"/>
    <path d="M 457.1362609863281 517.065185546875 C 455.0691833496094 524.6029052734375 449.60693359375 530.0778198242188 442.18133544921875 532.0391845703125 C 434.7435607910156 531.5999145507812 429.2239990234375 526.286865234375 428.8726806640625 518.737548828125 C 430.7804260253906 511.19891357421875 436.14801025390625 505.636962890625 443.43212890625 503.7969055175781 C 451.2959289550781 504.3193359375 456.8991394042969 509.63983154296875 457.1362609863281 517.065185546875" stroke-width="0.0" fill="rgb(2, 2, 3)" opacity="0.99000716"/>
    <path d="M 506.315673828125 100.596435546875 C 504.5479431152344 107.9903793334961 498.9833068847656 113.52589416503906 490.7379150390625 115.70872497558594 C 482.86224365234375 113.65153503417969 477.3166198730469 108.14913940429688 475.2252502441406 100.38932037353516 C 477.66302490234375 92.30433654785156 483.3743591308594 86.8570785522461 490.8343811035156 84.6178970336914 C 498.0641174316406 87.3843994140625 503.4150695800781 92.99727630615234 506.315673828125 100.596435546875" stroke-width="0.0" fill="rgb(255, 196, 127)" opacity="0.9910969"/>
    <path d="M 208.60302734375 365.9236755371094 C 206.43577575683594 373.9149169921875 200.94662475585938 379.52508544921875 193.2152862548828 381.7239990234375 C 185.0657958984375 379.4699401855469 179.50619506835938 373.9429626464844 177.30662536621094 365.8488464355469 C 179.4009552001953 357.92041015625 184.91127014160156 352.376220703125 192.9514923095703 350.283203125 C 200.98829650878906 352.4404296875 206.45462036132812 358.0496520996094 208.60302734375 365.9236755371094" stroke-width="0.0" fill="rgb(146, 234, 149)" opacity="0.9918736"/>
    <path d="M 447.92132568359375 239.6222686767578 C 445.8419189453125 247.30899047851562 440.2997131347656 252.82012939453125 431.60693359375 254.91111755371094 C 423.6842346191406 252.8448028564453 418.2119445800781 247.29454040527344 416.32745361328125 239.61654663085938 C 419.0840148925781 231.56224060058594 424.5631408691406 226.08724975585938 432.0506896972656 224.15773010253906 C 439.8137512207031 225.85491943359375 445.68658447265625 230.98460388183594 447.92132568359375 239.6222686767578" stroke-width="0.0" fill="rgb(128, 201, 135)" opacity="1.0"/>
    <path d="M 463.07666015625 478.2655334472656 C 462.5806579589844 487.2028503417969 457.252197265625 492.7825012207031 448.855224609375 494.7899169921875 C 440.6241149902344 492.85382080078125 435.0848388671875 487.3978576660156 433.0686340332031 479.86029052734375 C 435.3874206542969 470.9239196777344 440.8969421386719 465.32281494140625 449.81329345703125 463.0827331542969 C 457.3878173828125 465.096923828125 462.8503112792969 470.6303405761719 463.07666015625 478.2655334472656" stroke-width="0.0" fill="rgb(3, 2, 3)" opacity="0.9900168"/>
    <path d="M 559.9553833007812 298.4106750488281 C 557.7747802734375 307.0485534667969 551.3268432617188 311.4320068359375 543.51123046875 313.4771423339844 C 536.1375122070312 312.28515625 530.3709106445312 306.9901123046875 528.2249755859375 298.8175354003906 C 530.2555541992188 290.7593994140625 535.704345703125 285.1398010253906 543.9178466796875 283.0462951660156 C 552.3421020507812 285.1288146972656 557.8783569335938 290.65423583984375 559.9553833007812 298.4106750488281" stroke-width="0.0" fill="rgb(2, 2, 2)" opacity="0.99002314"/>
    <path d="M 530.890625 379.23223876953125 C 528.206787109375 387.58837890625 522.5216064453125 392.9972839355469 514.4848022460938 395.58984375 C 506.87030029296875 393.697021484375 501.9552917480469 388.0024719238281 500.8286437988281 379.7196350097656 C 502.65020751953125 373.16259765625 508.1910705566406 367.7404479980469 515.7708129882812 365.632080078125 C 523.3238525390625 366.1703796386719 528.8576049804688 371.6654968261719 530.890625 379.23223876953125" stroke-width="0.0" fill="rgb(248, 41, 22)" opacity="0.99002546"/>
    <path d="M 484.0075378417969 429.9746398925781 C 481.9903869628906 437.5 476.5 442.9903869628906 468.2393493652344 445.844970703125 C 460.6512451171875 443.85638427734375 455.1272277832031 438.3554382324219 453.0712890625 430.4990539550781 C 455.20281982421875 421.7806396484375 460.8301696777344 416.31256103515625 468.7767639160156 414.2036437988281 C 476.87274169921875 416.47698974609375 482.13037109375 422.2628173828125 484.0075378417969 429.9746398925781" stroke-width="0.0" fill="rgb(250, 135, 108)" opacity="1.0"/>
    <path d="M 214.5712432861328 337.3843078613281 C 212.61656188964844 345.03094482421875 206.98004150390625 350.4808044433594 199.10952758789062 352.1949768066406 C 190.9355010986328 350.55352783203125 185.3842315673828 345.083740234375 183.2371368408203 336.83660888671875 C 185.37771606445312 328.9326477050781 190.95082092285156 323.4264831542969 199.38653564453125 321.2140808105469 C 207.1169891357422 323.3114318847656 212.48265075683594 328.9503173828125 214.5712432861328 337.3843078613281" stroke-width="0.0" fill="rgb(252, 162, 121)" opacity="1.0"/>
    <path d="M 431.7969055175781 382.3546447753906 C 429.2166442871094 390.6092834472656 423.5433349609375 396.0095520019531 416.00274658203125 397.99884033203125 C 408.50054931640625 395.9896240234375 403.0102233886719 390.49951171875 400.96337890625 382.93511962890625 C 402.7351989746094 375.0865783691406 407.9140625 369.27001953125 416.6342468261719 367.08154296875 C 424.35174560546875 369.1266784667969 429.8294372558594 374.6649169921875 431.7969055175781 382.3546447753906" stroke-width="0.0" fill="rgb(252, 154, 119)" opacity="1.0"/>
    <path d="M 401.92071533203125 466.1162109375 C 399.8550720214844 474.356689453125 394.3764343261719 479.9010925292969 386.7761535644531 481.9486389160156 C 377.94427490234375 479.727294921875 372.9193420410156 473.8241882324219 370.14605712890625 465.1830749511719 C 372.11077880859375 457.6170349121094 377.6144714355469 452.104736328125 385.2846984863281 450.0774230957031 C 394.2728576660156 452.2141418457031 399.8260498046875 457.7105407714844 401.92071533203125 466.1162109375" stroke-width="0.0" fill="rgb(57, 93, 102)" opacity="1.0"/>
    <path d="M 199.3746795654297 150.69921875 C 198.4293975830078 159.18431091308594 193.3037109375 164.8712921142578 184.68003845214844 166.9577178955078 C 176.66302490234375 164.87696838378906 171.19468688964844 159.30567932128906 169.08924865722656 150.7125244140625 C 171.18455505371094 142.72445678710938 176.7612762451172 137.29156494140625 184.46348571777344 136.43258666992188 C 192.2843780517578 138.31996154785156 197.9928741455078 143.62680053710938 199.3746795654297 150.69921875" stroke-width="0.0" fill="rgb(75, 113, 68)" opacity="0.9906"/>
    <path d="M 489.736572265625 80.68905639648438 C 487.3327941894531 88.71289825439453 481.7011413574219 94.30419921875 473.7489013671875 96.72216033935547 C 465.9714660644531 94.56236267089844 460.3870849609375 89.04862976074219 458.2624206542969 81.1534652709961 C 460.4498291015625 73.00464630126953 466.0257263183594 67.50833892822266 474.1793212890625 65.29008483886719 C 482.0483093261719 67.41624450683594 487.62164306640625 72.93695831298828 489.736572265625 80.68905639648438" stroke-width="0.0" fill="rgb(255, 193, 122)" opacity="1.0"/>
    <path d="M 493.9205017089844 436.15679931640625 C 491.7826232910156 444.08111572265625 485.21270751953125 448.2923583984375 477.76806640625 450.0837097167969 C 470.6189880371094 448.3879699707031 464.45458984375 443.9000549316406 463.4371032714844 436.5971374511719 C 465.6080627441406 429.0452880859375 471.0391845703125 423.5911865234375 478.4881896972656 421.46136474609375 C 486.0887451171875 422.5303039550781 491.7966003417969 427.7961730957031 493.9205017089844 436.15679931640625" stroke-width="0.0" fill="rgb(251, 46, 29)" opacity="0.99004674"/>
    <path d="M 186.7362823486328 419.55291748046875 C 184.51747131347656 427.9551086425781 178.95571899414062 433.5195617675781 170.78590393066406 435.7212829589844 C 162.7323760986328 433.71832275390625 157.12818908691406 428.32440185546875 155.1080780029297 420.82415771484375 C 157.984375 412.33697509765625 163.19664001464844 406.54803466796875 171.6688232421875 404.1700439453125 C 179.3193359375 406.1585388183594 184.785400390625 411.70013427734375 186.7362823486328 419.55291748046875" stroke-width="0.0" fill="rgb(172, 112, 86)" opacity="1.0"/>
    <path d="M 389.91973876953125 293.5399475097656 C 387.6695251464844 301.7966613769531 381.1411437988281 306.4276123046875 374.4049072265625 308.13946533203125 C 367.20477294921875 306.25079345703125 361.63525390625 300.8260803222656 358.09820556640625 293.2186279296875 C 360.119140625 285.6209716796875 365.6125793457031 280.0983581542969 373.29168701171875 278.05615234375 C 382.31060791015625 280.15899658203125 387.8277587890625 285.695068359375 389.91973876953125 293.5399475097656" stroke-width="0.0" fill="rgb(252, 36, 20)" opacity="0.9900459"/>
    <path d="M 332.4019470214844 222.76507568359375 C 330.7080993652344 230.427490234375 325.6243896484375 236.25579833984375 318.6765441894531 237.3414306640625 C 311.2860412597656 235.17098999023438 305.7521057128906 229.73849487304688 303.39654541015625 222.57557678222656 C 305.0721130371094 215.35121154785156 310.05078125 209.3238525390625 317.3243103027344 207.18226623535156 C 325.4840393066406 210.0254669189453 330.9340515136719 215.52806091308594 332.4019470214844 222.76507568359375" stroke-width="0.0" fill="rgb(167, 233, 137)" opacity="0.99048084"/>
    <path d="M 534.10302734375 171.83938598632812 C 533.8753051757812 179.3911895751953 528.4033203125 184.9115753173828 520.8084716796875 186.90695190429688 C 511.8903503417969 184.67835998535156 506.5067138671875 179.04844665527344 504.3190002441406 170.5098876953125 C 506.1899108886719 162.67657470703125 511.65032958984375 157.12136840820312 519.1046752929688 156.57643127441406 C 526.6643676757812 158.87750244140625 532.1285400390625 164.33326721191406 534.10302734375 171.83938598632812" stroke-width="0.0" fill="rgb(2, 2, 2)" opacity="0.9900141"/>
    <path d="M 401.89508056640625 259.57647705078125 C 399.8330078125 267.3183898925781 394.3240966796875 272.8462829589844 386.5099182128906 274.9127502441406 C 377.82562255859375 272.7559814453125 372.4045715332031 267.1112365722656 370.2184143066406 258.5647277832031 C 372.27801513671875 250.81773376464844 377.8363037109375 245.32867431640625 385.5420227050781 243.34747314453125 C 393.8929748535156 245.68972778320312 399.6629638671875 250.97520446777344 401.89508056640625 259.57647705078125" stroke-width="0.0" fill="rgb(144, 231, 150)" opacity="1.0"/>
    <path d="M 188.8764190673828 460.5558166503906 C 186.79864501953125 469.2757873535156 181.2672576904297 474.7740478515625 173.55960083007812 476.68194580078125 C 165.02740478515625 474.4044494628906 159.55419921875 468.987548828125 158.92417907714844 461.7365417480469 C 160.84425354003906 454.2864074707031 166.2338409423828 448.64666748046875 173.8317108154297 445.0520324707031 C 181.3672637939453 447.10455322265625 186.84939575195312 452.6529235839844 188.8764190673828 460.5558166503906" stroke-width="0.0" fill="rgb(4, 9, 12)" opacity="0.99001855"/>
    <path d="M 271.89556884765625 422.7135925292969 C 269.7770690917969 431.251220703125 264.2521667480469 436.7790222167969 256.5073547363281 438.82867431640625 C 247.9052276611328 436.6220397949219 242.3586883544922 431.10198974609375 240.40521240234375 423.4748229980469 C 243.0122833251953 415.5020446777344 248.501953125 410.01202392578125 256.56488037109375 407.2974853515625 C 264.211669921875 409.2883605957031 269.7953186035156 414.75506591796875 271.89556884765625 422.7135925292969" stroke-width="0.0" fill="rgb(253, 158, 126)" opacity="1.0"/>
    <path d="M 368.6689453125 82.14159393310547 C 366.51751708984375 89.99008178710938 360.98846435546875 95.51307678222656 353.2035827636719 97.58667755126953 C 345.4352722167969 95.14653778076172 340.0024719238281 89.51903533935547 338.0220947265625 82.0361099243164 C 340.17108154296875 74.75745391845703 345.9091796875 69.59212493896484 352.5306091308594 67.90000915527344 C 359.82818603515625 69.77739715576172 365.6900939941406 75.0478744506836 368.6689453125 82.14159393310547" stroke-width="0.0" fill="rgb(145, 228, 146)" opacity="0.9901092"/>
    <path d="M 119.79875183105469 360.845703125 C 117.57874298095703 369.0026550292969 111.96514892578125 374.4732666015625 104.23249053955078 376.38873291015625 C 96.24044799804688 374.22021484375 90.67703247070312 368.791015625 88.79902648925781 361.1665344238281 C 91.00428771972656 353.4864196777344 96.455322265625 347.9000549316406 104.34233093261719 345.39501953125 C 112.05811309814453 347.4291687011719 117.65939331054688 352.90826416015625 119.79875183105469 360.845703125" stroke-width="0.0" fill="rgb(255, 155, 122)" opacity="1.0"/>
    <path d="M 275.75433349609375 211.3113555908203 C 273.6896667480469 219.1520538330078 268.1549072265625 224.6985626220703 260.4722595214844 226.79852294921875 C 252.27554321289062 224.38265991210938 246.95614624023438 218.6079864501953 244.7718048095703 210.89468383789062 C 246.94400024414062 203.646484375 252.78887939453125 198.43222045898438 260.5478210449219 196.33372497558594 C 268.0835876464844 197.37417602539062 273.5939636230469 202.9281005859375 275.75433349609375 211.3113555908203" stroke-width="0.0" fill="rgb(148, 229, 142)" opacity="0.9906392"/>
    <path d="M 131.75160217285156 420.24493408203125 C 129.60311889648438 428.03173828125 124.01004791259766 433.5463562011719 115.65543365478516 435.7832946777344 C 107.8302001953125 433.6901550292969 102.2409896850586 428.1983337402344 100.12238311767578 420.12677001953125 C 102.2529525756836 411.8093566894531 107.8292007446289 406.2995300292969 115.71807098388672 404.190185546875 C 124.07271575927734 406.3666687011719 129.57022094726562 411.95074462890625 131.75160217285156 420.24493408203125" stroke-width="0.0" fill="rgb(142, 228, 145)" opacity="1.0"/>
    <path d="M 185.89193725585938 265.8849182128906 C 183.8724822998047 273.29925537109375 178.15673828125 278.2734375 169.64476013183594 279.2417297363281 C 161.9649658203125 278.4950256347656 156.32968139648438 273.093017578125 154.07199096679688 264.2846374511719 C 156.18116760253906 256.810791015625 162.27349853515625 252.65560913085938 170.11988830566406 250.9268035888672 C 176.7273406982422 252.81466674804688 182.18699645996094 258.27178955078125 185.89193725585938 265.8849182128906" stroke-width="0.0" fill="rgb(2, 2, 2)" opacity="0.99001265"/>
    <path d="M 185.796142578125 194.29991149902344 C 183.65673828125 202.0980987548828 178.0887908935547 207.63442993164062 169.90121459960938 209.81787109375 C 161.9106903076172 207.65345764160156 156.3827362060547 202.07449340820312 154.22142028808594 194.27352905273438 C 156.64830017089844 186.31289672851562 162.42616271972656 180.97715759277344 170.1266326904297 178.88226318359375 C 177.8999786376953 180.66421508789062 183.56117248535156 186.02593994140625 185.796142578125 194.29991149902344" stroke-width="0.0" fill="rgb(255, 154, 123)" opacity="1.0"/>
  </g>
</svg>
