<?xml version="1.0" ?>
<svg xmlns="http://www.w3.org/2000/svg" version="1.1" width="600" height="600">
  <defs/>
  <g>
    <path d="M 558.87158203125 496.3148498535156 C 556.494140625 504.9676818847656 551.0120849609375 510.60638427734375 542.8819580078125 512.838623046875 C 534.78271484375 510.7292175292969 529.2144775390625 505.2396545410156 527.1729125976562 497.6644592285156 C 529.6183471679688 489.12030029296875 535.0324096679688 483.3978271484375 543.5523681640625 481.11700439453125 C 551.2958374023438 483.1886901855469 556.8372192382812 488.6932067871094 558.87158203125 496.3148498535156" stroke-width="0.0" fill="rgb(195, 188, 152)" opacity="1.0"/>
    <path d="M 501.9378356933594 596.1976928710938 C 499.51953125 604.800048828125 493.6128234863281 610.0375366210938 486.0035705566406 612.0026245117188 C 478.4651184082031 610.0045776367188 472.8141784667969 604.5918579101562 471.73370361328125 597.5685424804688 C 473.6706848144531 590.029052734375 478.8670959472656 584.0999755859375 486.4949645996094 581.8518676757812 C 494.3008728027344 583.2353515625 499.88018798828125 588.6570434570312 501.9378356933594 596.1976928710938" stroke-width="0.0" fill="rgb(142, 32, 2)" opacity="0.99002135"/>
    <path d="M 461.7467041015625 130.16143798828125 C 459.71197509765625 138.21136474609375 454.2447509765625 143.79685974121094 445.67242431640625 145.91651916503906 C 437.68975830078125 143.84283447265625 432.2021179199219 138.29197692871094 430.1160583496094 129.8010711669922 C 432.2040100097656 121.73485565185547 437.74249267578125 116.22352600097656 446.38525390625 114.12361145019531 C 454.273193359375 116.1930160522461 459.72998046875 121.75350189208984 461.7467041015625 130.16143798828125" stroke-width="0.0" fill="rgb(193, 126, 118)" opacity="1.0"/>
    <path d="M 414.5457458496094 263.3846740722656 C 412.6325988769531 271.132080078125 407.15057373046875 276.68768310546875 399.39227294921875 278.7264709472656 C 391.3516540527344 276.30206298828125 385.99005126953125 270.5498352050781 383.98138427734375 262.991943359375 C 385.99188232421875 255.48646545410156 391.4843444824219 249.9851837158203 398.98748779296875 247.98077392578125 C 406.5003356933594 250.00950622558594 412.0039978027344 255.49595642089844 414.5457458496094 263.3846740722656" stroke-width="0.0" fill="rgb(229, 199, 184)" opacity="1.0"/>
    <path d="M 219.95135498046875 523.7314453125 C 217.871826171875 532.3302612304688 212.28489685058594 537.748046875 204.4940185546875 539.49658203125 C 196.5 536.9903564453125 191.00961303710938 531.5 189.685546875 524.6124877929688 C 191.799560546875 517.2632446289062 197.26100158691406 511.794921875 204.63131713867188 509.89141845703125 C 212.32078552246094 510.26025390625 217.89073181152344 515.6364135742188 219.95135498046875 523.7314453125" stroke-width="0.0" fill="rgb(110, 23, 9)" opacity="0.9900518"/>
    <path d="M 605.4422607421875 546.792236328125 C 603.5711059570312 555.1560668945312 598.2450561523438 560.8206176757812 589.4943237304688 562.9379272460938 C 581.6365356445312 560.8824462890625 576.2073364257812 555.3366088867188 575.9401245117188 547.8336791992188 C 577.9044189453125 540.3672485351562 583.3541870117188 534.8693237304688 590.8775634765625 531.1264038085938 C 598.3263549804688 533.1251831054688 603.6935424804688 538.7368774414062 605.4422607421875 546.792236328125" stroke-width="0.0" fill="rgb(108, 8, 2)" opacity="0.99003303"/>
    <path d="M 516.8151245117188 369.4509582519531 C 514.539794921875 376.8254089355469 508.6356506347656 382.0509948730469 500.5742492675781 384.482177734375 C 492.79852294921875 382.6695251464844 487.1799621582031 377.25885009765625 485.103515625 369.7665100097656 C 487.95684814453125 361.48370361328125 493.4984436035156 356.0091552734375 501.6446533203125 353.247802734375 C 509.20648193359375 355.2325744628906 514.6013793945312 360.85150146484375 516.8151245117188 369.4509582519531" stroke-width="0.0" fill="rgb(99, 16, 8)" opacity="0.99003583"/>
    <path d="M 164.94435119628906 239.7804718017578 C 162.88128662109375 248.37271118164062 157.3723907470703 253.88027954101562 149.14483642578125 255.9374542236328 C 140.6923370361328 253.85340881347656 135.24258422851562 248.2689666748047 133.32785034179688 240.36598205566406 C 135.35284423828125 231.84970092773438 140.8272705078125 226.28863525390625 149.53050231933594 224.1554718017578 C 157.32241821289062 226.1713409423828 162.8694305419922 231.66070556640625 164.94435119628906 239.7804718017578" stroke-width="0.0" fill="rgb(173, 64, 21)" opacity="1.0"/>
    <path d="M 346.89031982421875 181.68460083007812 C 344.8665771484375 189.3607940673828 339.3677673339844 194.88357543945312 331.4889831542969 196.9342803955078 C 322.656005859375 194.85498046875 317.1300964355469 189.3502960205078 315.0743408203125 181.5184326171875 C 317.17132568359375 172.70220947265625 322.70770263671875 167.1830596923828 330.4785461425781 165.11532592773438 C 339.1457824707031 167.29074096679688 344.6759033203125 172.8690185546875 346.89031982421875 181.68460083007812" stroke-width="0.0" fill="rgb(110, 40, 18)" opacity="0.9900448"/>
    <path d="M 111.87676239013672 362.21728515625 C 108.99224853515625 370.5005187988281 103.50003051757812 375.9903869628906 95.5105972290039 378.5627746582031 C 87.86113739013672 376.68280029296875 82.48503875732422 371.08856201171875 81.63735961914062 363.1994934082031 C 83.0519790649414 355.4725341796875 88.37350463867188 349.7389221191406 96.76905059814453 347.11163330078125 C 104.33109283447266 349.1468811035156 109.8521499633789 354.66912841796875 111.87676239013672 362.21728515625" stroke-width="0.0" fill="rgb(195, 99, 18)" opacity="0.99004215"/>
    <path d="M 377.9477233886719 534.30322265625 C 375.8836364746094 542.36669921875 370.36358642578125 547.8765258789062 361.7816467285156 549.941162109375 C 353.6156005859375 547.8901977539062 348.10101318359375 542.387939453125 346.0528869628906 534.7162475585938 C 348.41949462890625 526.9468383789062 355.1971740722656 521.7991943359375 362.2983093261719 519.925537109375 C 369.94720458984375 521.5626220703125 375.84356689453125 525.7599487304688 377.9477233886719 534.30322265625" stroke-width="0.0" fill="rgb(82, 2, 4)" opacity="0.99004287"/>
    <path d="M 305.8516540527344 117.76388549804688 C 303.85675048828125 125.35013580322266 298.3626708984375 130.8863067626953 290.20306396484375 132.95298767089844 C 281.6302490234375 130.8905029296875 276.13970947265625 125.3571548461914 274.092529296875 117.5177993774414 C 276.2682189941406 108.8373794555664 281.8447570800781 103.28569793701172 290.5418395996094 101.10127258300781 C 298.1386413574219 103.22517395019531 302.89349365234375 109.09839630126953 305.8516540527344 117.76388549804688" stroke-width="0.0" fill="rgb(181, 44, 16)" opacity="0.99006045"/>
    <path d="M 33.770076751708984 537.3690795898438 C 30.304088592529297 544.7130126953125 24.6557559967041 550.0994262695312 18.251924514770508 552.0399169921875 C 11.356178283691406 550.091064453125 5.59227180480957 544.7088012695312 2.0513129234313965 537.2123413085938 C 4.103087902069092 529.615234375 9.61720085144043 524.1078491210938 18.416202545166016 522.05078125 C 26.368793487548828 524.1075439453125 31.82631492614746 529.655517578125 33.770076751708984 537.3690795898438" stroke-width="0.0" fill="rgb(56, 23, 5)" opacity="0.9900178"/>
    <path d="M 106.93780517578125 415.5701904296875 C 104.85454559326172 424.3311767578125 99.3271255493164 429.8448181152344 91.70405578613281 431.8839416503906 C 83.75284576416016 429.054931640625 78.39742279052734 423.1513671875 76.68866729736328 415.9096984863281 C 77.65157318115234 408.0667419433594 83.01703643798828 402.4705810546875 91.73291778564453 400.1202697753906 C 99.35576629638672 402.1358947753906 104.87923431396484 407.63800048828125 106.93780517578125 415.5701904296875" stroke-width="0.0" fill="rgb(215, 126, 29)" opacity="0.9901329"/>
    <path d="M 398.78594970703125 510.671875 C 396.7752990722656 518.2073974609375 391.14910888671875 523.6232299804688 383.2008056640625 525.6923217773438 C 374.9175109863281 523.5726928710938 369.3202209472656 518.1210327148438 367.25128173828125 510.3567810058594 C 369.668212890625 502.3233337402344 375.4303894042969 496.9844055175781 382.9997863769531 495.0041809082031 C 390.5 497.0096130371094 395.9903869628906 502.5 398.78594970703125 510.671875" stroke-width="0.0" fill="rgb(202, 196, 163)" opacity="1.0"/>
    <path d="M 280.3958740234375 262.9465026855469 C 279.246826171875 270.61492919921875 273.534912109375 276.0021667480469 266.00067138671875 278.0001525878906 C 258.5000305175781 275.9903869628906 253.01217651367188 270.499267578125 250.43577575683594 262.6033630371094 C 252.51844787597656 255.0916290283203 258.115478515625 249.58348083496094 265.6070861816406 247.53634643554688 C 273.3836669921875 250.25428771972656 279.2227478027344 255.454833984375 280.3958740234375 262.9465026855469" stroke-width="0.0" fill="rgb(246, 233, 201)" opacity="1.0"/>
    <path d="M 469.9347839355469 479.6993103027344 C 467.8834533691406 487.3684387207031 462.3686218261719 492.88397216796875 454.0765380859375 494.9512939453125 C 445.6465759277344 492.8810729980469 440.1540222167969 487.3380126953125 438.0608825683594 478.40411376953125 C 440.11651611328125 470.63104248046875 445.6332092285156 465.1218566894531 453.19525146484375 463.1406555175781 C 461.81353759765625 465.86248779296875 467.7027587890625 470.97198486328125 469.9347839355469 479.6993103027344" stroke-width="0.0" fill="rgb(123, 43, 25)" opacity="1.0"/>
    <path d="M 485.7915954589844 88.61796569824219 C 483.7979736328125 96.29310607910156 478.3123779296875 101.84581756591797 469.87750244140625 103.93533325195312 C 461.6385803222656 101.86910247802734 456.1166687011719 96.36756134033203 454.06134033203125 88.32158660888672 C 456.1426086425781 79.6828384399414 461.7122497558594 74.21312713623047 469.4858093261719 72.15360260009766 C 478.00726318359375 74.4442138671875 483.5062561035156 80.00818634033203 485.7915954589844 88.61796569824219" stroke-width="0.0" fill="rgb(221, 131, 72)" opacity="1.0"/>
    <path d="M 443.92742919921875 44.32973861694336 C 441.81329345703125 53.2918586730957 436.2986755371094 58.829986572265625 427.6542663574219 60.93142318725586 C 419.6740417480469 58.850833892822266 414.1596374511719 53.321475982666016 412.0697326660156 44.57294845581055 C 414.1337890625 36.650917053222656 419.65484619140625 31.14360237121582 428.02020263671875 29.088237762451172 C 436.3523254394531 31.138896942138672 441.8763732910156 36.641605377197266 443.92742919921875 44.32973861694336" stroke-width="0.0" fill="rgb(168, 67, 55)" opacity="1.0"/>
    <path d="M 282.8819274902344 332.66998291015625 C 280.6971435546875 341.1090393066406 275.0882568359375 346.65234375 267.23046875 348.8072509765625 C 259.0174255371094 346.6046142578125 253.73292541503906 340.8670959472656 252.11965942382812 333.17608642578125 C 254.2667694091797 325.7955017089844 259.7842712402344 320.2083740234375 267.5521240234375 317.2169189453125 C 275.2306213378906 319.2637634277344 280.79150390625 324.7478942871094 282.8819274902344 332.66998291015625" stroke-width="0.0" fill="rgb(217, 184, 123)" opacity="0.9904794"/>
    <path d="M 499.9092712402344 312.2674255371094 C 497.754638671875 321.2545471191406 492.280517578125 326.8208923339844 483.5862121582031 328.9234313964844 C 475.729736328125 326.8348693847656 470.6401062011719 321.1614685058594 469.9210510253906 313.71826171875 C 471.869384765625 306.3294372558594 477.3256530761719 300.8602294921875 484.86163330078125 298.7838439941406 C 492.3625793457031 299.1307067871094 497.8763732910156 304.6349182128906 499.9092712402344 312.2674255371094" stroke-width="0.0" fill="rgb(132, 51, 25)" opacity="0.9900285"/>
    <path d="M 606.3084106445312 237.0263671875 C 604.5716552734375 245.17568969726562 599.2644653320312 250.83319091796875 591.5100708007812 252.91940307617188 C 582.9096069335938 250.7340545654297 577.7304077148438 244.91757202148438 575.9608154296875 237.06642150878906 C 578.0065307617188 229.4915008544922 583.469970703125 223.9329833984375 591.776611328125 221.12579345703125 C 599.2597045898438 223.1651153564453 604.5524291992188 228.8385467529297 606.3084106445312 237.0263671875" stroke-width="0.0" fill="rgb(117, 30, 16)" opacity="1.0"/>
    <path d="M 335.8961181640625 459.0585021972656 C 333.83349609375 467.32958984375 328.34002685546875 472.86029052734375 320.54412841796875 474.9110412597656 C 311.74505615234375 472.79168701171875 306.22515869140625 467.24798583984375 304.15985107421875 459.490234375 C 306.3234558105469 450.843994140625 311.8216247558594 445.265869140625 320.09918212890625 443.12921142578125 C 328.2660827636719 445.2208557128906 333.8061218261719 450.72332763671875 335.8961181640625 459.0585021972656" stroke-width="0.0" fill="rgb(180, 113, 95)" opacity="1.0"/>
    <path d="M 538.8314208984375 390.5541687011719 C 536.7709350585938 398.2252197265625 531.2052001953125 403.7214050292969 522.9983520507812 405.83306884765625 C 514.913818359375 403.6912536621094 509.6419372558594 397.9736328125 507.91705322265625 390.1130676269531 C 509.9723815917969 382.40924072265625 515.2476196289062 376.539794921875 523.5256958007812 374.12274169921875 C 531.1721801757812 376.24395751953125 536.5953979492188 381.8929443359375 538.8314208984375 390.5541687011719" stroke-width="0.0" fill="rgb(182, 120, 107)" opacity="1.0"/>
    <path d="M 100.80149841308594 272.6478576660156 C 98.59716033935547 281.07330322265625 93.10624694824219 286.67999267578125 84.50659942626953 288.8792419433594 C 76.78851318359375 286.7854309082031 71.54704284667969 281.11456298828125 70.83572387695312 273.5645446777344 C 72.7307357788086 266.1738586425781 78.17481231689453 260.7330627441406 85.65916442871094 258.7655944824219 C 93.1280517578125 259.3808898925781 98.70729064941406 264.8414611816406 100.80149841308594 272.6478576660156" stroke-width="0.0" fill="rgb(224, 152, 93)" opacity="0.99006116"/>
    <path d="M 507.3843688964844 481.83251953125 C 505.0711364746094 489.5425109863281 499.48712158203125 494.8890075683594 491.7391662597656 496.8338623046875 C 484.1887512207031 495.3348693847656 478.6453857421875 489.81756591796875 477.1654052734375 481.921630859375 C 478.6899108886719 474.2808532714844 484.3473205566406 468.8993225097656 491.86932373046875 467.3934020996094 C 499.67156982421875 468.8130187988281 505.1435852050781 474.3435974121094 507.3843688964844 481.83251953125" stroke-width="0.0" fill="rgb(250, 251, 233)" opacity="0.9915282"/>
    <path d="M 541.9338989257812 242.7447052001953 C 539.8291015625 251.28582763671875 534.2532958984375 256.7447814941406 525.6077270507812 258.8170166015625 C 517.6804809570312 256.81915283203125 512.1422729492188 251.33407592773438 510.0837097167969 243.60470581054688 C 512.214111328125 234.72779846191406 517.7078857421875 229.1670684814453 525.7807006835938 227.0668182373047 C 534.3432006835938 229.14361572265625 539.8643188476562 234.653564453125 541.9338989257812 242.7447052001953" stroke-width="0.0" fill="rgb(143, 72, 60)" opacity="1.0"/>
    <path d="M 612.0003662109375 170.998779296875 C 609.98876953125 178.49581909179688 604.4857788085938 183.9537811279297 596.7363891601562 186.36160278320312 C 589.0731201171875 184.38575744628906 583.3566284179688 179.02426147460938 581.1586303710938 170.60414123535156 C 583.2244262695312 162.7476806640625 588.7540893554688 157.24163818359375 596.4009399414062 155.30203247070312 C 604.5667724609375 157.861572265625 610.0001220703125 163.47561645507812 612.0003662109375 170.998779296875" stroke-width="0.0" fill="rgb(230, 204, 159)" opacity="1.0"/>
    <path d="M 123.92749786376953 445.6383972167969 C 121.88232421875 453.37078857421875 116.3700180053711 458.8805847167969 108.32108306884766 460.9441833496094 C 99.6521224975586 458.8699951171875 94.1436767578125 453.3418884277344 92.06250762939453 444.5894470214844 C 94.13223266601562 436.65338134765625 99.6533203125 431.1322326660156 107.60579681396484 429.05584716796875 C 116.28266906738281 431.1683044433594 121.79367065429688 436.73541259765625 123.92749786376953 445.6383972167969" stroke-width="0.0" fill="rgb(161, 11, 4)" opacity="0.99005014"/>
    <path d="M 391.8551330566406 389.7568054199219 C 389.8539123535156 397.3465270996094 384.35760498046875 402.8804016113281 376.7561950683594 404.9332580566406 C 368.14501953125 402.57965087890625 362.9489440917969 396.64202880859375 360.14190673828125 388.2499694824219 C 362.1791076660156 380.7161560058594 367.7279052734375 375.2070007324219 375.8993225097656 373.0930480957031 C 383.8934631347656 375.3819274902344 389.0726013183594 381.333251953125 391.8551330566406 389.7568054199219" stroke-width="0.0" fill="rgb(123, 35, 15)" opacity="1.0"/>
    <path d="M 489.106689453125 210.85281372070312 C 486.9903869628906 218.5 481.5 223.99038696289062 473.27349853515625 226.82618713378906 C 465.7262268066406 224.8193359375 460.3165588378906 219.22715759277344 458.6060485839844 211.40570068359375 C 461.0096130371094 203.5 466.5 198.00961303710938 474.6910095214844 195.17935180664062 C 482.1572265625 197.24069213867188 487.4211730957031 202.96099853515625 489.106689453125 210.85281372070312" stroke-width="0.0" fill="rgb(148, 83, 74)" opacity="1.0"/>
    <path d="M 560.9550170898438 67.802001953125 C 558.8878784179688 76.35733032226562 553.3141479492188 81.74765014648438 545.3324584960938 82.20128631591797 C 537.1011962890625 81.09443664550781 531.3359375 76.05319213867188 529.1329956054688 67.30516815185547 C 531.132080078125 59.646934509277344 536.6492919921875 54.13743591308594 545.2450561523438 52.07562255859375 C 553.3760986328125 54.12083053588867 558.8985595703125 59.61606979370117 560.9550170898438 67.802001953125" stroke-width="0.0" fill="rgb(133, 5, 5)" opacity="0.9900295"/>
    <path d="M 515.8359985351562 405.6327819824219 C 513.82177734375 413.3006591796875 508.2979431152344 418.8148498535156 500.6193542480469 420.7302551269531 C 491.7682189941406 418.68646240234375 486.1656494140625 413.2841796875 484.09295654296875 405.6440124511719 C 486.3489990234375 396.9288024902344 491.9419250488281 391.3809814453125 499.5111389160156 389.358154296875 C 507.57415771484375 391.9791259765625 513.3788452148438 397.29974365234375 515.8359985351562 405.6327819824219" stroke-width="0.0" fill="rgb(148, 58, 36)" opacity="0.99006313"/>
    <path d="M 505.9148864746094 22.637371063232422 C 503.8503112792969 30.317583084106445 498.30279541015625 35.815853118896484 490.3912353515625 37.895912170410156 C 481.8260498046875 35.73162078857422 476.3392028808594 30.147336959838867 474.58355712890625 22.41903305053711 C 477.0096130371094 14.5 482.5 9.009618759155273 490.1470947265625 6.890525817871094 C 498.0177001953125 8.589022636413574 503.7245788574219 13.874893188476562 505.9148864746094 22.637371063232422" stroke-width="0.0" fill="rgb(183, 131, 61)" opacity="1.0"/>
    <path d="M 563.3341064453125 7.818845748901367 C 561.4300537109375 15.00326919555664 556.0325317382812 20.517364501953125 548.3809204101562 23.650320053100586 C 540.8395385742188 21.70307159423828 535.3179931640625 16.15182876586914 533.2001953125 8.339929580688477 C 535.51025390625 0.16116833686828613 541.2877197265625 -5.124815464019775 548.9306640625 -6.989958763122559 C 556.2730102539062 -4.830209732055664 561.5498046875 0.8188302516937256 563.3341064453125 7.818845748901367" stroke-width="0.0" fill="rgb(249, 193, 156)" opacity="0.9901305"/>
    <path d="M 156.9411163330078 459.45159912109375 C 154.76370239257812 468.1069641113281 148.8977508544922 473.23211669921875 140.47703552246094 475.53326416015625 C 132.6867218017578 473.779052734375 127.1180648803711 468.3497619628906 125.04962921142578 460.4879150390625 C 127.15000915527344 451.7259521484375 132.85760498046875 446.67388916015625 141.15760803222656 445.8677673339844 C 149.22628784179688 446.4296569824219 154.8602752685547 451.6926574707031 156.9411163330078 459.45159912109375" stroke-width="0.0" fill="rgb(75, 2, 2)" opacity="0.99009895"/>
    <path d="M 94.85601806640625 594.6077270507812 C 92.5982894897461 602.9314575195312 86.76708984375 608.1459350585938 79.02096557617188 610.0198974609375 C 71.37682342529297 608.0509033203125 65.57160949707031 602.7562866210938 63.25032424926758 594.7540283203125 C 65.41143798828125 586.9715576171875 70.9967041015625 581.4832153320312 78.97220611572266 579.4537963867188 C 87.07721710205078 581.4495239257812 92.72215270996094 586.8593139648438 94.85601806640625 594.6077270507812" stroke-width="0.0" fill="rgb(247, 223, 166)" opacity="1.0"/>
    <path d="M 464.3753662109375 393.817138671875 C 461.7373046875 401.2641906738281 456.2886047363281 406.81915283203125 448.998291015625 408.4816589355469 C 441.337646484375 407.14874267578125 435.8006591796875 401.6762390136719 434.5991516113281 394.1454772949219 C 435.9910583496094 386.5099792480469 441.5650939941406 381.1634826660156 449.4731140136719 379.5865173339844 C 456.9355163574219 380.4097595214844 462.26666259765625 386.1945495605469 464.3753662109375 393.817138671875" stroke-width="0.0" fill="rgb(250, 249, 247)" opacity="1.0"/>
    <path d="M 317.94488525390625 292.6326904296875 C 315.8588562011719 301.34130859375 310.3417663574219 306.8592529296875 301.6995849609375 308.9314270019531 C 293.64874267578125 306.8685607910156 288.1304626464844 301.3515319824219 286.0564880371094 293.2830810546875 C 288.14434814453125 284.6737976074219 293.6881103515625 279.1788635253906 302.4617614746094 277.08154296875 C 310.3469543457031 279.1408996582031 315.8742980957031 284.6467590332031 317.94488525390625 292.6326904296875" stroke-width="0.0" fill="rgb(125, 61, 46)" opacity="1.0"/>
    <path d="M 245.53875732421875 314.6726989746094 C 242.92306518554688 322.4725646972656 237.49122619628906 327.9869079589844 230.00936889648438 329.99041748046875 C 222.50100708007812 327.9688720703125 216.80484008789062 322.57220458984375 214.2973175048828 314.63995361328125 C 216.4198760986328 307.0389099121094 222.14938354492188 301.74627685546875 230.1337890625 299.6042175292969 C 237.72586059570312 301.74658203125 243.3492889404297 307.23974609375 245.53875732421875 314.6726989746094" stroke-width="0.0" fill="rgb(236, 229, 192)" opacity="1.0"/>
    <path d="M 527.3054809570312 386.69390869140625 C 524.9614868164062 394.49664306640625 519.5596923828125 400.1622619628906 511.7825927734375 402.638916015625 C 504.0364074707031 400.4939880371094 498.4141540527344 394.998046875 496.20281982421875 387.33258056640625 C 498.7720031738281 379.7032470703125 504.9160461425781 374.5691223144531 512.73779296875 371.6353759765625 C 520.2258911132812 373.208251953125 525.5735473632812 378.8485412597656 527.3054809570312 386.69390869140625" stroke-width="0.0" fill="rgb(175, 104, 93)" opacity="1.0"/>
    <path d="M 583.8261108398438 191.95175170898438 C 581.8988037109375 199.4169158935547 576.4612426757812 205.05604553222656 569.1582641601562 207.2814178466797 C 561.2925415039062 205.11875915527344 555.7342529296875 199.74948120117188 553.549072265625 191.77845764160156 C 555.62109375 184.12997436523438 561.1138305664062 178.57913208007812 569.6951904296875 176.34820556640625 C 577.0536499023438 178.29795837402344 582.0969848632812 184.1402587890625 583.8261108398438 191.95175170898438" stroke-width="0.0" fill="rgb(251, 252, 240)" opacity="1.0"/>
    <path d="M 607.1956787109375 481.0271301269531 C 605.4532470703125 489.0810546875 600.2048950195312 494.8022155761719 591.36376953125 496.94549560546875 C 583.63671875 494.88671875 578.1366577148438 489.3528137207031 576.0631713867188 481.3664245605469 C 578.1871948242188 472.7753601074219 583.888427734375 467.51025390625 592.2921142578125 465.4970397949219 C 600.0186767578125 467.41741943359375 605.3726806640625 473.0470275878906 607.1956787109375 481.0271301269531" stroke-width="0.0" fill="rgb(113, 32, 18)" opacity="0.99063295"/>
    <path d="M 362.5386047363281 272.4087219238281 C 360.5962219238281 280.0904846191406 355.1121826171875 285.65814208984375 347.31500244140625 287.780029296875 C 339.20330810546875 285.39483642578125 333.4822998046875 279.850830078125 332.8140869140625 272.7303771972656 C 334.6365966796875 264.9480285644531 339.7568359375 259.07110595703125 347.3252258300781 256.41351318359375 C 354.7144470214844 258.6200256347656 360.09136962890625 264.3921813964844 362.5386047363281 272.4087219238281" stroke-width="0.0" fill="rgb(248, 244, 223)" opacity="1.0"/>
    <path d="M 191.89341735839844 212.82057189941406 C 189.84695434570312 221.35137939453125 184.371337890625 226.89590454101562 176.6915283203125 228.95108032226562 C 167.66554260253906 226.8574981689453 162.153076171875 221.32998657226562 160.1326141357422 213.67672729492188 C 162.27796936035156 204.7553253173828 167.71853637695312 199.17678833007812 176.39508056640625 197.07366943359375 C 184.31541442871094 199.15829467773438 189.83648681640625 204.6868438720703 191.89341735839844 212.82057189941406" stroke-width="0.0" fill="rgb(157, 23, 12)" opacity="0.9901116"/>
    <path d="M 60.825469970703125 535.1904296875 C 58.73554229736328 543.1991577148438 53.210025787353516 548.7611083984375 44.392845153808594 550.914306640625 C 36.65953826904297 548.86376953125 31.198837280273438 543.3184814453125 29.14719009399414 534.3980102539062 C 31.147380828857422 526.668701171875 36.67658996582031 521.165771484375 44.504886627197266 519.0936279296875 C 53.189640045166016 521.2538452148438 58.69989013671875 526.8297729492188 60.825469970703125 535.1904296875" stroke-width="0.0" fill="rgb(153, 84, 40)" opacity="1.0"/>
    <path d="M 508.53582763671875 139.1143798828125 C 506.5179443359375 147.0181121826172 501.0461730957031 152.59677124023438 493.2010803222656 154.59535217285156 C 485.1279296875 152.3877716064453 479.51922607421875 146.9046173095703 477.4381408691406 139.40846252441406 C 479.9836730957031 131.4232940673828 485.30712890625 125.64507293701172 493.22314453125 124.57648468017578 C 501.0167541503906 125.41960144042969 506.4285888671875 131.03402709960938 508.53582763671875 139.1143798828125" stroke-width="0.0" fill="rgb(250, 245, 208)" opacity="1.0"/>
    <path d="M 84.40528869628906 497.627197265625 C 82.66815948486328 505.0948791503906 77.04552459716797 510.53277587890625 68.82573699951172 512.6656494140625 C 60.94214630126953 510.5607604980469 55.296791076660156 505.11529541015625 53.17012023925781 497.22564697265625 C 55.355804443359375 488.9564208984375 61.027320861816406 483.5450134277344 68.97978210449219 481.40032958984375 C 76.58125305175781 483.8132019042969 81.90785217285156 489.5034484863281 84.40528869628906 497.627197265625" stroke-width="0.0" fill="rgb(248, 213, 136)" opacity="1.0"/>
    <path d="M 537.9068603515625 572.8331298828125 C 535.8829345703125 580.3668212890625 530.3650512695312 585.8788452148438 522.021484375 587.9462890625 C 513.6304321289062 585.8810424804688 508.11553955078125 580.3710327148438 506.13958740234375 572.85693359375 C 509.6785583496094 565.09326171875 515.0301513671875 559.4842529296875 522.1937866210938 557.1875 C 529.3678588867188 559.0862426757812 534.6989135742188 564.700439453125 537.9068603515625 572.8331298828125" stroke-width="0.0" fill="rgb(94, 3, 2)" opacity="0.9900552"/>
    <path d="M 441.193359375 297.62384033203125 C 440.5589294433594 305.1496276855469 435.2215576171875 310.7843933105469 426.4897155761719 312.90673828125 C 418.665283203125 310.85455322265625 413.1573181152344 305.32952880859375 411.07440185546875 296.7224426269531 C 413.1493225097656 288.67041015625 418.6812438964844 283.17919921875 426.2100830078125 282.6796875 C 433.75921630859375 284.794189453125 439.2336120605469 290.2300109863281 441.193359375 297.62384033203125" stroke-width="0.0" fill="rgb(184, 127, 79)" opacity="0.99011654"/>
    <path d="M 577.3716430664062 246.2886199951172 C 575.4656982421875 253.89955139160156 569.8372802734375 259.2658996582031 562.0043334960938 261.18695068359375 C 554.5017700195312 258.9686584472656 549.0130615234375 253.5035400390625 547.3602905273438 245.61312866210938 C 548.7183837890625 238.34808349609375 554.4050903320312 232.87281799316406 561.86474609375 230.57269287109375 C 569.549560546875 232.94155883789062 575.0133666992188 238.4642333984375 577.3716430664062 246.2886199951172" stroke-width="0.0" fill="rgb(251, 251, 244)" opacity="0.9915343"/>
    <path d="M 257.9430847167969 431.1934814453125 C 255.47373962402344 439.00970458984375 248.7841796875 444.1741638183594 242.15330505371094 446.0676574707031 C 235.31643676757812 444.144775390625 229.84487915039062 438.6874084472656 226.30918884277344 431.135986328125 C 228.1199951171875 423.6269836425781 233.6189422607422 418.101318359375 242.02845764160156 416.04205322265625 C 250.39077758789062 418.0975036621094 255.90025329589844 423.6102600097656 257.9430847167969 431.1934814453125" stroke-width="0.0" fill="rgb(91, 60, 38)" opacity="0.9900271"/>
    <path d="M 399.7442321777344 589.6870727539062 C 397.8309631347656 597.3117065429688 392.28851318359375 602.758544921875 384.096435546875 604.6441650390625 C 375.7005615234375 602.7526245117188 370.1195373535156 597.343994140625 368.0486755371094 588.7922973632812 C 370.1100769042969 580.62646484375 375.6314697265625 575.1215209960938 383.1792907714844 573.1005249023438 C 391.4991455078125 576.0125122070312 396.9903564453125 581.5000610351562 399.7442321777344 589.6870727539062" stroke-width="0.0" fill="rgb(82, 13, 4)" opacity="1.0"/>
    <path d="M 161.88792419433594 269.7900695800781 C 159.74049377441406 278.1817932128906 154.15936279296875 283.6853332519531 145.3043212890625 285.9084777832031 C 137.68505859375 283.84515380859375 132.16058349609375 278.3123779296875 130.073974609375 270.0528259277344 C 132.1507568359375 261.6683654785156 137.66612243652344 256.14532470703125 145.85757446289062 254.0683135986328 C 154.32199096679688 256.15093994140625 159.80892944335938 261.6935729980469 161.88792419433594 269.7900695800781" stroke-width="0.0" fill="rgb(169, 101, 93)" opacity="1.0"/>
    <path d="M 479.4051818847656 203.5742645263672 C 476.98968505859375 211.4981689453125 471.49322509765625 216.97213745117188 463.2099304199219 219.8785858154297 C 455.6807861328125 217.85157775878906 450.17071533203125 212.30931091308594 448.0986633300781 204.5661163330078 C 450.33258056640625 195.95530700683594 456.07818603515625 190.68310546875 464.79119873046875 188.1146697998047 C 472.30853271484375 190.14535522460938 477.7074890136719 195.7433624267578 479.4051818847656 203.5742645263672" stroke-width="0.0" fill="rgb(161, 96, 87)" opacity="1.0"/>
    <path d="M 316.78912353515625 568.5244750976562 C 314.5606689453125 575.8212280273438 308.6085205078125 581.0950317382812 300.3556823730469 583.822265625 C 292.69427490234375 581.8114624023438 287.1484680175781 576.3215942382812 285.07977294921875 568.7093505859375 C 287.3742980957031 560.0571899414062 293.356689453125 555.309326171875 301.0107116699219 553.7174682617188 C 308.1235046386719 555.4812622070312 313.8525390625 560.7816162109375 316.78912353515625 568.5244750976562" stroke-width="0.0" fill="rgb(178, 123, 80)" opacity="0.99011415"/>
    <path d="M 108.92403411865234 485.6885681152344 C 106.85523223876953 494.34918212890625 101.35902404785156 499.87945556640625 93.29058837890625 501.9485778808594 C 84.73637390136719 499.84564208984375 80.36257934570312 494.0764465332031 78.90994262695312 485.7163391113281 C 80.57343292236328 478.4073791503906 84.91273498535156 472.2444763183594 93.31524658203125 470.076171875 C 101.32439422607422 472.162109375 106.85591888427734 477.6679382324219 108.92403411865234 485.6885681152344" stroke-width="0.0" fill="rgb(155, 3, 2)" opacity="0.99003226"/>
    <path d="M 247.99838256835938 327.9410095214844 C 245.77601623535156 335.3335266113281 240.37498474121094 340.9154052734375 233.22860717773438 342.6435546875 C 225.3003692626953 341.07232666015625 219.67559814453125 335.7683410644531 217.8583984375 328.2988586425781 C 220.2025604248047 320.6165771484375 225.59141540527344 315.121337890625 233.05703735351562 313.1628112792969 C 240.36834716796875 315.096435546875 245.7747039794922 320.6705017089844 247.99838256835938 327.9410095214844" stroke-width="0.0" fill="rgb(252, 250, 230)" opacity="0.9907266"/>
    <path d="M 496.93939208984375 215.5266876220703 C 494.86358642578125 223.34341430664062 489.3459167480469 228.8686065673828 481.24346923828125 230.93896484375 C 472.7315368652344 228.8389434814453 467.40655517578125 223.18067932128906 465.8214111328125 215.36956787109375 C 468.2381591796875 207.65020751953125 473.5586242675781 201.9236602783203 481.5022277832031 199.2461395263672 C 489.1184997558594 201.3966522216797 494.81256103515625 206.78414916992188 496.93939208984375 215.5266876220703" stroke-width="0.0" fill="rgb(131, 35, 14)" opacity="0.990467"/>
    <path d="M 280.5032958984375 267.5693664550781 C 278.722412109375 275.21600341796875 273.2472839355469 280.7996520996094 265.68035888671875 282.8375549316406 C 257.1201171875 280.50506591796875 251.929931640625 274.749267578125 250.39361572265625 266.7655029296875 C 251.921630859375 259.43048095703125 257.4521484375 253.9958038330078 264.9969482421875 252.17196655273438 C 272.6279602050781 253.96844482421875 278.3426208496094 259.27313232421875 280.5032958984375 267.5693664550781" stroke-width="0.0" fill="rgb(242, 216, 169)" opacity="1.0"/>
    <path d="M 438.1034240722656 424.4979248046875 C 436.21771240234375 431.7777404785156 430.8096618652344 437.31201171875 423.17132568359375 440.8645324707031 C 415.6469421386719 438.8736877441406 410.1739196777344 433.3358154296875 408.3128356933594 425.6485900878906 C 411.0090026855469 417.4981689453125 416.4913024902344 411.984619140625 424.82305908203125 409.09710693359375 C 432.3160095214844 411.13055419921875 437.4962158203125 416.7759094238281 438.1034240722656 424.4979248046875" stroke-width="0.0" fill="rgb(92, 14, 3)" opacity="0.99003136"/>
    <path d="M 187.93768310546875 259.6168212890625 C 185.86094665527344 268.3459777832031 180.34896850585938 273.8675231933594 172.36807250976562 275.927001953125 C 163.68858337402344 273.8377990722656 158.1779327392578 268.3047790527344 156.05201721191406 259.2342224121094 C 158.09027099609375 251.60064697265625 163.60316467285156 246.09600830078125 171.94094848632812 244.04368591308594 C 180.37734985351562 246.1058807373047 185.8844451904297 251.62686157226562 187.93768310546875 259.6168212890625" stroke-width="0.0" fill="rgb(109, 38, 23)" opacity="1.0"/>
    <path d="M 315.7222595214844 517.5791015625 C 313.3030090332031 525.67578125 307.5576477050781 530.9155883789062 299.718017578125 532.8798217773438 C 292.1043701171875 531.3441162109375 286.4345703125 525.9714965820312 284.24066162109375 517.94091796875 C 286.41009521484375 509.9566650390625 291.9468078613281 504.3839416503906 300.64495849609375 502.1212158203125 C 308.2716369628906 504.18426513671875 313.7167663574219 509.76495361328125 315.7222595214844 517.5791015625" stroke-width="0.0" fill="rgb(192, 186, 154)" opacity="1.0"/>
    <path d="M 555.354736328125 274.77490234375 C 553.3978271484375 281.9598388671875 547.9718627929688 287.42987060546875 540.5440063476562 289.353515625 C 533.0386352539062 288.3042297363281 527.3251953125 283.07525634765625 525.2318115234375 275.20135498046875 C 527.3478393554688 266.884521484375 532.8831787109375 261.34478759765625 541.25634765625 259.16290283203125 C 548.8224487304688 261.42413330078125 553.7174682617188 267.5321350097656 555.354736328125 274.77490234375" stroke-width="0.0" fill="rgb(196, 176, 153)" opacity="1.0"/>
    <path d="M 391.8539123535156 104.43477630615234 C 389.73321533203125 113.22503662109375 384.2444152832031 118.78294372558594 376.5093078613281 120.7477798461914 C 367.7257385253906 118.743896484375 362.1566162109375 113.30868530273438 360.1798095703125 105.78189086914062 C 363.4776306152344 97.77567291259766 368.4244079589844 91.59978485107422 376.672119140625 89.14674377441406 C 384.29705810546875 91.18250274658203 389.8237609863281 96.70006561279297 391.8539123535156 104.43477630615234" stroke-width="0.0" fill="rgb(211, 108, 4)" opacity="0.9900384"/>
    <path d="M 227.91668701171875 560.8231201171875 C 225.8208465576172 569.2876586914062 220.26333618164062 574.7533569335938 211.8603973388672 576.8112182617188 C 203.76914978027344 574.7394409179688 198.18911743164062 569.2603149414062 196.0847625732422 561.1448974609375 C 198.1785125732422 552.6920166015625 203.6758575439453 547.1419677734375 211.48471069335938 545.0725708007812 C 220.31687927246094 547.1663818359375 225.83963012695312 552.6806030273438 227.91668701171875 560.8231201171875" stroke-width="0.0" fill="rgb(168, 105, 94)" opacity="1.0"/>
    <path d="M 335.6297912597656 337.39605712890625 C 334.380859375 344.637939453125 328.2880859375 349.5321960449219 320.7567443847656 351.19921875 C 313.2686767578125 349.7752380371094 307.3240966796875 345.00201416015625 305.0958557128906 336.49029541015625 C 307.1882629394531 328.7391662597656 312.77203369140625 323.26654052734375 321.47247314453125 321.1103210449219 C 329.20501708984375 323.21527099609375 334.42462158203125 328.9009094238281 335.6297912597656 337.39605712890625" stroke-width="0.0" fill="rgb(166, 138, 102)" opacity="1.0"/>
    <path d="M 460.57452392578125 317.9607238769531 C 458.0595397949219 325.4760437011719 452.3936462402344 330.7879638671875 445.01470947265625 332.8115234375 C 437.6053466796875 330.7664489746094 431.94744873046875 325.48626708984375 429.77850341796875 318.09259033203125 C 431.7481994628906 310.1525573730469 437.0559997558594 304.4535827636719 444.5640563964844 302.5058898925781 C 452.4154968261719 305.1665344238281 458.0763854980469 310.5116882324219 460.57452392578125 317.9607238769531" stroke-width="0.0" fill="rgb(251, 244, 218)" opacity="1.0"/>
    <path d="M 559.0382690429688 416.0490417480469 C 557.1565551757812 423.70794677734375 551.751220703125 429.2972106933594 544.07763671875 431.29144287109375 C 536.2288818359375 429.2114562988281 530.4801025390625 423.88055419921875 528.2340698242188 416.10345458984375 C 530.3187866210938 407.8733825683594 535.9048461914062 402.40802001953125 543.7720947265625 400.450927734375 C 551.5478515625 402.8885192871094 556.995361328125 408.4869384765625 559.0382690429688 416.0490417480469" stroke-width="0.0" fill="rgb(245, 228, 184)" opacity="1.0"/>
    <path d="M 356.93115234375 566.2789916992188 C 354.5114440917969 574.7807006835938 348.5887145996094 580.02490234375 341.0032043457031 582.001220703125 C 333.5 579.9903564453125 328.0104675292969 574.499755859375 325.0956115722656 566.1592407226562 C 327.10076904296875 558.6104125976562 332.6083068847656 553.0958862304688 340.4349060058594 551.0440063476562 C 349.37451171875 553.1107788085938 354.8799133300781 558.6294555664062 356.93115234375 566.2789916992188" stroke-width="0.0" fill="rgb(111, 31, 15)" opacity="1.0"/>
    <path d="M 421.6228942871094 250.4766387939453 C 419.3839111328125 258.853271484375 413.8330993652344 264.3227233886719 406.30474853515625 265.5898742675781 C 398.449951171875 263.8579406738281 392.7519226074219 258.6641845703125 390.57379150390625 251.2536163330078 C 393.3397521972656 243.76089477539062 398.66888427734375 237.99571228027344 406.49505615234375 235.8443145751953 C 414.057861328125 237.38868713378906 419.6339416503906 242.9335479736328 421.6228942871094 250.4766387939453" stroke-width="0.0" fill="rgb(252, 252, 243)" opacity="1.0"/>
    <path d="M 409.92303466796875 374.7206115722656 C 407.86090087890625 382.326904296875 402.30999755859375 387.82177734375 394.6171569824219 389.874267578125 C 386.2176513671875 387.4884338378906 380.9375915527344 381.619140625 378.2347412109375 373.5971984863281 C 381.2815246582031 366.93096923828125 387.0410461425781 361.6584777832031 394.42633056640625 359.8642578125 C 401.9008483886719 360.857666015625 407.6749267578125 365.94677734375 409.92303466796875 374.7206115722656" stroke-width="0.0" fill="rgb(118, 32, 15)" opacity="0.9900249"/>
    <path d="M 308.40478515625 232.27780151367188 C 306.4372253417969 239.7471466064453 300.5857849121094 244.99082946777344 292.7291564941406 247.45468139648438 C 285.2580871582031 245.29690551757812 279.7042236328125 239.7425079345703 277.44964599609375 232.0175323486328 C 279.54205322265625 223.99566650390625 284.9253845214844 218.3404083251953 292.42108154296875 217.22564697265625 C 300.4202880859375 219.18409729003906 306.0245056152344 224.5167694091797 308.40478515625 232.27780151367188" stroke-width="0.0" fill="rgb(218, 207, 176)" opacity="1.0"/>
    <path d="M 273.9161376953125 399.4991455078125 C 271.8620300292969 407.3505859375 266.3562927246094 412.87579345703125 258.2678527832031 414.9438781738281 C 249.6368865966797 412.8763427734375 244.11904907226562 407.364990234375 242.05227661132812 399.4360046386719 C 244.13673400878906 390.6754455566406 249.7054901123047 385.2100830078125 258.3586730957031 383.1235046386719 C 266.2840576171875 385.1984558105469 271.8198547363281 390.70819091796875 273.9161376953125 399.4991455078125" stroke-width="0.0" fill="rgb(170, 91, 70)" opacity="1.0"/>
    <path d="M 164.9329833984375 496.3594970703125 C 162.87307739257812 504.36083984375 157.3639678955078 509.8804931640625 148.87501525878906 511.9474792480469 C 140.63113403320312 509.87994384765625 135.1044464111328 504.37591552734375 133.0464630126953 496.65606689453125 C 135.16197204589844 487.7476501464844 140.8649444580078 482.4898681640625 149.3734588623047 480.50982666015625 C 157.26226806640625 482.2769470214844 162.84413146972656 487.6958312988281 164.9329833984375 496.3594970703125" stroke-width="0.0" fill="rgb(117, 41, 21)" opacity="1.0"/>
    <path d="M 327.8938903808594 100.38558197021484 C 325.7843322753906 109.29071807861328 320.31329345703125 114.84466552734375 312.6305236816406 116.91685485839844 C 304.2485046386719 114.51103210449219 298.3494567871094 108.86983489990234 296.0760192871094 100.44025421142578 C 298.15179443359375 92.68598937988281 303.7057800292969 87.19999694824219 312.447265625 85.11846923828125 C 320.2961730957031 87.1761703491211 325.8268127441406 92.70283508300781 327.8938903808594 100.38558197021484" stroke-width="0.0" fill="rgb(193, 47, 8)" opacity="0.9900314"/>
    <path d="M 241.9505615234375 373.7628173828125 C 239.88739013671875 382.378173828125 234.3831787109375 387.8985595703125 226.72467041015625 389.9446716308594 C 218.28611755371094 387.7103271484375 213.76101684570312 380.9256591796875 211.93130493164062 374.50933837890625 C 213.8517303466797 367.305419921875 219.29010009765625 361.8106994628906 226.6998291015625 359.8468322753906 C 234.3120574951172 360.23974609375 239.8795928955078 365.6498718261719 241.9505615234375 373.7628173828125" stroke-width="0.0" fill="rgb(120, 43, 4)" opacity="0.9900143"/>
    <path d="M 504.9139099121094 353.1582946777344 C 501.90869140625 361.426025390625 496.4352722167969 366.9377746582031 488.25592041015625 369.8109436035156 C 480.6606140136719 367.8558654785156 475.1783752441406 362.32696533203125 473.2214050292969 354.5206604003906 C 475.255126953125 345.70880126953125 480.66461181640625 340.1273498535156 489.45867919921875 338.04815673828125 C 497.3955383300781 340.09637451171875 502.9012451171875 345.60546875 504.9139099121094 353.1582946777344" stroke-width="0.0" fill="rgb(97, 10, 2)" opacity="0.9901343"/>
    <path d="M 557.4742431640625 538.5534057617188 C 554.9903564453125 546.5 549.5 551.9903564453125 542.0 554.0 C 534.4991455078125 551.9906616210938 528.9896240234375 546.50634765625 526.1270751953125 538.212890625 C 528.1348266601562 530.6670532226562 533.7006225585938 525.2294311523438 542.1998291015625 523.3087768554688 C 550.22607421875 525.2427978515625 555.6889038085938 530.7969970703125 557.4742431640625 538.5534057617188" stroke-width="0.0" fill="rgb(55, 70, 4)" opacity="0.99016815"/>
    <path d="M 563.9490356445312 441.55706787109375 C 561.890869140625 450.38348388671875 556.3866577148438 455.8984069824219 547.9038696289062 457.95489501953125 C 539.6309204101562 455.8938903808594 534.25537109375 450.3282165527344 533.9108276367188 442.6772155761719 C 535.8502807617188 435.3233642578125 541.3338012695312 429.8765869140625 548.8640747070312 427.8912048339844 C 556.3709106445312 428.1368103027344 561.8978271484375 433.6164245605469 563.9490356445312 441.55706787109375" stroke-width="0.0" fill="rgb(96, 5, 6)" opacity="0.9900258"/>
    <path d="M 161.93214416503906 475.40972900390625 C 159.77928161621094 484.1646423339844 154.01145935058594 489.3286437988281 145.63998413085938 491.16339111328125 C 137.764892578125 489.6729736328125 132.13844299316406 484.3041687011719 130.05841064453125 476.6626892089844 C 132.28550720214844 467.96514892578125 138.18630981445312 462.8474426269531 146.44212341308594 460.60223388671875 C 154.27572631835938 462.272705078125 159.8640594482422 467.67681884765625 161.93214416503906 475.40972900390625" stroke-width="0.0" fill="rgb(95, 22, 5)" opacity="0.99033827"/>
    <path d="M 367.8673095703125 81.22300720214844 C 365.40081787109375 89.90262603759766 359.9660949707031 95.57476043701172 351.6481018066406 97.86396026611328 C 343.75677490234375 95.75616455078125 338.2012939453125 90.26041412353516 336.0866394042969 81.61862182617188 C 338.1604919433594 73.68464660644531 343.6813049316406 68.15229797363281 352.5595703125 66.0541763305664 C 360.3639831542969 68.11750030517578 365.87066650390625 73.64100646972656 367.8673095703125 81.22300720214844" stroke-width="0.0" fill="rgb(193, 66, 32)" opacity="0.9901348"/>
    <path d="M 436.94561767578125 512.4849243164062 C 434.8606262207031 521.3302612304688 429.3192138671875 526.8360595703125 421.1356506347656 528.9163208007812 C 412.6808776855469 526.840576171875 407.1532897949219 521.3215942382812 405.0609130859375 512.5359497070312 C 407.12347412109375 504.6351013183594 412.6302795410156 499.1124572753906 420.67974853515625 497.05224609375 C 429.371337890625 499.11767578125 434.8890380859375 504.6258544921875 436.94561767578125 512.4849243164062" stroke-width="0.0" fill="rgb(116, 34, 18)" opacity="1.0"/>
    <path d="M 398.86663818359375 270.7247619628906 C 396.8400573730469 278.33673095703125 391.3497619628906 283.8725891113281 383.6139831542969 285.92889404296875 C 374.6847839355469 283.8257141113281 369.14019775390625 278.3297424316406 367.2047424316406 270.84912109375 C 370.8044738769531 263.27764892578125 376.2867736816406 257.8294677734375 383.1686706542969 255.91481018066406 C 389.76904296875 257.8008728027344 395.4191589355469 263.1679992675781 398.86663818359375 270.7247619628906" stroke-width="0.0" fill="rgb(137, 69, 50)" opacity="0.9900286"/>
    <path d="M 365.61566162109375 363.2154541015625 C 363.5380859375 371.01318359375 358.0203857421875 376.558349609375 350.4429931640625 378.45037841796875 C 342.73553466796875 375.7207946777344 337.1991271972656 370.2877197265625 334.7312927246094 362.8298645019531 C 336.8079833984375 355.4300231933594 342.6020812988281 350.291748046875 349.8182373046875 348.58502197265625 C 357.17181396484375 350.4747314453125 363.15216064453125 355.65283203125 365.61566162109375 363.2154541015625" stroke-width="0.0" fill="rgb(214, 195, 142)" opacity="0.9900876"/>
    <path d="M 207.91290283203125 170.99203491210938 C 205.87191772460938 179.36264038085938 200.36512756347656 184.8785858154297 191.9427490234375 186.94479370117188 C 183.63687133789062 184.88070678710938 178.14219665527344 179.35411071777344 176.12677001953125 171.7283935546875 C 179.64015197753906 164.2515411376953 185.3179473876953 158.88064575195312 192.86544799804688 156.7906494140625 C 200.3430938720703 157.15695190429688 205.8724822998047 162.6455841064453 207.91290283203125 170.99203491210938" stroke-width="0.0" fill="rgb(160, 2, 2)" opacity="0.9900385"/>
    <path d="M 551.7593383789062 552.1290283203125 C 549.8548583984375 559.487060546875 544.6786499023438 565.3811645507812 537.4241333007812 567.3596801757812 C 529.4736938476562 565.0442504882812 524.005126953125 559.5115966796875 522.09814453125 552.1403198242188 C 524.4381103515625 545.0491943359375 530.1849365234375 539.8118896484375 536.6498413085938 537.95068359375 C 543.7702026367188 539.8374633789062 549.4781494140625 545.1171875 551.7593383789062 552.1290283203125" stroke-width="0.0" fill="rgb(246, 243, 228)" opacity="0.99002796"/>
    <path d="M 390.341064453125 484.8673095703125 C 388.002685546875 492.522216796875 382.54168701171875 498.06781005859375 374.9297180175781 500.2500915527344 C 367.4066467285156 498.12640380859375 361.8550109863281 492.5999755859375 359.7652893066406 485.225830078125 C 362.0548095703125 477.5030212402344 367.51171875 472.08349609375 375.27777099609375 469.9737243652344 C 382.7376708984375 471.7298889160156 388.2318420410156 477.275390625 390.341064453125 484.8673095703125" stroke-width="0.0" fill="rgb(254, 252, 238)" opacity="0.9908354"/>
    <path d="M 170.60287475585938 584.7725830078125 C 168.30557250976562 592.7744750976562 162.77749633789062 598.312744140625 155.00694274902344 600.3971557617188 C 147.22410583496094 598.3154296875 141.7952880859375 592.74169921875 139.91282653808594 585.05322265625 C 141.90704345703125 577.3399047851562 147.22335815429688 571.5700073242188 155.41030883789062 569.1825561523438 C 163.02699279785156 571.365966796875 168.48338317871094 577.033447265625 170.60287475585938 584.7725830078125" stroke-width="0.0" fill="rgb(209, 194, 150)" opacity="0.9926644"/>
    <path d="M 395.35125732421875 202.29762268066406 C 394.2767028808594 209.63072204589844 388.45867919921875 214.77642822265625 380.75250244140625 216.4166717529297 C 373.5436096191406 215.01434326171875 368.1634216308594 209.4035186767578 365.864013671875 201.8563232421875 C 367.6741638183594 194.21424865722656 373.2441711425781 188.7669677734375 380.815185546875 186.75347900390625 C 388.587646484375 188.91769409179688 394.1289367675781 194.39698791503906 395.35125732421875 202.29762268066406" stroke-width="0.0" fill="rgb(254, 252, 245)" opacity="0.990986"/>
    <path d="M 469.93218994140625 180.8336944580078 C 467.87225341796875 188.31463623046875 462.2274169921875 193.5949249267578 453.4738464355469 195.4143524169922 C 445.83782958984375 193.69473266601562 440.26483154296875 188.1792755126953 438.145263671875 179.54881286621094 C 440.1789855957031 171.72335815429688 445.7883605957031 166.42254638671875 453.2499694824219 165.9313507080078 C 460.7058410644531 167.859375 466.3175354003906 173.2390899658203 469.93218994140625 180.8336944580078" stroke-width="0.0" fill="rgb(100, 16, 5)" opacity="0.9900215"/>
    <path d="M 342.8030090332031 138.5220184326172 C 340.6714172363281 147.18467712402344 335.2328796386719 152.79476928710938 327.25933837890625 154.88519287109375 C 318.78424072265625 152.7684783935547 313.27130126953125 147.1985626220703 311.2544250488281 139.4674835205078 C 313.3707580566406 130.8673095703125 318.83502197265625 125.2823715209961 326.8032531738281 123.31905364990234 C 335.2151794433594 125.2766342163086 340.7662658691406 130.7689971923828 342.8030090332031 138.5220184326172" stroke-width="0.0" fill="rgb(241, 203, 161)" opacity="1.0"/>
    <path d="M 488.77618408203125 124.4439926147461 C 486.086669921875 132.48350524902344 480.4291076660156 137.89976501464844 472.7950134277344 140.3775634765625 C 465.4524841308594 138.2147216796875 460.439208984375 132.3003692626953 457.3838195800781 124.25043487548828 C 459.2001953125 116.71660614013672 464.69842529296875 111.158935546875 472.77655029296875 109.08932495117188 C 481.2798767089844 111.17366027832031 486.7359313964844 116.7562026977539 488.77618408203125 124.4439926147461" stroke-width="0.0" fill="rgb(222, 200, 171)" opacity="1.0"/>
    <path d="M 413.61572265625 578.6475830078125 C 411.80963134765625 587.3264770507812 406.3486328125 592.8720092773438 398.7930908203125 594.890380859375 C 390.4824523925781 592.04052734375 385.0077819824219 586.5038452148438 382.31988525390625 578.3643798828125 C 384.1834411621094 570.6725463867188 389.64971923828125 565.123046875 397.9541931152344 563.0550537109375 C 406.3667907714844 565.1189575195312 411.85272216796875 570.6433715820312 413.61572265625 578.6475830078125" stroke-width="0.0" fill="rgb(89, 18, 9)" opacity="0.99022895"/>
    <path d="M 93.72740936279297 347.8919372558594 C 91.54375457763672 355.98388671875 85.96394348144531 361.4878234863281 77.41683959960938 363.791015625 C 69.71943664550781 361.78485107421875 64.16615295410156 356.30029296875 62.091400146484375 348.3646240234375 C 64.21809387207031 339.7635803222656 69.77237701416016 334.2383117675781 77.52013397216797 332.14892578125 C 86.04086303710938 334.40008544921875 91.59213256835938 339.961181640625 93.72740936279297 347.8919372558594" stroke-width="0.0" fill="rgb(202, 161, 73)" opacity="1.0"/>
    <path d="M 213.7681427001953 531.70751953125 C 211.84584045410156 539.3388061523438 206.34014892578125 544.850341796875 197.5601348876953 546.9407958984375 C 190.03440856933594 544.780517578125 185.74285888671875 537.996826171875 183.91635131835938 531.3596801757812 C 185.83770751953125 524.279052734375 191.244873046875 518.7410888671875 198.46339416503906 516.5731811523438 C 205.4658203125 518.0889282226562 210.99952697753906 523.5079345703125 213.7681427001953 531.70751953125" stroke-width="0.0" fill="rgb(101, 21, 6)" opacity="0.9900281"/>
    <path d="M 602.7960205078125 460.55438232421875 C 600.6651000976562 469.077392578125 594.983642578125 474.376220703125 586.3687744140625 476.6947021484375 C 578.662353515625 474.82867431640625 573.12841796875 469.3529052734375 571.0617065429688 461.2350769042969 C 573.1361694335938 452.6523132324219 578.6498413085938 447.13092041015625 586.6077880859375 445.07574462890625 C 595.3280639648438 447.1505432128906 600.8155517578125 452.68426513671875 602.7960205078125 460.55438232421875" stroke-width="0.0" fill="rgb(109, 24, 6)" opacity="0.99013007"/>
    <path d="M 478.10845947265625 346.2598876953125 C 476.2277526855469 353.8655090332031 470.9999694824219 359.5929260253906 463.8630676269531 361.8863220214844 C 456.5065002441406 359.98565673828125 450.9749450683594 354.50421142578125 449.5265808105469 347.21826171875 C 450.9303894042969 339.441162109375 456.4442138671875 333.9332580566406 463.8426513671875 332.32220458984375 C 471.3440856933594 334.1183166503906 477.19573974609375 339.5689697265625 478.10845947265625 346.2598876953125" stroke-width="0.0" fill="rgb(237, 242, 213)" opacity="1.0"/>
    <path d="M 596.9390258789062 235.00404357910156 C 594.9992065429688 242.5657958984375 589.7289428710938 248.44053649902344 581.3340454101562 250.91966247558594 C 574.9636840820312 248.6839141845703 569.8551025390625 241.7434539794922 567.9360961914062 235.04290771484375 C 569.8568115234375 228.3035888671875 575.2869262695312 222.8164520263672 582.567138671875 220.8956298828125 C 589.2794799804688 222.41966247558594 594.9344482421875 227.5944366455078 596.9390258789062 235.00404357910156" stroke-width="0.0" fill="rgb(133, 32, 5)" opacity="0.99001527"/>
    <path d="M 120.94288635253906 375.6844177246094 C 118.8508071899414 384.3367919921875 113.34800720214844 389.8752136230469 105.62005615234375 391.9435729980469 C 96.69393157958984 389.8400573730469 91.21129608154297 384.2859802246094 89.8502197265625 376.7104187011719 C 92.56826782226562 368.9503479003906 97.85556030273438 363.2663269042969 105.6468276977539 360.2873840332031 C 113.33326721191406 362.1784362792969 118.87650299072266 367.64654541015625 120.94288635253906 375.6844177246094" stroke-width="0.0" fill="rgb(141, 2, 2)" opacity="0.9900818"/>
    <path d="M 540.0724487304688 555.0150146484375 C 538.0675048828125 562.4592895507812 532.1566772460938 567.3718872070312 524.4971923828125 569.074462890625 C 516.9010620117188 568.2933959960938 511.28961181640625 563.1781616210938 509.25848388671875 555.3601684570312 C 511.5918884277344 547.1801147460938 517.1990966796875 541.6463012695312 524.6774291992188 540.5192260742188 C 532.4866333007812 542.1336059570312 538.0520629882812 547.4570922851562 540.0724487304688 555.0150146484375" stroke-width="0.0" fill="rgb(243, 240, 224)" opacity="0.99008316"/>
    <path d="M 591.4610595703125 291.96075439453125 C 589.3192138671875 299.7862548828125 583.7625732421875 305.240966796875 576.2068481445312 306.9584045410156 C 568.6504516601562 304.7919921875 563.0402221679688 299.3993835449219 560.9738159179688 291.9803161621094 C 562.7958374023438 284.3193054199219 568.3924560546875 279.0646667480469 576.3785400390625 276.5162658691406 C 583.8998413085938 278.5381164550781 589.3822021484375 284.126953125 591.4610595703125 291.96075439453125" stroke-width="0.0" fill="rgb(241, 216, 179)" opacity="0.9902403"/>
    <path d="M 498.68206787109375 512.4105224609375 C 496.4378967285156 519.7921142578125 490.7085266113281 525.2085571289062 482.757568359375 527.301513671875 C 474.82879638671875 525.6060180664062 469.2119445800781 520.232421875 467.57550048828125 512.4344482421875 C 469.28594970703125 503.85504150390625 474.8872985839844 498.3601989746094 482.47418212890625 496.32275390625 C 490.6650390625 498.8428955078125 496.2008972167969 504.3222351074219 498.68206787109375 512.4105224609375" stroke-width="0.0" fill="rgb(249, 249, 231)" opacity="1.0"/>
    <path d="M 408.8707580566406 457.2715148925781 C 406.0709228515625 465.2807312011719 400.1826171875 470.63531494140625 393.1624755859375 472.6416931152344 C 385.86895751953125 470.6165771484375 380.49652099609375 465.092529296875 377.4897155761719 457.33929443359375 C 379.2445373535156 449.7483825683594 384.7274475097656 444.1900939941406 393.5634460449219 442.0849609375 C 401.34124755859375 444.13641357421875 406.8455505371094 449.66632080078125 408.8707580566406 457.2715148925781" stroke-width="0.0" fill="rgb(182, 163, 136)" opacity="1.0"/>
    <path d="M 237.88352966308594 586.612060546875 C 235.80052185058594 595.295654296875 230.3009033203125 600.8140258789062 221.5481719970703 602.8583374023438 C 213.6396942138672 600.863037109375 208.12548828125 595.3642578125 206.05860900878906 586.7609252929688 C 208.15907287597656 578.7214965820312 213.78485107421875 573.3189697265625 222.3075408935547 571.1875 C 230.2825927734375 573.2225952148438 235.8279266357422 578.6989135742188 237.88352966308594 586.612060546875" stroke-width="0.0" fill="rgb(184, 112, 112)" opacity="1.0"/>
    <path d="M 501.661865234375 13.48090934753418 C 498.8877868652344 21.403610229492188 493.3926696777344 26.850284576416016 485.8647766113281 28.773738861083984 C 478.27130126953125 27.185026168823242 472.62628173828125 21.788711547851562 471.3420104980469 14.525135040283203 C 473.5706787109375 6.948270797729492 478.79095458984375 0.9196556210517883 486.1423034667969 -1.5892982482910156 C 494.0278625488281 0.4673994779586792 499.62225341796875 5.940683364868164 501.661865234375 13.48090934753418" stroke-width="0.0" fill="rgb(228, 152, 80)" opacity="0.99008256"/>
    <path d="M 278.036376953125 475.04473876953125 C 276.1376647949219 482.6856994628906 270.7310791015625 488.28369140625 262.8790283203125 490.3459167480469 C 255.3149871826172 488.2113342285156 249.7672119140625 482.6938171386719 247.6532745361328 475.15948486328125 C 249.9707794189453 467.5542297363281 255.64576721191406 462.2678527832031 263.2396545410156 460.02667236328125 C 270.4835510253906 462.03533935546875 275.9861145019531 467.509765625 278.036376953125 475.04473876953125" stroke-width="0.0" fill="rgb(240, 235, 209)" opacity="0.9909707"/>
    <path d="M 558.9216918945312 153.37423706054688 C 556.7916870117188 162.2685089111328 551.2748413085938 167.8069610595703 543.2145385742188 169.9036865234375 C 534.7835693359375 167.78469848632812 529.4783935546875 162.13381958007812 527.3038940429688 153.33514404296875 C 529.1940307617188 145.70065307617188 534.6829223632812 140.1503448486328 542.7898559570312 138.07106018066406 C 551.3385009765625 140.14645385742188 556.8632202148438 145.65756225585938 558.9216918945312 153.37423706054688" stroke-width="0.0" fill="rgb(180, 110, 107)" opacity="1.0"/>
    <path d="M 146.2265625 580.1715698242188 C 144.66458129882812 587.3165283203125 139.40760803222656 592.93994140625 131.99066162109375 594.9947509765625 C 124.49889373779297 592.9906616210938 118.9727783203125 587.5112915039062 116.12317657470703 579.2284545898438 C 118.14163970947266 571.6598510742188 123.65818786621094 566.1375122070312 131.64427185058594 564.0591430664062 C 140.17666625976562 566.1948852539062 144.7627716064453 572.07666015625 146.2265625 580.1715698242188" stroke-width="0.0" fill="rgb(208, 126, 30)" opacity="0.9902798"/>
    <path d="M 570.6736450195312 413.51959228515625 C 568.68603515625 421.11175537109375 563.0578002929688 426.5433654785156 555.39599609375 427.2174987792969 C 547.5601196289062 425.7703857421875 542.00927734375 420.5139465332031 540.377197265625 413.08447265625 C 542.116943359375 405.4951171875 547.3893432617188 399.7825927734375 554.7855834960938 397.9852600097656 C 562.6072998046875 399.94256591796875 568.0860595703125 405.3860168457031 570.6736450195312 413.51959228515625" stroke-width="0.0" fill="rgb(249, 242, 210)" opacity="1.0"/>
    <path d="M 105.89171600341797 320.6116943359375 C 103.84374237060547 328.3175048828125 98.30306243896484 333.8062438964844 90.42142486572266 335.8483581542969 C 81.80940246582031 333.713623046875 76.24866485595703 328.2054138183594 74.12899780273438 320.29132080078125 C 76.29065704345703 311.8492736816406 81.86796569824219 306.337158203125 90.04550170898438 304.1937255859375 C 98.18582916259766 306.29779052734375 103.74956512451172 311.79547119140625 105.89171600341797 320.6116943359375" stroke-width="0.0" fill="rgb(213, 179, 108)" opacity="1.0"/>
    <path d="M 425.6219177246094 415.3916320800781 C 422.8717346191406 423.4093017578125 417.4338684082031 428.96099853515625 409.2057800292969 431.9007263183594 C 401.6624755859375 429.8642272949219 396.14990234375 424.3310852050781 394.0806884765625 416.5931701660156 C 396.1976623535156 407.70806884765625 401.6969909667969 402.17022705078125 410.1513671875 400.0855407714844 C 418.2956237792969 402.1784362792969 423.783935546875 407.71783447265625 425.6219177246094 415.3916320800781" stroke-width="0.0" fill="rgb(123, 46, 30)" opacity="0.99225545"/>
    <path d="M 359.0052185058594 397.98797607421875 C 356.9884033203125 405.4934387207031 351.47088623046875 410.9111633300781 343.8661193847656 413.08135986328125 C 336.4527282714844 411.0729064941406 331.03131103515625 405.5145568847656 328.6097412109375 397.6060485839844 C 330.66448974609375 390.37420654296875 336.59814453125 385.2691650390625 344.2557678222656 383.1442565917969 C 351.6075134277344 384.87615966796875 357.0461730957031 390.4164123535156 359.0052185058594 397.98797607421875" stroke-width="0.0" fill="rgb(240, 237, 206)" opacity="0.99068904"/>
    <path d="M 558.4322509765625 202.0623779296875 C 556.2608642578125 209.7609100341797 550.7470703125 215.21170043945312 543.0657348632812 216.7644805908203 C 535.6182250976562 214.84642028808594 530.0552978515625 209.4119110107422 527.9905395507812 201.9967041015625 C 530.0096435546875 194.5 535.5 189.00961303710938 543.0682373046875 186.93212890625 C 550.6844482421875 188.82806396484375 556.2210083007812 194.30140686035156 558.4322509765625 202.0623779296875" stroke-width="0.0" fill="rgb(255, 255, 252)" opacity="0.99149096"/>
    <path d="M 574.3674926757812 545.1025390625 C 572.0642700195312 552.58837890625 566.6425170898438 558.2302856445312 559.2049560546875 560.4678955078125 C 551.5836791992188 557.8636474609375 546.016357421875 552.4525146484375 544.7392578125 545.6732788085938 C 546.8314208984375 538.28955078125 552.2711791992188 532.777587890625 559.5419311523438 530.8023071289062 C 566.4622802734375 532.1524658203125 571.9223022460938 537.5146484375 574.3674926757812 545.1025390625" stroke-width="0.0" fill="rgb(243, 240, 223)" opacity="0.9900633"/>
    <path d="M 429.8382263183594 339.6650390625 C 427.7713928222656 347.21783447265625 422.19287109375 352.70831298828125 414.6069641113281 354.2937316894531 C 406.3278503417969 351.70843505859375 400.314697265625 346.99517822265625 398.0966491699219 338.4627990722656 C 400.16119384765625 330.6762390136719 405.6719665527344 325.1509094238281 413.4493103027344 323.0873107910156 C 421.9176330566406 325.33685302734375 426.83416748046875 331.438720703125 429.8382263183594 339.6650390625" stroke-width="0.0" fill="rgb(158, 144, 91)" opacity="1.0"/>
    <path d="M 345.46783447265625 581.3997802734375 C 343.620361328125 589.1228637695312 338.1636657714844 594.728759765625 329.4576416015625 596.9063720703125 C 321.7128601074219 594.832763671875 316.2639465332031 589.2496337890625 314.2292175292969 580.6322021484375 C 316.19927978515625 572.7012329101562 321.6912841796875 567.172119140625 329.3011474609375 565.2243041992188 C 337.5 568.0096435546875 342.9903869628906 573.5 345.46783447265625 581.3997802734375" stroke-width="0.0" fill="rgb(119, 36, 8)" opacity="0.99004066"/>
    <path d="M 143.2980194091797 588.1433715820312 C 141.55865478515625 595.1072998046875 136.11370849609375 600.5816040039062 128.52359008789062 603.20751953125 C 120.74525451660156 601.6900634765625 115.12924194335938 596.3194580078125 113.05337524414062 588.3744506835938 C 115.1529769897461 579.7249755859375 120.81375885009766 574.3883666992188 128.5135955810547 573.0281372070312 C 136.0567169189453 575.49072265625 141.49081420898438 580.9491577148438 143.2980194091797 588.1433715820312" stroke-width="0.0" fill="rgb(171, 66, 5)" opacity="0.9900713"/>
    <path d="M 556.0065307617188 200.00424194335938 C 553.9903564453125 207.5 548.5 212.99038696289062 540.9051513671875 215.09823608398438 C 533.2650756835938 213.22607421875 527.7487182617188 207.74209594726562 525.4559936523438 199.86668395996094 C 527.7078247070312 192.26145935058594 533.2613525390625 186.71456909179688 540.7060546875 185.0137176513672 C 548.339111328125 187.2650604248047 553.9425048828125 192.59591674804688 556.0065307617188 200.00424194335938" stroke-width="0.0" fill="rgb(254, 255, 251)" opacity="0.9913549"/>
    <path d="M 410.9258728027344 498.57733154296875 C 408.8750915527344 506.36492919921875 403.3681945800781 511.88262939453125 395.8408203125 513.870849609375 C 388.2362365722656 510.249755859375 382.8249816894531 504.73614501953125 380.9423828125 498.6106872558594 C 382.8934326171875 491.35821533203125 388.35369873046875 485.8824462890625 395.8482666015625 483.87188720703125 C 403.34259033203125 484.151123046875 408.85040283203125 489.65716552734375 410.9258728027344 498.57733154296875" stroke-width="0.0" fill="rgb(123, 40, 5)" opacity="0.9900147"/>
    <path d="M 356.9269714355469 572.801025390625 C 354.8986511230469 580.3890991210938 349.3876953125 585.8950805664062 341.8260803222656 587.8834228515625 C 333.6027526855469 584.8560791015625 328.1512756347656 579.3950805664062 326.2651672363281 571.9066772460938 C 327.9996643066406 564.4818115234375 333.476806640625 558.9815063476562 340.9951171875 556.9608764648438 C 348.58636474609375 558.9677734375 354.4700927734375 564.2463989257812 356.9269714355469 572.801025390625" stroke-width="0.0" fill="rgb(101, 19, 5)" opacity="1.0"/>
    <path d="M 373.868896484375 403.792236328125 C 371.8731689453125 411.3600769042969 366.3576965332031 416.8673400878906 358.3707580566406 418.92987060546875 C 350.1205749511719 416.74371337890625 345.76776123046875 409.95855712890625 343.94195556640625 403.58392333984375 C 345.87347412109375 396.32135009765625 351.3005065917969 390.8206481933594 358.720703125 388.6747741699219 C 365.71563720703125 389.604736328125 371.0318908691406 395.4132080078125 373.868896484375 403.792236328125" stroke-width="0.0" fill="rgb(121, 27, 7)" opacity="0.9900273"/>
    <path d="M 473.7060546875 363.81591796875 C 471.8531188964844 371.3359069824219 466.32843017578125 376.8336181640625 457.2561950683594 378.93487548828125 C 449.6036071777344 376.9049987792969 444.0985412597656 371.3948974609375 442.0527648925781 363.5201416015625 C 444.1379699707031 354.67572021484375 449.71173095703125 349.23565673828125 457.3664855957031 348.4234313964844 C 464.7768859863281 350.72845458984375 470.2304382324219 356.23590087890625 473.7060546875 363.81591796875" stroke-width="0.0" fill="rgb(40, 63, 2)" opacity="0.9900532"/>
    <path d="M 291.9410705566406 470.3941650390625 C 289.8753967285156 478.35003662109375 284.3348083496094 483.83831787109375 276.7918701171875 485.5841979980469 C 269.2015380859375 482.2679138183594 263.7810974121094 476.7799377441406 261.8994445800781 470.0838623046875 C 263.797119140625 463.2268371582031 269.1254577636719 457.1936950683594 276.6641540527344 454.0690002441406 C 284.3393249511719 456.1412658691406 289.8573913574219 461.6613464355469 291.9410705566406 470.3941650390625" stroke-width="0.0" fill="rgb(126, 86, 54)" opacity="0.9900384"/>
    <path d="M 326.8982238769531 216.66908264160156 C 324.86065673828125 224.34103393554688 319.33563232421875 229.8478240966797 311.51727294921875 231.90577697753906 C 302.806884765625 229.74615478515625 297.3019714355469 224.17446899414062 295.1896057128906 215.87799072265625 C 297.3111267089844 207.8513946533203 302.845947265625 202.29660034179688 311.21624755859375 200.14309692382812 C 319.2204284667969 202.2457733154297 324.73687744140625 207.78648376464844 326.8982238769531 216.66908264160156" stroke-width="0.0" fill="rgb(182, 117, 116)" opacity="1.0"/>
    <path d="M 595.4441528320312 509.9484558105469 C 592.9552001953125 517.37109375 587.3717041015625 522.95654296875 580.4061279296875 524.720947265625 C 572.8795776367188 522.4995727539062 567.0272216796875 517.2492065429688 564.3934326171875 509.6208190917969 C 566.3369140625 501.8392639160156 571.8150024414062 496.2687072753906 579.6986083984375 494.1552429199219 C 588.1751708984375 496.24945068359375 593.49755859375 501.90838623046875 595.4441528320312 509.9484558105469" stroke-width="0.0" fill="rgb(219, 196, 159)" opacity="1.0"/>
    <path d="M 228.84645080566406 402.8048095703125 C 226.8175811767578 411.2955017089844 221.28387451171875 416.7860412597656 213.43988037109375 418.7814025878906 C 204.97862243652344 416.5801086425781 199.43621826171875 411.01434326171875 197.3260040283203 403.20074462890625 C 199.49057006835938 395.0546569824219 205.09185791015625 389.60205078125 213.6202392578125 387.2535400390625 C 221.28468322753906 389.20562744140625 226.82374572753906 394.7038879394531 228.84645080566406 402.8048095703125" stroke-width="0.0" fill="rgb(245, 217, 167)" opacity="1.0"/>
    <path d="M 219.94349670410156 240.35987854003906 C 217.8775634765625 248.35748291015625 212.3528594970703 253.86753845214844 204.43524169921875 255.92681884765625 C 195.66940307617188 253.8481903076172 190.13185119628906 248.339599609375 188.0478057861328 239.4412841796875 C 190.10081481933594 231.61561584472656 195.62301635742188 226.11878967285156 203.15345764160156 224.56048583984375 C 211.60934448242188 227.62234497070312 217.8157958984375 231.83909606933594 219.94349670410156 240.35987854003906" stroke-width="0.0" fill="rgb(87, 10, 4)" opacity="0.99011534"/>
  </g>
</svg>
