<?xml version="1.0" ?>
<svg xmlns="http://www.w3.org/2000/svg" version="1.1" width="600" height="600">
  <defs/>
  <g>
    <path d="M 256.9493103027344 93.57917022705078 C 254.8715057373047 102.35562896728516 249.36448669433594 107.89014434814453 241.70584106445312 109.94572448730469 C 232.6604461669922 107.85249328613281 227.144287109375 102.34095001220703 225.06405639648438 93.33183288574219 C 227.10183715820312 85.6097640991211 232.60768127441406 80.09675598144531 240.4443817138672 78.04826354980469 C 249.36936950683594 80.1177978515625 254.88735961914062 85.62832641601562 256.9493103027344 93.57917022705078" stroke-width="0.0" fill="rgb(91, 30, 33)" opacity="1.0"/>
    <path d="M 493.074951171875 184.30072021484375 C 491.13165283203125 191.67556762695312 485.6958923339844 197.19102478027344 478.287109375 200.7700653076172 C 471.23211669921875 198.48158264160156 465.9695129394531 192.59666442871094 463.1395263671875 184.22555541992188 C 465.14471435546875 176.67095947265625 470.6933898925781 171.20741271972656 478.4110412597656 169.37782287597656 C 486.4273986816406 172.03887939453125 491.5419006347656 177.72874450683594 493.074951171875 184.30072021484375" stroke-width="0.0" fill="rgb(164, 41, 30)" opacity="0.9900314"/>
    <path d="M 556.7205810546875 188.34535217285156 C 553.6138916015625 196.28640747070312 548.7239379882812 202.56390380859375 540.95751953125 204.86399841308594 C 532.7022705078125 202.79042053222656 527.1511840820312 197.3193359375 525.0671997070312 188.98439025878906 C 527.1483154296875 180.6800537109375 532.6993408203125 175.1958465576172 540.3859252929688 173.1972198486328 C 549.1300659179688 175.3943328857422 554.7348022460938 180.82431030273438 556.7205810546875 188.34535217285156" stroke-width="0.0" fill="rgb(175, 97, 43)" opacity="1.0"/>
    <path d="M 246.91900634765625 514.445068359375 C 244.85455322265625 522.3311157226562 239.31712341308594 527.817138671875 230.34666442871094 529.9009399414062 C 222.6431121826172 527.8699340820312 217.12643432617188 522.3583374023438 215.06442260742188 514.4556884765625 C 217.15350341796875 505.6754455566406 222.6778564453125 500.1593017578125 230.6970977783203 498.0823059082031 C 239.3157196044922 500.1694030761719 244.83155822753906 505.6839599609375 246.91900634765625 514.445068359375" stroke-width="0.0" fill="rgb(191, 70, 68)" opacity="1.0"/>
    <path d="M 432.8619079589844 333.2393493652344 C 429.9835510253906 341.4980163574219 424.4998474121094 346.9903564453125 416.9871520996094 349.00677490234375 C 409.37445068359375 347.0600891113281 403.66302490234375 341.7164306640625 401.59381103515625 334.22723388671875 C 403.8093566894531 326.18817138671875 409.0439758300781 320.398193359375 416.4478759765625 318.62493896484375 C 425.06719970703125 320.69659423828125 430.8124084472656 325.7841796875 432.8619079589844 333.2393493652344" stroke-width="0.0" fill="rgb(197, 77, 64)" opacity="0.990219"/>
    <path d="M 306.9198913574219 113.86399841308594 C 304.8691101074219 122.35823059082031 299.35540771484375 127.8622055053711 290.2686767578125 129.94998168945312 C 282.6086730957031 127.90267181396484 277.0982971191406 122.39100646972656 275.053955078125 114.59237670898438 C 277.1175842285156 105.62356567382812 282.6189880371094 100.10650634765625 291.1586608886719 98.0482406616211 C 299.3656005859375 100.11762237548828 304.8719482421875 105.63855743408203 306.9198913574219 113.86399841308594" stroke-width="0.0" fill="rgb(33, 55, 4)" opacity="1.0"/>
    <path d="M 226.91065979003906 425.47216796875 C 224.7782745361328 433.16888427734375 219.04534912109375 438.4547119140625 210.95294189453125 440.38507080078125 C 203.08973693847656 438.4269714355469 197.56655883789062 432.9122009277344 195.68722534179688 425.2488098144531 C 197.98019409179688 417.4171447753906 203.3067169189453 411.65435791015625 210.7292938232422 409.4421081542969 C 219.0106201171875 411.63641357421875 224.76681518554688 416.8471374511719 226.91065979003906 425.47216796875" stroke-width="0.0" fill="rgb(211, 205, 160)" opacity="1.0"/>
    <path d="M 146.58753967285156 204.5109405517578 C 144.70237731933594 212.1724853515625 139.1613006591797 217.67303466796875 131.18385314941406 219.44737243652344 C 123.03714752197266 217.56224060058594 117.68428039550781 211.87960815429688 115.87433624267578 204.12522888183594 C 118.0096206665039 196.5 123.5 191.00961303710938 131.0 189.0 C 138.5 191.00961303710938 143.99038696289062 196.5 146.58753967285156 204.5109405517578" stroke-width="0.0" fill="rgb(213, 203, 180)" opacity="1.0"/>
    <path d="M 298.6706237792969 228.35130310058594 C 296.5732116699219 236.19931030273438 291.34698486328125 242.10916137695312 284.120849609375 244.30796813964844 C 276.1001892089844 242.23220825195312 270.22900390625 237.11395263671875 268.1065368652344 229.77252197265625 C 270.9551086425781 221.3701629638672 276.158447265625 215.4303741455078 284.66455078125 213.07579040527344 C 292.33026123046875 215.14170837402344 297.7958984375 220.6924285888672 298.6706237792969 228.35130310058594" stroke-width="0.0" fill="rgb(91, 160, 49)" opacity="1.0"/>
    <path d="M 603.95458984375 227.04730224609375 C 601.9903564453125 234.5 596.5 239.99038696289062 588.8682861328125 242.1943359375 C 581.2922973632812 240.23414611816406 575.8721923828125 234.67752075195312 573.3549194335938 226.50587463378906 C 575.43603515625 219.05294799804688 581.1361694335938 213.67320251464844 588.6655883789062 212.03709411621094 C 596.2579956054688 214.35699462890625 601.8452758789062 219.6767578125 603.95458984375 227.04730224609375" stroke-width="0.0" fill="rgb(248, 239, 214)" opacity="1.0"/>
    <path d="M 507.8816223144531 461.6806335449219 C 505.861572265625 469.3526306152344 500.3594055175781 474.8780212402344 491.45989990234375 476.9512023925781 C 483.6194763183594 474.89483642578125 478.10198974609375 469.3819580078125 476.0360412597656 460.54345703125 C 478.09521484375 452.62164306640625 483.65277099609375 447.17974853515625 492.01727294921875 446.6441650390625 C 500.1988525390625 447.2440185546875 505.6394958496094 452.8465881347656 507.8816223144531 461.6806335449219" stroke-width="0.0" fill="rgb(77, 2, 7)" opacity="0.9900446"/>
    <path d="M 502.9093322753906 168.26023864746094 C 500.6319580078125 177.1012420654297 495.1102600097656 182.65213012695312 487.44000244140625 184.68270874023438 C 479.3348693847656 182.14987182617188 473.5028076171875 176.80239868164062 471.09417724609375 168.3292236328125 C 473.1475830078125 160.654052734375 478.64239501953125 155.1199951171875 486.4995422363281 153.0644989013672 C 495.34490966796875 155.14456176757812 500.8726501464844 160.64773559570312 502.9093322753906 168.26023864746094" stroke-width="0.0" fill="rgb(199, 51, 38)" opacity="1.0"/>
    <path d="M 439.3887023925781 108.17901611328125 C 437.5877380371094 116.1536865234375 432.2262268066406 121.79507446289062 424.70751953125 123.86097717285156 C 416.7161865234375 120.87093353271484 411.246337890625 115.25591278076172 408.4678039550781 107.54733276367188 C 410.4266662597656 100.0147705078125 416.09716796875 94.68060302734375 423.9377136230469 92.87456512451172 C 431.7195129394531 94.82998657226562 437.3080139160156 100.23798370361328 439.3887023925781 108.17901611328125" stroke-width="0.0" fill="rgb(192, 167, 124)" opacity="1.0"/>
    <path d="M 339.0831604003906 479.7017517089844 C 338.2852478027344 486.7849426269531 332.74664306640625 492.1647033691406 324.1529846191406 494.9166564941406 C 316.62066650390625 492.8949279785156 311.1168212890625 487.37432861328125 309.065185546875 479.4314270019531 C 311.1422424316406 470.6708984375 316.70025634765625 465.2286071777344 325.135498046875 463.2259521484375 C 332.01043701171875 465.79986572265625 337.1963806152344 472.1824951171875 339.0831604003906 479.7017517089844" stroke-width="0.0" fill="rgb(75, 9, 10)" opacity="0.9900187"/>
    <path d="M 329.0000305175781 299.0000915527344 C 326.99072265625 306.5003967285156 321.4888610839844 311.94903564453125 313.8405456542969 313.42816162109375 C 306.2091979980469 312.26385498046875 300.5730895996094 306.84503173828125 298.96112060546875 299.1654968261719 C 300.6061096191406 291.23553466796875 306.3363342285156 285.90863037109375 313.97796630859375 283.986083984375 C 321.5 286.0096130371094 326.9903869628906 291.5 329.0000305175781 299.0000915527344" stroke-width="0.0" fill="rgb(248, 248, 221)" opacity="1.0"/>
    <path d="M 371.6898193359375 173.27783203125 C 369.5115966796875 180.8806915283203 363.7556457519531 186.13027954101562 355.7903747558594 188.4676971435547 C 348.5831298828125 186.08946228027344 343.19598388671875 180.3427734375 341.0338134765625 172.86627197265625 C 342.8498229980469 165.3448486328125 348.3480224609375 159.86032104492188 355.94268798828125 157.9474334716797 C 363.4927978515625 160.0193328857422 369.1272888183594 165.462646484375 371.6898193359375 173.27783203125" stroke-width="0.0" fill="rgb(229, 223, 174)" opacity="0.9904533"/>
    <path d="M 263.50653076171875 202.61184692382812 C 261.01885986328125 210.5710906982422 255.7130584716797 216.41001892089844 247.59603881835938 218.8560333251953 C 239.88967895507812 216.6841278076172 234.36280822753906 211.0904998779297 232.1575927734375 202.58729553222656 C 234.2679901123047 194.80718994140625 239.80873107910156 189.2744598388672 247.7862548828125 187.2432098388672 C 256.0379638671875 189.41578674316406 261.5652160644531 194.968017578125 263.50653076171875 202.61184692382812" stroke-width="0.0" fill="rgb(203, 192, 147)" opacity="1.0"/>
    <path d="M 449.234130859375 187.88172912597656 C 447.3605041503906 195.96884155273438 442.09686279296875 201.71717834472656 433.57952880859375 203.90528869628906 C 425.6875 201.83396911621094 420.1878967285156 196.3043670654297 418.13409423828125 188.02992248535156 C 420.23431396484375 179.7552947998047 425.7433776855469 174.20680236816406 434.3975524902344 172.09664916992188 C 442.2084655761719 174.2068328857422 447.51385498046875 179.88949584960938 449.234130859375 187.88172912597656" stroke-width="0.0" fill="rgb(213, 188, 147)" opacity="1.0"/>
    <path d="M 375.8548278808594 156.41517639160156 C 373.4462890625 164.75587463378906 367.5942687988281 169.99095153808594 359.950439453125 172.22695922851562 C 352.54693603515625 169.99180603027344 347.0955810546875 164.42877197265625 344.1573791503906 156.257080078125 C 346.1963195800781 148.75457763671875 351.7930603027344 143.2886962890625 360.253662109375 141.1807403564453 C 368.275634765625 143.21249389648438 373.80224609375 148.71873474121094 375.8548278808594 156.41517639160156" stroke-width="0.0" fill="rgb(216, 191, 138)" opacity="1.0"/>
    <path d="M 556.1885375976562 429.0885314941406 C 554.3276977539062 435.8659362792969 548.85498046875 441.2984313964844 541.5459594726562 443.2251892089844 C 533.9664916992188 442.3780822753906 528.3599243164062 437.10028076171875 526.1475830078125 428.3499755859375 C 528.1705932617188 420.68475341796875 533.6795654296875 415.1576232910156 541.9429321289062 413.07958984375 C 550.1532592773438 415.2005310058594 554.4678955078125 421.2532043457031 556.1885375976562 429.0885314941406" stroke-width="0.0" fill="rgb(202, 128, 95)" opacity="0.9903825"/>
    <path d="M 452.7471008300781 223.28138732910156 C 450.9952087402344 230.51295471191406 445.55047607421875 236.11984252929688 437.2186279296875 238.8795166015625 C 429.6441650390625 236.873046875 424.1370849609375 231.35142517089844 422.0780334472656 223.63023376464844 C 424.2818298339844 215.0480499267578 430.8856506347656 210.7079620361328 437.6609191894531 208.91806030273438 C 444.7886962890625 210.80023193359375 450.4075927734375 216.13938903808594 452.7471008300781 223.28138732910156" stroke-width="0.0" fill="rgb(65, 142, 23)" opacity="0.9900361"/>
    <path d="M 334.0000915527344 176.999755859375 C 331.9903869628906 184.5 326.5 189.99038696289062 318.3916320800781 192.72140502929688 C 310.7637023925781 190.7539825439453 305.2285461425781 185.24317932128906 303.1112365722656 176.3696746826172 C 305.13348388671875 168.64639282226562 310.6498107910156 163.14199829101562 318.2430114746094 161.1800537109375 C 326.5030212402344 164.01210021972656 331.99212646484375 169.49618530273438 334.0000915527344 176.999755859375" stroke-width="0.0" fill="rgb(121, 106, 73)" opacity="1.0"/>
    <path d="M 138.15457153320312 279.9871520996094 C 136.1237335205078 287.5897216796875 130.63966369628906 293.2665710449219 122.82440185546875 295.6989440917969 C 114.94790649414062 293.5230712890625 109.25694274902344 288.1419677734375 107.21395111083984 280.65557861328125 C 110.0089340209961 272.49798583984375 115.48912048339844 266.9774169921875 123.35618591308594 264.4162902832031 C 130.92137145996094 266.4802551269531 136.256103515625 272.1646423339844 138.15457153320312 279.9871520996094" stroke-width="0.0" fill="rgb(153, 134, 69)" opacity="0.9900388"/>
    <path d="M 558.928466796875 312.7436828613281 C 556.852783203125 321.3382873535156 551.3410034179688 326.85888671875 543.368896484375 328.9068298339844 C 534.6683349609375 326.84625244140625 529.1611328125 321.32867431640625 527.1367797851562 313.415771484375 C 529.2205200195312 304.7460632324219 534.7212524414062 299.1673889160156 542.4359741210938 297.0682067871094 C 551.3193359375 299.1668395996094 556.8499755859375 304.6739501953125 558.928466796875 312.7436828613281" stroke-width="0.0" fill="rgb(163, 24, 29)" opacity="0.99025095"/>
    <path d="M 248.88211059570312 136.77622985839844 C 246.6575469970703 145.00230407714844 240.86502075195312 150.3229217529297 233.14727783203125 152.49017333984375 C 225.4355010986328 150.1251983642578 219.99728393554688 144.52720642089844 217.99197387695312 136.99166870117188 C 219.96542358398438 129.4287567138672 225.36294555664062 123.75885772705078 233.64688110351562 121.16729736328125 C 241.19949340820312 123.23763275146484 246.73240661621094 128.81407165527344 248.88211059570312 136.77622985839844" stroke-width="0.0" fill="rgb(203, 183, 128)" opacity="1.0"/>
    <path d="M 291.5909423828125 295.7380676269531 C 289.1726989746094 303.6175537109375 283.57635498046875 309.0364990234375 275.54827880859375 311.5145568847656 C 267.7862243652344 309.6950988769531 262.2152404785156 304.2452697753906 260.3619689941406 296.55255126953125 C 262.6455993652344 288.1315002441406 268.03643798828125 282.4012451171875 275.556640625 280.24066162109375 C 283.92828369140625 282.49395751953125 289.4258728027344 288.1031799316406 291.5909423828125 295.7380676269531" stroke-width="0.0" fill="rgb(236, 213, 182)" opacity="1.0"/>
    <path d="M 230.91912841796875 205.4542236328125 C 228.8518524169922 214.35231018066406 223.3603515625 219.87326049804688 215.7749786376953 221.83970642089844 C 207.5 218.99038696289062 202.00961303710938 213.5 199.80014038085938 205.900146484375 C 201.8901824951172 198.44313049316406 207.4759521484375 192.99876403808594 215.33529663085938 190.7163848876953 C 223.23316955566406 192.34521484375 228.8552703857422 197.6984405517578 230.91912841796875 205.4542236328125" stroke-width="0.0" fill="rgb(117, 27, 15)" opacity="1.0"/>
    <path d="M 120.3692855834961 223.70578002929688 C 118.79644775390625 231.27413940429688 113.28036499023438 236.81307983398438 104.73820495605469 238.92921447753906 C 96.71067810058594 236.81954956054688 91.1992416381836 231.28231811523438 89.2579345703125 223.63992309570312 C 91.61454772949219 214.95542907714844 96.79743194580078 209.18519592285156 104.47808837890625 207.05955505371094 C 113.02143859863281 209.272705078125 117.65522003173828 215.3792724609375 120.3692855834961 223.70578002929688" stroke-width="0.0" fill="rgb(148, 37, 22)" opacity="0.99003536"/>
    <path d="M 505.4550476074219 253.3631591796875 C 503.57379150390625 261.0849304199219 498.11724853515625 266.6667785644531 490.4895935058594 268.481201171875 C 481.9756164550781 266.53131103515625 476.4566650390625 261.0271301269531 474.3388366699219 252.59481811523438 C 476.2203674316406 244.72073364257812 481.7188415527344 239.21434020996094 489.39910888671875 237.34471130371094 C 497.5 240.00961303710938 502.9903869628906 245.5 505.4550476074219 253.3631591796875" stroke-width="0.0" fill="rgb(240, 208, 178)" opacity="1.0"/>
    <path d="M 83.95435333251953 293.84368896484375 C 81.88155364990234 302.3406066894531 76.30744934082031 307.8084411621094 67.22850036621094 309.9400634765625 C 59.608543395996094 307.9020690917969 54.110748291015625 302.38653564453125 52.079769134521484 293.8918762207031 C 54.11194610595703 285.6197509765625 59.61957931518555 280.1108703613281 68.49282836914062 278.0453796386719 C 76.39326477050781 280.09625244140625 81.90023040771484 285.60821533203125 83.95435333251953 293.84368896484375" stroke-width="0.0" fill="rgb(82, 7, 6)" opacity="0.990156"/>
    <path d="M 341.9021301269531 303.74835205078125 C 339.8647766113281 311.34954833984375 334.3511047363281 316.8683166503906 326.7591857910156 318.906005859375 C 318.7843017578125 316.17681884765625 313.6317138671875 310.01763916015625 311.8729553222656 303.0334777832031 C 313.6124267578125 295.9453125 318.8040466308594 290.2120056152344 326.0534973144531 288.02777099609375 C 333.5910339355469 289.9684143066406 339.40185546875 295.27783203125 341.9021301269531 303.74835205078125" stroke-width="0.0" fill="rgb(195, 96, 60)" opacity="0.99007976"/>
    <path d="M 477.9471130371094 301.42266845703125 C 475.8607482910156 310.3347473144531 470.3282470703125 315.84674072265625 461.56011962890625 317.9341735839844 C 453.6375732421875 315.8771057128906 448.12518310546875 310.3612365722656 446.0593566894531 302.5164794921875 C 448.1888427734375 293.7734069824219 453.877685546875 288.4850769042969 462.394287109375 286.4889831542969 C 470.2929992675781 288.2527160644531 475.8797912597656 293.65972900390625 477.9471130371094 301.42266845703125" stroke-width="0.0" fill="rgb(37, 96, 4)" opacity="0.9901291"/>
    <path d="M 423.93060302734375 139.70663452148438 C 421.8706359863281 147.3490447998047 416.34783935546875 152.86781311035156 407.32232666015625 154.95339965820312 C 399.61065673828125 152.90457153320312 394.1138000488281 147.38148498535156 392.04901123046875 138.67044067382812 C 394.11370849609375 130.646484375 399.7037658691406 125.34959411621094 408.24853515625 124.92449951171875 C 416.21697998046875 125.37194061279297 421.7764892578125 130.7459716796875 423.93060302734375 139.70663452148438" stroke-width="0.0" fill="rgb(77, 13, 11)" opacity="0.9900691"/>
    <path d="M 347.7586364746094 170.9317169189453 C 345.92974853515625 178.4839630126953 340.5087585449219 184.01158142089844 333.0550842285156 185.9668731689453 C 325.7009582519531 183.8351287841797 320.4311218261719 178.2103271484375 318.7385559082031 170.64646911621094 C 319.72894287109375 163.11451721191406 325.0014953613281 157.3838348388672 333.319091796875 155.14796447753906 C 341.02276611328125 157.32144165039062 346.203125 163.14950561523438 347.7586364746094 170.9317169189453" stroke-width="0.0" fill="rgb(208, 193, 159)" opacity="0.99027973"/>
    <path d="M 264.1090087890625 157.84231567382812 C 262.0044860839844 165.533935546875 256.59136962890625 171.187255859375 249.1315460205078 173.41038513183594 C 241.67071533203125 170.96035766601562 236.3879852294922 165.227294921875 234.45127868652344 157.8541717529297 C 236.16253662109375 150.44955444335938 241.19125366210938 144.46234130859375 249.64942932128906 142.08718872070312 C 257.2209167480469 144.18563842773438 262.4625244140625 149.9029083251953 264.1090087890625 157.84231567382812" stroke-width="0.0" fill="rgb(182, 176, 116)" opacity="0.990334"/>
    <path d="M 204.7807159423828 418.6573181152344 C 202.71316528320312 427.23486328125 197.2712860107422 432.8130187988281 189.69699096679688 434.7814025878906 C 181.7115478515625 431.85870361328125 176.4967803955078 426.16680908203125 174.81495666503906 419.0191345214844 C 176.2224884033203 411.0250549316406 180.80831909179688 405.1964111328125 189.40431213378906 403.06103515625 C 197.32472229003906 405.1429443359375 202.79200744628906 410.6999206542969 204.7807159423828 418.6573181152344" stroke-width="0.0" fill="rgb(151, 116, 74)" opacity="1.0"/>
    <path d="M 250.68702697753906 541.3600463867188 C 247.98898315429688 549.49560546875 242.4673309326172 554.8922119140625 234.69639587402344 556.2828979492188 C 226.82659912109375 555.6416015625 221.2400360107422 550.2127075195312 219.22149658203125 542.5475463867188 C 221.27598571777344 533.7383422851562 226.71324157714844 528.1937255859375 235.6513671875 526.0943603515625 C 243.334228515625 528.1427612304688 248.8153533935547 533.6810913085938 250.68702697753906 541.3600463867188" stroke-width="0.0" fill="rgb(160, 96, 59)" opacity="0.9906378"/>
    <path d="M 281.8659973144531 214.21530151367188 C 279.0997314453125 222.675048828125 273.8945007324219 228.61790466308594 265.2541198730469 230.93829345703125 C 257.62359619140625 228.8846435546875 252.1079559326172 223.37965393066406 250.14634704589844 215.84275817871094 C 253.60667419433594 208.05555725097656 259.06732177734375 202.6380615234375 266.823974609375 199.18775939941406 C 274.3719482421875 201.1213836669922 279.8765563964844 206.62879943847656 281.8659973144531 214.21530151367188" stroke-width="0.0" fill="rgb(109, 113, 64)" opacity="1.0"/>
    <path d="M 360.34625244140625 92.28311920166016 C 358.61163330078125 100.15889739990234 353.2044677734375 105.75070190429688 345.4764404296875 107.79019165039062 C 337.0424499511719 105.52660369873047 331.6263732910156 99.90750122070312 329.4428405761719 91.76878356933594 C 331.5028991699219 84.02975463867188 336.996337890625 78.41543579101562 345.1439514160156 76.22245788574219 C 353.021728515625 78.36686706542969 358.2975158691406 84.0908432006836 360.34625244140625 92.28311920166016" stroke-width="0.0" fill="rgb(219, 204, 151)" opacity="1.0"/>
    <path d="M 353.9243469238281 283.5799865722656 C 351.8405456542969 292.3190612792969 346.3185729980469 297.8392028808594 338.7719421386719 299.7716064453125 C 330.8344421386719 296.53900146484375 325.20208740234375 291.25048828125 322.9690856933594 283.8465576171875 C 324.6590576171875 276.0406799316406 329.9186096191406 270.30487060546875 338.55560302734375 268.11083984375 C 346.3390808105469 270.1578674316406 351.8672180175781 275.651123046875 353.9243469238281 283.5799865722656" stroke-width="0.0" fill="rgb(165, 151, 119)" opacity="1.0"/>
    <path d="M 347.81201171875 193.75152587890625 C 345.8173828125 201.2799072265625 340.2713317871094 206.798828125 332.64825439453125 208.8206329345703 C 323.9621887207031 206.56861877441406 318.41705322265625 201.04298400878906 316.4888916015625 193.45095825195312 C 319.223876953125 185.68817138671875 324.6706848144531 180.16763305664062 331.9510803222656 178.2273712158203 C 339.2578430175781 180.25038146972656 344.6501770019531 185.7733154296875 347.81201171875 193.75152587890625" stroke-width="0.0" fill="rgb(195, 171, 141)" opacity="1.0"/>
    <path d="M 515.2390747070312 240.02685546875 C 513.3953857421875 247.00306701660156 508.14593505859375 253.0341339111328 500.4642333984375 255.85450744628906 C 492.9127502441406 253.6802215576172 487.335205078125 248.07992553710938 485.1054992675781 239.61630249023438 C 487.27984619140625 232.05552673339844 493.9090881347656 227.71566772460938 500.7486572265625 225.90501403808594 C 507.7499084472656 227.80563354492188 513.2808837890625 233.2206268310547 515.2390747070312 240.02685546875" stroke-width="0.0" fill="rgb(140, 94, 58)" opacity="0.99002683"/>
    <path d="M 468.17205810546875 232.2484893798828 C 466.2164001464844 239.8285675048828 460.9783020019531 245.8829345703125 453.9165954589844 248.78701782226562 C 445.8692626953125 246.6155548095703 440.2802429199219 241.16867065429688 438.3597717285156 233.5513153076172 C 441.0126647949219 225.50363159179688 446.5043640136719 220.01519775390625 454.00665283203125 218.00160217285156 C 461.5886535644531 219.9722442626953 467.40374755859375 225.27772521972656 468.17205810546875 232.2484893798828" stroke-width="0.0" fill="rgb(60, 133, 20)" opacity="0.9900312"/>
    <path d="M 286.9339599609375 154.32798767089844 C 284.7361755371094 163.10955810546875 278.95977783203125 168.3157501220703 271.0806579589844 170.04205322265625 C 263.47650146484375 168.00242614746094 257.8974609375 162.55349731445312 255.1984405517578 154.3221893310547 C 257.20770263671875 146.76002502441406 262.8180847167969 141.38516235351562 271.221923828125 139.4954071044922 C 279.26617431640625 141.28778076171875 284.8642272949219 146.68064880371094 286.9339599609375 154.32798767089844" stroke-width="0.0" fill="rgb(26, 65, 5)" opacity="0.9903292"/>
    <path d="M 267.598876953125 390.4896240234375 C 265.3603210449219 398.83984375 259.848876953125 404.38848876953125 251.8134307861328 406.6275634765625 C 244.0659637451172 404.468505859375 238.50318908691406 398.9451599121094 236.47467041015625 391.2042236328125 C 238.6470947265625 383.119384765625 244.06605529785156 377.48883056640625 252.65298461914062 375.18072509765625 C 260.2534484863281 377.21136474609375 265.7433776855469 382.76348876953125 267.598876953125 390.4896240234375" stroke-width="0.0" fill="rgb(214, 211, 173)" opacity="1.0"/>
    <path d="M 579.926513671875 272.55804443359375 C 577.8724975585938 280.3623962402344 572.3648681640625 285.878173828125 564.845703125 287.6397705078125 C 556.8966064453125 284.39532470703125 551.1257934570312 279.2840576171875 548.8689575195312 271.7982177734375 C 550.4996337890625 263.8771057128906 555.7573852539062 258.16815185546875 563.5802001953125 256.05535888671875 C 572.2706909179688 258.18572998046875 577.8073120117188 263.7322692871094 579.926513671875 272.55804443359375" stroke-width="0.0" fill="rgb(67, 34, 38)" opacity="0.99005365"/>
    <path d="M 426.5654296875 545.6441040039062 C 424.607177734375 553.1027221679688 419.060302734375 558.4776611328125 411.9686279296875 560.4114990234375 C 405.0058898925781 558.44091796875 399.482666015625 553.0179443359375 396.4057312011719 545.4248657226562 C 398.28790283203125 537.788330078125 403.76641845703125 532.2277221679688 412.06805419921875 530.1373291015625 C 420.1935119628906 532.2239990234375 425.48199462890625 537.9038696289062 426.5654296875 545.6441040039062" stroke-width="0.0" fill="rgb(235, 205, 146)" opacity="0.9901317"/>
    <path d="M 320.7304992675781 80.63256072998047 C 318.8000183105469 88.31348419189453 313.34637451171875 93.88176727294922 305.0937194824219 95.95368957519531 C 296.6204528808594 93.8940658569336 291.11932373046875 88.37389373779297 289.0915832519531 80.76986694335938 C 291.6352233886719 72.3224868774414 297.4481506347656 66.98993682861328 304.9998474121094 64.99868774414062 C 312.53759765625 66.99443817138672 318.2085876464844 72.39778900146484 320.7304992675781 80.63256072998047" stroke-width="0.0" fill="rgb(67, 22, 21)" opacity="0.9901604"/>
    <path d="M 464.8856506347656 158.1261749267578 C 462.9903869628906 165.5 457.5 170.99038696289062 449.2771911621094 173.79762268066406 C 441.6629638671875 171.84481811523438 436.1417236328125 166.34228515625 434.0796203613281 157.74301147460938 C 436.1449890136719 149.6625518798828 441.6614685058594 144.14190673828125 449.2006530761719 142.1166229248047 C 457.1110534667969 145.4260711669922 462.6629943847656 150.8614044189453 464.8856506347656 158.1261749267578" stroke-width="0.0" fill="rgb(124, 199, 100)" opacity="1.0"/>
    <path d="M 218.94837951660156 473.2242736816406 C 216.87486267089844 481.34271240234375 211.32550048828125 486.8361511230469 203.2127227783203 488.9090270996094 C 194.69607543945312 486.8150634765625 189.16268920898438 481.3129577636719 187.1494903564453 473.69805908203125 C 189.50624084472656 464.9524230957031 194.8458709716797 459.2402038574219 203.6302032470703 457.10260009765625 C 211.3699951171875 459.1233825683594 216.8885955810547 464.6250915527344 218.94837951660156 473.2242736816406" stroke-width="0.0" fill="rgb(117, 36, 27)" opacity="0.9900916"/>
    <path d="M 487.09893798828125 489.0931091308594 C 485.07586669921875 496.6055603027344 479.6079406738281 502.08154296875 472.12738037109375 504.0845947265625 C 464.7240295410156 503.8033447265625 459.3087158203125 498.2409973144531 457.6358947753906 490.4001770019531 C 460.009521484375 482.4996643066406 465.4952087402344 476.9932556152344 473.79693603515625 474.1082458496094 C 481.349365234375 476.1352233886719 486.86895751953125 481.6487121582031 487.09893798828125 489.0931091308594" stroke-width="0.0" fill="rgb(103, 3, 2)" opacity="0.99003"/>
    <path d="M 475.1705322265625 198.8214569091797 C 474.5754699707031 205.8733673095703 468.676513671875 211.05776977539062 461.0050354003906 212.97308349609375 C 453.39483642578125 211.02853393554688 447.7510986328125 205.6736297607422 445.7978820800781 198.1461181640625 C 448.0096130371094 190.5 453.5 185.00961303710938 460.3908996582031 183.657470703125 C 467.69891357421875 185.81568908691406 473.1370849609375 191.3181915283203 475.1705322265625 198.8214569091797" stroke-width="0.0" fill="rgb(251, 236, 200)" opacity="0.99011624"/>
    <path d="M 462.9403991699219 110.9460678100586 C 460.8678894042969 119.3455810546875 455.3367004394531 124.84590911865234 446.7397766113281 126.92009735107422 C 438.6646728515625 124.85200500488281 433.1697998046875 119.32771301269531 431.78564453125 111.71257781982422 C 434.2242431640625 103.12145233154297 438.8617248535156 97.22103118896484 447.6853942871094 95.05524444580078 C 455.3758544921875 97.10836791992188 460.8802185058594 102.62901306152344 462.9403991699219 110.9460678100586" stroke-width="0.0" fill="rgb(188, 53, 46)" opacity="1.0"/>
    <path d="M 166.89576721191406 226.3390350341797 C 164.57797241210938 234.93936157226562 158.8799285888672 240.44100952148438 150.26756286621094 242.8876190185547 C 142.67129516601562 240.8478546142578 137.14588928222656 235.33135986328125 135.09393310546875 227.65460205078125 C 137.2223663330078 218.7316436767578 142.71519470214844 213.1807861328125 151.42794799804688 211.0791015625 C 159.3308868408203 213.1439666748047 164.850341796875 218.6715850830078 166.89576721191406 226.3390350341797" stroke-width="0.0" fill="rgb(181, 166, 127)" opacity="1.0"/>
    <path d="M 366.5369873046875 377.7993469238281 C 364.9736633300781 385.49505615234375 359.4996337890625 390.9902648925781 351.8962097167969 393.103271484375 C 344.2143859863281 391.2566833496094 338.7159118652344 385.7958679199219 337.88916015625 378.5165710449219 C 339.6134033203125 370.914306640625 344.7342224121094 365.13787841796875 352.53369140625 363.73931884765625 C 359.9930114746094 364.4686584472656 365.5140686035156 370.0132141113281 366.5369873046875 377.7993469238281" stroke-width="0.0" fill="rgb(251, 240, 219)" opacity="1.0"/>
    <path d="M 614.0 247.0 C 611.9903564453125 254.49990844726562 606.4990844726562 259.98736572265625 598.9087524414062 262.1380615234375 C 591.4637451171875 260.076904296875 585.9754638671875 254.521240234375 583.5460815429688 246.87484741210938 C 585.9072265625 239.5322723388672 591.587158203125 234.1051025390625 599.027099609375 231.99600219726562 C 606.5001220703125 234.00929260253906 611.9903564453125 239.49998474121094 614.0 247.0" stroke-width="0.0" fill="rgb(252, 252, 249)" opacity="0.9916005"/>
    <path d="M 139.05984497070312 196.9025115966797 C 136.9993438720703 204.53244018554688 131.58714294433594 210.17417907714844 123.50096893310547 212.6798095703125 C 115.71078491210938 210.76296997070312 110.13735961914062 205.3258514404297 108.07817077636719 197.24990844726562 C 110.12715911865234 188.63565063476562 115.63343811035156 183.12158203125 123.3329086303711 181.08473205566406 C 132.12429809570312 183.25303649902344 137.33718872070312 189.02252197265625 139.05984497070312 196.9025115966797" stroke-width="0.0" fill="rgb(196, 179, 151)" opacity="1.0"/>
    <path d="M 329.5089111328125 427.91510009765625 C 327.297119140625 435.7583312988281 321.7522277832031 441.2751159667969 313.6210632324219 443.6037902832031 C 306.0946044921875 441.51092529296875 300.818359375 435.8042297363281 298.4206237792969 427.4618835449219 C 300.3666076660156 419.93084716796875 305.9593505859375 414.442138671875 313.7395935058594 412.40753173828125 C 321.73748779296875 414.76873779296875 327.3439025878906 420.2242126464844 329.5089111328125 427.91510009765625" stroke-width="0.0" fill="rgb(247, 244, 221)" opacity="1.0"/>
    <path d="M 382.0 58.0 C 379.9903564453125 65.49992370605469 374.4981689453125 70.98394775390625 366.1608581542969 73.90583801269531 C 358.6241455078125 71.8908920288086 353.1273498535156 66.36882781982422 351.1798400878906 58.761348724365234 C 354.0096130371094 50.5 359.5 45.009620666503906 367.0 43.0 C 374.5 45.009620666503906 379.9903869628906 50.5 382.0 58.0" stroke-width="0.0" fill="rgb(57, 0, 3)" opacity="1.0"/>
    <path d="M 326.0399169921875 279.9312744140625 C 323.989990234375 287.4982604980469 318.4791564941406 292.9228515625 311.3472595214844 294.2651062011719 C 304.00628662109375 292.4532165527344 298.6129455566406 286.96905517578125 295.1361389160156 279.16021728515625 C 297.1228332519531 271.6470031738281 302.65667724609375 266.1446838378906 310.5935974121094 264.068359375 C 319.1245422363281 266.2331848144531 324.2826843261719 272.0601806640625 326.0399169921875 279.9312744140625" stroke-width="0.0" fill="rgb(189, 115, 77)" opacity="1.0"/>
    <path d="M 404.9050598144531 165.2326202392578 C 402.8003234863281 174.32778930664062 397.356689453125 179.8827362060547 388.95599365234375 181.94236755371094 C 380.6261901855469 179.88446044921875 375.1189270019531 174.3726348876953 373.0996398925781 166.6865692138672 C 375.4022216796875 158.10504150390625 381.1711120605469 152.51296997070312 389.73333740234375 150.10508728027344 C 397.3800964355469 152.11648559570312 402.8925476074219 157.61642456054688 404.9050598144531 165.2326202392578" stroke-width="0.0" fill="rgb(145, 27, 25)" opacity="1.0"/>
    <path d="M 195.85035705566406 440.3248596191406 C 193.55465698242188 447.8563232421875 187.71804809570312 453.2328186035156 180.0530242919922 455.4001159667969 C 172.3773651123047 453.2009582519531 166.9742431640625 447.5676574707031 164.9968719482422 440.0054931640625 C 167.00440979003906 432.4864196777344 172.45555114746094 426.9009704589844 179.90960693359375 424.98687744140625 C 187.86300659179688 426.74151611328125 193.641845703125 431.9993591308594 195.85035705566406 440.3248596191406" stroke-width="0.0" fill="rgb(220, 200, 167)" opacity="1.0"/>
    <path d="M 225.65658569335938 192.48818969726562 C 223.31246948242188 199.85693359375 217.8543701171875 205.30252075195312 210.44419860839844 207.3460693359375 C 203.03488159179688 206.3460235595703 197.2823944091797 201.0971221923828 195.15155029296875 193.62522888183594 C 197.61488342285156 185.29290771484375 203.42352294921875 179.98626708984375 210.99960327148438 178.00437927246094 C 218.4949493408203 180.01463317871094 224.09844970703125 185.4718017578125 225.65658569335938 192.48818969726562" stroke-width="0.0" fill="rgb(220, 201, 154)" opacity="0.9901235"/>
    <path d="M 383.9413757324219 58.7803955078125 C 381.9056396484375 66.39683532714844 376.389404296875 71.88562774658203 368.7759704589844 73.79463195800781 C 360.50433349609375 70.97279357910156 355.00799560546875 65.5009536743164 352.99884033203125 58.000789642333984 C 355.0096130371094 50.5 360.5 45.009620666503906 368.09002685546875 42.90941619873047 C 375.8652038574219 44.736724853515625 381.6886901855469 49.96953582763672 383.9413757324219 58.7803955078125" stroke-width="0.0" fill="rgb(62, 5, 6)" opacity="1.0"/>
    <path d="M 440.9493103027344 88.23188781738281 C 438.8036804199219 97.19340515136719 432.9947814941406 101.94413757324219 424.6480407714844 103.26554107666016 C 417.20306396484375 102.34508514404297 411.69873046875 96.7751693725586 409.2099914550781 88.33075714111328 C 411.1440734863281 80.6391372680664 416.62945556640625 75.11705017089844 425.37017822265625 73.05131530761719 C 433.3846435546875 75.1060562133789 438.9022521972656 80.61180114746094 440.9493103027344 88.23188781738281" stroke-width="0.0" fill="rgb(165, 17, 8)" opacity="0.9900777"/>
    <path d="M 168.46514892578125 415.83935546875 C 166.63995361328125 424.0408630371094 160.99423217773438 429.537841796875 152.3085174560547 431.9046936035156 C 144.73167419433594 429.8117980957031 139.184814453125 424.27020263671875 137.04855346679688 415.2553405761719 C 139.0946807861328 407.61370849609375 144.6289825439453 402.1328125 152.27833557128906 400.1933288574219 C 161.10816955566406 402.47845458984375 166.71920776367188 407.8309631347656 168.46514892578125 415.83935546875" stroke-width="0.0" fill="rgb(83, 35, 12)" opacity="0.9900895"/>
    <path d="M 201.9437255859375 511.2369079589844 C 199.71572875976562 520.084716796875 193.976806640625 525.444580078125 186.8260040283203 526.0634155273438 C 179.37635803222656 524.0916137695312 173.90484619140625 518.6251220703125 171.72640991210938 511.0970764160156 C 172.09828186035156 503.5987548828125 177.59408569335938 498.0863952636719 185.23037719726562 496.0556640625 C 194.35977172851562 498.1412048339844 199.89491271972656 503.6254577636719 201.9437255859375 511.2369079589844" stroke-width="0.0" fill="rgb(77, 35, 13)" opacity="0.9900226"/>
    <path d="M 309.9215393066406 64.10529327392578 C 307.98944091796875 71.4986801147461 302.4988708496094 76.99026489257812 294.2196960449219 79.8292236328125 C 286.6156005859375 77.88648986816406 281.1007385253906 72.38909149169922 279.0537109375 64.74520874023438 C 281.3182373046875 56.6657600402832 288.1620178222656 51.80280685424805 295.4405822753906 49.91158676147461 C 301.9607238769531 51.67729949951172 307.6595153808594 56.92239761352539 309.9215393066406 64.10529327392578" stroke-width="0.0" fill="rgb(65, 6, 8)" opacity="0.9900399"/>
    <path d="M 255.90118408203125 316.7918701171875 C 253.86973571777344 324.352783203125 248.3407440185547 329.8365783691406 240.54299926757812 331.8713684082031 C 233.16177368164062 328.6219787597656 227.8450469970703 322.73529052734375 225.9390106201172 315.635498046875 C 227.81881713867188 309.2586669921875 233.25885009765625 303.8197937011719 239.503173828125 301.9414367675781 C 246.7051544189453 303.8614807128906 252.31996154785156 309.23760986328125 255.90118408203125 316.7918701171875" stroke-width="0.0" fill="rgb(133, 2, 3)" opacity="0.9900087"/>
    <path d="M 372.945068359375 120.57083892822266 C 370.8702087402344 129.357666015625 365.3627624511719 134.88223266601562 357.76458740234375 136.92117309570312 C 348.83538818359375 134.74549865722656 343.52142333984375 129.07550048828125 341.53277587890625 120.6943130493164 C 343.3333435058594 112.80160522460938 348.7499084472656 107.19184112548828 357.65704345703125 105.05615234375 C 365.3714599609375 107.11365509033203 370.8844909667969 112.62931060791016 372.945068359375 120.57083892822266" stroke-width="0.0" fill="rgb(34, 9, 2)" opacity="0.99003136"/>
    <path d="M 476.131591796875 483.84356689453125 C 474.3123779296875 490.89892578125 468.9301452636719 496.39324951171875 461.177490234375 499.8355407714844 C 453.6736145019531 497.85333251953125 448.1649475097656 492.3186950683594 446.1161193847656 484.5460510253906 C 448.2522277832031 475.77813720703125 453.76812744140625 470.2264404296875 462.1654968261719 468.0989685058594 C 470.1856689453125 470.2156982421875 474.68670654296875 476.0174865722656 476.131591796875 483.84356689453125" stroke-width="0.0" fill="rgb(234, 124, 94)" opacity="0.9901196"/>
    <path d="M 550.0043334960938 216.9928741455078 C 547.9894409179688 224.49722290039062 542.4800415039062 229.9292449951172 534.2603149414062 232.8369140625 C 527.3500366210938 230.7356414794922 522.8466796875 223.81512451171875 520.946044921875 216.6106719970703 C 522.8040771484375 210.01272583007812 526.8894653320312 203.17234802246094 534.1902465820312 201.0816650390625 C 542.5802001953125 203.87686157226562 548.0223999023438 209.45018005371094 550.0043334960938 216.9928741455078" stroke-width="0.0" fill="rgb(140, 22, 22)" opacity="0.9900345"/>
    <path d="M 240.3439483642578 380.7275390625 C 238.3872528076172 387.91363525390625 232.88714599609375 393.3147277832031 225.7700958251953 395.16156005859375 C 217.95082092285156 393.8243713378906 212.15536499023438 389.2483215332031 210.05189514160156 381.3080749511719 C 212.12254333496094 372.6363830566406 217.64231872558594 367.1378479003906 225.63168334960938 365.08770751953125 C 234.05963134765625 367.2507019042969 238.69216918945312 373.313232421875 240.3439483642578 380.7275390625" stroke-width="0.0" fill="rgb(99, 133, 74)" opacity="0.99003786"/>
    <path d="M 463.1562805175781 350.8705139160156 C 462.86395263671875 358.36236572265625 457.3731689453125 363.8906555175781 449.5684814453125 365.9412536621094 C 440.7737731933594 363.8175964355469 435.519287109375 358.1067199707031 433.91729736328125 350.2315673828125 C 436.3352355957031 342.9701232910156 442.1422119140625 337.7939758300781 448.6363830566406 335.9447326660156 C 455.6764221191406 337.8697204589844 461.1379699707031 343.3199462890625 463.1562805175781 350.8705139160156" stroke-width="0.0" fill="rgb(18, 47, 10)" opacity="0.9900186"/>
    <path d="M 354.7149963378906 334.87640380859375 C 352.507080078125 342.9371643066406 346.93499755859375 348.4965515136719 339.3407287597656 350.5006103515625 C 331.5052185058594 348.0522766113281 326.26422119140625 342.38751220703125 323.6336364746094 334.6156005859375 C 325.62274169921875 327.0649719238281 330.92462158203125 321.2834167480469 338.7881164550781 319.13262939453125 C 347.23553466796875 321.23345947265625 352.7021789550781 326.78662109375 354.7149963378906 334.87640380859375" stroke-width="0.0" fill="rgb(238, 229, 195)" opacity="1.0"/>
    <path d="M 377.13763427734375 430.1259460449219 C 375.27569580078125 437.76953125 369.7582702636719 443.2386474609375 362.0479736328125 445.1248474121094 C 354.2455139160156 443.1806945800781 348.6097717285156 437.8201599121094 346.2796630859375 429.5379943847656 C 348.3145446777344 421.8507995605469 353.86053466796875 416.34161376953125 361.525146484375 414.41131591796875 C 369.50006103515625 417.0093688964844 374.9903869628906 422.5 377.13763427734375 430.1259460449219" stroke-width="0.0" fill="rgb(200, 183, 138)" opacity="1.0"/>
    <path d="M 66.73539733886719 250.57354736328125 C 64.34639739990234 258.8451232910156 58.90785217285156 264.5167236328125 51.1609001159668 266.7770080566406 C 43.82847213745117 264.0261535644531 38.595096588134766 258.0260314941406 36.737449645996094 250.78366088867188 C 38.62010192871094 244.08505249023438 44.1011848449707 238.66539001464844 51.60494613647461 236.3338165283203 C 59.061500549316406 237.4122314453125 64.62884521484375 242.9239501953125 66.73539733886719 250.57354736328125" stroke-width="0.0" fill="rgb(217, 178, 131)" opacity="0.99006426"/>
    <path d="M 229.76979064941406 181.50741577148438 C 227.63192749023438 188.9873809814453 221.86001586914062 194.29627990722656 214.12765502929688 196.21702575683594 C 206.46742248535156 194.0400848388672 201.01449584960938 188.5165252685547 198.82220458984375 180.82261657714844 C 201.03909301757812 173.42369079589844 206.28134155273438 167.6224365234375 214.38414001464844 165.23660278320312 C 221.9693603515625 167.41700744628906 227.4007568359375 173.09939575195312 229.76979064941406 181.50741577148438" stroke-width="0.0" fill="rgb(217, 194, 145)" opacity="1.0"/>
    <path d="M 168.80870056152344 379.31854248046875 C 166.07618713378906 387.5323486328125 160.5081024169922 392.9933776855469 152.3896026611328 395.61761474609375 C 144.6573028564453 393.8193359375 139.1090850830078 388.3680114746094 137.04345703125 379.57659912109375 C 139.1094207763672 371.6360778808594 144.6590576171875 366.1673889160156 152.6797332763672 364.1726379394531 C 161.28607177734375 366.2073059082031 166.8165283203125 371.7050476074219 168.80870056152344 379.31854248046875" stroke-width="0.0" fill="rgb(49, 115, 33)" opacity="1.0"/>
    <path d="M 194.8155517578125 345.76043701171875 C 192.6575469970703 354.1062316894531 187.10118103027344 359.6482238769531 178.83448791503906 361.84295654296875 C 170.86851501464844 359.6875915527344 165.3529052734375 354.1159973144531 163.2308349609375 345.6159362792969 C 165.27658081054688 337.7981872558594 170.77713012695312 332.2273254394531 178.43185424804688 330.3421325683594 C 187.1298828125 332.36407470703125 192.70755004882812 337.8440246582031 194.8155517578125 345.76043701171875" stroke-width="0.0" fill="rgb(209, 204, 179)" opacity="1.0"/>
    <path d="M 358.44122314453125 220.48931884765625 C 357.5923767089844 228.18003845214844 352.2641906738281 233.8325653076172 344.71722412109375 235.9122772216797 C 336.4716796875 233.28749084472656 330.8848876953125 227.4573974609375 328.25396728515625 219.36941528320312 C 330.17340087890625 211.66563415527344 335.6510009765625 206.1325225830078 343.2897644042969 204.09356689453125 C 351.8899230957031 206.3894500732422 356.6014099121094 212.51763916015625 358.44122314453125 220.48931884765625" stroke-width="0.0" fill="rgb(159, 164, 117)" opacity="0.99008447"/>
    <path d="M 163.95309448242188 272.3899841308594 C 161.88961791992188 280.3683166503906 156.3607177734375 285.8724365234375 148.71604919433594 287.9210510253906 C 140.07382202148438 285.6321716308594 135.19146728515625 279.63885498046875 132.4823760986328 271.39984130859375 C 134.24203491210938 263.7304382324219 139.69642639160156 258.15435791015625 148.59027099609375 256.0556945800781 C 156.3806915283203 258.1051940917969 161.88694763183594 263.622802734375 163.95309448242188 272.3899841308594" stroke-width="0.0" fill="rgb(120, 103, 66)" opacity="1.0"/>
    <path d="M 155.9563751220703 196.30856323242188 C 153.9013671875 204.39039611816406 148.38711547851562 209.89317321777344 140.86358642578125 211.8374481201172 C 133.243408203125 208.20533752441406 127.75066375732422 202.77313232421875 125.87837219238281 195.88673400878906 C 127.57087707519531 188.24069213867188 131.8387451171875 182.20155334472656 140.73907470703125 180.06016540527344 C 148.39437866210938 182.09518432617188 153.90032958984375 187.60757446289062 155.9563751220703 196.30856323242188" stroke-width="0.0" fill="rgb(74, 56, 29)" opacity="0.99009144"/>
    <path d="M 175.91693115234375 394.7308044433594 C 173.88070678710938 402.36920166015625 168.3665771484375 407.8734436035156 160.74688720703125 409.83282470703125 C 151.81103515625 407.58026123046875 146.14892578125 402.282470703125 144.08387756347656 394.7653503417969 C 146.64987182617188 386.34539794921875 152.48495483398438 381.0462646484375 160.3031005859375 378.7469787597656 C 168.07737731933594 380.4548034667969 173.6988983154297 385.8696594238281 175.91693115234375 394.7308044433594" stroke-width="0.0" fill="rgb(47, 109, 28)" opacity="0.9904347"/>
    <path d="M 518.3789672851562 349.5316162109375 C 517.3602905273438 357.7493591308594 511.6537170410156 363.0709228515625 504.0174865722656 365.2844543457031 C 496.2604675292969 363.2108459472656 490.7989196777344 357.73681640625 488.9847717285156 349.99884033203125 C 490.8485107421875 342.334716796875 496.3199462890625 336.79241943359375 504.3059997558594 334.8308410644531 C 511.9300231933594 336.57745361328125 517.6145629882812 341.9949951171875 518.3789672851562 349.5316162109375" stroke-width="0.0" fill="rgb(238, 226, 198)" opacity="1.0"/>
    <path d="M 350.1195068359375 124.95539093017578 C 348.39599609375 132.08273315429688 343.2406921386719 137.8299560546875 335.8645935058594 140.06314086914062 C 328.073974609375 138.32530212402344 322.3410949707031 133.0416259765625 320.2110290527344 125.47509002685547 C 322.5467834472656 117.08897399902344 328.0830993652344 111.5310287475586 335.9939880371094 109.32273864746094 C 343.57659912109375 111.60169219970703 348.3934020996094 117.85643005371094 350.1195068359375 124.95539093017578" stroke-width="0.0" fill="rgb(222, 180, 149)" opacity="0.99006766"/>
    <path d="M 389.46600341796875 421.55633544921875 C 386.93951416015625 429.6131896972656 381.81243896484375 435.50592041015625 374.4317321777344 437.6672668457031 C 366.5269470214844 435.01715087890625 361.1041259765625 429.4385070800781 359.2491455078125 421.9188537597656 C 360.7675476074219 414.1383361816406 365.9927673339844 408.3514099121094 374.51953125 406.1531982421875 C 382.2170715332031 408.2275390625 387.6678771972656 413.82135009765625 389.46600341796875 421.55633544921875" stroke-width="0.0" fill="rgb(232, 225, 189)" opacity="1.0"/>
    <path d="M 321.87188720703125 389.49053955078125 C 319.7151184082031 398.1706848144531 314.1520080566406 403.66302490234375 306.4700622558594 405.53240966796875 C 298.3226013183594 403.0898742675781 292.6932067871094 397.7400207519531 290.56146240234375 390.2572326660156 C 293.400390625 382.9263610839844 298.9544372558594 377.4984130859375 306.6617126464844 374.34686279296875 C 314.29595947265625 376.2093200683594 319.8312683105469 381.6894836425781 321.87188720703125 389.49053955078125" stroke-width="0.0" fill="rgb(210, 182, 141)" opacity="0.99051034"/>
    <path d="M 412.749267578125 325.2827453613281 C 410.07861328125 333.8594665527344 405.0901184082031 339.7492980957031 397.5068664550781 341.9230041503906 C 389.96722412109375 339.4357604980469 384.7865295410156 332.82135009765625 382.8253479003906 325.2097473144531 C 383.1562805175781 317.63946533203125 388.6193542480469 312.1001281738281 396.3096008300781 310.0471496582031 C 405.3553771972656 312.1280212402344 410.8487548828125 317.6532287597656 412.749267578125 325.2827453613281" stroke-width="0.0" fill="rgb(175, 49, 35)" opacity="0.9901846"/>
    <path d="M 427.8980712890625 349.1732482910156 C 426.09375 356.62615966796875 420.6468811035156 362.16058349609375 412.935546875 364.13970947265625 C 405.05743408203125 362.3497314453125 399.3230895996094 357.05865478515625 398.80401611328125 349.6905212402344 C 400.32476806640625 341.9021301269531 406.01226806640625 336.63836669921875 412.5074157714844 334.8518371582031 C 419.91265869140625 336.709228515625 425.5829772949219 341.98638916015625 427.8980712890625 349.1732482910156" stroke-width="0.0" fill="rgb(245, 234, 206)" opacity="0.9900981"/>
    <path d="M 350.4022216796875 501.8886413574219 C 349.891845703125 509.38140869140625 344.3821105957031 514.8937377929688 336.54937744140625 516.9483642578125 C 327.6452331542969 514.872314453125 322.12628173828125 509.3553161621094 320.0703430175781 501.5134582519531 C 322.2066955566406 492.81317138671875 327.95465087890625 487.6148681640625 336.2281494140625 485.2509460449219 C 342.7110900878906 488.7261657714844 348.1203918457031 494.3316345214844 350.4022216796875 501.8886413574219" stroke-width="0.0" fill="rgb(55, 6, 6)" opacity="0.99002683"/>
    <path d="M 264.91046142578125 550.263427734375 C 261.6770324707031 557.8900146484375 255.78829956054688 563.2073364257812 248.91224670410156 565.1064453125 C 242.21853637695312 563.2180786132812 236.67759704589844 557.8167724609375 233.92039489746094 550.5720825195312 C 236.01043701171875 543.6469116210938 241.7276611328125 538.3048095703125 249.7732391357422 535.1312255859375 C 257.34149169921875 537.1472778320312 262.86419677734375 542.6536865234375 264.91046142578125 550.263427734375" stroke-width="0.0" fill="rgb(184, 125, 62)" opacity="0.9900641"/>
    <path d="M 530.8716430664062 437.6558532714844 C 528.843994140625 445.3299865722656 523.3343505859375 450.8545227050781 515.4005126953125 452.917724609375 C 506.7143859863281 450.8140869140625 501.1646423339844 445.29541015625 499.06591796875 436.7813415527344 C 501.14239501953125 428.6686096191406 506.68463134765625 423.1838073730469 515.3763427734375 421.1136779785156 C 523.3045654296875 423.1714172363281 528.7666015625 428.716552734375 530.8716430664062 437.6558532714844" stroke-width="0.0" fill="rgb(223, 106, 81)" opacity="1.0"/>
    <path d="M 326.95391845703125 66.13668060302734 C 324.8441162109375 74.27117919921875 319.1712341308594 79.5464096069336 311.1689453125 80.93121337890625 C 303.5948486328125 78.91754913330078 298.16290283203125 73.38134765625 296.3069152832031 66.06151580810547 C 298.308837890625 58.858001708984375 304.0101013183594 53.68933868408203 311.5901184082031 51.908660888671875 C 319.1424865722656 52.66030502319336 324.84765625 57.72835922241211 326.95391845703125 66.13668060302734" stroke-width="0.0" fill="rgb(35, 3, 2)" opacity="0.9900521"/>
    <path d="M 244.65786743164062 284.7277526855469 C 242.38108825683594 292.8599853515625 236.85289001464844 298.3583984375 229.25856018066406 299.8516845703125 C 221.2477569580078 297.99127197265625 215.37924194335938 292.9522399902344 213.17738342285156 284.7359313964844 C 215.2677764892578 276.83203125 220.8580780029297 271.3295593261719 229.0996856689453 269.173095703125 C 237.05682373046875 271.359375 242.55734252929688 276.9759826660156 244.65786743164062 284.7277526855469" stroke-width="0.0" fill="rgb(211, 202, 147)" opacity="1.0"/>
    <path d="M 121.80193328857422 265.2582702636719 C 118.75743865966797 273.3458251953125 113.42189025878906 279.03326416015625 105.20516204833984 281.9060363769531 C 97.66768646240234 279.8640441894531 92.18241882324219 274.3127136230469 90.0614013671875 265.30596923828125 C 92.12057495117188 257.643310546875 97.65482330322266 252.1489715576172 105.29769897460938 250.19891357421875 C 114.19134521484375 252.376220703125 119.81761932373047 257.74176025390625 121.80193328857422 265.2582702636719" stroke-width="0.0" fill="rgb(109, 87, 69)" opacity="1.0"/>
    <path d="M 406.7919921875 224.66796875 C 404.7818298339844 232.23086547851562 399.2099304199219 237.7322998046875 391.39990234375 239.7378387451172 C 382.98583984375 237.5679931640625 377.46661376953125 232.00096130371094 375.3711853027344 224.32273864746094 C 377.8198547363281 216.25390625 383.17401123046875 210.5774688720703 391.0664367675781 208.3548583984375 C 398.9276428222656 210.5447998046875 404.5399475097656 216.0396728515625 406.7919921875 224.66796875" stroke-width="0.0" fill="rgb(228, 217, 180)" opacity="1.0"/>
    <path d="M 352.92919921875 141.35752868652344 C 350.87841796875 149.37161254882812 345.37921142578125 154.8964385986328 337.7024230957031 156.95016479492188 C 328.7440185546875 154.81820678710938 323.3047790527344 149.20640563964844 321.2434997558594 140.47503662109375 C 323.23883056640625 132.86993408203125 329.1476745605469 128.39779663085938 337.55157470703125 126.85265350341797 C 345.1959533691406 127.37727355957031 350.82769775390625 132.73353576660156 352.92919921875 141.35752868652344" stroke-width="0.0" fill="rgb(72, 4, 3)" opacity="0.9900248"/>
    <path d="M 202.24810791015625 317.42364501953125 C 201.64027404785156 325.1914978027344 196.2367706298828 330.7818908691406 187.2989959716797 332.9189758300781 C 179.61534118652344 330.8900146484375 174.1001739501953 325.3887023925781 172.054443359375 317.6408996582031 C 174.17713928222656 308.7731018066406 179.93922424316406 303.83746337890625 187.46954345703125 302.854736328125 C 194.84368896484375 304.7408447265625 200.4339599609375 310.096923828125 202.24810791015625 317.42364501953125" stroke-width="0.0" fill="rgb(106, 67, 38)" opacity="0.99002755"/>
    <path d="M 514.2408447265625 112.1433334350586 C 512.2505493164062 119.81454467773438 506.88861083984375 125.48234558105469 499.700439453125 126.16849517822266 C 491.9358215332031 124.44624328613281 486.56134033203125 119.05535888671875 484.78924560546875 111.59453582763672 C 485.9143981933594 104.46958923339844 491.46051025390625 98.88389587402344 498.8049011230469 96.66252899169922 C 506.36505126953125 99.20301055908203 511.86090087890625 104.61409759521484 514.2408447265625 112.1433334350586" stroke-width="0.0" fill="rgb(248, 246, 234)" opacity="1.0"/>
    <path d="M 440.7040100097656 306.04425048828125 C 438.69854736328125 314.1439514160156 433.1240234375 319.64862060546875 425.4276123046875 321.594970703125 C 417.2012939453125 319.2735595703125 411.6422119140625 313.8254089355469 409.7232666015625 306.1993713378906 C 411.9988098144531 298.4364318847656 417.3499755859375 292.7256164550781 425.1217956542969 290.3190002441406 C 432.861083984375 292.56549072265625 438.5121154785156 298.1071472167969 440.7040100097656 306.04425048828125" stroke-width="0.0" fill="rgb(231, 204, 161)" opacity="1.0"/>
    <path d="M 100.848388671875 214.2025146484375 C 98.27600860595703 222.9880828857422 93.17330169677734 228.7994842529297 85.02932739257812 230.9429168701172 C 76.79566192626953 228.81613159179688 72.478271484375 222.93133544921875 70.93962860107422 215.7550506591797 C 72.88715362548828 208.3363800048828 78.3138198852539 202.8314208984375 85.87013244628906 199.2746124267578 C 93.38526153564453 201.10888671875 98.89124298095703 206.6144561767578 100.848388671875 214.2025146484375" stroke-width="0.0" fill="rgb(130, 8, 10)" opacity="0.9900255"/>
    <path d="M 234.32948303222656 139.259765625 C 232.7410430908203 146.39926147460938 227.5541534423828 152.1927032470703 219.5815887451172 154.66000366210938 C 212.12899780273438 152.45664978027344 206.54647827148438 146.87213134765625 204.44984436035156 138.66685485839844 C 206.44705200195312 130.97958374023438 211.9485321044922 125.36929321289062 219.36451721191406 123.54673767089844 C 226.94650268554688 126.59283447265625 232.4029083251953 132.05496215820312 234.32948303222656 139.259765625" stroke-width="0.0" fill="rgb(245, 241, 201)" opacity="0.9906526"/>
    <path d="M 172.9407958984375 148.6798858642578 C 170.8886260986328 156.37985229492188 165.3831787109375 161.89630126953125 157.784423828125 163.94070434570312 C 148.84561157226562 161.70254516601562 143.18667602539062 156.2165069580078 141.06553649902344 148.49476623535156 C 143.1399383544922 139.6461181640625 148.639892578125 134.12428283691406 156.8899383544922 132.06134033203125 C 165.3076629638672 134.1510772705078 170.80657958984375 139.71189880371094 172.9407958984375 148.6798858642578" stroke-width="0.0" fill="rgb(131, 9, 10)" opacity="0.99025166"/>
    <path d="M 285.95794677734375 134.43035888671875 C 283.8668518066406 143.31260681152344 278.2398376464844 148.65419006347656 269.7470397949219 150.49835205078125 C 261.70928955078125 148.73831176757812 256.12725830078125 143.336181640625 254.0473175048828 134.3172607421875 C 256.09259033203125 126.60377502441406 261.6065979003906 121.09899139404297 270.3976745605469 119.04154968261719 C 278.4015808105469 121.09033966064453 283.9093933105469 126.5985107421875 285.95794677734375 134.43035888671875" stroke-width="0.0" fill="rgb(16, 44, 5)" opacity="0.99011123"/>
    <path d="M 475.7084655761719 282.4112854003906 C 473.5647277832031 289.74127197265625 467.15740966796875 294.38897705078125 459.4822998046875 296.2010192871094 C 452.0123596191406 295.39337158203125 446.397216796875 290.0479736328125 444.17364501953125 281.513916015625 C 446.2506408691406 273.79119873046875 451.8017578125 268.2790832519531 459.4248962402344 266.368408203125 C 467.31817626953125 269.2452697753906 473.08258056640625 274.5930480957031 475.7084655761719 282.4112854003906" stroke-width="0.0" fill="rgb(200, 217, 106)" opacity="0.9900875"/>
    <path d="M 376.7865905761719 50.51507568359375 C 374.3113708496094 57.25952911376953 368.0332336425781 62.397830963134766 360.5869445800781 64.23389434814453 C 352.890625 63.474395751953125 347.263916015625 58.18166732788086 345.2796325683594 50.445945739746094 C 347.60052490234375 42.69666290283203 354.0536193847656 37.740211486816406 360.7723388671875 35.903839111328125 C 367.759765625 37.805259704589844 373.3353271484375 43.19515609741211 376.7865905761719 50.51507568359375" stroke-width="0.0" fill="rgb(204, 124, 43)" opacity="0.99002886"/>
    <path d="M 120.94967651367188 382.6291809082031 C 118.90125274658203 390.3907165527344 113.39049530029297 395.9004821777344 105.758056640625 397.9293212890625 C 96.67109680175781 395.82574462890625 91.12268829345703 390.3494873046875 89.06306457519531 382.6556701660156 C 91.17878723144531 373.7098388671875 96.71249389648438 368.184326171875 105.60443878173828 366.0677185058594 C 113.38335418701172 368.11041259765625 118.892578125 373.6153869628906 120.94967651367188 382.6291809082031" stroke-width="0.0" fill="rgb(95, 8, 8)" opacity="0.9900559"/>
    <path d="M 564.6258544921875 274.74700927734375 C 562.453857421875 281.92034912109375 556.8812866210938 287.328369140625 549.2178955078125 290.6081848144531 C 541.640869140625 288.86346435546875 536.1294555664062 283.36175537109375 534.2298583984375 275.7251281738281 C 536.3793334960938 266.96832275390625 542.0997924804688 261.8702697753906 549.8163452148438 260.5570068359375 C 557.5958251953125 261.90692138671875 563.0254516601562 267.4254455566406 564.6258544921875 274.74700927734375" stroke-width="0.0" fill="rgb(100, 8, 6)" opacity="0.99002486"/>
    <path d="M 291.7677917480469 247.9490203857422 C 289.65850830078125 256.1379699707031 284.1385192871094 261.6611022949219 276.6145935058594 263.1610107421875 C 268.9776306152344 260.43316650390625 263.3114929199219 255.095947265625 260.119873046875 247.2205047607422 C 262.1393127441406 239.6612091064453 267.6795654296875 234.19187927246094 275.32244873046875 233.4608612060547 C 283.20806884765625 235.4985809326172 289.4951171875 240.3629150390625 291.7677917480469 247.9490203857422" stroke-width="0.0" fill="rgb(154, 182, 107)" opacity="0.99045384"/>
    <path d="M 275.9291687011719 457.4191589355469 C 273.7796325683594 466.2095031738281 268.11688232421875 471.4667053222656 259.6266784667969 472.43292236328125 C 252.784423828125 471.2510986328125 247.581298828125 465.0252685546875 244.24441528320312 457.2276611328125 C 246.13673400878906 449.6295471191406 251.61553955078125 444.09979248046875 259.30670166015625 442.0510559082031 C 268.2967224121094 444.1673889160156 273.83905029296875 449.7000732421875 275.9291687011719 457.4191589355469" stroke-width="0.0" fill="rgb(34, 6, 5)" opacity="0.9900244"/>
    <path d="M 375.38519287109375 450.540283203125 C 372.6131286621094 458.1992492675781 367.2095947265625 463.6333312988281 359.68402099609375 465.4706115722656 C 352.5 463.9903869628906 347.0096130371094 458.5 344.9999694824219 450.9999084472656 C 347.0079040527344 443.4949035644531 352.47802734375 437.94940185546875 360.17041015625 435.5185546875 C 367.91497802734375 437.6053466796875 373.51318359375 443.04498291015625 375.38519287109375 450.540283203125" stroke-width="0.0" fill="rgb(184, 174, 120)" opacity="0.9902214"/>
    <path d="M 334.6497802734375 282.2959289550781 C 332.6956481933594 289.1907958984375 327.2515563964844 294.9806823730469 319.7538146972656 297.759521484375 C 312.05181884765625 295.5244140625 306.6694030761719 289.88861083984375 305.8712158203125 282.7348327636719 C 307.8442687988281 275.303466796875 313.29864501953125 269.8315124511719 320.7698059082031 267.70587158203125 C 327.7843322753906 268.4358215332031 332.5509033203125 274.6829528808594 334.6497802734375 282.2959289550781" stroke-width="0.0" fill="rgb(250, 234, 194)" opacity="0.9900396"/>
    <path d="M 313.84918212890625 551.1770629882812 C 310.3001403808594 558.7987670898438 304.7645263671875 564.2020874023438 297.7380065917969 566.1141357421875 C 291.1964111328125 564.2339477539062 285.63092041015625 558.8482666015625 282.1241455078125 551.1748657226562 C 284.11529541015625 543.6229858398438 289.6207580566406 538.1099243164062 297.45892333984375 536.062255859375 C 306.32818603515625 538.1558837890625 311.86407470703125 543.6627807617188 313.84918212890625 551.1770629882812" stroke-width="0.0" fill="rgb(192, 114, 67)" opacity="0.9900804"/>
    <path d="M 495.12213134765625 399.71441650390625 C 494.6070556640625 407.1407775878906 489.17626953125 412.7217712402344 480.3035888671875 414.9259033203125 C 472.6945495605469 412.852294921875 467.2279052734375 407.270751953125 465.33343505859375 399.7530517578125 C 468.46636962890625 391.1609191894531 472.85675048828125 385.22955322265625 480.1543273925781 384.80194091796875 C 487.7023010253906 386.84600830078125 493.1683654785156 392.29168701171875 495.12213134765625 399.71441650390625" stroke-width="0.0" fill="rgb(165, 10, 11)" opacity="0.99001217"/>
    <path d="M 186.76095581054688 437.7515869140625 C 184.21412658691406 445.4194030761719 178.209716796875 450.5359802246094 170.3837432861328 452.508056640625 C 162.72711181640625 451.74237060546875 157.1424102783203 446.3153381347656 155.0846710205078 438.7262878417969 C 157.343994140625 429.88092041015625 162.8575897216797 424.2903137207031 170.3729705810547 422.3199157714844 C 178.77174377441406 424.96722412109375 184.52569580078125 430.0907897949219 186.76095581054688 437.7515869140625" stroke-width="0.0" fill="rgb(171, 154, 108)" opacity="0.9902265"/>
    <path d="M 472.8739929199219 162.7241973876953 C 470.7875061035156 171.27426147460938 465.2781677246094 176.79811096191406 457.4718933105469 178.83937072753906 C 448.8069152832031 176.72821044921875 443.3601989746094 171.1632080078125 441.3385314941406 163.27940368652344 C 443.6946716308594 155.24832153320312 449.2672424316406 149.7568817138672 457.010986328125 148.28062438964844 C 465.1017761230469 149.49566650390625 470.7706298828125 154.80909729003906 472.8739929199219 162.7241973876953" stroke-width="0.0" fill="rgb(115, 159, 66)" opacity="1.0"/>
    <path d="M 86.95018768310547 382.1058044433594 C 84.89566802978516 390.3860778808594 79.3838882446289 395.8897399902344 71.88175201416016 396.31280517578125 C 64.33683013916016 394.1316833496094 58.88106918334961 388.6578674316406 56.92507553100586 381.281982421875 C 58.54791259765625 374.544677734375 62.95736312866211 368.2533874511719 71.62694549560547 366.0654602050781 C 79.37633514404297 368.1152038574219 84.89225769042969 373.62054443359375 86.95018768310547 382.1058044433594" stroke-width="0.0" fill="rgb(131, 65, 18)" opacity="0.99003106"/>
    <path d="M 477.8631286621094 217.64242553710938 C 475.8145751953125 225.28573608398438 470.27642822265625 230.79017639160156 462.61175537109375 232.83013916015625 C 454.7024230957031 229.98101806640625 449.2962341308594 224.2320556640625 446.47845458984375 216.83102416992188 C 448.8910827636719 209.23509216308594 454.1631164550781 203.63082885742188 462.2140197753906 202.5892333984375 C 470.0732421875 203.4310302734375 475.61724853515625 208.912109375 477.8631286621094 217.64242553710938" stroke-width="0.0" fill="rgb(160, 147, 65)" opacity="0.99005365"/>
    <path d="M 557.9483032226562 219.74627685546875 C 555.8909301757812 227.3663330078125 550.3511352539062 232.85498046875 542.7382202148438 234.66690063476562 C 534.6107788085938 232.103271484375 529.3369140625 226.267578125 527.5228881835938 218.84739685058594 C 529.10107421875 211.49929809570312 534.4524536132812 205.94699096679688 542.7114868164062 203.19854736328125 C 550.2479248046875 205.2168426513672 555.801513671875 210.74380493164062 557.9483032226562 219.74627685546875" stroke-width="0.0" fill="rgb(92, 8, 8)" opacity="0.9900629"/>
    <path d="M 219.83750915527344 217.8125 C 217.8946990966797 225.39202880859375 212.39610290527344 230.9052276611328 204.7054901123047 232.947509765625 C 195.6901397705078 230.84368896484375 190.18495178222656 225.29727172851562 188.06224060058594 216.3273468017578 C 190.10940551757812 208.62197875976562 195.62815856933594 203.12557983398438 203.2191162109375 201.18466186523438 C 211.7104949951172 203.82229614257812 216.90927124023438 209.3560333251953 219.83750915527344 217.8125" stroke-width="0.0" fill="rgb(135, 83, 57)" opacity="1.0"/>
    <path d="M 468.9118347167969 190.93992614746094 C 466.6650390625 198.8076629638672 460.2005920410156 203.5106658935547 452.16912841796875 206.9042510986328 C 444.65142822265625 204.87640380859375 439.1761474609375 199.32754516601562 437.2222595214844 191.64328002929688 C 439.3359375 182.79417419433594 444.7418518066406 177.1881866455078 452.3125 175.16819763183594 C 461.1599426269531 177.3594970703125 466.7563171386719 182.7997283935547 468.9118347167969 190.93992614746094" stroke-width="0.0" fill="rgb(176, 63, 29)" opacity="1.0"/>
    <path d="M 370.6302490234375 453.39520263671875 C 368.5267333984375 460.9836730957031 362.971435546875 466.48846435546875 354.9563293457031 468.5943908691406 C 347.1485290527344 466.3636474609375 341.43731689453125 460.93218994140625 340.25201416015625 453.2855224609375 C 341.6709899902344 445.1651306152344 347.1157531738281 439.53533935546875 354.59149169921875 438.0634460449219 C 362.15765380859375 440.3619384765625 367.68060302734375 445.83203125 370.6302490234375 453.39520263671875" stroke-width="0.0" fill="rgb(245, 241, 206)" opacity="0.9901265"/>
    <path d="M 463.28045654296875 443.4364318847656 C 461.3834533691406 451.037841796875 456.54608154296875 457.6072082519531 448.407958984375 459.9283752441406 C 440.6467590332031 457.8663330078125 435.1324157714844 452.3538513183594 433.40106201171875 444.8227844238281 C 436.6493225097656 437.0645751953125 442.0085144042969 431.4709777832031 449.51177978515625 429.18359375 C 457.0929260253906 430.3342590332031 462.4529724121094 435.9781188964844 463.28045654296875 443.4364318847656" stroke-width="0.0" fill="rgb(155, 8, 14)" opacity="0.9900231"/>
    <path d="M 373.9319152832031 389.0461730957031 C 371.8627624511719 397.3427429199219 366.3353576660156 402.8447570800781 358.2320556640625 404.9177551269531 C 349.74993896484375 402.80517578125 344.28558349609375 397.212890625 342.14697265625 388.8586730957031 C 344.2950744628906 380.89349365234375 349.9947204589844 375.59039306640625 358.46539306640625 373.33740234375 C 366.2467041015625 375.281982421875 371.846435546875 380.7041015625 373.9319152832031 389.0461730957031" stroke-width="0.0" fill="rgb(183, 151, 113)" opacity="1.0"/>
    <path d="M 448.3721008300781 348.341552734375 C 446.4963684082031 356.5324401855469 442.0603942871094 362.75885009765625 434.66778564453125 364.9063415527344 C 425.8962097167969 362.61163330078125 420.2719421386719 357.1517333984375 418.15338134765625 349.47430419921875 C 420.58453369140625 341.2945861816406 426.4685363769531 336.0677185058594 433.73028564453125 334.68927001953125 C 442.0167236328125 335.7937927246094 447.6927490234375 340.8727722167969 448.3721008300781 348.341552734375" stroke-width="0.0" fill="rgb(143, 166, 41)" opacity="0.9900706"/>
    <path d="M 281.2194519042969 169.49171447753906 C 279.32745361328125 176.91650390625 273.98199462890625 182.533935546875 266.57354736328125 185.289306640625 C 259.1147155761719 183.4794464111328 253.80398559570312 177.79563903808594 252.4301300048828 170.098388671875 C 253.82493591308594 162.3513946533203 259.4533386230469 157.1739501953125 266.945556640625 155.65646362304688 C 274.4591979980469 157.27000427246094 280.18414306640625 162.37966918945312 281.2194519042969 169.49171447753906" stroke-width="0.0" fill="rgb(149, 121, 31)" opacity="0.99002767"/>
    <path d="M 379.95574951171875 88.76658630371094 C 377.9139404296875 96.404052734375 372.40069580078125 101.90605926513672 364.67333984375 103.94200897216797 C 355.7024841308594 101.84717559814453 350.4353942871094 96.22229766845703 349.6941833496094 87.4459457397461 C 350.3088073730469 79.76750183105469 355.7066955566406 74.14971923828125 363.2549133300781 72.07276153564453 C 371.4772644042969 75.04785919189453 377.7422790527344 80.03131866455078 379.95574951171875 88.76658630371094" stroke-width="0.0" fill="rgb(40, 31, 3)" opacity="0.9900307"/>
  </g>
</svg>
