<?xml version="1.0" ?>
<svg xmlns="http://www.w3.org/2000/svg" version="1.1" width="600" height="600">
  <defs/>
  <g>
    <path d="M 407.57763671875 215.84689331054688 C 405.2830810546875 223.90855407714844 400.0527648925781 229.6867218017578 392.4485778808594 230.64041137695312 C 384.2482604980469 229.32400512695312 378.7544860839844 223.72955322265625 377.8700866699219 216.2572784423828 C 379.367431640625 208.60865783691406 384.373046875 202.7348175048828 391.6342468261719 200.6806182861328 C 399.3123779296875 203.2650146484375 405.03228759765625 208.60894775390625 407.57763671875 215.84689331054688" stroke-width="0.0" fill="rgb(252, 246, 235)" opacity="1.0"/>
    <path d="M 390.0596618652344 446.43682861328125 C 388.1392822265625 453.7071533203125 382.77490234375 459.3769836425781 375.3680114746094 462.8088073730469 C 367.6385498046875 460.84564208984375 362.0960998535156 455.3832702636719 360.03924560546875 447.4595947265625 C 362.1121826171875 438.65093994140625 367.6967468261719 433.2337341308594 376.23809814453125 431.1391296386719 C 383.7970886230469 433.3450927734375 388.28662109375 439.9554138183594 390.0596618652344 446.43682861328125" stroke-width="0.0" fill="rgb(25, 10, 7)" opacity="0.9900131"/>
    <path d="M 401.91094970703125 163.1702423095703 C 399.8151550292969 171.30859375 394.3249816894531 176.8542022705078 386.8597412109375 177.33682250976562 C 379.270263671875 175.158203125 373.5713806152344 169.80401611328125 370.0948486328125 162.22877502441406 C 372.13739013671875 154.66624450683594 377.6851806640625 149.1849822998047 386.02020263671875 147.11758422851562 C 394.2245178222656 149.23606872558594 399.7813415527344 154.76747131347656 401.91094970703125 163.1702423095703" stroke-width="0.0" fill="rgb(178, 32, 20)" opacity="0.990046"/>
    <path d="M 340.919677734375 330.6231384277344 C 338.8875427246094 338.376953125 333.3730773925781 343.8775634765625 325.6710510253906 345.85662841796875 C 316.7098693847656 343.7790832519531 311.1413879394531 338.32122802734375 309.0704040527344 330.6913757324219 C 311.3357849121094 322.013916015625 317.1621398925781 316.6560974121094 325.5775451660156 314.2911682128906 C 333.2456970214844 316.23504638671875 338.8023986816406 321.73883056640625 340.919677734375 330.6231384277344" stroke-width="0.0" fill="rgb(52, 44, 13)" opacity="0.99002165"/>
    <path d="M 457.2106018066406 157.36184692382812 C 455.3072204589844 164.93399047851562 450.0433654785156 170.63467407226562 442.3208312988281 173.82505798339844 C 434.8311767578125 171.75274658203125 429.5613098144531 166.07009887695312 428.7826843261719 158.5738983154297 C 430.7547302246094 151.2003936767578 436.16302490234375 145.6280517578125 443.7581481933594 142.117919921875 C 451.2684326171875 144.1795196533203 456.6619567871094 149.78558349609375 457.2106018066406 157.36184692382812" stroke-width="0.0" fill="rgb(160, 132, 92)" opacity="0.99005336"/>
    <path d="M 453.6431884765625 193.59242248535156 C 451.7823181152344 201.28012084960938 446.2865905761719 206.80177307128906 438.44219970703125 208.8649444580078 C 430.03955078125 206.6256561279297 424.8363952636719 200.79135131835938 422.98175048828125 193.03427124023438 C 425.0096130371094 185.5 430.5 180.00961303710938 438.0 178.0 C 445.5 180.00961303710938 450.9903869628906 185.5 453.6431884765625 193.59242248535156" stroke-width="0.0" fill="rgb(159, 20, 5)" opacity="0.9903307"/>
    <path d="M 265.66259765625 332.4367370605469 C 263.40740966796875 339.9286193847656 257.9591369628906 345.52911376953125 250.32675170898438 348.8382263183594 C 242.70611572265625 346.8081970214844 237.1657257080078 341.3045654296875 235.06488037109375 332.46343994140625 C 237.12661743164062 324.6500549316406 242.66171264648438 319.1546936035156 251.65443420410156 317.06048583984375 C 259.3388977050781 319.1230773925781 264.74395751953125 324.7071838378906 265.66259765625 332.4367370605469" stroke-width="0.0" fill="rgb(194, 72, 61)" opacity="1.0"/>
    <path d="M 417.8198547363281 284.74530029296875 C 415.85595703125 292.3478088378906 410.35064697265625 297.8636474609375 402.7392272949219 299.8970642089844 C 394.3477478027344 297.3224792480469 388.9930419921875 291.5437316894531 386.9991149902344 284.0006408691406 C 388.9995422363281 276.472900390625 394.3960876464844 270.7630920410156 401.66607666015625 268.3208923339844 C 409.5033874511719 270.99786376953125 414.9904479980469 276.49981689453125 417.8198547363281 284.74530029296875" stroke-width="0.0" fill="rgb(80, 129, 17)" opacity="1.0"/>
    <path d="M 601.7819213867188 431.3608093261719 C 599.7511596679688 439.2011413574219 594.1493530273438 444.5918273925781 586.3023681640625 446.27685546875 C 578.4915161132812 443.9927978515625 572.9276123046875 438.53192138671875 571.5078125 431.4162292480469 C 573.502685546875 423.92169189453125 578.8982543945312 418.4343566894531 586.5557861328125 415.5666198730469 C 594.1450805664062 417.329833984375 599.6705322265625 422.85467529296875 601.7819213867188 431.3608093261719" stroke-width="0.0" fill="rgb(204, 145, 91)" opacity="0.9901257"/>
    <path d="M 412.6358947753906 318.6173400878906 C 410.1703796386719 326.59906005859375 404.5547790527344 332.0203552246094 396.92071533203125 333.2439270019531 C 389.355224609375 332.0210266113281 383.5859680175781 326.7690734863281 382.7872619628906 319.5922546386719 C 384.4007873535156 311.73431396484375 389.5285339355469 305.775146484375 397.0832214355469 304.7096862792969 C 404.6484069824219 306.14752197265625 410.5610046386719 311.1171569824219 412.6358947753906 318.6173400878906" stroke-width="0.0" fill="rgb(249, 252, 242)" opacity="1.0"/>
    <path d="M 317.09088134765625 194.28309631347656 C 315.2566833496094 200.8812255859375 310.0874328613281 207.2898712158203 302.43359375 209.87118530273438 C 294.73541259765625 207.7884979248047 289.1759948730469 202.2803955078125 287.0618591308594 193.4245147705078 C 289.1325988769531 185.66891479492188 294.7065734863281 180.23764038085938 303.00726318359375 178.2299041748047 C 310.219482421875 180.54541015625 315.237060546875 187.1045379638672 317.09088134765625 194.28309631347656" stroke-width="0.0" fill="rgb(213, 66, 53)" opacity="0.9900289"/>
    <path d="M 451.0 403.0 C 448.9903869628906 410.5 443.5 415.9903869628906 436.0 418.0 C 428.5 415.9903869628906 423.0096130371094 410.5 420.9553527832031 402.9283752441406 C 422.7279968261719 395.0918273925781 427.9308776855469 389.28900146484375 435.3253173828125 387.1778869628906 C 443.4995422363281 390.01123046875 448.9903869628906 395.5000305175781 451.0 403.0" stroke-width="0.0" fill="rgb(34, 88, 13)" opacity="0.99077946"/>
    <path d="M 420.9066162109375 496.42547607421875 C 418.7232360839844 505.0777587890625 412.89227294921875 510.1846618652344 404.58917236328125 511.51324462890625 C 397.2012939453125 510.4434814453125 391.90185546875 504.680908203125 389.8028564453125 496.8036804199219 C 391.51995849609375 488.9473571777344 396.8630065917969 483.2763671875 405.6697692871094 481.08917236328125 C 413.35711669921875 483.1303405761719 418.8668518066406 488.6440124511719 420.9066162109375 496.42547607421875" stroke-width="0.0" fill="rgb(153, 17, 27)" opacity="0.9900409"/>
    <path d="M 356.9513244628906 441.6584167480469 C 354.8945007324219 449.3805236816406 349.37542724609375 454.88201904296875 340.47265625 456.9430847167969 C 332.6192932128906 454.8929443359375 327.1098327636719 449.3796691894531 325.1105651855469 441.8230285644531 C 328.02734375 433.5015869140625 333.4908447265625 427.98992919921875 341.0470886230469 425.94671630859375 C 348.94769287109375 427.7269287109375 354.7907409667969 432.8513488769531 356.9513244628906 441.6584167480469" stroke-width="0.0" fill="rgb(73, 4, 4)" opacity="0.99012876"/>
    <path d="M 432.62060546875 109.68473052978516 C 430.7905578613281 117.29242706298828 425.3136291503906 122.84551239013672 417.6326599121094 124.89463806152344 C 409.0661926269531 122.6166000366211 403.8415832519531 116.75629425048828 402.2650146484375 109.3373031616211 C 404.5139465332031 101.94762420654297 409.91796875 96.4256362915039 416.61334228515625 94.67839050292969 C 423.947509765625 96.62438201904297 429.4500732421875 102.02691650390625 432.62060546875 109.68473052978516" stroke-width="0.0" fill="rgb(212, 183, 130)" opacity="1.0"/>
    <path d="M 234.93104553222656 334.3481140136719 C 232.8037872314453 343.27520751953125 227.275146484375 348.8031311035156 219.69442749023438 350.80047607421875 C 211.5 347.9903869628906 206.00961303710938 342.5 203.50523376464844 334.49102783203125 C 205.23426818847656 326.69598388671875 210.65664672851562 321.1224060058594 219.22549438476562 319.0477294921875 C 227.36912536621094 321.11334228515625 232.87745666503906 326.63494873046875 234.93104553222656 334.3481140136719" stroke-width="0.0" fill="rgb(127, 17, 7)" opacity="0.99016345"/>
    <path d="M 532.8789672851562 370.732421875 C 530.7799682617188 378.16302490234375 525.0182495117188 383.3882141113281 517.1272583007812 385.093994140625 C 509.4974670410156 382.9912109375 503.96673583984375 377.5144348144531 501.1011657714844 369.2040710449219 C 503.1553955078125 361.69500732421875 508.71533203125 356.20355224609375 516.37255859375 354.1835632324219 C 524.0243530273438 357.3929443359375 529.5404663085938 362.99163818359375 532.8789672851562 370.732421875" stroke-width="0.0" fill="rgb(172, 29, 14)" opacity="0.9900871"/>
    <path d="M 358.8362731933594 132.60498046875 C 356.33001708984375 140.6630096435547 350.5537414550781 146.01202392578125 342.55889892578125 148.4733123779297 C 334.8167724609375 146.6791229248047 329.2817687988281 141.19586181640625 327.1562194824219 133.13490295410156 C 329.4165954589844 125.08038330078125 335.2615051269531 119.98342895507812 342.82171630859375 118.67025756835938 C 350.7650146484375 120.10122680664062 356.62261962890625 125.03065490722656 358.8362731933594 132.60498046875" stroke-width="0.0" fill="rgb(195, 145, 57)" opacity="0.99014264"/>
    <path d="M 470.1934814453125 182.69021606445312 C 468.9903869628906 189.5 463.5 194.99038696289062 456.0063171386719 196.990966796875 C 448.5094299316406 194.97686767578125 443.01434326171875 189.4932098388672 440.7776794433594 181.83970642089844 C 442.74609375 174.3691864013672 448.57965087890625 169.3221893310547 455.6593933105469 167.76065063476562 C 462.78472900390625 169.72308349609375 468.19232177734375 175.24588012695312 470.1934814453125 182.69021606445312" stroke-width="0.0" fill="rgb(177, 85, 62)" opacity="0.990031"/>
    <path d="M 486.93670654296875 277.5316162109375 C 484.86260986328125 285.3326110839844 479.3226318359375 290.8404541015625 471.4980163574219 292.91455078125 C 462.68280029296875 290.8233642578125 457.14581298828125 285.3294677734375 455.06072998046875 276.503662109375 C 457.1335144042969 268.6578674316406 462.669677734375 263.1634216308594 470.3122863769531 261.2921142578125 C 479.13934326171875 263.4299621582031 484.8066711425781 268.77374267578125 486.93670654296875 277.5316162109375" stroke-width="0.0" fill="rgb(171, 64, 42)" opacity="1.0"/>
    <path d="M 392.8711853027344 299.7606506347656 C 390.8486328125 307.32415771484375 385.3193664550781 312.8375549316406 376.91546630859375 314.919189453125 C 368.6709899902344 312.8430480957031 363.1754455566406 307.3229064941406 362.7281188964844 299.6932067871094 C 364.25079345703125 291.55340576171875 369.4625549316406 285.9755554199219 376.9908447265625 283.9944152832031 C 384.50360107421875 286.0084228515625 390.0539245605469 291.4785461425781 392.8711853027344 299.7606506347656" stroke-width="0.0" fill="rgb(77, 133, 36)" opacity="0.9901958"/>
    <path d="M 431.74896240234375 271.0894470214844 C 430.1713562011719 278.84600830078125 425.00732421875 284.6528625488281 417.6353759765625 286.6131896972656 C 409.6181945800781 283.7444763183594 404.029541015625 278.45465087890625 401.6256408691406 270.6023864746094 C 403.3851318359375 262.98895263671875 409.09124755859375 257.6934509277344 416.8673095703125 255.95643615722656 C 424.2845153808594 258.1672668457031 429.6344909667969 263.7776794433594 431.74896240234375 271.0894470214844" stroke-width="0.0" fill="rgb(228, 202, 159)" opacity="0.9901568"/>
    <path d="M 278.90850830078125 162.6988067626953 C 276.8558654785156 170.33255004882812 271.31707763671875 175.81361389160156 263.6375732421875 177.68545532226562 C 255.5 174.99038696289062 250.00961303710938 169.5 248.53614807128906 162.5189666748047 C 250.7726287841797 155.2740020751953 256.3021545410156 149.85333251953125 263.44244384765625 147.93089294433594 C 269.9317626953125 149.7503204345703 276.466796875 154.6880645751953 278.90850830078125 162.6988067626953" stroke-width="0.0" fill="rgb(183, 74, 10)" opacity="0.99002546"/>
    <path d="M 378.74749755859375 383.37994384765625 C 376.1018981933594 391.572509765625 370.51715087890625 396.9174499511719 362.9393615722656 398.97515869140625 C 355.26080322265625 397.09600830078125 349.4604187011719 391.8877868652344 347.2598876953125 384.22406005859375 C 349.5012512207031 376.0540771484375 355.03363037109375 370.45062255859375 363.6004943847656 368.19586181640625 C 371.1756286621094 370.2637634277344 376.6970520019531 375.8415222167969 378.74749755859375 383.37994384765625" stroke-width="0.0" fill="rgb(232, 221, 180)" opacity="1.0"/>
    <path d="M 476.6663818359375 338.4022216796875 C 473.9903259277344 346.4998474121094 468.4967041015625 351.97882080078125 461.6600341796875 353.16082763671875 C 453.91607666015625 351.3034973144531 447.5079650878906 346.6831970214844 445.5205383300781 339.3699035644531 C 448.0096130371094 331.5 453.5 326.0096130371094 461.47125244140625 323.5091857910156 C 469.23260498046875 325.2852478027344 474.7720642089844 330.7486267089844 476.6663818359375 338.4022216796875" stroke-width="0.0" fill="rgb(95, 166, 39)" opacity="0.99012846"/>
    <path d="M 476.1427917480469 401.7014465332031 C 474.2143249511719 408.752197265625 468.7535705566406 414.2178649902344 461.2997741699219 416.5638427734375 C 454.282470703125 415.40899658203125 448.9779052734375 409.5780944824219 446.99871826171875 402.0033264160156 C 449.0096130371094 394.5 454.5 389.0096130371094 462.72296142578125 386.15301513671875 C 470.0999450683594 388.2319641113281 474.45849609375 394.36956787109375 476.1427917480469 401.7014465332031" stroke-width="0.0" fill="rgb(221, 90, 46)" opacity="0.9900319"/>
    <path d="M 175.61676025390625 325.74517822265625 C 173.1849822998047 333.5932922363281 167.53770446777344 339.00750732421875 159.78428649902344 341.2762756347656 C 152.2717742919922 339.3575439453125 147.38131713867188 333.45355224609375 145.6673583984375 325.87939453125 C 147.31985473632812 318.69244384765625 152.5889434814453 312.9757385253906 159.91285705566406 310.8701171875 C 167.79165649414062 312.81195068359375 173.48646545410156 318.1148681640625 175.61676025390625 325.74517822265625" stroke-width="0.0" fill="rgb(239, 171, 127)" opacity="0.99026304"/>
    <path d="M 412.1388244628906 357.8873596191406 C 410.2441101074219 365.8632507324219 405.02349853515625 371.676025390625 396.50018310546875 373.921142578125 C 388.7457275390625 371.804443359375 383.19842529296875 366.2530822753906 381.0909423828125 358.39385986328125 C 383.2297058105469 349.7608337402344 388.7604675292969 344.229736328125 397.4820556640625 342.1020202636719 C 405.21197509765625 344.1998596191406 410.47442626953125 349.8994445800781 412.1388244628906 357.8873596191406" stroke-width="0.0" fill="rgb(208, 81, 66)" opacity="0.9901696"/>
    <path d="M 490.92913818359375 246.39671325683594 C 488.865478515625 254.3467254638672 483.33709716796875 259.8397521972656 475.81634521484375 260.1850280761719 C 468.26214599609375 258.20367431640625 462.8221435546875 252.72703552246094 460.82171630859375 245.2640380859375 C 461.3586730957031 237.80299377441406 466.7332458496094 232.16929626464844 474.6537780761719 230.06800842285156 C 483.3173522949219 232.16729736328125 488.8484802246094 237.67588806152344 490.92913818359375 246.39671325683594" stroke-width="0.0" fill="rgb(146, 28, 23)" opacity="0.9900296"/>
    <path d="M 412.8571472167969 123.87490844726562 C 410.6366271972656 132.07801818847656 405.116943359375 137.7163543701172 396.4256591796875 139.90206909179688 C 388.6521911621094 137.85305786132812 383.11297607421875 132.3622589111328 381.0559387207031 124.73973846435547 C 383.2399597167969 115.86444854736328 389.02386474609375 110.70085906982422 396.8226318359375 109.79002380371094 C 404.7850646972656 111.04791259765625 410.6302795410156 116.01959991455078 412.8571472167969 123.87490844726562" stroke-width="0.0" fill="rgb(140, 20, 7)" opacity="0.99003035"/>
    <path d="M 437.3205261230469 197.35093688964844 C 435.64935302734375 205.21189880371094 430.2766418457031 210.8340606689453 422.82659912109375 212.8507080078125 C 415.2939147949219 209.19482421875 409.8642272949219 203.68447875976562 407.93341064453125 196.62571716308594 C 409.8299865722656 190.28338623046875 415.2816162109375 184.82525634765625 422.6712341308594 182.88832092285156 C 429.42724609375 184.20816040039062 434.9866638183594 189.511474609375 437.3205261230469 197.35093688964844" stroke-width="0.0" fill="rgb(156, 56, 41)" opacity="0.99001753"/>
    <path d="M 394.0020751953125 500.9960632324219 C 391.99566650390625 508.51202392578125 386.5295104980469 514.0549926757812 379.00103759765625 516.1577758789062 C 371.33721923828125 514.1392211914062 365.78424072265625 508.68621826171875 363.7383728027344 500.9024963378906 C 365.53668212890625 492.9569396972656 370.8675231933594 487.27789306640625 378.6231994628906 485.1617431640625 C 386.7781066894531 487.511474609375 392.0341796875 493.39385986328125 394.0020751953125 500.9960632324219" stroke-width="0.0" fill="rgb(251, 230, 147)" opacity="1.0"/>
    <path d="M 211.8968048095703 234.15835571289062 C 209.72723388671875 242.1532440185547 204.08895874023438 247.5413818359375 196.35455322265625 249.14991760253906 C 188.9315948486328 246.6074981689453 183.6145782470703 240.99417114257812 181.74510192871094 233.7821044921875 C 183.602783203125 227.0558319091797 189.06260681152344 221.62171936035156 196.5139923095703 219.60797119140625 C 204.04747009277344 220.49920654296875 209.71522521972656 225.87545776367188 211.8968048095703 234.15835571289062" stroke-width="0.0" fill="rgb(214, 189, 136)" opacity="0.9901575"/>
    <path d="M 338.89654541015625 173.7406463623047 C 336.7991027832031 182.2818145751953 331.29229736328125 187.82386779785156 323.792724609375 189.7884063720703 C 316.0689697265625 186.2975616455078 309.48974609375 181.24642944335938 307.1791687011719 173.8076171875 C 309.2082214355469 165.71444702148438 314.7003479003906 160.1712646484375 323.0647277832031 158.0760040283203 C 331.33154296875 160.15219116210938 336.83843994140625 165.67210388183594 338.89654541015625 173.7406463623047" stroke-width="0.0" fill="rgb(194, 47, 46)" opacity="0.9901757"/>
    <path d="M 412.4866027832031 283.69012451171875 C 410.0121765136719 291.5581970214844 404.69580078125 297.3930358886719 396.7803955078125 299.8663635253906 C 389.0958557128906 297.5877685546875 383.8843688964844 291.72760009765625 381.9873046875 284.0187683105469 C 383.97613525390625 276.4181823730469 389.26690673828125 270.56494140625 397.35150146484375 268.116455078125 C 404.9285888671875 270.43109130859375 410.4049987792969 276.138671875 412.4866027832031 283.69012451171875" stroke-width="0.0" fill="rgb(83, 137, 22)" opacity="0.99105394"/>
    <path d="M 456.7242126464844 488.6183166503906 C 454.7552490234375 496.2027282714844 449.15191650390625 501.6029968261719 441.3224792480469 503.3106689453125 C 433.5 500.9903869628906 428.0096130371094 495.5 425.6204528808594 487.6048278808594 C 427.3214416503906 479.7719421386719 432.7164306640625 474.1644287109375 440.2454528808594 472.1114196777344 C 448.5520935058594 474.8681640625 453.99395751953125 480.4895935058594 456.7242126464844 488.6183166503906" stroke-width="0.0" fill="rgb(203, 63, 24)" opacity="1.0"/>
    <path d="M 418.6751708984375 539.1416015625 C 415.1162414550781 546.65087890625 409.66253662109375 552.1489868164062 402.3351745605469 554.2908935546875 C 395.5 552.9903564453125 390.0096130371094 547.5 387.8627624511719 539.839111328125 C 389.5867919921875 531.9969482421875 394.89666748046875 526.297119140625 403.42352294921875 524.1439208984375 C 411.2907409667969 526.1950073242188 416.83367919921875 531.697509765625 418.6751708984375 539.1416015625" stroke-width="0.0" fill="rgb(72, 44, 29)" opacity="0.99006134"/>
    <path d="M 238.102294921875 297.1146545410156 C 236.29119873046875 304.82275390625 230.78680419921875 310.11175537109375 222.3433380126953 311.1828308105469 C 214.8678741455078 310.7084045410156 209.4679412841797 305.0697021484375 208.61782836914062 296.7731018066406 C 209.53919982910156 289.0611572265625 215.0884552001953 283.6319885253906 222.98980712890625 281.5189208984375 C 230.53041076660156 283.9235534667969 235.99240112304688 289.49407958984375 238.102294921875 297.1146545410156" stroke-width="0.0" fill="rgb(240, 233, 224)" opacity="1.0"/>
    <path d="M 242.88768005371094 250.81741333007812 C 240.72933959960938 259.1201477050781 235.00331115722656 264.399658203125 226.31109619140625 266.83648681640625 C 218.8250274658203 264.7674560546875 213.7381591796875 259.041259765625 212.87274169921875 251.61972045898438 C 214.8126983642578 244.26718139648438 220.2664794921875 238.8108673095703 227.766357421875 236.8050994873047 C 235.28207397460938 237.21974182128906 240.80874633789062 242.7086639404297 242.88768005371094 250.81741333007812" stroke-width="0.0" fill="rgb(119, 160, 58)" opacity="0.99003065"/>
    <path d="M 339.35498046875 507.26715087890625 C 337.40228271484375 514.7435302734375 331.4159240722656 519.574951171875 324.038818359375 521.3302001953125 C 317.0145568847656 519.4007568359375 311.2882995605469 514.069580078125 308.34405517578125 506.61590576171875 C 310.4512634277344 499.0745849609375 316.19122314453125 493.8098449707031 324.0701904296875 491.80810546875 C 331.52252197265625 493.95843505859375 336.9941101074219 499.4913330078125 339.35498046875 507.26715087890625" stroke-width="0.0" fill="rgb(229, 188, 140)" opacity="0.99017566"/>
    <path d="M 336.6949768066406 269.3186950683594 C 334.2751159667969 276.63702392578125 328.5533142089844 282.0206604003906 321.0063171386719 284.0045471191406 C 313.5 281.9903869628906 308.0096130371094 276.5 305.3177795410156 268.3731994628906 C 307.1985168457031 260.70208740234375 312.6957702636719 255.180419921875 320.3177490234375 253.23960876464844 C 328.5009460449219 256.00933837890625 334.02239990234375 261.490234375 336.6949768066406 269.3186950683594" stroke-width="0.0" fill="rgb(213, 70, 49)" opacity="1.0"/>
    <path d="M 542.5812377929688 321.43609619140625 C 540.0006103515625 329.5238342285156 534.5414428710938 335.0572509765625 527.647705078125 336.1636047363281 C 520.2279052734375 334.2033996582031 514.5274658203125 328.8432922363281 511.28533935546875 321.4425964355469 C 513.3564453125 314.0187072753906 519.1900634765625 308.8243408203125 527.7216186523438 306.2009582519531 C 535.3211059570312 308.1575927734375 540.7836303710938 313.6988220214844 542.5812377929688 321.43609619140625" stroke-width="0.0" fill="rgb(86, 140, 29)" opacity="0.9900388"/>
    <path d="M 477.48980712890625 210.47982788085938 C 475.7830810546875 218.28414916992188 470.2982482910156 223.8232879638672 461.7578125 225.90786743164062 C 453.6604919433594 223.857421875 448.1631164550781 218.3313446044922 446.11846923828125 210.50848388671875 C 448.2828369140625 201.85206604003906 453.91937255859375 196.4854278564453 461.78167724609375 194.7814483642578 C 469.70068359375 196.88304138183594 475.42852783203125 202.19590759277344 477.48980712890625 210.47982788085938" stroke-width="0.0" fill="rgb(209, 67, 39)" opacity="1.0"/>
    <path d="M 527.8485107421875 171.15760803222656 C 526.0712890625 178.64956665039062 520.761962890625 184.4037322998047 512.432373046875 186.556884765625 C 504.7459716796875 184.7769317626953 499.21417236328125 179.25753784179688 497.1898498535156 171.4236297607422 C 499.42138671875 163.02354431152344 505.0876770019531 157.59942626953125 512.6392211914062 155.92774963378906 C 520.1575927734375 158.382080078125 525.6577758789062 163.83059692382812 527.8485107421875 171.15760803222656" stroke-width="0.0" fill="rgb(245, 208, 169)" opacity="1.0"/>
    <path d="M 536.7442626953125 483.1868896484375 C 534.3840942382812 490.7020263671875 528.5733032226562 496.0204772949219 521.0032958984375 498.0013122558594 C 513.5 495.9903869628906 508.0096130371094 490.5 505.99224853515625 482.98626708984375 C 507.9400634765625 475.3800048828125 513.2948608398438 469.6789245605469 520.8091430664062 467.4341735839844 C 528.7106323242188 469.7898864746094 534.3225708007812 475.2539978027344 536.7442626953125 483.1868896484375" stroke-width="0.0" fill="rgb(251, 227, 164)" opacity="0.991433"/>
    <path d="M 337.09136962890625 425.5605773925781 C 334.48565673828125 433.0316162109375 329.11395263671875 438.8770446777344 322.2590026855469 441.6514892578125 C 313.9327087402344 439.5113525390625 308.3410339355469 434.1134033203125 307.0812683105469 426.5919189453125 C 309.49871826171875 418.9113464355469 314.8775634765625 413.3960876464844 322.5571594238281 410.3880310058594 C 330.1359558105469 412.31744384765625 335.55816650390625 417.90496826171875 337.09136962890625 425.5605773925781" stroke-width="0.0" fill="rgb(181, 161, 136)" opacity="1.0"/>
    <path d="M 469.9259033203125 321.28387451171875 C 467.6074523925781 329.9110107421875 461.7216491699219 335.1233825683594 454.03033447265625 337.0244445800781 C 446.5 334.9903869628906 441.0096130371094 329.5 438.710693359375 321.6636657714844 C 440.35638427734375 313.7898864746094 445.7272033691406 308.1722412109375 454.197509765625 306.073974609375 C 462.350341796875 308.1409912109375 467.876220703125 313.6424255371094 469.9259033203125 321.28387451171875" stroke-width="0.0" fill="rgb(116, 169, 35)" opacity="1.0"/>
    <path d="M 354.5728454589844 253.27549743652344 C 352.4601745605469 261.2451171875 347.7259521484375 267.5001220703125 339.5665588378906 269.8478698730469 C 332.14154052734375 267.5672607421875 326.92706298828125 261.66619873046875 324.99957275390625 254.0104217529297 C 327.0013122558594 246.4767608642578 332.4031982421875 240.77346801757812 340.7178039550781 238.12522888183594 C 348.31634521484375 240.15960693359375 353.80316162109375 245.69752502441406 354.5728454589844 253.27549743652344" stroke-width="0.0" fill="rgb(197, 80, 63)" opacity="1.0"/>
    <path d="M 519.8162841796875 427.82275390625 C 517.6427001953125 436.0857238769531 512.0792236328125 441.6260681152344 504.5828552246094 443.5483093261719 C 496.87750244140625 440.5641174316406 491.4123840332031 435.12982177734375 488.861572265625 427.7330017089844 C 490.9925842285156 420.49517822265625 496.49981689453125 415.00958251953125 504.25067138671875 412.7724914550781 C 512.091552734375 414.4702453613281 517.72021484375 419.84521484375 519.8162841796875 427.82275390625" stroke-width="0.0" fill="rgb(191, 186, 168)" opacity="1.0"/>
    <path d="M 502.9222106933594 367.63079833984375 C 500.86669921875 375.34521484375 495.3431091308594 380.8621520996094 487.5370788574219 382.9263916015625 C 478.666015625 380.8408203125 473.1431884765625 375.3401794433594 471.12530517578125 367.72991943359375 C 473.7509765625 359.3875427246094 479.46820068359375 353.9975280761719 487.2379150390625 351.8022155761719 C 495.13177490234375 353.458251953125 500.7886962890625 358.78448486328125 502.9222106933594 367.63079833984375" stroke-width="0.0" fill="rgb(202, 73, 54)" opacity="1.0"/>
    <path d="M 398.6307373046875 278.4510803222656 C 396.50927734375 286.146240234375 391.2465515136719 291.8124694824219 383.9538879394531 293.9691162109375 C 376.4939880371094 291.9925537109375 370.9422607421875 286.5248718261719 369.1968994140625 279.2117614746094 C 370.7120361328125 270.961181640625 375.8169250488281 265.21710205078125 383.41314697265625 263.1129150390625 C 392.18414306640625 265.27532958984375 397.630859375 270.84765625 398.6307373046875 278.4510803222656" stroke-width="0.0" fill="rgb(181, 231, 99)" opacity="1.0"/>
    <path d="M 489.9379577636719 349.9276123046875 C 487.7890930175781 357.2648620605469 482.20611572265625 362.6047668457031 474.36083984375 365.58502197265625 C 467.0335693359375 363.6578674316406 462.31793212890625 357.6336975097656 460.1119384765625 349.762939453125 C 462.06854248046875 342.5718078613281 467.5809326171875 337.1022644042969 475.4366455078125 334.3267517089844 C 482.6750793457031 336.6666564941406 488.02130126953125 342.4312438964844 489.9379577636719 349.9276123046875" stroke-width="0.0" fill="rgb(113, 130, 86)" opacity="0.99006855"/>
    <path d="M 251.94821166992188 274.64141845703125 C 249.85580444335938 283.291015625 244.20179748535156 288.594482421875 236.4412384033203 289.86724853515625 C 229.1673126220703 287.37945556640625 223.8269805908203 281.7598571777344 221.85552978515625 274.1903991699219 C 222.27122497558594 266.8423156738281 227.92486572265625 261.5349426269531 236.66586303710938 259.2331237792969 C 244.32260131835938 261.1800537109375 249.8740692138672 266.65570068359375 251.94821166992188 274.64141845703125" stroke-width="0.0" fill="rgb(104, 104, 58)" opacity="0.9901021"/>
    <path d="M 390.8319091796875 527.6148071289062 C 388.7870178222656 535.2283325195312 383.1480407714844 540.4971313476562 375.45587158203125 541.21240234375 C 368.1340026855469 539.3155517578125 362.68841552734375 533.8648681640625 360.7312316894531 526.4303588867188 C 361.65570068359375 519.1449584960938 367.1484069824219 513.6646118164062 374.72503662109375 512.450439453125 C 382.4657897949219 514.2310791015625 388.38525390625 519.308349609375 390.8319091796875 527.6148071289062" stroke-width="0.0" fill="rgb(200, 153, 107)" opacity="0.99003166"/>
    <path d="M 176.62008666992188 295.22186279296875 C 174.4859619140625 302.9101257324219 168.8740234375 308.3827209472656 161.17822265625 310.3829650878906 C 153.3821563720703 308.1490783691406 147.83840942382812 302.6207275390625 145.45655822753906 295.1947021484375 C 148.281982421875 287.77362060546875 153.8040313720703 282.3810729980469 161.5580596923828 279.3871765136719 C 168.99380493164062 281.4155578613281 174.45550537109375 287.0540771484375 176.62008666992188 295.22186279296875" stroke-width="0.0" fill="rgb(255, 231, 185)" opacity="0.9902524"/>
    <path d="M 432.3448791503906 374.5458068847656 C 431.5030822753906 381.4481201171875 425.069091796875 386.41876220703125 417.611572265625 388.5511779785156 C 410.3414306640625 387.1097412109375 404.70526123046875 381.7151184082031 402.3266296386719 373.71527099609375 C 404.4580078125 366.0528259277344 410.1319885253906 360.698486328125 417.87091064453125 358.91802978515625 C 425.328125 361.1176452636719 430.57452392578125 366.7746276855469 432.3448791503906 374.5458068847656" stroke-width="0.0" fill="rgb(249, 250, 229)" opacity="1.0"/>
    <path d="M 522.9884033203125 483.003662109375 C 520.9898681640625 490.4985656738281 515.4923095703125 495.96759033203125 507.71630859375 498.16522216796875 C 500.0333251953125 496.49285888671875 494.43438720703125 490.99285888671875 492.16937255859375 482.6585998535156 C 494.26702880859375 474.8204040527344 499.8455810546875 469.33251953125 507.6656494140625 467.25927734375 C 515.77099609375 469.5500183105469 521.0280151367188 475.3783264160156 522.9884033203125 483.003662109375" stroke-width="0.0" fill="rgb(251, 218, 127)" opacity="1.0"/>
    <path d="M 287.41864013671875 466.30950927734375 C 285.4791564941406 473.95208740234375 279.9888916015625 479.5784912109375 271.7349853515625 481.8520812988281 C 263.89056396484375 479.6893310546875 258.3995056152344 474.0727233886719 256.2953186035156 466.3700866699219 C 258.7943115234375 458.376220703125 264.3603210449219 452.75885009765625 271.82135009765625 450.70745849609375 C 279.5 453.0096130371094 284.9903869628906 458.5 287.41864013671875 466.30950927734375" stroke-width="0.0" fill="rgb(248, 204, 147)" opacity="1.0"/>
    <path d="M 269.86773681640625 177.7670440673828 C 267.8567199707031 185.33724975585938 262.3355712890625 190.85316467285156 254.47801208496094 192.92556762695312 C 245.7493133544922 190.80528259277344 240.28265380859375 185.21493530273438 238.34048461914062 177.54644775390625 C 241.00961303710938 169.5 246.5 164.00961303710938 253.9781036376953 162.015869140625 C 261.38671875 164.09298706054688 266.8677673339844 169.6270751953125 269.86773681640625 177.7670440673828" stroke-width="0.0" fill="rgb(219, 112, 29)" opacity="1.0"/>
    <path d="M 442.82928466796875 420.7691955566406 C 440.87542724609375 428.3713073730469 435.378173828125 433.892822265625 427.4905090332031 435.9478759765625 C 418.6939392089844 433.8505554199219 413.2019348144531 428.2820739746094 411.1056823730469 420.4984436035156 C 413.4228515625 412.11279296875 419.29156494140625 406.89691162109375 426.92431640625 405.11083984375 C 434.46331787109375 407.0841064453125 439.9820556640625 412.51702880859375 442.82928466796875 420.7691955566406" stroke-width="0.0" fill="rgb(70, 117, 38)" opacity="1.0"/>
    <path d="M 253.9390106201172 293.6306457519531 C 251.86050415039062 302.3398132324219 246.34078979492188 307.8631286621094 238.2373809814453 309.9420471191406 C 229.76852416992188 307.8318176269531 225.16246032714844 302.03057861328125 223.84996032714844 294.1587219238281 C 225.6063995361328 286.91156005859375 230.63743591308594 280.7396240234375 238.2085723876953 278.4144287109375 C 246.29263305664062 280.27105712890625 251.8768310546875 285.6591491699219 253.9390106201172 293.6306457519531" stroke-width="0.0" fill="rgb(158, 114, 62)" opacity="1.0"/>
    <path d="M 460.31884765625 410.61444091796875 C 459.78985595703125 418.3205261230469 454.34893798828125 423.8744201660156 446.7001037597656 425.9310607910156 C 438.1309814453125 423.63018798828125 433.0573425292969 417.5649108886719 431.08795166015625 409.9317932128906 C 432.996337890625 402.5054626464844 438.5130920410156 397.0237731933594 445.9917907714844 395.01153564453125 C 453.3742980957031 397.07904052734375 458.58819580078125 402.739501953125 460.31884765625 410.61444091796875" stroke-width="0.0" fill="rgb(28, 69, 9)" opacity="0.9900529"/>
    <path d="M 544.5239868164062 275.9425354003906 C 542.22607421875 283.6413269042969 536.5706787109375 288.99169921875 529.17041015625 290.7678527832031 C 521.6817016601562 288.73309326171875 515.9608764648438 283.4023132324219 513.5803833007812 275.6727600097656 C 515.6022338867188 268.1825866699219 521.2236938476562 262.7224426269531 528.6805419921875 260.6791076660156 C 536.863037109375 262.8296203613281 542.5086669921875 268.0479431152344 544.5239868164062 275.9425354003906" stroke-width="0.0" fill="rgb(249, 251, 232)" opacity="1.0"/>
    <path d="M 307.94244384765625 157.45834350585938 C 305.8637390136719 166.34640502929688 300.3376159667969 171.83969116210938 292.5829772949219 173.37387084960938 C 283.69415283203125 171.788818359375 278.1534118652344 166.32513427734375 276.1294860839844 158.65773010253906 C 278.4114074707031 150.0490264892578 284.1753234863281 144.77308654785156 292.671142578125 142.30638122558594 C 300.3362121582031 144.17071533203125 305.88372802734375 149.6424102783203 307.94244384765625 157.45834350585938" stroke-width="0.0" fill="rgb(152, 25, 16)" opacity="0.9900845"/>
    <path d="M 440.6943664550781 322.1868591308594 C 438.9903869628906 329.5 433.5 334.9903869628906 426.0005187988281 336.999755859375 C 418.50830078125 334.98663330078125 413.0522155761719 329.4803466796875 410.8713073730469 321.8313903808594 C 412.6157531738281 314.03082275390625 417.9544677734375 308.37811279296875 425.58984375 306.5048828125 C 433.52825927734375 308.8704833984375 438.7388000488281 314.6044921875 440.6943664550781 322.1868591308594" stroke-width="0.0" fill="rgb(252, 251, 235)" opacity="1.0"/>
    <path d="M 332.8819580078125 143.68447875976562 C 330.864013671875 151.34970092773438 325.346923828125 156.85755920410156 316.77886962890625 158.9201202392578 C 308.6387634277344 156.871337890625 303.1204833984375 151.36459350585938 301.06427001953125 143.27957153320312 C 303.1426086425781 134.6681671142578 308.67791748046875 129.1663818359375 316.3294372558594 127.16139221191406 C 325.0760498046875 129.3955841064453 330.62646484375 134.91708374023438 332.8819580078125 143.68447875976562" stroke-width="0.0" fill="rgb(164, 19, 2)" opacity="0.990043"/>
    <path d="M 361.8271484375 304.8675842285156 C 359.8591003417969 312.3288879394531 354.3195495605469 317.8377685546875 346.3157958984375 319.9076232910156 C 337.75982666015625 317.8009948730469 332.3321533203125 312.1895446777344 330.52508544921875 304.4194641113281 C 332.8653869628906 296.2341003417969 338.028076171875 290.33929443359375 345.3097229003906 288.1634826660156 C 352.7256164550781 291.75030517578125 358.1510314941406 297.30450439453125 361.8271484375 304.8675842285156" stroke-width="0.0" fill="rgb(57, 111, 27)" opacity="0.9900581"/>
    <path d="M 232.52491760253906 418.6210021972656 C 231.357666015625 426.86328125 225.90606689453125 432.48663330078125 218.3628387451172 434.5267639160156 C 210.09466552734375 432.3950500488281 204.50607299804688 426.9378967285156 202.41757202148438 419.10406494140625 C 204.71524047851562 411.2362365722656 210.20343017578125 405.6253662109375 218.27317810058594 403.4352722167969 C 226.13636779785156 405.3408203125 231.65528869628906 410.864501953125 232.52491760253906 418.6210021972656" stroke-width="0.0" fill="rgb(246, 236, 199)" opacity="1.0"/>
    <path d="M 466.88873291015625 380.6917724609375 C 464.7629089355469 388.1307067871094 458.96453857421875 393.3151550292969 451.03656005859375 395.07525634765625 C 443.0830383300781 393.24639892578125 437.2191467285156 388.1288146972656 435.0598449707031 380.2453308105469 C 437.18682861328125 371.7711181640625 442.8736877441406 366.4750671386719 450.7820129394531 364.82354736328125 C 458.5536193847656 366.9875793457031 464.3037109375 372.3482971191406 466.88873291015625 380.6917724609375" stroke-width="0.0" fill="rgb(206, 75, 57)" opacity="1.0"/>
    <path d="M 246.9222412109375 192.6894989013672 C 244.84359741210938 200.30685424804688 239.29425048828125 205.81484985351562 231.47100830078125 207.8924560546875 C 222.8553466796875 205.7318572998047 217.6027374267578 200.0411834716797 216.55160522460938 192.38632202148438 C 218.54214477539062 185.0228729248047 224.06736755371094 179.66156005859375 231.37167358398438 177.76255798339844 C 238.66639709472656 179.313720703125 244.67611694335938 184.0109100341797 246.9222412109375 192.6894989013672" stroke-width="0.0" fill="rgb(195, 164, 123)" opacity="0.990119"/>
    <path d="M 501.2073974609375 138.35130310058594 C 499.2502136230469 145.71096801757812 493.6911315917969 151.1846923828125 486.0817565917969 153.09738159179688 C 478.5 150.99038696289062 473.0096130371094 145.5 470.8602294921875 137.86965942382812 C 472.73211669921875 130.2780303955078 478.3414306640625 124.95976257324219 485.7531433105469 123.5020751953125 C 493.129638671875 125.44264221191406 498.59857177734375 130.85694885253906 501.2073974609375 138.35130310058594" stroke-width="0.0" fill="rgb(249, 219, 161)" opacity="0.9901134"/>
    <path d="M 223.507568359375 342.4852294921875 C 221.7393035888672 350.2705993652344 216.30445861816406 355.83831787109375 207.4965057373047 357.9300537109375 C 199.69834899902344 355.8560485839844 194.28321838378906 350.2458801269531 192.3936767578125 342.5323181152344 C 194.49745178222656 333.9618225097656 199.86795043945312 328.259033203125 207.26951599121094 326.1311950683594 C 215.49427795410156 329.0201416015625 220.99513244628906 334.5013732910156 223.507568359375 342.4852294921875" stroke-width="0.0" fill="rgb(137, 20, 9)" opacity="0.9900628"/>
    <path d="M 505.7756042480469 345.49591064453125 C 503.8320007324219 353.2923278808594 498.2359313964844 358.6344299316406 490.1949462890625 359.30963134765625 C 482.60107421875 357.8150634765625 476.9608154296875 352.4625244140625 474.42437744140625 344.62750244140625 C 476.328857421875 336.7763671875 481.7161560058594 331.1615905761719 489.412109375 329.09814453125 C 498.29150390625 331.1925964355469 503.78326416015625 336.7168884277344 505.7756042480469 345.49591064453125" stroke-width="0.0" fill="rgb(48, 33, 6)" opacity="0.9900308"/>
    <path d="M 343.61883544921875 295.37738037109375 C 340.8673400878906 303.6304931640625 335.8900146484375 309.5985107421875 327.9453430175781 311.843505859375 C 319.7921447753906 309.71661376953125 314.198486328125 304.2433776855469 312.08135986328125 296.44146728515625 C 314.234375 287.8280334472656 319.93408203125 282.5385437011719 328.5649108886719 280.2747802734375 C 336.2556457519531 282.2412414550781 341.778564453125 287.7369384765625 343.61883544921875 295.37738037109375" stroke-width="0.0" fill="rgb(87, 148, 54)" opacity="0.9900887"/>
    <path d="M 598.6912841796875 389.82196044921875 C 597.2777709960938 397.7976989746094 591.841552734375 403.41375732421875 584.3263549804688 405.11761474609375 C 576.5109252929688 402.9561462402344 571.0101318359375 397.4985046386719 568.66455078125 389.6945495605469 C 570.4495239257812 381.923583984375 575.884765625 376.334228515625 583.5067138671875 374.4600830078125 C 591.5693969726562 376.99835205078125 597.1613159179688 382.3854675292969 598.6912841796875 389.82196044921875" stroke-width="0.0" fill="rgb(252, 251, 220)" opacity="1.0"/>
    <path d="M 534.8421020507812 488.5699462890625 C 532.4114379882812 495.94732666015625 526.9302978515625 501.36065673828125 519.3534545898438 503.40301513671875 C 511.90179443359375 502.6488342285156 506.4997863769531 497.0500183105469 505.1780700683594 489.35687255859375 C 507.3149108886719 481.7803039550781 512.80615234375 476.39215087890625 519.947509765625 474.68353271484375 C 527.2666015625 476.39349365234375 533.1331176757812 481.5708312988281 534.8421020507812 488.5699462890625" stroke-width="0.0" fill="rgb(229, 159, 113)" opacity="0.9900979"/>
    <path d="M 431.7539978027344 254.72976684570312 C 429.3350830078125 261.8553466796875 423.8544921875 267.3294677734375 416.42449951171875 269.479248046875 C 408.8692626953125 268.606201171875 403.23541259765625 263.1907653808594 401.07708740234375 254.4399871826172 C 403.1482849121094 246.6643829345703 408.6573486328125 241.1322021484375 416.24267578125 239.0763397216797 C 424.8909912109375 241.43222045898438 429.9599914550781 247.3061065673828 431.7539978027344 254.72976684570312" stroke-width="0.0" fill="rgb(198, 88, 70)" opacity="0.9901311"/>
    <path d="M 532.031982421875 302.2657470703125 C 529.6546020507812 309.0334777832031 523.9857177734375 314.45538330078125 516.6946411132812 316.27880859375 C 509.3670349121094 315.18402099609375 503.9998474121094 309.57696533203125 502.77734375 301.85528564453125 C 504.43121337890625 294.8272399902344 509.7695007324219 289.2575988769531 517.0252075195312 286.8080139160156 C 524.277587890625 289.19921875 529.7678833007812 294.7306213378906 532.031982421875 302.2657470703125" stroke-width="0.0" fill="rgb(251, 250, 244)" opacity="0.9901321"/>
    <path d="M 377.8934326171875 417.5117492675781 C 375.79779052734375 425.2599182128906 370.2527770996094 430.7803955078125 362.51568603515625 432.84820556640625 C 354.2555847167969 430.443115234375 348.9710388183594 424.5924377441406 346.6959533691406 416.6624755859375 C 348.35955810546875 408.79656982421875 353.7395324707031 403.1884460449219 361.3436279296875 401.1686706542969 C 369.9811096191406 403.50946044921875 375.6619873046875 408.94842529296875 377.8934326171875 417.5117492675781" stroke-width="0.0" fill="rgb(140, 68, 17)" opacity="0.9902974"/>
    <path d="M 401.4847412109375 99.801513671875 C 399.08770751953125 107.54431915283203 393.52691650390625 113.02572631835938 386.01544189453125 115.02000427246094 C 378.5 112.9903793334961 373.0096130371094 107.5 370.9124450683594 99.90739440917969 C 372.76544189453125 92.244384765625 378.2349853515625 86.734375 386.1809387207031 84.4068374633789 C 393.8956604003906 86.60004425048828 399.4793701171875 92.07549285888672 401.4847412109375 99.801513671875" stroke-width="0.0" fill="rgb(249, 251, 235)" opacity="0.9937136"/>
    <path d="M 478.0971374511719 193.5260009765625 C 476.3329162597656 199.97157287597656 471.08294677734375 205.6467742919922 463.8097839355469 207.83908081054688 C 456.13214111328125 206.25823974609375 450.4300537109375 200.9687042236328 448.4690856933594 193.40704345703125 C 451.0112609863281 185.58265686035156 456.6943359375 180.35292053222656 463.528076171875 178.76174926757812 C 470.7385559082031 180.77536010742188 476.17010498046875 186.2810821533203 478.0971374511719 193.5260009765625" stroke-width="0.0" fill="rgb(200, 52, 39)" opacity="0.99003303"/>
    <path d="M 472.78302001953125 476.7330627441406 C 470.846435546875 484.3376770019531 465.3399658203125 489.8529357910156 457.7503662109375 491.8684387207031 C 449.440673828125 489.1372375488281 443.9759216308594 483.5242614746094 441.22686767578125 475.33935546875 C 443.20440673828125 467.7389831542969 448.75689697265625 462.2503967285156 456.9803771972656 460.1277770996094 C 464.41375732421875 462.57843017578125 469.66021728515625 468.80657958984375 472.78302001953125 476.7330627441406" stroke-width="0.0" fill="rgb(143, 33, 19)" opacity="0.99047756"/>
    <path d="M 368.4003601074219 503.30999755859375 C 366.44512939453125 510.9088134765625 360.9123229980469 516.452880859375 352.7589111328125 518.5964965820312 C 345.3287658691406 516.3331298828125 339.9924621582031 510.56005859375 338.0044250488281 502.99713134765625 C 340.00048828125 495.4789123535156 345.4440002441406 489.885009765625 352.9793701171875 487.5295104980469 C 360.5635070800781 489.85186767578125 365.90093994140625 495.5177307128906 368.4003601074219 503.30999755859375" stroke-width="0.0" fill="rgb(248, 222, 178)" opacity="1.0"/>
    <path d="M 369.8336181640625 176.7174530029297 C 367.82476806640625 184.30113220214844 362.2984313964844 189.81820678710938 354.698486328125 191.8011474609375 C 346.12030029296875 189.36004638671875 340.45074462890625 183.94606018066406 338.0926208496094 175.25070190429688 C 340.14404296875 167.68020629882812 345.7135009765625 162.23472595214844 354.6064453125 160.1239471435547 C 362.1930236816406 162.21400451660156 367.45294189453125 167.9202880859375 369.8336181640625 176.7174530029297" stroke-width="0.0" fill="rgb(111, 173, 54)" opacity="0.99083865"/>
    <path d="M 265.9427490234375 372.4013671875 C 263.81353759765625 381.2408142089844 258.1553955078125 386.5678405761719 250.2588653564453 388.21527099609375 C 242.5 385.9903869628906 237.00961303710938 380.5 235.0 373.0 C 237.00961303710938 365.5 242.5 360.0096130371094 249.6368865966797 358.6961975097656 C 258.1851806640625 359.54632568359375 263.8545837402344 364.7101135253906 265.9427490234375 372.4013671875" stroke-width="0.0" fill="rgb(114, 130, 61)" opacity="1.0"/>
    <path d="M 403.22125244140625 500.0709228515625 C 401.0443420410156 507.4035339355469 395.2541809082031 512.5733642578125 388.5145568847656 514.1234130859375 C 381.2458190917969 512.2169189453125 375.8162841796875 506.7408447265625 373.88909912109375 499.25640869140625 C 374.2944641113281 491.7416076660156 379.6957092285156 486.1546630859375 387.4071350097656 484.0807189941406 C 396.0600891113281 486.2972412109375 401.2502746582031 492.1024475097656 403.22125244140625 500.0709228515625" stroke-width="0.0" fill="rgb(181, 40, 13)" opacity="0.9900233"/>
    <path d="M 583.2540283203125 205.3252410888672 C 581.4454956054688 212.92770385742188 575.9365844726562 218.47543334960938 568.2669677734375 220.5970458984375 C 560.6078491210938 218.0015869140625 555.2386474609375 212.32757568359375 553.0984497070312 204.85316467285156 C 554.9189453125 197.48619079589844 560.5638427734375 192.15045166015625 568.1192626953125 189.55325317382812 C 575.60009765625 191.82785034179688 580.8677368164062 197.4937744140625 583.2540283203125 205.3252410888672" stroke-width="0.0" fill="rgb(255, 238, 181)" opacity="0.99012166"/>
    <path d="M 328.9483642578125 451.74151611328125 C 326.8781433105469 460.35565185546875 321.3451843261719 465.8532409667969 312.6122131347656 467.9169921875 C 304.6524353027344 465.8666076660156 299.1829528808594 460.3304443359375 298.80328369140625 452.740478515625 C 300.6376037597656 444.810791015625 305.1294250488281 438.3547058105469 313.168212890625 436.1307373046875 C 321.3074951171875 438.20770263671875 326.8733215332031 443.6610107421875 328.9483642578125 451.74151611328125" stroke-width="0.0" fill="rgb(134, 75, 57)" opacity="0.9900926"/>
    <path d="M 581.534912109375 317.4749450683594 C 578.9903564453125 325.5 573.5 330.9903869628906 566.0 333.0 C 558.500732421875 330.9901428222656 553.0266723632812 325.49462890625 550.1458740234375 317.2471008300781 C 552.1783447265625 309.70672607421875 557.7083129882812 304.18194580078125 566.5037231445312 302.0740661621094 C 574.3267211914062 304.13916015625 579.7640380859375 309.70770263671875 581.534912109375 317.4749450683594" stroke-width="0.0" fill="rgb(149, 60, 25)" opacity="0.99029654"/>
    <path d="M 496.91265869140625 468.9549865722656 C 494.80975341796875 477.281494140625 489.2801818847656 482.805908203125 481.2367858886719 484.89764404296875 C 472.8448181152344 482.7540283203125 467.5622253417969 477.04437255859375 466.591796875 469.5105895996094 C 468.6690368652344 462.1387634277344 474.15594482421875 456.71734619140625 481.7067565917969 454.5615234375 C 489.2080383300781 455.2970886230469 494.8052673339844 460.7510681152344 496.91265869140625 468.9549865722656" stroke-width="0.0" fill="rgb(137, 123, 120)" opacity="0.9901977"/>
    <path d="M 596.09423828125 323.7040100097656 C 595.1753540039062 332.0836181640625 590.2062377929688 337.7794494628906 582.7255249023438 339.82025146484375 C 574.514892578125 336.9790344238281 569.0181274414062 331.4864807128906 566.985595703125 323.970947265625 C 568.8572998046875 316.22515869140625 574.0107421875 310.3204345703125 581.894287109375 308.0938720703125 C 590.1951904296875 310.2370910644531 595.3361206054688 315.9070129394531 596.09423828125 323.7040100097656" stroke-width="0.0" fill="rgb(143, 25, 13)" opacity="0.9900413"/>
    <path d="M 441.0023498535156 330.008056640625 C 439.03436279296875 337.59063720703125 433.7008056640625 343.3569641113281 426.36773681640625 345.5655822753906 C 418.747314453125 342.8007507324219 413.3438720703125 337.2099609375 410.77996826171875 329.99847412109375 C 413.282470703125 322.7447204589844 418.7434387207031 317.28131103515625 426.1188659667969 315.4440002441406 C 433.4737243652344 317.0696105957031 438.9839782714844 322.51080322265625 441.0023498535156 330.008056640625" stroke-width="0.0" fill="rgb(210, 211, 180)" opacity="0.99018115"/>
    <path d="M 355.0665588378906 498.9064636230469 C 352.9134521484375 506.43353271484375 347.4828796386719 512.0911865234375 340.0088806152344 514.6206665039062 C 332.63275146484375 511.98419189453125 327.1607360839844 506.333984375 325.05780029296875 499.0085144042969 C 327.2107238769531 491.7036437988281 332.6916198730469 486.16357421875 340.0046691894531 483.61669921875 C 347.68951416015625 485.7594909667969 353.140380859375 491.3418884277344 355.0665588378906 498.9064636230469" stroke-width="0.0" fill="rgb(251, 244, 198)" opacity="0.99046"/>
    <path d="M 334.5622863769531 272.5263977050781 C 332.6610107421875 280.0823669433594 326.98150634765625 285.30804443359375 318.6436462402344 287.45025634765625 C 311.8467102050781 285.0269470214844 306.459716796875 279.0618896484375 303.88873291015625 271.90716552734375 C 306.0527648925781 264.5270690917969 311.5528564453125 259.1318054199219 318.87640380859375 257.46319580078125 C 326.30499267578125 259.28643798828125 331.8280029296875 264.65740966796875 334.5622863769531 272.5263977050781" stroke-width="0.0" fill="rgb(218, 132, 62)" opacity="0.99017197"/>
    <path d="M 512.1455078125 415.5464172363281 C 510.3362121582031 422.9570007324219 505.03656005859375 428.556396484375 497.6477355957031 431.2609558105469 C 490.2799072265625 429.28375244140625 484.7752380371094 423.7005920410156 482.3463439941406 415.66387939453125 C 484.7095947265625 408.8175964355469 491.1163024902344 403.78826904296875 498.79559326171875 401.9213562011719 C 506.1245422363281 402.2937927246094 511.396484375 407.9713134765625 512.1455078125 415.5464172363281" stroke-width="0.0" fill="rgb(250, 251, 248)" opacity="0.9902622"/>
    <path d="M 259.0 372.0 C 256.9903869628906 379.5 251.5 384.9903869628906 244.0031280517578 386.9981384277344 C 236.51661682128906 384.9775695800781 230.9401397705078 379.5063171386719 228.39959716796875 371.9364929199219 C 230.8336639404297 364.4151611328125 236.45765686035156 358.972412109375 243.98712158203125 356.9855041503906 C 251.5 359.0096130371094 256.9903869628906 364.5 259.0 372.0" stroke-width="0.0" fill="rgb(208, 209, 197)" opacity="0.99158156"/>
    <path d="M 432.16705322265625 398.8675537109375 C 430.02978515625 406.4987487792969 424.4233093261719 411.7958068847656 416.93865966796875 413.42791748046875 C 409.0805358886719 412.1798400878906 403.3049621582031 407.0740966796875 401.12152099609375 398.5845947265625 C 403.2270202636719 390.76318359375 408.77362060546875 385.2561950683594 416.94622802734375 383.3542175292969 C 424.9867858886719 385.40753173828125 430.34326171875 391.0996398925781 432.16705322265625 398.8675537109375" stroke-width="0.0" fill="rgb(44, 99, 20)" opacity="0.990042"/>
    <path d="M 457.08648681640625 332.2201232910156 C 455.2661437988281 338.86480712890625 449.96612548828125 344.6405029296875 443.34039306640625 347.4444885253906 C 435.6807861328125 344.8088073730469 430.2990417480469 339.28338623046875 428.2171936035156 331.72821044921875 C 429.78570556640625 324.3487854003906 435.4202575683594 319.0361328125 442.6180725097656 317.70623779296875 C 449.9259033203125 319.56939697265625 455.24639892578125 325.1457824707031 457.08648681640625 332.2201232910156" stroke-width="0.0" fill="rgb(251, 251, 228)" opacity="0.99002963"/>
    <path d="M 491.65985107421875 150.73826599121094 C 490.76458740234375 158.27529907226562 485.3048400878906 163.84173583984375 477.69427490234375 165.8714141845703 C 468.9062194824219 163.64349365234375 463.4050598144531 158.07467651367188 461.10675048828125 149.34841918945312 C 463.2087707519531 141.82350158691406 469.0518798828125 137.28448486328125 476.5916442871094 135.86334228515625 C 483.82672119140625 137.73057556152344 489.2816467285156 143.16871643066406 491.65985107421875 150.73826599121094" stroke-width="0.0" fill="rgb(215, 75, 20)" opacity="0.9900376"/>
    <path d="M 557.6970825195312 329.54986572265625 C 555.802001953125 337.3033142089844 550.3134765625 342.8314208984375 541.72412109375 344.91802978515625 C 533.7584838867188 342.8173828125 528.4603271484375 337.1466979980469 526.8844604492188 329.218017578125 C 528.9649047851562 321.3626403808594 534.14794921875 315.42437744140625 542.6400146484375 313.080322265625 C 550.2498779296875 315.1749572753906 555.5792236328125 320.8389587402344 557.6970825195312 329.54986572265625" stroke-width="0.0" fill="rgb(67, 129, 23)" opacity="1.0"/>
    <path d="M 452.6986389160156 491.33770751953125 C 451.39056396484375 498.87738037109375 445.8248596191406 504.1773376464844 437.3645324707031 506.3951721191406 C 429.74462890625 504.77178955078125 424.21014404296875 499.26214599609375 422.10833740234375 490.6329345703125 C 424.16937255859375 482.69708251953125 429.7259521484375 477.2574462890625 437.4203186035156 476.2313232421875 C 445.0942077636719 478.4896240234375 450.61083984375 483.8714599609375 452.6986389160156 491.33770751953125" stroke-width="0.0" fill="rgb(212, 94, 69)" opacity="0.99020296"/>
    <path d="M 395.5882263183594 289.10400390625 C 393.7734069824219 296.1829528808594 388.0709228515625 301.4312438964844 381.0930480957031 303.17144775390625 C 374.044189453125 301.373046875 368.5156555175781 295.9931640625 365.2303771972656 288.3346252441406 C 367.29888916015625 280.9263916015625 373.0632019042969 275.6778869628906 380.9151611328125 273.8230285644531 C 388.5658264160156 275.9391174316406 394.0277404785156 281.4421081542969 395.5882263183594 289.10400390625" stroke-width="0.0" fill="rgb(168, 217, 92)" opacity="0.9901296"/>
    <path d="M 297.1698913574219 455.82330322265625 C 296.6485290527344 462.81805419921875 290.0373840332031 467.26837158203125 283.0502624511719 469.0927429199219 C 276.267822265625 467.1929626464844 270.8241271972656 461.72540283203125 268.81719970703125 454.2007141113281 C 269.2283630371094 446.72906494140625 274.71295166015625 441.1842041015625 282.3704833984375 439.1189880371094 C 289.8024597167969 442.4741516113281 295.1449279785156 448.2845153808594 297.1698913574219 455.82330322265625" stroke-width="0.0" fill="rgb(191, 28, 13)" opacity="0.990018"/>
    <path d="M 339.2413024902344 242.3237762451172 C 336.4444580078125 250.01136779785156 331.01507568359375 255.4546356201172 323.49298095703125 257.4150695800781 C 315.8363037109375 256.6135559082031 310.22418212890625 251.2186737060547 308.13372802734375 243.37838745117188 C 310.2715759277344 234.80677795410156 315.8132019042969 229.28793334960938 324.5760803222656 227.11459350585938 C 332.25286865234375 229.2025604248047 337.7556457519531 234.76397705078125 339.2413024902344 242.3237762451172" stroke-width="0.0" fill="rgb(218, 123, 116)" opacity="1.0"/>
    <path d="M 399.1788330078125 102.1545181274414 C 397.333740234375 109.8106918334961 391.697021484375 114.8215103149414 383.3171691894531 116.36268615722656 C 376.040771484375 115.6102066040039 370.8042907714844 109.81190490722656 368.8946838378906 101.8991928100586 C 370.8464050292969 94.50291442871094 376.6089172363281 89.18114471435547 384.0801696777344 87.10872650146484 C 391.5137939453125 89.00151824951172 397.0121154785156 94.48220825195312 399.1788330078125 102.1545181274414" stroke-width="0.0" fill="rgb(251, 252, 228)" opacity="0.99356335"/>
    <path d="M 182.78204345703125 343.1768493652344 C 180.6193084716797 351.0378723144531 175.0017852783203 356.528564453125 166.91273498535156 358.74578857421875 C 158.90264892578125 356.6209716796875 153.34104919433594 351.1114807128906 151.20640563964844 343.24700927734375 C 153.5795135498047 335.2478942871094 159.3726806640625 329.9349365234375 167.13125610351562 327.8659362792969 C 174.9079132080078 329.6522521972656 180.57435607910156 335.0163269042969 182.78204345703125 343.1768493652344" stroke-width="0.0" fill="rgb(227, 155, 110)" opacity="0.99034625"/>
    <path d="M 563.510009765625 406.378173828125 C 561.6857299804688 414.2129821777344 556.2615356445312 419.81622314453125 547.96875 421.9244384765625 C 539.675537109375 419.84368896484375 534.1506958007812 414.32696533203125 532.0703735351562 405.99102783203125 C 534.1521606445312 397.6756286621094 539.679443359375 392.1617126464844 548.2495727539062 390.07440185546875 C 556.2018432617188 392.1976318359375 561.4442749023438 397.9265441894531 563.510009765625 406.378173828125" stroke-width="0.0" fill="rgb(150, 30, 17)" opacity="1.0"/>
    <path d="M 582.0624389648438 329.5219421386719 C 580.558349609375 337.0543518066406 575.0994262695312 342.67742919921875 566.4037475585938 344.8971862792969 C 558.6848754882812 342.8391418457031 553.20654296875 337.2989196777344 551.3359985351562 329.5668029785156 C 553.7178955078125 321.24493408203125 559.2813720703125 315.8465270996094 566.6494750976562 314.6143798828125 C 574.0352783203125 316.5188293457031 579.4730224609375 321.968017578125 582.0624389648438 329.5219421386719" stroke-width="0.0" fill="rgb(90, 130, 44)" opacity="0.99081343"/>
    <path d="M 527.73974609375 381.6705627441406 C 525.8094482421875 389.3105773925781 520.3314208984375 394.86212158203125 512.3236694335938 396.9411926269531 C 503.66900634765625 394.85687255859375 498.1678466796875 389.3205871582031 496.0711364746094 380.8358459472656 C 498.1709899902344 372.7393493652344 503.8248596191406 367.4212341308594 511.7359619140625 365.8347473144531 C 519.50244140625 368.0169982910156 524.9864501953125 373.4965515136719 527.73974609375 381.6705627441406" stroke-width="0.0" fill="rgb(172, 42, 25)" opacity="1.0"/>
    <path d="M 220.79310607910156 386.8301086425781 C 218.7362060546875 395.20947265625 213.207275390625 400.7311096191406 205.59388732910156 402.7058410644531 C 197.41378784179688 400.07696533203125 191.9014434814453 394.5920104980469 189.5539093017578 386.9272766113281 C 191.83692932128906 379.3674621582031 197.34530639648438 373.77044677734375 205.56802368164062 371.19976806640625 C 213.17291259765625 373.29058837890625 218.72935485839844 378.8182678222656 220.79310607910156 386.8301086425781" stroke-width="0.0" fill="rgb(225, 205, 154)" opacity="1.0"/>
    <path d="M 364.38983154296875 422.5615539550781 C 362.6715393066406 430.1845397949219 357.2019348144531 435.72271728515625 349.56103515625 436.5244445800781 C 341.32073974609375 434.8763122558594 335.5638732910156 429.827880859375 333.1741027832031 421.34466552734375 C 335.16461181640625 413.6651306152344 340.649658203125 408.1259765625 348.22967529296875 406.0980529785156 C 356.0781555175781 409.27252197265625 361.4769287109375 414.97998046875 364.38983154296875 422.5615539550781" stroke-width="0.0" fill="rgb(111, 170, 60)" opacity="1.0"/>
    <path d="M 260.8795166015625 384.78546142578125 C 258.8480224609375 392.3005065917969 253.2461700439453 397.69085693359375 245.39825439453125 399.3675842285156 C 237.50160217285156 396.9898681640625 232.03871154785156 391.4903869628906 230.5015106201172 384.16595458984375 C 232.16378784179688 376.59368896484375 237.55809020996094 371.0467834472656 245.00572204589844 369.0065002441406 C 252.47650146484375 371.0227966308594 257.9305725097656 376.53765869140625 260.8795166015625 384.78546142578125" stroke-width="0.0" fill="rgb(138, 133, 96)" opacity="1.0"/>
    <path d="M 545.4129638671875 176.60763549804688 C 543.4359130859375 184.0496826171875 538.1069946289062 189.59332275390625 530.3018188476562 192.77273559570312 C 522.7974243164062 190.76622009277344 517.3779907226562 185.14981079101562 515.5143432617188 177.39720153808594 C 518.1136474609375 169.63319396972656 523.6760864257812 164.25201416015625 530.71435546875 162.40777587890625 C 538.1138916015625 164.4766082763672 543.6536865234375 169.84347534179688 545.4129638671875 176.60763549804688" stroke-width="0.0" fill="rgb(229, 208, 143)" opacity="0.9900725"/>
    <path d="M 254.9109649658203 396.8018493652344 C 252.8846893310547 404.37109375 247.3669891357422 409.8746337890625 239.50140380859375 411.9210510253906 C 230.7450408935547 409.8127136230469 225.2760467529297 404.2161865234375 223.3411407470703 396.7479553222656 C 226.74681091308594 389.19940185546875 232.17926025390625 383.6875915527344 239.4092254638672 381.5198669433594 C 246.29364013671875 383.2254333496094 252.06002807617188 388.63983154296875 254.9109649658203 396.8018493652344" stroke-width="0.0" fill="rgb(111, 85, 63)" opacity="0.99007744"/>
    <path d="M 464.09771728515625 393.8818054199219 C 461.96881103515625 401.5420227050781 456.5385437011719 406.9454040527344 449.3941650390625 408.2494201660156 C 442.0229187011719 406.4010314941406 436.5563049316406 400.99261474609375 434.38336181640625 393.37847900390625 C 435.2991943359375 385.8481140136719 440.8934020996094 380.4339599609375 448.6856994628906 378.57183837890625 C 456.6141662597656 380.89581298828125 462.1332702636719 386.37738037109375 464.09771728515625 393.8818054199219" stroke-width="0.0" fill="rgb(173, 24, 13)" opacity="0.9900765"/>
    <path d="M 412.22662353515625 543.3400268554688 C 410.153564453125 550.658447265625 404.6312255859375 556.0842895507812 398.0964660644531 558.0344848632812 C 391.3917541503906 556.0767822265625 385.9157409667969 550.611572265625 383.958251953125 543.2432250976562 C 385.6493835449219 536.5634155273438 390.0794372558594 530.5083618164062 397.55560302734375 529.6102905273438 C 405.12109375 531.4761962890625 410.65667724609375 536.8345336914062 412.22662353515625 543.3400268554688" stroke-width="0.0" fill="rgb(19, 12, 5)" opacity="0.99001133"/>
    <path d="M 451.3286437988281 187.93878173828125 C 449.04498291015625 195.51803588867188 443.4980773925781 200.97776794433594 435.9229431152344 203.1177520751953 C 428.45361328125 201.09754943847656 423.251220703125 195.42958068847656 421.8277587890625 188.61279296875 C 423.8127136230469 181.25665283203125 429.2040100097656 175.61767578125 436.3025817871094 172.2142791748047 C 443.51318359375 174.77182006835938 449.0360412597656 180.55447387695312 451.3286437988281 187.93878173828125" stroke-width="0.0" fill="rgb(151, 17, 8)" opacity="0.99004227"/>
    <path d="M 259.12677001953125 370.6741638183594 C 257.3433837890625 378.0162048339844 252.21170043945312 383.98297119140625 244.92535400390625 385.6336975097656 C 237.2375946044922 384.2832946777344 231.73065185546875 378.7581787109375 229.77525329589844 371.1291198730469 C 232.0122528076172 363.4695129394531 237.3175811767578 357.6059875488281 244.72071838378906 355.3322448730469 C 252.96900939941406 357.4532165527344 257.6668395996094 363.22509765625 259.12677001953125 370.6741638183594" stroke-width="0.0" fill="rgb(210, 205, 197)" opacity="0.9900993"/>
    <path d="M 573.9348754882812 271.3224792480469 C 571.7887573242188 280.24578857421875 566.242431640625 285.7825622558594 557.6053466796875 287.9232482910156 C 549.8350830078125 285.78887939453125 545.5757446289062 279.8192443847656 543.8927001953125 271.33013916015625 C 544.7171630859375 264.7005310058594 551.029296875 259.72918701171875 558.8333129882812 257.6972961425781 C 566.36767578125 258.13006591796875 571.8851318359375 263.626708984375 573.9348754882812 271.3224792480469" stroke-width="0.0" fill="rgb(141, 19, 13)" opacity="0.9900227"/>
    <path d="M 435.19110107421875 358.1336364746094 C 433.52703857421875 365.1841735839844 428.2489929199219 370.6857604980469 421.3748474121094 372.19073486328125 C 414.06256103515625 370.33428955078125 408.3975524902344 365.02191162109375 405.5080871582031 357.6852722167969 C 407.5931091308594 350.16204833984375 413.24237060546875 344.8816833496094 421.168701171875 343.5316467285156 C 428.59588623046875 344.8136291503906 433.58233642578125 350.6399230957031 435.19110107421875 358.1336364746094" stroke-width="0.0" fill="rgb(155, 135, 105)" opacity="0.9900393"/>
    <path d="M 596.8788452148438 445.2716979980469 C 593.2864990234375 452.7994689941406 587.7752075195312 458.2162170410156 581.2040405273438 460.10504150390625 C 574.22900390625 458.20947265625 568.692138671875 452.8040771484375 566.448974609375 445.6895751953125 C 568.227783203125 438.77740478515625 573.8326416015625 433.4097900390625 581.2329711914062 431.466064453125 C 588.7112426757812 432.9244079589844 594.6505126953125 438.059326171875 596.8788452148438 445.2716979980469" stroke-width="0.0" fill="rgb(164, 123, 85)" opacity="0.99002385"/>
    <path d="M 211.86647033691406 255.4543914794922 C 210.64862060546875 263.19195556640625 205.25363159179688 268.8159484863281 197.58860778808594 270.91033935546875 C 189.05848693847656 268.6357421875 183.80064392089844 262.75787353515625 181.90126037597656 255.2269744873047 C 184.20899963378906 247.68968200683594 189.69822692871094 242.236328125 197.38067626953125 239.6136016845703 C 204.86453247070312 241.53713989257812 209.93585205078125 247.2731475830078 211.86647033691406 255.4543914794922" stroke-width="0.0" fill="rgb(229, 164, 97)" opacity="1.0"/>
    <path d="M 470.7436828613281 367.49652099609375 C 467.892822265625 375.24713134765625 462.13385009765625 380.5071716308594 455.2802429199219 382.21954345703125 C 448.1098937988281 380.3421936035156 442.5438537597656 374.9217834472656 439.26641845703125 367.4747619628906 C 441.55255126953125 360.30108642578125 447.52484130859375 355.1246032714844 454.8334655761719 353.454833984375 C 462.76727294921875 355.0826721191406 468.61627197265625 360.0340881347656 470.7436828613281 367.49652099609375" stroke-width="0.0" fill="rgb(237, 179, 145)" opacity="0.99005705"/>
    <path d="M 365.9150390625 148.2785186767578 C 363.8308410644531 156.30450439453125 358.29296875 161.80006408691406 349.5611877441406 163.87722778320312 C 341.7129211425781 161.8204345703125 336.212890625 156.2729949951172 334.116455078125 148.56129455566406 C 336.5799255371094 140.2985076904297 342.490966796875 135.1082305908203 350.5190124511719 132.59808349609375 C 358.25152587890625 134.26593017578125 363.810791015625 139.72201538085938 365.9150390625 148.2785186767578" stroke-width="0.0" fill="rgb(233, 108, 74)" opacity="1.0"/>
    <path d="M 286.91265869140625 423.64093017578125 C 284.8707275390625 431.35784912109375 279.355712890625 436.8653869628906 271.0909118652344 438.9232482910156 C 262.6456604003906 436.86517333984375 257.14105224609375 431.3518981933594 255.07144165039062 422.7976379394531 C 257.1462707519531 414.6720275878906 262.68292236328125 409.17291259765625 270.93017578125 407.0997009277344 C 279.26812744140625 409.2034912109375 284.789306640625 414.7344970703125 286.91265869140625 423.64093017578125" stroke-width="0.0" fill="rgb(209, 69, 49)" opacity="1.0"/>
    <path d="M 301.7356262207031 250.42384338378906 C 299.2463073730469 258.5860290527344 293.44378662109375 263.8252258300781 285.6813659667969 266.2202453613281 C 278.0950012207031 264.345458984375 272.463623046875 258.9659423828125 270.2164611816406 250.6810760498047 C 272.36822509765625 242.95571899414062 278.0210266113281 237.5546875 285.7786560058594 235.80136108398438 C 293.99371337890625 237.6466827392578 299.71722412109375 242.88739013671875 301.7356262207031 250.42384338378906" stroke-width="0.0" fill="rgb(207, 197, 177)" opacity="1.0"/>
    <path d="M 583.217041015625 400.1617736816406 C 581.4357299804688 406.9885559082031 575.9790649414062 412.40899658203125 568.5726318359375 414.3011779785156 C 561.3782348632812 413.1854248046875 556.3839721679688 407.4010009765625 554.5884399414062 399.3757629394531 C 555.2219848632812 391.69793701171875 560.670166015625 386.1418762207031 568.388427734375 384.0926208496094 C 576.98486328125 386.3166809082031 581.5387573242188 392.45648193359375 583.217041015625 400.1617736816406" stroke-width="0.0" fill="rgb(219, 146, 83)" opacity="0.9900863"/>
    <path d="M 264.3453674316406 169.83120727539062 C 262.55853271484375 177.12583923339844 257.1366271972656 182.59152221679688 249.85321044921875 184.5477752685547 C 242.8686981201172 182.70272827148438 237.6650390625 176.99549865722656 235.86959838867188 169.9365997314453 C 237.73733520507812 163.1776580810547 243.16807556152344 157.71200561523438 250.73211669921875 154.60940551757812 C 258.0675048828125 156.31431579589844 263.1404113769531 162.08807373046875 264.3453674316406 169.83120727539062" stroke-width="0.0" fill="rgb(203, 168, 80)" opacity="0.9900561"/>
  </g>
</svg>
