<?xml version="1.0" ?>
<svg xmlns="http://www.w3.org/2000/svg" version="1.1" width="600" height="600">
  <defs/>
  <g>
    <path d="M 156.47067260742188 190.3769989013672 C 154.5845489501953 198.03575134277344 149.0195770263672 203.54261779785156 140.72726440429688 205.76063537597656 C 132.89671325683594 203.663330078125 127.43053436279297 198.0692901611328 125.41941833496094 190.2965545654297 C 127.80028533935547 182.37330627441406 133.4239044189453 176.9629669189453 140.99012756347656 174.99378967285156 C 148.50009155273438 177.0093231201172 153.97998046875 182.5028533935547 156.47067260742188 190.3769989013672" stroke-width="0.0" fill="rgb(213, 213, 137)" opacity="0.99114764"/>
    <path d="M 217.81597900390625 534.7220458984375 C 215.82537841796875 542.3099365234375 210.3214874267578 547.8524780273438 201.8197784423828 549.9380493164062 C 193.63209533691406 547.8773803710938 188.1231689453125 542.3677368164062 186.0796661376953 534.6760864257812 C 188.25360107421875 525.8355712890625 193.93223571777344 520.5714111328125 201.61767578125 519.7281494140625 C 208.96395874023438 521.617431640625 214.59971618652344 526.970703125 217.81597900390625 534.7220458984375" stroke-width="0.0" fill="rgb(144, 94, 76)" opacity="0.99022514"/>
    <path d="M 229.80868530273438 284.64501953125 C 227.88150024414062 292.4466552734375 222.4859619140625 298.0145263671875 214.6990966796875 300.02935791015625 C 207.10414123535156 298.4964904785156 201.64300537109375 292.8444519042969 199.44097900390625 284.8807067871094 C 201.70188903808594 277.3507995605469 207.44674682617188 271.98797607421875 215.17971801757812 269.7989807128906 C 222.8765106201172 271.6272277832031 228.4283905029297 277.1063232421875 229.80868530273438 284.64501953125" stroke-width="0.0" fill="rgb(235, 221, 187)" opacity="1.0"/>
    <path d="M 372.9360656738281 87.8048324584961 C 370.8422546386719 96.3002700805664 365.2673034667969 101.75814819335938 356.71319580078125 103.84925842285156 C 348.77996826171875 101.75870513916016 343.23785400390625 96.22154998779297 341.11761474609375 87.58489990234375 C 343.15948486328125 79.66801452636719 348.6618347167969 74.14328002929688 356.41168212890625 72.08881378173828 C 365.28564453125 74.20346069335938 370.8467102050781 79.69300842285156 372.9360656738281 87.8048324584961" stroke-width="0.0" fill="rgb(167, 122, 51)" opacity="1.0"/>
    <path d="M 133.82933044433594 275.3094482421875 C 131.77024841308594 283.24652099609375 126.25023651123047 288.7796936035156 118.59933471679688 290.7957458496094 C 110.13292694091797 288.410888671875 104.61666870117188 282.859130859375 102.42060852050781 274.7745666503906 C 104.63489532470703 267.2555847167969 110.36370086669922 261.991455078125 118.27996063232422 260.0481872558594 C 126.04063415527344 261.50103759765625 131.6836395263672 266.8945617675781 133.82933044433594 275.3094482421875" stroke-width="0.0" fill="rgb(232, 192, 206)" opacity="1.0"/>
    <path d="M 497.35101318359375 344.4672546386719 C 494.9811706542969 352.5232238769531 489.5294494628906 358.01007080078125 482.0875244140625 359.8699645996094 C 474.59466552734375 357.84417724609375 469.02777099609375 352.44403076171875 466.9834289550781 345.0074462890625 C 469.020263671875 337.51666259765625 474.5247497558594 332.04730224609375 482.5124816894531 329.3365783691406 C 489.9547424316406 331.4337158203125 495.5014953613281 337.0740966796875 497.35101318359375 344.4672546386719" stroke-width="0.0" fill="rgb(238, 234, 213)" opacity="1.0"/>
    <path d="M 387.9051818847656 123.108154296875 C 385.8160095214844 131.2763671875 380.2536926269531 136.75938415527344 371.41217041015625 138.89015197753906 C 363.67315673828125 136.8472900390625 358.1726379394531 131.3190460205078 356.1495361328125 123.53565979003906 C 358.33575439453125 114.87240600585938 363.8427429199219 109.26721954345703 372.596435546875 107.08248138427734 C 380.3249816894531 109.1500015258789 385.8281555175781 114.683837890625 387.9051818847656 123.108154296875" stroke-width="0.0" fill="rgb(180, 113, 91)" opacity="1.0"/>
    <path d="M 465.8245544433594 150.1852569580078 C 463.67987060546875 158.16262817382812 458.2063293457031 163.7799835205078 450.4050598144531 165.89227294921875 C 441.7087097167969 163.80201721191406 436.1689453125 158.302734375 434.15252685546875 150.74574279785156 C 436.97021484375 142.4116973876953 442.2691955566406 136.5771942138672 450.1656188964844 134.19400024414062 C 458.012939453125 136.40652465820312 463.58795166015625 141.98995971679688 465.8245544433594 150.1852569580078" stroke-width="0.0" fill="rgb(202, 197, 124)" opacity="1.0"/>
    <path d="M 283.575927734375 46.79860305786133 C 282.7717590332031 54.25727844238281 277.27520751953125 59.81486511230469 269.34674072265625 61.909645080566406 C 260.9447021484375 59.712764739990234 255.77255249023438 53.87136459350586 253.53977966308594 45.79871368408203 C 256.0702819824219 38.97161102294922 262.1451416015625 33.77382278442383 268.84295654296875 31.913122177124023 C 275.712158203125 33.827789306640625 281.1748046875 39.28689193725586 283.575927734375 46.79860305786133" stroke-width="0.0" fill="rgb(172, 119, 40)" opacity="0.9900234"/>
    <path d="M 66.0 449.0 C 63.990379333496094 456.5 58.5 461.9903869628906 51.0 464.0 C 43.5 461.9903869628906 38.009620666503906 456.5 35.99956512451172 448.9979553222656 C 37.991886138916016 441.4589538574219 43.42365646362305 435.8778381347656 51.173789978027344 434.4940490722656 C 58.5 436.0096130371094 63.990379333496094 441.5 66.0 449.0" stroke-width="0.0" fill="rgb(92, 6, 2)" opacity="0.99121135"/>
    <path d="M 494.7099914550781 443.65850830078125 C 492.830810546875 451.3386535644531 487.35797119140625 456.8817443847656 479.6211853027344 458.935546875 C 470.67852783203125 456.8426513671875 465.1791687011719 451.3130798339844 463.1370849609375 442.8581848144531 C 465.1541748046875 434.65594482421875 470.651123046875 429.1405334472656 478.3359680175781 427.1148986816406 C 486.9432373046875 429.39111328125 492.15997314453125 435.22064208984375 494.7099914550781 443.65850830078125" stroke-width="0.0" fill="rgb(184, 62, 37)" opacity="1.0"/>
    <path d="M 401.88427734375 404.6098327636719 C 399.676025390625 413.02880859375 393.813232421875 417.89227294921875 385.76776123046875 419.5652160644531 C 378.5 417.9903869628906 373.0096130371094 412.5 370.9042053222656 404.8708190917969 C 372.6271667480469 397.02484130859375 377.93023681640625 391.3388671875 385.9403076171875 389.24627685546875 C 394.20489501953125 391.29779052734375 399.7903747558594 396.76104736328125 401.88427734375 404.6098327636719" stroke-width="0.0" fill="rgb(193, 158, 93)" opacity="1.0"/>
    <path d="M 255.87062072753906 161.33180236816406 C 253.8109893798828 169.2996826171875 248.3135223388672 174.8444061279297 240.76463317871094 176.85659790039062 C 232.50013732910156 173.99034118652344 227.0174560546875 168.49774169921875 224.329833984375 160.36441040039062 C 226.20884704589844 152.7342071533203 231.73634338378906 147.2140350341797 239.47911071777344 145.20590209960938 C 248.1399688720703 147.3365020751953 253.716064453125 152.84010314941406 255.87062072753906 161.33180236816406" stroke-width="0.0" fill="rgb(182, 45, 17)" opacity="0.99008286"/>
    <path d="M 174.52964782714844 150.04629516601562 C 172.29400634765625 157.64683532714844 166.5524139404297 163.0117645263672 158.6927032470703 165.4446258544922 C 151.32919311523438 163.3983154296875 146.23875427246094 157.416015625 143.7206573486328 149.77723693847656 C 145.6464080810547 142.1732635498047 151.1604461669922 136.60992431640625 159.5279083251953 134.31214904785156 C 167.0384979248047 136.3623504638672 172.47825622558594 142.02398681640625 174.52964782714844 150.04629516601562" stroke-width="0.0" fill="rgb(238, 233, 178)" opacity="1.0"/>
    <path d="M 451.814453125 476.27569580078125 C 448.9143981933594 484.5629577636719 443.68682861328125 490.309814453125 436.2282409667969 492.35748291015625 C 428.5 489.9903869628906 423.0096130371094 484.5 421.0 477.0 C 423.0096130371094 469.5 428.5 464.0096130371094 436.70428466796875 461.2091979980469 C 444.30450439453125 463.1753234863281 449.82135009765625 468.69696044921875 451.814453125 476.27569580078125" stroke-width="0.0" fill="rgb(251, 185, 125)" opacity="1.0"/>
    <path d="M 567.0684204101562 184.89671325683594 C 565.0225219726562 192.56207275390625 559.6201782226562 198.20703125 552.1731567382812 200.33209228515625 C 544.4995727539062 197.99180603027344 539.0094604492188 192.50009155273438 536.5040283203125 184.61761474609375 C 538.3916015625 176.8353729248047 543.7667236328125 171.20053100585938 552.48779296875 169.07884216308594 C 560.1901245117188 171.19557189941406 565.3784790039062 176.9659881591797 567.0684204101562 184.89671325683594" stroke-width="0.0" fill="rgb(225, 150, 135)" opacity="1.0"/>
    <path d="M 85.86829376220703 242.53326416015625 C 83.71378326416016 250.0148162841797 77.34049224853516 254.36251831054688 69.25801086425781 256.1869201660156 C 61.750057220458984 255.748046875 56.19010543823242 250.27281188964844 54.1508903503418 242.73561096191406 C 57.009578704833984 234.49998474121094 62.5 229.00961303710938 70.00548553466797 226.9976806640625 C 77.60130310058594 228.9651641845703 83.4433364868164 234.2499237060547 85.86829376220703 242.53326416015625" stroke-width="0.0" fill="rgb(175, 50, 33)" opacity="0.9901041"/>
    <path d="M 241.87327575683594 329.1927795410156 C 238.54281616210938 337.2076110839844 233.3284454345703 342.89727783203125 226.61521911621094 344.23590087890625 C 219.15367126464844 342.26519775390625 213.5213165283203 336.91156005859375 210.0826416015625 329.1636962890625 C 212.11239624023438 321.62249755859375 217.61753845214844 316.1015625 225.18365478515625 314.0823669433594 C 234.29306030273438 316.2420959472656 239.86380004882812 321.6700134277344 241.87327575683594 329.1927795410156" stroke-width="0.0" fill="rgb(88, 82, 21)" opacity="0.99003637"/>
    <path d="M 186.93777465820312 289.98712158203125 C 184.82716369628906 298.2608642578125 179.2081298828125 303.7056884765625 170.3396759033203 305.8878479003906 C 162.66079711914062 303.8551330566406 157.14385986328125 298.3394470214844 155.07118225097656 290.097900390625 C 157.1499481201172 281.67919921875 162.69354248046875 276.1846008300781 171.45108032226562 274.092529296875 C 179.34765625 276.1423034667969 184.8648681640625 281.6496276855469 186.93777465820312 289.98712158203125" stroke-width="0.0" fill="rgb(190, 74, 52)" opacity="1.0"/>
    <path d="M 338.6783142089844 391.51568603515625 C 336.6236267089844 399.00433349609375 330.89471435546875 404.31134033203125 322.9631652832031 406.40716552734375 C 315.1598815917969 404.30712890625 309.4895324707031 398.9100341796875 307.4375915527344 391.4253234863281 C 310.0018005371094 383.4994201660156 315.4673156738281 377.8927917480469 322.9736633300781 375.57611083984375 C 330.558837890625 377.8832092285156 336.0302429199219 383.4661560058594 338.6783142089844 391.51568603515625" stroke-width="0.0" fill="rgb(237, 220, 184)" opacity="1.0"/>
    <path d="M 421.9208679199219 334.33905029296875 C 419.8504943847656 343.3439025878906 414.35198974609375 348.8710021972656 405.5511169433594 350.9443359375 C 397.6167907714844 348.8930969238281 392.1089782714844 343.3824157714844 390.0557861328125 335.24371337890625 C 392.1378173828125 326.6575012207031 397.6592712402344 321.1423645019531 406.5716247558594 319.060546875 C 414.3778991699219 321.1088562011719 419.8848876953125 326.6247863769531 421.9208679199219 334.33905029296875" stroke-width="0.0" fill="rgb(64, 73, 1)" opacity="1.0"/>
    <path d="M 434.43524169921875 477.3411865234375 C 432.50579833984375 484.90521240234375 426.8117980957031 490.2176513671875 418.2864685058594 492.7555847167969 C 410.6268005371094 490.86529541015625 405.1016540527344 485.3851623535156 403.0558776855469 477.74298095703125 C 405.2089538574219 468.7920227050781 410.8866271972656 463.4786376953125 418.7755432128906 461.8128662109375 C 426.5 464.0096130371094 431.9903869628906 469.5 434.43524169921875 477.3411865234375" stroke-width="0.0" fill="rgb(84, 87, 83)" opacity="1.0"/>
    <path d="M 247.8770294189453 302.731689453125 C 245.7390594482422 311.24468994140625 240.2873992919922 316.8399353027344 232.77467346191406 318.8667907714844 C 224.50050354003906 315.98858642578125 219.00961303710938 310.4999694824219 217.0 303.0 C 219.0095977783203 295.4999694824219 224.49911499023438 290.0064392089844 232.6689453125 287.2170104980469 C 240.276123046875 289.20184326171875 245.80160522460938 294.7224426269531 247.8770294189453 302.731689453125" stroke-width="0.0" fill="rgb(102, 144, 51)" opacity="1.0"/>
    <path d="M 513.9020385742188 436.79095458984375 C 511.86358642578125 445.3672790527344 506.3778381347656 450.8918151855469 498.5182189941406 452.94561767578125 C 489.7712707519531 450.8254699707031 484.5418701171875 445.0960388183594 482.8837890625 437.0364074707031 C 484.6140441894531 429.01031494140625 489.9077453613281 423.3088073730469 498.0035095214844 421.14642333984375 C 506.2261657714844 423.2747802734375 511.828857421875 428.72900390625 513.9020385742188 436.79095458984375" stroke-width="0.0" fill="rgb(132, 62, 45)" opacity="0.9900518"/>
    <path d="M 166.00001525878906 113.99996948242188 C 163.99026489257812 121.49948120117188 158.48995971679688 126.95584869384766 150.27944946289062 129.77328491210938 C 142.71568298339844 127.81254577636719 137.189453125 122.28338623046875 135.0671844482422 113.31562805175781 C 137.10675048828125 105.61627197265625 142.61683654785156 100.10803985595703 150.17431640625 98.10353088378906 C 158.50930786132812 100.98216247558594 163.990966796875 106.49822998046875 166.00001525878906 113.99996948242188" stroke-width="0.0" fill="rgb(144, 18, 3)" opacity="0.99082655"/>
    <path d="M 441.90521240234375 466.369140625 C 439.6712341308594 475.03436279296875 433.86993408203125 480.16058349609375 426.1722717285156 481.47705078125 C 418.7944641113281 479.6507873535156 413.34716796875 474.2059631347656 410.230224609375 466.26275634765625 C 412.1585998535156 458.6578063964844 417.64398193359375 453.12335205078125 425.89697265625 451.0596923828125 C 434.3534851074219 453.12677001953125 439.8587646484375 458.65252685546875 441.90521240234375 466.369140625" stroke-width="0.0" fill="rgb(160, 59, 52)" opacity="1.0"/>
    <path d="M 216.13357543945312 267.0994873046875 C 214.1956787109375 274.67352294921875 208.6696319580078 280.1878662109375 200.2937469482422 282.8478088378906 C 192.7144012451172 280.8202819824219 187.26234436035156 275.2565612792969 185.4525146484375 267.4795837402344 C 187.7288818359375 259.1391296386719 193.03550720214844 253.42135620117188 200.57179260253906 251.33975219726562 C 208.54624938964844 253.896484375 213.99574279785156 259.4859924316406 216.13357543945312 267.0994873046875" stroke-width="0.0" fill="rgb(229, 173, 125)" opacity="1.0"/>
    <path d="M 66.00000762939453 451.0000305175781 C 63.99094009399414 458.50189208984375 58.52334976196289 464.0659484863281 50.89906692504883 466.7745056152344 C 43.438167572021484 464.1619873046875 38.00639724731445 458.5099182128906 35.999942779541016 451.00018310546875 C 38.009620666503906 443.5 43.5 438.0096130371094 51.0 436.0 C 58.5 438.0096130371094 63.990379333496094 443.5 66.00000762939453 451.0000305175781" stroke-width="0.0" fill="rgb(91, 6, 1)" opacity="1.0"/>
    <path d="M 586.9379272460938 196.61822509765625 C 584.872314453125 204.34707641601562 579.331787109375 209.8346405029297 570.5846557617188 211.91065979003906 C 562.7073364257812 209.8390655517578 557.28125 204.2482147216797 556.3681030273438 196.52029418945312 C 558.145751953125 188.51390075683594 563.451416015625 182.94261169433594 571.0700073242188 180.91311645507812 C 578.9439697265625 182.68601989746094 584.7451171875 187.8931427001953 586.9379272460938 196.61822509765625" stroke-width="0.0" fill="rgb(176, 46, 27)" opacity="1.0"/>
    <path d="M 583.270751953125 305.2761535644531 C 581.5460815429688 313.096435546875 576.1597290039062 318.7297668457031 568.0307006835938 320.85577392578125 C 559.7153930664062 318.78173828125 554.1565551757812 313.3087463378906 552.0887451171875 305.5520935058594 C 554.2217407226562 296.7536926269531 559.750244140625 291.2147216796875 567.3308715820312 289.2121276855469 C 575.5014038085938 292.0047607421875 580.9904174804688 297.4998779296875 583.270751953125 305.2761535644531" stroke-width="0.0" fill="rgb(196, 139, 133)" opacity="1.0"/>
    <path d="M 245.8769989013672 302.9434509277344 C 243.92108154296875 310.4789733886719 238.52120971679688 316.058837890625 230.468505859375 318.5259704589844 C 222.70065307617188 316.7785339355469 217.1414031982422 311.3278503417969 215.06675720214844 303.4285888671875 C 217.18511962890625 294.7286682128906 222.74740600585938 289.229736328125 230.3369598388672 287.1934814453125 C 238.49171447753906 290.0157470703125 243.9932098388672 295.5054016113281 245.8769989013672 302.9434509277344" stroke-width="0.0" fill="rgb(95, 136, 39)" opacity="1.0"/>
    <path d="M 401.73712158203125 378.6037292480469 C 399.7278747558594 386.1937561035156 394.18023681640625 391.68939208984375 385.62884521484375 393.7779846191406 C 377.7623291015625 391.7636413574219 372.2348937988281 386.237548828125 370.19158935546875 378.6288146972656 C 372.50958251953125 369.9554748535156 377.8993225097656 364.338134765625 385.5124816894531 362.4143981933594 C 393.5 365.0096130371094 398.9898681640625 370.5001525878906 401.73712158203125 378.6037292480469" stroke-width="0.0" fill="rgb(217, 121, 124)" opacity="1.0"/>
    <path d="M 362.8343200683594 284.3228454589844 C 360.54058837890625 291.7646789550781 354.32562255859375 296.5565490722656 346.365234375 298.90435791015625 C 338.7663269042969 297.7349548339844 333.2057800292969 292.2555236816406 331.0711975097656 283.3730163574219 C 333.134765625 275.66912841796875 338.70263671875 270.2273254394531 346.411865234375 269.3714294433594 C 354.6694641113281 271.0620422363281 360.473388671875 276.1735534667969 362.8343200683594 284.3228454589844" stroke-width="0.0" fill="rgb(207, 143, 85)" opacity="0.99007463"/>
    <path d="M 187.9591522216797 360.7454833984375 C 185.8912811279297 369.37646484375 180.3743438720703 374.88629150390625 172.06076049804688 376.94580078125 C 163.63809204101562 374.8775634765625 158.12255859375 369.36181640625 156.04896545410156 360.5184326171875 C 158.1046142578125 352.61822509765625 163.62005615234375 347.10870361328125 171.67527770996094 345.0552673339844 C 180.3749237060547 347.1152648925781 185.89833068847656 352.6190490722656 187.9591522216797 360.7454833984375" stroke-width="0.0" fill="rgb(130, 14, 2)" opacity="1.0"/>
    <path d="M 269.9377136230469 99.36536407470703 C 267.8803405761719 107.36762237548828 262.36956787109375 112.884765625 254.5282745361328 114.93994140625 C 245.66302490234375 112.85899353027344 240.15818786621094 107.3299560546875 238.09129333496094 99.37903594970703 C 240.20179748535156 90.73149871826172 245.74639892578125 85.24162292480469 254.5268096923828 83.13043975830078 C 262.3299560546875 85.16362762451172 267.8648376464844 90.65846252441406 269.9377136230469 99.36536407470703" stroke-width="0.0" fill="rgb(190, 52, 23)" opacity="1.0"/>
    <path d="M 294.8404846191406 288.7561340332031 C 292.83721923828125 296.3197326660156 287.3183288574219 301.8331298828125 278.39794921875 303.92913818359375 C 270.6597900390625 301.8669128417969 265.1526794433594 296.3316345214844 263.1170349121094 288.71783447265625 C 265.6531982421875 280.3149108886719 271.42529296875 274.97509765625 278.9951171875 272.9976806640625 C 286.49969482421875 275.00970458984375 291.975830078125 280.5042419433594 294.8404846191406 288.7561340332031" stroke-width="0.0" fill="rgb(156, 183, 89)" opacity="1.0"/>
    <path d="M 504.6575927734375 364.8916015625 C 502.873046875 372.4241638183594 497.4579772949219 377.98809814453125 490.302490234375 379.3371887207031 C 482.0458068847656 378.2773742675781 476.3451843261719 373.06280517578125 475.80975341796875 365.7019348144531 C 477.3048095703125 357.6193542480469 482.5436096191406 352.0827941894531 490.09906005859375 350.1031188964844 C 497.6264343261719 351.8489990234375 503.0113525390625 357.4154968261719 504.6575927734375 364.8916015625" stroke-width="0.0" fill="rgb(249, 248, 235)" opacity="1.0"/>
    <path d="M 342.6813659667969 511.61419677734375 C 340.7852478027344 519.2719116210938 335.277099609375 524.8010864257812 327.62359619140625 526.8328857421875 C 319.2259216308594 524.3760375976562 313.64031982421875 518.7717895507812 311.2745666503906 510.5675354003906 C 313.3067321777344 502.82916259765625 318.80621337890625 497.24908447265625 326.32330322265625 495.1849365234375 C 334.5 498.0096130371094 339.9903869628906 503.5 342.6813659667969 511.61419677734375" stroke-width="0.0" fill="rgb(248, 232, 178)" opacity="1.0"/>
    <path d="M 509.0934143066406 216.36036682128906 C 507.3406066894531 223.2389373779297 502.9730529785156 229.7016143798828 494.4161376953125 231.91110229492188 C 486.65496826171875 229.860595703125 481.1361083984375 224.34620666503906 479.0627746582031 216.19732666015625 C 481.1627502441406 207.72789001464844 486.80828857421875 202.39468383789062 494.2210693359375 201.90017700195312 C 501.6776123046875 203.8657989501953 507.1591491699219 209.31253051757812 509.0934143066406 216.36036682128906" stroke-width="0.0" fill="rgb(177, 24, 11)" opacity="0.9900152"/>
    <path d="M 313.2228698730469 347.243408203125 C 311.5258483886719 355.09375 306.1645202636719 360.7356262207031 298.0648193359375 362.8315124511719 C 289.73529052734375 360.7730407714844 284.2027282714844 355.2733459472656 282.1795959472656 347.6274719238281 C 284.49658203125 338.9579772949219 289.87994384765625 333.2882080078125 297.5494384765625 331.1617126464844 C 305.7050476074219 333.6061706542969 311.0191650390625 339.4289855957031 313.2228698730469 347.243408203125" stroke-width="0.0" fill="rgb(207, 127, 122)" opacity="1.0"/>
    <path d="M 440.7466735839844 497.6187438964844 C 438.74261474609375 505.2070007324219 433.2021179199219 510.7308654785156 425.2696533203125 512.8135986328125 C 416.8202819824219 510.68768310546875 411.2073059082031 505.2240905761719 409.06707763671875 496.79150390625 C 411.2107238769531 488.85968017578125 417.1414794921875 484.2085266113281 425.233642578125 482.6167907714844 C 432.3302001953125 484.12939453125 437.7558898925781 489.70697021484375 440.7466735839844 497.6187438964844" stroke-width="0.0" fill="rgb(161, 110, 62)" opacity="1.0"/>
    <path d="M 22.90113639831543 250.56614685058594 C 20.805362701416016 258.2505798339844 15.23651123046875 263.77520751953125 7.027031421661377 265.9079284667969 C -1.0963108539581299 263.7324523925781 -6.298282623291016 257.9367980957031 -8.09861946105957 249.99908447265625 C -6.294869899749756 242.07406616210938 -1.0663528442382812 236.30589294433594 6.880356311798096 234.1592254638672 C 15.20615291595459 236.2655029296875 20.724714279174805 241.7979736328125 22.90113639831543 250.56614685058594" stroke-width="0.0" fill="rgb(204, 173, 90)" opacity="1.0"/>
    <path d="M 571.834228515625 355.9771728515625 C 569.7388916015625 364.2066345214844 564.196044921875 369.7121887207031 556.5835571289062 371.742919921875 C 549.1340942382812 368.37969970703125 543.5589599609375 362.8794860839844 540.179931640625 355.6363525390625 C 542.4471435546875 347.9619445800781 547.9326782226562 342.3727111816406 555.4646606445312 340.6159973144531 C 563.0559692382812 343.51519775390625 569.4727783203125 348.6884460449219 571.834228515625 355.9771728515625" stroke-width="0.0" fill="rgb(170, 50, 21)" opacity="0.99001986"/>
    <path d="M 174.9035186767578 390.51959228515625 C 172.85765075683594 398.3482971191406 167.35362243652344 403.8705749511719 159.37608337402344 405.9341735839844 C 150.69036865234375 403.8435363769531 145.17807006835938 398.2996826171875 143.0859832763672 390.31756591796875 C 145.18519592285156 381.7088317871094 150.7164764404297 376.2054138183594 159.36669921875 374.1234436035156 C 167.29598999023438 376.179443359375 172.79983520507812 381.7123107910156 174.9035186767578 390.51959228515625" stroke-width="0.0" fill="rgb(210, 70, 48)" opacity="1.0"/>
    <path d="M 148.86041259765625 91.45489501953125 C 146.813232421875 99.29692840576172 141.30496215820312 104.8337631225586 133.2730712890625 106.92022705078125 C 124.6724624633789 104.8440933227539 119.16608428955078 99.32353210449219 117.14376831054688 91.66373443603516 C 119.46875 82.98359680175781 124.93244934082031 77.34268951416016 133.44491577148438 75.1330795288086 C 141.21139526367188 77.23584747314453 146.71017456054688 82.81098175048828 148.86041259765625 91.45489501953125" stroke-width="0.0" fill="rgb(231, 153, 104)" opacity="1.0"/>
    <path d="M 184.08216857910156 167.07115173339844 C 182.35275268554688 174.99349975585938 177.13792419433594 180.75686645507812 169.49234008789062 182.896240234375 C 161.24754333496094 180.5394744873047 156.46620178222656 174.29788208007812 154.79551696777344 166.83883666992188 C 156.62326049804688 160.10894775390625 162.1118927001953 154.63258361816406 169.6823272705078 151.27972412109375 C 176.9918212890625 153.34298706054688 182.17735290527344 159.18601989746094 184.08216857910156 167.07115173339844" stroke-width="0.0" fill="rgb(99, 142, 3)" opacity="0.9900454"/>
    <path d="M 506.9216003417969 302.14892578125 C 504.8437805175781 310.3280334472656 499.3331298828125 315.8555603027344 491.71759033203125 317.8738098144531 C 482.79876708984375 315.70281982421875 477.2685241699219 310.2108154296875 475.1216125488281 301.327880859375 C 477.1519470214844 293.6737365722656 482.68743896484375 288.18914794921875 491.1272277832031 286.185302734375 C 499.2644348144531 288.23358154296875 504.83209228515625 293.70867919921875 506.9216003417969 302.14892578125" stroke-width="0.0" fill="rgb(158, 54, 40)" opacity="0.99007326"/>
    <path d="M 157.31101989746094 178.95217895507812 C 155.09478759765625 186.55857849121094 149.5311279296875 192.00050354003906 141.97119140625 193.9062957763672 C 134.3934783935547 192.05430603027344 128.69236755371094 186.68934631347656 126.33058166503906 178.93186950683594 C 128.7298126220703 171.3687286376953 134.4551239013672 165.99148559570312 142.0326385498047 163.97142028808594 C 149.65708923339844 165.88926696777344 155.2785186767578 171.2904510498047 157.31101989746094 178.95217895507812" stroke-width="0.0" fill="rgb(229, 219, 162)" opacity="1.0"/>
    <path d="M 25.78082275390625 436.498779296875 C 23.608367919921875 445.1257019042969 18.172189712524414 450.73577880859375 10.049552917480469 452.86578369140625 C 1.9135560989379883 450.7157897949219 -3.3072433471679688 444.9400634765625 -5.0752177238464355 437.0711364746094 C -3.0492687225341797 429.43572998046875 2.4247312545776367 423.9132995605469 10.532122611999512 421.29302978515625 C 18.14744758605957 423.31689453125 23.720659255981445 428.8371276855469 25.78082275390625 436.498779296875" stroke-width="0.0" fill="rgb(202, 183, 153)" opacity="1.0"/>
    <path d="M 310.94012451171875 472.5260314941406 C 308.86236572265625 481.3485412597656 303.35113525390625 486.86822509765625 295.7896728515625 488.86956787109375 C 287.5 485.99041748046875 282.0096130371094 480.5 279.0945739746094 472.1598205566406 C 281.1019287109375 464.61285400390625 286.6158752441406 459.10894775390625 294.7425842285156 457.0541076660156 C 303.3650817871094 459.1224060058594 308.88897705078125 464.62957763671875 310.94012451171875 472.5260314941406" stroke-width="0.0" fill="rgb(99, 32, 3)" opacity="1.0"/>
    <path d="M 24.609006881713867 524.4110107421875 C 22.31048583984375 531.040283203125 15.806631088256836 536.177001953125 8.778274536132812 538.0664672851562 C 2.2221195697784424 536.1817626953125 -3.440647840499878 530.8671875 -5.926536560058594 523.6558837890625 C -4.465507507324219 515.93212890625 0.8448765873908997 510.26715087890625 8.406477928161621 508.30072021484375 C 16.5 511.0096130371094 21.990381240844727 516.5 24.609006881713867 524.4110107421875" stroke-width="0.0" fill="rgb(127, 80, 36)" opacity="0.99004936"/>
    <path d="M 34.87907791137695 514.5227661132812 C 32.81214141845703 522.288330078125 27.285907745361328 527.8047485351562 19.6771240234375 529.7083129882812 C 11.6367826461792 526.8045654296875 6.1275315284729 521.3839111328125 3.5245909690856934 513.5642700195312 C 5.379098415374756 505.9097900390625 10.94278621673584 500.49041748046875 19.068782806396484 499.2918395996094 C 26.963899612426758 500.5752258300781 32.66309356689453 505.94696044921875 34.87907791137695 514.5227661132812" stroke-width="0.0" fill="rgb(168, 114, 65)" opacity="0.9900876"/>
    <path d="M 119.88687896728516 493.77679443359375 C 117.75462341308594 502.2059631347656 112.19064331054688 507.71759033203125 104.60098266601562 509.71539306640625 C 95.89544677734375 507.410888671875 90.1705322265625 502.2388916015625 88.07964324951172 494.624267578125 C 90.20526123046875 485.7176208496094 95.70014190673828 480.1632385253906 103.72581481933594 478.0736999511719 C 112.3215103149414 480.1525573730469 117.81327819824219 485.69219970703125 119.88687896728516 493.77679443359375" stroke-width="0.0" fill="rgb(211, 129, 109)" opacity="1.0"/>
    <path d="M 209.4508514404297 46.8284912109375 C 207.8271484375 54.307586669921875 202.31398010253906 59.84275436401367 194.60569763183594 61.917503356933594 C 185.7184295654297 59.79302215576172 180.17811584472656 54.293243408203125 179.6178436279297 46.828102111816406 C 181.80499267578125 39.259708404541016 187.2603759765625 33.80595397949219 193.86541748046875 31.894865036010742 C 200.73118591308594 33.8132209777832 206.18911743164062 39.2678108215332 209.4508514404297 46.8284912109375" stroke-width="0.0" fill="rgb(178, 140, 44)" opacity="0.99001783"/>
    <path d="M 257.7660827636719 256.7213134765625 C 255.53538513183594 264.9649658203125 249.95550537109375 270.514892578125 241.41673278808594 272.8525695800781 C 233.76974487304688 270.7837219238281 228.35853576660156 265.1806945800781 226.55303955078125 257.3249816894531 C 228.8040771484375 249.3460235595703 234.38265991210938 243.92340087890625 242.59954833984375 241.2863006591797 C 250.1862335205078 243.25802612304688 255.6599578857422 248.8465118408203 257.7660827636719 256.7213134765625" stroke-width="0.0" fill="rgb(214, 132, 129)" opacity="1.0"/>
    <path d="M 194.80477905273438 262.6692199707031 C 192.80374145507812 270.30877685546875 187.33346557617188 275.86553955078125 179.55142211914062 277.9338073730469 C 170.87522888183594 275.7585144042969 165.68563842773438 269.9593200683594 163.94569396972656 262.0831604003906 C 165.9837188720703 254.43675231933594 171.32598876953125 248.6614227294922 178.4407501220703 247.4764862060547 C 186.1020965576172 249.48831176757812 191.67283630371094 254.84933471679688 194.80477905273438 262.6692199707031" stroke-width="0.0" fill="rgb(136, 21, 2)" opacity="0.99017507"/>
    <path d="M 77.94438934326172 441.6416320800781 C 75.83576965332031 450.2480163574219 70.12713623046875 455.4971923828125 62.1810417175293 457.127685546875 C 54.5 454.9903869628906 49.009620666503906 449.5 46.78240203857422 441.76812744140625 C 48.498416900634766 433.9327697753906 53.8537483215332 428.27099609375 62.61737823486328 426.0896301269531 C 70.33515167236328 428.1512756347656 75.87291717529297 433.6541442871094 77.94438934326172 441.6416320800781" stroke-width="0.0" fill="rgb(38, 64, 3)" opacity="0.99063724"/>
    <path d="M 168.9506378173828 113.93376922607422 C 166.75999450683594 121.18955993652344 161.0720977783203 126.41976928710938 153.47872924804688 128.21920776367188 C 146.50538635253906 126.97158813476562 141.00909423828125 121.49991607666016 139.002685546875 114.00208282470703 C 141.01312255859375 106.50347137451172 146.50439453125 101.01627349853516 154.00408935546875 99.00792694091797 C 161.5 101.0096206665039 166.99038696289062 106.5 168.9506378173828 113.93376922607422" stroke-width="0.0" fill="rgb(142, 16, 7)" opacity="0.99045557"/>
    <path d="M 316.45782470703125 203.32456970214844 C 314.48699951171875 210.9320526123047 308.9044189453125 216.3988037109375 300.946044921875 218.26922607421875 C 293.1391906738281 216.32504272460938 287.4003601074219 210.96469116210938 285.25543212890625 203.22085571289062 C 287.4093017578125 194.90370178222656 292.8407897949219 189.25486755371094 300.449951171875 187.17965698242188 C 308.9776916503906 189.42623901367188 314.2828369140625 195.11553955078125 316.45782470703125 203.32456970214844" stroke-width="0.0" fill="rgb(250, 242, 191)" opacity="1.0"/>
    <path d="M 354.9439392089844 499.288818359375 C 352.64788818359375 507.5987548828125 346.0283203125 512.3802490234375 338.95135498046875 514.1787109375 C 331.4385986328125 512.5198364257812 325.27899169921875 508.02630615234375 323.0665283203125 499.2652587890625 C 325.10260009765625 491.6123046875 330.61376953125 486.1058654785156 339.36328125 484.0483703613281 C 347.3697814941406 486.1091003417969 352.8815002441406 491.6346740722656 354.9439392089844 499.288818359375" stroke-width="0.0" fill="rgb(160, 52, 44)" opacity="1.0"/>
    <path d="M 587.771484375 177.67442321777344 C 585.484130859375 185.88671875 579.8121948242188 191.25819396972656 572.3974609375 192.33450317382812 C 564.8187866210938 190.57125854492188 559.3154907226562 185.2210693359375 556.8491821289062 177.50027465820312 C 558.3358764648438 169.84571838378906 563.8558349609375 164.3698272705078 571.7093505859375 163.1457061767578 C 579.9057006835938 164.7239227294922 585.622314453125 169.98468017578125 587.771484375 177.67442321777344" stroke-width="0.0" fill="rgb(217, 186, 139)" opacity="0.9903207"/>
    <path d="M 211.942138671875 389.5771789550781 C 209.8531036376953 398.3413391113281 204.3524169921875 403.8780212402344 196.57781982421875 405.9425048828125 C 187.70455932617188 403.83203125 182.20228576660156 398.2807312011719 180.09483337402344 389.484375 C 182.129150390625 381.642333984375 187.64430236816406 376.13287353515625 196.3636474609375 374.0538024902344 C 204.37237548828125 376.11395263671875 209.8823699951172 381.629150390625 211.942138671875 389.5771789550781" stroke-width="0.0" fill="rgb(162, 49, 29)" opacity="1.0"/>
    <path d="M 326.9399719238281 342.4451904296875 C 324.8772277832031 350.3473205566406 319.3285217285156 355.8332214355469 311.68572998046875 357.8809814453125 C 304.015869140625 354.73272705078125 298.6595153808594 348.90020751953125 295.3993225097656 341.3177795410156 C 297.2389831542969 333.72186279296875 302.6878356933594 328.1492919921875 311.46197509765625 326.0610046386719 C 319.367919921875 328.118408203125 324.87469482421875 333.6349182128906 326.9399719238281 342.4451904296875" stroke-width="0.0" fill="rgb(151, 25, 4)" opacity="0.99010885"/>
    <path d="M 250.94178771972656 581.1345825195312 C 248.8679656982422 589.3306884765625 243.28762817382812 594.741943359375 235.2082977294922 595.4464721679688 C 227.9835205078125 594.1318969726562 222.8378448486328 587.7947998046875 220.9450225830078 580.5023193359375 C 222.6449432373047 573.0858764648438 226.76853942871094 567.1699829101562 235.54344177246094 565.0562133789062 C 243.37828063964844 567.1069946289062 248.87692260742188 572.6284790039062 250.94178771972656 581.1345825195312" stroke-width="0.0" fill="rgb(59, 46, 30)" opacity="0.9900358"/>
    <path d="M 298.9198303222656 248.6226043701172 C 296.8424377441406 256.3173522949219 291.3138732910156 261.8344421386719 282.86767578125 263.9278564453125 C 274.73291015625 261.8177795410156 269.25445556640625 256.2366638183594 267.16607666015625 247.54656982421875 C 269.1602478027344 239.66110229492188 274.6521911621094 234.13677978515625 282.6351623535156 232.09451293945312 C 291.1251220703125 234.24703979492188 296.63519287109375 239.9437713623047 298.9198303222656 248.6226043701172" stroke-width="0.0" fill="rgb(173, 50, 29)" opacity="1.0"/>
    <path d="M 69.27619171142578 224.6773681640625 C 66.9903793334961 232.5 61.5 237.99038696289062 53.2769660949707 240.8302764892578 C 45.70192337036133 238.81700134277344 40.15327072143555 233.31143188476562 38.06534957885742 224.81655883789062 C 40.13813781738281 216.65570068359375 45.65745162963867 211.14210510253906 54.271873474121094 209.0612335205078 C 62.29037857055664 211.1504669189453 67.63797760009766 216.78326416015625 69.27619171142578 224.6773681640625" stroke-width="0.0" fill="rgb(154, 26, 10)" opacity="1.0"/>
    <path d="M 153.6609649658203 167.06271362304688 C 151.2740478515625 174.63748168945312 145.5513153076172 180.0126495361328 137.92555236816406 182.05862426757812 C 130.20266723632812 180.2300262451172 124.56442260742188 174.86224365234375 122.23066711425781 166.4226531982422 C 124.20536041259766 158.71925354003906 129.71629333496094 153.19712829589844 137.68197631835938 151.13778686523438 C 145.99769592285156 153.3440704345703 151.35015869140625 159.13333129882812 153.6609649658203 167.06271362304688" stroke-width="0.0" fill="rgb(226, 217, 154)" opacity="1.0"/>
    <path d="M 119.7886734008789 193.61782836914062 C 117.77931213378906 201.2337188720703 112.19593048095703 206.6712646484375 104.4190902709961 208.4423370361328 C 96.5 205.99038696289062 91.00927734375 200.50009155273438 88.20069885253906 192.2790985107422 C 90.15950012207031 184.67620849609375 95.68948364257812 179.1981658935547 103.39806365966797 177.35433959960938 C 111.69657135009766 179.87432861328125 117.36417388916016 185.22727966308594 119.7886734008789 193.61782836914062" stroke-width="0.0" fill="rgb(120, 135, 17)" opacity="0.99016637"/>
    <path d="M 81.51188659667969 232.48944091796875 C 79.00003051757812 240.50759887695312 73.50798797607422 246.00152587890625 65.99754333496094 248.04470825195312 C 58.49492263793945 246.00112915039062 53.0084114074707 240.50233459472656 50.99989318847656 233.00021362304688 C 53.009620666503906 225.5 58.5 220.00961303710938 66.658447265625 217.2863006591797 C 74.2995834350586 219.18370056152344 79.7560806274414 224.7197723388672 81.51188659667969 232.48944091796875" stroke-width="0.0" fill="rgb(176, 52, 35)" opacity="1.0"/>
    <path d="M 253.8895263671875 350.6333923339844 C 251.7869110107422 358.21270751953125 246.16375732421875 363.673583984375 237.3364715576172 365.89715576171875 C 229.67222595214844 363.8463439941406 224.15249633789062 358.3282470703125 222.10479736328125 350.6461486816406 C 224.2389678955078 341.75140380859375 229.7367706298828 336.201171875 237.27708435058594 334.1600036621094 C 245.59149169921875 337.1407775878906 251.54986572265625 342.1615905761719 253.8895263671875 350.6333923339844" stroke-width="0.0" fill="rgb(222, 179, 116)" opacity="1.0"/>
    <path d="M 575.9650268554688 470.2593688964844 C 573.2553100585938 477.8047790527344 567.808349609375 483.2648620605469 560.4459228515625 485.2295837402344 C 552.9036865234375 484.5121765136719 547.3040771484375 479.1492614746094 545.1683959960938 470.8136901855469 C 547.3038330078125 462.8646545410156 552.8929443359375 457.3780212402344 561.2589111328125 455.22906494140625 C 569.1293334960938 457.3379211425781 574.7096557617188 462.8507080078125 575.9650268554688 470.2593688964844" stroke-width="0.0" fill="rgb(174, 136, 94)" opacity="0.99005157"/>
    <path d="M 393.289794921875 409.51556396484375 C 392.1572570800781 416.6789855957031 386.6819763183594 422.1786193847656 378.9825134277344 424.306640625 C 371.2708740234375 422.2021789550781 365.6763916015625 416.7679748535156 363.5360107421875 408.83740234375 C 365.59075927734375 401.13006591796875 371.09100341796875 395.4851379394531 378.28704833984375 394.63824462890625 C 385.80517578125 396.75665283203125 391.2881164550781 402.1779479980469 393.289794921875 409.51556396484375" stroke-width="0.0" fill="rgb(241, 231, 198)" opacity="0.99008757"/>
    <path d="M 458.925537109375 381.4383239746094 C 456.76849365234375 390.1703186035156 451.015625 395.12493896484375 443.4984436035156 396.1412658691406 C 436.0476989746094 394.2898254394531 429.5399475097656 389.2840881347656 427.1087951660156 381.40643310546875 C 429.1687316894531 373.681640625 434.6741027832031 368.15032958984375 443.3577575683594 366.06475830078125 C 451.3409729003906 368.138427734375 456.8561706542969 373.6614990234375 458.925537109375 381.4383239746094" stroke-width="0.0" fill="rgb(155, 65, 56)" opacity="0.99003863"/>
    <path d="M 510.72802734375 467.71685791015625 C 508.65924072265625 476.1725769042969 503.2034912109375 481.7474060058594 495.14703369140625 483.8570861816406 C 486.8518981933594 481.70001220703125 481.27484130859375 476.1595764160156 479.0870666503906 467.36602783203125 C 481.14453125 459.66326904296875 486.6640930175781 454.14630126953125 494.4757995605469 452.08544921875 C 503.2694091796875 454.1867980957031 508.72119140625 459.76513671875 510.72802734375 467.71685791015625" stroke-width="0.0" fill="rgb(194, 161, 92)" opacity="1.0"/>
    <path d="M 196.93309020996094 165.28602600097656 C 194.8251495361328 174.3204803466797 189.3360137939453 179.86354064941406 181.6796112060547 181.92955017089844 C 173.00985717773438 179.67648315429688 167.87619018554688 173.77630615234375 166.09132385253906 165.9549102783203 C 167.75035095214844 158.09881591796875 172.92410278320312 152.27691650390625 181.57571411132812 150.07638549804688 C 189.35702514648438 152.13595581054688 194.8866729736328 157.63328552246094 196.93309020996094 165.28602600097656" stroke-width="0.0" fill="rgb(83, 121, 2)" opacity="1.0"/>
    <path d="M 204.86993408203125 425.6048889160156 C 202.8363037109375 433.3301086425781 197.34573364257812 438.8736877441406 189.44854736328125 440.9450378417969 C 180.65780639648438 438.86395263671875 175.14988708496094 433.3361511230469 173.06983947753906 425.00927734375 C 175.16481018066406 416.7057189941406 180.70919799804688 411.1708679199219 188.3090362548828 409.0809326171875 C 196.9509735107422 411.4073791503906 202.54627990722656 417.0723876953125 204.86993408203125 425.6048889160156" stroke-width="0.0" fill="rgb(104, 149, 52)" opacity="1.0"/>
    <path d="M 545.7586059570312 414.2816162109375 C 542.9826049804688 422.4786071777344 537.4080810546875 427.7628479003906 529.2176513671875 430.80426025390625 C 521.7149047851562 428.8226318359375 516.208251953125 423.27239990234375 514.36865234375 415.4642028808594 C 516.27490234375 406.7586975097656 521.7173461914062 401.16839599609375 530.5831298828125 399.0638732910156 C 538.375732421875 401.1114807128906 543.8615112304688 406.6340026855469 545.7586059570312 414.2816162109375" stroke-width="0.0" fill="rgb(126, 10, 4)" opacity="0.9900376"/>
    <path d="M 480.99505615234375 340.0348205566406 C 478.9837646484375 347.49163818359375 473.50323486328125 353.0268249511719 465.49468994140625 355.67889404296875 C 457.98724365234375 353.64923095703125 452.8218688964844 347.85931396484375 451.054931640625 339.62628173828125 C 452.46002197265625 332.0436706542969 458.1423645019531 326.7986145019531 465.97900390625 324.9076843261719 C 473.3845520019531 327.1031799316406 478.8742980957031 332.62103271484375 480.99505615234375 340.0348205566406" stroke-width="0.0" fill="rgb(246, 245, 231)" opacity="1.0"/>
    <path d="M 184.00965881347656 259.9438781738281 C 182.02137756347656 267.5722351074219 176.69976806640625 273.3818359375 168.36895751953125 275.84130859375 C 160.68641662597656 273.82659912109375 155.15768432617188 268.31982421875 153.0727996826172 259.9584655761719 C 155.173828125 251.7066192626953 160.7111358642578 246.1842803955078 168.5792236328125 244.0820770263672 C 177.07699584960938 246.28143310546875 182.26425170898438 252.08837890625 184.00965881347656 259.9438781738281" stroke-width="0.0" fill="rgb(127, 17, 7)" opacity="0.9902003"/>
    <path d="M 432.8543395996094 148.7560272216797 C 430.8272705078125 156.2590789794922 425.1725158691406 161.5708465576172 416.66339111328125 163.51564025878906 C 408.7498474121094 161.71620178222656 403.1605224609375 156.2942657470703 401.061767578125 147.7327117919922 C 403.166015625 139.73777770996094 408.8097229003906 134.33831787109375 416.5179748535156 132.29164123535156 C 424.50433349609375 134.99459838867188 429.9904479980469 140.49974060058594 432.8543395996094 148.7560272216797" stroke-width="0.0" fill="rgb(88, 121, 3)" opacity="0.9902222"/>
    <path d="M 221.87701416015625 85.34736633300781 C 219.6712188720703 94.13247680664062 214.11642456054688 99.62715148925781 205.44276428222656 101.83790588378906 C 197.9084014892578 99.72179412841797 192.69497680664062 93.94198608398438 190.8155059814453 85.86909484863281 C 192.49929809570312 77.88935852050781 197.7913818359375 72.21002197265625 206.38230895996094 70.08963775634766 C 214.3131561279297 72.16278839111328 219.82972717285156 77.69010925292969 221.87701416015625 85.34736633300781" stroke-width="0.0" fill="rgb(153, 33, 5)" opacity="0.990045"/>
    <path d="M 413.9348449707031 362.65985107421875 C 411.8578796386719 371.3312072753906 406.31231689453125 376.80828857421875 398.64642333984375 378.6785888671875 C 390.5254211425781 376.04400634765625 385.3389587402344 370.3439636230469 383.40264892578125 362.4631652832031 C 384.3575134277344 354.844482421875 389.783935546875 349.20916748046875 398.6189880371094 347.068359375 C 406.3616943359375 349.12103271484375 411.87384033203125 354.64056396484375 413.9348449707031 362.65985107421875" stroke-width="0.0" fill="rgb(158, 33, 12)" opacity="0.9900625"/>
    <path d="M 296.862060546875 281.4068908691406 C 294.5202331542969 289.57965087890625 288.1442565917969 294.4679870605469 280.9736328125 296.2567443847656 C 274.0479431152344 294.3909912109375 268.5484619140625 288.9726257324219 265.6847839355469 281.46771240234375 C 267.47454833984375 274.0194091796875 272.96527099609375 268.35064697265625 281.22509765625 266.171875 C 289.29345703125 268.2076110839844 294.83734130859375 273.6894226074219 296.862060546875 281.4068908691406" stroke-width="0.0" fill="rgb(207, 206, 155)" opacity="0.9902148"/>
    <path d="M 242.77896118164062 176.7999267578125 C 240.82615661621094 184.30035400390625 235.2965850830078 189.8166046142578 227.32020568847656 191.88946533203125 C 218.753662109375 189.7784423828125 213.24586486816406 184.23760986328125 211.2240753173828 176.2659454345703 C 213.3272705078125 167.88206481933594 218.90809631347656 162.39315795898438 226.3704833984375 160.75448608398438 C 233.93333435058594 163.61764526367188 239.3569793701172 169.07565307617188 242.77896118164062 176.7999267578125" stroke-width="0.0" fill="rgb(190, 180, 110)" opacity="1.0"/>
    <path d="M 77.18294525146484 229.7242431640625 C 74.9908447265625 237.5033416748047 69.50489044189453 242.99639892578125 61.66204071044922 245.37608337402344 C 53.9592170715332 243.56448364257812 48.517295837402344 238.01536560058594 46.798580169677734 230.26718139648438 C 49.14082717895508 222.6305694580078 54.6452522277832 217.19000244140625 62.771427154541016 214.14691162109375 C 70.2731704711914 216.16481018066406 75.60291290283203 221.80503845214844 77.18294525146484 229.7242431640625" stroke-width="0.0" fill="rgb(179, 53, 36)" opacity="0.9936527"/>
    <path d="M 340.88616943359375 172.43060302734375 C 338.5541687011719 180.87869262695312 332.7182922363281 186.1141357421875 325.0233154296875 188.01220703125 C 317.50738525390625 185.98789978027344 312.1231689453125 180.45970153808594 310.8189392089844 173.57615661621094 C 312.7325439453125 166.15478515625 318.135498046875 160.6861114501953 325.5568542480469 158.80653381347656 C 333.1499328613281 159.44863891601562 338.79443359375 164.77212524414062 340.88616943359375 172.43060302734375" stroke-width="0.0" fill="rgb(187, 75, 27)" opacity="0.9900726"/>
    <path d="M 204.6229705810547 87.32613372802734 C 203.42881774902344 94.97496032714844 198.08529663085938 100.70716857910156 190.43508911132812 102.86085510253906 C 181.86264038085938 100.66860961914062 176.26043701171875 95.16752624511719 174.15252685546875 87.56346893310547 C 176.29432678222656 78.76371002197266 181.72323608398438 73.18000030517578 190.34410095214844 71.08267211914062 C 198.1085968017578 73.23174285888672 203.0295867919922 79.1407241821289 204.6229705810547 87.32613372802734" stroke-width="0.0" fill="rgb(219, 148, 69)" opacity="1.0"/>
    <path d="M 62.996009826660156 451.0054016113281 C 60.99399185180664 458.5110778808594 55.55905532836914 464.15057373046875 48.2573356628418 466.5115661621094 C 40.49999237060547 463.9903869628906 35.00885009765625 458.5002136230469 32.312721252441406 450.44818115234375 C 34.312068939208984 442.8825988769531 39.926509857177734 437.43011474609375 47.65511703491211 435.4277648925781 C 55.488582611083984 437.99017333984375 60.972015380859375 443.521240234375 62.996009826660156 451.0054016113281" stroke-width="0.0" fill="rgb(117, 32, 17)" opacity="0.9908731"/>
    <path d="M 551.692626953125 200.5999755859375 C 549.7763061523438 208.27101135253906 544.2764892578125 213.7913055419922 536.6724853515625 215.6772003173828 C 528.9130249023438 212.54251098632812 523.4638671875 207.08482360839844 521.3917846679688 199.70150756835938 C 522.664794921875 192.0909423828125 528.0316162109375 186.4684600830078 535.6128540039062 184.40676879882812 C 543.598876953125 186.91151428222656 549.1036376953125 192.39630126953125 551.692626953125 200.5999755859375" stroke-width="0.0" fill="rgb(194, 160, 119)" opacity="1.0"/>
    <path d="M 49.79008483886719 466.83746337890625 C 47.867801666259766 474.3564147949219 42.36043930053711 479.87738037109375 34.482994079589844 481.9353942871094 C 25.699220657348633 479.8369445800781 20.187255859375 474.2900390625 18.11168670654297 466.4702453613281 C 20.21508026123047 457.7166748046875 25.69590950012207 452.162353515625 33.26528549194336 450.13665771484375 C 41.19334030151367 453.0316162109375 46.35774612426758 458.9829406738281 49.79008483886719 466.83746337890625" stroke-width="0.0" fill="rgb(184, 136, 118)" opacity="1.0"/>
    <path d="M 595.6035766601562 297.3074645996094 C 592.4733276367188 304.9482727050781 586.9104614257812 310.3555603027344 579.7112426757812 312.54638671875 C 572.9426879882812 310.57733154296875 567.4932250976562 305.03619384765625 564.465087890625 297.70159912109375 C 566.9413452148438 290.26275634765625 571.999755859375 284.3008728027344 580.4755249023438 282.09375 C 588.279541015625 284.1830139160156 593.7796020507812 289.7357177734375 595.6035766601562 297.3074645996094" stroke-width="0.0" fill="rgb(169, 46, 25)" opacity="0.9900196"/>
    <path d="M 546.9346923828125 306.68548583984375 C 544.831298828125 315.26904296875 539.1878662109375 320.5744934082031 530.4404296875 321.6445007324219 C 522.702880859375 320.7911376953125 517.1537475585938 315.3174133300781 515.0796508789062 306.8780822753906 C 517.1298217773438 298.6437683105469 522.644775390625 293.1317138671875 530.7716064453125 291.0693054199219 C 539.3421020507812 293.14300537109375 544.8626098632812 298.655517578125 546.9346923828125 306.68548583984375" stroke-width="0.0" fill="rgb(140, 31, 21)" opacity="0.9900487"/>
    <path d="M 264.64837646484375 54.55815124511719 C 262.7569580078125 62.25665283203125 257.2820129394531 67.822509765625 248.7305450439453 69.92489624023438 C 240.6430206298828 67.86534118652344 235.12171936035156 62.362342834472656 233.08714294433594 54.74991226196289 C 235.3438720703125 45.918304443359375 240.94386291503906 40.406009674072266 249.2794647216797 38.19689178466797 C 257.02203369140625 40.345069885253906 262.2546081542969 46.11766815185547 264.64837646484375 54.55815124511719" stroke-width="0.0" fill="rgb(173, 114, 51)" opacity="1.0"/>
    <path d="M 435.9381103515625 167.4420623779297 C 433.85589599609375 175.32928466796875 428.3182067871094 180.82875061035156 420.74920654296875 182.65667724609375 C 412.32794189453125 179.54478454589844 406.27764892578125 175.05462646484375 404.12078857421875 166.65757751464844 C 406.233642578125 158.83670043945312 411.9627380371094 153.6025848388672 420.3472900390625 151.6426239013672 C 428.2333679199219 153.31741333007812 433.8343811035156 158.71420288085938 435.9381103515625 167.4420623779297" stroke-width="0.0" fill="rgb(70, 92, 7)" opacity="0.9901187"/>
    <path d="M 111.83155822753906 205.71852111816406 C 109.81600189208984 213.29872131347656 104.29232025146484 218.79632568359375 96.56807708740234 220.6792755126953 C 87.93717956542969 218.48561096191406 82.30413818359375 213.13050842285156 80.83838653564453 205.56243896484375 C 82.55274963378906 196.92308044433594 87.8650131225586 191.33001708984375 95.54032135009766 189.4903564453125 C 103.51763916015625 191.99476623535156 109.02498626708984 197.4763946533203 111.83155822753906 205.71852111816406" stroke-width="0.0" fill="rgb(140, 133, 54)" opacity="0.9900937"/>
    <path d="M 464.66668701171875 257.27557373046875 C 461.4434814453125 264.947509765625 455.9190673828125 270.3584899902344 448.2069091796875 273.7890319824219 C 440.6432189941406 271.8613586425781 435.1162414550781 266.3657531738281 433.05712890625 258.6075134277344 C 435.19793701171875 249.74179077148438 440.7384948730469 244.1930389404297 449.2398681640625 242.08602905273438 C 457.3338317871094 244.15382385253906 462.83544921875 249.66970825195312 464.66668701171875 257.27557373046875" stroke-width="0.0" fill="rgb(193, 117, 87)" opacity="1.0"/>
    <path d="M 381.9267272949219 209.48536682128906 C 379.80816650390625 218.2846221923828 374.30010986328125 223.84165954589844 365.825439453125 225.93417358398438 C 357.65777587890625 223.86618041992188 352.1656494140625 218.3291473388672 350.0960693359375 210.08639526367188 C 352.17572021484375 201.68292236328125 357.6628112792969 196.12913513183594 365.46697998046875 194.06007385253906 C 374.33941650390625 196.14401245117188 379.8607177734375 201.6586151123047 381.9267272949219 209.48536682128906" stroke-width="0.0" fill="rgb(186, 47, 40)" opacity="1.0"/>
    <path d="M 284.90167236328125 556.6341552734375 C 281.7714538574219 563.8321533203125 275.7270812988281 569.1535034179688 268.296142578125 571.0833740234375 C 260.7823791503906 570.4957885742188 255.14486694335938 565.3035278320312 253.07643127441406 557.6965942382812 C 255.35968017578125 548.9931640625 261.0975036621094 543.6351318359375 268.5589294433594 542.7037353515625 C 276.4702453613281 544.3961791992188 282.6620788574219 549.0756225585938 284.90167236328125 556.6341552734375" stroke-width="0.0" fill="rgb(139, 79, 42)" opacity="0.9900279"/>
    <path d="M 363.2829284667969 382.30328369140625 C 361.2422790527344 389.6963806152344 355.7176208496094 395.30206298828125 348.0385437011719 397.4103698730469 C 340.34112548828125 395.2772521972656 335.01910400390625 389.56585693359375 332.44488525390625 381.58062744140625 C 334.4801940917969 374.0284729003906 340.0190124511719 368.4566345214844 347.9559631347656 366.33782958984375 C 355.5643615722656 368.68853759765625 360.85089111328125 374.5975646972656 363.2829284667969 382.30328369140625" stroke-width="0.0" fill="rgb(246, 241, 212)" opacity="1.0"/>
    <path d="M 447.85345458984375 134.316162109375 C 445.37261962890625 142.563232421875 439.3679504394531 147.9019775390625 432.4920654296875 150.62347412109375 C 424.7095642089844 147.6811981201172 419.06402587890625 142.3670654296875 416.1053466796875 134.18089294433594 C 418.1137390136719 126.62934112548828 423.63311767578125 121.12252807617188 431.5624694824219 119.06478118896484 C 440.348388671875 121.13865661621094 445.8505859375 126.65559387207031 447.85345458984375 134.316162109375" stroke-width="0.0" fill="rgb(169, 80, 40)" opacity="0.9909441"/>
    <path d="M 414.94287109375 112.5345458984375 C 412.879638671875 120.35302734375 407.3298034667969 125.8188247680664 398.6618347167969 127.84952545166016 C 390.68438720703125 125.82566833496094 385.15533447265625 120.32279968261719 383.0628662109375 111.53793334960938 C 385.12274169921875 103.63544464111328 390.63189697265625 98.11454772949219 398.36871337890625 96.05464935302734 C 407.3357849121094 98.14286804199219 412.85382080078125 103.6656723022461 414.94287109375 112.5345458984375" stroke-width="0.0" fill="rgb(154, 25, 5)" opacity="0.9900982"/>
    <path d="M 62.88759231567383 524.3871459960938 C 60.82765197753906 532.32177734375 55.33225631713867 537.8541259765625 46.66944885253906 539.9265747070312 C 38.65391159057617 537.8659057617188 33.157569885253906 532.336669921875 31.088790893554688 524.2841796875 C 33.223960876464844 515.7899780273438 38.82049560546875 510.2932434082031 46.76408386230469 508.1916809082031 C 55.07256317138672 510.3911437988281 60.70899200439453 515.8831787109375 62.88759231567383 524.3871459960938" stroke-width="0.0" fill="rgb(151, 97, 53)" opacity="0.99023354"/>
    <path d="M 365.694091796875 417.0235595703125 C 364.2945251464844 424.9486389160156 359.0867614746094 430.7070007324219 350.76324462890625 432.87969970703125 C 342.72454833984375 430.7952575683594 337.1753845214844 425.2882385253906 335.1070251464844 417.6188659667969 C 337.39276123046875 409.03192138671875 343.1167907714844 403.59222412109375 350.695556640625 401.4496765136719 C 358.40069580078125 404.079833984375 363.8808898925781 409.60986328125 365.694091796875 417.0235595703125" stroke-width="0.0" fill="rgb(221, 166, 101)" opacity="1.0"/>
    <path d="M 458.43316650390625 292.423828125 C 457.5896911621094 300.0086975097656 451.92926025390625 305.333740234375 443.66143798828125 307.4123229980469 C 436.23974609375 305.3587341308594 430.8502197265625 299.6944885253906 428.6116638183594 291.8945617675781 C 430.8370361328125 284.5466003417969 436.7283935546875 279.39837646484375 444.4164123535156 277.7681884765625 C 451.5980529785156 278.7789001464844 456.7596435546875 284.5583801269531 458.43316650390625 292.423828125" stroke-width="0.0" fill="rgb(246, 242, 220)" opacity="1.0"/>
    <path d="M 195.4306640625 467.0928955078125 C 193.59085083007812 475.13446044921875 188.19398498535156 480.7599792480469 179.558837890625 482.9018249511719 C 171.74668884277344 480.8019104003906 166.2160186767578 475.2453308105469 164.1053924560547 466.54144287109375 C 166.17193603515625 458.68646240234375 171.67996215820312 453.1561279296875 180.04298400878906 451.0804138183594 C 188.2607421875 453.1733093261719 193.58836364746094 458.8204345703125 195.4306640625 467.0928955078125" stroke-width="0.0" fill="rgb(153, 196, 91)" opacity="1.0"/>
    <path d="M 462.14324951171875 536.2163696289062 C 460.153564453125 543.6895751953125 454.68548583984375 549.1432495117188 447.28924560546875 551.0858154296875 C 439.768798828125 550.5563354492188 434.1573486328125 545.3004150390625 432.09130859375 537.5294799804688 C 434.21392822265625 528.7459106445312 439.7510681152344 523.2271728515625 447.6701354980469 521.1725463867188 C 456.19482421875 523.2996215820312 461.7400817871094 528.7896728515625 462.14324951171875 536.2163696289062" stroke-width="0.0" fill="rgb(110, 90, 66)" opacity="0.99002296"/>
    <path d="M 213.92466735839844 317.85614013671875 C 211.8332977294922 326.2962951660156 206.26870727539062 331.760009765625 198.27162170410156 333.7663269042969 C 189.9424285888672 331.61968994140625 184.59988403320312 325.9932861328125 183.68112182617188 318.2157897949219 C 185.3223114013672 310.62579345703125 190.3542938232422 304.6212463378906 198.43663024902344 302.2547607421875 C 206.26992797851562 304.2440490722656 211.84507751464844 309.6955871582031 213.92466735839844 317.85614013671875" stroke-width="0.0" fill="rgb(143, 143, 78)" opacity="0.99066585"/>
    <path d="M 406.8960876464844 546.1854858398438 C 404.6937255859375 553.8497314453125 398.0193176269531 558.2628784179688 390.6188659667969 560.101806640625 C 383.8246154785156 558.3207397460938 377.2325134277344 554.0303344726562 375.10369873046875 546.5880126953125 C 377.3428955078125 537.908447265625 382.9393615722656 532.428955078125 391.3250427246094 530.33642578125 C 399.13427734375 532.35302734375 404.7455139160156 537.8250122070312 406.8960876464844 546.1854858398438" stroke-width="0.0" fill="rgb(144, 100, 60)" opacity="0.9900553"/>
    <path d="M 561.4592895507812 423.707275390625 C 559.1367797851562 431.5694274902344 553.5645751953125 437.1215515136719 545.7467651367188 439.56036376953125 C 538.156494140625 437.42864990234375 532.7144775390625 431.7955627441406 531.7337646484375 424.4787292480469 C 533.59814453125 417.0677185058594 539.0650634765625 411.5807800292969 546.6976928710938 408.1392517089844 C 554.2432250976562 410.2040710449219 559.6345825195312 415.8114318847656 561.4592895507812 423.707275390625" stroke-width="0.0" fill="rgb(213, 152, 111)" opacity="0.99006987"/>
    <path d="M 248.90728759765625 235.24749755859375 C 246.79327392578125 243.2168426513672 241.14710998535156 248.61544799804688 232.65524291992188 250.70970153808594 C 224.7520294189453 248.73646545410156 219.16278076171875 243.28802490234375 217.07186889648438 235.22909545898438 C 219.14894104003906 226.66500854492188 224.66018676757812 221.13754272460938 232.72076416015625 219.063720703125 C 241.32745361328125 221.1436767578125 246.82383728027344 226.68603515625 248.90728759765625 235.24749755859375" stroke-width="0.0" fill="rgb(158, 35, 16)" opacity="0.9901636"/>
    <path d="M 295.8216247558594 488.786376953125 C 293.8307800292969 496.3052673339844 288.3088073730469 501.8385009765625 280.67645263671875 503.8927001953125 C 271.9143981933594 501.65814208984375 266.4851989746094 496.034423828125 264.8224792480469 488.1700439453125 C 266.5820007324219 480.0270080566406 271.9296875 474.31707763671875 279.2749328613281 472.3243713378906 C 286.9718933105469 475.5961608886719 292.43585205078125 481.01678466796875 295.8216247558594 488.786376953125" stroke-width="0.0" fill="rgb(195, 165, 111)" opacity="0.9910469"/>
    <path d="M 232.5326690673828 257.25860595703125 C 230.46038818359375 264.8492431640625 224.74082946777344 270.11065673828125 216.94012451171875 271.83795166015625 C 209.35104370117188 270.1311950683594 203.79891967773438 264.6698303222656 201.7310028076172 256.96075439453125 C 203.6642608642578 249.0923309326172 208.98147583007812 243.35711669921875 216.33209228515625 241.41465759277344 C 224.30807495117188 244.30250549316406 230.10850524902344 249.56910705566406 232.5326690673828 257.25860595703125" stroke-width="0.0" fill="rgb(249, 244, 206)" opacity="1.0"/>
    <path d="M 215.2292022705078 463.7451171875 C 213.40228271484375 470.9962158203125 208.07460021972656 476.6624755859375 201.247802734375 478.3942565917969 C 193.81317138671875 476.6306457519531 188.40585327148438 471.17388916015625 185.3568115234375 463.3293151855469 C 187.2221221923828 455.72845458984375 192.71229553222656 450.1798095703125 201.31982421875 448.0719909667969 C 209.24058532714844 450.1806945800781 214.36863708496094 455.8810119628906 215.2292022705078 463.7451171875" stroke-width="0.0" fill="rgb(87, 113, 28)" opacity="0.99002725"/>
    <path d="M 124.10936737060547 174.41091918945312 C 122.37798309326172 180.9163818359375 116.9007568359375 186.3363037109375 109.51289367675781 188.2467041015625 C 101.92859649658203 187.3896942138672 96.1903305053711 182.2100830078125 94.0643310546875 174.41746520996094 C 96.2055435180664 165.76573181152344 101.76097869873047 160.1969451904297 110.33523559570312 158.0648193359375 C 118.25019836425781 160.1591339111328 122.4898681640625 165.9861602783203 124.10936737060547 174.41091918945312" stroke-width="0.0" fill="rgb(146, 30, 7)" opacity="0.99001575"/>
    <path d="M 316.89532470703125 109.05335998535156 C 314.7710266113281 117.1950912475586 309.09466552734375 122.42321014404297 300.5309753417969 123.44391632080078 C 292.710693359375 122.75048065185547 287.1388244628906 117.32684326171875 285.0600280761719 109.25823211669922 C 287.157958984375 100.7077865600586 292.758544921875 95.296875 301.6585998535156 93.12730407714844 C 309.27606201171875 95.1850357055664 314.78900146484375 100.73503112792969 316.89532470703125 109.05335998535156" stroke-width="0.0" fill="rgb(162, 125, 50)" opacity="1.0"/>
    <path d="M 145.89944458007812 359.6756286621094 C 143.7600860595703 368.20074462890625 138.16848754882812 373.67926025390625 130.0915985107422 375.751953125 C 121.74552154541016 373.7110595703125 116.15211486816406 368.3033447265625 114.12334442138672 360.64599609375 C 116.31625366210938 351.86419677734375 121.87421417236328 346.3419189453125 129.5138397216797 344.3291320800781 C 137.93272399902344 346.6900329589844 143.73822021484375 351.90289306640625 145.89944458007812 359.6756286621094" stroke-width="0.0" fill="rgb(211, 175, 131)" opacity="1.0"/>
    <path d="M 83.93867492675781 483.5970153808594 C 81.81970977783203 492.28070068359375 76.28771209716797 497.83319091796875 67.52014923095703 499.9454650878906 C 59.637027740478516 497.8779602050781 54.12153625488281 492.3631286621094 52.054161071777344 483.9713134765625 C 54.11298751831055 475.6244201660156 59.62198257446289 470.10699462890625 67.50634002685547 468.0461730957031 C 76.35775756835938 470.1245422363281 81.86946868896484 475.6447448730469 83.93867492675781 483.5970153808594" stroke-width="0.0" fill="rgb(118, 24, 17)" opacity="1.0"/>
    <path d="M 175.11129760742188 109.67180633544922 C 174.36538696289062 118.04934692382812 169.13101196289062 123.69022369384766 161.53392028808594 125.6645736694336 C 153.4911346435547 123.0093002319336 148.00816345214844 117.50383758544922 145.89785766601562 109.86517333984375 C 147.61976623535156 102.01840209960938 152.91934204101562 96.32321166992188 161.27439880371094 94.19844818115234 C 169.21531677246094 96.25489044189453 174.5913848876953 101.82530212402344 175.11129760742188 109.67180633544922" stroke-width="0.0" fill="rgb(151, 18, 5)" opacity="0.9900295"/>
    <path d="M 113.93389892578125 304.3924865722656 C 111.81364440917969 313.27154541015625 106.25749206542969 318.78106689453125 97.81665802001953 320.8980407714844 C 89.78526306152344 318.77880859375 84.37964630126953 313.1578674316406 82.62433624267578 305.32421875 C 84.74752807617188 297.1051940917969 89.93669128417969 291.2901916503906 98.46114349365234 289.1112060546875 C 106.36112213134766 291.1388244628906 111.88334655761719 296.6305847167969 113.93389892578125 304.3924865722656" stroke-width="0.0" fill="rgb(174, 56, 46)" opacity="1.0"/>
    <path d="M 306.91339111328125 541.3921508789062 C 304.8335876464844 549.3086547851562 299.3058166503906 554.8265380859375 291.1842041015625 556.9066162109375 C 282.78192138671875 554.7850952148438 277.344970703125 549.1658935546875 275.3526916503906 541.474853515625 C 277.8657531738281 533.3324584960938 283.24859619140625 527.62109375 291.4859924316406 525.2044677734375 C 299.21600341796875 527.2674560546875 304.7868957519531 532.76171875 306.91339111328125 541.3921508789062" stroke-width="0.0" fill="rgb(193, 139, 98)" opacity="1.0"/>
    <path d="M 75.93663787841797 455.7548828125 C 73.89852142333984 463.3948669433594 68.40010070800781 468.9110412597656 60.591331481933594 470.957275390625 C 51.69114685058594 468.8680419921875 46.37372970581055 463.2261657714844 45.30717086791992 455.3433532714844 C 47.17848587036133 447.6003723144531 52.56532287597656 442.06463623046875 59.964176177978516 440.23236083984375 C 67.68208312988281 442.0152587890625 73.6511459350586 447.0622863769531 75.93663787841797 455.7548828125" stroke-width="0.0" fill="rgb(52, 11, 4)" opacity="1.0"/>
    <path d="M 338.2945556640625 181.43533325195312 C 336.3917236328125 188.89413452148438 330.9508972167969 194.54379272460938 322.90435791015625 196.68116760253906 C 314.8158874511719 194.68666076660156 309.27056884765625 189.19882202148438 307.214599609375 181.36802673339844 C 309.4041748046875 172.93072509765625 314.90411376953125 167.33694458007812 322.37347412109375 165.3309783935547 C 330.0085144042969 168.5384979248047 335.495361328125 173.9801788330078 338.2945556640625 181.43533325195312" stroke-width="0.0" fill="rgb(246, 188, 82)" opacity="0.990058"/>
    <path d="M 336.797607421875 450.0574645996094 C 334.70916748046875 458.1671447753906 329.17108154296875 463.7191162109375 320.9343566894531 465.86376953125 C 312.7679748535156 463.7686767578125 307.2677001953125 458.218017578125 305.1929626464844 449.91778564453125 C 307.3043518066406 441.84820556640625 312.841064453125 436.2875061035156 320.5961608886719 434.1915588378906 C 329.12066650390625 436.37603759765625 334.7052307128906 441.8490295410156 336.797607421875 450.0574645996094" stroke-width="0.0" fill="rgb(219, 171, 180)" opacity="1.0"/>
    <path d="M 467.88360595703125 91.70420837402344 C 465.8592834472656 99.35233306884766 460.358642578125 104.875244140625 452.4264221191406 106.93739318847656 C 443.63958740234375 104.86626434326172 438.118408203125 99.36666870117188 436.1017150878906 91.783203125 C 439.24444580078125 84.12702941894531 445.2648010253906 78.86063385009766 452.1214599609375 76.94959259033203 C 458.6825256347656 78.87484741210938 464.3602600097656 84.25776672363281 467.88360595703125 91.70420837402344" stroke-width="0.0" fill="rgb(110, 41, 14)" opacity="0.9900244"/>
    <path d="M 611.0047607421875 226.0001983642578 C 609.0374755859375 233.60752868652344 603.765869140625 239.46560668945312 596.0512084960938 241.8538055419922 C 588.77978515625 238.91806030273438 582.614990234375 233.35745239257812 580.13525390625 225.2958526611328 C 582.135009765625 217.63978576660156 587.6363525390625 212.1259765625 595.28271484375 210.09654235839844 C 603.7726440429688 212.52101135253906 609.0367431640625 218.39317321777344 611.0047607421875 226.0001983642578" stroke-width="0.0" fill="rgb(169, 60, 5)" opacity="0.9907641"/>
    <path d="M 94.72357177734375 299.5591735839844 C 92.67415618896484 307.3729248046875 87.7134017944336 313.4854431152344 79.64299774169922 315.8182067871094 C 71.75029754638672 313.75006103515625 66.18041229248047 308.27716064453125 64.09208679199219 300.4869079589844 C 66.37864685058594 292.1050109863281 72.35798645019531 287.0081787109375 80.34149932861328 284.616943359375 C 88.11659240722656 286.38519287109375 93.5994644165039 291.8875427246094 94.72357177734375 299.5591735839844" stroke-width="0.0" fill="rgb(215, 117, 114)" opacity="1.0"/>
    <path d="M 613.0 335.0 C 610.990966796875 342.5018005371094 605.5089721679688 348.0166320800781 597.4055786132812 350.7597351074219 C 589.8707275390625 348.7040100097656 584.4660034179688 343.0689392089844 582.168701171875 334.300537109375 C 584.1678466796875 326.6936340332031 589.6996459960938 321.18109130859375 597.2730712890625 319.1553649902344 C 605.50732421875 321.98779296875 610.9908447265625 327.4986572265625 613.0 335.0" stroke-width="0.0" fill="rgb(242, 159, 154)" opacity="1.0"/>
    <path d="M 106.88094329833984 227.5998077392578 C 105.81793975830078 235.33255004882812 100.35286712646484 240.8750762939453 92.25824737548828 242.94644165039062 C 83.75537872314453 240.82937622070312 78.47203063964844 235.13534545898438 76.11219024658203 226.20057678222656 C 78.1180191040039 218.63327026367188 83.64603424072266 213.15414428710938 91.3041763305664 211.59188842773438 C 99.85002136230469 213.89532470703125 105.47433471679688 219.0615997314453 106.88094329833984 227.5998077392578" stroke-width="0.0" fill="rgb(117, 18, 6)" opacity="0.99004793"/>
  </g>
</svg>
