<?xml version="1.0" ?>
<svg xmlns="http://www.w3.org/2000/svg" version="1.1" width="600" height="600">
  <defs/>
  <g>
    <path d="M 531.8160400390625 0.7101324200630188 C 529.1402587890625 10.778799057006836 521.7632446289062 18.09950828552246 510.6958923339844 20.864276885986328 C 500.2525329589844 18.119348526000977 492.95721435546875 10.718840599060059 490.3663024902344 0.5276315212249756 C 493.67950439453125 -10.0 501.0 -17.32050895690918 511.0 -20.0 C 521.0 -17.32050895690918 528.3204956054688 -10.0 531.8160400390625 0.7101324200630188" stroke-width="0.0" fill="rgb(128, 136, 149)" opacity="1.0"/>
    <path d="M 556.0580444335938 348.0685729980469 C 553.5454711914062 358.28289794921875 546.3780517578125 365.828369140625 536.0771484375 368.7485046386719 C 525.461669921875 365.9061584472656 518.072021484375 358.5458068847656 515.2484741210938 348.20501708984375 C 518.052490234375 337.3800354003906 525.3612670898438 329.9978332519531 535.6874389648438 327.25921630859375 C 546.1476440429688 330.3699645996094 553.341064453125 337.9495544433594 556.0580444335938 348.0685729980469" stroke-width="0.0" fill="rgb(179, 185, 197)" opacity="0.9908178"/>
    <path d="M 310.4655456542969 551.3795166015625 C 307.91448974609375 561.5743408203125 300.60577392578125 569.0001220703125 290.3760070800781 571.7689208984375 C 279.3463439941406 569.0006713867188 271.9649658203125 561.6658325195312 269.26055908203125 551.5115356445312 C 272.1539001464844 540.4908447265625 279.5033264160156 533.1948852539062 289.76788330078125 530.774169921875 C 300.0 533.6795043945312 307.32049560546875 541.0 310.4655456542969 551.3795166015625" stroke-width="0.0" fill="rgb(205, 209, 217)" opacity="1.0"/>
    <path d="M 504.6182556152344 339.4674987792969 C 501.91827392578125 349.5282897949219 494.4938659667969 356.8166198730469 484.1249084472656 359.42645263671875 C 473.5868835449219 356.72662353515625 466.141357421875 349.45684814453125 463.2438049316406 339.0547180175781 C 466.1261291503906 328.5082092285156 473.53875732421875 321.2211608886719 483.7729797363281 318.7557067871094 C 494.0005798339844 321.6793518066406 501.3251037597656 328.9981384277344 504.6182556152344 339.4674987792969" stroke-width="0.0" fill="rgb(194, 200, 212)" opacity="0.991038"/>
    <path d="M 537.6622314453125 192.10784912109375 C 534.8788452148438 202.48440551757812 527.4285278320312 209.70367431640625 516.856201171875 212.36451721191406 C 506.51556396484375 209.8085479736328 499.12127685546875 202.50711059570312 496.4601135253906 192.38497924804688 C 499.6803894042969 182.0006561279297 507.00042724609375 174.67965698242188 517.0118408203125 171.99368286132812 C 527.1209106445312 174.6139373779297 534.69775390625 181.77415466308594 537.6622314453125 192.10784912109375" stroke-width="0.0" fill="rgb(176, 182, 194)" opacity="0.99119765"/>
    <path d="M 439.65130615234375 427.73187255859375 C 436.77301025390625 438.4197998046875 429.4211730957031 445.777099609375 419.26336669921875 448.36383056640625 C 408.9768371582031 445.37060546875 401.67535400390625 438.0096740722656 398.8525695800781 427.8688659667969 C 401.3946228027344 417.7444152832031 408.729736328125 410.3438720703125 418.9724426269531 407.3848876953125 C 429.52862548828125 410.1602478027344 436.9339599609375 417.44036865234375 439.65130615234375 427.73187255859375" stroke-width="0.0" fill="rgb(199, 205, 216)" opacity="0.9919795"/>
    <path d="M 469.4378356933594 401.1578674316406 C 466.83349609375 411.4986267089844 459.5263671875 418.9150085449219 449.2836608886719 421.72100830078125 C 438.5606689453125 418.8194580078125 431.2489013671875 411.41644287109375 428.5283508300781 400.9820556640625 C 431.2408447265625 390.56549072265625 438.5299377441406 383.1352844238281 448.914794921875 380.29986572265625 C 459.397705078125 383.2189636230469 466.6993713378906 390.6278991699219 469.4378356933594 401.1578674316406" stroke-width="0.0" fill="rgb(197, 203, 214)" opacity="0.9907282"/>
    <path d="M 575.8028564453125 343.5028381347656 C 572.9119873046875 354.55718994140625 565.5623168945312 361.9270324707031 555.3619995117188 364.635009765625 C 544.8865966796875 361.5361328125 537.65625 354.05267333984375 534.9622192382812 343.9383544921875 C 537.4613037109375 333.71319580078125 544.6085815429688 326.1526184082031 554.95263671875 323.2524108886719 C 565.6406860351562 326.0308837890625 573.05615234375 333.32745361328125 575.8028564453125 343.5028381347656" stroke-width="0.0" fill="rgb(169, 177, 191)" opacity="1.0"/>
    <path d="M 515.6798706054688 386.71551513671875 C 512.825927734375 397.45196533203125 505.42755126953125 404.7492980957031 495.2099914550781 407.23065185546875 C 485.0 404.32049560546875 477.67950439453125 397.0 474.34820556640625 386.50616455078125 C 477.04412841796875 376.41082763671875 484.4111633300781 369.0468444824219 495.00665283203125 366.2881774902344 C 505.6192626953125 369.0292053222656 512.981201171875 376.3771667480469 515.6798706054688 386.71551513671875" stroke-width="0.0" fill="rgb(183, 189, 202)" opacity="0.9965832"/>
    <path d="M 333.09173583984375 207.08102416992188 C 330.4251403808594 217.0933380126953 323.024169921875 224.19029235839844 312.63543701171875 227.15093994140625 C 302.77459716796875 224.62606811523438 295.5970458984375 217.15867614746094 292.6114807128906 206.93289184570312 C 295.68231201171875 197.03607177734375 303.0573425292969 189.7547607421875 312.8149108886719 187.2440948486328 C 322.85546875 189.91522216796875 330.2370300292969 197.09547424316406 333.09173583984375 207.08102416992188" stroke-width="0.0" fill="rgb(249, 251, 253)" opacity="0.99063563"/>
    <path d="M 542.7482299804688 222.67123413085938 C 539.8756713867188 233.5171356201172 532.5056762695312 240.83876037597656 522.2833251953125 243.31640625 C 512.0 240.3205108642578 504.67950439453125 233.0 501.6471862792969 222.71678161621094 C 504.1976318359375 212.56588745117188 511.598876953125 205.30401611328125 522.0731201171875 202.6916961669922 C 532.4774780273438 205.22743225097656 539.9398193359375 212.46640014648438 542.7482299804688 222.67123413085938" stroke-width="0.0" fill="rgb(176, 182, 194)" opacity="1.0"/>
    <path d="M 51.856285095214844 558.154296875 C 49.080528259277344 568.6842651367188 41.64000701904297 575.9645385742188 31.17912483215332 578.6681518554688 C 20.48784828186035 575.8546752929688 13.079108238220215 568.5350341796875 10.286813735961914 558.271728515625 C 13.13784122467041 547.50244140625 20.518692016601562 540.1846923828125 30.8648738861084 537.4201049804688 C 41.525367736816406 540.190185546875 49.02676010131836 547.3966674804688 51.856285095214844 558.154296875" stroke-width="0.0" fill="rgb(198, 203, 214)" opacity="1.0"/>
    <path d="M 434.78271484375 528.8295288085938 C 431.9607238769531 539.6087646484375 424.60546875 546.9505615234375 414.00396728515625 549.6908569335938 C 403.40057373046875 546.9443969726562 395.9842834472656 539.6258544921875 393.20867919921875 529.440185546875 C 396.1494445800781 518.5369873046875 403.55450439453125 511.198486328125 414.1376953125 508.3653564453125 C 424.5561218261719 511.1003723144531 431.9580078125 518.4236450195312 434.78271484375 528.8295288085938" stroke-width="0.0" fill="rgb(178, 184, 194)" opacity="0.99077946"/>
    <path d="M 249.35955810546875 78.07560729980469 C 246.4720916748047 88.15648651123047 239.16012573242188 95.4862060546875 229.01304626464844 98.31877136230469 C 218.9623260498047 95.35494995117188 211.86927795410156 87.96366119384766 209.34144592285156 77.78125 C 211.4756317138672 67.74347686767578 218.70767211914062 60.35076904296875 229.1952667236328 57.5147819519043 C 239.2603302001953 60.359825134277344 246.5301055908203 67.77163696289062 249.35955810546875 78.07560729980469" stroke-width="0.0" fill="rgb(243, 244, 246)" opacity="0.99055076"/>
    <path d="M 600.8751220703125 46.74864959716797 C 598.098876953125 57.74612808227539 590.7474365234375 65.10220336914062 580.0030517578125 67.87452697753906 C 569.2421875 65.1157455444336 561.8990478515625 57.75173568725586 559.1239624023438 46.85715866088867 C 561.8859252929688 36.23993682861328 569.237548828125 28.87955093383789 580.1995849609375 26.096092224121094 C 590.7860717773438 28.85870361328125 598.12939453125 36.21851348876953 600.8751220703125 46.74864959716797" stroke-width="0.0" fill="rgb(123, 131, 141)" opacity="1.0"/>
    <path d="M 413.20892333984375 265.95294189453125 C 410.4896545410156 276.14886474609375 403.1408386230469 283.4625549316406 392.77252197265625 286.3909606933594 C 382.5953063964844 283.7351379394531 375.1826171875 276.4327392578125 372.3601989746094 266.2404479980469 C 375.3839416503906 255.72389221191406 382.6919860839844 248.29360961914062 392.83160400390625 245.5398406982422 C 403.32958984375 248.33009338378906 410.6226806640625 255.68478393554688 413.20892333984375 265.95294189453125" stroke-width="0.0" fill="rgb(226, 230, 238)" opacity="0.990658"/>
    <path d="M 332.056884765625 349.8341979980469 C 331.1678161621094 359.86822509765625 323.89215087890625 367.2400817871094 313.8161315917969 369.95452880859375 C 303.7487487792969 366.6031188964844 296.5884704589844 358.1430969238281 293.96771240234375 348.8559875488281 C 296.59051513671875 339.8631896972656 303.7698974609375 331.6874694824219 313.8031005859375 328.0436706542969 C 323.8126220703125 330.7797546386719 329.5355529785156 338.59735107421875 332.056884765625 349.8341979980469" stroke-width="0.0" fill="rgb(24, 28, 36)" opacity="0.9900104"/>
    <path d="M 90.46868133544922 53.057186126708984 C 87.75763702392578 63.38115310668945 80.3684310913086 70.7266616821289 70.2395248413086 73.48660278320312 C 60.002784729003906 70.31755828857422 52.680267333984375 62.998008728027344 49.69808578491211 52.75188064575195 C 52.22111511230469 42.55086898803711 59.51926803588867 35.1282844543457 69.7081069946289 32.35304641723633 C 80.39305114746094 35.27016067504883 87.76234436035156 42.59592056274414 90.46868133544922 53.057186126708984" stroke-width="0.0" fill="rgb(210, 214, 222)" opacity="0.9916245"/>
    <path d="M 45.46051788330078 348.6536865234375 C 42.86201095581055 358.2256774902344 34.935096740722656 365.2110900878906 24.80659294128418 368.5404052734375 C 14.697025299072266 365.6288146972656 7.357153415679932 358.3083801269531 4.699134826660156 348.1188049316406 C 7.684922695159912 337.9888916015625 14.98325252532959 330.66351318359375 25.024240493774414 327.97735595703125 C 35.18678283691406 330.5550842285156 42.653072357177734 337.747802734375 45.46051788330078 348.6536865234375" stroke-width="0.0" fill="rgb(239, 242, 247)" opacity="1.0"/>
    <path d="M 516.7725219726562 100.6188735961914 C 514.0489501953125 110.68505859375 506.68438720703125 118.04512023925781 496.3866882324219 120.74445343017578 C 485.46527099609375 117.8775634765625 478.0157470703125 110.57516479492188 475.1678161621094 100.23493957519531 C 478.12451171875 89.58580780029297 485.694580078125 82.43895721435547 495.9241027832031 79.93743896484375 C 506.0006103515625 82.67929077148438 513.3299560546875 89.99683380126953 516.7725219726562 100.6188735961914" stroke-width="0.0" fill="rgb(158, 165, 175)" opacity="0.99089104"/>
    <path d="M 193.7274627685547 519.1270751953125 C 191.5802459716797 529.290771484375 184.3292694091797 536.7066040039062 174.1503448486328 539.3726806640625 C 163.7751007080078 536.546630859375 156.4140625 529.2374877929688 153.56649780273438 518.90087890625 C 156.42404174804688 508.7589416503906 163.6305389404297 501.11883544921875 173.42042541503906 499.3374328613281 C 184.3625030517578 501.2793273925781 191.51846313476562 508.6901550292969 193.7274627685547 519.1270751953125" stroke-width="0.0" fill="rgb(233, 237, 242)" opacity="1.0"/>
    <path d="M 519.6859741210938 301.20684814453125 C 516.8327026367188 311.38153076171875 509.28192138671875 318.53656005859375 499.0641174316406 321.0506591796875 C 488.98052978515625 318.3273010253906 481.4927673339844 311.0757141113281 478.2982482910156 300.6968688964844 C 481.1058349609375 290.4566955566406 488.44036865234375 283.0629577636719 499.0222473144531 280.2679138183594 C 509.5566101074219 283.0606689453125 516.8587036132812 290.4715576171875 519.6859741210938 301.20684814453125" stroke-width="0.0" fill="rgb(188, 194, 208)" opacity="0.9929614"/>
    <path d="M 34.74137878417969 491.4162292480469 C 31.594680786132812 502.18408203125 24.131153106689453 509.42523193359375 14.031123161315918 512.0262451171875 C 4.0 509.32049560546875 -3.3205080032348633 502.0 -6.189826011657715 491.77593994140625 C -3.8430304527282715 481.40350341796875 3.3085336685180664 473.890625 13.718354225158691 471.16339111328125 C 24.76921844482422 473.8916931152344 32.125892639160156 481.2232971191406 34.74137878417969 491.4162292480469" stroke-width="0.0" fill="rgb(219, 220, 229)" opacity="1.0"/>
    <path d="M 175.39942932128906 121.91876983642578 C 172.3115692138672 131.90634155273438 164.8188018798828 139.0274200439453 154.69161987304688 142.2105255126953 C 144.5831756591797 139.69369506835938 137.14390563964844 132.4672393798828 134.4508056640625 122.39258575439453 C 137.6794891357422 112.0 145.0 104.67948913574219 155.24612426757812 101.61511993408203 C 165.23040771484375 104.33565521240234 172.43568420410156 111.84567260742188 175.39942932128906 121.91876983642578" stroke-width="0.0" fill="rgb(255, 255, 255)" opacity="0.9906717"/>
    <path d="M 592.7866821289062 441.1140441894531 C 590.0017700195312 451.6145324707031 582.56689453125 458.8573303222656 572.2632446289062 461.264892578125 C 561.9208984375 458.359130859375 554.3826293945312 451.16363525390625 551.2725830078125 440.5484619140625 C 553.9732055664062 430.3283386230469 561.322998046875 422.9583435058594 572.0332641601562 420.1481628417969 C 582.6464233398438 422.9737854003906 589.9882202148438 430.3677978515625 592.7866821289062 441.1140441894531" stroke-width="0.0" fill="rgb(159, 167, 179)" opacity="0.99237275"/>
    <path d="M 547.7737426757812 163.7750244140625 C 544.977294921875 174.63275146484375 537.6404418945312 181.9973907470703 527.4678955078125 184.54440307617188 C 517.0010375976562 181.31846618652344 509.6798095703125 173.9994354248047 506.7657165527344 163.77920532226562 C 509.22796630859375 153.54617309570312 516.5304565429688 146.1775665283203 527.0951538085938 143.4755859375 C 537.6079711914062 146.08229064941406 545.0225830078125 153.35646057128906 547.7737426757812 163.7750244140625" stroke-width="0.0" fill="rgb(163, 171, 182)" opacity="1.0"/>
    <path d="M 496.7911071777344 592.6554565429688 C 493.77685546875 603.2730102539062 486.1351623535156 610.3881225585938 476.01055908203125 613.0050659179688 C 466.0 610.3204956054688 458.67950439453125 603.0 455.9703674316406 592.9561157226562 C 458.508056640625 582.754150390625 465.65234375 575.2014770507812 476.5156555175781 572.1851806640625 C 486.704833984375 574.9325561523438 494.0487976074219 582.3018798828125 496.7911071777344 592.6554565429688" stroke-width="0.0" fill="rgb(150, 157, 168)" opacity="1.0"/>
    <path d="M 521.9843139648438 170.98667907714844 C 519.3187255859375 180.9993438720703 512.0001831054688 188.32154846191406 501.6376037597656 191.4180450439453 C 491.417236328125 188.91847229003906 484.0500183105469 181.5929412841797 481.2455139160156 170.77357482910156 C 483.9765625 160.3392333984375 491.3501892089844 153.00648498535156 501.64178466796875 150.30116271972656 C 512.2205810546875 153.32810974121094 519.3931884765625 160.87054443359375 521.9843139648438 170.98667907714844" stroke-width="0.0" fill="rgb(174, 184, 195)" opacity="0.9910744"/>
    <path d="M 440.6601257324219 8.542397499084473 C 437.3385925292969 19.00655746459961 430.0016174316406 26.321088790893555 419.8831787109375 29.08721160888672 C 409.5386657714844 26.68146514892578 401.9828796386719 19.57670783996582 399.1732177734375 9.27285385131836 C 402.070068359375 -1.4643511772155762 409.667236328125 -8.549368858337402 419.97308349609375 -11.054709434509277 C 430.23553466796875 -8.468053817749023 437.8545837402344 -1.3708491325378418 440.6601257324219 8.542397499084473" stroke-width="0.0" fill="rgb(147, 155, 165)" opacity="1.0"/>
    <path d="M 367.50726318359375 400.6017761230469 C 364.2897033691406 410.9859924316406 356.99383544921875 418.3171081542969 346.62725830078125 421.40057373046875 C 336.40447998046875 418.9389343261719 329.12017822265625 411.57745361328125 326.7492370605469 401.3041687011719 C 329.7700500488281 391.0876159667969 337.08740234375 383.76983642578125 347.186279296875 381.2313232421875 C 357.3802185058594 383.3193664550781 364.8154602050781 390.5776062011719 367.50726318359375 400.6017761230469" stroke-width="0.0" fill="rgb(221, 225, 232)" opacity="1.0"/>
    <path d="M 589.8212280273438 268.6309509277344 C 587.0101928710938 279.66790771484375 579.6776733398438 287.03692626953125 569.1083374023438 289.7767639160156 C 558.3375244140625 287.0102844238281 550.96044921875 279.673095703125 548.2074584960938 269.376220703125 C 551.0301513671875 258.3710021972656 558.3639526367188 251.0096435546875 568.977294921875 248.26312255859375 C 579.6650390625 250.99948120117188 587.0564575195312 258.31500244140625 589.8212280273438 268.6309509277344" stroke-width="0.0" fill="rgb(167, 172, 187)" opacity="0.9931792"/>
    <path d="M 550.8865356445312 60.501129150390625 C 548.0741577148438 71.71318817138672 540.7083129882812 79.06168365478516 530.580078125 81.69541931152344 C 520.0 78.32046508789062 512.6795043945312 71.0 509.8815002441406 60.95857620239258 C 512.6591796875 50.99331283569336 519.9989013671875 43.67912673950195 530.6259155273438 40.31372833251953 C 540.7909545898438 42.87206268310547 548.1484985351562 50.20195770263672 550.8865356445312 60.501129150390625" stroke-width="0.0" fill="rgb(134, 142, 152)" opacity="1.0"/>
    <path d="M 508.830322265625 518.9658203125 C 505.9288330078125 529.474365234375 498.3625793457031 536.60546875 488.0689697265625 539.0836791992188 C 477.81134033203125 536.4364013671875 470.22235107421875 529.3047485351562 467.2387390136719 518.7156982421875 C 469.9962463378906 508.3595886230469 477.3699645996094 501.02557373046875 488.2457580566406 498.2178649902344 C 498.60906982421875 501.01422119140625 505.98114013671875 508.39300537109375 508.830322265625 518.9658203125" stroke-width="0.0" fill="rgb(163, 170, 181)" opacity="0.9910315"/>
    <path d="M 602.0852661132812 579.897216796875 C 599.320556640625 590.0001831054688 592.0011596679688 597.3240966796875 581.4482421875 600.7196655273438 C 571.468994140625 597.9703369140625 564.3319702148438 590.427734375 561.5112915039062 579.6271362304688 C 564.0059204101562 569.3176879882812 571.2816162109375 561.904296875 581.4152221679688 559.23486328125 C 592.3853759765625 562.23876953125 599.613525390625 569.66015625 602.0852661132812 579.897216796875" stroke-width="0.0" fill="rgb(131, 139, 151)" opacity="0.991241"/>
    <path d="M 169.34979248046875 6.140270233154297 C 166.7598419189453 16.408708572387695 159.39527893066406 23.715246200561523 148.66567993164062 26.640867233276367 C 138.55433654785156 23.832616806030273 131.1348114013672 16.458370208740234 128.34974670410156 6.400091171264648 C 131.52743530273438 -4.077978134155273 138.96327209472656 -11.338263511657715 148.99990844726562 -14.002567291259766 C 159.03599548339844 -11.337821006774902 166.47024536132812 -4.076633453369141 169.34979248046875 6.140270233154297" stroke-width="0.0" fill="rgb(199, 204, 212)" opacity="0.99065703"/>
    <path d="M 113.04438018798828 582.9386596679688 C 110.34890747070312 593.0426025390625 103.06163024902344 600.4117431640625 92.75599670410156 603.31689453125 C 82.46902465820312 600.8457641601562 75.08499145507812 593.5526733398438 72.30834197998047 582.9027099609375 C 75.00235748291016 572.3162231445312 82.27481842041016 564.8905639648438 93.13648223876953 562.1034545898438 C 103.57791900634766 564.947021484375 110.59600830078125 572.5917358398438 113.04438018798828 582.9386596679688" stroke-width="0.0" fill="rgb(177, 181, 189)" opacity="1.0"/>
    <path d="M 63.79861068725586 255.06491088867188 C 61.828556060791016 265.4038391113281 54.30714416503906 272.5111389160156 43.86875915527344 275.1312255859375 C 33.865333557128906 272.3880310058594 26.43587303161621 265.1866455078125 23.60247230529785 255.0283203125 C 26.69281578063965 244.98825073242188 34.00276565551758 237.74302673339844 44.161991119384766 234.69989013671875 C 54.25235366821289 237.40444946289062 61.6036491394043 244.7438201904297 63.79861068725586 255.06491088867188" stroke-width="0.0" fill="rgb(250, 252, 254)" opacity="0.9905189"/>
    <path d="M 51.260536193847656 323.12530517578125 C 48.81668472290039 332.5840759277344 41.680946350097656 340.1413879394531 31.997163772583008 343.0401306152344 C 22.045894622802734 340.2866516113281 14.74380874633789 332.9445495605469 12.209874153137207 323.059814453125 C 14.699913024902344 312.9197082519531 21.885868072509766 305.56915283203125 32.16462707519531 302.679443359375 C 42.52249526977539 305.193359375 49.93659591674805 312.4358215332031 51.260536193847656 323.12530517578125" stroke-width="0.0" fill="rgb(242, 244, 248)" opacity="1.0"/>
    <path d="M 70.19271087646484 124.15901184082031 C 67.3728256225586 134.0173797607422 60.00277328491211 141.3214111328125 49.963096618652344 144.03614807128906 C 39.90654373168945 141.42172241210938 32.68824005126953 134.06423950195312 29.691864013671875 123.61079406738281 C 32.15357208251953 113.51692962646484 39.53245162963867 106.19959259033203 49.64878463745117 103.53565216064453 C 59.93178939819336 106.8559799194336 67.3023910522461 114.0152587890625 70.19271087646484 124.15901184082031" stroke-width="0.0" fill="rgb(233, 236, 242)" opacity="0.9913372"/>
    <path d="M 275.0 38.0 C 272.32049560546875 48.0 265.0 55.32050704956055 254.99954223632812 58.00016784667969 C 244.986328125 55.3255729675293 237.55540466308594 48.049442291259766 234.61520385742188 38.09124755859375 C 237.52838134765625 27.88962173461914 244.91714477539062 20.618608474731445 254.98399353027344 17.987972259521484 C 265.0 20.67949104309082 272.32049560546875 28.0 275.0 38.0" stroke-width="0.0" fill="rgb(208, 213, 220)" opacity="0.993477"/>
    <path d="M 219.04505920410156 492.915283203125 C 218.22506713867188 502.8957214355469 210.89076232910156 510.2095947265625 200.89846801757812 511.0472717285156 C 190.69818115234375 508.43939208984375 181.80955505371094 502.6400146484375 179.2925262451172 492.93011474609375 C 183.6159210205078 482.9231262207031 190.92222595214844 475.6138610839844 200.02784729003906 472.9717102050781 C 209.0828857421875 475.60894775390625 216.38255310058594 482.9208984375 219.04505920410156 492.915283203125" stroke-width="0.0" fill="rgb(9, 4, 5)" opacity="0.9900033"/>
    <path d="M 115.97022247314453 392.3777770996094 C 113.26052856445312 402.9270324707031 105.92619323730469 410.25830078125 95.06430053710938 412.9649963378906 C 84.09004211425781 410.2493896484375 76.7540054321289 402.90838623046875 74.04564666748047 392.8480529785156 C 77.07672119140625 381.63763427734375 84.86122131347656 374.6206970214844 95.7983627319336 371.162353515625 C 105.90499877929688 373.76934814453125 113.25284576416016 381.0865173339844 115.97022247314453 392.3777770996094" stroke-width="0.0" fill="rgb(7, 12, 17)" opacity="1.0"/>
    <path d="M 103.90721893310547 370.7624816894531 C 101.00379943847656 380.4469299316406 93.18688201904297 387.4035339355469 82.2597427368164 390.7916259765625 C 72.14657592773438 388.1944274902344 64.85035705566406 380.8388671875 62.097259521484375 369.2154235839844 C 64.7572250366211 359.09014892578125 72.093017578125 351.76513671875 82.18902587890625 349.1488342285156 C 93.00074768066406 352.6792907714844 100.34178161621094 359.9934387207031 103.90721893310547 370.7624816894531" stroke-width="0.0" fill="rgb(14, 18, 23)" opacity="0.9907832"/>
    <path d="M 491.0004577636719 442.9975280761719 C 488.32049560546875 453.0 481.0 460.32049560546875 470.9866943359375 463.0076599121094 C 460.885009765625 460.3873596191406 453.3587951660156 453.1974792480469 450.392578125 442.861328125 C 453.14691162109375 432.4866638183594 460.4604797363281 425.0740661621094 470.6451110839844 422.3629455566406 C 481.1134338378906 425.4612731933594 488.3426208496094 432.9486999511719 491.0004577636719 442.9975280761719" stroke-width="0.0" fill="rgb(187, 192, 204)" opacity="0.9910239"/>
    <path d="M 117.9315185546875 351.9270324707031 C 115.25660705566406 361.9178161621094 107.90967559814453 369.2356262207031 97.8114242553711 371.8519287109375 C 87.00000762939453 368.32012939453125 79.63699340820312 361.0119323730469 76.28582000732422 351.69036865234375 C 80.58706665039062 341.9111022949219 87.92127990722656 334.6168212890625 96.7138671875 331.9728698730469 C 106.07732391357422 334.617431640625 113.39756774902344 341.91705322265625 117.9315185546875 351.9270324707031" stroke-width="0.0" fill="rgb(11, 15, 23)" opacity="0.99000597"/>
    <path d="M 358.7117614746094 84.68338775634766 C 355.8523864746094 95.50275421142578 348.5218811035156 102.90729522705078 338.3912048339844 105.65274810791016 C 327.7075500488281 102.62982940673828 320.35882568359375 95.29553985595703 317.7611083984375 85.17041778564453 C 320.6683044433594 74.97783660888672 327.95989990234375 67.6087875366211 338.3405456542969 64.54130554199219 C 348.4980773925781 67.1634521484375 355.9259948730469 74.4699478149414 358.7117614746094 84.68338775634766" stroke-width="0.0" fill="rgb(206, 212, 220)" opacity="0.9910472"/>
    <path d="M 476.0086669921875 592.9744873046875 C 473.3185729980469 602.9990844726562 465.9996032714844 610.3203125 455.9999694824219 613.0 C 446.0 610.3204956054688 438.67950439453125 603.0 435.7476806640625 592.829345703125 C 438.39959716796875 582.80712890625 445.86810302734375 575.5933837890625 456.2608947753906 572.5879516601562 C 466.2601013183594 575.2967529296875 473.4287109375 582.8294677734375 476.0086669921875 592.9744873046875" stroke-width="0.0" fill="rgb(154, 161, 172)" opacity="0.9941523"/>
    <path d="M 75.58455657958984 216.84878540039062 C 72.2034683227539 226.96295166015625 65.0037841796875 234.3233642578125 55.219032287597656 236.64637756347656 C 44.92670822143555 234.23851013183594 37.52225112915039 227.13430786132812 35.27922439575195 217.16688537597656 C 37.66415023803711 206.88233947753906 44.849578857421875 199.53125 54.949363708496094 196.95343017578125 C 65.02259063720703 199.66986083984375 72.46761322021484 206.93545532226562 75.58455657958984 216.84878540039062" stroke-width="0.0" fill="rgb(252, 253, 255)" opacity="0.99074435"/>
    <path d="M 382.6502380371094 342.7911071777344 C 379.63555908203125 353.2938232421875 372.2973327636719 360.64849853515625 362.0044250488281 363.4451599121094 C 351.77593994140625 360.5315856933594 344.3950500488281 353.2471008300781 341.50445556640625 342.89990234375 C 344.2697448730469 332.6654357910156 351.71881103515625 325.4364929199219 361.88458251953125 323.05816650390625 C 372.32354736328125 325.4042053222656 379.7453308105469 332.6335754394531 382.6502380371094 342.7911071777344" stroke-width="0.0" fill="rgb(231, 235, 243)" opacity="0.9905819"/>
    <path d="M 334.6229248046875 126.80733489990234 C 332.2479553222656 137.0732879638672 325.197265625 144.65469360351562 315.2917785644531 147.50469970703125 C 304.7071228027344 144.5854034423828 297.24114990234375 137.3483123779297 294.32958984375 127.22129821777344 C 297.300048828125 116.67686462402344 304.7398681640625 109.52989196777344 315.2439880371094 106.83970642089844 C 325.3865661621094 109.26239776611328 332.6541442871094 116.637451171875 334.6229248046875 126.80733489990234" stroke-width="0.0" fill="rgb(232, 234, 241)" opacity="0.99060047"/>
    <path d="M 504.6882629394531 48.464046478271484 C 501.96929931640625 58.5077018737793 494.37030029296875 65.57084655761719 483.9952392578125 68.07745361328125 C 473.66314697265625 65.5612564086914 466.07391357421875 58.463008880615234 463.2059631347656 48.04869842529297 C 466.0057678222656 37.35582733154297 473.34710693359375 29.98179054260254 484.15826416015625 27.17704963684082 C 494.6158447265625 29.971590042114258 501.78662109375 37.465362548828125 504.6882629394531 48.464046478271484" stroke-width="0.0" fill="rgb(140, 148, 158)" opacity="1.0"/>
    <path d="M 373.508056640625 426.14849853515625 C 370.7976379394531 436.463134765625 363.48193359375 443.854736328125 353.2695007324219 446.5729675292969 C 342.47601318359375 443.77410888671875 334.8903503417969 436.65802001953125 332.0833435058594 426.7244873046875 C 334.964599609375 415.4303894042969 342.58465576171875 408.3953552246094 352.9545593261719 405.9269104003906 C 363.10418701171875 408.5993347167969 370.57830810546875 415.8388366699219 373.508056640625 426.14849853515625" stroke-width="0.0" fill="rgb(218, 222, 230)" opacity="1.0"/>
    <path d="M 336.9577941894531 402.67138671875 C 334.23516845703125 413.89959716796875 326.9033203125 421.2438659667969 316.9253234863281 423.863525390625 C 306.9064025878906 419.4012756347656 299.6072998046875 412.0901184082031 296.968505859375 402.27838134765625 C 299.53350830078125 393.63067626953125 305.3772277832031 384.829345703125 316.68109130859375 382.03875732421875 C 326.9080810546875 384.7536926269531 334.2386169433594 392.09521484375 336.9577941894531 402.67138671875" stroke-width="0.0" fill="rgb(24, 28, 34)" opacity="0.99000925"/>
    <path d="M 370.1272888183594 148.10079956054688 C 367.5998840332031 158.23886108398438 360.2146301269531 165.51951599121094 349.7402648925781 168.42532348632812 C 339.53399658203125 165.8002166748047 332.08709716796875 158.50604248046875 329.29986572265625 148.45980834960938 C 332.49090576171875 137.79824829101562 339.7820739746094 130.43724060058594 350.1705627441406 127.6631088256836 C 360.2612609863281 130.33306884765625 367.53515625 137.7807159423828 370.1272888183594 148.10079956054688" stroke-width="0.0" fill="rgb(225, 229, 237)" opacity="0.99057686"/>
    <path d="M 123.62286376953125 22.92107582092285 C 120.7892074584961 33.442420959472656 113.43010711669922 40.748043060302734 102.70215606689453 43.49729919433594 C 92.49603271484375 40.87209701538086 85.21053314208984 33.477569580078125 82.61276245117188 23.14512062072754 C 85.47166442871094 12.879472732543945 92.93304443359375 5.642819404602051 103.00463104248047 2.9891180992126465 C 113.09493255615234 5.624329566955566 120.64640045166016 12.815598487854004 123.62286376953125 22.92107582092285" stroke-width="0.0" fill="rgb(205, 210, 218)" opacity="0.9906514"/>
    <path d="M 358.591552734375 39.521690368652344 C 355.3255615234375 50.0158805847168 348.0723876953125 57.506492614746094 337.7245788574219 60.71110153198242 C 327.488525390625 57.882198333740234 320.11773681640625 50.512638092041016 317.24078369140625 39.615943908691406 C 319.98095703125 29.342037200927734 327.3364562988281 21.96605110168457 337.6961975097656 19.17333984375 C 348.5966491699219 22.046649932861328 355.97991943359375 29.39260482788086 358.591552734375 39.521690368652344" stroke-width="0.0" fill="rgb(181, 187, 197)" opacity="1.0"/>
    <path d="M 536.7892456054688 40.35050582885742 C 533.3480834960938 51.00910949707031 526.0013427734375 58.32048416137695 515.4959716796875 61.59413528442383 C 505.36468505859375 59.014122009277344 498.1313781738281 51.58863067626953 495.370361328125 40.59443664550781 C 497.9546813964844 30.2879695892334 505.2728271484375 22.911672592163086 516.3352661132812 20.116300582885742 C 526.733154296875 22.897319793701172 534.0950317382812 30.26991081237793 536.7892456054688 40.35050582885742" stroke-width="0.0" fill="rgb(136, 141, 153)" opacity="1.0"/>
    <path d="M 81.96282958984375 421.0040588378906 C 79.2484359741211 431.91314697265625 71.91246795654297 439.2466735839844 60.68050765991211 441.9623107910156 C 50.09299850463867 439.2439270019531 42.750614166259766 431.9094543457031 40.03361129760742 421.101806640625 C 42.745948791503906 410.0802307128906 50.08045959472656 402.7466125488281 61.37682342529297 400.03582763671875 C 71.91510009765625 402.74774169921875 79.2475814819336 410.0868835449219 81.96282958984375 421.0040588378906" stroke-width="0.0" fill="rgb(21, 26, 34)" opacity="1.0"/>
    <path d="M 429.3873291015625 184.1569061279297 C 426.7403564453125 194.40151977539062 419.3875427246094 201.69317626953125 408.75665283203125 204.5538787841797 C 398.56463623046875 201.80288696289062 391.2036437988281 194.43324279785156 388.54010009765625 184.3364715576172 C 391.5776062011719 173.85618591308594 398.8238220214844 166.46368408203125 409.2777099609375 163.34909057617188 C 419.290771484375 166.28237915039062 426.5854187011719 173.75393676757812 429.3873291015625 184.1569061279297" stroke-width="0.0" fill="rgb(213, 218, 228)" opacity="0.99070346"/>
    <path d="M 21.440359115600586 287.7532653808594 C 18.312816619873047 297.9974060058594 10.999493598937988 305.3203125 0.9999889135360718 308.0 C -9.0 305.32049560546875 -16.32050895690918 298.0 -19.0 288.0 C -16.320507049560547 278.0 -8.999894142150879 270.67987060546875 1.174373984336853 267.6361083984375 C 11.147422790527344 270.513671875 18.567031860351562 277.8253479003906 21.440359115600586 287.7532653808594" stroke-width="0.0" fill="rgb(243, 246, 251)" opacity="0.99171996"/>
    <path d="M 112.57878112792969 137.369873046875 C 109.63771057128906 147.07464599609375 101.82638549804688 153.97171020507812 91.66915130615234 157.1157684326172 C 81.74894714355469 154.6284637451172 74.45977783203125 147.22312927246094 71.86162567138672 137.0191650390625 C 74.4366226196289 126.75651550292969 81.76528930664062 119.46388244628906 91.7912368774414 117.2101058959961 C 101.9181137084961 119.89379119873047 109.41569519042969 126.9764633178711 112.57878112792969 137.369873046875" stroke-width="0.0" fill="rgb(248, 249, 252)" opacity="0.9906548"/>
    <path d="M 550.7840576171875 129.1593475341797 C 548.034423828125 139.68812561035156 540.6889038085938 147.03555297851562 530.426025390625 149.63340759277344 C 519.5540771484375 146.76568603515625 512.13330078125 139.47915649414062 509.2877502441406 128.83045959472656 C 512.024169921875 118.38629913330078 519.3897094726562 111.03224182128906 530.1029663085938 108.22211456298828 C 540.65478515625 110.97882080078125 547.9909057617188 118.35663604736328 550.7840576171875 129.1593475341797" stroke-width="0.0" fill="rgb(156, 165, 176)" opacity="1.0"/>
    <path d="M 24.64715003967285 433.275390625 C 21.952117919921875 444.6086120605469 14.641396522521973 452.0404968261719 4.597231388092041 454.8165588378906 C -6.0483174324035645 451.4447937011719 -13.325023651123047 444.0123596191406 -16.000240325927734 434.0001525878906 C -13.321677207946777 423.9980163574219 -5.999378204345703 416.68841552734375 4.2956671714782715 413.5314636230469 C 14.582448959350586 416.1646728515625 22.10023307800293 423.3211364746094 24.64715003967285 433.275390625" stroke-width="0.0" fill="rgb(226, 230, 237)" opacity="1.0"/>
    <path d="M 79.95820617675781 198.0001678466797 C 77.2528076171875 207.93495178222656 69.93707275390625 215.25978088378906 59.98044967651367 217.9784698486328 C 50.016632080078125 215.3130340576172 42.777496337890625 207.95640563964844 40.30310821533203 197.86705017089844 C 42.447914123535156 187.6896514892578 49.65361404418945 180.3129119873047 59.640380859375 178.1770782470703 C 69.7972183227539 180.97804260253906 77.22265625 188.13941955566406 79.95820617675781 198.0001678466797" stroke-width="0.0" fill="rgb(251, 252, 254)" opacity="0.99107045"/>
    <path d="M 446.4856872558594 23.616683959960938 C 443.32049560546875 34.0 436.0 41.32050704956055 425.8125 44.1646614074707 C 415.4986877441406 41.76973342895508 408.03900146484375 34.5631103515625 405.3736877441406 24.48857307434082 C 408.6771545410156 13.99905776977539 415.999755859375 6.679548740386963 426.11322021484375 3.9107978343963623 C 436.4001159667969 6.349189758300781 443.88470458984375 13.52501106262207 446.4856872558594 23.616683959960938" stroke-width="0.0" fill="rgb(149, 158, 168)" opacity="0.99551857"/>
    <path d="M 100.45555114746094 104.83396911621094 C 97.392333984375 115.0900650024414 90.09654235839844 122.41551971435547 79.9892807006836 125.13518524169922 C 69.94644927978516 122.35525512695312 62.62195587158203 115.06108856201172 59.43048095703125 104.58785247802734 C 62.22768020629883 94.6001968383789 69.5833969116211 87.18496704101562 79.62911987304688 84.47794342041016 C 90.2466812133789 87.42064666748047 97.58543395996094 94.75389099121094 100.45555114746094 104.83396911621094" stroke-width="0.0" fill="rgb(240, 243, 247)" opacity="0.99061483"/>
    <path d="M 573.5299682617188 587.4164428710938 C 570.9664306640625 597.5816650390625 563.5254516601562 604.78759765625 552.9799194335938 607.2949829101562 C 542.4505004882812 604.806884765625 534.9472045898438 597.6347045898438 532.1261596679688 587.15234375 C 534.927490234375 576.297607421875 542.2954711914062 568.9213256835938 552.5354614257812 566.1337890625 C 563.49365234375 569.04833984375 570.5879516601562 576.6318359375 573.5299682617188 587.4164428710938" stroke-width="0.0" fill="rgb(133, 142, 153)" opacity="1.0"/>
    <path d="M 567.8107299804688 392.3708801269531 C 565.0419921875 402.6915588378906 557.7019653320312 410.0674743652344 547.3941650390625 412.7796936035156 C 536.4038696289062 409.9466857910156 529.026611328125 402.60552978515625 526.253662109375 392.0908203125 C 529.0479125976562 381.4095153808594 536.3999633789062 374.02117919921875 547.0446166992188 371.1803283691406 C 557.6300659179688 373.9904479980469 564.9625854492188 381.3873596191406 567.8107299804688 392.3708801269531" stroke-width="0.0" fill="rgb(170, 178, 190)" opacity="0.9911647"/>
    <path d="M 451.86663818359375 31.496379852294922 C 449.1163635253906 41.75190353393555 441.7400817871094 49.08516311645508 431.35076904296875 51.78718185424805 C 420.3404846191406 49.00692367553711 413.00604248046875 41.65530014038086 410.48779296875 31.44675636291504 C 413.6776428222656 20.999053955078125 420.9997253417969 13.679988861083984 431.2097473144531 10.822735786437988 C 441.5478515625 13.190138816833496 449.0133056640625 20.385698318481445 451.86663818359375 31.496379852294922" stroke-width="0.0" fill="rgb(149, 158, 167)" opacity="0.99678"/>
    <path d="M 504.50518798828125 402.4029541015625 C 501.9294128417969 412.5882263183594 494.60028076171875 419.9635009765625 483.7218017578125 422.7792053222656 C 473.4101867675781 419.9790954589844 466.09765625 412.5626525878906 463.41754150390625 402.0464782714844 C 466.1236877441406 391.4873352050781 473.5166015625 384.2169189453125 483.7836608886719 381.78509521484375 C 494.0001525878906 384.6795349121094 501.32122802734375 391.9996337890625 504.50518798828125 402.4029541015625" stroke-width="0.0" fill="rgb(187, 193, 204)" opacity="0.991471"/>
    <path d="M 205.93771362304688 567.6624755859375 C 203.1659393310547 578.7913818359375 195.75851440429688 586.0823974609375 185.19036865234375 588.7308349609375 C 174.34408569335938 585.9940185546875 166.95016479492188 578.67724609375 164.34910583496094 568.5538940429688 C 167.6794891357422 558.0 175.0 550.6795043945312 185.56521606445312 547.4076538085938 C 195.80084228515625 549.8881225585938 203.1920928955078 557.169921875 205.93771362304688 567.6624755859375" stroke-width="0.0" fill="rgb(85, 92, 99)" opacity="0.9900467"/>
    <path d="M 70.93467712402344 487.8789978027344 C 68.24642944335938 497.9087829589844 60.908485412597656 505.2457275390625 50.89714431762695 507.9320983886719 C 40.86760330200195 503.4491271972656 33.568397521972656 496.1265563964844 29.091093063354492 486.0929260253906 C 31.756319046020508 476.1087646484375 39.14097595214844 468.85089111328125 49.423057556152344 466.4559326171875 C 60.000003814697266 469.67950439453125 67.32090759277344 476.9998779296875 70.93467712402344 487.8789978027344" stroke-width="0.0" fill="rgb(23, 26, 34)" opacity="0.9900544"/>
    <path d="M 465.7845764160156 564.823974609375 C 462.81787109375 575.3380126953125 455.2091979980469 582.4434204101562 444.50848388671875 585.5824584960938 C 434.33154296875 583.0204467773438 426.9938049316406 575.6632690429688 424.2216796875 564.7205810546875 C 426.946533203125 554.3114013671875 434.33123779296875 547.00390625 444.5807189941406 544.4873046875 C 455.297607421875 547.455810546875 462.86676025390625 554.5923461914062 465.7845764160156 564.823974609375" stroke-width="0.0" fill="rgb(161, 168, 178)" opacity="1.0"/>
    <path d="M 530.72509765625 80.62809753417969 C 528.101318359375 90.73948669433594 520.7154541015625 98.0311508178711 510.4672546386719 100.50410461425781 C 500.0057373046875 97.31378173828125 492.6851501464844 89.99459075927734 489.9940490722656 79.9800796508789 C 492.5737609863281 69.80042266845703 499.6259765625 62.107215881347656 509.4510192871094 59.257896423339844 C 519.9942626953125 62.68705368041992 527.3131713867188 70.005615234375 530.72509765625 80.62809753417969" stroke-width="0.0" fill="rgb(144, 152, 162)" opacity="1.0"/>
    <path d="M 606.4090576171875 545.022705078125 C 603.8809204101562 555.5929565429688 596.6363525390625 563.0148315429688 586.272216796875 565.7040405273438 C 575.327392578125 562.9876708984375 567.927001953125 555.7015380859375 565.1331176757812 545.0882568359375 C 567.96484375 534.3389282226562 575.3372802734375 526.9619750976562 586.1528930664062 524.1558837890625 C 596.6689453125 526.9379272460938 603.8801879882812 534.3916625976562 606.4090576171875 545.022705078125" stroke-width="0.0" fill="rgb(135, 144, 153)" opacity="1.0"/>
    <path d="M 272.49334716796875 50.30528259277344 C 269.71392822265625 60.341922760009766 262.3301696777344 67.673583984375 252.0301513671875 70.57451629638672 C 241.79673767089844 67.56834411621094 234.37869262695312 60.22111511230469 231.38409423828125 49.9793815612793 C 234.35182189941406 39.81488800048828 241.9092254638672 32.63628005981445 251.9939422607422 29.997819900512695 C 262.0 32.67949295043945 269.32049560546875 40.0 272.49334716796875 50.30528259277344" stroke-width="0.0" fill="rgb(218, 222, 228)" opacity="0.99056804"/>
    <path d="M 316.3778076171875 530.568359375 C 313.3194885253906 540.9967041015625 305.96185302734375 548.2015991210938 296.8327331542969 550.0640869140625 C 286.8602600097656 547.422119140625 279.1846618652344 540.2035522460938 275.0387878417969 530.1674194335938 C 277.7491760253906 520.0859985351562 285.0877685546875 512.75341796875 295.68072509765625 510.0359802246094 C 306.85845947265625 512.771484375 314.06640625 520.1980590820312 316.3778076171875 530.568359375" stroke-width="0.0" fill="rgb(16, 18, 24)" opacity="0.9900749"/>
    <path d="M 616.0009155273438 585.9974975585938 C 613.3204956054688 596.0 606.0 603.3204956054688 595.9967651367188 606.0035400390625 C 585.9922485351562 603.3292236328125 578.6741333007812 596.0067749023438 576.0072631835938 586.003662109375 C 578.6842041015625 576.002197265625 585.99267578125 568.650390625 596.5393676757812 565.2118530273438 C 606.2413330078125 568.2100219726562 613.3486328125 575.92626953125 616.0009155273438 585.9974975585938" stroke-width="0.0" fill="rgb(128, 136, 148)" opacity="1.0"/>
    <path d="M 78.60719299316406 473.5602111816406 C 76.10779571533203 483.77197265625 68.75972747802734 491.0678405761719 58.48463439941406 493.4721374511719 C 48.00394821166992 490.31658935546875 40.68486404418945 482.99560546875 37.057373046875 472.10986328125 C 39.74958038330078 462.0904541015625 47.09548568725586 454.76123046875 57.291080474853516 452.0511169433594 C 68.6498794555664 454.88336181640625 75.6242446899414 462.5377197265625 78.60719299316406 473.5602111816406" stroke-width="0.0" fill="rgb(20, 24, 31)" opacity="1.0"/>
    <path d="M 330.34954833984375 66.69108581542969 C 327.32049560546875 77.0 320.0 84.32051086425781 309.9483947753906 87.04950714111328 C 299.8418273925781 84.46768951416016 292.4550476074219 77.1812744140625 289.3822326660156 66.72406005859375 C 292.1771545410156 56.55483627319336 299.57403564453125 49.236026763916016 310.2871398925781 46.34810256958008 C 320.5386047363281 49.096981048583984 327.8641662597656 56.47338104248047 330.34954833984375 66.69108581542969" stroke-width="0.0" fill="rgb(205, 210, 218)" opacity="0.99249655"/>
    <path d="M 69.89945220947266 376.75885009765625 C 67.2322006225586 386.8992004394531 59.90277862548828 394.2412109375 48.618289947509766 396.96234130859375 C 38.09101104736328 394.2466125488281 30.77349281311035 386.9017333984375 29.9259033203125 376.8838806152344 C 32.491844177246094 366.2616271972656 38.25143814086914 357.8023376464844 49.62172317504883 355.03857421875 C 59.88304901123047 357.7625427246094 67.15525817871094 365.1466369628906 69.89945220947266 376.75885009765625" stroke-width="0.0" fill="rgb(26, 30, 40)" opacity="0.9901738"/>
    <path d="M 409.0010681152344 441.9978332519531 C 406.32049560546875 452.0 399.00018310546875 459.3211975097656 388.5451965332031 462.62530517578125 C 378.4612731933594 459.9181213378906 371.13702392578125 452.5200500488281 368.4883117675781 442.1551208496094 C 371.2704162597656 431.5931091308594 378.5702819824219 424.2007751464844 388.7445373535156 421.6431884765625 C 399.048095703125 424.59393310546875 406.3337707519531 431.9737548828125 409.0010681152344 441.9978332519531" stroke-width="0.0" fill="rgb(208, 214, 224)" opacity="0.9908775"/>
    <path d="M 479.58209228515625 478.44549560546875 C 476.9422607421875 488.57427978515625 469.5823669433594 495.9649353027344 459.0848693847656 498.796875 C 448.374267578125 496.0037536621094 441.08807373046875 488.5939025878906 438.30126953125 477.96392822265625 C 441.3144226074219 467.80865478515625 448.9222106933594 460.6441650390625 458.99517822265625 457.997802734375 C 469.0000305175781 460.67950439453125 476.3221435546875 467.99951171875 479.58209228515625 478.44549560546875" stroke-width="0.0" fill="rgb(177, 183, 194)" opacity="1.0"/>
    <path d="M 477.8254089355469 120.7702865600586 C 474.9548645019531 131.5710906982422 467.552490234375 138.90191650390625 456.8638000488281 141.6757354736328 C 446.4333190917969 138.9277801513672 439.0455322265625 131.57606506347656 436.1881103515625 120.89337921142578 C 439.0033264160156 110.38228607177734 446.39276123046875 103.03047180175781 456.8531188964844 100.25468444824219 C 467.61541748046875 103.0484848022461 475.0245056152344 110.35780334472656 477.8254089355469 120.7702865600586" stroke-width="0.0" fill="rgb(178, 184, 192)" opacity="0.9928718"/>
    <path d="M 100.9681396484375 512.7899780273438 C 98.26176452636719 522.9266967773438 90.92461395263672 530.2568969726562 79.89494323730469 532.9693603515625 C 69.08454132080078 530.25390625 61.7538948059082 522.9120483398438 59.036903381347656 512.3212890625 C 61.757781982421875 501.0948486328125 69.09315490722656 493.7540283203125 79.36058044433594 491.0377197265625 C 90.80615997314453 493.811767578125 98.19265747070312 501.1912536621094 100.9681396484375 512.7899780273438" stroke-width="0.0" fill="rgb(10, 13, 19)" opacity="1.0"/>
    <path d="M 508.7872009277344 445.4146728515625 C 506.0023498535156 455.607177734375 498.5792236328125 462.92950439453125 488.3186950683594 465.6617431640625 C 477.8251647949219 462.6170654296875 470.6269226074219 455.0958557128906 468.00177001953125 445.0058898925781 C 470.6416015625 434.91424560546875 477.8013916015625 427.3117980957031 488.083740234375 424.284912109375 C 498.50567626953125 427.1228942871094 505.8717041015625 434.4963073730469 508.7872009277344 445.4146728515625" stroke-width="0.0" fill="rgb(177, 184, 195)" opacity="1.0"/>
    <path d="M 524.634765625 481.48443603515625 C 521.3746337890625 492.1070251464844 514.217529296875 499.6991271972656 503.5191345214844 502.796630859375 C 493.328125 500.0380554199219 485.9686584472656 492.66943359375 483.2127990722656 482.334228515625 C 486.0274658203125 471.3738708496094 493.36566162109375 464.0037841796875 503.91217041015625 461.2544860839844 C 514.6567993164062 463.9995422363281 522.0174560546875 471.33740234375 524.634765625 481.48443603515625" stroke-width="0.0" fill="rgb(168, 175, 187)" opacity="0.99126923"/>
    <path d="M 455.55474853515625 234.41360473632812 C 452.8489685058594 244.43345642089844 445.3748474121094 251.6737823486328 435.1690979003906 254.16424560546875 C 425.09814453125 251.24952697753906 417.8511962890625 243.87100219726562 414.5213317871094 233.65606689453125 C 417.219482421875 223.57327270507812 424.5802307128906 216.24508666992188 435.1255187988281 213.55113220214844 C 445.33953857421875 216.2564697265625 452.5337829589844 223.7251739501953 455.55474853515625 234.41360473632812" stroke-width="0.0" fill="rgb(209, 214, 225)" opacity="0.9908259"/>
    <path d="M 105.8269271850586 195.4176483154297 C 102.59210968017578 205.34689331054688 95.43417358398438 212.90602111816406 86.38414764404297 215.25746154785156 C 76.09819030761719 213.19358825683594 68.7237319946289 205.92750549316406 65.95735931396484 195.94772338867188 C 68.55530548095703 185.8660430908203 75.83650207519531 178.45811462402344 85.58184051513672 176.16995239257812 C 95.39073181152344 179.30291748046875 102.87416076660156 186.56787109375 105.8269271850586 195.4176483154297" stroke-width="0.0" fill="rgb(250, 250, 251)" opacity="1.0"/>
    <path d="M 589.83056640625 469.4126281738281 C 587.0808715820312 479.72076416015625 579.7135620117188 487.061279296875 569.3749389648438 489.7953796386719 C 558.6615600585938 486.8250427246094 551.5594482421875 479.2042236328125 548.9866333007812 469.02392578125 C 551.6795043945312 459.0000915527344 559.000244140625 451.6802062988281 569.1719970703125 448.8534851074219 C 579.48291015625 451.2539367675781 586.9662475585938 458.44439697265625 589.83056640625 469.4126281738281" stroke-width="0.0" fill="rgb(150, 158, 170)" opacity="1.0"/>
    <path d="M 131.93704223632812 582.2982177734375 C 128.96434020996094 593.419189453125 121.16143798828125 600.2651977539062 111.12319946289062 602.6882934570312 C 101.43413543701172 599.9057006835938 94.24018096923828 592.5177001953125 91.63967895507812 582.529541015625 C 93.1626968383789 572.4070434570312 100.3125228881836 564.895263671875 111.68561553955078 562.0679321289062 C 121.87913513183594 564.7802124023438 129.21681213378906 572.1221923828125 131.93704223632812 582.2982177734375" stroke-width="0.0" fill="rgb(117, 122, 127)" opacity="1.0"/>
    <path d="M 501.50872802734375 225.6520538330078 C 498.58062744140625 236.32659912109375 491.403076171875 243.81912231445312 481.17974853515625 246.53500366210938 C 470.64007568359375 243.70230102539062 463.20458984375 236.3911895751953 460.33172607421875 226.2255401611328 C 463.2260437011719 215.56253051757812 470.5343322753906 208.14285278320312 480.8068542480469 205.30873107910156 C 491.47454833984375 208.1831512451172 498.88763427734375 215.49977111816406 501.50872802734375 225.6520538330078" stroke-width="0.0" fill="rgb(195, 200, 212)" opacity="0.99099326"/>
    <path d="M 415.4406433105469 444.32513427734375 C 412.8194580078125 454.4504089355469 405.4390563964844 461.7856140136719 395.2139892578125 464.455322265625 C 384.938720703125 461.4408264160156 377.66754150390625 454.0284118652344 375.0152893066406 444.0050048828125 C 377.6883544921875 434.007080078125 385.00677490234375 426.6872863769531 395.05206298828125 423.83905029296875 C 405.00823974609375 426.6549072265625 412.3205261230469 433.9986572265625 415.4406433105469 444.32513427734375" stroke-width="0.0" fill="rgb(205, 211, 221)" opacity="0.99803656"/>
    <path d="M 515.6161499023438 318.3403625488281 C 512.8981323242188 328.4941711425781 505.4382019042969 335.7294006347656 495.1818542480469 338.188720703125 C 484.97711181640625 335.32830810546875 477.4814758300781 328.082763671875 474.32861328125 317.7640380859375 C 477.1597595214844 307.6181640625 484.73388671875 300.5042419433594 494.9616394042969 297.9732360839844 C 505.0419616699219 300.6593322753906 512.499267578125 307.9087829589844 515.6161499023438 318.3403625488281" stroke-width="0.0" fill="rgb(192, 198, 209)" opacity="0.993151"/>
    <path d="M 374.51629638671875 230.1931610107422 C 371.65850830078125 240.27296447753906 364.2113037109375 247.44190979003906 353.7794494628906 250.30059814453125 C 343.6710205078125 247.66717529296875 336.2472839355469 240.35897827148438 333.4293518066406 230.2871551513672 C 336.4953918457031 219.79022216796875 343.7362976074219 212.3245849609375 353.87640380859375 209.45950317382812 C 364.2292785644531 212.45419311523438 371.5311279296875 219.77491760253906 374.51629638671875 230.1931610107422" stroke-width="0.0" fill="rgb(237, 241, 247)" opacity="0.9905651"/>
    <path d="M 77.1911392211914 139.06906127929688 C 74.56079864501953 149.2050018310547 67.17631530761719 156.46534729003906 56.99565887451172 159.09136962890625 C 47.03081130981445 156.31002807617188 39.66152572631836 148.97438049316406 36.48303985595703 139.1385955810547 C 39.646156311035156 128.992431640625 47.00358581542969 121.68577575683594 57.047733306884766 118.96402740478516 C 67.12775421142578 121.55397033691406 74.45596313476562 128.86932373046875 77.1911392211914 139.06906127929688" stroke-width="0.0" fill="rgb(240, 243, 249)" opacity="0.99086815"/>
    <path d="M 444.79779052734375 76.7540512084961 C 441.9811706542969 87.62017059326172 434.61053466796875 94.95270538330078 423.9606628417969 97.67579650878906 C 413.3670349121094 94.9768295288086 406.0021057128906 87.64002990722656 403.2043762207031 76.85027313232422 C 406.0279846191406 66.40592193603516 413.413330078125 59.0491943359375 424.25628662109375 56.229698181152344 C 434.6557312011719 58.97560119628906 442.0128173828125 66.34917449951172 444.79779052734375 76.7540512084961" stroke-width="0.0" fill="rgb(173, 179, 189)" opacity="0.9920324"/>
    <path d="M 34.69733810424805 520.8538208007812 C 31.647241592407227 531.2474975585938 24.233665466308594 538.6046142578125 13.906853675842285 541.3892822265625 C 3.581322431564331 538.7789306640625 -3.687636613845825 531.3905639648438 -6.145244121551514 521.1527709960938 C -3.3205080032348633 511.0 4.0 503.67950439453125 14.007646560668945 500.995849609375 C 24.083864212036133 503.6356201171875 31.651453018188477 510.8202819824219 34.69733810424805 520.8538208007812" stroke-width="0.0" fill="rgb(209, 213, 223)" opacity="0.99295574"/>
    <path d="M 334.2842712402344 71.81067657470703 C 331.3307800292969 82.02123260498047 324.0404357910156 89.39483642578125 313.89007568359375 92.24877166748047 C 303.72772216796875 89.6150131225586 296.4347839355469 82.2571792602539 293.91400146484375 72.09286499023438 C 296.67974853515625 62.000003814697266 303.9997863769531 54.67900848388672 314.0423278808594 51.96175003051758 C 324.1750793457031 54.53971481323242 331.62603759765625 61.773006439208984 334.2842712402344 71.81067657470703" stroke-width="0.0" fill="rgb(209, 214, 221)" opacity="0.9914617"/>
    <path d="M 505.3965759277344 67.71148681640625 C 502.320068359375 78.00037384033203 495.000732421875 85.32125091552734 484.4486999511719 88.67452239990234 C 474.32647705078125 86.03357696533203 466.968994140625 78.67250061035156 464.1850891113281 68.0497055053711 C 467.0455017089844 57.514244079589844 474.6539611816406 50.445716857910156 484.9812927246094 47.95900344848633 C 495.23931884765625 50.51460266113281 502.7560729980469 57.67368698120117 505.3965759277344 67.71148681640625" stroke-width="0.0" fill="rgb(148, 154, 164)" opacity="0.99293745"/>
    <path d="M 444.2442626953125 598.7427978515625 C 441.3204345703125 609.0 434.0 616.3204956054688 424.0 619.0 C 413.99993896484375 616.3204956054688 406.67755126953125 609.0005493164062 403.23553466796875 598.3807983398438 C 405.9436340332031 588.317626953125 413.336669921875 580.9952392578125 423.94110107421875 578.2479858398438 C 434.6034240722656 581.0178833007812 441.8505554199219 588.4388427734375 444.2442626953125 598.7427978515625" stroke-width="0.0" fill="rgb(162, 169, 179)" opacity="0.99064106"/>
    <path d="M 23.45341682434082 296.8953857421875 C 20.432193756103516 307.20086669921875 13.277417182922363 314.6853942871094 3.172140598297119 317.3211975097656 C -7.013714790344238 314.3570861816406 -14.32184886932373 307.003662109375 -17.000043869018555 297.0001220703125 C -14.320508003234863 287.0 -6.999999046325684 279.67950439453125 3.0036725997924805 276.9985046386719 C 13.0523681640625 279.6545715332031 20.539037704467773 286.8863830566406 23.45341682434082 296.8953857421875" stroke-width="0.0" fill="rgb(244, 246, 251)" opacity="0.99120086"/>
    <path d="M 280.00201416015625 29.995586395263672 C 277.3204650878906 39.99988555908203 269.9993896484375 47.31861877441406 260.01043701171875 49.948707580566406 C 250.0197296142578 47.29481506347656 242.6980743408203 39.98234176635742 239.62445068359375 29.67144012451172 C 242.12545776367188 19.46236228942871 249.4596405029297 12.117106437683105 260.0498046875 9.348586082458496 C 270.17181396484375 12.346419334411621 277.3525085449219 19.929882049560547 280.00201416015625 29.995586395263672" stroke-width="0.0" fill="rgb(203, 208, 216)" opacity="0.9982354"/>
    <path d="M 446.693359375 262.0052795410156 C 443.8242492675781 272.4552001953125 436.44012451171875 279.7751770019531 426.2145080566406 282.0755920410156 C 415.8070983886719 279.4832458496094 408.44805908203125 272.2125549316406 405.8079833984375 261.98876953125 C 408.40325927734375 251.72084045410156 415.7163391113281 244.3878631591797 425.87847900390625 241.85897827148438 C 436.08868408203125 244.635498046875 443.66729736328125 251.80935668945312 446.693359375 262.0052795410156" stroke-width="0.0" fill="rgb(213, 218, 228)" opacity="0.991379"/>
    <path d="M 289.6424560546875 31.136619567871094 C 286.946044921875 41.598323822021484 279.5975036621094 48.94325637817383 269.4046325683594 51.46792221069336 C 259.0052185058594 48.31180191040039 251.68344116210938 40.99612808227539 249.0030517578125 30.996944427490234 C 251.66831970214844 20.972606658935547 258.9107360839844 13.472664833068848 269.3650207519531 10.318761825561523 C 279.58050537109375 13.04280948638916 286.8786926269531 20.44627571105957 289.6424560546875 31.136619567871094" stroke-width="0.0" fill="rgb(198, 203, 213)" opacity="1.0"/>
    <path d="M 482.6900329589844 468.7043762207031 C 479.6046142578125 479.1678466796875 472.0921325683594 486.36920166015625 462.0081787109375 488.99664306640625 C 451.9997863769531 486.3197021484375 444.67236328125 479.0024108886719 441.5767822265625 468.7364196777344 C 444.2463684082031 458.6179504394531 451.6424560546875 451.3254699707031 461.8497009277344 448.8328857421875 C 472.1183776855469 451.6186218261719 479.7392272949219 458.7569274902344 482.6900329589844 468.7043762207031" stroke-width="0.0" fill="rgb(178, 184, 196)" opacity="0.9930062"/>
    <path d="M 304.2010498046875 190.22152709960938 C 301.32989501953125 199.9954833984375 293.96875 207.23165893554688 283.50970458984375 209.2577362060547 C 273.89227294921875 207.41090393066406 266.4996643066406 200.13316345214844 263.5873718261719 190.3070068359375 C 266.83526611328125 180.12440490722656 274.11566162109375 172.7965087890625 284.2594909667969 169.5005340576172 C 294.1965026855469 172.35916137695312 301.1992492675781 179.93600463867188 304.2010498046875 190.22152709960938" stroke-width="0.0" fill="rgb(243, 245, 247)" opacity="0.99059314"/>
    <path d="M 552.8053588867188 499.1168518066406 C 549.983154296875 509.6275329589844 542.6431274414062 517.02197265625 531.887451171875 519.81396484375 C 521.3017578125 517.0639038085938 513.9937744140625 509.67767333984375 511.4075622558594 499.4786682128906 C 514.6083984375 488.8666687011719 521.75 481.26776123046875 532.2354736328125 478.2828674316406 C 542.6459350585938 481.0118408203125 550.0154418945312 488.3443603515625 552.8053588867188 499.1168518066406" stroke-width="0.0" fill="rgb(157, 164, 175)" opacity="1.0"/>
    <path d="M 312.9655456542969 487.4964294433594 C 310.2523193359375 497.91558837890625 302.9150085449219 505.25091552734375 292.860595703125 507.9490661621094 C 281.7315673828125 504.8248291015625 274.6467590332031 497.0849304199219 272.0050354003906 487.01708984375 C 274.7864685058594 477.2237243652344 282.470703125 470.3723449707031 292.86895751953125 467.8935241699219 C 302.909912109375 468.76104736328125 310.24853515625 476.0865478515625 312.9655456542969 487.4964294433594" stroke-width="0.0" fill="rgb(17, 20, 26)" opacity="1.0"/>
    <path d="M 293.535400390625 481.4989929199219 C 291.32049560546875 491.0 284.0 498.32049560546875 274.3980407714844 500.66278076171875 C 264.7899169921875 497.5950012207031 257.58544921875 490.1472473144531 254.9698028564453 481.4299621582031 C 257.606201171875 471.9095458984375 264.9079284667969 464.60247802734375 274.36505126953125 461.9692077636719 C 283.13848876953125 464.5847473144531 290.5407409667969 471.8173828125 293.535400390625 481.4989929199219" stroke-width="0.0" fill="rgb(21, 25, 32)" opacity="0.9900077"/>
    <path d="M 180.01400756835938 557.0313110351562 C 177.47103881835938 567.260986328125 170.43600463867188 574.9417114257812 159.22715759277344 577.91650390625 C 149.0966339111328 575.2322387695312 141.74925231933594 567.9108276367188 139.0375518798828 557.533203125 C 141.75718688964844 546.0955810546875 149.10789489746094 538.7944946289062 159.2530975341797 537.7538452148438 C 169.7969512939453 540.0872802734375 177.29391479492188 547.0654907226562 180.01400756835938 557.0313110351562" stroke-width="0.0" fill="rgb(91, 100, 107)" opacity="1.0"/>
    <path d="M 473.5948791503906 534.6151123046875 C 470.76214599609375 545.4534912109375 463.4732360839844 552.825927734375 453.242919921875 555.3574829101562 C 442.63348388671875 552.5870971679688 435.0380859375 545.4979858398438 432.2014465332031 535.3347778320312 C 435.0360107421875 524.3870849609375 442.3763122558594 517.005126953125 453.0716247558594 514.180419921875 C 463.653564453125 516.9866333007812 471.0016174316406 524.3497924804688 473.5948791503906 534.6151123046875" stroke-width="0.0" fill="rgb(168, 174, 185)" opacity="0.99105406"/>
    <path d="M 575.9907836914062 466.9997253417969 C 573.3306884765625 477.0328674316406 566.098876953125 484.53839111328125 555.683837890625 487.65338134765625 C 545.38671875 484.9565124511719 537.9943237304688 477.63055419921875 535.1719360351562 466.9856872558594 C 537.9566040039062 456.3219909667969 545.32421875 448.961181640625 555.41015625 446.265380859375 C 566.0001220703125 449.67919921875 573.3195190429688 457.0002746582031 575.9907836914062 466.9997253417969" stroke-width="0.0" fill="rgb(158, 166, 178)" opacity="0.99078846"/>
    <path d="M 506.83917236328125 540.1553344726562 C 504.0665283203125 550.7166137695312 496.72576904296875 558.0906982421875 486.3941345214844 560.8438720703125 C 475.35601806640625 558.0216064453125 468.07708740234375 550.6103515625 465.598876953125 540.3349609375 C 468.5952453613281 529.9267578125 475.935791015625 522.6250610351562 486.0115661621094 519.9756469726562 C 496.2274475097656 522.5455322265625 503.89788818359375 529.609375 506.83917236328125 540.1553344726562" stroke-width="0.0" fill="rgb(160, 163, 176)" opacity="1.0"/>
    <path d="M 101.6563491821289 465.1125793457031 C 99.12720489501953 476.8658752441406 91.89545440673828 484.2408142089844 81.61903381347656 486.9598388671875 C 70.28165435791016 484.1679382324219 63.32796096801758 476.52734375 60.35781478881836 465.3736572265625 C 62.831764221191406 455.13690185546875 70.11211395263672 447.76190185546875 81.17182159423828 445.0376281738281 C 91.9098892211914 447.7540588378906 99.24710845947266 455.089599609375 101.6563491821289 465.1125793457031" stroke-width="0.0" fill="rgb(14, 19, 26)" opacity="1.0"/>
    <path d="M 132.02740478515625 171.41421508789062 C 129.3865509033203 181.0825653076172 122.08307647705078 188.38746643066406 112.12848663330078 191.03414916992188 C 102.52277374267578 189.80642700195312 96.492919921875 181.6057586669922 93.96771240234375 172.62611389160156 C 96.60735321044922 162.91549682617188 103.91838073730469 155.6142578125 113.9072494506836 152.93592834472656 C 122.39944458007812 154.15835571289062 129.41819763183594 162.8187255859375 132.02740478515625 171.41421508789062" stroke-width="0.0" fill="rgb(10, 13, 26)" opacity="0.9900032"/>
    <path d="M 275.9631652832031 526.236328125 C 273.118896484375 536.6115112304688 264.19268798828125 543.4285888671875 254.2626190185547 546.0401611328125 C 244.18667602539062 544.7958984375 236.7608184814453 537.88037109375 234.031494140625 526.3172607421875 C 236.73886108398438 516.0736694335938 244.0758056640625 508.7440490722656 254.97589111328125 506.0350646972656 C 265.9165344238281 508.74969482421875 273.2554016113281 516.0812377929688 275.9631652832031 526.236328125" stroke-width="0.0" fill="rgb(4, 3, 4)" opacity="0.9900177"/>
    <path d="M 194.48495483398438 553.7561645507812 C 191.24952697753906 563.936767578125 183.93875122070312 571.2562866210938 174.0019073486328 573.9324951171875 C 164.04580688476562 571.266357421875 156.72161865234375 563.9576416015625 153.77716064453125 553.8798217773438 C 156.5897674560547 544.1306762695312 164.3732147216797 537.2713623046875 173.85595703125 534.8917236328125 C 183.49598693847656 537.3223876953125 191.22003173828125 544.3477783203125 194.48495483398438 553.7561645507812" stroke-width="0.0" fill="rgb(102, 112, 121)" opacity="0.9900363"/>
    <path d="M 157.85630798339844 102.99462127685547 C 155.31582641601562 112.99591064453125 147.99571228027344 120.31514739990234 137.9243927001953 123.16090393066406 C 127.98957061767578 120.3847427368164 120.6501235961914 112.99905395507812 117.54631805419922 103.02096557617188 C 120.4705810546875 92.78392791748047 127.73424530029297 85.3213119506836 137.79547119140625 82.48138427734375 C 148.29693603515625 85.33663940429688 155.5175018310547 92.74553680419922 157.85630798339844 102.99462127685547" stroke-width="0.0" fill="rgb(251, 251, 253)" opacity="0.99063665"/>
    <path d="M 531.43017578125 235.35958862304688 C 528.9037475585938 245.5746612548828 521.5974731445312 252.96975708007812 511.1756286621094 255.6907958984375 C 500.38885498046875 252.9459991455078 493.0258483886719 245.6206512451172 490.4647521972656 235.41305541992188 C 493.4229431152344 224.680908203125 500.61492919921875 217.21310424804688 510.7127685546875 214.63510131835938 C 520.9963989257812 217.6834259033203 528.3148803710938 225.00408935546875 531.43017578125 235.35958862304688" stroke-width="0.0" fill="rgb(185, 191, 202)" opacity="0.9909567"/>
    <path d="M 31.4201602935791 510.84039306640625 C 28.318254470825195 520.998779296875 20.998828887939453 528.3185424804688 11.000248908996582 530.9916381835938 C 1.0013941526412964 528.3180541992188 -6.3199687004089355 520.9991455078125 -9.000395774841309 510.9990539550781 C -6.324794292449951 500.99237060546875 0.985431432723999 493.6514892578125 10.972151756286621 490.97137451171875 C 21.039182662963867 493.6673278808594 28.510766983032227 500.9054260253906 31.4201602935791 510.84039306640625" stroke-width="0.0" fill="rgb(216, 220, 229)" opacity="0.9925067"/>
    <path d="M 158.04722595214844 525.3384399414062 C 155.60601806640625 536.5679321289062 149.8330535888672 544.23046875 139.62901306152344 546.9545288085938 C 128.0811309814453 544.2443237304688 120.74017333984375 536.9248046875 118.03124237060547 525.5764770507812 C 120.73807525634766 515.0716552734375 128.072265625 507.739501953125 138.59173583984375 505.03314208984375 C 149.90322875976562 507.7486877441406 157.0771484375 515.13623046875 158.04722595214844 525.3384399414062" stroke-width="0.0" fill="rgb(30, 28, 29)" opacity="1.0"/>
    <path d="M 121.30343627929688 4.153261661529541 C 118.54669952392578 14.127705574035645 111.06165313720703 21.335214614868164 100.95802307128906 23.93490982055664 C 90.7518081665039 21.48427963256836 83.17825317382812 14.361061096191406 80.3638687133789 4.388158798217773 C 83.61892700195312 -6.022796154022217 90.99408721923828 -13.322646141052246 100.99992370605469 -16.000104904174805 C 111.00252532958984 -13.321503639221191 118.33810424804688 -6.007274627685547 121.30343627929688 4.153261661529541" stroke-width="0.0" fill="rgb(189, 195, 203)" opacity="0.99131066"/>
    <path d="M 67.33295440673828 70.27253723144531 C 64.8117446899414 80.48503112792969 57.51203918457031 87.89249420166016 47.18815231323242 90.65003967285156 C 36.50684356689453 87.8665771484375 29.233339309692383 80.46127319335938 26.410564422607422 69.67813110351562 C 29.134992599487305 59.517948150634766 36.54827880859375 52.22705841064453 46.72644805908203 50.08626174926758 C 56.97914505004883 52.732059478759766 64.31759643554688 60.00659942626953 67.33295440673828 70.27253723144531" stroke-width="0.0" fill="rgb(212, 216, 224)" opacity="0.99137354"/>
    <path d="M 337.72283935546875 576.8243408203125 C 334.9055480957031 587.5547485351562 327.5656433105469 594.9384765625 317.1177673339844 597.7687377929688 C 306.39739990234375 594.9572143554688 299.05023193359375 587.6001586914062 296.21746826171875 576.547607421875 C 298.9156494140625 566.2633056640625 306.2455139160156 558.8720703125 316.36029052734375 556.1554565429688 C 327.5436096191406 559.0972900390625 334.910888671875 566.4542846679688 337.72283935546875 576.8243408203125" stroke-width="0.0" fill="rgb(179, 184, 193)" opacity="1.0"/>
    <path d="M 329.1156311035156 538.3701171875 C 326.6395263671875 547.3966674804688 319.47308349609375 554.9073486328125 309.8895568847656 558.8787231445312 C 300.1507263183594 555.1884765625 292.4790344238281 547.9664306640625 290.67431640625 538.3839111328125 C 293.20697021484375 528.46630859375 300.4525146484375 521.1669921875 309.954345703125 517.4533081054688 C 319.3333740234375 521.3590087890625 326.5780944824219 528.6881713867188 329.1156311035156 538.3701171875" stroke-width="0.0" fill="rgb(84, 87, 93)" opacity="0.99001265"/>
    <path d="M 300.09820556640625 490.1512451171875 C 297.7909851074219 500.6056823730469 290.7422180175781 508.16754150390625 279.2543640136719 510.9609375 C 269.0810546875 508.2525329589844 261.74908447265625 500.91839599609375 259.0966491699219 490.8600158691406 C 262.69091796875 480.0038757324219 270.0041809082031 472.69183349609375 280.0260314941406 470.07550048828125 C 290.0002746582031 472.6789855957031 297.320556640625 479.9998474121094 300.09820556640625 490.1512451171875" stroke-width="0.0" fill="rgb(18, 20, 27)" opacity="1.0"/>
    <path d="M 383.6948547363281 58.002742767333984 C 380.9427795410156 68.59158325195312 373.589599609375 75.9369125366211 363.2943420410156 78.59016418457031 C 352.5615539550781 75.77738952636719 345.15728759765625 68.45984649658203 342.41448974609375 58.404502868652344 C 345.65887451171875 47.949703216552734 352.85296630859375 40.37105178833008 363.437255859375 37.20500946044922 C 373.6073913574219 40.00651931762695 380.9384460449219 47.412696838378906 383.6948547363281 58.002742767333984" stroke-width="0.0" fill="rgb(182, 189, 199)" opacity="0.99239177"/>
  </g>
</svg>
