<?xml version="1.0" ?>
<svg xmlns="http://www.w3.org/2000/svg" version="1.1" width="600" height="600">
  <defs/>
  <g>
    <path d="M 473.09649658203125 249.73326110839844 C 472.1673583984375 259.8746032714844 464.9004821777344 267.2478942871094 454.9107360839844 269.93701171875 C 444.809814453125 265.4584045410156 436.1656188964844 258.32098388671875 433.05108642578125 248.3039093017578 C 435.7694396972656 238.10899353027344 443.1198425292969 230.8013916015625 453.26617431640625 228.45579528808594 C 463.341064453125 232.3114776611328 470.5488586425781 239.70689392089844 473.09649658203125 249.73326110839844" stroke-width="0.0" fill="rgb(23, 28, 35)" opacity="0.9900134"/>
    <path d="M 573.0004272460938 2.001088857650757 C 570.3322143554688 12.030875205993652 563.105224609375 19.562013626098633 552.746826171875 22.737651824951172 C 542.6142578125 19.807384490966797 535.2444458007812 12.367043495178223 532.5619506835938 2.2759757041931152 C 535.671142578125 -8.002680778503418 542.9995727539062 -15.320638656616211 553.0 -18.000001907348633 C 563.0 -15.320508003234863 570.3204956054688 -8.0 573.0004272460938 2.001088857650757" stroke-width="0.0" fill="rgb(199, 191, 182)" opacity="0.9919293"/>
    <path d="M 116.79212188720703 161.37515258789062 C 114.03689575195312 171.67031860351562 106.66090393066406 179.01080322265625 96.16753387451172 181.76637268066406 C 85.41944122314453 178.93911743164062 78.04154205322266 171.5879669189453 75.244140625 160.92874145507812 C 78.00933074951172 150.35433959960938 85.34698486328125 142.98951721191406 95.96167755126953 140.25723266601562 C 106.6266098022461 143.01199340820312 113.95913696289062 150.383544921875 116.79212188720703 161.37515258789062" stroke-width="0.0" fill="rgb(187, 178, 169)" opacity="0.9901197"/>
    <path d="M 538.4564819335938 231.07557678222656 C 535.8300170898438 241.48292541503906 528.4780883789062 248.8162841796875 518.2822265625 251.34622192382812 C 508.0 248.3205108642578 500.67950439453125 241.0 497.9742431640625 230.96580505371094 C 500.55206298828125 220.82327270507812 507.7474670410156 213.31686401367188 518.3374633789062 210.3271484375 C 528.56298828125 213.0494384765625 535.81640625 220.48117065429688 538.4564819335938 231.07557678222656" stroke-width="0.0" fill="rgb(195, 183, 173)" opacity="0.9907243"/>
    <path d="M 147.0 37.0 C 144.3205108642578 47.0 137.0 54.32050704956055 126.73230743408203 57.29961395263672 C 116.50267791748047 54.8226318359375 109.11114501953125 47.51863479614258 106.40206909179688 37.355655670166016 C 109.57666015625 26.95604705810547 116.98491668701172 19.673410415649414 126.99932861328125 16.999740600585938 C 137.0 19.67949104309082 144.3205108642578 27.0 147.0 37.0" stroke-width="0.0" fill="rgb(195, 187, 179)" opacity="1.0"/>
    <path d="M 36.14393997192383 328.16278076171875 C 33.72481918334961 338.4520263671875 26.51062774658203 345.90777587890625 15.964813232421875 348.7052001953125 C 5.40865421295166 345.95098876953125 -1.8912720680236816 338.5722351074219 -4.4924635887146 328.03155517578125 C -1.8754146099090576 317.4455261230469 5.431210517883301 310.0785217285156 15.601820945739746 307.50390625 C 26.000024795532227 310.679443359375 33.32051086425781 318.0 36.14393997192383 328.16278076171875" stroke-width="0.0" fill="rgb(194, 181, 170)" opacity="1.0"/>
    <path d="M 483.193359375 19.835554122924805 C 480.42987060546875 30.159107208251953 473.23358154296875 37.66196060180664 463.2410583496094 40.37565612792969 C 453.0 37.32050704956055 445.67950439453125 30.0 443.0 20.0 C 445.67950439453125 10.0 453.0 2.6794919967651367 463.3460693359375 -0.4193797707557678 C 473.4937744140625 2.1273460388183594 480.7402648925781 9.548300743103027 483.193359375 19.835554122924805" stroke-width="0.0" fill="rgb(197, 189, 183)" opacity="0.990914"/>
    <path d="M 555.2124633789062 551.2521362304688 C 552.9188232421875 561.6793823242188 545.7454833984375 569.1283569335938 535.6580810546875 571.7399291992188 C 524.6908569335938 568.491455078125 516.9786376953125 561.5144653320312 515.572509765625 551.8146362304688 C 518.4736328125 541.7447509765625 525.7360229492188 534.4512329101562 535.7434692382812 530.53076171875 C 545.4192504882812 533.070068359375 552.4559936523438 540.7577514648438 555.2124633789062 551.2521362304688" stroke-width="0.0" fill="rgb(94, 99, 104)" opacity="0.99006104"/>
    <path d="M 547.5736083984375 44.412925720214844 C 544.89599609375 54.46922302246094 537.3789672851562 61.619903564453125 527.0950317382812 64.0720443725586 C 516.9976806640625 61.32136154174805 509.6564025878906 54.008644104003906 506.36322021484375 43.60226058959961 C 509.2399597167969 33.71522521972656 516.8260498046875 26.56464195251465 526.9722900390625 23.98076057434082 C 537.0001220703125 26.679445266723633 544.3261108398438 33.99833297729492 547.5736083984375 44.412925720214844" stroke-width="0.0" fill="rgb(196, 188, 180)" opacity="0.99162644"/>
    <path d="M 178.0 55.0 C 175.3205108642578 65.0 168.0 72.32051086425781 158.0 75.0 C 148.0 72.32051086425781 140.6794891357422 65.0 138.0 55.0 C 140.6794891357422 45.0 148.0 37.67949295043945 158.0 35.0 C 168.0 37.67949295043945 175.3205108642578 45.0 178.0 55.0" stroke-width="0.0" fill="rgb(190, 182, 174)" opacity="1.0"/>
    <path d="M 613.005126953125 204.9981689453125 C 610.3513793945312 215.06651306152344 603.1552734375 222.61996459960938 593.1964111328125 225.59576416015625 C 582.8936157226562 222.50962829589844 575.6466674804688 215.0579071044922 572.7718505859375 204.7916259765625 C 575.2381591796875 194.5503692626953 582.5166625976562 187.1338348388672 592.740478515625 184.38516235351562 C 603.1427001953125 187.42274475097656 610.3575439453125 194.92770385742188 613.005126953125 204.9981689453125" stroke-width="0.0" fill="rgb(193, 182, 172)" opacity="0.99067736"/>
    <path d="M 503.6527099609375 141.96621704101562 C 500.8745422363281 152.5543670654297 493.5764465332031 159.94183349609375 482.7237854003906 162.7731475830078 C 472.4078674316406 159.97879028320312 465.0576477050781 152.57781982421875 462.2049560546875 141.99691772460938 C 465.07293701171875 131.4547576904297 472.475341796875 124.13346099853516 482.6611328125 121.56392669677734 C 493.0699462890625 124.6474838256836 500.6490478515625 131.8302001953125 503.6527099609375 141.96621704101562" stroke-width="0.0" fill="rgb(203, 195, 184)" opacity="1.0"/>
    <path d="M 397.0 578.0 C 394.32049560546875 588.0 387.0 595.3204956054688 377.2786865234375 597.781982421875 C 367.7076416015625 594.7012329101562 360.54931640625 587.20458984375 357.9624328613281 578.4577026367188 C 360.5777893066406 568.8560180664062 367.8178405761719 561.4713745117188 377.5375671386719 558.53125 C 387.0 560.6795043945312 394.32049560546875 568.0 397.0 578.0" stroke-width="0.0" fill="rgb(41, 49, 66)" opacity="0.9900123"/>
    <path d="M 63.76076889038086 315.4388732910156 C 61.012351989746094 325.65283203125 53.65358352661133 333.0135192871094 43.51715087890625 335.6431579589844 C 32.999305725097656 332.32281494140625 25.67947006225586 325.00006103515625 23.0 315.0 C 25.67949104309082 305.0 33.0 297.67950439453125 43.01718521118164 294.98968505859375 C 53.13747024536133 297.5970153808594 60.68601989746094 304.7691345214844 63.76076889038086 315.4388732910156" stroke-width="0.0" fill="rgb(192, 180, 168)" opacity="1.0"/>
    <path d="M 452.5083312988281 73.40159606933594 C 449.9177551269531 83.5586166381836 442.55413818359375 90.90634155273438 431.85870361328125 93.77377319335938 C 421.4981384277344 90.90367889404297 414.1598815917969 83.4780502319336 411.4324035644531 73.40141296386719 C 414.69073486328125 63.00372314453125 422.00067138671875 55.679710388183594 432.0 53.000003814697266 C 442.0 55.67949295043945 449.32049560546875 63.0 452.5083312988281 73.40159606933594" stroke-width="0.0" fill="rgb(193, 186, 177)" opacity="0.99041396"/>
    <path d="M 576.1600341796875 407.95770263671875 C 573.80908203125 417.61480712890625 566.7110595703125 425.0982360839844 556.53466796875 428.6496276855469 C 546.7236938476562 425.790283203125 539.61865234375 418.12884521484375 536.9962158203125 408.008544921875 C 539.6795043945312 398.0 547.0 390.67950439453125 556.8289184570312 388.1632080078125 C 566.5532836914062 391.0858459472656 573.7222290039062 398.5101623535156 576.1600341796875 407.95770263671875" stroke-width="0.0" fill="rgb(55, 58, 73)" opacity="0.9900198"/>
    <path d="M 603.4085083007812 587.6314697265625 C 600.3204956054688 598.0 593.0 605.3204956054688 583.0 608.0 C 573.0 605.3204956054688 565.679443359375 598.0 562.9999389648438 588.002197265625 C 565.6802978515625 578.000244140625 573.0000610351562 570.6795043945312 583.383056640625 567.562744140625 C 593.5988159179688 570.06201171875 600.9320068359375 577.4030151367188 603.4085083007812 587.6314697265625" stroke-width="0.0" fill="rgb(184, 169, 155)" opacity="0.99546194"/>
    <path d="M 85.05213165283203 380.422607421875 C 82.44080352783203 390.15216064453125 75.15604400634766 397.4494323730469 65.18081665039062 400.1170349121094 C 55.980796813964844 398.3827819824219 48.67898941040039 391.0016784667969 45.9910888671875 380.98138427734375 C 48.5643310546875 370.77996826171875 55.58786392211914 363.06402587890625 66.78450775146484 360.0597839355469 C 76.74694061279297 362.8094177246094 82.58422088623047 370.8336181640625 85.05213165283203 380.422607421875" stroke-width="0.0" fill="rgb(62, 78, 108)" opacity="0.990021"/>
    <path d="M 44.418907165527344 146.67726135253906 C 41.32050704956055 157.0 34.0 164.3205108642578 23.785245895385742 167.34439086914062 C 13.811177253723145 164.62135314941406 6.61247444152832 157.11366271972656 3.992128372192383 147.01356506347656 C 6.679491996765137 137.0 14.0 129.6794891357422 24.128612518310547 126.88391876220703 C 34.378631591796875 129.34317016601562 41.82476806640625 136.56817626953125 44.418907165527344 146.67726135253906" stroke-width="0.0" fill="rgb(190, 181, 172)" opacity="0.9917919"/>
    <path d="M 178.30641174316406 173.89602661132812 C 175.1867218017578 183.86239624023438 167.84225463867188 191.12147521972656 157.78492736816406 194.009521484375 C 147.6085968017578 191.6720733642578 140.10589599609375 184.46646118164062 137.2704620361328 174.3209991455078 C 140.1697540283203 163.52130126953125 147.51344299316406 156.14646911621094 158.21067810058594 153.31060791015625 C 168.55328369140625 156.0605926513672 175.77833557128906 163.49705505371094 178.30641174316406 173.89602661132812" stroke-width="0.0" fill="rgb(200, 191, 183)" opacity="0.99021983"/>
    <path d="M 61.9625358581543 578.4493408203125 C 59.24350357055664 589.9078369140625 51.90989303588867 597.248291015625 40.52442169189453 599.9673461914062 C 30.106433868408203 597.2491455078125 22.863285064697266 589.8549194335938 20.501615524291992 579.5391845703125 C 23.52812385559082 568.69580078125 30.41905975341797 560.8991088867188 41.814884185791016 558.0323486328125 C 51.92127990722656 560.741943359375 59.25297546386719 568.0809326171875 61.9625358581543 578.4493408203125" stroke-width="0.0" fill="rgb(4, 6, 14)" opacity="0.9903986"/>
    <path d="M 65.74915313720703 175.05213928222656 C 62.943607330322266 185.6106414794922 55.634742736816406 193.01092529296875 45.23169708251953 195.7595672607422 C 34.426551818847656 192.94398498535156 27.110492706298828 185.5548858642578 24.591154098510742 175.34274291992188 C 27.67949104309082 165.0 35.0 157.6794891357422 45.00442886352539 154.998046875 C 55.07767868041992 157.6451416015625 62.703975677490234 164.80023193359375 65.74915313720703 175.05213928222656" stroke-width="0.0" fill="rgb(191, 181, 171)" opacity="0.99105614"/>
    <path d="M 563.3582763671875 164.68899536132812 C 560.3204956054688 175.0 553.0 182.3205108642578 542.785400390625 185.2100830078125 C 532.4899291992188 182.7918243408203 525.0447387695312 175.56346130371094 522.44287109375 165.44979858398438 C 525.6469116210938 154.92884826660156 532.8257446289062 147.34234619140625 543.0269165039062 144.3057861328125 C 553.521728515625 147.13233947753906 560.8615112304688 154.47975158691406 563.3582763671875 164.68899536132812" stroke-width="0.0" fill="rgb(197, 187, 178)" opacity="1.0"/>
    <path d="M 379.7398681640625 34.41657638549805 C 376.9704895019531 44.601280212402344 369.588134765625 51.931549072265625 359.27252197265625 54.636600494384766 C 348.9342041015625 51.48529052734375 341.67333984375 44.016944885253906 338.9316101074219 33.921142578125 C 341.444580078125 23.722858428955078 348.6683654785156 16.27117347717285 358.74346923828125 13.639780044555664 C 369.0227966308594 16.670984268188477 376.5149841308594 23.91880226135254 379.7398681640625 34.41657638549805" stroke-width="0.0" fill="rgb(203, 196, 189)" opacity="0.99150854"/>
    <path d="M 89.00463104248047 536.0106811523438 C 86.40171813964844 546.1746826171875 79.39032745361328 553.937255859375 68.1597900390625 556.9474487304688 C 58.085289001464844 554.25 50.747962951660156 546.9155883789062 48.044464111328125 536.8394165039062 C 51.06123352050781 525.6346435546875 58.87785720825195 518.6317749023438 68.99580383300781 515.9984741210938 C 79.0 518.6795043945312 86.32051086425781 526.0 89.00463104248047 536.0106811523438" stroke-width="0.0" fill="rgb(13, 17, 30)" opacity="1.0"/>
    <path d="M 170.73104858398438 103.26822662353516 C 167.96746826171875 113.5985107421875 160.5862274169922 120.93282318115234 150.08441162109375 123.66863250732422 C 139.4683074951172 120.8919677734375 132.14443969726562 113.51969146728516 129.3505096435547 102.82725524902344 C 132.12246704101562 92.53214263916016 139.5996551513672 85.33097839355469 149.89059448242188 82.8703842163086 C 160.15650939941406 85.57234191894531 167.70660400390625 92.75096893310547 170.73104858398438 103.26822662353516" stroke-width="0.0" fill="rgb(197, 189, 181)" opacity="1.0"/>
    <path d="M 198.759521484375 57.08430099487305 C 195.85574340820312 67.39273834228516 188.28001403808594 74.52655029296875 177.8427276611328 77.36743927001953 C 167.8633575439453 74.56813049316406 160.64398193359375 67.06893157958984 157.99685668945312 57.006011962890625 C 160.6794891357422 47.0 168.0 39.67949295043945 178.21353149414062 36.78395080566406 C 188.49041748046875 39.21892166137695 195.93113708496094 46.46037292480469 198.759521484375 57.08430099487305" stroke-width="0.0" fill="rgb(196, 189, 182)" opacity="0.9905696"/>
    <path d="M 114.92815399169922 554.7294311523438 C 112.21180725097656 564.869873046875 104.8683090209961 572.2073974609375 94.69710540771484 574.8729248046875 C 83.1723861694336 572.1273803710938 75.78168487548828 564.85986328125 73.08917236328125 554.8402709960938 C 76.6745834350586 543.9979858398438 83.99930572509766 536.6792602539062 94.012939453125 533.9942626953125 C 104.19499206542969 536.5857543945312 111.94481658935547 543.5940551757812 114.92815399169922 554.7294311523438" stroke-width="0.0" fill="rgb(44, 53, 72)" opacity="1.0"/>
    <path d="M 125.95513153076172 532.064453125 C 123.23531341552734 542.888916015625 115.8715591430664 550.1878051757812 105.6970443725586 552.7252197265625 C 94.99677276611328 549.3202514648438 87.67108154296875 542.0057373046875 84.19212341308594 531.2365112304688 C 86.78865814208984 521.11865234375 94.1135482788086 513.7744140625 105.43779754638672 511.04315185546875 C 115.89535522460938 513.7638549804688 123.23149108886719 521.106689453125 125.95513153076172 532.064453125" stroke-width="0.0" fill="rgb(39, 46, 64)" opacity="1.0"/>
    <path d="M 94.77068328857422 68.66809844970703 C 91.77471923828125 79.38610076904297 84.388916015625 86.78018951416016 73.86719512939453 89.67090606689453 C 63.44049835205078 86.90483856201172 56.012535095214844 79.59073638916016 53.23321533203125 69.47440338134766 C 56.353485107421875 58.78111267089844 63.776554107666016 51.33727264404297 74.2113037109375 48.261695861816406 C 84.596923828125 51.0428581237793 91.97543334960938 58.396942138671875 94.77068328857422 68.66809844970703" stroke-width="0.0" fill="rgb(199, 191, 183)" opacity="1.0"/>
    <path d="M 496.8086853027344 89.13243103027344 C 493.96612548828125 99.53932189941406 486.46728515625 106.76836395263672 475.7972717285156 109.55278015136719 C 465.4468078613281 106.90137481689453 458.07275390625 99.56160736083984 455.2191467285156 88.74696350097656 C 458.0224304199219 78.39449310302734 465.4063720703125 71.05726623535156 475.9386901855469 68.31743621826172 C 486.5941467285156 71.0677261352539 493.978759765625 78.38987731933594 496.8086853027344 89.13243103027344" stroke-width="0.0" fill="rgb(202, 194, 185)" opacity="0.99077386"/>
    <path d="M 615.00048828125 142.00108337402344 C 612.3300170898438 152.02272033691406 605.0654907226562 159.46986389160156 594.4569091796875 162.76300048828125 C 584.3626098632812 160.02377319335938 577.073974609375 152.60256958007812 574.2327270507812 141.60252380371094 C 576.9852905273438 131.3564910888672 584.3621215820312 124.00108337402344 594.5236206054688 121.35653686523438 C 605.0206298828125 124.62213134765625 612.3219604492188 131.99546813964844 615.00048828125 142.00108337402344" stroke-width="0.0" fill="rgb(196, 187, 177)" opacity="1.0"/>
    <path d="M 66.70780181884766 291.65582275390625 C 63.79541778564453 302.404541015625 56.35489273071289 309.6376953125 46.10661697387695 312.1161804199219 C 35.84208679199219 309.40972900390625 28.218294143676758 302.2881164550781 25.21575164794922 291.7256774902344 C 27.993526458740234 281.3750915527344 35.401371002197266 274.0645446777344 46.0828857421875 271.24261474609375 C 56.567867279052734 274.0788269042969 63.98045349121094 281.4086608886719 66.70780181884766 291.65582275390625" stroke-width="0.0" fill="rgb(191, 179, 166)" opacity="1.0"/>
    <path d="M 112.75872039794922 229.13241577148438 C 110.01608276367188 239.64939880371094 102.632568359375 246.96835327148438 92.03770446777344 249.70233154296875 C 81.38382720947266 246.95936584472656 74.02827453613281 239.62030029296875 71.30012512207031 229.1641387939453 C 74.08695983886719 218.41026306152344 81.35620880126953 210.9469757080078 91.57750701904297 208.1578369140625 C 102.64524841308594 210.99232482910156 109.9887924194336 218.3617401123047 112.75872039794922 229.13241577148438" stroke-width="0.0" fill="rgb(195, 186, 177)" opacity="1.0"/>
    <path d="M 456.92645263671875 560.86328125 C 454.2589111328125 570.92578125 446.92572021484375 578.2590942382812 436.5843200683594 580.9691772460938 C 425.1289978027344 578.235595703125 417.91156005859375 570.8206176757812 415.1358337402344 559.22607421875 C 417.76470947265625 549.0900268554688 425.0813293457031 541.7423706054688 436.3177185058594 539.0267333984375 C 446.8872985839844 541.7514038085938 454.1122741699219 549.1605224609375 456.92645263671875 560.86328125" stroke-width="0.0" fill="rgb(2, 3, 11)" opacity="1.0"/>
    <path d="M 589.7478637695312 438.99359130859375 C 586.916748046875 449.529296875 579.530517578125 456.9206848144531 568.2533569335938 459.8946533203125 C 558.1216430664062 457.2132873535156 550.7694091796875 449.8856506347656 548.0531616210938 439.6502380371094 C 550.8638305664062 428.357177734375 558.6727905273438 421.7525329589844 569.5244750976562 418.1724548339844 C 579.6387939453125 420.9829406738281 586.97119140625 428.37774658203125 589.7478637695312 438.99359130859375" stroke-width="0.0" fill="rgb(185, 171, 158)" opacity="1.0"/>
    <path d="M 114.18609619140625 21.199626922607422 C 111.77447509765625 31.491533279418945 104.54415130615234 38.937164306640625 94.14240264892578 41.69600296020508 C 83.43328857421875 38.92212677001953 76.0895004272461 31.562744140625 73.28402709960938 20.7000675201416 C 75.98589324951172 10.344792366027832 83.3501205444336 2.9991307258605957 93.4651107788086 0.32088106870651245 C 104.00262451171875 3.6733059883117676 111.32086944580078 10.999046325683594 114.18609619140625 21.199626922607422" stroke-width="0.0" fill="rgb(198, 191, 181)" opacity="1.0"/>
    <path d="M 488.9563903808594 550.3966674804688 C 486.2381896972656 560.9024047851562 478.9040832519531 568.2421875 468.0975646972656 570.964599609375 C 457.1356506347656 568.231689453125 449.92108154296875 560.8113403320312 447.1116027832031 549.2440795898438 C 449.8150939941406 539.2159423828125 457.3181457519531 532.1165161132812 468.072265625 529.7139282226562 C 478.7122497558594 532.06982421875 486.20245361328125 539.192626953125 488.9563903808594 550.3966674804688" stroke-width="0.0" fill="rgb(8, 13, 21)" opacity="1.0"/>
    <path d="M 399.9117736816406 597.4109497070312 C 396.6008605957031 608.1109619140625 389.0192565917969 615.3268432617188 379.00067138671875 618.0 C 369.01800537109375 615.3146362304688 361.9759521484375 607.8834228515625 359.9404602050781 598.7569580078125 C 362.5176086425781 588.7273559570312 369.5869445800781 581.1394653320312 379.1610107421875 578.1236572265625 C 389.1330261230469 580.6255493164062 396.9368591308594 587.6306762695312 399.9117736816406 597.4109497070312" stroke-width="0.0" fill="rgb(36, 45, 66)" opacity="0.9900471"/>
    <path d="M 189.5778045654297 35.612754821777344 C 186.32752990722656 45.99517822265625 178.9905548095703 53.310211181640625 168.99612426757812 55.99115753173828 C 159.0009765625 53.31834030151367 151.6796417236328 45.99960708618164 148.9911651611328 35.98519515991211 C 151.60887145996094 25.883163452148438 158.81089782714844 18.383066177368164 169.36749267578125 15.319300651550293 C 179.5229949951172 18.102323532104492 186.88034057617188 25.48285675048828 189.5778045654297 35.612754821777344" stroke-width="0.0" fill="rgb(198, 192, 184)" opacity="1.0"/>
    <path d="M 479.67156982421875 169.97950744628906 C 476.5913391113281 180.12001037597656 469.0350341796875 187.3335418701172 458.48248291015625 190.6689453125 C 448.4006042480469 187.97630310058594 441.0755615234375 180.5812530517578 438.26416015625 169.81478881835938 C 441.0928955078125 159.4886932373047 448.5221252441406 152.18911743164062 459.1382141113281 149.39463806152344 C 469.518310546875 152.1268310546875 476.86212158203125 159.48532104492188 479.67156982421875 169.97950744628906" stroke-width="0.0" fill="rgb(202, 193, 181)" opacity="0.99264336"/>
    <path d="M 410.7514343261719 151.31597900390625 C 407.9195861816406 161.5291748046875 400.5037536621094 168.8455047607422 390.18670654296875 171.543212890625 C 379.8612060546875 168.571533203125 372.6458740234375 161.06922912597656 369.5935363769531 150.6690673828125 C 372.1277160644531 140.46865844726562 379.45159912109375 133.07656860351562 389.7651062011719 130.27566528320312 C 400.50537109375 133.13302612304688 407.8592529296875 140.4973907470703 410.7514343261719 151.31597900390625" stroke-width="0.0" fill="rgb(204, 195, 187)" opacity="0.9913516"/>
    <path d="M 507.11968994140625 307.590576171875 C 505.1395263671875 316.9245300292969 497.97802734375 324.3116455078125 487.8171691894531 327.1173400878906 C 477.3312683105469 324.8534851074219 469.7977294921875 317.7935485839844 467.0347595214844 306.3398742675781 C 469.74725341796875 296.0807189941406 477.07952880859375 288.7445068359375 487.089599609375 286.27618408203125 C 497.2187194824219 290.5286865234375 504.63525390625 297.71881103515625 507.11968994140625 307.590576171875" stroke-width="0.0" fill="rgb(4, 3, 5)" opacity="0.9900129"/>
    <path d="M 572.807861328125 358.6991271972656 C 569.9795532226562 369.59771728515625 562.567626953125 376.89337158203125 552.2179565429688 379.4835205078125 C 541.5468139648438 376.75103759765625 534.1198120117188 369.4947204589844 531.2811889648438 358.7981262207031 C 534.0421752929688 348.4164123535156 541.43017578125 341.0804748535156 552.2711791992188 338.2698669433594 C 562.6785888671875 340.973876953125 570.04541015625 348.3146667480469 572.807861328125 358.6991271972656" stroke-width="0.0" fill="rgb(190, 178, 165)" opacity="1.0"/>
    <path d="M 426.834228515625 567.6886596679688 C 424.1790466308594 577.8063354492188 416.75 585.0030517578125 406.3501281738281 587.2866821289062 C 396.0 584.3204956054688 388.67950439453125 577.0 385.98931884765625 566.9757080078125 C 388.5133972167969 556.6801147460938 395.425537109375 548.9115600585938 406.7453918457031 546.0420532226562 C 416.8564453125 548.7731323242188 424.0609436035156 556.2008056640625 426.834228515625 567.6886596679688" stroke-width="0.0" fill="rgb(0, 2, 10)" opacity="1.0"/>
    <path d="M 107.94346618652344 587.3665771484375 C 105.14500427246094 598.7374877929688 97.64362335205078 605.87548828125 86.88432312011719 608.3572998046875 C 76.28241729736328 605.9592895507812 68.81397247314453 598.7959594726562 66.04678344726562 587.3850708007812 C 68.76204681396484 577.1010131835938 76.10435485839844 569.7704467773438 86.23110961914062 567.1068725585938 C 97.82042694091797 569.8794555664062 105.21176147460938 577.1473999023438 107.94346618652344 587.3665771484375" stroke-width="0.0" fill="rgb(47, 57, 77)" opacity="1.0"/>
    <path d="M 560.09521484375 411.5738220214844 C 557.6920166015625 422.0437316894531 551.626220703125 430.117431640625 540.8624267578125 432.9163513183594 C 530.2634887695312 430.1196594238281 522.9345703125 422.71417236328125 520.1357421875 411.6101989746094 C 522.9097290039062 401.30963134765625 530.3758544921875 394.09991455078125 540.7044067382812 391.7225646972656 C 550.8701782226562 394.7406005859375 557.8154907226562 402.2954406738281 560.09521484375 411.5738220214844" stroke-width="0.0" fill="rgb(190, 175, 156)" opacity="0.9904712"/>
    <path d="M 25.794326782226562 374.21282958984375 C 22.997074127197266 384.6382751464844 15.645980834960938 392.0159912109375 5.476987361907959 394.721435546875 C -5.092094421386719 391.51727294921875 -12.335739135742188 384.0351257324219 -15.002105712890625 373.9988708496094 C -12.347562789916992 363.934814453125 -5.184898376464844 356.3096618652344 5.090336322784424 353.25103759765625 C 15.601139068603516 356.0427551269531 22.96548843383789 363.396240234375 25.794326782226562 374.21282958984375" stroke-width="0.0" fill="rgb(188, 175, 161)" opacity="1.0"/>
    <path d="M 43.0 106.0 C 40.32050704956055 116.0 33.0 123.32051086425781 22.993080139160156 126.00365447998047 C 12.924250602722168 123.36030578613281 5.409780979156494 116.14981842041016 2.3664112091064453 105.70504760742188 C 5.052000045776367 95.40827178955078 12.421793937683105 88.09378814697266 22.65279197692871 85.6004638671875 C 33.0 88.67948913574219 40.32050704956055 96.0 43.0 106.0" stroke-width="0.0" fill="rgb(194, 186, 175)" opacity="1.0"/>
    <path d="M 448.9998474121094 62.99939727783203 C 446.31903076171875 72.99783325195312 438.9964904785156 80.3144760131836 428.98944091796875 82.98954772949219 C 418.8996887207031 80.3687744140625 411.2837829589844 73.22064208984375 408.2666931152344 63.03483200073242 C 411.0755310058594 52.408843994140625 418.38995361328125 45.0212287902832 428.5421447753906 42.38687515258789 C 439.01812744140625 45.63479995727539 446.3228454589844 52.99409484863281 448.9998474121094 62.99939727783203" stroke-width="0.0" fill="rgb(192, 183, 177)" opacity="0.99045867"/>
    <path d="M 43.740806579589844 261.6196594238281 C 40.882720947265625 272.5551452636719 33.578617095947266 279.95208740234375 23.03801155090332 282.7305908203125 C 12.406745910644531 279.94989013671875 5.0527143478393555 272.59283447265625 2.279265880584717 261.8981628417969 C 5.0998854637146 251.47885131835938 12.489747047424316 244.13145446777344 23.28594398498535 241.26551818847656 C 33.58622741699219 244.05702209472656 40.97691345214844 251.40101623535156 43.740806579589844 261.6196594238281" stroke-width="0.0" fill="rgb(186, 175, 164)" opacity="0.9901745"/>
    <path d="M 498.4888000488281 194.3835906982422 C 495.906982421875 204.5662841796875 488.58056640625 211.94725036621094 478.4267272949219 214.52134704589844 C 468.0005187988281 211.32034301757812 460.6912536621094 203.9962921142578 457.4113464355469 193.6254119873047 C 460.3818054199219 183.86578369140625 467.9606018066406 176.66421508789062 478.0588073730469 173.84701538085938 C 488.0198669433594 176.6295928955078 495.3228759765625 183.99386596679688 498.4888000488281 194.3835906982422" stroke-width="0.0" fill="rgb(199, 191, 182)" opacity="0.99576694"/>
    <path d="M 170.9608917236328 36.97758865356445 C 168.3053436279297 46.98960876464844 160.9915008544922 54.312068939208984 150.99700927734375 56.99664306640625 C 141.00001525878906 54.320499420166016 133.6799774169922 46.99984359741211 131.0133514404297 37.00168991088867 C 133.68304443359375 27.0017032623291 141.00079345703125 19.679899215698242 151.1938018798828 16.668292999267578 C 161.14830017089844 19.42461395263672 168.36598205566406 26.918420791625977 170.9608917236328 36.97758865356445" stroke-width="0.0" fill="rgb(193, 186, 178)" opacity="0.99119836"/>
    <path d="M 486.0854187011719 530.921875 C 485.1772766113281 540.76171875 477.6365661621094 547.8219604492188 466.8243713378906 550.2844848632812 C 456.2548522949219 547.9703979492188 448.7832946777344 540.830322265625 446.1380615234375 530.9215087890625 C 450.60650634765625 520.9129638671875 457.912353515625 513.6051635742188 466.315185546875 510.9703063964844 C 476.0815734863281 513.6141357421875 483.3885192871094 520.9172973632812 486.0854187011719 530.921875" stroke-width="0.0" fill="rgb(13, 15, 26)" opacity="0.99000406"/>
    <path d="M 528.0087280273438 236.99827575683594 C 525.3223266601562 247.00083923339844 518.0003051757812 254.32057189941406 507.98876953125 257.0061340332031 C 497.88720703125 254.38186645507812 490.294189453125 247.2232208251953 487.26373291015625 236.83099365234375 C 490.0589599609375 226.42588806152344 497.4359130859375 219.08766174316406 507.6036071777344 216.4910888671875 C 518.0031127929688 219.67691040039062 525.3263549804688 226.99595642089844 528.0087280273438 236.99827575683594" stroke-width="0.0" fill="rgb(198, 188, 177)" opacity="0.99236125"/>
    <path d="M 33.012428283691406 144.0002899169922 C 30.32625961303711 154.0068817138672 23.015302658081055 161.3559112548828 12.464361190795898 164.72254943847656 C 2.4753918647766113 161.96401977539062 -4.664973258972168 154.4225616455078 -7.094311714172363 144.1180419921875 C -4.320508003234863 134.0 3.0 126.67948913574219 13.000005722045898 124.0 C 23.000133514404297 126.67943572998047 30.321809768676758 133.99951171875 33.012428283691406 144.0002899169922" stroke-width="0.0" fill="rgb(193, 184, 173)" opacity="0.9962069"/>
    <path d="M 362.2059326171875 42.214988708496094 C 359.7748107910156 52.46897506713867 352.49896240234375 59.8702507019043 342.1385192871094 62.592796325683594 C 331.6799011230469 59.764400482177734 324.8688049316406 52.14371871948242 322.3562927246094 41.51228332519531 C 324.16705322265625 31.48772621154785 331.4589538574219 24.081073760986328 341.57177734375 21.49839210510254 C 351.9893798828125 24.704835891723633 359.31427001953125 32.005271911621094 362.2059326171875 42.214988708496094" stroke-width="0.0" fill="rgb(207, 201, 195)" opacity="0.99060184"/>
    <path d="M 43.47488021850586 572.4838256835938 C 40.423851013183594 583.2178344726562 33.45740509033203 590.9996948242188 22.14592742919922 593.9569702148438 C 12.076544761657715 591.2567138671875 4.739396095275879 583.9251098632812 2.027865171432495 573.5177001953125 C 4.743751525878906 562.0800170898438 12.081822395324707 554.747802734375 23.266387939453125 552.0304565429688 C 33.88492965698242 554.7557983398438 41.12139129638672 562.1577758789062 43.47488021850586 572.4838256835938" stroke-width="0.0" fill="rgb(1, 2, 6)" opacity="1.0"/>
    <path d="M 573.0 549.0 C 570.3204956054688 559.0 563.0 566.3204956054688 552.2951049804688 569.8214111328125 C 542.3101806640625 567.1126708984375 535.144287109375 559.5921630859375 532.737060546875 549.227783203125 C 535.3206787109375 538.4909057617188 542.3541259765625 530.9144897460938 552.3306274414062 528.2064208984375 C 563.0 531.6795043945312 570.3204956054688 539.0 573.0 549.0" stroke-width="0.0" fill="rgb(53, 58, 67)" opacity="1.0"/>
    <path d="M 209.52426147460938 89.09065246582031 C 206.77561950683594 99.39092254638672 199.36044311523438 106.68412780761719 188.6634521484375 109.61795806884766 C 178.42611694335938 106.9420166015625 171.09716796875 99.55999755859375 168.25894165039062 88.80431365966797 C 171.13206481933594 78.59429168701172 178.70997619628906 71.47016906738281 189.3837127685547 68.4363784790039 C 199.46078491210938 71.13155364990234 206.75108337402344 78.58038330078125 209.52426147460938 89.09065246582031" stroke-width="0.0" fill="rgb(200, 193, 187)" opacity="1.0"/>
    <path d="M 34.66925048828125 420.4571533203125 C 31.320600509643555 431.00030517578125 24.00604248046875 438.3414611816406 13.208992958068848 441.90338134765625 C 3.2519965171813965 439.16326904296875 -3.8425087928771973 431.6337890625 -6.282296180725098 420.9938659667969 C -3.7853472232818604 410.48431396484375 3.419283866882324 403.0171203613281 13.672649383544922 400.2619323730469 C 24.587005615234375 403.08258056640625 32.01520538330078 410.3769226074219 34.66925048828125 420.4571533203125" stroke-width="0.0" fill="rgb(121, 129, 132)" opacity="0.99005723"/>
    <path d="M 606.0164184570312 385.02667236328125 C 603.43994140625 395.1885986328125 596.2886962890625 402.74224853515625 585.8449096679688 405.6629333496094 C 575.5247802734375 402.8692932128906 568.2536010742188 395.43389892578125 565.3958129882812 384.7190246582031 C 568.0912475585938 374.4554748535156 575.4642944335938 367.1191101074219 585.6633911132812 364.6015319824219 C 596.0 367.67950439453125 603.3204956054688 375.0 606.0164184570312 385.02667236328125" stroke-width="0.0" fill="rgb(197, 186, 172)" opacity="1.0"/>
    <path d="M 132.9999237060547 9.99991226196289 C 130.32020568847656 19.9996395111084 122.99952697753906 27.319807052612305 112.99925994873047 29.997533798217773 C 102.99884033203125 27.321231842041016 95.67698669433594 20.001684188842773 92.93151092529297 9.955376625061035 C 95.5864486694336 -0.06685249507427216 102.95059967041016 -7.355835914611816 112.99115753173828 -10.006287574768066 C 123.0 -7.320508003234863 130.3205108642578 -8.881784197001252e-15 132.9999237060547 9.99991226196289" stroke-width="0.0" fill="rgb(196, 189, 180)" opacity="1.0"/>
    <path d="M 157.68699645996094 8.71983814239502 C 154.5941162109375 19.160579681396484 147.09011840820312 26.37470817565918 137.0106201171875 29.01784324645996 C 127.00039672851562 26.320802688598633 119.68081665039062 18.999155044555664 117.00346374511719 8.999855995178223 C 119.6806869506836 -0.9993842840194702 127.00031280517578 -8.32034683227539 137.01133728027344 -11.006279945373535 C 147.11712646484375 -8.38339614868164 154.72760009765625 -1.2361674308776855 157.68699645996094 8.71983814239502" stroke-width="0.0" fill="rgb(196, 190, 182)" opacity="1.0"/>
    <path d="M 590.2775268554688 212.26853942871094 C 587.8492431640625 222.53439331054688 580.5612182617188 229.93283081054688 570.4349975585938 232.55999755859375 C 560.0 229.3205108642578 552.6795043945312 222.0 549.5135498046875 211.627197265625 C 552.1146240234375 201.4630126953125 559.4373779296875 194.0441131591797 569.7173461914062 191.1999053955078 C 580.2653198242188 194.24087524414062 587.3914794921875 201.8625030517578 590.2775268554688 212.26853942871094" stroke-width="0.0" fill="rgb(197, 187, 177)" opacity="1.0"/>
    <path d="M 568.7393188476562 272.9259338378906 C 565.9796142578125 283.63592529296875 558.6487426757812 291.0165710449219 548.53271484375 293.7361755371094 C 537.8439331054688 290.552978515625 530.6027221679688 283.10693359375 527.4848022460938 272.6739196777344 C 530.1483764648438 262.4942626953125 537.4697875976562 255.07852172851562 547.8330078125 252.244140625 C 558.6211547851562 255.0376739501953 565.9908447265625 262.36895751953125 568.7393188476562 272.9259338378906" stroke-width="0.0" fill="rgb(189, 179, 168)" opacity="0.99019694"/>
    <path d="M 612.0004272460938 380.9988098144531 C 609.3206787109375 391.00048828125 602.0018920898438 398.3256530761719 591.997314453125 401.0382385253906 C 581.9807739257812 398.34356689453125 574.657470703125 391.0188903808594 571.8766479492188 380.89208984375 C 574.3601684570312 370.62274169921875 581.55078125 363.1376037597656 591.8746948242188 360.2697448730469 C 602.12841796875 363.3912353515625 609.334228515625 370.96319580078125 612.0004272460938 380.9988098144531" stroke-width="0.0" fill="rgb(189, 178, 165)" opacity="1.0"/>
    <path d="M 57.698429107666016 95.55101013183594 C 54.41769027709961 106.0380859375 47.01050567626953 113.32443237304688 37.000457763671875 116.00003814697266 C 27.000232696533203 113.32023620605469 19.680204391479492 105.9996566772461 16.75470542907715 95.73808288574219 C 19.14605712890625 85.43285369873047 26.38445472717285 77.998779296875 36.683128356933594 75.27752685546875 C 47.5212287902832 78.12783813476562 54.93055725097656 85.4581069946289 57.698429107666016 95.55101013183594" stroke-width="0.0" fill="rgb(199, 190, 182)" opacity="1.0"/>
    <path d="M 545.9588623046875 574.77099609375 C 543.2330322265625 584.8606567382812 535.7965087890625 592.04931640625 524.2833251953125 594.8693237304688 C 514.1554565429688 592.192138671875 506.80963134765625 584.84375 504.0584411621094 573.4982299804688 C 506.769287109375 563.1063842773438 514.1114501953125 555.78369140625 524.25146484375 553.1646728515625 C 535.5719604492188 556.15869140625 543.1268310546875 563.311279296875 545.9588623046875 574.77099609375" stroke-width="0.0" fill="rgb(22, 22, 23)" opacity="0.9900572"/>
    <path d="M 467.0088806152344 20.00071144104004 C 464.3232116699219 30.001781463623047 457.0013122558594 37.321563720703125 446.61993408203125 40.45014190673828 C 436.43731689453125 37.91938400268555 429.1065979003906 30.553499221801758 426.4138488769531 20.112274169921875 C 429.24017333984375 9.677295684814453 436.7686462402344 2.5211033821105957 446.9608459472656 -0.02539769373834133 C 457.0003662109375 2.6793270111083984 464.3222961425781 9.999175071716309 467.0088806152344 20.00071144104004" stroke-width="0.0" fill="rgb(200, 193, 186)" opacity="0.99140906"/>
    <path d="M 619.0 381.0 C 616.3204956054688 391.0 608.9998168945312 398.3199768066406 598.8926391601562 401.248779296875 C 588.9833984375 398.3877868652344 581.6983642578125 390.99151611328125 579.0538940429688 381.0021667480469 C 581.6939697265625 371.00555419921875 588.9930419921875 363.6496887207031 598.9413452148438 361.02716064453125 C 608.9984741210938 363.6847229003906 616.3204345703125 371.0001220703125 619.0 381.0" stroke-width="0.0" fill="rgb(199, 185, 171)" opacity="0.9922484"/>
    <path d="M 522.7676391601562 177.35008239746094 C 519.8790893554688 187.4604034423828 512.4263305664062 194.78770446777344 502.2502746582031 197.5041046142578 C 491.9723815917969 194.39645385742188 484.68231201171875 187.0044403076172 481.5832214355469 176.70111083984375 C 484.2082214355469 166.5487060546875 491.52294921875 159.13516235351562 501.6194763183594 156.486083984375 C 512.03369140625 159.66664123535156 519.5758666992188 166.8871612548828 522.7676391601562 177.35008239746094" stroke-width="0.0" fill="rgb(203, 193, 184)" opacity="1.0"/>
    <path d="M 27.948944091796875 515.9553833007812 C 25.219694137573242 526.8817138671875 17.885648727416992 534.2288208007812 7.719869136810303 536.9434204101562 C -3.5697484016418457 534.06787109375 -10.532618522644043 526.3577270507812 -13.029316902160645 516.0244750976562 C -10.423754692077637 505.80340576171875 -3.3755640983581543 498.1018981933594 7.655710220336914 495.1131896972656 C 17.86609649658203 497.7997741699219 25.21673011779785 505.1275634765625 27.948944091796875 515.9553833007812" stroke-width="0.0" fill="rgb(113, 121, 130)" opacity="1.0"/>
    <path d="M 409.4313659667969 58.058345794677734 C 406.8384094238281 68.49626159667969 399.4857177734375 75.80419921875 389.2420349121094 78.25273895263672 C 379.0 75.32051086425781 371.67950439453125 68.0 368.77655029296875 57.787540435791016 C 371.2364196777344 47.549373626708984 378.5207214355469 40.14612579345703 389.08148193359375 37.32527542114258 C 399.5350341796875 40.09610366821289 406.82757568359375 47.48930358886719 409.4313659667969 58.058345794677734" stroke-width="0.0" fill="rgb(201, 194, 187)" opacity="0.9906924"/>
    <path d="M 60.00057601928711 168.00064086914062 C 57.32268524169922 178.0025634765625 50.003204345703125 185.32485961914062 39.85383987426758 188.13746643066406 C 29.57590675354004 185.6975555419922 22.129878997802734 178.47869873046875 19.561870574951172 168.36834716796875 C 22.688573837280273 158.001708984375 29.998798370361328 150.67800903320312 39.999488830566406 147.99951171875 C 50.0 150.6794891357422 57.32050704956055 158.0 60.00057601928711 168.00064086914062" stroke-width="0.0" fill="rgb(193, 183, 172)" opacity="0.99430853"/>
    <path d="M 597.6690673828125 15.089988708496094 C 594.8816528320312 25.462594985961914 587.3803100585938 32.62726593017578 577.1005859375 35.07806396484375 C 567.0000610351562 32.32047653198242 559.6802368164062 24.999717712402344 557.0104370117188 15.003657341003418 C 559.6849365234375 5.0027852058410645 567.0014038085938 -2.319753646850586 577.1854858398438 -5.186069965362549 C 587.4364624023438 -2.735140323638916 594.8580932617188 4.524292469024658 597.6690673828125 15.089988708496094" stroke-width="0.0" fill="rgb(198, 190, 181)" opacity="1.0"/>
    <path d="M 22.682884216308594 460.17547607421875 C 18.476760864257812 470.1440124511719 11.12034797668457 477.4102783203125 1.163507103919983 480.0517883300781 C -7.880846977233887 478.02117919921875 -15.31402587890625 470.9803466796875 -17.999855041503906 460.99969482421875 C -15.319422721862793 451.0032958984375 -7.982447147369385 443.7306823730469 2.8445446491241455 440.0886535644531 C 12.864906311035156 442.7803649902344 20.176288604736328 450.1529541015625 22.682884216308594 460.17547607421875" stroke-width="0.0" fill="rgb(32, 47, 61)" opacity="0.99001193"/>
    <path d="M 559.1282958984375 115.13362121582031 C 556.6560668945312 125.36973571777344 549.4293823242188 132.83917236328125 538.6876831054688 135.7657012939453 C 528.376220703125 132.9790496826172 520.9899291992188 125.63566589355469 518.2306518554688 115.36515045166016 C 521.0533447265625 104.38761901855469 528.3622436523438 96.98236083984375 538.435302734375 94.291259765625 C 548.99853515625 97.68392181396484 556.3203735351562 105.00028991699219 559.1282958984375 115.13362121582031" stroke-width="0.0" fill="rgb(197, 188, 179)" opacity="1.0"/>
    <path d="M 401.2528381347656 66.23876190185547 C 398.8005065917969 76.48634338378906 391.5118408203125 83.88094329833984 380.9448547363281 86.65705871582031 C 370.3949890136719 83.94234466552734 363.04193115234375 76.6104736328125 360.24163818359375 65.73148345947266 C 363.0411071777344 55.42817687988281 370.46661376953125 48.15767288208008 380.733154296875 45.722408294677734 C 391.00128173828125 48.67796325683594 398.3220520019531 55.998695373535156 401.2528381347656 66.23876190185547" stroke-width="0.0" fill="rgb(202, 195, 187)" opacity="0.9908277"/>
    <path d="M 572.74609375 175.12620544433594 C 569.95751953125 185.61468505859375 562.6282958984375 192.9935760498047 552.1408081054688 195.70472717285156 C 541.3970336914062 192.9441375732422 534.0335083007812 185.61097717285156 531.4926147460938 175.43203735351562 C 534.6827392578125 165.00279235839844 542.0030517578125 157.68373107910156 552.2801513671875 154.70884704589844 C 562.5313720703125 157.15074157714844 569.9259033203125 164.44403076171875 572.74609375 175.12620544433594" stroke-width="0.0" fill="rgb(198, 188, 179)" opacity="1.0"/>
    <path d="M 381.3979797363281 163.33538818359375 C 378.8625793457031 173.5048065185547 371.4958801269531 180.83628845214844 360.8536682128906 183.6732940673828 C 350.609130859375 180.81378173828125 343.37469482421875 173.3282928466797 340.6114807128906 162.9916229248047 C 343.3721008300781 152.68650817871094 350.6604919433594 145.28997802734375 361.2018127441406 142.33592224121094 C 371.1824951171875 145.33509826660156 378.3484191894531 152.92393493652344 381.3979797363281 163.33538818359375" stroke-width="0.0" fill="rgb(208, 200, 197)" opacity="0.99088234"/>
    <path d="M 465.04827880859375 58.054039001464844 C 462.48590087890625 68.19522094726562 455.23516845703125 75.61515808105469 445.1594543457031 78.23413848876953 C 434.9907531738281 75.33231353759766 427.6694641113281 68.00872039794922 424.9522399902344 57.96761703491211 C 427.5705871582031 47.877620697021484 434.8622741699219 40.52009582519531 444.9302978515625 37.915367126464844 C 455.0 40.67949295043945 462.32049560546875 48.0 465.04827880859375 58.054039001464844" stroke-width="0.0" fill="rgb(193, 186, 179)" opacity="0.99525213"/>
    <path d="M 482.5438537597656 215.41555786132812 C 479.8996887207031 225.5364532470703 472.5409851074219 232.9141082763672 461.3560485839844 235.9006805419922 C 451.265869140625 233.13446044921875 444.0467529296875 225.6658172607422 441.3109130859375 214.78988647460938 C 444.0286865234375 204.40235900878906 451.4247131347656 197.09243774414062 461.6260986328125 194.5361785888672 C 471.9924621582031 197.68666076660156 479.3012390136719 205.01095581054688 482.5438537597656 215.41555786132812" stroke-width="0.0" fill="rgb(198, 189, 179)" opacity="0.99050766"/>
    <path d="M 404.81512451171875 555.2200927734375 C 401.32049560546875 566.0 394.0 573.3204956054688 384.3797302246094 575.5986328125 C 374.72833251953125 572.6500244140625 367.56011962890625 565.1915283203125 364.9739074707031 556.7865600585938 C 367.62152099609375 546.9285278320312 374.92755126953125 539.619140625 384.9205627441406 536.9553833007812 C 394.9010925292969 537.7681274414062 402.2235107421875 545.1019287109375 404.81512451171875 555.2200927734375" stroke-width="0.0" fill="rgb(2, 3, 2)" opacity="0.99000543"/>
    <path d="M 510.60186767578125 24.99107551574707 C 507.9164733886719 35.580474853515625 500.5921325683594 42.95137023925781 490.18914794921875 45.676361083984375 C 479.54522705078125 42.846256256103516 472.30792236328125 35.40517807006836 469.8038024902344 25.097246170043945 C 472.4198913574219 14.641958236694336 479.5130310058594 7.050018310546875 489.66656494140625 4.207659721374512 C 500.5784912109375 7.065918445587158 507.9095458984375 14.429535865783691 510.60186767578125 24.99107551574707" stroke-width="0.0" fill="rgb(200, 193, 186)" opacity="0.991226"/>
    <path d="M 395.73895263671875 12.345601081848145 C 392.9532470703125 22.576824188232422 385.55938720703125 29.902347564697266 375.3717956542969 32.44820785522461 C 364.99853515625 29.306825637817383 357.5218200683594 22.054492950439453 354.4141540527344 11.823256492614746 C 357.1750183105469 1.5866400003433228 364.660400390625 -5.593772888183594 374.9549560546875 -8.095742225646973 C 385.2524108886719 -5.499659538269043 392.77679443359375 1.6576141119003296 395.73895263671875 12.345601081848145" stroke-width="0.0" fill="rgb(205, 199, 192)" opacity="1.0"/>
    <path d="M 471.6471862792969 53.1506233215332 C 468.90869140625 63.52254867553711 461.4806213378906 70.78081512451172 451.2098388671875 73.24453735351562 C 440.98419189453125 70.34210205078125 433.6614990234375 63.01481628417969 430.8645324707031 52.87590789794922 C 433.3552551269531 42.656490325927734 440.6380920410156 35.29476547241211 450.88232421875 32.752288818359375 C 461.3118591308594 35.42308807373047 468.806396484375 42.613834381103516 471.6471862792969 53.1506233215332" stroke-width="0.0" fill="rgb(204, 196, 190)" opacity="0.99373513"/>
    <path d="M 527.7086791992188 258.40142822265625 C 524.9076538085938 268.49481201171875 517.43212890625 275.7181701660156 506.6630859375 278.5406188964844 C 496.4281311035156 275.9263000488281 489.0836486816406 268.5685729980469 486.3336181640625 258.1064147949219 C 489.24041748046875 247.69654846191406 496.7984924316406 240.5464630126953 506.9764709472656 237.97984313964844 C 517.0840454101562 240.634033203125 524.5916137695312 247.84353637695312 527.7086791992188 258.40142822265625" stroke-width="0.0" fill="rgb(196, 185, 175)" opacity="1.0"/>
    <path d="M 592.7930908203125 31.415292739868164 C 589.9617919921875 41.550750732421875 582.5047607421875 48.8384895324707 571.6115112304688 51.75822067260742 C 561.3908081054688 48.98411178588867 554.0405883789062 41.60053634643555 551.2876586914062 31.165821075439453 C 554.1649780273438 20.619670867919922 561.7315063476562 13.500255584716797 571.9627685546875 10.964598655700684 C 582.035888671875 13.661619186401367 589.5850219726562 20.88306427001953 592.7930908203125 31.415292739868164" stroke-width="0.0" fill="rgb(197, 188, 180)" opacity="0.99067646"/>
    <path d="M 421.9146728515625 575.8718872070312 C 419.2561950683594 585.9232177734375 411.92303466796875 593.2560424804688 401.8555603027344 595.9532470703125 C 390.5611572265625 592.9439086914062 383.4044189453125 585.2988891601562 380.9320983886719 575.0849609375 C 383.6772766113281 565.0003051757812 391.0007629394531 557.67919921875 400.9996032714844 554.9949340820312 C 410.9999694824219 557.67919921875 418.32012939453125 565.000244140625 421.9146728515625 575.8718872070312" stroke-width="0.0" fill="rgb(0, 0, 6)" opacity="1.0"/>
    <path d="M 519.7479248046875 117.15658569335938 C 516.9004516601562 127.50169372558594 509.4996032714844 134.89601135253906 499.4812316894531 137.66368103027344 C 488.9910583496094 134.32275390625 481.6117858886719 127.02794647216797 478.4291687011719 116.63160705566406 C 481.0840759277344 106.43169403076172 488.39447021484375 98.98851776123047 498.5631408691406 96.20356750488281 C 509.5318298339844 99.10505676269531 516.8981323242188 106.46723175048828 519.7479248046875 117.15658569335938" stroke-width="0.0" fill="rgb(197, 189, 179)" opacity="0.9903598"/>
    <path d="M 607.116943359375 102.12962341308594 C 604.656494140625 112.37344360351562 597.4215698242188 119.80979919433594 586.652587890625 122.71692657470703 C 576.4982299804688 119.93309020996094 569.3145751953125 112.41712951660156 566.8657836914062 102.14325714111328 C 569.6795043945312 92.0 577.0 84.67948913574219 587.0 82.0 C 597.0 84.67948913574219 604.3204956054688 92.0 607.116943359375 102.12962341308594" stroke-width="0.0" fill="rgb(204, 196, 187)" opacity="1.0"/>
    <path d="M 177.03541564941406 533.8353881835938 C 175.777587890625 543.8045654296875 168.8785400390625 551.2411499023438 158.5973663330078 553.9622192382812 C 147.10171508789062 551.2380981445312 139.7678680419922 543.8956909179688 137.05133056640625 533.4849243164062 C 139.7756805419922 522.109130859375 147.1021728515625 514.7590942382812 157.197509765625 512.0435791015625 C 167.21908569335938 515.75390625 174.40411376953125 523.8703002929688 177.03541564941406 533.8353881835938" stroke-width="0.0" fill="rgb(16, 20, 30)" opacity="0.9900153"/>
    <path d="M 583.8388061523438 541.7908325195312 C 580.9222412109375 552.445556640625 573.3095092773438 559.5382690429688 563.3535766601562 561.6565551757812 C 553.5838012695312 558.7427368164062 546.3673095703125 551.3782958984375 543.8277587890625 541.6680297851562 C 545.8884887695312 531.517578125 552.33544921875 523.91064453125 562.4978637695312 521.1571044921875 C 573.6605224609375 524.0 581.0572509765625 531.3179321289062 583.8388061523438 541.7908325195312" stroke-width="0.0" fill="rgb(182, 167, 151)" opacity="0.99003196"/>
    <path d="M 588.745849609375 493.2492370605469 C 586.0366821289062 503.68231201171875 578.6806640625 511.0325927734375 567.2876586914062 513.8812255859375 C 557.1376342773438 511.2059020996094 549.8097534179688 503.8561706542969 547.1152954101562 493.4750671386719 C 549.8590087890625 482.19989013671875 557.19189453125 474.8384094238281 567.3468017578125 472.1351623535156 C 578.6121215820312 475.02911376953125 585.9616088867188 482.3912048339844 588.745849609375 493.2492370605469" stroke-width="0.0" fill="rgb(192, 180, 165)" opacity="1.0"/>
    <path d="M 423.6337585449219 208.2742462158203 C 421.044921875 218.7551727294922 413.80419921875 226.18020629882812 403.0317687988281 228.91160583496094 C 392.18310546875 226.17092895507812 384.8659973144531 218.80307006835938 382.2533874511719 208.56011962890625 C 385.1529235839844 197.4959259033203 392.48004150390625 190.1070098876953 403.03509521484375 187.33187866210938 C 413.5493469238281 190.08673095703125 420.8712463378906 197.4646453857422 423.6337585449219 208.2742462158203" stroke-width="0.0" fill="rgb(192, 184, 174)" opacity="1.0"/>
    <path d="M 563.71630859375 309.79681396484375 C 560.9381713867188 320.5985412597656 553.618408203125 327.99517822265625 543.2657470703125 330.7840270996094 C 532.3779296875 327.9744567871094 525.0387573242188 320.61749267578125 522.4690551757812 310.4332580566406 C 525.6670532226562 299.9665832519531 532.8819580078125 292.4103088378906 543.0786743164062 289.3287048339844 C 553.5821533203125 292.08319091796875 560.9682006835938 299.4006652832031 563.71630859375 309.79681396484375" stroke-width="0.0" fill="rgb(191, 180, 168)" opacity="0.99027234"/>
    <path d="M 62.64728546142578 111.8128662109375 C 59.874977111816406 122.53878784179688 52.56250762939453 129.944580078125 42.449989318847656 132.69534301757812 C 31.92439079284668 129.47503662109375 24.664365768432617 122.03276824951172 21.994340896606445 111.99933624267578 C 24.673730850219727 101.99496459960938 31.9927921295166 94.6661148071289 42.09352493286133 91.90557098388672 C 52.39143753051758 94.36370849609375 59.89462661743164 101.5250015258789 62.64728546142578 111.8128662109375" stroke-width="0.0" fill="rgb(192, 183, 174)" opacity="0.99061245"/>
    <path d="M 171.54164123535156 77.39810943603516 C 168.89585876464844 87.4940185546875 161.4292755126953 94.69353485107422 151.07220458984375 97.1733627319336 C 140.69952392578125 94.56331634521484 133.2090301513672 87.37361907958984 130.40267944335938 77.1587905883789 C 133.41517639160156 66.85820770263672 140.9329833984375 59.64680862426758 150.99462890625 56.997989654541016 C 161.0008544921875 59.6799430847168 168.33714294433594 66.9942855834961 171.54164123535156 77.39810943603516" stroke-width="0.0" fill="rgb(196, 188, 180)" opacity="0.9906611"/>
    <path d="M 160.9993896484375 54.99755096435547 C 158.31903076171875 64.99897003173828 150.99911499023438 72.31951141357422 140.67218017578125 75.37667846679688 C 130.44313049316406 72.884765625 123.06017303466797 65.5753402709961 120.4970932006836 55.40976333618164 C 123.67948150634766 45.000213623046875 130.9998321533203 37.678184509277344 140.99935913085938 34.99299621582031 C 151.0020751953125 37.67710876464844 158.32308959960938 44.997886657714844 160.9993896484375 54.99755096435547" stroke-width="0.0" fill="rgb(196, 187, 179)" opacity="0.9922515"/>
    <path d="M 616.0000610351562 89.99987030029297 C 613.320556640625 100.00019073486328 606.000732421875 107.32243347167969 595.9886474609375 110.0340576171875 C 585.989501953125 107.338623046875 578.6751098632812 100.00648498535156 575.999267578125 90.00103759765625 C 578.679443359375 79.9998550415039 585.9983520507812 72.67399597167969 596.0127563476562 69.82750701904297 C 606.0115966796875 72.6500244140625 613.3218383789062 79.99644470214844 616.0000610351562 89.99987030029297" stroke-width="0.0" fill="rgb(198, 190, 181)" opacity="0.9964225"/>
    <path d="M 50.0659065246582 321.0762023925781 C 47.563331604003906 331.3104553222656 40.40450668334961 338.8457336425781 30.407028198242188 341.5517883300781 C 19.99312973022461 338.32611083984375 12.667389869689941 331.0086364746094 9.858595848083496 320.860107421875 C 12.300694465637207 310.5633239746094 19.488759994506836 303.0741882324219 29.54703140258789 300.4064025878906 C 40.00299072265625 303.6755065917969 47.3238639831543 310.9971618652344 50.0659065246582 321.0762023925781" stroke-width="0.0" fill="rgb(190, 178, 166)" opacity="0.99203414"/>
    <path d="M 77.28837585449219 382.8041687011719 C 74.79524230957031 392.5465087890625 67.58403778076172 399.9097595214844 57.80259323120117 402.7799987792969 C 48.0 400.32049560546875 40.67949295043945 393.0 37.94432067871094 382.90655517578125 C 40.31593704223633 372.4806823730469 47.29783630371094 364.8450927734375 57.17990493774414 362.0708312988281 C 68.0565185546875 365.4851379394531 75.04228973388672 373.10711669921875 77.28837585449219 382.8041687011719" stroke-width="0.0" fill="rgb(51, 64, 92)" opacity="1.0"/>
    <path d="M 576.3034057617188 106.26709747314453 C 573.8362426757812 116.51779174804688 566.5401611328125 123.90631866455078 556.395263671875 126.4681396484375 C 546.0009765625 123.3155517578125 538.6787109375 116.00057220458984 535.790283203125 105.79048919677734 C 538.222412109375 95.51216125488281 545.4600830078125 88.06432342529297 555.6361083984375 85.33552551269531 C 566.130126953125 88.44416809082031 573.36083984375 95.93183898925781 576.3034057617188 106.26709747314453" stroke-width="0.0" fill="rgb(196, 187, 178)" opacity="1.0"/>
    <path d="M 539.222412109375 152.81021118164062 C 536.3565063476562 163.082275390625 529.2050170898438 170.7078399658203 519.3994140625 173.631103515625 C 508.9916687011719 170.32479858398438 501.6092834472656 163.0275115966797 498.524658203125 152.76731872558594 C 501.2036437988281 142.52700805664062 508.4905700683594 135.0965576171875 518.6773681640625 132.2909698486328 C 529.405029296875 135.22959899902344 536.7119140625 142.6134490966797 539.222412109375 152.81021118164062" stroke-width="0.0" fill="rgb(197, 186, 178)" opacity="0.990466"/>
    <path d="M 300.3083190917969 29.264068603515625 C 297.7966003417969 39.43526077270508 290.39654541015625 46.664005279541016 279.91839599609375 49.3187141418457 C 270.08770751953125 46.325679779052734 262.7776184082031 38.888187408447266 260.02227783203125 28.970094680786133 C 262.6737060546875 18.984182357788086 269.941650390625 11.53402328491211 279.83612060546875 8.620140075683594 C 290.0148620605469 11.64455509185791 297.3226623535156 18.994626998901367 300.3083190917969 29.264068603515625" stroke-width="0.0" fill="rgb(207, 202, 198)" opacity="0.9903277"/>
    <path d="M 541.7119140625 59.58979797363281 C 539.0276489257812 69.64111328125 531.6071166992188 76.93399047851562 521.1254272460938 79.64078521728516 C 510.4075012207031 76.91547393798828 503.01031494140625 69.61793518066406 500.2827453613281 59.26866149902344 C 503.16143798828125 48.58750915527344 510.671630859375 41.420196533203125 520.9191284179688 38.93834686279297 C 530.9967651367188 41.68073272705078 538.2841186523438 49.01324462890625 541.7119140625 59.58979797363281" stroke-width="0.0" fill="rgb(193, 185, 177)" opacity="0.99035835"/>
    <path d="M 552.5936889648438 31.845232009887695 C 549.6469116210938 42.2107048034668 542.1320190429688 49.40321731567383 532.017578125 52.012725830078125 C 521.9993286132812 49.321754455566406 514.6746215820312 42.00157928466797 511.3293151855469 31.50929832458496 C 514.036865234375 21.402727127075195 521.4097900390625 14.058176040649414 531.7418823242188 11.354696273803711 C 542.4111328125 14.23686408996582 549.8192749023438 21.56884765625 552.5936889648438 31.845232009887695" stroke-width="0.0" fill="rgb(194, 185, 178)" opacity="0.99043506"/>
    <path d="M 568.8058471679688 392.4796142578125 C 565.9849243164062 402.46929931640625 558.2197265625 409.2419128417969 547.8992309570312 411.8695373535156 C 537.938232421875 409.35137939453125 530.4183349609375 402.1361999511719 527.2916259765625 391.62091064453125 C 530.0439453125 381.4104919433594 537.42041015625 374.0747375488281 547.7477416992188 371.4915771484375 C 558.4769287109375 374.2250671386719 565.8857421875 381.48797607421875 568.8058471679688 392.4796142578125" stroke-width="0.0" fill="rgb(191, 179, 165)" opacity="0.99051124"/>
    <path d="M 469.1672058105469 3.935081958770752 C 466.32867431640625 14.006508827209473 459.00579833984375 21.32631492614746 448.9998779296875 24.005962371826172 C 438.9829406738281 21.33037567138672 431.6226501464844 14.031082153320312 429.12774658203125 4.094967365264893 C 431.72021484375 -5.984470367431641 439.0043640136719 -13.318796157836914 449.0004577636719 -16.000036239624023 C 459.0071105957031 -13.323259353637695 466.3802185058594 -6.023647308349609 469.1672058105469 3.935081958770752" stroke-width="0.0" fill="rgb(201, 192, 187)" opacity="0.9948019"/>
    <path d="M 90.68853759765625 532.31103515625 C 87.19845581054688 542.900390625 79.90702819824219 550.2213745117188 69.9581298828125 552.9454345703125 C 59.99812316894531 550.322021484375 52.675880432128906 543.0025024414062 49.05714416503906 532.1075439453125 C 51.7457389831543 522.0823364257812 59.08265686035156 514.746337890625 69.35177612304688 512.031494140625 C 80.88618469238281 514.7642211914062 88.18045806884766 522.1343383789062 90.68853759765625 532.31103515625" stroke-width="0.0" fill="rgb(15, 17, 29)" opacity="1.0"/>
    <path d="M 510.0487365722656 319.447265625 C 507.4544982910156 329.1883544921875 500.283203125 337.1293640136719 491.8040466308594 340.9132385253906 C 481.9017639160156 336.429443359375 474.6180725097656 329.0819091796875 471.9638977050781 319.1197509765625 C 473.99737548828125 310.1145935058594 481.0025939941406 302.6763916015625 490.9359130859375 299.9546203613281 C 500.51849365234375 303.0060729980469 507.5384216308594 310.6459655761719 510.0487365722656 319.447265625" stroke-width="0.0" fill="rgb(4, 6, 5)" opacity="0.9900092"/>
    <path d="M 602.1270141601562 82.85386657714844 C 599.3163452148438 92.99566650390625 591.995361328125 100.3154296875 581.9892578125 103.01792907714844 C 571.9554443359375 100.34709930419922 564.4069213867188 93.12577056884766 561.2286376953125 82.5989761352539 C 564.0020751953125 72.35743713378906 571.3560791015625 65.00064849853516 581.7308959960938 62.31648635864258 C 592.4767456054688 65.1290283203125 599.6929321289062 72.57978057861328 602.1270141601562 82.85386657714844" stroke-width="0.0" fill="rgb(198, 189, 181)" opacity="1.0"/>
    <path d="M 602.2640991210938 592.1763916015625 C 599.5805053710938 602.1642456054688 592.1005859375 609.3794555664062 582.0045166015625 612.010009765625 C 571.8911743164062 609.3717041015625 564.2352294921875 602.25 561.2777709960938 592.3756103515625 C 564.5408935546875 581.9439697265625 571.9841918945312 574.673583984375 581.9940795898438 572.00732421875 C 591.9863891601562 574.6930541992188 599.3021240234375 582.0150756835938 602.2640991210938 592.1763916015625" stroke-width="0.0" fill="rgb(189, 175, 160)" opacity="0.992833"/>
    <path d="M 287.0125732421875 24.977266311645508 C 284.3184509277344 34.996856689453125 276.9809265136719 42.26237487792969 266.7833251953125 44.815093994140625 C 257.0519104003906 42.26512145996094 249.91026306152344 34.89115524291992 247.38681030273438 24.81183624267578 C 249.439208984375 14.632991790771484 256.5201416015625 7.078967571258545 266.57568359375 4.2605180740356445 C 277.2298278808594 7.336636543273926 284.416748046875 14.849767684936523 287.0125732421875 24.977266311645508" stroke-width="0.0" fill="rgb(210, 203, 196)" opacity="0.99026585"/>
    <path d="M 37.26308059692383 128.12445068359375 C 34.41576385498047 138.0360565185547 27.00872802734375 145.32313537597656 16.99768829345703 147.98544311523438 C 6.99440336227417 145.32742309570312 -0.32421448826789856 138.0045928955078 -3.4157633781433105 127.6476821899414 C -0.8920560479164124 117.4723129272461 6.502330303192139 110.20346069335938 16.776330947875977 107.77647399902344 C 26.99986457824707 110.67691802978516 34.31148910522461 118.00353240966797 37.26308059692383 128.12445068359375" stroke-width="0.0" fill="rgb(195, 186, 176)" opacity="1.0"/>
    <path d="M 53.92450714111328 435.4298095703125 C 51.145790100097656 446.796142578125 43.795066833496094 454.1430358886719 33.21278381347656 456.8858642578125 C 22.21442222595215 454.1247253417969 14.847742080688477 446.79681396484375 12.206802368164062 436.6813049316406 C 15.482020378112793 425.8400573730469 22.84670066833496 418.50372314453125 33.797630310058594 415.1021728515625 C 43.820274353027344 417.8187561035156 51.181312561035156 425.179443359375 53.92450714111328 435.4298095703125" stroke-width="0.0" fill="rgb(94, 109, 134)" opacity="1.0"/>
    <path d="M 173.4451141357422 206.29367065429688 C 171.43429565429688 216.1154022216797 164.06765747070312 223.2586669921875 153.3290557861328 226.77500915527344 C 143.29994201660156 224.09335327148438 136.02365112304688 216.65402221679688 133.26800537109375 206.2874755859375 C 136.1257781982422 195.4736785888672 143.46664428710938 188.10723876953125 153.6656494140625 185.54795837402344 C 163.92970275878906 188.6219940185547 170.95248413085938 196.2093048095703 173.4451141357422 206.29367065429688" stroke-width="0.0" fill="rgb(196, 188, 183)" opacity="0.99006855"/>
    <path d="M 381.1489562988281 207.79420471191406 C 380.06793212890625 217.38462829589844 371.3719482421875 223.49024963378906 362.5173645019531 226.04522705078125 C 352.8629455566406 223.4292449951172 345.5657653808594 216.1393585205078 342.958740234375 207.33888244628906 C 345.57183837890625 197.85655212402344 352.8357238769531 190.5186309814453 361.7353210449219 187.90806579589844 C 371.2354431152344 190.48545837402344 378.5165710449219 197.7637939453125 381.1489562988281 207.79420471191406" stroke-width="0.0" fill="rgb(47, 60, 72)" opacity="0.99000376"/>
    <path d="M 75.55840301513672 385.23638916015625 C 72.86275482177734 395.6005554199219 65.70864868164062 403.13525390625 54.54518508911133 405.9366149902344 C 44.168819427490234 403.19464111328125 36.927574157714844 395.7911682128906 35.7365608215332 385.5871887207031 C 38.24659729003906 375.4931640625 45.453086853027344 368.1270751953125 55.19914245605469 365.35406494140625 C 64.96382904052734 367.75836181640625 72.43096160888672 374.977783203125 75.55840301513672 385.23638916015625" stroke-width="0.0" fill="rgb(62, 71, 95)" opacity="0.9901127"/>
    <path d="M 152.7522430419922 143.0289764404297 C 149.973876953125 153.62823486328125 142.637939453125 161.0006561279297 132.36180114746094 163.6729278564453 C 121.49301147460938 160.83473205566406 114.10628509521484 153.52676391601562 111.36463928222656 143.00613403320312 C 114.10549926757812 132.45648193359375 121.44386291503906 125.06785583496094 131.8889923095703 122.24966430664062 C 142.5703887939453 125.05416107177734 149.9239959716797 132.43862915039062 152.7522430419922 143.0289764404297" stroke-width="0.0" fill="rgb(196, 189, 180)" opacity="1.0"/>
    <path d="M 614.0055541992188 331.000244140625 C 611.365234375 341.09674072265625 604.2265625 348.7331237792969 593.654296875 351.7882385253906 C 583.3156127929688 349.04693603515625 575.9866333007812 341.6719665527344 573.2492065429688 331.108642578125 C 576.0366821289062 320.40570068359375 583.4166259765625 313.0672302246094 594.0182495117188 310.2350769042969 C 604.2274169921875 313.2614440917969 611.3638305664062 320.90570068359375 614.0055541992188 331.000244140625" stroke-width="0.0" fill="rgb(193, 181, 168)" opacity="0.9920444"/>
    <path d="M 71.57180786132812 42.739803314208984 C 68.59150695800781 53.196781158447266 61.22590637207031 60.67317581176758 50.69096374511719 63.739742279052734 C 40.3378791809082 61.0206184387207 33.00342559814453 53.65338134765625 30.22979736328125 42.9232292175293 C 33.05282211303711 32.43055725097656 40.437747955322266 25.07356071472168 51.04960632324219 22.278465270996094 C 61.59140396118164 25.045513153076172 68.9142837524414 32.4222297668457 71.57180786132812 42.739803314208984" stroke-width="0.0" fill="rgb(195, 187, 178)" opacity="1.0"/>
    <path d="M 63.70695114135742 164.49330139160156 C 60.36984634399414 175.01950073242188 53.00603103637695 182.322998046875 43.0000114440918 184.9980926513672 C 32.99985122680664 182.32083129882812 25.679752349853516 174.99998474121094 22.999656677246094 164.99925231933594 C 25.67839241027832 154.99853515625 32.99786376953125 147.6760711669922 43.4754524230957 144.368896484375 C 53.58205795288086 147.0537567138672 60.965614318847656 154.41090393066406 63.70695114135742 164.49330139160156" stroke-width="0.0" fill="rgb(193, 183, 173)" opacity="0.9921309"/>
    <path d="M 573.5140991210938 229.4013214111328 C 570.9100341796875 239.55374145507812 563.571044921875 246.95851135253906 553.3084106445312 249.77670288085938 C 542.4817504882812 246.8903350830078 535.1913452148438 239.49208068847656 532.466552734375 228.75686645507812 C 535.0485229492188 218.37969970703125 542.3602294921875 210.9914093017578 552.4813232421875 208.36297607421875 C 562.9962158203125 211.6841278076172 570.315185546875 219.00396728515625 573.5140991210938 229.4013214111328" stroke-width="0.0" fill="rgb(199, 189, 178)" opacity="1.0"/>
    <path d="M 540.2450561523438 291.8919372558594 C 537.3321533203125 302.0296936035156 530.1027221679688 309.5584716796875 519.614501953125 312.6891174316406 C 509.2274475097656 310.0719909667969 501.8121032714844 302.81561279296875 499.11187744140625 292.7542724609375 C 502.0980529785156 281.4714660644531 509.5074768066406 274.2127380371094 520.0086059570312 271.552978515625 C 530.1734008789062 274.3829345703125 537.4382934570312 281.8883361816406 540.2450561523438 291.8919372558594" stroke-width="0.0" fill="rgb(197, 187, 177)" opacity="1.0"/>
    <path d="M 322.58575439453125 15.89317798614502 C 319.589111328125 26.188169479370117 312.1390380859375 33.43153381347656 302.04119873046875 35.85069274902344 C 292.0066223144531 33.29693603515625 284.67626953125 26.000879287719727 281.68798828125 15.721114158630371 C 284.1607360839844 5.4917097091674805 291.49310302734375 -1.8343801498413086 301.8071594238281 -4.344242572784424 C 312.313720703125 -1.6152784824371338 319.72760009765625 5.65161657333374 322.58575439453125 15.89317798614502" stroke-width="0.0" fill="rgb(207, 200, 195)" opacity="0.9901483"/>
    <path d="M 589.629638671875 568.4844360351562 C 586.3331298828125 579.012939453125 579.015380859375 586.3416748046875 568.5127563476562 589.5443115234375 C 558.246826171875 587.0531005859375 550.802734375 579.8115234375 548.1405029296875 569.868408203125 C 552.4078979492188 559.60791015625 559.4876708984375 552.0637817382812 569.4194946289062 548.6675415039062 C 579.6376953125 551.0482177734375 587.0175170898438 558.3412475585938 589.629638671875 568.4844360351562" stroke-width="0.0" fill="rgb(183, 169, 154)" opacity="0.99070567"/>
  </g>
</svg>
