<?xml version="1.0" ?>
<svg xmlns="http://www.w3.org/2000/svg" version="1.1" width="600" height="600">
  <defs/>
  <g>
    <path d="M 448.56427001953125 583.9837646484375 C 445.6748962402344 594.28564453125 438.2435607910156 601.5399169921875 427.9840087890625 604.1697387695312 C 417.8164367675781 601.5307006835938 410.5387268066406 594.1624755859375 407.9617004394531 584.0449829101562 C 410.67950439453125 574.0 418.0 566.6795043945312 428.32196044921875 563.5362548828125 C 438.3968811035156 566.2147827148438 445.72442626953125 573.623779296875 448.56427001953125 583.9837646484375" stroke-width="0.0" fill="rgb(199, 203, 208)" opacity="0.9929454"/>
    <path d="M 143.13055419921875 46.13491439819336 C 140.65853881835938 56.37397003173828 133.44461059570312 63.86970901489258 123.18772888183594 66.73948669433594 C 112.51904296875 63.86042785644531 105.12881469726562 56.48515701293945 102.23356628417969 45.746437072753906 C 105.07001495361328 35.483848571777344 112.54979705810547 28.267337799072266 122.8245849609375 25.832304000854492 C 133.0 28.67949104309082 140.3205108642578 36.0 143.13055419921875 46.13491439819336" stroke-width="0.0" fill="rgb(187, 189, 195)" opacity="0.99381846"/>
    <path d="M 438.5032043457031 414.9032897949219 C 435.6751403808594 425.31103515625 428.307861328125 432.6649475097656 418.025634765625 435.4801025390625 C 407.6091003417969 432.7342834472656 400.2574157714844 425.393310546875 397.4992980957031 415.00445556640625 C 400.2261047363281 404.5693359375 407.573974609375 397.2408752441406 417.9532775878906 394.620849609375 C 428.4697570800781 397.20709228515625 435.8180236816406 404.5225524902344 438.5032043457031 414.9032897949219" stroke-width="0.0" fill="rgb(208, 210, 215)" opacity="0.9909374"/>
    <path d="M 459.0 0.0 C 456.32049560546875 10.0 449.0 17.32050895690918 439.0 20.0 C 429.0 17.32050895690918 421.67950439453125 10.0 419.0 2.4492935992912173e-15 C 421.67950439453125 -10.0 429.0 -17.32050895690918 439.0 -20.0 C 449.0 -17.32050895690918 456.32049560546875 -10.0 459.0 0.0" stroke-width="0.0" fill="rgb(190, 192, 197)" opacity="1.0"/>
    <path d="M 443.5437927246094 22.4018611907959 C 440.88482666015625 32.513633728027344 433.5036315917969 39.85481262207031 422.9310607910156 42.613121032714844 C 412.4862365722656 39.87724304199219 405.168212890625 32.49868392944336 402.4294128417969 21.92141342163086 C 405.1343994140625 11.492959022521973 412.5133972167969 4.199448585510254 422.76141357421875 1.7495092153549194 C 433.0 4.679491996765137 440.32049560546875 12.0 443.5437927246094 22.4018611907959" stroke-width="0.0" fill="rgb(192, 194, 199)" opacity="0.9909349"/>
    <path d="M 150.1044921875 39.11292266845703 C 147.61410522460938 49.314002990722656 140.33287048339844 56.676273345947266 130.16775512695312 59.18214416503906 C 120.0000991821289 56.32024383544922 112.67926025390625 49.00004577636719 109.66577911376953 38.68366241455078 C 112.1070785522461 28.427400588989258 119.40998077392578 21.05185890197754 129.5915069580078 18.396650314331055 C 140.0302276611328 21.604381561279297 147.32411193847656 28.99072265625 150.1044921875 39.11292266845703" stroke-width="0.0" fill="rgb(188, 190, 194)" opacity="0.9959325"/>
    <path d="M 345.14776611328125 596.7613525390625 C 342.31695556640625 606.9993896484375 335.0003356933594 614.3206787109375 325.0000305175781 617.0 C 315.0 614.3204956054688 307.67950439453125 607.0 304.9984436035156 596.9968872070312 C 307.6606140136719 586.9627685546875 314.92718505859375 579.5441284179688 325.2844543457031 576.5882568359375 C 335.49322509765625 579.1390380859375 342.78790283203125 586.5305786132812 345.14776611328125 596.7613525390625" stroke-width="0.0" fill="rgb(198, 200, 205)" opacity="1.0"/>
    <path d="M 298.05560302734375 384.54974365234375 C 295.5079650878906 393.2680358886719 288.346435546875 400.7332763671875 278.5362854003906 404.01611328125 C 268.2252502441406 402.006103515625 260.77099609375 394.8506774902344 258.0346374511719 383.7625427246094 C 260.75433349609375 373.1078796386719 268.158447265625 365.9968566894531 278.2438049316406 364.9518127441406 C 288.1412048339844 367.5673522949219 295.44171142578125 374.8548583984375 298.05560302734375 384.54974365234375" stroke-width="0.0" fill="rgb(51, 52, 54)" opacity="0.9900118"/>
    <path d="M 58.379756927490234 590.1776123046875 C 55.442832946777344 600.0206909179688 47.97591018676758 607.2938842773438 37.974029541015625 610.0046997070312 C 27.863540649414062 607.4041748046875 20.302249908447266 600.2342529296875 17.401840209960938 590.3168334960938 C 20.64039421081543 579.9864501953125 27.997270584106445 572.6785888671875 37.999935150146484 570.0 C 48.0 572.6795043945312 55.32050704956055 580.0 58.379756927490234 590.1776123046875" stroke-width="0.0" fill="rgb(220, 221, 227)" opacity="0.992959"/>
    <path d="M 43.6765251159668 29.96904182434082 C 40.89319610595703 40.53404235839844 33.53874588012695 47.906795501708984 23.391511917114258 50.565818786621094 C 12.657057762145996 47.57284927368164 5.10789680480957 40.44899368286133 2.2757630348205566 29.98137664794922 C 5.0448455810546875 19.39636993408203 12.395574569702148 12.042868614196777 23.279464721679688 9.226798057556152 C 33.58710861206055 12.031010627746582 40.92066192626953 19.429737091064453 43.6765251159668 29.96904182434082" stroke-width="0.0" fill="rgb(177, 178, 183)" opacity="1.0"/>
    <path d="M 192.54347229003906 158.81849670410156 C 189.5335693359375 169.109619140625 182.04995727539062 176.344482421875 172.00363159179688 179.00172424316406 C 162.0 176.3205108642578 154.6794891357422 169.0 151.95704650878906 158.9464111328125 C 154.50125122070312 148.77313232421875 161.70468139648438 141.2868194580078 172.1602020263672 138.3843536376953 C 182.53834533691406 141.09629821777344 189.84906005859375 148.48007202148438 192.54347229003906 158.81849670410156" stroke-width="0.0" fill="rgb(200, 201, 207)" opacity="0.992938"/>
    <path d="M 254.9666290283203 439.45489501953125 C 252.22166442871094 450.812744140625 244.2521209716797 456.4971923828125 233.4306182861328 459.0337829589844 C 223.93829345703125 456.6399230957031 216.15623474121094 450.4917297363281 213.80230712890625 440.3216857910156 C 217.04031372070312 430.4930114746094 224.6313018798828 423.4354553222656 234.90953063964844 419.0677490234375 C 244.92234802246094 421.74224853515625 252.2541961669922 429.0792236328125 254.9666290283203 439.45489501953125" stroke-width="0.0" fill="rgb(15, 16, 18)" opacity="0.99000883"/>
    <path d="M 35.60118103027344 292.1575622558594 C 32.698020935058594 302.237060546875 25.14200782775879 309.412109375 15.021357536315918 312.01458740234375 C 5.0 309.32049560546875 -2.3205080032348633 302.0 -5.192721366882324 291.8106689453125 C -2.734856605529785 281.57440185546875 4.550549507141113 274.1883850097656 15.144020080566406 271.41888427734375 C 25.505062103271484 274.11444091796875 32.79804229736328 281.5246276855469 35.60118103027344 292.1575622558594" stroke-width="0.0" fill="rgb(198, 199, 204)" opacity="0.9917549"/>
    <path d="M 117.0628890991211 349.0280456542969 C 114.49018859863281 359.20574951171875 107.25731658935547 366.6553649902344 96.70267486572266 369.6661071777344 C 86.42323303222656 366.91802978515625 79.00149536132812 359.6067199707031 76.20133209228516 349.38348388671875 C 79.18185424804688 338.5719299316406 86.59171295166016 331.2420959472656 96.88014221191406 328.5091857910156 C 107.19384002685547 331.4069519042969 114.42227172851562 338.8594665527344 117.0628890991211 349.0280456542969" stroke-width="0.0" fill="rgb(209, 210, 215)" opacity="0.9912514"/>
    <path d="M 99.79142761230469 28.256824493408203 C 97.0225830078125 38.6625862121582 89.66533660888672 46.02971267700195 79.40079498291016 48.78486633300781 C 68.50860595703125 45.86971664428711 61.15812301635742 38.481502532958984 58.278724670410156 27.708885192871094 C 61.01356506347656 17.370319366455078 68.3611068725586 9.988718032836914 78.66278839111328 7.242334842681885 C 89.59776306152344 10.068265914916992 96.98147583007812 17.384979248046875 99.79142761230469 28.256824493408203" stroke-width="0.0" fill="rgb(182, 183, 187)" opacity="0.99757016"/>
    <path d="M 408.64520263671875 563.478759765625 C 405.35760498046875 574.0715942382812 398.151611328125 581.6034545898438 387.6105041503906 584.6974487304688 C 377.2658996582031 582.0228881835938 369.8168640136719 574.7959594726562 367.0615234375 564.4577026367188 C 369.85015869140625 553.2344970703125 377.27227783203125 545.9439697265625 387.899169921875 543.246826171875 C 398.6598205566406 545.9876098632812 406.0159606933594 553.3389892578125 408.64520263671875 563.478759765625" stroke-width="0.0" fill="rgb(151, 153, 158)" opacity="0.9901771"/>
    <path d="M 587.477783203125 597.2431030273438 C 584.5136108398438 607.0796508789062 577.0215454101562 614.3284301757812 567.000732421875 617.000244140625 C 557.0007934570312 614.3202514648438 549.6886596679688 606.9967651367188 546.8977661132812 596.975341796875 C 549.6658325195312 586.99560546875 556.9993286132812 579.6793212890625 567.0 577.0 C 576.9990844726562 579.6798095703125 584.3093872070312 587.00390625 587.477783203125 597.2431030273438" stroke-width="0.0" fill="rgb(201, 205, 209)" opacity="0.9956882"/>
    <path d="M 48.74243927001953 245.42205810546875 C 45.97358703613281 255.57008361816406 38.530616760253906 262.8656005859375 27.94964027404785 265.62994384765625 C 17.46622085571289 262.8856201171875 10.084929466247559 255.54330444335938 7.290594100952148 245.2637939453125 C 10.169174194335938 234.51406860351562 17.486223220825195 227.0911407470703 27.78579330444336 224.27369689941406 C 38.48288345336914 227.14747619628906 45.82975387573242 234.5246124267578 48.74243927001953 245.42205810546875" stroke-width="0.0" fill="rgb(194, 198, 200)" opacity="0.9919507"/>
    <path d="M 437.06781005859375 577.9157104492188 C 434.31854248046875 587.998291015625 426.998291015625 595.3184204101562 416.7481994628906 598.3018188476562 C 406.5347595214844 595.788818359375 399.1140441894531 588.497314453125 396.3153076171875 578.3826904296875 C 399.478271484375 567.8232421875 406.75885009765625 560.3016967773438 417.0577087402344 557.4517822265625 C 427.383056640625 560.2012329101562 434.5750427246094 567.6887817382812 437.06781005859375 577.9157104492188" stroke-width="0.0" fill="rgb(195, 197, 202)" opacity="1.0"/>
    <path d="M 512.6024780273438 181.02146911621094 C 509.7984619140625 191.4376983642578 502.4375305175781 198.79725646972656 491.9324951171875 201.60894775390625 C 481.61248779296875 198.75994873046875 474.2529602050781 191.38377380371094 471.4668884277344 180.895751953125 C 474.156982421875 170.50997924804688 481.526123046875 163.20944213867188 491.7874755859375 160.7489471435547 C 502.17120361328125 163.56219482421875 509.6905212402344 170.746826171875 512.6024780273438 181.02146911621094" stroke-width="0.0" fill="rgb(202, 203, 209)" opacity="0.9911308"/>
    <path d="M 519.0076904296875 486.9890441894531 C 516.3204956054688 496.9999694824219 508.9994812011719 504.31866455078125 498.6205139160156 507.522216796875 C 488.5706481933594 504.8230285644531 481.26373291015625 497.4001159667969 478.5616149902344 486.999267578125 C 481.2483215332031 476.5720520019531 488.5481262207031 469.1711120605469 498.67547607421875 466.3524475097656 C 509.10986328125 469.50244140625 516.3667602539062 476.9302978515625 519.0076904296875 486.9890441894531" stroke-width="0.0" fill="rgb(210, 211, 217)" opacity="0.9913108"/>
    <path d="M 170.4857635498047 202.93060302734375 C 167.7478790283203 213.4049072265625 160.3953857421875 220.7163543701172 149.88748168945312 223.40184020996094 C 139.54092407226562 220.79872131347656 132.14186096191406 213.4783172607422 129.33343505859375 203.27813720703125 C 132.18344116210938 192.50970458984375 139.49876403808594 185.14791870117188 150.08168029785156 182.3663787841797 C 160.37753295898438 185.24520874023438 167.74761962890625 192.6232452392578 170.4857635498047 202.93060302734375" stroke-width="0.0" fill="rgb(205, 205, 211)" opacity="0.99125606"/>
    <path d="M 486.0055236816406 593.9896850585938 C 483.32049560546875 604.0 476.0 611.3204956054688 465.99700927734375 614.0014038085938 C 455.96038818359375 611.3397827148438 448.5197448730469 604.0829467773438 445.4490661621094 593.7068481445312 C 448.1549377441406 583.5150756835938 455.51959228515625 576.1690063476562 466.11395263671875 573.33984375 C 476.22113037109375 576.2958984375 483.3790283203125 583.8897094726562 486.0055236816406 593.9896850585938" stroke-width="0.0" fill="rgb(200, 203, 206)" opacity="0.9928461"/>
    <path d="M 205.67425537109375 53.1569938659668 C 202.93603515625 63.5763053894043 195.57064819335938 70.91936492919922 184.84921264648438 73.67533874511719 C 174.41065979003906 70.9598388671875 167.076904296875 63.575401306152344 164.3728790283203 53.40319061279297 C 167.50994873046875 42.88205337524414 174.83876037597656 35.38462829589844 184.96124267578125 32.33305358886719 C 195.46510314941406 35.177001953125 202.83200073242188 42.532108306884766 205.67425537109375 53.1569938659668" stroke-width="0.0" fill="rgb(193, 195, 197)" opacity="0.9918257"/>
    <path d="M 86.01622009277344 399.97430419921875 C 83.32051086425781 410.0 76.0 417.32049560546875 65.62568664550781 420.4705810546875 C 55.47163772583008 417.8934020996094 48.10301208496094 410.5285949707031 45.298744201660156 400.30584716796875 C 48.190128326416016 389.55059814453125 55.56600570678711 382.238525390625 66.02850341796875 379.5269775390625 C 76.24422454833984 382.3300476074219 83.43081665039062 389.8323669433594 86.01622009277344 399.97430419921875" stroke-width="0.0" fill="rgb(203, 205, 209)" opacity="0.99212"/>
    <path d="M 180.32301330566406 542.2339477539062 C 177.77304077148438 552.42626953125 170.42852783203125 559.77978515625 159.86883544921875 562.642822265625 C 149.62286376953125 559.7550048828125 142.27085876464844 552.3697509765625 139.34640502929688 541.7584838867188 C 142.1736297607422 531.6105346679688 149.69761657714844 524.4367065429688 159.92303466796875 521.93408203125 C 170.0187530517578 524.6702270507812 177.3890838623047 531.9635009765625 180.32301330566406 542.2339477539062" stroke-width="0.0" fill="rgb(215, 215, 221)" opacity="0.99095726"/>
    <path d="M 60.70124053955078 318.8844299316406 C 57.87751007080078 329.4851989746094 50.444488525390625 336.7577819824219 40.24517059326172 339.388916015625 C 29.997961044311523 336.3270263671875 22.679407119750977 329.0002746582031 19.99363136291504 318.9896240234375 C 22.630918502807617 308.9208679199219 29.872207641601562 301.4742736816406 40.23297882080078 298.4663391113281 C 50.50666427612305 301.1482238769531 57.885650634765625 308.48236083984375 60.70124053955078 318.8844299316406" stroke-width="0.0" fill="rgb(203, 203, 208)" opacity="0.9908642"/>
    <path d="M 518.75048828125 14.836196899414062 C 515.9341430664062 25.580711364746094 508.5791320800781 32.929256439208984 498.391845703125 35.54322052001953 C 487.9930114746094 32.341644287109375 480.6791076660156 25.001205444335938 477.5895080566406 14.679913520812988 C 480.170166015625 4.551915168762207 487.5956115722656 -2.690657377243042 498.072509765625 -5.300761699676514 C 508.44891357421875 -2.754804849624634 515.9043579101562 4.501185417175293 518.75048828125 14.836196899414062" stroke-width="0.0" fill="rgb(185, 187, 192)" opacity="1.0"/>
    <path d="M 182.68618774414062 27.63495445251465 C 179.56246948242188 38.13742446899414 172.09310913085938 45.430904388427734 162.10848999023438 48.25318908691406 C 151.99758911132812 45.32447814941406 144.67889404296875 38.001380920410156 141.939697265625 27.924152374267578 C 144.4388427734375 17.699443817138672 151.62344360351562 10.202938079833984 162.2786865234375 7.277819633483887 C 172.54251098632812 10.080035209655762 179.90875244140625 17.461759567260742 182.68618774414062 27.63495445251465" stroke-width="0.0" fill="rgb(191, 193, 195)" opacity="0.99373484"/>
    <path d="M 170.44802856445312 472.2494812011719 C 167.7957305908203 482.4021911621094 160.35072326660156 489.63330078125 150.11131286621094 492.11566162109375 C 139.92234802246094 489.3669128417969 132.4006805419922 482.1527099609375 129.45654296875 472.25360107421875 C 132.57098388671875 461.9112548828125 139.92306518554688 454.6101989746094 150.2189483642578 451.6644287109375 C 160.3433837890625 454.287841796875 167.62904357910156 461.6820068359375 170.44802856445312 472.2494812011719" stroke-width="0.0" fill="rgb(214, 214, 220)" opacity="0.99114865"/>
    <path d="M 245.89907836914062 493.1647644042969 C 242.3205108642578 504.0 235.0 511.32049560546875 225.1171112060547 513.884765625 C 215.3441925048828 511.0165100097656 208.21656799316406 503.5770263671875 205.81724548339844 494.02874755859375 C 208.2677764892578 484.5406799316406 215.55624389648438 477.3079833984375 225.87600708007812 473.1008605957031 C 235.89784240722656 475.7622985839844 243.22952270507812 483.1055908203125 245.89907836914062 493.1647644042969" stroke-width="0.0" fill="rgb(122, 122, 127)" opacity="0.9900361"/>
    <path d="M 168.24044799804688 507.8626708984375 C 165.3205108642578 518.0 158.0 525.3204956054688 147.70266723632812 528.3865966796875 C 137.54600524902344 525.8109130859375 130.2198944091797 518.4441528320312 127.42686462402344 508.0471496582031 C 130.5021514892578 497.9281005859375 137.9810028076172 490.67254638671875 148.0050506591797 487.99676513671875 C 158.05844116210938 490.6480712890625 165.51242065429688 497.8916015625 168.24044799804688 507.8626708984375" stroke-width="0.0" fill="rgb(216, 217, 222)" opacity="0.9922567"/>
    <path d="M 380.251953125 466.6466979980469 C 378.32049560546875 476.3934326171875 371.6942138671875 484.1703186035156 360.8584289550781 486.96624755859375 C 350.25970458984375 484.1822509765625 343.3026428222656 476.55364990234375 341.3613586425781 466.6198425292969 C 344.5321350097656 456.856201171875 351.8340148925781 449.39373779296875 361.8079833984375 445.0381774902344 C 371.55230712890625 447.82080078125 377.5298156738281 456.6204833984375 380.251953125 466.6466979980469" stroke-width="0.0" fill="rgb(2, 2, 2)" opacity="0.99000645"/>
    <path d="M 43.66666030883789 198.07766723632812 C 40.9601936340332 208.6056365966797 33.599510192871094 215.94317626953125 22.958032608032227 218.72607421875 C 12.50723648071289 215.8851318359375 5.232232570648193 208.45404052734375 2.7506420612335205 198.222412109375 C 5.679491996765137 188.0 13.0 180.6794891357422 23.34074592590332 177.61135864257812 C 33.560279846191406 180.10289001464844 40.921630859375 187.43194580078125 43.66666030883789 198.07766723632812" stroke-width="0.0" fill="rgb(194, 195, 200)" opacity="0.9914812"/>
    <path d="M 53.579383850097656 365.1475524902344 C 50.86894989013672 375.50848388671875 43.490989685058594 382.81353759765625 32.9521369934082 385.4383850097656 C 22.54349136352539 382.8028564453125 15.171307563781738 375.46435546875 12.463949203491211 365.3345031738281 C 15.563435554504395 354.9306335449219 22.95863914489746 347.6556091308594 33.35041046142578 344.5440979003906 C 43.47005844116211 347.1434326171875 50.78130340576172 354.5564880371094 53.579383850097656 365.1475524902344" stroke-width="0.0" fill="rgb(203, 204, 209)" opacity="0.9908991"/>
    <path d="M 139.0509796142578 453.0718078613281 C 136.5449981689453 463.26458740234375 129.3151092529297 470.7061767578125 118.77650451660156 473.6180725097656 C 108.5691909790039 470.8131103515625 101.26123046875 463.4068298339844 98.3913345336914 452.7498474121094 C 101.23053741455078 442.633056640625 108.67454528808594 435.3595275878906 118.86021423339844 432.848388671875 C 129.0 435.67950439453125 136.3205108642578 443.0 139.0509796142578 453.0718078613281" stroke-width="0.0" fill="rgb(211, 211, 217)" opacity="0.9911786"/>
    <path d="M 411.5953063964844 472.2864685058594 C 408.8429260253906 482.486328125 401.4947509765625 489.8676452636719 391.2901306152344 492.65264892578125 C 380.4306640625 489.8270263671875 372.8727111816406 482.6893310546875 370.1011047363281 472.75396728515625 C 372.89080810546875 461.2310791015625 380.24945068359375 453.9483947753906 390.5887451171875 451.46826171875 C 401.3013000488281 454.37457275390625 408.7010192871094 461.6737060546875 411.5953063964844 472.2864685058594" stroke-width="0.0" fill="rgb(211, 213, 218)" opacity="0.99066764"/>
    <path d="M 488.73614501953125 437.0474548339844 C 485.875 447.4736328125 478.45025634765625 454.8142395019531 468.1461486816406 457.6750183105469 C 457.5451965332031 454.81781005859375 450.1841735839844 447.4527282714844 447.3478698730469 437.19439697265625 C 450.2135009765625 426.5637512207031 457.56134033203125 419.2035827636719 468.1432800292969 416.279541015625 C 478.4696960449219 419.14007568359375 485.8376159667969 426.53887939453125 488.73614501953125 437.0474548339844" stroke-width="0.0" fill="rgb(209, 210, 216)" opacity="0.9908495"/>
    <path d="M 610.0010986328125 236.9997100830078 C 607.33935546875 247.0432891845703 600.0936279296875 254.5010528564453 589.5487670898438 257.70367431640625 C 579.4389038085938 254.9435577392578 572.0836181640625 247.55067443847656 569.3060302734375 237.3430938720703 C 572.212890625 226.52842712402344 579.48193359375 219.0792999267578 589.6456298828125 216.28382873535156 C 600.111328125 219.45025634765625 607.3402099609375 226.95545959472656 610.0010986328125 236.9997100830078" stroke-width="0.0" fill="rgb(201, 202, 209)" opacity="0.99107236"/>
    <path d="M 580.7174682617188 88.36100769042969 C 577.9830932617188 98.62088012695312 570.611572265625 105.9554672241211 559.8152465820312 108.75206756591797 C 549.3966064453125 105.96757507324219 542.0491943359375 98.5977554321289 539.355224609375 88.27708435058594 C 542.1766357421875 77.51119995117188 549.5003662109375 70.14359283447266 560.2047119140625 67.34716796875 C 570.5432739257812 70.07495880126953 577.8489990234375 77.48353576660156 580.7174682617188 88.36100769042969" stroke-width="0.0" fill="rgb(192, 194, 199)" opacity="0.9908541"/>
    <path d="M 321.0052490234375 594.9910888671875 C 318.32049560546875 605.0 311.0 612.3204956054688 301.0004577636719 614.999755859375 C 291.0074462890625 612.317138671875 283.7237854003906 604.980712890625 280.5977478027344 594.643798828125 C 283.1649475097656 584.5233154296875 290.5263977050781 577.1741943359375 300.84716796875 574.45947265625 C 311.1373291015625 577.4437866210938 318.3651123046875 584.9229736328125 321.0052490234375 594.9910888671875" stroke-width="0.0" fill="rgb(200, 203, 208)" opacity="1.0"/>
    <path d="M 179.3360595703125 238.07635498046875 C 176.39410400390625 248.0547637939453 169.0408935546875 255.34854125976562 158.9285888671875 258.06268310546875 C 148.67784118652344 255.57180786132812 141.1454315185547 248.41578674316406 138.335205078125 238.26275634765625 C 141.2039794921875 227.58514404296875 148.6275634765625 220.33868408203125 159.10110473632812 217.6103057861328 C 169.32615661621094 220.32989501953125 176.65234375 227.67689514160156 179.3360595703125 238.07635498046875" stroke-width="0.0" fill="rgb(202, 203, 208)" opacity="1.0"/>
    <path d="M 511.37066650390625 586.110595703125 C 508.6953430175781 596.3157348632812 501.27606201171875 603.5673217773438 491.0891418457031 606.0816040039062 C 481.0 603.3204956054688 473.67950439453125 596.0 470.97247314453125 585.9805297851562 C 473.63800048828125 575.9703979492188 480.97821044921875 568.6640014648438 491.0164489746094 565.9824829101562 C 501.1121826171875 568.6006469726562 508.5600280761719 575.8377685546875 511.37066650390625 586.110595703125" stroke-width="0.0" fill="rgb(201, 204, 209)" opacity="0.99185896"/>
    <path d="M 247.85604858398438 550.5042724609375 C 244.8965606689453 561.3987426757812 237.24267578125 568.4645385742188 227.0289306640625 571.0160522460938 C 217.0 568.3204956054688 209.6794891357422 561.0 207.0 551.0 C 209.6794891357422 541.0 217.0 533.6795043945312 227.38302612304688 530.6158447265625 C 237.68267822265625 533.0191650390625 245.099609375 540.2770385742188 247.85604858398438 550.5042724609375" stroke-width="0.0" fill="rgb(205, 206, 211)" opacity="1.0"/>
    <path d="M 435.7635803222656 370.4195556640625 C 432.83172607421875 381.44793701171875 425.4241638183594 388.7596740722656 414.82562255859375 391.59027099609375 C 404.5557556152344 388.7804870605469 397.1022033691406 381.4874572753906 394.3035583496094 371.222412109375 C 397.0321044921875 360.3365173339844 404.3110046386719 352.9522705078125 415.67303466796875 350.1751708984375 C 425.7947692871094 352.8462829589844 433.1430358886719 360.2098388671875 435.7635803222656 370.4195556640625" stroke-width="0.0" fill="rgb(206, 207, 213)" opacity="1.0"/>
    <path d="M 457.6625061035156 197.31788635253906 C 454.8711242675781 207.48904418945312 447.4660339355469 214.80140686035156 437.2626647949219 217.31015014648438 C 427.0 214.3205108642578 419.67950439453125 207.0 416.9997253417969 196.99925231933594 C 419.6710510253906 186.97723388671875 426.9173889160156 179.4808807373047 437.3096008300781 176.28126525878906 C 447.4822692871094 179.11952209472656 454.76812744140625 186.55563354492188 457.6625061035156 197.31788635253906" stroke-width="0.0" fill="rgb(203, 204, 211)" opacity="0.99156785"/>
    <path d="M 360.968994140625 522.3273315429688 C 358.250244140625 533.9163208007812 350.918212890625 541.254638671875 340.8841857910156 543.9537963867188 C 330.82568359375 539.5466918945312 323.5744934082031 532.1390380859375 320.9599304199219 522.689208984375 C 323.5633544921875 513.8328247070312 330.735107421875 505.5887451171875 340.8236389160156 502.039794921875 C 350.9198303222656 504.7458801269531 358.2606201171875 512.0772705078125 360.968994140625 522.3273315429688" stroke-width="0.0" fill="rgb(6, 7, 10)" opacity="0.9900062"/>
    <path d="M 541.6248779296875 352.2239990234375 C 538.8888549804688 362.5130920410156 531.5042724609375 369.86651611328125 521.2288208007812 372.6403503417969 C 510.5608825683594 369.7857971191406 503.2401428222656 362.43115234375 500.6018371582031 351.9727478027344 C 503.255615234375 341.5772399902344 510.5412292480469 334.14697265625 520.6589965820312 331.3423156738281 C 531.4081420898438 334.2939453125 538.8005981445312 341.56292724609375 541.6248779296875 352.2239990234375" stroke-width="0.0" fill="rgb(208, 209, 215)" opacity="0.99083096"/>
    <path d="M 106.23123931884766 409.1468505859375 C 103.47040557861328 419.07781982421875 96.03714752197266 426.33795166015625 86.00244140625 429.0008544921875 C 76.0 426.32049560546875 68.67951965332031 419.0 66.00035858154297 409.0000305175781 C 68.67957305908203 399.0000305175781 76.0000228881836 391.67950439453125 85.99991607666016 389.0000305175781 C 95.99713134765625 391.6805419921875 103.28995513916016 399.0112609863281 106.23123931884766 409.1468505859375" stroke-width="0.0" fill="rgb(206, 207, 213)" opacity="0.9939082"/>
    <path d="M 167.05191040039062 33.06804656982422 C 164.54197692871094 43.28128433227539 157.3638153076172 50.79492950439453 147.32652282714844 53.564300537109375 C 136.98348999023438 50.365848541259766 129.677978515625 43.003990173339844 126.88334655761719 32.86773681640625 C 129.32931518554688 22.59844970703125 136.5215606689453 15.097908973693848 146.54257202148438 12.331496238708496 C 157.01669311523438 15.636921882629395 164.32237243652344 22.99498748779297 167.05191040039062 33.06804656982422" stroke-width="0.0" fill="rgb(189, 191, 196)" opacity="0.9929955"/>
    <path d="M 266.0 512.0 C 263.32049560546875 522.0 256.0 529.3204956054688 246.00210571289062 531.9910888671875 C 235.996826171875 529.3225708007812 228.6772918701172 522.0031127929688 226.88014221191406 512.7976684570312 C 229.5485382080078 502.8009948730469 236.68731689453125 494.9469299316406 245.42831420898438 491.1893615722656 C 255.99951171875 494.6812438964844 263.32049560546875 502.0000305175781 266.0 512.0" stroke-width="0.0" fill="rgb(2, 3, 3)" opacity="0.9900219"/>
    <path d="M 64.7236099243164 578.8075561523438 C 61.6408805847168 589.2040405273438 54.13471984863281 596.4251098632812 44.030452728271484 599.0255126953125 C 34.0 596.3204956054688 26.679489135742188 589.0 24.001432418823242 579.0016479492188 C 26.684139251708984 569.0029296875 34.00530242919922 561.6942138671875 44.373451232910156 558.6383666992188 C 54.505653381347656 561.1412353515625 61.893310546875 568.482421875 64.7236099243164 578.8075561523438" stroke-width="0.0" fill="rgb(218, 220, 223)" opacity="0.9919017"/>
    <path d="M 120.63400268554688 201.82786560058594 C 117.83202362060547 212.50421142578125 110.53070831298828 219.90892028808594 100.28221893310547 222.58924865722656 C 89.62420654296875 219.72227478027344 82.2669906616211 212.3791961669922 79.47393035888672 201.9178924560547 C 82.21866607666016 191.58633422851562 89.60452270507812 184.27566528320312 100.1802978515625 181.5521240234375 C 110.53034210205078 184.14796447753906 117.92102813720703 191.44667053222656 120.63400268554688 201.82786560058594" stroke-width="0.0" fill="rgb(201, 201, 206)" opacity="0.99079835"/>
    <path d="M 609.0374145507812 125.99236297607422 C 606.416748046875 136.14706420898438 599.247802734375 143.7162628173828 588.8707275390625 146.7375030517578 C 578.4998779296875 143.87158203125 571.1047973632812 136.5089111328125 568.2745971679688 126.2292251586914 C 571.121826171875 115.48279571533203 578.4932861328125 108.15338134765625 588.9144287109375 105.42221069335938 C 599.2373046875 108.3343505859375 606.4369506835938 115.83599090576172 609.0374145507812 125.99236297607422" stroke-width="0.0" fill="rgb(194, 194, 201)" opacity="0.99180853"/>
    <path d="M 116.70215606689453 70.29769897460938 C 113.89397430419922 80.51402282714844 106.5190200805664 87.90699768066406 95.89561462402344 90.7934341430664 C 85.46595001220703 87.92510986328125 78.12325286865234 80.5170669555664 75.41099548339844 70.14588165283203 C 78.14077758789062 59.462589263916016 85.44549560546875 52.08655548095703 95.76295471191406 49.36506652832031 C 106.3080062866211 52.307838439941406 113.71041107177734 59.685367584228516 116.70215606689453 70.29769897460938" stroke-width="0.0" fill="rgb(188, 190, 195)" opacity="0.9909876"/>
    <path d="M 211.5634307861328 471.2781982421875 C 208.76220703125 481.36712646484375 201.33177185058594 488.6527099609375 191.00914001464844 491.38604736328125 C 180.67721557617188 488.6645202636719 173.33721923828125 481.3215637207031 170.46722412109375 470.8794250488281 C 173.26815795898438 460.6169738769531 180.58619689941406 453.1827087402344 190.92347717285156 450.2981262207031 C 201.34942626953125 453.25042724609375 208.63592529296875 460.6874084472656 211.5634307861328 471.2781982421875" stroke-width="0.0" fill="rgb(215, 214, 222)" opacity="0.99084616"/>
    <path d="M 109.49674987792969 396.7874450683594 C 106.4432144165039 407.066162109375 99.03406524658203 414.3377685546875 89.00289154052734 417.0014343261719 C 79.0002212524414 414.32037353515625 71.68023681640625 406.9996032714844 68.93286895751953 396.92279052734375 C 71.45923614501953 386.74932861328125 78.6906509399414 379.2751770019531 88.75061798095703 376.43927001953125 C 99.28043365478516 379.3843688964844 106.6928482055664 386.6945495605469 109.49674987792969 396.7874450683594" stroke-width="0.0" fill="rgb(205, 206, 213)" opacity="0.9915455"/>
    <path d="M 182.52207946777344 258.1988220214844 C 179.63540649414062 268.3254089355469 172.39566040039062 275.8326721191406 162.14520263671875 278.686279296875 C 151.55838012695312 275.8260192871094 144.2575225830078 268.4133605957031 141.44630432128906 257.8672790527344 C 144.3584747314453 247.8230438232422 151.91650390625 240.64158630371094 161.96450805664062 238.11328125 C 172.1369171142578 240.64048767089844 179.55081176757812 247.8079833984375 182.52207946777344 258.1988220214844" stroke-width="0.0" fill="rgb(210, 211, 217)" opacity="1.0"/>
    <path d="M 233.99758911132812 561.002685546875 C 231.3205108642578 571.0 224.0 578.3204956054688 213.7486114501953 581.33349609375 C 203.60000610351562 578.7538452148438 196.24395751953125 571.4005737304688 193.45379638671875 561.02392578125 C 196.218505859375 550.5687255859375 203.57167053222656 543.2269897460938 213.74000549316406 540.6713256835938 C 223.98890686035156 543.6919555664062 231.31158447265625 551.010009765625 233.99758911132812 561.002685546875" stroke-width="0.0" fill="rgb(203, 203, 209)" opacity="0.9904332"/>
    <path d="M 28.0 317.0 C 25.32050895690918 327.0 18.0 334.32049560546875 8.001214027404785 336.9980773925781 C -1.9985250234603882 334.3181457519531 -9.319910049438477 326.9990539550781 -11.999918937683105 316.9998779296875 C -9.320508003234863 307.0 -2.0 299.67950439453125 8.0 297.0 C 18.0 299.67950439453125 25.32050895690918 307.0 28.0 317.0" stroke-width="0.0" fill="rgb(198, 199, 204)" opacity="1.0"/>
    <path d="M 133.638427734375 588.0371704101562 C 130.74172973632812 598.3108520507812 123.23287200927734 605.5010986328125 112.9902572631836 608.0899658203125 C 102.76007080078125 605.5174560546875 95.2842788696289 598.3028564453125 92.32814025878906 587.905029296875 C 95.2662582397461 577.6616821289062 102.67095184326172 570.28955078125 113.13931274414062 567.2897338867188 C 123.45726013183594 570.1631469726562 130.77987670898438 577.5618286132812 133.638427734375 588.0371704101562" stroke-width="0.0" fill="rgb(221, 219, 226)" opacity="0.99107057"/>
    <path d="M 485.236328125 41.2266731262207 C 482.7880554199219 51.481719970703125 475.5265197753906 58.92314529418945 465.28875732421875 61.73707962036133 C 454.51556396484375 58.846519470214844 447.12762451171875 51.492897033691406 444.2539978027344 41.18382263183594 C 447.34326171875 30.8262939453125 454.9291687011719 23.647174835205078 464.99554443359375 20.997966766357422 C 475.0 23.67949104309082 482.32049560546875 31.0 485.236328125 41.2266731262207" stroke-width="0.0" fill="rgb(194, 195, 200)" opacity="0.99208325"/>
    <path d="M 381.8131408691406 353.49542236328125 C 378.9118347167969 364.5096740722656 371.4584655761719 371.75787353515625 360.63421630859375 374.56402587890625 C 350.3160400390625 371.99346923828125 342.9041748046875 364.72052001953125 340.27532958984375 354.58642578125 C 343.2536315917969 343.5303039550781 350.4808654785156 336.0956726074219 361.7018127441406 333.1375732421875 C 371.82794189453125 335.82928466796875 379.1532897949219 343.17803955078125 381.8131408691406 353.49542236328125" stroke-width="0.0" fill="rgb(204, 206, 212)" opacity="1.0"/>
    <path d="M 453.9999084472656 198.00030517578125 C 451.3208312988281 207.99996948242188 443.99530029296875 215.303955078125 433.7045593261719 218.28555297851562 C 423.48223876953125 215.82806396484375 416.0553894042969 208.55691528320312 413.3111572265625 198.34703063964844 C 416.2153625488281 187.56179809570312 423.55914306640625 180.2072296142578 433.70123291015625 177.5836944580078 C 443.99969482421875 180.67990112304688 451.3202209472656 188.00025939941406 453.9999084472656 198.00030517578125" stroke-width="0.0" fill="rgb(204, 206, 212)" opacity="0.99147606"/>
    <path d="M 493.6659851074219 217.71304321289062 C 490.8015441894531 228.47247314453125 483.4948425292969 235.87103271484375 473.09906005859375 238.72531127929688 C 462.6586608886719 235.7602996826172 455.3590087890625 228.3005828857422 452.353515625 217.64202880859375 C 455.12054443359375 207.47398376464844 462.4655456542969 200.0996856689453 473.1043395996094 197.2951202392578 C 483.5130615234375 200.1211395263672 490.8905029296875 207.48260498046875 493.6659851074219 217.71304321289062" stroke-width="0.0" fill="rgb(202, 206, 211)" opacity="0.99103385"/>
    <path d="M 569.1409301757812 573.850830078125 C 566.3203735351562 583.9998168945312 558.999755859375 591.320068359375 548.7976684570312 594.2825927734375 C 538.7373657226562 591.6605834960938 531.510986328125 584.2089233398438 528.9573364257812 574.0516967773438 C 531.6778564453125 563.995361328125 538.9811401367188 556.628173828125 549.35009765625 553.4356689453125 C 559.45556640625 556.1461791992188 566.6871337890625 563.5980224609375 569.1409301757812 573.850830078125" stroke-width="0.0" fill="rgb(196, 199, 204)" opacity="1.0"/>
    <path d="M 151.0038299560547 436.9932556152344 C 148.3205108642578 447.0 141.0 454.32049560546875 131.0 457.0 C 121.0 454.32049560546875 113.67948913574219 447.0 110.65279388427734 436.7026062011719 C 113.16092681884766 426.5079040527344 120.48777770996094 419.1019592285156 130.69354248046875 416.2963562011719 C 141.1403350830078 419.41693115234375 148.3572235107422 426.93231201171875 151.0038299560547 436.9932556152344" stroke-width="0.0" fill="rgb(210, 209, 216)" opacity="0.9924094"/>
    <path d="M 189.66403198242188 377.86505126953125 C 186.7769012451172 388.417236328125 179.41844177246094 395.7821044921875 169.1320037841797 398.60284423828125 C 158.521240234375 395.82745361328125 151.2154541015625 388.4652099609375 148.61988830566406 377.98309326171875 C 151.22059631347656 367.55145263671875 158.54547119140625 360.2024230957031 168.93719482421875 357.6402587890625 C 179.4348602294922 360.24114990234375 186.84478759765625 367.53741455078125 189.66403198242188 377.86505126953125" stroke-width="0.0" fill="rgb(214, 215, 221)" opacity="0.99080044"/>
    <path d="M 466.600830078125 136.72666931152344 C 463.7428894042969 147.40118408203125 456.41729736328125 154.79104614257812 445.8143310546875 157.67767333984375 C 435.561767578125 154.83285522460938 428.1996765136719 147.4260711669922 425.3135681152344 137.04067993164062 C 428.1195983886719 126.45645141601562 435.4302673339844 119.04547119140625 445.7760009765625 116.25764465332031 C 456.563720703125 119.0715103149414 463.9147033691406 126.44129943847656 466.600830078125 136.72666931152344" stroke-width="0.0" fill="rgb(201, 199, 205)" opacity="0.99157447"/>
    <path d="M 410.5466003417969 122.73912811279297 C 407.4548034667969 133.0645294189453 400.0277404785156 140.3336944580078 389.8919677734375 143.09829711914062 C 379.66363525390625 140.61810302734375 372.2003479003906 133.3942108154297 369.26458740234375 122.87875366210938 C 372.1340637207031 112.50433349609375 379.5014343261719 105.12808227539062 390.06195068359375 102.32315826416016 C 400.5451354980469 105.0866928100586 407.87017822265625 112.4696044921875 410.5466003417969 122.73912811279297" stroke-width="0.0" fill="rgb(200, 201, 206)" opacity="0.9925046"/>
    <path d="M 596.5728149414062 578.8140869140625 C 593.7514038085938 589.3884887695312 586.3675537109375 596.6834106445312 576.1617431640625 599.1671752929688 C 566.0003051757812 596.3199462890625 558.6795043945312 588.9998779296875 555.9834594726562 578.9756469726562 C 558.5808715820312 568.8568725585938 565.7963256835938 561.388427734375 576.4168090820312 558.3820190429688 C 586.6004028320312 561.0315551757812 593.9141845703125 568.418212890625 596.5728149414062 578.8140869140625" stroke-width="0.0" fill="rgb(197, 200, 204)" opacity="1.0"/>
    <path d="M 590.7799682617188 447.34283447265625 C 587.7706909179688 458.4617004394531 580.4938354492188 465.8728332519531 570.2669677734375 468.630859375 C 559.5765991210938 465.7779235839844 552.2516479492188 458.4135437011719 549.5225219726562 447.835205078125 C 552.052734375 437.34808349609375 559.3032836914062 429.921142578125 570.6865844726562 427.0929870605469 C 580.8363037109375 429.8122253417969 588.1574096679688 437.1750793457031 590.7799682617188 447.34283447265625" stroke-width="0.0" fill="rgb(205, 207, 212)" opacity="1.0"/>
    <path d="M 362.71038818359375 69.5877685546875 C 359.7451477050781 80.406005859375 352.42327880859375 87.79664611816406 341.7869873046875 90.68941497802734 C 331.6821594238281 87.79450225830078 324.8413391113281 80.13044738769531 322.56964111328125 69.86953735351562 C 324.3977966308594 59.56456756591797 331.4759216308594 52.0771369934082 342.07684326171875 49.3106575012207 C 352.6165771484375 52.0271110534668 359.96905517578125 59.385581970214844 362.71038818359375 69.5877685546875" stroke-width="0.0" fill="rgb(198, 200, 205)" opacity="0.99025977"/>
    <path d="M 84.74903106689453 96.37434387207031 C 82.00163269042969 106.62371826171875 74.60050201416016 113.93643188476562 63.761470794677734 116.75321197509766 C 53.4251594543457 113.95325469970703 46.08055114746094 106.56280517578125 43.289669036865234 95.96892547607422 C 46.08745193481445 85.48844146728516 53.54447555541992 78.25666809082031 64.22113037109375 75.49960327148438 C 74.51836395263672 78.13304138183594 81.87947082519531 85.4773178100586 84.74903106689453 96.37434387207031" stroke-width="0.0" fill="rgb(184, 186, 193)" opacity="0.99288654"/>
    <path d="M 267.6769714355469 1.7077794075012207 C 265.0440368652344 11.780540466308594 257.7613220214844 18.996427536010742 247.43170166015625 22.593013763427734 C 237.4318084716797 19.952014923095703 230.11204528808594 12.545696258544922 227.505859375 2.363633632659912 C 230.67105102539062 -8.00275993347168 237.99952697753906 -15.320662498474121 247.99993896484375 -17.999984741210938 C 257.9975891113281 -15.31968879699707 265.29791259765625 -7.991384506225586 267.6769714355469 1.7077794075012207" stroke-width="0.0" fill="rgb(192, 194, 199)" opacity="0.9900952"/>
    <path d="M 173.05050659179688 85.93893432617188 C 170.33087158203125 96.02764892578125 163.096435546875 103.54573059082031 152.67330932617188 106.6991958618164 C 142.40684509277344 103.96477508544922 135.10659790039062 96.56906127929688 132.30221557617188 85.75627899169922 C 135.10154724121094 75.47679138183594 142.47694396972656 68.10475158691406 153.0332794189453 65.27531433105469 C 163.34213256835938 68.2128677368164 170.52157592773438 75.74594116210938 173.05050659179688 85.93893432617188" stroke-width="0.0" fill="rgb(191, 194, 197)" opacity="0.99306726"/>
    <path d="M 497.51708984375 31.428253173828125 C 494.95623779296875 41.59953689575195 487.5859375 48.91511154174805 477.359375 51.41780090332031 C 467.00006103515625 48.32038116455078 459.67950439453125 40.99998474121094 457.0 31.0 C 459.67950439453125 21.0 467.0 13.679491996765137 476.9993896484375 11.001680374145508 C 486.99969482421875 13.680030822753906 494.32012939453125 21.000267028808594 497.51708984375 31.428253173828125" stroke-width="0.0" fill="rgb(190, 190, 196)" opacity="0.99568564"/>
    <path d="M 532.6231079101562 143.46200561523438 C 529.9122924804688 153.50640869140625 522.4666137695312 160.8011016845703 512.2872314453125 163.38221740722656 C 502.0 160.3205108642578 494.67950439453125 153.0 491.99981689453125 142.99952697753906 C 494.6754150390625 132.99000549316406 501.970703125 125.60946655273438 511.9277648925781 122.83527374267578 C 522.0 125.67948913574219 529.3204956054688 133.0 532.6231079101562 143.46200561523438" stroke-width="0.0" fill="rgb(198, 199, 205)" opacity="0.99248147"/>
    <path d="M 49.65019989013672 75.4468002319336 C 46.870784759521484 85.47614288330078 39.46620559692383 92.84135437011719 29.313316345214844 95.49186706542969 C 18.71418571472168 92.55716705322266 11.272830963134766 85.33870697021484 8.701530456542969 75.23326873779297 C 11.679643630981445 65.0004653930664 19.0028076171875 57.68811798095703 29.273488998413086 54.602760314941406 C 39.23781967163086 57.32587814331055 46.42673873901367 64.84225463867188 49.65019989013672 75.4468002319336" stroke-width="0.0" fill="rgb(183, 184, 189)" opacity="0.9916661"/>
    <path d="M 510.3561706542969 118.0661849975586 C 507.4703063964844 128.07528686523438 500.0345458984375 135.33731079101562 489.6436462402344 138.4431915283203 C 479.465576171875 135.88690185546875 472.11419677734375 128.53411865234375 469.30072021484375 117.70374298095703 C 472.00567626953125 107.38849639892578 479.42510986328125 100.1117935180664 489.7171630859375 97.55436706542969 C 500.06365966796875 100.57146453857422 507.4049072265625 107.94398498535156 510.3561706542969 118.0661849975586" stroke-width="0.0" fill="rgb(198, 199, 205)" opacity="0.99117625"/>
    <path d="M 166.5968475341797 495.6645812988281 C 163.34339904785156 506.0107727050781 156.0047149658203 513.3225708007812 145.99826049804688 516.0010375976562 C 135.97341918945312 513.33349609375 128.5706024169922 506.0555114746094 125.63468933105469 495.89654541015625 C 128.3377227783203 485.7198791503906 135.76185607910156 478.4729919433594 145.94056701660156 475.9313049316406 C 156.1067352294922 478.6171875 163.6688232421875 485.7980041503906 166.5968475341797 495.6645812988281" stroke-width="0.0" fill="rgb(213, 216, 219)" opacity="0.99181086"/>
    <path d="M 558.64111328125 483.2953186035156 C 555.8656616210938 493.48883056640625 548.46533203125 500.7919616699219 538.2088012695312 503.3834228515625 C 527.9758911132812 500.3918762207031 520.6873779296875 493.0003662109375 517.6407470703125 482.6889953613281 C 520.1422729492188 472.48065185546875 527.4638061523438 465.0907287597656 537.6983642578125 462.34393310546875 C 548.38525390625 465.2396545410156 555.6940307617188 472.636962890625 558.64111328125 483.2953186035156" stroke-width="0.0" fill="rgb(210, 211, 217)" opacity="0.99118847"/>
    <path d="M 297.6009216308594 406.60986328125 C 294.732177734375 417.4087219238281 287.4233093261719 424.7785339355469 276.68389892578125 427.5583190917969 C 266.2937316894531 425.028076171875 258.8939208984375 417.73370361328125 256.114990234375 406.5529479980469 C 258.94781494140625 397.325439453125 267.77130126953125 390.5576477050781 277.8722839355469 387.9217529296875 C 287.7667541503906 388.86151123046875 295.0368347167969 396.26983642578125 297.6009216308594 406.60986328125" stroke-width="0.0" fill="rgb(215, 218, 224)" opacity="0.9900416"/>
    <path d="M 188.76182556152344 91.27816772460938 C 185.98573303222656 101.60266876220703 178.57699584960938 108.91445922851562 168.16368103027344 111.67076110839844 C 157.6513671875 108.77173614501953 150.46397399902344 101.27263641357422 147.9486083984375 91.06634521484375 C 150.67779541015625 80.9944076538086 157.98135375976562 73.63269805908203 168.48541259765625 70.33303833007812 C 178.5882110595703 73.04405975341797 185.94024658203125 80.41670989990234 188.76182556152344 91.27816772460938" stroke-width="0.0" fill="rgb(195, 195, 201)" opacity="0.9915591"/>
    <path d="M 247.96826171875 567.2819213867188 C 245.22332763671875 577.83447265625 237.7404022216797 584.9547119140625 227.40457153320312 587.0160522460938 C 217.65826416015625 583.7553100585938 210.51983642578125 576.2453002929688 207.9502716064453 567.3412475585938 C 210.5758514404297 557.87646484375 217.87646484375 550.5761108398438 227.8609619140625 547.9241333007812 C 237.84263610839844 548.8475952148438 245.22994995117188 556.128173828125 247.96826171875 567.2819213867188" stroke-width="0.0" fill="rgb(21, 20, 24)" opacity="0.9900107"/>
    <path d="M 356.8719482421875 478.8274841308594 C 354.2412414550781 488.91265869140625 346.9184875488281 496.25604248046875 336.8861999511719 498.9574279785156 C 326.8277587890625 494.521728515625 319.5552062988281 487.15020751953125 316.92413330078125 477.1500244140625 C 317.78515625 467.0955505371094 325.0798034667969 459.7396240234375 335.2076110839844 457.032958984375 C 346.6751403808594 459.8531799316406 353.60406494140625 467.54412841796875 356.8719482421875 478.8274841308594" stroke-width="0.0" fill="rgb(13, 13, 14)" opacity="0.99009466"/>
    <path d="M 454.0 0.9999998211860657 C 451.32049560546875 11.000000953674316 444.0 18.320510864257812 433.9997253417969 21.000104904174805 C 423.99224853515625 18.323410034179688 416.6031494140625 11.0291748046875 413.731689453125 1.1080188751220703 C 416.6790466308594 -9.000136375427246 424.0 -16.320512771606445 434.0 -19.0 C 444.0 -16.32050895690918 451.32049560546875 -9.0 454.0 0.9999998211860657" stroke-width="0.0" fill="rgb(191, 193, 195)" opacity="0.9985692"/>
    <path d="M 347.9613037109375 349.4316101074219 C 345.2440185546875 360.9104309082031 337.9090881347656 368.2400817871094 327.9142761230469 369.0740966796875 C 317.9126281738281 366.39520263671875 310.6129150390625 359.0838623046875 307.9730529785156 350.27508544921875 C 310.6124572753906 340.9186706542969 317.9209289550781 333.6174011230469 327.9442138671875 330.8778381347656 C 337.9161376953125 331.74859619140625 345.2488708496094 339.0849609375 347.9613037109375 349.4316101074219" stroke-width="0.0" fill="rgb(11, 11, 16)" opacity="0.99000347"/>
    <path d="M 485.99871826171875 31.000200271606445 C 483.3204040527344 41.000083923339844 476.0002136230469 48.320865631103516 466.0002136230469 50.99958038330078 C 455.99456787109375 48.32218551635742 448.63104248046875 41.01894760131836 445.9429931640625 31.08516502380371 C 448.68084716796875 20.999711990356445 455.9993591308594 13.67922592163086 465.99993896484375 11.000014305114746 C 475.9997863769531 13.679642677307129 483.3199157714844 21.000349044799805 485.99871826171875 31.000200271606445" stroke-width="0.0" fill="rgb(191, 193, 198)" opacity="0.9963508"/>
    <path d="M 248.54783630371094 588.9022827148438 C 245.55369567871094 599.1441040039062 238.08653259277344 606.3706665039062 227.9768829345703 609.0282592773438 C 217.82470703125 606.44580078125 210.3607177734375 599.236083984375 207.58055114746094 588.8595581054688 C 210.18589782714844 578.6665649414062 218.32040405273438 572.3837890625 227.3582763671875 569.94775390625 C 237.209228515625 572.5477294921875 244.9432830810547 579.6696166992188 248.54783630371094 588.9022827148438" stroke-width="0.0" fill="rgb(202, 204, 209)" opacity="0.9900171"/>
    <path d="M 536.58154296875 95.75394439697266 C 533.603271484375 106.1705322265625 526.09765625 113.37615966796875 515.8909912109375 116.23794555664062 C 505.9266357421875 113.45906829833984 498.6322326660156 106.04525756835938 495.35247802734375 95.51935577392578 C 498.04620361328125 85.40811920166016 505.41046142578125 78.0543441772461 515.8226928710938 75.34993743896484 C 526.5438232421875 78.11366271972656 533.8924560546875 85.4544448852539 536.58154296875 95.75394439697266" stroke-width="0.0" fill="rgb(194, 195, 201)" opacity="0.9916545"/>
    <path d="M 39.30228042602539 337.17010498046875 C 36.541297912597656 347.1249694824219 29.066822052001953 354.35650634765625 18.674760818481445 357.429443359375 C 8.54771900177002 354.83251953125 1.24655020236969 347.42547607421875 -1.3121111392974854 337.2458190917969 C 1.6865606307983398 327.0029602050781 9.00110912322998 319.6800231933594 19.00005531311035 317.00006103515625 C 28.999967575073242 319.6795654296875 36.320579528808594 327.0 39.30228042602539 337.17010498046875" stroke-width="0.0" fill="rgb(199, 199, 205)" opacity="0.9973404"/>
    <path d="M 279.0375671386719 504.47314453125 C 276.47137451171875 513.2364501953125 269.3364562988281 520.7559204101562 259.7689514160156 523.8258666992188 C 250.00010681152344 521.3204345703125 242.6800079345703 513.999755859375 239.45892333984375 503.4234619140625 C 241.85037231445312 493.1400146484375 249.10601806640625 485.75238037109375 259.3785400390625 483.0318298339844 C 270.71734619140625 485.7968444824219 276.4797668457031 494.5404052734375 279.0375671386719 504.47314453125" stroke-width="0.0" fill="rgb(2, 2, 2)" opacity="0.99001163"/>
    <path d="M 571.5812377929688 235.92373657226562 C 568.78759765625 246.4375762939453 561.4369506835938 253.7852020263672 550.7561645507812 256.6595458984375 C 540.5413818359375 253.845458984375 533.2207641601562 246.43641662597656 530.4149780273438 235.8050994873047 C 533.117431640625 225.49061584472656 540.5086059570312 218.16940307617188 550.8857421875 215.4839324951172 C 561.4013671875 218.26527404785156 568.8130493164062 225.5719757080078 571.5812377929688 235.92373657226562" stroke-width="0.0" fill="rgb(200, 201, 210)" opacity="0.9911807"/>
    <path d="M 29.339984893798828 60.75429153442383 C 26.320070266723633 70.99922180175781 18.99608039855957 78.30870056152344 8.566823959350586 81.62739562988281 C -1.2529985904693604 78.75543975830078 -8.381836891174316 71.12132263183594 -11.017010688781738 60.98869323730469 C -8.422118186950684 50.83048629760742 -1.2766532897949219 43.258460998535156 8.686837196350098 40.48497772216797 C 19.223987579345703 43.51601791381836 26.712459564208984 50.7033805847168 29.339984893798828 60.75429153442383" stroke-width="0.0" fill="rgb(178, 181, 184)" opacity="1.0"/>
    <path d="M 536.7774658203125 47.82503128051758 C 533.9371337890625 58.570838928222656 526.56005859375 65.9033203125 515.96435546875 68.63617706298828 C 505.46185302734375 65.8889389038086 498.1004943847656 58.54176712036133 495.2983703613281 47.88023376464844 C 498.05841064453125 37.43360137939453 505.44989013671875 30.10430908203125 516.1034545898438 27.358642578125 C 526.6373901367188 30.034950256347656 534.021484375 37.34320068359375 536.7774658203125 47.82503128051758" stroke-width="0.0" fill="rgb(191, 192, 197)" opacity="0.9909103"/>
    <path d="M 550.7335815429688 123.55680847167969 C 547.8661499023438 134.5439910888672 540.5604858398438 141.91786193847656 530.3902587890625 144.4801483154297 C 520.00048828125 141.3199462890625 512.6801147460938 133.99952697753906 509.7206115722656 123.83014678955078 C 512.43505859375 113.85305786132812 519.9154052734375 106.63219451904297 530.4772338867188 103.41809844970703 C 540.6469116210938 106.00367736816406 548.017822265625 113.34556579589844 550.7335815429688 123.55680847167969" stroke-width="0.0" fill="rgb(193, 197, 200)" opacity="0.99797153"/>
    <path d="M 33.670379638671875 136.1017608642578 C 30.921886444091797 146.56982421875 23.580137252807617 153.95245361328125 13.39492416381836 156.7361297607422 C 2.7302095890045166 153.6968231201172 -4.471678256988525 146.19729614257812 -7.095438480377197 135.96609497070312 C -4.5436553955078125 125.74169921875 2.706047534942627 118.33995056152344 12.90519905090332 115.7416763305664 C 23.335248947143555 118.40113067626953 30.825332641601562 125.59162902832031 33.670379638671875 136.1017608642578" stroke-width="0.0" fill="rgb(186, 184, 192)" opacity="0.9954913"/>
    <path d="M 331.9972839355469 599.0009765625 C 329.3204650878906 609.0 322.0 616.3204956054688 312.0 619.0 C 302.0 616.3204956054688 294.67950439453125 609.0 292.0001525878906 598.9999389648438 C 294.67913818359375 588.9993286132812 301.9984130859375 581.6758422851562 312.05975341796875 578.8760375976562 C 322.0112609863281 581.6468505859375 329.3196716308594 588.998291015625 331.9972839355469 599.0009765625" stroke-width="0.0" fill="rgb(199, 202, 207)" opacity="0.99667996"/>
    <path d="M 373.6069641113281 398.10943603515625 C 370.8546142578125 408.4824523925781 363.4775695800781 415.8404235839844 352.3172912597656 417.7043151855469 C 342.21044921875 416.1636047363281 334.97760009765625 408.740966796875 332.2411804199219 397.4867248535156 C 334.8744812011719 387.2299499511719 342.248291015625 379.9273986816406 352.7636413574219 377.2673034667969 C 363.5190734863281 380.0963134765625 370.8247985839844 387.5079040527344 373.6069641113281 398.10943603515625" stroke-width="0.0" fill="rgb(207, 208, 213)" opacity="1.0"/>
    <path d="M 276.04669189453125 521.3237915039062 C 273.4674377441406 531.3673706054688 267.6485595703125 540.1860961914062 256.2776184082031 542.9661865234375 C 246.10252380371094 540.246337890625 238.81263732910156 532.87548828125 236.2738800048828 522.6777954101562 C 239.530029296875 511.92462158203125 246.96701049804688 504.6685485839844 257.0391845703125 501.9623107910156 C 266.7405700683594 504.7127990722656 273.5716552734375 512.5437622070312 276.04669189453125 521.3237915039062" stroke-width="0.0" fill="rgb(9, 9, 10)" opacity="0.9900169"/>
    <path d="M 216.25003051757812 417.8663635253906 C 213.32774353027344 428.0021057128906 206.00015258789062 435.320556640625 195.84469604492188 438.20013427734375 C 185.73085021972656 435.625 178.3956298828125 428.26190185546875 175.8973388671875 418.1086120605469 C 178.4501953125 407.739501953125 185.71530151367188 400.3658752441406 195.9934844970703 397.6105651855469 C 206.31143188476562 400.3614807128906 213.6870880126953 407.67236328125 216.25003051757812 417.8663635253906" stroke-width="0.0" fill="rgb(214, 215, 221)" opacity="0.99108344"/>
    <path d="M 20.65027618408203 454.26251220703125 C 17.852481842041016 464.4726257324219 10.478323936462402 471.8667297363281 0.4229928255081177 474.5963439941406 C -10.0 471.32049560546875 -17.32050895690918 464.0 -20.0 454.0 C -17.32050895690918 444.0 -10.0 436.67950439453125 0.3723446726799011 433.5488586425781 C 10.531429290771484 436.09906005859375 17.827537536621094 443.49273681640625 20.65027618408203 454.26251220703125" stroke-width="0.0" fill="rgb(200, 202, 207)" opacity="0.9910469"/>
    <path d="M 337.9618835449219 402.7984924316406 C 335.2613525390625 412.9262390136719 327.9236755371094 420.2554626464844 317.9350280761719 422.35601806640625 C 307.9074401855469 418.398193359375 300.603759765625 411.091796875 297.9675598144531 401.2837219238281 C 300.5011901855469 392.3243408203125 306.2689514160156 383.81597900390625 316.0919494628906 382.9459533691406 C 326.27008056640625 385.5663757324219 335.1725158691406 391.4402160644531 337.9618835449219 402.7984924316406" stroke-width="0.0" fill="rgb(3, 4, 5)" opacity="0.990005"/>
    <path d="M 231.06153869628906 437.1266174316406 C 228.4322509765625 447.1610107421875 221.21412658691406 454.5948791503906 211.5768280029297 458.0061340332031 C 201.63124084472656 455.6713562011719 194.28164672851562 448.38262939453125 191.746337890625 438.1282958984375 C 194.6702423095703 427.997314453125 201.9998321533203 420.6794738769531 212.42996215820312 417.5858459472656 C 222.7611541748047 419.9585876464844 230.1522216796875 427.2039794921875 231.06153869628906 437.1266174316406" stroke-width="0.0" fill="rgb(210, 210, 217)" opacity="0.99002266"/>
    <path d="M 415.5810241699219 141.9175567626953 C 412.77130126953125 152.41085815429688 405.4281311035156 159.82264709472656 395.2391052246094 162.65855407714844 C 384.56219482421875 159.78500366210938 377.2259826660156 152.4343719482422 374.36419677734375 141.86074829101562 C 377.3545837402344 131.83212280273438 384.9305419921875 124.64754486083984 395.1127014160156 121.89750671386719 C 405.365966796875 124.36166381835938 412.8251647949219 131.57467651367188 415.5810241699219 141.9175567626953" stroke-width="0.0" fill="rgb(203, 204, 210)" opacity="0.99130464"/>
    <path d="M 185.6426239013672 522.9050903320312 C 182.70814514160156 533.3185424804688 175.27276611328125 540.5610961914062 165.08349609375 543.0758056640625 C 154.970947265625 540.3341674804688 147.5574188232422 533.0619506835938 144.8236541748047 523.0923461914062 C 147.67950439453125 513.0 155.00001525878906 505.6795349121094 165.33908081054688 502.474609375 C 175.38209533691406 505.2410888671875 182.77392578125 512.612060546875 185.6426239013672 522.9050903320312" stroke-width="0.0" fill="rgb(216, 214, 221)" opacity="0.9918547"/>
    <path d="M 32.972103118896484 312.0183410644531 C 30.320585250854492 322.0000915527344 23.0001220703125 329.3206787109375 13.000089645385742 332.00054931640625 C 3.0002171993255615 329.3203430175781 -4.320262908935547 321.999755859375 -6.999690055847168 312.0002136230469 C -4.319489479064941 302.0013122558594 3.0017435550689697 294.6820373535156 12.998312950134277 292.0075378417969 C 22.983497619628906 294.6908264160156 30.28422737121582 302.02398681640625 32.972103118896484 312.0183410644531" stroke-width="0.0" fill="rgb(198, 198, 203)" opacity="0.997805"/>
    <path d="M 530.1757202148438 492.1689453125 C 527.6857299804688 502.3683776855469 520.3831787109375 509.7335510253906 510.18255615234375 512.1670532226562 C 499.9437255859375 509.3992004394531 492.6524658203125 502.0404968261719 489.99566650390625 492.0063171386719 C 492.67950439453125 481.9999694824219 499.9991149902344 474.6763610839844 509.9386901855469 471.9379577636719 C 519.9642944335938 474.7388610839844 527.3026123046875 482.0236511230469 530.1757202148438 492.1689453125" stroke-width="0.0" fill="rgb(210, 211, 214)" opacity="0.99178916"/>
    <path d="M 140.63412475585938 348.3128662109375 C 137.88156127929688 358.51080322265625 130.49053955078125 365.8183288574219 120.06282806396484 368.4621887207031 C 109.74185180664062 365.6816101074219 102.55635833740234 358.18206787109375 99.9340591430664 347.96795654296875 C 102.49177551269531 337.7749938964844 109.73462677001953 330.36083984375 120.1469497680664 327.6640930175781 C 130.3972625732422 330.24224853515625 137.7131805419922 337.6170654296875 140.63412475585938 348.3128662109375" stroke-width="0.0" fill="rgb(211, 212, 218)" opacity="0.9909698"/>
    <path d="M 38.659454345703125 106.26007080078125 C 35.93271255493164 116.56818389892578 28.544788360595703 123.85933685302734 18.200641632080078 126.35807800292969 C 7.62237024307251 123.65779876708984 0.19610688090324402 116.42315673828125 -2.5125954151153564 106.02381134033203 C 0.18038484454154968 95.5184097290039 7.5131354331970215 88.16375732421875 17.709957122802734 85.61180114746094 C 28.16958236694336 88.55925750732422 35.68046188354492 95.75301361083984 38.659454345703125 106.26007080078125" stroke-width="0.0" fill="rgb(184, 185, 190)" opacity="0.9916035"/>
    <path d="M 163.66415405273438 438.71807861328125 C 160.7572784423828 449.409912109375 153.39207458496094 456.6986999511719 143.13461303710938 459.2184143066406 C 132.9794464111328 456.3660583496094 125.67597961425781 449.0082702636719 123.000732421875 439.00042724609375 C 125.67951965332031 428.9998779296875 133.00128173828125 421.6847229003906 143.1243133544922 418.9014892578125 C 153.39418029785156 421.3062438964844 160.8332061767578 428.56170654296875 163.66415405273438 438.71807861328125" stroke-width="0.0" fill="rgb(212, 212, 218)" opacity="0.99134064"/>
    <path d="M 481.2522277832031 16.77655029296875 C 478.3209533691406 27.00010871887207 470.9998474121094 34.320072174072266 460.958251953125 37.025489807128906 C 450.7666015625 34.484413146972656 443.260498046875 27.315122604370117 440.63177490234375 17.268943786621094 C 443.6795959472656 7.00004768371582 451.0000305175781 -0.3204745352268219 461.234375 -3.2567317485809326 C 471.4414978027344 -0.7782536745071411 478.7634582519531 6.563321590423584 481.2522277832031 16.77655029296875" stroke-width="0.0" fill="rgb(190, 193, 197)" opacity="0.9942894"/>
    <path d="M 253.07000732421875 351.8719787597656 C 251.3205108642578 361.0 244.0 368.32049560546875 234.36033630371094 370.6803894042969 C 224.73504638671875 367.643798828125 217.54335021972656 360.1996154785156 214.9518280029297 350.79730224609375 C 217.55409240722656 341.850341796875 224.85084533691406 334.5550842285156 234.8733673095703 330.2560119628906 C 243.21603393554688 333.5959167480469 250.4037628173828 341.8725280761719 253.07000732421875 351.8719787597656" stroke-width="0.0" fill="rgb(26, 27, 34)" opacity="0.9900068"/>
    <path d="M 573.7353515625 154.2790985107422 C 570.9513549804688 164.5577850341797 563.53369140625 171.88812255859375 552.9608154296875 174.72401428222656 C 542.4553833007812 171.92466735839844 535.1661376953125 164.5137481689453 532.3745727539062 153.79470825195312 C 535.1088256835938 143.49403381347656 542.5091552734375 136.15159606933594 553.112060546875 133.39051818847656 C 563.564208984375 136.0755615234375 570.8946533203125 143.44638061523438 573.7353515625 154.2790985107422" stroke-width="0.0" fill="rgb(195, 196, 202)" opacity="0.9927484"/>
    <path d="M 518.1924438476562 154.1783905029297 C 515.6994018554688 164.3655548095703 508.3583068847656 171.67578125 498.1424560546875 174.1705780029297 C 487.8942565917969 171.3949432373047 480.4513244628906 164.15341186523438 477.55853271484375 153.88214111328125 C 480.2364807128906 143.57437133789062 487.5776672363281 136.24794006347656 497.78741455078125 133.7697296142578 C 507.99993896484375 136.67958068847656 515.320556640625 144.0 518.1924438476562 154.1783905029297" stroke-width="0.0" fill="rgb(199, 200, 206)" opacity="0.9924942"/>
    <path d="M 195.6486358642578 175.84930419921875 C 192.79478454589844 186.44154357910156 185.43907165527344 193.7886505126953 174.9903564453125 196.61549377441406 C 164.7377471923828 193.67507934570312 157.50210571289062 186.2063446044922 154.94830322265625 176.0587158203125 C 157.6794891357422 166.0 165.0 158.6794891357422 175.01397705078125 155.99143981933594 C 185.11659240722656 158.61117553710938 192.69244384765625 165.78114318847656 195.6486358642578 175.84930419921875" stroke-width="0.0" fill="rgb(205, 206, 211)" opacity="0.99110687"/>
    <path d="M 558.9619140625 421.3030090332031 C 556.1470947265625 432.38739013671875 547.2861938476562 438.46319580078125 537.9421997070312 441.0453796386719 C 528.8573608398438 438.43572998046875 521.5491333007812 431.14874267578125 517.0906982421875 421.0843200683594 C 519.7503662109375 411.0873718261719 527.0877685546875 403.75115966796875 537.7899169921875 401.0352478027344 C 548.9064331054688 403.75604248046875 556.245849609375 411.09271240234375 558.9619140625 421.3030090332031" stroke-width="0.0" fill="rgb(24, 25, 32)" opacity="0.9900094"/>
    <path d="M 80.68092346191406 59.562198638916016 C 77.66714477539062 70.34552001953125 70.35516357421875 77.6983642578125 59.85013961791992 80.51139831542969 C 49.7231559753418 77.72020721435547 42.55339813232422 70.18734741210938 39.35580825805664 59.46895980834961 C 41.96372604370117 49.3284912109375 49.34929275512695 42.0243034362793 60.26924133300781 39.255680084228516 C 70.59529113769531 42.019527435302734 77.95172882080078 49.4159049987793 80.68092346191406 59.562198638916016" stroke-width="0.0" fill="rgb(184, 186, 191)" opacity="0.9916738"/>
    <path d="M 103.45381927490234 423.27923583984375 C 100.76768493652344 433.38818359375 93.3905029296875 440.77752685546875 83.17225646972656 443.5940856933594 C 72.53019714355469 440.8002014160156 65.16283416748047 433.4813537597656 62.43009948730469 423.1527404785156 C 65.50414276123047 412.9275817871094 72.9795150756836 405.6715087890625 82.99897003173828 402.9989929199219 C 93.0031509399414 405.6785583496094 100.34394836425781 412.9903564453125 103.45381927490234 423.27923583984375" stroke-width="0.0" fill="rgb(207, 207, 213)" opacity="0.9915187"/>
    <path d="M 136.63072204589844 111.14300537109375 C 133.9148712158203 121.53318786621094 126.51295471191406 128.8584747314453 116.1751480102539 131.57928466796875 C 105.54071807861328 128.77760314941406 98.13675689697266 121.48719787597656 95.352294921875 110.97023010253906 C 98.10717010498047 100.4559326171875 105.4532699584961 93.09942626953125 116.00684356689453 90.35187530517578 C 126.53549194335938 93.09563446044922 133.86517333984375 100.4781723022461 136.63072204589844 111.14300537109375" stroke-width="0.0" fill="rgb(190, 192, 196)" opacity="0.9936017"/>
    <path d="M 37.208736419677734 567.81494140625 C 34.320518493652344 578.0009765625 27.009431838989258 585.3507690429688 16.657970428466797 588.5646362304688 C 6.4954681396484375 585.8895874023438 -0.7593866586685181 578.4625854492188 -3.238175868988037 568.1622314453125 C -0.4922932982444763 557.7841186523438 6.6978230476379395 550.248779296875 17.03974723815918 547.2591552734375 C 27.411542892456055 550.1925659179688 34.70527267456055 557.621337890625 37.208736419677734 567.81494140625" stroke-width="0.0" fill="rgb(220, 217, 225)" opacity="0.9911821"/>
    <path d="M 33.363155364990234 186.66871643066406 C 30.320375442504883 196.99978637695312 22.99970054626465 204.32009887695312 12.674962043762207 207.39266967773438 C 2.5319738388061523 204.85049438476562 -4.690680027008057 197.41812133789062 -7.206013202667236 187.02696228027344 C -4.656732082366943 176.60394287109375 2.51468825340271 169.07957458496094 13.11522388458252 166.19032287597656 C 23.61909294128418 169.0015411376953 30.903776168823242 176.41282653808594 33.363155364990234 186.66871643066406" stroke-width="0.0" fill="rgb(188, 189, 194)" opacity="1.0"/>
    <path d="M 240.9287872314453 527.1686401367188 C 237.90225219726562 538.403564453125 230.2428741455078 545.45654296875 219.8363800048828 548.1494750976562 C 209.54251098632812 545.7400512695312 202.1139678955078 538.503662109375 199.3751983642578 528.1317749023438 C 202.2161102294922 517.594482421875 209.60682678222656 510.24700927734375 220.73397827148438 507.1429748535156 C 230.878173828125 509.79327392578125 238.23223876953125 517.1119384765625 240.9287872314453 527.1686401367188" stroke-width="0.0" fill="rgb(216, 217, 222)" opacity="1.0"/>
    <path d="M 261.028564453125 363.62213134765625 C 258.39056396484375 373.0930480957031 251.1154327392578 380.464111328125 241.20010375976562 384.9337463378906 C 232.63966369628906 381.95703125 225.5597686767578 373.1852722167969 222.92385864257812 363.1835021972656 C 225.1756591796875 354.40374755859375 232.34445190429688 346.9955139160156 241.40676879882812 344.6835632324219 C 251.15200805664062 347.50653076171875 258.4031982421875 354.88116455078125 261.028564453125 363.62213134765625" stroke-width="0.0" fill="rgb(15, 15, 21)" opacity="0.9900068"/>
    <path d="M 509.7265319824219 563.5467529296875 C 506.6669921875 574.21142578125 499.1136779785156 581.3665771484375 488.9552917480469 583.9387817382812 C 478.7542724609375 581.4949951171875 471.24603271484375 574.3283081054688 468.3565673828125 563.7702026367188 C 471.0665588378906 553.4183959960938 478.4234313964844 546.0820922851562 489.4721984863281 543.2213745117188 C 499.69879150390625 545.941162109375 507.04473876953125 553.3062744140625 509.7265319824219 563.5467529296875" stroke-width="0.0" fill="rgb(184, 184, 190)" opacity="1.0"/>
    <path d="M 180.99998474121094 164.99951171875 C 178.3199005126953 174.9994354248047 170.99942016601562 182.31983947753906 160.6750030517578 185.4151611328125 C 150.50851440429688 182.8455047607422 143.1611328125 175.48912048339844 140.38450622558594 164.8147430419922 C 143.0589141845703 154.42372131347656 150.4406280517578 147.10841369628906 160.65367126464844 144.58213806152344 C 171.0000762939453 147.679443359375 178.32083129882812 154.9998321533203 180.99998474121094 164.99951171875" stroke-width="0.0" fill="rgb(199, 200, 208)" opacity="0.9932691"/>
    <path d="M 553.0789794921875 567.924560546875 C 550.3106079101562 577.989501953125 542.98583984375 585.2974243164062 532.6397705078125 588.4716796875 C 522.4662475585938 585.8723754882812 515.068603515625 578.5537109375 512.1875 567.7789306640625 C 515.0240478515625 557.40478515625 522.414306640625 550.0511474609375 532.7855834960938 547.3043823242188 C 543.3441772460938 550.2117309570312 550.5272827148438 557.7432250976562 553.0789794921875 567.924560546875" stroke-width="0.0" fill="rgb(188, 190, 197)" opacity="1.0"/>
  </g>
</svg>
