<?xml version="1.0" ?>
<svg xmlns="http://www.w3.org/2000/svg" version="1.1" width="600" height="600">
  <defs/>
  <g>
    <path d="M 211.2199249267578 498.3251037597656 C 208.6704559326172 508.8983459472656 202.654052734375 517.1557006835938 192.80923461914062 519.9082641601562 C 181.98117065429688 516.3677978515625 174.68057250976562 509.0050048828125 172.723388671875 499.476806640625 C 175.11920166015625 489.2520751953125 182.11659240722656 481.7380065917969 192.0118865966797 479.003662109375 C 202.0634002685547 481.6541748046875 209.67442321777344 488.8231506347656 211.2199249267578 498.3251037597656" stroke-width="0.0" fill="rgb(158, 136, 83)" opacity="1.0"/>
    <path d="M 529.090087890625 100.10599517822266 C 526.6585693359375 110.42036437988281 519.5150756835938 117.94425964355469 508.74163818359375 120.8094711303711 C 498.35546875 118.01220703125 491.01446533203125 110.63570404052734 488.23529052734375 99.65156555175781 C 490.9263916015625 89.26870727539062 498.2597351074219 81.9022445678711 508.4092102050781 79.24047088623047 C 519.1437377929688 82.43196105957031 526.3638305664062 89.921142578125 529.090087890625 100.10599517822266" stroke-width="0.0" fill="rgb(173, 174, 178)" opacity="0.9915725"/>
    <path d="M 44.59727478027344 380.03277587890625 C 41.86735916137695 390.52154541015625 34.51504135131836 397.8472900390625 24.334491729736328 400.396728515625 C 14.003278732299805 397.30975341796875 6.679542541503906 389.9996643066406 3.98614501953125 379.9798278808594 C 6.59296178817749 369.8659362792969 13.773730278015137 362.3146057128906 24.134708404541016 359.273681640625 C 34.429405212402344 362.184326171875 41.7861213684082 369.5799865722656 44.59727478027344 380.03277587890625" stroke-width="0.0" fill="rgb(205, 205, 209)" opacity="0.9910461"/>
    <path d="M 515.79931640625 136.1173095703125 C 513.046630859375 146.67152404785156 505.6431579589844 153.9669952392578 495.0704040527344 156.69187927246094 C 484.4088439941406 153.92686462402344 477.010009765625 146.61395263671875 474.2607421875 136.0437469482422 C 477.0 125.3451156616211 484.3447265625 117.99857330322266 495.2476501464844 115.22592163085938 C 505.7002258300781 117.94510650634766 513.04541015625 125.30326843261719 515.79931640625 136.1173095703125" stroke-width="0.0" fill="rgb(178, 176, 182)" opacity="1.0"/>
    <path d="M 615.0015258789062 46.003578186035156 C 612.3505859375 56.070770263671875 605.1925048828125 63.698333740234375 594.6437377929688 66.79418182373047 C 584.3292846679688 64.03802490234375 576.9949340820312 56.658477783203125 574.229248046875 46.12567901611328 C 577.05029296875 35.42635726928711 584.45849609375 28.149768829345703 594.7273559570312 25.71916389465332 C 605.0 28.67949104309082 612.3204956054688 36.0 615.0015258789062 46.003578186035156" stroke-width="0.0" fill="rgb(154, 155, 160)" opacity="1.0"/>
    <path d="M 387.84466552734375 592.87646484375 C 385.17047119140625 602.7355346679688 377.5750732421875 609.7354736328125 367.03094482421875 612.1047973632812 C 356.4741516113281 609.6787109375 348.839599609375 602.7103881835938 346.079833984375 592.8195190429688 C 349.2461853027344 581.4883422851562 356.41619873046875 574.01806640625 366.49041748046875 571.462890625 C 376.4318542480469 575.1123046875 383.51226806640625 582.6990356445312 387.84466552734375 592.87646484375" stroke-width="0.0" fill="rgb(4, 5, 23)" opacity="0.99001867"/>
    <path d="M 430.3946228027344 554.7244262695312 C 427.32049560546875 565.0 420.0 572.3204956054688 410.0 575.0 C 400.0 572.3204956054688 392.67950439453125 565.0 389.8203125 554.8399658203125 C 392.3291015625 544.6461791992188 399.62493896484375 537.2612915039062 410.1009826660156 534.3953857421875 C 420.3412780761719 537.2805786132812 427.74267578125 544.648681640625 430.3946228027344 554.7244262695312" stroke-width="0.0" fill="rgb(218, 218, 221)" opacity="0.9916815"/>
    <path d="M 183.01345825195312 539.0211791992188 C 180.41073608398438 549.1356811523438 173.20602416992188 556.6314086914062 163.205322265625 559.4767456054688 C 152.79119873046875 556.58154296875 145.57229614257812 549.1621704101562 142.3641357421875 538.631103515625 C 145.17039489746094 528.5877685546875 152.66064453125 521.3961181640625 162.90341186523438 518.9195556640625 C 173.0 521.6795043945312 180.3205108642578 529.0 183.01345825195312 539.0211791992188" stroke-width="0.0" fill="rgb(224, 224, 226)" opacity="0.99135107"/>
    <path d="M 222.7965087890625 346.7134094238281 C 220.1433868408203 356.7564697265625 212.69696044921875 363.9731140136719 202.02334594726562 366.64111328125 C 191.53262329101562 363.8353576660156 184.18875122070312 356.4587097167969 181.3477020263672 346.23553466796875 C 184.32867431640625 335.7220458984375 191.77560424804688 328.5030517578125 202.1403350830078 325.5785827636719 C 212.36007690429688 328.3614196777344 219.91917419433594 335.535400390625 222.7965087890625 346.7134094238281" stroke-width="0.0" fill="rgb(227, 227, 229)" opacity="1.0"/>
    <path d="M 71.71105194091797 169.1068878173828 C 68.95604705810547 179.5940399169922 61.59385681152344 186.9573974609375 51.00870132446289 189.7989044189453 C 40.43053436279297 186.9519805908203 33.14078903198242 179.53880310058594 30.68460464477539 169.2913055419922 C 33.67949295043945 159.0 41.0 151.6794891357422 51.30131149291992 148.67416381835938 C 61.54837417602539 151.12942504882812 68.92615509033203 158.43392944335938 71.71105194091797 169.1068878173828" stroke-width="0.0" fill="rgb(189, 190, 193)" opacity="0.99109"/>
    <path d="M 74.09202575683594 55.111549377441406 C 71.6483383178711 65.40581512451172 64.52488708496094 72.9820327758789 54.09176254272461 75.85221862792969 C 43.3226318359375 73.04178619384766 35.94218826293945 65.68412780761719 33.16627883911133 55.45756912231445 C 36.312068939208984 44.824317932128906 43.94633865356445 37.65901565551758 53.99812316894531 34.999305725097656 C 64.0 37.67949295043945 71.32051086425781 45.0 74.09202575683594 55.111549377441406" stroke-width="0.0" fill="rgb(171, 172, 177)" opacity="0.9941586"/>
    <path d="M 22.875810623168945 80.70268249511719 C 20.05674171447754 91.6751937866211 12.651610374450684 98.9947738647461 2.4971916675567627 101.61266326904297 C -7.998697757720947 98.31640625 -15.320446014404297 90.99980926513672 -17.999998092651367 80.99999237060547 C -15.320521354675293 70.99995422363281 -8.000429153442383 63.678062438964844 2.535109043121338 60.3399658203125 C 12.700868606567383 62.96532440185547 20.10883140563965 70.27010345458984 22.875810623168945 80.70268249511719" stroke-width="0.0" fill="rgb(169, 169, 174)" opacity="1.0"/>
    <path d="M 105.55117797851562 439.3309631347656 C 102.84162902832031 449.4613037109375 95.41751861572266 456.69866943359375 85.13538360595703 459.07379150390625 C 75.0 456.32049560546875 67.67948913574219 449.0 64.69465637207031 438.81243896484375 C 67.37353515625 428.7059631347656 74.68742370605469 421.31903076171875 85.18550872802734 418.4775390625 C 95.30940246582031 421.2816467285156 102.54369354248047 428.7456970214844 105.55117797851562 439.3309631347656" stroke-width="0.0" fill="rgb(221, 221, 223)" opacity="0.9908534"/>
    <path d="M 470.3742980957031 553.302001953125 C 467.84637451171875 563.4856567382812 460.4649658203125 570.7827758789062 449.8399353027344 573.5730590820312 C 439.6561584472656 570.7553100585938 432.4412536621094 563.2819213867188 429.4578857421875 552.75830078125 C 432.4076232910156 542.8623046875 439.94140625 535.6506958007812 450.0010681152344 532.9930419921875 C 460.025146484375 535.6591796875 467.35797119140625 542.9696655273438 470.3742980957031 553.302001953125" stroke-width="0.0" fill="rgb(213, 214, 217)" opacity="0.99156255"/>
    <path d="M 89.73465728759766 93.44123840332031 C 86.94302368164062 103.5527572631836 79.53202056884766 110.88468170166016 68.59584045410156 113.77734375 C 58.38475799560547 111.00012969970703 51.029808044433594 103.60336303710938 48.19736862182617 92.9699935913086 C 50.97758865356445 82.33091735839844 58.33393859863281 74.98564147949219 68.4895248413086 72.37236022949219 C 79.07073211669922 75.64037322998047 86.56097412109375 82.86543273925781 89.73465728759766 93.44123840332031" stroke-width="0.0" fill="rgb(177, 178, 180)" opacity="0.9948155"/>
    <path d="M 286.3372802734375 548.91064453125 C 283.6162414550781 559.3065795898438 276.3206481933594 566.6686401367188 265.9829406738281 569.59228515625 C 255.64706420898438 566.714111328125 248.2910919189453 559.3524780273438 245.8330078125 549.1817016601562 C 248.6794891357422 539.0 256.0 531.6795043945312 266.00347900390625 528.9981079101562 C 276.0373229980469 531.6597900390625 283.4721984863281 538.9223022460938 286.3372802734375 548.91064453125" stroke-width="0.0" fill="rgb(229, 230, 232)" opacity="0.99092484"/>
    <path d="M 147.59060668945312 134.79991149902344 C 144.7869415283203 145.420166015625 137.4307098388672 152.82199096679688 126.82967376708984 155.76950073242188 C 116.5411376953125 152.8978271484375 109.39361572265625 145.36154174804688 106.77019500732422 134.89218139648438 C 109.27455139160156 124.5771713256836 116.54033660888672 117.15849304199219 127.16155242919922 114.27064514160156 C 137.44190979003906 117.16487121582031 144.84439086914062 124.55253601074219 147.59060668945312 134.79991149902344" stroke-width="0.0" fill="rgb(189, 187, 192)" opacity="0.99209344"/>
    <path d="M 194.50059509277344 412.53131103515625 C 191.1752471923828 422.93231201171875 183.97259521484375 430.3074035644531 173.99798583984375 432.99896240234375 C 164.00006103515625 430.3204650878906 156.68174743652344 422.99932861328125 153.79656982421875 412.7703857421875 C 156.23052978515625 402.5777587890625 163.59378051757812 395.2835388183594 174.19161987304688 392.5198059082031 C 184.4247283935547 395.2474670410156 191.853271484375 402.5410461425781 194.50059509277344 412.53131103515625" stroke-width="0.0" fill="rgb(231, 231, 234)" opacity="0.9909417"/>
    <path d="M 412.35931396484375 309.73626708984375 C 409.32049560546875 320.0 402.0 327.32049560546875 391.8839111328125 330.13861083984375 C 381.7947998046875 327.5668029785156 374.64178466796875 320.1486511230469 371.7114562988281 309.7832336425781 C 374.478271484375 299.8138122558594 381.8296813964844 292.531982421875 392.2344055175781 289.43743896484375 C 402.425537109375 292.2154235839844 409.7640075683594 299.5819396972656 412.35931396484375 309.73626708984375" stroke-width="0.0" fill="rgb(215, 215, 219)" opacity="0.99013716"/>
    <path d="M 454.689208984375 186.12496948242188 C 451.9329833984375 196.57318115234375 444.5826110839844 203.959228515625 433.36474609375 206.88645935058594 C 423.3111267089844 204.12767028808594 416.4285583496094 196.52182006835938 413.19158935546875 185.33712768554688 C 415.9660949707031 175.3745880126953 423.4039306640625 168.0370635986328 433.72747802734375 165.26942443847656 C 444.5469665527344 168.09780883789062 451.90020751953125 175.45382690429688 454.689208984375 186.12496948242188" stroke-width="0.0" fill="rgb(190, 189, 197)" opacity="1.0"/>
    <path d="M 558.3309326171875 329.1965637207031 C 555.5924682617188 339.1626892089844 548.0922241210938 346.3722229003906 538.0071411132812 349.0066223144531 C 527.9486083984375 346.34259033203125 520.3865356445312 339.14129638671875 517.3421020507812 329.0755920410156 C 520.2088012695312 318.5561828613281 527.5220947265625 311.1128845214844 537.6032104492188 308.275146484375 C 548.1143798828125 311.45770263671875 555.3456420898438 318.9479064941406 558.3309326171875 329.1965637207031" stroke-width="0.0" fill="rgb(194, 195, 199)" opacity="0.9937425"/>
    <path d="M 549.7180786132812 97.32901763916016 C 547.0360107421875 107.67931365966797 539.6715087890625 115.01473999023438 528.78271484375 117.8227310180664 C 518.5901489257812 114.92266082763672 511.5511169433594 107.23270416259766 508.96136474609375 96.98220825195312 C 511.5216979980469 86.76856994628906 518.6566162109375 79.19174194335938 529.3169555664062 76.22716522216797 C 539.6004028320312 79.00725555419922 546.9052124023438 86.43183135986328 549.7180786132812 97.32901763916016" stroke-width="0.0" fill="rgb(167, 169, 173)" opacity="1.0"/>
    <path d="M 183.0001678466797 1.0004479885101318 C 180.3253173828125 11.012784957885742 173.045166015625 18.433683395385742 162.53530883789062 21.71196174621582 C 152.395751953125 18.96413230895996 144.99227905273438 11.62110424041748 142.26028442382812 1.5817501544952393 C 145.6803741455078 -8.999741554260254 153.00001525878906 -16.32050323486328 163.0 -19.0 C 173.0 -16.32050895690918 180.3205108642578 -9.0 183.0001678466797 1.0004479885101318" stroke-width="0.0" fill="rgb(167, 169, 175)" opacity="0.99690396"/>
    <path d="M 420.0 30.0 C 417.32049560546875 40.0 410.0 47.32050704956055 399.4689636230469 50.63805389404297 C 389.3565368652344 48.02446365356445 382.104736328125 40.600494384765625 379.6889343261719 30.303743362426758 C 382.67950439453125 20.0 390.0 12.679491996765137 400.0 10.0 C 410.0 12.679491996765137 417.32049560546875 20.0 420.0 30.0" stroke-width="0.0" fill="rgb(170, 171, 176)" opacity="0.99505067"/>
    <path d="M 225.56411743164062 301.5230407714844 C 222.3205108642578 312.0 215.0 319.32049560546875 205.0201416015625 321.9251403808594 C 194.98873901367188 319.3281555175781 187.6732940673828 312.01031494140625 184.9993896484375 302.00140380859375 C 187.6814422607422 292.00537109375 195.02243041992188 284.74066162109375 205.33880615234375 281.82763671875 C 215.55426025390625 284.15911865234375 222.9907989501953 291.39593505859375 225.56411743164062 301.5230407714844" stroke-width="0.0" fill="rgb(223, 223, 225)" opacity="1.0"/>
    <path d="M 106.0 65.0 C 103.32051849365234 75.0000228881836 96.00019836425781 82.32118225097656 85.98966217041016 85.02681732177734 C 75.8899154663086 82.37921905517578 68.34278106689453 75.20162963867188 65.5757064819336 65.26335144042969 C 68.67935180664062 54.99993133544922 75.99996948242188 47.67947769165039 86.0 45.0 C 96.0 47.67949295043945 103.32051086425781 55.0 106.0 65.0" stroke-width="0.0" fill="rgb(173, 174, 178)" opacity="0.9938193"/>
    <path d="M 508.6678161621094 469.6400146484375 C 505.7232971191406 480.4041748046875 498.4330139160156 487.81097412109375 488.060302734375 490.5604553222656 C 477.5122985839844 487.8068542480469 470.07977294921875 480.5263671875 467.278564453125 470.3160400390625 C 470.2434997558594 459.5990295410156 477.5910949707031 452.2236328125 487.8328857421875 449.56121826171875 C 498.2793273925781 452.3837585449219 505.8048095703125 459.6521911621094 508.6678161621094 469.6400146484375" stroke-width="0.0" fill="rgb(209, 212, 215)" opacity="0.9909226"/>
    <path d="M 466.27142333984375 228.7377471923828 C 463.32049560546875 239.00001525878906 456.00067138671875 246.3229522705078 446.0174560546875 249.4417266845703 C 436.2417907714844 245.96905517578125 428.5955810546875 238.8863067626953 425.3772277832031 228.7511444091797 C 428.08551025390625 218.38795471191406 435.359130859375 210.99571228027344 445.8359680175781 208.2996063232422 C 456.56231689453125 211.06590270996094 463.8375244140625 218.4687042236328 466.27142333984375 228.7377471923828" stroke-width="0.0" fill="rgb(196, 195, 199)" opacity="1.0"/>
    <path d="M 220.7158660888672 35.82036590576172 C 217.85877990722656 46.44217300415039 210.38442993164062 53.6955680847168 199.9788818359375 56.66340637207031 C 189.8991241455078 53.55353927612305 182.6683349609375 46.029510498046875 179.66275024414062 35.811737060546875 C 182.4476776123047 25.876331329345703 189.94020080566406 18.648162841796875 200.584716796875 15.268166542053223 C 210.6457061767578 17.968048095703125 217.962158203125 25.380937576293945 220.7158660888672 35.82036590576172" stroke-width="0.0" fill="rgb(177, 178, 185)" opacity="0.9915999"/>
    <path d="M 44.56917953491211 485.20001220703125 C 41.832000732421875 495.4503479003906 34.413902282714844 502.7188415527344 23.56096839904785 505.6690673828125 C 13.394137382507324 502.9737854003906 6.032276630401611 495.6033020019531 3.281148672103882 485.4051208496094 C 6.282309532165527 474.707763671875 13.786445617675781 467.5275573730469 24.118818283081055 464.8196105957031 C 34.32728576660156 467.3456726074219 41.67660140991211 474.66619873046875 44.56917953491211 485.20001220703125" stroke-width="0.0" fill="rgb(207, 205, 210)" opacity="0.9912295"/>
    <path d="M 185.99375915527344 427.9904479980469 C 183.2837677001953 437.9493713378906 175.932861328125 445.2291259765625 165.77561950683594 448.1972961425781 C 155.5194091796875 445.8027648925781 148.16879272460938 438.48919677734375 145.50437927246094 428.19293212890625 C 148.32386779785156 417.71539306640625 155.76876831054688 410.4952392578125 165.94454956054688 407.9573059082031 C 176.00021362304688 410.6793518066406 183.32098388671875 417.9996643066406 185.99375915527344 427.9904479980469" stroke-width="0.0" fill="rgb(228, 228, 230)" opacity="0.99142194"/>
    <path d="M 90.99993896484375 38.99991989135742 C 88.3201675415039 48.999446868896484 80.99899291992188 56.31857681274414 70.99879455566406 58.993797302246094 C 61.00006103515625 56.3203125 53.67949676513672 48.99999237060547 51.0 39.0 C 53.67949295043945 29.0 61.0 21.67949104309082 71.0 19.0 C 81.0 21.67949104309082 88.32051086425781 29.0 90.99993896484375 38.99991989135742" stroke-width="0.0" fill="rgb(168, 170, 175)" opacity="0.997602"/>
    <path d="M 215.0041046142578 300.99725341796875 C 212.31993103027344 310.9984130859375 204.9945831298828 318.30645751953125 194.75555419921875 321.3289489746094 C 184.49624633789062 318.8321838378906 177.115966796875 311.52008056640625 174.32444763183594 301.2159118652344 C 177.2748260498047 290.6282653808594 184.62777709960938 283.2764587402344 194.8245391845703 280.6421813964844 C 205.03538513183594 283.6158447265625 212.33087158203125 290.9805908203125 215.0041046142578 300.99725341796875" stroke-width="0.0" fill="rgb(226, 227, 230)" opacity="0.99095327"/>
    <path d="M 185.18821716308594 517.5736694335938 C 183.3205108642578 527.0 176.0 534.3204956054688 166.0003662109375 536.9992065429688 C 155.98020935058594 534.3257446289062 148.50840759277344 527.0712280273438 145.55531311035156 517.1915283203125 C 148.4440155029297 506.7470703125 155.7130126953125 499.3331604003906 166.43511962890625 496.2704162597656 C 176.62342834472656 498.9859924316406 183.1979522705078 506.5086975097656 185.18821716308594 517.5736694335938" stroke-width="0.0" fill="rgb(224, 224, 227)" opacity="0.9904928"/>
    <path d="M 168.53955078125 42.52299880981445 C 165.3205108642578 53.00001525878906 158.00022888183594 60.32127380371094 147.9440460205078 63.15452194213867 C 137.980224609375 60.37419509887695 130.67788696289062 53.004791259765625 127.97289276123047 42.96437454223633 C 130.54226684570312 32.801414489746094 137.69635009765625 25.23158836364746 148.482177734375 22.191621780395508 C 158.68875122070312 24.94910430908203 166.01901245117188 32.321868896484375 168.53955078125 42.52299880981445" stroke-width="0.0" fill="rgb(172, 173, 178)" opacity="1.0"/>
    <path d="M 141.63389587402344 1.4935998916625977 C 138.9734649658203 11.600107192993164 131.5712127685547 18.884239196777344 121.3028564453125 21.31247901916504 C 110.99999237060547 18.320510864257812 103.67887115478516 11.000176429748535 100.9840316772461 1.005768895149231 C 103.67960357666016 -8.999966621398926 111.0 -16.32050895690918 121.0 -19.0 C 131.00001525878906 -16.320510864257812 138.3208770751953 -9.000107765197754 141.63389587402344 1.4935998916625977" stroke-width="0.0" fill="rgb(164, 166, 173)" opacity="0.99266225"/>
    <path d="M 131.67552185058594 17.55265235900879 C 129.02635192871094 27.6332950592041 121.57413482666016 34.84654998779297 111.24392700195312 37.2244987487793 C 101.0 34.32050704956055 93.67948913574219 27.0 90.26873779296875 16.393577575683594 C 92.93665313720703 6.318085193634033 100.35829162597656 -0.9454029202461243 110.64559173583984 -3.363276481628418 C 120.99966430664062 -0.31978851556777954 128.32102966308594 6.999974727630615 131.67552185058594 17.55265235900879" stroke-width="0.0" fill="rgb(164, 166, 172)" opacity="1.0"/>
    <path d="M 555.5401611328125 500.9110107421875 C 552.8194580078125 511.4857482910156 545.5011596679688 518.8667602539062 535.1427612304688 521.6524047851562 C 524.6304321289062 518.7477416992188 517.3136596679688 511.3504943847656 514.3801879882812 500.73663330078125 C 517.2188720703125 490.5806579589844 524.5781860351562 483.2159423828125 535.0931396484375 480.4195556640625 C 545.4651489257812 483.1788330078125 552.8338623046875 490.5302734375 555.5401611328125 500.9110107421875" stroke-width="0.0" fill="rgb(205, 206, 209)" opacity="0.9908455"/>
    <path d="M 132.00347900390625 46.005558013916016 C 129.34864807128906 56.047393798828125 122.07703399658203 63.44597625732422 112.07428741455078 66.12123107910156 C 102.0000228881836 63.320491790771484 94.67952728271484 55.999969482421875 92.0000228881836 45.99998092651367 C 94.67948913574219 36.000003814697266 102.0000228881836 28.679553985595703 112.00008392333984 26.00212860107422 C 122.00068664550781 28.678871154785156 129.32107543945312 35.999332427978516 132.00347900390625 46.005558013916016" stroke-width="0.0" fill="rgb(169, 171, 176)" opacity="0.9989931"/>
    <path d="M 528.28466796875 569.2764282226562 C 525.838134765625 579.5164794921875 518.5473022460938 586.9298095703125 508.41619873046875 589.6419067382812 C 497.6709289550781 586.633544921875 490.27471923828125 579.3574829101562 487.666259765625 569.2364501953125 C 490.6792907714844 558.9999389648438 498.0 551.6795043945312 508.0 549.0 C 518.0 551.6795043945312 525.3198852539062 559.0001831054688 528.28466796875 569.2764282226562" stroke-width="0.0" fill="rgb(207, 207, 210)" opacity="0.991189"/>
    <path d="M 539.7290649414062 272.33209228515625 C 536.9381713867188 282.565185546875 529.5661010742188 289.9382019042969 518.8773193359375 292.7587890625 C 508.4575500488281 289.9259948730469 501.1384582519531 282.5200500488281 498.3406677246094 271.90704345703125 C 501.128662109375 261.5059814453125 508.5181579589844 254.16270446777344 519.172119140625 251.3450927734375 C 529.5521240234375 254.07171630859375 536.85595703125 261.472900390625 539.7290649414062 272.33209228515625" stroke-width="0.0" fill="rgb(187, 188, 192)" opacity="1.0"/>
    <path d="M 613.0 12.999994277954102 C 610.3204345703125 22.999929428100586 602.9998168945312 30.320178985595703 592.6085205078125 33.39634323120117 C 582.3203735351562 30.983652114868164 574.906494140625 23.71709632873535 572.1345825195312 13.38119125366211 C 574.9732666015625 2.386258840560913 582.4703979492188 -4.773326396942139 592.8233032226562 -7.144571781158447 C 603.0 -4.320508003234863 610.3204956054688 3.0 613.0 12.999994277954102" stroke-width="0.0" fill="rgb(150, 152, 158)" opacity="0.994303"/>
    <path d="M 197.74862670898438 52.69029235839844 C 195.16531372070312 62.82491683959961 187.81529235839844 70.13671875 177.61521911621094 72.65176391601562 C 167.0 69.32051086425781 159.6794891357422 62.0 156.9753875732422 51.960872650146484 C 159.5064239501953 41.72712326049805 166.576416015625 34.08676528930664 176.51797485351562 31.268144607543945 C 187.0410919189453 34.57445526123047 194.32467651367188 41.98889923095703 197.74862670898438 52.69029235839844" stroke-width="0.0" fill="rgb(176, 176, 181)" opacity="1.0"/>
    <path d="M 255.5269775390625 570.1492919921875 C 252.63409423828125 580.2553100585938 245.2328338623047 587.5565795898438 234.59568786621094 590.6417846679688 C 224.49667358398438 587.890625 217.16014099121094 580.4827270507812 214.3219451904297 569.7614135742188 C 216.91236877441406 559.2872314453125 224.32041931152344 552.005859375 234.81785583496094 549.2940063476562 C 245.4168243408203 552.197998046875 252.66842651367188 559.624267578125 255.5269775390625 570.1492919921875" stroke-width="0.0" fill="rgb(223, 223, 224)" opacity="1.0"/>
    <path d="M 440.6264953613281 366.6275329589844 C 437.5970458984375 377.22076416015625 430.1818542480469 384.4707336425781 420.0403137207031 387.0432434082031 C 409.94195556640625 384.35504150390625 402.5356140136719 377.0915832519531 399.4638671875 366.7270812988281 C 402.2375183105469 356.6170349121094 409.63641357421875 349.2987060546875 420.1787414550781 346.46881103515625 C 430.480712890625 349.16668701171875 437.8697204589844 356.50732421875 440.6264953613281 366.6275329589844" stroke-width="0.0" fill="rgb(214, 215, 218)" opacity="0.9910149"/>
    <path d="M 599.7866821289062 168.238525390625 C 597.0352783203125 178.6544647216797 589.62646484375 185.959716796875 579.3516235351562 188.65432739257812 C 568.7225341796875 185.61990356445312 561.2001342773438 178.34530639648438 558.2649536132812 167.7946014404297 C 561.0404663085938 157.41326904296875 568.4263916015625 150.07696533203125 579.4730224609375 147.20994567871094 C 589.6956176757812 149.9285125732422 597.0100708007812 157.3274688720703 599.7866821289062 168.238525390625" stroke-width="0.0" fill="rgb(174, 175, 179)" opacity="0.9938444"/>
    <path d="M 433.769775390625 41.035987854003906 C 430.9676208496094 51.60186767578125 423.5960388183594 58.95039749145508 412.66278076171875 61.783653259277344 C 402.39044189453125 58.996456146240234 395.11602783203125 51.57151794433594 392.6695556640625 41.30866622924805 C 395.6806335449219 31.001041412353516 403.0011901855469 23.68108558654785 413.0569763183594 20.965351104736328 C 423.3228759765625 23.45667266845703 430.9072570800781 30.553056716918945 433.769775390625 41.035987854003906" stroke-width="0.0" fill="rgb(168, 170, 175)" opacity="1.0"/>
    <path d="M 468.58544921875 534.047607421875 C 465.6402282714844 544.1825561523438 458.09442138671875 551.372314453125 447.9873352050781 554.0201416015625 C 437.87158203125 551.40966796875 430.4261169433594 544.1795043945312 427.4756774902344 533.9237670898438 C 430.31396484375 523.6592407226562 437.652099609375 516.2931518554688 448.07135009765625 513.4954223632812 C 458.43994140625 516.2196655273438 465.78094482421875 523.5597534179688 468.58544921875 534.047607421875" stroke-width="0.0" fill="rgb(215, 215, 218)" opacity="0.9909567"/>
    <path d="M 286.4463195800781 484.441162109375 C 285.0268859863281 495.705078125 277.7178039550781 503.0655212402344 267.50885009765625 505.6103820800781 C 256.5809326171875 502.6521911621094 249.14865112304688 495.47613525390625 246.35076904296875 485.19384765625 C 249.29612731933594 474.6367492675781 256.6329345703125 467.2860412597656 267.0262756347656 464.639404296875 C 277.5337829589844 467.1941223144531 285.02520751953125 474.39031982421875 286.4463195800781 484.441162109375" stroke-width="0.0" fill="rgb(237, 236, 240)" opacity="1.0"/>
    <path d="M 282.1773376464844 539.8112182617188 C 279.32080078125 550.0001220703125 272.00006103515625 557.3204956054688 261.9850769042969 560.009521484375 C 251.90554809570312 557.3839721679688 244.4895782470703 550.1333618164062 241.5422821044922 539.8704833984375 C 244.37881469726562 529.7265014648438 251.73655700683594 522.4132080078125 262.208251953125 519.6325073242188 C 272.4325256347656 522.2129516601562 279.7435302734375 529.5807495117188 282.1773376464844 539.8112182617188" stroke-width="0.0" fill="rgb(230, 230, 232)" opacity="0.990828"/>
    <path d="M 244.0331268310547 396.5946960449219 C 241.44674682617188 406.33648681640625 235.68077087402344 415.19818115234375 225.78338623046875 417.9576721191406 C 215.76820373535156 413.905029296875 208.57167053222656 406.154296875 205.9604034423828 396.57305908203125 C 208.53968811035156 387.7626647949219 215.47145080566406 379.0287780761719 225.76475524902344 376.0466613769531 C 235.74923706054688 378.79473876953125 241.4841766357422 387.4227600097656 244.0331268310547 396.5946960449219" stroke-width="0.0" fill="rgb(27, 27, 33)" opacity="0.9900083"/>
    <path d="M 502.2309265136719 550.822998046875 C 499.3215637207031 561.00244140625 492.0106506347656 568.3507690429688 481.7030944824219 571.4785766601562 C 471.5892333984375 568.8095092773438 464.36480712890625 561.3548583984375 461.7537841796875 550.9396362304688 C 464.283203125 540.5733642578125 471.53082275390625 533.14892578125 481.83575439453125 530.4266357421875 C 492.3394775390625 533.2902221679688 499.66387939453125 540.6752319335938 502.2309265136719 550.822998046875" stroke-width="0.0" fill="rgb(210, 210, 213)" opacity="0.99080104"/>
    <path d="M 358.04010009765625 464.6747131347656 C 355.41534423828125 474.1167297363281 348.1270751953125 481.44488525390625 339.7582702636719 484.1278381347656 C 329.8994140625 481.4042053222656 322.5467834472656 474.1150207519531 318.04522705078125 464.1134338378906 C 320.7478942871094 454.0819396972656 328.07879638671875 446.7409362792969 338.08856201171875 444.0494689941406 C 348.12603759765625 448.560302734375 355.4205627441406 455.88043212890625 358.04010009765625 464.6747131347656" stroke-width="0.0" fill="rgb(28, 23, 25)" opacity="0.99000484"/>
    <path d="M 584.7767944335938 314.31298828125 C 582.0068969726562 324.63531494140625 574.6214599609375 331.9676208496094 564.4454345703125 334.5661315917969 C 554.0068359375 331.3144226074219 546.6842651367188 323.9937438964844 543.4149780273438 313.553955078125 C 546.0690307617188 303.4337463378906 553.4111938476562 296.0111389160156 563.598388671875 293.2048645019531 C 574.5724487304688 296.0856018066406 581.9512329101562 303.4144592285156 584.7767944335938 314.31298828125" stroke-width="0.0" fill="rgb(191, 192, 195)" opacity="0.99188906"/>
    <path d="M 142.94699096679688 465.9770202636719 C 140.61936950683594 476.2578430175781 133.22976684570312 483.5323486328125 122.74153900146484 486.48455810546875 C 112.56959533691406 483.82806396484375 105.32839965820312 476.3795166015625 102.69984436035156 466.0555419921875 C 105.38842010498047 455.6925964355469 112.67095947265625 448.31732177734375 123.26558685302734 445.418212890625 C 133.422119140625 448.2059631347656 140.68214416503906 455.6112060546875 142.94699096679688 465.9770202636719" stroke-width="0.0" fill="rgb(226, 226, 228)" opacity="0.9905877"/>
    <path d="M 174.14004516601562 111.16336059570312 C 171.56199645996094 121.68363952636719 165.6914520263672 130.1805877685547 155.7930145263672 132.94395446777344 C 144.9186553955078 129.85800170898438 138.17648315429688 121.65377807617188 135.72454833984375 111.73812103271484 C 138.09762573242188 102.38430786132812 145.39889526367188 95.14708709716797 155.8746337890625 91.12552642822266 C 165.90625 93.75518035888672 173.218994140625 101.10291290283203 174.14004516601562 111.16336059570312" stroke-width="0.0" fill="rgb(91, 89, 90)" opacity="0.9900245"/>
    <path d="M 483.391357421875 241.21925354003906 C 480.79840087890625 251.4436492919922 473.4339904785156 258.768310546875 462.7494201660156 261.6831970214844 C 452.6631164550781 258.78802490234375 445.5223693847656 251.23570251464844 442.9938049316406 241.03074645996094 C 445.68121337890625 231.00033569335938 452.998779296875 223.67593383789062 463.35235595703125 220.51336669921875 C 473.3978271484375 223.18362426757812 480.59747314453125 230.67323303222656 483.391357421875 241.21925354003906" stroke-width="0.0" fill="rgb(192, 196, 197)" opacity="1.0"/>
    <path d="M 151.06419372558594 48.08037567138672 C 148.58433532714844 58.334896087646484 141.44265747070312 65.89788818359375 131.13951110839844 68.81065368652344 C 120.6651382446289 65.82150268554688 113.54668426513672 58.20588302612305 110.96964263916016 48.01244354248047 C 113.5743408203125 37.8104133605957 120.65771484375 30.15171241760254 130.73622131347656 27.202301025390625 C 141.168701171875 30.334543228149414 148.3453826904297 37.94138717651367 151.06419372558594 48.08037567138672" stroke-width="0.0" fill="rgb(173, 175, 180)" opacity="0.99197245"/>
    <path d="M 89.21126556396484 348.9884338378906 C 86.6945571899414 359.3744201660156 79.37273406982422 366.6900939941406 68.74918365478516 369.4649963378906 C 58.536170959472656 366.8399658203125 51.21076583862305 359.4465026855469 48.275997161865234 348.6756896972656 C 51.07307434082031 338.44952392578125 58.4489631652832 331.0720520019531 68.57125091552734 328.3590087890625 C 79.27029418945312 331.4306640625 86.6490478515625 338.70526123046875 89.21126556396484 348.9884338378906" stroke-width="0.0" fill="rgb(210, 210, 213)" opacity="0.99115807"/>
    <path d="M 421.19476318359375 330.14837646484375 C 418.6097106933594 340.2517395019531 411.2493591308594 347.6060791015625 401.02166748046875 350.428955078125 C 390.654541015625 347.696044921875 383.3280334472656 340.3374938964844 380.835205078125 330.1851806640625 C 383.6772766113281 319.995849609375 390.9962463378906 312.67767333984375 400.9997253417969 309.9998779296875 C 411.0 312.67950439453125 418.32049560546875 320.0 421.19476318359375 330.14837646484375" stroke-width="0.0" fill="rgb(214, 215, 218)" opacity="0.9911783"/>
    <path d="M 241.95086669921875 316.6715393066406 C 239.21600341796875 327.86865234375 231.86468505859375 335.20709228515625 221.76541137695312 337.92047119140625 C 210.58241271972656 334.9506530761719 204.04502868652344 327.0493469238281 201.74905395507812 317.0893859863281 C 204.2317352294922 307.497314453125 211.46031188964844 300.10467529296875 221.7076873779297 296.17303466796875 C 231.86782836914062 298.80389404296875 239.22410583496094 306.12164306640625 241.95086669921875 316.6715393066406" stroke-width="0.0" fill="rgb(151, 150, 154)" opacity="1.0"/>
    <path d="M 406.455322265625 17.591842651367188 C 403.3216247558594 28.000761032104492 396.00048828125 35.32072067260742 385.9998779296875 37.99920654296875 C 376.0 35.32050323486328 368.67950439453125 28.0 366.0 18.0 C 368.67950439453125 8.0 376.0 0.6794919371604919 386.4671630859375 -2.53900146484375 C 396.6521911621094 -0.0027766823768615723 403.9705505371094 7.358471870422363 406.455322265625 17.591842651367188" stroke-width="0.0" fill="rgb(165, 167, 173)" opacity="1.0"/>
    <path d="M 429.7835693359375 140.89816284179688 C 426.994384765625 151.624755859375 419.6013488769531 158.92547607421875 408.49908447265625 161.7590789794922 C 398.2283630371094 159.10476684570312 390.902587890625 151.76976013183594 388.3511047363281 141.49179077148438 C 391.2303771972656 130.5382843017578 398.50347900390625 123.12266540527344 409.0110778808594 120.34680938720703 C 419.58416748046875 123.07241821289062 426.9729919433594 130.4004669189453 429.7835693359375 140.89816284179688" stroke-width="0.0" fill="rgb(186, 187, 192)" opacity="1.0"/>
    <path d="M 68.7032470703125 255.313232421875 C 65.92400360107422 265.5605163574219 58.561405181884766 272.9239807128906 48.40290069580078 275.4697570800781 C 38.0026969909668 272.3121032714844 30.679624557495117 264.99957275390625 27.548349380493164 254.63671875 C 30.107559204101562 244.45811462402344 37.4489860534668 237.0794219970703 47.69408416748047 234.30963134765625 C 58.405418395996094 237.22561645507812 65.76492309570312 244.59811401367188 68.7032470703125 255.313232421875" stroke-width="0.0" fill="rgb(198, 200, 204)" opacity="0.9917097"/>
    <path d="M 557.6870727539062 344.40509033203125 C 554.9317626953125 354.5641784667969 547.5572509765625 361.9095764160156 537.2010498046875 364.5710144042969 C 526.5784912109375 361.7724609375 519.200439453125 354.4305725097656 516.4989013671875 344.2292785644531 C 519.4708251953125 333.87603759765625 526.9291381835938 326.64044189453125 536.9967651367188 323.9944152832031 C 547.0554809570312 326.6527404785156 554.5433349609375 333.8824157714844 557.6870727539062 344.40509033203125" stroke-width="0.0" fill="rgb(197, 198, 202)" opacity="0.9911531"/>
    <path d="M 127.74622344970703 254.4127655029297 C 124.34331512451172 265.0118713378906 117.00579833984375 272.3229675292969 106.88719940185547 275.1551208496094 C 96.78812408447266 272.5508728027344 89.34638977050781 265.2447204589844 86.40928649902344 255.0879364013672 C 89.2306137084961 244.5521240234375 96.52732849121094 237.15467834472656 106.78002166748047 234.5426025390625 C 117.39437103271484 237.29493713378906 124.94715118408203 244.51348876953125 127.74622344970703 254.4127655029297" stroke-width="0.0" fill="rgb(204, 205, 208)" opacity="1.0"/>
    <path d="M 89.47321319580078 457.2942199707031 C 86.68958282470703 467.27294921875 79.22636413574219 474.5487060546875 68.77181243896484 477.4949951171875 C 58.52700424194336 474.81231689453125 51.16933822631836 467.4795227050781 48.40605163574219 456.90252685546875 C 51.30050277709961 446.7035827636719 58.742183685302734 439.4226379394531 68.89510345458984 436.8911437988281 C 78.99927520751953 439.6798400878906 86.31853485107422 447.0011901855469 89.47321319580078 457.2942199707031" stroke-width="0.0" fill="rgb(218, 217, 220)" opacity="0.9910467"/>
    <path d="M 27.999605178833008 383.0008850097656 C 25.347253799438477 393.06036376953125 18.127389907836914 400.5574951171875 8.009082794189453 403.49749755859375 C -2.146740198135376 400.5752258300781 -9.364272117614746 393.0794982910156 -12.009608268737793 382.998779296875 C -9.369845390319824 372.91168212890625 -2.1571311950683594 365.4146728515625 7.918316841125488 362.5602722167969 C 18.071348190307617 365.53460693359375 25.335344314575195 372.9684143066406 27.999605178833008 383.0008850097656" stroke-width="0.0" fill="rgb(199, 199, 203)" opacity="0.9994856"/>
    <path d="M 401.0339660644531 561.9554443359375 C 398.3201599121094 571.9978637695312 390.99749755859375 579.3199462890625 380.1840515136719 582.8983764648438 C 370.1693420410156 580.1996459960938 362.9341735839844 572.784423828125 360.5740051269531 562.4546508789062 C 363.6649169921875 551.9713134765625 370.94512939453125 544.5782470703125 381.28533935546875 541.4457397460938 C 391.2938537597656 544.2744750976562 398.4803161621094 551.7854614257812 401.0339660644531 561.9554443359375" stroke-width="0.0" fill="rgb(220, 221, 223)" opacity="1.0"/>
    <path d="M 115.45255279541016 540.8145141601562 C 112.64827728271484 551.3245849609375 105.31672668457031 558.62060546875 95.1373519897461 560.947998046875 C 85.0057144165039 558.3031616210938 77.6798095703125 550.9990234375 74.98616790771484 540.9778442382812 C 77.58061981201172 530.844482421875 84.7455062866211 523.2835083007812 94.73026275634766 520.376953125 C 105.36131286621094 523.3306274414062 112.7650375366211 530.6083984375 115.45255279541016 540.8145141601562" stroke-width="0.0" fill="rgb(217, 217, 220)" opacity="0.99088037"/>
    <path d="M 331.8597412109375 520.8366088867188 C 329.2392272949219 530.9096069335938 321.9143981933594 538.2513427734375 311.2190246582031 540.9656372070312 C 300.0862731933594 538.249755859375 292.75115966796875 530.9132690429688 290.04522705078125 520.8309936523438 C 293.0301513671875 509.5916748046875 300.83837890625 502.610595703125 310.99267578125 499.9970703125 C 321.00244140625 502.6786804199219 328.3266906738281 509.9958190917969 331.8597412109375 520.8366088867188" stroke-width="0.0" fill="rgb(5, 3, 1)" opacity="1.0"/>
    <path d="M 421.00592041015625 565.009033203125 C 418.3609924316406 575.0636596679688 411.1023254394531 582.4873046875 400.83099365234375 585.5768432617188 C 390.76806640625 582.6470336914062 383.5387268066406 575.17333984375 380.966552734375 565.0437622070312 C 383.6810607910156 555.0010375976562 391.0008544921875 547.6803588867188 401.00042724609375 545.0007934570312 C 411.0 547.6795043945312 418.32049560546875 555.0 421.00592041015625 565.009033203125" stroke-width="0.0" fill="rgb(218, 219, 221)" opacity="0.9923219"/>
    <path d="M 371.5164794921875 70.55267333984375 C 369.1208190917969 80.82172393798828 361.8349609375 88.16456604003906 351.89532470703125 89.04505157470703 C 341.908935546875 86.39236450195312 334.6055603027344 79.09207916259766 331.972900390625 69.56168365478516 C 334.592041015625 60.874507904052734 341.8495178222656 53.53317642211914 351.49420166015625 50.92594528198242 C 360.51458740234375 53.352657318115234 368.148193359375 60.29293441772461 371.5164794921875 70.55267333984375" stroke-width="0.0" fill="rgb(5, 15, 53)" opacity="0.9900046"/>
    <path d="M 311.0025939941406 431.2745666503906 C 308.8184509277344 441.6277160644531 301.7525329589844 449.1704406738281 291.7929382324219 451.9146423339844 C 281.0750427246094 448.45062255859375 274.2301940917969 440.6816101074219 271.9151611328125 431.5711364746094 C 274.5246276855469 421.8193359375 281.8235778808594 414.5351257324219 291.4277038574219 411.93377685546875 C 300.3334045410156 414.4601135253906 307.8852844238281 421.543701171875 311.0025939941406 431.2745666503906" stroke-width="0.0" fill="rgb(101, 100, 106)" opacity="0.99001014"/>
    <path d="M 290.5700378417969 454.4373474121094 C 287.80499267578125 465.4723205566406 280.4773254394531 472.818115234375 270.2758483886719 475.28509521484375 C 260.12872314453125 472.2361145019531 252.95501708984375 464.8114013671875 249.53692626953125 454.61529541015625 C 252.40452575683594 444.86859130859375 260.0245361328125 437.8694152832031 270.7105407714844 434.2519836425781 C 280.78973388671875 436.8622741699219 288.1291809082031 444.2132873535156 290.5700378417969 454.4373474121094" stroke-width="0.0" fill="rgb(238, 239, 238)" opacity="1.0"/>
    <path d="M 576.8099975585938 195.5223388671875 C 574.0438842773438 205.64776611328125 566.6048583984375 212.9281768798828 556.3976440429688 215.5035400390625 C 546.0 212.3205108642578 538.6795043945312 205.0 535.9598388671875 194.9414520263672 C 538.4642333984375 184.70321655273438 545.6027221679688 177.15985107421875 555.7859497070312 174.32421875 C 566.2748413085938 177.3523712158203 573.7594604492188 184.68165588378906 576.8099975585938 195.5223388671875" stroke-width="0.0" fill="rgb(175, 177, 181)" opacity="1.0"/>
    <path d="M 566.0443115234375 200.0715789794922 C 563.5712280273438 210.34071350097656 556.4566040039062 217.91165161132812 546.0989379882812 220.78656005859375 C 535.4313354492188 217.9574737548828 528.1949462890625 210.5193634033203 525.7893676757812 200.21942138671875 C 528.6514892578125 189.940185546875 535.864013671875 182.4162139892578 545.757568359375 179.57139587402344 C 555.9976806640625 182.6824951171875 563.3177490234375 190.00222778320312 566.0443115234375 200.0715789794922" stroke-width="0.0" fill="rgb(177, 178, 182)" opacity="0.9943959"/>
    <path d="M 213.9576416015625 487.198486328125 C 211.080078125 498.6813659667969 203.66326904296875 506.03717041015625 193.62913513183594 508.7916564941406 C 183.6947021484375 504.6747741699219 176.4910888671875 497.250732421875 173.94212341308594 488.6141357421875 C 176.55848693847656 478.8485412597656 183.84463500976562 471.54962158203125 193.80825805664062 468.9291076660156 C 203.86380004882812 469.84478759765625 211.2386474609375 477.1098327636719 213.9576416015625 487.198486328125" stroke-width="0.0" fill="rgb(60, 61, 64)" opacity="0.99001306"/>
    <path d="M 383.27880859375 364.006103515625 C 380.6362609863281 374.3258361816406 373.3516540527344 381.7173156738281 362.5268859863281 384.64617919921875 C 352.2440490722656 382.07879638671875 344.8637390136719 374.7757568359375 342.4566955566406 364.7225341796875 C 345.6986083984375 354.021728515625 353.0900573730469 346.8912048339844 363.17138671875 343.6837158203125 C 373.3192443847656 346.3236083984375 380.61834716796875 353.6991882324219 383.27880859375 364.006103515625" stroke-width="0.0" fill="rgb(201, 205, 210)" opacity="1.0"/>
    <path d="M 456.36920166015625 456.9418640136719 C 453.6905517578125 467.3969421386719 446.4372253417969 474.8165283203125 436.1192321777344 477.3965148925781 C 425.54107666015625 474.7776794433594 418.1955261230469 467.4671325683594 415.7120056152344 457.2392578125 C 418.5746154785156 446.84698486328125 425.7824401855469 439.3703308105469 436.2275390625 436.38909912109375 C 446.44134521484375 439.18487548828125 453.73748779296875 446.5827331542969 456.36920166015625 456.9418640136719" stroke-width="0.0" fill="rgb(214, 217, 218)" opacity="0.9912064"/>
    <path d="M 332.90924072265625 513.2694091796875 C 329.1143798828125 523.5523071289062 321.46600341796875 530.7294311523438 312.4429016113281 533.1546630859375 C 302.71820068359375 530.5635986328125 295.4225769042969 523.286865234375 291.0761413574219 513.109619140625 C 293.75201416015625 503.0946044921875 301.1124267578125 495.8055419921875 311.2118225097656 494.88238525390625 C 321.7984924316406 497.39788818359375 330.1473693847656 503.34661865234375 332.90924072265625 513.2694091796875" stroke-width="0.0" fill="rgb(122, 109, 84)" opacity="0.99001545"/>
    <path d="M 470.66668701171875 324.8312683105469 C 467.8356628417969 335.4717712402344 460.4605407714844 342.8033447265625 450.3124694824219 345.3709411621094 C 440.01861572265625 342.2763366699219 432.68243408203125 334.9933166503906 429.9987487792969 324.9963684082031 C 432.6549377441406 314.9446716308594 439.856689453125 307.3888244628906 449.9791259765625 304.3771667480469 C 460.4962158203125 307.16070556640625 467.8705749511719 314.4940185546875 470.66668701171875 324.8312683105469" stroke-width="0.0" fill="rgb(205, 205, 209)" opacity="0.9922012"/>
    <path d="M 115.33080291748047 130.70169067382812 C 112.31831359863281 140.9989013671875 104.99945068359375 148.32022094726562 94.98810577392578 151.0070037841797 C 84.90052032470703 148.37889099121094 77.39210510253906 141.1730499267578 74.3272705078125 130.65809631347656 C 77.06163787841797 120.4269027709961 84.41700744628906 113.03421783447266 95.02088928222656 110.18858337402344 C 105.59980010986328 113.00577545166016 112.86473083496094 120.4450912475586 115.33080291748047 130.70169067382812" stroke-width="0.0" fill="rgb(182, 186, 190)" opacity="0.99860215"/>
    <path d="M 204.94268798828125 535.6735229492188 C 202.1970672607422 546.85107421875 194.8533477783203 554.201904296875 184.8214874267578 556.8536376953125 C 174.39744567871094 552.854248046875 167.1206817626953 545.6109008789062 164.6779327392578 536.049072265625 C 167.15528869628906 526.4202270507812 174.38308715820312 519.0264282226562 184.60035705566406 515.2200317382812 C 194.82937622070312 517.860595703125 202.21022033691406 525.145263671875 204.94268798828125 535.6735229492188" stroke-width="0.0" fill="rgb(164, 161, 162)" opacity="1.0"/>
    <path d="M 538.662841796875 552.8172607421875 C 535.838134765625 563.4837646484375 528.4692993164062 570.7908935546875 518.2345581054688 573.247314453125 C 508.0000305175781 570.3204956054688 500.67962646484375 562.9999389648438 497.86737060546875 552.8746337890625 C 500.3769836425781 542.67822265625 507.64080810546875 535.2584228515625 518.2072143554688 532.3430786132812 C 528.4364013671875 535.1845703125 535.8422241210938 542.553466796875 538.662841796875 552.8172607421875" stroke-width="0.0" fill="rgb(206, 207, 209)" opacity="0.9914453"/>
    <path d="M 135.62890625 312.8712158203125 C 132.6566925048828 323.29486083984375 125.304443359375 330.68524169921875 115.1398696899414 333.5920715332031 C 104.73814392089844 330.578857421875 97.24473571777344 323.3238220214844 94.3200454711914 312.9215393066406 C 97.19190216064453 302.58758544921875 104.63517761230469 295.3414611816406 115.02301788330078 292.7563171386719 C 125.3750228881836 295.3213806152344 132.7886962890625 302.5906066894531 135.62890625 312.8712158203125" stroke-width="0.0" fill="rgb(217, 218, 221)" opacity="0.9907443"/>
    <path d="M 79.19945526123047 555.1863403320312 C 76.71687316894531 565.3983764648438 69.41645050048828 572.7750854492188 58.87841796875 575.5416870117188 C 48.5088005065918 572.843017578125 41.13066482543945 565.4992065429688 38.31147003173828 555.2116088867188 C 41.18729782104492 544.55859375 48.56282043457031 537.194580078125 58.62018966674805 534.4508056640625 C 68.97274780273438 537.7324829101562 76.31317138671875 545.0137939453125 79.19945526123047 555.1863403320312" stroke-width="0.0" fill="rgb(206, 209, 212)" opacity="0.99130046"/>
    <path d="M 424.1894226074219 322.8070983886719 C 421.32049560546875 333.0 414.0 340.32049560546875 404.0 343.0 C 394.0 340.32049560546875 386.67950439453125 333.0 384.00079345703125 323.00030517578125 C 386.67987060546875 313.0002136230469 394.0001220703125 305.6795959472656 404.3753356933594 302.5518798828125 C 414.5252380371094 305.09515380859375 421.75982666015625 312.5207214355469 424.1894226074219 322.8070983886719" stroke-width="0.0" fill="rgb(214, 215, 218)" opacity="0.9994246"/>
    <path d="M 381.0847473144531 555.94580078125 C 378.4867248535156 566.3057861328125 371.5185852050781 574.0286865234375 361.7201232910156 575.4462890625 C 350.8757629394531 573.487060546875 343.5115966796875 566.1206665039062 340.6243591308594 556.2105102539062 C 343.6982727050781 546.006103515625 351.0009765625 538.6797485351562 361.1129150390625 535.8768310546875 C 371.24298095703125 538.41943359375 378.53564453125 545.7706298828125 381.0847473144531 555.94580078125" stroke-width="0.0" fill="rgb(217, 217, 219)" opacity="1.0"/>
    <path d="M 502.7225646972656 373.69476318359375 C 499.75091552734375 384.38262939453125 492.37384033203125 391.72296142578125 481.7145080566406 394.6448059082031 C 471.485595703125 391.8809509277344 464.11151123046875 384.51715087890625 461.3680725097656 374.2324523925781 C 464.15838623046875 363.46417236328125 471.4202575683594 356.0287170410156 481.58251953125 353.2876892089844 C 492.4206848144531 356.25341796875 499.8738708496094 363.5351257324219 502.7225646972656 373.69476318359375" stroke-width="0.0" fill="rgb(207, 208, 211)" opacity="0.99091166"/>
    <path d="M 437.5797119140625 387.0198974609375 C 434.7905578613281 397.4013366699219 427.3510437011719 404.6313781738281 416.9103088378906 407.2699890136719 C 406.5953063964844 404.7231750488281 399.1855773925781 397.4332580566406 396.4125061035156 387.3751525878906 C 399.6788024902344 377.0108337402344 407.01611328125 369.6969909667969 417.01837158203125 366.9993896484375 C 427.1309509277344 369.60784912109375 434.6955261230469 376.7679138183594 437.5797119140625 387.0198974609375" stroke-width="0.0" fill="rgb(216, 216, 219)" opacity="0.9911689"/>
    <path d="M 525.6403198242188 307.9897155761719 C 522.8734741210938 318.53863525390625 515.5665283203125 325.95135498046875 505.2117004394531 328.7223815917969 C 494.6610412597656 325.77679443359375 487.47784423828125 318.2553405761719 484.9499206542969 308.0619201660156 C 487.6796569824219 298.00048828125 495.00238037109375 290.68646240234375 505.5264587402344 287.30889892578125 C 515.5838623046875 290.03253173828125 522.90087890625 297.4393005371094 525.6403198242188 307.9897155761719" stroke-width="0.0" fill="rgb(194, 195, 199)" opacity="1.0"/>
    <path d="M 511.7117614746094 423.24432373046875 C 508.9300231933594 433.5478820800781 501.53070068359375 440.8818054199219 491.0799255371094 443.68548583984375 C 480.6357116699219 440.7700500488281 473.3718566894531 433.3179931640625 470.6127014160156 422.92022705078125 C 473.36029052734375 412.7070617675781 480.706298828125 405.3567810058594 491.2566833496094 402.4045104980469 C 501.44659423828125 405.21240234375 508.8701477050781 412.5226135253906 511.7117614746094 423.24432373046875" stroke-width="0.0" fill="rgb(210, 211, 214)" opacity="0.99082434"/>
    <path d="M 432.30889892578125 560.2235717773438 C 429.7284851074219 570.3828125 422.3964538574219 577.7681274414062 412.26153564453125 580.32373046875 C 402.00006103515625 577.3201293945312 394.6792297363281 570.0001220703125 391.99896240234375 559.9999389648438 C 394.6791076660156 549.999755859375 401.99981689453125 542.6793212890625 411.99969482421875 540.0001220703125 C 421.9964599609375 542.6812133789062 429.3008117675781 550.0087280273438 432.30889892578125 560.2235717773438" stroke-width="0.0" fill="rgb(214, 215, 217)" opacity="0.9924226"/>
    <path d="M 143.8828582763672 278.4587097167969 C 141.06787109375 288.610595703125 133.50608825683594 295.8340759277344 123.30467987060547 298.5962829589844 C 112.57367706298828 295.7054748535156 105.13350677490234 288.47747802734375 102.49011993408203 278.3478088378906 C 105.65642547607422 267.99298095703125 113.0009536743164 260.68402099609375 123.62972259521484 257.27728271484375 C 133.76467895507812 259.8894348144531 141.1064910888672 267.2367248535156 143.8828582763672 278.4587097167969" stroke-width="0.0" fill="rgb(207, 211, 215)" opacity="1.0"/>
    <path d="M 226.88107299804688 177.56520080566406 C 224.03921508789062 188.6252899169922 216.58116149902344 195.9287567138672 206.05064392089844 198.7371063232422 C 195.570556640625 195.8418731689453 188.30300903320312 188.38018798828125 185.47549438476562 177.83152770996094 C 188.29251098632812 167.65664672851562 195.6478729248047 160.2691650390625 206.61167907714844 157.18218994140625 C 216.77674865722656 159.87481689453125 224.1507110595703 167.2130889892578 226.88107299804688 177.56520080566406" stroke-width="0.0" fill="rgb(204, 204, 207)" opacity="1.0"/>
    <path d="M 396.6184387207031 59.50086212158203 C 393.32269287109375 70.00069427490234 386.0000915527344 77.32054138183594 376.12408447265625 79.88114166259766 C 366.2005615234375 77.04325103759766 358.1198425292969 70.17925262451172 355.083251953125 59.45245361328125 C 357.87579345703125 49.271549224853516 365.316162109375 41.98424530029297 375.9506530761719 39.214622497558594 C 386.6421203613281 41.99799728393555 394.00177001953125 49.357818603515625 396.6184387207031 59.50086212158203" stroke-width="0.0" fill="rgb(174, 176, 183)" opacity="1.0"/>
    <path d="M 46.58195114135742 578.0877075195312 C 43.86029815673828 588.50048828125 36.483612060546875 595.8064575195312 25.983909606933594 598.5384521484375 C 15.912124633789062 595.5253295898438 8.669269561767578 588.0263671875 5.6457905769348145 577.7232055664062 C 8.204983711242676 567.5570068359375 15.55331802368164 560.192626953125 25.95772933959961 557.4121704101562 C 36.45885467529297 560.1856079101562 43.80354690551758 567.544921875 46.58195114135742 578.0877075195312" stroke-width="0.0" fill="rgb(199, 200, 204)" opacity="0.99108756"/>
    <path d="M 35.42214584350586 455.6950988769531 C 32.421024322509766 466.0809326171875 25.066425323486328 473.373291015625 14.774484634399414 476.2693786621094 C 4.569194793701172 473.77288818359375 -2.7299389839172363 466.41766357421875 -5.301063060760498 456.03265380859375 C -2.6934452056884766 445.6141357421875 4.587591171264648 438.2210693359375 15.218891143798828 435.34344482421875 C 25.49839210510254 438.1404113769531 32.85110092163086 445.5035400390625 35.42214584350586 455.6950988769531" stroke-width="0.0" fill="rgb(205, 205, 208)" opacity="0.99138165"/>
    <path d="M 62.32948684692383 159.68112182617188 C 59.317108154296875 169.99717712402344 51.99702835083008 177.31661987304688 41.749263763427734 180.2611846923828 C 31.4967041015625 177.81455993652344 24.064586639404297 170.54335021972656 21.206897735595703 160.07852172851562 C 24.065479278564453 149.43527221679688 31.4352970123291 142.06735229492188 42.01850509643555 139.29054260253906 C 52.5938606262207 142.05189514160156 59.89739990234375 149.42193603515625 62.32948684692383 159.68112182617188" stroke-width="0.0" fill="rgb(186, 187, 191)" opacity="0.99457467"/>
    <path d="M 474.8039245605469 115.53862762451172 C 471.9228210449219 126.5615234375 464.565185546875 133.93399047851562 453.8740539550781 136.74362182617188 C 443.3583679199219 133.9961700439453 436.0213317871094 126.6358413696289 433.29949951171875 115.94717407226562 C 436.02490234375 105.36604309082031 443.35211181640625 97.9857177734375 453.8279724121094 95.24414825439453 C 464.6547546386719 98.00289154052734 472.0479736328125 105.32681274414062 474.8039245605469 115.53862762451172" stroke-width="0.0" fill="rgb(179, 181, 184)" opacity="0.99255323"/>
    <path d="M 429.15289306640625 450.8860168457031 C 426.4272766113281 461.1533203125 419.2210998535156 468.64031982421875 409.1082458496094 471.3148193359375 C 398.6241760253906 468.6719665527344 391.19659423828125 461.41778564453125 388.3307189941406 450.9384460449219 C 391.23846435546875 440.6466979980469 398.68634033203125 433.3565979003906 408.93511962890625 430.70660400390625 C 419.29400634765625 433.3935546875 426.6317443847656 440.69830322265625 429.15289306640625 450.8860168457031" stroke-width="0.0" fill="rgb(221, 221, 224)" opacity="0.9910317"/>
    <path d="M 115.64559936523438 149.47642517089844 C 112.93325805664062 159.56808471679688 105.58248138427734 166.96990966796875 95.09696960449219 169.81036376953125 C 84.45333862304688 166.9270782470703 77.0844497680664 159.54335021972656 74.36776733398438 149.24729919433594 C 77.26904296875 138.69546508789062 84.77774047851562 131.525634765625 94.96192169189453 128.9800262451172 C 105.0003433227539 131.67958068847656 112.3216323852539 138.9993133544922 115.64559936523438 149.47642517089844" stroke-width="0.0" fill="rgb(186, 190, 191)" opacity="0.99118966"/>
    <path d="M 331.96636962890625 432.7610778808594 C 329.255615234375 442.9211120605469 321.9216003417969 450.25665283203125 311.7490539550781 452.9656066894531 C 300.1932373046875 450.200439453125 293.0878601074219 442.7118835449219 291.8191833496094 432.6759338378906 C 294.5164489746094 422.8435974121094 301.8680725097656 415.5818176269531 310.392578125 412.9735412597656 C 320.294189453125 415.5726318359375 329.19488525390625 421.326904296875 331.96636962890625 432.7610778808594" stroke-width="0.0" fill="rgb(2, 2, 2)" opacity="0.9900109"/>
    <path d="M 373.3905029296875 537.6370239257812 C 370.27783203125 547.9844970703125 362.9961242675781 555.3187866210938 352.8553161621094 558.1370239257812 C 342.5859069824219 555.68505859375 335.0824279785156 548.4925537109375 332.31610107421875 538.2999267578125 C 335.1718444824219 527.5751953125 342.6209716796875 520.310546875 353.0848388671875 517.5247802734375 C 363.4291687011719 520.2305908203125 370.81451416015625 527.5562744140625 373.3905029296875 537.6370239257812" stroke-width="0.0" fill="rgb(224, 223, 226)" opacity="0.99074966"/>
    <path d="M 48.36191940307617 270.29107666015625 C 45.82398223876953 280.493896484375 38.52691650390625 287.9192810058594 28.295833587646484 290.6778259277344 C 17.584611892700195 287.7669372558594 10.214715003967285 280.4218444824219 7.346819877624512 269.7158203125 C 10.061331748962402 259.42669677734375 17.429468154907227 252.06787109375 27.55076789855957 249.3704833984375 C 38.00246047973633 252.67076110839844 45.31947326660156 260.000244140625 48.36191940307617 270.29107666015625" stroke-width="0.0" fill="rgb(198, 198, 202)" opacity="0.99150103"/>
    <path d="M 515.7206420898438 232.9903564453125 C 512.9248657226562 243.56053161621094 505.5499267578125 250.89239501953125 495.0096740722656 253.6140594482422 C 484.5898742675781 250.82394409179688 477.3973083496094 243.33888244628906 474.4785461425781 232.64389038085938 C 477.0854797363281 222.4490509033203 484.4521789550781 215.09341430664062 495.279052734375 212.23081970214844 C 505.59539794921875 215.02650451660156 512.9417114257812 222.41604614257812 515.7206420898438 232.9903564453125" stroke-width="0.0" fill="rgb(187, 187, 191)" opacity="1.0"/>
    <path d="M 122.77190399169922 73.87574768066406 C 119.9439468383789 84.59282684326172 112.61027526855469 91.99019622802734 101.93843078613281 94.7991943359375 C 91.42693328857422 91.9661636352539 84.17774963378906 84.52555084228516 81.75933074951172 74.24297332763672 C 84.6807861328125 64.00140380859375 92.0015869140625 56.68143081665039 102.02271270751953 53.99007797241211 C 112.18982696533203 56.569026947021484 119.83232879638672 63.667022705078125 122.77190399169922 73.87574768066406" stroke-width="0.0" fill="rgb(175, 177, 182)" opacity="0.9911284"/>
    <path d="M 215.60879516601562 438.76580810546875 C 212.65660095214844 449.257568359375 205.21356201171875 456.5254821777344 195.1223602294922 459.4110412597656 C 184.84661865234375 456.52154541015625 177.6027374267578 449.116455078125 175.02587890625 439.00762939453125 C 177.67599487304688 428.9886474609375 184.95152282714844 421.5524597167969 195.03298950195312 418.54962158203125 C 205.44866943359375 421.2281494140625 212.8570098876953 428.5233154296875 215.60879516601562 438.76580810546875" stroke-width="0.0" fill="rgb(234, 234, 237)" opacity="0.99068"/>
    <path d="M 457.599853515625 498.22662353515625 C 454.7747497558594 508.3802795410156 447.3500061035156 515.6832885742188 436.73980712890625 518.6094360351562 C 426.526611328125 515.8526000976562 419.19281005859375 508.45703125 416.45355224609375 498.224853515625 C 419.3150939941406 487.65789794921875 426.6627502441406 480.3321533203125 436.9781494140625 477.8854675292969 C 447.3374328613281 480.34381103515625 454.7018737792969 487.6483459472656 457.599853515625 498.22662353515625" stroke-width="0.0" fill="rgb(217, 217, 220)" opacity="0.9906893"/>
    <path d="M 102.99913024902344 545.0055541992188 C 100.35100555419922 555.060302734375 93.10923767089844 562.508056640625 83.06957244873047 565.3197021484375 C 72.9498519897461 562.4122924804688 65.66603088378906 555.026611328125 62.87150192260742 544.8851318359375 C 65.41217803955078 534.741455078125 72.73613739013672 527.3936767578125 82.86030578613281 524.8753051757812 C 92.99217987060547 527.6997680664062 100.3183822631836 535.0027465820312 102.99913024902344 545.0055541992188" stroke-width="0.0" fill="rgb(212, 215, 217)" opacity="0.9918878"/>
    <path d="M 188.5768280029297 60.53814697265625 C 186.0900421142578 70.77962493896484 178.8111114501953 78.1767807006836 168.66262817382812 80.90056610107422 C 157.4354705810547 77.96707916259766 150.1518096923828 70.52281188964844 147.6397705078125 60.30076599121094 C 150.67965698242188 50.0002326965332 158.00027465820312 42.679805755615234 168.00018310546875 39.99895095825195 C 177.99917602539062 42.67987060546875 185.31820678710938 50.00138854980469 188.5768280029297 60.53814697265625" stroke-width="0.0" fill="rgb(175, 174, 177)" opacity="1.0"/>
    <path d="M 436.5924377441406 419.260498046875 C 433.7896423339844 429.3837890625 426.3400573730469 436.6591796875 416.098388671875 439.2821960449219 C 405.7170715332031 436.57012939453125 398.2428894042969 429.3429870605469 395.3114929199219 418.9788513183594 C 398.16607666015625 408.5677795410156 405.6227722167969 401.33624267578125 416.018310546875 398.73992919921875 C 426.3441467285156 401.3365173339844 433.70623779296875 408.6427001953125 436.5924377441406 419.260498046875" stroke-width="0.0" fill="rgb(218, 219, 222)" opacity="0.9909389"/>
    <path d="M 201.77239990234375 8.974239349365234 C 198.70791625976562 19.202346801757812 191.07725524902344 26.349407196044922 180.50247192382812 29.60476303100586 C 170.37203979492188 26.99593162536621 163.097900390625 19.597829818725586 160.68931579589844 9.31095027923584 C 163.67991638183594 -0.9998002648353577 171.00009155273438 -8.320460319519043 181.02645874023438 -11.015318870544434 C 191.21078491210938 -8.447722434997559 198.82286071777344 -1.3408477306365967 201.77239990234375 8.974239349365234" stroke-width="0.0" fill="rgb(170, 172, 179)" opacity="0.991485"/>
    <path d="M 22.245349884033203 594.1282348632812 C 19.47107696533203 604.0750732421875 12.033858299255371 611.336669921875 2.0024518966674805 614.0011596679688 C -8.0 611.3204956054688 -15.320508003234863 604.0 -18.000003814697266 594.0 C -15.320660591125488 583.9995727539062 -8.001837730407715 576.6744384765625 2.044674873352051 573.94580078125 C 12.005838394165039 576.6600341796875 19.318830490112305 584.0001220703125 22.245349884033203 594.1282348632812" stroke-width="0.0" fill="rgb(193, 193, 198)" opacity="0.9927177"/>
    <path d="M 463.7900695800781 11.389730453491211 C 461.0417175292969 21.666908264160156 453.6438903808594 28.97884750366211 443.24169921875 31.721302032470703 C 432.7352294921875 28.74063491821289 425.5943908691406 21.15091896057129 422.99127197265625 11.016087532043457 C 425.67950439453125 1.0 433.0 -6.320508003234863 443.0455322265625 -9.030916213989258 C 453.2567443847656 -6.498582363128662 460.82769775390625 0.6321647763252258 463.7900695800781 11.389730453491211" stroke-width="0.0" fill="rgb(163, 165, 171)" opacity="0.99188775"/>
    <path d="M 112.99837493896484 33.998931884765625 C 110.31854248046875 43.99821472167969 102.99807739257812 51.31807327270508 92.99988555908203 53.9940071105957 C 83.00077056884766 51.31920623779297 75.67989349365234 43.99948501586914 72.99989318847656 33.99935531616211 C 75.67375946044922 23.984737396240234 82.94619750976562 16.54629898071289 92.84007263183594 13.65815258026123 C 103.00045776367188 16.678876876831055 110.32099914550781 23.999582290649414 112.99837493896484 33.998931884765625" stroke-width="0.0" fill="rgb(168, 170, 175)" opacity="1.0"/>
    <path d="M 402.7286682128906 74.24624633789062 C 399.970458984375 84.61153411865234 392.6195068359375 91.99195861816406 381.2230224609375 94.91442108154297 C 371.1583251953125 92.20223236083984 363.9295349121094 84.80154418945312 362.8714904785156 74.40153503417969 C 364.9122009277344 64.08721923828125 372.01434326171875 56.686458587646484 382.0811767578125 53.948326110839844 C 392.3154296875 56.42695999145508 399.8238525390625 63.602996826171875 402.7286682128906 74.24624633789062" stroke-width="0.0" fill="rgb(176, 178, 185)" opacity="1.0"/>
    <path d="M 89.62128448486328 15.473999977111816 C 86.31995391845703 25.999221801757812 78.99882507324219 33.31856918334961 68.89405059814453 36.07674789428711 C 58.592926025390625 33.6434326171875 51.03809356689453 26.51629638671875 48.18376541137695 16.223215103149414 C 51.02669906616211 5.410141468048096 58.4514274597168 -1.8472232818603516 69.1703872680664 -4.483808517456055 C 79.64683532714844 -1.9531497955322266 87.03438568115234 5.327000141143799 89.62128448486328 15.473999977111816" stroke-width="0.0" fill="rgb(159, 162, 168)" opacity="1.0"/>
    <path d="M 455.9960021972656 327.0009460449219 C 453.33624267578125 337.0341796875 446.0745849609375 344.4681091308594 435.8992919921875 347.4316101074219 C 425.595947265625 344.7593994140625 418.3085632324219 337.38299560546875 415.7120361328125 326.99127197265625 C 418.28375244140625 316.56268310546875 425.45501708984375 308.9978942871094 435.4571533203125 306.2303771972656 C 446.2080993652344 309.2713623046875 453.3458251953125 316.9292297363281 455.9960021972656 327.0009460449219" stroke-width="0.0" fill="rgb(206, 207, 211)" opacity="1.0"/>
    <path d="M 546.218505859375 193.7703094482422 C 543.3564453125 204.07298278808594 536.1491088867188 211.59181213378906 525.7726440429688 214.60215759277344 C 515.4564208984375 211.88882446289062 508.0909118652344 204.5504150390625 505.35235595703125 194.08511352539062 C 508.08172607421875 183.4064178466797 515.370361328125 175.9806671142578 525.9421997070312 173.1586151123047 C 536.6146240234375 175.98521423339844 543.828125 183.4476318359375 546.218505859375 193.7703094482422" stroke-width="0.0" fill="rgb(181, 182, 186)" opacity="0.9913609"/>
    <path d="M 604.4313354492188 375.99395751953125 C 601.838134765625 386.5261535644531 594.5588989257812 393.9390869140625 584.3302612304688 396.6870422363281 C 573.5833129882812 393.7799377441406 566.217529296875 386.41717529296875 563.4461059570312 376.0944519042969 C 566.2756958007812 365.6212158203125 573.5833129882812 358.16766357421875 584.2630004882812 355.1956481933594 C 594.5845336914062 358.02520751953125 601.8475341796875 365.4577941894531 604.4313354492188 375.99395751953125" stroke-width="0.0" fill="rgb(192, 194, 195)" opacity="0.9920645"/>
    <path d="M 74.00007629394531 47.999935150146484 C 71.31990051269531 57.99918746948242 63.99886703491211 65.31879425048828 53.99872970581055 67.99629974365234 C 43.98633575439453 65.32526397705078 36.556060791015625 58.04933166503906 33.26663589477539 47.45873260498047 C 35.943119049072266 37.29729461669922 43.29591751098633 29.939769744873047 53.421939849853516 27.313739776611328 C 63.99887466430664 30.68252944946289 71.32025909423828 38.00035858154297 74.00007629394531 47.999935150146484" stroke-width="0.0" fill="rgb(166, 170, 173)" opacity="1.0"/>
    <path d="M 442.06903076171875 14.097003936767578 C 439.62353515625 24.384082794189453 432.4674987792969 31.883792877197266 422.3819274902344 34.48096466064453 C 411.9989013671875 31.321613311767578 404.677978515625 24.00122833251953 401.4931945800781 13.596794128417969 C 404.0874938964844 3.4750046730041504 411.5260314941406 -3.752084255218506 421.8175048828125 -6.165775775909424 C 431.99871826171875 -3.319441318511963 439.318115234375 4.001667022705078 442.06903076171875 14.097003936767578" stroke-width="0.0" fill="rgb(164, 165, 171)" opacity="1.0"/>
    <path d="M 612.00927734375 455.99896240234375 C 609.3611450195312 466.0718078613281 602.1232299804688 473.5258483886719 591.7667236328125 476.46746826171875 C 581.5123901367188 473.83575439453125 574.1309204101562 466.4982604980469 571.2886962890625 456.0997314453125 C 574.0820922851562 445.41546630859375 581.40234375 438.0437927246094 591.628173828125 435.39434814453125 C 602.139892578125 438.44512939453125 609.3661499023438 445.9195861816406 612.00927734375 455.99896240234375" stroke-width="0.0" fill="rgb(194, 194, 198)" opacity="0.99238646"/>
    <path d="M 402.0 18.999998092651367 C 399.3204650878906 28.999916076660156 391.9996032714844 36.31938934326172 381.43505859375 39.707672119140625 C 371.31817626953125 37.03112030029297 363.9460144042969 29.690776824951172 361.1899108886719 19.063993453979492 C 363.95770263671875 8.328944206237793 371.35137939453125 1.0198731422424316 381.55279541015625 -1.5410473346710205 C 392.0 1.6794918775558472 399.32049560546875 9.0 402.0 18.999998092651367" stroke-width="0.0" fill="rgb(168, 170, 176)" opacity="0.99392265"/>
    <path d="M 511.04449462890625 301.9410705566406 C 508.3203125 311.9990539550781 500.9951171875 319.30621337890625 490.6289978027344 322.4459228515625 C 480.4623718261719 319.8874206542969 473.1180725097656 312.5356140136719 470.3112487792969 301.8073425292969 C 473.05084228515625 291.42425537109375 480.4447326660156 284.1090087890625 490.90753173828125 281.3617248535156 C 501.3609619140625 284.2134704589844 508.5283508300781 291.7222595214844 511.04449462890625 301.9410705566406" stroke-width="0.0" fill="rgb(198, 199, 203)" opacity="0.99122036"/>
    <path d="M 356.9236755371094 577.1679077148438 C 354.0052795410156 588.7753295898438 346.855224609375 596.234619140625 336.2044372558594 598.9677734375 C 325.0785827636719 596.2549438476562 317.7413635253906 588.9229736328125 315.02899169921875 578.290283203125 C 317.7454528808594 567.0808715820312 325.0790100097656 559.7413940429688 335.1069030761719 557.0484619140625 C 346.656005859375 560.2638549804688 354.2004089355469 567.2063598632812 356.9236755371094 577.1679077148438" stroke-width="0.0" fill="rgb(3, 5, 11)" opacity="0.99078035"/>
  </g>
</svg>
