<?xml version="1.0" ?>
<svg xmlns="http://www.w3.org/2000/svg" version="1.1" width="600" height="600">
  <defs/>
  <g>
    <path d="M 369.0 286.0 C 366.9903869628906 293.5 361.5 298.9903869628906 354.0 301.0 C 346.5 298.9903869628906 341.0096130371094 293.5 338.314208984375 285.47113037109375 C 340.3763427734375 278.0260314941406 346.1798400878906 272.8102111816406 353.95770263671875 270.97686767578125 C 361.5 273.0096130371094 366.9903869628906 278.5 369.0 286.0" stroke-width="0.0" fill="rgb(105, 91, 78)" opacity="1.0"/>
    <path d="M 612.0056762695312 64.00163269042969 C 610.063232421875 71.66877746582031 604.91259765625 77.64081573486328 596.4542236328125 79.9375228881836 C 588.8306274414062 77.81216430664062 584.23583984375 71.87339782714844 581.8082885742188 63.47877883911133 C 583.2767333984375 55.71888732910156 588.6632690429688 50.119754791259766 596.255126953125 48.06141662597656 C 604.8583374023438 50.41291427612305 610.0492553710938 56.361000061035156 612.0056762695312 64.00163269042969" stroke-width="0.0" fill="rgb(4, 5, 5)" opacity="0.9900612"/>
    <path d="M 93.53697967529297 38.458621978759766 C 91.6519546508789 46.10136795043945 86.0501708984375 51.48973083496094 77.52745056152344 53.62856674194336 C 69.74729919433594 51.74912643432617 64.19281005859375 46.273643493652344 62.13462448120117 38.646095275878906 C 64.65435028076172 30.326425552368164 70.44145965576172 24.986047744750977 77.99751281738281 22.999019622802734 C 85.5 25.009618759155273 90.9903793334961 30.5 93.53697967529297 38.458621978759766" stroke-width="0.0" fill="rgb(252, 73, 42)" opacity="1.0"/>
    <path d="M 97.58106994628906 60.478824615478516 C 94.9903793334961 68.5 89.5 73.9903793334961 82.0 76.0 C 74.5 73.9903793334961 69.00951385498047 68.50003051757812 66.17253875732422 60.297996520996094 C 68.2264633178711 52.80681610107422 73.8927230834961 47.4732780456543 82.41984558105469 45.394630432128906 C 90.2151870727539 47.27976989746094 95.72602844238281 52.782901763916016 97.58106994628906 60.478824615478516" stroke-width="0.0" fill="rgb(252, 74, 44)" opacity="1.0"/>
    <path d="M 502.6976623535156 133.1507568359375 C 499.1717224121094 140.71864318847656 493.7200622558594 146.17466735839844 486.2909240722656 148.12339782714844 C 479.52203369140625 146.9202423095703 474.0102844238281 141.497802734375 471.969970703125 133.94847106933594 C 473.781494140625 126.14571380615234 478.9750061035156 120.31954956054688 487.5293273925781 118.08846282958984 C 495.30938720703125 120.16925048828125 500.8394775390625 125.68688201904297 502.6976623535156 133.1507568359375" stroke-width="0.0" fill="rgb(255, 77, 47)" opacity="0.99008495"/>
    <path d="M 57.90787887573242 57.533687591552734 C 55.812808990478516 66.2968978881836 50.300811767578125 71.82286071777344 41.79405212402344 73.91085815429688 C 33.69530487060547 71.82794952392578 28.16815948486328 66.3061752319336 26.075115203857422 58.33663558959961 C 28.182621002197266 49.717247009277344 33.724369049072266 44.19902801513672 42.176727294921875 42.0926399230957 C 50.30191421508789 44.18014144897461 55.83750534057617 49.69065856933594 57.90787887573242 57.533687591552734" stroke-width="0.0" fill="rgb(253, 72, 41)" opacity="1.0"/>
    <path d="M 296.9983215332031 243.0063934326172 C 295.00726318359375 250.5368194580078 289.5873718261719 256.16986083984375 282.0946350097656 258.4967041015625 C 274.4751281738281 256.0523986816406 269.0064697265625 250.50778198242188 266.9988708496094 242.9978790283203 C 268.9870910644531 235.44505310058594 274.3514099121094 229.70664978027344 281.6798400878906 228.3658905029297 C 289.5519104003906 229.8429412841797 294.9791259765625 235.5038299560547 296.9983215332031 243.0063934326172" stroke-width="0.0" fill="rgb(228, 221, 210)" opacity="1.0"/>
    <path d="M 340.499267578125 355.1243896484375 C 338.3823547363281 362.8536071777344 332.8522033691406 368.37762451171875 325.2240295410156 370.26611328125 C 317.50067138671875 367.9881286621094 312.0096435546875 362.49993896484375 309.99127197265625 354.9853820800781 C 311.93829345703125 347.37939453125 317.2857971191406 341.65557861328125 324.67950439453125 339.3840026855469 C 332.4850158691406 342.013916015625 338.0538330078125 347.4922180175781 340.499267578125 355.1243896484375" stroke-width="0.0" fill="rgb(255, 245, 230)" opacity="0.991121"/>
    <path d="M 556.821044921875 500.3145751953125 C 554.0072631835938 508.5049743652344 548.5003662109375 513.990478515625 541.0 516.0 C 533.5003051757812 513.9902954101562 528.0217895507812 508.4964294433594 525.2396850585938 500.3296813964844 C 527.2208251953125 492.7657165527344 532.806884765625 487.3427734375 541.7781372070312 485.0976867675781 C 549.3089599609375 487.1476135253906 554.8009033203125 492.71380615234375 556.821044921875 500.3145751953125" stroke-width="0.0" fill="rgb(248, 74, 43)" opacity="1.0"/>
    <path d="M 122.0 576.0 C 119.9903793334961 583.5 114.5 588.9903564453125 107.0 591.0 C 99.5 588.9903564453125 94.0096206665039 583.5 92.0 576.0 C 94.0096206665039 568.5 99.5 563.0096435546875 107.0 561.0 C 114.5 563.0096435546875 119.9903793334961 568.5 122.0 576.0" stroke-width="0.0" fill="rgb(49, 46, 47)" opacity="1.0"/>
    <path d="M 161.8972930908203 472.2696533203125 C 159.7535858154297 480.13861083984375 153.87562561035156 484.5532531738281 146.47593688964844 486.0980224609375 C 139.12452697753906 484.22802734375 132.81570434570312 479.1058654785156 130.56976318359375 472.26971435546875 C 133.00961303710938 464.5 138.5 459.0096130371094 146.11973571777344 456.9129638671875 C 153.97105407714844 458.63995361328125 159.705322265625 463.90838623046875 161.8972930908203 472.2696533203125" stroke-width="0.0" fill="rgb(254, 76, 46)" opacity="0.99007523"/>
    <path d="M 602.6973876953125 531.3450927734375 C 599.9903564453125 539.5 594.5 544.9903564453125 586.4437255859375 547.693359375 C 578.95068359375 545.6712646484375 573.7129516601562 539.9175415039062 571.9508056640625 532.0787963867188 C 574.0096435546875 524.5 579.5 519.0096435546875 587.65771484375 516.2957153320312 C 595.3231811523438 518.1755981445312 600.82421875 523.6768188476562 602.6973876953125 531.3450927734375" stroke-width="0.0" fill="rgb(245, 78, 45)" opacity="1.0"/>
    <path d="M 346.67218017578125 293.90069580078125 C 344.6437072753906 301.2182922363281 339.2921142578125 306.9117431640625 332.1503601074219 309.3935241699219 C 324.5 306.9903869628906 319.0096130371094 301.5 317.0 294.0 C 319.0096130371094 286.5000305175781 324.5002746582031 281.01055908203125 332.4631652832031 278.35693359375 C 339.7873840332031 280.4818420410156 344.7954406738281 286.4967956542969 346.67218017578125 293.90069580078125" stroke-width="0.0" fill="rgb(252, 240, 226)" opacity="0.990406"/>
    <path d="M 587.8894653320312 65.20043182373047 C 585.8062744140625 73.28004455566406 580.2786865234375 78.80302429199219 571.9967651367188 80.90251922607422 C 563.744140625 78.79328918457031 558.227294921875 73.24725341796875 556.0897216796875 64.63594818115234 C 558.2412109375 56.85762023925781 563.9954833984375 51.62377166748047 572.72021484375 49.164695739746094 C 580.2867431640625 51.179080963134766 585.787841796875 56.726783752441406 587.8894653320312 65.20043182373047" stroke-width="0.0" fill="rgb(255, 72, 41)" opacity="1.0"/>
    <path d="M 567.98583984375 13.976433753967285 C 565.8900146484375 21.35188102722168 560.3175048828125 26.780567169189453 553.4588012695312 28.200592041015625 C 545.2023315429688 26.89725685119629 539.5181274414062 21.9242000579834 537.1019287109375 13.154522895812988 C 539.093994140625 5.608377933502197 544.6226806640625 0.1324344277381897 552.2752685546875 -1.7634921073913574 C 560.5 1.0096189975738525 565.9903564453125 6.5 567.98583984375 13.976433753967285" stroke-width="0.0" fill="rgb(11, 2, 2)" opacity="0.990019"/>
    <path d="M 322.0016174316406 207.99801635742188 C 319.9903869628906 215.5 314.5 220.99038696289062 306.9620666503906 223.09552001953125 C 299.5478210449219 221.00091552734375 294.1172790527344 215.4191436767578 291.7285461425781 207.7537841796875 C 293.7688293457031 200.34689331054688 299.39288330078125 194.91156005859375 306.92913818359375 192.5791473388672 C 314.4940185546875 195.03578186035156 319.9960021972656 200.4967498779297 322.0016174316406 207.99801635742188" stroke-width="0.0" fill="rgb(255, 246, 231)" opacity="0.9910238"/>
    <path d="M 163.8839569091797 454.5781555175781 C 161.77574157714844 462.2021179199219 156.12445068359375 467.55047607421875 148.25794982910156 469.22705078125 C 140.50001525878906 466.9903564453125 135.00961303710938 461.5 133.6035919189453 454.54339599609375 C 135.7645263671875 447.2447509765625 141.26148986816406 441.8114318847656 147.8762969970703 439.9130554199219 C 154.81924438476562 441.7932434082031 161.27333068847656 446.9913635253906 163.8839569091797 454.5781555175781" stroke-width="0.0" fill="rgb(253, 78, 45)" opacity="0.99003226"/>
    <path d="M 592.934326171875 24.85039520263672 C 590.9100952148438 32.396671295166016 585.3840942382812 37.87684631347656 577.7291870117188 39.72911071777344 C 569.4720458984375 37.00182342529297 563.8988647460938 31.558359146118164 562.5549926757812 23.816286087036133 C 564.0269165039062 16.47988510131836 569.3761596679688 10.714879989624023 576.6846923828125 8.308377265930176 C 584.589599609375 10.832239151000977 590.244873046875 16.383169174194336 592.934326171875 24.85039520263672" stroke-width="0.0" fill="rgb(4, 3, 5)" opacity="0.99002916"/>
    <path d="M 376.8254699707031 516.7108764648438 C 374.8020324707031 524.259521484375 369.2442321777344 529.7655639648438 361.2164306640625 531.876220703125 C 353.133544921875 529.6449584960938 348.6231384277344 523.19677734375 346.85498046875 516.1287231445312 C 348.67724609375 509.0365905761719 353.781982421875 502.6171569824219 361.0973205566406 500.1536560058594 C 368.9107971191406 502.4208068847656 374.1347961425781 508.2502136230469 376.8254699707031 516.7108764648438" stroke-width="0.0" fill="rgb(146, 143, 96)" opacity="0.9900687"/>
    <path d="M 540.9088134765625 41.43973159790039 C 538.8360595703125 49.30348587036133 533.2941284179688 54.814842224121094 525.0769653320312 56.90626525878906 C 516.6988525390625 54.82264709472656 511.1756591796875 49.30193328857422 509.0965270996094 41.12642288208008 C 511.18548583984375 32.704193115234375 516.701904296875 27.179569244384766 524.6898193359375 25.098798751831055 C 533.2649536132812 27.20867347717285 538.797119140625 32.73250198364258 540.9088134765625 41.43973159790039" stroke-width="0.0" fill="rgb(253, 70, 41)" opacity="1.0"/>
    <path d="M 316.8632507324219 95.90728759765625 C 314.914306640625 103.4045181274414 309.39483642578125 108.88810729980469 301.7673645019531 110.80326080322266 C 293.5 107.9903793334961 288.0096130371094 102.5 286.4606018066406 95.4880599975586 C 288.7771911621094 88.30248260498047 294.346923828125 82.90302276611328 300.4434509277344 80.96841430664062 C 307.6025695800781 82.931396484375 313.10931396484375 88.38211822509766 316.8632507324219 95.90728759765625" stroke-width="0.0" fill="rgb(6, 3, 2)" opacity="0.99001646"/>
    <path d="M 370.0600891113281 282.655517578125 C 368.326171875 289.047119140625 363.2660217285156 294.8714294433594 355.9757385253906 296.9948425292969 C 348.4143371582031 295.0324401855469 342.6834716796875 289.6801452636719 340.1226806640625 281.27496337890625 C 342.1913757324219 273.7903747558594 347.922607421875 268.5662536621094 355.30572509765625 267.7216796875 C 362.6618957519531 269.8550109863281 368.1116638183594 275.350341796875 370.0600891113281 282.655517578125" stroke-width="0.0" fill="rgb(46, 43, 46)" opacity="0.9900377"/>
    <path d="M 131.1463165283203 544.6998901367188 C 129.96279907226562 551.4918823242188 124.49943542480469 556.9901733398438 116.71424865722656 559.2472534179688 C 108.83052825927734 557.5916137695312 103.1941146850586 552.2421875 101.06510162353516 543.3245849609375 C 103.14319610595703 535.7380981445312 108.98197174072266 531.4635620117188 116.54243469238281 529.8989868164062 C 123.733642578125 531.8129272460938 129.1869354248047 537.2664184570312 131.1463165283203 544.6998901367188" stroke-width="0.0" fill="rgb(200, 87, 67)" opacity="0.99004096"/>
    <path d="M 534.650390625 513.9490966796875 C 533.1868286132812 521.6918334960938 527.709228515625 527.2583618164062 519.3519287109375 529.2388916015625 C 511.70660400390625 527.8174438476562 506.2416076660156 522.2723999023438 504.2916259765625 514.593994140625 C 507.0096130371094 506.5 512.5 501.0096130371094 520.363525390625 498.49755859375 C 527.9764404296875 500.48126220703125 533.3042602539062 506.08245849609375 534.650390625 513.9490966796875" stroke-width="0.0" fill="rgb(12, 7, 6)" opacity="0.9900131"/>
    <path d="M 605.4277954101562 505.47271728515625 C 603.7572631835938 513.3101196289062 598.352294921875 518.8839721679688 590.8142700195312 520.8855590820312 C 582.1505737304688 518.2410278320312 576.419189453125 512.9634399414062 574.5274658203125 504.6651306152344 C 576.4630737304688 497.14508056640625 582.308837890625 491.90997314453125 589.9837036132812 489.9920654296875 C 597.5 492.0096130371094 602.9903564453125 497.5 605.4277954101562 505.47271728515625" stroke-width="0.0" fill="rgb(4, 4, 4)" opacity="0.99004495"/>
    <path d="M 517.9124755859375 551.02099609375 C 515.8067016601562 559.2709350585938 510.2496032714844 564.7484130859375 502.5439758300781 566.5987548828125 C 494.5 563.9903564453125 489.0096130371094 558.5 487.0 551.0 C 489.0096130371094 543.5 494.5 538.0096435546875 502.6875915527344 535.20263671875 C 510.26129150390625 537.2061157226562 515.7974853515625 542.7371826171875 517.9124755859375 551.02099609375" stroke-width="0.0" fill="rgb(251, 75, 43)" opacity="1.0"/>
    <path d="M 614.0 574.0 C 611.9906005859375 581.5008544921875 606.5086059570312 587.0184936523438 599.035400390625 589.305908203125 C 591.1739501953125 587.2842407226562 585.5271606445312 581.88671875 584.8310546875 574.6331176757812 C 586.6178588867188 567.0079956054688 591.8946533203125 561.2300415039062 598.9946899414062 558.8973999023438 C 606.5 561.0096435546875 611.9903564453125 566.5 614.0 574.0" stroke-width="0.0" fill="rgb(248, 248, 247)" opacity="1.0"/>
    <path d="M 90.88699340820312 584.7566528320312 C 88.85529327392578 592.334716796875 83.33106994628906 597.8471069335938 74.48870086669922 599.9356689453125 C 66.62400817871094 597.8849487304688 61.10993576049805 592.3783569335938 59.09711837768555 584.7904663085938 C 61.73988723754883 576.3867797851562 67.47272491455078 570.9998779296875 75.00045013427734 568.999267578125 C 82.53262329101562 570.9970703125 88.2403335571289 576.3901977539062 90.88699340820312 584.7566528320312" stroke-width="0.0" fill="rgb(247, 71, 42)" opacity="1.0"/>
    <path d="M 401.3625183105469 73.63945770263672 C 400.2580261230469 80.63347625732422 394.5542297363281 86.0147476196289 386.89642333984375 88.0941390991211 C 379.173828125 86.28102111816406 373.60498046875 80.8611068725586 371.7528381347656 73.21171569824219 C 374.0096130371094 65.5 379.5 60.009620666503906 386.4692687988281 58.61152648925781 C 393.792724609375 60.74049377441406 399.2508239746094 66.21013641357422 401.3625183105469 73.63945770263672" stroke-width="0.0" fill="rgb(145, 139, 95)" opacity="0.9901023"/>
    <path d="M 68.55534362792969 100.13386535644531 C 65.16423034667969 107.71012115478516 59.71233367919922 113.16954803466797 52.4525032043457 115.0906753540039 C 45.272769927978516 113.58399200439453 39.533363342285156 108.9278335571289 37.74348449707031 101.2483901977539 C 40.009620666503906 93.5 45.5 88.0096206665039 53.728580474853516 85.166259765625 C 61.301639556884766 87.17865753173828 66.84229278564453 92.68928527832031 68.55534362792969 100.13386535644531" stroke-width="0.0" fill="rgb(250, 77, 49)" opacity="0.99004054"/>
    <path d="M 127.90118408203125 588.8359375 C 125.89346313476562 596.3695068359375 120.34309387207031 601.8199462890625 111.77579498291016 603.7855834960938 C 103.63737487792969 601.8423461914062 98.0998764038086 596.3828735351562 96.0782241821289 588.8367919921875 C 98.89275360107422 580.4603271484375 104.4944076538086 575.0078735351562 111.99990844726562 573.0 C 119.5 575.0096435546875 124.9903793334961 580.5 127.90118408203125 588.8359375" stroke-width="0.0" fill="rgb(0, 0, 0)" opacity="1.0"/>
    <path d="M 578.90478515625 41.877079010009766 C 576.7568969726562 50.15498352050781 571.0371704101562 55.41903305053711 562.275146484375 57.832984924316406 C 554.6856079101562 55.83599853515625 549.171142578125 50.3112678527832 547.0859375 42.253173828125 C 549.1777954101562 33.68838119506836 554.6765747070312 28.149452209472656 562.4529418945312 26.084976196289062 C 571.2606201171875 28.21332550048828 576.7955932617188 33.735660552978516 578.90478515625 41.877079010009766" stroke-width="0.0" fill="rgb(254, 74, 42)" opacity="1.0"/>
    <path d="M 232.87074279785156 92.50135803222656 C 230.682373046875 101.10901641845703 225.0338592529297 106.44193267822266 217.50450134277344 107.25006103515625 C 209.8430633544922 105.46797943115234 204.11866760253906 100.30457305908203 202.0111541748047 92.98173522949219 C 204.02685546875 85.54325866699219 209.63455200195312 80.30086517333984 217.68809509277344 77.33103942871094 C 225.21145629882812 79.262939453125 230.78472900390625 84.76792907714844 232.87074279785156 92.50135803222656" stroke-width="0.0" fill="rgb(147, 143, 98)" opacity="0.9903404"/>
    <path d="M 41.69049072265625 83.3958511352539 C 38.990379333496094 91.5 33.5 96.9903793334961 25.994630813598633 99.00215911865234 C 18.38589859008789 97.03858947753906 12.485686302185059 91.79763793945312 10.107670783996582 83.38632202148438 C 12.162768363952637 75.67247772216797 17.66742515563965 70.15019989013672 25.44073486328125 68.10234832763672 C 34.24736404418945 70.22957611083984 39.76697540283203 75.75347137451172 41.69049072265625 83.3958511352539" stroke-width="0.0" fill="rgb(254, 70, 41)" opacity="1.0"/>
    <path d="M 20.554410934448242 102.8117446899414 C 18.885154724121094 110.3753662109375 13.375951766967773 115.88733673095703 5.554327011108398 117.94979095458984 C -3.1328821182250977 115.78360748291016 -8.249605178833008 109.92145538330078 -10.05162525177002 102.00020599365234 C -8.248407363891602 94.08052062988281 -3.126584529876709 88.22296905517578 5.497488975524902 86.05609130859375 C 13.241610527038574 88.16107940673828 18.31249237060547 93.91812133789062 20.554410934448242 102.8117446899414" stroke-width="0.0" fill="rgb(7, 4, 5)" opacity="0.9903149"/>
    <path d="M 562.916015625 511.6760559082031 C 560.7900390625 520.2576293945312 555.2572021484375 525.7881469726562 546.9352416992188 527.8955688476562 C 538.7205200195312 525.8014526367188 533.1970825195312 520.2800903320312 531.1281127929688 512.6010131835938 C 533.6187744140625 504.3059997558594 539.4366455078125 498.98602294921875 547.3245239257812 496.70318603515625 C 555.1871337890625 498.3773193359375 560.816650390625 503.74517822265625 562.916015625 511.6760559082031" stroke-width="0.0" fill="rgb(254, 74, 43)" opacity="1.0"/>
    <path d="M 71.06423950195312 289.362548828125 C 69.140869140625 295.6746826171875 63.673484802246094 301.1378173828125 57.196285247802734 303.0631103515625 C 50.322654724121094 301.1355285644531 44.86394500732422 295.6776123046875 42.9421272277832 289.2216491699219 C 44.87643814086914 282.339111328125 50.3383674621582 276.8746032714844 57.0949821472168 274.9382019042969 C 63.66629409790039 276.87030029296875 69.12672424316406 282.33489990234375 71.06423950195312 289.362548828125" stroke-width="0.0" fill="rgb(76, 71, 66)" opacity="0.99000674"/>
    <path d="M 402.0 92.99996185302734 C 399.98968505859375 100.49787902832031 394.4877624511719 105.95372009277344 386.42962646484375 108.7335205078125 C 379.1184387207031 106.57280731201172 373.904296875 100.70167541503906 371.8921203613281 92.92338562011719 C 373.7944641113281 85.30220794677734 379.31610107421875 79.8403091430664 386.9412841796875 77.94639587402344 C 394.5 80.0096206665039 399.9903869628906 85.5 402.0 92.99996185302734" stroke-width="0.0" fill="rgb(143, 141, 93)" opacity="0.9936859"/>
    <path d="M 386.2062683105469 98.21856689453125 C 384.5136413574219 106.0970458984375 379.1936950683594 111.7823486328125 370.32421875 113.93814086914062 C 362.6544494628906 111.87641906738281 357.1844482421875 106.3211441040039 355.1590881347656 98.4654769897461 C 357.29608154296875 89.78895568847656 362.7486877441406 84.19441223144531 370.4046630859375 82.11315155029297 C 378.8525695800781 84.45622253417969 384.0836486816406 90.31918334960938 386.2062683105469 98.21856689453125" stroke-width="0.0" fill="rgb(142, 138, 92)" opacity="1.0"/>
    <path d="M 467.8594055175781 129.28257751464844 C 465.6286926269531 138.16485595703125 460.21221923828125 143.76596069335938 452.16998291015625 145.87484741210938 C 443.79852294921875 143.75025939941406 438.3826599121094 138.1573486328125 436.6520080566406 130.30201721191406 C 438.7156677246094 122.07723236083984 443.9217834472656 116.28575897216797 452.3892517089844 114.09812927246094 C 460.3137512207031 116.17328643798828 465.8446960449219 121.67890167236328 467.8594055175781 129.28257751464844" stroke-width="0.0" fill="rgb(254, 71, 42)" opacity="1.0"/>
    <path d="M 79.51920318603516 399.29522705078125 C 77.43306732177734 406.8646240234375 71.79552459716797 412.20123291015625 63.98332214355469 414.1937561035156 C 56.375675201416016 412.0061340332031 50.67491912841797 406.7212829589844 48.4337158203125 399.16278076171875 C 51.02482604980469 391.5365905761719 56.541419982910156 386.0549011230469 63.897396087646484 384.3447570800781 C 71.36508178710938 386.1802978515625 76.80662536621094 391.6424865722656 79.51920318603516 399.29522705078125" stroke-width="0.0" fill="rgb(244, 238, 231)" opacity="0.9905294"/>
    <path d="M 95.0 563.0 C 92.99037170410156 570.5 87.4999771118164 575.9902954101562 79.99993896484375 577.9998168945312 C 72.49993133544922 575.9904174804688 67.00957489013672 570.5000610351562 64.35832977294922 562.4107666015625 C 66.22084045410156 554.7244873046875 71.72486114501953 549.2221069335938 79.41614532470703 547.3688354492188 C 87.5 550.0096435546875 92.9903793334961 555.5 95.0 563.0" stroke-width="0.0" fill="rgb(252, 74, 44)" opacity="1.0"/>
    <path d="M 59.002498626708984 570.9940185546875 C 56.990379333496094 578.5 51.5 583.9903564453125 43.80339813232422 586.1473999023438 C 35.89664840698242 584.498046875 30.222993850708008 579.1969604492188 28.10088348388672 571.1682739257812 C 30.265151977539062 562.8736572265625 35.96209716796875 557.4719848632812 44.17493438720703 555.160888671875 C 51.78617477416992 557.5054931640625 57.040138244628906 563.3855590820312 59.002498626708984 570.9940185546875" stroke-width="0.0" fill="rgb(253, 72, 42)" opacity="1.0"/>
    <path d="M 331.4263000488281 391.1461486816406 C 329.3183898925781 398.767333984375 323.68353271484375 403.9854736328125 315.69635009765625 405.2060241699219 C 308.7384338378906 403.75787353515625 303.4180908203125 398.2018737792969 301.4206848144531 390.6826171875 C 303.0052185058594 383.4987487792969 308.49993896484375 378.00958251953125 315.8522644042969 376.1929931640625 C 323.2872009277344 378.2882385253906 328.8927307128906 383.6575927734375 331.4263000488281 391.1461486816406" stroke-width="0.0" fill="rgb(250, 240, 228)" opacity="0.9910561"/>
    <path d="M 605.6873779296875 498.3741455078125 C 604.018798828125 505.53375244140625 598.5384521484375 511.0341491699219 590.8419189453125 513.2142333984375 C 583.1763916015625 511.3245849609375 577.56787109375 505.8594665527344 576.8328247070312 498.74932861328125 C 578.8792114257812 491.36614990234375 584.378662109375 485.9131774902344 591.3048095703125 483.9607238769531 C 597.6798095703125 485.8880615234375 603.2949829101562 491.25738525390625 605.6873779296875 498.3741455078125" stroke-width="0.0" fill="rgb(25, 6, 7)" opacity="0.99001414"/>
    <path d="M 311.4774169921875 99.50066375732422 C 309.75799560546875 107.2896957397461 304.3067932128906 112.81377410888672 296.5445861816406 113.11314392089844 C 287.6429443359375 112.80882263183594 282.0904846191406 107.38843536376953 280.05224609375 99.85377502441406 C 283.7450866699219 92.31529998779297 289.3501281738281 86.88646697998047 296.75189208984375 84.80431365966797 C 303.49847412109375 86.0103988647461 308.9863586425781 91.50248718261719 311.4774169921875 99.50066375732422" stroke-width="0.0" fill="rgb(3, 4, 4)" opacity="0.990082"/>
    <path d="M 398.32720947265625 294.34185791015625 C 396.30859375 301.7485046386719 390.6750183105469 307.0531311035156 382.8966064453125 309.421875 C 375.2692565917969 307.2525634765625 369.7117919921875 301.7410888671875 367.60333251953125 294.18341064453125 C 369.9560852050781 286.4754943847656 375.4647216796875 280.9215087890625 382.7290954589844 278.8028259277344 C 390.31695556640625 281.2380065917969 395.76873779296875 286.6794128417969 398.32720947265625 294.34185791015625" stroke-width="0.0" fill="rgb(255, 246, 229)" opacity="0.9904639"/>
    <path d="M 68.17945861816406 323.02777099609375 C 65.97024536132812 330.5609436035156 60.59194564819336 336.0821228027344 53.043251037597656 337.3019104003906 C 45.876914978027344 335.596435546875 40.39567184448242 330.12554931640625 37.8411750793457 322.7823791503906 C 40.124725341796875 315.6665954589844 45.661468505859375 310.0962829589844 52.97662353515625 307.4010009765625 C 60.4951057434082 309.9082336425781 65.84005737304688 315.5819091796875 68.17945861816406 323.02777099609375" stroke-width="0.0" fill="rgb(244, 239, 228)" opacity="1.0"/>
    <path d="M 312.34039306640625 343.8394470214844 C 309.96014404296875 351.4386291503906 304.37213134765625 356.7511901855469 297.1971435546875 358.47540283203125 C 289.86016845703125 356.5038757324219 283.56719970703125 351.4457092285156 281.2828674316406 344.49786376953125 C 284.0096130371094 336.5 289.5 331.0096130371094 297.1386413574219 328.71661376953125 C 304.56341552734375 330.8689880371094 310.1329040527344 336.4354248046875 312.34039306640625 343.8394470214844" stroke-width="0.0" fill="rgb(250, 241, 223)" opacity="1.0"/>
    <path d="M 74.20110321044922 508.81134033203125 C 72.25694274902344 516.8919677734375 67.05286407470703 522.6973876953125 59.65753173828125 524.8099365234375 C 51.73317337036133 521.8701782226562 46.640777587890625 516.0703125 44.90995407104492 509.4717102050781 C 46.830055236816406 502.29302978515625 52.298397064208984 496.84320068359375 59.869632720947266 493.48419189453125 C 67.27175903320312 495.1558837890625 72.5618667602539 500.82586669921875 74.20110321044922 508.81134033203125" stroke-width="0.0" fill="rgb(248, 77, 44)" opacity="0.99003494"/>
    <path d="M 487.0 535.0 C 484.9903869628906 542.5 479.5 547.9903564453125 472.0238037109375 549.9874267578125 C 464.7251281738281 547.86279296875 459.589111328125 542.1084594726562 457.8943176269531 535.450439453125 C 459.78802490234375 528.2256469726562 465.1911926269531 522.6871948242188 472.4111633300781 520.423828125 C 479.5 522.0096435546875 484.9903869628906 527.5 487.0 535.0" stroke-width="0.0" fill="rgb(252, 77, 48)" opacity="0.9900662"/>
    <path d="M 31.98960304260254 532.0206298828125 C 29.990381240844727 539.5 24.5 544.9903564453125 16.247116088867188 547.8350830078125 C 8.64742660522461 545.8561401367188 3.1174840927124023 540.3631591796875 1.0568516254425049 532.1466064453125 C 3.1408629417419434 523.6937255859375 8.788970947265625 518.570068359375 16.576255798339844 517.8892822265625 C 24.092147827148438 519.6180419921875 29.870616912841797 524.7216186523438 31.98960304260254 532.0206298828125" stroke-width="0.0" fill="rgb(248, 70, 46)" opacity="1.0"/>
    <path d="M 137.03353881835938 554.8421630859375 C 135.0801544189453 561.620849609375 129.6437225341797 567.1427612304688 122.34857940673828 569.3304443359375 C 115.5 567.9903564453125 110.0096206665039 562.5 107.37156677246094 554.5293579101562 C 109.42720794677734 547.112548828125 115.73461151123047 542.6599731445312 122.3204116821289 540.939453125 C 129.6214599609375 542.9026489257812 135.08294677734375 548.3844604492188 137.03353881835938 554.8421630859375" stroke-width="0.0" fill="rgb(15, 11, 13)" opacity="0.9900091"/>
    <path d="M 613.0001220703125 547.9991455078125 C 610.9873657226562 555.4912719726562 605.4541015625 560.8631591796875 597.1575927734375 563.8872680664062 C 589.6326293945312 561.8899536132812 584.1818237304688 556.342041015625 583.8411865234375 548.7647094726562 C 585.6778564453125 540.9019165039062 590.207763671875 534.3777465820312 597.5049438476562 532.1783447265625 C 605.5955200195312 534.77587890625 610.9984130859375 540.4772338867188 613.0001220703125 547.9991455078125" stroke-width="0.0" fill="rgb(3, 5, 5)" opacity="0.99007"/>
    <path d="M 473.1102294921875 164.4152069091797 C 471.1864929199219 171.73422241210938 465.7370910644531 177.19308471679688 459.1643371582031 179.08834838867188 C 452.2099304199219 177.19610595703125 445.5704040527344 171.97193908691406 443.06591796875 164.35931396484375 C 445.14678955078125 156.677734375 450.6915283203125 151.18016052246094 459.1761169433594 149.09170532226562 C 467.231201171875 151.19622802734375 472.2730712890625 156.88851928710938 473.1102294921875 164.4152069091797" stroke-width="0.0" fill="rgb(240, 89, 61)" opacity="0.99002886"/>
    <path d="M 101.8980484008789 536.5274047851562 C 99.73352813720703 545.1074829101562 93.95973205566406 550.320556640625 85.83257293701172 552.2293090820312 C 77.89453125 550.5242309570312 72.25865173339844 545.1761474609375 70.29898834228516 537.5984497070312 C 73.0096206665039 529.5 78.5 524.0096435546875 86.2345962524414 521.8154907226562 C 94.14680480957031 523.4520263671875 99.80811309814453 528.764892578125 101.8980484008789 536.5274047851562" stroke-width="0.0" fill="rgb(250, 74, 42)" opacity="1.0"/>
    <path d="M 331.99365234375 357.9898376464844 C 329.9425354003906 365.4219970703125 324.37713623046875 370.7977294921875 316.8825378417969 372.8236083984375 C 309.48028564453125 371.0043640136719 304.0072937011719 365.5173034667969 302.12127685546875 357.9596862792969 C 304.0262756347656 350.531005859375 309.5498352050781 345.0882568359375 317.1118469238281 342.76519775390625 C 324.50653076171875 344.9880676269531 329.9905090332031 350.4993896484375 331.99365234375 357.9898376464844" stroke-width="0.0" fill="rgb(255, 244, 228)" opacity="0.9928943"/>
    <path d="M 282.0 332.0 C 279.9903869628906 339.5 274.5 344.9903869628906 267.11737060546875 346.8492431640625 C 259.6264953613281 344.7699279785156 253.79197692871094 339.5198974609375 251.5992431640625 332.2557067871094 C 254.1413116455078 324.574462890625 259.5409240722656 319.03143310546875 267.0038757324219 317.0020446777344 C 274.5 319.0096130371094 279.9903869628906 324.5 282.0 332.0" stroke-width="0.0" fill="rgb(254, 247, 232)" opacity="0.9920115"/>
    <path d="M 339.04962158203125 290.98272705078125 C 336.99420166015625 298.5014953613281 331.50048828125 303.9906005859375 324.0000305175781 306.0 C 316.5 303.9903869628906 311.0096130371094 298.5 308.9989318847656 290.9971618652344 C 310.9885559082031 283.45379638671875 316.3973083496094 277.8086853027344 323.9311218261719 275.5741271972656 C 331.5960998535156 277.8768310546875 337.0487060546875 283.4268798828125 339.04962158203125 290.98272705078125" stroke-width="0.0" fill="rgb(251, 240, 226)" opacity="0.9934219"/>
    <path d="M 507.2212829589844 566.60205078125 C 506.0166931152344 573.502197265625 500.4940490722656 578.9862670898438 492.30120849609375 581.7567749023438 C 484.6584167480469 579.8425903320312 479.1327819824219 574.3507080078125 477.0709533691406 566.0033569335938 C 479.148193359375 557.6806640625 484.7091979980469 552.226806640625 492.494384765625 550.2720947265625 C 499.92633056640625 553.439697265625 505.261474609375 559.1557006835938 507.2212829589844 566.60205078125" stroke-width="0.0" fill="rgb(45, 46, 43)" opacity="0.9900952"/>
    <path d="M 325.2027893066406 246.18186950683594 C 323.1019592285156 253.51148986816406 317.455078125 258.9201354980469 310.1334533691406 260.74322509765625 C 302.7197570800781 258.74005126953125 297.203857421875 253.29676818847656 295.068603515625 245.9285430908203 C 297.0096130371094 238.5 302.5 233.00961303710938 309.9955749511719 231.00267028808594 C 317.4563903808594 233.0332489013672 322.8262939453125 238.58685302734375 325.2027893066406 246.18186950683594" stroke-width="0.0" fill="rgb(255, 245, 229)" opacity="0.99133176"/>
    <path d="M 291.1147155761719 242.68211364746094 C 288.55621337890625 249.93775939941406 282.8012390136719 255.17745971679688 276.5616455078125 257.0466613769531 C 269.361328125 255.1033477783203 263.89898681640625 249.6377410888672 261.9312438964844 242.1360321044922 C 262.1526184082031 234.6700439453125 267.7008972167969 229.2626190185547 276.664794921875 227.38534545898438 C 284.2094421386719 229.2213592529297 289.5397644042969 234.8697052001953 291.1147155761719 242.68211364746094" stroke-width="0.0" fill="rgb(29, 24, 22)" opacity="0.99001116"/>
    <path d="M 416.3179931640625 102.11039733886719 C 414.5931091308594 110.2055435180664 409.3022766113281 115.8690414428711 401.4466857910156 117.95922088623047 C 392.7566833496094 115.83888244628906 387.7125244140625 110.0857162475586 386.7787780761719 101.76270294189453 C 388.08453369140625 94.52376556396484 393.50250244140625 89.01039123535156 401.08831787109375 86.9455337524414 C 408.8125915527344 88.73692321777344 414.3592224121094 94.158935546875 416.3179931640625 102.11039733886719" stroke-width="0.0" fill="rgb(3, 5, 5)" opacity="0.990062"/>
    <path d="M 62.89818572998047 531.5590209960938 C 60.8248176574707 539.2991333007812 55.29453659057617 544.8133544921875 47.66811752319336 546.8385009765625 C 39.453819274902344 544.1187133789062 34.006717681884766 538.5086059570312 31.826393127441406 530.7880859375 C 33.49757766723633 522.9085693359375 38.8203125 517.239013671875 46.32250213623047 515.1825561523438 C 54.89745330810547 517.7305908203125 60.6776008605957 522.9576416015625 62.89818572998047 531.5590209960938" stroke-width="0.0" fill="rgb(254, 72, 42)" opacity="1.0"/>
    <path d="M 146.9996795654297 463.00164794921875 C 144.99075317382812 470.5010986328125 139.51034545898438 476.02398681640625 131.32034301757812 478.82177734375 C 123.7208480834961 476.80218505859375 118.19280242919922 471.2811279296875 116.10255432128906 463.0335693359375 C 118.19387817382812 454.7185974121094 123.72586059570312 449.21484375 131.33724975585938 448.747802734375 C 139.3407440185547 450.35552978515625 144.97312927246094 455.5450439453125 146.9996795654297 463.00164794921875" stroke-width="0.0" fill="rgb(254, 73, 44)" opacity="1.0"/>
    <path d="M 86.40067291259766 22.58732795715332 C 83.99038696289062 30.50001335144043 78.50003051757812 35.99044418334961 71.00006866455078 38.00012969970703 C 63.50000762939453 35.9903678894043 58.00962448120117 30.4999942779541 55.93381881713867 22.89362335205078 C 57.63046646118164 14.980709075927734 62.82847213745117 9.211889266967773 71.24256896972656 7.0740814208984375 C 79.29756927490234 9.154060363769531 84.69378662109375 14.756017684936523 86.40067291259766 22.58732795715332" stroke-width="0.0" fill="rgb(250, 72, 42)" opacity="1.0"/>
    <path d="M 197.48007202148438 98.65200805664062 C 194.16921997070312 104.63845825195312 188.6116180419922 110.07618713378906 182.52835083007812 112.03264617919922 C 175.40415954589844 110.0660171508789 169.92356872558594 104.6002197265625 167.9631805419922 98.48725128173828 C 169.93231201171875 91.40953063964844 175.41244506835938 85.93913269042969 182.3816375732422 83.96800231933594 C 188.6116943359375 85.92652893066406 194.13302612304688 91.36679077148438 197.48007202148438 98.65200805664062" stroke-width="0.0" fill="rgb(3, 3, 4)" opacity="0.9900041"/>
    <path d="M 58.31431198120117 93.6736831665039 C 55.990394592285156 101.50003051757812 50.50004577636719 106.99044799804688 42.32328414916992 109.79248046875 C 34.776268005371094 107.77936553955078 29.376361846923828 102.17037963867188 27.66726303100586 94.34230041503906 C 29.987653732299805 86.44525146484375 35.336036682128906 80.669677734375 43.61929702758789 78.14559173583984 C 51.224082946777344 80.21549987792969 56.61003875732422 85.83615112304688 58.31431198120117 93.6736831665039" stroke-width="0.0" fill="rgb(252, 73, 43)" opacity="1.0"/>
    <path d="M 318.91717529296875 283.03021240234375 C 317.0011291503906 290.5246276855469 311.5662841796875 296.1374816894531 304.29412841796875 298.3315734863281 C 296.7597351074219 295.6676330566406 291.1932678222656 290.2821350097656 288.8491516113281 282.9388427734375 C 290.9928283691406 275.4944763183594 296.4990539550781 270.0093078613281 304.0437927246094 267.9482727050781 C 311.58648681640625 269.9046630859375 316.9992370605469 275.44073486328125 318.91717529296875 283.03021240234375" stroke-width="0.0" fill="rgb(255, 244, 229)" opacity="0.9915945"/>
    <path d="M 609.005615234375 8.009183883666992 C 607.0325927734375 15.567034721374512 601.6092529296875 21.17011260986328 594.810302734375 22.15114402770996 C 587.3795166015625 20.095359802246094 581.9076538085938 14.619224548339844 579.8644409179688 7.186242580413818 C 580.7615966796875 0.3480377197265625 586.4093627929688 -5.044282913208008 593.9888916015625 -7.006722927093506 C 601.5 -4.990381240844727 606.9903564453125 0.5 609.005615234375 8.009183883666992" stroke-width="0.0" fill="rgb(252, 251, 250)" opacity="0.99006003"/>
    <path d="M 114.89883422851562 473.94024658203125 C 112.32352447509766 480.9805908203125 105.81549835205078 486.2253112792969 98.20809936523438 489.64337158203125 C 90.71398162841797 487.8088684082031 85.19664764404297 482.2838439941406 84.65739440917969 474.8128967285156 C 86.81925201416016 467.27642822265625 92.27604675292969 461.81878662109375 99.2577896118164 459.9159851074219 C 105.93856811523438 461.7491149902344 112.600341796875 466.5023498535156 114.89883422851562 473.94024658203125" stroke-width="0.0" fill="rgb(254, 76, 45)" opacity="0.9900162"/>
    <path d="M 42.00565719604492 89.01305389404297 C 40.07333755493164 96.6633071899414 34.828678131103516 102.51980590820312 26.462242126464844 104.87611389160156 C 18.757827758789062 102.78057098388672 13.245353698730469 97.23175811767578 11.23091983795166 89.60862731933594 C 13.979158401489258 81.49036407470703 19.498754501342773 76.00926208496094 27.000009536743164 74.00015258789062 C 34.50006103515625 76.00958251953125 39.99044418334961 81.49993133544922 42.00565719604492 89.01305389404297" stroke-width="0.0" fill="rgb(254, 75, 45)" opacity="1.0"/>
    <path d="M 322.49957275390625 377.7078552246094 C 319.9906921386719 385.50030517578125 314.50054931640625 390.99151611328125 306.9317626953125 393.0825500488281 C 299.3967590332031 391.142578125 294.083984375 385.5361022949219 292.15240478515625 378.1659851074219 C 294.18389892578125 370.6005554199219 299.5505676269531 365.0191955566406 306.99200439453125 362.9407043457031 C 314.6000671386719 364.95465087890625 320.3064880371094 370.31451416015625 322.49957275390625 377.7078552246094" stroke-width="0.0" fill="rgb(255, 245, 230)" opacity="0.9909338"/>
    <path d="M 258.1534423828125 505.37060546875 C 256.4820861816406 512.1649780273438 251.3045654296875 517.8773803710938 243.97802734375 519.9879150390625 C 236.5 517.9903564453125 231.00961303710938 512.5 228.26504516601562 504.3602294921875 C 230.21725463867188 496.7414855957031 235.7376708984375 491.2060241699219 244.20858764648438 489.0757141113281 C 252.05223083496094 491.2303466796875 256.3707275390625 497.7100524902344 258.1534423828125 505.37060546875" stroke-width="0.0" fill="rgb(146, 142, 97)" opacity="0.990271"/>
    <path d="M 282.93414306640625 324.0580139160156 C 280.9903869628906 331.5 275.5 336.9903869628906 267.9994812011719 339.0002136230469 C 260.486572265625 336.99554443359375 254.89242553710938 331.5469970703125 252.68032836914062 324.14581298828125 C 255.00961303710938 316.5 260.5 311.0096130371094 268.046142578125 308.86517333984375 C 275.4149475097656 311.0261535644531 280.8508605957031 316.6190185546875 282.93414306640625 324.0580139160156" stroke-width="0.0" fill="rgb(255, 245, 230)" opacity="0.9943867"/>
    <path d="M 513.8994750976562 30.030059814453125 C 511.79937744140625 38.275047302246094 506.2752990722656 43.800045013427734 497.5872802734375 45.908302307128906 C 489.66094970703125 43.85068893432617 484.15374755859375 38.337615966796875 482.08416748046875 29.43153190612793 C 484.16851806640625 21.753215789794922 489.86480712890625 16.4800968170166 498.4534606933594 14.398463249206543 C 506.2420959472656 16.2629451751709 511.79571533203125 21.737104415893555 513.8994750976562 30.030059814453125" stroke-width="0.0" fill="rgb(238, 76, 48)" opacity="1.0"/>
    <path d="M 439.82421875 112.38002014160156 C 437.0140380859375 120.50711059570312 431.5006408691406 125.99057006835938 423.3061828613281 128.73106384277344 C 415.6451721191406 126.84998321533203 410.1303405761719 121.36152648925781 408.69696044921875 113.84436798095703 C 411.7084655761719 106.06645965576172 416.9382629394531 100.34488677978516 424.141357421875 98.0479965209961 C 431.8157958984375 99.80496978759766 437.64483642578125 105.01776123046875 439.82421875 112.38002014160156" stroke-width="0.0" fill="rgb(248, 71, 42)" opacity="1.0"/>
    <path d="M 97.74620819091797 530.3390502929688 C 95.0001220703125 538.5040283203125 89.50142669677734 543.990966796875 81.7699203491211 546.1898193359375 C 73.8832015991211 544.5284423828125 68.22000885009766 539.2028198242188 66.1064682006836 531.3513793945312 C 68.30223846435547 522.934326171875 74.07962036132812 517.7101440429688 82.67387390136719 515.2330932617188 C 90.29969024658203 517.1825561523438 95.80781555175781 522.7039794921875 97.74620819091797 530.3390502929688" stroke-width="0.0" fill="rgb(248, 75, 41)" opacity="1.0"/>
    <path d="M 89.69873046875 510.58935546875 C 87.73577880859375 518.1461791992188 81.98948669433594 522.9231567382812 73.62189483642578 524.1830444335938 C 66.98646545410156 522.8145751953125 61.7658576965332 516.8568725585938 59.89930725097656 509.8537902832031 C 61.6650390625 502.7507629394531 66.06134796142578 496.35650634765625 73.56507873535156 495.6514587402344 C 82.0097427368164 496.5849914550781 87.63916015625 501.9222717285156 89.69873046875 510.58935546875" stroke-width="0.0" fill="rgb(15, 7, 7)" opacity="0.9900109"/>
    <path d="M 494.8357849121094 525.279541015625 C 491.9928894042969 533.500732421875 486.5000305175781 538.9903564453125 479.0003662109375 540.9998168945312 C 471.50396728515625 538.98828125 466.0269470214844 533.4916381835938 464.75653076171875 526.644287109375 C 466.7873229980469 519.2027587890625 472.0886535644531 513.2279052734375 479.6319885253906 510.1115417480469 C 487.289794921875 512.185546875 492.811767578125 517.7112426757812 494.8357849121094 525.279541015625" stroke-width="0.0" fill="rgb(254, 76, 47)" opacity="0.9902133"/>
    <path d="M 329.5345764160156 227.826416015625 C 326.70721435546875 235.21246337890625 321.2214050292969 240.7332305908203 313.9021301269531 242.91473388671875 C 306.4826965332031 241.00338745117188 301.0016174316406 235.51638793945312 299.15936279296875 228.10089111328125 C 301.0311584472656 220.47634887695312 306.4637756347656 214.98049926757812 313.9955139160156 212.99295043945312 C 321.5351867675781 214.9912567138672 327.1502380371094 220.42140197753906 329.5345764160156 227.826416015625" stroke-width="0.0" fill="rgb(255, 245, 230)" opacity="0.99163383"/>
    <path d="M 113.9335708618164 571.9140014648438 C 111.71286010742188 579.1400756835938 106.0216293334961 584.3732299804688 98.22959899902344 586.6337890625 C 90.78565979003906 585.7843627929688 85.44719696044922 580.1360473632812 83.78688049316406 572.251953125 C 86.009765625 564.5000610351562 91.50001525878906 559.0096435546875 99.0289306640625 556.9317016601562 C 106.51226806640625 558.9799194335938 111.9920883178711 564.4957885742188 113.9335708618164 571.9140014648438" stroke-width="0.0" fill="rgb(245, 71, 45)" opacity="0.99037427"/>
    <path d="M 370.0540466308594 290.4610290527344 C 368.1124267578125 297.6455993652344 362.6443176269531 303.1092834472656 356.33856201171875 305.0457458496094 C 349.300048828125 303.1158752441406 342.53375244140625 297.8682861328125 340.083984375 291.3255615234375 C 342.5116882324219 283.2704772949219 348.4955749511719 278.065673828125 355.822998046875 276.2287902832031 C 363.0317077636719 278.4294128417969 368.24932861328125 284.0979919433594 370.0540466308594 290.4610290527344" stroke-width="0.0" fill="rgb(29, 31, 38)" opacity="0.9900169"/>
    <path d="M 299.2148742675781 329.90863037109375 C 296.9893493652344 337.49786376953125 291.49530029296875 342.98052978515625 283.99285888671875 344.97003173828125 C 276.5002136230469 342.98974609375 271.0096130371094 337.4999694824219 268.9991455078125 329.99798583984375 C 270.9935607910156 322.4629211425781 276.3976135253906 316.78826904296875 283.9734191894531 314.3291931152344 C 291.677490234375 316.7590637207031 297.1026916503906 322.3642578125 299.2148742675781 329.90863037109375" stroke-width="0.0" fill="rgb(251, 240, 224)" opacity="0.99216735"/>
    <path d="M 482.9087829589844 54.541011810302734 C 480.81842041015625 63.29240036010742 475.2875061035156 68.80619812011719 466.8046569824219 70.89832305908203 C 458.71630859375 68.81278228759766 453.20184326171875 63.277618408203125 452.7334899902344 55.8332405090332 C 454.839111328125 48.29464340209961 460.2918395996094 42.83204650878906 467.8470764160156 39.85603332519531 C 475.31585693359375 41.169837951660156 480.8539733886719 46.67375946044922 482.9087829589844 54.541011810302734" stroke-width="0.0" fill="rgb(248, 79, 45)" opacity="0.9900405"/>
    <path d="M 449.2770690917969 126.77477264404297 C 447.2676696777344 134.89662170410156 442.04400634765625 140.68087768554688 433.36175537109375 142.90318298339844 C 425.6437683105469 140.86788940429688 420.1323547363281 135.35595703125 418.1250305175781 127.77050018310547 C 420.9649963378906 119.48646545410156 426.4988708496094 114.00931549072266 434.5084228515625 111.40760040283203 C 442.1437683105469 113.30854797363281 447.545166015625 118.90312957763672 449.2770690917969 126.77477264404297" stroke-width="0.0" fill="rgb(249, 72, 43)" opacity="1.0"/>
    <path d="M 103.84626770019531 553.510498046875 C 101.4548110961914 561.7582397460938 95.60460662841797 567.0361328125 88.00567626953125 569.0029296875 C 80.50003814697266 566.9903564453125 75.00967407226562 561.4999389648438 72.40435028076172 553.5494995117188 C 74.42610168457031 546.0550537109375 80.17924499511719 540.792236328125 88.15670776367188 538.8150024414062 C 96.06254577636719 540.5263671875 101.74141693115234 545.8456420898438 103.84626770019531 553.510498046875" stroke-width="0.0" fill="rgb(251, 75, 45)" opacity="1.0"/>
    <path d="M 557.9303588867188 555.744873046875 C 555.8349609375 564.3027954101562 550.296142578125 569.8195190429688 542.003173828125 571.9071655273438 C 533.6998291015625 569.820068359375 528.16943359375 564.3045043945312 526.0888671875 556.3069458007812 C 528.192626953125 547.7205810546875 533.7197875976562 542.1906127929688 542.1644287109375 540.0919189453125 C 550.3223266601562 542.1688232421875 555.857421875 547.6669311523438 557.9303588867188 555.744873046875" stroke-width="0.0" fill="rgb(253, 70, 40)" opacity="1.0"/>
    <path d="M 526.5369873046875 80.63054656982422 C 524.793212890625 88.28162384033203 519.2709350585938 93.76066589355469 511.47967529296875 95.27359771728516 C 503.3934631347656 93.21141052246094 497.9924621582031 87.54158782958984 495.845458984375 79.80274963378906 C 497.51080322265625 71.91786193847656 502.8360595703125 66.2613754272461 510.2806396484375 64.85154724121094 C 517.9780883789062 67.59964752197266 523.5634155273438 72.97175598144531 526.5369873046875 80.63054656982422" stroke-width="0.0" fill="rgb(10, 9, 7)" opacity="0.9900176"/>
    <path d="M 60.84621810913086 586.8400268554688 C 58.910701751708984 594.4088745117188 53.408203125 599.90869140625 45.82651138305664 601.8469848632812 C 36.72860336303711 599.6614379882812 31.117860794067383 594.3375244140625 29.03971290588379 586.6866455078125 C 31.199295043945312 577.99658203125 37.99614334106445 573.73388671875 45.61610412597656 571.7396850585938 C 52.479164123535156 573.01904296875 57.856563568115234 578.5584716796875 60.84621810913086 586.8400268554688" stroke-width="0.0" fill="rgb(11, 5, 5)" opacity="0.9900317"/>
    <path d="M 575.0879516601562 6.807957172393799 C 574.4472045898438 13.757526397705078 568.6071166992188 19.03065299987793 561.0524291992188 20.83224105834961 C 553.5537109375 18.905691146850586 548.0361328125 13.463566780090332 545.4678955078125 5.595094203948975 C 547.458740234375 -1.9210100173950195 553.1929321289062 -7.1989665031433105 560.8800048828125 -8.9868745803833 C 568.0294799804688 -6.672340393066406 573.1943969726562 -0.8478491902351379 575.0879516601562 6.807957172393799" stroke-width="0.0" fill="rgb(5, 4, 4)" opacity="0.9900319"/>
    <path d="M 222.9952850341797 92.0027847290039 C 220.96356201171875 99.43844604492188 215.3351287841797 104.65921020507812 207.71351623535156 106.25563049316406 C 199.89950561523438 105.51322174072266 194.38209533691406 100.12572479248047 193.00714111328125 92.65132141113281 C 195.77459716796875 85.23506927490234 201.2428436279297 79.7952880859375 208.57952880859375 77.86705780029297 C 215.26937866210938 79.43224334716797 220.94602966308594 84.59584045410156 222.9952850341797 92.0027847290039" stroke-width="0.0" fill="rgb(147, 142, 97)" opacity="0.9900597"/>
    <path d="M 260.55413818359375 534.1372680664062 C 258.4100036621094 541.8802490234375 252.8634490966797 547.357666015625 245.36744689941406 548.8092651367188 C 237.61683654785156 546.6810302734375 231.70506286621094 541.6109619140625 229.38442993164062 533.7621459960938 C 231.42715454101562 525.9970703125 237.06463623046875 520.6399536132812 244.64096069335938 519.359375 C 252.1980743408203 521.43212890625 257.97314453125 526.6836547851562 260.55413818359375 534.1372680664062" stroke-width="0.0" fill="rgb(252, 245, 235)" opacity="1.0"/>
    <path d="M 440.9048767089844 97.54032135009766 C 438.74676513671875 106.14395904541016 433.02593994140625 111.4053955078125 425.18414306640625 113.0596694946289 C 417.8536071777344 110.74742889404297 412.6707458496094 104.99552154541016 410.8211975097656 97.29499053955078 C 411.2458801269531 89.7221450805664 416.6855163574219 84.14616394042969 424.5874938964844 82.06620025634766 C 433.2896423339844 84.18438720703125 438.82171630859375 89.70765686035156 440.9048767089844 97.54032135009766" stroke-width="0.0" fill="rgb(249, 73, 45)" opacity="1.0"/>
    <path d="M 271.2225646972656 310.9568786621094 C 268.9903869628906 318.5 263.5 323.9903869628906 255.7901153564453 326.3629150390625 C 248.43223571777344 324.2348937988281 243.1814727783203 318.4224853515625 241.067626953125 311.0437316894531 C 243.1118927001953 303.5201110839844 248.44166564941406 297.8694763183594 255.78489685058594 295.7250061035156 C 263.2252197265625 298.3294372558594 268.8316345214844 303.728759765625 271.2225646972656 310.9568786621094" stroke-width="0.0" fill="rgb(255, 245, 230)" opacity="0.99099386"/>
    <path d="M 594.09423828125 528.9154052734375 C 592.2568359375 536.8049926757812 586.83447265625 542.3557739257812 578.2684936523438 544.85400390625 C 570.7054443359375 542.8264770507812 565.1964721679688 537.284912109375 563.09912109375 528.9586181640625 C 565.1773071289062 520.6845703125 570.6743774414062 515.1516723632812 578.5020751953125 513.0899047851562 C 587.1741943359375 515.2337036132812 592.4513549804688 520.93310546875 594.09423828125 528.9154052734375" stroke-width="0.0" fill="rgb(250, 71, 43)" opacity="1.0"/>
    <path d="M 364.3591003417969 262.5286560058594 C 362.646240234375 270.0802307128906 356.8529968261719 274.4910888671875 349.52264404296875 276.0634765625 C 342.11016845703125 274.212646484375 336.05755615234375 269.1373291015625 333.8636779785156 262.1717529296875 C 335.9679260253906 254.34182739257812 341.2884521484375 248.76686096191406 348.7135925292969 247.3038330078125 C 356.1634216308594 249.3969268798828 361.61822509765625 254.83111572265625 364.3591003417969 262.5286560058594" stroke-width="0.0" fill="rgb(251, 240, 223)" opacity="0.99006975"/>
    <path d="M 256.34368896484375 508.4880065917969 C 254.36265563964844 516.0801391601562 249.58248901367188 522.5127563476562 241.73162841796875 524.83056640625 C 233.8367462158203 522.7067260742188 228.41709899902344 517.1254272460938 227.6894989013672 509.3678283691406 C 229.31265258789062 501.6460876464844 234.54977416992188 496.02496337890625 241.99986267089844 493.9985656738281 C 249.5 496.0096130371094 254.99038696289062 501.5 256.34368896484375 508.4880065917969" stroke-width="0.0" fill="rgb(146, 142, 97)" opacity="0.9905196"/>
    <path d="M 408.82421875 88.64017486572266 C 406.2490234375 96.15058898925781 399.9554748535156 101.3328628540039 392.2919006347656 104.49787902832031 C 385.0601806640625 102.59944915771484 379.8268737792969 96.7860107421875 377.9760437011719 89.04112243652344 C 380.00982666015625 81.50038146972656 385.5005187988281 76.01034545898438 393.26287841796875 73.74498748779297 C 401.0813903808594 75.46932220458984 406.70379638671875 80.860595703125 408.82421875 88.64017486572266" stroke-width="0.0" fill="rgb(139, 136, 90)" opacity="0.99051625"/>
    <path d="M 441.931884765625 162.1216583251953 C 438.1288757324219 169.62083435058594 432.6020812988281 175.06985473632812 426.3651123046875 177.02943420410156 C 419.4089050292969 175.06304931640625 413.9342956542969 169.59226989746094 411.9519348144531 162.0998077392578 C 412.12518310546875 154.61891174316406 417.60833740234375 149.09600830078125 426.56439208984375 147.0361328125 C 434.41162109375 149.08273315429688 439.91705322265625 154.58837890625 441.931884765625 162.1216583251953" stroke-width="0.0" fill="rgb(3, 4, 4)" opacity="0.9900069"/>
    <path d="M 306.9844970703125 244.0207061767578 C 304.9898986816406 251.4993438720703 299.4991760253906 256.98931884765625 291.578125 259.37811279296875 C 283.72662353515625 257.7168273925781 278.1385803222656 252.32196044921875 277.88525390625 244.89552307128906 C 279.9026184082031 237.36053466796875 285.3399353027344 231.84693908691406 292.6277770996094 229.67294311523438 C 299.340576171875 231.24322509765625 304.9101867675781 236.6118621826172 306.9844970703125 244.0207061767578" stroke-width="0.0" fill="rgb(252, 241, 226)" opacity="0.9900425"/>
    <path d="M 72.17578887939453 567.792236328125 C 70.01402282714844 575.5557250976562 64.65916442871094 581.318359375 56.38972473144531 583.859375 C 48.734466552734375 581.792236328125 43.231807708740234 576.2567138671875 41.30729675292969 568.5669555664062 C 43.58185577392578 559.9721069335938 48.8546257019043 554.2495727539062 56.98512268066406 552.0922241210938 C 65.1800308227539 554.2329711914062 70.49646759033203 559.9144287109375 72.17578887939453 567.792236328125" stroke-width="0.0" fill="rgb(255, 73, 43)" opacity="1.0"/>
    <path d="M 336.0252685546875 301.0342712402344 C 334.1158752441406 308.6679992675781 328.7345886230469 314.3256530761719 321.38165283203125 316.4457702636719 C 313.7050476074219 313.7359619140625 308.2610778808594 308.294677734375 305.7267150878906 300.8414001464844 C 307.9313659667969 293.45904541015625 313.47930908203125 287.9991760253906 320.9983215332031 285.99932861328125 C 328.5000305175781 288.00958251953125 333.9904479980469 293.4999694824219 336.0252685546875 301.0342712402344" stroke-width="0.0" fill="rgb(255, 245, 228)" opacity="0.991305"/>
    <path d="M 111.0315933227539 70.90467834472656 C 109.07508087158203 77.60408782958984 103.60487365722656 83.07685852050781 96.1943359375 85.04170227050781 C 88.84272766113281 84.30827331542969 83.27700805664062 79.21893310546875 82.83661651611328 71.77899169921875 C 84.8108901977539 64.25556945800781 90.24907684326172 58.795406341552734 97.68638610839844 56.83816146850586 C 103.82271575927734 58.3012809753418 109.09813690185547 64.31436920166016 111.0315933227539 70.90467834472656" stroke-width="0.0" fill="rgb(8, 5, 3)" opacity="0.99000555"/>
    <path d="M 331.76263427734375 209.97889709472656 C 329.955078125 217.58372497558594 324.6311340332031 223.1371307373047 317.056884765625 225.0572967529297 C 309.5 222.99038696289062 304.0096130371094 217.5 301.9998779296875 209.9997100830078 C 304.0074768066406 202.49525451660156 309.4929504394531 197.00038146972656 316.735595703125 195.4619140625 C 324.19366455078125 197.40005493164062 329.70733642578125 202.76980590820312 331.76263427734375 209.97889709472656" stroke-width="0.0" fill="rgb(255, 246, 231)" opacity="0.99099004"/>
    <path d="M 267.23065185546875 278.975341796875 C 264.69378662109375 286.18194580078125 259.1496276855469 291.5888366699219 251.6861572265625 294.209228515625 C 244.25155639648438 292.2572937011719 238.5887451171875 286.8039855957031 236.3889923095703 279.2315979003906 C 238.66510009765625 271.22210693359375 244.28074645996094 265.85980224609375 252.0330352783203 263.68994140625 C 259.3340759277344 266.2043762207031 264.88299560546875 271.6388854980469 267.23065185546875 278.975341796875" stroke-width="0.0" fill="rgb(255, 246, 230)" opacity="0.99062544"/>
    <path d="M 514.1270751953125 83.70221710205078 C 513.6963500976562 91.21407318115234 508.2406921386719 96.7763671875 499.8846740722656 98.88703155517578 C 491.7381591796875 96.78706359863281 486.2127380371094 91.26190185546875 484.09930419921875 82.6133041381836 C 486.1924743652344 74.72437286376953 491.725830078125 69.19559478759766 499.284912109375 67.11198425292969 C 506.9482421875 70.40718078613281 512.2570190429688 76.1451187133789 514.1270751953125 83.70221710205078" stroke-width="0.0" fill="rgb(249, 75, 43)" opacity="0.99006206"/>
    <path d="M 509.94952392578125 7.304915904998779 C 507.7236633300781 15.723210334777832 500.93115234375 20.2541446685791 493.1806945800781 23.385156631469727 C 485.6256408691406 21.868755340576172 480.0975341796875 16.387224197387695 478.0431213378906 8.480693817138672 C 480.1390075683594 -0.29033970832824707 485.8104553222656 -5.573025226593018 494.0492248535156 -7.312992572784424 C 502.21026611328125 -5.6030402183532715 507.8692932128906 -0.30383145809173584 509.94952392578125 7.304915904998779" stroke-width="0.0" fill="rgb(3, 3, 3)" opacity="0.99017835"/>
    <path d="M 530.9159545898438 120.33992004394531 C 528.4005737304688 128.01895141601562 521.807861328125 133.19595336914062 514.4575805664062 135.08982849121094 C 507.0098571777344 133.6294708251953 501.20166015625 129.2010955810547 499.0758056640625 120.67658233642578 C 501.1526184082031 112.67826843261719 506.68548583984375 107.17010498046875 514.7349243164062 105.10071563720703 C 523.295654296875 107.19265747070312 528.8428955078125 112.68961334228516 530.9159545898438 120.33992004394531" stroke-width="0.0" fill="rgb(254, 76, 46)" opacity="0.9900725"/>
    <path d="M 358.3480224609375 88.58766174316406 C 357.070068359375 96.906982421875 352.1376953125 102.78392028808594 343.2909240722656 104.95314025878906 C 335.65142822265625 102.8884506225586 330.2352294921875 97.3017807006836 328.1344909667969 88.28008270263672 C 330.14453125 80.69605255126953 335.7433776855469 75.2571792602539 343.2958984375 73.9446792602539 C 352.0047607421875 75.99634552001953 357.6467590332031 80.88896179199219 358.3480224609375 88.58766174316406" stroke-width="0.0" fill="rgb(44, 40, 28)" opacity="0.99001396"/>
    <path d="M 503.7885437011719 538.3004760742188 C 501.009521484375 546.4170532226562 495.2478942871094 551.5339965820312 487.3599853515625 553.5610961914062 C 480.244873046875 552.4512939453125 474.9655456542969 546.6023559570312 473.0018310546875 539.0094604492188 C 475.02392578125 531.5169067382812 480.52117919921875 526.03857421875 488.5411071777344 523.4342041015625 C 496.270751953125 525.2432250976562 501.82183837890625 530.7064208984375 503.7885437011719 538.3004760742188" stroke-width="0.0" fill="rgb(231, 80, 56)" opacity="1.0"/>
    <path d="M 103.91343688964844 28.81070899963379 C 101.82095336914062 37.29030227661133 96.27547454833984 42.78252410888672 88.62126159667969 44.70735168457031 C 80.5 41.990379333496094 75.0096206665039 36.500003814697266 72.99040985107422 28.9807071685791 C 74.89838409423828 21.294504165649414 80.12579345703125 15.442285537719727 88.532470703125 13.122905731201172 C 96.29204559326172 15.189701080322266 101.82733917236328 20.70095443725586 103.91343688964844 28.81070899963379" stroke-width="0.0" fill="rgb(253, 76, 42)" opacity="1.0"/>
    <path d="M 393.746337890625 65.4295425415039 C 390.39373779296875 72.89579010009766 384.8664245605469 78.30184173583984 377.4773864746094 80.18305206298828 C 370.06884765625 79.30339050292969 364.3677673339844 74.0335693359375 362.30364990234375 66.50981903076172 C 365.2367248535156 58.70087432861328 370.6244812011719 52.93629455566406 377.8841857910156 50.46342468261719 C 385.7991943359375 52.752132415771484 391.5711975097656 58.0797119140625 393.746337890625 65.4295425415039" stroke-width="0.0" fill="rgb(244, 240, 222)" opacity="0.99005383"/>
    <path d="M 547.1209716796875 475.747802734375 C 546.7533569335938 483.2761535644531 541.2796630859375 488.7686767578125 532.30712890625 490.8887634277344 C 524.6876831054688 488.8420104980469 519.1845092773438 483.3014221191406 517.1099243164062 475.4549865722656 C 519.4240112304688 467.71063232421875 526.1025390625 462.75164794921875 532.791015625 460.9051208496094 C 539.7249145507812 462.8144836425781 545.1737670898438 468.2798767089844 547.1209716796875 475.747802734375" stroke-width="0.0" fill="rgb(252, 79, 48)" opacity="0.990017"/>
    <path d="M 44.09230422973633 530.9061279296875 C 41.990386962890625 538.5 36.5 543.9903564453125 28.999996185302734 546.0 C 21.499971389770508 543.9903564453125 16.009506225585938 538.5000610351562 14.031035423278809 531.0537719726562 C 16.2414608001709 523.8539428710938 22.016677856445312 518.6878051757812 29.405723571777344 516.8936767578125 C 36.38419723510742 518.4550170898438 42.20602035522461 523.350341796875 44.09230422973633 530.9061279296875" stroke-width="0.0" fill="rgb(253, 76, 46)" opacity="0.9901154"/>
    <path d="M 46.868125915527344 548.6605834960938 C 44.7869987487793 556.2086791992188 39.12751388549805 561.5682373046875 30.345125198364258 563.8502197265625 C 22.700170516967773 561.8219604492188 17.181615829467773 556.2982788085938 15.159303665161133 548.7116088867188 C 17.97934341430664 540.49072265625 23.49901580810547 535.00927734375 31.001079559326172 532.9995727539062 C 38.53463363647461 534.9967651367188 44.27484130859375 540.3748779296875 46.868125915527344 548.6605834960938" stroke-width="0.0" fill="rgb(252, 73, 41)" opacity="1.0"/>
    <path d="M 493.94000244140625 136.9139404296875 C 491.6835021972656 144.07591247558594 485.94189453125 149.29856872558594 478.18792724609375 152.7623748779297 C 470.7011413574219 150.83023071289062 465.19281005859375 145.2892303466797 463.1664123535156 137.6222686767578 C 465.3146667480469 128.77377319335938 470.725830078125 123.1778564453125 478.2558898925781 121.1524429321289 C 486.5000305175781 124.00939178466797 491.99029541015625 129.5000457763672 493.94000244140625 136.9139404296875" stroke-width="0.0" fill="rgb(254, 76, 47)" opacity="1.0"/>
    <path d="M 135.04458618164062 577.771484375 C 134.30667114257812 585.236572265625 129.31137084960938 590.83984375 121.70655059814453 592.7544555664062 C 113.484130859375 589.9734497070312 107.8910903930664 584.5570068359375 105.85489654541016 577.0813598632812 C 108.0096206665039 569.5 113.5 564.0096435546875 120.53941345214844 562.4182739257812 C 127.70092010498047 564.7656860351562 133.0951690673828 570.3475341796875 135.04458618164062 577.771484375" stroke-width="0.0" fill="rgb(19, 19, 19)" opacity="0.99003357"/>
    <path d="M 488.0864562988281 544.2858276367188 C 486.5985107421875 552.1609497070312 481.1990661621094 557.7254638671875 473.7519226074219 558.135986328125 C 466.2741394042969 556.18017578125 460.815673828125 550.7276611328125 458.8943786621094 543.401611328125 C 460.39862060546875 536.6845703125 465.53985595703125 530.9884643554688 472.9804992675781 528.9293212890625 C 480.5206604003906 530.9859619140625 486.00146484375 536.4828491210938 488.0864562988281 544.2858276367188" stroke-width="0.0" fill="rgb(245, 80, 47)" opacity="0.99004227"/>
    <path d="M 521.9097290039062 499.6276550292969 C 519.7975463867188 508.2688903808594 514.2685546875 513.796875 505.8526916503906 515.9063110351562 C 497.7140197753906 513.8104858398438 492.1842041015625 508.288330078125 490.0926208496094 500.1092529296875 C 492.1816711425781 491.7062072753906 497.711181640625 486.1942443847656 506.0795593261719 484.1099853515625 C 514.2865600585938 486.193115234375 519.825439453125 491.7057189941406 521.9097290039062 499.6276550292969" stroke-width="0.0" fill="rgb(254, 72, 41)" opacity="1.0"/>
    <path d="M 517.9060668945312 584.716064453125 C 515.8857421875 592.3784790039062 510.38116455078125 597.8923950195312 502.2169494628906 599.9453125 C 493.6153564453125 597.8888549804688 488.09881591796875 592.3897705078125 486.0559997558594 584.7634887695312 C 488.3406677246094 576.1102905273438 494.46929931640625 571.1170043945312 502.5255126953125 568.263427734375 C 510.16143798828125 570.3115234375 515.7178955078125 575.8272705078125 517.9060668945312 584.716064453125" stroke-width="0.0" fill="rgb(139, 45, 35)" opacity="1.0"/>
    <path d="M 589.9431762695312 106.74068450927734 C 587.8875122070312 115.37430572509766 582.3734130859375 120.88553619384766 574.5908203125 122.92738342285156 C 565.7044677734375 120.81695556640625 560.16357421875 115.3041763305664 558.083984375 107.34700012207031 C 560.1819458007812 98.70046997070312 565.6936645507812 93.16553497314453 574.080322265625 91.07556915283203 C 582.3425903320312 93.1489486694336 587.8782958984375 98.64582061767578 589.9431762695312 106.74068450927734" stroke-width="0.0" fill="rgb(246, 72, 44)" opacity="1.0"/>
    <path d="M 84.88399505615234 76.62471771240234 C 82.82231903076172 84.29411315917969 77.28966522216797 89.81190490722656 68.68131256103516 91.91458892822266 C 60.691184997558594 89.82699584960938 55.15998077392578 84.31443786621094 53.09248352050781 76.43492889404297 C 55.19353485107422 67.72042846679688 60.72325134277344 62.1999397277832 68.30702209472656 60.1947135925293 C 76.63475036621094 62.94247055053711 82.47579956054688 68.2127456665039 84.88399505615234 76.62471771240234" stroke-width="0.0" fill="rgb(252, 73, 44)" opacity="1.0"/>
    <path d="M 310.2283935546875 268.8705749511719 C 307.9903869628906 276.5 302.5000305175781 281.9903869628906 294.9612731933594 284.05706787109375 C 287.5123596191406 282.0501403808594 282.2494812011719 276.3898620605469 280.4941101074219 269.0061340332031 C 282.26727294921875 261.67315673828125 287.62982177734375 256.1304016113281 295.02056884765625 254.11624145507812 C 302.55035400390625 256.018798828125 308.1707763671875 261.39324951171875 310.2283935546875 268.8705749511719" stroke-width="0.0" fill="rgb(255, 245, 230)" opacity="0.991223"/>
    <path d="M 72.10144805908203 22.92296600341797 C 70.2067642211914 30.832433700561523 64.9982681274414 36.65669631958008 56.51145553588867 38.89958572387695 C 48.71609878540039 36.81553649902344 43.19437026977539 31.279565811157227 41.09031677246094 22.852169036865234 C 43.16593933105469 14.672098159790039 48.66183853149414 9.14060115814209 57.189754486083984 7.069043159484863 C 65.20258331298828 9.188131332397461 70.40137481689453 14.947471618652344 72.10144805908203 22.92296600341797" stroke-width="0.0" fill="rgb(249, 73, 42)" opacity="1.0"/>
    <path d="M 287.2749938964844 336.20684814453125 C 285.3282165527344 343.7882995605469 279.7866516113281 349.3245544433594 271.8208923339844 351.3666687011719 C 264.103759765625 349.47515869140625 258.7268371582031 343.8321228027344 257.0020446777344 336.1036682128906 C 259.0338439941406 328.5188903808594 264.5186767578125 323.032958984375 271.99932861328125 321.06109619140625 C 279.482421875 323.0319519042969 284.96954345703125 328.51715087890625 287.2749938964844 336.20684814453125" stroke-width="0.0" fill="rgb(236, 229, 220)" opacity="1.0"/>
    <path d="M 127.15557861328125 567.9397583007812 C 124.9721450805664 575.4404296875 119.39772033691406 580.8292236328125 111.8056640625 583.04833984375 C 104.91248321533203 580.8219604492188 99.6778564453125 574.9476928710938 97.8526611328125 567.7266845703125 C 99.10469818115234 559.95361328125 103.7894058227539 554.2040405273438 111.31998443603516 552.209716796875 C 119.5967025756836 554.8954467773438 125.11712646484375 560.3992919921875 127.15557861328125 567.9397583007812" stroke-width="0.0" fill="rgb(46, 46, 46)" opacity="0.99010026"/>
    <path d="M 395.12042236328125 505.2277526855469 C 393.240966796875 511.7922668457031 387.7911071777344 517.23828125 380.4178771972656 519.1624145507812 C 373.4347229003906 517.9937744140625 367.9655456542969 512.5715942382812 365.2167053222656 504.344482421875 C 367.23846435546875 496.7811279296875 372.79278564453125 491.2676086425781 380.3852844238281 489.2236633300781 C 387.8304138183594 492.63861083984375 393.2222900390625 498.2131042480469 395.12042236328125 505.2277526855469" stroke-width="0.0" fill="rgb(148, 143, 96)" opacity="0.99002385"/>
  </g>
</svg>
