<?xml version="1.0" ?>
<svg xmlns="http://www.w3.org/2000/svg" version="1.1" width="600" height="600">
  <defs/>
  <g>
    <path d="M 393.0014953613281 361.9840393066406 C 390.97064208984375 369.47589111328125 385.47760009765625 374.97869873046875 377.970947265625 377.0260314941406 C 370.39276123046875 375.1203918457031 364.95489501953125 369.5842590332031 363.00079345703125 362.0099182128906 C 365.0113830566406 354.5046691894531 370.51397705078125 349.04364013671875 378.338623046875 346.4393005371094 C 385.724609375 348.6278381347656 391.05181884765625 354.38397216796875 393.0014953613281 361.9840393066406" stroke-width="0.0" fill="rgb(255, 237, 197)" opacity="0.9906437"/>
    <path d="M 355.0327453613281 151.01211547851562 C 352.9997253417969 158.50340270996094 347.5008850097656 163.99070739746094 340.0000305175781 166.00001525878906 C 332.5 163.99038696289062 327.0096130371094 158.5 324.6877746582031 150.77650451660156 C 326.6373596191406 143.19515991210938 332.23797607421875 137.77386474609375 339.9123840332031 135.9130096435547 C 347.5 138.00961303710938 352.9903869628906 143.5 355.0327453613281 151.01211547851562" stroke-width="0.0" fill="rgb(254, 236, 197)" opacity="0.9947471"/>
    <path d="M 364.592041015625 139.9619598388672 C 362.19378662109375 147.63583374023438 356.61846923828125 153.1358642578125 349.0754699707031 155.1141815185547 C 341.5 152.99038696289062 336.0096130371094 147.5 333.96514892578125 139.99404907226562 C 336.0333557128906 132.5380096435547 341.5364074707031 127.02596282958984 349.1929016113281 124.51660919189453 C 356.7332763671875 126.71556854248047 362.2596435546875 132.27584838867188 364.592041015625 139.9619598388672" stroke-width="0.0" fill="rgb(255, 236, 199)" opacity="0.9911809"/>
    <path d="M 237.2067413330078 216.13221740722656 C 235.21505737304688 223.6732177734375 229.6571807861328 229.16433715820312 221.703369140625 231.43104553222656 C 213.90017700195312 229.56857299804688 208.31085205078125 224.14013671875 207.5409698486328 216.1282501220703 C 208.5570526123047 208.26287841796875 214.49143981933594 203.1820831298828 222.1116485595703 201.156005859375 C 229.5 203.00961303710938 234.99038696289062 208.5 237.2067413330078 216.13221740722656" stroke-width="0.0" fill="rgb(242, 231, 200)" opacity="1.0"/>
    <path d="M 529.140380859375 239.7515411376953 C 528.1586303710938 246.80703735351562 523.03466796875 252.71925354003906 514.2540893554688 254.94415283203125 C 506.60601806640625 252.9040985107422 501.09912109375 247.39259338378906 499.0447082519531 238.80567932128906 C 501.0900573730469 230.5984344482422 506.6066589355469 225.11282348632812 514.229736328125 223.20506286621094 C 521.964599609375 226.39268493652344 527.1783447265625 232.18994140625 529.140380859375 239.7515411376953" stroke-width="0.0" fill="rgb(2, 3, 3)" opacity="0.9900799"/>
    <path d="M 342.0559387207031 96.11471557617188 C 340.1326599121094 102.67507934570312 334.6807556152344 108.14644622802734 327.09063720703125 111.87213897705078 C 319.5883483886719 109.91848754882812 314.0846862792969 104.41032409667969 312.05230712890625 96.78005981445312 C 314.2804870605469 87.97022247314453 320.2068786621094 82.85639953613281 327.6991882324219 81.24723052978516 C 334.8287048339844 83.61286926269531 340.1582336425781 89.25236511230469 342.0559387207031 96.11471557617188" stroke-width="0.0" fill="rgb(37, 31, 25)" opacity="0.9900147"/>
    <path d="M 135.1641387939453 434.549072265625 C 134.15362548828125 441.618408203125 128.5833282470703 447.041015625 121.09456634521484 448.9436340332031 C 113.8413314819336 446.71612548828125 108.43693542480469 441.11212158203125 106.78455352783203 433.60589599609375 C 108.04430389404297 426.4008483886719 113.3549575805664 420.8643493652344 120.31449890136719 419.8215026855469 C 127.82305145263672 421.7671203613281 133.28347778320312 427.1551513671875 135.1641387939453 434.549072265625" stroke-width="0.0" fill="rgb(252, 252, 252)" opacity="1.0"/>
    <path d="M 87.7727279663086 241.58428955078125 C 85.44580078125 248.5101318359375 79.19581604003906 253.56005859375 71.43063354492188 256.8021545410156 C 65.3404312133789 253.2410125732422 59.92121887207031 247.619384765625 57.93950271606445 240.1857452392578 C 59.85802459716797 234.35427856445312 65.3702621459961 228.90440368652344 72.87799835205078 225.25460815429688 C 80.12979125976562 227.21742248535156 85.24546813964844 233.08445739746094 87.7727279663086 241.58428955078125" stroke-width="0.0" fill="rgb(7, 2, 2)" opacity="0.990006"/>
    <path d="M 181.94430541992188 260.232421875 C 179.4119110107422 267.8890686035156 172.7136688232422 273.1221618652344 165.1669464111328 275.0750427246094 C 158.2736358642578 274.0192565917969 152.56224060058594 268.84527587890625 150.36505126953125 260.54974365234375 C 152.2386474609375 252.73570251464844 157.7388153076172 247.2487335205078 165.7130584716797 245.37905883789062 C 174.2834014892578 247.2860870361328 179.88621520996094 252.65724182128906 181.94430541992188 260.232421875" stroke-width="0.0" fill="rgb(2, 2, 3)" opacity="0.99002814"/>
    <path d="M 366.2806701660156 436.0289001464844 C 363.7964782714844 443.3331298828125 358.3589172363281 448.87628173828125 350.6728515625 451.36114501953125 C 343.08709716796875 449.4377136230469 337.4638366699219 443.94964599609375 335.23846435546875 436.10272216796875 C 337.5609436035156 428.1872253417969 343.2540283203125 422.74407958984375 350.8269348144531 420.6159973144531 C 358.42120361328125 423.1263122558594 363.9280090332031 428.56036376953125 366.2806701660156 436.0289001464844" stroke-width="0.0" fill="rgb(255, 230, 191)" opacity="1.0"/>
    <path d="M 305.37359619140625 188.47332763671875 C 303.58746337890625 196.99122619628906 297.9207763671875 202.40066528320312 290.1921081542969 204.59300231933594 C 282.3949890136719 202.1775665283203 276.9476623535156 196.56668090820312 274.9695739746094 189.01580810546875 C 276.97601318359375 181.44287109375 282.3919982910156 175.81248474121094 289.7720642089844 173.7178955078125 C 297.7505798339844 175.9258270263672 303.6044616699219 181.06643676757812 305.37359619140625 188.47332763671875" stroke-width="0.0" fill="rgb(251, 233, 196)" opacity="1.0"/>
    <path d="M 506.9255065917969 295.3794250488281 C 504.8636169433594 304.3586730957031 499.3572998046875 309.8592834472656 491.58343505859375 311.85894775390625 C 482.9049377441406 309.6468200683594 477.3390808105469 304.10137939453125 475.19561767578125 296.2624206542969 C 477.4073486328125 287.95263671875 482.9473571777344 282.392333984375 491.4503479003906 280.1677551269531 C 499.31793212890625 282.1933898925781 504.8734130859375 287.6563720703125 506.9255065917969 295.3794250488281" stroke-width="0.0" fill="rgb(247, 168, 96)" opacity="1.0"/>
    <path d="M 470.9989318847656 190.00196838378906 C 468.9903869628906 197.5 463.4999084472656 202.9901123046875 455.6896057128906 205.53948974609375 C 448.3760681152344 203.27352905273438 443.0071105957031 197.52671813964844 441.0750732421875 190.1451416015625 C 443.15582275390625 182.59230041503906 448.5858154296875 177.13685607910156 456.0793151855469 174.92922973632812 C 463.4652404785156 177.0707550048828 468.97967529296875 182.5196533203125 470.9989318847656 190.00196838378906" stroke-width="0.0" fill="rgb(255, 237, 200)" opacity="0.99137557"/>
    <path d="M 375.4905700683594 397.2965393066406 C 373.3376770019531 404.7722473144531 367.771728515625 410.33367919921875 360.3170471191406 412.2375793457031 C 352.6432800292969 409.7912902832031 347.15045166015625 404.37579345703125 344.7847595214844 396.76068115234375 C 346.83001708984375 389.2853698730469 352.2156677246094 383.6219482421875 359.84417724609375 381.4605407714844 C 367.619873046875 383.8067321777344 373.0458068847656 389.4259033203125 375.4905700683594 397.2965393066406" stroke-width="0.0" fill="rgb(255, 237, 199)" opacity="0.99080074"/>
    <path d="M 314.8175048828125 9.6962890625 C 312.6640930175781 18.140350341796875 307.172119140625 23.741138458251953 298.2733154296875 25.92401123046875 C 290.63470458984375 23.882583618164062 285.13055419921875 18.3597412109375 283.0577392578125 9.452415466308594 C 285.1363220214844 1.7053104639053345 290.80242919921875 -3.59037446975708 298.87841796875 -5.304490566253662 C 307.00335693359375 -3.426870346069336 312.6849670410156 1.9082441329956055 314.8175048828125 9.6962890625" stroke-width="0.0" fill="rgb(145, 153, 166)" opacity="1.0"/>
    <path d="M 156.20306396484375 351.9708251953125 C 154.33493041992188 359.91912841796875 149.019775390625 365.629150390625 140.791748046875 367.83782958984375 C 132.8760223388672 365.6907653808594 127.37019348144531 360.0989685058594 125.21369171142578 352.0984191894531 C 127.37360382080078 343.9013977050781 132.89405822753906 338.3537902832031 141.18795776367188 336.1777648925781 C 149.02854919433594 338.3661193847656 154.36477661132812 344.064208984375 156.20306396484375 351.9708251953125" stroke-width="0.0" fill="rgb(253, 167, 88)" opacity="1.0"/>
    <path d="M 460.7054443359375 343.440673828125 C 457.9903869628906 351.5 452.5 356.9903869628906 444.561767578125 359.5287780761719 C 436.9000244140625 357.6319580078125 431.3828430175781 352.09405517578125 429.24029541015625 343.9225158691406 C 431.3929138183594 335.98736572265625 437.0758056640625 330.6608581542969 445.55535888671875 328.2598571777344 C 453.1391906738281 330.31072998046875 458.68316650390625 335.863037109375 460.7054443359375 343.440673828125" stroke-width="0.0" fill="rgb(254, 170, 93)" opacity="1.0"/>
    <path d="M 384.9347839355469 458.2171630859375 C 382.53302001953125 467.0278625488281 377.1713562011719 472.80517578125 368.2679443359375 474.95843505859375 C 360.59124755859375 472.9163818359375 355.086181640625 467.4076843261719 353.1295166015625 459.9070129394531 C 356.88458251953125 452.3551025390625 362.3608703613281 446.8988342285156 369.5346984863281 444.95672607421875 C 377.0528564453125 446.716552734375 382.8773193359375 450.69171142578125 384.9347839355469 458.2171630859375" stroke-width="0.0" fill="rgb(2, 2, 2)" opacity="0.9900164"/>
    <path d="M 352.9606018066406 471.5462341308594 C 350.9183654785156 479.4086608886719 345.3984069824219 484.890625 337.7195129394531 486.8232421875 C 328.6995849609375 484.7369384765625 323.10601806640625 479.3547058105469 321.07391357421875 471.8598327636719 C 324.0096130371094 463.5 329.5 458.0096130371094 337.48236083984375 455.5822448730469 C 345.32598876953125 457.2281494140625 350.8958740234375 462.63330078125 352.9606018066406 471.5462341308594" stroke-width="0.0" fill="rgb(2, 2, 2)" opacity="0.9903145"/>
    <path d="M 108.95726776123047 217.8537139892578 C 106.90371704101562 226.39585876464844 101.39688873291016 231.90599060058594 93.65692901611328 233.9547119140625 C 84.94014739990234 231.7865753173828 80.42733764648438 225.44302368164062 77.25763702392578 217.37408447265625 C 79.48908233642578 210.20315551757812 85.3839340209961 204.96031188964844 93.75538635253906 202.1977081298828 C 101.37822723388672 204.1231689453125 106.89873504638672 209.61355590820312 108.95726776123047 217.8537139892578" stroke-width="0.0" fill="rgb(2, 2, 2)" opacity="0.990039"/>
    <path d="M 75.62765502929688 307.9985656738281 C 74.08954620361328 315.74560546875 68.84221649169922 321.4256591796875 61.31641387939453 323.4492492675781 C 53.218894958496094 321.15582275390625 47.39861297607422 315.93975830078125 46.76190948486328 308.691162109375 C 47.99418258666992 300.49273681640625 53.57343292236328 295.2110595703125 61.441402435302734 292.6610412597656 C 68.88050079345703 294.5101318359375 74.1275863647461 300.2297668457031 75.62765502929688 307.9985656738281" stroke-width="0.0" fill="rgb(252, 251, 250)" opacity="0.9913164"/>
    <path d="M 283.0592346191406 275.2232360839844 C 281.1046142578125 282.6506042480469 275.687744140625 288.2314453125 268.1578369140625 291.9356994628906 C 260.6742858886719 289.888671875 256.7030944824219 284.101318359375 254.95669555664062 276.4330139160156 C 256.870361328125 269.28070068359375 262.1842956542969 263.5921325683594 269.2388610839844 261.17767333984375 C 276.4484558105469 263.02899169921875 281.5702819824219 268.6996154785156 283.0592346191406 275.2232360839844" stroke-width="0.0" fill="rgb(2, 2, 2)" opacity="0.99001527"/>
    <path d="M 432.10504150390625 253.98516845703125 C 430.16986083984375 261.65960693359375 424.6431579589844 267.1163024902344 417.04107666015625 269.0369567871094 C 409.5 266.9903869628906 404.0096130371094 261.5 401.4670104980469 253.5133514404297 C 403.30023193359375 245.816162109375 408.792724609375 240.23974609375 416.3452453613281 238.53724670410156 C 424.9032897949219 240.52114868164062 430.2497863769531 246.16908264160156 432.10504150390625 253.98516845703125" stroke-width="0.0" fill="rgb(248, 232, 194)" opacity="1.0"/>
    <path d="M 199.94500732421875 320.8282470703125 C 197.88372802734375 328.33087158203125 192.25469970703125 333.6639404296875 184.34426879882812 335.2546081542969 C 176.8373565673828 332.8002624511719 171.7565155029297 326.938232421875 169.91732788085938 319.14434814453125 C 170.1061248779297 311.6083984375 175.61373901367188 306.1217956542969 183.18081665039062 305.8473205566406 C 190.7755889892578 307.7783508300781 196.41116333007812 313.1766357421875 199.94500732421875 320.8282470703125" stroke-width="0.0" fill="rgb(2, 2, 3)" opacity="0.9900178"/>
    <path d="M 379.4556579589844 243.494873046875 C 377.77154541015625 251.32142639160156 372.364013671875 256.8958435058594 364.90179443359375 258.8603210449219 C 357.3533020019531 255.1097412109375 351.86236572265625 249.6573486328125 349.76995849609375 242.29498291015625 C 351.0096130371094 235.5 356.5 230.00961303710938 364.4292907714844 227.34046936035156 C 371.71453857421875 229.5984344482422 377.0231628417969 235.42079162597656 379.4556579589844 243.494873046875" stroke-width="0.0" fill="rgb(3, 3, 4)" opacity="0.9900361"/>
    <path d="M 263.1529541015625 326.57366943359375 C 261.27593994140625 333.8436279296875 255.85643005371094 339.3097229003906 248.36532592773438 341.26690673828125 C 240.7436981201172 340.7445373535156 235.22413635253906 335.26483154296875 233.14089965820312 327.5114440917969 C 235.32554626464844 318.767822265625 240.6942138671875 313.1343078613281 248.4287567138672 311.0519104003906 C 257.1185607910156 313.20947265625 261.56195068359375 319.3034973144531 263.1529541015625 326.57366943359375" stroke-width="0.0" fill="rgb(119, 110, 93)" opacity="1.0"/>
    <path d="M 173.31703186035156 286.726318359375 C 170.88510131835938 294.40435791015625 165.4252471923828 299.956298828125 158.0959014892578 302.2884521484375 C 150.5 299.9903869628906 145.00961303710938 294.5 143.0 286.9999694824219 C 145.00930786132812 279.4990234375 150.49349975585938 273.9893798828125 158.80563354492188 271.0980529785156 C 166.2728271484375 273.1549987792969 171.5777130126953 278.8216552734375 173.31703186035156 286.726318359375" stroke-width="0.0" fill="rgb(255, 237, 198)" opacity="0.9957684"/>
    <path d="M 387.5470275878906 111.96930694580078 C 385.8038330078125 119.40033721923828 380.4500427246094 124.96382904052734 372.9985046386719 126.99504852294922 C 365.5218811035156 124.97624969482422 360.0689697265625 119.46465301513672 357.6194152832031 111.80884552001953 C 359.8924560546875 104.43994140625 365.4399108886719 98.9024429321289 372.82177734375 97.00688934326172 C 380.4797058105469 99.11727905273438 385.890869140625 104.51870727539062 387.5470275878906 111.96930694580078" stroke-width="0.0" fill="rgb(255, 237, 200)" opacity="0.99052054"/>
    <path d="M 498.80987548828125 241.90997314453125 C 496.66400146484375 250.1062469482422 491.0917053222656 255.62680053710938 482.97845458984375 257.77813720703125 C 474.8985595703125 255.64646911621094 469.3819885253906 250.090576171875 467.12542724609375 241.31312561035156 C 469.14990234375 233.66766357421875 474.6733093261719 228.16429138183594 483.5160827636719 226.09304809570312 C 491.3214111328125 228.14024353027344 496.7571716308594 233.71690368652344 498.80987548828125 241.90997314453125" stroke-width="0.0" fill="rgb(250, 168, 93)" opacity="1.0"/>
    <path d="M 404.8743896484375 473.2431335449219 C 402.3305969238281 481.6698913574219 396.5624694824219 487.0162658691406 389.0028991699219 489.00115966796875 C 381.5 486.9903869628906 376.0096130371094 481.5 374.5398864746094 474.407958984375 C 376.55548095703125 466.8487854003906 381.1749267578125 460.3080139160156 389.7042236328125 458.0541076660156 C 397.38037109375 460.1081237792969 402.88037109375 465.6239929199219 404.8743896484375 473.2431335449219" stroke-width="0.0" fill="rgb(137, 78, 43)" opacity="1.0"/>
    <path d="M 226.5893096923828 155.91848754882812 C 224.13397216796875 163.5356903076172 218.45297241210938 168.8759002685547 210.7848358154297 171.3414764404297 C 203.19093322753906 169.30938720703125 197.57777404785156 163.84829711914062 195.4443817138672 156.25741577148438 C 197.8404541015625 148.35256958007812 203.33131408691406 142.7734375 210.7412872314453 140.60113525390625 C 218.45738220214844 143.14988708496094 224.22274780273438 148.41714477539062 226.5893096923828 155.91848754882812" stroke-width="0.0" fill="rgb(255, 237, 199)" opacity="0.9907826"/>
    <path d="M 238.09556579589844 338.5367431640625 C 236.6190948486328 345.27899169921875 231.38011169433594 350.92083740234375 223.6198272705078 353.5313415527344 C 216.1721649169922 351.47540283203125 210.89881896972656 345.69964599609375 208.99114990234375 338.01953125 C 211.00961303710938 330.5 216.5 325.0096130371094 223.88818359375 323.0151062011719 C 230.9378662109375 325.43585205078125 236.2035369873047 331.18218994140625 238.09556579589844 338.5367431640625" stroke-width="0.0" fill="rgb(244, 234, 199)" opacity="1.0"/>
    <path d="M 213.43589782714844 285.2079772949219 C 211.47091674804688 292.9668273925781 205.97291564941406 298.4877014160156 198.26882934570312 299.9873046875 C 190.2138671875 298.2605895996094 184.6278839111328 292.8215026855469 182.72384643554688 285.21435546875 C 185.00961303710938 277.5 190.5 272.0096130371094 198.11312866210938 269.8223876953125 C 205.70697021484375 271.79534912109375 211.2549285888672 277.2762145996094 213.43589782714844 285.2079772949219" stroke-width="0.0" fill="rgb(248, 232, 195)" opacity="1.0"/>
    <path d="M 192.8585662841797 408.0491638183594 C 190.66944885253906 415.9929504394531 184.79795837402344 421.1600036621094 177.0307159423828 423.015869140625 C 169.491455078125 420.9934997558594 163.92198181152344 415.5333557128906 161.32513427734375 407.5291748046875 C 163.332763671875 399.85284423828125 168.82904052734375 394.2721862792969 176.38070678710938 392.2406311035156 C 184.73809814453125 394.88006591796875 190.61135864257812 400.07525634765625 192.8585662841797 408.0491638183594" stroke-width="0.0" fill="rgb(252, 171, 94)" opacity="1.0"/>
    <path d="M 463.9615783691406 227.41795349121094 C 461.8921203613281 236.34921264648438 456.2729187011719 241.60264587402344 447.8821716308594 242.5708770751953 C 440.0067443847656 241.32440185546875 434.193359375 236.1778106689453 432.04827880859375 228.3909149169922 C 434.38775634765625 221.09335327148438 441.2956848144531 215.88172912597656 448.56817626953125 213.95993041992188 C 456.15814208984375 215.66835021972656 461.9004211425781 219.65579223632812 463.9615783691406 227.41795349121094" stroke-width="0.0" fill="rgb(2, 2, 3)" opacity="0.99002814"/>
    <path d="M 184.94522094726562 422.09197998046875 C 183.05105590820312 429.6439208984375 177.8768310546875 435.60955810546875 170.70806884765625 437.8749694824219 C 162.50001525878906 434.9903564453125 157.00961303710938 429.5 154.4605712890625 421.5332336425781 C 156.35372924804688 413.97637939453125 162.43057250976562 409.6250915527344 169.83074951171875 407.9273376464844 C 176.91162109375 409.7427062988281 182.677001953125 414.9347229003906 184.94522094726562 422.09197998046875" stroke-width="0.0" fill="rgb(10, 2, 2)" opacity="0.9900338"/>
    <path d="M 135.92413330078125 404.5719299316406 C 133.82034301757812 413.2799072265625 128.26748657226562 418.7914733886719 120.7488021850586 420.8218994140625 C 113.20580291748047 417.27978515625 107.78773498535156 411.7705993652344 105.70612335205078 404.19927978515625 C 106.18268585205078 396.71240234375 111.7316665649414 391.23199462890625 120.70500946044922 389.1038818359375 C 128.36395263671875 391.12640380859375 133.8777313232422 396.63421630859375 135.92413330078125 404.5719299316406" stroke-width="0.0" fill="rgb(239, 122, 49)" opacity="1.0"/>
    <path d="M 408.4498291015625 362.22503662109375 C 406.2107238769531 369.6836242675781 400.72430419921875 375.3238220214844 393.2317199707031 377.5889892578125 C 385.57366943359375 374.92376708984375 380.05743408203125 369.4334716796875 378.0032653808594 361.9844970703125 C 379.98907470703125 354.4521179199219 385.3725891113281 348.7455139160156 392.7740783691406 346.43896484375 C 400.6283874511719 348.7981262207031 406.0284729003906 354.42620849609375 408.4498291015625 362.22503662109375" stroke-width="0.0" fill="rgb(255, 236, 198)" opacity="0.9910707"/>
    <path d="M 252.87680053710938 123.19623565673828 C 250.0949249267578 131.59768676757812 244.62493896484375 137.17904663085938 237.0466766357422 139.39089965820312 C 229.23362731933594 137.2430877685547 223.5952606201172 131.81838989257812 221.56378173828125 124.39682006835938 C 223.89236450195312 116.11786651611328 228.9310760498047 110.29317474365234 236.7065887451172 108.22611236572266 C 245.25601196289062 110.25308990478516 250.84767150878906 115.70326232910156 252.87680053710938 123.19623565673828" stroke-width="0.0" fill="rgb(245, 234, 201)" opacity="1.0"/>
    <path d="M 158.5092010498047 260.49285888671875 C 156.02980041503906 268.5299987792969 150.5234832763672 274.0082092285156 143.0046844482422 276.0035400390625 C 135.5 273.9903869628906 130.00961303710938 268.5 127.45516967773438 260.43377685546875 C 129.19515991210938 252.66175842285156 134.63882446289062 247.12330627441406 142.9444122314453 245.23855590820312 C 151.32797241210938 247.14688110351562 156.7636260986328 252.70164489746094 158.5092010498047 260.49285888671875" stroke-width="0.0" fill="rgb(0, 0, 0)" opacity="1.0"/>
    <path d="M 375.3801574707031 216.2148895263672 C 373.07861328125 223.28875732421875 367.0762634277344 228.38966369628906 359.51007080078125 230.35484313964844 C 352.4991455078125 228.99070739746094 347.0013732910156 223.50308227539062 344.9715270996094 216.00384521484375 C 346.9720153808594 208.4252471923828 352.3517150878906 202.74356079101562 359.76568603515625 200.67852783203125 C 367.4805603027344 203.02317810058594 372.8854675292969 208.5481719970703 375.3801574707031 216.2148895263672" stroke-width="0.0" fill="rgb(250, 232, 196)" opacity="0.99114794"/>
    <path d="M 206.7635955810547 388.6831970214844 C 204.84503173828125 396.33062744140625 199.32611083984375 401.8323669433594 191.7502899169922 402.2330322265625 C 183.95819091796875 400.38079833984375 177.94558715820312 395.2245788574219 175.66732788085938 388.29217529296875 C 177.69895935058594 380.2306213378906 183.2587127685547 374.7856750488281 191.05496215820312 372.7808837890625 C 198.9197540283203 374.640869140625 204.59756469726562 380.0000915527344 206.7635955810547 388.6831970214844" stroke-width="0.0" fill="rgb(247, 233, 195)" opacity="1.0"/>
    <path d="M 517.15576171875 187.6813507080078 C 515.925048828125 194.48031616210938 510.49871826171875 199.99002075195312 503.0335693359375 201.98269653320312 C 495.81597900390625 199.80873107910156 490.73016357421875 193.96897888183594 488.9329833984375 186.25389099121094 C 489.1614990234375 178.6365509033203 494.62261962890625 173.11492919921875 502.0899963378906 172.9453582763672 C 509.6046142578125 174.93173217773438 515.120361328125 180.376220703125 517.15576171875 187.6813507080078" stroke-width="0.0" fill="rgb(2, 2, 3)" opacity="0.9900388"/>
    <path d="M 213.11083984375 248.27989196777344 C 211.5695037841797 256.1978454589844 206.30557250976562 261.8754577636719 198.1838836669922 263.9613342285156 C 189.6055145263672 261.9027099609375 184.0921630859375 256.3966369628906 182.0648193359375 248.8870391845703 C 185.8749237060547 241.3717041015625 191.38804626464844 235.92237854003906 198.72540283203125 233.961181640625 C 204.82122802734375 235.82034301757812 210.63140869140625 241.0100860595703 213.11083984375 248.27989196777344" stroke-width="0.0" fill="rgb(2, 3, 4)" opacity="0.9900171"/>
    <path d="M 136.73696899414062 447.1202697753906 C 134.99021911621094 454.4994201660156 129.4888916015625 459.95233154296875 121.84605407714844 461.3096008300781 C 114.46092987060547 460.2325744628906 109.44082641601562 454.28204345703125 107.93389892578125 447.65411376953125 C 109.69597625732422 439.97869873046875 114.75672149658203 434.1494140625 122.02827453613281 432.00848388671875 C 129.50436401367188 433.99847412109375 134.8860321044922 439.5304260253906 136.73696899414062 447.1202697753906" stroke-width="0.0" fill="rgb(251, 251, 251)" opacity="1.0"/>
    <path d="M 353.99981689453125 153.0000762939453 C 351.9903869628906 160.5 346.5 165.99038696289062 338.955322265625 168.0328369140625 C 331.22613525390625 166.17051696777344 325.3846740722656 160.9413299560547 323.3032531738281 153.55615234375 C 325.86834716796875 145.46142578125 331.50732421875 140.01885986328125 339.002685546875 138.00137329101562 C 346.4999694824219 140.00962829589844 351.9902648925781 145.5000762939453 353.99981689453125 153.0000762939453" stroke-width="0.0" fill="rgb(251, 231, 194)" opacity="1.0"/>
    <path d="M 75.0381851196289 361.8358459472656 C 73.36949920654297 368.1179504394531 68.34735107421875 373.9228820800781 61.132511138916016 375.86114501953125 C 53.76258850097656 373.6819152832031 48.30598831176758 368.2480163574219 46.854705810546875 360.4746398925781 C 47.33121871948242 352.7716369628906 52.762027740478516 347.2992248535156 60.16696548461914 346.9520568847656 C 67.60555267333984 348.92132568359375 73.07005310058594 354.398193359375 75.0381851196289 361.8358459472656" stroke-width="0.0" fill="rgb(2, 3, 4)" opacity="0.99000716"/>
    <path d="M 400.7540283203125 479.2602844238281 C 398.9903869628906 486.5 393.5 491.9903869628906 385.65509033203125 494.3667297363281 C 377.8932189941406 492.5935974121094 372.35015869140625 487.1249694824219 370.1910095214844 478.4103088378906 C 372.32244873046875 471.32958984375 379.0393371582031 466.7279968261719 386.0276184082031 464.8890686035156 C 392.84283447265625 466.74810791015625 398.4465637207031 472.0906066894531 400.7540283203125 479.2602844238281" stroke-width="0.0" fill="rgb(247, 131, 54)" opacity="0.9900875"/>
    <path d="M 379.0421447753906 355.6990661621094 C 377.0948181152344 362.6241455078125 371.6203308105469 368.086181640625 364.1707763671875 370.0625305175781 C 357.5422668457031 368.8581237792969 352.0105285644531 363.4969177246094 349.66766357421875 355.60406494140625 C 351.28741455078125 347.7159118652344 356.6582946777344 342.1164245605469 364.11187744140625 340.1359558105469 C 371.6557922363281 343.8816223144531 377.1152038574219 349.3450927734375 379.0421447753906 355.6990661621094" stroke-width="0.0" fill="rgb(13, 9, 9)" opacity="0.990011"/>
    <path d="M 570.6311645507812 0.42596063017845154 C 568.4422607421875 7.677804470062256 562.3219604492188 12.593138694763184 555.4171752929688 14.249899864196777 C 548.1123046875 12.3212308883667 542.6099243164062 6.911209583282471 540.315673828125 -0.33485060930252075 C 542.0096435546875 -7.5 547.5 -12.990381240844727 555.0 -15.0 C 562.5 -12.990381240844727 567.9903564453125 -7.5 570.6311645507812 0.42596063017845154" stroke-width="0.0" fill="rgb(142, 153, 167)" opacity="0.99007726"/>
    <path d="M 451.55596923828125 320.397705078125 C 449.561767578125 327.96185302734375 443.86859130859375 333.2772216796875 435.4577331542969 335.7113952636719 C 427.89630126953125 333.67950439453125 422.5364990234375 328.03338623046875 421.6248474121094 320.4364929199219 C 423.54815673828125 312.9759216308594 428.9652099609375 307.5180358886719 436.3817138671875 305.5311584472656 C 443.7255859375 306.7623596191406 449.15728759765625 312.2991943359375 451.55596923828125 320.397705078125" stroke-width="0.0" fill="rgb(252, 168, 89)" opacity="0.9900645"/>
    <path d="M 84.53612518310547 377.8218078613281 C 82.85599517822266 385.33221435546875 77.3170166015625 390.8173522949219 69.23835754394531 392.87994384765625 C 60.72594451904297 390.7897644042969 55.18820571899414 385.28277587890625 53.10006332397461 377.3722839355469 C 55.298240661621094 368.9963073730469 61.31302261352539 364.16595458984375 69.65725708007812 361.09051513671875 C 76.35791778564453 363.38818359375 81.29019165039062 370.06591796875 84.53612518310547 377.8218078613281" stroke-width="0.0" fill="rgb(242, 131, 64)" opacity="0.99013585"/>
    <path d="M 522.7823486328125 -0.31066271662712097 C 520.385986328125 6.89679479598999 514.8771362304688 12.324356079101562 507.8843688964844 14.25490665435791 C 501.0569763183594 12.399225234985352 495.6302185058594 6.9319047927856445 493.5345153808594 -0.42986223101615906 C 495.0096130371094 -7.5 500.5 -12.990381240844727 508.0 -15.0 C 515.5 -12.990381240844727 520.9903564453125 -7.5 522.7823486328125 -0.31066271662712097" stroke-width="0.0" fill="rgb(140, 151, 165)" opacity="0.9900632"/>
    <path d="M 536.8546752929688 219.94293212890625 C 535.3565673828125 228.0486602783203 530.1846923828125 233.78598022460938 522.8975830078125 234.15286254882812 C 515.3978881835938 232.0723114013672 509.88134765625 226.61744689941406 507.87091064453125 219.29237365722656 C 509.56683349609375 213.07240295410156 515.0839233398438 207.61666870117188 522.6759033203125 205.5267791748047 C 529.5810546875 206.63389587402344 534.8826904296875 212.60098266601562 536.8546752929688 219.94293212890625" stroke-width="0.0" fill="rgb(250, 244, 231)" opacity="0.99003136"/>
    <path d="M 242.0462188720703 188.96353149414062 C 239.99038696289062 196.5 234.5 201.99038696289062 226.90174865722656 204.06137084960938 C 219.09005737304688 202.31300354003906 213.4645538330078 196.9778594970703 212.6639862060547 188.6652069091797 C 213.5943603515625 181.22901916503906 219.31398010253906 175.8334197998047 226.92832946777344 173.84259033203125 C 234.49847412109375 176.0557861328125 240.0657196044922 181.46307373046875 242.0462188720703 188.96353149414062" stroke-width="0.0" fill="rgb(249, 232, 195)" opacity="1.0"/>
    <path d="M 230.40585327148438 323.79095458984375 C 227.99862670898438 331.502197265625 222.49986267089844 336.9900817871094 214.99168395996094 339.0032958984375 C 207.3519287109375 337.0569152832031 201.50379943847656 331.8086853027344 200.5604248046875 323.6693115234375 C 201.36358642578125 315.8802490234375 206.89768981933594 310.4268798828125 215.00242614746094 309.73492431640625 C 222.6288299560547 310.88543701171875 228.2299041748047 316.3367614746094 230.40585327148438 323.79095458984375" stroke-width="0.0" fill="rgb(250, 236, 205)" opacity="1.0"/>
    <path d="M 342.9767761230469 498.96075439453125 C 340.8122863769531 506.2171325683594 335.0606689453125 511.37994384765625 327.78961181640625 513.1299438476562 C 319.9044494628906 511.921875 314.192138671875 507.2374572753906 312.1933288574219 499.6605529785156 C 314.5050354003906 491.0176086425781 320.0340576171875 485.5589294433594 327.79241943359375 483.7984924316406 C 335.5 486.0096130371094 340.9903869628906 491.5 342.9767761230469 498.96075439453125" stroke-width="0.0" fill="rgb(205, 119, 72)" opacity="0.9935458"/>
    <path d="M 426.0403747558594 270.5352783203125 C 424.1004943847656 276.6280822753906 418.6246032714844 282.09234619140625 411.07098388671875 285.8412170410156 C 403.5849609375 283.92510986328125 398.10858154296875 278.4026184082031 396.2090759277344 270.7621765136719 C 398.8264465332031 262.18389892578125 403.9822692871094 256.3069763183594 411.1315612792969 255.50184631347656 C 418.6089782714844 257.91339111328125 424.0760498046875 263.3951721191406 426.0403747558594 270.5352783203125" stroke-width="0.0" fill="rgb(2, 2, 2)" opacity="0.9900116"/>
    <path d="M 182.019775390625 239.97499084472656 C 179.99038696289062 247.5 174.5 252.99038696289062 166.73985290527344 255.22634887695312 C 158.8989715576172 253.54476928710938 153.32435607910156 248.14122009277344 151.37985229492188 240.35916137695312 C 153.62881469726562 232.26036071777344 159.3818817138672 227.0026397705078 167.1073455810547 224.76504516601562 C 174.67013549804688 226.77403259277344 180.08258056640625 232.37435913085938 182.019775390625 239.97499084472656" stroke-width="0.0" fill="rgb(253, 236, 196)" opacity="0.9920601"/>
    <path d="M 152.2493133544922 459.77154541015625 C 149.9131622314453 467.4606628417969 144.5509033203125 473.1858825683594 137.40660095214844 475.2958984375 C 129.5088348388672 472.6799011230469 123.37377166748047 467.88525390625 121.2183609008789 460.6036071777344 C 123.99608612060547 452.4931640625 129.49639892578125 447.0072326660156 137.27146911621094 444.7215270996094 C 144.96713256835938 446.4986572265625 150.4172821044922 452.060546875 152.2493133544922 459.77154541015625" stroke-width="0.0" fill="rgb(250, 251, 251)" opacity="1.0"/>
    <path d="M 289.78240966796875 424.3230895996094 C 287.6057434082031 431.9925537109375 281.8886413574219 437.3006896972656 274.10247802734375 439.0828552246094 C 266.4998779296875 436.99041748046875 261.0036926269531 431.501708984375 258.365478515625 423.621337890625 C 260.62139892578125 416.31170654296875 266.4476013183594 411.00311279296875 273.78338623046875 409.5060119628906 C 281.26141357421875 411.3543701171875 287.2537536621094 416.55865478515625 289.78240966796875 424.3230895996094" stroke-width="0.0" fill="rgb(253, 178, 101)" opacity="0.9901189"/>
    <path d="M 491.298095703125 488.1329040527344 C 489.1435546875 495.6827392578125 483.6809387207031 501.1392822265625 477.0321044921875 503.0645446777344 C 470.3088684082031 501.1400451660156 464.7109680175781 495.7332458496094 461.13958740234375 489.5559387207031 C 464.76300048828125 482.2679748535156 470.295654296875 476.8465576171875 477.82550048828125 474.87957763671875 C 485.3508605957031 475.1531677246094 490.86395263671875 480.6437683105469 491.298095703125 488.1329040527344" stroke-width="0.0" fill="rgb(140, 74, 40)" opacity="0.99001896"/>
    <path d="M 353.8909912109375 497.3128967285156 C 351.77496337890625 505.0987548828125 345.5303039550781 509.4132080078125 337.52392578125 511.2002868652344 C 330.5514831542969 509.8252258300781 325.003173828125 504.501708984375 322.9985046386719 497.0022888183594 C 325.0096130371094 489.5 330.5 484.0096130371094 338.51898193359375 481.5105285644531 C 346.246337890625 483.2470397949219 351.77313232421875 488.7476806640625 353.8909912109375 497.3128967285156" stroke-width="0.0" fill="rgb(235, 138, 82)" opacity="1.0"/>
    <path d="M 298.40020751953125 316.8701477050781 C 296.2408752441406 324.743408203125 290.74237060546875 330.24053955078125 283.0047607421875 332.2919616699219 C 275.1820068359375 330.3207702636719 269.7069396972656 324.8097839355469 267.5832214355469 316.8390808105469 C 269.6959228515625 309.2502746582031 275.25335693359375 303.7056884765625 283.1279602050781 301.4022521972656 C 290.820556640625 303.6185302734375 296.32818603515625 309.19708251953125 298.40020751953125 316.8701477050781" stroke-width="0.0" fill="rgb(255, 237, 200)" opacity="0.9908121"/>
    <path d="M 354.2687072753906 205.77577209472656 C 352.0263366699219 213.5604705810547 346.6001281738281 219.1551971435547 339.06622314453125 221.2250518798828 C 331.3491516113281 219.0678253173828 325.6774597167969 213.7310791015625 323.58563232421875 206.23995971679688 C 326.0702819824219 198.5087127685547 331.4708557128906 192.944580078125 339.08843994140625 190.65565490722656 C 346.87744140625 192.6278533935547 352.41998291015625 198.10751342773438 354.2687072753906 205.77577209472656" stroke-width="0.0" fill="rgb(255, 237, 198)" opacity="0.9909867"/>
    <path d="M 266.1728515625 175.859375 C 264.00091552734375 183.52816772460938 258.5631103515625 189.1151123046875 251.03797912597656 191.19439697265625 C 243.4566192626953 189.0338897705078 237.88929748535156 183.5674591064453 235.4769744873047 175.83924865722656 C 237.7401123046875 168.35409545898438 243.42022705078125 162.93478393554688 250.77040100097656 160.9796142578125 C 258.5911865234375 163.09530639648438 264.2624816894531 168.3079833984375 266.1728515625 175.859375" stroke-width="0.0" fill="rgb(255, 237, 200)" opacity="0.9911301"/>
    <path d="M 183.69854736328125 241.42098999023438 C 181.63343811035156 248.8000946044922 174.9539337158203 253.1992645263672 168.56988525390625 255.04534912109375 C 161.3277587890625 253.11412048339844 155.75845336914062 247.71665954589844 153.44325256347656 240.53378295898438 C 155.0094451904297 233.49986267089844 160.49984741210938 228.00941467285156 168.07823181152344 225.9214630126953 C 175.73345947265625 227.7974853515625 181.34921264648438 233.2202606201172 183.69854736328125 241.42098999023438" stroke-width="0.0" fill="rgb(250, 231, 193)" opacity="0.9902225"/>
    <path d="M 147.8544921875 214.91928100585938 C 146.01011657714844 222.54470825195312 140.58786010742188 228.15505981445312 132.9413604736328 230.46298217773438 C 125.3567123413086 228.19796752929688 119.90103912353516 222.61338806152344 117.56645965576172 214.7805633544922 C 119.6886978149414 207.2518310546875 125.25849914550781 201.7067108154297 132.88673400878906 199.5677947998047 C 140.7769775390625 201.73350524902344 146.2477569580078 207.22805786132812 147.8544921875 214.91928100585938" stroke-width="0.0" fill="rgb(255, 236, 198)" opacity="0.9909685"/>
    <path d="M 389.377197265625 125.73636627197266 C 386.84637451171875 133.47349548339844 381.5882263183594 139.19664001464844 374.3110046386719 141.33236694335938 C 366.4323425292969 138.9278106689453 360.8861999511719 133.61834716796875 359.2281799316406 126.07762908935547 C 361.1752014160156 118.59087371826172 366.5477600097656 113.03532409667969 373.99151611328125 111.01251220703125 C 381.446533203125 113.05573272705078 387.06292724609375 118.52237701416016 389.377197265625 125.73636627197266" stroke-width="0.0" fill="rgb(255, 236, 197)" opacity="0.99120694"/>
    <path d="M 210.53323364257812 365.6785888671875 C 209.72694396972656 373.1257629394531 204.05636596679688 378.5585021972656 196.34820556640625 380.41815185546875 C 188.5648193359375 377.9544982910156 183.11524963378906 372.4133605957031 181.02882385253906 365.0796203613281 C 183.16627502441406 357.5938720703125 188.5423126220703 351.9934387207031 195.9796905517578 349.8714904785156 C 203.67727661132812 351.84002685546875 209.12628173828125 357.33038330078125 210.53323364257812 365.6785888671875" stroke-width="0.0" fill="rgb(249, 230, 191)" opacity="1.0"/>
    <path d="M 398.92987060546875 276.869873046875 C 396.9156799316406 284.4073486328125 391.4047546386719 289.9096374511719 383.78179931640625 291.953857421875 C 376.16455078125 289.44268798828125 370.8809814453125 282.6933898925781 368.9239196777344 275.11993408203125 C 369.1134948730469 267.61260986328125 374.6127014160156 262.1132507324219 382.22149658203125 260.1731872558594 C 390.5002136230469 263.0095520019531 396.0060729980469 268.4955139160156 398.92987060546875 276.869873046875" stroke-width="0.0" fill="rgb(2, 2, 2)" opacity="0.990077"/>
    <path d="M 471.867919921875 404.1390075683594 C 468.7151794433594 412.41021728515625 463.80517578125 418.5935363769531 455.14892578125 420.95001220703125 C 447.59002685546875 418.9187927246094 442.0854187011719 413.4081115722656 440.0362854003906 404.9548034667969 C 442.09417724609375 396.632568359375 447.7183837890625 391.615966796875 456.88787841796875 389.41778564453125 C 464.404296875 391.08843994140625 469.9100341796875 396.5962829589844 471.867919921875 404.1390075683594" stroke-width="0.0" fill="rgb(3, 3, 3)" opacity="0.99005336"/>
    <path d="M 525.5989990234375 439.6408996582031 C 523.8933715820312 447.8608093261719 519.0689697265625 453.7037353515625 511.4314270019531 455.8544921875 C 503.34649658203125 453.3487854003906 498.07147216796875 447.5089111328125 496.1584167480469 440.1943054199219 C 498.2516784667969 432.64837646484375 503.6150207519531 427.1592102050781 511.31878662109375 424.84637451171875 C 518.8060302734375 426.6587829589844 524.2328491210938 432.2276306152344 525.5989990234375 439.6408996582031" stroke-width="0.0" fill="rgb(252, 252, 250)" opacity="1.0"/>
    <path d="M 98.5967025756836 475.62579345703125 C 96.86446380615234 483.37066650390625 91.379638671875 488.8896484375 83.89633178710938 489.0964660644531 C 76.379638671875 487.092041015625 70.91680145263672 481.61663818359375 68.96492004394531 474.7354431152344 C 70.89618682861328 468.2877502441406 75.98539733886719 461.389892578125 82.50093078613281 459.599609375 C 90.9710693359375 461.46331787109375 96.46236419677734 467.0582580566406 98.5967025756836 475.62579345703125" stroke-width="0.0" fill="rgb(32, 9, 6)" opacity="0.99000764"/>
    <path d="M 161.86961364746094 294.0754089355469 C 160.1058349609375 301.62481689453125 154.6480712890625 307.18603515625 146.57550048828125 309.6561584472656 C 139.00042724609375 307.5561218261719 133.4326934814453 302.003662109375 131.22483825683594 294.18701171875 C 133.5092010498047 286.1397705078125 139.2523651123047 280.84356689453125 146.9439239501953 278.992431640625 C 154.4473114013672 281.0596008300781 159.9085693359375 286.5619812011719 161.86961364746094 294.0754089355469" stroke-width="0.0" fill="rgb(252, 214, 159)" opacity="1.0"/>
    <path d="M 173.68370056152344 430.6744384765625 C 171.85317993164062 438.37188720703125 166.3891143798828 443.9029541015625 158.85317993164062 445.7671203613281 C 150.96580505371094 442.4374694824219 145.5734405517578 437.02923583984375 143.0017852783203 429.1580505371094 C 144.10304260253906 421.6040954589844 149.60076904296875 416.0940246582031 157.15243530273438 414.0932922363281 C 165.47744750976562 417.03936767578125 170.9761505126953 422.5179138183594 173.68370056152344 430.6744384765625" stroke-width="0.0" fill="rgb(2, 4, 2)" opacity="0.9900335"/>
    <path d="M 406.9169921875 484.0058898925781 C 404.6537780761719 491.6524963378906 398.02618408203125 496.34912109375 390.42303466796875 498.2525634765625 C 382.8299255371094 497.617919921875 377.3058776855469 492.1904296875 375.5248718261719 484.44830322265625 C 377.9601135253906 476.4569396972656 383.4547424316406 470.95263671875 391.1305236816406 468.79290771484375 C 398.9614562988281 470.6226806640625 404.713134765625 475.9126892089844 406.9169921875 484.0058898925781" stroke-width="0.0" fill="rgb(234, 138, 79)" opacity="1.0"/>
    <path d="M 226.95248413085938 335.9710693359375 C 224.95384216308594 343.4944763183594 219.55905151367188 349.15948486328125 212.14724731445312 351.4945373535156 C 204.38360595703125 349.1245422363281 198.9325408935547 343.59912109375 197.34103393554688 336.0351257324219 C 198.5362548828125 327.9975891113281 203.99395751953125 322.5140380859375 211.75372314453125 320.6008605957031 C 219.51239013671875 322.98223876953125 224.9967803955078 328.4934997558594 226.95248413085938 335.9710693359375" stroke-width="0.0" fill="rgb(251, 232, 196)" opacity="1.0"/>
    <path d="M 477.5582580566406 192.3853759765625 C 475.4149169921875 199.7957305908203 469.72650146484375 205.2203826904297 462.0686950683594 207.3517608642578 C 454.4747009277344 205.060791015625 449.0086975097656 199.50506591796875 447.0002136230469 191.99984741210938 C 449.0096740722656 184.50003051757812 454.5000305175781 179.00961303710938 462.1672668457031 176.59579467773438 C 469.35223388671875 179.02352905273438 474.7641296386719 184.70269775390625 477.5582580566406 192.3853759765625" stroke-width="0.0" fill="rgb(254, 237, 199)" opacity="0.9914889"/>
    <path d="M 368.3194580078125 361.49957275390625 C 366.20220947265625 368.680908203125 360.63592529296875 374.08099365234375 353.3212890625 376.0320739746094 C 346.9914855957031 374.1533203125 340.13995361328125 370.2118835449219 338.0384521484375 361.3511962890625 C 340.1102600097656 353.6865539550781 345.93994140625 349.6376647949219 354.6752014160156 347.9115295410156 C 361.4261779785156 349.1401672363281 366.8044738769531 354.5942687988281 368.3194580078125 361.49957275390625" stroke-width="0.0" fill="rgb(2, 2, 2)" opacity="0.9900185"/>
    <path d="M 283.0328063964844 64.03646087646484 C 281.11163330078125 71.64588165283203 275.6929016113281 77.26350402832031 267.5646057128906 79.74569702148438 C 260.015380859375 77.60725402832031 254.70399475097656 71.87530517578125 253.1911163330078 64.19742584228516 C 255.14576721191406 56.468467712402344 260.31854248046875 50.68272018432617 267.9544677734375 48.468711853027344 C 275.56854248046875 50.8546257019043 281.00042724609375 56.47592544555664 283.0328063964844 64.03646087646484" stroke-width="0.0" fill="rgb(254, 235, 196)" opacity="0.9915921"/>
    <path d="M 427.5269470214844 224.61280822753906 C 425.7977294921875 232.2757568359375 420.2699890136719 237.7825164794922 412.71466064453125 238.27891540527344 C 404.5857849121094 236.75657653808594 399.01324462890625 231.4885711669922 396.9864501953125 223.9635772705078 C 398.8660583496094 216.31747436523438 404.29742431640625 210.80081176757812 412.19146728515625 208.75013732910156 C 419.7579040527344 210.69224548339844 425.22723388671875 216.2669219970703 427.5269470214844 224.61280822753906" stroke-width="0.0" fill="rgb(248, 236, 205)" opacity="1.0"/>
    <path d="M 249.95237731933594 195.00579833984375 C 247.9911346435547 202.51502990722656 242.51478576660156 207.9925537109375 234.99559020996094 209.98825073242188 C 227.50003051757812 207.99037170410156 222.0101318359375 202.4998321533203 220.00523376464844 194.9992218017578 C 222.0098419189453 187.5000762939453 227.50001525878906 182.0095977783203 235.00631713867188 179.98609924316406 C 242.51048278808594 181.99949645996094 248.00946044921875 187.48658752441406 249.95237731933594 195.00579833984375" stroke-width="0.0" fill="rgb(252, 234, 198)" opacity="0.99318117"/>
    <path d="M 408.0619201660156 261.26629638671875 C 406.1102294921875 268.645263671875 400.651123046875 274.12548828125 394.4541320800781 276.0526123046875 C 387.3417663574219 274.1197509765625 381.8761901855469 268.6598815917969 379.806396484375 261.1231384277344 C 380.1553955078125 253.6964111328125 385.7480163574219 248.31488037109375 394.3368225097656 246.29833984375 C 402.0683288574219 248.3372344970703 406.7124938964844 254.11668395996094 408.0619201660156 261.26629638671875" stroke-width="0.0" fill="rgb(173, 190, 218)" opacity="0.9900157"/>
    <path d="M 311.79217529296875 105.86064147949219 C 309.7188720703125 114.15689086914062 304.0832214355469 119.47984313964844 296.18951416015625 121.44142150878906 C 288.5679931640625 118.93441009521484 283.1158447265625 113.4171371459961 280.51202392578125 105.67899322509766 C 282.6870422363281 98.24697875976562 288.2485046386719 92.69465637207031 296.4427795410156 90.32283020019531 C 304.1446838378906 92.33391571044922 309.7165832519531 97.83642578125 311.79217529296875 105.86064147949219" stroke-width="0.0" fill="rgb(250, 232, 196)" opacity="1.0"/>
    <path d="M 359.556640625 162.04808044433594 C 357.3329772949219 169.80389404296875 351.8327331542969 175.41429138183594 344.2718200683594 177.64044189453125 C 336.4878234863281 175.0855712890625 330.9462890625 169.49969482421875 328.649169921875 162.14723205566406 C 331.0095520019531 154.49993896484375 336.49993896484375 149.00953674316406 343.99176025390625 147.00755310058594 C 351.4898681640625 149.03060913085938 357.1253662109375 154.4619598388672 359.556640625 162.04808044433594" stroke-width="0.0" fill="rgb(255, 236, 198)" opacity="0.99141866"/>
    <path d="M 474.804443359375 311.89404296875 C 472.6471862792969 320.1177673339844 467.123046875 325.6607666015625 458.79913330078125 327.8167724609375 C 450.9920349121094 325.63262939453125 445.71649169921875 319.8869934082031 443.4344482421875 311.57464599609375 C 445.352294921875 303.8731689453125 450.8670349121094 298.33477783203125 459.2558288574219 296.1936950683594 C 467.13543701171875 298.3092041015625 472.6575927734375 303.8783264160156 474.804443359375 311.89404296875" stroke-width="0.0" fill="rgb(254, 169, 90)" opacity="1.0"/>
    <path d="M 414.9474792480469 231.8601531982422 C 412.90594482421875 239.39315795898438 407.390869140625 244.90078735351562 399.8558654785156 246.92152404785156 C 391.5 243.99038696289062 386.0096130371094 238.5 384.252197265625 231.312255859375 C 386.659912109375 224.22933959960938 392.30615234375 218.88279724121094 398.46826171875 216.96240234375 C 405.6430969238281 218.9054718017578 411.2341613769531 224.31561279296875 414.9474792480469 231.8601531982422" stroke-width="0.0" fill="rgb(4, 3, 2)" opacity="0.99001575"/>
    <path d="M 30.275253295898438 11.677406311035156 C 28.345088958740234 18.902284622192383 22.896425247192383 24.329744338989258 15.661137580871582 26.248428344726562 C 8.268359184265137 24.77838706970215 2.461162805557251 19.921939849853516 0.2568763494491577 11.850594520568848 C 2.3701701164245605 3.936511278152466 7.988935947418213 -1.4735441207885742 15.859820365905762 -3.3482632637023926 C 23.560102462768555 -1.195263147354126 28.62590980529785 4.652203559875488 30.275253295898438 11.677406311035156" stroke-width="0.0" fill="rgb(141, 152, 166)" opacity="0.99004966"/>
    <path d="M 203.28256225585938 275.77301025390625 C 200.99154663085938 283.50244140625 195.5052947998047 289.00140380859375 187.76229858398438 291.37042236328125 C 180.20362854003906 289.3642578125 174.6437225341797 283.7925720214844 172.29464721679688 275.6919860839844 C 174.35496520996094 267.8787536621094 179.8311309814453 262.2447509765625 187.2957305908203 260.18756103515625 C 195.88975524902344 262.60760498046875 201.41049194335938 268.10528564453125 203.28256225585938 275.77301025390625" stroke-width="0.0" fill="rgb(247, 232, 195)" opacity="1.0"/>
    <path d="M 456.4288330078125 247.41160583496094 C 454.14202880859375 254.53860473632812 448.4334716796875 259.81982421875 440.8935241699219 261.68548583984375 C 433.5966491699219 259.8444519042969 428.06195068359375 254.4315643310547 425.3668518066406 246.4452362060547 C 427.2744445800781 238.8220977783203 432.92718505859375 233.92041015625 440.3289794921875 232.94712829589844 C 447.67840576171875 234.8788604736328 453.2750549316406 240.27284240722656 456.4288330078125 247.41160583496094" stroke-width="0.0" fill="rgb(251, 232, 196)" opacity="0.9900307"/>
    <path d="M 338.0364074707031 82.64556121826172 C 336.1670837402344 88.76888275146484 330.8475646972656 94.36193084716797 323.4100036621094 97.12974548339844 C 315.6966552734375 95.74642944335938 310.10699462890625 90.35468292236328 308.03887939453125 81.632080078125 C 310.0960388183594 73.60987091064453 315.6158142089844 68.11007690429688 323.3926696777344 66.05425262451172 C 330.7567138671875 68.77911376953125 336.08917236328125 75.34883880615234 338.0364074707031 82.64556121826172" stroke-width="0.0" fill="rgb(2, 2, 2)" opacity="0.99002385"/>
    <path d="M 366.6936340332031 330.69140625 C 364.856689453125 338.3586730957031 359.3493957519531 343.8224792480469 351.78314208984375 344.0841369628906 C 344.2925109863281 342.15618896484375 338.76318359375 336.73529052734375 336.5216979980469 329.4991455078125 C 338.12127685546875 322.7225646972656 343.92510986328125 317.64154052734375 351.6070556640625 315.7859191894531 C 358.5 317.0096130371094 363.9903869628906 322.5 366.6936340332031 330.69140625" stroke-width="0.0" fill="rgb(4, 6, 10)" opacity="0.99001443"/>
    <path d="M 195.17111206054688 423.1495361328125 C 193.2679901123047 431.24005126953125 189.16595458984375 437.83587646484375 180.65061950683594 439.9537658691406 C 172.76449584960938 437.8396911621094 167.58236694335938 432.0787048339844 166.02679443359375 424.1833190917969 C 168.22140502929688 416.7692565917969 173.9295196533203 411.6290588378906 181.84239196777344 408.5155029296875 C 189.37095642089844 410.1263122558594 194.8861541748047 415.6239013671875 195.17111206054688 423.1495361328125" stroke-width="0.0" fill="rgb(2, 2, 2)" opacity="0.99006784"/>
    <path d="M 243.39842224121094 208.2808837890625 C 241.40724182128906 215.84864807128906 235.8091278076172 221.28184509277344 228.12469482421875 223.1175079345703 C 220.53944396972656 220.9582061767578 215.08294677734375 215.44842529296875 212.70388793945312 207.69061279296875 C 214.55099487304688 200.17306518554688 220.291015625 194.91477966308594 227.9954376220703 193.0146026611328 C 235.49954223632812 195.00985717773438 240.98524475097656 200.50181579589844 243.39842224121094 208.2808837890625" stroke-width="0.0" fill="rgb(249, 232, 194)" opacity="1.0"/>
    <path d="M 157.25845336914062 276.41656494140625 C 155.53749084472656 283.1125183105469 150.13873291015625 288.6188049316406 142.62075805664062 291.2947082519531 C 135.00119018554688 289.47955322265625 129.35374450683594 284.0592041015625 127.26964569091797 276.5614929199219 C 130.1591339111328 268.7693786621094 135.9681854248047 263.6727600097656 142.43508911132812 261.928955078125 C 149.7075653076172 263.8473815917969 155.2329864501953 269.2636413574219 157.25845336914062 276.41656494140625" stroke-width="0.0" fill="rgb(249, 163, 92)" opacity="0.99002004"/>
    <path d="M 472.7882995605469 357.2354431152344 C 470.66986083984375 365.10784912109375 465.0889587402344 370.6243591308594 456.9510498046875 372.79949951171875 C 448.91461181640625 370.64599609375 443.4002380371094 365.0675964355469 441.40936279296875 357.44696044921875 C 444.0098876953125 349.5002136230469 449.50018310546875 344.009765625 457.3800048828125 341.524169921875 C 465.0617370605469 343.42315673828125 470.6252136230469 348.92108154296875 472.7882995605469 357.2354431152344" stroke-width="0.0" fill="rgb(254, 174, 95)" opacity="1.0"/>
    <path d="M 417.9626770019531 448.7275695800781 C 415.912841796875 457.40557861328125 410.4047546386719 462.9109191894531 402.46954345703125 464.9571228027344 C 393.6045227050781 462.9025573730469 388.0924072265625 457.39764404296875 386.05023193359375 449.77978515625 C 388.57470703125 442.16937255859375 395.3188171386719 436.89697265625 402.9034118652344 434.9042053222656 C 410.3966369628906 435.1024169921875 415.91412353515625 440.5968017578125 417.9626770019531 448.7275695800781" stroke-width="0.0" fill="rgb(2, 2, 3)" opacity="0.9901507"/>
    <path d="M 284.7767639160156 434.62274169921875 C 282.7320861816406 442.1831359863281 277.1713562011719 447.70294189453125 269.37432861328125 449.80047607421875 C 260.9481506347656 447.5871887207031 255.3994140625 442.0569763183594 253.19891357421875 433.7241516113281 C 255.3876495361328 426.0135192871094 261.1296081542969 420.72149658203125 268.90887451171875 418.9314270019531 C 276.5 421.0101013183594 281.99847412109375 426.4976501464844 284.7767639160156 434.62274169921875" stroke-width="0.0" fill="rgb(255, 176, 97)" opacity="1.0"/>
    <path d="M 293.4366760253906 219.78758239746094 C 291.2394104003906 227.7232208251953 285.7125549316406 233.21144104003906 277.84393310546875 235.51329040527344 C 270.2957763671875 233.2935028076172 264.8477478027344 227.6564483642578 262.4569091796875 219.83273315429688 C 264.8356628417969 212.45750427246094 270.5393371582031 207.08665466308594 278.1865234375 204.46127319335938 C 285.6878356933594 206.79110717773438 291.314208984375 212.27496337890625 293.4366760253906 219.78758239746094" stroke-width="0.0" fill="rgb(255, 236, 198)" opacity="0.99099654"/>
    <path d="M 346.9945373535156 494.0115661621094 C 344.9903869628906 501.5 339.5 506.9903869628906 332.26458740234375 508.65325927734375 C 324.88409423828125 506.547607421875 319.32696533203125 501.15496826171875 316.4316101074219 493.4378662109375 C 318.2598571777344 485.76788330078125 323.7803955078125 480.30487060546875 331.3932800292969 479.874755859375 C 339.1729736328125 481.54595947265625 344.9142150878906 486.6537170410156 346.9945373535156 494.0115661621094" stroke-width="0.0" fill="rgb(243, 131, 55)" opacity="0.99249524"/>
    <path d="M 349.02960205078125 495.0357360839844 C 346.9666442871094 502.4269714355469 341.3584899902344 507.7472839355469 333.89190673828125 509.4891052246094 C 326.57379150390625 507.8546142578125 321.0338439941406 502.4600830078125 319.0085754394531 494.996826171875 C 321.0148620605469 487.50457763671875 326.5048522949219 482.015869140625 333.4953308105469 480.6659851074219 C 341.04083251953125 482.6229248046875 346.79638671875 487.8135986328125 349.02960205078125 495.0357360839844" stroke-width="0.0" fill="rgb(244, 130, 54)" opacity="0.99206483"/>
    <path d="M 175.37896728515625 353.3352355957031 C 173.86354064941406 360.5701599121094 168.7770538330078 366.4667053222656 160.68020629882812 368.8163757324219 C 153.0059051513672 366.6116638183594 147.6787567138672 360.8927307128906 145.8282928466797 353.0155334472656 C 147.6853790283203 345.0996398925781 153.01507568359375 339.4251403808594 160.42141723632812 338.2359619140625 C 168.00772094726562 340.5628662109375 173.4491424560547 345.9878234863281 175.37896728515625 353.3352355957031" stroke-width="0.0" fill="rgb(247, 164, 93)" opacity="0.990062"/>
    <path d="M 138.86659240722656 263.71917724609375 C 136.82032775878906 271.2584228515625 131.18478393554688 276.5971374511719 123.74199676513672 277.1163024902344 C 116.38433837890625 275.10321044921875 110.93342590332031 269.6014404296875 108.96308898925781 262.12298583984375 C 109.20929718017578 254.65882873535156 114.6317367553711 249.1140899658203 122.68608093261719 247.0613250732422 C 131.3096923828125 249.1385040283203 136.66116333007812 254.7581787109375 138.86659240722656 263.71917724609375" stroke-width="0.0" fill="rgb(2, 2, 2)" opacity="0.990024"/>
    <path d="M 379.1040344238281 317.77655029296875 C 376.8811340332031 325.47088623046875 371.5299072265625 331.0669250488281 364.53411865234375 332.6007385253906 C 357.1244201660156 330.2364807128906 350.3264465332031 325.38543701171875 348.095703125 318.58660888671875 C 350.596435546875 310.2410888671875 356.3222351074219 304.82916259765625 363.9479675292969 303.07891845703125 C 371.719482421875 304.8277282714844 377.2663879394531 310.2529602050781 379.1040344238281 317.77655029296875" stroke-width="0.0" fill="rgb(249, 232, 196)" opacity="0.9902943"/>
    <path d="M 212.62551879882812 480.49969482421875 C 210.7880096435547 488.0966491699219 204.41847229003906 492.4151306152344 197.3538055419922 494.29736328125 C 190.33364868164062 492.17791748046875 184.90744018554688 486.6368713378906 182.96182250976562 479.5487060546875 C 184.86770629882812 473.25201416015625 189.9961395263672 466.4930419921875 197.77935791015625 464.05560302734375 C 205.38243103027344 466.0956726074219 210.82269287109375 471.645751953125 212.62551879882812 480.49969482421875" stroke-width="0.0" fill="rgb(5, 6, 7)" opacity="0.9900072"/>
    <path d="M 256.65966796875 259.5134582519531 C 254.0480194091797 267.6394348144531 248.74513244628906 273.3731994628906 241.2220458984375 275.60614013671875 C 233.3141326904297 273.200927734375 228.03025817871094 267.6304016113281 225.18408203125 259.18115234375 C 227.14161682128906 251.6579132080078 232.66539001464844 246.16322326660156 240.53504943847656 244.24073791503906 C 249.1770782470703 246.2550811767578 254.6416015625 251.86502075195312 256.65966796875 259.5134582519531" stroke-width="0.0" fill="rgb(229, 219, 187)" opacity="1.0"/>
    <path d="M 339.8190612792969 456.56317138671875 C 336.3468933105469 463.7780456542969 330.7242126464844 469.1614074707031 323.1673889160156 471.1385803222656 C 315.7348327636719 470.8055114746094 310.28857421875 465.2309875488281 308.1789245605469 456.71319580078125 C 310.3001403808594 448.865478515625 315.8947448730469 443.3744201660156 323.83935546875 441.26702880859375 C 332.0202941894531 443.4503173828125 337.6207580566406 448.9524841308594 339.8190612792969 456.56317138671875" stroke-width="0.0" fill="rgb(248, 174, 98)" opacity="0.9900579"/>
    <path d="M 350.8704528808594 322.20428466796875 C 347.98016357421875 331.1153259277344 343.2430114746094 336.8048400878906 335.6621398925781 338.7972412109375 C 327.59625244140625 335.9210205078125 321.8684997558594 330.4698181152344 319.44158935546875 322.8388366699219 C 321.6451110839844 315.1943664550781 327.234375 309.77764892578125 335.03564453125 308.1152038574219 C 343.0123291015625 309.6216125488281 348.7880554199219 314.8330078125 350.8704528808594 322.20428466796875" stroke-width="0.0" fill="rgb(246, 234, 201)" opacity="0.99003655"/>
    <path d="M 99.88191223144531 201.2638397216797 C 96.38021850585938 208.87185668945312 90.91820526123047 214.62405395507812 83.3458023071289 217.88720703125 C 75.86458587646484 215.77932739257812 71.56710052490234 209.71902465820312 69.88651275634766 202.43084716796875 C 71.78496551513672 195.2309112548828 77.22859191894531 189.77902221679688 84.76456451416016 187.71575927734375 C 92.26895904541016 188.2292022705078 97.83199310302734 193.70663452148438 99.88191223144531 201.2638397216797" stroke-width="0.0" fill="rgb(206, 120, 70)" opacity="0.9900391"/>
    <path d="M 227.94676208496094 247.81178283691406 C 225.9062042236328 255.39833068847656 220.39913940429688 260.9080810546875 212.60562133789062 262.95819091796875 C 203.75892639160156 260.8423156738281 198.5759735107422 255.08746337890625 197.09507751464844 247.28955078125 C 199.56402587890625 240.17279052734375 205.28543090820312 234.88108825683594 211.61326599121094 232.9629669189453 C 218.6226043701172 234.9179229736328 224.24900817871094 240.33726501464844 227.94676208496094 247.81178283691406" stroke-width="0.0" fill="rgb(2, 2, 3)" opacity="0.99001676"/>
    <path d="M 287.9251403808594 264.1041259765625 C 284.329345703125 271.9555358886719 279.064453125 277.65362548828125 271.8218078613281 279.99139404296875 C 264.2582702636719 278.22528076171875 259.14739990234375 272.66290283203125 257.9341125488281 265.6485595703125 C 259.5750427246094 256.8373107910156 263.66796875 251.10968017578125 271.4395446777344 249.04458618164062 C 280.3990783691406 251.10121154785156 285.9177551269531 256.5931701660156 287.9251403808594 264.1041259765625" stroke-width="0.0" fill="rgb(16, 12, 7)" opacity="0.9900227"/>
    <path d="M 287.079345703125 185.94761657714844 C 285.05963134765625 193.5980987548828 279.6394958496094 199.1945343017578 272.00311279296875 201.4819793701172 C 264.2655029296875 199.32078552246094 258.9316711425781 193.65646362304688 257.0863037109375 185.9900665283203 C 259.0299072265625 178.52371215820312 264.50433349609375 172.95852661132812 272.05340576171875 170.6502685546875 C 279.71875 172.74630737304688 285.1731262207031 178.3058624267578 287.079345703125 185.94761657714844" stroke-width="0.0" fill="rgb(255, 237, 199)" opacity="0.99134064"/>
    <path d="M 363.06427001953125 231.21815490722656 C 361.1163024902344 238.69569396972656 355.8626708984375 245.52767944335938 349.6856384277344 247.8721466064453 C 341.11077880859375 245.29176330566406 335.3487548828125 240.01953125 333.2545471191406 232.47369384765625 C 335.5523376464844 224.08116149902344 341.1039733886719 218.62388610839844 348.8056945800781 216.84132385253906 C 356.4422607421875 219.0566864013672 361.6462097167969 224.6612091064453 363.06427001953125 231.21815490722656" stroke-width="0.0" fill="rgb(227, 217, 185)" opacity="0.99003696"/>
    <path d="M 317.8788146972656 493.3023376464844 C 315.8051452636719 502.3245849609375 310.34539794921875 507.8661193847656 302.2319030761719 509.91912841796875 C 293.64569091796875 507.8717041015625 288.15850830078125 502.34271240234375 286.098388671875 493.9198303222656 C 288.1545104980469 485.6549072265625 293.6430358886719 480.12445068359375 302.6027526855469 478.0660400390625 C 310.38458251953125 480.10272216796875 315.8840026855469 485.6206359863281 317.8788146972656 493.3023376464844" stroke-width="0.0" fill="rgb(240, 129, 58)" opacity="1.0"/>
    <path d="M 520.8259887695312 193.8712921142578 C 518.899658203125 201.38955688476562 513.3893432617188 206.89913940429688 504.5297546386719 208.9582977294922 C 496.66802978515625 206.8884735107422 492.4827880859375 201.18145751953125 490.9266662597656 192.32203674316406 C 492.16326904296875 185.55047607421875 497.5042419433594 180.01087951660156 504.9689636230469 178.0168914794922 C 512.23828125 180.1652069091797 517.3848266601562 185.92626953125 520.8259887695312 193.8712921142578" stroke-width="0.0" fill="rgb(2, 2, 3)" opacity="0.9902279"/>
    <path d="M 248.54002380371094 356.8934631347656 C 246.28501892089844 364.77630615234375 240.80633544921875 370.3753662109375 232.72686767578125 372.6529846191406 C 224.77642822265625 370.6923828125 219.20716857910156 365.257568359375 217.33367919921875 357.3797912597656 C 219.598876953125 349.305908203125 225.44822692871094 343.98333740234375 233.09243774414062 341.8292541503906 C 240.69778442382812 343.8037109375 246.29751586914062 349.2693176269531 248.54002380371094 356.8934631347656" stroke-width="0.0" fill="rgb(245, 232, 199)" opacity="1.0"/>
    <path d="M 391.9550476074219 238.0170135498047 C 390.09710693359375 245.8265380859375 385.09930419921875 251.7758331298828 377.5363464355469 253.93722534179688 C 369.1139221191406 251.6154022216797 363.9438171386719 245.6536865234375 361.8048095703125 237.83370971679688 C 363.7005615234375 230.39295959472656 369.89276123046875 225.69920349121094 376.7590637207031 223.94651794433594 C 383.9425048828125 225.7540283203125 389.8055725097656 230.83145141601562 391.9550476074219 238.0170135498047" stroke-width="0.0" fill="rgb(2, 2, 3)" opacity="0.9900399"/>
    <path d="M 549.4132690429688 249.7901153564453 C 546.81005859375 257.1669006347656 541.0292358398438 262.3849182128906 533.5061645507812 264.5527648925781 C 525.9661865234375 263.4351501464844 520.3309326171875 258.1067810058594 519.933837890625 250.7495574951172 C 521.5134887695312 241.915283203125 525.7586669921875 236.20993041992188 534.1734619140625 234.55093383789062 C 542.1517333984375 236.2520751953125 547.4453735351562 241.95436096191406 549.4132690429688 249.7901153564453" stroke-width="0.0" fill="rgb(237, 227, 203)" opacity="1.0"/>
    <path d="M 321.81549072265625 434.6974182128906 C 319.6093444824219 443.068603515625 314.0562438964844 448.5732116699219 305.60516357421875 450.7875061035156 C 297.86920166015625 448.6850280761719 292.3631591796875 443.11260986328125 290.1957092285156 434.77252197265625 C 292.3433532714844 426.8911437988281 297.8838806152344 421.3254699707031 305.6380615234375 419.1968078613281 C 314.0899963378906 421.3936767578125 319.6831970214844 426.8807067871094 321.81549072265625 434.6974182128906" stroke-width="0.0" fill="rgb(255, 175, 97)" opacity="1.0"/>
    <path d="M 304.9030456542969 593.1358032226562 C 301.4430236816406 601.10302734375 296.23333740234375 606.8229370117188 288.9974670410156 608.9594116210938 C 281.742431640625 606.8366088867188 276.5494689941406 601.1224975585938 273.1049499511719 593.12109375 C 275.1023864746094 585.6468505859375 280.7520751953125 581.0087890625 289.88116455078125 578.1322631835938 C 297.3970947265625 580.0947875976562 302.90545654296875 585.6027221679688 304.9030456542969 593.1358032226562" stroke-width="0.0" fill="rgb(7, 12, 18)" opacity="0.99002934"/>
    <path d="M 296.36285400390625 59.86642837524414 C 293.81036376953125 67.28652954101562 288.27020263671875 72.75003051757812 280.73468017578125 75.29324340820312 C 273.4284362792969 73.15742492675781 268.0007629394531 67.52269744873047 265.9921569824219 59.99378967285156 C 267.9854736328125 52.46419906616211 273.41583251953125 46.82952880859375 280.8100891113281 44.71194076538086 C 288.6091003417969 46.94911193847656 294.20904541015625 52.3438720703125 296.36285400390625 59.86642837524414" stroke-width="0.0" fill="rgb(255, 236, 198)" opacity="0.9911977"/>
    <path d="M 405.2994689941406 236.34588623046875 C 403.632080078125 244.17369079589844 398.1705017089844 249.6038055419922 390.6470031738281 250.07293701171875 C 383.00933837890625 248.28341674804688 377.1656494140625 243.21182250976562 375.1706237792969 236.20455932617188 C 377.5669860839844 229.16262817382812 383.265869140625 223.86167907714844 390.8284912109375 221.9211883544922 C 397.4610290527344 223.064453125 402.9631042480469 228.53089904785156 405.2994689941406 236.34588623046875" stroke-width="0.0" fill="rgb(2, 2, 3)" opacity="0.990066"/>
    <path d="M 210.05722045898438 502.9038391113281 C 209.84683227539062 510.307861328125 204.24356079101562 515.5989990234375 196.7964630126953 516.0836181640625 C 189.3966064453125 514.0826416015625 183.92633056640625 508.60003662109375 181.962158203125 501.5273742675781 C 183.91175842285156 495.37628173828125 189.3590850830078 489.8626403808594 196.37388610839844 487.7827453613281 C 202.6573486328125 489.82745361328125 208.07530212402344 495.377685546875 210.05722045898438 502.9038391113281" stroke-width="0.0" fill="rgb(3, 5, 4)" opacity="0.9900053"/>
    <path d="M 124.93846893310547 378.69622802734375 C 122.86244201660156 387.3291320800781 117.30059814453125 392.7881164550781 108.20680236816406 394.93035888671875 C 100.63972473144531 392.88824462890625 95.17542266845703 387.3353576660156 93.1170654296875 379.34478759765625 C 95.61262512207031 371.9405212402344 102.14341735839844 366.7510681152344 109.82600402832031 364.41717529296875 C 117.37541198730469 365.1218566894531 122.8877944946289 370.62109375 124.93846893310547 378.69622802734375" stroke-width="0.0" fill="rgb(185, 111, 63)" opacity="1.0"/>
    <path d="M 208.85511779785156 188.406494140625 C 206.40902709960938 196.7421875 200.68585205078125 202.27493286132812 192.49644470214844 204.7567138671875 C 184.7286834716797 202.7682342529297 179.19903564453125 197.28289794921875 177.64773559570312 189.72618103027344 C 180.67971801757812 182.099609375 186.04579162597656 176.5130157470703 192.7167510986328 174.66473388671875 C 200.4717254638672 176.39027404785156 206.6851043701172 181.05519104003906 208.85511779785156 188.406494140625" stroke-width="0.0" fill="rgb(143, 153, 173)" opacity="1.0"/>
    <path d="M 195.1180877685547 334.7181701660156 C 193.96102905273438 341.5126037597656 188.53948974609375 347.0557556152344 180.7664794921875 349.4295959472656 C 173.2648468017578 347.28692626953125 167.76812744140625 341.7181396484375 165.7032012939453 334.209716796875 C 168.36041259765625 327.05419921875 174.22354125976562 321.85064697265625 180.5964813232422 319.959716796875 C 187.62672424316406 321.90509033203125 193.11741638183594 327.365234375 195.1180877685547 334.7181701660156" stroke-width="0.0" fill="rgb(250, 232, 199)" opacity="0.99001217"/>
    <path d="M 295.1319885253906 141.78382873535156 C 293.15789794921875 149.7271728515625 287.77850341796875 155.33473205566406 280.2742614746094 157.41403198242188 C 272.46478271484375 155.00619506835938 267.09228515625 149.50442504882812 264.7542419433594 141.7386932373047 C 266.8201904296875 134.34548950195312 272.3128967285156 128.73048400878906 280.1752014160156 126.45244598388672 C 287.71466064453125 128.69871520996094 293.24530029296875 134.30470275878906 295.1319885253906 141.78382873535156" stroke-width="0.0" fill="rgb(255, 237, 198)" opacity="0.99091387"/>
  </g>
</svg>
