<?xml version="1.0" ?>
<svg xmlns="http://www.w3.org/2000/svg" version="1.1" width="600" height="600">
  <defs/>
  <g>
    <path d="M 508.1578674316406 377.6214599609375 C 506.27227783203125 384.8465576171875 500.8722229003906 390.3412170410156 493.5602111816406 392.46832275390625 C 486.5 390.9903869628906 481.0096130371094 385.5 478.5780334472656 377.8345031738281 C 481.2325134277344 370.9567565917969 487.0758972167969 365.68408203125 494.6871032714844 363.6109313964844 C 501.9651794433594 364.3847351074219 506.6490478515625 370.3125915527344 508.1578674316406 377.6214599609375" stroke-width="0.0" fill="rgb(190, 139, 115)" opacity="0.99004596"/>
    <path d="M 483.8322448730469 336.7476501464844 C 481.8435363769531 344.31060791015625 476.278076171875 349.7500915527344 468.507080078125 351.51904296875 C 460.5 348.9903869628906 455.0096130371094 343.5 453.0 336.0 C 455.0096130371094 328.5 460.5 323.0096130371094 468.0 321.0 C 475.5 323.0096130371094 480.9903869628906 328.5 483.8322448730469 336.7476501464844" stroke-width="0.0" fill="rgb(31, 1, 0)" opacity="0.9913095"/>
    <path d="M 419.8583984375 218.41583251953125 C 417.79364013671875 226.2685089111328 412.2584533691406 231.76625061035156 403.7831115722656 233.84764099121094 C 395.7770690917969 231.7603759765625 390.2923583984375 226.20375061035156 388.4037780761719 218.48365783691406 C 390.7535095214844 210.18118286132812 396.093017578125 204.4868621826172 404.4609680175781 202.1734619140625 C 412.1719970703125 204.2802734375 417.70501708984375 209.8335418701172 419.8583984375 218.41583251953125" stroke-width="0.0" fill="rgb(188, 141, 114)" opacity="1.0"/>
    <path d="M 337.7666931152344 258.47406005859375 C 334.7068786621094 266.0496520996094 328.9574890136719 271.36505126953125 322.1235046386719 273.21588134765625 C 315.0260925292969 271.3532409667969 308.67498779296875 266.18560791015625 306.1525573730469 258.6334533691406 C 308.27581787109375 250.81378173828125 313.819091796875 245.29054260253906 322.0420837402344 243.17640686035156 C 330.1379089355469 245.31980895996094 335.69647216796875 250.85511779785156 337.7666931152344 258.47406005859375" stroke-width="0.0" fill="rgb(192, 142, 118)" opacity="0.99008304"/>
    <path d="M 318.0973815917969 347.1106872558594 C 316.3108825683594 354.8721923828125 310.9239196777344 360.47747802734375 302.8470764160156 362.5534973144531 C 294.8970642089844 360.6015930175781 289.3294677734375 355.1264343261719 287.1909484863281 346.9483642578125 C 289.38250732421875 338.9940490722656 295.0906982421875 333.6576843261719 303.347412109375 331.3143615722656 C 310.7229309082031 333.5956726074219 316.0303955078125 339.409912109375 318.0973815917969 347.1106872558594" stroke-width="0.0" fill="rgb(190, 138, 113)" opacity="1.0"/>
    <path d="M 120.70995330810547 352.7071838378906 C 118.24688720703125 360.77191162109375 112.82706451416016 366.406982421875 104.8005142211914 367.4373779296875 C 97.20734405517578 366.36279296875 91.82767486572266 360.7328796386719 89.7745361328125 352.93609619140625 C 92.15738677978516 345.5928649902344 97.52342987060547 339.9312744140625 105.25586700439453 337.464599609375 C 112.51255798339844 339.7972106933594 118.22417449951172 345.482421875 120.70995330810547 352.7071838378906" stroke-width="0.0" fill="rgb(252, 252, 252)" opacity="1.0"/>
    <path d="M 331.1685485839844 344.2485046386719 C 329.4315490722656 351.22796630859375 324.8048095703125 357.594970703125 317.2737731933594 359.8357238769531 C 309.2040710449219 357.4822692871094 303.9385986328125 351.6427307128906 301.9184265136719 343.90301513671875 C 303.67144775390625 336.0626525878906 308.94305419921875 330.326171875 316.5660095214844 328.174560546875 C 324.2972106933594 330.6796569824219 329.34576416015625 336.980712890625 331.1685485839844 344.2485046386719" stroke-width="0.0" fill="rgb(192, 142, 118)" opacity="0.99013126"/>
    <path d="M 224.76226806640625 414.861083984375 C 222.5841827392578 423.0369567871094 217.0327606201172 428.5735778808594 208.9042510986328 430.73480224609375 C 200.88136291503906 428.6364440917969 195.31045532226562 423.13848876953125 193.16348266601562 414.88494873046875 C 195.28224182128906 406.8304443359375 200.84007263183594 401.305908203125 208.7020721435547 399.1977233886719 C 217.09481811523438 401.36370849609375 222.62033081054688 406.91156005859375 224.76226806640625 414.861083984375" stroke-width="0.0" fill="rgb(192, 140, 115)" opacity="1.0"/>
    <path d="M 301.13458251953125 317.83209228515625 C 298.9903869628906 325.5 293.5 330.9903869628906 285.63543701171875 333.40960693359375 C 277.8814697265625 331.6034851074219 272.2789611816406 326.1603698730469 270.1631164550781 318.5149230957031 C 272.6289367675781 310.3038330078125 278.4263000488281 304.9787902832031 286.5859069824219 302.28399658203125 C 294.1192626953125 304.292724609375 299.4342346191406 309.9722900390625 301.13458251953125 317.83209228515625" stroke-width="0.0" fill="rgb(190, 139, 113)" opacity="1.0"/>
    <path d="M 359.7796630859375 225.94012451171875 C 357.6407775878906 234.11436462402344 352.1346130371094 239.69290161132812 344.2374572753906 241.82574462890625 C 335.89495849609375 239.66458129882812 330.4732971191406 234.0587615966797 328.3837890625 225.6859893798828 C 330.3687438964844 217.9614715576172 336.1244812011719 213.1356964111328 344.6593322753906 210.5147705078125 C 352.13739013671875 212.31045532226562 357.65399169921875 217.87632751464844 359.7796630859375 225.94012451171875" stroke-width="0.0" fill="rgb(187, 136, 112)" opacity="1.0"/>
    <path d="M 327.925048828125 222.088623046875 C 325.9903869628906 229.5 320.5 234.99038696289062 312.5762634277344 237.49697875976562 C 304.8523254394531 235.64207458496094 299.2439880371094 230.19126892089844 297.12890625 222.30609130859375 C 299.31256103515625 214.03323364257812 305.6851806640625 209.60284423828125 313.3970947265625 207.76145935058594 C 320.1424865722656 209.45059204101562 325.7327880859375 214.7996826171875 327.925048828125 222.088623046875" stroke-width="0.0" fill="rgb(157, 155, 155)" opacity="0.9901635"/>
    <path d="M 159.01858520507812 218.9679718017578 C 156.9904022216797 226.5000762939453 151.50100708007812 231.9938507080078 144.03965759277344 234.09600830078125 C 136.3162841796875 231.97422790527344 130.5130615234375 226.84376525878906 128.52752685546875 218.85296630859375 C 130.6885986328125 211.32638549804688 136.4404754638672 206.0673828125 144.22235107421875 204.70712280273438 C 151.7157440185547 205.74526977539062 157.11709594726562 211.3265838623047 159.01858520507812 218.9679718017578" stroke-width="0.0" fill="rgb(231, 232, 231)" opacity="1.0"/>
    <path d="M 236.77996826171875 212.2567596435547 C 234.685546875 220.14450073242188 229.13327026367188 225.65548706054688 220.69961547851562 227.81332397460938 C 212.81724548339844 225.70553588867188 207.26332092285156 220.1959228515625 205.27896118164062 212.5826416015625 C 207.97271728515625 204.4869384765625 213.4971160888672 199.00860595703125 221.1819610595703 196.82179260253906 C 228.9517059326172 198.5916290283203 234.5807647705078 203.99160766601562 236.77996826171875 212.2567596435547" stroke-width="0.0" fill="rgb(188, 138, 114)" opacity="1.0"/>
    <path d="M 268.1351318359375 405.83984375 C 266.0235290527344 413.6003723144531 260.65478515625 419.2039489746094 253.10597229003906 421.1333923339844 C 245.5 418.9903869628906 240.00961303710938 413.5 238.0 406.0 C 240.00961303710938 398.5 245.5 393.0096130371094 253.16311645507812 390.82464599609375 C 260.8462829589844 392.6539001464844 266.3352966308594 398.1570129394531 268.1351318359375 405.83984375" stroke-width="0.0" fill="rgb(252, 252, 252)" opacity="1.0"/>
    <path d="M 82.8956298828125 256.60113525390625 C 80.82566833496094 265.3177185058594 75.32540130615234 270.84552001953125 67.50824737548828 272.8985900878906 C 58.79715347290039 270.7671203613281 53.67951965332031 265.10028076171875 52.88541793823242 257.5682678222656 C 54.79915237426758 250.24761962890625 60.23942184448242 244.7772674560547 67.7784423828125 241.4193878173828 C 75.29463958740234 243.20123291015625 80.83805084228516 248.6900177001953 82.8956298828125 256.60113525390625" stroke-width="0.0" fill="rgb(227, 124, 50)" opacity="0.9902901"/>
    <path d="M 234.06692504882812 124.66324615478516 C 232.14529418945312 131.6953582763672 226.70541381835938 137.1705322265625 219.297119140625 139.48936462402344 C 213.02728271484375 137.8597412109375 207.8065948486328 131.81124877929688 205.92416381835938 125.10511779785156 C 207.85240173339844 118.31536865234375 213.31419372558594 112.84947967529297 219.91664123535156 110.9227294921875 C 226.7005615234375 112.84380340576172 232.15858459472656 118.29835510253906 234.06692504882812 124.66324615478516" stroke-width="0.0" fill="rgb(90, 92, 86)" opacity="0.9900086"/>
    <path d="M 103.0 221.0 C 100.9903793334961 228.5 95.50011444091797 233.9907989501953 87.24624633789062 236.8500213623047 C 79.72582244873047 234.83218383789062 74.66409301757812 229.1715087890625 73.9351806640625 221.7080841064453 C 75.85568237304688 214.27699279785156 81.20817565917969 208.6593780517578 88.33673858642578 206.3023223876953 C 95.5 208.00961303710938 100.9903793334961 213.5 103.0 221.0" stroke-width="0.0" fill="rgb(154, 29, 6)" opacity="0.99004674"/>
    <path d="M 407.8123779296875 350.6237487792969 C 405.6856994628906 358.0984191894531 400.0655212402344 363.60638427734375 392.3275451660156 365.7572326660156 C 384.97491455078125 362.7369079589844 379.67578125 356.9201965332031 377.8178405761719 350.11627197265625 C 379.61572265625 342.7756042480469 384.1382141113281 336.37957763671875 392.512939453125 334.1195983886719 C 400.0510559082031 336.2857666015625 405.2174072265625 342.14111328125 407.8123779296875 350.6237487792969" stroke-width="0.0" fill="rgb(193, 143, 118)" opacity="0.99008673"/>
    <path d="M 456.0013122558594 358.00250244140625 C 454.0047912597656 365.52734375 448.5509033203125 371.08306884765625 441.0582580566406 373.107666015625 C 433.4801940917969 371.001220703125 427.9869689941406 365.52423095703125 426.1690673828125 357.9527893066406 C 428.0096130371094 350.5 433.5 345.0096130371094 441.0 343.0 C 448.5 345.0096130371094 453.9903869628906 350.5 456.0013122558594 358.00250244140625" stroke-width="0.0" fill="rgb(255, 255, 255)" opacity="0.99450296"/>
    <path d="M 354.9440002441406 108.47936248779297 C 352.888427734375 116.37174224853516 347.3646545410156 121.87138366699219 339.2491455078125 123.92955780029297 C 330.7738952636719 121.81169128417969 325.4848327636719 116.1209487915039 323.834716796875 108.20991516113281 C 326.0096130371094 100.5 331.5 95.0096206665039 339.450927734375 92.5733642578125 C 347.2754211425781 94.27112579345703 352.8603515625 99.67926025390625 354.9440002441406 108.47936248779297" stroke-width="0.0" fill="rgb(164, 32, 12)" opacity="1.0"/>
    <path d="M 263.6643981933594 421.4039611816406 C 261.41436767578125 428.8019104003906 255.79881286621094 434.40753173828125 247.65708923339844 436.5907897949219 C 240.14157104492188 434.5382385253906 234.74176025390625 428.7413024902344 232.5839080810547 421.3023681640625 C 235.12484741210938 413.5566711425781 240.5244140625 408.0186462402344 248.00473022460938 405.98193359375 C 255.47998046875 408.0174255371094 260.9423522949219 413.5325927734375 263.6643981933594 421.4039611816406" stroke-width="0.0" fill="rgb(252, 252, 252)" opacity="1.0"/>
    <path d="M 476.82171630859375 214.7977294921875 C 474.5518493652344 222.04794311523438 469.0980224609375 227.81930541992188 461.5782470703125 230.87745666503906 C 454.959228515625 228.2046661376953 449.7315673828125 221.87522888183594 447.8553771972656 214.4544677734375 C 449.2159423828125 207.24655151367188 454.0718994140625 201.4739532470703 462.0647277832031 199.25875854492188 C 469.7652587890625 201.55938720703125 475.0539245605469 207.37200927734375 476.82171630859375 214.7977294921875" stroke-width="0.0" fill="rgb(131, 136, 135)" opacity="0.990027"/>
    <path d="M 228.52110290527344 350.848876953125 C 225.9401092529297 358.27069091796875 220.14599609375 363.5099182128906 212.56993103027344 365.2157287597656 C 205.5905303955078 363.99365234375 200.06362915039062 358.39764404296875 197.29185485839844 350.4383850097656 C 199.28378295898438 342.8345031738281 204.85260009765625 337.3307189941406 212.59780883789062 335.2943420410156 C 220.841064453125 337.6289978027344 226.4173583984375 343.1432189941406 228.52110290527344 350.848876953125" stroke-width="0.0" fill="rgb(249, 250, 250)" opacity="1.0"/>
    <path d="M 194.8102569580078 205.75616455078125 C 192.64785766601562 214.11537170410156 187.1171112060547 219.65219116210938 178.30960083007812 221.88612365722656 C 170.68502807617188 219.83880615234375 165.16156005859375 214.31512451171875 163.11471557617188 206.61029052734375 C 165.3119659423828 197.8417510986328 170.8242645263672 192.27064514160156 178.7042999267578 190.17410278320312 C 187.14732360839844 192.32078552246094 192.6932373046875 197.84756469726562 194.8102569580078 205.75616455078125" stroke-width="0.0" fill="rgb(187, 137, 113)" opacity="1.0"/>
    <path d="M 101.12901306152344 190.86285400390625 C 99.41161346435547 198.1065216064453 94.27711486816406 203.8849639892578 87.30587768554688 205.88043212890625 C 80.17032623291016 203.34725952148438 74.75595092773438 197.79779052734375 72.89448547363281 191.4068603515625 C 74.81033325195312 184.25894165039062 80.25393676757812 178.79791259765625 87.59783935546875 176.86624145507812 C 94.60203552246094 178.1085205078125 99.51966094970703 183.6040802001953 101.12901306152344 190.86285400390625" stroke-width="0.0" fill="rgb(235, 125, 49)" opacity="0.99001926"/>
    <path d="M 485.9361572265625 331.2518615722656 C 483.7079162597656 340.1039123535156 478.0244445800781 345.5057067871094 470.2952575683594 347.369384765625 C 462.5 344.9903869628906 457.0096130371094 339.5 454.3975830078125 331.4195861816406 C 456.2087097167969 323.6944885253906 461.672119140625 318.1455383300781 469.70037841796875 316.072021484375 C 478.3287353515625 318.1558532714844 483.8688049316406 323.6602783203125 485.9361572265625 331.2518615722656" stroke-width="0.0" fill="rgb(134, 35, 20)" opacity="1.0"/>
    <path d="M 471.934814453125 260.14263916015625 C 469.8664855957031 268.34918212890625 464.3473815917969 273.862060546875 455.7646179199219 275.93255615234375 C 447.6482238769531 273.86895751953125 442.14874267578125 268.3449401855469 440.1903076171875 260.73455810546875 C 442.9872741699219 252.44232177734375 448.30816650390625 246.61392211914062 456.7908020019531 244.07513427734375 C 464.368408203125 246.115478515625 469.8720703125 251.6367645263672 471.934814453125 260.14263916015625" stroke-width="0.0" fill="rgb(163, 34, 11)" opacity="1.0"/>
    <path d="M 269.94427490234375 475.4127197265625 C 267.7674560546875 484.10595703125 261.8857727050781 489.21771240234375 254.44207763671875 490.6055908203125 C 247.26046752929688 488.2692565917969 241.87203979492188 482.69061279296875 239.9007568359375 475.1905822753906 C 241.00961303710938 468.5 246.5 463.0096130371094 254.71685791015625 460.2388610839844 C 262.36395263671875 462.1405944824219 267.8912048339844 467.62420654296875 269.94427490234375 475.4127197265625" stroke-width="0.0" fill="rgb(162, 32, 15)" opacity="0.9902384"/>
    <path d="M 230.7202606201172 198.65313720703125 C 228.1815643310547 206.5767364501953 222.51901245117188 211.9972686767578 214.82005310058594 214.15374755859375 C 206.96485900878906 212.44654846191406 201.2816162109375 207.12806701660156 199.1846160888672 199.42901611328125 C 201.4188232421875 190.96177673339844 206.9521484375 185.3946990966797 215.1198272705078 183.22511291503906 C 223.11251831054688 185.34495544433594 228.63230895996094 190.8959503173828 230.7202606201172 198.65313720703125" stroke-width="0.0" fill="rgb(190, 138, 113)" opacity="1.0"/>
    <path d="M 480.6686706542969 359.9095764160156 C 478.3121337890625 367.83544921875 472.88702392578125 373.4576721191406 464.902587890625 374.4309997558594 C 457.5 372.9903869628906 452.0096130371094 367.5 450.0 360.0 C 452.0096130371094 352.5 457.5 347.0096130371094 465.1475524902344 344.8668518066406 C 472.90728759765625 346.6397705078125 478.4942321777344 352.05108642578125 480.6686706542969 359.9095764160156" stroke-width="0.0" fill="rgb(252, 252, 252)" opacity="1.0"/>
    <path d="M 369.0 148.0 C 366.9903869628906 155.5 361.5 160.99038696289062 353.2384948730469 163.83871459960938 C 345.65869140625 161.858642578125 340.1501770019531 156.33740234375 338.08074951171875 148.1333465576172 C 340.15087890625 139.66854858398438 345.6805114746094 134.18487548828125 353.36328125 132.31964111328125 C 361.5 135.00961303710938 366.9903869628906 140.5 369.0 148.0" stroke-width="0.0" fill="rgb(30, 2, 2)" opacity="0.9900486"/>
    <path d="M 594.9053955078125 12.415641784667969 C 592.7951049804688 20.216331481933594 587.053466796875 24.749338150024414 579.686767578125 26.07596778869629 C 572.3366088867188 24.124414443969727 566.8674926757812 18.666902542114258 564.9219360351562 11.300695419311523 C 566.3348999023438 4.445702075958252 571.3040771484375 -1.165786623954773 578.951416015625 -3.04217529296875 C 586.6478271484375 -1.0537902116775513 592.5922241210938 4.133338928222656 594.9053955078125 12.415641784667969" stroke-width="0.0" fill="rgb(57, 78, 93)" opacity="0.9900262"/>
    <path d="M 263.7903747558594 253.9800262451172 C 261.64227294921875 262.05157470703125 255.96470642089844 267.3804931640625 248.13551330566406 269.12139892578125 C 240.37152099609375 267.0545654296875 234.55581665039062 261.7671813964844 232.17018127441406 253.51998901367188 C 234.2529754638672 245.80177307128906 239.82237243652344 240.3053436279297 248.14732360839844 238.18524169921875 C 256.1333312988281 240.32203674316406 261.6720275878906 245.8683624267578 263.7903747558594 253.9800262451172" stroke-width="0.0" fill="rgb(188, 138, 113)" opacity="1.0"/>
    <path d="M 395.6931457519531 210.44094848632812 C 393.26165771484375 218.85018920898438 387.955322265625 224.5722198486328 379.64501953125 226.8099365234375 C 371.823974609375 224.7227325439453 366.3097229003906 219.16287231445312 364.20245361328125 211.3526153564453 C 366.4195251464844 202.95265197753906 371.9519958496094 197.41949462890625 380.3931884765625 195.216552734375 C 388.16302490234375 197.3109588623047 393.7253723144531 202.82174682617188 395.6931457519531 210.44094848632812" stroke-width="0.0" fill="rgb(190, 140, 113)" opacity="1.0"/>
    <path d="M 248.00396728515625 393.99151611328125 C 245.99038696289062 401.5 240.5 406.9903869628906 232.8849639892578 409.09979248046875 C 225.1041717529297 407.3167419433594 219.36912536621094 402.0069580078125 217.1686248779297 394.29705810546875 C 219.3558807373047 385.88751220703125 224.8719024658203 380.31561279296875 232.65380859375 378.173095703125 C 240.76918029785156 380.54498291015625 246.04881286621094 386.3775939941406 248.00396728515625 393.99151611328125" stroke-width="0.0" fill="rgb(191, 140, 115)" opacity="1.0"/>
    <path d="M 472.016357421875 364.02459716796875 C 470.0911560058594 371.6473693847656 464.7073669433594 377.28216552734375 457.1698913574219 379.2568664550781 C 449.42529296875 377.0357360839844 443.8592224121094 371.6068115234375 441.8721923828125 364.0597839355469 C 443.9814758300781 356.48455810546875 449.4914855957031 351.0049743652344 456.9991455078125 348.9995422363281 C 464.5 351.0096130371094 469.9903869628906 356.5 472.016357421875 364.02459716796875" stroke-width="0.0" fill="rgb(252, 252, 252)" opacity="1.0"/>
    <path d="M 288.9236755371094 108.4336929321289 C 286.8747253417969 116.35149383544922 281.32562255859375 121.79871368408203 273.4618225097656 123.6296157836914 C 264.81268310546875 121.61975860595703 259.1766357421875 116.2590560913086 257.2587890625 108.8778305053711 C 260.9051208496094 101.38141632080078 266.3851318359375 95.9151382446289 273.82537841796875 93.95087432861328 C 281.2963562011719 94.30584716796875 286.865234375 99.66035461425781 288.9236755371094 108.4336929321289" stroke-width="0.0" fill="rgb(21, 3, 2)" opacity="0.9900114"/>
    <path d="M 170.24813842773438 440.4400634765625 C 168.3175811767578 447.9177551269531 162.98927307128906 453.530517578125 155.80099487304688 455.8217468261719 C 148.43299865722656 454.0178527832031 142.63958740234375 448.6864929199219 140.1842041015625 440.57110595703125 C 142.31341552734375 432.8675842285156 147.85879516601562 427.29241943359375 155.46151733398438 425.1604309082031 C 163.67324829101562 427.6715087890625 169.0125274658203 433.4330139160156 170.24813842773438 440.4400634765625" stroke-width="0.0" fill="rgb(190, 140, 117)" opacity="0.9900662"/>
    <path d="M 288.8830871582031 156.79617309570312 C 286.86334228515625 164.34934997558594 281.36041259765625 169.88705444335938 273.5496520996094 171.94993591308594 C 264.6600341796875 169.867919921875 259.1619567871094 164.32720947265625 257.0665588378906 155.34927368164062 C 259.1165771484375 147.63375854492188 264.6463623046875 142.15087890625 272.3041687011719 140.26211547851562 C 280.5 143.00961303710938 285.9903869628906 148.5 288.8830871582031 156.79617309570312" stroke-width="0.0" fill="rgb(115, 35, 23)" opacity="1.0"/>
    <path d="M 427.55718994140625 336.5251770019531 C 425.9497985839844 344.4709777832031 420.47515869140625 349.9681091308594 413.5606994628906 351.50146484375 C 406.25103759765625 349.2342834472656 400.83123779296875 343.72509765625 398.8705749511719 336.2516784667969 C 400.1008605957031 329.5399475097656 405.5967712402344 324.25921630859375 413.2646484375 322.7969970703125 C 420.8960876464844 323.7090148925781 426.5575256347656 329.02325439453125 427.55718994140625 336.5251770019531" stroke-width="0.0" fill="rgb(252, 252, 252)" opacity="0.99032754"/>
    <path d="M 449.83538818359375 348.85791015625 C 447.6799011230469 356.1951599121094 442.17388916015625 361.6117248535156 434.9667053222656 363.53466796875 C 427.9538879394531 361.5439758300781 422.5627746582031 356.0112609863281 420.4682312011719 348.55316162109375 C 421.4165954589844 340.8335876464844 426.76556396484375 335.20611572265625 434.3199157714844 333.19158935546875 C 442.53363037109375 335.9188537597656 447.99310302734375 341.4922180175781 449.83538818359375 348.85791015625" stroke-width="0.0" fill="rgb(186, 191, 192)" opacity="1.0"/>
    <path d="M 495.23773193359375 207.3406524658203 C 493.63262939453125 214.3094024658203 488.4190979003906 219.95370483398438 480.97906494140625 222.02505493164062 C 473.4983215332031 220.0143280029297 468.0068054199219 214.49420166015625 465.56964111328125 206.71006774902344 C 467.49169921875 198.9890594482422 472.9566345214844 193.39837646484375 480.6303405761719 191.27638244628906 C 488.0170593261719 194.35955810546875 493.3622741699219 200.05807495117188 495.23773193359375 207.3406524658203" stroke-width="0.0" fill="rgb(189, 139, 118)" opacity="0.9900923"/>
    <path d="M 307.8419189453125 321.6690368652344 C 305.59503173828125 329.98931884765625 299.9025573730469 335.3446960449219 291.4911193847656 337.7283935546875 C 283.9525451660156 335.65960693359375 278.6711730957031 329.9343566894531 276.9185791015625 322.1082458496094 C 279.0097351074219 314.5000915527344 284.5000915527344 309.0097351074219 292.411376953125 306.4975891113281 C 300.1026306152344 308.386474609375 305.6935729980469 313.8677673339844 307.8419189453125 321.6690368652344" stroke-width="0.0" fill="rgb(191, 139, 113)" opacity="1.0"/>
    <path d="M 209.78282165527344 269.1342468261719 C 207.99081420898438 276.50140380859375 202.5152587890625 282.0400390625 194.2409210205078 284.8781433105469 C 186.67599487304688 282.8500061035156 181.1679229736328 277.3161926269531 179.06661987304688 268.3956298828125 C 181.12649536132812 260.66302490234375 186.70530700683594 255.24691772460938 194.50839233398438 253.52671813964844 C 202.42201232910156 256.05499267578125 207.7812042236328 261.62908935546875 209.78282165527344 269.1342468261719" stroke-width="0.0" fill="rgb(164, 23, 7)" opacity="1.0"/>
    <path d="M 223.99966430664062 279.0009765625 C 221.99038696289062 286.5 216.5 291.9903869628906 208.99417114257812 294.0030517578125 C 201.43569946289062 292.0240478515625 195.77127075195312 286.6293640136719 193.5399627685547 279.2148742675781 C 196.07827758789062 271.5300598144531 201.48114013671875 265.9270935058594 208.51771545410156 264.8525390625 C 216.32826232910156 266.39190673828125 221.9767303466797 271.538818359375 223.99966430664062 279.0009765625" stroke-width="0.0" fill="rgb(113, 25, 13)" opacity="0.99055207"/>
    <path d="M 413.8034362792969 186.52273559570312 C 411.59954833984375 195.07513427734375 406.0973815917969 200.65884399414062 398.27001953125 202.7990264892578 C 389.8993835449219 200.62612915039062 384.3401184082031 195.11317443847656 382.1083679199219 186.3099365234375 C 384.1596984863281 178.69898986816406 389.72052001953125 173.2110595703125 397.6145324707031 171.14288330078125 C 406.2058410644531 173.28660583496094 411.7637939453125 178.7744903564453 413.8034362792969 186.52273559570312" stroke-width="0.0" fill="rgb(186, 137, 111)" opacity="1.0"/>
    <path d="M 81.93180084228516 318.5634765625 C 79.83460235595703 327.306396484375 74.28021240234375 332.754150390625 66.71782684326172 333.1494445800781 C 59.228668212890625 331.21148681640625 53.73579406738281 325.7909851074219 50.72294998168945 318.2908020019531 C 52.298179626464844 310.8273010253906 57.81279373168945 305.2621154785156 66.18179321289062 303.11370849609375 C 74.28235626220703 305.2110290527344 79.84820556640625 310.6925048828125 81.93180084228516 318.5634765625" stroke-width="0.0" fill="rgb(229, 122, 50)" opacity="0.99028707"/>
    <path d="M 165.92422485351562 357.8283386230469 C 163.12879943847656 364.7807312011719 156.6726531982422 370.10699462890625 149.58706665039062 372.0479431152344 C 143.3431854248047 370.1177978515625 137.84120178222656 364.6712646484375 134.14073181152344 357.2212219238281 C 136.32859802246094 350.0160827636719 142.22337341308594 344.85467529296875 150.259765625 342.75 C 158.14378356933594 344.4280090332031 163.7849578857422 349.7833557128906 165.92422485351562 357.8283386230469" stroke-width="0.0" fill="rgb(112, 32, 21)" opacity="0.99002373"/>
    <path d="M 289.72125244140625 299.5278015136719 C 287.1628112792969 307.5760498046875 281.5258483886719 313.0008239746094 273.3677978515625 315.7686767578125 C 265.8154602050781 313.73565673828125 260.2781066894531 308.1787414550781 258.15264892578125 300.2428894042969 C 260.3276062011719 291.8738098144531 265.87774658203125 286.3387451171875 274.0718078613281 284.19146728515625 C 282.09747314453125 286.3561706542969 287.6611022949219 291.89471435546875 289.72125244140625 299.5278015136719" stroke-width="0.0" fill="rgb(190, 138, 113)" opacity="1.0"/>
    <path d="M 107.25397491455078 214.57388305664062 C 106.10185241699219 221.55393981933594 100.52295684814453 226.99972534179688 93.00299835205078 228.9990234375 C 85.51322937011719 226.9818572998047 80.05158996582031 221.47698974609375 78.77154541015625 214.62843322753906 C 80.7459487915039 207.1173858642578 86.01551818847656 201.48597717285156 92.560302734375 199.5399169921875 C 99.71228790283203 201.8003692626953 105.20182800292969 207.28677368164062 107.25397491455078 214.57388305664062" stroke-width="0.0" fill="rgb(153, 27, 5)" opacity="0.99004245"/>
    <path d="M 91.1788558959961 289.7608642578125 C 90.63201141357422 298.2608337402344 85.32512664794922 303.86700439453125 77.6786117553711 305.9229736328125 C 68.7628402709961 303.77838134765625 63.253746032714844 298.2242126464844 61.15740966796875 290.1175537109375 C 63.264625549316406 281.78387451171875 68.76744842529297 276.224365234375 76.34915161132812 274.24261474609375 C 84.4979019165039 277.01025390625 89.92170715332031 282.521484375 91.1788558959961 289.7608642578125" stroke-width="0.0" fill="rgb(196, 87, 38)" opacity="0.9905387"/>
    <path d="M 335.2472229003906 109.28968811035156 C 333.60382080078125 117.18721771240234 328.2651062011719 122.82960510253906 319.78143310546875 124.92864227294922 C 311.6474304199219 122.86436462402344 306.1224060058594 117.35816955566406 304.0553283691406 109.00264739990234 C 306.1254577636719 100.64419555664062 311.6493225097656 95.13783264160156 319.22705078125 93.12319946289062 C 327.5120849609375 95.97116088867188 332.99224853515625 101.49810791015625 335.2472229003906 109.28968811035156" stroke-width="0.0" fill="rgb(167, 34, 12)" opacity="1.0"/>
    <path d="M 233.06263732910156 276.93133544921875 C 230.98805236816406 284.4923400878906 225.42689514160156 289.7815246582031 217.70875549316406 291.13568115234375 C 210.78965759277344 289.6988525390625 205.6775665283203 284.0364685058594 203.9453887939453 277.6434020996094 C 205.86387634277344 270.2691345214844 211.14964294433594 264.4656677246094 218.36033630371094 261.6860046386719 C 225.7782745361328 263.6641845703125 231.19146728515625 269.2667236328125 233.06263732910156 276.93133544921875" stroke-width="0.0" fill="rgb(251, 251, 252)" opacity="0.9900144"/>
    <path d="M 496.0118408203125 388.9960021972656 C 493.9903869628906 396.5 488.5 401.9903869628906 480.91375732421875 404.06097412109375 C 473.1170959472656 402.2807312011719 467.3980407714844 396.9903869628906 465.19122314453125 388.73858642578125 C 467.3138732910156 380.8441162109375 472.83868408203125 375.3014221191406 480.4567565917969 373.3366394042969 C 488.5003356933594 376.0091857910156 493.99273681640625 381.4991455078125 496.0118408203125 388.9960021972656" stroke-width="0.0" fill="rgb(188, 136, 112)" opacity="1.0"/>
    <path d="M 218.951171875 295.6258850097656 C 216.84555053710938 304.2751770019531 211.18260192871094 309.58056640625 203.0636749267578 311.327880859375 C 194.99021911621094 309.46722412109375 189.432373046875 304.04052734375 187.241943359375 295.42633056640625 C 189.18948364257812 287.6999206542969 194.7075653076172 282.2125244140625 203.67587280273438 280.11724853515625 C 211.36721801757812 282.1282653808594 216.89044189453125 287.6252136230469 218.951171875 295.6258850097656" stroke-width="0.0" fill="rgb(164, 26, 9)" opacity="1.0"/>
    <path d="M 22.985872268676758 297.980712890625 C 20.89169692993164 305.3408508300781 15.232077598571777 310.5704040527344 7.893369197845459 312.33123779296875 C 0.8065552711486816 310.55743408203125 -4.841823101043701 305.287109375 -6.961612224578857 297.97833251953125 C -4.919425964355469 290.6069641113281 0.679326593875885 285.3056335449219 8.106115341186523 283.5153503417969 C 15.392367362976074 285.2334289550781 20.97214698791504 290.5421447753906 22.985872268676758 297.980712890625" stroke-width="0.0" fill="rgb(230, 204, 162)" opacity="0.99070895"/>
    <path d="M 492.00909423828125 285.0163269042969 C 490.1004638671875 292.7115173339844 484.9004211425781 298.59454345703125 476.6034240722656 300.8910827636719 C 468.833251953125 298.73284912109375 463.2240905761719 293.1900634765625 461.066650390625 284.48455810546875 C 463.1397399902344 276.66571044921875 468.6739807128906 271.1583251953125 476.2735595703125 269.105712890625 C 484.6500549316406 271.6817626953125 490.0066833496094 277.4567565917969 492.00909423828125 285.0163269042969" stroke-width="0.0" fill="rgb(165, 34, 12)" opacity="1.0"/>
    <path d="M 499.9324951171875 283.8173522949219 C 497.863037109375 292.3489074707031 492.3475036621094 297.8594055175781 484.69903564453125 299.90594482421875 C 476.3160400390625 297.3786315917969 470.989990234375 291.5517272949219 468.9884033203125 283.9789123535156 C 470.87030029296875 276.23846435546875 476.0258483886719 270.33355712890625 484.70135498046875 268.06927490234375 C 492.3593444824219 270.12408447265625 497.8712158203125 275.642578125 499.9324951171875 283.8173522949219" stroke-width="0.0" fill="rgb(167, 34, 12)" opacity="1.0"/>
    <path d="M 263.6770935058594 131.2411346435547 C 261.7579040527344 139.27981567382812 256.3135986328125 144.85047912597656 248.75009155273438 146.91941833496094 C 241.31427001953125 143.2316436767578 235.8939208984375 137.6500701904297 233.95697021484375 131.48941040039062 C 235.9075164794922 124.36939239501953 241.35894775390625 118.8809585571289 248.85589599609375 115.15079498291016 C 256.2816162109375 117.16880798339844 261.7046813964844 122.76441955566406 263.6770935058594 131.2411346435547" stroke-width="0.0" fill="rgb(93, 23, 17)" opacity="0.99001485"/>
    <path d="M 228.67416381835938 244.9412841796875 C 226.60130310058594 252.9683837890625 220.45777893066406 257.37249755859375 212.3644561767578 259.1166076660156 C 205.54058837890625 257.87017822265625 200.01133728027344 252.49456787109375 197.9781036376953 244.94747924804688 C 199.7879180908203 237.18186950683594 205.0817413330078 231.47735595703125 213.241455078125 229.38116455078125 C 221.12474060058594 231.35031127929688 226.6546173095703 236.8732147216797 228.67416381835938 244.9412841796875" stroke-width="0.0" fill="rgb(88, 73, 68)" opacity="0.9900234"/>
    <path d="M 259.68719482421875 462.23211669921875 C 256.3983154296875 469.985595703125 251.04869079589844 475.6060485839844 244.79849243164062 477.1465148925781 C 237.3831787109375 475.0978088378906 231.92755126953125 469.6065368652344 229.96551513671875 462.5567321777344 C 231.92300415039062 456.3938293457031 237.3848419189453 450.89764404296875 244.83905029296875 447.20379638671875 C 252.30413818359375 449.17022705078125 257.8202209472656 454.699951171875 259.68719482421875 462.23211669921875" stroke-width="0.0" fill="rgb(11, 2, 2)" opacity="0.9900076"/>
    <path d="M 63.83234405517578 285.7959899902344 C 61.65251159667969 294.0924377441406 56.074241638183594 299.6038513183594 48.429080963134766 301.6017150878906 C 40.490394592285156 299.0179138183594 35.008914947509766 293.5020446777344 33.2586784362793 286.2146301269531 C 35.4249267578125 278.9046630859375 40.93262481689453 273.5097961425781 48.617984771728516 270.5198669433594 C 56.12377166748047 272.342041015625 61.688812255859375 277.864501953125 63.83234405517578 285.7959899902344" stroke-width="0.0" fill="rgb(241, 209, 153)" opacity="1.0"/>
    <path d="M 39.893333435058594 290.1206359863281 C 37.99039840698242 297.5 32.5 302.9903869628906 24.999347686767578 305.0008850097656 C 17.501476287841797 302.99114990234375 12.027050018310547 297.4932556152344 10.287169456481934 290.20550537109375 C 12.425772666931152 282.89544677734375 17.891904830932617 277.4142761230469 24.709856033325195 275.4427490234375 C 32.06724548339844 277.5268859863281 37.66612243652344 282.870849609375 39.893333435058594 290.1206359863281" stroke-width="0.0" fill="rgb(246, 210, 155)" opacity="0.990112"/>
    <path d="M 461.9293518066406 120.37152099609375 C 459.8183898925781 128.24151611328125 454.10711669921875 133.16542053222656 446.3150939941406 134.085693359375 C 438.2376403808594 132.56719970703125 432.41815185546875 127.99563598632812 430.2466125488281 119.3637924194336 C 432.1651611328125 111.6728515625 437.6722106933594 106.16329193115234 445.4087829589844 104.15007019042969 C 454.06951904296875 106.38329315185547 459.7380065917969 111.8724365234375 461.9293518066406 120.37152099609375" stroke-width="0.0" fill="rgb(140, 40, 20)" opacity="0.99002606"/>
    <path d="M 377.0792541503906 137.7772216796875 C 376.6864929199219 145.19638061523438 371.1823425292969 150.64178466796875 363.3473205566406 152.35768127441406 C 355.427978515625 150.0321807861328 349.67584228515625 144.67347717285156 347.1177978515625 136.2384033203125 C 349.1338806152344 128.6418914794922 354.6337890625 123.11489868164062 362.28399658203125 121.06822967529297 C 370.03973388671875 123.41220092773438 375.1537780761719 130.23451232910156 377.0792541503906 137.7772216796875" stroke-width="0.0" fill="rgb(164, 28, 13)" opacity="0.99007946"/>
    <path d="M 437.0517578125 248.2094268798828 C 435.3554382324219 255.92918395996094 429.9890441894531 261.54779052734375 422.3921813964844 263.3976745605469 C 415.03546142578125 260.6096496582031 409.8238220214844 254.80836486816406 407.9564514160156 248.6717529296875 C 409.9162292480469 241.3870086669922 415.3880310058594 235.91859436035156 422.6818542480469 233.95960998535156 C 428.8003234863281 235.83277893066406 434.6050720214844 241.0386505126953 437.0517578125 248.2094268798828" stroke-width="0.0" fill="rgb(57, 8, 4)" opacity="0.99001044"/>
    <path d="M 506.05938720703125 158.6952667236328 C 505.1595458984375 166.12705993652344 500.2449645996094 171.80972290039062 492.16741943359375 173.91542053222656 C 483.74285888671875 171.8144989013672 478.3847961425781 166.19113159179688 476.156005859375 157.21585083007812 C 478.12884521484375 149.6489715576172 483.6663818359375 144.1785888671875 491.1502380371094 143.92576599121094 C 498.6448059082031 145.89547729492188 504.1192321777344 151.348876953125 506.05938720703125 158.6952667236328" stroke-width="0.0" fill="rgb(157, 28, 6)" opacity="0.99001694"/>
    <path d="M 398.9637145996094 266.9537048339844 C 396.83770751953125 274.31500244140625 391.2919006347656 279.76300048828125 383.5958251953125 282.5202941894531 C 376.1865539550781 280.4340515136719 370.7415771484375 274.7471008300781 369.6119384765625 267.4052734375 C 370.79473876953125 259.1952209472656 376.14227294921875 253.60218811035156 383.7669677734375 251.6934814453125 C 391.5 254.00961303710938 396.9903869628906 259.5 398.9637145996094 266.9537048339844" stroke-width="0.0" fill="rgb(252, 252, 251)" opacity="1.0"/>
    <path d="M 321.2510070800781 373.75592041015625 C 319.5574035644531 381.9666748046875 313.86346435546875 387.205322265625 305.7571105957031 389.4253234863281 C 298.4905700683594 387.068115234375 293.021240234375 381.4843444824219 291.005126953125 374.0046691894531 C 293.0588073730469 366.6015625 298.72344970703125 361.409423828125 306.38616943359375 359.7346496582031 C 313.743896484375 360.7647399902344 319.4041748046875 366.201416015625 321.2510070800781 373.75592041015625" stroke-width="0.0" fill="rgb(251, 251, 251)" opacity="0.9917504"/>
    <path d="M 162.92930603027344 331.036865234375 C 160.7925262451172 339.18170166015625 155.03695678710938 344.3899230957031 147.09078979492188 346.0864562988281 C 139.18087768554688 344.16876220703125 133.2839813232422 339.0371398925781 131.06883239746094 330.427001953125 C 133.14840698242188 322.69903564453125 138.75341796875 317.29473876953125 147.7598419189453 315.0968933105469 C 155.35011291503906 317.12811279296875 160.84457397460938 322.6609802246094 162.92930603027344 331.036865234375" stroke-width="0.0" fill="rgb(164, 32, 12)" opacity="1.0"/>
    <path d="M 170.3326873779297 225.25637817382812 C 168.37722778320312 232.86126708984375 162.902587890625 238.48837280273438 154.30064392089844 240.25860595703125 C 146.9615020751953 238.68051147460938 141.70692443847656 232.8942108154297 140.36712646484375 225.38674926757812 C 142.56304931640625 218.03378295898438 148.0641632080078 212.6490020751953 155.69529724121094 210.82467651367188 C 162.6602325439453 211.62391662597656 167.93724060058594 217.50384521484375 170.3326873779297 225.25637817382812" stroke-width="0.0" fill="rgb(252, 252, 252)" opacity="0.99129313"/>
    <path d="M 380.0333251953125 159.34561157226562 C 378.0658264160156 166.59017944335938 372.5885925292969 172.06214904785156 365.1051940917969 174.04672241210938 C 357.680419921875 173.813720703125 352.1476135253906 168.33287048339844 350.158935546875 160.761474609375 C 353.18865966796875 152.74366760253906 358.8346862792969 147.46585083007812 366.2842712402344 145.63922119140625 C 372.7884216308594 147.54330444335938 378.1094665527344 153.311279296875 380.0333251953125 159.34561157226562" stroke-width="0.0" fill="rgb(30, 4, 2)" opacity="0.9900096"/>
    <path d="M 334.4146423339844 225.98069763183594 C 332.40753173828125 233.98390197753906 327.08984375 239.7001953125 319.15411376953125 241.86444091796875 C 310.93499755859375 239.67344665527344 305.6075439453125 233.96487426757812 303.7467041015625 226.18043518066406 C 306.0945739746094 218.62039184570312 311.65911865234375 213.22474670410156 318.6390075683594 211.62709045410156 C 326.0625 213.57969665527344 332.1050109863281 218.7581787109375 334.4146423339844 225.98069763183594" stroke-width="0.0" fill="rgb(191, 143, 121)" opacity="0.99042404"/>
    <path d="M 23.070789337158203 7.510465145111084 C 21.141857147216797 14.682893753051758 15.683176040649414 20.142711639404297 8.223695755004883 22.1019344329834 C 0.9135041832923889 21.629854202270508 -4.441535949707031 16.02934455871582 -6.133730888366699 8.17219066619873 C -3.9903810024261475 0.5 1.5 -4.990381240844727 8.871569633483887 -6.905937194824219 C 16.008146286010742 -4.601818084716797 21.247716903686523 1.1181213855743408 23.070789337158203 7.510465145111084" stroke-width="0.0" fill="rgb(56, 76, 90)" opacity="0.9900282"/>
    <path d="M 532.0931396484375 359.7461853027344 C 530.1802368164062 366.7218017578125 524.716552734375 372.1678771972656 517.7158203125 374.0820617675781 C 511.0945129394531 372.2438659667969 504.7242126464844 367.169921875 502.28057861328125 360.33465576171875 C 505.5685729980469 353.0907287597656 511.0663757324219 347.4478454589844 518.4931030273438 344.1170959472656 C 525.2417602539062 346.4748840332031 530.24560546875 353.1046447753906 532.0931396484375 359.7461853027344" stroke-width="0.0" fill="rgb(170, 89, 73)" opacity="0.9900218"/>
    <path d="M 360.9294128417969 481.54815673828125 C 358.8566589355469 490.3417053222656 353.3458557128906 495.86663818359375 344.64007568359375 497.94293212890625 C 336.6271667480469 495.8906555175781 331.1620178222656 490.3542175292969 329.3219299316406 482.6552734375 C 332.0096130371094 474.5 337.5 469.0096130371094 345.8297119140625 466.1007080078125 C 353.36962890625 468.1112976074219 358.8731689453125 473.63726806640625 360.9294128417969 481.54815673828125" stroke-width="0.0" fill="rgb(85, 18, 8)" opacity="0.9901157"/>
    <path d="M 326.9446716308594 509.6791076660156 C 324.8593444824219 518.2921142578125 319.1347351074219 522.6583251953125 310.45819091796875 524.0811157226562 C 302.69232177734375 523.7301025390625 297.12322998046875 518.3489990234375 295.0541076660156 509.8760986328125 C 297.1143798828125 501.6343688964844 302.6429138183594 496.1341552734375 311.30682373046875 494.0600891113281 C 319.35968017578125 496.1275329589844 324.8786926269531 501.6376953125 326.9446716308594 509.6791076660156" stroke-width="0.0" fill="rgb(158, 27, 15)" opacity="1.0"/>
    <path d="M 47.591861724853516 303.3357238769531 C 45.46406555175781 310.8741149902344 39.829715728759766 316.3382263183594 32.44900894165039 317.74981689453125 C 24.93239974975586 315.522705078125 19.41403579711914 310.08642578125 17.15569305419922 302.8240661621094 C 19.00933837890625 295.49993896484375 24.500019073486328 290.0096435546875 32.00028991699219 287.9997863769531 C 39.50580978393555 290.0072937011719 45.04716873168945 295.4784851074219 47.591861724853516 303.3357238769531" stroke-width="0.0" fill="rgb(246, 210, 156)" opacity="0.99031854"/>
    <path d="M 372.0005798339844 285.0013732910156 C 370.00250244140625 292.52947998046875 364.5847473144531 298.17926025390625 356.5947265625 300.7035827636719 C 349.0177001953125 298.6034851074219 344.0811767578125 292.8080749511719 342.7048034667969 284.921630859375 C 344.17041015625 277.5621643066406 349.5144348144531 272.01483154296875 357.00042724609375 270.0001525878906 C 364.5 272.0096130371094 369.9903869628906 277.5 372.0005798339844 285.0013732910156" stroke-width="0.0" fill="rgb(192, 143, 118)" opacity="0.99038637"/>
    <path d="M 446.4605712890625 375.9129638671875 C 444.0539855957031 383.622314453125 438.7385559082031 389.3930969238281 430.5174865722656 391.81488037109375 C 422.8712158203125 389.6886291503906 417.3610534667969 384.1096496582031 415.2009582519531 375.7142333984375 C 417.29595947265625 367.85235595703125 422.91461181640625 362.5093688964844 430.4946594238281 361.76727294921875 C 437.913818359375 363.6667785644531 443.5788269042969 369.0163879394531 446.4605712890625 375.9129638671875" stroke-width="0.0" fill="rgb(187, 142, 118)" opacity="0.990251"/>
    <path d="M 412.701171875 409.4372253417969 C 409.4142150878906 416.905517578125 403.8792724609375 422.328369140625 396.3186950683594 425.5132751464844 C 388.8201599121094 423.7178955078125 383.30804443359375 418.16986083984375 381.2054138183594 410.043701171875 C 383.3228454589844 401.859619140625 388.8629455566406 396.3311767578125 397.0987243652344 394.19281005859375 C 405.12103271484375 396.33673095703125 410.66058349609375 401.8798828125 412.701171875 409.4372253417969" stroke-width="0.0" fill="rgb(192, 142, 118)" opacity="0.9920219"/>
    <path d="M 307.9435119628906 142.44569396972656 C 305.860107421875 151.34327697753906 300.3387145996094 156.8482208251953 292.6275939941406 158.8891143798828 C 284.1540222167969 156.5282440185547 278.82891845703125 150.70843505859375 276.8457946777344 143.05918884277344 C 278.8364562988281 135.19822692871094 283.9993591308594 129.32168579101562 292.65521240234375 127.06982421875 C 300.36810302734375 129.12359619140625 305.8891296386719 134.62646484375 307.9435119628906 142.44569396972656" stroke-width="0.0" fill="rgb(166, 33, 12)" opacity="1.0"/>
    <path d="M 377.6871032714844 281.48712158203125 C 374.99462890625 289.5013122558594 369.5001525878906 294.9904479980469 362.0000305175781 296.99993896484375 C 354.50006103515625 294.9903259277344 349.0096740722656 289.49993896484375 347.0000305175781 281.9999694824219 C 349.0096130371094 274.5 354.5 269.0096130371094 362.38751220703125 266.5484313964844 C 370.0829772949219 268.3975830078125 375.63421630859375 273.90692138671875 377.6871032714844 281.48712158203125" stroke-width="0.0" fill="rgb(189, 139, 115)" opacity="1.0"/>
    <path d="M 259.7239685058594 269.37689208984375 C 257.6585998535156 277.1447448730469 252.16348266601562 282.7076721191406 244.5486602783203 284.6755676269531 C 236.24765014648438 282.1510925292969 230.46279907226562 276.8870849609375 228.24075317382812 269.07501220703125 C 230.39794921875 260.9684753417969 236.0331573486328 255.59881591796875 243.83949279785156 253.85711669921875 C 251.55393981933594 255.9848175048828 257.2568359375 261.367431640625 259.7239685058594 269.37689208984375" stroke-width="0.0" fill="rgb(189, 137, 112)" opacity="1.0"/>
    <path d="M 219.682373046875 314.24163818359375 C 217.80075073242188 323.34344482421875 212.36941528320312 328.8869323730469 204.81396484375 330.880859375 C 196.5 327.9903869628906 191.00961303710938 322.5 188.91091918945312 314.9228515625 C 190.83074951171875 307.34466552734375 196.36502075195312 301.8984069824219 204.37954711914062 299.647705078125 C 212.26260375976562 301.3023986816406 217.85910034179688 306.6835632324219 219.682373046875 314.24163818359375" stroke-width="0.0" fill="rgb(167, 27, 12)" opacity="1.0"/>
    <path d="M 465.9685363769531 336.91278076171875 C 463.9903869628906 344.5 458.5 349.9903869628906 450.5026550292969 352.55426025390625 C 442.7914733886719 350.7109375 437.2337951660156 345.2282409667969 435.0924987792969 336.41558837890625 C 437.13385009765625 328.6449279785156 442.6429748535156 323.1287536621094 450.6038513183594 321.0620422363281 C 459.17938232421875 323.2060852050781 464.37994384765625 328.970947265625 465.9685363769531 336.91278076171875" stroke-width="0.0" fill="rgb(154, 33, 17)" opacity="1.0"/>
    <path d="M 508.08984375 248.84164428710938 C 507.831298828125 256.33746337890625 502.3506164550781 261.8689270019531 493.5481872558594 263.9465637207031 C 485.6324768066406 261.88262939453125 480.1162414550781 256.3681335449219 478.057861328125 248.52708435058594 C 480.1607971191406 239.71983337402344 485.7908020019531 234.36611938476562 493.2369384765625 233.79354858398438 C 500.656005859375 235.86912536621094 506.11083984375 241.3518829345703 508.08984375 248.84164428710938" stroke-width="0.0" fill="rgb(161, 28, 17)" opacity="0.9900434"/>
    <path d="M 350.9398498535156 90.26376342773438 C 348.741943359375 99.10289764404297 342.9334411621094 104.2758560180664 335.14984130859375 105.62088012695312 C 327.60955810546875 103.78645324707031 321.5772399902344 98.63954162597656 319.0827331542969 90.24287414550781 C 321.1293640136719 82.6480941772461 326.64715576171875 77.12704467773438 335.48114013671875 75.04399108886719 C 343.39239501953125 77.0987319946289 348.9017028808594 82.60733032226562 350.9398498535156 90.26376342773438" stroke-width="0.0" fill="rgb(102, 20, 10)" opacity="0.99042875"/>
    <path d="M 252.3356475830078 398.62835693359375 C 249.36318969726562 405.89984130859375 243.88490295410156 411.31951904296875 236.31234741210938 413.4212951660156 C 228.9130096435547 412.6521301269531 223.45565795898438 407.0483703613281 221.61383056640625 399.3248596191406 C 224.0096893310547 391.50006103515625 229.50006103515625 386.00970458984375 237.0000762939453 384.0001525878906 C 244.50112915039062 386.00927734375 250.0258026123047 391.48907470703125 252.3356475830078 398.62835693359375" stroke-width="0.0" fill="rgb(188, 144, 120)" opacity="0.99053"/>
    <path d="M 317.4513244628906 439.293701171875 C 315.6983642578125 447.25079345703125 310.3006591796875 452.84466552734375 301.5239562988281 454.93524169921875 C 293.64288330078125 452.8756408691406 288.13543701171875 447.3525085449219 286.06011962890625 438.4736328125 C 288.12188720703125 430.63873291015625 293.64300537109375 425.13201904296875 301.6492919921875 423.06195068359375 C 310.2307434082031 425.1840515136719 315.5219421386719 430.8742980957031 317.4513244628906 439.293701171875" stroke-width="0.0" fill="rgb(165, 34, 12)" opacity="1.0"/>
    <path d="M 596.8340454101562 2.6168737411499023 C 594.7158203125 10.08053970336914 588.9257202148438 15.287620544433594 581.0722045898438 17.04966926574707 C 573.3831176757812 15.03986930847168 567.4853515625 9.799591064453125 565.192626953125 2.480210304260254 C 567.8421020507812 -5.565037727355957 573.4849853515625 -10.995677947998047 581.0 -13.000272750854492 C 588.514404296875 -10.995416641235352 594.1544799804688 -5.563302516937256 596.8340454101562 2.6168737411499023" stroke-width="0.0" fill="rgb(53, 76, 89)" opacity="1.0"/>
    <path d="M 405.9700927734375 262.8336486816406 C 403.66448974609375 270.12567138671875 398.0683898925781 275.482666015625 390.6518859863281 277.5233459472656 C 383.49554443359375 275.99365234375 378.0009765625 270.5060729980469 376.0230407714844 263.0432434082031 C 378.16668701171875 255.73301696777344 383.87030029296875 250.551025390625 391.69781494140625 248.6917724609375 C 398.88812255859375 249.46685791015625 404.19036865234375 255.23109436035156 405.9700927734375 262.8336486816406" stroke-width="0.0" fill="rgb(250, 252, 252)" opacity="0.99242973"/>
    <path d="M 339.9023742675781 457.1966552734375 C 337.05792236328125 465.52203369140625 331.50299072265625 470.9913330078125 323.44793701171875 473.603759765625 C 315.7371826171875 471.75726318359375 310.1695251464844 466.2904968261719 308.0722351074219 458.1430969238281 C 310.1773376464844 449.7417297363281 315.81866455078125 444.4029235839844 324.29693603515625 442.4915466308594 C 332.2798767089844 444.269287109375 337.8659362792969 449.67352294921875 339.9023742675781 457.1966552734375" stroke-width="0.0" fill="rgb(166, 34, 13)" opacity="1.0"/>
    <path d="M 370.4293212890625 274.60760498046875 C 367.9903869628906 282.5 362.5 287.9903869628906 355.03363037109375 289.97998046875 C 347.74407958984375 287.8372802734375 342.5609130859375 282.11529541015625 340.7587585449219 274.54864501953125 C 341.8308410644531 267.07025146484375 346.9211730957031 261.3079833984375 355.1032409667969 259.14654541015625 C 363.16748046875 261.28326416015625 368.6316223144531 266.86199951171875 370.4293212890625 274.60760498046875" stroke-width="0.0" fill="rgb(192, 143, 119)" opacity="0.9902082"/>
    <path d="M 273.9363098144531 492.0818786621094 C 271.86865234375 500.35198974609375 266.34161376953125 505.8391418457031 258.77520751953125 506.1469421386719 C 251.04397583007812 504.32525634765625 245.70606994628906 498.9384765625 243.9253387451172 491.8876647949219 C 245.6905517578125 484.9872131347656 250.77761840820312 479.14678955078125 258.37188720703125 476.7157897949219 C 266.2464599609375 478.3235168457031 271.8576354980469 483.6917724609375 273.9363098144531 492.0818786621094" stroke-width="0.0" fill="rgb(144, 43, 29)" opacity="0.99003345"/>
    <path d="M 391.1111755371094 297.6816101074219 C 389.0932922363281 305.78955078125 383.936767578125 311.5703125 375.7113342285156 313.83074951171875 C 367.8839416503906 311.6778564453125 362.3719177246094 306.09686279296875 360.3857421875 298.4742736816406 C 363.0101318359375 290.5003967285156 368.5003662109375 285.01007080078125 376.6180419921875 282.2884826660156 C 384.21295166015625 284.23638916015625 389.5883483886719 289.8432922363281 391.1111755371094 297.6816101074219" stroke-width="0.0" fill="rgb(185, 140, 112)" opacity="1.0"/>
    <path d="M 193.75833129882812 299.48468017578125 C 191.79798889160156 307.2893981933594 186.30294799804688 312.8337707519531 177.55091857910156 314.93780517578125 C 169.64776611328125 312.8715515136719 164.1378936767578 307.3482666015625 162.07147216796875 299.1876220703125 C 164.142822265625 290.65631103515625 169.6522674560547 285.133544921875 177.68341064453125 283.0727844238281 C 186.29043579101562 285.16351318359375 191.70565795898438 290.7559814453125 193.75833129882812 299.48468017578125" stroke-width="0.0" fill="rgb(166, 35, 13)" opacity="1.0"/>
    <path d="M 499.208251953125 396.9779052734375 C 497.4322814941406 404.1372375488281 492.3215637207031 409.90960693359375 484.9649963378906 411.44000244140625 C 477.11962890625 410.1634521484375 471.41082763671875 404.9964294433594 469.38641357421875 397.46197509765625 C 472.0096435546875 389.5000305175781 477.5000305175781 384.0096740722656 484.9886779785156 382.0054016113281 C 492.3531188964844 384.08306884765625 497.5023193359375 389.79656982421875 499.208251953125 396.9779052734375" stroke-width="0.0" fill="rgb(190, 140, 116)" opacity="0.99012816"/>
    <path d="M 254.10195922851562 509.5655212402344 C 252.28890991210938 517.1183471679688 247.980712890625 523.736328125 239.4739227294922 525.9235229492188 C 231.72698974609375 523.83349609375 226.5471649169922 518.1778564453125 225.89466857910156 510.5845642089844 C 227.73504638671875 503.0072937011719 232.71566772460938 497.1137390136719 239.63385009765625 495.8755798339844 C 247.47457885742188 497.40789794921875 252.5640411376953 502.5479431152344 254.10195922851562 509.5655212402344" stroke-width="0.0" fill="rgb(106, 88, 83)" opacity="0.99001735"/>
    <path d="M 267.817626953125 382.67022705078125 C 265.6690368652344 391.1509094238281 260.18170166015625 396.7456970214844 252.67323303222656 398.8146057128906 C 244.5000457763672 395.9906921386719 239.0098114013672 390.49981689453125 236.29119873046875 382.4147644042969 C 238.2787628173828 374.8262939453125 243.84547424316406 369.3289489746094 252.3533172607422 367.18109130859375 C 260.19073486328125 369.2662353515625 265.7286071777344 374.81146240234375 267.817626953125 382.67022705078125" stroke-width="0.0" fill="rgb(190, 139, 115)" opacity="1.0"/>
    <path d="M 192.58657836914062 427.2651672363281 C 189.28160095214844 434.8291320800781 183.82528686523438 440.2706604003906 176.58334350585938 442.1791687011719 C 169.84500122070312 440.4778747558594 164.11627197265625 435.2956848144531 161.2260284423828 427.3753356933594 C 163.3011932373047 419.910888671875 169.0180206298828 414.6014709472656 177.3352508544922 412.4604797363281 C 185.115478515625 414.3844909667969 190.7196502685547 419.8453063964844 192.58657836914062 427.2651672363281" stroke-width="0.0" fill="rgb(191, 142, 118)" opacity="0.9900423"/>
    <path d="M 168.18878173828125 458.7362365722656 C 166.30130004882812 465.864013671875 160.8991241455078 471.4156494140625 153.27496337890625 474.8658142089844 C 145.75741577148438 472.8059997558594 140.3958740234375 467.1730651855469 138.72727966308594 459.3044738769531 C 141.00958251953125 451.4999694824219 146.49996948242188 446.0096130371094 153.9481658935547 444.04595947265625 C 161.27769470214844 446.1806335449219 166.54156494140625 451.8152770996094 168.18878173828125 458.7362365722656" stroke-width="0.0" fill="rgb(191, 138, 116)" opacity="0.99009544"/>
    <path d="M 280.13494873046875 188.55880737304688 C 278.645751953125 195.3782501220703 273.5828552246094 201.2010955810547 266.39013671875 202.74612426757812 C 258.1567687988281 200.92002868652344 252.4272003173828 195.98875427246094 250.55319213867188 188.4224090576172 C 253.1705322265625 180.5822296142578 258.6911926269531 175.42832946777344 266.7150573730469 173.7703094482422 C 273.8133239746094 174.43772888183594 278.6328430175781 180.57618713378906 280.13494873046875 188.55880737304688" stroke-width="0.0" fill="rgb(252, 252, 252)" opacity="1.0"/>
    <path d="M 474.9156799316406 304.6189270019531 C 472.84857177734375 312.3338317871094 467.341064453125 317.8653259277344 459.3526306152344 319.938232421875 C 450.66314697265625 317.8567810058594 445.142822265625 312.337158203125 443.07257080078125 304.1328430175781 C 445.14434814453125 295.6624755859375 450.66455078125 290.1492614746094 458.59771728515625 288.0711669921875 C 467.1554870605469 290.2433166503906 472.7005615234375 295.8748779296875 474.9156799316406 304.6189270019531" stroke-width="0.0" fill="rgb(164, 34, 12)" opacity="1.0"/>
    <path d="M 475.7841796875 349.1828308105469 C 472.2331848144531 355.68341064453125 466.64593505859375 361.1011962890625 459.5906677246094 363.04925537109375 C 453.3620910644531 361.1073913574219 447.8579406738281 355.6490173339844 444.8052673339844 348.4416198730469 C 447.15936279296875 341.60107421875 452.5239562988281 335.8959045410156 460.0473327636719 333.446044921875 C 467.5856628417969 335.8014831542969 473.0005187988281 341.4808044433594 475.7841796875 349.1828308105469" stroke-width="0.0" fill="rgb(101, 22, 16)" opacity="0.9900193"/>
    <path d="M 454.8386535644531 247.24942016601562 C 452.0080261230469 255.54246520996094 446.6461181640625 261.31109619140625 438.25390625 263.90191650390625 C 430.7429504394531 261.8300476074219 425.38397216796875 256.1753234863281 424.2469177246094 248.52301025390625 C 426.3127136230469 240.2460174560547 430.92169189453125 234.25230407714844 439.6078796386719 232.0643310546875 C 447.3339538574219 234.13946533203125 452.8468322753906 239.6718292236328 454.8386535644531 247.24942016601562" stroke-width="0.0" fill="rgb(160, 25, 13)" opacity="1.0"/>
    <path d="M 115.85089111328125 229.1287078857422 C 113.69342041015625 237.0716094970703 107.91578674316406 242.19522094726562 99.52664947509766 244.58987426757812 C 91.90316009521484 242.65029907226562 86.55561828613281 237.0374298095703 85.7690658569336 229.47573852539062 C 87.61193084716797 222.02418518066406 92.9709243774414 216.4451904296875 100.50336456298828 213.36729431152344 C 108.08311462402344 215.38572692871094 113.67330169677734 220.89376831054688 115.85089111328125 229.1287078857422" stroke-width="0.0" fill="rgb(184, 131, 105)" opacity="0.9904031"/>
    <path d="M 348.11944580078125 471.3144836425781 C 345.4778747558594 479.0736083984375 340.1311340332031 484.65802001953125 332.18646240234375 487.8872375488281 C 324.64471435546875 485.8766174316406 319.1514892578125 480.3437194824219 317.1356506347656 472.7432861328125 C 319.9476623535156 464.47991943359375 325.49737548828125 459.00897216796875 333.5802001953125 456.377197265625 C 341.28314208984375 458.2203369140625 346.797119140625 463.7109375 348.11944580078125 471.3144836425781" stroke-width="0.0" fill="rgb(165, 33, 14)" opacity="1.0"/>
    <path d="M 161.86021423339844 343.6294250488281 C 159.66392517089844 350.8782958984375 153.35855102539062 355.59881591796875 145.6814422607422 357.3732604980469 C 137.88670349121094 356.4366760253906 132.18167114257812 351.23333740234375 130.06817626953125 343.37786865234375 C 132.2192840576172 334.8544006347656 138.09617614746094 330.15618896484375 145.77430725097656 328.7635192871094 C 153.0957794189453 330.54730224609375 159.2520294189453 335.6940612792969 161.86021423339844 343.6294250488281" stroke-width="0.0" fill="rgb(32, 4, 4)" opacity="0.99003506"/>
    <path d="M 187.84170532226562 402.0730285644531 C 185.65972900390625 410.06243896484375 179.9789276123047 415.420654296875 171.61431884765625 417.6030578613281 C 163.89939880371094 415.6401672363281 158.3404083251953 410.10693359375 156.1846160888672 402.1961669921875 C 158.34353637695312 393.8620910644531 163.8461456298828 388.30224609375 172.1195068359375 386.1717529296875 C 180.1255645751953 388.3164978027344 185.66470336914062 393.882568359375 187.84170532226562 402.0730285644531" stroke-width="0.0" fill="rgb(190, 140, 113)" opacity="1.0"/>
    <path d="M 415.7139892578125 293.3421936035156 C 413.4248046875 302.03662109375 408.1326599121094 307.7218933105469 400.6409606933594 309.739013671875 C 392.6835021972656 306.80438232421875 387.4878845214844 301.202880859375 385.82305908203125 293.9969177246094 C 387.4864807128906 286.8323669433594 392.7625427246094 281.3074035644531 400.711669921875 278.2110900878906 C 408.2572937011719 280.21002197265625 413.7762145996094 285.7488708496094 415.7139892578125 293.3421936035156" stroke-width="0.0" fill="rgb(214, 213, 212)" opacity="1.0"/>
    <path d="M 290.92364501953125 406.6647644042969 C 288.870361328125 414.3489990234375 283.34234619140625 419.85443115234375 274.32952880859375 421.93359375 C 266.6598205566406 419.8748474121094 261.3433532714844 414.28472900390625 260.9599609375 406.843994140625 C 262.92291259765625 399.3906555175781 268.3887634277344 393.91851806640625 275.26995849609375 391.96380615234375 C 281.65594482421875 393.90576171875 288.0641174316406 399.2425537109375 290.92364501953125 406.6647644042969" stroke-width="0.0" fill="rgb(13, 3, 3)" opacity="0.9900065"/>
    <path d="M 372.2017822265625 396.8392333984375 C 371.73211669921875 404.12530517578125 365.84600830078125 408.4734191894531 358.6507568359375 410.0681457519531 C 351.345703125 408.1214599609375 345.8848571777344 402.651611328125 343.9412841796875 395.725830078125 C 345.8678283691406 389.3295593261719 351.32928466796875 383.86712646484375 358.12603759765625 381.93701171875 C 364.6642150878906 383.8677978515625 370.1241455078125 389.3389892578125 372.2017822265625 396.8392333984375" stroke-width="0.0" fill="rgb(85, 68, 66)" opacity="0.99000674"/>
    <path d="M 466.814208984375 386.650390625 C 464.6182861328125 395.0796813964844 459.07916259765625 400.6167907714844 450.7008056640625 402.8027648925781 C 442.8826904296875 400.67388916015625 437.36114501953125 395.1038513183594 435.3822326660156 387.4798583984375 C 437.9436340332031 379.3663024902344 443.2057189941406 373.5098571777344 451.2075500488281 371.126708984375 C 459.14141845703125 373.3107604980469 464.6908264160156 378.8580017089844 466.814208984375 386.650390625" stroke-width="0.0" fill="rgb(187, 136, 112)" opacity="1.0"/>
    <path d="M 248.2624969482422 290.3110046386719 C 247.3188934326172 297.8565368652344 241.93333435058594 303.54229736328125 234.3833465576172 305.66748046875 C 226.22866821289062 303.2657470703125 220.56307983398438 297.8316955566406 218.46905517578125 290.35260009765625 C 221.01145935058594 282.50689697265625 226.54364013671875 277.13446044921875 233.5290069580078 275.7953186035156 C 240.8948516845703 277.67559814453125 246.39834594726562 283.07891845703125 248.2624969482422 290.3110046386719" stroke-width="0.0" fill="rgb(251, 252, 250)" opacity="0.9902295"/>
    <path d="M 311.13909912109375 373.93658447265625 C 309.00506591796875 381.5359191894531 303.595947265625 387.19549560546875 296.0373229980469 389.61737060546875 C 288.5452880859375 386.9563293457031 282.7776794433594 381.5494079589844 281.6103210449219 374.4513244628906 C 283.3629455566406 366.8105773925781 288.7622375488281 361.18572998046875 295.6156311035156 359.6168212890625 C 303.3575744628906 361.33355712890625 309.05633544921875 366.5101318359375 311.13909912109375 373.93658447265625" stroke-width="0.0" fill="rgb(246, 250, 249)" opacity="1.0"/>
    <path d="M 337.9391174316406 437.640380859375 C 335.822998046875 446.24517822265625 330.14874267578125 451.54876708984375 322.1295471191406 453.28924560546875 C 314.2164001464844 451.2945251464844 308.76080322265625 445.766845703125 306.599609375 437.6426696777344 C 308.3079833984375 429.74981689453125 313.69525146484375 424.1488952636719 321.9510192871094 422.064697265625 C 330.34503173828125 424.1402893066406 335.8674621582031 429.651611328125 337.9391174316406 437.640380859375" stroke-width="0.0" fill="rgb(166, 34, 12)" opacity="1.0"/>
    <path d="M 151.93702697753906 306.1836853027344 C 149.8550567626953 314.3052673339844 144.25140380859375 319.7109680175781 135.2729949951172 321.9031066894531 C 127.63350677490234 319.8739013671875 122.10367584228516 314.3763427734375 120.0505142211914 306.645263671875 C 122.14183807373047 297.6653137207031 127.66438293457031 292.13983154296875 135.80624389648438 290.06170654296875 C 144.34991455078125 292.1352233886719 149.86312866210938 297.65081787109375 151.93702697753906 306.1836853027344" stroke-width="0.0" fill="rgb(163, 33, 12)" opacity="1.0"/>
    <path d="M 287.8787841796875 129.21337890625 C 284.9952392578125 137.51040649414062 279.52423095703125 143.04248046875 271.3526306152344 145.7347412109375 C 263.7244873046875 143.80239868164062 258.26806640625 138.25148010253906 256.22601318359375 129.63279724121094 C 258.2140197753906 121.73678588867188 263.76788330078125 116.31867218017578 272.443359375 114.33153533935547 C 280.2601013183594 116.26038360595703 285.8475646972656 121.69821166992188 287.8787841796875 129.21337890625" stroke-width="0.0" fill="rgb(164, 31, 11)" opacity="1.0"/>
    <path d="M 433.9316711425781 269.4292297363281 C 431.87542724609375 277.3690490722656 426.3753356933594 282.89044189453125 418.38775634765625 284.94085693359375 C 409.62713623046875 282.87890625 404.1098327636719 277.3777160644531 403.6753845214844 269.87030029296875 C 405.7377624511719 261.98114013671875 410.4889221191406 255.66221618652344 418.35394287109375 253.64947509765625 C 426.2064514160156 255.34498596191406 431.8312683105469 260.7287902832031 433.9316711425781 269.4292297363281" stroke-width="0.0" fill="rgb(167, 27, 13)" opacity="1.0"/>
    <path d="M 395.2496643066406 433.4762878417969 C 393.68115234375 441.4983215332031 388.7476501464844 447.3993835449219 381.3489074707031 449.1847839355469 C 373.4109191894531 446.832763671875 367.5487060546875 441.78851318359375 366.28887939453125 434.04461669921875 C 367.85198974609375 426.4904479980469 373.5852355957031 421.1532287597656 381.2610168457031 418.669189453125 C 388.6615295410156 420.818359375 394.19378662109375 426.3330383300781 395.2496643066406 433.4762878417969" stroke-width="0.0" fill="rgb(252, 252, 251)" opacity="1.0"/>
    <path d="M 150.2736358642578 457.511962890625 C 149.5458984375 465.099365234375 144.09442138671875 470.5104675292969 136.71205139160156 471.0726318359375 C 129.0724639892578 469.1997375488281 122.24442291259766 464.9114685058594 120.05908966064453 456.394287109375 C 122.12044525146484 448.6462707519531 127.67094421386719 443.1882019042969 135.31016540527344 442.5925598144531 C 142.93017578125 444.6201477050781 148.37557983398438 450.0711669921875 150.2736358642578 457.511962890625" stroke-width="0.0" fill="rgb(151, 30, 5)" opacity="0.990033"/>
    <path d="M 103.30110168457031 274.7289733886719 C 101.71715545654297 282.3557434082031 96.51666259765625 288.2228698730469 89.80435943603516 289.2327880859375 C 82.35175323486328 287.1163024902344 76.89396667480469 281.64410400390625 74.91654968261719 274.1440124511719 C 75.32503509521484 266.8772888183594 80.92619323730469 261.47698974609375 88.7513656616211 260.74786376953125 C 96.82575988769531 261.6903076171875 102.33085632324219 267.1688537597656 103.30110168457031 274.7289733886719" stroke-width="0.0" fill="rgb(250, 251, 250)" opacity="0.99003947"/>
    <path d="M 502.43316650390625 224.3855438232422 C 500.63134765625 232.1542205810547 495.1641845703125 237.65399169921875 487.3843994140625 238.09423828125 C 479.73480224609375 236.57656860351562 474.20794677734375 231.3460235595703 471.40216064453125 223.65440368652344 C 474.4154052734375 217.07278442382812 480.15576171875 211.73635864257812 487.740234375 209.5428924560547 C 494.96295166015625 210.4123992919922 500.1380920410156 216.1745147705078 502.43316650390625 224.3855438232422" stroke-width="0.0" fill="rgb(252, 252, 252)" opacity="0.99006957"/>
    <path d="M 286.8355712890625 349.6308898925781 C 284.6602478027344 358.09661865234375 279.06524658203125 363.5784912109375 270.6949768066406 365.78887939453125 C 262.89373779296875 363.6573486328125 257.3642883300781 358.0979919433594 255.1760711669922 349.60894775390625 C 257.2622985839844 341.8012390136719 262.8161315917969 336.3025207519531 271.50433349609375 334.1494445800781 C 279.23974609375 336.2218322753906 284.7519836425781 341.77099609375 286.8355712890625 349.6308898925781" stroke-width="0.0" fill="rgb(190, 138, 113)" opacity="1.0"/>
    <path d="M 215.8435821533203 252.6616973876953 C 213.6786651611328 259.8682861328125 207.007080078125 264.2301330566406 200.47486877441406 266.056396484375 C 193.35031127929688 264.1100158691406 187.85108947753906 258.6642761230469 185.17381286621094 251.18882751464844 C 186.2608642578125 243.89007568359375 192.05523681640625 238.7620086669922 199.41041564941406 237.8536834716797 C 206.83181762695312 239.70510864257812 212.29344177246094 245.17132568359375 215.8435821533203 252.6616973876953" stroke-width="0.0" fill="rgb(252, 252, 252)" opacity="0.99001575"/>
    <path d="M 246.5107879638672 168.0598602294922 C 243.86520385742188 175.36669921875 238.43580627441406 181.12123107910156 230.6757354736328 183.38961791992188 C 223.3243408203125 181.41929626464844 217.91278076171875 175.5213165283203 216.7120819091797 168.1782989501953 C 217.84486389160156 160.3326873779297 223.2556915283203 154.6195526123047 230.52171325683594 152.43202209472656 C 238.11619567871094 155.43923950195312 243.68682861328125 160.84637451171875 246.5107879638672 168.0598602294922" stroke-width="0.0" fill="rgb(252, 252, 252)" opacity="1.0"/>
    <path d="M 207.2504119873047 322.427978515625 C 206.5150604248047 330.16754150390625 201.2652130126953 335.83428955078125 192.7099151611328 337.922119140625 C 184.64773559570312 335.86358642578125 179.130859375 330.3543701171875 177.07374572753906 322.5258483886719 C 179.1842498779297 313.73394775390625 184.7599639892578 308.2447204589844 192.34361267089844 306.2781066894531 C 200.0679168701172 309.3720397949219 205.40354919433594 315.0018615722656 207.2504119873047 322.427978515625" stroke-width="0.0" fill="rgb(23, 3, 2)" opacity="0.9900209"/>
  </g>
</svg>
