<?xml version="1.0" ?>
<svg xmlns="http://www.w3.org/2000/svg" version="1.1" width="600" height="600">
  <defs/>
  <g>
    <path d="M 407.65948486328125 326.56463623046875 C 405.7443542480469 334.2494812011719 400.2912902832031 339.8441467285156 392.74432373046875 341.9105529785156 C 384.21649169921875 339.4635009765625 378.9396667480469 333.6387939453125 376.9945983886719 326.0110778808594 C 379.0096130371094 318.5 384.5 313.0096130371094 392.0 311.0 C 399.5 313.0096130371094 404.9903869628906 318.5 407.65948486328125 326.56463623046875" stroke-width="0.0" fill="rgb(156, 94, 88)" opacity="1.0"/>
    <path d="M 291.5472717285156 50.46934127807617 C 290.3958435058594 57.8325309753418 284.7734375 63.20624542236328 277.2007751464844 64.8803939819336 C 269.8912658691406 62.627906799316406 264.5311584472656 57.05713653564453 262.6587829589844 49.69949722290039 C 264.429931640625 42.89886474609375 269.9001159667969 37.4318733215332 277.64349365234375 34.340328216552734 C 285.09539794921875 36.2782096862793 289.75897216796875 42.1322135925293 291.5472717285156 50.46934127807617" stroke-width="0.0" fill="rgb(252, 204, 129)" opacity="0.9900638"/>
    <path d="M 101.0 377.0 C 98.9903793334961 384.5 93.5 389.9903869628906 85.54487609863281 392.5213623046875 C 77.86078643798828 390.66351318359375 72.37029266357422 385.12744140625 70.27925872802734 376.8804626464844 C 72.41317749023438 369.0749816894531 78.2326431274414 363.8529052734375 85.96961212158203 361.9840393066406 C 93.5 364.0096130371094 98.9903793334961 369.5 101.0 377.0" stroke-width="0.0" fill="rgb(252, 218, 152)" opacity="1.0"/>
    <path d="M 124.0 347.0 C 121.9903793334961 354.5 116.5 359.9903869628906 109.0 362.0 C 101.5 359.9903869628906 96.0096206665039 354.5 94.0 347.0 C 96.0096206665039 339.5 101.5 334.0096130371094 109.0 332.0 C 116.5 334.0096130371094 121.9903793334961 339.5 124.0 347.0" stroke-width="0.0" fill="rgb(160, 99, 95)" opacity="1.0"/>
    <path d="M 147.84576416015625 291.2076416015625 C 146.04409790039062 298.5703125 140.58897399902344 304.1055908203125 133.05308532714844 306.069580078125 C 125.5 303.9903869628906 120.0096206665039 298.5 118.16336059570312 291.22998046875 C 120.56001281738281 284.1282043457031 126.20508575439453 278.793212890625 133.4182586669922 276.9093933105469 C 139.86367797851562 278.73052978515625 145.5039520263672 284.0592346191406 147.84576416015625 291.2076416015625" stroke-width="0.0" fill="rgb(48, 41, 51)" opacity="0.9900378"/>
    <path d="M 395.10528564453125 290.8536376953125 C 392.9903869628906 298.5 387.5 303.9903869628906 380.0097961425781 305.9954528808594 C 372.63934326171875 303.9231872558594 367.5218811035156 298.1949157714844 365.8572998046875 291.1779479980469 C 367.7524108886719 284.22198486328125 373.2373352050781 278.7930908203125 380.8482666015625 275.1988830566406 C 388.19476318359375 277.1983947753906 393.4287414550781 282.94207763671875 395.10528564453125 290.8536376953125" stroke-width="0.0" fill="rgb(163, 100, 95)" opacity="0.99003625"/>
    <path d="M 107.64710998535156 448.5230712890625 C 105.57203674316406 456.9562683105469 99.84127044677734 462.22515869140625 92.05962371826172 464.0361022949219 C 84.52146911621094 461.9820251464844 79.19764709472656 456.42242431640625 77.83297729492188 449.5813293457031 C 79.74796295166016 442.17578125 85.1645278930664 436.7220153808594 92.45790100097656 434.8565673828125 C 100.08755493164062 435.75634765625 105.76111602783203 440.8018493652344 107.64710998535156 448.5230712890625" stroke-width="0.0" fill="rgb(235, 150, 61)" opacity="0.9901031"/>
    <path d="M 417.01605224609375 291.0244445800781 C 415.0908508300781 298.6466369628906 409.70361328125 304.2730407714844 402.16375732421875 306.2321472167969 C 394.5 303.9903869628906 389.0096130371094 298.5 387.0 291.0 C 389.0096130371094 283.5 394.5 278.0096130371094 402.0 276.0 C 409.5 278.0096130371094 414.9903869628906 283.5 417.01605224609375 291.0244445800781" stroke-width="0.0" fill="rgb(159, 99, 94)" opacity="1.0"/>
    <path d="M 171.0 302.0 C 168.99038696289062 309.5 163.5 314.9903869628906 155.45040893554688 317.6246032714844 C 147.77401733398438 315.73797607421875 142.20570373535156 310.2477722167969 140.14170837402344 302.7145080566406 C 142.91058349609375 294.4608459472656 148.4888916015625 289.0053405761719 155.99957275390625 286.9998474121094 C 163.5 289.0096130371094 168.99038696289062 294.5 171.0 302.0" stroke-width="0.0" fill="rgb(144, 97, 94)" opacity="0.9912888"/>
    <path d="M 389.99615478515625 306.0084228515625 C 387.9903869628906 313.5 382.5 318.9903869628906 375.1857604980469 320.8507995605469 C 368.06109619140625 318.5148620605469 362.776123046875 312.8370056152344 360.9338073730469 306.545166015625 C 362.8804016113281 299.3405456542969 368.3326110839844 293.8609313964844 375.6475830078125 291.9052734375 C 382.210205078125 293.50830078125 387.9306945800781 298.62652587890625 389.99615478515625 306.0084228515625" stroke-width="0.0" fill="rgb(43, 37, 45)" opacity="0.9901201"/>
    <path d="M 336.02276611328125 201.98277282714844 C 333.9825744628906 209.47804260253906 328.4040222167969 214.75347900390625 321.602783203125 216.1343994140625 C 314.2188720703125 214.2223663330078 308.7713317871094 208.78358459472656 306.8988952636719 202.29335021972656 C 308.81842041015625 195.26431274414062 314.2514953613281 189.7859344482422 321.17449951171875 187.8810577392578 C 328.1382141113281 189.5996551513672 333.97540283203125 194.6384735107422 336.02276611328125 201.98277282714844" stroke-width="0.0" fill="rgb(165, 101, 94)" opacity="0.9900188"/>
    <path d="M 213.41680908203125 252.97666931152344 C 211.34323120117188 260.8500671386719 205.92225646972656 266.5415344238281 198.37278747558594 268.7438659667969 C 189.98973083496094 266.6263122558594 184.71673583984375 260.89447021484375 182.9031982421875 253.04124450683594 C 184.88726806640625 245.3874969482422 190.39866638183594 239.92391967773438 198.6178741455078 237.22894287109375 C 206.12342834472656 239.27206420898438 211.3957061767578 244.99267578125 213.41680908203125 252.97666931152344" stroke-width="0.0" fill="rgb(252, 222, 156)" opacity="1.0"/>
    <path d="M 391.0006408691406 306.9983825683594 C 388.9903869628906 314.5 383.5 319.9903869628906 375.4482116699219 322.6194763183594 C 367.790283203125 320.7380676269531 362.2958679199219 315.1964111328125 360.1352844238281 306.6732482910156 C 362.2419128417969 298.770263671875 367.7669677734375 293.23358154296875 375.41748046875 291.14361572265625 C 383.6262512207031 293.7292785644531 389.00567626953125 299.4615478515625 391.0006408691406 306.9983825683594" stroke-width="0.0" fill="rgb(118, 80, 82)" opacity="1.0"/>
    <path d="M 204.17990112304688 327.097900390625 C 202.12747192382812 334.5753479003906 196.54019165039062 340.0121765136719 189.0039825439453 342.002197265625 C 181.5 339.9903869628906 176.00961303710938 334.5 174.0 327.0 C 176.00961303710938 319.5 181.5 314.0096130371094 189.0 312.0 C 196.5 314.0096130371094 201.99038696289062 319.5 204.17990112304688 327.097900390625" stroke-width="0.0" fill="rgb(255, 229, 163)" opacity="0.9968683"/>
    <path d="M 198.69149780273438 278.45904541015625 C 196.17066955566406 286.6561584472656 190.6886749267578 292.26837158203125 183.19857788085938 294.32891845703125 C 175.5 291.9903869628906 170.00961303710938 286.5 168.0 279.0 C 170.00961303710938 271.5 175.5 266.0096130371094 183.33424377441406 263.7044372558594 C 191.1513671875 265.382568359375 196.7227020263672 270.81488037109375 198.69149780273438 278.45904541015625" stroke-width="0.0" fill="rgb(252, 226, 162)" opacity="1.0"/>
    <path d="M 296.285888671875 318.318359375 C 294.61102294921875 326.1646423339844 289.195556640625 331.713134765625 281.7607116699219 332.1088562011719 C 274.2666320800781 330.1784973144531 268.7454528808594 324.7599792480469 266.5247802734375 317.5061340332031 C 268.0096130371094 310.5 273.5 305.0096130371094 281.0 303.0 C 288.5 305.0096130371094 293.9903869628906 310.5 296.285888671875 318.318359375" stroke-width="0.0" fill="rgb(40, 46, 55)" opacity="0.9900521"/>
    <path d="M 145.87596130371094 361.4019775390625 C 143.8151092529297 369.304931640625 138.31568908691406 374.841796875 129.57662963867188 376.9314880371094 C 121.68257904052734 374.8557434082031 116.2550277709961 369.278076171875 114.50584411621094 361.4922790527344 C 117.0096206665039 353.5 122.5 348.0096130371094 130.30328369140625 345.6975402832031 C 138.1133575439453 347.4283142089844 143.73175048828125 352.8316345214844 145.87596130371094 361.4019775390625" stroke-width="0.0" fill="rgb(155, 94, 90)" opacity="1.0"/>
    <path d="M 192.8853302001953 445.484375 C 190.80401611328125 453.2684631347656 185.2648468017578 458.79541015625 177.39752197265625 460.8809509277344 C 168.89401245117188 458.71038818359375 163.6199188232422 452.9931335449219 161.9070281982422 445.1268310546875 C 163.9925079345703 437.4573059082031 169.37045288085938 431.729736328125 177.5865478515625 429.18011474609375 C 185.25277709960938 431.2200622558594 190.76246643066406 436.7540283203125 192.8853302001953 445.484375" stroke-width="0.0" fill="rgb(158, 97, 92)" opacity="1.0"/>
    <path d="M 504.8369445800781 359.4460754394531 C 502.5544738769531 367.90380859375 496.76678466796875 373.1642150878906 488.54254150390625 375.7044372558594 C 481.2744140625 373.42138671875 475.9762878417969 367.5810546875 473.9985656738281 360.00360107421875 C 476.0096130371094 352.5 481.5 347.0096130371094 489.6728820800781 344.22589111328125 C 497.28466796875 346.19964599609375 502.8094787597656 351.711669921875 504.8369445800781 359.4460754394531" stroke-width="0.0" fill="rgb(173, 62, 30)" opacity="0.99059194"/>
    <path d="M 408.16204833984375 511.87249755859375 C 406.2718505859375 518.8327026367188 400.8360595703125 524.2799682617188 393.88116455078125 526.16455078125 C 387.1424560546875 524.2976684570312 381.6802062988281 518.8654174804688 379.79815673828125 512.1056518554688 C 381.6864013671875 505.1393737792969 387.14324951171875 499.696533203125 393.9949035644531 497.82135009765625 C 400.85748291015625 499.69647216796875 406.28814697265625 505.1488342285156 408.16204833984375 511.87249755859375" stroke-width="0.0" fill="rgb(238, 156, 92)" opacity="0.99001837"/>
    <path d="M 69.0 9.0 C 66.9903793334961 16.5 61.5 21.990381240844727 53.975929260253906 24.01172637939453 C 46.227046966552734 22.136598587036133 40.310611724853516 16.996387481689453 38.126243591308594 9.72364616394043 C 41.00981521606445 1.5000579357147217 46.500003814697266 -3.9903793334960938 54.0 -6.0 C 61.5 -3.9903810024261475 66.9903793334961 1.5 69.0 9.0" stroke-width="0.0" fill="rgb(41, 46, 54)" opacity="1.0"/>
    <path d="M 72.00028991699219 281.999267578125 C 69.9903793334961 289.5 64.5 294.9903869628906 57.0858039855957 296.9377746582031 C 49.87952423095703 294.7030029296875 44.63951110839844 289.002685546875 42.85774230957031 282.24322509765625 C 44.745697021484375 275.18853759765625 50.17811584472656 269.7187805175781 57.58469772338867 267.6046447753906 C 64.5588150024414 268.86834716796875 69.99746704101562 274.4819641113281 72.00028991699219 281.999267578125" stroke-width="0.0" fill="rgb(238, 153, 62)" opacity="0.9900367"/>
    <path d="M 294.9759826660156 516.99267578125 C 292.91650390625 524.4037475585938 287.38140869140625 529.84326171875 279.63067626953125 532.5209350585938 C 272.2652282714844 530.3746948242188 267.109130859375 524.5875244140625 265.6252746582031 517.3123168945312 C 267.5644226074219 509.9806823730469 272.9543151855469 504.4888610839844 280.25360107421875 502.2342529296875 C 287.4176330566406 504.11444091796875 292.9412841796875 509.5653991699219 294.9759826660156 516.99267578125" stroke-width="0.0" fill="rgb(255, 231, 166)" opacity="0.99019235"/>
    <path d="M 445.00152587890625 289.99627685546875 C 442.9903869628906 297.5 437.5 302.9903869628906 430.0 305.0 C 422.5 302.9903869628906 417.0096130371094 297.5 414.87420654296875 289.8381042480469 C 416.565185546875 281.9588928222656 421.8521728515625 276.25579833984375 429.4656982421875 274.1475524902344 C 437.7097473144531 276.6058654785156 443.0229797363281 282.42230224609375 445.00152587890625 289.99627685546875" stroke-width="0.0" fill="rgb(159, 97, 91)" opacity="1.0"/>
    <path d="M 216.45652770996094 297.6797180175781 C 213.99038696289062 305.5 208.5 310.9903869628906 200.97531127929688 313.0164794921875 C 193.35235595703125 311.0914001464844 187.70892333984375 305.7105712890625 185.59642028808594 298.22222900390625 C 188.0297393798828 290.4485168457031 193.36776733398438 284.76904296875 201.2034912109375 282.3851623535156 C 208.89639282226562 284.5479736328125 214.457275390625 290.1012878417969 216.45652770996094 297.6797180175781" stroke-width="0.0" fill="rgb(255, 230, 163)" opacity="0.9924738"/>
    <path d="M 167.00271606445312 290.00201416015625 C 164.984619140625 297.4672546386719 159.38868713378906 302.7431335449219 152.1841278076172 304.28436279296875 C 144.89154052734375 302.5068359375 139.3083038330078 297.1689758300781 137.365478515625 290.2328186035156 C 139.5906219482422 283.093505859375 145.10565185546875 277.6305236816406 152.36746215820312 275.38568115234375 C 159.5 277.0096130371094 164.99038696289062 282.5 167.00271606445312 290.00201416015625" stroke-width="0.0" fill="rgb(35, 43, 57)" opacity="0.99012154"/>
    <path d="M 212.0 317.0 C 209.99038696289062 324.5 204.5 329.9903869628906 197.0 332.0 C 189.5 329.9903869628906 184.00961303710938 324.5 181.9729766845703 316.9642639160156 C 183.89309692382812 309.3675537109375 189.3538055419922 303.8472900390625 196.93264770507812 301.9238586425781 C 204.5 304.0096130371094 209.99038696289062 309.5 212.0 317.0" stroke-width="0.0" fill="rgb(255, 229, 163)" opacity="0.9958963"/>
    <path d="M 118.41496276855469 358.418701171875 C 116.68317413330078 366.2095031738281 111.2199478149414 371.71527099609375 102.96076965332031 372.2762451171875 C 95.50017547607422 370.9897766113281 90.0096206665039 365.5 88.63642883300781 358.3127746582031 C 89.85836791992188 350.2425231933594 95.23567962646484 344.8009033203125 102.93925476074219 342.9584045410156 C 110.5 345.0096130371094 115.9903793334961 350.5 118.41496276855469 358.418701171875" stroke-width="0.0" fill="rgb(40, 47, 57)" opacity="0.9901616"/>
    <path d="M 390.02783203125 332.669677734375 C 387.3059997558594 339.782958984375 381.74102783203125 345.1788635253906 375.2269592285156 347.0785217285156 C 368.3217468261719 345.1451110839844 362.8685607910156 339.6727294921875 360.9044189453125 332.2784423828125 C 362.5808410644531 325.9441223144531 367.7513122558594 319.8126220703125 374.7276916503906 317.5484924316406 C 382.4025573730469 320.0958557128906 387.86328125 325.6099853515625 390.02783203125 332.669677734375" stroke-width="0.0" fill="rgb(101, 87, 66)" opacity="0.9900135"/>
    <path d="M 180.02748107910156 441.9818420410156 C 178.0332489013672 449.6007080078125 172.7581024169922 455.458984375 165.49403381347656 457.78271484375 C 158.1679229736328 454.3963623046875 152.78933715820312 448.7771911621094 150.87283325195312 441.435302734375 C 152.14051818847656 434.28955078125 157.3975372314453 429.4085998535156 164.72274780273438 427.87408447265625 C 172.17262268066406 429.5766296386719 178.00721740722656 434.598388671875 180.02748107910156 441.9818420410156" stroke-width="0.0" fill="rgb(161, 100, 95)" opacity="0.99004996"/>
    <path d="M 66.0 1.0 C 63.990379333496094 8.5 58.5 13.990381240844727 50.90401077270508 16.06475067138672 C 43.078609466552734 14.311569213867188 37.3829460144043 9.020658493041992 35.43453598022461 1.4560213088989258 C 38.009620666503906 -6.5 43.5 -11.990381240844727 51.0 -14.0 C 58.5 -11.990381240844727 63.990379333496094 -6.5 66.0 1.0" stroke-width="0.0" fill="rgb(41, 46, 54)" opacity="1.0"/>
    <path d="M 296.8773193359375 71.51089477539062 C 294.82745361328125 79.3134536743164 289.3165588378906 84.83562469482422 281.1274108886719 86.91016387939453 C 272.7898864746094 84.79270935058594 267.84088134765625 79.07160186767578 266.8402099609375 71.37103271484375 C 268.68280029296875 64.09583282470703 274.0646667480469 58.60014724731445 281.52862548828125 56.58400344848633 C 289.11785888671875 57.41213607788086 294.7129821777344 62.84018325805664 296.8773193359375 71.51089477539062" stroke-width="0.0" fill="rgb(206, 137, 78)" opacity="1.0"/>
    <path d="M 380.20562744140625 104.83262634277344 C 379.6549072265625 111.96998596191406 373.7703857421875 117.13871002197266 366.5171203613281 118.46566772460938 C 359.2588195800781 116.23853302001953 353.84149169921875 110.712890625 351.9169921875 103.3865966796875 C 353.4030456542969 96.16409301757812 358.00799560546875 90.5289306640625 365.248779296875 89.90855407714844 C 372.67608642578125 91.86322021484375 378.1374206542969 97.3236312866211 380.20562744140625 104.83262634277344" stroke-width="0.0" fill="rgb(176, 64, 38)" opacity="0.9900159"/>
    <path d="M 274.9922790527344 309.016845703125 C 272.9903869628906 316.5 267.5 321.9903869628906 260.0089111328125 323.9960021972656 C 252.6408233642578 321.92486572265625 247.5712432861328 316.16473388671875 245.81729125976562 308.40374755859375 C 247.80545043945312 302.3238525390625 253.3532257080078 296.8970642089844 260.7254638671875 294.94366455078125 C 267.0690612792969 296.652587890625 272.8790283203125 301.7200622558594 274.9922790527344 309.016845703125" stroke-width="0.0" fill="rgb(39, 44, 54)" opacity="0.99005395"/>
    <path d="M 546.0512084960938 321.146240234375 C 544.1075439453125 327.6396179199219 538.6399536132812 333.10858154296875 531.2147216796875 335.140869140625 C 524.5 333.9903869628906 519.0096435546875 328.5 517.077880859375 321.1048278808594 C 519.3435668945312 313.9331359863281 525.0712280273438 308.7221984863281 531.272705078125 306.947509765625 C 538.6290283203125 308.9057312011719 544.1036987304688 314.36688232421875 546.0512084960938 321.146240234375" stroke-width="0.0" fill="rgb(49, 50, 58)" opacity="0.9900116"/>
    <path d="M 290.8595275878906 312.19158935546875 C 288.9889831542969 319.4967956542969 283.49114990234375 324.9692687988281 276.02099609375 326.8411865234375 C 268.5264587402344 324.9394836425781 263.0173645019531 319.4862365722656 261.0027770996094 312.003173828125 C 263.0520324707031 304.6015930175781 268.7901306152344 299.53399658203125 275.3773498535156 297.93145751953125 C 282.7814636230469 299.8233947753906 288.48199462890625 305.1126403808594 290.8595275878906 312.19158935546875" stroke-width="0.0" fill="rgb(38, 44, 54)" opacity="0.9900731"/>
    <path d="M 355.4906311035156 323.37603759765625 C 353.448974609375 330.7958068847656 347.5708312988281 335.7430114746094 339.7965087890625 337.6295166015625 C 332.5628356933594 335.8814392089844 327.02972412109375 330.46405029296875 325.0020751953125 322.9962158203125 C 327.0096130371094 315.5 332.5 310.0096130371094 339.9998474121094 308.00006103515625 C 347.4961853027344 310.0110778808594 352.9552307128906 315.513427734375 355.4906311035156 323.37603759765625" stroke-width="0.0" fill="rgb(255, 231, 168)" opacity="0.99065983"/>
    <path d="M 263.6151123046875 529.64306640625 C 261.7524719238281 537.2389526367188 256.2417297363281 542.760986328125 248.63951110839844 544.7662963867188 C 240.5 541.9903564453125 235.00961303710938 536.5 233.13453674316406 529.1280517578125 C 235.30880737304688 521.7965698242188 240.80746459960938 516.3464965820312 247.65489196777344 514.6632080078125 C 255.0111846923828 516.55908203125 260.49761962890625 521.9696044921875 263.6151123046875 529.64306640625" stroke-width="0.0" fill="rgb(237, 193, 139)" opacity="0.9901328"/>
    <path d="M 502.77227783203125 399.5840148925781 C 500.70989990234375 407.1641845703125 495.1582336425781 412.69439697265625 487.5152893066406 414.79901123046875 C 480.0547790527344 411.61260986328125 474.7449645996094 405.8485412597656 472.88372802734375 398.8223571777344 C 474.7323913574219 392.1310119628906 479.9852600097656 385.9388122558594 486.51397705078125 383.2542724609375 C 494.50921630859375 386.00628662109375 500.08587646484375 391.463623046875 502.77227783203125 399.5840148925781" stroke-width="0.0" fill="rgb(241, 156, 62)" opacity="0.9900768"/>
    <path d="M 252.97596740722656 330.9599609375 C 250.8114471435547 338.2185363769531 245.06283569335938 343.38165283203125 238.40438842773438 345.10736083984375 C 231.1614990234375 343.2368469238281 225.52813720703125 337.920166015625 223.224365234375 330.7950439453125 C 225.16954040527344 323.7281799316406 230.8162384033203 318.4408264160156 238.2147216796875 316.61285400390625 C 245.48789978027344 318.0490417480469 250.9900360107422 323.5011901855469 252.97596740722656 330.9599609375" stroke-width="0.0" fill="rgb(136, 125, 98)" opacity="0.9900514"/>
    <path d="M 103.75579071044922 371.7832946777344 C 101.0254135131836 379.5107116699219 95.50105285644531 384.9906921386719 88.00830078125 386.9941101074219 C 80.55180358886719 384.9556884765625 75.14325714111328 379.41827392578125 72.22393035888672 371.315673828125 C 74.24031829833984 363.81268310546875 79.873291015625 358.4029235839844 88.42359161376953 356.15625 C 94.96295928955078 359.11273193359375 100.45064544677734 365.0948181152344 103.75579071044922 371.7832946777344" stroke-width="0.0" fill="rgb(252, 225, 158)" opacity="0.9971892"/>
    <path d="M 192.8091583251953 257.775634765625 C 190.78366088867188 265.2179870605469 185.15313720703125 270.5986328125 177.31692504882812 272.30322265625 C 169.5647430419922 269.9651794433594 164.4606475830078 264.27508544921875 162.93621826171875 257.7593994140625 C 164.89691162109375 250.36688232421875 170.3675079345703 244.8985137939453 177.37965393066406 242.9518585205078 C 183.6907958984375 244.8661346435547 189.20411682128906 250.28221130371094 192.8091583251953 257.775634765625" stroke-width="0.0" fill="rgb(39, 45, 56)" opacity="0.9900127"/>
    <path d="M 333.52783203125 301.0420837402344 C 331.1835632324219 308.6173400878906 325.57183837890625 314.0360412597656 318.0705261230469 315.87457275390625 C 310.5120849609375 313.922119140625 304.9695739746094 308.52197265625 303.5857238769531 301.171142578125 C 305.0669860839844 293.4759216308594 310.3688049316406 287.7293701171875 317.9714050292969 285.64111328125 C 325.7394104003906 287.669677734375 331.228515625 293.29473876953125 333.52783203125 301.0420837402344" stroke-width="0.0" fill="rgb(252, 227, 164)" opacity="1.0"/>
    <path d="M 241.01548767089844 304.4150085449219 C 239.3520050048828 311.79241943359375 233.75881958007812 317.2492370605469 226.17764282226562 319.3246765136719 C 218.5 316.9903869628906 213.00961303710938 311.5 210.95816040039062 303.9644470214844 C 212.92483520507812 296.4333190917969 218.44705200195312 290.9688720703125 225.70423889160156 289.2300109863281 C 233.09823608398438 291.47802734375 238.583740234375 296.87896728515625 241.01548767089844 304.4150085449219" stroke-width="0.0" fill="rgb(255, 231, 166)" opacity="0.99013853"/>
    <path d="M 186.33554077148438 293.196044921875 C 184.27191162109375 300.7314453125 178.7080078125 306.1970520019531 171.11753845214844 308.08563232421875 C 163.610595703125 305.88818359375 158.1375732421875 300.3816223144531 156.05458068847656 292.9498291015625 C 158.00961303710938 285.5 163.5 280.0096130371094 171.0 278.0 C 178.5 280.0096130371094 183.99038696289062 285.5 186.33554077148438 293.196044921875" stroke-width="0.0" fill="rgb(252, 226, 159)" opacity="0.9906616"/>
    <path d="M 115.0018539428711 341.0030212402344 C 113.00340270996094 348.5185852050781 107.50885009765625 353.9645080566406 99.951904296875 355.385009765625 C 91.92086029052734 354.4248352050781 86.26043701171875 349.1692199707031 84.12870788574219 340.9869384765625 C 86.35291290283203 333.0299987792969 92.21737670898438 327.84747314453125 99.96978759765625 325.98443603515625 C 107.5 328.0096130371094 112.9903793334961 333.5 115.0018539428711 341.0030212402344" stroke-width="0.0" fill="rgb(158, 96, 92)" opacity="1.0"/>
    <path d="M 40.6718635559082 1.622584342956543 C 38.80763626098633 9.319391250610352 33.341007232666016 14.866329193115234 24.49636459350586 16.94358253479004 C 16.62053108215332 14.888638496398926 11.111685752868652 9.379439353942871 9.099355697631836 1.814173698425293 C 11.959489822387695 -6.515658378601074 17.498319625854492 -11.990896224975586 24.99997901916504 -14.000006675720215 C 32.5 -11.990381240844727 37.990379333496094 -6.499999523162842 40.6718635559082 1.622584342956543" stroke-width="0.0" fill="rgb(39, 44, 52)" opacity="1.0"/>
    <path d="M 70.90300750732422 339.04449462890625 C 68.72581481933594 347.0400390625 62.53025817871094 351.45257568359375 55.2784423828125 353.1300048828125 C 48.1827392578125 351.2624206542969 42.75309753417969 345.810791015625 40.8298454284668 338.3583984375 C 41.355224609375 330.7983703613281 46.75773239135742 325.2197265625 54.714054107666016 323.1277160644531 C 63.22053909301758 325.2530517578125 68.77928924560547 330.7662658691406 70.90300750732422 339.04449462890625" stroke-width="0.0" fill="rgb(240, 150, 61)" opacity="0.99002826"/>
    <path d="M 447.7748107910156 301.626708984375 C 445.7054443359375 309.0887451171875 439.9625549316406 314.3444519042969 431.51708984375 316.62750244140625 C 423.8743591308594 314.6827087402344 418.48504638671875 309.0712585449219 416.7753601074219 301.2435302734375 C 419.0096130371094 293.5 424.5 288.0096130371094 432.0 286.0 C 439.5000305175781 288.0096130371094 444.99114990234375 293.4997863769531 447.7748107910156 301.626708984375" stroke-width="0.0" fill="rgb(159, 97, 93)" opacity="1.0"/>
    <path d="M 370.8780822753906 184.65951538085938 C 368.7474670410156 193.19992065429688 363.16302490234375 198.64059448242188 354.8907470703125 200.6056671142578 C 346.8011779785156 198.68089294433594 341.2273254394531 193.23049926757812 339.1125183105469 184.98239135742188 C 341.2175598144531 176.75222778320312 346.7511901855469 171.215087890625 354.8627014160156 169.11276245117188 C 363.26849365234375 171.20619201660156 368.7904052734375 176.73313903808594 370.8780822753906 184.65951538085938" stroke-width="0.0" fill="rgb(159, 97, 92)" opacity="1.0"/>
    <path d="M 324.8687438964844 87.26001739501953 C 321.22607421875 94.7118911743164 315.6849365234375 100.14020538330078 308.7085266113281 102.07341003417969 C 302.2640380859375 100.16818237304688 296.4734802246094 94.81634521484375 293.09503173828125 87.35633087158203 C 295.1920471191406 79.73820495605469 300.7623596191406 74.2498779296875 308.6108093261719 72.17816925048828 C 317.1598815917969 74.33232116699219 322.77398681640625 79.79618072509766 324.8687438964844 87.26001739501953" stroke-width="0.0" fill="rgb(176, 63, 35)" opacity="0.99001807"/>
    <path d="M 355.4715270996094 316.9291687011719 C 353.0376281738281 324.5150451660156 347.5018615722656 329.9908752441406 340.0 332.0 C 332.5 329.9903869628906 327.0096130371094 324.5 324.96905517578125 316.9658508300781 C 326.9018859863281 309.3734130859375 332.3481750488281 303.8190002441406 340.0960388183594 301.53668212890625 C 347.7352600097656 303.7142028808594 353.2441101074219 309.2797546386719 355.4715270996094 316.9291687011719" stroke-width="0.0" fill="rgb(255, 230, 165)" opacity="0.99215555"/>
    <path d="M 191.0 282.0 C 188.99041748046875 289.5000305175781 183.5000762939453 294.9905090332031 176.00025939941406 296.999267578125 C 168.50009155273438 294.99017333984375 163.00962829589844 289.4999694824219 161.0 282.0 C 163.00961303710938 274.5 168.5 269.0096130371094 176.0 267.0 C 183.5 269.0096130371094 188.99038696289062 274.5 191.0 282.0" stroke-width="0.0" fill="rgb(254, 228, 163)" opacity="0.999898"/>
    <path d="M 87.92517852783203 275.069091796875 C 86.06367492675781 282.66009521484375 80.86009979248047 288.5731201171875 73.54544067382812 290.8199768066406 C 65.55073547363281 288.0911560058594 60.30546188354492 282.3297424316406 58.635990142822266 274.89141845703125 C 59.956111907958984 267.25390625 65.1529769897461 261.5797119140625 72.7391128540039 259.69329833984375 C 80.41622924804688 262.0747985839844 85.85801696777344 267.6041564941406 87.92517852783203 275.069091796875" stroke-width="0.0" fill="rgb(170, 59, 36)" opacity="0.99018353"/>
    <path d="M 92.07859802246094 255.6641082763672 C 90.30728149414062 261.87542724609375 84.90031433105469 267.3810119628906 77.60069274902344 269.6097412109375 C 70.12686157226562 268.2668762207031 64.40300750732422 262.9835205078125 62.31499481201172 255.28439331054688 C 64.62423706054688 247.2611846923828 70.36532592773438 241.9350128173828 77.3775863647461 240.6712646484375 C 84.69432830810547 242.82113647460938 90.13312530517578 248.32240295410156 92.07859802246094 255.6641082763672" stroke-width="0.0" fill="rgb(168, 58, 35)" opacity="0.99001944"/>
    <path d="M 574.9386596679688 10.02553653717041 C 572.875244140625 18.360107421875 567.3505249023438 23.848526000976562 559.8427124023438 24.096282958984375 C 552.2855834960938 22.135404586791992 545.9321899414062 16.84040069580078 543.0814208984375 9.347021102905273 C 545.1524658203125 1.6962742805480957 550.7484130859375 -3.6919002532958984 558.8861694335938 -5.490124702453613 C 567.2174072265625 -3.6464524269104004 572.8460693359375 1.7124314308166504 574.9386596679688 10.02553653717041" stroke-width="0.0" fill="rgb(45, 49, 58)" opacity="0.9901873"/>
    <path d="M 525.1256713867188 314.9333801269531 C 522.9903564453125 322.5 517.5 327.9903869628906 509.9981689453125 330.000732421875 C 502.4554748535156 328.008056640625 496.7032165527344 322.6417541503906 494.1394348144531 314.38604736328125 C 496.2397766113281 306.84259033203125 501.9610595703125 301.5763854980469 509.8509521484375 299.8872985839844 C 517.5245971679688 301.99725341796875 523.084716796875 307.4507751464844 525.1256713867188 314.9333801269531" stroke-width="0.0" fill="rgb(238, 153, 55)" opacity="1.0"/>
    <path d="M 32.05165100097656 580.5125122070312 C 30.20398712158203 587.02734375 26.075010299682617 593.7922973632812 17.41814613342285 595.9403686523438 C 9.647588729858398 593.87646484375 4.17485237121582 588.3331909179688 2.305840015411377 580.651123046875 C 5.009618759155273 572.5 10.5 567.0096435546875 17.19441032409668 565.8784790039062 C 24.635831832885742 567.8987426757812 30.10763168334961 573.361328125 32.05165100097656 580.5125122070312" stroke-width="0.0" fill="rgb(44, 49, 57)" opacity="0.9900171"/>
    <path d="M 130.5442352294922 326.57916259765625 C 127.9903793334961 334.5 122.5 339.9903869628906 114.99996185302734 342.0000915527344 C 107.4999771118164 339.9904479980469 102.00961303710938 334.5 99.93833923339844 326.9145812988281 C 101.71378326416016 319.0966491699219 106.94991302490234 313.3111572265625 114.37525177001953 311.1995544433594 C 122.88665771484375 313.7027587890625 128.57286071777344 319.0231628417969 130.5442352294922 326.57916259765625" stroke-width="0.0" fill="rgb(160, 99, 94)" opacity="1.0"/>
    <path d="M 416.9007873535156 315.56787109375 C 414.78460693359375 324.2591552734375 409.2466735839844 329.7486572265625 401.5455627441406 331.6000061035156 C 393.5001220703125 328.9902648925781 388.009765625 323.4998474121094 386.0000915527344 315.99993896484375 C 388.0096130371094 308.5 393.5 303.0096130371094 401.4339599609375 300.54449462890625 C 409.2109069824219 302.31451416015625 414.80743408203125 307.74468994140625 416.9007873535156 315.56787109375" stroke-width="0.0" fill="rgb(158, 96, 91)" opacity="1.0"/>
    <path d="M 538.8865966796875 10.12779712677002 C 535.1401977539062 17.65679359436035 529.6441040039062 23.105697631835938 522.7896728515625 25.049467086791992 C 516.3486328125 23.112939834594727 510.8365478515625 17.66838264465332 507.10723876953125 10.17282485961914 C 509.1493225097656 2.6949236392974854 514.7435913085938 -2.7137961387634277 523.0508422851562 -4.602275371551514 C 531.2879638671875 -2.7379040718078613 536.876220703125 2.66361665725708 538.8865966796875 10.12779712677002" stroke-width="0.0" fill="rgb(44, 49, 58)" opacity="0.9900148"/>
    <path d="M 175.0000762939453 287.0009765625 C 172.9951171875 294.5065612792969 167.49513244628906 299.952880859375 160.69908142089844 301.1297912597656 C 153.28208923339844 299.178955078125 147.84109497070312 293.7096862792969 145.8836212158203 286.20648193359375 C 146.46788024902344 279.1180114746094 152.25732421875 273.8693542480469 159.97329711914062 271.9861145019531 C 167.5 274.0096130371094 172.99038696289062 279.5 175.0000762939453 287.0009765625" stroke-width="0.0" fill="rgb(252, 226, 156)" opacity="0.9900309"/>
    <path d="M 309.0789489746094 517.5645751953125 C 307.4931335449219 524.915283203125 303.14697265625 530.72900390625 295.7171325683594 532.0521240234375 C 288.2633972167969 529.2192993164062 282.8338623046875 523.7173461914062 280.9283447265625 517.245849609375 C 282.86309814453125 510.3230895996094 288.3084411621094 504.8216857910156 295.5682373046875 502.67718505859375 C 301.8902893066406 504.5313415527344 307.18951416015625 510.20709228515625 309.0789489746094 517.5645751953125" stroke-width="0.0" fill="rgb(39, 45, 57)" opacity="0.9900153"/>
    <path d="M 252.72454833984375 536.6063842773438 C 250.7317352294922 544.2271118164062 245.23878479003906 549.7635498046875 237.5485382080078 551.7191772460938 C 229.2679901123047 549.3783569335938 224.55519104003906 543.318115234375 222.9229278564453 536.64892578125 C 224.86468505859375 529.3231201171875 230.31976318359375 523.8565673828125 237.446533203125 521.9198608398438 C 243.7560577392578 523.8103637695312 249.34339904785156 529.1946411132812 252.72454833984375 536.6063842773438" stroke-width="0.0" fill="rgb(175, 65, 33)" opacity="0.9900185"/>
    <path d="M 204.4042510986328 339.6314697265625 C 202.486572265625 347.09185791015625 197.13645935058594 352.6085205078125 189.81365966796875 354.58416748046875 C 182.34835815429688 352.940673828125 176.4625701904297 347.8526916503906 174.74903869628906 339.780517578125 C 176.43775939941406 332.0877380371094 182.2318572998047 326.85107421875 189.97438049316406 324.980224609375 C 197.533203125 326.98590087890625 202.98788452148438 332.47247314453125 204.4042510986328 339.6314697265625" stroke-width="0.0" fill="rgb(252, 226, 165)" opacity="0.9902414"/>
    <path d="M 355.9009094238281 473.1768798828125 C 352.1540222167969 480.66278076171875 346.64886474609375 486.1127014160156 340.43658447265625 488.049072265625 C 333.3536376953125 486.1026611328125 327.8262939453125 480.6709289550781 324.0959167480469 473.1888122558594 C 326.2008361816406 465.7913818359375 331.862548828125 460.3547668457031 340.0576477050781 458.2130126953125 C 348.2334289550781 460.2762145996094 353.8411865234375 465.7171630859375 355.9009094238281 473.1768798828125" stroke-width="0.0" fill="rgb(35, 43, 55)" opacity="0.9900111"/>
    <path d="M 261.5466003417969 327.37091064453125 C 258.18756103515625 334.70257568359375 252.68441772460938 340.1373596191406 245.50634765625 342.0601806640625 C 239.23167419433594 340.1941833496094 233.71151733398438 334.80487060546875 231.80154418945312 328.3973388671875 C 233.7841796875 321.2502746582031 239.27098083496094 315.834716796875 246.77597045898438 313.9028625488281 C 253.5231475830078 315.0252380371094 259.26348876953125 320.3831481933594 261.5466003417969 327.37091064453125" stroke-width="0.0" fill="rgb(41, 45, 54)" opacity="0.9900259"/>
    <path d="M 121.08332061767578 269.10009765625 C 119.29244232177734 276.87884521484375 113.97985076904297 282.5907897949219 106.42961883544922 284.6758728027344 C 98.4839859008789 282.0384826660156 93.00878143310547 276.50262451171875 90.75218963623047 268.8492126464844 C 92.80670928955078 261.4588623046875 98.61858367919922 256.26666259765625 106.16791534423828 254.25180053710938 C 113.5 256.0096130371094 118.9903793334961 261.5 121.08332061767578 269.10009765625" stroke-width="0.0" fill="rgb(255, 231, 166)" opacity="0.99118316"/>
    <path d="M 104.37173461914062 281.26568603515625 C 102.40580749511719 288.8338928222656 96.79158782958984 294.2793273925781 88.79640197753906 296.5703125 C 81.54598999023438 294.3091735839844 76.60759735107422 288.11907958984375 74.87598419189453 280.86944580078125 C 76.58565521240234 273.75457763671875 81.2197265625 267.4767761230469 88.580078125 265.3630065917969 C 96.49951934814453 268.0066833496094 101.98975372314453 273.5013122558594 104.37173461914062 281.26568603515625" stroke-width="0.0" fill="rgb(252, 226, 162)" opacity="0.9901529"/>
    <path d="M 52.9388427734375 27.89723014831543 C 50.62388229370117 34.9929084777832 44.8365592956543 40.196922302246094 38.53128433227539 42.05387496948242 C 31.366769790649414 40.10273361206055 25.901914596557617 34.63133239746094 23.77745246887207 27.100460052490234 C 24.130874633789062 19.645586013793945 29.645702362060547 14.131057739257812 37.240882873535156 12.094244003295898 C 45.692203521728516 14.621176719665527 51.015541076660156 20.436908721923828 52.9388427734375 27.89723014831543" stroke-width="0.0" fill="rgb(44, 49, 58)" opacity="0.9900156"/>
    <path d="M 75.84942626953125 11.75440788269043 C 73.8332290649414 19.28055191040039 68.21916961669922 24.652376174926758 60.34716796875 26.307788848876953 C 52.5 23.990381240844727 47.00962448120117 18.499998092651367 45.00010681152344 11.000016212463379 C 47.00967788696289 3.500047206878662 52.500038146972656 -1.9903473854064941 60.0000114440918 -3.9999916553497314 C 67.5 -1.9903810024261475 72.9903793334961 3.5 75.84942626953125 11.75440788269043" stroke-width="0.0" fill="rgb(41, 45, 54)" opacity="1.0"/>
    <path d="M 514.1962280273438 381.30169677734375 C 512.2452392578125 388.8354187011719 506.935546875 394.6371765136719 500.26123046875 397.5912780761719 C 492.49072265625 394.994384765625 486.9185485839844 389.5348205566406 484.25421142578125 381.5212097167969 C 486.4241027832031 374.1732177734375 492.5401916503906 369.29254150390625 500.6407165527344 366.2658996582031 C 508.2170715332031 368.26031494140625 513.7027587890625 373.7939758300781 514.1962280273438 381.30169677734375" stroke-width="0.0" fill="rgb(238, 152, 61)" opacity="0.9904933"/>
    <path d="M 292.04730224609375 104.68891906738281 C 290.10260009765625 111.63523864746094 284.6370849609375 117.10720825195312 277.1176452636719 119.19583892822266 C 269.74627685546875 118.84214782714844 265.6112060546875 112.98577880859375 263.9379577636719 104.7431869506836 C 265.16156005859375 96.8165512084961 269.69085693359375 91.13424682617188 277.3640441894531 89.06346893310547 C 286.0807800292969 91.22267150878906 290.19708251953125 97.94351196289062 292.04730224609375 104.68891906738281" stroke-width="0.0" fill="rgb(39, 41, 52)" opacity="0.99001104"/>
    <path d="M 267.0603332519531 244.21730041503906 C 265.0912780761719 251.62135314941406 259.6217041015625 257.09210205078125 253.2395477294922 259.0404357910156 C 246.35438537597656 257.0932922363281 240.66314697265625 251.70404052734375 237.09068298339844 244.40684509277344 C 239.25018310546875 236.8845672607422 245.04844665527344 231.6938934326172 253.56085205078125 229.36524963378906 C 261.2308349609375 231.23703002929688 266.33648681640625 236.846923828125 267.0603332519531 244.21730041503906" stroke-width="0.0" fill="rgb(35, 36, 30)" opacity="0.9900087"/>
    <path d="M 70.90495300292969 24.420269012451172 C 68.64427185058594 31.92295265197754 62.685020446777344 37.07300567626953 55.009700775146484 39.00394058227539 C 47.5 36.990379333496094 42.00962829589844 31.499996185302734 40.00013732910156 24.000022888183594 C 42.009674072265625 16.50003433227539 47.500022888183594 11.009636878967285 55.00695037841797 8.997222900390625 C 62.64103317260742 10.948649406433105 68.56097412109375 16.15784454345703 70.90495300292969 24.420269012451172" stroke-width="0.0" fill="rgb(41, 46, 55)" opacity="1.0"/>
    <path d="M 307.36663818359375 312.01727294921875 C 305.2514953613281 319.6912841796875 299.6044616699219 324.9410400390625 292.76434326171875 326.10882568359375 C 285.3041687011719 324.1504821777344 279.8280029296875 318.7039794921875 277.7388000488281 311.3186950683594 C 278.56805419921875 304.0055847167969 283.98858642578125 298.5068664550781 291.78216552734375 296.74005126953125 C 299.2718505859375 299.27606201171875 304.9369812011719 304.6710510253906 307.36663818359375 312.01727294921875" stroke-width="0.0" fill="rgb(249, 227, 163)" opacity="0.99001694"/>
    <path d="M 416.4166259765625 287.62554931640625 C 413.9903869628906 295.5 408.4999694824219 300.9903564453125 400.9999694824219 302.9999694824219 C 393.5 300.9903869628906 388.0095520019531 295.5000305175781 385.7267150878906 287.722900390625 C 387.44830322265625 279.888671875 392.81256103515625 274.2347717285156 400.7027282714844 272.1098327636719 C 409.1705322265625 274.2684631347656 414.6143493652344 279.8716125488281 416.4166259765625 287.62554931640625" stroke-width="0.0" fill="rgb(161, 98, 93)" opacity="1.0"/>
    <path d="M 369.3590393066406 208.23414611816406 C 366.2846984863281 215.91571044921875 361.03277587890625 221.6223602294922 353.87957763671875 223.9105682373047 C 346.5 221.99038696289062 341.0096130371094 216.5 338.8572692871094 208.83450317382812 C 340.5957946777344 201.03475952148438 345.98419189453125 195.43357849121094 353.8701171875 193.4481964111328 C 362.0638122558594 195.45944213867188 367.70098876953125 200.8782196044922 369.3590393066406 208.23414611816406" stroke-width="0.0" fill="rgb(161, 100, 96)" opacity="0.9911204"/>
    <path d="M 347.3456726074219 205.6583251953125 C 344.9548645019531 213.4205780029297 339.2975158691406 218.6034698486328 332.5672302246094 220.13043212890625 C 325.12786865234375 218.2501983642578 319.4285583496094 212.9835205078125 317.0851745605469 205.84841918945312 C 318.9912109375 198.4805145263672 324.45648193359375 192.90943908691406 332.6103515625 190.21835327148438 C 340.1920166015625 192.25230407714844 345.60650634765625 197.8563995361328 347.3456726074219 205.6583251953125" stroke-width="0.0" fill="rgb(163, 101, 96)" opacity="0.99008775"/>
    <path d="M 129.5458526611328 263.3415832519531 C 127.36956787109375 270.8031005859375 121.77557373046875 276.2829284667969 114.13871765136719 278.1683654785156 C 106.5001220703125 275.9902038574219 101.00971984863281 270.4999084472656 99.08617401123047 263.0892333984375 C 101.24689483642578 255.7540283203125 106.77349090576172 250.30995178222656 114.18395233154297 247.54969787597656 C 121.3320541381836 250.08824157714844 126.7056655883789 255.7269744873047 129.5458526611328 263.3415832519531" stroke-width="0.0" fill="rgb(255, 231, 167)" opacity="0.99018574"/>
    <path d="M 312.85906982421875 542.2512817382812 C 309.40789794921875 549.8915405273438 303.84423828125 555.26416015625 296.1897888183594 557.4598999023438 C 288.81414794921875 556.7828979492188 283.31243896484375 551.1326293945312 281.13018798828125 543.660400390625 C 284.6612548828125 536.2125854492188 290.2355041503906 530.7562866210938 297.7792663574219 527.3040771484375 C 305.34295654296875 529.1534423828125 310.8598937988281 534.6521606445312 312.85906982421875 542.2512817382812" stroke-width="0.0" fill="rgb(38, 44, 60)" opacity="0.99002165"/>
    <path d="M 388.85919189453125 121.4666748046875 C 386.6045227050781 129.95315551757812 380.8600158691406 135.3860321044922 373.0313720703125 137.65896606445312 C 365.3991394042969 135.23001098632812 360.1668701171875 129.47076416015625 357.7970275878906 121.73330688476562 C 359.9642028808594 114.86185455322266 366.0633850097656 109.71761322021484 373.54180908203125 107.8790283203125 C 381.0233459472656 108.82349395751953 386.77362060546875 113.8252944946289 388.85919189453125 121.4666748046875" stroke-width="0.0" fill="rgb(251, 229, 156)" opacity="0.9901111"/>
    <path d="M 317.36431884765625 391.6111145019531 C 315.4212951660156 399.04681396484375 310.1246337890625 404.6402893066406 303.05596923828125 406.71466064453125 C 295.8622131347656 404.5902404785156 290.3890075683594 399.1447448730469 287.29400634765625 391.34332275390625 C 289.2462158203125 383.7947082519531 294.80487060546875 378.26837158203125 302.45562744140625 376.2032775878906 C 310.8177185058594 378.57403564453125 316.0190734863281 384.29949951171875 317.36431884765625 391.6111145019531" stroke-width="0.0" fill="rgb(251, 219, 152)" opacity="0.99013144"/>
    <path d="M 606.2671508789062 583.3177490234375 C 604.6356201171875 591.2158813476562 599.28955078125 596.8485717773438 591.1038818359375 598.938720703125 C 582.6572875976562 596.8643798828125 577.1902465820312 591.3240356445312 576.9212646484375 583.8235473632812 C 578.8719482421875 576.3158569335938 584.2783813476562 570.7647705078125 591.48974609375 568.4838256835938 C 598.5 570.0096435546875 603.9903564453125 575.5 606.2671508789062 583.3177490234375" stroke-width="0.0" fill="rgb(44, 49, 57)" opacity="0.9900428"/>
    <path d="M 105.80494689941406 458.90057373046875 C 102.54302978515625 465.859619140625 96.76721954345703 471.1845397949219 90.36690521240234 473.0727233886719 C 83.31941223144531 471.1391906738281 77.85045623779297 465.684814453125 75.92833709716797 458.9960021972656 C 77.8147201538086 452.2332458496094 83.18561553955078 446.69329833984375 90.23705291748047 444.7615661621094 C 97.07815551757812 446.52447509765625 103.01860046386719 451.7965087890625 105.80494689941406 458.90057373046875" stroke-width="0.0" fill="rgb(124, 69, 48)" opacity="0.99001414"/>
    <path d="M 406.00006103515625 304.99993896484375 C 403.9903259277344 312.4999084472656 398.4998779296875 317.99017333984375 390.9999084472656 319.9996032714844 C 383.5 317.9903564453125 378.0096130371094 312.5 376.0 305.0 C 378.0096130371094 297.5 383.5 292.00958251953125 391.0 290.0001525878906 C 398.5 292.0096435546875 403.9904479980469 297.4999694824219 406.00006103515625 304.99993896484375" stroke-width="0.0" fill="rgb(158, 99, 94)" opacity="0.9998972"/>
    <path d="M 397.9996032714844 307.0000305175781 C 395.9903564453125 314.5 390.5000305175781 319.9904479980469 383.2613525390625 321.6275329589844 C 375.8692321777344 319.57293701171875 370.4237976074219 314.13226318359375 368.4912109375 306.64697265625 C 369.5977478027344 299.07098388671875 375.0444030761719 293.5099182128906 382.6968078613281 291.6143493652344 C 390.4999084472656 294.00970458984375 395.9902648925781 299.5000915527344 397.9996032714844 307.0000305175781" stroke-width="0.0" fill="rgb(158, 95, 91)" opacity="0.99044096"/>
    <path d="M 129.01181030273438 295.98797607421875 C 126.9903793334961 303.5 121.5 308.9903869628906 113.3314208984375 311.76849365234375 C 105.70618438720703 309.80145263671875 100.15898132324219 304.3099365234375 99.51689910888672 296.8529052734375 C 101.81819152832031 289.2640686035156 107.25841522216797 283.8053283691406 114.51840209960938 281.91558837890625 C 121.21959686279297 283.5367431640625 126.99657440185547 288.5691223144531 129.01181030273438 295.98797607421875" stroke-width="0.0" fill="rgb(47, 41, 49)" opacity="0.99003136"/>
    <path d="M 539.9293212890625 325.65826416015625 C 537.8125610351562 334.23126220703125 532.1146850585938 339.4211730957031 523.58740234375 340.9729309082031 C 516.0969848632812 339.51763916015625 510.7883605957031 333.8014831542969 508.9562072753906 326.0616760253906 C 511.0096435546875 318.5000915527344 516.50048828125 313.01116943359375 524.751708984375 310.15484619140625 C 532.3305053710938 312.1566162109375 537.8541870117188 317.6652526855469 539.9293212890625 325.65826416015625" stroke-width="0.0" fill="rgb(245, 193, 139)" opacity="0.9907509"/>
    <path d="M 500.3202819824219 326.2184753417969 C 498.529541015625 334.068603515625 493.1211242675781 339.6844177246094 485.5285339355469 341.6413269042969 C 477.5050964355469 338.9883728027344 472.0502624511719 333.4837646484375 469.5333557128906 325.7347106933594 C 471.789306640625 318.38983154296875 477.43548583984375 312.93182373046875 485.4078369140625 310.3896789550781 C 492.9464111328125 312.44287109375 498.26214599609375 318.1527404785156 500.3202819824219 326.2184753417969" stroke-width="0.0" fill="rgb(234, 184, 129)" opacity="1.0"/>
    <path d="M 85.0741195678711 236.2421875 C 83.26165771484375 242.93495178222656 78.1165542602539 248.7429656982422 70.7457275390625 251.29360961914062 C 63.618873596191406 249.28146362304688 58.7312126159668 242.99856567382812 56.931758880615234 236.46176147460938 C 58.86091232299805 229.32615661621094 64.32968139648438 223.8692626953125 71.32725524902344 221.93417358398438 C 77.69155883789062 223.84999084472656 83.15949249267578 229.3046417236328 85.0741195678711 236.2421875" stroke-width="0.0" fill="rgb(172, 58, 35)" opacity="0.990009"/>
    <path d="M 233.86737060546875 329.694580078125 C 231.61801147460938 337.9670715332031 225.76513671875 342.9150085449219 218.27999877929688 344.4722595214844 C 210.95326232910156 342.4573669433594 205.22463989257812 337.1341552734375 202.57763671875 330.1448669433594 C 205.00961303710938 322.5 210.5 317.0096130371094 218.11703491210938 314.90380859375 C 225.92919921875 316.6656494140625 231.6794891357422 321.9465637207031 233.86737060546875 329.694580078125" stroke-width="0.0" fill="rgb(255, 231, 167)" opacity="0.9903489"/>
    <path d="M 457.6997985839844 287.7938537597656 C 455.85955810546875 295.34033203125 450.3260192871094 300.8203430175781 442.64990234375 302.6972351074219 C 434.5055236816406 299.98046875 429.0115966796875 294.4967956542969 426.85760498046875 286.80145263671875 C 428.48553466796875 278.8675231933594 433.7539367675781 273.1681213378906 441.2525939941406 271.0750732421875 C 449.2911682128906 273.6366271972656 454.4348449707031 279.941162109375 457.6997985839844 287.7938537597656" stroke-width="0.0" fill="rgb(138, 94, 88)" opacity="1.0"/>
    <path d="M 277.0024108886719 311.00604248046875 C 275.0447082519531 318.627685546875 269.8255310058594 324.5468444824219 262.5848083496094 326.8275451660156 C 254.46792602539062 324.0799865722656 249.00759887695312 318.5064392089844 246.99127197265625 310.99468994140625 C 248.99411010742188 303.4842224121094 254.4816131591797 297.98504638671875 261.9859924316406 295.9662170410156 C 269.5000305175781 298.00946044921875 274.9903869628906 303.5 277.0024108886719 311.00604248046875" stroke-width="0.0" fill="rgb(39, 46, 53)" opacity="1.0"/>
    <path d="M 523.6593627929688 326.04583740234375 C 521.4901123046875 333.9889831542969 516.0469360351562 339.6402893066406 507.55712890625 341.8564758300781 C 499.7467041015625 339.790771484375 494.2918395996094 334.2239990234375 492.2891540527344 326.36761474609375 C 494.6613464355469 318.2806091308594 500.3680114746094 312.9283447265625 508.04144287109375 310.9443359375 C 515.7478637695312 312.817138671875 521.42138671875 318.1750793457031 523.6593627929688 326.04583740234375" stroke-width="0.0" fill="rgb(237, 153, 57)" opacity="1.0"/>
    <path d="M 486.6408386230469 302.9684753417969 C 484.3740234375 310.80035400390625 478.803466796875 316.3838195800781 471.17706298828125 318.658203125 C 463.0960388183594 316.3965148925781 457.3773193359375 310.9929504394531 455.1261901855469 302.6106262207031 C 457.263671875 294.91802978515625 463.1102294921875 289.77130126953125 471.062255859375 287.94781494140625 C 478.7579650878906 289.7795715332031 484.4089050292969 295.18060302734375 486.6408386230469 302.9684753417969" stroke-width="0.0" fill="rgb(252, 225, 161)" opacity="1.0"/>
    <path d="M 107.14984130859375 381.7859191894531 C 104.9017562866211 389.4997863769531 99.56058502197266 395.1025085449219 91.86665344238281 397.35198974609375 C 84.15359497070312 395.3832702636719 78.76431274414062 389.8023986816406 77.12991333007812 382.0549011230469 C 79.00511932373047 374.49407958984375 84.49397277832031 369.0043029785156 92.01411437988281 366.98883056640625 C 99.61402893066406 368.93780517578125 105.24954986572266 374.32708740234375 107.14984130859375 381.7859191894531" stroke-width="0.0" fill="rgb(251, 224, 159)" opacity="0.9905217"/>
    <path d="M 168.3712921142578 268.6722412109375 C 165.9903106689453 276.4998474121094 160.499755859375 281.98992919921875 152.54896545410156 284.5233154296875 C 144.89674377441406 282.64947509765625 139.48988342285156 277.0586853027344 137.4164276123047 269.08807373046875 C 140.04013061523438 261.7526550292969 145.82928466796875 256.366455078125 153.20106506347656 253.6847686767578 C 160.92788696289062 255.68089294433594 166.54014587402344 261.0082702636719 168.3712921142578 268.6722412109375" stroke-width="0.0" fill="rgb(255, 231, 167)" opacity="0.9903309"/>
    <path d="M 266.1589660644531 221.66087341308594 C 265.645263671875 229.1954345703125 260.2022399902344 234.6765594482422 252.32460021972656 236.02032470703125 C 244.47296142578125 234.05747985839844 239.00643920898438 228.5083770751953 236.999755859375 220.9999542236328 C 239.0060272216797 213.4905242919922 244.46693420410156 207.92568969726562 251.95603942871094 205.40664672851562 C 258.8531799316406 208.57220458984375 264.2210388183594 214.20745849609375 266.1589660644531 221.66087341308594" stroke-width="0.0" fill="rgb(163, 101, 98)" opacity="0.9900909"/>
    <path d="M 365.4536437988281 216.50975036621094 C 363.7672424316406 224.2937469482422 358.3314514160156 229.8692169189453 350.8744812011719 231.8160400390625 C 343.25103759765625 228.1941375732422 337.7681884765625 222.76315307617188 335.662841796875 215.4263916015625 C 337.0108642578125 208.5005340576172 342.5002746582031 203.00990295410156 349.9999694824219 201.00071716308594 C 357.4997863769531 203.00991821289062 362.99029541015625 208.50015258789062 365.4536437988281 216.50975036621094" stroke-width="0.0" fill="rgb(163, 99, 97)" opacity="0.9900803"/>
    <path d="M 225.00006103515625 316.0 C 222.99038696289062 323.5 217.5 328.9903869628906 210.0 331.0 C 202.5 328.9903869628906 197.00961303710938 323.5 195.00003051757812 316.0000305175781 C 197.00965881347656 308.5000305175781 202.5000457763672 303.0096740722656 210.00001525878906 301.0001220703125 C 217.49996948242188 303.0096435546875 222.9903564453125 308.5000305175781 225.00006103515625 316.0" stroke-width="0.0" fill="rgb(255, 228, 163)" opacity="1.0"/>
    <path d="M 435.0254211425781 294.99420166015625 C 432.99359130859375 302.5034484863281 427.5155334472656 308.0362548828125 419.38250732421875 310.76995849609375 C 411.797119140625 308.7564697265625 406.3908996582031 303.153076171875 404.6671142578125 295.3252868652344 C 406.9097595214844 287.3193054199219 412.1756286621094 281.5059509277344 419.5272521972656 279.3006286621094 C 427.5099792480469 281.9979248046875 433.0062561035156 287.4886779785156 435.0254211425781 294.99420166015625" stroke-width="0.0" fill="rgb(159, 99, 92)" opacity="1.0"/>
    <path d="M 315.9320983886719 285.694580078125 C 313.8506164550781 294.3368835449219 308.3435974121094 299.86651611328125 300.8140869140625 301.9158630371094 C 293.2851257324219 298.2577209472656 287.87896728515625 292.67315673828125 285.94598388671875 285.9823303222656 C 287.88238525390625 279.34906005859375 293.3529968261719 273.8915100097656 300.6702880859375 271.9459533691406 C 307.9642333984375 273.6313171386719 313.8417053222656 277.7494201660156 315.9320983886719 285.694580078125" stroke-width="0.0" fill="rgb(42, 47, 54)" opacity="0.99000853"/>
    <path d="M 316.0505676269531 493.6864318847656 C 314.1454772949219 500.7061462402344 308.7256774902344 506.19189453125 301.3515625 508.25836181640625 C 294.7684326171875 506.8973083496094 289.6978454589844 501.0069885253906 287.9425964355469 494.7083435058594 C 289.89886474609375 487.3620300292969 295.3586730957031 481.8914794921875 302.5077209472656 479.9517822265625 C 308.71014404296875 481.8451232910156 314.1567687988281 487.288818359375 316.0505676269531 493.6864318847656" stroke-width="0.0" fill="rgb(38, 43, 54)" opacity="0.990009"/>
    <path d="M 454.8885192871094 322.2103271484375 C 452.2607421875 330.8558349609375 447.02496337890625 336.6864929199219 438.364990234375 338.9207458496094 C 430.7000427246094 336.84429931640625 425.2179260253906 331.2728271484375 423.1069641113281 323.0409240722656 C 425.2712707519531 314.8926086425781 431.0293273925781 309.6540832519531 439.6682434082031 307.2560119628906 C 447.33489990234375 309.1659851074219 452.8653259277344 314.653564453125 454.8885192871094 322.2103271484375" stroke-width="0.0" fill="rgb(159, 96, 90)" opacity="1.0"/>
    <path d="M 527.1712646484375 302.4985656738281 C 526.0642700195312 309.795654296875 520.8768310546875 315.4143981933594 513.22998046875 317.3011779785156 C 505.3129577636719 315.07977294921875 499.3940734863281 309.89581298828125 497.0990905761719 301.7450866699219 C 499.2270812988281 293.7695617675781 504.7783508300781 288.248291015625 512.2243041992188 287.4544982910156 C 519.7832641601562 289.77294921875 525.2544555664062 295.20611572265625 527.1712646484375 302.4985656738281" stroke-width="0.0" fill="rgb(239, 156, 63)" opacity="0.9900717"/>
    <path d="M 376.1332092285156 441.5408020019531 C 374.2325134277344 448.776611328125 368.7727966308594 454.22265625 361.2126159667969 457.22479248046875 C 353.7490234375 455.77850341796875 348.2169494628906 450.2525634765625 346.11627197265625 442.2094421386719 C 348.220458984375 433.7447509765625 353.7421569824219 428.2139587402344 361.8387451171875 426.1205749511719 C 370.1469421386719 428.26495361328125 375.03948974609375 433.9983215332031 376.1332092285156 441.5408020019531" stroke-width="0.0" fill="rgb(161, 102, 100)" opacity="0.99005634"/>
    <path d="M 344.9991455078125 322.9983215332031 C 342.979248046875 330.4762878417969 337.43890380859375 335.8559265136719 329.7546081542969 338.2510070800781 C 322.4327697753906 336.1014709472656 316.8961181640625 330.5696105957031 314.77862548828125 323.1130676269531 C 317.0287780761719 315.5156555175781 322.5124816894531 310.0184631347656 330.002197265625 308.0017395019531 C 337.5 310.0096130371094 342.9903869628906 315.5 344.9991455078125 322.9983215332031" stroke-width="0.0" fill="rgb(255, 231, 168)" opacity="0.9906785"/>
    <path d="M 612.9996337890625 572.0010986328125 C 610.9903564453125 579.5 605.5 584.9903564453125 597.9996337890625 587.0001220703125 C 590.4967651367188 584.9921875 584.9985961914062 579.5059204101562 583.9039916992188 572.8145141601562 C 585.8878173828125 565.3556518554688 591.3579711914062 559.893310546875 598.7536010742188 557.9342041015625 C 605.3118286132812 559.4191284179688 610.9752807617188 564.5427856445312 612.9996337890625 572.0010986328125" stroke-width="0.0" fill="rgb(44, 49, 58)" opacity="0.9900194"/>
    <path d="M 21.268159866333008 571.6807250976562 C 19.967403411865234 578.48828125 14.493999481201172 583.9869995117188 6.259682655334473 586.8582763671875 C -1.1710184812545776 584.7874755859375 -6.367973327636719 579.018798828125 -8.011717796325684 571.176025390625 C -5.659997463226318 563.9674072265625 0.13523155450820923 558.7872924804688 6.4075026512146 556.9494018554688 C 13.639606475830078 558.8988037109375 19.13958740234375 564.3462524414062 21.268159866333008 571.6807250976562" stroke-width="0.0" fill="rgb(43, 48, 57)" opacity="0.9900156"/>
    <path d="M 135.99923706054688 353.999755859375 C 133.98989868164062 361.49957275390625 128.4994354248047 366.9893798828125 120.35404205322266 369.7757568359375 C 112.91458129882812 367.7308654785156 107.90318298339844 361.87841796875 105.91667175292969 354.0015869140625 C 108.010498046875 346.50079345703125 113.50079345703125 341.0104675292969 121.00032806396484 339.00042724609375 C 128.5 341.0096130371094 133.99037170410156 346.5 135.99923706054688 353.999755859375" stroke-width="0.0" fill="rgb(155, 96, 88)" opacity="0.99326855"/>
    <path d="M 180.3009490966797 315.55780029296875 C 179.3118896484375 322.9518127441406 174.10263061523438 328.7314453125 166.275146484375 330.87890625 C 157.78257751464844 328.7490539550781 152.2511444091797 323.2171325683594 150.24371337890625 315.6299133300781 C 152.89712524414062 307.2632141113281 158.0684051513672 301.38031005859375 165.6651611328125 299.11767578125 C 173.29269409179688 301.5869140625 178.35406494140625 307.9942626953125 180.3009490966797 315.55780029296875" stroke-width="0.0" fill="rgb(128, 86, 82)" opacity="1.0"/>
    <path d="M 186.48033142089844 273.4985656738281 C 184.9904327392578 280.5000305175781 179.50006103515625 285.9905700683594 172.0 288.0009460449219 C 164.49990844726562 285.9906311035156 159.00961303710938 280.5000305175781 156.92404174804688 272.8857727050781 C 158.62899780273438 264.99462890625 163.857666015625 259.2432556152344 171.1508026123047 258.7265930175781 C 178.71546936035156 260.8404235839844 184.2450714111328 266.2543640136719 186.48033142089844 273.4985656738281" stroke-width="0.0" fill="rgb(252, 226, 161)" opacity="0.9902098"/>
    <path d="M 80.90849304199219 3.695345878601074 C 78.83614349365234 11.276253700256348 73.20413970947266 16.62645721435547 65.31327056884766 18.26782989501953 C 57.500022888183594 15.990362167358398 52.0096321105957 10.499979972839355 49.99995040893555 3.000001907348633 C 52.00961685180664 -4.500001907348633 57.5 -9.990381240844727 65.00411987304688 -12.001615524291992 C 72.59558868408203 -10.029548645019531 78.47913360595703 -4.765969753265381 80.90849304199219 3.695345878601074" stroke-width="0.0" fill="rgb(41, 45, 53)" opacity="1.0"/>
    <path d="M 140.81532287597656 303.5744323730469 C 138.78225708007812 311.2655334472656 133.2716827392578 316.7978210449219 125.67514038085938 318.790771484375 C 117.23482513427734 316.1961975097656 111.55159759521484 310.8472900390625 109.58136749267578 303.4559631347656 C 112.50944519042969 295.988037109375 118.01445007324219 290.5892333984375 125.2710189819336 288.76226806640625 C 132.50559997558594 290.29595947265625 138.40785217285156 295.2519836425781 140.81532287597656 303.5744323730469" stroke-width="0.0" fill="rgb(157, 96, 92)" opacity="0.99024916"/>
    <path d="M 489.3482360839844 344.50128173828125 C 487.8142395019531 352.4358825683594 482.4892883300781 357.9868469238281 474.9997863769531 359.99993896484375 C 467.5 357.9903869628906 462.0096130371094 352.5 460.0 345.0 C 462.00946044921875 337.4995422363281 467.4975280761719 332.0022277832031 475.08026123046875 329.8138427734375 C 482.7071228027344 331.8223876953125 488.4538879394531 337.1931457519531 489.3482360839844 344.50128173828125" stroke-width="0.0" fill="rgb(252, 226, 163)" opacity="1.0"/>
    <path d="M 263.4226989746094 160.9001007080078 C 261.66546630859375 168.71029663085938 257.0549621582031 174.73341369628906 249.50802612304688 176.8697509765625 C 240.81820678710938 174.7073516845703 235.3057403564453 169.17764282226562 233.75967407226562 161.6352081298828 C 236.65284729003906 154.098876953125 242.08447265625 148.61012268066406 248.77301025390625 146.71551513671875 C 256.03045654296875 148.56625366210938 261.5576171875 153.9258270263672 263.4226989746094 160.9001007080078" stroke-width="0.0" fill="rgb(193, 179, 140)" opacity="0.9901988"/>
    <path d="M 286.5179748535156 347.1864929199219 C 284.285888671875 354.6751403808594 278.5677185058594 359.9195556640625 271.0098876953125 361.64947509765625 C 263.71258544921875 359.70806884765625 258.1405944824219 354.333984375 255.94952392578125 346.95391845703125 C 257.73785400390625 339.178466796875 263.1204833984375 333.54730224609375 270.755615234375 331.3704833984375 C 278.8334045410156 333.6511535644531 284.3247375488281 339.1739196777344 286.5179748535156 347.1864929199219" stroke-width="0.0" fill="rgb(255, 232, 167)" opacity="0.99014604"/>
    <path d="M 69.07328796386719 30.249603271484375 C 67.11248779296875 37.64336395263672 61.638641357421875 43.10127639770508 54.76343536376953 45.04536437988281 C 48.317256927490234 43.11715316772461 42.7210807800293 37.738914489746094 40.36101531982422 30.596818923950195 C 42.0096321105957 23.500003814697266 47.5 18.009618759155273 55.00232696533203 15.998884201049805 C 62.5180778503418 17.99813461303711 67.77607727050781 23.553958892822266 69.07328796386719 30.249603271484375" stroke-width="0.0" fill="rgb(45, 49, 58)" opacity="0.99001765"/>
    <path d="M 74.88033294677734 296.0567626953125 C 72.7960205078125 304.27423095703125 67.27450561523438 309.7972717285156 59.56570816040039 311.8539733886719 C 51.315277099609375 309.5246276855469 46.63120651245117 303.1300964355469 44.84133529663086 295.60272216796875 C 46.45315170288086 288.77288818359375 51.64437484741211 283.08209228515625 59.17057418823242 280.69110107421875 C 66.78584289550781 282.7668762207031 72.66921997070312 288.0227355957031 74.88033294677734 296.0567626953125" stroke-width="0.0" fill="rgb(236, 152, 63)" opacity="0.990131"/>
    <path d="M 202.99989318847656 325.9999694824219 C 200.99037170410156 333.5 195.5 338.9903869628906 187.92807006835938 341.0467529296875 C 180.11117553710938 339.2635192871094 174.33477783203125 334.0306091308594 173.78338623046875 326.7969665527344 C 175.80084228515625 319.20013427734375 181.09901428222656 313.4853820800781 188.1239776611328 310.9567565917969 C 195.5 313.0096130371094 200.99038696289062 318.5 202.99989318847656 325.9999694824219" stroke-width="0.0" fill="rgb(252, 226, 160)" opacity="0.99024975"/>
    <path d="M 497.11065673828125 359.6780700683594 C 495.2313232421875 366.7870178222656 489.7986145019531 372.2635498046875 482.5841979980469 374.34417724609375 C 475.73199462890625 372.6777648925781 470.2731018066406 367.28680419921875 468.173583984375 359.7820129394531 C 469.99481201171875 352.4955139160156 475.4995422363281 347.00946044921875 482.6738586425781 345.34759521484375 C 489.9031677246094 347.5954895019531 495.2864074707031 353.1372985839844 497.11065673828125 359.6780700683594" stroke-width="0.0" fill="rgb(252, 224, 162)" opacity="0.9900332"/>
    <path d="M 281.8819580078125 310.5462341308594 C 279.6913146972656 318.0244140625 273.7820129394531 322.8672790527344 265.5308837890625 324.269287109375 C 258.4988708496094 322.9950256347656 253.0099334716797 317.4997863769531 251.02578735351562 310.020751953125 C 253.0714569091797 302.58038330078125 258.7005310058594 297.4065856933594 265.3254089355469 295.93023681640625 C 272.86175537109375 297.79473876953125 279.1730041503906 302.8951110839844 281.8819580078125 310.5462341308594" stroke-width="0.0" fill="rgb(39, 43, 53)" opacity="0.99016464"/>
    <path d="M 113.07536315917969 327.88616943359375 C 110.9870834350586 335.4974365234375 105.49760437011719 340.9876708984375 97.79066467285156 343.1609802246094 C 89.89350128173828 341.5085754394531 84.25193786621094 336.1828918457031 82.29467010498047 328.0969543457031 C 84.19523620605469 319.6697082519531 89.64497375488281 314.1228942871094 97.26484680175781 312.08441162109375 C 106.0684585571289 314.3202209472656 111.34477996826172 320.0463562011719 113.07536315917969 327.88616943359375" stroke-width="0.0" fill="rgb(160, 92, 89)" opacity="1.0"/>
    <path d="M 475.0570373535156 336.9405212402344 C 472.9903869628906 344.5 467.5 349.9903869628906 459.9906311035156 351.9881286621094 C 452.41070556640625 350.0531921386719 446.7884521484375 344.6375427246094 445.83184814453125 337.7440185546875 C 447.81854248046875 330.2559814453125 453.219482421875 324.71441650390625 460.47723388671875 322.2595520019531 C 467.6959228515625 323.78912353515625 473.1578674316406 329.320068359375 475.0570373535156 336.9405212402344" stroke-width="0.0" fill="rgb(252, 227, 162)" opacity="0.99040884"/>
    <path d="M 145.89532470703125 338.4869689941406 C 143.73480224609375 347.1615295410156 138.08985900878906 352.5242919921875 130.2469024658203 354.229248046875 C 122.49946594238281 351.9909362792969 117.0087661743164 346.5006103515625 114.99947357177734 339.00054931640625 C 117.00983428955078 331.5002136230469 122.50028991699219 326.01007080078125 130.65847778320312 323.21533203125 C 138.25363159179688 325.2293701171875 143.8094482421875 330.73016357421875 145.89532470703125 338.4869689941406" stroke-width="0.0" fill="rgb(158, 100, 95)" opacity="1.0"/>
    <path d="M 262.0086975097656 220.99786376953125 C 259.9959411621094 228.51353454589844 254.55120849609375 234.12103271484375 246.41163635253906 236.778564453125 C 238.745849609375 234.77560424804688 233.2213592529297 229.2549285888672 231.11013793945312 220.8303680419922 C 233.21241760253906 212.74298095703125 238.74386596679688 207.21470642089844 246.3424530029297 205.17408752441406 C 254.55508422851562 207.87286376953125 259.9991760253906 213.48365783691406 262.0086975097656 220.99786376953125" stroke-width="0.0" fill="rgb(162, 99, 97)" opacity="1.0"/>
    <path d="M 483.9998474121094 343.9997253417969 C 481.9905090332031 351.5001220703125 476.50018310546875 356.99066162109375 468.71044921875 359.4942321777344 C 461.29278564453125 357.311279296875 455.9081115722656 351.63720703125 453.9847717285156 344.0260009765625 C 456.0096130371094 336.5 461.4999694824219 331.00958251953125 469.0198669433594 328.9567565917969 C 476.5113830566406 330.9848937988281 481.9925842285156 336.4951477050781 483.9998474121094 343.9997253417969" stroke-width="0.0" fill="rgb(255, 228, 165)" opacity="0.99461335"/>
  </g>
</svg>
